/* XPM */
static char * add_server_mini_xpm[] = {
"22 22 345 2",
"  	c None",
". 	c #000000",
"+ 	c #575757",
"@ 	c #868686",
"# 	c #818181",
"$ 	c #7A7A7A",
"% 	c #757575",
"& 	c #6F6F6F",
"* 	c #6A6A6A",
"= 	c #646464",
"- 	c #5E5E5E",
"; 	c #595959",
"> 	c #525252",
", 	c #4D4D4D",
"' 	c #464646",
") 	c #414141",
"! 	c #3B3B3B",
"~ 	c #353535",
"{ 	c #303030",
"] 	c #292929",
"^ 	c #242424",
"/ 	c #141414",
"( 	c #CFCFCF",
"_ 	c #C4C5C6",
": 	c #B0B8C0",
"< 	c #94A9C1",
"[ 	c #82A0C0",
"} 	c #7799BD",
"| 	c #7093B7",
"1 	c #698CB0",
"2 	c #6286AA",
"3 	c #5C7FA3",
"4 	c #54789D",
"5 	c #4E7296",
"6 	c #496B8E",
"7 	c #475F78",
"8 	c #474F59",
"9 	c #434445",
"0 	c #323232",
"a 	c #1B1B1B",
"b 	c #808080",
"c 	c #C5C5C5",
"d 	c #ACB6C1",
"e 	c #6D9DCD",
"f 	c #5797D7",
"g 	c #5597D8",
"h 	c #5194D5",
"i 	c #5093D2",
"j 	c #4E90CF",
"k 	c #4D8FCC",
"l 	c #4B8CC8",
"m 	c #498AC6",
"n 	c #4789C4",
"o 	c #4385C2",
"p 	c #2F71B2",
"q 	c #295888",
"r 	c #353F4A",
"s 	c #303131",
"t 	c #151515",
"u 	c #BBBBBB",
"v 	c #84A0BE",
"w 	c #4E8CC8",
"x 	c #AEC5BC",
"y 	c #CDD7B9",
"z 	c #CFD8B7",
"A 	c #CFD8B6",
"B 	c #D0D7B4",
"C 	c #D3CFAF",
"D 	c #D5D6B2",
"E 	c #D7DDB6",
"F 	c #D9E0B8",
"G 	c #D5DDB6",
"H 	c #88A09E",
"I 	c #205C96",
"J 	c #224060",
"K 	c #26282A",
"L 	c #1E1E1E",
"M 	c #0F0F0F",
"N 	c #747474",
"O 	c #B2B2B2",
"P 	c #7393B7",
"Q 	c #548CBD",
"R 	c #E1E5A7",
"S 	c #FCF7A5",
"T 	c #FDF7A5",
"U 	c #FDF8A5",
"V 	c #FDEA9D",
"W 	c #FD8A69",
"X 	c #FDC286",
"Y 	c #FEF7A5",
"Z 	c #FEF8A5",
"` 	c #C8C98F",
" .	c #2D5B82",
"..	c #183D65",
"+.	c #1D1F23",
"@.	c #080808",
"#.	c #6E6E6E",
"$.	c #A8A8A8",
"%.	c #6B8CAF",
"&.	c #4C86B5",
"*.	c #DDDF8F",
"=.	c #FEF78A",
"-.	c #FFF78B",
";.	c #FFF189",
">.	c #FFDB7E",
",.	c #FF543E",
"'.	c #FFA364",
").	c #FFEF89",
"!.	c #FFF48A",
"~.	c #FFF78C",
"{.	c #CFCD7B",
"].	c #315B79",
"^.	c #12375F",
"/.	c #13161A",
"(.	c #0C0C0C",
"_.	c #020202",
":.	c #676767",
"<.	c #9E9E9E",
"[.	c #6585A9",
"}.	c #427EAF",
"|.	c #D5D677",
"1.	c #FDF46D",
"2.	c #FFE869",
"3.	c #FF8B4D",
"4.	c #FF6340",
"5.	c #FF362F",
"6.	c #FF5039",
"7.	c #FF7246",
"8.	c #FFC35E",
"9.	c #FFF56D",
"0.	c #D2CE64",
"a.	c #355E73",
"b.	c #0C3057",
"c.	c #090C0F",
"d.	c #030303",
"e.	c #626262",
"f.	c #949494",
"g.	c #5E7FA1",
"h.	c #3978AC",
"i.	c #C9CB66",
"j.	c #FDF254",
"k.	c #FFE951",
"l.	c #FF9E3E",
"m.	c #FF7935",
"n.	c #FF3D2D",
"o.	c #FF6031",
"p.	c #FF8A38",
"q.	c #FFCC49",
"r.	c #FFF354",
"s.	c #D3CD4F",
"t.	c #36616F",
"u.	c #062A50",
"v.	c #010408",
"w.	c #5B5B5B",
"x.	c #8A8A8A",
"y.	c #5D7896",
"z.	c #2A6DAC",
"A.	c #A2B05F",
"B.	c #F9ED37",
"C.	c #FFF236",
"D.	c #FFF035",
"E.	c #FFDC33",
"F.	c #FF582B",
"G.	c #FEA330",
"H.	c #FAEB35",
"I.	c #F5E837",
"J.	c #DDD539",
"K.	c #949E47",
"L.	c #18507B",
"M.	c #012043",
"N.	c #000204",
"O.	c #565656",
"P.	c #828282",
"Q.	c #607489",
"R.	c #2365AA",
"S.	c #6F8D68",
"T.	c #E8DE25",
"U.	c #FFF01B",
"V.	c #FFF01C",
"W.	c #FBE31C",
"X.	c #F29720",
"Y.	c #DFB128",
"Z.	c #B0B334",
"`.	c #8B9943",
" +	c #567356",
".+	c #235976",
"++	c #034383",
"@+	c #00142B",
"#+	c #000002",
"$+	c #4F4F4F",
"%+	c #777777",
"&+	c #606C79",
"*+	c #2462A2",
"=+	c #3A6B7E",
"-+	c #AFB42C",
";+	c #D9D318",
">+	c #CDCE22",
",+	c #A3B138",
"'+	c #67855B",
")+	c #3D7583",
"!+	c #1B6398",
"~+	c #0D589B",
"{+	c #0454A3",
"]+	c #014995",
"^+	c #00254C",
"/+	c #00050B",
"(+	c #4A4A4A",
"_+	c #5C646D",
":+	c #27609C",
"<+	c #0D5AA7",
"[+	c #2B617E",
"}+	c #3B6F79",
"|+	c #286A8F",
"1+	c #0E62AB",
"2+	c #045EB7",
"3+	c #015FC0",
"4+	c #0062C8",
"5+	c #0065CE",
"6+	c #0060C3",
"7+	c #00356E",
"8+	c #000E1F",
"9+	c #00060C",
"0+	c #434343",
"a+	c #575B5E",
"b+	c #35587E",
"c+	c #0B62BC",
"d+	c #025FBF",
"e+	c #025FBD",
"f+	c #0161C3",
"g+	c #0064CC",
"h+	c #0069D6",
"i+	c #006EE0",
"j+	c #0073E9",
"k+	c #0075ED",
"l+	c #0070E5",
"m+	c #0058B5",
"n+	c #004285",
"o+	c #00376F",
"p+	c #001D3E",
"q+	c #3D3D3D",
"r+	c #5A5A5A",
"s+	c #515151",
"t+	c #424951",
"u+	c #1C5997",
"v+	c #036DDA",
"w+	c #0272E6",
"x+	c #0274E7",
"y+	c #0072E8",
"z+	c #0076F0",
"A+	c #0075EE",
"B+	c #0073EA",
"C+	c #0070E3",
"D+	c #0072E6",
"E+	c #0072E7",
"F+	c #0068D4",
"G+	c #0055AF",
"H+	c #002853",
"I+	c #00040A",
"J+	c #373737",
"K+	c #505050",
"L+	c #484848",
"M+	c #3D3E3F",
"N+	c #284461",
"O+	c #0E63BA",
"P+	c #0E7EF2",
"Q+	c #0D81F7",
"R+	c #0274EA",
"S+	c #006DDD",
"T+	c #006AD6",
"U+	c #0066CF",
"V+	c #0065CD",
"W+	c #0067D0",
"X+	c #006CDC",
"Y+	c #0272E5",
"Z+	c #046EDB",
"`+	c #024285",
" @	c #000913",
".@	c #313131",
"+@	c #3E3E3E",
"@@	c #343434",
"#@	c #292D31",
"$@	c #1C3E62",
"%@	c #1D77D3",
"&@	c #0D7DF0",
"*@	c #0166CE",
"=@	c #0060C2",
"-@	c #005FC0",
";@	c #0062C6",
">@	c #0061C5",
",@	c #016BD8",
"'@	c #0B7AED",
")@	c #0F69C5",
"!@	c #02264A",
"~@	c #000307",
"{@	c #2B2B2B",
"]@	c #2A2A2A",
"^@	c #212222",
"/@	c #192736",
"(@	c #1A65B3",
"_@	c #087AED",
":@	c #0066CE",
"<@	c #0063C9",
"[@	c #0065CF",
"}@	c #006AD7",
"|@	c #036DD9",
"1@	c #066AD0",
"2@	c #0953A0",
"3@	c #052950",
"4@	c #333333",
"5@	c #202020",
"6@	c #171717",
"7@	c #0E141A",
"8@	c #0E4175",
"9@	c #0871DB",
"0@	c #006EDD",
"a@	c #0069D5",
"b@	c #006DDB",
"c@	c #036EDB",
"d@	c #0765C6",
"e@	c #064E99",
"f@	c #032D58",
"g@	c #001122",
"h@	c #1F1F1F",
"i@	c #212121",
"j@	c #181818",
"k@	c #0E0E0E",
"l@	c #050606",
"m@	c #020F1B",
"n@	c #05386C",
"o@	c #0355A9",
"p@	c #0061C4",
"q@	c #025AB5",
"r@	c #054C96",
"s@	c #033A72",
"t@	c #011D3A",
"u@	c #000B17",
"v@	c #101010",
"w@	c #0A0A0A",
"x@	c #040404",
"y@	c #000102",
"z@	c #00070E",
"A@	c #001328",
"B@	c #001E3F",
"C@	c #001731",
"D@	c #000B18",
". . . . . . . . . . . . . . . . . . . . . . ",
". + @ # $ % & * = - ; > , ' ) ! ~ { ] ^ / . ",
". @ ( _ : < [ } | 1 2 3 4 5 6 7 8 9 ! 0 a . ",
". b c d e f g h i j k l m n o p q r s ] t . ",
". $ u v w x y z A B C D E F G H I J K L M . ",
". N O P Q R S T U V W X Y Z T `  ...+.t @.. ",
". #.$.%.&.*.=.-.;.>.,.'.).!.~.{.].^./.(._.. ",
". :.<.[.}.|.1.2.3.4.5.6.7.8.9.0.a.b.c.d.. . ",
". e.f.g.h.i.j.k.l.m.n.o.p.q.r.s.t.u.v.. . . ",
". w.x.y.z.A.B.C.D.E.F.G.H.I.J.K.L.M.N.. . . ",
". O.P.Q.R.S.T.U.V.W.X.Y.Z.`. +.+++@+#+. . . ",
". $+%+&+*+=+-+;+>+,+'+)+!+~+{+]+^+/+. . . . ",
". (+#._+:+<+[+}+|+1+2+3+4+5+6+7+8+9+N.. . . ",
". 0+= a+b+c+d+e+f+g+h+i+j+k+l+m+n+o+p+/+. . ",
". q+r+s+t+u+v+w+x+y+k+z+A+B+C+D+E+F+G+H+I+. ",
". J+K+L+M+N+O+P+Q+R+S+T+U+V+W+g+X+Y+Z+`+ @. ",
". .@' +@@@#@$@%@&@*@=@-@6+;@U+>@,@'@)@!@~@. ",
". {@q+@@]@^@/@(@_@:@>@4+<@[@}@|@1@2@3@/+. . ",
". ^ 4@]@5@6@7@8@9@0@a@a@b@c@d@e@f@g@~@. . . ",
". h@] i@j@k@l@m@n@o@p@q@r@s@t@u@N.. . . . . ",
". v@t M w@x@. y@z@A@B@C@D@9+y@. . . . . . . ",
". . . . . . . . . . . . . . . . . . . . . . "};
