/* XPM */
static char * add_shared_directory_mini_xpm[] = {
"22 22 256 2",
"  	c None",
". 	c #000000",
"+ 	c #565656",
"@ 	c #838383",
"# 	c #7D7D7D",
"$ 	c #767676",
"% 	c #707070",
"& 	c #6A6A6A",
"* 	c #636363",
"= 	c #5D5D5D",
"- 	c #515151",
"; 	c #494949",
"> 	c #444444",
", 	c #3C3C3C",
"' 	c #363636",
") 	c #303030",
"! 	c #2A2A2A",
"~ 	c #232323",
"{ 	c #1C1C1C",
"] 	c #161616",
"^ 	c #0B0B0B",
"/ 	c #CBCBCB",
"( 	c #CCCCCC",
"_ 	c #CACACA",
": 	c #C8C8C8",
"< 	c #D1D1D1",
"[ 	c #B5B5B5",
"} 	c #8D8D8D",
"| 	c #858585",
"1 	c #7F7F7F",
"2 	c #797979",
"3 	c #868686",
"4 	c #8B8B8B",
"5 	c #8A8A8A",
"6 	c #808080",
"7 	c #4F4F4F",
"8 	c #2F2F2F",
"9 	c #252525",
"0 	c #1B1B1B",
"a 	c #0C0C0C",
"b 	c #818181",
"c 	c #CFCFCF",
"d 	c #EBEBEB",
"e 	c #EDEDED",
"f 	c #A1A1A1",
"g 	c #AFAFAF",
"h 	c #B9B9B9",
"i 	c #C3C3C3",
"j 	c #D5D5D5",
"k 	c #DBDBDB",
"l 	c #DADADA",
"m 	c #D0D0D0",
"n 	c #666666",
"o 	c #1A1A1A",
"p 	c #111111",
"q 	c #050505",
"r 	c #8C8C8C",
"s 	c #D6D6D6",
"t 	c #F0F0F0",
"u 	c #EEEEEE",
"v 	c #E9E9E9",
"w 	c #E4E4E4",
"x 	c #E1E1E1",
"y 	c #E8E8E8",
"z 	c #E6E6E6",
"A 	c #C9C9C9",
"B 	c #5C5C5C",
"C 	c #0E0E0E",
"D 	c #060606",
"E 	c #A2A2A2",
"F 	c #EAEAEA",
"G 	c #E7E7E7",
"H 	c #E5E5E5",
"I 	c #E0E0DF",
"J 	c #D3D3D3",
"K 	c #C4C4C4",
"L 	c #B1B1B1",
"M 	c #A0A0A0",
"N 	c #898989",
"O 	c #6E6E6D",
"P 	c #333333",
"Q 	c #121212",
"R 	c #0D0D0D",
"S 	c #090909",
"T 	c #EFEFEF",
"U 	c #B6B7B7",
"V 	c #9D9D9C",
"W 	c #858584",
"X 	c #727272",
"Y 	c #5C5B5B",
"Z 	c #434242",
"` 	c #121211",
" .	c #0F0F0F",
"..	c #191919",
"+.	c #A8A8A8",
"@.	c #ECECEC",
"#.	c #4B4B4B",
"$.	c #2E2F2F",
"%.	c #242424",
"&.	c #3F3F3F",
"*.	c #6B6B6B",
"=.	c #323232",
"-.	c #272727",
";.	c #434343",
">.	c #474747",
",.	c #2B2B2B",
"'.	c #212121",
").	c #DFDFDF",
"!.	c #777777",
"~.	c #1D1D1D",
"{.	c #E3E3E3",
"].	c #7E7E7E",
"^.	c #888888",
"/.	c #CDCDCD",
"(.	c #7B7B7B",
"_.	c #1F1F1F",
":.	c #131313",
"<.	c #949494",
"[.	c #D2D1D2",
"}.	c #616161",
"|.	c #D9D9D9",
"1.	c #F3F3F3",
"2.	c #B8B8B8",
"3.	c #A3A2A0",
"4.	c #E9E9E7",
"5.	c #020202",
"6.	c #C2C2C2",
"7.	c #5B5B5B",
"8.	c #3A3A3A",
"9.	c #3D3D3D",
"0.	c #6D6D6D",
"a.	c #F1F1EE",
"b.	c #CBC6B0",
"c.	c #A89C6A",
"d.	c #C3B47C",
"e.	c #CDC8B4",
"f.	c #8B8A8A",
"g.	c #2D2D2D",
"h.	c #010101",
"i.	c #4D4D4D",
"j.	c #626262",
"k.	c #ADADAD",
"l.	c #DDDCDA",
"m.	c #E2D8B2",
"n.	c #E9CC5E",
"o.	c #E0CA7D",
"p.	c #C2BEAF",
"q.	c #717171",
"r.	c #7C7C7C",
"s.	c #AAAAAA",
"t.	c #646464",
"u.	c #757575",
"v.	c #DEDEDE",
"w.	c #ECEAE1",
"x.	c #F2E8C3",
"y.	c #F1ECDC",
"z.	c #E7E7E6",
"A.	c #BDBDBD",
"B.	c #5F5F5F",
"C.	c #080808",
"D.	c #929292",
"E.	c #484848",
"F.	c #383838",
"G.	c #414141",
"H.	c #959595",
"I.	c #F4F4F4",
"J.	c #FCFCFC",
"K.	c #FEFEFE",
"L.	c #FDFDFD",
"M.	c #F9F9F9",
"N.	c #A7A7A7",
"O.	c #292929",
"P.	c #686868",
"Q.	c #101010",
"R.	c #585858",
"S.	c #F1F1F1",
"T.	c #FFFFFF",
"U.	c #5A5A5A",
"V.	c #C7C7C7",
"W.	c #504F4F",
"X.	c #070606",
"Y.	c #2C2B2B",
"Z.	c #9B9A9A",
"`.	c #FAFAFA",
" +	c #D4D5D5",
".+	c #ABABAB",
"++	c #535354",
"@+	c #0D0D0E",
"#+	c #797775",
"$+	c #A09E9D",
"%+	c #777573",
"&+	c #4F4942",
"*+	c #898176",
"=+	c #D0C9BF",
"-+	c #F0ECE6",
";+	c #F2EFED",
">+	c #DFDEDD",
",+	c #C4C5C5",
"'+	c #868687",
")+	c #6B6A6A",
"!+	c #474746",
"~+	c #292A2A",
"{+	c #6A6765",
"]+	c #8F8D8B",
"^+	c #D2CBBE",
"/+	c #D8C39C",
"(+	c #F0D5A2",
"_+	c #F5DBA8",
":+	c #F1DBB1",
"<+	c #E2CDAC",
"[+	c #B39F87",
"}+	c #584B42",
"|+	c #322B26",
"1+	c #393025",
"2+	c #6E5C42",
"3+	c #352B1E",
"4+	c #020101",
"5+	c #464442",
"6+	c #7A7876",
"7+	c #D4C6B5",
"8+	c #DAB481",
"9+	c #EDB46C",
"0+	c #EEA95D",
"a+	c #DB9455",
"b+	c #CB8650",
"c+	c #C58857",
"d+	c #A36E42",
"e+	c #9E754B",
"f+	c #B58E60",
"g+	c #7F6747",
"h+	c #15110B",
"i+	c #312F31",
"j+	c #676566",
"k+	c #A7A09A",
"l+	c #4D4033",
"m+	c #6D4322",
"n+	c #8F5121",
"o+	c #9A4E1D",
"p+	c #B25723",
"q+	c #C36A2A",
"r+	c #C87934",
"s+	c #956434",
"t+	c #412F1C",
"u+	c #0D0906",
"v+	c #2A282B",
"w+	c #4E4C4D",
"x+	c #555352",
"y+	c #0E0D0D",
"z+	c #0A0502",
"A+	c #100803",
"B+	c #221106",
"C+	c #4E290E",
"D+	c #593313",
"E+	c #46280F",
"F+	c #150D05",
"G+	c #020100",
". . . . . . . . . . . . . . . . . . . . . . ",
". + @ # $ % & * = + - ; > , ' ) ! ~ { ] ^ . ",
". @ / ( _ : < [ } | 1 2 3 4 5 6 7 8 9 0 a . ",
". b c d e e e < f g h i j k l m n 9 o p q . ",
". r s t u d v w x v y z x k j A B o C D . . ",
". E F u F y G z H I J K L M N O P Q R S . . ",
". g T d x : U V W X Y Z 8 9 o `  . ...] . . ",
". +.@.y L #.$.%.&.% *.=.-.;.>.,.0 { '.o . . ",
". M @.).!.~.o ' M {.c ].^._ /.(._.:.R D . . ",
". <.v [.}.! ,.* |.1.2.2 3.4.H 1 S 5.5.. . . ",
". ^.G 6.7.8.9.0.j a.b.c.d.e.f.g.h.. . . . . ",
". b z [ = i.7 j.k.l.m.n.o.p.q.0 . . . . . . ",
". r.x s.t.B 7.u.[ v.w.x.y.z.A.B.C.. . . . . ",
". u.l D.E.F.G.H.k I.J.K.L.M.w N.O.h.. . . . ",
". % s P.Q. .R.: S.J.K.T.K.J.S./.U.S . . . . ",
". q.V.W.X.Y.Z.G `.L.J.M.1.F  +.+++@+. . . . ",
". #+$+%+&+*+=+-+;+>+,++.'+)+!+~+ .5.. . . . ",
". {+]+^+/+(+_+:+<+[+}+|+1+2+3+4+. . . . . . ",
". 5+6+7+8+9+0+a+b+c+d+e+f+g+h+. . . . . . . ",
". i+j+k+l+m+n+o+p+q+r+s+t+u+. . . . . . . . ",
". v+w+x+y+z+A+B+C+D+E+F+G+. . . . . . . . . ",
". . . . . . . . . . . . . . . . . . . . . . "};
