/* XPM */
static char * add_server_xpm[] = {
"32 32 566 2",
"  	c None",
". 	c #000000",
"+ 	c #DFDFDF",
"@ 	c #D8D8D8",
"# 	c #D1D1D1",
"$ 	c #CBCBCB",
"% 	c #C4C4C4",
"& 	c #BFBFBF",
"* 	c #B8B8B8",
"= 	c #B2B2B2",
"- 	c #ACACAC",
"; 	c #A5A5A5",
"> 	c #9E9E9E",
", 	c #989898",
"' 	c #929292",
") 	c #8C8C8C",
"! 	c #858585",
"~ 	c #7F7F7F",
"{ 	c #797979",
"] 	c #727272",
"^ 	c #6B6B6B",
"/ 	c #656565",
"( 	c #5E5E5E",
"_ 	c #595959",
": 	c #525252",
"< 	c #4C4C4C",
"[ 	c #454545",
"} 	c #3F3F3F",
"| 	c #393939",
"1 	c #323232",
"2 	c #D7D7D7",
"3 	c #BEBEBE",
"4 	c #B3B6B8",
"5 	c #A6ADB6",
"6 	c #9AA6B4",
"7 	c #91A1B1",
"8 	c #8A9AAB",
"9 	c #8595A7",
"0 	c #8091A2",
"a 	c #7A8B9C",
"b 	c #738596",
"c 	c #6E8092",
"d 	c #697B8C",
"e 	c #627486",
"f 	c #5E6F81",
"g 	c #586A7B",
"h 	c #536475",
"i 	c #4F5D6B",
"j 	c #4D535B",
"k 	c #4A4B4D",
"l 	c #383838",
"m 	c #2C2C2C",
"n 	c #CACACA",
"o 	c #AAB3BC",
"p 	c #84A4C5",
"q 	c #6599CF",
"r 	c #5193D7",
"s 	c #468FDB",
"t 	c #408DDD",
"u 	c #3D8ADB",
"v 	c #3B88DA",
"w 	c #3986D7",
"x 	c #3584D5",
"y 	c #3482D3",
"z 	c #3380D1",
"A 	c #2F7DCE",
"B 	c #2D7CCC",
"C 	c #2B7ACA",
"D 	c #2B77C6",
"E 	c #2C70B6",
"F 	c #316092",
"G 	c #384E66",
"H 	c #3C4046",
"I 	c #252525",
"J 	c #BDBDBD",
"K 	c #AFB4B9",
"L 	c #739EC8",
"M 	c #3E8CDB",
"N 	c #4992DA",
"O 	c #589AD6",
"P 	c #5B99D2",
"Q 	c #5B98CE",
"R 	c #5B97CC",
"S 	c #5B96C9",
"T 	c #5B96C7",
"U 	c #5C96C5",
"V 	c #5A93C2",
"W 	c #5A92C0",
"X 	c #5A91BF",
"Y 	c #5890BE",
"Z 	c #5891BE",
"` 	c #5791C0",
" .	c #4183BC",
"..	c #1B69B8",
"+.	c #1A5DA3",
"@.	c #2B4560",
"#.	c #303234",
"$.	c #2B2B2B",
"%.	c #242424",
"&.	c #1F1F1F",
"*.	c #C3C3C3",
"=.	c #B7B7B7",
"-.	c #9CA8B6",
";.	c #4585C9",
">.	c #4D8CC8",
",.	c #AFC2BA",
"'.	c #D0D6B8",
").	c #D4D9B7",
"!.	c #D5D9B5",
"~.	c #D6DAB5",
"{.	c #D6DAB3",
"].	c #D7DBB4",
"^.	c #D9DDB4",
"/.	c #DCDEB5",
"(.	c #DEE0B7",
"_.	c #E0E2B8",
":.	c #E1E3B8",
"<.	c #E6E8BA",
"[.	c #E9EBBB",
"}.	c #C0C7A8",
"|.	c #55788D",
"1.	c #1258A0",
"2.	c #194A7F",
"3.	c #262E38",
"4.	c #1D1D1D",
"5.	c #181818",
"6.	c #B6B6B6",
"7.	c #B0B0B0",
"8.	c #8F9EB0",
"9.	c #347CC6",
"0.	c #6798B9",
"a.	c #E6E8AD",
"b.	c #FBF7AE",
"c.	c #FAF6AE",
"d.	c #FCF6AE",
"e.	c #FAF5AD",
"f.	c #FCF1AB",
"g.	c #FCBC8C",
"h.	c #FDB083",
"i.	c #FDEBA6",
"j.	c #FDF6AE",
"k.	c #FDF7AE",
"l.	c #FDF8AF",
"m.	c #FEF8AE",
"n.	c #F6F3AB",
"o.	c #959D82",
"p.	c #174E86",
"q.	c #114B88",
"r.	c #1F2B3B",
"s.	c #1E1E1E",
"t.	c #171717",
"u.	c #111111",
"v.	c #A9A9A9",
"w.	c #8898AA",
"x.	c #3077C3",
"y.	c #6694B1",
"z.	c #E6E69D",
"A.	c #FEF79B",
"B.	c #FFF99C",
"C.	c #FFEB94",
"D.	c #FF684D",
"E.	c #FF463A",
"F.	c #FFD789",
"G.	c #FFF89C",
"H.	c #FEF89B",
"I.	c #A2A576",
"J.	c #1B4C7B",
"K.	c #0E4885",
"L.	c #182636",
"M.	c #0A0A0A",
"N.	c #AFAFAF",
"O.	c #A2A2A2",
"P.	c #8393A4",
"Q.	c #2C74C0",
"R.	c #5E8FAB",
"S.	c #DFDF8A",
"T.	c #FDF586",
"U.	c #FFF888",
"V.	c #FFF789",
"W.	c #FFF788",
"X.	c #FFE981",
"Y.	c #FF6243",
"Z.	c #FF3F34",
"`.	c #FFD578",
" +	c #FFF688",
".+	c #FFF889",
"++	c #A5A669",
"@+	c #1E4E79",
"#+	c #0B4581",
"$+	c #122030",
"%+	c #030303",
"&+	c #A8A8A8",
"*+	c #9C9C9C",
"=+	c #7F8E9F",
"-+	c #2971BD",
";+	c #5588A6",
">+	c #D8D779",
",+	c #FCF374",
"'+	c #FFF675",
")+	c #FFF474",
"!+	c #FFBA61",
"~+	c #FF8951",
"{+	c #FF834E",
"]+	c #FF4434",
"^+	c #FF332E",
"/+	c #FF7A4B",
"(+	c #FF8952",
"_+	c #FFA159",
":+	c #FFEC71",
"<+	c #A9AA5E",
"[+	c #225177",
"}+	c #08417D",
"|+	c #0D1A29",
"1+	c #090909",
"2+	c #9B9B9B",
"3+	c #959595",
"4+	c #798899",
"5+	c #266EBC",
"6+	c #4C83A4",
"7+	c #D1CF6D",
"8+	c #FCF160",
"9+	c #FFF461",
"0+	c #FFF260",
"a+	c #FF8A43",
"b+	c #FF322B",
"c+	c #FF2B2A",
"d+	c #FF2A2A",
"e+	c #FF312B",
"f+	c #FF5D36",
"g+	c #FFE35C",
"h+	c #FFF561",
"i+	c #AEAD52",
"j+	c #275674",
"k+	c #063D79",
"l+	c #071422",
"m+	c #949494",
"n+	c #8E8E8E",
"o+	c #748292",
"p+	c #256DB8",
"q+	c #407BA3",
"r+	c #C1C362",
"s+	c #FBEF4D",
"t+	c #FFF44E",
"u+	c #FFF34D",
"v+	c #FFCB44",
"w+	c #FFAB3C",
"x+	c #FFA13A",
"y+	c #FF4E2F",
"z+	c #FF392C",
"A+	c #FF9438",
"B+	c #FFBA3F",
"C+	c #FFEE4C",
"D+	c #FDF14C",
"E+	c #ACAC46",
"F+	c #265674",
"G+	c #033A75",
"H+	c #010D1B",
"I+	c #888888",
"J+	c #717D8B",
"K+	c #296CB2",
"L+	c #2E70A8",
"M+	c #9FAA60",
"N+	c #F6EC3C",
"O+	c #FFF33A",
"P+	c #FFF23A",
"Q+	c #FFE538",
"R+	c #FF612E",
"S+	c #FF3F2B",
"T+	c #FFD136",
"U+	c #FEF139",
"V+	c #FDF039",
"W+	c #F6EA39",
"X+	c #E2D938",
"Y+	c #7C8C49",
"Z+	c #0D4C84",
"`+	c #00346D",
" @	c #000A16",
".@	c #878787",
"+@	c #818181",
"@@	c #6E7781",
"#@	c #336AA6",
"$@	c #1964AF",
"%@	c #6F8C6A",
"&@	c #E7DF2E",
"*@	c #FEF026",
"=@	c #FFF126",
"-@	c #FFF127",
";@	c #FFE426",
">@	c #FF7126",
",@	c #FF5227",
"'@	c #F8CC26",
")@	c #F1E627",
"!@	c #EBE22A",
"~@	c #D5CF2E",
"{@	c #A1A22E",
"]@	c #6A773B",
"^@	c #285666",
"/@	c #004994",
"(@	c #002B5B",
"_@	c #00070F",
":@	c #7A7A7A",
"<@	c #6D7279",
"[@	c #3E6A97",
"}@	c #1260B0",
"|@	c #44707A",
"1@	c #BFBC2F",
"2@	c #FCED13",
"3@	c #FFF013",
"4@	c #FEEE13",
"5@	c #F5E715",
"6@	c #EDC519",
"7@	c #E2B620",
"8@	c #BDBC2C",
"9@	c #899336",
"0@	c #5D7447",
"a@	c #3A5F5A",
"b@	c #1F506C",
"c@	c #014F9D",
"d@	c #00448B",
"e@	c #001B38",
"f@	c #000104",
"g@	c #747474",
"h@	c #696C6F",
"i@	c #446589",
"j@	c #1060B3",
"k@	c #245D8A",
"l@	c #8D973A",
"m@	c #E3DA0F",
"n@	c #EADF0B",
"o@	c #E7DD0D",
"p@	c #D6D419",
"q@	c #A7AE2C",
"r@	c #708646",
"s@	c #45746F",
"t@	c #206999",
"u@	c #0F5FA4",
"v@	c #0757A3",
"w@	c #0252A2",
"x@	c #0053AA",
"y@	c #0054AD",
"z@	c #004791",
"A@	c #00254C",
"B@	c #00060F",
"C@	c #737373",
"D@	c #6D6D6D",
"E@	c #646567",
"F@	c #46607E",
"G@	c #1061B5",
"H@	c #0A55A2",
"I@	c #2E5B71",
"J@	c #5C7856",
"K@	c #698253",
"L@	c #587C61",
"M@	c #2E6F8A",
"N@	c #1364A5",
"O@	c #0B5FAC",
"P@	c #045CB3",
"Q@	c #005BBB",
"R@	c #005CBD",
"S@	c #005DC0",
"T@	c #0060C4",
"U@	c #0060C5",
"V@	c #004A98",
"W@	c #001F42",
"X@	c #000610",
"Y@	c #000001",
"Z@	c #666666",
"`@	c #5F5F60",
" #	c #475B70",
".#	c #1762AF",
"+#	c #0460C0",
"@#	c #0454A6",
"##	c #08549C",
"$#	c #095AA6",
"%#	c #075BAD",
"&#	c #015BB5",
"*#	c #005BBA",
"=#	c #005EC0",
"-#	c #0061C6",
";#	c #0065CD",
">#	c #0069D4",
",#	c #006BDA",
"'#	c #006EE0",
")#	c #006CDC",
"!#	c #004FA3",
"~#	c #002349",
"{#	c #001124",
"]#	c #000F20",
"^#	c #000208",
"/#	c #6C6C6C",
"(#	c #606060",
"_#	c #5A5A5A",
":#	c #4C535B",
"<#	c #2C5988",
"[#	c #0C65C0",
"}#	c #0166CE",
"|#	c #0060C3",
"1#	c #0062C7",
"2#	c #0064CC",
"3#	c #0067D1",
"4#	c #006BD9",
"5#	c #006FE1",
"6#	c #0073E9",
"7#	c #0075EE",
"8#	c #0077F1",
"9#	c #0078F4",
"0#	c #0077F2",
"a#	c #006DDE",
"b#	c #005AB7",
"c#	c #004F9F",
"d#	c #014A96",
"e#	c #003B78",
"f#	c #000812",
"g#	c #4B4B4C",
"h#	c #3B495A",
"i#	c #1B5998",
"j#	c #036CD8",
"k#	c #006FE2",
"l#	c #006FE0",
"m#	c #0070E3",
"n#	c #0074EB",
"o#	c #0079F5",
"p#	c #0077F0",
"q#	c #0074EA",
"r#	c #0177EF",
"s#	c #005FC3",
"t#	c #004D9E",
"u#	c #002B5A",
"v#	c #5F5F5F",
"w#	c #585858",
"x#	c #464646",
"y#	c #3C3F43",
"z#	c #26486C",
"A#	c #0B64BF",
"B#	c #0274EA",
"C#	c #057AF2",
"D#	c #097EF4",
"E#	c #047BF4",
"F#	c #0076F1",
"G#	c #0073EA",
"H#	c #0072E7",
"I#	c #006EE1",
"J#	c #006BD8",
"K#	c #0069D5",
"L#	c #0071E6",
"M#	c #0066D0",
"N#	c #0063CB",
"O#	c #0053A9",
"P#	c #001834",
"Q#	c #000103",
"R#	c #515151",
"S#	c #2D3742",
"T#	c #1A4B7E",
"U#	c #0C6DCF",
"V#	c #1484F7",
"W#	c #1889FE",
"X#	c #087DF3",
"Y#	c #006AD7",
"Z#	c #0064CA",
"`#	c #0175EC",
" $	c #0677EB",
".$	c #0876E6",
"+$	c #045FBD",
"@$	c #001C39",
"#$	c #000002",
"$$	c #4B4B4B",
"%$	c #3E3E3E",
"&$	c #2A2A2B",
"*$	c #202D3B",
"=$	c #194F87",
"-$	c #217FE1",
";$	c #1687FB",
">$	c #0372E3",
",$	c #005FC0",
"'$	c #005DBD",
")$	c #005FC1",
"!$	c #0068D4",
"~$	c #0068D3",
"{$	c #0479F0",
"]$	c #1485FA",
"^$	c #1273D7",
"/$	c #043E79",
"($	c #000B19",
"_$	c #444444",
":$	c #313131",
"<$	c #2A2A2A",
"[$	c #1D1F21",
"}$	c #1B3959",
"|$	c #2274CA",
"1$	c #1083F7",
"2$	c #005EBF",
"3$	c #0061C5",
"4$	c #0061C4",
"5$	c #0063C9",
"6$	c #0065CE",
"7$	c #0067D3",
"8$	c #0373E6",
"9$	c #0B78E8",
"0$	c #1068C3",
"a$	c #083D74",
"b$	c #001023",
"c$	c #373737",
"d$	c #171718",
"e$	c #14293F",
"f$	c #1B65B1",
"g$	c #0E81F5",
"h$	c #0071E5",
"i$	c #0062C6",
"j$	c #0064CB",
"k$	c #0066D1",
"l$	c #0473E5",
"m$	c #0973DF",
"n$	c #0864C2",
"o$	c #07488A",
"p$	c #02264A",
"q$	c #000B17",
"r$	c #3D3D3D",
"s$	c #303030",
"t$	c #101010",
"u$	c #0A141D",
"v$	c #0E3F71",
"w$	c #0D70D6",
"x$	c #0377ED",
"y$	c #0069D6",
"z$	c #006AD8",
"A$	c #006EDF",
"B$	c #0173E8",
"C$	c #0673E3",
"D$	c #096FD8",
"E$	c #075DB7",
"F$	c #06417E",
"G$	c #022548",
"H$	c #000E1D",
"I$	c #000206",
"J$	c #232323",
"K$	c #030405",
"L$	c #021222",
"M$	c #073F77",
"N$	c #0863C0",
"O$	c #036FDC",
"P$	c #0071E4",
"Q$	c #0070E2",
"R$	c #036DDA",
"S$	c #076BD2",
"T$	c #0663C2",
"U$	c #034A93",
"V$	c #03315F",
"W$	c #011C38",
"X$	c #000205",
"Y$	c #292929",
"Z$	c #040404",
"`$	c #000C19",
" %	c #012041",
".%	c #023870",
"+%	c #014B97",
"@%	c #004995",
"#%	c #003770",
"$%	c #01264D",
"%%	c #011B39",
"&%	c #000E1E",
"*%	c #00040A",
"=%	c #1C1C1C",
"-%	c #161616",
";%	c #000C1B",
">%	c #000B1A",
",%	c #00060E",
". . . . . . . . . . . . . . . . . . . . . . . . . . . . . . . . ",
". . . . . . . . . . . . . . . . . . . . . . . . . . . . . . . . ",
". . + @ # $ % & * = - ; > , ' ) ! ~ { ] ^ / ( _ : < [ } | 1 . . ",
". . 2 # $ % 3 4 5 6 7 8 9 0 a b c d e f g h i j k [ } l 1 m . . ",
". . # n % 3 o p q r s t u v w x y z A B C D E F G H l 1 m I . . ",
". . n % J K L M N O P Q R S T U V W X Y Z `  ...+.@.#.$.%.&.. . ",
". . *.J =.-.;.>.,.'.).!.~.{.].^./.(._.:.<.[.}.|.1.2.3.I 4.5.. . ",
". . J 6.7.8.9.0.a.b.c.d.d.e.f.g.h.i.j.k.l.m.n.o.p.q.r.s.t.u.. . ",
". . 6.7.v.w.x.y.z.A.B.B.B.B.C.D.E.F.G.G.G.B.H.I.J.K.L.t.u.M.. . ",
". . N.v.O.P.Q.R.S.T.U.V.W.W.X.Y.Z.`. + +V.V..+++@+#+$+u.M.%+. . ",
". . &+O.*+=+-+;+>+,+'+)+!+~+{+]+^+/+(+_+:+'+'+<+[+}+|+1+%+. . . ",
". . O.2+3+4+5+6+7+8+9+0+a+b+b+c+d+e+b+f+g+h+h+i+j+k+l+%+. . . . ",
". . 2+m+n+o+p+q+r+s+t+u+v+w+x+y+z+A+w+B+C+t+D+E+F+G+H+. . . . . ",
". . 3+n+I+J+K+L+M+N+O+O+P+P+Q+R+S+T+P+U+V+W+X+Y+Z+`+ @. . . . . ",
". . n+.@+@@@#@$@%@&@*@=@-@=@;@>@,@'@)@!@~@{@]@^@/@(@_@. . . . . ",
". . .@+@:@<@[@}@|@1@2@3@3@4@5@6@7@8@9@0@a@b@Z+c@d@e@f@. . . . . ",
". . +@:@g@h@i@j@k@l@m@n@o@p@q@r@s@t@u@v@w@x@y@z@A@B@. . . . . . ",
". . :@C@D@E@F@G@H@I@J@K@L@M@N@O@P@Q@R@S@T@U@V@W@X@Y@. . . . . . ",
". . C@D@Z@`@ #.#+#@###$#%#&#*#=#-#;#>#,#'#)#!#~#{#]# @^#. . . . ",
". . /#Z@(#_#:#<#[#}#|#T@1#2#3#4#5#6#7#8#9#0#a#b#c#d#e#W@f#. . . ",
". . Z@(#_ : g#h#i#j#'#k#5#l#m#n#8#o#o#9#p#n#q#r#n#)#s#t#u#f#. . ",
". . v#w#: < x#y#z#A#B#C#D#E#F#7#G#H#I#)#J#K#3#)#L#k#M#N#O#P#Q#. ",
". . w#R#< [ } l S#T#U#V#W#X#k#Y#3#Z#1#|#1#3#1#U@Y#`# $.$+$@$#$. ",
". . : $$[ %$l 1 &$*$=$-$;$>$1#,$,$'$)$|#1#!$1#'$~${$]$^$/$($Y@. ",
". . $$_$%$l :$<$I [$}$|$1$l#T@2$3$|#4$5$5$6$;#7$8$9$0$a$b$Q#. . ",
". . _$%$c$:$<$I s.d$e$f$g$h$;#i$2#j$j$k$Y#5#l$m$n$o$p$q$Q#. . . ",
". . r$c$s$<$%.4.t.t$u$v$w$x$'#y$!$z$A$B$C$D$E$F$G$H$I$. . . . . ",
". . c$s$<$J$4.t.t$M.K$L$M$N$O$P$Q$R$S$T$U$V$W$ @X$. . . . . . . ",
". . s$Y$%.4.t.t$M.Z$. #$`$ %.%+%@%#%$%%%&%*%Q#. . . . . . . . . ",
". . Y$J$=%-%t$1+%+. . . . f@_@;%>%,%I$#$. . . . . . . . . . . . ",
". . . . . . . . . . . . . . . . . . . . . . . . . . . . . . . . ",
". . . . . . . . . . . . . . . . . . . . . . . . . . . . . . . . "};
