/* XPM */
static char * add_shared_directory_xpm[] = {
"32 32 398 2",
"  	c None",
". 	c #000000",
"+ 	c #DBDBDB",
"@ 	c #D3D3D3",
"# 	c #CCCCCC",
"$ 	c #C5C5C5",
"% 	c #BEBEBE",
"& 	c #B7B7B7",
"* 	c #B0B0B0",
"= 	c #A9A9A9",
"- 	c #A2A2A2",
"; 	c #9A9A9A",
"> 	c #949494",
", 	c #8D8D8D",
"' 	c #858585",
") 	c #7F7F7F",
"! 	c #787878",
"~ 	c #707070",
"{ 	c #6A6A6A",
"] 	c #626262",
"^ 	c #5B5B5B",
"/ 	c #545454",
"( 	c #4D4D4D",
"_ 	c #464646",
": 	c #3F3F3F",
"< 	c #383838",
"[ 	c #303030",
"} 	c #2A2A2A",
"| 	c #222222",
"1 	c #1B1B1B",
"2 	c #D2D2D2",
"3 	c #C2C2C2",
"4 	c #B9B9B9",
"5 	c #B5B5B5",
"6 	c #BFBFBF",
"7 	c #C8C8C8",
"8 	c #AAAAAA",
"9 	c #8C8C8C",
"0 	c #7E7E7E",
"a 	c #777777",
"b 	c #696969",
"c 	c #6C6C6C",
"d 	c #666666",
"e 	c #616161",
"f 	c #5A5A5A",
"g 	c #474747",
"h 	c #313131",
"i 	c #292929",
"j 	c #232323",
"k 	c #141414",
"l 	c #CBCBCB",
"m 	c #D9D9D9",
"n 	c #E2E2E2",
"o 	c #E7E7E7",
"p 	c #E5E5E5",
"q 	c #ECECEC",
"r 	c #8F8F8F",
"s 	c #808080",
"t 	c #878787",
"u 	c #868686",
"v 	c #8A8A8A",
"w 	c #A7A7A7",
"x 	c #C4C4C4",
"y 	c #CDCDCD",
"z 	c #CFCFCF",
"A 	c #848484",
"B 	c #212121",
"C 	c #131313",
"D 	c #0D0D0D",
"E 	c #B8B8B8",
"F 	c #E0E0E0",
"G 	c #F4F4F4",
"H 	c #F3F3F3",
"I 	c #F2F2F2",
"J 	c #F1F1F1",
"K 	c #EFEFEF",
"L 	c #DDDDDD",
"M 	c #ABABAB",
"N 	c #D1D1D1",
"O 	c #D8D8D8",
"P 	c #E1E1E1",
"Q 	c #898989",
"R 	c #1A1A1A",
"S 	c #0C0C0C",
"T 	c #050505",
"U 	c #AEAEAE",
"V 	c #E4E4E4",
"W 	c #F0F0F0",
"X 	c #EEEEEE",
"Y 	c #EAEAEA",
"Z 	c #E8E8E8",
"` 	c #DEDEDE",
" .	c #E9E9E9",
"..	c #0B0B0B",
"+.	c #B6B6B6",
"@.	c #CECECE",
"#.	c #E6E6E6",
"$.	c #D7D7D7",
"%.	c #C9C9C9",
"&.	c #B0B0AF",
"*.	c #6B6A6A",
"=.	c #1E1E1D",
"-.	c #0F0F0F",
";.	c #060606",
">.	c #050606",
",.	c #020202",
"'.	c #EBEBEB",
").	c #DCDCDB",
"!.	c #CFCECE",
"~.	c #C0BFBF",
"{.	c #B1B1B1",
"].	c #9F9F9F",
"^.	c #8E8E8E",
"/.	c #7F7F7E",
"(.	c #6C6C6B",
"_.	c #565655",
":.	c #414141",
"<.	c #161616",
"[.	c #0E0E0E",
"}.	c #0A0A0A",
"|.	c #DCDCDC",
"1.	c #BCBCBC",
"2.	c #A5A5A4",
"3.	c #8F8F8E",
"4.	c #7C7C7C",
"5.	c #696868",
"6.	c #565656",
"7.	c #464545",
"8.	c #353535",
"9.	c #282828",
"0.	c #1F1F1F",
"a.	c #161615",
"b.	c #0E0E0D",
"c.	c #151515",
"d.	c #121212",
"e.	c #979797",
"f.	c #848483",
"g.	c #4A4B4B",
"h.	c #3A3A3A",
"i.	c #333333",
"j.	c #3C3C3C",
"k.	c #101010",
"l.	c #191919",
"m.	c #1C1C1C",
"n.	c #171717",
"o.	c #909090",
"p.	c #E3E3E3",
"q.	c #727272",
"r.	c #222221",
"s.	c #262626",
"t.	c #9D9D9D",
"u.	c #3B3B3B",
"v.	c #494949",
"w.	c #737373",
"x.	c #323232",
"y.	c #202020",
"z.	c #BDBDBD",
"A.	c #4A4A4A",
"B.	c #181818",
"C.	c #CACACA",
"D.	c #EDEDED",
"E.	c #ADADAD",
"F.	c #DFDFDF",
"G.	c #C1C1C1",
"H.	c #6E6E6E",
"I.	c #1D1D1D",
"J.	c #090909",
"K.	c #A4A3A4",
"L.	c #3C3C3D",
"M.	c #252525",
"N.	c #444444",
"O.	c #ACACAC",
"P.	c #FAFAFA",
"Q.	c #7D7D7D",
"R.	c #040404",
"S.	c #030303",
"T.	c #DADADA",
"U.	c #2D2D2D",
"V.	c #2E2E2E",
"W.	c #F8F8F8",
"X.	c #D0D0D0",
"Y.	c #858586",
"Z.	c #7F7E7C",
"`.	c #C4C3BD",
" +	c #F0F0ED",
".+	c #575757",
"++	c #070707",
"@+	c #393939",
"#+	c #5F5F5F",
"$+	c #F9F9F8",
"%+	c #E1DFD4",
"&+	c #B4AD91",
"*+	c #9C9268",
"=+	c #B5A76D",
"-+	c #D4C692",
";+	c #D2CEBF",
">+	c #A8A7A6",
",+	c #5D5D5D",
"'+	c #010101",
")+	c #818181",
"!+	c #797979",
"~+	c #959595",
"{+	c #E9E8E8",
"]+	c #E6E1CD",
"^+	c #E6D386",
"/+	c #ECCB49",
"(+	c #E6C445",
"_+	c #D4BF79",
":+	c #B6B2A4",
"<+	c #787877",
"[+	c #747474",
"}+	c #525252",
"|+	c #555555",
"1+	c #C0C0C0",
"2+	c #D6D6D6",
"3+	c #DAD8D2",
"4+	c #E3D6A1",
"5+	c #EBCB57",
"6+	c #E6CD7B",
"7+	c #DDD7C4",
"8+	c #D0D0CF",
"9+	c #ACADAD",
"0+	c #636363",
"a+	c #EDECEC",
"b+	c #BEBDBD",
"c+	c #5E5E5E",
"d+	c #9C9C9C",
"e+	c #F0EEE3",
"f+	c #F2E9C7",
"g+	c #F4EEDC",
"h+	c #F2F2F0",
"i+	c #D5D5D5",
"j+	c #505050",
"k+	c #6D6D6D",
"l+	c #C6C6C6",
"m+	c #B2B2B2",
"n+	c #595959",
"o+	c #535353",
"p+	c #4B4B4B",
"q+	c #F9F9F9",
"r+	c #FCFCFC",
"s+	c #FDFDFD",
"t+	c #F7F7F7",
"u+	c #676767",
"v+	c #999999",
"w+	c #A4A4A4",
"x+	c #FEFEFE",
"y+	c #FFFFFF",
"z+	c #FBFBFB",
"A+	c #585858",
"B+	c #272727",
"C+	c #5C5C5C",
"D+	c #6A6969",
"E+	c #080808",
"F+	c #4F4F4F",
"G+	c #F5F5F5",
"H+	c #909091",
"I+	c #343535",
"J+	c #020303",
"K+	c #616060",
"L+	c #B5B4B4",
"M+	c #0D0C0C",
"N+	c #0B0A0A",
"O+	c #2E2C2C",
"P+	c #868483",
"Q+	c #D1D0CF",
"R+	c #EEEDED",
"S+	c #B9B9BA",
"T+	c #9C9D9D",
"U+	c #737474",
"V+	c #181819",
"W+	c #010102",
"X+	c #767371",
"Y+	c #8F8D8B",
"Z+	c #9C9A99",
"`+	c #8E8C8B",
" @	c #55504B",
".@	c #5F574E",
"+@	c #8F857A",
"@@	c #C6BDB1",
"#@	c #E4DED4",
"$@	c #F1ECE7",
"%@	c #F4F1EF",
"&@	c #ECEAEA",
"*@	c #C8C9C9",
"=@	c #B3B4B4",
"-@	c #9C9C9D",
";@	c #7D7D7E",
">@	c #606061",
",@	c #464747",
"'@	c #2A2B2B",
")@	c #191A1B",
"!@	c #0E0E0F",
"~@	c #73716E",
"{@	c #7E7B78",
"]@	c #A3A19F",
"^@	c #D4D1CC",
"/@	c #BFB59F",
"(@	c #D3C29C",
"_@	c #EBD8AD",
":@	c #F3E2B8",
"<@	c #F3E5BE",
"[@	c #F4E9C9",
"}@	c #EEE5CD",
"|@	c #D6CEBC",
"1@	c #B0A597",
"2@	c #6D6660",
"3@	c #353637",
"4@	c #252526",
"5@	c #131415",
"6@	c #100F0D",
"7@	c #594C37",
"8@	c #50412D",
"9@	c #070604",
"0@	c #575551",
"a@	c #625F5C",
"b@	c #999695",
"c@	c #DDD8CE",
"d@	c #DECAA3",
"e@	c #F3D093",
"f@	c #F9D18F",
"g@	c #F8CE89",
"h@	c #F6CB89",
"i@	c #F1C98C",
"j@	c #E8C18B",
"k@	c #DDB582",
"l@	c #CCA87E",
"m@	c #906D51",
"n@	c #321F13",
"o@	c #403023",
"p@	c #6D563D",
"q@	c #80694A",
"r@	c #BF9F70",
"s@	c #625037",
"t@	c #080604",
"u@	c #3C3A39",
"v@	c #4A4846",
"w@	c #8F8C8B",
"x@	c #D7CEC5",
"y@	c #D1B08B",
"z@	c #DEAB6E",
"A@	c #EDAF65",
"B@	c #F2A756",
"C@	c #E99748",
"D@	c #D78442",
"E@	c #C5743C",
"F@	c #C1723C",
"G@	c #C78250",
"H@	c #CA8551",
"I@	c #AC7541",
"J@	c #C0925E",
"K@	c #DEAC72",
"L@	c #C99E6B",
"M@	c #6A553B",
"N@	c #090704",
"O@	c #2E2C2E",
"P@	c #3D3B3C",
"Q@	c #878585",
"R@	c #CEC7C2",
"S@	c #877768",
"T@	c #4F3923",
"U@	c #905B30",
"V@	c #C17233",
"W@	c #C56D29",
"X@	c #BC6124",
"Y@	c #B85823",
"Z@	c #B45523",
"`@	c #C1652A",
" #	c #D97F35",
".#	c #E29345",
"+#	c #CF8F4C",
"@#	c #7B5833",
"##	c #443421",
"$#	c #2B292B",
"%#	c #3A383B",
"&#	c #706E6E",
"*#	c #A09C9B",
"=#	c #4D4B49",
"-#	c #1C0F07",
";#	c #30190B",
">#	c #341C0A",
",#	c #4C270D",
"'#	c #9B4E1D",
")#	c #B86225",
"!#	c #C5702B",
"~#	c #C6722C",
"{#	c #7B481D",
"]#	c #37220F",
"^#	c #0E0803",
"/#	c #232123",
"(#	c #2E2D2F",
"_#	c #535152",
":#	c #4E4D4D",
"<#	c #1F0F04",
"[#	c #251506",
"}#	c #271809",
"|#	c #251507",
"1#	c #100802",
". . . . . . . . . . . . . . . . . . . . . . . . . . . . . . . . ",
". . . . . . . . . . . . . . . . . . . . . . . . . . . . . . . . ",
". . + @ # $ % & * = - ; > , ' ) ! ~ { ] ^ / ( _ : < [ } | 1 . . ",
". . 2 # $ 3 % 4 5 6 7 8 9 ' 0 a ~ b c c b d e f g h i j 1 k . . ",
". . l $ # m n o p o q 2 r s t t u v w x y 2 z # A i B 1 C D . . ",
". . 6 E F G H I I J K L = M 7 N O P o o p P L m Q | R C S T . . ",
". . 5 U V I W X q Y Z V ` p q q Y  .p n ` + + m ' R C ..T . . . ",
". . +.@.X K q Y Z o o #.o o Z o V n L $.N %.6 &.*.=.-.;.>.,.. . ",
". . M #.G X '. . .o #.p p n ).!.~.{.].^./.(._.:.i <.[.[.C }.. . ",
". . ].Y G q Z p P |.N 1.2.3.4.5.6.7.8.9.0.a.b.}.}...S c.1 d.. . ",
". . e.p J q Y 6 f.e g.h.[ i.j.j.i <.k.C l.m.l.k k <.n.0.j R . . ",
". . o.p.J '.$.q.r.c.k.-.s.b t.8 s u.i v.b w.f x.y.y.y.| 0.k . . ",
". . Q F H K z.A.<.n.B.| { C.X D.%.! c E.O F.G.H.9.I.k k.J.,.. . ",
". . v L J Y K.L.| j M.N.O.J P.n M Q.v %.G P.p A <.R.S.;.,.. . . ",
". . r T.W V > u.U.V.i.f $ W.P.X.Y.] Z.`. +K G..+++. . ,.. . . . ",
". . Q $.J m A : @+h.: #+z.H $+%+&+*+=+-+;+>+,+R '+. . . . . . . ",
". . )+@ I N !+g _ g A..+~+O {+]+^+/+(+_+:+<+9.R.. . . . . . . . ",
". . 4.z J 7 [+}+/ |+6.^ Q.1+2+3+4+5+6+7+8+9+0+l.'+. . . . . . . ",
". . [+l a+b+[+c+e e #+H.d+l `  .e+f+g+h+'.i+8 j+}.. . . . . . . ",
". . k+l+Y m+c n+o+v.p+0 % P W q+r+s+s+r+t+ .X., i '+. . . . . . ",
". . u+3 V v+u.B R l.p+w+m J P.s+x+y+x+x+z+H P +.A+D . . . . . . ",
". . #+3 P ) c.,.,.y.u N q q+s+x+x+y+y+x+s+W.q X.t B+. . . . . . ",
". . C+7 O D+E+. ..F++.V G+r+x+y+y+y+y+x+s+W.'.y H+I+J+. . . . . ",
". . K+L+% K+M+N+O+P+Q+R+q+s+s+z+t+J o ` X.S+T+U+N.V+W+. . . . . ",
". . X+Y+Z+`+ @.@+@@@#@$@%@&@+ *@=@-@;@>@,@'@)@!@R.W+. . . . . . ",
". . ~@{@]@^@/@(@_@:@<@[@}@|@1@2@3@4@5@6@7@8@9@. . . . . . . . . ",
". . 0@a@b@c@d@e@f@g@h@i@j@k@l@m@n@o@p@q@r@s@t@. . . . . . . . . ",
". . u@v@w@x@y@z@A@B@C@D@E@F@G@H@I@J@K@L@M@N@. . . . . . . . . . ",
". . O@P@Q@R@S@T@U@V@W@X@Y@Z@`@ #.#+#@###t@. . . . . . . . . . . ",
". . $#%#&#*#=#. -#;#>#,#'#)#!#~#{#]#^#. . . . . . . . . . . . . ",
". . /#(#_#:#-.. . . . . <#[#}#|#1#. . . . . . . . . . . . . . . ",
". . . . . . . . . . . . . . . . . . . . . . . . . . . . . . . . "};
