/* XPM */
static char * album_search_xpm[] = {
"39 24 390 2",
"  	c None",
". 	c #000000",
"+ 	c #EFEFEF",
"@ 	c #EAEAEA",
"# 	c #E5E5E5",
"$ 	c #DFDFDF",
"% 	c #D9D9D9",
"& 	c #D4D4D4",
"* 	c #CFCFCF",
"= 	c #C9C9C9",
"- 	c #C4C4C4",
"; 	c #BFBFBF",
"> 	c #B9B9B9",
", 	c #B4B4B4",
"' 	c #AEAEAE",
") 	c #A9A9A9",
"! 	c #A3A3A3",
"~ 	c #9F9F9F",
"{ 	c #999999",
"] 	c #949494",
"^ 	c #8E8E8E",
"/ 	c #888888",
"( 	c #838383",
"_ 	c #7E7E7E",
": 	c #797979",
"< 	c #737373",
"[ 	c #6E6E6E",
"} 	c #686868",
"| 	c #636363",
"1 	c #5E5E5E",
"2 	c #585858",
"3 	c #535353",
"4 	c #4D4D4D",
"5 	c #484848",
"6 	c #424242",
"7 	c #3D3D3D",
"8 	c #383838",
"9 	c #E8E8E8",
"0 	c #E2E2E2",
"a 	c #DCDCDC",
"b 	c #D7D7D7",
"c 	c #D1D1D1",
"d 	c #CCCCCC",
"e 	c #C6C6C6",
"f 	c #C1C1C1",
"g 	c #BCBCBC",
"h 	c #B7B7B7",
"i 	c #B1B1B1",
"j 	c #ACACAC",
"k 	c #A7A7A7",
"l 	c #A1A1A1",
"m 	c #9C9C9C",
"n 	c #979797",
"o 	c #919191",
"p 	c #8C8C8C",
"q 	c #868686",
"r 	c #818181",
"s 	c #7B7B7B",
"t 	c #7B7A77",
"u 	c #807D77",
"v 	c #71706E",
"w 	c #666666",
"x 	c #606060",
"y 	c #5B5B5B",
"z 	c #565656",
"A 	c #505050",
"B 	c #4A4A4A",
"C 	c #454545",
"D 	c #404040",
"E 	c #3B3B3B",
"F 	c #353535",
"G 	c #303030",
"H 	c #E0E0E0",
"I 	c #DADADA",
"J 	c #D5D5D5",
"K 	c #C5C5C5",
"L 	c #AFAFAF",
"M 	c #AAAAAA",
"N 	c #A4A4A4",
"O 	c #999793",
"P 	c #9B978E",
"Q 	c #A39B8C",
"R 	c #ADA28C",
"S 	c #C0B190",
"T 	c #D6C198",
"U 	c #E3CD9F",
"V 	c #E5CFA1",
"W 	c #E6D0A2",
"X 	c #E6D0A3",
"Y 	c #7E796F",
"Z 	c #595959",
"` 	c #545454",
" .	c #4E4E4E",
"..	c #434343",
"+.	c #3E3E3E",
"@.	c #333333",
"#.	c #2E2E2E",
"$.	c #282828",
"%.	c #D2D2D2",
"&.	c #CDCDCD",
"*.	c #C7C7C7",
"=.	c #C2C2C2",
"-.	c #B2B2B2",
";.	c #A6A6A6",
">.	c #A2A2A2",
",.	c #898787",
"'.	c #807A7A",
").	c #A59681",
"!.	c #DCC492",
"~.	c #DDC594",
"{.	c #DEC695",
"].	c #DFC797",
"^.	c #DFC898",
"/.	c #E0C99A",
"(.	c #E1CA9B",
"_.	c #E2CB9C",
":.	c #E3CC9E",
"<.	c #E4CE9F",
"[.	c #C6B99A",
"}.	c #5C5C5C",
"|.	c #4B4B4B",
"1.	c #2B2B2B",
"2.	c #262626",
"3.	c #202020",
"4.	c #CACACA",
"5.	c #C0C0C0",
"6.	c #BABABA",
"7.	c #5E5858",
"8.	c #645959",
"9.	c #897B6C",
"0.	c #D9C08E",
"a.	c #DAC18F",
"b.	c #DBC291",
"c.	c #DCC392",
"d.	c #DDC494",
"e.	c #DEC796",
"f.	c #E0C999",
"g.	c #E1CCA1",
"h.	c #393939",
"i.	c #292929",
"j.	c #232323",
"k.	c #1D1D1D",
"l.	c #191919",
"m.	c #C8C8C8",
"n.	c #C3C3C3",
"o.	c #BDBDBD",
"p.	c #ADADAD",
"q.	c #9D9D9D",
"r.	c #929292",
"s.	c #656060",
"t.	c #5E5353",
"u.	c #6F625A",
"v.	c #D6BC89",
"w.	c #D7BE8B",
"x.	c #D8BF8C",
"y.	c #DBC290",
"z.	c #DDC493",
"A.	c #DDC595",
"B.	c #DEC696",
"C.	c #AAA7A1",
"D.	c #363636",
"E.	c #313131",
"F.	c #212121",
"G.	c #1B1B1B",
"H.	c #161616",
"I.	c #101010",
"J.	c #BBBBBB",
"K.	c #B5B5B5",
"L.	c #A5A5A5",
"M.	c #A0A0A0",
"N.	c #9A9A9A",
"O.	c #8F8F8F",
"P.	c #8A8A8A",
"Q.	c #696565",
"R.	c #5A4F4F",
"S.	c #5C504F",
"T.	c #CAAF7C",
"U.	c #D5BA86",
"V.	c #D5BB88",
"W.	c #D7BD8A",
"X.	c #D8BE8C",
"Y.	c #D9C08D",
"Z.	c #DBC392",
"`.	c #DCC493",
" +	c #C6BEAC",
".+	c #1E1E1E",
"++	c #181818",
"@+	c #131313",
"#+	c #0D0D0D",
"$+	c #080808",
"%+	c #878787",
"&+	c #6B6969",
"*+	c #554B4B",
"=+	c #534747",
"-+	c #B49B6E",
";+	c #D2B682",
">+	c #D3B883",
",+	c #D4B985",
"'+	c #D4BA86",
")+	c #D5BB87",
"!+	c #D9BF8D",
"~+	c #DAC08E",
"{+	c #E8DABD",
"]+	c #3C3C3C",
"^+	c #111111",
"/+	c #0B0B0B",
"(+	c #050505",
"_+	c #010101",
":+	c #B0B0B0",
"<+	c #ABABAB",
"[+	c #959595",
"}+	c #858585",
"|+	c #808080",
"1+	c #7A7A7A",
"2+	c #6C6B6B",
"3+	c #4E4343",
"4+	c #4B3E3E",
"5+	c #9D8661",
"6+	c #CFB37D",
"7+	c #D0B47F",
"8+	c #D1B580",
"9+	c #D2B681",
"0+	c #D3B783",
"a+	c #D3B884",
"b+	c #D6BC88",
"c+	c #DAC69D",
"d+	c #141414",
"e+	c #0E0E0E",
"f+	c #030303",
"g+	c #A8A8A8",
"h+	c #989898",
"i+	c #8D8D8D",
"j+	c #828282",
"k+	c #7D7D7D",
"l+	c #787878",
"m+	c #727272",
"n+	c #6A6A6A",
"o+	c #443A3A",
"p+	c #443737",
"q+	c #857053",
"r+	c #CCAF79",
"s+	c #CDB07A",
"t+	c #CEB27B",
"u+	c #D0B47E",
"v+	c #D2B782",
"w+	c #D5BB89",
"x+	c #8F8F8D",
"y+	c #0C0C0C",
"z+	c #060606",
"A+	c #9B9B9B",
"B+	c #969696",
"C+	c #909090",
"D+	c #757575",
"E+	c #6F6F6F",
"F+	c #656565",
"G+	c #3C3232",
"H+	c #3F3333",
"I+	c #6D5A45",
"J+	c #CAAC74",
"K+	c #CBAD75",
"L+	c #CBAE77",
"M+	c #CCAF78",
"N+	c #CEB17B",
"O+	c #CFB27D",
"P+	c #D0B57F",
"Q+	c #D1B681",
"R+	c #D9D4C9",
"S+	c #090909",
"T+	c #040404",
"U+	c #6D6D6D",
"V+	c #626262",
"W+	c #5D5D5D",
"X+	c #3C3535",
"Y+	c #3C3131",
"Z+	c #544438",
"`+	c #C7A86F",
" @	c #C8A971",
".@	c #C9AA72",
"+@	c #C9AC74",
"@@	c #CAAD75",
"#@	c #CDB079",
"$@	c #CFB27C",
"%@	c #CFB37E",
"&@	c #B8AC96",
"*@	c #8B8B8B",
"=@	c #707070",
"-@	c #5A5A5A",
";@	c #555555",
">@	c #3C3838",
",@	c #3B3030",
"'@	c #3F322D",
")@	c #C2A269",
"!@	c #C5A66C",
"~@	c #C6A76E",
"{@	c #C8AA72",
"]@	c #C9AB73",
"^@	c #CAAC75",
"/@	c #CBAE76",
"(@	c #E0CEAB",
"_@	c #222222",
":@	c #898989",
"<@	c #3A3030",
"[@	c #342827",
"}@	c #B2945F",
"|@	c #C2A268",
"1@	c #C3A369",
"2@	c #C4A46B",
"3@	c #C6A76D",
"4@	c #C7A970",
"5@	c #D4BB8C",
"6@	c #767676",
"7@	c #6B6B6B",
"8@	c #383737",
"9@	c #372E2E",
"0@	c #2F2323",
"a@	c #9B8052",
"b@	c #C09F63",
"c@	c #C0A065",
"d@	c #C1A166",
"e@	c #C2A267",
"f@	c #C4A46A",
"g@	c #C5A56C",
"h@	c #C6A66D",
"i@	c #C6A76F",
"j@	c #2E2D2B",
"k@	c #353434",
"l@	c #312828",
"m@	c #2E2323",
"n@	c #836B46",
"o@	c #BD9B5F",
"p@	c #BE9C60",
"q@	c #BE9D61",
"r@	c #BF9E63",
"s@	c #C0A064",
"t@	c #C4A56B",
"u@	c #060503",
"v@	c #717171",
"w@	c #3A3A3A",
"x@	c #2F2F2F",
"y@	c #2C2323",
"z@	c #2C2222",
"A@	c #6C573A",
"B@	c #BA985A",
"C@	c #BB995B",
"D@	c #BC9A5D",
"E@	c #BD9B5E",
"F@	c #BD9C60",
"G@	c #BE9E63",
"H@	c #B9985F",
"I@	c #B0915B",
"J@	c #998158",
"K@	c #070604",
"L@	c #696969",
"M@	c #494949",
"N@	c #323232",
"O@	c #2D2D2D",
"P@	c #272727",
"Q@	c #272020",
"R@	c #2B2121",
"S@	c #53422F",
"T@	c #B89657",
"U@	c #B69457",
"V@	c #AE8D53",
"W@	c #A98B57",
"X@	c #A99065",
"Y@	c #AA9674",
"Z@	c #AEA087",
"`@	c #ABA08F",
" #	c #A19B90",
".#	c #98948C",
"+#	c #726E64",
"@#	c #616161",
"##	c #515151",
"$#	c #464646",
"%#	c #2A2A2A",
"&#	c #221D1D",
"*#	c #555050",
"=#	c #77706C",
"-#	c #B5A994",
";#	c #ADA597",
">#	c #A7A299",
",#	c #96938B",
"'#	c #6F6C64",
")#	c #47443E",
"!#	c #25231E",
"~#	c #11100D",
"{#	c #070605",
"]#	c #444444",
"^#	c #3F3F3F",
"/#	c #13120F",
". . . . . . . . . . . . . . . . . . . . . . . . . . . . . . . . . . . . . . . ",
". . . . . . . . . . . . . . . . . . . . . . . . . . . . . . . . . . . . . . . ",
". . + @ # $ % & * = - ; > , ' ) ! ~ { ] ^ / ( _ : < [ } | 1 2 3 4 5 6 7 8 . . ",
". . 9 0 a b c d e f g h i j k l m n o p q r s t u v w x y z A B C D E F G . . ",
". . H I J * = K ; > , L M N ~ { O P Q R S T U V W X Y Z `  .5 ..+.8 @.#.$.. . ",
". . b %.&.*.=.g h -.j ;.>.,.'.).!.~.{.].^./.(._.:.<.[.}.|.C D E F G 1.2.3.. . ",
". . * 4.K 5.6., L M N ~ { 7.8.9.0.a.b.c.d.{.e.^.f.(.g.^ ..+.h.@.#.i.j.k.l.. . ",
". . m.n.o.h -.p.k >.q.n r.s.t.u.v.w.x.0.a.y.c.z.A.B.B.C.E D.E.1.2.F.G.H.I.. . ",
". . 5.J.K.L M L.M.N.] O.P.Q.R.S.T.U.V.v.W.X.Y.a.y.Z.`. +F #.i.j..+++@+#+$+. . ",
". . h -.p.k >.m n r.p %+r &+*+=+-+;+>+,+'+)+v.W.X.!+~+{+]+2.3.G.H.^+/+(+_+. . ",
". . :+<+L.M.N.[+O.P.}+|+1+2+3+4+5+6+7+8+9+0+a+'+)+b+W.c+D .+l.d+e+$+f+. . . . ",
". . g+! q.h+r.i+/ j+k+l+m+n+o+p+q+r+s+t+6+u+8+9+v+a+,+w+x+H.^+y+z+_+. . . . . ",
". . M.A+B+C+P.}+|+s D+E+n+F+G+H+I+J+K+L+M+s+N+O+u+P+Q+v+R+e+S+T+. . . . . . . ",
". . h+r.i+/ j+k+l+m+U+} V+W+X+Y+Z+`+ @.@+@@@L+M+#@N+$@%@&@z+_+. . . . . . . . ",
". . C+*@}+|+1+D+=@n+F+x -@;@>@,@'@)@!@~@`+ @{@]@^@/@M+#@(@_@. . . . . . . . . ",
". . :@( _ l+< U+} | W+2 3 4 >@<@[@}@|@1@2@!@3@`+4@{@]@J+5@x . . . . . . . . . ",
". . |+s 6@=@7@F+x y ;@A B C 8@9@0@a@b@c@d@e@1@f@g@h@i@4@{@j@. . . . . . . . . ",
". . l+< [ } V+W+2 3 4 5 ..+.k@l@m@n@o@p@q@r@s@d@e@1@f@t@!@u@. . . . . . . . . ",
". . v@7@F+x y z A B C D w@F x@y@z@A@B@C@D@E@F@q@r@G@H@I@J@K@. . . . . . . . . ",
". . L@| 1 Z 3  .M@..+.8 N@O@P@Q@R@S@T@U@V@W@X@Y@Z@`@ #.#+#_+. . . . . . . . . ",
". . @#}.z ##|.$#D E F G %#2.3.&#*#=#-#;#>#,#'#)#!#~#{#_+. . . . . . . . . . . ",
". . Z 3  .M@]#+.8 @.#.$.j.k.++H.^#_@/#K@_+. . . . . . . . . . . . . . . . . . ",
". . . . . . . . . . . . . . . . . . . . . . . . . . . . . . . . . . . . . . . ",
". . . . . . . . . . . . . . . . . . . . . . . . . . . . . . . . . . . . . . . "};
