/* XPM */
static char * blacklistedhost_xpm[] = {
"16 16 59 1",
" 	c None",
".	c #181818",
"+	c #868686",
"@	c #8E8E8E",
"#	c #131313",
"$	c #151515",
"%	c #808080",
"&	c #8F8F8F",
"*	c #ACACAC",
"=	c #C0C0C0",
"-	c #121212",
";	c #676767",
">	c #646464",
",	c #BABABA",
"'	c #B6B6B6",
")	c #828282",
"!	c #0F0F0F",
"~	c #4E4E4E",
"{	c #787878",
"]	c #B4B4B4",
"^	c #C2C2C2",
"/	c #747474",
"(	c #555555",
"_	c #0E0E0E",
":	c #2A2A2A",
"<	c #414141",
"[	c #6F6F6F",
"}	c #6B6B6B",
"|	c #464646",
"1	c #242424",
"2	c #222222",
"3	c #3A3A3A",
"4	c #5A5A5A",
"5	c #1E1E1E",
"6	c #1F1F1F",
"7	c #333333",
"8	c #585858",
"9	c #D5D5D5",
"0	c #CECECE",
"a	c #C9C9C9",
"b	c #1A1A1A",
"c	c #2D2D2D",
"d	c #2B2B2B",
"e	c #CCCCCC",
"f	c #D2D2D2",
"g	c #262626",
"h	c #373737",
"i	c #D3D3D3",
"j	c #212121",
"k	c #0C0C0C",
"l	c #A4A4A4",
"m	c #C7C7C7",
"n	c #1C1C1C",
"o	c #282828",
"p	c #767676",
"q	c #272727",
"r	c #1D1D1D",
"s	c #070707",
"t	c #050505",
"                ",
"    .++@@@+#    ",
"   $%@&*=&@+-   ",
"  $;;>,''=);;-  ",
" !~~;{=]'^/(((_ ",
" :<<[,,''^}~~|1 ",
" 2<3>,,]'^4|~<5 ",
" 6778,=990(a}75 ",
" bcd(eff9a'=:7b ",
" bg1heaaaai+17b ",
" #1jh^====^|j7k ",
"  .j5lm^=elnd_  ",
"   .jo)))pqq_   ",
"    .1nrnrq_    ",
"     sssstt     ",
"                "};
