/* XPM */
static char * bt_16_xpm[] = {
"16 16 182 2",
"  	c None",
". 	c #F8F8F8",
"+ 	c #F0F0F0",
"@ 	c #E8E8E8",
"# 	c #E0E0E0",
"$ 	c #D8D8D8",
"% 	c #D0D0D0",
"& 	c #C8C8C8",
"* 	c #C0C0C0",
"= 	c #B8B8B8",
"- 	c #B0B0B0",
"; 	c #A8A8A8",
"> 	c #A0A0A0",
", 	c #989898",
"' 	c #909090",
") 	c #888888",
"! 	c #808080",
"~ 	c #00C1FF",
"{ 	c #00C9FF",
"] 	c #00D2FF",
"^ 	c #00DBFF",
"/ 	c #00E4FF",
"( 	c #00E7FF",
"_ 	c #00DFFF",
": 	c #00D6FF",
"< 	c #00CDFF",
"[ 	c #00C5FF",
"} 	c #00BCFF",
"| 	c #00B3FF",
"1 	c #00AAFF",
"2 	c #00A1FF",
"3 	c #787878",
"4 	c #00DAFF",
"5 	c #00E3FF",
"6 	c #00D7FF",
"7 	c #00CEFF",
"8 	c #00ABFF",
"9 	c #00A2FF",
"0 	c #0099FF",
"a 	c #707070",
"b 	c #00D1FF",
"c 	c #005E6A",
"d 	c #00B0C3",
"e 	c #00E0FF",
"f 	c #00BDFF",
"g 	c #00B4FF",
"h 	c #009AFF",
"i 	c #0091FF",
"j 	c #686868",
"k 	c #00E2FF",
"l 	c #000E10",
"m 	c #5C969F",
"n 	c #3CE1FF",
"o 	c #00CFFF",
"p 	c #00C6FF",
"q 	c #0087B7",
"r 	c #00709F",
"s 	c #006B9F",
"t 	c #00659F",
"u 	c #006EB7",
"v 	c #0089FF",
"w 	c #606060",
"x 	c #959D9F",
"y 	c #60E1FF",
"z 	c #00BEFF",
"A 	c #004F70",
"B 	c #0D2430",
"C 	c #000000",
"D 	c #122430",
"E 	c #2A5270",
"F 	c #48AAFF",
"G 	c #0080FF",
"H 	c #585858",
"I 	c #00E1FF",
"J 	c #000D10",
"K 	c #777D7F",
"L 	c #327285",
"M 	c #0077A1",
"N 	c #00B2FC",
"O 	c #00ADFF",
"P 	c #6BA1BF",
"Q 	c #BFBFBF",
"R 	c #CFE8FF",
"S 	c #8FC7FF",
"T 	c #0078FF",
"U 	c #505050",
"V 	c #00D9FF",
"W 	c #1A1B1C",
"X 	c #417182",
"Y 	c #091013",
"Z 	c #2D627C",
"` 	c #03A5FF",
" .	c #0074BF",
"..	c #40A0FF",
"+.	c #0079FF",
"@.	c #0070FF",
"#.	c #484848",
"$.	c #000C10",
"%.	c #90969A",
"&.	c #E3F6FF",
"*.	c #3A6377",
"=.	c #252628",
"-.	c #83CEFF",
";.	c #006EBF",
">.	c #409AFF",
",.	c #0068FF",
"'.	c #40403F",
").	c #00C8FF",
"!.	c #707578",
"~.	c #64CDFE",
"{.	c #003451",
"].	c #223440",
"^.	c #D7EEFF",
"/.	c #0068BF",
"(.	c #4094FF",
"_.	c #005FFF",
":.	c #373737",
"<.	c #00C0FF",
"[.	c #000B10",
"}.	c #222425",
"|.	c #0B1216",
"1.	c #00101A",
"2.	c #8AAFCB",
"3.	c #BFE2FF",
"4.	c #0062BF",
"5.	c #408EFF",
"6.	c #0060FF",
"7.	c #0057FF",
"8.	c #2F2F2F",
"9.	c #00B8FF",
"0.	c #00AFFF",
"a.	c #EFF9FF",
"b.	c #D1E6F5",
"c.	c #E7F3FD",
"d.	c #E5F3FF",
"e.	c #349CFF",
"f.	c #007BFF",
"g.	c #4095FF",
"h.	c #FFFFFF",
"i.	c #4087FF",
"j.	c #0058FF",
"k.	c #004FFF",
"l.	c #272727",
"m.	c #00B0FF",
"n.	c #00A7FF",
"o.	c #009EFF",
"p.	c #0095FF",
"q.	c #0A91FF",
"r.	c #0284FF",
"s.	c #0072FF",
"t.	c #006AFF",
"u.	c #0061FF",
"v.	c #0046FF",
"w.	c #1F1F1F",
"x.	c #009FFF",
"y.	c #0096FF",
"z.	c #008DFF",
"A.	c #0084FF",
"B.	c #007CFF",
"C.	c #0073FF",
"D.	c #0050FF",
"E.	c #0047FF",
"F.	c #003EFF",
"G.	c #171717",
"H.	c #00A8FF",
"I.	c #008EFF",
"J.	c #0085FF",
"K.	c #006BFF",
"L.	c #0062FF",
"M.	c #0059FF",
"N.	c #003FFF",
"O.	c #0036FF",
"P.	c #0F0F0F",
"Q.	c #777777",
"R.	c #6F6F6F",
"S.	c #676767",
"T.	c #5F5F5F",
"U.	c #575757",
"V.	c #4F4F4F",
"W.	c #474747",
"X.	c #3F3F3F",
"Y.	c #070707",
". + @ # $ % & * = - ; > , ' ) ! ",
"+ ~ { ] ^ / ( _ : < [ } | 1 2 3 ",
"@ { ] 4 5 ( _ 6 7 [ } | 8 9 0 a ",
"# b 4 c d e 6 7 [ f g 8 9 h i j ",
"$ 4 k l m n o p q r s t u i v w ",
"% k ( l x y p z A B C D E F G H ",
"& ( I J K L M N O P C Q R S T U ",
"* k V J W X Y Z `  .C Q ..+.@.#.",
"= V b $.%.&.*.=.-.;.C Q >.@.,.'.",
"- b ).$.!.~.{.].^./.C Q (.,._.:.",
"; { <.[.}.|.1.2.3.4.C Q 5.6.7.8.",
"> ~ 9.0.a.b.c.d.e.f.g.h.i.j.k.l.",
", 9.m.n.o.p.q.r.f.s.t.u.j.k.v.w.",
"' m.n.x.y.z.A.B.C.t.u.j.D.E.F.G.",
") H.x.y.I.J.B.C.K.L.M.D.E.N.O.P.",
"! Q.R.S.T.U.V.W.X.:.8.l.w.G.P.Y."};
