/* XPM */
static char * close_search_xpm[] = {
"32 32 471 2",
"  	c None",
". 	c #000000",
"+ 	c #D9D9D9",
"@ 	c #D2D2D2",
"# 	c #CCCCCC",
"$ 	c #C4C4C4",
"% 	c #BDBDBD",
"& 	c #B6B6B6",
"* 	c #AFAFAF",
"= 	c #A8A8A8",
"- 	c #A1A1A1",
"; 	c #999999",
"> 	c #939393",
", 	c #8C8C8C",
"' 	c #858585",
") 	c #7D7D7D",
"! 	c #767676",
"~ 	c #707070",
"{ 	c #686868",
"] 	c #616161",
"^ 	c #5A5A5A",
"/ 	c #545454",
"( 	c #4C4C4C",
"_ 	c #454545",
": 	c #3E3E3E",
"< 	c #383838",
"[ 	c #303030",
"} 	c #2A2A2A",
"| 	c #222222",
"1 	c #1B1B1B",
"2 	c #D1D1D1",
"3 	c #CACACA",
"4 	c #BCBCBC",
"5 	c #B5B5B5",
"6 	c #AEAEAE",
"7 	c #A7A7A7",
"8 	c #A0A0A0",
"9 	c #9B8F8F",
"0 	c #9A7575",
"a 	c #9C5F5F",
"b 	c #A24444",
"c 	c #AB2C2C",
"d 	c #B51515",
"e 	c #B11414",
"f 	c #9F2424",
"g 	c #8B3131",
"h 	c #763D3D",
"i 	c #644242",
"j 	c #524747",
"k 	c #363636",
"l 	c #292929",
"m 	c #212121",
"n 	c #1A1A1A",
"o 	c #131313",
"p 	c #C2C2C2",
"q 	c #BBBBBB",
"r 	c #B4B4B4",
"s 	c #ADADAD",
"t 	c #A6A6A6",
"u 	c #A09898",
"v 	c #A56D6D",
"w 	c #AD4444",
"x 	c #BD1B1B",
"y 	c #C80E0E",
"z 	c #CE1B1B",
"A 	c #D42626",
"B 	c #D82626",
"C 	c #D72626",
"D 	c #D12828",
"E 	c #C81D1D",
"F 	c #BB0B0B",
"G 	c #A40E0E",
"H 	c #7E2020",
"I 	c #5C2B2B",
"J 	c #383232",
"K 	c #2F2F2F",
"L 	c #272727",
"M 	c #202020",
"N 	c #191919",
"O 	c #0C0C0C",
"P 	c #ACACAC",
"Q 	c #A5A5A5",
"R 	c #A28D8D",
"S 	c #AD5454",
"T 	c #BF1919",
"U 	c #D00E0E",
"V 	c #DE3030",
"W 	c #EB5E5E",
"X 	c #F48787",
"Y 	c #F89F9F",
"Z 	c #F9A5A5",
"` 	c #F8A2A2",
" .	c #F48E8E",
"..	c #E96969",
"+.	c #D83D3D",
"@.	c #C01010",
"#.	c #9E0808",
"$.	c #661919",
"%.	c #342323",
"&.	c #181818",
"*.	c #121212",
"=.	c #0A0A0A",
"-.	c #030303",
";.	c #BABABA",
">.	c #B2B2B2",
",.	c #A28888",
"'.	c #B14949",
").	c #C81010",
"!.	c #DB1E1E",
"~.	c #EE6060",
"{.	c #FAA4A4",
"].	c #FDD0D0",
"^.	c #FEE0E0",
"/.	c #FEE1E1",
"(.	c #FDD7D7",
"_.	c #FAB3B3",
":.	c #EB7676",
"<.	c #D02C2C",
"[.	c #A90808",
"}.	c #670E0E",
"|.	c #291414",
"1.	c #111111",
"2.	c #020202",
"3.	c #AAAAAA",
"4.	c #A4A4A4",
"5.	c #A18C8C",
"6.	c #B04848",
"7.	c #CC1010",
"8.	c #E22D2D",
"9.	c #F57D7D",
"0.	c #FDBBBB",
"a.	c #FECFCF",
"b.	c #FFD0D0",
"c.	c #FED0D0",
"d.	c #FDC7C7",
"e.	c #F59090",
"f.	c #D74141",
"g.	c #AB0B0B",
"h.	c #5E0707",
"i.	c #190808",
"j.	c #A3A3A3",
"k.	c #9C9494",
"l.	c #AA5252",
"m.	c #C70F0F",
"n.	c #E22A2A",
"o.	c #F77E7E",
"p.	c #FDB7B7",
"q.	c #FEC4C4",
"r.	c #FFC9C9",
"s.	c #FFC1C1",
"t.	c #FFBDBD",
"u.	c #FFC4C4",
"v.	c #FEBBBB",
"w.	c #F79393",
"x.	c #D73F3F",
"y.	c #A00606",
"z.	c #490000",
"A.	c #060000",
"B.	c #9B9B9B",
"C.	c #A26A6A",
"D.	c #BE1818",
"E.	c #DB1414",
"F.	c #F56464",
"G.	c #FDA5A5",
"H.	c #FFB4B4",
"I.	c #FFD7D7",
"J.	c #FFE9E9",
"K.	c #FFCACA",
"L.	c #FFAEAE",
"M.	c #FFAAAA",
"N.	c #FEA8A8",
"O.	c #F47B7B",
"P.	c #C92424",
"Q.	c #890000",
"R.	c #2C0000",
"S.	c #9A9A9A",
"T.	c #968989",
"U.	c #AA4141",
"V.	c #D00808",
"W.	c #EE3D3D",
"X.	c #FD8787",
"Y.	c #FEA0A0",
"Z.	c #FFCECE",
"`.	c #FFF4F4",
" +	c #FFFEFE",
".+	c #FFECEC",
"++	c #FFC0C0",
"@+	c #FF9C9C",
"#+	c #FF9797",
"$+	c #FFFDFD",
"%+	c #FFA0A0",
"&+	c #FD9191",
"*+	c #E95151",
"=+	c #B10A0A",
"-+	c #540000",
";+	c #0A0000",
">+	c #929292",
",+	c #957070",
"'+	c #BC1A1A",
")+	c #DE1616",
"!+	c #F95A5A",
"~+	c #FE8484",
"{+	c #FF9696",
"]+	c #FFDBDB",
"^+	c #FFFFFF",
"/+	c #FFE8E8",
"(+	c #FFB5B5",
"_+	c #FF8989",
":+	c #FEDBDB",
"<+	c #FC7272",
"[+	c #F75050",
"}+	c #CC1717",
"|+	c #840000",
"1+	c #1C0000",
"2+	c #8A8A8A",
"3+	c #965959",
"4+	c #C70909",
"5+	c #EC2828",
"6+	c #FD6464",
"7+	c #FF7070",
"8+	c #FF7575",
"9+	c #FF9F9F",
"0+	c #FFE1E1",
"a+	c #FFFCFC",
"b+	c #FFE5E5",
"c+	c #FFACAC",
"d+	c #FEFBFB",
"e+	c #FDD5D5",
"f+	c #FA8080",
"g+	c #F73F3F",
"h+	c #F52727",
"i+	c #F31414",
"j+	c #DD0505",
"k+	c #9F0000",
"l+	c #300000",
"m+	c #828282",
"n+	c #9E3F3F",
"o+	c #CD0909",
"p+	c #F32F2F",
"q+	c #FE5B5B",
"r+	c #FF5C5C",
"s+	c #FF6161",
"t+	c #FF9595",
"u+	c #FFDCDC",
"v+	c #FFFBFB",
"w+	c #FFEBEB",
"x+	c #FEFAFA",
"y+	c #FBCDCD",
"z+	c #F66464",
"A+	c #F31616",
"B+	c #F20101",
"C+	c #F20000",
"D+	c #F10000",
"E+	c #E90000",
"F+	c #AC0000",
"G+	c #7B7B7B",
"H+	c #A72828",
"I+	c #D40C0C",
"J+	c #F82D2D",
"K+	c #FE4747",
"L+	c #FF4848",
"M+	c #FF4F4F",
"N+	c #FFD8D8",
"O+	c #FCCDCD",
"P+	c #F65F5F",
"Q+	c #F20B0B",
"R+	c #EE0000",
"S+	c #B70000",
"T+	c #630000",
"U+	c #727272",
"V+	c #B11313",
"W+	c #D70707",
"X+	c #F92323",
"Y+	c #FE3333",
"Z+	c #FF3434",
"`+	c #FF3B3B",
" @	c #FF8383",
".@	c #FFE3E3",
"+@	c #FDDCDC",
"@@	c #F66666",
"#@	c #F20A0A",
"$@	c #BE0000",
"%@	c #7C0000",
"&@	c #6B6B6B",
"*@	c #AF1212",
"=@	c #D60404",
"-@	c #F81515",
";@	c #FE1F1F",
">@	c #FF2020",
",@	c #FF2A2A",
"'@	c #FF7B7B",
")@	c #BD0000",
"!@	c #7A0000",
"~@	c #636363",
"{@	c #9C2020",
"]@	c #D00303",
"^@	c #F80808",
"/@	c #FE0C0C",
"(@	c #FF0C0C",
"_@	c #FF1818",
":@	c #FF6A6A",
"<@	c #FFD1D1",
"[@	c #F75F5F",
"}@	c #F40B0B",
"|@	c #F40000",
"1@	c #F00000",
"2@	c #B50000",
"3@	c #600000",
"4@	c #5B5B5B",
"5@	c #862B2B",
"6@	c #C70303",
"7@	c #F50000",
"8@	c #FD0101",
"9@	c #FE0101",
"0@	c #FE0A0A",
"a@	c #FE6060",
"b@	c #FECDCD",
"c@	c #FFFAFA",
"d@	c #FEDDDD",
"e@	c #FCCCCC",
"f@	c #F95E5E",
"g@	c #F70808",
"h@	c #F70000",
"i@	c #A80000",
"j@	c #440000",
"k@	c #525252",
"l@	c #6C3434",
"m@	c #BA0505",
"n@	c #EB0000",
"o@	c #FC0000",
"p@	c #FD0000",
"q@	c #FD0A0A",
"r@	c #FD5B5B",
"s@	c #FECECE",
"t@	c #FD6666",
"u@	c #FDCDCD",
"v@	c #FC5A5A",
"w@	c #FB0A0A",
"x@	c #FB0000",
"y@	c #E10000",
"z@	c #970000",
"A@	c #2A0000",
"B@	c #4B4B4B",
"C@	c #593737",
"D@	c #A20C0C",
"E@	c #DB0101",
"F@	c #FC0303",
"G@	c #FE0606",
"H@	c #FE2A2A",
"I@	c #FEB9B9",
"J@	c #FFCFCF",
"K@	c #FE6363",
"L@	c #FE0E0E",
"M@	c #FB0303",
"N@	c #C90000",
"O@	c #780000",
"P@	c #190000",
"Q@	c #424242",
"R@	c #433838",
"S@	c #771818",
"T@	c #C10303",
"U@	c #EF0B0B",
"V@	c #FE0F0F",
"W@	c #FF2424",
"X@	c #FF8B8B",
"Y@	c #FF6B6B",
"Z@	c #FF1B1B",
"`@	c #FF0F0F",
" #	c #E80B0B",
".#	c #A50101",
"+#	c #090000",
"@#	c #3B3B3B",
"##	c #343434",
"$#	c #512020",
"%#	c #9B0606",
"&#	c #D30B0B",
"*#	c #F81919",
"=#	c #FE1C1C",
"-#	c #FF3535",
";#	c #FF9191",
">#	c #FF6E6E",
",#	c #FF1C1C",
"'#	c #F51919",
")#	c #C00A0A",
"!#	c #770000",
"~#	c #250000",
"{#	c #333333",
"]#	c #2C2C2C",
"^#	c #2A2323",
"/#	c #5D1010",
"(#	c #A80404",
"_#	c #DB1515",
":#	c #F92525",
"<#	c #FE2929",
"[#	c #FF4B4B",
"}#	c #FF3232",
"|#	c #FF2929",
"1#	c #F72525",
"2#	c #CD1515",
"3#	c #8B0202",
"4#	c #3B0000",
"5#	c #040000",
"6#	c #2B2B2B",
"7#	c #242424",
"8#	c #1D1D1D",
"9#	c #241313",
"0#	c #5F0707",
"a#	c #AC0808",
"b#	c #D91C1C",
"c#	c #F73030",
"d#	c #FE3636",
"e#	c #FF3838",
"f#	c #FF3636",
"g#	c #F53131",
"h#	c #CD1C1C",
"i#	c #950808",
"j#	c #460000",
"k#	c #0C0000",
"l#	c #232323",
"m#	c #1C1C1C",
"n#	c #151515",
"o#	c #0F0F0F",
"p#	c #1C0606",
"q#	c #560000",
"r#	c #CC1A1A",
"s#	c #EC3434",
"t#	c #FC4141",
"u#	c #FE4343",
"v#	c #FF4343",
"w#	c #E83434",
"x#	c #C01B1B",
"y#	c #8B0606",
"z#	c #470000",
"A#	c #100000",
"B#	c #141414",
"C#	c #0D0D0D",
"D#	c #060606",
"E#	c #880101",
"F#	c #B21313",
"G#	c #D02828",
"H#	c #E73A3A",
"I#	c #F54848",
"J#	c #FB4D4D",
"K#	c #FA4D4D",
"L#	c #F44848",
"M#	c #E33A3A",
"N#	c #CA2828",
"O#	c #A61313",
"P#	c #770202",
"Q#	c #3C0000",
"R#	c #0D0000",
"S#	c #050505",
"T#	c #2B0000",
"U#	c #530000",
"V#	c #840505",
"W#	c #A10F0F",
"X#	c #B01919",
"Y#	c #BD2323",
"Z#	c #C42727",
"`#	c #C32727",
" $	c #BA2323",
".$	c #AA1919",
"+$	c #980F0F",
"@$	c #780505",
"#$	c #040404",
"$$	c #1A0000",
"%$	c #630202",
"&$	c #7C0303",
"*$	c #7B0303",
"=$	c #600202",
"-$	c #450000",
". . . . . . . . . . . . . . . . . . . . . . . . . . . . . . . . ",
". . . . . . . . . . . . . . . . . . . . . . . . . . . . . . . . ",
". . + @ # $ % & * = - ; > , ' ) ! ~ { ] ^ / ( _ : < [ } | 1 . . ",
". . 2 3 $ 4 5 6 7 8 9 0 a b c d e f g h i j _ : k [ l m n o . . ",
". . 3 p q r s t u v w x y z A B C D E F G H I J K L M N o O . . ",
". . p q r P Q R S T U V W X Y Z Z `  ...+.@.#.$.%.M &.*.=.-.. . ",
". . ;.>.P Q ,.'.).!.~.{.].^.^./././.^.(._.:.<.[.}.|.1.=.2.. . . ",
". . >.3.4.5.6.7.8.9.0.a.b.b.b.b.b.b.b.b.c.d.e.f.g.h.i.2.. . . . ",
". . 3.j.k.l.m.n.o.p.q.r.s.t.t.t.t.t.t.s.r.u.v.w.x.y.z.A.. . . . ",
". . - B.C.D.E.F.G.H.I.J.K.L.M.M.M.M.L.K.J.I.H.N.O.P.Q.R.. . . . ",
". . S.T.U.V.W.X.Y.Z.`. +.+++@+#+#+@+++.+$+`.Z.%+&+*+=+-+;+. . . ",
". . >+,+'+)+!+~+{+]+$+^+$+/+(+_+_+H./+$+^+$+:+&+<+[+}+|+1+. . . ",
". . 2+3+4+5+6+7+8+9+0+a+^+a+b+c+c+b+a+^+d+e+f+g+h+i+j+k+l+. . . ",
". . m+n+o+p+q+r+r+s+t+u+v+^+$+w+w+$+^+x+y+z+A+B+C+D+E+F+z.. . . ",
". . G+H+I+J+K+L+L+L+M+_+N+a+^+^+^+^+d+O+P+Q+C+C+C+C+R+S+T+. . . ",
". . U+V+W+X+Y+Z+Z+Z+Z+`+ @.@^+^+^+^++@@@#@C+C+C+C+C+R+$@%@. . . ",
". . &@*@=@-@;@>@>@>@>@,@'@0+^+^+^+^++@@@#@C+C+C+C+C+R+)@!@. . . ",
". . ~@{@]@^@/@(@(@(@_@:@<@a+^+^+^+^+d+O+[@}@|@|@|@|@1@2@3@. . . ",
". . 4@5@6@7@8@9@9@0@a@b@c@^+d+d@d@d+^+x+e@f@g@h@h@h@R+i@j@. . . ",
". . k@l@m@n@o@p@q@r@s@d+^+c@b@t@t@b@c@^+d+u@v@w@x@x@y@z@A@. . . ",
". . B@C@D@E@F@G@H@I@d+^+v+J@K@L@L@K@J@v+^+d+I@H@G@M@N@O@P@. . . ",
". . Q@R@S@T@U@V@W@X@b+a+<@Y@Z@`@`@Z@Y@<@a+b+X@W@V@ #.#z.+#. . . ",
". . @###$#%#&#*#=#-#;#s.>#W@,#,#,#,#W@>#s.;#-#=#'#)#!#~#. . . . ",
". . {#]#^#/#(#_#:#<#`+[#}#|#|#|#|#|#|#}#[#`+<#1#2#3#4#5#. . . . ",
". . 6#7#8#9#0#a#b#c#d#e#f#f#f#f#f#f#f#f#e#d#g#h#i#j#k#. . . . . ",
". . l#m#n#o#p#q#y.r#s#t#u#u#v#v#v#v#u#u#t#w#x#y#z#A#. . . . . . ",
". . m#B#C#D#. A#z#E#F#G#H#I#J#J#J#K#L#M#N#O#P#Q#R#. . . . . . . ",
". . o O S#. . . A.T#U#V#W#X#Y#Z#`# $.$+$@$z.~#5#. . . . . . . . ",
". . O #$. . . . . . ;+$$R.z.%$&$*$=$-$A@P@+#. . . . . . . . . . ",
". . -.. . . . . . . . . . . . . . . . . . . . . . . . . . . . . ",
". . . . . . . . . . . . . . . . . . . . . . . . . . . . . . . . ",
". . . . . . . . . . . . . . . . . . . . . . . . . . . . . . . . "};
