/* XPM */
static char * complex_search_xpm[] = {
"39 24 282 2",
"  	c None",
". 	c #000000",
"+ 	c #EFEFEF",
"@ 	c #EAEAEA",
"# 	c #E5E5E5",
"$ 	c #DFDFDF",
"% 	c #D9D9D9",
"& 	c #D4D4D4",
"* 	c #CFCFCF",
"= 	c #C9C9C9",
"- 	c #C4C4C4",
"; 	c #BFBFBF",
"> 	c #B9B9B9",
", 	c #B4B4B4",
"' 	c #AEAEAE",
") 	c #A9A9A9",
"! 	c #A3A3A3",
"~ 	c #9F9F9F",
"{ 	c #999999",
"] 	c #949494",
"^ 	c #8E8E8E",
"/ 	c #888888",
"( 	c #838383",
"_ 	c #7E7E7E",
": 	c #787878",
"< 	c #6B6B6B",
"[ 	c #585858",
"} 	c #404040",
"| 	c #626262",
"1 	c #5E5E5E",
"2 	c #535353",
"3 	c #4D4D4D",
"4 	c #484848",
"5 	c #424242",
"6 	c #3D3D3D",
"7 	c #383838",
"8 	c #E8E8E8",
"9 	c #E2E2E2",
"0 	c #DCDCDC",
"a 	c #D7D7D7",
"b 	c #D1D1D1",
"c 	c #CCCCCC",
"d 	c #C6C6C6",
"e 	c #C1C1C1",
"f 	c #BCBCBC",
"g 	c #B7B7B7",
"h 	c #B1B1B1",
"i 	c #ACACAC",
"j 	c #A7A7A7",
"k 	c #A1A1A1",
"l 	c #9C9C9C",
"m 	c #979797",
"n 	c #919191",
"o 	c #898989",
"p 	c #292929",
"q 	c #121212",
"r 	c #0E0E0E",
"s 	c #0A0A0A",
"t 	c #040404",
"u 	c #4E4E4E",
"v 	c #565656",
"w 	c #505050",
"x 	c #4A4A4A",
"y 	c #454545",
"z 	c #3B3B3B",
"A 	c #353535",
"B 	c #303030",
"C 	c #E0E0E0",
"D 	c #DADADA",
"E 	c #D5D5D5",
"F 	c #C5C5C5",
"G 	c #AFAFAF",
"H 	c #AAAAAA",
"I 	c #A4A4A4",
"J 	c #868686",
"K 	c #6D6D6D",
"L 	c #545454",
"M 	c #393939",
"N 	c #343434",
"O 	c #2F2F2F",
"P 	c #262626",
"Q 	c #1D1D1D",
"R 	c #141414",
"S 	c #0D0D0D",
"T 	c #060606",
"U 	c #010101",
"V 	c #2E2E2E",
"W 	c #434343",
"X 	c #3E3E3E",
"Y 	c #333333",
"Z 	c #282828",
"` 	c #D2D2D2",
" .	c #CDCDCD",
"..	c #C7C7C7",
"+.	c #C2C2C2",
"@.	c #B2B2B2",
"#.	c #A6A6A6",
"$.	c #A2A2A2",
"%.	c #969696",
"&.	c #616161",
"*.	c #555555",
"=.	c #696969",
"-.	c #8D8D8D",
";.	c #6C6C6C",
">.	c #232323",
",.	c #171717",
"'.	c #0F0F0F",
").	c #090909",
"!.	c #030303",
"~.	c #2B2B2B",
"{.	c #202020",
"].	c #CACACA",
"^.	c #C0C0C0",
"/.	c #BABABA",
"(.	c #8F8F8F",
"_.	c #595959",
":.	c #7F7F7F",
"<.	c #F1F1F1",
"[.	c #FAFAFA",
"}.	c #EEEEEE",
"|.	c #131313",
"1.	c #1F1F1F",
"2.	c #636363",
"3.	c #2D2D2D",
"4.	c #474747",
"5.	c #191919",
"6.	c #C8C8C8",
"7.	c #C3C3C3",
"8.	c #BDBDBD",
"9.	c #ADADAD",
"0.	c #9D9D9D",
"a.	c #929292",
"b.	c #8C8C8C",
"c.	c #878787",
"d.	c #D3D3D3",
"e.	c #E6E6E6",
"f.	c #4B4B4B",
"g.	c #EBEBEB",
"h.	c #242424",
"i.	c #313131",
"j.	c #212121",
"k.	c #1B1B1B",
"l.	c #161616",
"m.	c #101010",
"n.	c #BBBBBB",
"o.	c #B5B5B5",
"p.	c #A5A5A5",
"q.	c #A0A0A0",
"r.	c #9A9A9A",
"s.	c #8A8A8A",
"t.	c #858585",
"u.	c #726D5F",
"v.	c #373737",
"w.	c #515151",
"x.	c #F9F9F9",
"y.	c #606060",
"z.	c #EDEDED",
"A.	c #B0B0B0",
"B.	c #0C0C0C",
"C.	c #ABACAC",
"D.	c #7D7D7D",
"E.	c #080808",
"F.	c #818181",
"G.	c #8F815B",
"H.	c #E6A700",
"I.	c #2A2823",
"J.	c #F6F6F6",
"K.	c #B8B8B8",
"L.	c #1E1E1E",
"M.	c #363636",
"N.	c #6F6F6F",
"O.	c #D8D8D8",
"P.	c #CECECE",
"Q.	c #B1B2B2",
"R.	c #0B0B0B",
"S.	c #050505",
"T.	c #ABABAB",
"U.	c #959595",
"V.	c #808080",
"W.	c #7A7A7A",
"X.	c #747474",
"Y.	c #706F69",
"Z.	c #EFAF04",
"`.	c #3B3013",
" +	c #323232",
".+	c #D2CBB1",
"++	c #CDC18F",
"@+	c #887E54",
"#+	c #C6BC91",
"$+	c #CABC84",
"%+	c #070707",
"&+	c #C7C8C8",
"*+	c #606161",
"=+	c #A8A8A8",
"-+	c #989898",
";+	c #828282",
">+	c #727272",
",+	c #686868",
"'+	c #8E783C",
")+	c #5E4706",
"!+	c #2C2C2C",
"~+	c #91908D",
"{+	c #C69F26",
"]+	c #FECB09",
"^+	c #F3C00A",
"/+	c #94855A",
"(+	c #7C7C7C",
"_+	c #5F5F60",
":+	c #B0B2B2",
"<+	c #9B9B9B",
"[+	c #909090",
"}+	c #7B7B7B",
"|+	c #757575",
"1+	c #6A6A6A",
"2+	c #656565",
"3+	c #5A5958",
"4+	c #74580B",
"5+	c #222222",
"6+	c #B5B1A9",
"7+	c #DCAC20",
"8+	c #C1A969",
"9+	c #D0D1D1",
"0+	c #6D6F6F",
"a+	c #5D5D5D",
"b+	c #575757",
"c+	c #525252",
"d+	c #4C473A",
"e+	c #151515",
"f+	c #D7D4CC",
"g+	c #E1E1E1",
"h+	c #AEAEAF",
"i+	c #9EA1A1",
"j+	c #353536",
"k+	c #8B8B8B",
"l+	c #707070",
"m+	c #5A5A5A",
"n+	c #4F4F4F",
"o+	c #444444",
"p+	c #F4F4F4",
"q+	c #FCFCFC",
"r+	c #F8F8F8",
"s+	c #9A9D9D",
"t+	c #636464",
"u+	c #737373",
"v+	c #F3F3F3",
"w+	c #FFFFFF",
"x+	c #FEFEFE",
"y+	c #CACBCB",
"z+	c #717474",
"A+	c #676767",
"B+	c #767676",
"C+	c #5B5B5B",
"D+	c #3F3F3F",
"E+	c #3A3A3A",
"F+	c #ECECEC",
"G+	c #B1B4B4",
"H+	c #676969",
"I+	c #6E6E6E",
"J+	c #FDFDFD",
"K+	c #9E9E9E",
"L+	c #3C3C3C",
"M+	c #717171",
"N+	c #2A2A2A",
"O+	c #252525",
"P+	c #E5E3DD",
"Q+	c #959594",
"R+	c #4C4C4C",
"S+	c #494949",
"T+	c #181818",
"U+	c #CBCBCB",
"V+	c #D0CBBF",
"W+	c #C5B58B",
"X+	c #C0A353",
"Y+	c #735917",
"Z+	c #090600",
"`+	c #5C5C5C",
" @	c #464646",
".@	c #211800",
"+@	c #D39A00",
"@@	c #302300",
"#@	c #020202",
"$@	c #020100",
". . . . . . . . . . . . . . . . . . . . . . . . . . . . . . . . . . . . . . . ",
". . . . . . . . . . . . . . . . . . . . . . . . . . . . . . . . . . . . . . . ",
". . + @ # $ % & * = - ; > , ' ) ! ~ { ] ^ / ( _ : < [ } | 1 [ 2 3 4 5 6 7 . . ",
". . 8 9 0 a b c d e f g h i j k l m n o : | 4 p q r s t u v w x y } z A B . . ",
". . C D E * = F ; > , G H I ~ J K L M B N O P Q R S T U V u 4 W X 7 Y V Z . . ",
". . a `  ...+.f g @.i #.$.l %.y &.*.x =.-.;.>.,.'.).!.. ).y } z A B ~.P {.. . ",
". . * ].F ^./., G H I ~ { ] (.2 _.u :.<.[.}.n |.1.2.< 3.. M M Y 4.~.>.Q 5.. . ",
". . 6.7.8.g @.9.j $.0.m a.b.c.2.3 x d.[.[.e.6.f.d + [.g.2 h.i.X 7.j.k.l.m.. . ",
". . ^.n.o.G H p.q.r.] (.s.t.:.u.v.w.$ x.x.- | y.( }.[.z.A.B.p C.D.,.|.S E.. . ",
". . g @.9.j $.l m a.b.c.F.D.G.H.I.5 c + J.K.L.M.N.O.C P./ . } Q.{.m.R.S.U . . ",
". . A.T.p.q.r.U.(.s.t.V.W.X.Y.Z.`. +o P.D .+++@+#+$+) t.5.%+&+*+S E.!.. . . . ",
". . =+! 0.-+a.-./ ;+D.: >+K ,+'+)+!+~.:.#.~+{+]+^+/+(+B . _+:+j.S.U . . . . . ",
". . q.<+%.[+s.t.V.}+|+N.1+2+y.3+4+5+j.D.-+9.6+7+8+F 8.k !+9+0+t . . . . . . . ",
". . -+a.-./ ;+D.: >+K ,+| a+b+c+d+e+,+K.* C 8 f+g+8 % e h+i+j+. . . . . . . . ",
". . [+k+t.V.W.|+l+1+2+y.m+*.n+x o+3.A.* # p+[.q+q+r+z.& s+t+!.. . . . . . . . ",
". . o ( _ : u+K ,+2.a+[ 2 3 4 5 6 < F C v+q+w+w+w+x+r+y+z+A+l.. . . . . . . . ",
". . V.}+B+l+< 2+y.C+*.w x y D+E+N C+& F+[.x+w+w+w+w+}.G+H+n a+. . . . . . . . ",
". . : u+I+,+| a+[ 2 3 4 W X 7  +3.6 C p+J+w+w+w+w+w+0.K+W.t.L+. . . . . . . . ",
". . M+< 2+y.C+v w x y } E+A B N+O+>.8 x.x+w+w+x+P+Q+< R+U . . . . . . . . . . ",
". . =.2.1 _.2 u S+W X 7  +3.Z >.Q T+U+@ V+W+X+Y+Z+. X . . . . . . . . . . . . ",
". . &.`+v w.f. @} z A B N+P {.k.l.m.e+%+.@+@@@. . U #@. . . . . . . . . . . . ",
". . _.2 u S+o+X 7 Y V Z >.Q T+q S E.!.. . $@. . . . . . . . . . . . . . . . . ",
". . . . . . . . . . . . . . . . . . . . . . . . . . . . . . . . . . . . . . . ",
". . . . . . . . . . . . . . . . . . . . . . . . . . . . . . . . . . . . . . . "};
