/* XPM */
static char * connect_established_xpm[] = {
"16 16 70 1",
" 	c None",
".	c #B7B7B7",
"+	c #C3C3C3",
"@	c #AEAEAE",
"#	c #CACAC8",
"$	c #50504F",
"%	c #848484",
"&	c #E1E1E0",
"*	c #EAEAE9",
"=	c #AEAEAB",
"-	c #CBCBC8",
";	c #555551",
">	c #D1D1D1",
",	c #B4B4B4",
"'	c #686866",
")	c #D8D8D5",
"!	c #E6E6E2",
"~	c #83837D",
"{	c #585858",
"]	c #BEBEBE",
"^	c #E6E6E5",
"/	c #ABABA8",
"(	c #6C6C66",
"_	c #CCCCC4",
":	c #DDDDD2",
"<	c #9C9C8D",
"[	c #434343",
"}	c #434342",
"|	c #B5B5B3",
"1	c #D2D2CE",
"2	c #ABABA3",
"3	c #7A7A6F",
"4	c #C3C3B3",
"5	c #91917E",
"6	c #E2E2A9",
"7	c #353534",
"8	c #B2B2AF",
"9	c #9E9E98",
"0	c #C4C4B9",
"a	c #9C9C8C",
"b	c #96967A",
"c	c #969678",
"d	c #ECECB5",
"e	c #E5E5AE",
"f	c #BEBEBD",
"g	c #5E5E5B",
"h	c #575750",
"i	c #99998D",
"j	c #8A8A77",
"k	c #939376",
"l	c #F3F3CF",
"m	c #FBFBE5",
"n	c #F2F2BF",
"o	c #4F4F4D",
"p	c #47473C",
"q	c #70705C",
"r	c #B5B58A",
"s	c #DDDDAA",
"t	c #FFFFFF",
"u	c #ECECBC",
"v	c #DEDEA8",
"w	c #525252",
"x	c #7E7E5E",
"y	c #BEBE91",
"z	c #E2E2B2",
"A	c #E9E9BA",
"B	c #CDCD9D",
"C	c #A5A57C",
"D	c #CCCC9A",
"E	c #969671",
"                ",
"                ",
"          .     ",
"     +@  #$     ",
"    %&*=-;      ",
"   >,')!~       ",
"  {]^/(_:<      ",
"  [}|123456     ",
"   7890abcde    ",
"   fghijklmn    ",
"  fo pqrsmtuv   ",
"  w    xyzABC   ",
"          DE    ",
"                ",
"                ",
"                "};
