/* XPM */
static char * connect_m_xpm[] = {
"16 16 78 1",
" 	c None",
".	c #B6B6B6",
"+	c #9A9A9A",
"@	c #C2C2C2",
"#	c #E1E1E1",
"$	c #BABABA",
"%	c #B4B4B4",
"&	c #929292",
"*	c #A2A2A2",
"=	c #D8D8D8",
"-	c #E2E2E2",
";	c #A1A1A1",
">	c #333333",
",	c #E9E9E9",
"'	c #8E8E8E",
")	c #C8C8C8",
"!	c #D0D0D0",
"~	c #717171",
"{	c #656565",
"]	c #A5A5A5",
"^	c #848484",
"/	c #B7A8BF",
"(	c #AB77C9",
"_	c #BA6EE4",
":	c #CB76F8",
"<	c #373737",
"[	c #838383",
"}	c #B5B5B5",
"|	c #AFAFAF",
"1	c #968A9C",
"2	c #9143CF",
"3	c #6E07C5",
"4	c #7E03CE",
"5	c #9507DE",
"6	c #BB3DF5",
"7	c #767676",
"8	c #ADADAD",
"9	c #636363",
"0	c #A466D0",
"a	c #761DC9",
"b	c #B477E0",
"c	c #EAD5F6",
"d	c #B853EB",
"e	c #A21AE9",
"f	c #878787",
"g	c #A9A9A9",
"h	c #393939",
"i	c #363636",
"j	c #454545",
"k	c #9759C3",
"l	c #771BC9",
"m	c #9A38D8",
"n	c #E6C9F7",
"o	c #B342EE",
"p	c #A933EB",
"q	c #4A008F",
"r	c #ACACAC",
"s	c #3C3C3C",
"t	c #0C0C0C",
"u	c #0E0E0E",
"v	c #A256D0",
"w	c #8916D5",
"x	c #9D2BE0",
"y	c #C67AEF",
"z	c #B33EF0",
"A	c #AF44EC",
"B	c #420080",
"C	c #6C3389",
"D	c #A324E5",
"E	c #9F1CE7",
"F	c #B852F0",
"G	c #B245EF",
"H	c #7922BB",
"I	c #712B91",
"J	c #7B16C0",
"K	c #6A0FB2",
"L	c #6715AA",
"M	c #130025",
"                ",
"                ",
"         .+     ",
"     @#$%+      ",
"    &*=-;>      ",
"   &,.')!~      ",
"   {!=]^/(_:    ",
"   <[}|123456   ",
"   789^0abcde   ",
"  fghijklmnopq  ",
"  rs tuvwxyzAB  ",
"       CDEFGH   ",
"        IJKLM   ",
"                ",
"                ",
"                "};
