/* XPM */
static char * connect_no_xpm[] = {
"16 16 81 1",
" 	c None",
".	c #B2B2B2",
"+	c #BCBCBC",
"@	c #5B5B5B",
"#	c #C1C1C1",
"$	c #EBEBEB",
"%	c #D8D8D8",
"&	c #B6B6B6",
"*	c #5E5E5E",
"=	c #737373",
"-	c #AEAEAE",
";	c #DBDBDB",
">	c #C4C4C4",
",	c #454545",
"'	c #4D4D4D",
")	c #727272",
"!	c #A0A0A0",
"~	c #BEBEBE",
"{	c #7C7C7C",
"]	c #D9D9D9",
"^	c #E3E3E3",
"/	c #353535",
"(	c #505050",
"_	c #737271",
":	c #7D7675",
"<	c #47403E",
"[	c #AFAFAF",
"}	c #E0E0E0",
"|	c #C7C7C7",
"1	c #333333",
"2	c #995953",
"3	c #E14C41",
"4	c #E55340",
"5	c #ED5C41",
"6	c #585858",
"7	c #BBBBBB",
"8	c #9C9C9C",
"9	c #C86E65",
"0	c #D12926",
"a	c #CA1C10",
"b	c #D2220D",
"c	c #E02C0A",
"d	c #EE4726",
"e	c #7A7A7A",
"f	c #808080",
"g	c #717171",
"h	c #C9685F",
"i	c #CF3A38",
"j	c #F1C3BF",
"k	c #EA968A",
"l	c #F7B5A8",
"m	c #EA4225",
"n	c #900000",
"o	c #C0C0C0",
"p	c #757575",
"q	c #303030",
"r	c #444444",
"s	c #3A3939",
"t	c #C86358",
"u	c #CF251B",
"v	c #EA8A7F",
"w	c #FEEFED",
"x	c #F37159",
"y	c #ED563E",
"z	c #800000",
"A	c #7D7D7D",
"B	c #CA6250",
"C	c #E54C35",
"D	c #F6A79A",
"E	c #F37561",
"F	c #FAB6AA",
"G	c #E34E3C",
"H	c #670000",
"I	c #DC4E32",
"J	c #E73116",
"K	c #E53A25",
"L	c #E14938",
"M	c #7E0F0B",
"N	c #76140F",
"O	c #610000",
"P	c #590000",
"                ",
"                ",
"       .  +@    ",
"      #$%&*     ",
"      =-;>,     ",
"      ')!~{     ",
"   ]^ /(_:<     ",
"   [}| 12345    ",
"   6!7890abcd   ",
"   +efghijklmn  ",
"  opqrstuvwxyz  ",
"  A    BCDEFGH  ",
"        IJKLM   ",
"         NOP    ",
"                ",
"                "};
