/* XPM */
static char * dc_16_xpm[] = {
"16 16 191 2",
"  	c None",
". 	c #F8F8F8",
"+ 	c #F0F0F0",
"@ 	c #E8E8E8",
"# 	c #E0E0E0",
"$ 	c #D8D8D8",
"% 	c #D0D0D0",
"& 	c #C8C8C8",
"* 	c #C0C0C0",
"= 	c #B8B8B8",
"- 	c #B0B0B0",
"; 	c #A8A8A8",
"> 	c #A0A0A0",
", 	c #989898",
"' 	c #909090",
") 	c #888888",
"! 	c #808080",
"~ 	c #00C1FF",
"{ 	c #00C9FF",
"] 	c #00D2FF",
"^ 	c #00DBFF",
"/ 	c #00E4FF",
"( 	c #00E7FF",
"_ 	c #00DFFF",
": 	c #00D6FF",
"< 	c #00CDFF",
"[ 	c #00C5FF",
"} 	c #00BCFF",
"| 	c #00B3FF",
"1 	c #00AAFF",
"2 	c #00A1FF",
"3 	c #787878",
"4 	c #00DAFF",
"5 	c #00E3FF",
"6 	c #00D9F0",
"7 	c #00B1CB",
"8 	c #00ABCB",
"9 	c #00A3CB",
"0 	c #009CCB",
"a 	c #0095CB",
"b 	c #0094D3",
"c 	c #00ABFF",
"d 	c #00A2FF",
"e 	c #0099FF",
"f 	c #707070",
"g 	c #00D1FF",
"h 	c #00616F",
"i 	c #17363C",
"j 	c #395158",
"k 	c #395058",
"l 	c #394F58",
"m 	c #394E58",
"n 	c #1B252A",
"o 	c #7ACEFF",
"p 	c #009AFF",
"q 	c #0091FF",
"r 	c #686868",
"s 	c #00E2FF",
"t 	c #00E0FF",
"u 	c #005B6C",
"v 	c #7CA4AE",
"w 	c #62DBFF",
"x 	c #39CBFF",
"y 	c #39C4FF",
"z 	c #39BEFF",
"A 	c #0D202B",
"B 	c #BAE3FF",
"C 	c #0089FF",
"D 	c #606060",
"E 	c #00555E",
"F 	c #0D393F",
"G 	c #13383F",
"H 	c #0C2329",
"I 	c #232A2C",
"J 	c #14242A",
"K 	c #1B4050",
"L 	c #3ABEFF",
"M 	c #00A3FF",
"N 	c #051B2B",
"O 	c #BAE1FF",
"P 	c #0080FF",
"Q 	c #585858",
"R 	c #002D34",
"S 	c #E1FAFF",
"T 	c #76E5FF",
"U 	c #76E0FF",
"V 	c #76DCFF",
"W 	c #4D8DA8",
"X 	c #2C383E",
"Y 	c #A5DEFF",
"Z 	c #009BFF",
"` 	c #051A2B",
" .	c #BADFFF",
"..	c #0081FF",
"+.	c #0078FF",
"@.	c #505050",
"#.	c #002C34",
"$.	c #D0F6FF",
"%.	c #00C7FF",
"&.	c #00BFFF",
"*.	c #00B6FF",
"=.	c #0071A8",
"-.	c #091014",
";.	c #384853",
">.	c #093353",
",.	c #091A2A",
"'.	c #BADCFF",
").	c #0079FF",
"!.	c #0070FF",
"~.	c #484848",
"{.	c #00D9FF",
"].	c #002A34",
"^.	c #D0F4FF",
"/.	c #00AEFF",
"(.	c #006CA8",
"_.	c #000000",
":.	c #2A2A2A",
"<.	c #BADAFF",
"[.	c #0068FF",
"}.	c #40403F",
"|.	c #002631",
"1.	c #758990",
"2.	c #006790",
"3.	c #006290",
"4.	c #005D90",
"5.	c #003A5F",
"6.	c #111111",
"7.	c #595959",
"8.	c #BAD8FF",
"9.	c #005FFF",
"0.	c #373737",
"a.	c #00212D",
"b.	c #7A7A7A",
"c.	c #A9CFFF",
"d.	c #3C8CFF",
"e.	c #0060FF",
"f.	c #0057FF",
"g.	c #2F2F2F",
"h.	c #002534",
"i.	c #141414",
"j.	c #1A1A1A",
"k.	c #9A9A9A",
"l.	c #69A6FF",
"m.	c #0058FF",
"n.	c #004FFF",
"o.	c #272727",
"p.	c #00B8FF",
"q.	c #00A1EA",
"r.	c #85B9D5",
"s.	c #9DBFD5",
"t.	c #9DBDD5",
"u.	c #9DBBD5",
"v.	c #9DB9D5",
"w.	c #B6D5F7",
"x.	c #7DB7FF",
"y.	c #78B0FF",
"z.	c #1E73FF",
"A.	c #0046FF",
"B.	c #1F1F1F",
"C.	c #00B0FF",
"D.	c #00A7FF",
"E.	c #009FFF",
"F.	c #0096FF",
"G.	c #008DFF",
"H.	c #0084FF",
"I.	c #007CFF",
"J.	c #0073FF",
"K.	c #006AFF",
"L.	c #0061FF",
"M.	c #0050FF",
"N.	c #0047FF",
"O.	c #003EFF",
"P.	c #171717",
"Q.	c #00A8FF",
"R.	c #008EFF",
"S.	c #0085FF",
"T.	c #006BFF",
"U.	c #0062FF",
"V.	c #0059FF",
"W.	c #003FFF",
"X.	c #0036FF",
"Y.	c #0F0F0F",
"Z.	c #777777",
"`.	c #6F6F6F",
" +	c #676767",
".+	c #5F5F5F",
"++	c #575757",
"@+	c #4F4F4F",
"#+	c #474747",
"$+	c #3F3F3F",
"%+	c #070707",
". + @ # $ % & * = - ; > , ' ) ! ",
"+ ~ { ] ^ / ( _ : < [ } | 1 2 3 ",
"@ { ] 4 5 6 7 8 9 0 a b c d e f ",
"# g 4 5 ( h i j k l m n o p q r ",
"$ 4 s ( t u v w x y z A B q C D ",
"% s E F G H I J K L M N O C P Q ",
"& ( R S T U V W X Y Z `  ...+.@.",
"* s #.$.%.&.*.=.-.;.>.,.'.).!.~.",
"= {.].^.&.*./.(._._._.:.<.!.[.}.",
"- g |.1.2.3.4.5._._.6.7.8.[.9.0.",
"; { a._._._._._._._.b.c.d.e.f.g.",
"> ~ h._._._._._.i.j.k.l.e.m.n.o.",
", p.q.r.s.t.u.v.w.x.y.z.m.n.A.B.",
"' C.D.E.F.G.H.I.J.K.L.m.M.N.O.P.",
") Q.E.F.R.S.I.J.T.U.V.M.N.W.X.Y.",
"! Z.`. +.+++@+#+$+0.g.o.B.P.Y.%+"};
