/* XPM */
static char * download_directory_mini_xpm[] = {
"22 22 302 2",
"  	c None",
". 	c #0D0D0D",
"+ 	c #303030",
"@ 	c #333333",
"# 	c #313131",
"$ 	c #2E2E2E",
"% 	c #2C2C2C",
"& 	c #2A2A2A",
"* 	c #272727",
"= 	c #252525",
"- 	c #232323",
"; 	c #202020",
"> 	c #1E1E1E",
", 	c #1C1C1C",
"' 	c #191919",
") 	c #171717",
"! 	c #151515",
"~ 	c #121212",
"{ 	c #101010",
"] 	c #0E0E0E",
"^ 	c #0B0B0B",
"/ 	c #070707",
"( 	c #010101",
"_ 	c #B7B7B7",
": 	c #C1C1C1",
"< 	c #B9B9B9",
"[ 	c #AEAEAE",
"} 	c #A8A8A8",
"| 	c #A9A9A9",
"1 	c #949494",
"2 	c #8B8B8B",
"3 	c #828282",
"4 	c #7A7A7A",
"5 	c #717171",
"6 	c #7C7C7C",
"7 	c #7E7E7E",
"8 	c #4E4E4E",
"9 	c #434343",
"0 	c #3A3A3A",
"a 	c #282828",
"b 	c #040404",
"c 	c #BEBEBE",
"d 	c #CECECE",
"e 	c #D9D9D9",
"f 	c #E5E5E5",
"g 	c #EFEFEF",
"h 	c #E6E6E6",
"i 	c #ACACAC",
"j 	c #A5A5A5",
"k 	c #B1B1B1",
"l 	c #C4C4C4",
"m 	c #E0E0E0",
"n 	c #E3E3E3",
"o 	c #DCDCDC",
"p 	c #4F4F4F",
"q 	c #3F3F3F",
"r 	c #353535",
"s 	c #2B2B2B",
"t 	c #212121",
"u 	c #131313",
"v 	c #030303",
"w 	c #ABABAB",
"x 	c #E9E9E9",
"y 	c #F4F4F4",
"z 	c #EAEAEA",
"A 	c #E7E7E7",
"B 	c #EEEEEE",
"C 	c #E1E1E1",
"D 	c #DDDDDD",
"E 	c #AAAAAA",
"F 	c #424242",
"G 	c #1F1F1F",
"H 	c #1D1D1D",
"I 	c #F3F3F3",
"J 	c #F0F0F0",
"K 	c #D0D0D0",
"L 	c #C3C3C3",
"M 	c #A9A9A8",
"N 	c #818180",
"O 	c #4B4B4A",
"P 	c #232322",
"Q 	c #111111",
"R 	c #0C0C0C",
"S 	c #000000",
"T 	c #B6B6B6",
"U 	c #DBDBDB",
"V 	c #8D8D8D",
"W 	c #6E6E6E",
"X 	c #4A4A4A",
"Y 	c #292929",
"Z 	c #0F0F0E",
"` 	c #A1A1A1",
" .	c #242424",
"..	c #707070",
"+.	c #515351",
"@.	c #303930",
"#.	c #697C69",
"$.	c #5C7C5C",
"%.	c #284328",
"&.	c #1F2B1F",
"*.	c #1B1F1B",
"=.	c #0D0E0D",
"-.	c #020202",
";.	c #262626",
">.	c #9C9C9C",
",.	c #F2F2F2",
"'.	c #545454",
").	c #1A1A1A",
"!.	c #EDEDED",
"~.	c #DBE7DB",
"{.	c #71A271",
"].	c #32A232",
"^.	c #40CF40",
"/.	c #3CD53C",
"(.	c #1BB11B",
"_.	c #028302",
":.	c #025302",
"<.	c #011F01",
"[.	c #000100",
"}.	c #8F8F8F",
"|.	c #EDECEC",
"1.	c #494949",
"2.	c #E1EEE1",
"3.	c #63B763",
"4.	c #22B420",
"5.	c #28D422",
"6.	c #39E635",
"7.	c #2BD92B",
"8.	c #0AB70A",
"9.	c #00AE00",
"0.	c #00A700",
"a.	c #007500",
"b.	c #002A00",
"c.	c #000300",
"d.	c #808080",
"e.	c #F1F1F1",
"f.	c #DBDADB",
"g.	c #4C4C4D",
"h.	c #414141",
"i.	c #474747",
"j.	c #737F73",
"k.	c #61AD61",
"l.	c #3AC935",
"m.	c #3ADC1D",
"n.	c #39D414",
"o.	c #31BF28",
"p.	c #19A519",
"q.	c #039003",
"r.	c #009900",
"s.	c #00A900",
"t.	c #00A200",
"u.	c #007100",
"v.	c #002800",
"w.	c #727272",
"x.	c #D2D1D2",
"y.	c #5C5C5C",
"z.	c #565656",
"A.	c #585A58",
"B.	c #427042",
"C.	c #339D33",
"D.	c #37D037",
"E.	c #3BD92E",
"F.	c #3CD42F",
"G.	c #3ABB3A",
"H.	c #31AF31",
"I.	c #159315",
"J.	c #018F01",
"K.	c #009E00",
"L.	c #008400",
"M.	c #005800",
"N.	c #000800",
"O.	c #636363",
"P.	c #C0C0C0",
"Q.	c #656565",
"R.	c #464F46",
"S.	c #308730",
"T.	c #38AE38",
"U.	c #3ED03E",
"V.	c #40DA40",
"W.	c #40C540",
"X.	c #3F7C3F",
"Y.	c #3B703B",
"Z.	c #306530",
"`.	c #0B6D0B",
" +	c #009D00",
".+	c #009700",
"++	c #006D00",
"@+	c #002D00",
"#+	c #B2B2B2",
"$+	c #263826",
"%+	c #35A035",
"&+	c #3DBA3D",
"*+	c #40CE40",
"=+	c #40D840",
"-+	c #40C640",
";+	c #408340",
">+	c #3E793E",
",+	c #377337",
"'+	c #1C821C",
")+	c #009C00",
"!+	c #009400",
"~+	c #008500",
"{+	c #007600",
"]+	c #004300",
"^+	c #C7C7C7",
"/+	c #979796",
"(+	c #0A0A0A",
"_+	c #648564",
":+	c #3BAF3B",
"<+	c #3FC43F",
"[+	c #40D340",
"}+	c #40DC40",
"|+	c #3DBB3D",
"1+	c #385738",
"2+	c #2F432F",
"3+	c #213521",
"4+	c #0D5E0D",
"5+	c #00A000",
"6+	c #009800",
"7+	c #008C00",
"8+	c #007E00",
"9+	c #004D00",
"0+	c #000600",
"a+	c #4C4C4C",
"b+	c #B8B8B8",
"c+	c #8C8C8C",
"d+	c #080808",
"e+	c #95B295",
"f+	c #3EB83E",
"g+	c #3DCB3D",
"h+	c #33D133",
"i+	c #26CD26",
"j+	c #179918",
"k+	c #0D1B0E",
"l+	c #004A00",
"m+	c #00A800",
"n+	c #00A100",
"o+	c #009500",
"p+	c #004F00",
"q+	c #000500",
"r+	c #4D4D4D",
"s+	c #879687",
"t+	c #1F951F",
"u+	c #0EA40E",
"v+	c #06AC06",
"w+	c #029F03",
"x+	c #007400",
"y+	c #000D00",
"z+	c #004100",
"A+	c #00A400",
"B+	c #009B00",
"C+	c #008600",
"D+	c #383838",
"E+	c #616161",
"F+	c #525355",
"G+	c #0D0D0E",
"H+	c #131415",
"I+	c #0D140E",
"J+	c #025C02",
"K+	c #009600",
"L+	c #006200",
"M+	c #000C00",
"N+	c #000700",
"O+	c #003100",
"P+	c #009A00",
"Q+	c #007F00",
"R+	c #001F00",
"S+	c #2F2F2F",
"T+	c #0C0C0D",
"U+	c #040504",
"V+	c #002900",
"W+	c #00A600",
"X+	c #002200",
"Y+	c #008800",
"Z+	c #008D00",
"`+	c #005700",
" @	c #161616",
".@	c #003E00",
"+@	c #00AB00",
"@@	c #005500",
"#@	c #002100",
"$@	c #008E00",
"%@	c #006300",
"&@	c #001400",
"*@	c #003F00",
"=@	c #008F00",
"-@	c #00B300",
";@	c #00AD00",
">@	c #005F00",
",@	c #008900",
"'@	c #050505",
")@	c #0F0F0F",
"!@	c #090909",
"~@	c #004800",
"{@	c #006E00",
"]@	c #007D00",
"^@	c #007800",
"/@	c #005A00",
"(@	c #002600",
"_@	c #000400",
":@	c #000A00",
"<@	c #000200",
". + @ # $ % & * = - ; > , ' ) ! ~ { ] ^ / ( ",
"+ _ : < [ } | 1 2 3 4 5 6 1 7 8 9 0 # a ' b ",
"@ c d e f g h i j k l m n o } p q r s t u v ",
"+ w x y g g z o A B x C D o E F % G H ) ^ ( ",
"$ E I J z h h x n K L M N O P ] Q ) u R v S ",
"s T I z x U T V W X Y Z . { ~ ! H > ^ v S S ",
"Y | I g ` r  .= ..` +.@.#.$.%.&.*.=.-.S S S ",
";.>.,.z '.).G 5 !.~.{.].^./.(._.:.<.[.S S S ",
" .}.I |.1.% r >.2.3.4.5.6.7.8.9.0.a.b.c.S S ",
"t d.e.f.g.h.i.j.k.l.m.n.o.p.q.r.s.t.u.v.S S ",
"G w.J x.y.z.A.B.C.D.E.F.G.H.I.J.t.K.L.M.N.S ",
", O.f P.Q.z.R.S.T.U.V.W.X.Y.Z.`. +.+L.++@+S ",
").y.e #+a { $+%+&+*+=+-+;+>+,+'+)+!+~+{+]+c.",
") '.^+/+(+R _+:+<+[+}+|+1+2+3+4+5+6+7+8+9+0+",
"! a+b+c+d+@ e+f+g+h+i+j+k+b ( l+m+n+o+L.p+q+",
"~ F >.4 / r+s+t+u+v+w+x+y+S S z+.+A+B+C+z+[.",
"{ D+E+F+G+H+I+J+K+A+L+M+[.S S N+O+o+P+Q+R+S ",
". S+% - ! T+U+V+L.W+s.l+0+S S X+Y+n+Z+`+c.S ",
"^ = G  @R v S c..@.+9.+@@@q+#@$@s.!+%@&@S S ",
"d+, ! R v S S S q+*@=@-@;@>@,@9.B+>@&@[.S S ",
"'@)@!@-.S S S S S S y+~@{@]@^@/@(@c.S S S S ",
"( -.( S S S S S S S S S _@:@N.<@S S S S S S "};
