/* XPM */
static char * ed2k_xpm[] = {
"16 16 214 2",
"  	c None",
". 	c #F8F8F8",
"+ 	c #F0F0F0",
"@ 	c #E8E8E8",
"# 	c #E0E0E0",
"$ 	c #D8D8D8",
"% 	c #D0D0D0",
"& 	c #C8C8C8",
"* 	c #C0C0C0",
"= 	c #B8B8B8",
"- 	c #B0B0B0",
"; 	c #A8A8A8",
"> 	c #A0A0A0",
", 	c #989898",
"' 	c #909090",
") 	c #888888",
"! 	c #808080",
"~ 	c #00C1FF",
"{ 	c #00CAFF",
"] 	c #00D3FF",
"^ 	c #00DBFF",
"/ 	c #00E4FF",
"( 	c #00E6FF",
"_ 	c #00DEFF",
": 	c #00D5FF",
"< 	c #00CDFF",
"[ 	c #00C4FF",
"} 	c #00BBFF",
"| 	c #00B2FF",
"1 	c #00AAFF",
"2 	c #00A1FF",
"3 	c #787878",
"4 	c #00C9FF",
"5 	c #00D2FF",
"6 	c #00D1F3",
"7 	c #00BCD4",
"8 	c #00A8B9",
"9 	c #008496",
"0 	c #00687A",
"a 	c #006B84",
"b 	c #007DA2",
"c 	c #008EC1",
"d 	c #009CDD",
"e 	c #00A7FA",
"f 	c #0099FF",
"g 	c #707070",
"h 	c #0099BC",
"i 	c #011418",
"j 	c #121314",
"k 	c #323232",
"l 	c #202020",
"m 	c #121212",
"n 	c #868686",
"o 	c #505050",
"p 	c #030303",
"q 	c #424242",
"r 	c #282828",
"s 	c #0A0E11",
"t 	c #1C4662",
"u 	c #34A7FF",
"v 	c #686868",
"w 	c #0096B0",
"x 	c #112022",
"y 	c #4A4A4A",
"z 	c #535353",
"A 	c #151616",
"B 	c #A8BEC3",
"C 	c #BCEFFF",
"D 	c #20C4FE",
"E 	c #01354A",
"F 	c #4A4B4B",
"G 	c #565D61",
"H 	c #484848",
"I 	c #525A61",
"J 	c #A4D3FF",
"K 	c #606060",
"L 	c #00DDF9",
"M 	c #2DC8D8",
"N 	c #92BCC3",
"O 	c #43494B",
"P 	c #5A5E5F",
"Q 	c #EFFBFF",
"R 	c #16C2FF",
"S 	c #00B4FF",
"T 	c #0094DB",
"U 	c #000407",
"V 	c #BCBFC2",
"W 	c #C8D7E5",
"X 	c #8CC4FF",
"Y 	c #585858",
"Z 	c #00E7FF",
"` 	c #00E1FF",
" .	c #00CEF4",
"..	c #000809",
"+.	c #262D2E",
"@.	c #39555F",
"#.	c #005070",
"$.	c #004768",
"%.	c #00334D",
"&.	c #00060A",
"*.	c #8A8A8A",
"=.	c #4BABFF",
"-.	c #0080FF",
";.	c #0078FF",
">.	c #00D8FF",
",.	c #00D0FF",
"'.	c #004F65",
").	c #757778",
"!.	c #9FA9AE",
"~.	c #929A9D",
"{.	c #A2A2A3",
"].	c #BBBDBE",
"^.	c #17191A",
"/.	c #E8E8E9",
"(.	c #5EAEFF",
"_.	c #006FFF",
":.	c #00D9FF",
"<.	c #00C7FF",
"[.	c #005C7A",
"}.	c #898B8B",
"|.	c #67CDFF",
"1.	c #03A5FF",
"2.	c #079EFF",
"3.	c #0695FE",
"4.	c #000911",
"5.	c #E3ECF5",
"6.	c #1C87FF",
"7.	c #0070FF",
"8.	c #0067FF",
"9.	c #40403F",
"0.	c #00D1FF",
"a.	c #00C8FF",
"b.	c #00BFFF",
"c.	c #0073A0",
"d.	c #565656",
"e.	c #8AD5FF",
"f.	c #009CFF",
"g.	c #0093FF",
"h.	c #0077DA",
"i.	c #0A141E",
"j.	c #F7FBFF",
"k.	c #0774FF",
"l.	c #0068FF",
"m.	c #005FFF",
"n.	c #373737",
"o.	c #00C0FF",
"p.	c #00B7FF",
"q.	c #009FE9",
"r.	c #07090A",
"s.	c #617D90",
"t.	c #0C99FF",
"u.	c #007BE1",
"v.	c #001A31",
"w.	c #505D6D",
"x.	c #D0E4FF",
"y.	c #0056FF",
"z.	c #2F2F2F",
"A.	c #00AFFF",
"B.	c #00A6FF",
"C.	c #001D2F",
"D.	c #242424",
"E.	c #85A9C8",
"F.	c #003F79",
"G.	c #040505",
"H.	c #B3B3B3",
"I.	c #7DB1FF",
"J.	c #0060FF",
"K.	c #0057FF",
"L.	c #004EFF",
"M.	c #272727",
"N.	c #00B8FF",
"O.	c #009EFF",
"P.	c #0094FD",
"Q.	c #0B4F88",
"R.	c #2F3338",
"S.	c #4D4D4D",
"T.	c #CACFD5",
"U.	c #C7DDFF",
"V.	c #2A79FF",
"W.	c #004FFF",
"X.	c #0046FF",
"Y.	c #1F1F1F",
"Z.	c #00B0FF",
"`.	c #00A7FF",
" +	c #0095FF",
".+	c #008CFF",
"++	c #0084FF",
"@+	c #278FFF",
"#+	c #6FAEFF",
"$+	c #599CFF",
"%+	c #0463FF",
"&+	c #0058FF",
"*+	c #003EFF",
"=+	c #171717",
"-+	c #009FFF",
";+	c #0096FF",
">+	c #008DFF",
",+	c #007BFF",
"'+	c #0073FF",
")+	c #006AFF",
"!+	c #0061FF",
"~+	c #0050FF",
"{+	c #0047FF",
"]+	c #0035FF",
"^+	c #0F0F0F",
"/+	c #777777",
"(+	c #6F6F6F",
"_+	c #676767",
":+	c #5F5F5F",
"<+	c #575757",
"[+	c #4F4F4F",
"}+	c #474747",
"|+	c #3F3F3F",
"1+	c #070707",
". + @ # $ % & * = - ; > , ' ) ! ",
"+ ~ { ] ^ / ( _ : < [ } | 1 2 3 ",
"@ 4 5 6 7 8 9 0 a b c d e 2 f g ",
"# h i j k l m n o p q r s t u v ",
"$ w x y z A B C D E F G H I J K ",
"% L M N O P Q R S T U ' V W X Y ",
"& Z `  ...+.@.#.$.%.&.*.=.-.;.o ",
"* ` >.,.'.).!.~.{.].^./.(.;._.H ",
"= :.,.<.[.}.|.1.2.3.4.5.6.7.8.9.",
"- 0.a.b.c.d.e.f.g.h.i.j.k.l.m.n.",
"; a.o.p.q.r.s.t.u.v.w.x.l.m.y.z.",
"> o.p.A.B.C.D.E.F.G.H.I.J.K.L.M.",
", N.A.B.O.P.Q.R.S.T.U.V.K.W.X.Y.",
"' Z.`.O. +.+++@+#+$+%+&+W.X.*+=+",
") `.-+;+>+++,+'+)+!+&+~+{+*+]+^+",
"! /+(+_+:+<+[+}+|+n.z.M.Y.=+^+1+"};
