/* XPM */
static char * extend_search_xpm[] = {
"32 32 586 2",
"  	c None",
". 	c #000000",
"+ 	c #D9D9D9",
"@ 	c #D1D1D1",
"# 	c #C9C9C9",
"$ 	c #C1C1C1",
"% 	c #B9B9B9",
"& 	c #B1B1B1",
"* 	c #A9A9A9",
"= 	c #A1A1A1",
"- 	c #999999",
"; 	c #919191",
"> 	c #898989",
", 	c #818181",
"' 	c #797979",
") 	c #717171",
"! 	c #696969",
"~ 	c #616161",
"{ 	c #595959",
"] 	c #515151",
"^ 	c #4A4A4A",
"/ 	c #424242",
"( 	c #3A3A3A",
"_ 	c #313131",
": 	c #2A2A2A",
"< 	c #212121",
"[ 	c #1A1A1A",
"} 	c #111111",
"| 	c #0A0A0A",
"1 	c #020202",
"2 	c #C2C2C2",
"3 	c #929292",
"4 	c #8A8A8A",
"5 	c #828282",
"6 	c #7A7A7A",
"7 	c #727272",
"8 	c #6A6A6A",
"9 	c #626262",
"0 	c #5A5A5A",
"a 	c #525252",
"b 	c #494949",
"c 	c #323232",
"d 	c #222222",
"e 	c #121212",
"f 	c #CACACA",
"g 	c #BABABA",
"h 	c #B2B2B2",
"i 	c #AAAAAA",
"j 	c #A2A2A2",
"k 	c #9A9A9A",
"l 	c #6C6D70",
"m 	c #60636C",
"n 	c #565A68",
"o 	c #4E5463",
"p 	c #484C5A",
"q 	c #444750",
"r 	c #3E3F42",
"s 	c #393939",
"t 	c #2B2B2B",
"u 	c #1B1B1B",
"v 	c #030303",
"w 	c #ABABAB",
"x 	c #9B9B9B",
"y 	c #8B8B8B",
"z 	c #808081",
"A 	c #6B6F7B",
"B 	c #5A637F",
"C 	c #566285",
"D 	c #526390",
"E 	c #4F639E",
"F 	c #4D62A1",
"G 	c #4B5F9A",
"H 	c #475684",
"I 	c #3B476A",
"J 	c #2E3652",
"K 	c #262A37",
"L 	c #222223",
"M 	c #141414",
"N 	c #0B0B0B",
"O 	c #040404",
"P 	c #BBBBBB",
"Q 	c #B3B3B3",
"R 	c #A3A3A3",
"S 	c #939393",
"T 	c #787A82",
"U 	c #5A6587",
"V 	c #54659A",
"W 	c #6C81BD",
"X 	c #95A5D3",
"Y 	c #B3BFDF",
"Z 	c #C4CDE7",
"` 	c #C9D1E9",
" .	c #B3BDDD",
"..	c #92A2D0",
"+.	c #6579B5",
"@.	c #37487D",
"#.	c #1C2749",
"$.	c #12141C",
"%.	c #A4A4A4",
"&.	c #949494",
"*.	c #717684",
"=.	c #4E5F90",
"-.	c #5A71B5",
";.	c #9DABD8",
">.	c #D0D7EC",
",.	c #E4E8F3",
"'.	c #E9ECF5",
").	c #ECEFF6",
"!.	c #ECEFF7",
"~.	c #EBEEF6",
"{.	c #E4E7F3",
"].	c #CFD6EC",
"^.	c #9AA8D6",
"/.	c #4B62A6",
"(.	c #172859",
"_.	c #070C1A",
":.	c #ACACAC",
"<.	c #9C9C9C",
"[.	c #8C8C8C",
"}.	c #737785",
"|.	c #475993",
"1.	c #536DB8",
"2.	c #A5B4DE",
"3.	c #D4DBF0",
"4.	c #D8E0F4",
"5.	c #D6DEF4",
"6.	c #D4DDF4",
"7.	c #D5DDF5",
"8.	c #D5DDF6",
"9.	c #D3DBF4",
"0.	c #D5DCF4",
"a.	c #D7DEF3",
"b.	c #D3DAEE",
"c.	c #A2B2DC",
"d.	c #4862AC",
"e.	c #11245D",
"f.	c #030715",
"g.	c #9D9D9D",
"h.	c #787B82",
"i.	c #495A8E",
"j.	c #3957B1",
"k.	c #8598D4",
"l.	c #BCC8EA",
"m.	c #BFCBEE",
"n.	c #BECBF0",
"o.	c #C1CDF2",
"p.	c #CAD4F4",
"q.	c #D0D9F6",
"r.	c #D3DAF5",
"s.	c #D3DBF5",
"t.	c #D0D9F5",
"u.	c #CAD3F3",
"v.	c #C1CBF0",
"w.	c #BDC8EE",
"x.	c #BBC7EA",
"y.	c #8296D2",
"z.	c #2D4BA5",
"A.	c #0C1E52",
"B.	c #00030A",
"C.	c #959595",
"D.	c #8D8D8D",
"E.	c #818183",
"F.	c #576489",
"G.	c #2A49A7",
"H.	c #4867C1",
"I.	c #94A6E0",
"J.	c #A4B6E9",
"K.	c #A5B7EB",
"L.	c #B7C4EF",
"M.	c #CCD4F3",
"N.	c #CDD3F1",
"O.	c #C2CAEE",
"P.	c #BBC4ED",
"Q.	c #B9C3EC",
"R.	c #BCC6ED",
"S.	c #C4CCEF",
"T.	c #C4CDEF",
"U.	c #B3C0EC",
"V.	c #A4B5E7",
"W.	c #91A4DE",
"X.	c #4664BF",
"Y.	c #1A3A97",
"Z.	c #0A173C",
"`.	c #000001",
" +	c #969696",
".+	c #858585",
"++	c #6C717F",
"@+	c #3A5296",
"#+	c #2347B5",
"$+	c #4C6BCB",
"%+	c #829AE0",
"&+	c #8DA3E6",
"*+	c #AEBCEC",
"=+	c #CCD3F1",
"-+	c #B8C0EA",
";+	c #9AA8E6",
">+	c #8EA1E9",
",+	c #8CA1EC",
"'+	c #8CA1EA",
")+	c #91A3E7",
"!+	c #A4B0E6",
"~+	c #B3BDE8",
"{+	c #A0B1E6",
"]+	c #8198DF",
"^+	c #4A6AC8",
"/+	c #2146B3",
"(+	c #142C70",
"_+	c #020715",
":+	c #8E8E8E",
"<+	c #868686",
"[+	c #7C7C7C",
"}+	c #546084",
"|+	c #2849AB",
"1+	c #244ABB",
"2+	c #3F64CF",
"3+	c #6986DD",
"4+	c #9BADE7",
"5+	c #C7CEEE",
"6+	c #9FACE4",
"7+	c #758CE3",
"8+	c #6F8DEC",
"9+	c #7593F1",
"0+	c #7D9AF3",
"a+	c #7B98F3",
"b+	c #7391F2",
"c+	c #7591ED",
"d+	c #7089E3",
"e+	c #8799DF",
"f+	c #A6B2E5",
"g+	c #788FDD",
"h+	c #3D61CD",
"i+	c #2249BB",
"j+	c #1E3FA0",
"k+	c #0A1539",
"l+	c #7E7E7E",
"m+	c #6E6F74",
"n+	c #435486",
"o+	c #264BB5",
"p+	c #264DC1",
"q+	c #2F56D0",
"r+	c #6783DB",
"s+	c #C1CAED",
"t+	c #9EAAE3",
"u+	c #5D79E0",
"v+	c #587BEC",
"w+	c #7392F1",
"x+	c #A7B9F4",
"y+	c #B8C5F1",
"z+	c #A3B2ED",
"A+	c #97AAEE",
"B+	c #ACBCF3",
"C+	c #7E96E9",
"D+	c #5A77DD",
"E+	c #90A0E0",
"F+	c #798FDC",
"G+	c #2E55CD",
"H+	c #254DC0",
"I+	c #2247B1",
"J+	c #0F1F52",
"K+	c #000106",
"L+	c #7F7F7F",
"M+	c #767676",
"N+	c #616672",
"O+	c #364D8F",
"P+	c #264BB9",
"Q+	c #2751C6",
"R+	c #2B52CE",
"S+	c #889CE0",
"T+	c #BEC6EA",
"U+	c #5D77DB",
"V+	c #426CE9",
"W+	c #6487EE",
"X+	c #B8C5F4",
"Y+	c #C1C9EE",
"Z+	c #7387DA",
"`+	c #677CD6",
" @	c #BEC7ED",
".@	c #DCE1F5",
"+@	c #718CE3",
"@@	c #4369E1",
"#@	c #7188DC",
"$@	c #7D91DB",
"%@	c #2A52CC",
"&@	c #2750C6",
"*@	c #2449B6",
"=@	c #152B6D",
"-@	c #020613",
";@	c #777777",
">@	c #6F6F6F",
",@	c #575D70",
"'@	c #2D489A",
")@	c #264EBC",
"!@	c #2751CA",
"~@	c #375BCE",
"{@	c #AAB7E7",
"]@	c #9EADE3",
"^@	c #3B64DE",
"/@	c #416FEB",
"(@	c #9AB0EF",
"_@	c #D6DBF3",
":@	c #7D91DF",
"<@	c #3059DA",
"[@	c #476BDC",
"}@	c #C2CBEE",
"|@	c #4A6FDE",
"1@	c #3766E6",
"2@	c #6581DD",
"3@	c #7E92DB",
"4@	c #2C55CE",
"5@	c #2955CB",
"6@	c #254DBB",
"7@	c #193584",
"8@	c #050C1E",
"9@	c #676767",
"0@	c #50576D",
"a@	c #2A479F",
"b@	c #2851C1",
"c@	c #2854CC",
"d@	c #4367D0",
"e@	c #B6C2EA",
"f@	c #879DE1",
"g@	c #3468E1",
"h@	c #527EE8",
"i@	c #CCD6F4",
"j@	c #BEC8ED",
"k@	c #4E76DE",
"l@	c #326BEA",
"m@	c #6088E8",
"n@	c #C7D2F2",
"o@	c #98ABE5",
"p@	c #3A6CE3",
"q@	c #386EE9",
"r@	c #708CE0",
"s@	c #738BD9",
"t@	c #2B58D1",
"u@	c #2B5ACF",
"v@	c #264FBE",
"w@	c #1B398C",
"x@	c #050D20",
"y@	c #5F5F5F",
"z@	c #4A5166",
"A@	c #2B499B",
"B@	c #2A54C2",
"C@	c #2A59CE",
"D@	c #456AD0",
"E@	c #B8C4EA",
"F@	c #89A4E4",
"G@	c #3A74E2",
"H@	c #638EE4",
"I@	c #DFE5F6",
"J@	c #A8BBE9",
"K@	c #447DE5",
"L@	c #3F82EE",
"M@	c #88AAEB",
"N@	c #7999E1",
"O@	c #3C7AE9",
"P@	c #497FE8",
"Q@	c #87A0E2",
"R@	c #587AD6",
"S@	c #2D5FD6",
"T@	c #2E5FD1",
"U@	c #2852C0",
"V@	c #1B3888",
"W@	c #484D5A",
"X@	c #2E488C",
"Y@	c #2C58C4",
"Z@	c #2E61D1",
"`@	c #3D69D0",
" #	c #ABBBE6",
".#	c #A1B9E8",
"+#	c #4684E2",
"@#	c #5E91E0",
"##	c #D0DAF1",
"$#	c #A9BFEA",
"%#	c #4989E3",
"&#	c #5B98E9",
"*#	c #B5CAEE",
"=#	c #DBE1F2",
"-#	c #6894DE",
";#	c #4B8BE6",
">#	c #7BA3E7",
",#	c #7F9CDE",
"'#	c #3D6FD8",
")#	c #346DDD",
"!#	c #2F61D1",
"~#	c #2954C1",
"{#	c #183174",
"]#	c #030814",
"^#	c #43454B",
"/#	c #314579",
"(#	c #2D5AC4",
"_#	c #3267D3",
":#	c #356AD4",
"<#	c #819DDB",
"[#	c #B9CBEB",
"}#	c #639CE5",
"|#	c #4B8CDE",
"1#	c #96B3E2",
"2#	c #BECEEC",
"3#	c #92B6E7",
"4#	c #87ACE2",
"5#	c #94ABDC",
"6#	c #C1CDE9",
"7#	c #9FBAE6",
"8#	c #8AAFE6",
"9#	c #88A9E2",
"0#	c #5284DB",
"a#	c #3B7AE2",
"b#	c #3975E1",
"c#	c #2F62CF",
"d#	c #2853BD",
"e#	c #122559",
"f#	c #000208",
"g#	c #404041",
"h#	c #313F64",
"i#	c #2C56B8",
"j#	c #3369D4",
"k#	c #3672DA",
"l#	c #4D7CD5",
"m#	c #A2B6E2",
"n#	c #9BBEEA",
"o#	c #599CE3",
"p#	c #508DD9",
"q#	c #749DDA",
"r#	c #7DA4DC",
"s#	c #6497D9",
"t#	c #4C86D3",
"u#	c #6C98D8",
"v#	c #7B9FDA",
"w#	c #6B95D8",
"x#	c #5389DA",
"y#	c #4085E3",
"z#	c #4185E9",
"A#	c #3873DE",
"B#	c #2E61CD",
"C#	c #254CAD",
"D#	c #0C1A3E",
"E#	c #434343",
"F#	c #2E3342",
"G#	c #2A4990",
"H#	c #3266D1",
"I#	c #3974DD",
"J#	c #3975DB",
"K#	c #5B85D5",
"L#	c #9FB5E2",
"M#	c #99BEEB",
"N#	c #66A6E6",
"O#	c #4D96E0",
"P#	c #4C97E1",
"Q#	c #50A2E8",
"R#	c #51A7EC",
"S#	c #4C9AE4",
"T#	c #508FDC",
"U#	c #6898DC",
"V#	c #6F9EE3",
"W#	c #4B8CE7",
"X#	c #3E7EE5",
"Y#	c #346AD5",
"Z#	c #2C5BC6",
"`#	c #1B367D",
" $	c #040918",
".$	c #3B3B3B",
"+$	c #333333",
"@$	c #292A2B",
"#$	c #263860",
"$$	c #2E5CBD",
"%$	c #366FDA",
"&$	c #3C7AE2",
"*$	c #3A78DC",
"=$	c #5180D5",
"-$	c #83A2DC",
";$	c #9BB9E7",
">$	c #8DB9EA",
",$	c #7BB5EC",
"'$	c #76B5EE",
")$	c #79B6EE",
"!$	c #83B6EB",
"~$	c #8EB4E6",
"{$	c #86A5DF",
"]$	c #618CDB",
"^$	c #3D79DE",
"/$	c #3770DB",
"($	c #2F61CD",
"_$	c #264DAC",
":$	c #0F1E46",
"<$	c #000002",
"[$	c #3C3C3C",
"}$	c #2C2C2C",
"|$	c #1B1E26",
"1$	c #213A72",
"2$	c #3063C9",
"3$	c #3975DE",
"4$	c #3F82E7",
"5$	c #3E82E4",
"6$	c #417FDB",
"7$	c #5486D8",
"8$	c #6B95DA",
"9$	c #789FDE",
"0$	c #7BA2DF",
"a$	c #779EDE",
"b$	c #6C95DB",
"c$	c #5886D7",
"d$	c #4277D6",
"e$	c #3771D9",
"f$	c #356FD9",
"g$	c #3064CF",
"h$	c #2953B8",
"i$	c #142A60",
"j$	c #02060C",
"k$	c #343434",
"l$	c #242424",
"m$	c #1C1C1C",
"n$	c #0F1523",
"o$	c #1C3873",
"p$	c #3265CB",
"q$	c #3D7BE6",
"r$	c #4389ED",
"s$	c #468EEE",
"t$	c #448CEA",
"u$	c #4288E5",
"v$	c #4186E2",
"w$	c #4286E1",
"x$	c #4184E1",
"y$	c #4084E2",
"z$	c #3D7FE3",
"A$	c #3977DF",
"B$	c #2955BA",
"C$	c #162E68",
"D$	c #040917",
"E$	c #1D1D1D",
"F$	c #0D0D0D",
"G$	c #040405",
"H$	c #040A18",
"I$	c #183268",
"J$	c #3061C0",
"K$	c #3E7FEB",
"L$	c #448BF4",
"M$	c #4892F5",
"N$	c #4A96F3",
"O$	c #4B97F4",
"P$	c #4A96F2",
"Q$	c #4791F0",
"R$	c #438AEE",
"S$	c #3E7FE9",
"T$	c #3670DB",
"U$	c #2953B0",
"V$	c #142A5F",
"W$	c #040916",
"X$	c #252525",
"Y$	c #151515",
"Z$	c #050505",
"`$	c #02040B",
" %	c #112348",
".%	c #23478D",
"+%	c #366CCB",
"@%	c #4183EE",
"#%	c #448BF3",
"$%	c #468FF4",
"%%	c #4791F5",
"&%	c #458EF3",
"*%	c #4287F1",
"=%	c #3D7DE8",
"-%	c #3164C3",
";%	c #204084",
">%	c #0F1E43",
",%	c #01040B",
"'%	c #1E1E1E",
")%	c #0E0E0E",
"!%	c #040813",
"~%	c #122346",
"{%	c #1D396F",
"]%	c #234786",
"^%	c #285197",
"/%	c #2A569D",
"(%	c #234685",
"_%	c #1B376D",
":%	c #102144",
"<%	c #030812",
"[%	c #161616",
"}%	c #060606",
"|%	c #000104",
"1%	c #030710",
"2%	c #060C1B",
"3%	c #070E1F",
"4%	c #0F0F0F",
"5%	c #070707",
". . . . . . . . . . . . . . . . . . . . . . . . . . . . . . . . ",
". . . . . . . . . . . . . . . . . . . . . . . . . . . . . . . . ",
". . + @ # $ % & * = - ; > , ' ) ! ~ { ] ^ / ( _ : < [ } | 1 . . ",
". . @ # 2 % & * = - 3 4 5 6 7 8 9 0 a b / ( c : d [ e | 1 . . . ",
". . f 2 g h i j k 3 4 5 ' l m n o p q r s c t d u e | v . . . . ",
". . 2 g h w j x 3 y z A B C D E F G H I J K L u M N O . . . . . ",
". . P Q i R x S y T U V W X Y Z ` Z  ...+.@.#.$.| O . . . . . . ",
". . Q w %.x &.y *.=.-.;.>.,.'.).!.~.'.{.].^./.(._.. . . . . . . ",
". . :.%.<.&.[.}.|.1.2.3.4.5.6.7.8.7.9.0.a.b.c.d.e.f.. . . . . . ",
". . %.g.&.[.h.i.j.k.l.m.n.o.p.q.r.s.t.u.v.w.x.y.z.A.B.. . . . . ",
". . g.C.D.E.F.G.H.I.J.K.L.M.N.O.P.Q.R.S.T.U.V.W.X.Y.Z.`.. . . . ",
". .  +D..+++@+#+$+%+&+*+=+-+;+>+,+,+'+)+!+~+{+]+^+/+(+_+. . . . ",
". . :+<+[+}+|+1+2+3+4+5+6+7+8+9+0+a+b+c+d+e+f+g+h+i+j+k+. . . . ",
". . <+l+m+n+o+p+q+r+s+t+u+v+w+x+y+z+A+B+C+D+E+F+G+H+I+J+K+. . . ",
". . L+M+N+O+P+Q+R+S+T+U+V+W+X+Y+Z+`+ @.@+@@@#@$@%@&@*@=@-@. . . ",
". . ;@>@,@'@)@!@~@{@]@^@/@(@_@:@<@[@R.}@|@1@2@3@4@5@6@7@8@. . . ",
". . >@9@0@a@b@c@d@e@f@g@h@i@j@k@l@m@n@o@p@q@r@s@t@u@v@w@x@. . . ",
". . ! y@z@A@B@C@D@E@F@G@H@I@J@K@L@M@4.N@O@P@Q@R@S@T@U@V@8@. . . ",
". . ~ { W@X@Y@Z@`@ #.#+#@###$#%#&#*#=#-#;#>#,#'#)#!#~#{#]#. . . ",
". . { ] ^#/#(#_#:#<#[#}#|#1#2#3#4#5#6#7#8#9#0#a#b#c#d#e#f#. . . ",
". . a ^ g#h#i#j#k#l#m#n#o#p#q#r#s#t#u#v#w#x#y#z#A#B#C#D#. . . . ",
". . ^ E#( F#G#H#I#J#K#L#M#N#O#P#Q#R#S#T#U#V#W#X#Y#Z#`# $. . . . ",
". . / .$+$@$#$$$%$&$*$=$-$;$>$,$'$)$!$~${$]$^$/$($_$:$<$. . . . ",
". . [$+$}$d |$1$2$3$4$5$6$7$8$9$0$a$b$c$d$e$f$g$h$i$j$. . . . . ",
". . k$}$l$m$M n$o$p$q$r$s$t$u$v$w$x$y$5$z$A$j#B$C$D$. . . . . . ",
". . }$l$E$M F$G$H$I$J$K$L$M$N$O$O$P$Q$R$S$T$U$V$W$`.. . . . . . ",
". . X$E$Y$F$Z$. . `$ %.%+%@%#%$%%%&%*%=%-%;%>%,%. . . . . . . . ",
". . '%Y$)%Z$. . . . . !%~%{%]%^%/%^%(%_%:%<%. . . . . . . . . . ",
". . [%)%}%. . . . . . . . |%1%2%3%2%1%|%. . . . . . . . . . . . ",
". . 4%5%. . . . . . . . . . . . . . . . . . . . . . . . . . . . ",
". . . . . . . . . . . . . . . . . . . . . . . . . . . . . . . . ",
". . . . . . . . . . . . . . . . . . . . . . . . . . . . . . . . "};
