/* XPM */
static char * extend_search_mini_xpm[] = {
"22 22 321 2",
"  	c None",
". 	c #000000",
"+ 	c #555555",
"@ 	c #828282",
"# 	c #7B7B7B",
"$ 	c #737373",
"% 	c #6C6C6C",
"& 	c #656565",
"* 	c #5D5D5D",
"= 	c #575757",
"- 	c #4F4F4F",
"; 	c #484848",
"> 	c #404040",
", 	c #3A3A3A",
"' 	c #323232",
") 	c #2B2B2B",
"! 	c #242424",
"~ 	c #1C1C1C",
"{ 	c #151515",
"] 	c #0E0E0E",
"^ 	c #070707",
"/ 	c #010101",
"( 	c #C6C6C6",
"_ 	c #BCBCBC",
": 	c #AFAFAF",
"< 	c #A4A4A4",
"[ 	c #989898",
"} 	c #8D8D8D",
"| 	c #747475",
"1 	c #68696C",
"2 	c #5B5C60",
"3 	c #525255",
"4 	c #464647",
"5 	c #3C3C3C",
"6 	c #303030",
"7 	c #252525",
"8 	c #191919",
"9 	c #0D0D0D",
"0 	c #040404",
"a 	c #B1B1B1",
"b 	c #A5A5A5",
"c 	c #9A9A9A",
"d 	c #8E8E8E",
"e 	c #7E7F82",
"f 	c #6A6F7D",
"g 	c #5D657D",
"h 	c #546084",
"i 	c #4C5A83",
"j 	c #475274",
"k 	c #3B4155",
"l 	c #2F323D",
"m 	c #252527",
"n 	c #1B1B1B",
"o 	c #0F0F0F",
"p 	c #747474",
"q 	c #A6A6A6",
"r 	c #8D8D8F",
"s 	c #747988",
"t 	c #616E97",
"u 	c #7889B8",
"v 	c #A4B0D3",
"w 	c #B9C3DE",
"x 	c #BFC8E2",
"y 	c #B4BEDA",
"z 	c #8F9DC5",
"A 	c #5A6999",
"B 	c #273153",
"C 	c #0F121B",
"D 	c #050506",
"E 	c #6E6E6E",
"F 	c #9B9B9B",
"G 	c #8E8E8F",
"H 	c #6D748A",
"I 	c #596CA4",
"J 	c #98A8D5",
"K 	c #CED6ED",
"L 	c #DEE4F4",
"M 	c #E0E6F5",
"N 	c #E0E6F6",
"O 	c #DFE4F5",
"P 	c #DAE0F3",
"Q 	c #C3CCE8",
"R 	c #7184B9",
"S 	c #1E2E5F",
"T 	c #030712",
"U 	c #676767",
"V 	c #9C9C9C",
"W 	c #909090",
"X 	c #727888",
"Y 	c #455B9E",
"Z 	c #788DCD",
"` 	c #B9C6EA",
" .	c #C2CEF0",
"..	c #C9D3F3",
"+.	c #CED7F4",
"@.	c #D0D8F4",
"#.	c #CFD8F4",
"$.	c #CAD3F2",
"%.	c #C2CCEF",
"&.	c #AAB8E3",
"*.	c #526AB4",
"=.	c #102255",
"-.	c #010308",
";.	c #606060",
">.	c #808185",
",.	c #495C93",
"'.	c #3858B9",
").	c #8198DC",
"!.	c #A0B3E9",
"~.	c #BBC6EF",
"{.	c #BFC7EE",
"].	c #AFBBEC",
"^.	c #A6B5EC",
"/.	c #AFBBEB",
"(.	c #B4BFEB",
"_.	c #A0B1E6",
":.	c #6983D1",
"<.	c #23439F",
"[.	c #081333",
"}.	c #000102",
"|.	c #5A5A5A",
"1.	c #858585",
"2.	c #696F81",
"3.	c #304EA6",
"4.	c #3357C4",
"5.	c #6C88DC",
"6.	c #AAB8EA",
"7.	c #AAB6E8",
"8.	c #8096E7",
"9.	c #7D97EE",
"0.	c #849EF1",
"a.	c #7E99F0",
"b.	c #7F97EA",
"c.	c #889AE2",
"d.	c #99A9E3",
"e.	c #5D7AD5",
"f.	c #274CB8",
"g.	c #13296A",
"h.	c #02050D",
"i.	c #525252",
"j.	c #77787A",
"k.	c #515D80",
"l.	c #294CB3",
"m.	c #2A51C9",
"n.	c #7089DC",
"o.	c #A6B3E7",
"p.	c #607EE3",
"q.	c #6F8EEF",
"r.	c #A6B7F2",
"s.	c #99A9E7",
"t.	c #9CACEA",
"u.	c #ABBBF0",
"v.	c #6380E2",
"w.	c #7C91DE",
"x.	c #5372D4",
"y.	c #274EC2",
"z.	c #1B388D",
"A.	c #050B1F",
"B.	c #4C4C4C",
"C.	c #6C6D72",
"D.	c #425386",
"E.	c #274DB9",
"F.	c #2D55CB",
"G.	c #8C9FE1",
"H.	c #7D94E2",
"I.	c #4770E7",
"J.	c #A2B6F0",
"K.	c #A4B2E9",
"L.	c #496ADA",
"M.	c #94A6E6",
"N.	c #ACBBEC",
"O.	c #476EE2",
"P.	c #6782DD",
"Q.	c #5573D4",
"R.	c #2853C8",
"S.	c #1F409F",
"T.	c #091331",
"U.	c #444444",
"V.	c #5F6167",
"W.	c #3A4E87",
"X.	c #2951BF",
"Y.	c #365FCE",
"Z.	c #9BADE4",
"`.	c #6489E2",
" +	c #5783E6",
".+	c #C8D2F1",
"++	c #6D90E4",
"@+	c #477CEB",
"#+	c #A8BDEF",
"$+	c #7D9BE5",
"%+	c #3C72E7",
"&+	c #6E8CE0",
"*+	c #4B70D5",
"=+	c #2B5ACE",
"-+	c #2246A8",
";+	c #0A1738",
">+	c #3E3E3E",
",+	c #57595D",
"'+	c #394B7B",
")+	c #2C56BF",
"!+	c #3664D0",
"~+	c #98ADE3",
"{+	c #729BE5",
"]+	c #6090E3",
"^+	c #C5D2EF",
"/+	c #6696E6",
"(+	c #6B9EEB",
"_+	c #C6D4F1",
":+	c #6B96E2",
"<+	c #598EE7",
"[+	c #7495DF",
"}+	c #3C6DD9",
"|+	c #2E60D1",
"1+	c #2245A2",
"2+	c #09132F",
"3+	c #373737",
"4+	c #4D4D4F",
"5+	c #394462",
"6+	c #2E59BB",
"7+	c #346AD4",
"8+	c #7294DB",
"9+	c #95B6E7",
"0+	c #5B97E1",
"a+	c #95B4E3",
"b+	c #93B4E5",
"c+	c #7EA5DF",
"d+	c #9EB6E1",
"e+	c #8FAFE3",
"f+	c #7CA3E1",
"g+	c #5287DF",
"h+	c #3B78E2",
"i+	c #3063CF",
"j+	c #1D3D8D",
"k+	c #040A1A",
"l+	c #353A48",
"m+	c #2D50A1",
"n+	c #356DD7",
"o+	c #477BD9",
"p+	c #89A8DF",
"q+	c #83B0E7",
"r+	c #5D9ADF",
"s+	c #609CDE",
"t+	c #569CE1",
"u+	c #5699E0",
"v+	c #6496DB",
"w+	c #6696DD",
"x+	c #4889E5",
"y+	c #3B77E0",
"z+	c #2D5DC5",
"A+	c #152B64",
"B+	c #02040A",
"C+	c #292929",
"D+	c #393939",
"E+	c #2D2E2F",
"F+	c #263A65",
"G+	c #3162C4",
"H+	c #3A77DE",
"I+	c #4A81DC",
"J+	c #729ADD",
"K+	c #84ADE5",
"L+	c #78ADE7",
"M+	c #73AFEB",
"N+	c #76AEE8",
"O+	c #7AA4E1",
"P+	c #6791DC",
"Q+	c #407ADD",
"R+	c #3367D2",
"S+	c #23479D",
"T+	c #081127",
"U+	c #000001",
"V+	c #232323",
"W+	c #2E2E2E",
"X+	c #191C26",
"Y+	c #1F3A74",
"Z+	c #3469CD",
"`+	c #3F82E7",
" @	c #4386E5",
".@	c #508BE0",
"+@	c #5B91E0",
"@@	c #5E93E0",
"#@	c #588EDF",
"$@	c #4982DD",
"%@	c #3B77DC",
"&@	c #336AD4",
"*@	c #264EAA",
"=@	c #0E1E45",
"-@	c #010203",
";@	c #181818",
">@	c #0D0D0E",
",@	c #070C18",
"'@	c #19346A",
")@	c #346AC9",
"!@	c #4185EA",
"~@	c #4790F1",
"{@	c #4893F1",
"]@	c #4893F0",
"^@	c #468FEE",
"/@	c #4084E9",
"(@	c #3772D9",
"_@	c #264DA1",
":@	c #0E1E44",
"<@	c #030303",
"[@	c #020409",
"}@	c #0F1E3D",
"|@	c #234585",
"1@	c #3367BB",
"2@	c #3872C9",
"3@	c #3A76CD",
"4@	c #366EC5",
"5@	c #2C59A9",
"6@	c #1A356B",
"7@	c #081125",
"8@	c #000103",
"9@	c #04070F",
"0@	c #091224",
"a@	c #0D1B35",
"b@	c #0F1E3B",
"c@	c #0C1931",
"d@	c #060D1C",
"e@	c #02050A",
"f@	c #060606",
". . . . . . . . . . . . . . . . . . . . . . ",
". + @ # $ % & * = - ; > , ' ) ! ~ { ] ^ / . ",
". @ ( _ : < [ } @ | 1 2 3 4 5 6 7 8 9 0 . . ",
". # _ a b c d e f g h i j k l m n o 0 . . . ",
". p a q c r s t u v w x y z A B C D . . . . ",
". E q F G H I J K L M N O P Q R S T . . . . ",
". U V W X Y Z `  ...+.@.#.$.%.&.*.=.-.. . . ",
". ;.W >.,.'.).!.~.{.].^.^./.(._.:.<.[.}.. . ",
". |.1.2.3.4.5.6.7.8.9.0.a.b.c.d.e.f.g.h.. . ",
". i.j.k.l.m.n.o.p.q.r.s.t.u.v.w.x.y.z.A.. . ",
". B.C.D.E.F.G.H.I.J.K.L.M.N.O.P.Q.R.S.T.. . ",
". U.V.W.X.Y.Z.`. +.+++@+#+$+%+&+*+=+-+;+. . ",
". >+,+'+)+!+~+{+]+^+/+(+_+:+<+[+}+|+1+2+. . ",
". 3+4+5+6+7+8+9+0+a+b+c+d+e+f+g+h+i+j+k+. . ",
". 6 U.l+m+n+o+p+q+r+s+t+u+v+w+x+y+z+A+B+. . ",
". C+D+E+F+G+H+I+J+K+L+M+N+O+P+Q+R+S+T+U+. . ",
". V+W+V+X+Y+Z+`+ @.@+@@@#@$@%@&@*@=@-@. . . ",
". ~ V+;@>@,@'@)@!@~@{@]@^@/@(@_@:@B+. . . . ",
". { ;@9 <@. [@}@|@1@2@3@4@5@6@7@8@. . . . . ",
". o ] 0 . . . }.9@0@a@b@c@d@e@U+. . . . . . ",
". f@0 . . . . . . . . . . . . . . . . . . . ",
". . . . . . . . . . . . . . . . . . . . . . "};
