/* XPM */
static char * fasttrack_16_xpm[] = {
"16 16 173 2",
"  	c None",
". 	c #F8F8F8",
"+ 	c #F0F0F0",
"@ 	c #E8E8E8",
"# 	c #E0E0E0",
"$ 	c #D8D8D8",
"% 	c #D0D0D0",
"& 	c #C8C8C8",
"* 	c #C0C0C0",
"= 	c #B8B8B8",
"- 	c #B0B0B0",
"; 	c #A8A8A8",
"> 	c #A0A0A0",
", 	c #989898",
"' 	c #909090",
") 	c #888888",
"! 	c #808080",
"~ 	c #00C1FF",
"{ 	c #00C9FF",
"] 	c #00D2FF",
"^ 	c #00DBFF",
"/ 	c #00E4FF",
"( 	c #00E7FF",
"_ 	c #00DFFF",
": 	c #00D6FF",
"< 	c #00CDFF",
"[ 	c #00C5FF",
"} 	c #00BCFF",
"| 	c #00B3FF",
"1 	c #00AAFF",
"2 	c #00A1FF",
"3 	c #787878",
"4 	c #00DAFF",
"5 	c #00E3FF",
"6 	c #00D7FF",
"7 	c #00CEFF",
"8 	c #00ABFF",
"9 	c #00A2FF",
"0 	c #0099FF",
"a 	c #707070",
"b 	c #00D1FF",
"c 	c #00DCF3",
"d 	c #00363E",
"e 	c #0097B4",
"f 	c #00BDFF",
"g 	c #0094D2",
"h 	c #001C2B",
"i 	c #005E94",
"j 	c #009AFF",
"k 	c #0091FF",
"l 	c #686868",
"m 	c #00E2FF",
"n 	c #067585",
"o 	c #000000",
"p 	c #1A4E5B",
"q 	c #00C6FF",
"r 	c #0096D5",
"s 	c #041017",
"t 	c #182C3A",
"u 	c #0089FF",
"v 	c #606060",
"w 	c #00DAF8",
"x 	c #0C171A",
"y 	c #2D4046",
"z 	c #00BEFF",
"A 	c #008CC6",
"B 	c #020B10",
"C 	c #080808",
"D 	c #7E93A4",
"E 	c #0080FF",
"F 	c #585858",
"G 	c #00E1FF",
"H 	c #059BB7",
"I 	c #0A0D0E",
"J 	c #00425E",
"K 	c #010406",
"L 	c #0C0C0C",
"M 	c #B0B3B6",
"N 	c #5BB3FF",
"O 	c #0081FF",
"P 	c #0078FF",
"Q 	c #505050",
"R 	c #00D9FF",
"S 	c #1D5B69",
"T 	c #040405",
"U 	c #06090B",
"V 	c #75787B",
"W 	c #49ABFF",
"X 	c #0079FF",
"Y 	c #0070FF",
"Z 	c #484848",
"` 	c #1F3035",
" .	c #A3A5A7",
"..	c #C7CDD1",
"+.	c #040404",
"@.	c #020305",
"#.	c #006BD2",
"$.	c #0068FF",
"%.	c #40403F",
"&.	c #00C8FF",
"*.	c #232A2D",
"=.	c #222222",
"-.	c #56C1FC",
";.	c #2EAEFF",
">.	c #525354",
",.	c #16487F",
"'.	c #0071FF",
").	c #005FFF",
"!.	c #373737",
"~.	c #00C0FF",
"{.	c #353D41",
"].	c #92A1A9",
"^.	c #039EFF",
"/.	c #0094FF",
"(.	c #80A2BF",
"_.	c #2F435E",
":.	c #0069FF",
"<.	c #0060FF",
"[.	c #0057FF",
"}.	c #2F2F2F",
"|.	c #00B8FF",
"1.	c #9BBFD1",
"2.	c #7F7F7F",
"3.	c #55BDFE",
"4.	c #0095FF",
"5.	c #008CFF",
"6.	c #40A2FF",
"7.	c #878787",
"8.	c #7995C0",
"9.	c #0058FF",
"0.	c #004FFF",
"a.	c #272727",
"b.	c #00B0FF",
"c.	c #2EB6FF",
"d.	c #80CEFF",
"e.	c #0195FF",
"f.	c #008DFF",
"g.	c #0084FF",
"h.	c #007BFF",
"i.	c #78B4FF",
"j.	c #AFD0FF",
"k.	c #3F88FF",
"l.	c #0046FF",
"m.	c #1F1F1F",
"n.	c #00A7FF",
"o.	c #009FFF",
"p.	c #0096FF",
"q.	c #007CFF",
"r.	c #0073FF",
"s.	c #006AFF",
"t.	c #0061FF",
"u.	c #0050FF",
"v.	c #0047FF",
"w.	c #003EFF",
"x.	c #171717",
"y.	c #00A8FF",
"z.	c #008EFF",
"A.	c #0085FF",
"B.	c #006BFF",
"C.	c #0062FF",
"D.	c #0059FF",
"E.	c #003FFF",
"F.	c #0036FF",
"G.	c #0F0F0F",
"H.	c #777777",
"I.	c #6F6F6F",
"J.	c #676767",
"K.	c #5F5F5F",
"L.	c #575757",
"M.	c #4F4F4F",
"N.	c #474747",
"O.	c #3F3F3F",
"P.	c #070707",
". + @ # $ % & * = - ; > , ' ) ! ",
"+ ~ { ] ^ / ( _ : < [ } | 1 2 3 ",
"@ { ] 4 5 ( _ 6 7 [ } | 8 9 0 a ",
"# b 4 5 c d e 7 [ f g h i j k l ",
"$ 4 m ( n o p q f r s o t k u v ",
"% m ( w x o y z A B o C D u E F ",
"& ( G H o o I J K o L M N O P Q ",
"* m R S o o T U o o V W O X Y Z ",
"= R b ` o o  ...+.o @.#.X Y $.%.",
"- b &.*.o =.-.;.>.o o ,.'.$.).!.",
"; { ~.{.o ].^./.(.o o _.:.<.[.}.",
"> ~ |.1.2.3.4.5.6.7.Q 8.<.9.0.a.",
", |.b.c.d.e.f.g.h.i.j.k.9.0.l.m.",
"' b.n.o.p.f.g.q.r.s.t.9.u.v.w.x.",
") y.o.p.z.A.q.r.B.C.D.u.v.E.F.G.",
"! H.I.J.K.L.M.N.O.!.}.a.m.x.G.P."};
