/* XPM */
static char * files_listed_xpm[] = {
"16 16 106 2",
"  	c None",
". 	c #C8C8C8",
"+ 	c #BDBCBC",
"@ 	c #BCBBBB",
"# 	c #B9B8B8",
"$ 	c #ABABAB",
"% 	c #979797",
"& 	c #969696",
"* 	c #E0E0DF",
"= 	c #DFDFDF",
"- 	c #DDDEDF",
"; 	c #DADADA",
"> 	c #D2D2D2",
", 	c #B8B8B8",
"' 	c #B7B7B7",
") 	c #959594",
"! 	c #E5E4E3",
"~ 	c #E1E2E2",
"{ 	c #E0E1E2",
"] 	c #DFE0E0",
"^ 	c #D8D8D8",
"/ 	c #C1C1C2",
"( 	c #A2A2A2",
"_ 	c #909090",
": 	c #D6D6D6",
"< 	c #DDDDDE",
"[ 	c #E7E7E7",
"} 	c #E6E6E7",
"| 	c #CCCDCF",
"1 	c #B2B2B3",
"2 	c #A8A8A8",
"3 	c #818181",
"4 	c #949493",
"5 	c #D8D8D9",
"6 	c #DEDEE0",
"7 	c #E6E5E4",
"8 	c #E8E8E8",
"9 	c #E5E3E1",
"0 	c #E0DFDE",
"a 	c #D9D9D9",
"b 	c #D5D5D5",
"c 	c #999999",
"d 	c #959595",
"e 	c #D3D3D3",
"f 	c #D5D4D4",
"g 	c #E0DFDD",
"h 	c #D7D7D6",
"i 	c #E3E3E4",
"j 	c #E4E4E5",
"k 	c #A4A4A4",
"l 	c #989898",
"m 	c #D4D3D3",
"n 	c #D4D4D4",
"o 	c #D5D4D2",
"p 	c #E5E5E5",
"q 	c #EEEDED",
"r 	c #EBEBEC",
"s 	c #AAAAAA",
"t 	c #9B9B9B",
"u 	c #E5E6E7",
"v 	c #E3E4E5",
"w 	c #DCDFE3",
"x 	c #E2E5EA",
"y 	c #E9EDF1",
"z 	c #E6EBF0",
"A 	c #E1E7EE",
"B 	c #ACADAE",
"C 	c #9C9C9C",
"D 	c #E8EBF1",
"E 	c #D9E5F8",
"F 	c #C4D9FA",
"G 	c #B5D1FB",
"H 	c #A9CAFB",
"I 	c #85B4FB",
"J 	c #6AA3F8",
"K 	c #76A9F3",
"L 	c #909DB1",
"M 	c #E4E9F2",
"N 	c #CBDEFB",
"O 	c #ABCCFD",
"P 	c #9AC2FD",
"Q 	c #91BCFD",
"R 	c #5699FD",
"S 	c #297EFB",
"T 	c #3584F5",
"U 	c #8094B3",
"V 	c #9C9B9B",
"W 	c #E5EAF1",
"X 	c #CEE0FA",
"Y 	c #B3D0FC",
"Z 	c #A3C6FB",
"` 	c #94BCFA",
" .	c #5E9CFA",
"..	c #2E81FA",
"+.	c #3A87F4",
"@.	c #8195B2",
"#.	c #9A9A9A",
"$.	c #E1E3E8",
"%.	c #D6DEEB",
"&.	c #C9D8ED",
"*.	c #BCD0EC",
"=.	c #ADC6EC",
"-.	c #9BBBEB",
";.	c #85AEEB",
">.	c #89B1EB",
",.	c #95A0B0",
"                                ",
"                                ",
"        . + @ # $ %             ",
"      & * = - ; > , '           ",
"      ) ! ~ { ] ^ / ' (         ",
"      _ : < [ } ~ | 1 2 3       ",
"      4 5 6 7 8 9 0 a b c       ",
"      d : e f g h : i j k       ",
"      l a m n o a p q r s       ",
"      t u i v w x y z A B       ",
"      C D E F G H I J K L       ",
"      C M N O P Q R S T U       ",
"      V W X Y Z `  ...+.@.      ",
"      #.$.%.&.*.=.-.;.>.,.      ",
"                                ",
"                                "};
