/* XPM */
static char * freedb_search_xpm[] = {
"39 24 474 2",
"  	c None",
". 	c #000000",
"+ 	c #EFEFEF",
"@ 	c #EAEAEA",
"# 	c #E5E5E5",
"$ 	c #DFDFDF",
"% 	c #D9D9D9",
"& 	c #D4D4D4",
"* 	c #CFCFCF",
"= 	c #C9C9C9",
"- 	c #C4C4C4",
"; 	c #BFBFBF",
"> 	c #B9B9B9",
", 	c #B4B4B4",
"' 	c #AEAEAE",
") 	c #A9A9A9",
"! 	c #A3A3A3",
"~ 	c #9F9F9F",
"{ 	c #999999",
"] 	c #949494",
"^ 	c #8E8E8E",
"/ 	c #888888",
"( 	c #838383",
"_ 	c #7E7E7E",
": 	c #797979",
"< 	c #737373",
"[ 	c #6E6E6E",
"} 	c #686868",
"| 	c #636363",
"1 	c #5E5E5E",
"2 	c #585858",
"3 	c #535353",
"4 	c #4D4D4D",
"5 	c #484848",
"6 	c #424242",
"7 	c #3D3D3D",
"8 	c #383838",
"9 	c #E8E8E8",
"0 	c #E2E2E2",
"a 	c #DCDCDC",
"b 	c #D7D7D7",
"c 	c #D1D1D1",
"d 	c #CCCCCC",
"e 	c #C6C6C6",
"f 	c #C1C1C1",
"g 	c #BCBCBC",
"h 	c #B7B7B7",
"i 	c #B1B1B1",
"j 	c #ACACAC",
"k 	c #A7A7A7",
"l 	c #A1A1A1",
"m 	c #9C9C9C",
"n 	c #979797",
"o 	c #919191",
"p 	c #8C8C8C",
"q 	c #868686",
"r 	c #818181",
"s 	c #7B7B7B",
"t 	c #767676",
"u 	c #717171",
"v 	c #6B6B6B",
"w 	c #666666",
"x 	c #606060",
"y 	c #5B5B5B",
"z 	c #565656",
"A 	c #505050",
"B 	c #4A4A4A",
"C 	c #454545",
"D 	c #404040",
"E 	c #3B3B3B",
"F 	c #353535",
"G 	c #303030",
"H 	c #E0E0E0",
"I 	c #DADADA",
"J 	c #D5D5D5",
"K 	c #C5C5C5",
"L 	c #AFAFAF",
"M 	c #AAAAAA",
"N 	c #A4A4A4",
"O 	c #898989",
"P 	c #7F7F7F",
"Q 	c #696969",
"R 	c #595959",
"S 	c #545454",
"T 	c #4E4E4E",
"U 	c #434343",
"V 	c #3E3E3E",
"W 	c #333333",
"X 	c #2E2E2E",
"Y 	c #282828",
"Z 	c #D2D2D2",
"` 	c #CDCDCD",
" .	c #C7C7C7",
"..	c #C2C2C2",
"+.	c #B2B2B2",
"@.	c #A6A6A6",
"#.	c #A2A2A2",
"$.	c #969696",
"%.	c #878787",
"&.	c #828282",
"*.	c #7C7C7C",
"=.	c #777777",
"-.	c #676767",
";.	c #616161",
">.	c #4B4B4B",
",.	c #2B2B2B",
"'.	c #262626",
").	c #202020",
"!.	c #CACACA",
"~.	c #C0C0C0",
"{.	c #BABABA",
"].	c #8F8F8F",
"^.	c #848484",
"/.	c #747474",
"(.	c #5F5F5F",
"_.	c #494949",
":.	c #393939",
"<.	c #292929",
"[.	c #232323",
"}.	c #1D1D1D",
"|.	c #191919",
"1.	c #A3A1C6",
"2.	c #A9A8C7",
"3.	c #AAA9C9",
"4.	c #AAABCA",
"5.	c #A9ABC6",
"6.	c #AAABCB",
"7.	c #ABACCF",
"8.	c #ABACCB",
"9.	c #A9ABC7",
"0.	c #A9AAC7",
"a.	c #ABACC9",
"b.	c #A9AACA",
"c.	c #ACA9CA",
"d.	c #A9A9C6",
"e.	c #A8A9C8",
"f.	c #ACABCE",
"g.	c #A8A7C9",
"h.	c #AAAAC9",
"i.	c #ABAACA",
"j.	c #ABA7C8",
"k.	c #6F6DA8",
"l.	c #4A4A92",
"m.	c #4D4A96",
"n.	c #4C4993",
"o.	c #4D4A94",
"p.	c #4D4A95",
"q.	c #4C4992",
"r.	c #4C4994",
"s.	c #4B4A94",
"t.	c #494993",
"u.	c #4B4A95",
"v.	c #4E4B94",
"w.	c #494A95",
"x.	c #7574B0",
"y.	c #B7B9CE",
"z.	c #DEE2EA",
"A.	c #B5B6D2",
"B.	c #F1F1F3",
"C.	c #FAFAF7",
"D.	c #FBFAF8",
"E.	c #FAFAF9",
"F.	c #FAFAFA",
"G.	c #FBFAFB",
"H.	c #FBFBFA",
"I.	c #FBFAFC",
"J.	c #FBFAF9",
"K.	c #FAF8F7",
"L.	c #F7F7F5",
"M.	c #E2E1EB",
"N.	c #CBC8DD",
"O.	c #DBDAE6",
"P.	c #D0CDE3",
"Q.	c #F7FAF0",
"R.	c #F9FAF8",
"S.	c #6766A0",
"T.	c #121272",
"U.	c #0F106F",
"V.	c #101172",
"W.	c #0F1071",
"X.	c #0F0F71",
"Y.	c #10116E",
"Z.	c #0F1174",
"`.	c #101275",
" +	c #0F1073",
".+	c #111073",
"++	c #101273",
"@+	c #454690",
"#+	c #B4B8D4",
"$+	c #6867A0",
"%+	c #6B69A9",
"&+	c #E3E4EB",
"*+	c #EFEEF4",
"=+	c #F1F1F5",
"-+	c #F5F4F7",
";+	c #EDECF3",
">+	c #F9F9FA",
",+	c #FCFDFA",
"'+	c #F3F2F5",
")+	c #F0EFF5",
"!+	c #F9FAF7",
"~+	c #FAF9FB",
"{+	c #EDEFF1",
"]+	c #ACAACC",
"^+	c #5C5899",
"/+	c #9190BA",
"(+	c #7873B6",
"_+	c #EAEDEC",
":+	c #F8F9F8",
"<+	c #6B6AA7",
"[+	c #100D7A",
"}+	c #110F78",
"|+	c #121174",
"1+	c #20207C",
"2+	c #1A1979",
"3+	c #100E76",
"4+	c #1A1A76",
"5+	c #1C1B79",
"6+	c #181675",
"7+	c #1B1A78",
"8+	c #1E1A77",
"9+	c #1C1C7A",
"0+	c #4D4A97",
"a+	c #9A9CC4",
"b+	c #302F84",
"c+	c #65659F",
"d+	c #8787B8",
"e+	c #4F5293",
"f+	c #9692C1",
"g+	c #7F7FB0",
"h+	c #7070A8",
"i+	c #8E8EB8",
"j+	c #DDE0E9",
"k+	c #6A6BA2",
"l+	c #6A69A4",
"m+	c #B9BAD5",
"n+	c #BEC0D7",
"o+	c #64649D",
"p+	c #55589A",
"q+	c #525396",
"r+	c #8C8CB8",
"s+	c #403F91",
"t+	c #6967A4",
"u+	c #9496BB",
"v+	c #6B6BA7",
"w+	c #120D6E",
"x+	c #121075",
"y+	c #7270A3",
"z+	c #9EA1C7",
"A+	c #A0A0C8",
"B+	c #232174",
"C+	c #9494C1",
"D+	c #ADAECB",
"E+	c #6A699D",
"F+	c #A5A5C5",
"G+	c #9597BE",
"H+	c #AEACC9",
"I+	c #6161A2",
"J+	c #B3B4CF",
"K+	c #4A4A90",
"L+	c #A8A9C7",
"M+	c #6E6EAD",
"N+	c #737BA3",
"O+	c #C5C2DF",
"P+	c #373681",
"Q+	c #888BC0",
"R+	c #36337B",
"S+	c #817FB6",
"T+	c #484998",
"U+	c #7576AE",
"V+	c #6764A2",
"W+	c #7171A4",
"X+	c #A6A7CA",
"Y+	c #9292BC",
"Z+	c #525295",
"`+	c #8F8DBF",
" @	c #595C97",
".@	c #CCCCE0",
"+@	c #413D88",
"@@	c #666AA5",
"#@	c #130E79",
"$@	c #26287F",
"%@	c #D1D1E4",
"&@	c #3E3A8A",
"*@	c #A6A4C3",
"=@	c #6F72AB",
"-@	c #BBBBD5",
";@	c #6B6AA6",
">@	c #7575A8",
",@	c #B5B3D4",
"'@	c #373A85",
")@	c #DFDEEA",
"!@	c #6565A4",
"~@	c #BAB8D8",
"{@	c #514E95",
"]@	c #B5B5D0",
"^@	c #6F6EB0",
"/@	c #9295B9",
"(@	c #DBD8E7",
"_@	c #353581",
":@	c #8C90BD",
"<@	c #61609D",
"[@	c #8583B3",
"}@	c #484994",
"|@	c #7C7EAE",
"1@	c #8B8ABC",
"2@	c #7372A5",
"3@	c #A3A4C7",
"4@	c #9393BD",
"5@	c #535395",
"6@	c #585B96",
"7@	c #CBCBDE",
"8@	c #423E8B",
"9@	c #666AA2",
"0@	c #2E2B81",
"a@	c #2D317B",
"b@	c #D0CFE5",
"c@	c #3F3B89",
"d@	c #A6A4C4",
"e@	c #B9B9D4",
"f@	c #333588",
"g@	c #5E5F9E",
"h@	c #B7B7D1",
"i@	c #3A3D88",
"j@	c #E0DFEB",
"k@	c #6867A7",
"l@	c #BCBAD3",
"m@	c #7A78AB",
"n@	c #C7C5DA",
"o@	c #9192B7",
"p@	c #ADACCD",
"q@	c #F6F6F4",
"r@	c #797AAC",
"s@	c #6E6EA8",
"t@	c #8A8AB6",
"u@	c #DBDEEC",
"v@	c #6B6BAA",
"w@	c #6867A5",
"x@	c #B3B6CF",
"y@	c #C1C3DA",
"z@	c #62629D",
"A@	c #6C6FAA",
"B@	c #797BAB",
"C@	c #A7A8C9",
"D@	c #6464A1",
"E@	c #6968A4",
"F@	c #9596BD",
"G@	c #6C6CA2",
"H@	c #7D7DB7",
"I@	c #303280",
"J@	c #7370A9",
"K@	c #9EA2C6",
"L@	c #232175",
"M@	c #9191C0",
"N@	c #272B80",
"O@	c #282782",
"P@	c #B7B7D2",
"Q@	c #D8D8E0",
"R@	c #6768A6",
"S@	c #BABBD3",
"T@	c #F9F8FB",
"U@	c #F4F3F6",
"V@	c #F5F4F8",
"W@	c #FCFDFC",
"X@	c #F4F4F7",
"Y@	c #ECEDF3",
"Z@	c #F7F8F9",
"`@	c #FBFEFB",
" #	c #F3F4F6",
".#	c #EEEEF4",
"+#	c #FAFDFB",
"@#	c #F8FAF9",
"##	c #EEF0F2",
"$#	c #F0F1F6",
"%#	c #F0F1F5",
"&#	c #F4F5F8",
"*#	c #F0F1F4",
"=#	c #EBEDF0",
"-#	c #6B6AA3",
";#	c #1B1B79",
">#	c #131174",
",#	c #151379",
"'#	c #1E1E78",
")#	c #110F77",
"!#	c #1A1A75",
"~#	c #111571",
"{#	c #323381",
"]#	c #BEC2D8",
"^#	c #8F8FB8",
"/#	c #BEC0D6",
"(#	c #5B5797",
"_#	c #BABAD6",
":#	c #FAFCF3",
"<#	c #FBFAFA",
"[#	c #FCFCFA",
"}#	c #FBFBF9",
"|#	c #FCFBFB",
"1#	c #FCFBFA",
"2#	c #FCFBF9",
"3#	c #FCFBFC",
"4#	c #F9F9F8",
"5#	c #FCFCF6",
"6#	c #6969A5",
"7#	c #0E1170",
"8#	c #101070",
"9#	c #0F106E",
"0#	c #101072",
"a#	c #100F79",
"b#	c #131173",
"c#	c #464592",
"d#	c #5C599E",
"e#	c #333081",
"f#	c #4B4798",
"g#	c #AEADCE",
"h#	c #BCBAD4",
"i#	c #BCB6D5",
"j#	c #BBBCD6",
"k#	c #B9BBD5",
"l#	c #B9BCD3",
"m#	c #BABBD4",
"n#	c #BDBCD8",
"o#	c #B9B8D2",
"p#	c #BBBAD2",
"q#	c #BCBBD5",
"r#	c #BABAD4",
"s#	c #BAB9D3",
"t#	c #BBBBD6",
"u#	c #BBBAD4",
"v#	c #BABBD5",
"w#	c #BCBAD2",
"x#	c #7674AB",
"y#	c #4A4A94",
"z#	c #4C4A93",
"A#	c #4C4894",
"B#	c #4D4994",
"C#	c #48498F",
"D#	c #494B90",
"E#	c #4B4D96",
"F#	c #4A4A96",
"G#	c #4B4B92",
"H#	c #7477A8",
"I#	c #787878",
"J#	c #626262",
"K#	c #5D5D5D",
"L#	c #323232",
"M#	c #2D2D2D",
"N#	c #222222",
"O#	c #171717",
"P#	c #121212",
"Q#	c #0C0C0C",
"R#	c #070707",
"S#	c #020202",
"T#	c #656565",
"U#	c #3A3A3A",
"V#	c #2A2A2A",
"W#	c #252525",
"X#	c #1F1F1F",
"Y#	c #1A1A1A",
"Z#	c #151515",
"`#	c #0F0F0F",
" $	c #0A0A0A",
".$	c #040404",
"+$	c #181818",
"@$	c #0D0D0D",
"#$	c #080808",
"$$	c #5C5C5C",
"%$	c #515151",
"&$	c #464646",
"*$	c #1B1B1B",
"=$	c #161616",
"-$	c #101010",
";$	c #050505",
">$	c #444444",
",$	c #030303",
". . . . . . . . . . . . . . . . . . . . . . . . . . . . . . . . . . . . . . . ",
". . . . . . . . . . . . . . . . . . . . . . . . . . . . . . . . . . . . . . . ",
". . + @ # $ % & * = - ; > , ' ) ! ~ { ] ^ / ( _ : < [ } | 1 2 3 4 5 6 7 8 . . ",
". . 9 0 a b c d e f g h i j k l m n o p q r s t u v w x y z A B C D E F G . . ",
". . H I J * = K ; > , L M N ~ { ] ^ O ( P : < [ Q | 1 R S T 5 U V 8 W X Y . . ",
". . b Z `  ...g h +.j @.#.m $.o p %.&.*.=.u v -.;.y z A >.C D E F G ,.'.).. . ",
". . * !.K ~.{., L M N ~ { ] ].O ^.P : /.[ Q | (.2 3 T _.U V :.W X <.[.}.|.. . ",
". . 1.2.3.4.5.6.7.8.9.0.a.5.b.c.d.e.f.g.h.i.j.k.l.m.n.o.p.q.r.s.t.u.v.w.x.. . ",
". . y.z.A.B.C.D.E.F.G.H.G.I.J.K.L.M.N.O.P.Q.R.S.T.U.V.W.U.X.Y.Z.`. +.+++@+. . ",
". . #+$+%+&+*+=+-+;+>+,+'+)+!+~+{+]+^+/+(+_+:+<+[+}+|+1+2+3+4+5+6+7+8+9+0+. . ",
". . a+b+c+d+e+f+g+h+i+j+k+l+m+n+o+p+q+r+s+t+u+v+w+x+y+z+A+B+C+D+E+F+G+H+I+. . ",
". . J+K+L+M+N+O+P+Q+R+S+T+U+V+W+X+Y+Z+`+ @.@+@@@#@$@%@&@*@=@-@;@>@,@'@)@!@. . ",
". . ~@{@]@^@/@(@_@:@<@[@}@|@1@2@3@4@5@`+6@7@8@9@0@a@b@c@d@=@e@f@g@h@i@j@k@. . ",
". . l@m@n@o@p@q@r@s@t@u@v@w@x@y@z@A@B@C@D@E@F@G@H@I@J@K@A+L@M@N@O@P@Y+Q@R@. . ",
". . S@B.T@U@V@W@X@Y@Z@`@ #.#+#@###$#%#&#*#=#:+-#;#>#,#'#2+)#!#~#{#]#^#/#(#. . ",
". . _#:#<#[#}#|#J.[#1#2#[#3#[#|#J.C.|#|#4#5#E.6#7#8#X.Y.9#0#Y.a#b#c#d#e#f#. . ",
". . g#h#i#j#k#l#m#n#o#p#q#r#s#p#r#t#e@-@u#v#w#x#y#o.z#A#B#n.r.C#D#E#F#G#H#. . ",
". . I#< [ } J#K#2 3 4 5 U V 8 L#M#Y N#}.O#P#Q#R#S#. . . . . . . . . . . . . . ",
". . u v T#x y z A B C D U#F G V#W#X#Y#Z#`# $.$. . . . . . . . . . . . . . . . ",
". . Q | 1 R 3 T _.U V 8 L#M#Y [.}.+$P#@$#$S#. . . . . . . . . . . . . . . . . ",
". . ;.$$z %$>.&$D E F G V#'.).*$=$-$ $;$. . . . . . . . . . . . . . . . . . . ",
". . R 3 T _.>$V 8 W X Y [.}.+$P#@$#$,$. . . . . . . . . . . . . . . . . . . . ",
". . . . . . . . . . . . . . . . . . . . . . . . . . . . . . . . . . . . . . . ",
". . . . . . . . . . . . . . . . . . . . . . . . . . . . . . . . . . . . . . . "};
