/* XPM */
static char * friend_user_xpm[] = {
"16 16 134 2",
"  	c None",
". 	c #AA2F2F",
"+ 	c #B54C4C",
"@ 	c #D69595",
"# 	c #CB6D6D",
"$ 	c #BD4444",
"% 	c #AE1D1D",
"& 	c #AB2525",
"* 	c #D5A0A0",
"= 	c #D38888",
"- 	c #C45A5A",
"; 	c #B73636",
"> 	c #AA1313",
", 	c #B14646",
"' 	c #D69898",
") 	c #C25353",
"! 	c #AC1414",
"~ 	c #AA0D0D",
"{ 	c #BB5353",
"] 	c #CE7878",
"^ 	c #B42B2B",
"/ 	c #AA0F0F",
"( 	c #A90C0C",
"_ 	c #A80D0D",
": 	c #CD7474",
"< 	c #AC1616",
"[ 	c #A90B0B",
"} 	c #B94C4C",
"| 	c #CC8585",
"1 	c #B43C3C",
"2 	c #AE1B1B",
"3 	c #AE1919",
"4 	c #AA0E0E",
"5 	c #AE3E3E",
"6 	c #BC6060",
"7 	c #C04D4D",
"8 	c #B13C3C",
"9 	c #EEECEC",
"0 	c #F6F6F6",
"a 	c #D6D0D0",
"b 	c #A92525",
"c 	c #C07171",
"d 	c #DBB3B3",
"e 	c #C88080",
"f 	c #A91010",
"g 	c #AA3030",
"h 	c #F2F1F1",
"i 	c #B54F4F",
"j 	c #B93A3A",
"k 	c #BB7E7E",
"l 	c #F5F5F5",
"m 	c #F2F2F2",
"n 	c #A5A4A4",
"o 	c #896E6E",
"p 	c #C1BFBF",
"q 	c #F8F8F8",
"r 	c #EFEFEF",
"s 	c #B56464",
"t 	c #A90D0D",
"u 	c #AB3737",
"v 	c #EEEDED",
"w 	c #B32A2A",
"x 	c #AE7474",
"y 	c #E9E9E9",
"z 	c #F1F1F1",
"A 	c #525050",
"B 	c #442D2D",
"C 	c #8E8C8C",
"D 	c #E3E3E3",
"E 	c #D4D4D4",
"F 	c #A46060",
"G 	c #AB1313",
"H 	c #AE5353",
"I 	c #AB1B1B",
"J 	c #AB1111",
"K 	c #993131",
"L 	c #BDBCBC",
"M 	c #CECECE",
"N 	c #CBBA7F",
"O 	c #CD9958",
"P 	c #D3BF7A",
"Q 	c #AAA48E",
"R 	c #957575",
"S 	c #991414",
"T 	c #B42C2C",
"U 	c #AB6868",
"V 	c #AD3C3C",
"W 	c #AA1111",
"X 	c #A30B0B",
"Y 	c #884D4D",
"Z 	c #8C8C8C",
"` 	c #968B6D",
" .	c #F1BD07",
"..	c #CBA737",
"+.	c #949393",
"@.	c #946161",
"#.	c #A80C0C",
"$.	c #B64848",
"%.	c #A71515",
"&.	c #A81818",
"*.	c #A49696",
"=.	c #BFBFBF",
"-.	c #D6D6D6",
";.	c #CBBB92",
">.	c #D1CEC8",
",.	c #B5B5B5",
"'.	c #A44646",
").	c #B73737",
"!.	c #A76A6A",
"~.	c #AE5C5C",
"{.	c #A46868",
"].	c #C3C3C3",
"^.	c #E4E4E4",
"/.	c #F4F4F4",
"(.	c #EEEEEE",
"_.	c #B6ADAD",
":.	c #AC6363",
"<.	c #B3B2B2",
"[.	c #DBDBDB",
"}.	c #FDFDFD",
"|.	c #FFFFFF",
"1.	c #FAFAFA",
"2.	c #EAEAEA",
"3.	c #C4C4C4",
"4.	c #A6A5A5",
"5.	c #FBFBFB",
"6.	c #FEFEFE",
"7.	c #DFDFDF",
"8.	c #AEAEAE",
"9.	c #D8D8D8",
"0.	c #DDDDDD",
"a.	c #B2B2B2",
"b.	c #CFCFCF",
"c.	c #CACACA",
"        .           + .         ",
"    @ # $ % &   * = - ; > ,     ",
"  ' ) ! ~ ~ ~ { ] ^ / ~ ( _     ",
"  : < [ } | 1 2 3 ( [ [ [ 4 5   ",
"  7 ( 8 9 0 a b c d e f [ ( g   ",
"  j [ k l m n o p q r s [ t u   ",
"  w t x y z A B C D E F [ G H   ",
"  I J K L M N O P Q R S [ T U   ",
"  V W X Y Z `  ...+.@.#./ $.    ",
"    %.&.*.=.-.;.>.E ,.'.).!.    ",
"    ~.{.].^./.q q (.E _.:.      ",
"      <.[.l }.|.|.1.2.3.4.      ",
"        E 5.|.|.|.6.7.8.        ",
"          9.}.|.|.0.a.          ",
"            b.(.c.              ",
"                                "};
