/* XPM */
static char * gnutella_xpm[] = {
"16 16 198 2",
"  	c None",
". 	c #F8F8F8",
"+ 	c #F0F0F0",
"@ 	c #E8E8E8",
"# 	c #E0E0E0",
"$ 	c #D8D8D8",
"% 	c #D0D0D0",
"& 	c #C8C8C8",
"* 	c #C0C0C0",
"= 	c #B8B8B8",
"- 	c #B0B0B0",
"; 	c #A8A8A8",
"> 	c #A0A0A0",
", 	c #989898",
"' 	c #909090",
") 	c #888888",
"! 	c #808080",
"~ 	c #00C1FF",
"{ 	c #00C9FF",
"] 	c #00D2FF",
"^ 	c #00DBFF",
"/ 	c #00E4FF",
"( 	c #00E7FF",
"_ 	c #00DFFF",
": 	c #00D6FF",
"< 	c #00CDFF",
"[ 	c #00C5FF",
"} 	c #00BCFF",
"| 	c #00B3FF",
"1 	c #00AAFF",
"2 	c #00A1FF",
"3 	c #787878",
"4 	c #00DAFF",
"5 	c #00E3FF",
"6 	c #00DEFE",
"7 	c #0086A0",
"8 	c #337A8B",
"9 	c #68C8E5",
"0 	c #1AC2FF",
"a 	c #00ABFF",
"b 	c #00A2FF",
"c 	c #0099FF",
"d 	c #707070",
"e 	c #00D1FF",
"f 	c #00CFE5",
"g 	c #0D7180",
"h 	c #284A51",
"i 	c #12191B",
"j 	c #383D3F",
"k 	c #1B2124",
"l 	c #69757B",
"m 	c #68A9CA",
"n 	c #35B5FF",
"o 	c #009AFF",
"p 	c #0091FF",
"q 	c #686868",
"r 	c #00E2FF",
"s 	c #002B32",
"t 	c #343E41",
"u 	c #232C2F",
"v 	c #15181A",
"w 	c #272A2C",
"x 	c #08090A",
"y 	c #4E5052",
"z 	c #06080A",
"A 	c #CBD0D4",
"B 	c #2BA3FF",
"C 	c #0089FF",
"D 	c #606060",
"E 	c #00D4F1",
"F 	c #000001",
"G 	c #D1D1D2",
"H 	c #0F4859",
"I 	c #27363C",
"J 	c #5E727B",
"K 	c #010102",
"L 	c #D5D6D7",
"M 	c #04111A",
"N 	c #899199",
"O 	c #66B8FF",
"P 	c #0080FF",
"Q 	c #585858",
"R 	c #00E1FF",
"S 	c #008BA5",
"T 	c #000102",
"U 	c #19191A",
"V 	c #060607",
"W 	c #737577",
"X 	c #71B3D4",
"Y 	c #000000",
"Z 	c #161616",
"` 	c #666666",
" .	c #99CCFF",
"..	c #0078FF",
"+.	c #505050",
"@.	c #00D9FF",
"#.	c #006E87",
"$.	c #294E59",
"%.	c #506F7B",
"&.	c #020203",
"*.	c #010101",
"=.	c #303031",
"-.	c #4A535C",
";.	c #2E3B48",
">.	c #B7D9FF",
",.	c #0070FF",
"'.	c #484848",
").	c #006987",
"!.	c #2C525F",
"~.	c #77A9BE",
"{.	c #040D12",
"].	c #D2DCE3",
"^.	c #157CC0",
"/.	c #194567",
"(.	c #394F61",
"_.	c #546F89",
":.	c #213348",
"<.	c #B7D6FF",
"[.	c #0068FF",
"}.	c #40403F",
"|.	c #00C8FF",
"1.	c #00769D",
"2.	c #2A2A2B",
"3.	c #0A0C0D",
"4.	c #E1E9EE",
"5.	c #1098FB",
"6.	c #012E54",
"7.	c #101419",
"8.	c #080809",
"9.	c #525355",
"0.	c #AACCFF",
"a.	c #005FFF",
"b.	c #373737",
"c.	c #00C0FF",
"d.	c #00ACF1",
"e.	c #565656",
"f.	c #0A0D10",
"g.	c #111112",
"h.	c #CCCCCD",
"i.	c #327FFF",
"j.	c #0057FF",
"k.	c #2F2F2F",
"l.	c #00B8FF",
"m.	c #00A4F0",
"n.	c #132431",
"o.	c #49525B",
"p.	c #4D6278",
"q.	c #B1B1B1",
"r.	c #CDCDCE",
"s.	c #3178FF",
"t.	c #004FFF",
"u.	c #272727",
"v.	c #00B0FF",
"w.	c #00A5FD",
"x.	c #004672",
"y.	c #030406",
"z.	c #424242",
"A.	c #4B5866",
"B.	c #0C0C0C",
"C.	c #454649",
"D.	c #AAC2EF",
"E.	c #105AFF",
"F.	c #0046FF",
"G.	c #1F1F1F",
"H.	c #00A7FF",
"I.	c #009FFF",
"J.	c #0096FF",
"K.	c #008CFE",
"L.	c #006ACE",
"M.	c #0E2A49",
"N.	c #1E242B",
"O.	c #8691A2",
"P.	c #5C99FE",
"Q.	c #0158FF",
"R.	c #0050FF",
"S.	c #0047FF",
"T.	c #003EFF",
"U.	c #171717",
"V.	c #00A8FF",
"W.	c #008EFF",
"X.	c #0085FF",
"Y.	c #007CFF",
"Z.	c #0073FF",
"`.	c #006BFF",
" +	c #0062FF",
".+	c #0059FF",
"++	c #003FFF",
"@+	c #0036FF",
"#+	c #0F0F0F",
"$+	c #777777",
"%+	c #6F6F6F",
"&+	c #676767",
"*+	c #5F5F5F",
"=+	c #575757",
"-+	c #4F4F4F",
";+	c #474747",
">+	c #3F3F3F",
",+	c #070707",
". + @ # $ % & * = - ; > , ' ) ! ",
"+ ~ { ] ^ / ( _ : < [ } | 1 2 3 ",
"@ { ] 4 5 ( 6 7 8 9 0 | a b c d ",
"# e 4 5 f g h i j k l m n o p q ",
"$ 4 r ( s t u v w x y z A B C D ",
"% r ( E F G H I J K L M N O P Q ",
"& ( R S T U V W X Y Z Y `  ...+.",
"* r @.#.$.%.F &.Y *.=.-.;.>.,.'.",
"= @.e ).!.~.{.].^./.(._.:.<.[.}.",
"- e |.1.F 2.3.4.5.6.7.8.9.0.a.b.",
"; { c.d.Y e.f.8.g.Y '.F h.i.j.k.",
"> ~ l.m.Y , n.o.p.Y q.F r.s.t.u.",
", l.v.w.x.y.Y z.A.Y B.C.D.E.F.G.",
"' v.H.I.J.K.L.M.N.O.P.Q.R.S.T.U.",
") V.I.J.W.X.Y.Z.`. +.+R.S.++@+#+",
"! $+%+&+*+=+-+;+>+b.k.u.G.U.#+,+"};
