/* XPM */
static char * jigle_search_xpm[] = {
"39 24 452 2",
"  	c None",
". 	c #000000",
"+ 	c #010100",
"@ 	c #514216",
"# 	c #9B6B29",
"$ 	c #724E1C",
"% 	c #0A0704",
"& 	c #EFEFEF",
"* 	c #EAEAEA",
"= 	c #E5E5E5",
"- 	c #DFDFDF",
"; 	c #D9D9D9",
"> 	c #D4D4D4",
", 	c #CFCFCF",
"' 	c #C9C9C9",
") 	c #C4C4C4",
"! 	c #E4CF64",
"~ 	c #EFAE17",
"{ 	c #ED8C30",
"] 	c #ED9826",
"^ 	c #EC9730",
"/ 	c #A4A3A1",
"( 	c #9F9F9F",
"_ 	c #999999",
": 	c #949494",
"< 	c #8E8E8E",
"[ 	c #888888",
"} 	c #838383",
"| 	c #7E7E7E",
"1 	c #797979",
"2 	c #737373",
"3 	c #6E6E6E",
"4 	c #686868",
"5 	c #636363",
"6 	c #5E5E5E",
"7 	c #585858",
"8 	c #535353",
"9 	c #4D4D4D",
"0 	c #484848",
"a 	c #424242",
"b 	c #3D3D3D",
"c 	c #383838",
"d 	c #E8E8E8",
"e 	c #E2E2E2",
"f 	c #DCDCDC",
"g 	c #D7D7D7",
"h 	c #D1D1D1",
"i 	c #CCCCCC",
"j 	c #C6C6C6",
"k 	c #C1C1C1",
"l 	c #BFBDB7",
"m 	c #F6D21E",
"n 	c #F3C510",
"o 	c #EC9628",
"p 	c #F0AA10",
"q 	c #EFA40E",
"r 	c #B39982",
"s 	c #979797",
"t 	c #919191",
"u 	c #8C8C8C",
"v 	c #868686",
"w 	c #818181",
"x 	c #7B7B7B",
"y 	c #767676",
"z 	c #717171",
"A 	c #6B6B6B",
"B 	c #666666",
"C 	c #606060",
"D 	c #5B5B5B",
"E 	c #565656",
"F 	c #505050",
"G 	c #4A4A4A",
"H 	c #454545",
"I 	c #404040",
"J 	c #3B3B3B",
"K 	c #353535",
"L 	c #303030",
"M 	c #E0E0E0",
"N 	c #DADADA",
"O 	c #D5D5D5",
"P 	c #C5C5C5",
"Q 	c #BFBFBF",
"R 	c #B9B9B9",
"S 	c #B7B3A8",
"T 	c #F5C738",
"U 	c #F5CB30",
"V 	c #F1B130",
"W 	c #EDA214",
"X 	c #F09810",
"Y 	c #B09076",
"Z 	c #898989",
"` 	c #7F7F7F",
" .	c #696969",
"..	c #595959",
"+.	c #545454",
"@.	c #4E4E4E",
"#.	c #434343",
"$.	c #3E3E3E",
"%.	c #333333",
"&.	c #2E2E2E",
"*.	c #282828",
"=.	c #D2D2D2",
"-.	c #CDCDCD",
";.	c #C7C7C7",
">.	c #C2C2C2",
",.	c #BCBCBC",
"'.	c #B6B6B6",
").	c #C1C2C1",
"!.	c #C4BFBA",
"~.	c #E6A03A",
"{.	c #FBA524",
"].	c #FD9918",
"^.	c #FE880E",
"/.	c #FC7A0E",
"(.	c #9C9086",
"_.	c #878787",
":.	c #828282",
"<.	c #7C7C7C",
"[.	c #777777",
"}.	c #676767",
"|.	c #616161",
"1.	c #4B4B4B",
"2.	c #2B2B2B",
"3.	c #262626",
"4.	c #202020",
"5.	c #CACACA",
"6.	c #C0C0C0",
"7.	c #BABAB9",
"8.	c #C2BAA0",
"9.	c #C1A86A",
"0.	c #D9BC78",
"a.	c #B9A68A",
"b.	c #A9A29A",
"c.	c #D9944E",
"d.	c #F9891D",
"e.	c #EF8732",
"f.	c #98897D",
"g.	c #848484",
"h.	c #818281",
"i.	c #747474",
"j.	c #5F5F5F",
"k.	c #494949",
"l.	c #393939",
"m.	c #292929",
"n.	c #232323",
"o.	c #1D1D1D",
"p.	c #191919",
"q.	c #C8C8C8",
"r.	c #C3C3C3",
"s.	c #BDBDBD",
"t.	c #C5BD9E",
"u.	c #EFCD33",
"v.	c #ED9D2B",
"w.	c #E97F2E",
"x.	c #EA872F",
"y.	c #EE9124",
"z.	c #EA9731",
"A.	c #9C9389",
"B.	c #777878",
"C.	c #6C6C6C",
"D.	c #5C5C5C",
"E.	c #575757",
"F.	c #515151",
"G.	c #464646",
"H.	c #363636",
"I.	c #313131",
"J.	c #212121",
"K.	c #1B1B1B",
"L.	c #161616",
"M.	c #101010",
"N.	c #BBBBBB",
"O.	c #C3BB9A",
"P.	c #F6D610",
"Q.	c #F5D00A",
"R.	c #E87F2D",
"S.	c #ED8A33",
"T.	c #EE9030",
"U.	c #EE962B",
"V.	c #EC9523",
"W.	c #F89119",
"X.	c #93887D",
"Y.	c #757575",
"Z.	c #6F6F6E",
"`.	c #959696",
" +	c #666457",
".+	c #857451",
"++	c #54514E",
"@+	c #343434",
"#+	c #373737",
"$+	c #272727",
"%+	c #1E1E1E",
"&+	c #181818",
"*+	c #131313",
"=+	c #0D0D0D",
"-+	c #080808",
";+	c #B7B7B7",
">+	c #B3B2B0",
",+	c #F3D128",
"'+	c #F6DB03",
")+	c #F5D505",
"!+	c #E8842C",
"~+	c #EE8F31",
"{+	c #EF9A28",
"]+	c #EFA021",
"^+	c #EFA41B",
"/+	c #EC9A18",
"(+	c #E1862F",
"_+	c #727272",
":+	c #6D6D6D",
"<+	c #6F6F6F",
"[+	c #F6F6F6",
"}+	c #FFFFFF",
"|+	c #8E8F8D",
"1+	c #A49146",
"2+	c #D7A242",
"3+	c #564F49",
"4+	c #414141",
"5+	c #3C3C3C",
"6+	c #464746",
"7+	c #DEDFDE",
"8+	c #313130",
"9+	c #111111",
"0+	c #050505",
"a+	c #010101",
"b+	c #B0B0B0",
"c+	c #BCB393",
"d+	c #F6D11F",
"e+	c #F6DA05",
"f+	c #F6DE01",
"g+	c #EA9D1D",
"h+	c #ED932D",
"i+	c #EF9F23",
"j+	c #F0A914",
"k+	c #F1AF07",
"l+	c #EEAB0C",
"m+	c #F48910",
"n+	c #7F746A",
"o+	c #6A6A6A",
"p+	c #646464",
"q+	c #8D8E8D",
"r+	c #8C8D8D",
"s+	c #6E6F6F",
"t+	c #2C2C2C",
"u+	c #A7A7A7",
"v+	c #CBCCCC",
"w+	c #6B6C6B",
"x+	c #A8A8A8",
"y+	c #C5B379",
"z+	c #F5CE2B",
"A+	c #F6D31A",
"B+	c #F6D510",
"C+	c #F4C81B",
"D+	c #E99525",
"E+	c #F0AD0C",
"F+	c #F1B103",
"G+	c #F0AF06",
"H+	c #F08C10",
"I+	c #A07C5D",
"J+	c #626262",
"K+	c #5A5A5A",
"L+	c #F7F7F7",
"M+	c #888A89",
"N+	c #646463",
"O+	c #9C9C9C",
"P+	c #DBDBDB",
"Q+	c #3F4040",
"R+	c #676867",
"S+	c #ADAEAE",
"T+	c #D8D9D9",
"U+	c #787978",
"V+	c #FEFEFE",
"W+	c #A0A0A0",
"X+	c #BCAA79",
"Y+	c #F5C838",
"Z+	c #F5CC30",
"`+	c #F5CD2C",
" @	c #F5CC2E",
".@	c #F3BE32",
"+@	c #E89E24",
"@@	c #ECA416",
"#@	c #EFAC0B",
"$@	c #E9A411",
"%@	c #F7820D",
"&@	c #8E6E54",
"*@	c #FCFCFC",
"=@	c #888988",
"-@	c #D8D9D8",
";@	c #6D6E6C",
">@	c #707070",
",@	c #D9DADA",
"'@	c #7A7A7A",
")@	c #535453",
"!@	c #151515",
"~@	c #5F6060",
"{@	c #DEDFDF",
"]@	c #292A29",
"^@	c #020202",
"/@	c #989898",
"(@	c #AD9C7D",
"_@	c #F7BB39",
":@	c #F5C33D",
"<@	c #F5C53C",
"[@	c #F5C43D",
"}@	c #F6BD3B",
"|@	c #FAA523",
"1@	c #F69515",
"2@	c #F19213",
"3@	c #F6860E",
"4@	c #FE7408",
"5@	c #6A5E55",
"6@	c #5B5C5C",
"7@	c #E7E7E7",
"8@	c #F8F8F8",
"9@	c #9D9D9D",
"0@	c #B1B2B1",
"a@	c #909190",
"b@	c #F4F4F4",
"c@	c #E3E3E3",
"d@	c #C3C4C4",
"e@	c #999A9A",
"f@	c #424342",
"g@	c #F5F5F5",
"h@	c #B0B1B0",
"i@	c #040404",
"j@	c #909090",
"k@	c #8E8C8A",
"l@	c #F99E22",
"m@	c #FCA21F",
"n@	c #FBA825",
"o@	c #FCA421",
"p@	c #FE9B17",
"q@	c #FE9513",
"r@	c #FE8C10",
"s@	c #FE830C",
"t@	c #FE7809",
"u@	c #E47622",
"v@	c #4F4F4F",
"w@	c #545554",
"x@	c #2F2F2F",
"y@	c #5B5D5B",
"z@	c #A1A2A1",
"A@	c #828382",
"B@	c #FAFAFA",
"C@	c #525251",
"D@	c #090909",
"E@	c #4A4B4B",
"F@	c #1D1E1E",
"G@	c #99856D",
"H@	c #FE9214",
"I@	c #FE9312",
"J@	c #FE9111",
"K@	c #FE8E10",
"L@	c #FE890E",
"M@	c #FE810C",
"N@	c #FE7908",
"O@	c #F56D07",
"P@	c #8D725D",
"Q@	c #3F3F3D",
"R@	c #7C6B3C",
"S@	c #9E763B",
"T@	c #896634",
"U@	c #3C342B",
"V@	c #3D3E3D",
"W@	c #171717",
"X@	c #2D2E2E",
"Y@	c #898A89",
"Z@	c #8D8D8D",
"`@	c #626363",
" #	c #6C6D6C",
".#	c #848684",
"+#	c #868786",
"@#	c #959695",
"##	c #060606",
"$#	c #808080",
"%#	c #8E7964",
"&#	c #F8891C",
"*#	c #FE840C",
"=#	c #FE810B",
"-#	c #FE7C0A",
";#	c #FE7508",
">#	c #E66A0D",
",#	c #D5AC91",
"'#	c #FDFDFD",
")#	c #4D4B41",
"!#	c #EBCE1F",
"~#	c #ED9F22",
"{#	c #EC8831",
"]#	c #ED912C",
"^#	c #F2941E",
"/#	c #5A4026",
"(#	c #5B5C5B",
"_#	c #0F0F0F",
":#	c #808181",
"<#	c #8C8D8C",
"[#	c #7E7F7F",
"}#	c #4A4C4A",
"|#	c #787878",
"1#	c #646362",
"2#	c #806A57",
"3#	c #926946",
"4#	c #8F6544",
"5#	c #715D4D",
"6#	c #51504E",
"7#	c #BABCBB",
"8#	c #DDBF46",
"9#	c #F6DB04",
"0#	c #EDA61B",
"a#	c #EE942D",
"b#	c #EFA21F",
"c#	c #EFA715",
"d#	c #E98613",
"e#	c #2F2924",
"f#	c #070707",
"g#	c #656565",
"h#	c #3A3A3A",
"i#	c #E3E2E0",
"j#	c #E8C12C",
"k#	c #F6D415",
"l#	c #F3C814",
"m#	c #EB9927",
"n#	c #F0A912",
"o#	c #F1940F",
"p#	c #1D120A",
"q#	c #323232",
"r#	c #2D2D2D",
"s#	c #E1B341",
"t#	c #F5C935",
"u#	c #F5C934",
"v#	c #F1B935",
"w#	c #EE9F19",
"x#	c #ECA10F",
"y#	c #F6830D",
"z#	c #160D06",
"A#	c #2A2A2A",
"B#	c #8A632D",
"C#	c #FAA827",
"D#	c #FAAB29",
"E#	c #FC9D1C",
"F#	c #FD800C",
"G#	c #E06F16",
"H#	c #444444",
"I#	c #131312",
"J#	c #BD7424",
"K#	c #FD8A0F",
"L#	c #FE870E",
"M#	c #FE7D0A",
"N#	c #E86D0C",
"O#	c #150C04",
"P#	c #2D1C0C",
"Q#	c #60340E",
"R#	c #492A11",
"S#	c #070503",
". . . . . . . . . . . . . . . . . . . . . . . . . . . . . . . . . . . . . . . ",
". . . . . . . . . . . + @ # $ % . . . . . . . . . . . . . . . . . . . . . . . ",
". . & * = - ; > , ' ) ! ~ { ] ^ / ( _ : < [ } | 1 2 3 4 5 6 7 8 9 0 a b c . . ",
". . d e f g h i j k l m n o p q r s t u v w x y z A B C D E F G H I J K L . . ",
". . M N O , ' P Q R S T U V W X Y < Z } ` 1 2 3  .5 6 ..+.@.0 #.$.c %.&.*.. . ",
". . g =.-.;.>.,.'.).!.~.{.].^./.(._.:.<.[.z A }.|.D E F 1.H I J K L 2.3.4.. . ",
". . , 5.P 6.7.8.9.0.a.b.c.d.e.f.g.h.1 i.3  .5 j.7 8 @.k.#.$.l.%.&.m.n.o.p.. . ",
". . q.r.s.t.u.v.w.x.y.z.A.u _.w <.y B.C.B |.D.E.F.1.G.I J H.I.2.3.J.K.L.M.. . ",
". . 6.N.O.P.Q.R.S.T.U.V.W.X.` 1 Y.Z.<.`.5  +.+++k.#.$.l.@+#+0 $+%+&+*+=+-+. . ",
". . ;+>+,+'+)+!+~+{+]+^+/+(+[._+:+<+[+}+|+1+2+3+4+5+#+I.6+7+}+8+L.9+=+0+a+. . ",
". . b+c+d+e+f+g+h+i+j+k+l+m+n+o+p+C ; }++.q+f 6 F.k R ;.r+s+}+t+&+u+v+w+. . . ",
". . x+y+z+A+B+C+D+]+E+F+G+H+I+J+C K+; L+0 M+}+N+O+P+Q+}+l.R+}+$+S+T+U+V+M.. . ",
". . W+X+Y+Z+`+ @.@+@@@#@$@%@&@ .*@=@-@> a w+}+;@>@,@'@)@!@~@}+*.6.{@$+]@^@. . ",
". . /@(@_@:@<@[@}@|@1@2@3@4@5@6@7@' 8@9@#+0@}+a@b+b@=.c@p+d@}+e@f@g@h h@i@. . ",
". . j@k@l@m@n@o@p@q@r@s@t@u@v@G 0 w@v@K L x@y@*.b+z@A@B@U+%.C@%+D@E@)@F@. . . ",
". . Z } G@H@I@J@K@L@M@N@O@P@0 a Q@R@S@T@U@J.V@W@X@Y@Z@E.p.`@G  #.#+#@#5 ##. . ",
". . $#x y %#&#*#=#-#;#>#,#'#e@)#!#~#{#]#^#/#(#_#D@i@. . ]@:# #<#[#}#w@I.-+. . ",
". . |#2 3 4 1#2#3#4#5#6#7#}+V+8#9#0#a#b#c#d#e#f#^@. . . . . . . . . . . . . . ",
". . z A g#C D E F G H I h#z i#j#k#l#m#n#F+o#p#. . . . . . . . . . . . . . . . ",
". .  .5 6 ..8 @.k.#.$.c q#r#2.s#t#u#v#w#x#y#z#. . . . . . . . . . . . . . . . ",
". . |.D.E F.1.G.I J K L A#3.4.B#C#D#E#K@F#G#. . . . . . . . . . . . . . . . . ",
". . ..8 @.k.H#$.c %.&.*.n.o.&+I#J#K#L#M#N#O#. . . . . . . . . . . . . . . . . ",
". . . . . . . . . . . . . . . . a+P#Q#R#S#. . . . . . . . . . . . . . . . . . ",
". . . . . . . . . . . . . . . . . . . . . . . . . . . . . . . . . . . . . . . "};
