/* XPM */
static char * local_search_mini_xpm[] = {
"22 22 361 2",
"  	c None",
". 	c #000000",
"+ 	c #030303",
"@ 	c #0B0C0D",
"# 	c #040405",
"$ 	c #050606",
"% 	c #0B0B0C",
"& 	c #020202",
"* 	c #555555",
"= 	c #828282",
"- 	c #7B7B7B",
"; 	c #737373",
"> 	c #6C6C6D",
", 	c #686B71",
"' 	c #707983",
") 	c #6E7986",
"! 	c #67717C",
"~ 	c #5D656C",
"{ 	c #515457",
"] 	c #444547",
"^ 	c #343434",
"/ 	c #2B2B2B",
"( 	c #242424",
"_ 	c #1C1C1C",
": 	c #151515",
"< 	c #0E0E0E",
"[ 	c #070707",
"} 	c #010101",
"| 	c #C6C6C6",
"1 	c #BCBCBC",
"2 	c #ADAEB1",
"3 	c #9DAAB8",
"4 	c #97B7D2",
"5 	c #99C9E8",
"6 	c #9DD1F1",
"7 	c #9FD3F1",
"8 	c #9ECBE5",
"9 	c #8EA8B8",
"0 	c #6B7379",
"a 	c #57585B",
"b 	c #404141",
"c 	c #303030",
"d 	c #252525",
"e 	c #191919",
"f 	c #0D0D0D",
"g 	c #040404",
"h 	c #B0B0B1",
"i 	c #9CA8B6",
"j 	c #93B9D7",
"k 	c #A0D5F2",
"l 	c #AEE5F9",
"m 	c #B0E7FA",
"n 	c #ACE4FA",
"o 	c #AAE1F9",
"p 	c #AADCEF",
"q 	c #93B1BE",
"r 	c #555B60",
"s 	c #3E3F41",
"t 	c #272727",
"u 	c #1B1B1B",
"v 	c #0F0F0F",
"w 	c #747474",
"x 	c #B1B1B1",
"y 	c #A0A4AA",
"z 	c #91B0CC",
"A 	c #9ED4F2",
"B 	c #BAEEFA",
"C 	c #CDF9FC",
"D 	c #C6F4FC",
"E 	c #BBEFFC",
"F 	c #B8EDFB",
"G 	c #B9EFFB",
"H 	c #B9E8F2",
"I 	c #7D939B",
"J 	c #3D4044",
"K 	c #1E1E1E",
"L 	c #050505",
"M 	c #6E6E6E",
"N 	c #A6A6A6",
"O 	c #959CA8",
"P 	c #91BEE0",
"Q 	c #C8F6FC",
"R 	c #DFFDFE",
"S 	c #D3F6FD",
"T 	c #C6F5FD",
"U 	c #C9F9FD",
"V 	c #C9FAFD",
"W 	c #CAFAFD",
"X 	c #A9C9D1",
"Y 	c #474F59",
"Z 	c #17171A",
"` 	c #060606",
" .	c #676767",
"..	c #9C9C9C",
"+.	c #8F98A7",
"@.	c #95C6E8",
"#.	c #AAE2FA",
"$.	c #BCEEFB",
"%.	c #CDF5FC",
"&.	c #CCF6FD",
"*.	c #D3FBFE",
"=.	c #D6FEFF",
"-.	c #D7FFFF",
";.	c #D8FFFF",
">.	c #C6E5EB",
",.	c #93A5B9",
"'.	c #374151",
").	c #020306",
"!.	c #606060",
"~.	c #909090",
"{.	c #828C9C",
"].	c #93C4E6",
"^.	c #A8E0FA",
"/.	c #B1E8FB",
"(.	c #BFF1FC",
"_.	c #CEF9FE",
":.	c #DBFEFF",
"<.	c #DEFFFF",
"[.	c #E3FFFF",
"}.	c #E4FEFE",
"|.	c #CCE2E9",
"1.	c #C8D9EC",
"2.	c #90A8CA",
"3.	c #1F314D",
"4.	c #010305",
"5.	c #5A5A5A",
"6.	c #848587",
"7.	c #70819B",
"8.	c #8BB7DB",
"9.	c #A5DDF8",
"0.	c #AFE6FA",
"a.	c #C0F3FD",
"b.	c #CFFCFF",
"c.	c #DBFFFF",
"d.	c #E5FFFF",
"e.	c #EEFFFF",
"f.	c #ECFAFC",
"g.	c #C6D6E2",
"h.	c #BACCE5",
"i.	c #B4D1F7",
"j.	c #5881BE",
"k.	c #0D1A2E",
"l.	c #525252",
"m.	c #737C88",
"n.	c #6791CB",
"o.	c #83AAD8",
"p.	c #A0D2EC",
"q.	c #B0E6F9",
"r.	c #BEF3FD",
"s.	c #CDFCFF",
"t.	c #DCFFFF",
"u.	c #E7FFFF",
"v.	c #EFFBFC",
"w.	c #DAE2E7",
"x.	c #B2BFD4",
"y.	c #B7CCE9",
"z.	c #B8D6FB",
"A.	c #83B4F7",
"B.	c #395B8B",
"C.	c #020509",
"D.	c #4C4C4C",
"E.	c #677FA2",
"F.	c #73A7EE",
"G.	c #89B2E9",
"H.	c #96BADB",
"I.	c #ABD9ED",
"J.	c #BDF0FA",
"K.	c #CCFBFE",
"L.	c #D9FEFE",
"M.	c #DFF9FA",
"N.	c #D3E1E8",
"O.	c #AEB5C4",
"P.	c #A4ACC3",
"Q.	c #B7C8DF",
"R.	c #B2CEEF",
"S.	c #90BDF9",
"T.	c #5E8FD4",
"U.	c #101D2F",
"V.	c #414345",
"W.	c #7090B9",
"X.	c #8EBDFC",
"Y.	c #9BC7FC",
"Z.	c #A2C3EB",
"`.	c #A2C0DB",
" +	c #A3C4D8",
".+	c #ACCEDC",
"++	c #B2D0DE",
"@+	c #B2CBDE",
"#+	c #ACBFD8",
"$+	c #ABBAD4",
"%+	c #B0B5C3",
"&+	c #C6B598",
"*+	c #C8B084",
"=+	c #AAB0B3",
"-+	c #89ACD9",
";+	c #2E4766",
">+	c #020406",
",+	c #3A4149",
"'+	c #709ACF",
")+	c #98C4F8",
"!+	c #9FBFE4",
"~+	c #A2B8CF",
"{+	c #A4B5C6",
"]+	c #9CB2CB",
"^+	c #A5C1DF",
"/+	c #AAC5E6",
"(+	c #ABC9ED",
"_+	c #B0CEF3",
":+	c #B3D3F8",
"<+	c #B8C1C7",
"[+	c #DCC188",
"}+	c #E7BD6A",
"|+	c #CAAD77",
"1+	c #A4B1BD",
"2+	c #4D6583",
"3+	c #05090D",
"4+	c #37414D",
"5+	c #78A7DF",
"6+	c #89A6C5",
"7+	c #C3CAD1",
"8+	c #C5C6C7",
"9+	c #B4B5B7",
"0+	c #B9BCC0",
"a+	c #97A7B9",
"b+	c #B2CDEC",
"c+	c #BFD8F5",
"d+	c #BAD8FC",
"e+	c #B7D8FE",
"f+	c #BAD0E2",
"g+	c #D3C7A0",
"h+	c #EDD28B",
"i+	c #EBC16B",
"j+	c #C4AA77",
"k+	c #70767A",
"l+	c #16130E",
"m+	c #343E4A",
"n+	c #6991C0",
"o+	c #606A75",
"p+	c #CECECC",
"q+	c #BFBFA4",
"r+	c #BEB99D",
"s+	c #CBC9C7",
"t+	c #66696C",
"u+	c #546A8E",
"v+	c #5A75AD",
"w+	c #8CA9D5",
"x+	c #BFDBF8",
"y+	c #BAD9FC",
"z+	c #C3D2DB",
"A+	c #D2C399",
"B+	c #EDD18C",
"C+	c #E6BD6C",
"D+	c #9F814E",
"E+	c #372711",
"F+	c #0D0802",
"G+	c #2C363F",
"H+	c #3A5470",
"I+	c #24272A",
"J+	c #A5A5A0",
"K+	c #E4DF98",
"L+	c #E5D486",
"M+	c #A6A49F",
"N+	c #303031",
"O+	c #101B39",
"P+	c #233A7A",
"Q+	c #3F5997",
"R+	c #A5BEE1",
"S+	c #C1DEFE",
"T+	c #C9E3FC",
"U+	c #C5D3DC",
"V+	c #CDC3A0",
"W+	c #E7CC8B",
"X+	c #D0A75E",
"Y+	c #6C502F",
"Z+	c #0F0903",
"`+	c #070402",
" @	c #1F2022",
".@	c #191E23",
"+@	c #555656",
"@@	c #DCDCDC",
"#@	c #F1F0E5",
"$@	c #DCD9CD",
"%@	c #BBBBBC",
"&@	c #616161",
"*@	c #151926",
"=@	c #34436E",
"-@	c #4F669E",
";@	c #A2B8D9",
">@	c #CAE3FD",
",@	c #CDE7FE",
"'@	c #B2C7D6",
")@	c #A79C82",
"!@	c #A28966",
"~@	c #594B44",
"{@	c #1A1A1A",
"]@	c #2C2C2C",
"^@	c #A2A2A2",
"/@	c #EDEDED",
"(@	c #C5C5C5",
"_@	c #AEAEAE",
":@	c #878788",
"<@	c #4E5466",
"[@	c #67769D",
"}@	c #7487B5",
"|@	c #B2C6E1",
"1@	c #C8DFF4",
"2@	c #ABC6DE",
"3@	c #7F9CB7",
"4@	c #4A6179",
"5@	c #26282C",
"6@	c #2F251D",
"7@	c #141111",
"8@	c #09090B",
"9@	c #060607",
"0@	c #292929",
"a@	c #989898",
"b@	c #D5D5D4",
"c@	c #C2C2C2",
"d@	c #ADACAD",
"e@	c #999897",
"f@	c #7F8082",
"g@	c #768097",
"h@	c #8B99B8",
"i@	c #8595B7",
"j@	c #A9BCD0",
"k@	c #8599A8",
"l@	c #222D37",
"m@	c #091016",
"n@	c #000103",
"o@	c #010000",
"p@	c #020101",
"q@	c #2B2516",
"r@	c #8A7E56",
"s@	c #D1C193",
"t@	c #B7AB8C",
"u@	c #9E9682",
"v@	c #B2A373",
"w@	c #9D9161",
"x@	c #5F5B41",
"y@	c #2C3035",
"z@	c #242933",
"A@	c #2B3138",
"B@	c #1E2327",
"C@	c #020303",
"D@	c #272008",
"E@	c #897A19",
"F@	c #A0901C",
"G@	c #5D4F18",
"H@	c #3B3319",
"I@	c #867518",
"J@	c #A08F1A",
"K@	c #52450C",
"L@	c #070601",
"M@	c #030200",
"N@	c #0E0D00",
"O@	c #121100",
"P@	c #070600",
"Q@	c #010100",
"R@	c #0D0B00",
"S@	c #121000",
"T@	c #060500",
". . . . . . + @ # . $ % & . . . . . . . . . ",
". * = - ; > , ' ) ! ~ { ] ^ / ( _ : < [ } . ",
". = | 1 2 3 4 5 6 7 8 9 0 a b c d e f g . . ",
". - 1 h i j k l m n o p q r s t u v g . . . ",
". w x y z A B C D E F G H I J K v L . . . . ",
". M N O P o Q R S T U V W X Y Z ` . . . . . ",
".  ...+.@.#.$.%.&.*.=.-.;.>.,.'.).. . . . . ",
". !.~.{.].^./.(._.:.<.[.}.|.1.2.3.4.. . . . ",
". 5.6.7.8.9.0.a.b.c.d.e.f.g.h.i.j.k.. . . . ",
". l.m.n.o.p.q.r.s.t.u.v.w.x.y.z.A.B.C.. . . ",
". D.E.F.G.H.I.J.K.L.M.N.O.P.Q.R.S.T.U.. . . ",
". V.W.X.Y.Z.`. +.+++@+#+$+%+&+*+=+-+;+>+. . ",
". ,+'+)+!+~+{+]+^+/+(+_+:+<+[+}+|+1+2+3+. . ",
". 4+5+6+7+8+9+0+a+b+c+d+e+f+g+h+i+j+k+l+. . ",
". m+n+o+p+q+r+s+t+u+v+w+x+y+z+A+B+C+D+E+F+. ",
". G+H+I+J+K+L+M+N+O+P+Q+R+S+T+U+V+W+X+Y+Z+`+",
".  @.@+@@@#@$@%@&@*@=@-@;@>@,@T+'@)@!@~@} } ",
". {@]@^@/@@@(@_@:@<@[@}@|@1@2@3@4@5@6@7@8@9@",
". : 0@a@b@c@d@e@f@g@h@i@j@k@l@m@n@. o@p@} . ",
". v q@r@s@t@u@v@w@x@y@z@A@B@C@. . . . . . . ",
". ` D@E@F@G@H@I@J@K@L@. . . . . . . . . . . ",
". . M@N@O@P@Q@R@S@T@. . . . . . . . . . . . "};
