/* XPM */
static char * local_search_xpm[] = {
"32 32 642 2",
"  	c None",
". 	c #000000",
"+ 	c #060707",
"@ 	c #26282C",
"# 	c #23252A",
"$ 	c #050606",
"% 	c #181A1D",
"& 	c #2B2D31",
"* 	c #0D0D0E",
"= 	c #010101",
"- 	c #D9D9D9",
"; 	c #D1D1D1",
"> 	c #C9C9C9",
", 	c #C1C1C1",
"' 	c #B9B9B9",
") 	c #B0B0B1",
"! 	c #A8A9AC",
"~ 	c #9FA5AE",
"{ 	c #9CA5B0",
"] 	c #A0B0C1",
"^ 	c #ABBCD1",
"/ 	c #AABBCF",
"( 	c #9BABBA",
"_ 	c #848E96",
": 	c #72767A",
"< 	c #656669",
"[ 	c #6C6E72",
"} 	c #545454",
"| 	c #4A4A4A",
"1 	c #424242",
"2 	c #3A3A3A",
"3 	c #313131",
"4 	c #2A2A2A",
"5 	c #212121",
"6 	c #1A1A1A",
"7 	c #111111",
"8 	c #0A0A0A",
"9 	c #020202",
"0 	c #C2C2C2",
"a 	c #A4A7AE",
"b 	c #9BA8B7",
"c 	c #96B2CE",
"d 	c #95C0E2",
"e 	c #96CAEE",
"f 	c #99CFF2",
"g 	c #9CD2F4",
"h 	c #9CCFEE",
"i 	c #9DC5DF",
"j 	c #94AEC1",
"k 	c #737C85",
"l 	c #5B5C5E",
"m 	c #606267",
"n 	c #474748",
"o 	c #323232",
"p 	c #222222",
"q 	c #121212",
"r 	c #CACACA",
"s 	c #BABABA",
"t 	c #B2B2B2",
"u 	c #A4A7AC",
"v 	c #96A6B9",
"w 	c #91B7D7",
"x 	c #97CBEE",
"y 	c #A0D9F7",
"z 	c #A6DFF9",
"A 	c #A8E1F9",
"B 	c #A7E0F9",
"C 	c #A6DEF9",
"D 	c #A8DFF8",
"E 	c #A8D9F0",
"F 	c #98B9CA",
"G 	c #707C85",
"H 	c #4B4D4E",
"I 	c #53555A",
"J 	c #333333",
"K 	c #2B2B2B",
"L 	c #1B1B1B",
"M 	c #030303",
"N 	c #A8A8AB",
"O 	c #96A4B6",
"P 	c #8FB5D7",
"Q 	c #98CEF0",
"R 	c #A9E1F9",
"S 	c #B5EBFA",
"T 	c #BAEFFB",
"U 	c #B6ECFB",
"V 	c #B2E9FA",
"W 	c #ACE4FA",
"X 	c #ABE3FA",
"Y 	c #B0E7FA",
"Z 	c #B1E2F2",
"` 	c #99B9C6",
" .	c #606A71",
"..	c #383A3C",
"+.	c #3D3E41",
"@.	c #232323",
"#.	c #141414",
"$.	c #0B0B0B",
"%.	c #040404",
"&.	c #BBBBBB",
"*.	c #B3B3B3",
"=.	c #AAAAAA",
"-.	c #989FAA",
";.	c #8EABC8",
">.	c #94C9ED",
",.	c #A8E0F8",
"'.	c #BCF0FB",
").	c #CAF9FC",
"!.	c #D1FBFD",
"~.	c #C3F2FC",
"{.	c #BBEFFC",
"].	c #B5EBFB",
"^.	c #B7EDFB",
"/.	c #BBF0FB",
"(.	c #B8E6F0",
"_.	c #8BA5AF",
":.	c #414448",
"<.	c #3B3E42",
"[.	c #1C1C1C",
"}.	c #131313",
"|.	c #ABABAB",
"1.	c #A4A4A4",
"2.	c #8F9AAB",
"3.	c #8CB7DC",
"4.	c #9DD6F6",
"5.	c #C8F8FC",
"6.	c #DAFDFE",
"7.	c #E2FDFE",
"8.	c #CEF4FD",
"9.	c #C0F1FC",
"0.	c #C6F6FD",
"a.	c #C3F6FC",
"b.	c #C6F9FD",
"c.	c #C5F6FA",
"d.	c #AED2DB",
"e.	c #5E6872",
"f.	c #1F2020",
"g.	c #181819",
"h.	c #0D0D0D",
"i.	c #050505",
"j.	c #ACACAC",
"k.	c #9C9C9C",
"l.	c #8A99B0",
"m.	c #8EC3E9",
"n.	c #A3DBF8",
"o.	c #CCF9FD",
"p.	c #DFFDFE",
"q.	c #E4FBFE",
"r.	c #CFF5FD",
"s.	c #C6F5FD",
"t.	c #D0FBFE",
"u.	c #CEFCFE",
"v.	c #CEFDFE",
"w.	c #CFFEFE",
"x.	c #CFFDFE",
"y.	c #C2E8ED",
"z.	c #8FA1B1",
"A.	c #242C3B",
"B.	c #19191C",
"C.	c #9D9D9D",
"D.	c #949494",
"E.	c #8B9CB7",
"F.	c #94C9EE",
"G.	c #A5DDF9",
"H.	c #AFE6FA",
"I.	c #BBEEFB",
"J.	c #C9F3FC",
"K.	c #CCF4FC",
"L.	c #C8F6FD",
"M.	c #D1FAFE",
"N.	c #D8FEFF",
"O.	c #D6FFFF",
"P.	c #D7FFFF",
"Q.	c #D9FFFF",
"R.	c #D8FFFF",
"S.	c #CCEEF2",
"T.	c #BED2DD",
"U.	c #7F93B1",
"V.	c #353F53",
"W.	c #000001",
"X.	c #959595",
"Y.	c #8D8D8D",
"Z.	c #8495B0",
"`.	c #95CAEE",
" +	c #A5DEF9",
".+	c #B1E8FB",
"++	c #B8ECFB",
"@+	c #C1F3FC",
"#+	c #CEF9FE",
"$+	c #DBFDFF",
"%+	c #DCFFFF",
"&+	c #DFFFFF",
"*+	c #E1FFFF",
"=+	c #E1FEFE",
"-+	c #D0ECF0",
";+	c #C2D3E0",
">+	c #D1E4F8",
",+	c #849ABB",
"'+	c #1C2E4B",
")+	c #969696",
"!+	c #848484",
"~+	c #7487A5",
"{+	c #8FC2E7",
"]+	c #A4DCF9",
"^+	c #A9E1FA",
"/+	c #BDF1FB",
"(+	c #C8F7FD",
"_+	c #D3FDFE",
":+	c #DAFEFF",
"<+	c #DDFFFF",
"[+	c #E3FFFF",
"}+	c #E7FFFF",
"|+	c #EAFFFF",
"1+	c #E8FDFE",
"2+	c #CEE2E7",
"3+	c #B4C4D6",
"4+	c #D1E3FA",
"5+	c #BDD6F9",
"6+	c #5881C0",
"7+	c #102241",
"8+	c #8E8E8E",
"9+	c #868686",
"0+	c #767980",
"a+	c #6782AD",
"b+	c #89B4DA",
"c+	c #A2D9F5",
"d+	c #A8E0FA",
"e+	c #ADE5FA",
"f+	c #BAEFFC",
"g+	c #C6F8FE",
"h+	c #D1FEFF",
"i+	c #E0FFFF",
"j+	c #E8FFFF",
"k+	c #EEFFFF",
"l+	c #F2FEFE",
"m+	c #EBF8FA",
"n+	c #C9D7E1",
"o+	c #B5C5DE",
"p+	c #B7CBE7",
"q+	c #C2DCFD",
"r+	c #8BB8F9",
"s+	c #3863A6",
"t+	c #050E1E",
"u+	c #7D7D7D",
"v+	c #657B9C",
"w+	c #6494DA",
"x+	c #83A7D1",
"y+	c #9BCDE9",
"z+	c #ABE2F8",
"A+	c #AEE6FA",
"B+	c #B8EEFC",
"C+	c #C4F8FE",
"D+	c #D0FEFF",
"E+	c #E2FFFF",
"F+	c #F1FFFF",
"G+	c #F5FDFD",
"H+	c #DDE6EA",
"I+	c #B5C1D4",
"J+	c #BCD2EF",
"K+	c #B4C9E8",
"L+	c #C3DEFE",
"M+	c #9EC8FE",
"N+	c #6198E8",
"O+	c #264167",
"P+	c #7F7F7F",
"Q+	c #6C727A",
"R+	c #668DC0",
"S+	c #71AAF8",
"T+	c #81A3D5",
"U+	c #93BADB",
"V+	c #A4D6ED",
"W+	c #B3E8F9",
"X+	c #BBF0FC",
"Y+	c #CFFDFF",
"Z+	c #E8FEFE",
"`+	c #EEFCFD",
" @	c #E1EAEE",
".@	c #B5BBC8",
"+@	c #9CA4BB",
"@@	c #BACEEA",
"#@	c #B3C7E3",
"$@	c #BDDBFE",
"%@	c #98C4FE",
"&@	c #7AB1FE",
"*@	c #4E7BB8",
"=@	c #0A172B",
"-@	c #777777",
";@	c #62799A",
">@	c #689EE9",
",@	c #82B6FE",
"'@	c #8DBAF6",
")@	c #8CAAD1",
"!@	c #9BBEDC",
"~@	c #A9D5E9",
"{@	c #B7E8F5",
"]@	c #CDFDFE",
"^@	c #D5FEFE",
"/@	c #DCFCFD",
"(@	c #DCF4F6",
"_@	c #D1E2E8",
":@	c #B8C2D0",
"<@	c #989BB0",
"[@	c #9EA2B9",
"}@	c #B7C7DD",
"|@	c #B8C7DA",
"1@	c #B5CDEB",
"2@	c #9EC4F2",
"3@	c #88B9FB",
"4@	c #67A1F3",
"5@	c #254067",
"6@	c #6B6C6E",
"7@	c #6A83A4",
"8@	c #84B6FA",
"9@	c #8EBDFE",
"0@	c #97C5FE",
"a@	c #A3C8F7",
"b@	c #98B3D6",
"c@	c #9CBBD5",
"d@	c #A5CADE",
"e@	c #ADD3E1",
"f@	c #B6DDE5",
"g@	c #BCDEE5",
"h@	c #BDDAE3",
"i@	c #BAD0DF",
"j@	c #B1C2D5",
"k@	c #AFBED5",
"l@	c #A0A8C1",
"m@	c #ABB2C7",
"n@	c #B8B4B5",
"o@	c #C6B79A",
"p@	c #C3B08E",
"q@	c #B0B3B1",
"r@	c #99ADCA",
"s@	c #86B6F8",
"t@	c #44658F",
"u@	c #020810",
"v@	c #61676F",
"w@	c #6386B1",
"x@	c #93C1FB",
"y@	c #9DC8FE",
"z@	c #A3CBFB",
"A@	c #A6CDF7",
"B@	c #AFD1F4",
"C@	c #B1CCE8",
"D@	c #98AFCB",
"E@	c #94ABC5",
"F@	c #9AB3CC",
"G@	c #9BB3CE",
"H@	c #9CB3D2",
"I@	c #A1BADC",
"J@	c #9EB8DC",
"K@	c #AAC5E8",
"L@	c #BCD4F3",
"M@	c #B1C0D3",
"N@	c #C3AE8D",
"O@	c #DEB56C",
"P@	c #DEAB52",
"Q@	c #C5AA7A",
"R@	c #A9B7C1",
"S@	c #A2B3C6",
"T@	c #6291CC",
"U@	c #101E2F",
"V@	c #5A6879",
"W@	c #6596D3",
"X@	c #94C3FC",
"Y@	c #9BC4F0",
"Z@	c #9DB9D7",
"`@	c #9EAEC0",
" #	c #9DA8B0",
".#	c #9EA8B0",
"+#	c #9EAFC1",
"@#	c #A2BDDC",
"##	c #AFCEF1",
"$#	c #B2D0F3",
"%#	c #B2D0F5",
"&#	c #B3D5FC",
"*#	c #B9DAFE",
"=#	c #B6D8FE",
"-#	c #B0D5FE",
";#	c #B3C6DA",
">#	c #CEBA8E",
",#	c #F0D692",
"'#	c #F2CB76",
")#	c #E3AE4D",
"!#	c #C7A972",
"~#	c #A8B9CB",
"{#	c #869CB7",
"]#	c #18283A",
"^#	c #59697D",
"/#	c #72A8E9",
"(#	c #92BDEC",
"_#	c #8AA2BA",
":#	c #C0C6CC",
"<#	c #DADBDB",
"[#	c #BCBCBB",
"}#	c #B2B2B3",
"|#	c #B9BABB",
"1#	c #A4ABB2",
"2#	c #97AEC6",
"3#	c #B7D5F6",
"4#	c #CCE5FE",
"5#	c #CEE6FE",
"6#	c #BFDCFE",
"7#	c #B5D6FE",
"8#	c #B4D6FE",
"9#	c #B6D2ED",
"0#	c #C9C2A7",
"a#	c #E2C989",
"b#	c #F4DA94",
"c#	c #F2CC77",
"d#	c #E2AC4D",
"e#	c #BEA67A",
"f#	c #8EA7C3",
"g#	c #3D3935",
"h#	c #010100",
"i#	c #566679",
"j#	c #7EB2ED",
"k#	c #708BAA",
"l#	c #80868C",
"m#	c #E8E8E7",
"n#	c #E0E0E2",
"o#	c #9D9EA1",
"p#	c #B6B7BA",
"q#	c #EAEAEA",
"r#	c #BFBEBE",
"s#	c #6D7379",
"t#	c #869DB7",
"u#	c #9BB8DD",
"v#	c #98B3DA",
"w#	c #AFCDF0",
"x#	c #C2DFFD",
"y#	c #B2D5FE",
"z#	c #C4D8E9",
"A#	c #C7BC9E",
"B#	c #E1C888",
"C#	c #F4DA95",
"D#	c #F2CB77",
"E#	c #DCAB52",
"F#	c #B3A07B",
"G#	c #474035",
"H#	c #241606",
"I#	c #020100",
"J#	c #506174",
"K#	c #6A9BD3",
"L#	c #3C4A5B",
"M#	c #585858",
"N#	c #D5D5D5",
"O#	c #D3D4BA",
"P#	c #ACA960",
"Q#	c #C4B882",
"R#	c #DBD7CF",
"S#	c #9F9F9F",
"T#	c #373736",
"U#	c #25334E",
"V#	c #2C4688",
"W#	c #27438B",
"X#	c #526FAB",
"Y#	c #A7C3E3",
"Z#	c #CCE6FD",
"`#	c #B8D8FE",
" $	c #C2DFFE",
".$	c #C1D4E6",
"+$	c #C1B79C",
"@$	c #DDC68B",
"#$	c #F3D995",
"$$	c #F0C975",
"%$	c #D9A851",
"&$	c #84632F",
"*$	c #2B1B07",
"=$	c #221507",
"-$	c #010000",
";$	c #4A5B6C",
">$	c #4A7098",
",$	c #171E24",
"'$	c #99999B",
")$	c #DCDDB6",
"!$	c #F0E359",
"~$	c #F1D771",
"{$	c #C8C2B7",
"]$	c #646464",
"^$	c #0F0F0F",
"/$	c #040A1B",
"($	c #1A2F69",
"_$	c #223A81",
":$	c #1E377E",
"<$	c #6C86B9",
"[$	c #C5DEF7",
"}$	c #BFDDFE",
"|$	c #C4E0FE",
"1$	c #C4D7E8",
"2$	c #BEB9A4",
"3$	c #DBC68D",
"4$	c #F1D894",
"5$	c #EBC474",
"6$	c #C08F42",
"7$	c #5F4327",
"8$	c #090601",
"9$	c #201308",
"0$	c #353B41",
"a$	c #192633",
"b$	c #080909",
"c$	c #CFCFCF",
"d$	c #F9FAF6",
"e$	c #F2ECC6",
"f$	c #E4DCC2",
"g$	c #D5D5D7",
"h$	c #979797",
"i$	c #04050A",
"j$	c #1A2647",
"k$	c #354A83",
"l$	c #354D8D",
"m$	c #617AB0",
"n$	c #BED4EF",
"o$	c #C6E1FE",
"p$	c #C8E3FE",
"q$	c #CFE8FE",
"r$	c #C9E4FE",
"s$	c #BFD6EA",
"t$	c #BBB7A4",
"u$	c #D1BA86",
"v$	c #D6B97E",
"w$	c #AF8F64",
"x$	c #69574E",
"y$	c #2D2D2D",
"z$	c #151616",
"A$	c #2C2C2C",
"B$	c #FBFBFB",
"C$	c #F4F4F4",
"D$	c #E4E4E3",
"E$	c #D3D3D3",
"F$	c #C3C3C3",
"G$	c #B4B4B4",
"H$	c #6D6D6D",
"I$	c #1A1B1E",
"J$	c #262C41",
"K$	c #44547E",
"L$	c #50649C",
"M$	c #748BB9",
"N$	c #C8DCF0",
"O$	c #D1E9FE",
"P$	c #CBE6FE",
"Q$	c #BEDFFC",
"R$	c #92B2D0",
"S$	c #7B7369",
"T$	c #8C7459",
"U$	c #706059",
"V$	c #312D32",
"W$	c #636363",
"X$	c #E1E1E1",
"Y$	c #E4E4E4",
"Z$	c #A6A6A6",
"`$	c #878787",
" %	c #4B4E58",
".%	c #5F6C8F",
"+%	c #7182AD",
"@%	c #6D7FAF",
"#%	c #889CC5",
"$%	c #CDE1F3",
"%%	c #D3E9FC",
"&%	c #C1DBF2",
"*%	c #AECFEB",
"=%	c #81A4C5",
"-%	c #556F88",
";%	c #263E58",
">%	c #0C0E11",
",%	c #20150E",
"'%	c #231C17",
")%	c #1A1A21",
"!%	c #252525",
"~%	c #757575",
"{%	c #E7E7E7",
"]%	c #E3E3E3",
"^%	c #D2D2D2",
"/%	c #707687",
"(%	c #8E9BBD",
"_%	c #96A5C9",
":%	c #899AC2",
"<%	c #9BAED0",
"[%	c #D3E5F5",
"}%	c #BBD3E5",
"|%	c #4A5F74",
"1%	c #293843",
"2%	c #111E2A",
"3%	c #000409",
"4%	c #030101",
"5%	c #040303",
"6%	c #030304",
"7%	c #1E1E1E",
"8%	c #151515",
"9%	c #343434",
"0%	c #A4A4A2",
"a%	c #D0CECC",
"b%	c #BFBEBD",
"c%	c #A2A2A3",
"d%	c #959392",
"e%	c #8D8A88",
"f%	c #6D6F74",
"g%	c #667185",
"h%	c #808DA7",
"i%	c #7683A0",
"j%	c #7C8DA7",
"k%	c #9AADBA",
"l%	c #7C8F99",
"m%	c #10171E",
"n%	c #161616",
"o%	c #201A0D",
"p%	c #5C5027",
"q%	c #B4A36F",
"r%	c #DAC691",
"s%	c #CCB985",
"t%	c #A99F87",
"u%	c #9C947E",
"v%	c #B9A76F",
"w%	c #C0AD72",
"x%	c #A0915A",
"y%	c #776A33",
"z%	c #212015",
"A%	c #0A0C0F",
"B%	c #090A0F",
"C%	c #090C0F",
"D%	c #0B0D10",
"E%	c #1E1707",
"F%	c #8F7A1D",
"G%	c #E6CF30",
"H%	c #E8D22F",
"I%	c #B59825",
"J%	c #5C4E29",
"K%	c #4F4529",
"L%	c #A48B23",
"M%	c #E0C729",
"N%	c #E3CB2B",
"O%	c #A9901C",
"P%	c #221C03",
"Q%	c #1E1900",
"R%	c #3B3700",
"S%	c #3D3A00",
"T%	c #272100",
"U%	c #040300",
"V%	c #1C1700",
"W%	c #393400",
"X%	c #3A3500",
"Y%	c #1F1A00",
". . . . . . . . . . . . . . . . . . . . . . . . . . . . . . . . ",
". . . . . . . . . + @ # $ . . % & * = . . . . . . . . . . . . . ",
". . - ; > , ' ) ! ~ { ] ^ / ( _ : < [ } | 1 2 3 4 5 6 7 8 9 . . ",
". . ; > 0 ' ) a b c d e f g h i j k l m n 2 o 4 p 6 q 8 9 . . . ",
". . r 0 s t u v w x y z A B C D E F G H I J K p L q 8 M . . . . ",
". . 0 s t N O P Q R S T U V W X Y Z `  ...+.@.L #.$.%.. . . . . ",
". . &.*.=.-.;.>.,.'.).!.~.{.{.].^./.(._.:.<.[.}.$.%.. . . . . . ",
". . *.|.1.2.3.4.V 5.6.7.8.9.0.a.a.b.c.d.e.f.g.h.i.. . . . . . . ",
". . j.1.k.l.m.n.U o.p.q.r.s.t.u.v.w.x.y.z.A.B.i.. . . . . . . . ",
". . 1.C.D.E.F.G.H.I.J.K.L.M.N.O.P.Q.R.S.T.U.V.W.. . . . . . . . ",
". . C.X.Y.Z.`. +W .+++@+#+$+%+%+&+*+=+-+;+>+,+'+. . . . . . . . ",
". . )+Y.!+~+{+]+^+V /+(+_+:+<+[+}+|+1+2+3+4+5+6+7+. . . . . . . ",
". . 8+9+0+a+b+c+d+e+f+g+h+R.i+j+k+l+m+n+o+p+q+r+s+t+. . . . . . ",
". . 9+u+v+w+x+y+z+A+B+C+D+Q.E+|+F+G+H+I+J+K+L+M+N+O+W.. . . . . ",
". . P+Q+R+S+T+U+V+W+X+C+Y+R.i+Z+`+ @.@+@@@#@$@%@&@*@=@. . . . . ",
". . -@;@>@,@'@)@!@~@{@a.]@^@/@(@_@:@<@[@}@|@1@2@3@4@5@. . . . . ",
". . 6@7@8@9@0@a@b@c@d@e@f@g@h@i@j@k@l@m@n@o@p@q@r@s@t@u@. . . . ",
". . v@w@x@y@z@A@B@C@D@E@F@G@H@I@J@K@L@M@N@O@P@Q@R@S@T@U@. . . . ",
". . V@W@X@Y@Z@`@ #.#+#@###$#%#&#*#=#-#;#>#,#'#)#!#~#{#]#. . . . ",
". . ^#/#(#_#:#<#[#}#|#1#2#3#4#5#6#7#8#9#0#a#b#c#d#e#f#g#h#. . . ",
". . i#j#k#l#m#n#o#p#q#r#s#t#u#v#w#x#6#y#z#A#B#C#D#E#F#G#H#I#. . ",
". . J#K#L#M#N#O#P#Q#R#S#T#U#V#W#X#Y#Z#`# $.$+$@$#$$$%$&$*$=$-$. ",
". . ;$>$,$L '$)$!$~${$]$^$/$($_$:$<$[$}$|$5#1$2$3$4$5$6$7$8$9$. ",
". . 0$a$b$} c$d$e$f$g$h$3 i$j$k$l$m$n$o$p$q$r$s$t$u$v$w$x$. . . ",
". . y$z$A$*.B$C$D$E$F$G$H$I$J$K$L$M$N$5#4#O$P$Q$R$S$T$U$V$. i.. ",
". . 4 [.W$X$C$Y$E$F$*.Z$`$ %.%+%@%#%$%%%&%*%=%-%;%>%,%'%M i.)%. ",
". . !%[.~%{%]%^%0 *.1.h$!+/%(%_%:%<%[%}%|%1%2%3%. . . 4%5%6%. . ",
". . 7%8%9%0%a%b%) c%d%e%f%g%h%h%i%j%k%l%m%. . . . . . . . . . . ",
". . n%o%p%q%r%s%t%u%v%w%x%y%z%A%B%C%>%D%. . . . . . . . . . . . ",
". . ^$E%F%G%H%I%J%K%L%M%N%O%P%. . . . . . . . . . . . . . . . . ",
". . . -$Q%R%S%T%U%. V%W%X%Y%I#. . . . . . . . . . . . . . . . . ",
". . . . . . . . . . . . . . . . . . . . . . . . . . . . . . . . "};
