/* XPM */
static char * mimetype_recycled_xpm[] = {
"16 16 156 2",
"  	c None",
". 	c #666666",
"+ 	c #FFFFFF",
"@ 	c #7996C2",
"# 	c #1757BA",
"$ 	c #1B417B",
"% 	c #FFFAFF",
"& 	c #EDE1D5",
"* 	c #5D78A1",
"= 	c #2C79F1",
"- 	c #4A84E4",
"; 	c #8EB290",
"> 	c #77AA3A",
", 	c #5F9320",
"' 	c #78A142",
") 	c #98B29A",
"! 	c #D5CED9",
"~ 	c #BDB1B3",
"{ 	c #144FAA",
"] 	c #2676EE",
"^ 	c #4382E9",
"/ 	c #1C7A00",
"( 	c #ACD600",
"_ 	c #E5FE00",
": 	c #5FAA06",
"< 	c #378800",
"[ 	c #769F00",
"} 	c #44671D",
"| 	c #AFA8B3",
"1 	c #3960A8",
"2 	c #2B5494",
"3 	c #6883AA",
"4 	c #5C76A1",
"5 	c #287816",
"6 	c #F7FF48",
"7 	c #CBF440",
"8 	c #82C24A",
"9 	c #5DAE5F",
"0 	c #379358",
"a 	c #85BD1C",
"b 	c #8EAF00",
"c 	c #375D28",
"d 	c #B5ADC2",
"e 	c #C5BDB6",
"f 	c #E0D7CA",
"g 	c #C4BFB8",
"h 	c #C4EE5B",
"i 	c #C5F463",
"j 	c #51A86C",
"k 	c #54AC75",
"l 	c #76C489",
"m 	c #74C390",
"n 	c #378140",
"o 	c #CDEB2E",
"p 	c #3A7B00",
"q 	c #95A1A5",
"r 	c #ECE5EA",
"s 	c #E4E3E2",
"t 	c #BCBCB9",
"u 	c #DAFF54",
"v 	c #60B168",
"w 	c #5DAF7B",
"x 	c #68B476",
"y 	c #66B16A",
"z 	c #63AE82",
"A 	c #ACD34C",
"B 	c #FBFF46",
"C 	c #6BB61D",
"D 	c #507A68",
"E 	c #FCF1FF",
"F 	c #E6E5E6",
"G 	c #B9B9B9",
"H 	c #2D5B00",
"I 	c #A1E834",
"J 	c #4A9F6D",
"K 	c #76B779",
"L 	c #CFE44A",
"M 	c #A0CD44",
"N 	c #9BC746",
"O 	c #FFFF52",
"P 	c #F5FF45",
"Q 	c #75C62D",
"R 	c #407059",
"S 	c #F3E7F5",
"T 	c #DFDEDF",
"U 	c #B5B5B5",
"V 	c #88D51A",
"W 	c #53A075",
"X 	c #D1EF53",
"Y 	c #FFFF59",
"Z 	c #F6FF57",
"` 	c #F6FF55",
" .	c #EFFF4D",
"..	c #DBFF35",
"+.	c #62B84C",
"@.	c #537462",
"#.	c #E9DEEA",
"$.	c #D4D3D4",
"%.	c #B1B1B1",
"&.	c #77C008",
"*.	c #3B8E3E",
"=.	c #E4FF46",
"-.	c #F8FF55",
";.	c #F6FF52",
">.	c #F4FF49",
",.	c #D7FF31",
"'.	c #A5E95B",
").	c #458C5A",
"!.	c #768179",
"~.	c #DCD5DD",
"{.	c #C8C7C8",
"].	c #ADADAD",
"^.	c #2B5C00",
"/.	c #2C9023",
"(.	c #66AD2A",
"_.	c #FFFF4A",
":.	c #B7EC3A",
"<.	c #7BC639",
"[.	c #6FC35F",
"}.	c #5AAB6E",
"|.	c #2C5732",
"1.	c #BEB5BF",
"2.	c #C9C7C9",
"3.	c #BABABA",
"4.	c #A9A9A9",
"5.	c #054C00",
"6.	c #005D05",
"7.	c #7CC00C",
"8.	c #76C53A",
"9.	c #3D9867",
"0.	c #3D8A4D",
"a.	c #1D5321",
"b.	c #969398",
"c.	c #CEC7CE",
"d.	c #B5B4B5",
"e.	c #B0B0B0",
"f.	c #A5A5A5",
"g.	c #72927B",
"h.	c #307136",
"i.	c #3C7D33",
"j.	c #45744D",
"k.	c #617863",
"l.	c #B0A9B0",
"m.	c #D1CBD1",
"n.	c #BDBEBD",
"o.	c #AFAFAF",
"p.	c #A8A8A8",
"q.	c #D8CAD7",
"r.	c #C3B8C6",
"s.	c #ABA3B0",
"t.	c #B6ACB7",
"u.	c #C9BFC9",
"v.	c #C3BFC3",
"w.	c #ABABAB",
"x.	c #A6A6A6",
"y.	c #A4A4A4",
"      .                         ",
"      + + + + + @ # $           ",
"      % + + + + & * = -         ",
"      ; > , ' ) ! ~ { ] ^       ",
"    / ( _ : < [ } | 1 2 3 4     ",
"  5 6 7 8 9 0 a b c d e f g     ",
"  h i j k l m n o p q r s t     ",
"  u v w x y z A B C D E F G     ",
"H I J K L M N O P Q R S T U     ",
"  V W X Y Z `  ...+.@.#.$.%.    ",
"  &.*.=.-.;.>.,.'.).!.~.{.].    ",
"  ^./.(._.:.<.[.}.|.1.2.3.4.    ",
"    5.6.7.8.9.0.a.b.c.d.e.f.    ",
"      g.h.i.j.k.l.m.n.%.o.p.    ",
"      q.r.s.t.u.v.d.w.f.x.y.    ",
"                                "};
