/* XPM */
static char * mimetype_rpm_xpm[] = {
"16 16 121 2",
"  	c None",
". 	c #6A6A6A",
"+ 	c #3D5372",
"@ 	c #FFFFFF",
"# 	c #FDF9F4",
"$ 	c #7892BD",
"% 	c #185DC3",
"& 	c #24529A",
"* 	c #FDFDFD",
"= 	c #FEFEFE",
"- 	c #F8F4F0",
"; 	c #DDD2C1",
"> 	c #54719A",
", 	c #2773E7",
"' 	c #5091FC",
") 	c #FCFCFC",
"! 	c #F4F4F2",
"~ 	c #CEC9C1",
"{ 	c #A29E9C",
"] 	c #0847A4",
"^ 	c #1B68DD",
"/ 	c #4184EB",
"( 	c #FAFAF9",
"_ 	c #CAC7C3",
": 	c #ADAAA5",
"< 	c #275394",
"[ 	c #3E5F8F",
"} 	c #7D8CA4",
"| 	c #667EA1",
"1 	c #EFEFEF",
"2 	c #DCDBDB",
"3 	c #CACAC9",
"4 	c #C7CDCA",
"5 	c #BCC5C2",
"6 	c #CBC8BB",
"7 	c #E4DDD1",
"8 	c #C8C3BB",
"9 	c #C1C2C1",
"0 	c #7B7C7B",
"a 	c #787978",
"b 	c #6C6C6C",
"c 	c #676767",
"d 	c #676D6C",
"e 	c #87696A",
"f 	c #CD9F9C",
"g 	c #DDE9E7",
"h 	c #EAF6F5",
"i 	c #BCBEBE",
"j 	c #000000",
"k 	c #303230",
"l 	c #AFAFAF",
"m 	c #F0F0F0",
"n 	c #FBFFFF",
"o 	c #D3CDCD",
"p 	c #B25C58",
"q 	c #AD3330",
"r 	c #D7D1D2",
"s 	c #BFCDCD",
"t 	c #090907",
"u 	c #CDCDCD",
"v 	c #F9F9F9",
"w 	c #F7FFFF",
"x 	c #B62B26",
"y 	c #B61914",
"z 	c #B0B8B9",
"A 	c #282827",
"B 	c #F4F4F4",
"C 	c #E8E8E8",
"D 	c #F1F0F0",
"E 	c #EBEDEE",
"F 	c #EAFFFF",
"G 	c #BC817E",
"H 	c #B30000",
"I 	c #9D6464",
"J 	c #0A0C0A",
"K 	c #2E2F2E",
"L 	c #BEBFC0",
"M 	c #979697",
"N 	c #A0A2A0",
"O 	c #EEEFEE",
"P 	c #9E9F9E",
"Q 	c #A5A7A5",
"R 	c #898D8C",
"S 	c #838E8D",
"T 	c #635F5F",
"U 	c #706868",
"V 	c #474947",
"W 	c #737474",
"X 	c #BABABA",
"Y 	c #969596",
"Z 	c #535756",
"` 	c #333B39",
" .	c #2B3030",
"..	c #7D7D7D",
"+.	c #050605",
"@.	c #858585",
"#.	c #9C9C9C",
"$.	c #AAABAA",
"%.	c #040605",
"&.	c #606260",
"*.	c #3A3939",
"=.	c #1F1F1F",
"-.	c #090A0A",
";.	c #7B7B7B",
">.	c #B7B7B7",
",.	c #D6D6D6",
"'.	c #787877",
").	c #B9B9B9",
"!.	c #80807E",
"~.	c #939393",
"{.	c #8D8D8D",
"].	c #747474",
"^.	c #C3C3C3",
"/.	c #9D9D9D",
"(.	c #C4C4C4",
"_.	c #C6C6C7",
":.	c #C0C0C0",
"<.	c #C7C7C7",
"[.	c #BABABB",
"}.	c #B2B2B2",
"|.	c #B3B3B3",
"      .       +                 ",
"      @ @ @ @ # $ % &           ",
"      * = * @ - ; > , '         ",
"      ) * * @ ! ~ { ] ^ /       ",
"      = @ @ @ ( _ : < [ } |     ",
"      @ @ @ 1 2 3 4 5 6 7 8     ",
"      9 0 a b c d e f g h i     ",
"    j k l m @ @ n o p q r s     ",
"  t j u @ @ ) v @ @ w x y z     ",
"  j A B @ @ C u D E F G H I     ",
"  J K L M N O @ P Q R S T U     ",
"j j V . j W t X j Y j Z `  .    ",
"j j   ..+.@.j #.j $.%.&.*.=.    ",
"      @.-.;.>.,.'.).!.~.{.].    ",
"      ^./.(._.:.<.).[.}.|.l     ",
"                                "};
