/* XPM */
static char * mimetype_html_xpm[] = {
"16 16 155 2",
"  	c None",
". 	c #31496B",
"+ 	c #727272",
"@ 	c #FFFFFF",
"# 	c #F2F0EE",
"$ 	c #6287BA",
"% 	c #175DC6",
"& 	c #214B8C",
"* 	c #5C5C5C",
"= 	c #FBFAFA",
"- 	c #FFFFFE",
"; 	c #F7F2ED",
"> 	c #D5CBBB",
", 	c #4D6C98",
"' 	c #2E7AF2",
") 	c #4C89ED",
"! 	c #5D5C5B",
"~ 	c #FFFFF9",
"{ 	c #FBF4EC",
"] 	c #CEC6BB",
"^ 	c #A29F9C",
"/ 	c #094BAB",
"( 	c #206CE1",
"_ 	c #4286EC",
": 	c #6D6056",
"< 	c #D4E5F6",
"[ 	c #B0D3F6",
"} 	c #BFDDF9",
"| 	c #DCE0E3",
"1 	c #CFC3B6",
"2 	c #AFA8A1",
"3 	c #285393",
"4 	c #46628B",
"5 	c #7E8CA4",
"6 	c #667FA1",
"7 	c #45505C",
"8 	c #92DEFF",
"9 	c #3CA9FF",
"0 	c #1E93FE",
"a 	c #0B89FA",
"b 	c #3696EB",
"c 	c #9DB4C7",
"d 	c #C4BBB3",
"e 	c #BCB6B0",
"f 	c #CBC3B6",
"g 	c #E4DCD1",
"h 	c #C8C2BA",
"i 	c #72B3E0",
"j 	c #B6FFFF",
"k 	c #58BEFF",
"l 	c #55B6FC",
"m 	c #90C7F2",
"n 	c #CDF0FF",
"o 	c #8FD0FF",
"p 	c #9FB9CF",
"q 	c #ECE2D6",
"r 	c #DDDBD8",
"s 	c #E4E4E2",
"t 	c #BBBBBA",
"u 	c #B8FFFF",
"v 	c #61C1FF",
"w 	c #5DC1FF",
"x 	c #6CCDFD",
"y 	c #7BC3ED",
"z 	c #AEE0FF",
"A 	c #ADE0FF",
"B 	c #74ACD8",
"C 	c #E0DEDE",
"D 	c #EDE8E6",
"E 	c #E2E2E1",
"F 	c #B9B9B9",
"G 	c #2683D4",
"H 	c #6AC8FF",
"I 	c #56BCFF",
"J 	c #70C8FA",
"K 	c #A5D4F2",
"L 	c #96D4F5",
"M 	c #A5D4F1",
"N 	c #64A7E1",
"O 	c #1977D4",
"P 	c #A9BDCC",
"Q 	c #F4EAE3",
"R 	c #DADAD9",
"S 	c #B6B6B6",
"T 	c #1B85E8",
"U 	c #53B4FF",
"V 	c #66C4FF",
"W 	c #6FC8F6",
"X 	c #90CEFF",
"Y 	c #88CDFF",
"Z 	c #72B5E0",
"` 	c #69BEFF",
" .	c #1D7DE3",
"..	c #8AA4B8",
"+.	c #ECE2D9",
"@.	c #D0CFCE",
"#.	c #B2B2B2",
"$.	c #1061AE",
"%.	c #50B9FF",
"&.	c #66C3FF",
"*.	c #66C0F6",
"=.	c #46A0DC",
"-.	c #51A4E1",
";.	c #5DB2E3",
">.	c #70C4FF",
",.	c #0F66C4",
"'.	c #9CA7AD",
").	c #DDD5CF",
"!.	c #C6C5C5",
"~.	c #ADADAD",
"{.	c #32A2FF",
"].	c #53B3FF",
"^.	c #5FBCFF",
"/.	c #65BDF5",
"(.	c #57ADEA",
"_.	c #6EC2FF",
":.	c #56A5FC",
"<.	c #1E5B95",
"[.	c #CBC1B9",
"}.	c #C5C1BF",
"|.	c #B8B8B8",
"1.	c #A9A9A9",
"2.	c #0E4B86",
"3.	c #4EADFF",
"4.	c #96D4FF",
"5.	c #B2E2FF",
"6.	c #97D5FF",
"7.	c #A4D8FF",
"8.	c #6C95B3",
"9.	c #93999B",
"0.	c #CFC8C1",
"a.	c #B2B1B0",
"b.	c #AEAEAE",
"c.	c #A5A5A5",
"d.	c #62584D",
"e.	c #AFC9DA",
"f.	c #7EB2D9",
"g.	c #69ABE0",
"h.	c #70AAD6",
"i.	c #7B9BB0",
"j.	c #A4A7A7",
"k.	c #D2CBC4",
"l.	c #BBBAB9",
"m.	c #AFAFAE",
"n.	c #A8A8A8",
"o.	c #686460",
"p.	c #D5C9C1",
"q.	c #B3ADA7",
"r.	c #A8A6A3",
"s.	c #ACA8A5",
"t.	c #BAB4AE",
"u.	c #C1BCB7",
"v.	c #B3B2B1",
"w.	c #ABABAB",
"x.	c #A4A4A4",
"              .                 ",
"    + @ @ @ @ # $ % &           ",
"    * @ = - @ ; > , ' )         ",
"    ! @ ~ @ @ { ] ^ / ( _       ",
"    : @ < [ } | 1 2 3 4 5 6     ",
"    7 8 9 0 a b c d e f g h     ",
"    i j k l m n o p q r s t     ",
"    u v w x y z A B C D E F     ",
"  G H I J K L M N O P Q R S     ",
"  T U V W X Y Z `  ...+.@.#.    ",
"  $.%.&.*.=.-.;.>.,.'.).!.~.    ",
"    {.].^./.(._.:.<.[.}.|.1.    ",
"    2.3.4.5.6.7.8.9.0.a.b.c.    ",
"    d.e.f.g.h.i.j.k.l.m.b.n.    ",
"    o.p.q.r.s.t.u.v.w.x.c.x.    ",
"                                "};
