/* XPM */
static char * mimetype_debian_xpm[] = {
"16 16 134 2",
"  	c None",
". 	c #C6C6D5",
"+ 	c #9494AD",
"@ 	c #FBFBFC",
"# 	c #F8F8FA",
"$ 	c #F4F4F7",
"% 	c #EEEEF2",
"& 	c #EAEAF0",
"* 	c #DEDEE7",
"= 	c #E0E0E9",
"- 	c #C4959A",
"; 	c #D25254",
"> 	c #CC494E",
", 	c #CE6A6B",
"' 	c #E0C7C9",
") 	c #EAE7EB",
"! 	c #E1E1E9",
"~ 	c #C9C9D7",
"{ 	c #C0020C",
"] 	c #BF0309",
"^ 	c #AD2F32",
"/ 	c #A65455",
"( 	c #B40F0F",
"_ 	c #BC0000",
": 	c #C32323",
"< 	c #D2BBBF",
"[ 	c #DDDDE6",
"} 	c #BD0005",
"| 	c #83151B",
"1 	c #8E8188",
"2 	c #C9CACA",
"3 	c #DEDFE0",
"4 	c #D3D3D4",
"5 	c #B59697",
"6 	c #B81A1A",
"7 	c #BD1717",
"8 	c #C2BDC3",
"9 	c #DBDBE5",
"0 	c #CDCDDA",
"a 	c #BFBFD0",
"b 	c #C80000",
"c 	c #690000",
"d 	c #BDBDCB",
"e 	c #FAFAFB",
"f 	c #F1DFE1",
"g 	c #ECE2E4",
"h 	c #EAEAED",
"i 	c #D1B6B8",
"j 	c #C00000",
"k 	c #AC8082",
"l 	c #D0D0DC",
"m 	c #C4C4D3",
"n 	c #C2C2D1",
"o 	c #BD0000",
"p 	c #C8C8D6",
"q 	c #E6B4B4",
"r 	c #C56C6D",
"s 	c #C09B9C",
"t 	c #D6C8C9",
"u 	c #EFEEF2",
"v 	c #C72526",
"w 	c #9F6D70",
"x 	c #CBCBD9",
"y 	c #870000",
"z 	c #D7C3CD",
"A 	c #BF3D3D",
"B 	c #BFC0C1",
"C 	c #ECECF0",
"D 	c #EDEDF0",
"E 	c #EBE9EE",
"F 	c #C72323",
"G 	c #9C7072",
"H 	c #D2D2DE",
"I 	c #D1D1DD",
"J 	c #CECEDB",
"K 	c #5A0000",
"L 	c #D9BCC4",
"M 	c #B84B4B",
"N 	c #CDCED1",
"O 	c #F1F1F5",
"P 	c #EBEBF1",
"Q 	c #DFAFB2",
"R 	c #BB1E1D",
"S 	c #A3A0A5",
"T 	c #D6D6E1",
"U 	c #D4D4E0",
"V 	c #960000",
"W 	c #D5C8D2",
"X 	c #BB1414",
"Y 	c #B69091",
"Z 	c #E1DFE2",
"` 	c #DFB5B8",
" .	c #C40909",
"..	c #A57473",
"+.	c #C6C5CC",
"@.	c #DADAE4",
"#.	c #D7D7E2",
"$.	c #A60000",
"%.	c #E0C6C7",
"&.	c #BC3434",
"*.	c #C1292A",
"=.	c #BD1516",
"-.	c #A96D6E",
";.	c #B6B7BB",
">.	c #DBDBE4",
",.	c #D9D9E3",
"'.	c #780000",
").	c #3B0000",
"!.	c #F7F7F9",
"~.	c #DEDCDE",
"{.	c #C0B3B6",
"].	c #C2BDC1",
"^.	c #D2D2D8",
"/.	c #DFDFE8",
"(.	c #DCDCE5",
"_.	c #930000",
":.	c #C0C0CE",
"<.	c #E8E8EE",
"[.	c #E6E6ED",
"}.	c #E5E5EC",
"|.	c #E3E3EA",
"1.	c #931415",
"2.	c #A8A4AB",
"3.	c #EFEFF2",
"4.	c #E7E7EE",
"5.	c #E4E4EB",
"6.	c #BA595A",
"7.	c #C5ADAD",
"8.	c #D3D0D3",
"9.	c #DEDDE2",
"0.	c #9D98A8",
"a.	c #AE787D",
"b.	c #A77D82",
"c.	c #9392A1",
"        . . . . . . . . +       ",
"        . @ # $ % & * = . +     ",
"        - ; > , ' ) ! = . ~ +   ",
"      { ] ^ / ( _ : < [ + + + + ",
"    } | 1 2 3 4 5 6 7 8 9 0 a + ",
"  b c   d e f g h i j k l m n + ",
"  o     p q r s t u v w x p . + ",
"  y     z A B C D E F G H I J + ",
"  K     L M N O P Q R S T U H + ",
"  V     W X Y Z `  ...+.@.#.T + ",
"  $.    . %.&.*.=.-.;.>.9 ,.T + ",
"  '.).  . !.~.{.].^././.(.@.#.+ ",
"    _.  :.$ & <.[.}.|./.(.@.#.+ ",
"      1.2.3.<.4.}.5.! /.9 @.#.+ ",
"        6.7.8.9.[.5.= /.(.@.#.+ ",
"        0.a.b.c.+ + + + + + + + "};
