/* XPM */
static char * mimetype_postscript_xpm[] = {
"16 16 144 2",
"  	c None",
". 	c #686868",
"+ 	c #535353",
"@ 	c #FFFFFF",
"# 	c #F7F8F9",
"$ 	c #6589C0",
"% 	c #1657B9",
"& 	c #414141",
"* 	c #7B7A7A",
"= 	c #EAE6E0",
"- 	c #E1D6C8",
"; 	c #496EA3",
"> 	c #3380FA",
", 	c #4984E3",
"' 	c #3E3E3E",
") 	c #DDDDDD",
"! 	c #808080",
"~ 	c #E2E1E0",
"{ 	c #DCD5CB",
"] 	c #9E9E9D",
"^ 	c #0B4DAF",
"/ 	c #2A77EF",
"( 	c #4382E8",
"_ 	c #3F3F3F",
": 	c #F8F8F8",
"< 	c #BDBDBD",
"[ 	c #FBFBFB",
"} 	c #F3F2F2",
"| 	c #C8C5C1",
"1 	c #B8B5AE",
"2 	c #24569E",
"3 	c #305993",
"4 	c #6882AA",
"5 	c #5C76A1",
"6 	c #C5C5C5",
"7 	c #C1C2C2",
"8 	c #B0B1B1",
"9 	c #9A9A9A",
"0 	c #7D7D7B",
"a 	c #706F6C",
"b 	c #8C8E8E",
"c 	c #CEC8BD",
"d 	c #E3DACD",
"e 	c #C4C0B9",
"f 	c #969797",
"g 	c #2B2D2D",
"h 	c #96A2A2",
"i 	c #E2F3F3",
"j 	c #F3FDFD",
"k 	c #DCE3E2",
"l 	c #C3D2D1",
"m 	c #7C8A85",
"n 	c #9C9E9C",
"o 	c #F0EFEE",
"p 	c #BFBEBC",
"q 	c #676868",
"r 	c #898C8C",
"s 	c #565A5A",
"t 	c #F7E0E0",
"u 	c #FFC3C3",
"v 	c #F5C6C6",
"w 	c #EAB8B8",
"x 	c #909999",
"y 	c #B9BEBE",
"z 	c #C4C4C4",
"A 	c #7F7F7F",
"B 	c #9BA4A4",
"C 	c #C9C6C6",
"D 	c #DD2525",
"E 	c #DC6161",
"F 	c #DA5252",
"G 	c #F5C5C5",
"H 	c #D33434",
"I 	c #DE5656",
"J 	c #D2B1B1",
"K 	c #8E9D9D",
"L 	c #BDBEBE",
"M 	c #939393",
"N 	c #9DA9A9",
"O 	c #D9CECE",
"P 	c #DD6161",
"Q 	c #D96666",
"R 	c #E19696",
"S 	c #D66969",
"T 	c #D65E5E",
"U 	c #DCB6B6",
"V 	c #8F9E9E",
"W 	c #A3A5A5",
"X 	c #9AA6A6",
"Y 	c #D7D1D1",
"Z 	c #D33232",
"` 	c #E4C4C4",
" .	c #D14646",
"..	c #E0A6A6",
"+.	c #D99E9E",
"@.	c #D15151",
"#.	c #D35353",
"$.	c #869D9D",
"%.	c #999C9C",
"&.	c #8B9494",
"*.	c #B6AFAF",
"=.	c #D43737",
"-.	c #CC6868",
";.	c #D7B2B2",
">.	c #DAE2E2",
",.	c #CA6565",
"'.	c #C96767",
").	c #BFB6B6",
"!.	c #778181",
"~.	c #A5A6A6",
"{.	c #4E4E4E",
"].	c #BBC2C2",
"^.	c #827171",
"/.	c #DB7676",
"(.	c #D5F5F5",
"_.	c #D1E3E3",
":.	c #CDD6D6",
"<.	c #C9E0E0",
"[.	c #CBE2E2",
"}.	c #909A9A",
"|.	c #797B7B",
"1.	c #ADADAD",
"2.	c #474747",
"3.	c #EDEEEE",
"4.	c #919595",
"5.	c #909292",
"6.	c #D5D9D9",
"7.	c #D7D9D9",
"8.	c #D2D3D3",
"9.	c #CCCDCD",
"0.	c #919393",
"a.	c #646565",
"b.	c #AAAAAA",
"c.	c #4B4B4B",
"d.	c #CDCECE",
"e.	c #BEBFBF",
"f.	c #777B7B",
"g.	c #717272",
"h.	c #8D8D8D",
"i.	c #8B8B8B",
"j.	c #757575",
"k.	c #646464",
"l.	c #9E9E9E",
"m.	c #A5A5A5",
"      .                         ",
"    + @ @ @ @ # $ %             ",
"    & @ @ @ * = - ; > ,         ",
"    ' @ @ ) ! ~ { ] ^ / (       ",
"    _ @ : < [ } | 1 2 3 4 5     ",
"      @ 6 7 8 9 0 a b c d e     ",
"      f g h i j k l m n o p     ",
"    q r s t u @ @ v w x y z     ",
"    A B C D E F G H I J K L     ",
"M   _ N O P @ Q R S T U V W     ",
"      X Y Z `  ...+.@.#.$.%.    ",
"      &.*.=.-.;.>.,.'.).!.~.    ",
"    {.].^./.(._.:.<.[.}.|.1.    ",
"    2.3.4.5.6.7.8.9.0.a.b.1.    ",
"    c.d.e.f.g.h.i.j.k.l.1.m.    ",
"                                "};
