/* XPM */
static char * mimetype_shellscript_xpm[] = {
"16 16 164 2",
"  	c None",
". 	c #686868",
"+ 	c #535353",
"@ 	c #FFFFFF",
"# 	c #F2F4F7",
"$ 	c #6388BF",
"% 	c #1657B9",
"& 	c #3F4145",
"* 	c #FAFFFF",
"= 	c #FEFFFF",
"- 	c #FBFFFF",
"; 	c #DDD8D2",
"> 	c #496EA8",
", 	c #3480FB",
"' 	c #4984E3",
") 	c #FAEAAC",
"! 	c #FBD97A",
"~ 	c #FDDD7C",
"{ 	c #E2CF8D",
"] 	c #CBC3B5",
"^ 	c #9EA5B0",
"/ 	c #0D50B6",
"( 	c #2A78F1",
"_ 	c #4382E9",
": 	c #8E752C",
"< 	c #FFE85A",
"[ 	c #F48D04",
"} 	c #F6B924",
"| 	c #E87F07",
"1 	c #D49318",
"2 	c #BA961B",
"3 	c #978D6D",
"4 	c #1F58B2",
"5 	c #315A97",
"6 	c #6881AA",
"7 	c #5C76A1",
"8 	c #FFB326",
"9 	c #FFD243",
"0 	c #DB5301",
"a 	c #E8C54E",
"b 	c #F26F23",
"c 	c #C37B2D",
"d 	c #C28430",
"e 	c #945702",
"f 	c #969371",
"g 	c #C3C1C3",
"h 	c #E1D8CC",
"i 	c #C4BFB8",
"j 	c #FFF150",
"k 	c #E47506",
"l 	c #F2C747",
"m 	c #E36E17",
"n 	c #E6C451",
"o 	c #F6792C",
"p 	c #DAA446",
"q 	c #D55F29",
"r 	c #AF641E",
"s 	c #C4B548",
"t 	c #CFD3D9",
"u 	c #E7E8EC",
"v 	c #BDBCBA",
"w 	c #9E7A20",
"x 	c #FFC53B",
"y 	c #E68717",
"z 	c #DFA732",
"A 	c #F0942E",
"B 	c #E5B748",
"C 	c #F27B2A",
"D 	c #F4C85B",
"E 	c #E04A1F",
"F 	c #DB9548",
"G 	c #D67115",
"H 	c #BDBE97",
"I 	c #EAF1FF",
"J 	c #BABABB",
"K 	c #EBAB1A",
"L 	c #DC860C",
"M 	c #EBAC33",
"N 	c #D08317",
"O 	c #F0A636",
"P 	c #E1A83F",
"Q 	c #ED882C",
"R 	c #FDA64A",
"S 	c #E26B2B",
"T 	c #F95B36",
"U 	c #D13F08",
"V 	c #C4B855",
"W 	c #D8DFEC",
"X 	c #B8B8B9",
"Y 	c #D6A21C",
"Z 	c #F59B19",
"` 	c #D6951D",
" .	c #DB931F",
"..	c #DA9829",
"+.	c #E2A33A",
"@.	c #F09C37",
"#.	c #EB7529",
"$.	c #F58A43",
"%.	c #E60C17",
"&.	c #D2932D",
"*.	c #A8A882",
"=.	c #D1D7E2",
"-.	c #B3B3B4",
";.	c #FFE949",
">.	c #DF8C0B",
",.	c #D9A12C",
"'.	c #D79C2F",
").	c #DC9730",
"!.	c #E89535",
"~.	c #EE973E",
"{.	c #F53025",
"].	c #E6722F",
"^.	c #B7B45D",
"/.	c #BCC7D7",
"(.	c #C9CCCF",
"_.	c #ADADAE",
":.	c #706016",
"<.	c #FFD23C",
"[.	c #D39518",
"}.	c #D2A235",
"|.	c #DEA137",
"1.	c #E39B3F",
"2.	c #EE4D29",
"3.	c #F27136",
"4.	c #A59C42",
"5.	c #AABCC5",
"6.	c #C6CED6",
"7.	c #BABBBC",
"8.	c #A9A9A9",
"9.	c #DA4521",
"0.	c #F6BA3D",
"a.	c #E1B334",
"b.	c #EFC14F",
"c.	c #F29E4C",
"d.	c #FE964D",
"e.	c #E3CD50",
"f.	c #740000",
"g.	c #97818E",
"h.	c #B8C7C9",
"i.	c #B1B3B3",
"j.	c #A5A5A5",
"k.	c #C3000F",
"l.	c #940C09",
"m.	c #E89E2B",
"n.	c #FFEE5F",
"o.	c #FFDC5F",
"p.	c #F3D04D",
"q.	c #7A1400",
"r.	c #8A0000",
"s.	c #7A0508",
"t.	c #9EA3A4",
"u.	c #B4B7B7",
"v.	c #3B3336",
"w.	c #7A7084",
"x.	c #8E7B64",
"y.	c #B39440",
"z.	c #AF9443",
"A.	c #7F7149",
"B.	c #6D6577",
"C.	c #7B7376",
"D.	c #766767",
"E.	c #8D8C8C",
"F.	c #A9AAAA",
"G.	c #A4A4A4",
"      .                         ",
"    + @ @ @ @ # $ %             ",
"    & @ * = @ - ; > , '         ",
"      @ ) ! ~ { ] ^ / ( _       ",
"    : < [ } | 1 2 3 4 5 6 7     ",
"    8 9 0 a b c d e f g h i     ",
"  j k l m n o p q r s t u v     ",
"w x y z A B C D E F G H I J     ",
"K L M N O P Q R S T U V W X     ",
"Y Z `  ...+.@.#.$.%.&.*.=.-.    ",
"  ;.>.,.'.).!.~.{.].^./.(._.    ",
"  :.<.[.}.|.1.2.3.4.5.6.7.8.    ",
"    9.0.a.b.c.d.e.f.g.h.i.j.    ",
"    k.l.m.n.o.p.q.r.s.t.u.8.    ",
"    v.w.x.y.z.A.B.C.D.E.F.G.    ",
"                                "};
