/* XPM */
static char * mimetype_tex_xpm[] = {
"16 16 125 2",
"  	c None",
". 	c #E0E0E0",
"+ 	c #FFFFFF",
"@ 	c #DBE2EC",
"# 	c #4272BC",
"$ 	c #1857B9",
"% 	c #000000",
"& 	c #4C4C4C",
"* 	c #6D6D6D",
"= 	c #6A6A6A",
"- 	c #606060",
"; 	c #F9F9F7",
"> 	c #FCF8ED",
", 	c #C2BDB4",
"' 	c #2D5EA5",
") 	c #3E8AFF",
"! 	c #4478CD",
"~ 	c #0B0B0B",
"{ 	c #151515",
"] 	c #F9F9F9",
"^ 	c #696868",
"/ 	c #EAEAEA",
"( 	c #F8F7F6",
"_ 	c #D4CBBE",
": 	c #868E98",
"< 	c #0B51BA",
"[ 	c #317FF8",
"} 	c #3E7ADB",
"| 	c #181818",
"1 	c #2D2D2D",
"2 	c #D7D7D7",
"3 	c #ABABAA",
"4 	c #97938D",
"5 	c #969697",
"6 	c #174D9C",
"7 	c #375B8E",
"8 	c #6B86AF",
"9 	c #56729D",
"0 	c #191919",
"a 	c #2E2E2E",
"b 	c #B3B3B3",
"c 	c #D3D3D3",
"d 	c #ABABAB",
"e 	c #9E9B9A",
"f 	c #757473",
"g 	c #8C8C8E",
"h 	c #B5ADA2",
"i 	c #E0D7CA",
"j 	c #B7B3AB",
"k 	c #343434",
"l 	c #D9D9D9",
"m 	c #F3F3F3",
"n 	c #D0D0D0",
"o 	c #858585",
"p 	c #929292",
"q 	c #DADAD8",
"r 	c #928F8A",
"s 	c #CAC9C5",
"t 	c #E1E0DF",
"u 	c #B0AFAD",
"v 	c #161616",
"w 	c #323232",
"x 	c #CCCCCC",
"y 	c #D6D6D6",
"z 	c #A7A7A7",
"A 	c #AAAAAA",
"B 	c #A9A9A9",
"C 	c #959595",
"D 	c #D2D2D2",
"E 	c #E1E1E1",
"F 	c #B2B2B2",
"G 	c #0D0D0D",
"H 	c #121212",
"I 	c #949494",
"J 	c #D8D8D8",
"K 	c #A5A5A5",
"L 	c #B0B0B0",
"M 	c #969696",
"N 	c #B1B1B1",
"O 	c #DDDDDD",
"P 	c #B4B4B4",
"Q 	c #A6A6A6",
"R 	c #FAFAFA",
"S 	c #E5E5E5",
"T 	c #B9B9B9",
"U 	c #C1C1C1",
"V 	c #BBBBBB",
"W 	c #F6F6F6",
"X 	c #DEDEDE",
"Y 	c #BDBDBD",
"Z 	c #9F9F9F",
"` 	c #E8E8E8",
" .	c #F7F7F7",
"..	c #E2E2E2",
"+.	c #E6E6E6",
"@.	c #8A8A8A",
"#.	c #9A9A9A",
"$.	c #DADADA",
"%.	c #F2F2F2",
"&.	c #939393",
"*.	c #EDEDED",
"=.	c #CFCFCF",
"-.	c #F0F0F0",
";.	c #0A0A0A",
">.	c #2A2A2A",
",.	c #C2C2C2",
"'.	c #818181",
").	c #BEBEBE",
"!.	c #F4F4F4",
"~.	c #4E4E4E",
"{.	c #C7C7C7",
"].	c #A2A2A2",
"^.	c #C0C0C0",
"/.	c #CDCDCD",
"(.	c #B8B8B8",
"_.	c #5B5B5B",
":.	c #888888",
"<.	c #9B9B9B",
"[.	c #AFAFAF",
"}.	c #BABABA",
"|.	c #8E8E8E",
"1.	c #747474",
"2.	c #C8C8C8",
"3.	c #373737",
"4.	c #131313",
"                                ",
"    . + + + + @ # $             ",
"% % & * = - ; > , ' ) !         ",
"%   ~ { ] ^ / ( _ : < [ }       ",
"    | 1 + + 2 3 4 5 6 7 8 9     ",
"    0 a + b c d e f g h i j     ",
"    | k l m n o p q r s t u     ",
"    v w x + y z A B C D E F     ",
"    G H I c J K L M N / O P     ",
"    Q R S K P T U V m W X Y     ",
"    Z + `  ...+.V @.#.$.%.Z     ",
"    &.*.=.-.R + %.;.% >.,.'.    ",
"    #.=.x )./ ` !.U % % ~.{.    ",
"    ].2 {.,.^./.J (._.% % :.    ",
"    <.,.F P [.}.|.1.2.3.% 4.    ",
"                                "};
