/* XPM */
static char * mimetype_video_xpm[] = {
"16 16 148 2",
"  	c None",
". 	c #6A6A6A",
"+ 	c #FFFFFF",
"@ 	c #CACDD3",
"# 	c #A4C4F0",
"$ 	c #6A768F",
"% 	c #758398",
"& 	c #7C8288",
"* 	c #F7F9F8",
"= 	c #B3B3B8",
"- 	c #F4F7F7",
"; 	c #6B6968",
"> 	c #A49B8E",
", 	c #536B8E",
"' 	c #1157C3",
") 	c #306BCB",
"! 	c #E9EAEB",
"~ 	c #CFD3D2",
"{ 	c #808083",
"] 	c #D2D2D2",
"^ 	c #E9E9E7",
"/ 	c #CDC7BE",
"( 	c #989CA0",
"_ 	c #0A4DAE",
": 	c #2776F0",
"< 	c #4282E8",
"[ 	c #C9C9CB",
"} 	c #D8D9D9",
"| 	c #E8E8E7",
"1 	c #D6D2CE",
"2 	c #B1ADA7",
"3 	c #22529D",
"4 	c #2D5894",
"5 	c #6783AA",
"6 	c #5C77A0",
"7 	c #888B97",
"8 	c #464B5A",
"9 	c #0B0C1C",
"0 	c #AEB1B4",
"a 	c #9D9E9F",
"b 	c #C1C0C1",
"c 	c #E2E1DF",
"d 	c #A6A7A9",
"e 	c #C8BFB4",
"f 	c #E5DCCF",
"g 	c #C5C1B9",
"h 	c #B2B5BE",
"i 	c #9BA0A6",
"j 	c #484B58",
"k 	c #131522",
"l 	c #000002",
"m 	c #5E626A",
"n 	c #6D6F75",
"o 	c #5D5E5E",
"p 	c #F4FAF9",
"q 	c #E2E2E0",
"r 	c #BFBEBD",
"s 	c #313346",
"t 	c #666871",
"u 	c #696C71",
"v 	c #585B63",
"w 	c #7F8084",
"x 	c #4C4B53",
"y 	c #1F2128",
"z 	c #1B1E24",
"A 	c #292E35",
"B 	c #989998",
"C 	c #C9C8C8",
"D 	c #494B51",
"E 	c #5A5D68",
"F 	c #292B36",
"G 	c #3A3E42",
"H 	c #0B0F16",
"I 	c #3F3E45",
"J 	c #38353B",
"K 	c #635E67",
"L 	c #8D8A92",
"M 	c #2E2C31",
"N 	c #B5B5B4",
"O 	c #C7C7C6",
"P 	c #878B8F",
"Q 	c #74767D",
"R 	c #494851",
"S 	c #45444B",
"T 	c #2A2A31",
"U 	c #232229",
"V 	c #221F27",
"W 	c #07040C",
"X 	c #2E2D34",
"Y 	c #28272A",
"Z 	c #D7D7D7",
"` 	c #BCBCBC",
" .	c #7C7F83",
"..	c #77757B",
"+.	c #4F4D53",
"@.	c #2F2C35",
"#.	c #2C2A31",
"$.	c #666369",
"%.	c #918E94",
"&.	c #4D4E53",
"*.	c #141218",
"=.	c #4D4C4E",
"-.	c #DDDDDC",
";.	c #B3B3B3",
">.	c #555555",
",.	c #A7A8AB",
"'.	c #7D7E85",
").	c #302F36",
"!.	c #302D32",
"~.	c #37343A",
"{.	c #555459",
"].	c #2D2B33",
"^.	c #39373F",
"/.	c #0B0A0E",
"(.	c #8E8F8C",
"_.	c #CDCDCD",
":.	c #ABABAB",
"<.	c #494A4C",
"[.	c #89898F",
"}.	c #4B4950",
"|.	c #212224",
"1.	c #29282D",
"2.	c #3D3B40",
"3.	c #343437",
"4.	c #18171C",
"5.	c #121014",
"6.	c #9E9F9E",
"7.	c #C0C0BF",
"8.	c #A6A6A6",
"9.	c #A4A3A3",
"0.	c #78787A",
"a.	c #535255",
"b.	c #3A373D",
"c.	c #2D2B32",
"d.	c #2D2C32",
"e.	c #525053",
"f.	c #B5B6B5",
"g.	c #B8B8B7",
"h.	c #A9A9A9",
"i.	c #CFCFCF",
"j.	c #C9C9C9",
"k.	c #CCCCCC",
"l.	c #AAAAA9",
"m.	c #777778",
"n.	c #434345",
"o.	c #626262",
"p.	c #B3B3B2",
"q.	c #A4A4A4",
"      .                         ",
"      + + + + @ # $ % &         ",
"      + * = - ; > , ' )         ",
"      ! ~ { ] ^ / ( _ : <       ",
"      [ } | + + 1 2 3 4 5 6     ",
"      7 8 9 0 a b c d e f g     ",
"      h i j k l m n o p q r     ",
"      s t u v w x y z A B C     ",
"    D E F G H I J K L M N O     ",
"    P Q R S T U V W X Y Z `     ",
"     ...+.@.#.$.%.&.*.=.-.;.    ",
"  >.,.'.).!.~.{.].^./.(._.:.    ",
"    <.[.}.|.1.2.3.4.5.6.7.8.    ",
"      O 9.0.a.b.c.d.e.f.g.h.    ",
"      i.j.k.O l.m.n.o.p.h.q.    ",
"                                "};
