/* XPM */
static char * mimetype_cdimage_xpm[] = {
"16 16 148 2",
"  	c None",
". 	c #696969",
"+ 	c #31496C",
"@ 	c #535353",
"# 	c #FFFFFF",
"$ 	c #F1F0ED",
"% 	c #6888BA",
"& 	c #1A5EC6",
"* 	c #204A8B",
"= 	c #414141",
"- 	c #FBFBFB",
"; 	c #FEFEFE",
"> 	c #F4F1EC",
", 	c #D9CEBC",
"' 	c #55739B",
") 	c #2C78EE",
"! 	c #508FF6",
"~ 	c #3D3D3D",
"{ 	c #FAFAFA",
"] 	c #EEEDEE",
"^ 	c #CBC5BE",
"/ 	c #A1A09D",
"( 	c #094BAC",
"_ 	c #1D6ADF",
": 	c #4183EC",
"< 	c #3E3E3E",
"[ 	c #FCFDFD",
"} 	c #F1F6FF",
"| 	c #C4C8DA",
"1 	c #AEAFBA",
"2 	c #2A599C",
"3 	c #46628E",
"4 	c #7B8CA5",
"5 	c #667EA1",
"6 	c #FDFFFF",
"7 	c #F6F5F9",
"8 	c #CDBF91",
"9 	c #AE9E68",
"0 	c #A49C84",
"a 	c #AFB4C5",
"b 	c #D1CBC8",
"c 	c #E5DDD3",
"d 	c #C7C3BB",
"e 	c #3E3E3F",
"f 	c #FEFFFF",
"g 	c #EAE8DA",
"h 	c #D7AE16",
"i 	c #D49F00",
"j 	c #DAA500",
"k 	c #D19E00",
"l 	c #A68D37",
"m 	c #C8CCE1",
"n 	c #EBECF4",
"o 	c #BDBDBD",
"p 	c #E9E6DC",
"q 	c #E6BC2A",
"r 	c #F6C40B",
"s 	c #F1C111",
"t 	c #E9BB14",
"u 	c #F8C717",
"v 	c #E4B000",
"w 	c #97833E",
"x 	c #D6DCF2",
"y 	c #BFC0C4",
"z 	c #3F4042",
"A 	c #FBFFFF",
"B 	c #D8BE65",
"C 	c #E9B300",
"D 	c #FED131",
"E 	c #FADA64",
"F 	c #E1B515",
"G 	c #E1B414",
"H 	c #FFD21D",
"I 	c #BA8C00",
"J 	c #A2A2A5",
"K 	c #BEC1CB",
"L 	c #3F4046",
"M 	c #EFF5FF",
"N 	c #C2A028",
"O 	c #E0AD00",
"P 	c #ECBF1D",
"Q 	c #FFE985",
"R 	c #FFEB6F",
"S 	c #D1A811",
"T 	c #FACD24",
"U 	c #DCAB00",
"V 	c #908B74",
"W 	c #B9BCCA",
"X 	c #3F4045",
"Y 	c #E9EEFF",
"Z 	c #B99C34",
"` 	c #D6A300",
" .	c #E1B30D",
"..	c #E8BA16",
"+.	c #F0CA3D",
"@.	c #D5AD1E",
"#.	c #FFDA35",
"$.	c #D2A300",
"%.	c #828076",
"&.	c #B3B6C4",
"*.	c #3F3F41",
"=.	c #E8EEFF",
"-.	c #B3A881",
";.	c #C08C00",
">.	c #E3B202",
",.	c #DDAF0F",
"'.	c #D8AC0E",
").	c #FED230",
"!.	c #FFDA21",
"~.	c #8A6D03",
"{.	c #888DA1",
"].	c #B0B2B8",
"^.	c #3F3F40",
"/.	c #E0E1E7",
"(.	c #C2C8DE",
"_.	c #998334",
":.	c #C69300",
"<.	c #E7B300",
"[.	c #F6C207",
"}.	c #FAC502",
"|.	c #AB8400",
"1.	c #646464",
"2.	c #ABAFBD",
"3.	c #A9A9AB",
"4.	c #444444",
"5.	c #E1E1E2",
"6.	c #D2D5DD",
"7.	c #BFC5DB",
"8.	c #9D9371",
"9.	c #9F8325",
"0.	c #A18319",
"a.	c #85732E",
"b.	c #78797D",
"c.	c #A6ABBB",
"d.	c #B5B5B8",
"e.	c #A9A9AA",
"f.	c #4A4A4A",
"g.	c #CACACB",
"h.	c #B7B7B7",
"i.	c #B9BCC0",
"j.	c #B6BCCF",
"k.	c #A1A8BE",
"l.	c #989FB3",
"m.	c #9CA4BA",
"n.	c #ACAFBB",
"o.	c #AAABAD",
"p.	c #A7A8A8",
"q.	c #A4A4A4",
"      .       +                 ",
"    @ # # # # $ % & *           ",
"    = # - ; # > , ' ) !         ",
"    ~ # { ; # ] ^ / ( _ :       ",
"    < # [ # # } | 1 2 3 4 5     ",
"    < # 6 # 7 8 9 0 a b c d     ",
"    e # f g h i j k l m n o     ",
"    e # p q r s t u v w x y     ",
"    z A B C D E F G H I J K     ",
"    L M N O P Q R S T U V W     ",
"    X Y Z `  ...+.@.#.$.%.&.    ",
"    *.=.-.;.>.,.'.).!.~.{.].    ",
"    ^./.(._.:.<.[.}.|.1.2.3.    ",
"    4.5.6.7.8.9.0.a.b.c.d.e.    ",
"    f.g.h.i.j.k.l.m.n.o.p.q.    ",
"                                "};
