/* XPM */
static char * mimetype_tgz_xpm[] = {
"16 16 159 2",
"  	c None",
". 	c #8F8E8E",
"+ 	c #FFFFFF",
"@ 	c #E3E6EC",
"# 	c #507BBB",
"$ 	c #1655B7",
"% 	c #797877",
"& 	c #FEFCFA",
"* 	c #FFFFFE",
"= 	c #F7F0E8",
"- 	c #CFC7BA",
"; 	c #3865A8",
"> 	c #3887FF",
", 	c #4478CF",
"' 	c #7D7973",
") 	c #FAF7F8",
"! 	c #FFFEFD",
"~ 	c #F2ECE8",
"{ 	c #D3CABB",
"] 	c #868E96",
"^ 	c #074CB1",
"/ 	c #2F7DF4",
"( 	c #4280E1",
"_ 	c #82766B",
": 	c #F6F6FC",
"< 	c #B6E5FF",
"[ 	c #7CBDFD",
"} 	c #DEEEFF",
"| 	c #F6E9E2",
"1 	c #D4C4B3",
"2 	c #A9A29A",
"3 	c #124594",
"4 	c #365B90",
"5 	c #6C85AD",
"6 	c #5C76A0",
"7 	c #84BBE8",
"8 	c #7CC2FA",
"9 	c #80C8F4",
"0 	c #7AC8F7",
"a 	c #4E9AE5",
"b 	c #7BAFE4",
"c 	c #A5C1DC",
"d 	c #ADB4BD",
"e 	c #ADAAAB",
"f 	c #CABEAF",
"g 	c #E3D9CB",
"h 	c #C4BFB8",
"i 	c #277BD3",
"j 	c #4B97E5",
"k 	c #6BB1EF",
"l 	c #6AADE8",
"m 	c #64A0D8",
"n 	c #7CBAE4",
"o 	c #A1E7FF",
"p 	c #92D9FF",
"q 	c #6EB2FA",
"r 	c #5B96CE",
"s 	c #D0CCC6",
"t 	c #E9E5E1",
"u 	c #BDBCBA",
"v 	c #4080C9",
"w 	c #4780C8",
"x 	c #346ABC",
"y 	c #4280C8",
"z 	c #85C5F4",
"A 	c #8BC1F3",
"B 	c #4D8AD5",
"C 	c #5794DB",
"D 	c #71C8FB",
"E 	c #4892D5",
"F 	c #D3CFCA",
"G 	c #ECE8E5",
"H 	c #BABABA",
"I 	c #4079C9",
"J 	c #6DA4ED",
"K 	c #6294DC",
"L 	c #6B98DA",
"M 	c #3266A6",
"N 	c #3691E5",
"O 	c #60C4FF",
"P 	c #5AA8E5",
"Q 	c #73D6FF",
"R 	c #5896D8",
"S 	c #DDD2CA",
"T 	c #E2DEDC",
"U 	c #B7B7B7",
"V 	c #2E5990",
"W 	c #5F9AEF",
"X 	c #4C82D2",
"Y 	c #8BB7F6",
"Z 	c #6289BF",
"` 	c #3CA7FD",
" .	c #73D9FF",
"..	c #5199DB",
"+.	c #4595E4",
"@.	c #5986C1",
"#.	c #DED2C8",
"$.	c #D5D3D0",
"%.	c #B3B3B3",
"&.	c #335681",
"*.	c #91CDFF",
"=.	c #6093E0",
"-.	c #5687D5",
";.	c #4E7BBD",
">.	c #3489DE",
",.	c #4995DA",
"'.	c #4486CB",
").	c #60BBFC",
"!.	c #6490C0",
"~.	c #D7CCBE",
"{.	c #C8C7C5",
"].	c #ADADAD",
"^.	c #629EE7",
"/.	c #5B95E7",
"(.	c #77A6EB",
"_.	c #4B74B3",
":.	c #3183D8",
"<.	c #69CAFF",
"[.	c #64B1F2",
"}.	c #5CC3FF",
"|.	c #6285AB",
"1.	c #CEC2B6",
"2.	c #BAB9B8",
"3.	c #A9A9A9",
"4.	c #5A6265",
"5.	c #5A83BA",
"6.	c #689AE3",
"7.	c #4775AF",
"8.	c #3298F4",
"9.	c #64C5FF",
"0.	c #4484D3",
"a.	c #578BC0",
"b.	c #949AA1",
"c.	c #BCB6B1",
"d.	c #B0AFAF",
"e.	c #A5A5A5",
"f.	c #8D877F",
"g.	c #E5DDD2",
"h.	c #9DA8B6",
"i.	c #3D70A8",
"j.	c #248BF5",
"k.	c #6D9DD4",
"l.	c #A7A5A6",
"m.	c #CEBEB0",
"n.	c #C4BEB7",
"o.	c #B1B1B0",
"p.	c #AFAFAE",
"q.	c #A8A8A8",
"r.	c #7D7C7B",
"s.	c #CDCAC7",
"t.	c #CBC2B6",
"u.	c #979EA4",
"v.	c #5F809E",
"w.	c #B4AA9E",
"x.	c #C6BDB5",
"y.	c #B7B4B2",
"z.	c #ADACAB",
"A.	c #A5A4A4",
"B.	c #A4A4A4",
"                                ",
"    . + + + + @ # $             ",
"    % + & * + = - ; > ,         ",
"    ' + ) ! + ~ { ] ^ / (       ",
"    _ : < [ } | 1 2 3 4 5 6     ",
"    7 8 9 0 a b c d e f g h     ",
"  i j k l m n o p q r s t u     ",
"  v w x y z A B C D E F G H     ",
"  I J K L M N O P Q R S T U     ",
"  V W X Y Z `  ...+.@.#.$.%.    ",
"  &.*.=.-.;.>.,.'.).!.~.{.].    ",
"    ^./.(._.:.<.[.}.|.1.2.3.    ",
"    4.5.6.7.8.9.0.a.b.c.d.e.    ",
"    f.g.h.i.j.k.l.m.n.o.p.q.    ",
"    r.s.t.u.v.w.x.y.z.A.e.B.    ",
"                                "};
