/* XPM */
static char * mimetype_real_xpm[] = {
"16 16 159 2",
"  	c None",
". 	c #B3B3B2",
"+ 	c #FFFFFF",
"@ 	c #E4E5E6",
"# 	c #547CB7",
"$ 	c #1B60C8",
"% 	c #204681",
"& 	c #9B9B98",
"* 	c #FBFBFA",
"= 	c #F2EDE7",
"- 	c #D1C6B5",
"; 	c #43689F",
"> 	c #3481FB",
", 	c #4D89EC",
"' 	c #9E9C90",
") 	c #FFFFFE",
"! 	c #F3F2E9",
"~ 	c #D3C9B8",
"{ 	c #90949A",
"] 	c #044AB2",
"^ 	c #236DE1",
"/ 	c #4182E8",
"( 	c #9D9690",
"_ 	c #FFFEFF",
": 	c #FDF8FD",
"< 	c #E8E3E9",
"[ 	c #C7C2BE",
"} 	c #B2B1A6",
"| 	c #225295",
"1 	c #49668D",
"2 	c #818FA7",
"3 	c #677FA1",
"4 	c #3D45BF",
"5 	c #4969D9",
"6 	c #4066DE",
"7 	c #3D5CCE",
"8 	c #3C58C7",
"9 	c #3D56C5",
"0 	c #3D5FD1",
"a 	c #3B4AC3",
"b 	c #7777A4",
"c 	c #C8C4B5",
"d 	c #CFC6B8",
"e 	c #E3DCD1",
"f 	c #C8C2BA",
"g 	c #000061",
"h 	c #225FD2",
"i 	c #2183CC",
"j 	c #043B69",
"k 	c #00162B",
"l 	c #000000",
"m 	c #001B34",
"n 	c #001B6C",
"o 	c #212A89",
"p 	c #E9E7DD",
"q 	c #E3E2DE",
"r 	c #E3E2E1",
"s 	c #BCBBBA",
"t 	c #020D6B",
"u 	c #7283A1",
"v 	c #302916",
"w 	c #1D1000",
"x 	c #241F16",
"y 	c #867D6F",
"z 	c #010000",
"A 	c #0A0E24",
"B 	c #FAF9FA",
"C 	c #EDEDEC",
"D 	c #E0E0E0",
"E 	c #B9B9B9",
"F 	c #6B719F",
"G 	c #C7C0AB",
"H 	c #AEAAA2",
"I 	c #CFCDCB",
"J 	c #474645",
"K 	c #CDCCCC",
"L 	c #B1B1B0",
"M 	c #9A9998",
"N 	c #080602",
"O 	c #F8F8F6",
"P 	c #EAEAEA",
"Q 	c #D8D8D8",
"R 	c #B7B7B6",
"S 	c #A3A3B0",
"T 	c #150C00",
"U 	c #D3CABE",
"V 	c #A4A09B",
"W 	c #938F8D",
"X 	c #E5E3E2",
"Y 	c #B8B7B6",
"Z 	c #878786",
"` 	c #0A0A0C",
" .	c #EEEDEE",
"..	c #CDCDCD",
"+.	c #B2B2B2",
"@.	c #303680",
"#.	c #093480",
"$.	c #222F33",
"%.	c #1E1409",
"&.	c #2D2116",
"*.	c #170E07",
"=.	c #161412",
"-.	c #0C0A06",
";.	c #E0E0DF",
">.	c #D4D4D3",
",.	c #C3C3C3",
"'.	c #ADADAD",
").	c #000066",
"!.	c #2F87FF",
"~.	c #43B8FF",
"{.	c #4091D5",
"].	c #3C7BA7",
"^.	c #30698B",
"/.	c #31556D",
"(.	c #201808",
"_.	c #141B48",
":.	c #D4D3D1",
"<.	c #C6C6C3",
"[.	c #B8B8B8",
"}.	c #A9A9A9",
"|.	c #080C77",
"1.	c #2749C9",
"2.	c #2D81DC",
"3.	c #3C90ED",
"4.	c #489CFB",
"5.	c #50AAFF",
"6.	c #547C98",
"7.	c #0D0C04",
"8.	c #00176D",
"9.	c #1D299A",
"0.	c #C5C4BC",
"a.	c #B9B8B6",
"b.	c #AFAFAE",
"c.	c #A5A5A5",
"d.	c #00053E",
"e.	c #191FAE",
"f.	c #0F14A0",
"g.	c #091098",
"h.	c #0B12A1",
"i.	c #050C8E",
"j.	c #000032",
"k.	c #0A1492",
"l.	c #000CA7",
"m.	c #3E4686",
"n.	c #C8C6B8",
"o.	c #B5B4B3",
"p.	c #AEAEAE",
"q.	c #A8A8A8",
"r.	c #46496D",
"s.	c #5A5D7F",
"t.	c #55577C",
"u.	c #55577B",
"v.	c #565B81",
"w.	c #585C89",
"x.	c #5D617E",
"y.	c #A7A89E",
"z.	c #B6B5B0",
"A.	c #A7A7A6",
"B.	c #A4A4A4",
"                                ",
"    . + + + + @ # $ %           ",
"    & + * + + = - ; > ,         ",
"    ' + ) + + ! ~ { ] ^ /       ",
"    ( _ : + + < [ } | 1 2 3     ",
"  4 5 6 7 8 9 0 a b c d e f     ",
"g h i j k l l m n o p q r s     ",
"t u v w l x l y z A B C D E     ",
"F G H I J K L M l N O P Q R     ",
"S T U V W X Y Z l `  .D ..+.    ",
"@.#.$.%.l &.*.=.l -.;.>.,.'.    ",
").!.~.{.].^./.(.l _.:.<.[.}.    ",
"|.1.2.3.4.5.6.7.8.9.0.a.b.c.    ",
"d.e.f.g.h.i.j.k.l.m.n.o.p.q.    ",
"    r.s.t.u.v.w.x.y.z.A.c.B.    ",
"                                "};
