/* XPM */
static char * mimetype_pdf_xpm[] = {
"16 16 147 2",
"  	c None",
". 	c #6C6D6D",
"+ 	c #515151",
"@ 	c #FFFFFF",
"# 	c #FFE1DE",
"$ 	c #F2FCFE",
"% 	c #648BC1",
"& 	c #1557BA",
"* 	c #3F4040",
"= 	c #D15251",
"- 	c #A33B3B",
"; 	c #EFEDE8",
"> 	c #E2DBCC",
", 	c #5274A5",
"' 	c #2D79F1",
") 	c #4C89EC",
"! 	c #3E3E3E",
"~ 	c #B84242",
"{ 	c #DAD0D0",
"] 	c #F2F7F6",
"^ 	c #D4D0C8",
"/ 	c #A2A29D",
"( 	c #0A4DAD",
"_ 	c #1C6AE1",
": 	c #4284EC",
"< 	c #C45B5B",
"[ 	c #C38D8D",
"} 	c #EDF3F3",
"| 	c #C9D2CE",
"1 	c #ABBEBA",
"2 	c #2967A7",
"3 	c #446893",
"4 	c #7D8DA7",
"5 	c #6E85A6",
"6 	c #DD8E8E",
"7 	c #9A4040",
"8 	c #F2FFFF",
"9 	c #CFD6D5",
"0 	c #A95D59",
"a 	c #9C6A67",
"b 	c #C2CCBF",
"c 	c #E5E1D5",
"d 	c #C8C4BC",
"e 	c #3D3D3D",
"f 	c #F7C4C4",
"g 	c #A22323",
"h 	c #F7FFFF",
"i 	c #D77E7E",
"j 	c #F74E4D",
"k 	c #F12726",
"l 	c #BA7471",
"m 	c #D9EEEF",
"n 	c #BFC0BF",
"o 	c #FEFFFF",
"p 	c #E18989",
"q 	c #910000",
"r 	c #DDDDDD",
"s 	c #C86969",
"t 	c #EE2C2C",
"u 	c #FF6969",
"v 	c #AF4A4A",
"w 	c #C8E3E3",
"x 	c #BDBFBF",
"y 	c #F8FFFF",
"z 	c #FAFEFE",
"A 	c #BF4545",
"B 	c #BA9797",
"C 	c #AA4C4C",
"D 	c #D6D8D8",
"E 	c #B73131",
"F 	c #B54040",
"G 	c #99AFAF",
"H 	c #D0E3E3",
"I 	c #B8BFBF",
"J 	c #3E4040",
"K 	c #F3FFFF",
"L 	c #E9B2B2",
"M 	c #A63F3F",
"N 	c #F6FFFF",
"O 	c #D5A2A2",
"P 	c #A65252",
"Q 	c #C8CECE",
"R 	c #BAC7C7",
"S 	c #C5CBCB",
"T 	c #CDCDCD",
"U 	c #B0BCBC",
"V 	c #404848",
"W 	c #EEFFFF",
"X 	c #C95050",
"Y 	c #A57979",
"Z 	c #D9BABA",
"` 	c #CC9A9A",
" .	c #A46464",
"..	c #A04B4B",
"+.	c #B90606",
"@.	c #CD0000",
"#.	c #E00909",
"$.	c #A92020",
"%.	c #EDB9B9",
"&.	c #A33030",
"*.	c #B9CCCC",
"=.	c #CDC8C8",
"-.	c #CBDFDF",
";.	c #D69595",
">.	c #CD8181",
",.	c #AAC5C5",
"'.	c #977373",
").	c #8D2626",
"!.	c #7C4949",
"~.	c #694848",
"{.	c #C93232",
"].	c #988585",
"^.	c #D0DFDF",
"/.	c #D0D5D5",
"(.	c #CEDBDB",
"_.	c #C28E8E",
":.	c #BB8282",
"<.	c #B0D4D4",
"[.	c #D06F6F",
"}.	c #FF5151",
"|.	c #998F8F",
"1.	c #8A0505",
"2.	c #A96767",
"3.	c #C8DEDE",
"4.	c #D7DADA",
"5.	c #D3D4D4",
"6.	c #D1D2D2",
"7.	c #CBD8D8",
"8.	c #C4D5D5",
"9.	c #BBCACA",
"0.	c #BB6A6A",
"a.	c #EB5555",
"b.	c #9B8F8F",
"c.	c #730000",
"d.	c #AF0101",
"e.	c #7E1414",
"f.	c #4E6666",
"g.	c #6B7070",
"h.	c #666767",
"i.	c #686868",
"j.	c #696969",
"k.	c #686969",
"l.	c #666A6A",
"m.	c #5D6A6A",
"n.	c #4D5757",
"o.	c #606969",
"p.	c #350000",
"      .                         ",
"    + @ @ @ # $ % &             ",
"    * @ @ = - ; > , ' )         ",
"    ! @ @ ~ { ] ^ / ( _ :       ",
"    ! @ @ < [ } | 1 2 3 4 5     ",
"    ! @ @ 6 7 8 9 0 a b c d     ",
"    e @ @ f g h i j k l m n     ",
"    ! o o p q r s t u v w x     ",
"    ! y z A B C D E F G H I     ",
"    J K L M N O P Q R S T U     ",
"    V W X Y Z `  ...+.@.#.$.    ",
"      %.&.*.=.-.;.>.,.'.).!.    ",
"    ~.{.].^./.(._.:.<.[.}.|.    ",
"    1.2.3.4.5.6.7.8.9.0.a.b.    ",
"c.d.e.f.g.h.i.i.j.k.l.m.n.o.    ",
"  p.                            "};
