/* XPM */
static char * mimetype_source_xpm[] = {
"16 16 104 2",
"  	c None",
". 	c #696969",
"+ 	c #525252",
"@ 	c #FFFFFF",
"# 	c #F4F7FB",
"$ 	c #5780BD",
"% 	c #1657BB",
"& 	c #424242",
"* 	c #FDFDFD",
"= 	c #F6F2EC",
"- 	c #D5CBBD",
"; 	c #456BA0",
"> 	c #3482FB",
", 	c #487FDA",
"' 	c #3D3D3D",
") 	c #FCFCFC",
"! 	c #EAE9E8",
"~ 	c #CAC5BA",
"{ 	c #989898",
"] 	c #0C4DB0",
"^ 	c #2C7BF3",
"/ 	c #4384E9",
"( 	c #E4E4E4",
"_ 	c #B6B2AE",
": 	c #A8A39F",
"< 	c #1D4F98",
"[ 	c #2F578E",
"} 	c #6982AB",
"| 	c #57739C",
"1 	c #3C3C3C",
"2 	c #F2F2F2",
"3 	c #E2E2E2",
"4 	c #CBC9C8",
"5 	c #918F8E",
"6 	c #9A9A9A",
"7 	c #B1A99E",
"8 	c #DFD6C9",
"9 	c #B7B2AD",
"0 	c #3B3B3B",
"a 	c #FEFEFE",
"b 	c #D6D6D6",
"c 	c #B6B6B4",
"d 	c #9A9894",
"e 	c #C3C2BF",
"f 	c #E1E1DE",
"g 	c #B3B2B1",
"h 	c #E9E9E9",
"i 	c #BEBEBE",
"j 	c #EEEEEE",
"k 	c #868686",
"l 	c #C3C3C3",
"m 	c #E5E5E5",
"n 	c #B3B3B3",
"o 	c #F9F9F9",
"p 	c #E1E1E1",
"q 	c #9F9F9F",
"r 	c #F4F4F4",
"s 	c #898989",
"t 	c #D2D2D2",
"u 	c #E3E3E3",
"v 	c #B5B5B5",
"w 	c #393939",
"x 	c #F1F1F1",
"y 	c #929292",
"z 	c #DBDBDB",
"A 	c #CACACA",
"B 	c #B7B7B7",
"C 	c #333333",
"D 	c #F5F5F5",
"E 	c #E0E0E0",
"F 	c #B8B8B8",
"G 	c #B9B9B9",
"H 	c #7D7D7D",
"I 	c #AFAFAF",
"J 	c #E7E7E7",
"K 	c #BABABA",
"L 	c #D8D8D8",
"M 	c #DEDEDE",
"N 	c #BDBDBD",
"O 	c #9E9E9E",
"P 	c #D1D1D1",
"Q 	c #DDDDDD",
"R 	c #414141",
"S 	c #D0D0D0",
"T 	c #BCBCBC",
"U 	c #E6E6E6",
"V 	c #D9D9D9",
"W 	c #C7C7C7",
"X 	c #CECECE",
"Y 	c #A0A0A0",
"Z 	c #454545",
"` 	c #DFDFDF",
" .	c #C8C8C8",
"..	c #CBCBCB",
"+.	c #C9C9C9",
"@.	c #BFBFBF",
"#.	c #ABABAB",
"$.	c #A5A5A5",
"%.	c #4A4A4A",
"&.	c #B1B1B1",
"*.	c #A7A7A7",
"=.	c #9C9C9C",
"-.	c #A4A4A4",
";.	c #A3A3A3",
"      .                         ",
"    + @ @ @ @ # $ %             ",
"    & @ * @ @ = - ; > ,         ",
"    ' @ ) @ @ ! ~ { ] ^ /       ",
"    ' @ @ @ @ ( _ : < [ } |     ",
"    1 @ @ @ 2 3 4 5 6 7 8 9     ",
"    0 @ @ a b @ @ c d e f g     ",
"    1 @ a h i @ @ j k l m n     ",
"    1 @ o p q @ @ r s t u v     ",
"    w a x x y z @ A k ( p B     ",
"    C D E @ F y G H I J z K     ",
"    w E L M a N O B p P Q v     ",
"    R t S T u D U V W X S Y     ",
"    Z ` W  .N ....+. .@.#.$.    ",
"    %...v n &.I v n *.=.-.;.    ",
"                                "};
