/* XPM */
static char * mp3_search_xpm[] = {
"39 24 446 2",
"  	c None",
". 	c #000000",
"+ 	c #EFEFEF",
"@ 	c #EAEAEA",
"# 	c #E5E5E5",
"$ 	c #DFDFDF",
"% 	c #D9D9D9",
"& 	c #D4D4D4",
"* 	c #CFCFCF",
"= 	c #C9C9C9",
"- 	c #C4C4C4",
"; 	c #BFBFBF",
"> 	c #B9B9B9",
", 	c #B4B4B4",
"' 	c #AEAEAE",
") 	c #A9A9A9",
"! 	c #A3A3A3",
"~ 	c #9F9F9F",
"{ 	c #999999",
"] 	c #949494",
"^ 	c #8E8E8E",
"/ 	c #888888",
"( 	c #838383",
"_ 	c #7E7E7E",
": 	c #797979",
"< 	c #727372",
"[ 	c #6D6E6D",
"} 	c #636964",
"| 	c #5B685D",
"1 	c #5B685C",
"2 	c #4F6151",
"3 	c #535353",
"4 	c #4D4D4D",
"5 	c #484848",
"6 	c #424242",
"7 	c #3D3D3D",
"8 	c #383838",
"9 	c #E8E8E8",
"0 	c #E2E2E2",
"a 	c #DCDCDC",
"b 	c #D7D7D7",
"c 	c #D1D1D1",
"d 	c #CCCCCC",
"e 	c #C6C6C6",
"f 	c #C1C1C1",
"g 	c #BCBCBC",
"h 	c #B7B7B7",
"i 	c #B1B1B1",
"j 	c #ACACAC",
"k 	c #A7A7A7",
"l 	c #A1A1A1",
"m 	c #9C9C9C",
"n 	c #979797",
"o 	c #919191",
"p 	c #8C8C8C",
"q 	c #868686",
"r 	c #818181",
"s 	c #6E7C70",
"t 	c #5A875F",
"u 	c #628B65",
"v 	c #5A9D60",
"w 	c #61A667",
"x 	c #6AAB6F",
"y 	c #6DAE73",
"z 	c #67AC6D",
"A 	c #3D6741",
"B 	c #4A4A4A",
"C 	c #454545",
"D 	c #404040",
"E 	c #3B3B3B",
"F 	c #353535",
"G 	c #303030",
"H 	c #E0E0E0",
"I 	c #DADADA",
"J 	c #D5D5D5",
"K 	c #C5C5C5",
"L 	c #AFAFAF",
"M 	c #AAAAAA",
"N 	c #A4A4A4",
"O 	c #949596",
"P 	c #A4ABA5",
"Q 	c #BAC4AF",
"R 	c #C3C3AC",
"S 	c #5C8B5B",
"T 	c #76B47A",
"U 	c #78BB7A",
"V 	c #70B973",
"W 	c #66B66A",
"X 	c #5EB362",
"Y 	c #57B15B",
"Z 	c #4DA951",
"` 	c #326636",
" .	c #434343",
"..	c #3E3E3E",
"+.	c #333333",
"@.	c #2E2E2E",
"#.	c #282828",
"$.	c #D2D2D2",
"%.	c #CDCDCD",
"&.	c #C7C7C7",
"*.	c #C2C2C2",
"=.	c #B2B2B2",
"-.	c #A6A6A6",
";.	c #A2A2A2",
">.	c #969696",
",.	c #959697",
"'.	c #B4CADA",
").	c #B2EEE6",
"!.	c #BDFDC9",
"~.	c #D5FFB5",
"{.	c #EFF6AF",
"].	c #528D48",
"^.	c #489F4B",
"/.	c #52A650",
"(.	c #5CAA57",
"_.	c #6AAF65",
":.	c #679F65",
"<.	c #477246",
"[.	c #3F5440",
"}.	c #245628",
"|.	c #2B2B2B",
"1.	c #262626",
"2.	c #202020",
"3.	c #CACACA",
"4.	c #C0C0C0",
"5.	c #BABABA",
"6.	c #8F8F8F",
"7.	c #97989C",
"8.	c #A8C2F4",
"9.	c #9ACAFF",
"0.	c #A7E0F9",
"a.	c #BAF6E1",
"b.	c #D1FFCB",
"c.	c #E9FABE",
"d.	c #478340",
"e.	c #B3B994",
"f.	c #BEC2AE",
"g.	c #C8CBC4",
"h.	c #C9CCCA",
"i.	c #C9CBCF",
"j.	c #717275",
"k.	c #3D3E3D",
"l.	c #225425",
"m.	c #292929",
"n.	c #232323",
"o.	c #1D1D1D",
"p.	c #191919",
"q.	c #C8C8C8",
"r.	c #C3C3C3",
"s.	c #BDBDBD",
"t.	c #ADADAD",
"u.	c #9D9D9D",
"v.	c #929292",
"w.	c #8D8D8F",
"x.	c #B3BDE5",
"y.	c #A5B8F7",
"z.	c #A9C5FD",
"A.	c #B0D5FE",
"B.	c #BBE8F5",
"C.	c #CDF8E1",
"D.	c #E4FBD1",
"E.	c #498D45",
"F.	c #F2DFCD",
"G.	c #E2DAD4",
"H.	c #DAD9D8",
"I.	c #D7D7D8",
"J.	c #D3D3D5",
"K.	c #D0D1D3",
"L.	c #737B76",
"M.	c #235A26",
"N.	c #212121",
"O.	c #1B1B1B",
"P.	c #161616",
"Q.	c #101010",
"R.	c #BBBBBB",
"S.	c #B5B5B5",
"T.	c #A5A5A5",
"U.	c #A0A0A0",
"V.	c #9A9A9A",
"W.	c #8A8A8A",
"X.	c #858585",
"Y.	c #ADB1BC",
"Z.	c #BBB7CB",
"`.	c #BFC1DC",
" +	c #C0C8EC",
".+	c #C0D1F8",
"++	c #C4DEFA",
"@+	c #D0EEF0",
"#+	c #E3F4E3",
"$+	c #4D964D",
"%+	c #F0E8DE",
"&+	c #E6E2DF",
"*+	c #DFDFE0",
"=+	c #DBDBDC",
"-+	c #BAC6BD",
";+	c #2F6532",
">+	c #1E1E1E",
",+	c #181818",
"'+	c #131313",
")+	c #0D0D0D",
"!+	c #080808",
"~+	c #878787",
"{+	c #C7CAD2",
"]+	c #CAC3C4",
"^+	c #D0CBD0",
"/+	c #D4D2DB",
"(+	c #D4D7E7",
"_+	c #D5DDEF",
":+	c #E5EAEF",
"<+	c #DDDEDF",
"[+	c #48904B",
"}+	c #CACACB",
"|+	c #E0E0E2",
"1+	c #E4E3E5",
"2+	c #E7E7E7",
"3+	c #E3E3E4",
"4+	c #C1CDC2",
"5+	c #67A26A",
"6+	c #282929",
"7+	c #111111",
"8+	c #0B0B0B",
"9+	c #050505",
"0+	c #010101",
"a+	c #B0B0B0",
"b+	c #ABABAB",
"c+	c #959595",
"d+	c #808080",
"e+	c #7A7A7A",
"f+	c #7F7F80",
"g+	c #CFD1D4",
"h+	c #D1CECD",
"i+	c #D9D6D6",
"j+	c #E0DDDD",
"k+	c #E4E2E3",
"l+	c #E1E1E5",
"m+	c #9E9FA1",
"n+	c #525252",
"o+	c #3C823E",
"p+	c #828282",
"q+	c #888889",
"r+	c #BEBDC2",
"s+	c #E6E6E8",
"t+	c #EAEBEB",
"u+	c #E6E7E7",
"v+	c #C7D3C9",
"w+	c #6BA46C",
"x+	c #85858A",
"y+	c #0E0E0E",
"z+	c #030303",
"A+	c #A8A8A8",
"B+	c #989898",
"C+	c #8D8D8D",
"D+	c #7D7D7D",
"E+	c #787878",
"F+	c #727272",
"G+	c #7A7A7B",
"H+	c #D5D6D9",
"I+	c #D7D6D7",
"J+	c #E7E6E6",
"K+	c #ECECEC",
"L+	c #D8D8DD",
"M+	c #6F6F70",
"N+	c #317A33",
"O+	c #3C3C3C",
"P+	c #565656",
"Q+	c #4F4F50",
"R+	c #E0E1E3",
"S+	c #CDD8CD",
"T+	c #6CA36C",
"U+	c #DADADE",
"V+	c #0A0A0B",
"W+	c #9B9B9B",
"X+	c #909090",
"Y+	c #7B7B7B",
"Z+	c #757575",
"`+	c #6F6F6F",
" @	c #6A6A6A",
".@	c #6A6A6B",
"+@	c #D9DBE0",
"@@	c #DCDCDE",
"#@	c #F2F2F2",
"$@	c #E0E0E4",
"%@	c #8F8F90",
"&@	c #377F39",
"*@	c #3F3F3F",
"=@	c #D9E1DB",
"-@	c #DADED9",
";@	c #ADC2AD",
">@	c #8EB08F",
",@	c #659D67",
"'@	c #DEDDDE",
")@	c #1C1C1E",
"!@	c #6D6D6D",
"~@	c #686868",
"{@	c #626262",
"]@	c #5D5D5D",
"^@	c #BBBCC1",
"/@	c #E8E9E9",
"(@	c #EFEFF0",
"_@	c #F4F4F5",
":@	c #F1F2F3",
"<@	c #BAC0BD",
"[@	c #7E897F",
"}@	c #39803D",
"|@	c #505050",
"1@	c #313232",
"2@	c #BBCFBE",
"3@	c #82B086",
"4@	c #80C283",
"5@	c #469C48",
"6@	c #649E66",
"7@	c #DDDADB",
"8@	c #1F1F21",
"9@	c #8B8B8B",
"0@	c #707070",
"a@	c #656565",
"b@	c #606060",
"c@	c #5A5A5A",
"d@	c #555555",
"e@	c #747577",
"f@	c #E0E1E4",
"g@	c #ECECED",
"h@	c #F1F1F2",
"i@	c #F3F4F4",
"j@	c #A7BFAA",
"k@	c #82B486",
"l@	c #62A666",
"m@	c #227929",
"n@	c #727273",
"o@	c #6D6E6F",
"p@	c #C6CDCB",
"q@	c #669A6F",
"r@	c #51B44C",
"s@	c #5DCA4D",
"t@	c #51C043",
"u@	c #79AD7B",
"v@	c #D6D5DF",
"w@	c #1B1C1D",
"x@	c #898989",
"y@	c #737373",
"z@	c #636363",
"A@	c #585858",
"B@	c #484849",
"C@	c #B9B9BF",
"D@	c #EBECED",
"E@	c #F3F3F4",
"F@	c #BCCABE",
"G@	c #48964A",
"H@	c #60C359",
"I@	c #50BD45",
"J@	c #3F9C39",
"K@	c #DCE1CE",
"L@	c #CBE6CB",
"M@	c #C0EADC",
"N@	c #70B58B",
"O@	c #6BCB51",
"P@	c #89D56B",
"Q@	c #5DB34A",
"R@	c #9DBFB3",
"S@	c #C7CCE4",
"T@	c #060606",
"U@	c #767676",
"V@	c #6B6B6B",
"W@	c #5B5B5B",
"X@	c #434344",
"Y@	c #D3D4D9",
"Z@	c #AFC6B1",
"`@	c #51B840",
" #	c #8FE06E",
".#	c #73CE59",
"+#	c #88BE5C",
"@#	c #E6ECB5",
"##	c #E0F8CA",
"$#	c #CFF8DC",
"%#	c #B1E8DF",
"&#	c #68C08C",
"*#	c #7AC76F",
"=#	c #A6D6AF",
"-#	c #B1C9F0",
";#	c #7B7F8B",
">#	c #6E6E6E",
",#	c #323232",
"'#	c #3A3A3B",
")#	c #CED0D4",
"!#	c #F0F3F1",
"~#	c #83C876",
"{#	c #6DC146",
"]#	c #98D15A",
"^#	c #D7E099",
"/#	c #F6E8BC",
"(#	c #ECF8C3",
"_#	c #DAFECD",
":#	c #CAFBDD",
"<#	c #BDEFEF",
"[#	c #B3E2F8",
"}#	c #AFD6FB",
"|#	c #B6C4DB",
"1#	c #717171",
"2#	c #3A3A3A",
"3#	c #2A2A2A",
"4#	c #252525",
"5#	c #242424",
"6#	c #92979D",
"7#	c #D5E5E7",
"8#	c #DCEAD1",
"9#	c #E7E1C5",
"0#	c #F9DBC3",
"a#	c #FDE5BE",
"b#	c #F3F5BE",
"c#	c #E3FFC3",
"d#	c #D3FFCE",
"e#	c #C5FBDE",
"f#	c #C2EEF1",
"g#	c #BAC7D3",
"h#	c #171718",
"i#	c #696969",
"j#	c #5E5E5E",
"k#	c #595959",
"l#	c #4E4E4E",
"m#	c #494949",
"n#	c #2D2D2D",
"o#	c #121212",
"p#	c #242527",
"q#	c #757C86",
"r#	c #C3C5CD",
"s#	c #E2D4D0",
"t#	c #EFDDC7",
"u#	c #EEEAC4",
"v#	c #E4F4C9",
"w#	c #D8F0D5",
"x#	c #C4D7D0",
"y#	c #575A5C",
"z#	c #050506",
"A#	c #616161",
"B#	c #5C5C5C",
"C#	c #515151",
"D#	c #4B4B4B",
"E#	c #464646",
"F#	c #0A0A0A",
"G#	c #171819",
"H#	c #222225",
"I#	c #252628",
"J#	c #222325",
"K#	c #171719",
"L#	c #020202",
"M#	c #444444",
". . . . . . . . . . . . . . . . . . . . . . . . . . . . . . . . . . . . . . . ",
". . . . . . . . . . . . . . . . . . . . . . . . . . . . . . . . . . . . . . . ",
". . + @ # $ % & * = - ; > , ' ) ! ~ { ] ^ / ( _ : < [ } | 1 2 3 4 5 6 7 8 . . ",
". . 9 0 a b c d e f g h i j k l m n o p q r s t u v w x y z A B C D E F G . . ",
". . H I J * = K ; > , L M N ~ { ] ^ O P Q R S T U V W X Y Z `  ...8 +.@.#.. . ",
". . b $.%.&.*.g h =.j -.;.m >.o ,.'.).!.~.{.].^./.(._.:.<.[.}.E F G |.1.2.. . ",
". . * 3.K 4.5., L M N ~ { ] 6.7.8.9.0.a.b.c.d.e.f.g.h.i.j.k.l.+.@.m.n.o.p.. . ",
". . q.r.s.h =.t.k ;.u.n v.p w.x.y.z.A.B.C.D.E.F.G.H.I.J.K.L.M.|.1.N.O.P.Q.. . ",
". . 4.R.S.L M T.U.V.] 6.W.X.Y.Z.`. +.+++@+#+$+%+&+0 *+=+I.-+;+n.>+,+'+)+!+. . ",
". . h =.t.k ;.m n v.p ~+r _ {+]+^+/+(+_+:+<+[+}+|+1+2+3+*+4+5+6+P.7+8+9+0+. . ",
". . a+b+T.U.V.c+6.W.X.d+e+f+g+h+i+j+k+l+m+n+o+p+q+r+s+t+u+v+w+x+y+!+z+. . . . ",
". . A+! u.B+v.C+/ p+D+E+F+G+H+I+$ J+K+L+M+ .N+O+P+Q+R++ K+S+T+U+V+0+. . . . . ",
". . U.W+>.X+W.X.d+Y+Z+`+ @.@+@@@# K+#@$@%@F+&@@.|.*@=@-@;@>@,@'@)@. . . . . . ",
". . B+v.C+/ p+D+E+F+!@~@{@]@^@|+/@(@_@:@<@[@}@|@7 1@2@3@4@5@6@7@8@. . . . . . ",
". . X+9@X.d+e+Z+0@ @a@b@c@d@e@f@g@h@i@j@k@l@m@n@o@p@q@r@s@t@u@v@w@. . . . . . ",
". . x@( _ E+y@!@~@z@]@A@3 4 B@C@D@E@F@G@H@I@J@K@L@M@N@O@P@Q@R@S@T@. . . . . . ",
". . d+Y+U@0@V@a@b@W@d@|@B C *@X@Y@E@Z@`@ #.#+#@###$#%#&#*#=#-#;#. . . . . . . ",
". . E+y@>#~@{@]@A@3 4 5  ...8 ,#'#)#!#~#{#]#^#/#(#_#:#<#[#}#|#V+. . . . . . . ",
". . 1#V@a@b@W@P+|@B C D 2#F G 3#4#5#6#7#8#9#0#a#b#c#d#e#f#g#h#. . . . . . . . ",
". . i#z@j#k#3 l#m# ...8 ,#n##.n.o.,+o#p#q#r#s#t#u#v#w#x#y#z#. . . . . . . . . ",
". . A#B#P+C#D#E#D E F G 3#1.2.O.P.Q.F#9+. z+G#H#I#J#K#L#. . . . . . . . . . . ",
". . k#3 l#m#M#..8 +.@.#.n.o.,+o#)+!+z+. . . . . . . . . . . . . . . . . . . . ",
". . . . . . . . . . . . . . . . . . . . . . . . . . . . . . . . . . . . . . . ",
". . . . . . . . . . . . . . . . . . . . . . . . . . . . . . . . . . . . . . . "};
