/* XPM */
static char * napster_xpm[] = {
"16 16 175 2",
"  	c None",
". 	c #F8F8F8",
"+ 	c #F0F0F0",
"@ 	c #E8E8E8",
"# 	c #E0E0E0",
"$ 	c #D8D8D8",
"% 	c #D0D0D0",
"& 	c #C8C8C8",
"* 	c #C0C0C0",
"= 	c #B8B8B8",
"- 	c #B0B0B0",
"; 	c #A8A8A8",
"> 	c #A0A0A0",
", 	c #989898",
"' 	c #909090",
") 	c #888888",
"! 	c #808080",
"~ 	c #00C1FF",
"{ 	c #00C9FF",
"] 	c #00D2FF",
"^ 	c #00DBFF",
"/ 	c #00E4FF",
"( 	c #00E7FF",
"_ 	c #00DFFF",
": 	c #00D6FF",
"< 	c #00CDFF",
"[ 	c #00C5FF",
"} 	c #00BCFF",
"| 	c #00B3FF",
"1 	c #00AAFF",
"2 	c #00A1FF",
"3 	c #787878",
"4 	c #00DAFF",
"5 	c #00E3FF",
"6 	c #00D0F7",
"7 	c #07C6F5",
"8 	c #0AC7FF",
"9 	c #00ABFF",
"0 	c #00A2FF",
"a 	c #0099FF",
"b 	c #707070",
"c 	c #00D1FF",
"d 	c #09B5CB",
"e 	c #31A5B2",
"f 	c #40B0C0",
"g 	c #23373B",
"h 	c #020203",
"i 	c #010102",
"j 	c #2E2E2F",
"k 	c #8EA3AC",
"l 	c #3F7997",
"m 	c #5189AB",
"n 	c #54BBFF",
"o 	c #0091FF",
"p 	c #686868",
"q 	c #00E2FF",
"r 	c #178F9C",
"s 	c #040405",
"t 	c #000000",
"u 	c #010101",
"v 	c #858586",
"w 	c #79C5FF",
"x 	c #0089FF",
"y 	c #606060",
"z 	c #178C9C",
"A 	c #2C2C2C",
"B 	c #363A3C",
"C 	c #9B9B9B",
"D 	c #64B7FF",
"E 	c #0080FF",
"F 	c #585858",
"G 	c #00E0FE",
"H 	c #1B4047",
"I 	c #50B4D7",
"J 	c #28C0FF",
"K 	c #00ADFF",
"L 	c #057FC4",
"M 	c #2870A0",
"N 	c #4F4F4F",
"O 	c #AFD6FE",
"P 	c #0178FF",
"Q 	c #505050",
"R 	c #00ABC9",
"S 	c #303030",
"T 	c #2B2E30",
"U 	c #474D51",
"V 	c #455057",
"W 	c #282C30",
"X 	c #26292B",
"Y 	c #CDCDCD",
"Z 	c #328CFF",
"` 	c #484848",
" .	c #00D9FF",
"..	c #00A9CF",
"+.	c #1D1D1D",
"@.	c #111111",
"#.	c #CFCFCF",
"$.	c #3084FF",
"%.	c #40403F",
"&.	c #00C8FF",
"*.	c #1A5C73",
"=.	c #6F6F6F",
"-.	c #496A7C",
";.	c #7B7B7B",
">.	c #415569",
",.	c #666666",
"'.	c #99C2FF",
").	c #005FFF",
"!.	c #373737",
"~.	c #00C0FF",
"{.	c #00B7FF",
"].	c #192A33",
"^.	c #080809",
"/.	c #797B7D",
"(.	c #08090A",
"_.	c #050506",
":.	c #7A7B7D",
"<.	c #2F3031",
"[.	c #CDE1FE",
"}.	c #0160FF",
"|.	c #0057FF",
"1.	c #2F2F2F",
"2.	c #00B8FF",
"3.	c #00AFFF",
"4.	c #038CD7",
"5.	c #0F1316",
"6.	c #000001",
"7.	c #0D0D0E",
"8.	c #09090A",
"9.	c #141415",
"0.	c #C5CCD7",
"a.	c #2878FF",
"b.	c #0058FF",
"c.	c #004FFF",
"d.	c #272727",
"e.	c #00B0FF",
"f.	c #00A7FF",
"g.	c #009EFF",
"h.	c #0084E3",
"i.	c #264967",
"j.	c #212428",
"k.	c #252628",
"l.	c #5D6269",
"m.	c #85ABE3",
"n.	c #1C72FF",
"o.	c #0046FF",
"p.	c #1F1F1F",
"q.	c #009FFF",
"r.	c #0096FF",
"s.	c #008DFF",
"t.	c #0084FF",
"u.	c #007CFF",
"v.	c #0073FF",
"w.	c #006AFF",
"x.	c #0061FF",
"y.	c #0050FF",
"z.	c #0047FF",
"A.	c #003EFF",
"B.	c #171717",
"C.	c #00A8FF",
"D.	c #008EFF",
"E.	c #0085FF",
"F.	c #006BFF",
"G.	c #0062FF",
"H.	c #0059FF",
"I.	c #003FFF",
"J.	c #0036FF",
"K.	c #0F0F0F",
"L.	c #777777",
"M.	c #676767",
"N.	c #5F5F5F",
"O.	c #575757",
"P.	c #474747",
"Q.	c #3F3F3F",
"R.	c #070707",
". + @ # $ % & * = - ; > , ' ) ! ",
"+ ~ { ] ^ / ( _ : < [ } | 1 2 3 ",
"@ { ] 4 5 ( _ 6 7 8 } | 9 0 a b ",
"# c 4 d e f g h i j k l m n o p ",
"$ 4 q r h s t t t t t u v w x y ",
"% q ( z t t t A B t t t C D E F ",
"& ( G H t > I J K L M t N O P Q ",
"* q R t t S T U V W X t t Y Z ` ",
"=  ...t t +.t t t t @.t t #.$.%.",
"- c &.*.t =.-.t t ;.>.t ,.'.).!.",
"; { ~.{.].^./.(._.:.(.<.[.}.|.1.",
"> ~ 2.3.4.5.6.7.8.6.9.0.a.b.c.d.",
", 2.e.f.g.h.i.j.k.l.m.n.b.c.o.p.",
"' e.f.q.r.s.t.u.v.w.x.b.y.z.A.B.",
") C.q.r.D.E.u.v.F.G.H.y.z.I.J.K.",
"! L.=.M.N.O.N P.Q.!.1.d.p.B.K.R."};
