/* XPM */
static char * nbk_console_mini_xpm[] = {
"22 22 178 2",
"  	c None",
". 	c #F2F2F2",
"+ 	c #EEEEEE",
"@ 	c #EDEDED",
"# 	c #F3F3F3",
"$ 	c #F8F8F8",
"% 	c #F6F6F6",
"& 	c #CACACA",
"* 	c #C9C9C9",
"= 	c #242424",
"- 	c #333333",
"; 	c #303030",
"> 	c #2E2E2E",
", 	c #2B2B2B",
"' 	c #292929",
") 	c #252525",
"! 	c #222222",
"~ 	c #1E1E1E",
"{ 	c #1C1C1C",
"] 	c #1B1B1B",
"^ 	c #191919",
"/ 	c #181818",
"( 	c #161616",
"_ 	c #141414",
": 	c #131313",
"< 	c #111111",
"[ 	c #0F0F0F",
"} 	c #0D0D0D",
"| 	c #090909",
"1 	c #919191",
"2 	c #DADADA",
"3 	c #C7C7C7",
"4 	c #BABABA",
"5 	c #ABABAB",
"6 	c #989898",
"7 	c #838383",
"8 	c #6D6D6D",
"9 	c #5B5B5C",
"0 	c #525252",
"a 	c #4A4A4A",
"b 	c #424242",
"c 	c #3A3A3A",
"d 	c #2B2B2C",
"e 	c #0B0B0B",
"f 	c #070707",
"g 	c #020202",
"h 	c #818181",
"i 	c #B4B4B4",
"j 	c #A9A9AA",
"k 	c #E2E2E5",
"l 	c #E0E0E4",
"m 	c #DBDBDF",
"n 	c #D6D6DA",
"o 	c #CFCFD5",
"p 	c #CECED4",
"q 	c #CCCCD2",
"r 	c #CDCDD2",
"s 	c #CACAD0",
"t 	c #CBCBD0",
"u 	c #C9C9CF",
"v 	c #C8C8CE",
"w 	c #A4A4A9",
"x 	c #080808",
"y 	c #000000",
"z 	c #717171",
"A 	c #939393",
"B 	c #9D9D9E",
"C 	c #D1D1D5",
"D 	c #808081",
"E 	c #707072",
"F 	c #626263",
"G 	c #5E5E60",
"H 	c #5E5E5F",
"I 	c #5C5C5E",
"J 	c #5B5B5D",
"K 	c #59595B",
"L 	c #58585A",
"M 	c #666668",
"N 	c #171717",
"O 	c #666666",
"P 	c #7F7F7F",
"Q 	c #8E8E8F",
"R 	c #BABABD",
"S 	c #565656",
"T 	c #4D4D4D",
"U 	c #373737",
"V 	c #2F2F2F",
"W 	c #1D1D1D",
"X 	c #121212",
"Y 	c #202020",
"Z 	c #C1C1C6",
"` 	c #171718",
" .	c #5E5E5E",
"..	c #6F6F6F",
"+.	c #818182",
"@.	c #B3B3B7",
"#.	c #454545",
"$.	c #585858",
"%.	c #494949",
"&.	c #444444",
"*.	c #343434",
"=.	c #101010",
"-.	c #C0C0C5",
";.	c #5F5F5F",
">.	c #747476",
",.	c #ADADB0",
"'.	c #383838",
").	c #414141",
"!.	c #676767",
"~.	c #707070",
"{.	c #1F1F1F",
"].	c #353535",
"^.	c #0E0E0E",
"/.	c #4E4E4E",
"(.	c #4F4F4F",
"_.	c #676769",
":.	c #A8A8AC",
"<.	c #323232",
"[.	c #4B4B4B",
"}.	c #6A6A6A",
"|.	c #696969",
"1.	c #545454",
"2.	c #515151",
"3.	c #151515",
"4.	c #464646",
"5.	c #404040",
"6.	c #484848",
"7.	c #616161",
"8.	c #3D3D3D",
"9.	c #232323",
"0.	c #4C4C4C",
"a.	c #434343",
"b.	c #3E3E3E",
"c.	c #313131",
"d.	c #545455",
"e.	c #A7A7AC",
"f.	c #535353",
"g.	c #555555",
"h.	c #4C4A42",
"i.	c #3B382D",
"j.	c #3F3C30",
"k.	c #444136",
"l.	c #3B3B3B",
"m.	c #272727",
"n.	c #282828",
"o.	c #535355",
"p.	c #A5A5A9",
"q.	c #3B3A36",
"r.	c #4D411A",
"s.	c #524414",
"t.	c #3B372B",
"u.	c #3C3C3C",
"v.	c #47453E",
"w.	c #474131",
"x.	c #545456",
"y.	c #1A1A1B",
"z.	c #555556",
"A.	c #9D9DA1",
"B.	c #A0A0A4",
"C.	c #A2A2A6",
"D.	c #A2A2A7",
"E.	c #A3A3A7",
"F.	c #A1A1A4",
"G.	c #9F9FA2",
"H.	c #A4A4A8",
"I.	c #A1A1A5",
"J.	c #CDCDD3",
"K.	c #2C2C2C",
"L.	c #4C4C4D",
"M.	c #C5C5CA",
"N.	c #C4C4C9",
"O.	c #C3C3C9",
"P.	c #B9B9BD",
"Q.	c #BBBBBF",
"R.	c #B8B8BD",
"S.	c #141415",
"T.	c #060606",
"U.	c #030303",
"  . + @ @ @ @ @ @ @ @ @ @ @ @ @ @ @ @ + #   ",
"  $ $ $ $ $ $ $ $ $ $ $ $ $ $ $ $ $ $ $ $   ",
"  % % % % % % % % % % % % % % % % % % % %   ",
"  & & & & & & & * * * * * * * * * * & & *   ",
"  = - ; > , ' ) ! ~ { ] ^ / ( _ : < [ } |   ",
"  1 2 3 4 5 6 7 8 9 0 a b c - d ) ( e f g   ",
"  h i j k l m n o p q r q s t u v w x y y   ",
"  z A B C D E F G H I J 9 K K L M s N y y   ",
"  O P Q R S T U V ' ! W / _ : X Y Z ` y y   ",
"   ...+.@.#.$.%.&.*.Y ] N _ X =.W -.` y y   ",
"  S ;.>.,.'.).!.~.;.; {.].].] ^.] -.` y y   ",
"  /.(._.:.<.[.}.|.1.U c (.2.#.3.] -.` y y   ",
"  4.5.9 :.V 6.7.;.8.~ 9.a 0.a./ ] -.` y y   ",
"  b.c.d.e., ].f.g.h.i.j.k.l.m.[ ] -.` y y   ",
"  U n.o.p.m.n.<.).q.r.s.t.c.N ^.] -.` y y   ",
"  c.m.d.p.= m.u.4.%.v.w.6.a.- X ] -.` y y   ",
"  <.' x.p.~ > #.a 0.0.[.a #.l.= y.-.` y y   ",
"  - , z.p A.B.C.D.E.F.G.H.C.C.B.I.J.` y y   ",
"  *.K.L.M.N.M.M.O.M.P.Q.M.N.M.N.N.R.S.y y   ",
"  *.> T.y y y y y y y y y y y y y y y y y   ",
"  / 3.U.y y y y y y y y y y y y y y y y y   ",
"  y y y y y y y y y y y y y y y y y y y y   "};
