/* XPM */
static char * nbk_uploads_mini_xpm[] = {
"22 22 244 2",
"  	c None",
". 	c #F2F2F2",
"+ 	c #EEEEEE",
"@ 	c #EDEDED",
"# 	c #F3F3F3",
"$ 	c #F8F8F8",
"% 	c #F6F6F6",
"& 	c #CACACA",
"* 	c #C9C9C9",
"= 	c #5A5A5A",
"- 	c #6A6A6A",
"; 	c #646464",
"> 	c #5E5E5E",
", 	c #585858",
"' 	c #525252",
") 	c #4C4C4C",
"! 	c #464646",
"~ 	c #404040",
"{ 	c #3A3B3A",
"] 	c #353C35",
"^ 	c #2E2F2E",
"/ 	c #282928",
"( 	c #222322",
"_ 	c #1C1D1C",
": 	c #161716",
"< 	c #101010",
"[ 	c #0B0B0B",
"} 	c #070707",
"| 	c #959595",
"1 	c #B1B1B1",
"2 	c #A5A5A5",
"3 	c #9A9A9A",
"4 	c #8F8F8F",
"5 	c #848484",
"6 	c #797979",
"7 	c #6D6D6D",
"8 	c #636562",
"9 	c #5FA55B",
"0 	c #56B351",
"a 	c #425241",
"b 	c #353535",
"c 	c #2A2A2A",
"d 	c #1F1F1F",
"e 	c #141414",
"f 	c #080808",
"g 	c #010101",
"h 	c #000000",
"i 	c #8B8B8B",
"j 	c #8E8E8E",
"k 	c #838383",
"l 	c #787878",
"m 	c #626862",
"n 	c #5FB45B",
"o 	c #5AE052",
"p 	c #4CBB45",
"q 	c #3FA33A",
"r 	c #2C472B",
"s 	c #1E1E1E",
"t 	c #131313",
"u 	c #828282",
"v 	c #999999",
"w 	c #777777",
"x 	c #6C6C6C",
"y 	c #626C61",
"z 	c #61C35B",
"A 	c #59DB52",
"B 	c #4BBD45",
"C 	c #40B63A",
"D 	c #35B02F",
"E 	c #2A9E24",
"F 	c #174014",
"G 	c #070807",
"H 	c #8D8D8D",
"I 	c #818181",
"J 	c #6B6B6B",
"K 	c #627261",
"L 	c #61CF5B",
"M 	c #60D859",
"N 	c #59C054",
"O 	c #41B63B",
"P 	c #35B22E",
"Q 	c #2AAD23",
"R 	c #20A818",
"S 	c #15990E",
"T 	c #074204",
"U 	c #000100",
"V 	c #6F6F6F",
"W 	c #767676",
"X 	c #627B61",
"Y 	c #61DA5A",
"Z 	c #7DDA78",
"` 	c #E3EDE2",
" .	c #F0F2F0",
"..	c #9ECD9C",
"+.	c #2BAD24",
"@.	c #2DAD27",
"#.	c #49B544",
"$.	c #32AD2C",
"%.	c #119B09",
"&.	c #085304",
"*.	c #000200",
"=.	c #656565",
"-.	c #757575",
";.	c #628360",
">.	c #60DA5A",
",.	c #59CB53",
"'.	c #C8DCC7",
").	c #FBFBFB",
"!.	c #D2D2D2",
"~.	c #66AE62",
"{.	c #C7D4C6",
"].	c #F4F4F4",
"^.	c #EFF1EF",
"/.	c #71BB6D",
"(.	c #0F9408",
"_.	c #095A05",
":.	c #000400",
"<.	c #5C5C5C",
"[.	c #696969",
"}.	c #5F6F5E",
"|.	c #5CAD57",
"1.	c #53C34D",
"2.	c #53BE4D",
"3.	c #D1D9D1",
"4.	c #F9F9F9",
"5.	c #ECECEC",
"6.	c #60615F",
"7.	c #424A41",
"8.	c #898B89",
"9.	c #F1F1F1",
"0.	c #F0F0F0",
"a.	c #B2C3B1",
"b.	c #147B0E",
"c.	c #0D8307",
"d.	c #084B04",
"e.	c #5D5D5D",
"f.	c #459F41",
"g.	c #42BF3B",
"h.	c #AABEA9",
"i.	c #E5E5E5",
"j.	c #E5E5E4",
"k.	c #72736A",
"l.	c #4B7E43",
"m.	c #A0A39A",
"n.	c #CAC9C4",
"o.	c #C1C1C1",
"p.	c #6D9B6B",
"q.	c #0D7C07",
"r.	c #053303",
"s.	c #494949",
"t.	c #515151",
"u.	c #3B3B3B",
"v.	c #3A9A35",
"w.	c #33BF2C",
"x.	c #4A9C45",
"y.	c #A5ACA5",
"z.	c #AEAEAC",
"A.	c #C4A84B",
"B.	c #F4D133",
"C.	c #ECC539",
"D.	c #948B6B",
"E.	c #60845E",
"F.	c #13950C",
"G.	c #0D8007",
"H.	c #3F3F3F",
"I.	c #454545",
"J.	c #3A3A3A",
"K.	c #2F2F2F",
"L.	c #2F9629",
"M.	c #29BD21",
"N.	c #26A31F",
"O.	c #7B8E7B",
"P.	c #AEACA4",
"Q.	c #DCB02A",
"R.	c #C4AF73",
"S.	c #BCBCBC",
"T.	c #A5AAA5",
"U.	c #3EA039",
"V.	c #0D7F07",
"W.	c #393939",
"X.	c #2E2E2E",
"Y.	c #232323",
"Z.	c #24911E",
"`.	c #1FBA16",
" +	c #6DA46A",
".+	c #BDBDBD",
"++	c #DADADA",
"@+	c #EAEAEA",
"#+	c #E0DDD5",
"$+	c #E8E8E7",
"%+	c #E6E6E6",
"&+	c #CDCDCD",
"*+	c #9DAB9C",
"=+	c #20801B",
"-+	c #2C2C2C",
";+	c #2D2D2D",
">+	c #222222",
",+	c #171717",
"'+	c #188B12",
")+	c #3AB633",
"!+	c #B0B5B0",
"~+	c #D8D9D8",
"{+	c #F9FBF9",
"]+	c #FCFDFC",
"^+	c #FBFDFB",
"/+	c #F6F7F6",
"(+	c #E4E5E4",
"_+	c #C3C5C3",
":+	c #4A8847",
"<+	c #212121",
"[+	c #161616",
"}+	c #0F8609",
"|+	c #5FB45A",
"1+	c #99C097",
"2+	c #B1D8AF",
"3+	c #BCE3BA",
"4+	c #BFE6BD",
"5+	c #BEE5BC",
"6+	c #B7DEB5",
"7+	c #A3CAA1",
"8+	c #428D3E",
"9+	c #191919",
"0+	c #0A0A0A",
"a+	c #020202",
"b+	c #38B331",
"c+	c #4CAF46",
"d+	c #53B64E",
"e+	c #56B951",
"f+	c #55B84F",
"g+	c #4FB14A",
"h+	c #24841F",
"i+	c #0F0F0F",
"j+	c #090909",
"k+	c #0C7A07",
"l+	c #11980A",
"m+	c #11900B",
"n+	c #118E0A",
"o+	c #118F0A",
"p+	c #0F8E09",
"q+	c #053403",
"r+	c #050505",
"s+	c #021401",
"t+	c #032202",
"u+	c #010800",
"  . + @ @ @ @ @ @ @ @ @ @ @ @ @ @ @ @ + #   ",
"  $ $ $ $ $ $ $ $ $ $ $ $ $ $ $ $ $ $ $ $   ",
"  % % % % % % % % % % % % % % % % % % % %   ",
"  & & & & & & & * * * * * * * * * * & & *   ",
"  = - ; > , ' ) ! ~ { ] ^ / ( _ : < [ } }   ",
"  | 1 2 3 4 5 6 7 8 9 0 a b c d e f g h h   ",
"  i 2 3 j k l 7 m n o p q r s t f g h h h   ",
"  u v j u w x y z A B C D E F G g h h h h   ",
"  l H I w J K L M N O P Q R S T U h h h h   ",
"  V I W - X Y Z `  ...+.@.#.$.%.&.*.h h h   ",
"  =.-.- ;.>.,.'.).. !.~.{.].^./.(._.:.h h   ",
"  <.[.}.|.1.2.3.4.5.6.7.8.9.0.a.b.c.d.h h   ",
"  ' e.' ! f.g.h.i.j.k.l.m.n.o.p.q.r.h h h   ",
"  s.t.! u.v.w.x.y.z.A.B.C.D.E.F.G.r.h h h   ",
"  H.I.J.K.L.M.N.O.3 P.Q.R.S.T.U.V.r.h h h   ",
"  b W.X.Y.Z.`. +.+++@+#+$+%+&+*+=+r.h h h   ",
"  -+;+>+,+'+)+!+~+^.{+]+^+/+(+_+:+r.h h h   ",
"  Y.<+[+[ }+|+1+2+3+4+4+4+5+6+7+8+r.h h h   ",
"  9+[+0+a+c.b+c+d+e+e+e+e+e+f+g+h+r.h h h   ",
"  i+j+g h k+l+m+m+m+m+n+m+m+m+o+p+q+h h h   ",
"  r+g h h s+t+t+t+t+t+t+t+t+t+t+t+u+h h h   ",
"  h h h h h h h h h h h h h h h h h h h h   "};
