/* XPM */
static char * nbk_search_mini_xpm[] = {
"22 22 200 2",
"  	c None",
". 	c #F2F2F2",
"+ 	c #EEEEEE",
"@ 	c #EDEDED",
"# 	c #F3F3F3",
"$ 	c #F8F8F8",
"% 	c #F6F6F6",
"& 	c #CACACA",
"* 	c #C9C9C9",
"= 	c #1C1C1C",
"- 	c #272727",
"; 	c #252525",
"> 	c #232323",
", 	c #212121",
"' 	c #1F1F1F",
") 	c #1D1D1D",
"! 	c #1B1B1B",
"~ 	c #191919",
"{ 	c #171717",
"] 	c #151515",
"^ 	c #131313",
"/ 	c #111111",
"( 	c #0F0F0F",
"_ 	c #0E0E0E",
": 	c #0C0C0C",
"< 	c #0A0A0A",
"[ 	c #080808",
"} 	c #070707",
"| 	c #696969",
"1 	c #A0A0A0",
"2 	c #969696",
"3 	c #8C8C8C",
"4 	c #818181",
"5 	c #777777",
"6 	c #6D6D6D",
"7 	c #636363",
"8 	c #595959",
"9 	c #515051",
"0 	c #464646",
"a 	c #3A3A3A",
"b 	c #2F2F2F",
"c 	c #010101",
"d 	c #000000",
"e 	c #616161",
"f 	c #939393",
"g 	c #898989",
"h 	c #7E7E7E",
"i 	c #747474",
"j 	c #6A6A6A",
"k 	c #606060",
"l 	c #565656",
"m 	c #525050",
"n 	c #615B5C",
"o 	c #575355",
"p 	c #474648",
"q 	c #3B3937",
"r 	c #1C1B1B",
"s 	c #040404",
"t 	c #868686",
"u 	c #7B7B7B",
"v 	c #717171",
"w 	c #676767",
"x 	c #5C5C5C",
"y 	c #525252",
"z 	c #575454",
"A 	c #766D6E",
"B 	c #6F6B6B",
"C 	c #635A58",
"D 	c #5A5557",
"E 	c #534C4D",
"F 	c #433938",
"G 	c #0D0B0C",
"H 	c #505050",
"I 	c #787878",
"J 	c #6E6E6E",
"K 	c #646464",
"L 	c #5A5A5A",
"M 	c #4F4F4F",
"N 	c #555353",
"O 	c #827979",
"P 	c #7E787A",
"Q 	c #736969",
"R 	c #70605D",
"S 	c #675955",
"T 	c #4C4647",
"U 	c #3D393B",
"V 	c #332D2C",
"W 	c #0B0B0C",
"X 	c #484848",
"Y 	c #6B6B6B",
"Z 	c #575757",
"` 	c #4C4C4C",
" .	c #454444",
"..	c #7A7473",
"+.	c #9D9897",
"@.	c #B5B4B4",
"#.	c #B8B3B1",
"$.	c #8C898A",
"%.	c #928E8E",
"&.	c #757473",
"*.	c #545453",
"=.	c #22201F",
"-.	c #161717",
";.	c #070708",
">.	c #404040",
",.	c #5E5E5E",
"'.	c #535353",
").	c #494949",
"!.	c #3F3F3F",
"~.	c #454343",
"{.	c #9D9B9B",
"].	c #E2E2E2",
"^.	c #F9F9F9",
"/.	c #CDCDCD",
"(.	c #9D9D9D",
"_.	c #7F7F7F",
":.	c #737373",
"<.	c #4C4C4B",
"[.	c #171517",
"}.	c #09090A",
"|.	c #373737",
"1.	c #3C3C3C",
"2.	c #323232",
"3.	c #53504F",
"4.	c #FCFCFC",
"5.	c #ADADAD",
"6.	c #767676",
"7.	c #666666",
"8.	c #DFDFDF",
"9.	c #EAEAEA",
"0.	c #888485",
"a.	c #110F10",
"b.	c #434343",
"c.	c #393939",
"d.	c #282828",
"e.	c #6F6E6E",
"f.	c #FEFEFE",
"g.	c #DEDEDD",
"h.	c #8D8D8D",
"i.	c #8E8E8E",
"j.	c #6A696A",
"k.	c #808080",
"l.	c #BFBFBF",
"m.	c #F7F7F7",
"n.	c #E9E9E9",
"o.	c #DCDCDC",
"p.	c #141414",
"q.	c #363636",
"r.	c #2B2B2B",
"s.	c #222222",
"t.	c #343231",
"u.	c #5D5A58",
"v.	c #DADADA",
"w.	c #FAFAFA",
"x.	c #EBEBEB",
"y.	c #989898",
"z.	c #4A4A4A",
"A.	c #393838",
"B.	c #414040",
"C.	c #E3E3E3",
"D.	c #D4D4D4",
"E.	c #101010",
"F.	c #1E1E1E",
"G.	c #1C1A1A",
"H.	c #232222",
"I.	c #C0C0C0",
"J.	c #BFBEBD",
"K.	c #98968A",
"L.	c #585648",
"M.	c #676557",
"N.	c #C3BEAE",
"O.	c #D0CFCD",
"P.	c #D6D6D6",
"Q.	c #DDDDDD",
"R.	c #161616",
"S.	c #030303",
"T.	c #E1E1E1",
"U.	c #C9C7BC",
"V.	c #A99B52",
"W.	c #BAA43A",
"X.	c #C6AC38",
"Y.	c #B59A53",
"Z.	c #A9A7A3",
"`.	c #020202",
" +	c #050505",
".+	c #5B5B5B",
"++	c #463B09",
"@+	c #D8AA08",
"#+	c #BB770B",
"$+	c #3D1F03",
"%+	c #2E2D2D",
"&+	c #474848",
"*+	c #060606",
"=+	c #523800",
"-+	c #5A3100",
";+	c #010100",
">+	c #353535",
",+	c #4E4E4E",
"'+	c #202020",
")+	c #121212",
"  . + @ @ @ @ @ @ @ @ @ @ @ @ @ @ @ @ + #   ",
"  $ $ $ $ $ $ $ $ $ $ $ $ $ $ $ $ $ $ $ $   ",
"  % % % % % % % % % % % % % % % % % % % %   ",
"  & & & & & & & * * * * * * * * * * & & *   ",
"  = - ; > , ' ) ! ~ { ] ^ / ( _ : < [ } }   ",
"  | 1 2 3 4 5 6 7 8 9 0 a b ; ! / } c d d   ",
"  e f g h i j k l m n o p q r _ s d d d d   ",
"  8 t u v w x y z A B C D E F G d d d d d   ",
"  H I J K L M N O P Q R S T U V W d d d d   ",
"  X Y e Z `  ...+.@.#.$.%.&.*.=.-.;.d d d   ",
"  >.,.'.).!.~.{.].^./.(.M < ` _.:.<.[.}.d   ",
"  |.H 0 1.2.3./.4.. 3 5.6.7.& 8.].9.0.a.d   ",
"  b b.c.b d.e.8.f.g.h.i.j.k.l.m.n.^.o.p.d   ",
"  - q.r.s.t.u.v.w.x.y.z.A.B.2 @ C.+ D.E.d   ",
"  F.d.F.~ G.H.I.@ # J.K.L.M.N.O.P.Q.j d d   ",
"  R.! / } S.S.L D.T.U.V.W.X.Y.Z.h c.`.d d   ",
"  _ _  +d d d S.c.6..+++@+#+$+%+&+s d d d   ",
"  *+S.d d d d d d d d d =+-+;+S.1.>+c d d   ",
"  d d d d d d d d d d d d ;+d d [ ,+'+d d   ",
"  d d d d d d d d d d d d d d d d )+|.d d   ",
"  d d d d d d d d d d d d d d d d d c d d   ",
"  d d d d d d d d d d d d d d d d d d d d   "};
