/* XPM */
static char * notebooksearchzip_xpm[] = {
"64 64 692 2",
"  	c None",
". 	c #DDDDDD",
"+ 	c #DADADA",
"@ 	c #D8D8D8",
"# 	c #D7D7D7",
"$ 	c #DEDEDE",
"% 	c #EFEFEF",
"& 	c #FFFFFF",
"* 	c #F2F2F2",
"= 	c #D3D3D3",
"- 	c #D1D1D1",
"; 	c #F9F9F9",
"> 	c #FCFCFC",
", 	c #E7E7E7",
"' 	c #EAEAEA",
") 	c #E8E8E8",
"! 	c #3A3A3A",
"~ 	c #000000",
"{ 	c #B1B1B1",
"] 	c #ADADAD",
"^ 	c #AAAAAA",
"/ 	c #A6A6A6",
"( 	c #A3A3A3",
"_ 	c #9F9F9F",
": 	c #9C9C9C",
"< 	c #989898",
"[ 	c #959595",
"} 	c #919191",
"| 	c #8E8E8E",
"1 	c #8A8A8A",
"2 	c #868686",
"3 	c #838383",
"4 	c #7F7F7F",
"5 	c #7C7C7C",
"6 	c #787878",
"7 	c #757575",
"8 	c #717171",
"9 	c #6E6E6E",
"0 	c #6A6A6A",
"a 	c #676767",
"b 	c #636363",
"c 	c #606060",
"d 	c #5C5C5C",
"e 	c #595959",
"f 	c #555555",
"g 	c #525252",
"h 	c #4E4E4E",
"i 	c #4B4B4B",
"j 	c #474747",
"k 	c #444444",
"l 	c #404040",
"m 	c #3C3C3C",
"n 	c #393939",
"o 	c #353535",
"p 	c #323232",
"q 	c #2E2E2E",
"r 	c #2B2B2B",
"s 	c #272727",
"t 	c #242424",
"u 	c #202020",
"v 	c #1D1D1D",
"w 	c #191919",
"x 	c #161616",
"y 	c #121212",
"z 	c #0F0F0F",
"A 	c #0B0B0B",
"B 	c #080808",
"C 	c #040404",
"D 	c #010101",
"E 	c #ACACAC",
"F 	c #A9A9A9",
"G 	c #A5A5A5",
"H 	c #A2A2A2",
"I 	c #9E9E9E",
"J 	c #9B9B9B",
"K 	c #979797",
"L 	c #949494",
"M 	c #909090",
"N 	c #8C8C8C",
"O 	c #898989",
"P 	c #858585",
"Q 	c #828282",
"R 	c #7E7E7E",
"S 	c #7B7B7B",
"T 	c #777777",
"U 	c #747474",
"V 	c #707070",
"W 	c #6D6D6D",
"X 	c #696969",
"Y 	c #666666",
"Z 	c #626262",
"` 	c #5F5F5F",
" .	c #5B5B5B",
"..	c #585858",
"+.	c #545454",
"@.	c #515151",
"#.	c #4F4E4E",
"$.	c #4C4C4C",
"%.	c #494848",
"&.	c #3F3F3F",
"*.	c #3B3B3B",
"=.	c #383838",
"-.	c #343434",
";.	c #313131",
">.	c #2D2D2D",
",.	c #2A2A2A",
"'.	c #262626",
").	c #232323",
"!.	c #1F1F1F",
"~.	c #1C1C1C",
"{.	c #181818",
"].	c #151515",
"^.	c #111111",
"/.	c #0E0E0E",
"(.	c #0A0A0A",
"_.	c #070707",
":.	c #030303",
"<.	c #A8A8A8",
"[.	c #A4A4A4",
"}.	c #A1A1A1",
"|.	c #9D9D9D",
"1.	c #9A9A9A",
"2.	c #969696",
"3.	c #929292",
"4.	c #8F8F8F",
"5.	c #8B8B8B",
"6.	c #888888",
"7.	c #848484",
"8.	c #818181",
"9.	c #7D7D7D",
"0.	c #7A7A7A",
"a.	c #767676",
"b.	c #737373",
"c.	c #6F6F6F",
"d.	c #6C6C6C",
"e.	c #686868",
"f.	c #656565",
"g.	c #616161",
"h.	c #5E5E5E",
"i.	c #5A5A5A",
"j.	c #575757",
"k.	c #535353",
"l.	c #505050",
"m.	c #494949",
"n.	c #454545",
"o.	c #464545",
"p.	c #373737",
"q.	c #333333",
"r.	c #303030",
"s.	c #2C2C2C",
"t.	c #292929",
"u.	c #252525",
"v.	c #222222",
"w.	c #1E1E1E",
"x.	c #1B1B1B",
"y.	c #171717",
"z.	c #141414",
"A.	c #101010",
"B.	c #0D0D0D",
"C.	c #090909",
"D.	c #060606",
"E.	c #020202",
"F.	c #A0A0A0",
"G.	c #878787",
"H.	c #808080",
"I.	c #797979",
"J.	c #727272",
"K.	c #6B6B6B",
"L.	c #646464",
"M.	c #5D5D5D",
"N.	c #565656",
"O.	c #4C4B4B",
"P.	c #615A5C",
"Q.	c #565253",
"R.	c #484746",
"S.	c #414040",
"T.	c #3E3D3C",
"U.	c #383737",
"V.	c #2F2F2F",
"W.	c #282828",
"X.	c #212121",
"Y.	c #1A1A1A",
"Z.	c #131313",
"`.	c #0C0C0C",
" +	c #8D8D8D",
".+	c #4D4D4D",
"++	c #4A4A4A",
"@+	c #4A4949",
"#+	c #62595B",
"$+	c #565151",
"%+	c #4D4A4A",
"&+	c #4C4848",
"*+	c #4E494A",
"=+	c #3E3C3D",
"-+	c #353435",
";+	c #333230",
">+	c #252524",
",+	c #939393",
"'+	c #535352",
")+	c #545252",
"!+	c #555251",
"~+	c #635F60",
"{+	c #7C7370",
"]+	c #6E686B",
"^+	c #70676A",
"/+	c #6C6468",
"(+	c #666366",
"_+	c #59585C",
":+	c #58585C",
"<+	c #545255",
"[+	c #545051",
"}+	c #584D48",
"|+	c #33302E",
"1+	c #191819",
"2+	c #515150",
"3+	c #49494A",
"4+	c #5F5554",
"5+	c #816F6E",
"6+	c #636366",
"7+	c #5E5C5D",
"8+	c #68605C",
"9+	c #5A5859",
"0+	c #606163",
"a+	c #5C5B5E",
"b+	c #5C5A5E",
"c+	c #5A5A5C",
"d+	c #515054",
"e+	c #515254",
"f+	c #4E4C4E",
"g+	c #705E52",
"h+	c #3D3839",
"i+	c #171618",
"j+	c #050505",
"k+	c #534F4E",
"l+	c #7C6B6D",
"m+	c #7E7578",
"n+	c #8B8280",
"o+	c #6C6A6A",
"p+	c #635E61",
"q+	c #71645C",
"r+	c #4D4848",
"s+	c #5C595B",
"t+	c #5A585B",
"u+	c #545256",
"v+	c #565758",
"w+	c #525054",
"x+	c #4B4B4C",
"y+	c #48474B",
"z+	c #5C524A",
"A+	c #191A1A",
"B+	c #525050",
"C+	c #746768",
"D+	c #807577",
"E+	c #7F7D7E",
"F+	c #898282",
"G+	c #6E6C6E",
"H+	c #7D7876",
"I+	c #706C69",
"J+	c #686263",
"K+	c #79655A",
"L+	c #464345",
"M+	c #615C5E",
"N+	c #545052",
"O+	c #564D50",
"P+	c #5A4E4F",
"Q+	c #5B484A",
"R+	c #4D3F42",
"S+	c #503F41",
"T+	c #634640",
"U+	c #453536",
"V+	c #1D181A",
"W+	c #4F4F4F",
"X+	c #484848",
"Y+	c #555050",
"Z+	c #82706E",
"`+	c #827C7D",
" @	c #797579",
".@	c #847C7E",
"+@	c #80777A",
"@@	c #707072",
"#@	c #656065",
"$@	c #696462",
"%@	c #706361",
"&@	c #7C6360",
"*@	c #916656",
"=@	c #775A5A",
"-@	c #6F5856",
";@	c #5C4C4D",
">@	c #57484B",
",@	c #4C4546",
"'@	c #473F42",
")@	c #413D40",
"!@	c #3D3639",
"~@	c #55443F",
"{@	c #322928",
"]@	c #151517",
"^@	c #070808",
"/@	c #4F4D4E",
"(@	c #817776",
"_@	c #988C87",
":@	c #7A7679",
"<@	c #8E8584",
"[@	c #83807F",
"}@	c #7A7779",
"|@	c #807878",
"1@	c #61555A",
"2@	c #856464",
"3@	c #725B59",
"4@	c #745F5E",
"5@	c #826E64",
"6@	c #7E695B",
"7@	c #524C4F",
"8@	c #494A4D",
"9@	c #4E4B4B",
"0@	c #4C4A4B",
"a@	c #434342",
"b@	c #403C3D",
"c@	c #3A3B3B",
"d@	c #3A3839",
"e@	c #3F342C",
"f@	c #383435",
"g@	c #2C2C2D",
"h@	c #131314",
"i@	c #464646",
"j@	c #706D6C",
"k@	c #948682",
"l@	c #837B7C",
"m@	c #7C7778",
"n@	c #7E7879",
"o@	c #746D71",
"p@	c #726E72",
"q@	c #817B7A",
"r@	c #7E726B",
"s@	c #58545B",
"t@	c #565256",
"u@	c #6A6363",
"v@	c #635D5E",
"w@	c #7E6C5C",
"x@	c #635B56",
"y@	c #5C5452",
"z@	c #4C4946",
"A@	c #4A4040",
"B@	c #3D393B",
"C@	c #403A3C",
"D@	c #353135",
"E@	c #323034",
"F@	c #322D30",
"G@	c #483B33",
"H@	c #2B282A",
"I@	c #16191A",
"J@	c #424242",
"K@	c #605D5D",
"L@	c #857E7E",
"M@	c #A6968B",
"N@	c #7E7677",
"O@	c #807778",
"P@	c #848180",
"Q@	c #7C7A7C",
"R@	c #848382",
"S@	c #978C8A",
"T@	c #9E8A82",
"U@	c #6E6461",
"V@	c #504F54",
"W@	c #545657",
"X@	c #706560",
"Y@	c #695A53",
"Z@	c #5F504B",
"`@	c #424047",
" #	c #585352",
".#	c #6A605C",
"+#	c #504B49",
"@#	c #37393A",
"##	c #313134",
"$#	c #292E2E",
"%#	c #26282A",
"&#	c #3A342E",
"*#	c #232425",
"=#	c #171B1C",
"-#	c #4B4A4A",
";#	c #807D7C",
">#	c #897F81",
",#	c #99857C",
"'#	c #858486",
")#	c #B1B1B2",
"!#	c #BABABA",
"~#	c #C0C0C0",
"{#	c #C2C2C2",
"]#	c #BBBABA",
"^#	c #ACA5A1",
"/#	c #696366",
"(#	c #847C7C",
"_#	c #969798",
":#	c #AAA8AA",
"<#	c #BEBCBA",
"[#	c #ABAAA9",
"}#	c #9F9E9E",
"|#	c #9D9E9E",
"1#	c #7A7774",
"2#	c #363330",
"3#	c #161411",
"4#	c #181312",
"5#	c #231C18",
"6#	c #1E1C1A",
"7#	c #101418",
"8#	c #070708",
"9#	c #434343",
"0#	c #5F5B5E",
"a#	c #8B8380",
"b#	c #8A8280",
"c#	c #9D9995",
"d#	c #BEBEBE",
"e#	c #CCCCCC",
"f#	c #D5D5D5",
"g#	c #D4D4D4",
"h#	c #C7C6C6",
"i#	c #ACACAD",
"j#	c #A7A7A7",
"k#	c #151415",
"l#	c #060505",
"m#	c #0C0C0D",
"n#	c #262627",
"o#	c #262426",
"p#	c #171818",
"q#	c #080809",
"r#	c #3E3E3E",
"s#	c #3D3D3D",
"t#	c #7F7877",
"u#	c #807E7C",
"v#	c #AFAFAF",
"w#	c #C8C8C8",
"x#	c #F1F1F1",
"y#	c #EDEDED",
"z#	c #DCDCDC",
"A#	c #B4B4B3",
"B#	c #7E7D7D",
"C#	c #434242",
"D#	c #141313",
"E#	c #939394",
"F#	c #2B2A2A",
"G#	c #0C0A0B",
"H#	c #0B0909",
"I#	c #0C090C",
"J#	c #151615",
"K#	c #1F211F",
"L#	c #1E2021",
"M#	c #0D0D0E",
"N#	c #414141",
"O#	c #363636",
"P#	c #424140",
"Q#	c #7F7676",
"R#	c #8A8B8C",
"S#	c #AEAEAE",
"T#	c #CBCBCB",
"U#	c #E5E5E5",
"V#	c #F5F5F5",
"W#	c #FDFDFD",
"X#	c #FBFBFB",
"Y#	c #E3E2E1",
"Z#	c #090808",
"`#	c #010000",
" $	c #8C8B8C",
".$	c #585653",
"+$	c #2E2D2B",
"@$	c #1A1617",
"#$	c #201B1C",
"$$	c #1B1B1A",
"%$	c #1C1E1E",
"&$	c #151516",
"*$	c #8B8180",
"=$	c #C4C4C4",
"-$	c #E4E4E4",
";$	c #F6F6F6",
">$	c #FEFEFE",
",$	c #B0B0B0",
"'$	c #C7C7C7",
")$	c #BFBFBF",
"!$	c #241D20",
"~$	c #181717",
"{$	c #20171D",
"]$	c #17181B",
"^$	c #18181B",
"/$	c #6A5552",
"($	c #999696",
"_$	c #B6B6B6",
":$	c #D9D9D9",
"<$	c #F2F2F3",
"[$	c #BBBBBB",
"}$	c #C6C6C6",
"|$	c #B5B5B5",
"1$	c #CACACA",
"2$	c #CFCFCF",
"3$	c #B2B2B2",
"4$	c #D6D6D5",
"5$	c #E6E6E6",
"6$	c #E2E2E2",
"7$	c #BFBDBD",
"8$	c #3F383D",
"9$	c #1E1718",
"0$	c #211D1E",
"a$	c #1F1F1E",
"b$	c #6B6868",
"c$	c #EBEBEB",
"d$	c #C1C1C1",
"e$	c #CDCDCD",
"f$	c #E9E9E9",
"g$	c #F3F3F3",
"h$	c #D6D6D6",
"i$	c #FAFAFA",
"j$	c #F7F7F7",
"k$	c #E3E3E3",
"l$	c #C9C8C9",
"m$	c #43363A",
"n$	c #21161D",
"o$	c #040405",
"p$	c #302F2E",
"q$	c #7B7978",
"r$	c #0E0D0D",
"s$	c #ECECEC",
"t$	c #F4F4F4",
"u$	c #F0F0F0",
"v$	c #A6A2A3",
"w$	c #1E1612",
"x$	c #373636",
"y$	c #89898A",
"z$	c #B7B7B7",
"A$	c #B1B1B0",
"B$	c #EEEEEE",
"C$	c #2C2829",
"D$	c #2D2C2C",
"E$	c #5F5C5C",
"F$	c #949394",
"G$	c #767677",
"H$	c #676666",
"I$	c #FAF9F9",
"J$	c #E0DFDF",
"K$	c #E5E6E5",
"L$	c #F8F8F8",
"M$	c #242425",
"N$	c #585353",
"O$	c #696566",
"P$	c #969596",
"Q$	c #BCBCBC",
"R$	c #AAAAA9",
"S$	c #E2E1E1",
"T$	c #E1E0E1",
"U$	c #474648",
"V$	c #6E625C",
"W$	c #584D43",
"X$	c #8F8D8C",
"Y$	c #383637",
"Z$	c #B4B4B4",
"`$	c #3A3A3C",
" %	c #504946",
".%	c #2C2521",
"+%	c #3A3236",
"@%	c #D2D2D2",
"#%	c #E0E0E0",
"$%	c #DBDBDB",
"%%	c #2E2C2D",
"&%	c #353434",
"*%	c #1B1918",
"=%	c #CECECE",
"-%	c #ABABAB",
";%	c #616060",
">%	c #646363",
",%	c #292423",
"'%	c #332E30",
")%	c #241F20",
"!%	c #100F0F",
"~%	c #DFDFDF",
"{%	c #CECDCE",
"]%	c #AAA9AA",
"^%	c #828181",
"/%	c #050404",
"(%	c #242223",
"_%	c #222021",
":%	c #1D1B1A",
"<%	c #0E0E0F",
"[%	c #0D0C0C",
"}%	c #8F8E8E",
"|%	c #BDBDBD",
"1%	c #C9C9C9",
"2%	c #0B0B0C",
"3%	c #131211",
"4%	c #1C1816",
"5%	c #1C1A19",
"6%	c #191617",
"7%	c #3D3D3C",
"8%	c #BCB9AB",
"9%	c #ACAAA2",
"0%	c #BEBAA0",
"a%	c #CAC084",
"b%	c #D4C675",
"c%	c #AEA055",
"d%	c #463F06",
"e%	c #453E06",
"f%	c #463E06",
"g%	c #4C4409",
"h%	c #A5974C",
"i%	c #CDBB64",
"j%	c #D0BC69",
"k%	c #D0BE87",
"l%	c #CDC7B8",
"m%	c #A0A09E",
"n%	c #E1E1E1",
"o%	c #D0CEC4",
"p%	c #988D59",
"q%	c #807C67",
"r%	c #BDB176",
"s%	c #DFC74C",
"t%	c #F1D02A",
"u%	c #F9D41C",
"v%	c #FDD617",
"w%	c #FED615",
"x%	c #FED513",
"y%	c #FDD214",
"z%	c #F6CE28",
"A%	c #E2C25C",
"B%	c #C3B696",
"C%	c #C2C0BA",
"D%	c #B5B5B6",
"E%	c #D0D0D0",
"F%	c #BFBAA4",
"G%	c #B09A2E",
"H%	c #716738",
"I%	c #747058",
"J%	c #988F66",
"K%	c #B6A762",
"L%	c #CAB659",
"M%	c #D8C057",
"N%	c #D6C060",
"O%	c #C4B576",
"P%	c #A19779",
"Q%	c #8A795D",
"R%	c #908577",
"S%	c #BFBEBF",
"T%	c #C0C0C1",
"U%	c #767575",
"V%	c #A2996C",
"W%	c #DAB60C",
"X%	c #C8A717",
"Y%	c #A48C21",
"Z%	c #877731",
"`%	c #84783E",
" &	c #8E8049",
".&	c #907E47",
"+&	c #957431",
"@&	c #9E661B",
"#&	c #9A5404",
"$&	c #221A12",
"%&	c #7B7B7C",
"&&	c #7D7C7C",
"*&	c #2E2601",
"=&	c #EBBF03",
"-&	c #FECD03",
";&	c #FACA04",
">&	c #F3C003",
",&	c #E6A903",
"'&	c #D08703",
")&	c #BB6601",
"!&	c #A04800",
"~&	c #1C0C00",
"{&	c #2F2E2E",
"]&	c #848586",
"^&	c #4A3A00",
"/&	c #F0BC00",
"(&	c #F4BB00",
"_&	c #E9A900",
":&	c #D38900",
"<&	c #BB6300",
"[&	c #A64700",
"}&	c #341400",
"|&	c #212021",
"1&	c #939494",
"2&	c #484949",
"3&	c #5E4800",
"4&	c #EAAC00",
"5&	c #DC9600",
"6&	c #C57300",
"7&	c #B05200",
"8&	c #4D1E00",
"9&	c #0C0B0C",
"0&	c #4C4C4B",
"a&	c #7D5900",
"b&	c #D48A00",
"c&	c #BE6900",
"d&	c #632E00",
"e&	c #050300",
"f&	c #825300",
"g&	c #8E5100",
"h&	c #070400",
"i&	c #0C0800",
"          . + @ # # # # # # # # # # # # # # # # # # # # # # # # # # # # # # # # # # # # # # # # # # # # # # # # @ + $           ",
"      % & & & & & & & & & & & & & & & & & & & & & & & & & & & & & & & & & & & & & & & & & & & & & & & & & & & & & & & & *       ",
"    = * * * * * * * * * * * * * * * * * * * * * * * * * * * * * * * * * * * * * * * * * * * * * * * * * * * * * * * * * * -     ",
"    ; > > > > > > > > > > > > > > > > > > > > > > > > > > > > > > > > > > > > > > > > > > > > > > > > > > > > > > > > > > ;     ",
"    * * * * * * * * * * * * * * * * * * * * * * * * * * * * * * * * * * * * * * * * * * * * * * * * * * * * * * * * * * * *     ",
"    > > > > > > > > > > > > > > > > > > > > > > > > > > > > > > > > > > > > > > > > > > > > > > > > > > > > > > > > > > > >     ",
"    * * * * * * * * * * * * * * * * * * * * * * * * * * * * * * * * * * * * * * * * * * * * * * * * * * * * * * * * * * * *     ",
"    > > > > > > > > > > > > > > > > > > > > > > > > > > > > > > > > > > > > > > > > > > > > > > > > > > > > > > > > > > > >     ",
"    * * * * * * * * * * * * * * * * * * * * * * * * * * * * * * * * * * * * * * * * * * * * * * * * * * * * * * * * * * * *     ",
"    > > > > > > > > > > > > > > > > > > > > > > > > > > > > > > > > > > > > > > > > > > > > > > > > > > > > > > > > > > > >     ",
"    , , ' ' ' ' ' ' ' ' ' ' ' ' ' ' ' ' ' ) , , , , , , , , , , , , , , , , , , , , , , , , , , , , , , , , , ' , , , , , ,     ",
"    ! ! ! ! ! ! ! ! ! ! ! ! ! ! ! ! ! ! ! ! ! ! ! ! ! ! ! ! ! ! ! ! ! ! ! ! ! ! ! ! ! ! ! ! ! ! ! ! ! ! ! ! ! ! ! ! ! ! ! !     ",
"    ~ ~ ~ ~ ~ ~ ~ ~ ~ ~ ~ ~ ~ ~ ~ ~ ~ ~ ~ ~ ~ ~ ~ ~ ~ ~ ~ ~ ~ ~ ~ ~ ~ ~ ~ ~ ~ ~ ~ ~ ~ ~ ~ ~ ~ ~ ~ ~ ~ ~ ~ ~ ~ ~ ~ ~ ~ ~ ~ ~     ",
"    ~ ~ ~ ~ ~ ~ ~ ~ ~ ~ ~ ~ ~ ~ ~ ~ ~ ~ ~ ~ ~ ~ ~ ~ ~ ~ ~ ~ ~ ~ ~ ~ ~ ~ ~ ~ ~ ~ ~ ~ ~ ~ ~ ~ ~ ~ ~ ~ ~ ~ ~ ~ ~ ~ ~ ~ ~ ~ ~ ~     ",
"    ~ ~ { ] ^ / ( _ : < [ } | 1 2 3 4 5 6 7 8 9 0 a b c d e f g h i j k l m n o p q r s t u v w x y z A B C D ~ ~ ~ ~ ~ ~ ~     ",
"    ~ ~ E F G H I J K L M N O P Q R S T U V W X Y Z `  ...+.@.#.$.%.k &.*.=.-.;.>.,.'.).!.~.{.].^./.(._.:.~ ~ ~ ~ ~ ~ ~ ~ ~     ",
"    ~ ~ <.[.}.|.1.2.3.4.5.6.7.8.9.0.a.b.c.d.e.f.g.h.i.j.k.l.h m.n.o.l m p.q.r.s.t.u.v.w.x.y.z.A.B.C.D.E.~ ~ ~ ~ ~ ~ ~ ~ ~ ~     ",
"    ~ ~ ( F.: < [ } | 1 G.3 H.5 I.7 J.9 K.a L.c M.e N.g h O.P.Q.R.S.T.U.p V.r W.t X.v Y.x Z.z `.B C D ~ ~ ~ ~ ~ ~ ~ ~ ~ ~ ~     ",
"    ~ ~ I J K L M  +O 2 Q 4 S 6 U 8 W 0 Y b ` d ..+.@..+++@+#+$+%+&+*+=+! -+;+>+u ~.w ].y /.(._.:.~ ~ ~ ~ ~ ~ ~ ~ ~ ~ ~ ~ ~     ",
"    ~ ~ 1.2.,+4.N 6.P 8.R 0.T b.V d.X f.Z h.i.j.+.'+)+!+@+~+{+]+^+/+(+_+:+<+[+}+|+1+z.A.B.C.D.E.~ ~ ~ ~ ~ ~ ~ ~ ~ ~ ~ ~ ~ ~     ",
"    ~ ~ [ 3.| 5.G.7.H.9.I.a.J.c.K.e.L.c M.e N.g 2+i 3+4+5+6+7+8+9+0+a+b+c+d+e+f+g+h+i+`.B j+E.~ ~ ~ ~ ~ ~ ~ ~ ~ ~ ~ ~ ~ ~ ~     ",
"    ~ ~ }  +1 2 3 4 5 6 7 8 9 0 Y b ` d ..f @.h $.@+k+l+m+n+o+p+q+r+s+t+u+v+w+x+y+z+=+A+C D ~ ~ ~ ~ ~ ~ ~ ~ ~ ~ ~ ~ ~ ~ ~ ~     ",
"    ~ ~ N O P Q R S T U V d.X f.Z h. .j.+.l..+m.B+C+D+E+F+G+H+I+J+K+L+M+N+O+P+Q+R+S+T+U+V+E.~ ~ ~ ~ ~ ~ ~ ~ ~ ~ ~ ~ ~ ~ ~ ~     ",
"    ~ ~ 6.7.8.9.0.a.J.c.K.e.L.g.M.i.N.k.W+$.X+Y+Z+`+ @.@+@@@#@$@%@&@*@=@-@;@>@,@'@)@!@~@{@]@^@~ ~ ~ ~ ~ ~ ~ ~ ~ ~ ~ ~ ~ ~ ~     ",
"    ~ ~ 3 H.5 6 7 8 9 0 a b c d e f g h i j /@(@_@:@<@[@}@|@1@2@3@4@5@6@7@8@9@0@a@b@c@d@e@f@g@h@~ ~ ~ ~ ~ ~ ~ ~ ~ ~ ~ ~ ~ ~     ",
"    ~ ~ R S T U V W X Y Z `  ...+.@..+++i@X+j@k@l@m@n@o@p@q@r@s@t@u@v@w@x@y@z@A@B@C@D@E@F@G@H@I@~ ~ ~ ~ ~ ~ ~ ~ ~ ~ ~ ~ ~ ~     ",
"    ~ ~ 0.a.b.c.d.e.f.g.h.i.j.k.l.$.m.n.J@K@L@M@N@O@P@Q@R@S@T@U@V@W@X@Y@Z@`@ #.#+#@###$#%#&#*#=#D.~ ~ ~ ~ ~ ~ ~ ~ ~ ~ ~ ~ ~     ",
"    ~ ~ 7 J.9 K.a L.c M.e N.g W+i X+k l -#;#>#,#'#F.)#!#~#{#]#^#/#(#_#:#<#[#}#|#[ 1#2#3#4#5#6#A+7#8#~ ~ ~ ~ ~ ~ ~ ~ ~ ~ ~ ~     ",
"    ~ ~ 8 W 0 Y b ` d ..f @.h ++i@9#&.m 0#a#b#c#E d#e#f#+ + @ g#h#~#i#j#[.}#5 g.i.d.O d.k#l#m#Y.n#o#p#q#~ ~ ~ ~ ~ ~ ~ ~ ~ ~     ",
"    ~ ~ d.X f.Z h. .j.+.l.$.m.n.J@r#*.s#t#u#2.v#w#. ' x#* x#y#z#A#< J 1.B#C#x D#w.o $.T E#F#G#H#I#J#K#L#Y.M#C ~ ~ ~ ~ ~ ~ ~     ",
"    ~ ~ e.L.g.M.i.N.g W+i X+k N#s#! O#P#Q#R#S#T#U#V#> W#W#X#Y#H | 2.H 8 '.Z#E.D `#C ,.b a.G 3. $0..$+$@$#$$$%$&$B ~ ~ ~ ~ ~     ",
"    ~ ~ b c d ..f @.h ++j 9#l m n o p r+*$/ =$-$;$W#& >$>$, H 2 M |.,$| y :.`#~ /. .3.F.4.1.!#'$w#'$)$H.!$~${$]$^$(.~ ~ ~ ~     ",
"    ~ ~ h. .j.+.l..+m.i@J@&.*.=.-.;.>./$($_$:$* > & & >$<$[$H.O [ / [$}$V.D ~ v.9.: |$1$2$3$}$4$5$6$. # 7$8$9$0$a$M#~ ~ ~ ~     ",
"    ~ ~ i.N.k.W+$.X+n.N#r#! p.q.r.s.>.b$/ }$) ; >$& & >$c$1 Q  +: S#d$e$Q ~ u  +G ~#:$f$g$-$h$- i$j$* c$k$l$m$n$i+o$~ ~ ~ ~     ",
"    ~ ~ f g h i j k l s#n O#p V.r W.p$q$v#- % X#>$& & >$e#5 2 3.( _$=$= _$r$} d#e#$ s$t$i$> 6$@ s$>$> j$u$' v$w$^@~ ~ ~ ~ ~     ",
"    ~ ~ @..+++i@9#&.m =.o ;.q ,.'.).x$y$z$:$g$> >$& >$W#A$4 1 < }.L f.5 f#i@g#e#@ 5$s$* ; W#x#+ ) >$W#; t$B$6$C$~ ~ ~ ~ ~ ~     ",
"    ~ ~ $.m.n.J@r#*.p.-.r.>.t.u.v.D$E$F$[$z#g$> >$& >$W#G Q | 1.} ] K -.G$4 H$m.X.[.z#f$;$> I$J$K$>$> L$g$B$)  .~ ~ ~ ~ ~ ~     ",
"    ~ ~ X+k N#s#! O#q.V.s.W.t X.M$N$O$P$Q$z#g$X#W#& >$W#R$2 3.L Q 1 9 r.u.H.9.8 {.*.}$$ * > i$S$T$> ; V#u$c$, 0.~ ~ ~ ~ ~ ~     ",
"    ~ ~ 9#l m n o p q ,.s ).u u U$V$W$X$!#+ x#; > >$>$W#d$O 2. +L.M.&.'.).Y$'.s.t.n.Z$g#y#; ;$S$f#L$V#u$s$f$5$b.~ ~ ~ ~ ~ ~     ",
"    ~ ~ &.*.=.-.r.>.t.'.v.!.v `$ %.%A.S _$f#y#;$i$W#>$>$z#} 1.1.g p.t.o X++%t.t.m 0 ,$@%c$t$x##%$%g$% ' ) 5$5$V.~ ~ ~ ~ ~ ~     ",
"    ~ ~ ! O#q.V.s.W.u.X.w.Y.%%&%*%`.C.g.{ =%, * L$i$> > ) _$I -%;%r.V.N#>%,%G.f.b.|.!#h$) B$' e#' s$) 5$-$U#d#C ~ ~ ~ ~ ~ ~     ",
"    ~ ~ o p q r s t u v w x.'%)%!%B j+q ^ }$~%s$* ;$L$; t${%]%,$^ ..k ^%U /%l.<.<._$1$+ 6$-$f#{#5$-$k$6$-$6$g ~ ~ ~ ~ ~ ~ ~     ",
"    ~ ~ ;.>.,.'.).!.~.{.].z.(%_%:%<%[%B }%|%g#-$s$u$g$t$t$#%1%{ _$|%{#~#z.~ :.e.S#!#}$=%@%@%}.f##%#%#%6$U#V D ~ ~ ~ ~ ~ ~ ~     ",
"    ~ ~ s.t.u.v.w.x.y.z.A.B.2%3%4%5%6%A 7%z$1$$%-$f$s$B$y#, 8%9%0%a%b%c%d%e%f%g%h%i%j%k%l%m%d#z#$ ~%#%= +.E.~ ~ ~ ~ ~ ~ ~ ~     ",
"    ~ ~ W.t X.v Y.x Z.z `.B C D ~ ~ D ~ ~ d.~#- z#n%k$-$-$~%o%p%q%r%s%t%u%v%w%x%y%z%A%B%C%D%2$+ $%'$7.w ~ ~ ~ ~ ~ ~ ~ ~ ~ ~     ",
"    ~ ~ ).u ~.w ].y /.(._.:.~ ~ ~ ~ ~ ~ ~ D.5.w#g#:$z#$ $ z#E%F%G%H%I%J%K%L%M%N%O%P%Q%R%S%T%U%@.w.~ ~ ~ ~ ~ ~ ~ ~ ~ ~ ~ ~ ~     ",
"    ~ ~ !.x.{.z.A.B.C.D.E.~ ~ ~ ~ ~ ~ ~ ~ ~ `.H.1$= # + z#z#@ }$V%W%X%Y%Z%`% &.&+&@&#&$&%&&&G$s C ~ ~ ~ ~ ~ ~ ~ ~ ~ ~ ~ ~ ~     ",
"    ~ ~ Y.x Z.z `.B j+E.~ ~ ~ ~ ~ ~ ~ ~ ~ ~ ~ E.;.M f#@ $%~%)$l.(.*&=&-&;&>&,&'&)&!&~&E.v.{&]&c w.~ ~ ~ ~ ~ ~ ~ ~ ~ ~ ~ ~ ~     ",
"    ~ ~ ].y /.A _.C D ~ ~ ~ ~ ~ ~ ~ ~ ~ ~ ~ ~ ~ ~ ~ C.X.u.^.~ ~ ~ ~ ^&/&(&_&:&<&[&}&~ ~ _.|&=.1&2&].~ ~ ~ ~ ~ ~ ~ ~ ~ ~ ~ ~     ",
"    ~ ~ ^.B.(.D.:.~ ~ ~ ~ ~ ~ ~ ~ ~ ~ ~ ~ ~ ~ ~ ~ ~ ~ ~ ~ ~ ~ ~ ~ ~ ~ 3&4&5&6&7&8&~ ~ ~ ~ 9&t 0&[ O#`.~ ~ ~ ~ ~ ~ ~ ~ ~ ~ ~     ",
"    ~ ~ `.C.j+E.~ ~ ~ ~ ~ ~ ~ ~ ~ ~ ~ ~ ~ ~ ~ ~ ~ ~ ~ ~ ~ ~ ~ ~ ~ ~ ~ `#a&b&c&d&~ ~ ~ ~ ~ ~ y W.f.G.r j+~ ~ ~ ~ ~ ~ ~ ~ ~ ~     ",
"    ~ ~ B C D ~ ~ ~ ~ ~ ~ ~ ~ ~ ~ ~ ~ ~ ~ ~ ~ ~ ~ ~ ~ ~ ~ ~ ~ ~ ~ ~ ~ ~ e&f&g&h&~ ~ ~ ~ ~ ~ E.{.>.H.K.X.E.~ ~ ~ ~ ~ ~ ~ ~ ~     ",
"    ~ ~ :.~ ~ ~ ~ ~ ~ ~ ~ ~ ~ ~ ~ ~ ~ ~ ~ ~ ~ ~ ~ ~ ~ ~ ~ ~ ~ ~ ~ ~ ~ ~ ~ h&i&~ ~ ~ ~ ~ ~ ~ ~ j+!.O#2.l.y.~ ~ ~ ~ ~ ~ ~ ~ ~     ",
"    ~ ~ ~ ~ ~ ~ ~ ~ ~ ~ ~ ~ ~ ~ ~ ~ ~ ~ ~ ~ ~ ~ ~ ~ ~ ~ ~ ~ ~ ~ ~ ~ ~ ~ ~ ~ ~ ~ ~ ~ ~ ~ ~ ~ ~ ~ C.t i@1.s#/.~ ~ ~ ~ ~ ~ ~ ~     ",
"    ~ ~ ~ ~ ~ ~ ~ ~ ~ ~ ~ ~ ~ ~ ~ ~ ~ ~ ~ ~ ~ ~ ~ ~ ~ ~ ~ ~ ~ ~ ~ ~ ~ ~ ~ ~ ~ ~ ~ ~ ~ ~ ~ ~ ~ ~ ~ z W.` 1 r.B ~ ~ ~ ~ ~ ~ ~     ",
"    ~ ~ ~ ~ ~ ~ ~ ~ ~ ~ ~ ~ ~ ~ ~ ~ ~ ~ ~ ~ ~ ~ ~ ~ ~ ~ ~ ~ ~ ~ ~ ~ ~ ~ ~ ~ ~ ~ ~ ~ ~ ~ ~ ~ ~ ~ ~ D y.r 9.b.).D ~ ~ ~ ~ ~ ~     ",
"    ~ ~ ~ ~ ~ ~ ~ ~ ~ ~ ~ ~ ~ ~ ~ ~ ~ ~ ~ ~ ~ ~ ~ ~ ~ ~ ~ ~ ~ ~ ~ ~ ~ ~ ~ ~ ~ ~ ~ ~ ~ ~ ~ ~ ~ ~ ~ ~ :.!.;.7.=.C ~ ~ ~ ~ ~ ~     ",
"    ~ ~ ~ ~ ~ ~ ~ ~ ~ ~ ~ ~ ~ ~ ~ ~ ~ ~ ~ ~ ~ ~ ~ ~ ~ ~ ~ ~ ~ ~ ~ ~ ~ ~ ~ ~ ~ ~ ~ ~ ~ ~ ~ ~ ~ ~ ~ ~ ~ D.u.t B.~ ~ ~ ~ ~ ~ ~     ",
"    ~ ~ ~ ~ ~ ~ ~ ~ ~ ~ ~ ~ ~ ~ ~ ~ ~ ~ ~ ~ ~ ~ ~ ~ ~ ~ ~ ~ ~ ~ ~ ~ ~ ~ ~ ~ ~ ~ ~ ~ ~ ~ ~ ~ ~ ~ ~ ~ ~ ~ C.C ~ ~ ~ ~ ~ ~ ~ ~     ",
"    ~ ~ ~ ~ ~ ~ ~ ~ ~ ~ ~ ~ ~ ~ ~ ~ ~ ~ ~ ~ ~ ~ ~ ~ ~ ~ ~ ~ ~ ~ ~ ~ ~ ~ ~ ~ ~ ~ ~ ~ ~ ~ ~ ~ ~ ~ ~ ~ ~ ~ ~ ~ ~ ~ ~ ~ ~ ~ ~ ~     ",
"    ~ ~ ~ ~ ~ ~ ~ ~ ~ ~ ~ ~ ~ ~ ~ ~ ~ ~ ~ ~ ~ ~ ~ ~ ~ ~ ~ ~ ~ ~ ~ ~ ~ ~ ~ ~ ~ ~ ~ ~ ~ ~ ~ ~ ~ ~ ~ ~ ~ ~ ~ ~ ~ ~ ~ ~ ~ ~ ~ ~     ",
"    ~ ~ ~ ~ ~ ~ ~ ~ ~ ~ ~ ~ ~ ~ ~ ~ ~ ~ ~ ~ ~ ~ ~ ~ ~ ~ ~ ~ ~ ~ ~ ~ ~ ~ ~ ~ ~ ~ ~ ~ ~ ~ ~ ~ ~ ~ ~ ~ ~ ~ ~ ~ ~ ~ ~ ~ ~ ~ ~ ~     ",
"        ~ ~ ~ ~ ~ ~ ~ ~ ~ ~ ~ ~ ~ ~ ~ ~ ~ ~ ~ ~ ~ ~ ~ ~ ~ ~ ~ ~ ~ ~ ~ ~ ~ ~ ~ ~ ~ ~ ~ ~ ~ ~ ~ ~ ~ ~ ~ ~ ~ ~ ~ ~ ~ ~ ~ ~ ~       ",
"                                                                                                                                "};
