/* XPM */
static char * notebookconsolezip_xpm[] = {
"64 64 393 2",
"  	c None",
". 	c #DDDDDD",
"+ 	c #DADADA",
"@ 	c #D8D8D8",
"# 	c #D7D7D7",
"$ 	c #DEDEDE",
"% 	c #EFEFEF",
"& 	c #FFFFFF",
"* 	c #F2F2F2",
"= 	c #D3D3D3",
"- 	c #D1D1D1",
"; 	c #F9F9F9",
"> 	c #FCFCFC",
", 	c #E7E7E7",
"' 	c #EAEAEA",
") 	c #E8E8E8",
"! 	c #3A3A3A",
"~ 	c #000000",
"{ 	c #F4F4F4",
"] 	c #F0F0F0",
"^ 	c #ECECEC",
"/ 	c #E2E2E2",
"( 	c #D6D6D6",
"_ 	c #CDCDCD",
": 	c #C8C8C8",
"< 	c #C4C4C4",
"[ 	c #BFBFBF",
"} 	c #B9B9B9",
"| 	c #B4B4B4",
"1 	c #AEAEAE",
"2 	c #A8A8A8",
"3 	c #A3A3A3",
"4 	c #9C9C9C",
"5 	c #969696",
"6 	c #909090",
"7 	c #898989",
"8 	c #828282",
"9 	c #7B7B7B",
"0 	c #777777",
"a 	c #747474",
"b 	c #717171",
"c 	c #6F6F6F",
"d 	c #6C6C6C",
"e 	c #696969",
"f 	c #666666",
"g 	c #646464",
"h 	c #606060",
"i 	c #5E5E5E",
"j 	c #5A5A5A",
"k 	c #575757",
"l 	c #545454",
"m 	c #515151",
"n 	c #4E4E4E",
"o 	c #4A4A4A",
"p 	c #484848",
"q 	c #444444",
"r 	c #424242",
"s 	c #3E3E3E",
"t 	c #3B3B3B",
"u 	c #373737",
"v 	c #343434",
"w 	c #313131",
"x 	c #2D2D2D",
"y 	c #2A2A2A",
"z 	c #262626",
"A 	c #222222",
"B 	c #1F1F1F",
"C 	c #1C1C1C",
"D 	c #191919",
"E 	c #0C0C0C",
"F 	c #EEEEEE",
"G 	c #E4E4E4",
"H 	c #D2D2D2",
"I 	c #C3C3C3",
"J 	c #BDBDBD",
"K 	c #B8B8B8",
"L 	c #B2B2B2",
"M 	c #ACACAC",
"N 	c #A5A5A5",
"O 	c #9F9F9F",
"P 	c #989898",
"Q 	c #919191",
"R 	c #8A8A8A",
"S 	c #838383",
"T 	c #636363",
"U 	c #5B5B5B",
"V 	c #585858",
"W 	c #4B4B4B",
"X 	c #454545",
"Y 	c #3C3C3C",
"Z 	c #383838",
"` 	c #323232",
" .	c #2E2E2E",
"..	c #232323",
"+.	c #202020",
"@.	c #1E1E1E",
"#.	c #1B1B1B",
"$.	c #181818",
"%.	c #151515",
"&.	c #131313",
"*.	c #101010",
"=.	c #0E0E0E",
"-.	c #0A0A0A",
";.	c #080808",
">.	c #070707",
",.	c #050505",
"'.	c #020202",
").	c #DBDBDB",
"!.	c #D4D4D4",
"~.	c #CBCBCB",
"{.	c #BEBEBE",
"].	c #ABABAB",
"^.	c #A4A4A4",
"/.	c #9E9E9E",
"(.	c #8E8E8E",
"_.	c #868686",
":.	c #7F7F7F",
"<.	c #767676",
"[.	c #6E6E6E",
"}.	c #656565",
"|.	c #5C5C5C",
"1.	c #3F3F3F",
"2.	c #353535",
"3.	c #2B2B2B",
"4.	c #272727",
"5.	c #242424",
"6.	c #1A1A1A",
"7.	c #171717",
"8.	c #121212",
"9.	c #060606",
"0.	c #040404",
"a.	c #030303",
"b.	c #010101",
"c.	c #E0E0E0",
"d.	c #D0D0D0",
"e.	c #C7C7C7",
"f.	c #BCBCBC",
"g.	c #A6A6A6",
"h.	c #B1B1B2",
"i.	c #BDBDBE",
"j.	c #B9B9BA",
"k.	c #AFAFB0",
"l.	c #A9A9AA",
"m.	c #9E9E9F",
"n.	c #979798",
"o.	c #929293",
"p.	c #8C8C8C",
"q.	c #848485",
"r.	c #808081",
"s.	c #78787A",
"t.	c #767678",
"u.	c #757576",
"v.	c #727273",
"w.	c #717172",
"x.	c #6F6F70",
"y.	c #6D6D6F",
"z.	c #6E6E6F",
"A.	c #6B6B6C",
"B.	c #6A6A6C",
"C.	c #676768",
"D.	c #686869",
"E.	c #666667",
"F.	c #646466",
"G.	c #616163",
"H.	c #626263",
"I.	c #616162",
"J.	c #5F5F60",
"K.	c #606061",
"L.	c #5D5D5F",
"M.	c #5D5D5E",
"N.	c #5E5E5F",
"O.	c #5A5A5B",
"P.	c #373738",
"Q.	c #CECECE",
"R.	c #AAAAAA",
"S.	c #A1A1A1",
"T.	c #CBCBCC",
"U.	c #EDEDF0",
"V.	c #F2F2F5",
"W.	c #F0F0F3",
"X.	c #EAEAEF",
"Y.	c #F0F0F4",
"Z.	c #E8E8EC",
"`.	c #EAEAEE",
" +	c #EDEDF2",
".+	c #E5E5EA",
"++	c #ECECF0",
"@+	c #E6E6EC",
"#+	c #E0E0E6",
"$+	c #E9E9EF",
"%+	c #DEDEE5",
"&+	c #E8E8EE",
"*+	c #E8E8ED",
"=+	c #E2E2E8",
"-+	c #DDDDE4",
";+	c #E7E7EE",
">+	c #DEDEE4",
",+	c #E4E4EA",
"'+	c #DCDCE4",
")+	c #DFDFE6",
"!+	c #E7E7ED",
"~+	c #E3E3E9",
"{+	c #9C9CA0",
"]+	c #C2C2C2",
"^+	c #B6B6B6",
"/+	c #9B9B9B",
"(+	c #EEEEF1",
"_+	c #EEEEF2",
":+	c #E6E6EB",
"<+	c #E3E3EA",
"[+	c #E0E0E7",
"}+	c #424243",
"|+	c #9D9D9D",
"1+	c #F1F1F4",
"2+	c #EFEFF3",
"3+	c #E4E4E9",
"4+	c #666668",
"5+	c #AFAFAF",
"6+	c #818181",
"7+	c #E1E1E4",
"8+	c #949496",
"9+	c #7C7C7C",
"0+	c #707071",
"a+	c #6A6A6A",
"b+	c #C2C2C7",
"c+	c #68686A",
"d+	c #A7A7A7",
"e+	c #888888",
"f+	c #787878",
"g+	c #989899",
"h+	c #E7E7EC",
"i+	c #C5C5C7",
"j+	c #2C2C2C",
"k+	c #161616",
"l+	c #141414",
"m+	c #111111",
"n+	c #808082",
"o+	c #69696B",
"p+	c #B0B0B0",
"q+	c #A2A2A2",
"r+	c #939393",
"s+	c #949494",
"t+	c #C0C0C2",
"u+	c #626262",
"v+	c #505050",
"w+	c #363636",
"x+	c #282828",
"y+	c #212121",
"z+	c #79797C",
"A+	c #69696C",
"B+	c #8D8D8D",
"C+	c #7D7D7D",
"D+	c #6B6B6B",
"E+	c #5D5D5D",
"F+	c #8F8F90",
"G+	c #BEBEC0",
"H+	c #535353",
"I+	c #414141",
"J+	c #333333",
"K+	c #303030",
"L+	c #292929",
"M+	c #252525",
"N+	c #1D1D1D",
"O+	c #565656",
"P+	c #8B8B8B",
"Q+	c #BCBCBE",
"R+	c #595959",
"S+	c #393939",
"T+	c #2F2F2F",
"U+	c #727272",
"V+	c #5F5F5F",
"W+	c #868687",
"X+	c #EDEDF1",
"Y+	c #BABABC",
"Z+	c #78787B",
"`+	c #7E7E7E",
" @	c #494949",
".@	c #B7B7BA",
"+@	c #0F0F0F",
"@@	c #747476",
"#@	c #9A9A9A",
"$@	c #434343",
"%@	c #B6B6B8",
"&@	c #4C4C4C",
"*@	c #686868",
"=@	c #525252",
"-@	c #3D3D3D",
";@	c #4F4F4F",
">@	c #0D0D0D",
",@	c #727276",
"'@	c #858585",
")@	c #616161",
"!@	c #4D4D4D",
"~@	c #79797A",
"{@	c #EBEBF0",
"]@	c #B3B3B6",
"^@	c #676767",
"/@	c #808080",
"(@	c #474747",
"_@	c #B1B1B4",
":@	c #404040",
"<@	c #AFAFB2",
"[@	c #6C6C6D",
"}@	c #E9E9EE",
"|@	c #ACACB0",
"1@	c #797979",
"2@	c #464646",
"3@	c #848484",
"4@	c #ACACAF",
"5@	c #555555",
"6@	c #5B5B5C",
"7@	c #707070",
"8@	c #575758",
"9@	c #504C3C",
"0@	c #4F4B3E",
"a@	c #4B4940",
"b@	c #413F36",
"c@	c #333129",
"d@	c #333128",
"e@	c #3E3C34",
"f@	c #45433B",
"g@	c #46443B",
"h@	c #474335",
"i@	c #413E31",
"j@	c #ABABAE",
"k@	c #44423A",
"l@	c #53461C",
"m@	c #564C26",
"n@	c #554D2A",
"o@	c #554D2B",
"p@	c #554C2A",
"q@	c #544C28",
"r@	c #524820",
"s@	c #4B3F15",
"t@	c #32312E",
"u@	c #A8A8AB",
"v@	c #383429",
"w@	c #504013",
"x@	c #544612",
"y@	c #554712",
"z@	c #554711",
"A@	c #524410",
"B@	c #4C3C10",
"C@	c #2F2C24",
"D@	c #3B3425",
"E@	c #504011",
"F@	c #544611",
"G@	c #554710",
"H@	c #534510",
"I@	c #4E3E11",
"J@	c #383428",
"K@	c #433A23",
"L@	c #514111",
"M@	c #544510",
"N@	c #504010",
"O@	c #403825",
"P@	c #3F3E3E",
"Q@	c #473C1E",
"R@	c #4E3D10",
"S@	c #453A20",
"T@	c #42413F",
"U@	c #453C27",
"V@	c #41403F",
"W@	c #0B0B0B",
"X@	c #CCCCD0",
"Y@	c #909093",
"Z@	c #8E8E91",
"`@	c #929294",
" #	c #909092",
".#	c #8E8E90",
"+#	c #8F8F92",
"@#	c #8E8E92",
"##	c #919194",
"$#	c #B2B2B6",
"%#	c #DCDCE1",
"&#	c #CFCFD2",
"*#	c #D9D9DF",
"=#	c #C0C0C1",
"-#	c #9C9C9E",
";#	c #AAAAAC",
">#	c #555556",
",#	c #CDCDD1",
"'#	c #C6C6CC",
")#	c #CACACF",
"!#	c #C6C6CB",
"~#	c #CACACE",
"{#	c #C7C7CC",
"]#	c #C9C9CD",
"^#	c #C7C7CB",
"/#	c #CBCBD0",
"(#	c #C8C8CD",
"_#	c #C8C8CC",
":#	c #090909",
"          . + @ # # # # # # # # # # # # # # # # # # # # # # # # # # # # # # # # # # # # # # # # # # # # # # # # @ + $           ",
"      % & & & & & & & & & & & & & & & & & & & & & & & & & & & & & & & & & & & & & & & & & & & & & & & & & & & & & & & & *       ",
"    = * * * * * * * * * * * * * * * * * * * * * * * * * * * * * * * * * * * * * * * * * * * * * * * * * * * * * * * * * * -     ",
"    ; > > > > > > > > > > > > > > > > > > > > > > > > > > > > > > > > > > > > > > > > > > > > > > > > > > > > > > > > > > ;     ",
"    * * * * * * * * * * * * * * * * * * * * * * * * * * * * * * * * * * * * * * * * * * * * * * * * * * * * * * * * * * * *     ",
"    > > > > > > > > > > > > > > > > > > > > > > > > > > > > > > > > > > > > > > > > > > > > > > > > > > > > > > > > > > > >     ",
"    * * * * * * * * * * * * * * * * * * * * * * * * * * * * * * * * * * * * * * * * * * * * * * * * * * * * * * * * * * * *     ",
"    > > > > > > > > > > > > > > > > > > > > > > > > > > > > > > > > > > > > > > > > > > > > > > > > > > > > > > > > > > > >     ",
"    * * * * * * * * * * * * * * * * * * * * * * * * * * * * * * * * * * * * * * * * * * * * * * * * * * * * * * * * * * * *     ",
"    > > > > > > > > > > > > > > > > > > > > > > > > > > > > > > > > > > > > > > > > > > > > > > > > > > > > > > > > > > > >     ",
"    , , ' ' ' ' ' ' ' ' ' ' ' ' ' ' ' ' ' ) , , , , , , , , , , , , , , , , , , , , , , , , , , , , , , , , , ' , , , , , ,     ",
"    ! ! ! ! ! ! ! ! ! ! ! ! ! ! ! ! ! ! ! ! ! ! ! ! ! ! ! ! ! ! ! ! ! ! ! ! ! ! ! ! ! ! ! ! ! ! ! ! ! ! ! ! ! ! ! ! ! ! ! !     ",
"    ~ ~ ~ ~ ~ ~ ~ ~ ~ ~ ~ ~ ~ ~ ~ ~ ~ ~ ~ ~ ~ ~ ~ ~ ~ ~ ~ ~ ~ ~ ~ ~ ~ ~ ~ ~ ~ ~ ~ ~ ~ ~ ~ ~ ~ ~ ~ ~ ~ ~ ~ ~ ~ ~ ~ ~ ~ ~ ~ ~     ",
"    ~ ~ ~ ~ ~ ~ ~ ~ ~ ~ ~ ~ ~ ~ ~ ~ ~ ~ ~ ~ ~ ~ ~ ~ ~ ~ ~ ~ ~ ~ ~ ~ ~ ~ ~ ~ ~ ~ ~ ~ ~ ~ ~ ~ ~ ~ ~ ~ ~ ~ ~ ~ ~ ~ ~ ~ ~ ~ ~ ~     ",
"    ~ ~ { ] ^ ) / $ + ( - _ : < [ } | 1 2 3 4 5 6 7 8 9 0 a b c d e f g h i j k l m n o p q r s t u v w x y z A B C D E ~ ~     ",
"    ~ ~ F ' G $ @ H _ : I J K L M N O P Q R S 9 a d T i U V l m n W p X r s Y Z v `  .y z ..+.@.#.$.%.&.*.=.E -.;.>.,.'.~ ~     ",
"    ~ ~ ) / ).!.~.< {.K L ].^./.5 (._.:.<.[.}.|.l o r 1.Y Z 2.`  .3.4.5.A B C 6.7.%.&.8.*.=.E -.;.9.0.a.'.b.~ ~ ~ ~ ~ ~ ~ ~     ",
"    ~ ~ c.@ d.e.f.| M g.h.i.j.| k.l.^.m.n.o.p.q.r.s.t.u.v.w.x.y.z.A.A.B.C.D.E.F.F.G.H.I.J.K.L.M.N.O.P.9.~ ~ ~ ~ ~ ~ ~ ~ ~ ~     ",
"    ~ ~ # Q.I K R.S.P T.U.V.W.X.Y.Z.`. +.+++@+#+$+%+.+&+%+*+=+-+;+>+,+@+'+*+)+%+!+'+@+@+'+!+%+)+!+'+~+{+9.~ ~ ~ ~ ~ ~ ~ ~ ~     ",
"    ~ ~ _ ]+^+2 /+6 n.(+++Y._+Z._+:+*+++=+X.,+>+&+-+<+!+'+*+[+'+;+-+,+@+'+*+)+%+!+'+@+@+'+!+%+)+*+'+@+~+}+~ ~ ~ ~ ~ ~ ~ ~ ~     ",
"    ~ ~ < } M |+(.8 N 1+`.2+++:+ +3+@+X.#+&+=+-+&+-+<+!+-+*+[+-+;+-+,+@+-+*+)+%+!+-+@+@+-+!+%+)+*+'+@+,+4+~ ~ ~ ~ ~ ~ ~ ~ ~     ",
"    ~ ~ J 5+S.Q 6+a |+2+*+7+8+r.9+<.0+A.f h |.|.|.|.|.|.|.|.|.|.|.|.|.|.|.|.|.|.|.|.|.|.|.|.|.|.a+b+@+,+c+~ ~ ~ ~ ~ ~ ~ ~ ~     ",
"    ~ ~ | d+P e+f+a+g+2+h+i+n W q Y v j+5.C 6.6.6.6.6.$.$.$.7.7.k+k+%.%.l+l+l+&.&.&.8.8.m+m+*.*.=.n+@+,+o+~ ~ ~ ~ ~ ~ ~ ~ ~     ",
"    ~ ~ p+q+r+S b g s+_+@+t+p u+u+j v+p s Z w+v w  .j+y x+z 5.y+B @.C 6.$.k+%.l+l+l+&.8.8.8.m+*.=.z+@+,+A+~ ~ ~ ~ ~ ~ ~ ~ ~     ",
"    ~ ~ ].|+B+C+D+E+F+_+.+G+r |.|.H+o I+! Z 2.J+K+ .j+L+z M+A +.@.N+#.D $.k+%.l+l+l+&.8.8.8.m+*.=.z+@+,+A+~ ~ ~ ~ ~ ~ ~ ~ ~     ",
"    ~ ~ d+P e+0 }.O+P+ +,+Q+Y O+O+u+R+I+S+w+v ` T+j+3.x+z 5.y++.@.C 6.D 7.k+%.l+l+l+&.8.8.8.m+*.=.z+@+,+A+~ ~ ~ ~ ~ ~ ~ ~ ~     ",
"    ~ ~ q+s+S U+V+v+W+X+~+Y+w+v+v+m g d j Y J+K+ .j+y 4.M+..y+B N+C 6.$.7.k+%.l+l+l+&.8.8.8.m+*.=.Z+@+,+A+~ ~ ~ ~ ~ ~ ~ ~ ~     ",
"    ~ ~ /.(.`+d R+ @8 ++=+.@K+o  @I+Y n D+|.` ` w+v  .z 5.A +.@.C #.D $.k+%.%.l+l+l+&.8.m+*.+@=.;.@@@+,+A+~ ~ ~ ~ ~ ~ ~ ~ ~     ",
"    ~ ~ #@R f+f H+$@`+++=+%@L+q q &@f *@=@-@v+T }.T h ;@K+A B @.C 6.$.7.k+%.%.l+&.8.*.+@=.=.>@>@>.,@@+,+A+~ ~ ~ ~ ~ ~ ~ ~ ~     ",
"    ~ ~ 5 '@a )@!@Y ~@{@[+]@5.s 1.m !@S+! i *@*@^@f u+i V 2.B @.#.6.$.7.k+l+&.m+*.*.+@=.=.=.>@>@>.,@@+,+A+~ ~ ~ ~ ~ ~ ~ ~ ~     ",
"    ~ ~ Q /@c U (@w+u.X.#+_@N+Z s t Z w+R+*@e a+*@f u+i R+m z C 6.$.D T+-@r r Y x 8.+@=.=.=.>@>@>.,@@+,+A+~ ~ ~ ~ ~ ~ ~ ~ ~     ",
"    ~ ~ B+9+e O+:@T+w.`.)+<@$.w+Y ! u p ^@e /@8 6+`+9 )@k =@r #.$.5.q W n ;@v+n &@q y+=.=.=.>@>@>.,@@+,+A+~ ~ ~ ~ ~ ~ ~ ~ ~     ",
"    ~ ~ e+0 g v+t x+[@}@%+|@%.w+t Z w+j ^@e f+1@0 a c E+H+!@(@+.5.2@o !@v+m m m ;@&@X @.=.=.>@>@>.,@@+,+A+~ ~ ~ ~ ~ ~ ~ ~ ~     ",
"    ~ ~ 3@U+V+W w+A D.&+-+4@%.v ! u Z )@f *@e *@}.)@|.O+W q r x+1.2@o !@v+=@=@=@v+&@p s 8.=.>@>@>.,@@+,+A+~ ~ ~ ~ ~ ~ ~ ~ ~     ",
"    ~ ~ /@[.j 2@K+C g *+'+4@%.v Z w+t u+}.^@*@^@T V+R+=@u v @.Z L++.Y &@v+=@=@m v+&@p I+@.=.>@>@>.,@@+,+A+~ ~ ~ ~ ~ ~ ~ ~ ~     ",
"    ~ ~ 9+e 5@:@y %.J.*+'+4@%.` u 2.t V+T }.f g u+i R+! v  .C 5.y+3.6.W n v+v+v+!@o X 1.+.=.>@>@>.,@@+,+A+~ ~ ~ ~ ~ ~ ~ ~ ~     ",
"    ~ ~ f+g v+! 5.+@6@*+'+4@%.` w+v u |.V+)@u+u+h E+R+S+B C %.@.l+l+N+ @&@!@n &@o 2@r Y C =.>@>@>.,@@+,+A+~ ~ ~ ~ ~ ~ ~ ~ ~     ",
"    ~ ~ a h W 2.@.;.V *+'+4@%.K+2.J+` H+j E+V+h i |.V !@C %.7.C  .y 1.X p  @ @p X I+-@w+8.>@>@>@>.,@@+,+A+~ ~ ~ ~ ~ ~ ~ ~ ~     ",
"    ~ ~ 7@U 2@K+D a.8@*+'+4@%.K+v K+x 2@O+V j U j V 5@v+$@J+w+$.A t -@:@r $@$@r 1.Y Z N+=.=.>@>@>.,@@+,+A+~ ~ ~ ~ ~ ~ ~ ~ ~     ",
"    ~ ~ d k r 3.&.'.8@*+'+4@%. .K+ .3.w ;@H+5@O+5@l v+9@0@a@b@c@d@e@f@g@h@i@t ! Z v @.=.=.=.>@>@>.,@@+,+A+~ ~ ~ ~ ~ ~ ~ ~ ~     ",
"    ~ ~ *@H+-@z m+'.8@*+'+j@m+j+T+x y L+! !@n ;@n !@p k@l@m@n@o@p@p@q@r@s@t@J+` z l++@=.=.=.>@>@>.,@@+,+A+~ ~ ~ ~ ~ ~ ~ ~ ~     ",
"    ~ ~ g n Z A 8.'.8@*+'+u@>@3. .j+L+x+z Z (@p (@2@r t v@w@x@y@z@z@A@B@C@y 3.y N++@+@=.=.=.>@>@>.,@@+,+A+~ ~ ~ ~ ~ ~ ~ ~ ~     ",
"    ~ ~ h o v A 8.a.8@*+'+u@>@y x 3.x+4.M+..y -@:@s t 2.K+D@E@F@G@H@I@J@2.u w+v J+@.+@=.=.=.>@>@>.,@@+,+A+~ ~ ~ ~ ~ ~ ~ ~ ~     ",
"    ~ ~ |.2@J+..&.a.8@*+'+u@>@L+j+y 4.z 5.A v ! Z Z S+Y s t K@L@M@N@O@Y :@I+1.Y S+v 6.=.=.=.>@>@>.,@@+,+A+~ ~ ~ ~ ~ ~ ~ ~ ~     ",
"    ~ ~ V q v 5.&.0.8@*+'+u@>@x+y L+z M+..w q q $@q X (@p 2@P@Q@R@S@s X (@2@$@:@-@S+` l+=.=.>@>@>.,@@+,+A+~ ~ ~ ~ ~ ~ ~ ~ ~     ",
"    ~ ~ O+X v 5.l+0.8@*+'+u@>@4.y x+z 5.3.2@p o o W &@&@!@!@p T@U@V@p W W p (@$@:@Y S+x +@=.>@>@>.,@@+,+A+~ ~ ~ ~ ~ ~ ~ ~ ~     ",
"    ~ ~ O+2@2.M+l+0.8@*+'+u@>@z L+4.M+M+I+p o &@!@;@;@v+v+m ;@&@ @W n n n &@o (@$@:@Y u A =.>@>@>.,@@+,+A+~ ~ ~ ~ ~ ~ ~ ~ ~     ",
"    ~ ~ O+2@w+M+%.0.8@*+'+u@>@z x+z 5.Z  @o &@n ;@m m =@H+l =@=@m =@=@m v+n &@ @2@r s ! w+k+>@>@>.,@@+,+A+~ ~ ~ ~ ~ ~ ~ ~ ~     ",
"    ~ ~ k (@w+z %.,.8@*+'+u@>@..M+5.L+2@o &@n v+m =@H+l l 5@l 5@l l H+=@=@v+n &@p X I+-@Z j+=.>@>.,@@+,+A+~ ~ ~ ~ ~ ~ ~ ~ ~     ",
"    ~ ~ V (@u z k+,.8@*+'+u@9.>@>@>@D y+A 5.z x+x+y y y y y y y y y y y L+x+x+z M+..A B N+#.W@9.0.,@@+,+A+~ ~ ~ ~ ~ ~ ~ ~ ~     ",
"    ~ ~ V p u 4.k+9.8@*+'+X@Y@Z@`@Z@ #`@.#`@ #Z@`@Z@Y@`@.#`@+#.#`@Z@Y@`@.#`@@#Z@`@.#####.#`@Z@@#`@$#@+,+A+~ ~ ~ ~ ~ ~ ~ ~ ~     ",
"    ~ ~ R+p Z 4.7.9.8@*+'+!+<+'+&+'+=+!+-+!+=+'+&+'+<+!+'+*+[+%#&#-+,+@+'+*+)+%+!+'+@+@+'+!+%+)+*+'+@+,+A+~ ~ ~ ~ ~ ~ ~ ~ ~     ",
"    ~ ~ R+ @Z x+7.>.8@*+'+!+<+'+&+'+=+!+-+!+=+'+&+'+<+!+'+*+*#} =#-+,+@+'+*+)+%+!+'+@+@+'+!+%+)+*+'+@+,+A+~ ~ ~ ~ ~ ~ ~ ~ ~     ",
"    ~ ~ j  @S+x+$.>.8@*+'+!+<+'+&+'+=+!+-+!+=+'+&+'+<+!+'+*+#+-#;#-+,+@+'+*+)+%+!+'+@+@+'+!+%+)+*+'+@+,+A+~ ~ ~ ~ ~ ~ ~ ~ ~     ",
"    ~ ~ j o S+L+$.;.>#,#'#,#)#!#,#!#~#,#{#,#~#!#,#!#)#,#'#,#]#{#,#^#/#,#!#,#(#_#,#!#X@X@!#,#_#(#,#!#,#/#F.~ ~ ~ ~ ~ ~ ~ ~ ~     ",
"    ~ ~ U o ! L+D ;.~ ~ ~ ~ ~ ~ ~ ~ ~ ~ ~ ~ ~ ~ ~ ~ ~ ~ ~ ~ ~ ~ ~ ~ ~ ~ ~ ~ ~ ~ ~ ~ ~ ~ ~ ~ ~ ~ ~ ~ ~ ~ ~ ~ ~ ~ ~ ~ ~ ~ ~ ~     ",
"    ~ ~ U W ! y 6.:#~ ~ ~ ~ ~ ~ ~ ~ ~ ~ ~ ~ ~ ~ ~ ~ ~ ~ ~ ~ ~ ~ ~ ~ ~ ~ ~ ~ ~ ~ ~ ~ ~ ~ ~ ~ ~ ~ ~ ~ ~ ~ ~ ~ ~ ~ ~ ~ ~ ~ ~ ~     ",
"    ~ ~ |.W t y 6.-.~ ~ ~ ~ ~ ~ ~ ~ ~ ~ ~ ~ ~ ~ ~ ~ ~ ~ ~ ~ ~ ~ ~ ~ ~ ~ ~ ~ ~ ~ ~ ~ ~ ~ ~ ~ ~ ~ ~ ~ ~ ~ ~ ~ ~ ~ ~ ~ ~ ~ ~ ~     ",
"    ~ ~ |.&@t 3.#.-.~ ~ ~ ~ ~ ~ ~ ~ ~ ~ ~ ~ ~ ~ ~ ~ ~ ~ ~ ~ ~ ~ ~ ~ ~ ~ ~ ~ ~ ~ ~ ~ ~ ~ ~ ~ ~ ~ ~ ~ ~ ~ ~ ~ ~ ~ ~ ~ ~ ~ ~ ~     ",
"    ~ ~  .z @.k+=.,.~ ~ ~ ~ ~ ~ ~ ~ ~ ~ ~ ~ ~ ~ ~ ~ ~ ~ ~ ~ ~ ~ ~ ~ ~ ~ ~ ~ ~ ~ ~ ~ ~ ~ ~ ~ ~ ~ ~ ~ ~ ~ ~ ~ ~ ~ ~ ~ ~ ~ ~ ~     ",
"    ~ ~ ~ ~ ~ ~ ~ ~ ~ ~ ~ ~ ~ ~ ~ ~ ~ ~ ~ ~ ~ ~ ~ ~ ~ ~ ~ ~ ~ ~ ~ ~ ~ ~ ~ ~ ~ ~ ~ ~ ~ ~ ~ ~ ~ ~ ~ ~ ~ ~ ~ ~ ~ ~ ~ ~ ~ ~ ~ ~     ",
"    ~ ~ ~ ~ ~ ~ ~ ~ ~ ~ ~ ~ ~ ~ ~ ~ ~ ~ ~ ~ ~ ~ ~ ~ ~ ~ ~ ~ ~ ~ ~ ~ ~ ~ ~ ~ ~ ~ ~ ~ ~ ~ ~ ~ ~ ~ ~ ~ ~ ~ ~ ~ ~ ~ ~ ~ ~ ~ ~ ~     ",
"        ~ ~ ~ ~ ~ ~ ~ ~ ~ ~ ~ ~ ~ ~ ~ ~ ~ ~ ~ ~ ~ ~ ~ ~ ~ ~ ~ ~ ~ ~ ~ ~ ~ ~ ~ ~ ~ ~ ~ ~ ~ ~ ~ ~ ~ ~ ~ ~ ~ ~ ~ ~ ~ ~ ~ ~ ~       ",
"                                                                                                                                "};
