/* XPM */
static char * nbk_graphs_mini_xpm[] = {
"22 22 298 2",
"  	c None",
". 	c #F2F2F2",
"+ 	c #EEEEEE",
"@ 	c #EDEDED",
"# 	c #F3F3F3",
"$ 	c #F8F8F8",
"% 	c #F6F6F6",
"& 	c #CACACA",
"* 	c #C9C9C9",
"= 	c #B9B9B9",
"- 	c #565656",
"; 	c #666666",
"> 	c #616161",
", 	c #5C5C5C",
"' 	c #685151",
") 	c #8F4D4D",
"! 	c #4D4747",
"~ 	c #424242",
"{ 	c #473D47",
"] 	c #5C385C",
"^ 	c #7B327C",
"/ 	c #812E84",
"( 	c #772979",
"_ 	c #562458",
": 	c #2E1E2E",
"< 	c #1A191A",
"[ 	c #141414",
"} 	c #0F0F0F",
"| 	c #090909",
"1 	c #696969",
"2 	c #7E7E7E",
"3 	c #777777",
"4 	c #717070",
"5 	c #9F6969",
"6 	c #F17D7D",
"7 	c #D76F6F",
"8 	c #785353",
"9 	c #5B4B5B",
"0 	c #E048E1",
"a 	c #EA48EC",
"b 	c #F43BF9",
"c 	c #EF2FF5",
"d 	c #E927EF",
"e 	c #D420DA",
"f 	c #A919AE",
"g 	c #301131",
"h 	c #0A0A0A",
"i 	c #030303",
"j 	c #000000",
"k 	c #626262",
"l 	c #747474",
"m 	c #6E6D6D",
"n 	c #AA6868",
"o 	c #FA9393",
"p 	c #F28787",
"q 	c #D25353",
"r 	c #9F4848",
"s 	c #484143",
"t 	c #C03AC4",
"u 	c #E833ED",
"v 	c #E02BE6",
"w 	c #DF24E5",
"x 	c #D12CD6",
"y 	c #C965CC",
"z 	c #B990BA",
"A 	c #9B979B",
"B 	c #5E5E5E",
"C 	c #5A5A5A",
"D 	c #6A6A6A",
"E 	c #986464",
"F 	c #F79494",
"G 	c #E08484",
"H 	c #C85050",
"I 	c #CC4747",
"J 	c #B84141",
"K 	c #5E3737",
"L 	c #6B306D",
"M 	c #E829EF",
"N 	c #DF21E5",
"O 	c #CF3FD4",
"P 	c #C3AAC4",
"Q 	c #DEDEDE",
"R 	c #F0F0F0",
"S 	c #F4F4F4",
"T 	c #9E9E9E",
"U 	c #050505",
"V 	c #525252",
"W 	c #736060",
"X 	c #EB7979",
"Y 	c #E88989",
"Z 	c #D64B4B",
"` 	c #D94343",
" .	c #D53B3B",
"..	c #C83636",
"+.	c #8E3434",
"@.	c #2D262B",
"#.	c #CC1FD2",
"$.	c #D62CDB",
"%.	c #B7A9B7",
"&.	c #E4E4E4",
"*.	c #FCFCFC",
"=.	c #FFFFFF",
"-.	c #F1F1F1",
";.	c #E5E5E5",
">.	c #444444",
",.	c #4A4A4A",
"'.	c #B95A5A",
").	c #F59393",
"!.	c #DF4D4D",
"~.	c #D84040",
"{.	c #D73939",
"].	c #D63232",
"^.	c #D02B2B",
"/.	c #AF2525",
"(.	c #472323",
"_.	c #701573",
":.	c #B65EB9",
"<.	c #CFCFCF",
"[.	c #F7F7F7",
"}.	c #FEFEFE",
"|.	c #FAFAFA",
"1.	c #EFEFEF",
"2.	c #6C6C6C",
"3.	c #524141",
"4.	c #E56363",
"5.	c #DD5E5E",
"6.	c #D43D3D",
"7.	c #D53636",
"8.	c #D04D4D",
"9.	c #D07C7C",
"0.	c #D68686",
"a.	c #C86363",
"b.	c #802323",
"c.	c #1C0C1C",
"d.	c #A58FA6",
"e.	c #DFDFDF",
"f.	c #EBEBEB",
"g.	c #FBFBFB",
"h.	c #E9E9E9",
"i.	c #E2E2E2",
"j.	c #535353",
"k.	c #4A3939",
"l.	c #7F4646",
"m.	c #9B3A3A",
"n.	c #B03434",
"o.	c #BA6F6F",
"p.	c #CFCBCB",
"q.	c #E8E8E8",
"r.	c #EAEAEA",
"s.	c #DACECE",
"t.	c #564D4D",
"u.	c #9C9A9C",
"v.	c #686568",
"w.	c #868586",
"x.	c #D6D6D6",
"y.	c #E0E0E0",
"z.	c #161616",
"A.	c #313131",
"B.	c #3D3D3C",
"C.	c #3B3630",
"D.	c #5C4A4A",
"E.	c #C1BFBF",
"F.	c #D4D0D0",
"G.	c #898888",
"H.	c #6F7880",
"I.	c #494949",
"J.	c #B8B8B8",
"K.	c #DADADA",
"L.	c #D6D4CE",
"M.	c #CFCFD0",
"N.	c #454545",
"O.	c #060606",
"P.	c #292929",
"Q.	c #4D4832",
"R.	c #DFB52B",
"S.	c #A9996D",
"T.	c #D9D9D9",
"U.	c #FDFDFD",
"V.	c #BBB8B8",
"W.	c #686868",
"X.	c #313539",
"Y.	c #56667C",
"Z.	c #828486",
"`.	c #B4B4B1",
" +	c #D2BC73",
".+	c #BEA15D",
"++	c #566475",
"@+	c #020202",
"#+	c #222222",
"$+	c #615628",
"%+	c #F1CE3A",
"&+	c #A7A58F",
"*+	c #E1E1E1",
"=+	c #919191",
"-+	c #262626",
";+	c #353636",
">+	c #7892B4",
",+	c #28363B",
"'+	c #B49C25",
")+	c #EAAF04",
"!+	c #9B8260",
"~+	c #40526A",
"{+	c #010101",
"]+	c #191919",
"^+	c #61521C",
"/+	c #BBB960",
"(+	c #84A2BA",
"_+	c #D8D8D8",
":+	c #808081",
"<+	c #808182",
"[+	c #B3B596",
"}+	c #CDB622",
"|+	c #FDCF0B",
"1+	c #D68E00",
"2+	c #8E796F",
"3+	c #42546B",
"4+	c #040505",
"5+	c #111111",
"6+	c #56460F",
"7+	c #B0AD57",
"8+	c #71A9D1",
"9+	c #C0C1C1",
"0+	c #E6E5DF",
"a+	c #DFCE72",
"b+	c #FBD71F",
"c+	c #FFD510",
"d+	c #F8C404",
"e+	c #C67400",
"f+	c #877775",
"g+	c #3B4D64",
"h+	c #362906",
"i+	c #AEAA4E",
"j+	c #68BAEC",
"k+	c #9FADB4",
"l+	c #E2E0D5",
"m+	c #D9CA7F",
"n+	c #CBB94C",
"o+	c #C6A50E",
"p+	c #DEA800",
"q+	c #C97C02",
"r+	c #837D7F",
"s+	c #364860",
"t+	c #0C0900",
"u+	c #97974F",
"v+	c #69C4FE",
"w+	c #80C2E4",
"x+	c #A9B0B6",
"y+	c #D7D7D7",
"z+	c #DDDDDD",
"A+	c #CED1D5",
"B+	c #6C8EBB",
"C+	c #071826",
"D+	c #171406",
"E+	c #686557",
"F+	c #727E90",
"G+	c #30425A",
"H+	c #485A4E",
"I+	c #61BAFE",
"J+	c #6FC2FD",
"K+	c #356088",
"L+	c #8E8F97",
"M+	c #C6C6C8",
"N+	c #D3D3D3",
"O+	c #D5D5D5",
"P+	c #BFC3C8",
"Q+	c #7B99C2",
"R+	c #5983BA",
"S+	c #041423",
"T+	c #000407",
"U+	c #3E5370",
"V+	c #637591",
"W+	c #28394F",
"X+	c #071B2D",
"Y+	c #3C8FDD",
"Z+	c #4694DE",
"`+	c #0A2D4C",
" @	c #24255A",
".@	c #7274D3",
"+@	c #7678BC",
"@@	c #3D3D47",
"#@	c #15293C",
"$@	c #3F6BA0",
"%@	c #345D8C",
"&@	c #010911",
"*@	c #000001",
"=@	c #20334A",
"-@	c #3F536E",
";@	c #111E2E",
">@	c #000D17",
",@	c #00101C",
"'@	c #000203",
")@	c #060612",
"!@	c #05050F",
"~@	c #000912",
"{@	c #00070D",
"]@	c #000204",
"^@	c #00060B",
"/@	c #000103",
"  . + @ @ @ @ @ @ @ @ @ @ @ @ @ @ @ @ + #   ",
"  $ $ $ $ $ $ $ $ $ $ $ $ $ $ $ $ $ $ $ $   ",
"  % % % % % % % % % % % % % % % % % % % %   ",
"  & & & & & & & * * * * = * * * * * & & *   ",
"  - ; > , - ' ) ! ~ { ] ^ / ( _ : < [ } |   ",
"  1 2 3 4 5 6 7 8 9 0 a b c d e f g h i j   ",
"  k l m n o p q r s t u v w x y z A B h j   ",
"  C D E F G H I J K L M N O P Q R S @ T U   ",
"  V W X Y Z `  ...+.@.#.$.%.&.*.=.*.-.;.>.  ",
"  ,.'.).!.~.{.].^./.(._.:.<.[.}.}.|.1.;.2.  ",
"  3.4.5.6.7.8.9.0.a.b.c.d.e.f.% g.S h.i.j.  ",
"  k.l.m.n.o.p.q.1.r.s.t.u.v.w.x.+ h.y.& z.  ",
"  A.B.C.D.E.R *.% @ F.G.H.I.I.J.K.L.M.N.O.  ",
"  P.Q.R.S.T.U.U.[.-.V.W.X.Y.Z.`. +.+++@+O.  ",
"  #+$+%+&+*+}.}.g.% =+-+;+>+,+'+)+!+~+| {+  ",
"  ]+^+/+(+_+*.=.}.g.@ :+<+[+}+|+1+2+3+4+j   ",
"  5+6+7+8+9+# U.}.U.[.0+a+b+c+d+e+f+g+j j   ",
"  | h+i+j+k+_+# $ [.-.l+m+n+o+p+q+r+s+j j   ",
"  @+t+u+v+w+x+y+q.r.&.z+A+B+C+D+E+F+G+j j   ",
"  j j H+I+J+K+L+M+N+O+P+Q+R+S+T+U+V+W+j j   ",
"  j j X+Y+Z+`+ @.@+@@@#@$@%@&@*@=@-@;@j j   ",
"  j j j >@,@'@{+)@!@j *@~@{@j j ]@^@/@j j   "};
