/* XPM */
static char * nbk_rooms_mini_xpm[] = {
"22 22 198 2",
"  	c None",
". 	c #F2F2F2",
"+ 	c #EEEEEE",
"@ 	c #EDEDED",
"# 	c #F3F3F3",
"$ 	c #F8F8F8",
"% 	c #F6F6F6",
"& 	c #CACACA",
"* 	c #C9C9C9",
"= 	c #303030",
"- 	c #444444",
"; 	c #3F3F3F",
"> 	c #3A3A3A",
", 	c #353535",
"' 	c #2F2F2F",
") 	c #2A2A2A",
"! 	c #252525",
"~ 	c #202020",
"{ 	c #1D1C1B",
"] 	c #2E2B23",
"^ 	c #29251D",
"/ 	c #0D0D0B",
"( 	c #070707",
"_ 	c #6B6B6B",
": 	c #A0A0A0",
"< 	c #929292",
"[ 	c #838383",
"} 	c #757575",
"| 	c #666666",
"1 	c #585858",
"2 	c #494949",
"3 	c #43413B",
"4 	c #AF954A",
"5 	c #D4BC6A",
"6 	c #D1B75F",
"7 	c #967823",
"8 	c #0A0701",
"9 	c #000000",
"0 	c #626262",
"a 	c #919191",
"b 	c #747474",
"c 	c #575757",
"d 	c #836E2F",
"e 	c #A68E38",
"f 	c #444443",
"g 	c #40403E",
"h 	c #9E821B",
"i 	c #644C03",
"j 	c #595959",
"k 	c #484848",
"l 	c #2B2B2B",
"m 	c #9D811D",
"n 	c #594910",
"o 	c #030303",
"p 	c #010101",
"q 	c #564403",
"r 	c #907001",
"s 	c #505050",
"t 	c #656565",
"u 	c #1D1D1D",
"v 	c #57450F",
"w 	c #B58F1E",
"x 	c #201A0E",
"y 	c #241E0F",
"z 	c #BA9719",
"A 	c #4A3B03",
"B 	c #474747",
"C 	c #565656",
"D 	c #393939",
"E 	c #1C1C1C",
"F 	c #191710",
"G 	c #968136",
"H 	c #CDB762",
"I 	c #E9C44A",
"J 	c #BD951E",
"K 	c #5A4603",
"L 	c #1D180C",
"M 	c #120D03",
"N 	c #3D3D3D",
"O 	c #0F0F0D",
"P 	c #957613",
"Q 	c #9B883E",
"R 	c #3B3B3A",
"S 	c #9E8F53",
"T 	c #C1B589",
"U 	c #CCBD82",
"V 	c #E2C151",
"W 	c #997412",
"X 	c #020200",
"Y 	c #343434",
"Z 	c #0D0D0D",
"` 	c #211A02",
" .	c #E4BD2D",
"..	c #989793",
"+.	c #323232",
"@.	c #A6A6A6",
"#.	c #A6A49A",
"$.	c #5C5A55",
"%.	c #413F38",
"&.	c #C2980B",
"*.	c #423103",
"=.	c #1B1B1B",
"-.	c #020202",
";.	c #503D00",
">.	c #E5C85B",
",.	c #6F6F6F",
"'.	c #6E6E6E",
").	c #F1E6CC",
"!.	c #E0D6C4",
"~.	c #524732",
"{.	c #7E6C31",
"].	c #DBBF55",
"^.	c #524104",
"/.	c #222222",
"(.	c #0C0C0C",
"_.	c #695201",
":.	c #DFC35F",
"<.	c #A0946A",
"[.	c #A29560",
"}.	c #C1A138",
"|.	c #EFC434",
"1.	c #C29C29",
"2.	c #746016",
"3.	c #242113",
"4.	c #010100",
"5.	c #181818",
"6.	c #0E0B02",
"7.	c #C19C1B",
"8.	c #BBAB71",
"9.	c #BFB187",
"0.	c #DEB739",
"a.	c #AFADA6",
"b.	c #78735D",
"c.	c #CEBE85",
"d.	c #84702B",
"e.	c #070501",
"f.	c #0F0F0F",
"g.	c #241E0E",
"h.	c #AD9135",
"i.	c #DAC570",
"j.	c #E1E1DE",
"k.	c #EBE8E0",
"l.	c #E1CA96",
"m.	c #E1D6BE",
"n.	c #646463",
"o.	c #413F3A",
"p.	c #B49C42",
"q.	c #826713",
"r.	c #030200",
"s.	c #050505",
"t.	c #3F2F09",
"u.	c #A6862F",
"v.	c #D4B445",
"w.	c #B7AA79",
"x.	c #DBDAD7",
"y.	c #F7F6F3",
"z.	c #F4D67E",
"A.	c #A38728",
"B.	c #C7AA4C",
"C.	c #C6AA5A",
"D.	c #130F06",
"E.	c #2F2D25",
"F.	c #BB9512",
"G.	c #3D2D03",
"H.	c #3D2E00",
"I.	c #D0A816",
"J.	c #3A3625",
"K.	c #7E7E7E",
"L.	c #EAE8E2",
"M.	c #F6DF95",
"N.	c #B59A38",
"O.	c #0B0905",
"P.	c #0C0B06",
"Q.	c #907A29",
"R.	c #A9851C",
"S.	c #120E06",
"T.	c #806916",
"U.	c #A37F08",
"V.	c #070500",
"W.	c #C6A116",
"X.	c #51441A",
"Y.	c #B7AA82",
"Z.	c #EED378",
"`.	c #A08C3F",
" +	c #100E06",
".+	c #050401",
"++	c #A98C20",
"@+	c #D2B963",
"#+	c #BDA652",
"$+	c #3C320C",
"%+	c #65561F",
"&+	c #C9B775",
"*+	c #97874C",
"=+	c #3F3A24",
"-+	c #020201",
";+	c #282414",
">+	c #5B553C",
",+	c #070604",
"  . + @ @ @ @ @ @ @ @ @ @ @ @ @ @ @ @ + #   ",
"  $ $ $ $ $ $ $ $ $ $ $ $ $ $ $ $ $ $ $ $   ",
"  % % % % % % % % % % % % % % % % % % % %   ",
"  & & & & & & & * * * * * * * * * * & & *   ",
"  = - ; > , ' ) ! ~ { ] ^ / ( ( ( ( ( ( (   ",
"  _ : < [ } | 1 2 3 4 5 6 7 8 9 9 9 9 9 9   ",
"  0 a [ b | c 2 > d e f g h i 9 9 9 9 9 9   ",
"  j [ b | c k > l m n o p q r 9 9 9 9 9 9   ",
"  s b t c k > l u v w x y z A 9 9 9 9 9 9   ",
"  B t C k D l E F G H I J K L M 9 9 9 9 9   ",
"  N C k D l E O P Q R S T U V W X 9 9 9 9   ",
"  Y B D ) E Z `  ...+.@.#.$.%.&.*.9 9 9 9   ",
"  l D ) =.Z -.;.>.,.'.).!.~.{.].^.9 9 9 9   ",
"  /.) =.(.-.9 _.:.<.[.}.|.1.2.3.4.9 9 9 9   ",
"  5.=.(.-.9 6.7.8.9.0.a.b.c.d.e.9 9 9 9 9   ",
"  f.(.-.4.g.h.i.j.k.l.m.n.o.p.q.r.9 9 9 9   ",
"  s.-.t.u.v.w.x.y.z.A.B.C.D.E.F.G.9 9 9 9   ",
"  9 9 H.I.J.K.L.M.N.O.P.Q.R.S.T.U.9 9 9 9   ",
"  9 9 V.W.X.Y.Z.`. +9 9 .+++@+#+$+9 9 9 9   ",
"  9 9 9 %+&+*+=+-+9 9 9 9 ;+>+,+9 9 9 9 9   ",
"  9 9 9 9 9 9 9 9 9 9 9 9 9 9 9 9 9 9 9 9   ",
"                                            "};
