/* XPM */
static char * nbk_friends_mini_xpm[] = {
"22 22 237 2",
"  	c None",
". 	c #F2F2F2",
"+ 	c #EEEEEE",
"@ 	c #EDEDED",
"# 	c #F7F7F7",
"$ 	c #F8F8F8",
"% 	c #DDDDDD",
"& 	c #F4F4F4",
"* 	c #F6F6F6",
"= 	c #D0D0D0",
"- 	c #C8C8C8",
"; 	c #CACACA",
"> 	c #C9C9C9",
", 	c #AAAAAA",
"' 	c #262626",
") 	c #494949",
"! 	c #454545",
"~ 	c #424242",
"{ 	c #3E3E3E",
"] 	c #3A3A3A",
"^ 	c #373737",
"/ 	c #333333",
"( 	c #303030",
"_ 	c #2C2C2C",
": 	c #292929",
"< 	c #252525",
"[ 	c #212121",
"} 	c #1E1E1E",
"| 	c #1A1A1A",
"1 	c #171717",
"2 	c #131313",
"3 	c #101010",
"4 	c #0C0C0C",
"5 	c #080808",
"6 	c #060606",
"7 	c #525252",
"8 	c #AFAFAF",
"9 	c #A5A5A5",
"0 	c #9B9B9B",
"a 	c #9B9696",
"b 	c #BAA3A3",
"c 	c #C49999",
"d 	c #B57F7F",
"e 	c #8F6C6C",
"f 	c #626060",
"g 	c #555555",
"h 	c #635858",
"i 	c #996F6F",
"j 	c #A45E5E",
"k 	c #8C3B3B",
"l 	c #4F2626",
"m 	c #1B1A1A",
"n 	c #010101",
"o 	c #000000",
"p 	c #4D4D4D",
"q 	c #A3A3A3",
"r 	c #9A9A9A",
"s 	c #DCC1C1",
"t 	c #E3B1B1",
"u 	c #D89090",
"v 	c #D27F7F",
"w 	c #C96767",
"x 	c #975858",
"y 	c #6B6060",
"z 	c #D5A6A6",
"A 	c #D17E7E",
"B 	c #C45757",
"C 	c #BC4141",
"D 	c #AE2424",
"E 	c #561313",
"F 	c #050505",
"G 	c #484848",
"H 	c #989898",
"I 	c #8E8E8E",
"J 	c #C7AFAF",
"K 	c #E1ACAC",
"L 	c #D17C7C",
"M 	c #CB6D6D",
"N 	c #C86565",
"O 	c #C55B5B",
"P 	c #C55C5C",
"Q 	c #C67E7E",
"R 	c #C96666",
"S 	c #B93939",
"T 	c #B42A2A",
"U 	c #B02121",
"V 	c #AD1717",
"W 	c #A30F0F",
"X 	c #200202",
"Y 	c #434343",
"Z 	c #8D8D8D",
"` 	c #8C8686",
" .	c #DEB1B1",
"..	c #D38383",
"+.	c #CB6B6B",
"@.	c #D08787",
"#.	c #E8CFCF",
"$.	c #E0BFBF",
"%.	c #C25E5E",
"&.	c #BD4444",
"*.	c #B93C3C",
"=.	c #B53232",
"-.	c #B02020",
";.	c #AD1616",
">.	c #AA0D0D",
",.	c #AB1212",
"'.	c #5B0A0A",
").	c #828282",
"!.	c #887A7A",
"~.	c #D99B9B",
"{.	c #CC6F6F",
"].	c #C76A6A",
"^.	c #E7DCDC",
"/.	c #FCFCFC",
"(.	c #CAA8A8",
"_.	c #BE6565",
":.	c #E2D1D1",
"<.	c #EDE2E2",
"[.	c #C98383",
"}.	c #AA1010",
"|.	c #A90B0B",
"1.	c #AC1313",
"2.	c #751616",
"3.	c #393939",
"4.	c #767676",
"5.	c #7D6D6D",
"6.	c #D08484",
"7.	c #C47474",
"8.	c #EBEBEB",
"9.	c #FBFBFB",
"0.	c #D3D2D2",
"a.	c #858181",
"b.	c #8D8181",
"c.	c #E3E3E3",
"d.	c #FAFAFA",
"e.	c #E0E0E0",
"f.	c #AA3535",
"g.	c #741D1D",
"h.	c #343434",
"i.	c #6B6B6B",
"j.	c #686161",
"k.	c #C06A6A",
"l.	c #BA6262",
"m.	c #DADADA",
"n.	c #C6C4C4",
"o.	c #4E4040",
"p.	c #6C5454",
"q.	c #CAC9C9",
"r.	c #BCB9B9",
"s.	c #9F2727",
"t.	c #B22525",
"u.	c #581717",
"v.	c #2F2F2F",
"w.	c #606060",
"x.	c #565656",
"y.	c #9A5252",
"z.	c #C25353",
"A.	c #B64343",
"B.	c #B29494",
"C.	c #CBCBCB",
"D.	c #C5BFAA",
"E.	c #DFBD62",
"F.	c #DFB656",
"G.	c #C7B163",
"H.	c #928B89",
"I.	c #8E3B3B",
"J.	c #A40B0B",
"K.	c #B53C3C",
"L.	c #230707",
"M.	c #545454",
"N.	c #4A4A4A",
"O.	c #5E4242",
"P.	c #B84141",
"Q.	c #B83838",
"R.	c #A43C3C",
"S.	c #938E8E",
"T.	c #969695",
"U.	c #BFA34F",
"V.	c #EEBB0C",
"W.	c #ADA286",
"X.	c #9F9E9E",
"Y.	c #A04848",
"Z.	c #A90C0C",
"`.	c #B12121",
" +	c #853333",
".+	c #020000",
"++	c #242424",
"@+	c #3F3F3F",
"#+	c #363535",
"$+	c #813030",
"%+	c #B42D2D",
"&+	c #AC7B7B",
"*+	c #BDBDBD",
"=+	c #D5D5D5",
"-+	c #D8D7D4",
";+	c #D1C4A4",
">+	c #B0A8A8",
",+	c #A93232",
"'+	c #B34646",
")+	c #220909",
"!+	c #1F1F1F",
"~+	c #2A2A2A",
"{+	c #2D2020",
"]+	c #914545",
"^+	c #BAB8B8",
"/+	c #DCDCDC",
"(+	c #F1F1F1",
"_+	c #F9F9F9",
":+	c #EAEAEA",
"<+	c #CCCCCC",
"[+	c #B99F9F",
"}+	c #4D1F1F",
"|+	c #323232",
"1+	c #282828",
"2+	c #151515",
"3+	c #282727",
"4+	c #B7B7B7",
"5+	c #FFFFFF",
"6+	c #FEFEFE",
"7+	c #E5E5E5",
"8+	c #6E6D6D",
"9+	c #020202",
"0+	c #272727",
"a+	c #1D1D1D",
"b+	c #090909",
"c+	c #2E2E2E",
"d+	c #D8D8D8",
"e+	c #1C1C1C",
"f+	c #121212",
"g+	c #CDCDCD",
"h+	c #717171",
"i+	c #040404",
"j+	c #0B0B0B",
"k+	c #070707",
"l+	c #111111",
"m+	c #464646",
"n+	c #0F0F0F",
"  . + @ @ @ @ @ @ @ @ @ @ @ @ @ @ @ @ + .   ",
"  # $ $ $ $ $ $ $ $ $ $ $ $ $ $ $ $ $ $ $ % ",
"  & * * * * * * * * * * * * * * * * * * * = ",
"  - ; ; ; ; ; ; > > > > > > > > > > > ; > , ",
"  ' ) ! ~ { ] ^ / ( _ : < [ } | 1 2 3 4 5 6 ",
"  7 8 9 0 a b c d e f g h i j k l m 3 6 n o ",
"  p q r a s t u v w x y z A B C D E F o o o ",
"  G H I J K L M N O P Q R S T U V W X o o o ",
"  Y Z `  ...+.@.#.$.%.&.*.=.-.;.>.,.'.o o o ",
"  { ).!.~.{.].^./.+ (._.:.<.[.}.|.1.2.o o o ",
"  3.4.5.6.N 7.8.9.0.a.b.c.d.e.f.|.V g.o o o ",
"  h.i.j.k.P l.m.& n.o.p.q.m.r.s.|.t.u.o o o ",
"  v.w.x.y.z.A.B.C.D.E.F.G.H.I.J.>.K.L.o o o ",
"  : M.N.O.P.Q.R.S.T.U.V.W.X.Y.Z.`. +.+o o o ",
"  ++) @+#+$+%+&+*+=+-+;+e.= >+,+'+)+o o o o ",
"  !+{ h.~+{+]+^+/+(+_+9.$ :+<+[+}+o o o o o ",
"  | |+1+} 2+3+4++ /.5+5+6+# 7+8+9+o o o o o ",
"  2+0+a+2 b+9+c+d+6+5+5+5+_+).F o o o o o o ",
"  3 e+f+5 n o o ' g+5+5+* h+i+o o o o o o o ",
"  j+3 k+n o o o o l+q /+m+n o o o o o o o o ",
"  i+F o o o o o o o 9+n+o o o o o o o o o o ",
"  o o o o o o o o o o o o o o o o o o o o   "};
