/* XPM */
static char * priority_1_xpm[] = {
"44 16 118 2",
"  	c None",
". 	c #99533A",
"+ 	c #959638",
"@ 	c #A65B40",
"# 	c #A33E23",
"$ 	c #A0A13C",
"% 	c #A39F23",
"& 	c #AB452C",
"* 	c #B24327",
"= 	c #A65D42",
"- 	c #ABA52C",
"; 	c #B2AC27",
"> 	c #A0A13E",
", 	c #AD5844",
"' 	c #CA543F",
") 	c #B8472D",
"! 	c #A64229",
"~ 	c #ABA443",
"{ 	c #CABD3F",
"] 	c #B8B02D",
"^ 	c #A6A128",
"/ 	c #934D37",
"( 	c #A4432C",
"_ 	c #C0513E",
": 	c #E5685C",
"< 	c #F06F65",
"[ 	c #D85E4C",
"} 	c #BE4B33",
"| 	c #B34328",
"1 	c #AA3E20",
"2 	c #9C391C",
"3 	c #94381B",
"4 	c #9B5438",
"5 	c #919136",
"6 	c #A59F2C",
"7 	c #C0B33E",
"8 	c #E5D05C",
"9 	c #F0D965",
"0 	c #D8C74C",
"a 	c #BEB433",
"b 	c #B3AC28",
"c 	c #AAA520",
"d 	c #9C9A1C",
"e 	c #94941A",
"f 	c #949734",
"g 	c #99422C",
"h 	c #C6523D",
"i 	c #DE6252",
"j 	c #E26557",
"k 	c #D05945",
"l 	c #BA492F",
"m 	c #AB3E20",
"n 	c #A43819",
"o 	c #993B1D",
"p 	c #9A952C",
"q 	c #C6BA3D",
"r 	c #DECC52",
"s 	c #E2CF57",
"t 	c #D0C245",
"u 	c #BAB22F",
"v 	c #ABA720",
"w 	c #A4A119",
"x 	c #98981C",
"y 	c #9B432E",
"z 	c #C14E37",
"A 	c #C5503A",
"B 	c #BC4A31",
"C 	c #B44429",
"D 	c #AF4124",
"E 	c #A83C1D",
"F 	c #9D3F22",
"G 	c #9B962E",
"H 	c #C1B637",
"I 	c #C5B93A",
"J 	c #BCB331",
"K 	c #B4AD29",
"L 	c #AFAA24",
"M 	c #A8A51D",
"N 	c #9C9B21",
"O 	c #A2422A",
"P 	c #AA3D1F",
"Q 	c #A43919",
"R 	c #A39E2A",
"S 	c #AAA61F",
"T 	c #A4A219",
"U 	c #A13D22",
"V 	c #AC3E21",
"W 	c #AB3D20",
"X 	c #9F3614",
"Y 	c #A36245",
"Z 	c #A19D22",
"` 	c #ACA721",
" .	c #ABA620",
"..	c #9F9E14",
"+.	c #9BA040",
"@.	c #A33919",
"#.	c #9E462A",
"$.	c #9B472B",
"%.	c #9A3414",
"&.	c #99310E",
"*.	c #8C381C",
"=.	c #A3A119",
"-.	c #9C9B27",
";.	c #989828",
">.	c #9A9A14",
",.	c #98990E",
"'.	c #8B8C1C",
").	c #A26044",
"!.	c #994022",
"~.	c #964D34",
"{.	c #8E381B",
"].	c #9B5031",
"^.	c #9A9E3F",
"/.	c #979721",
"(.	c #929331",
"_.	c #8C8E19",
":.	c #919527",
"<.	c #AA7358",
"                                                                                        ",
"                                                                                        ",
"                              .                             +                           ",
"                            @ #                           $ %                           ",
"                            & * =                         - ; >                         ",
"                          , ' ) !                       ~ { ] ^                         ",
"                  / ( _ : < [ } | 1 2 3 4       5 6 7 8 9 0 a b c d e f                 ",
"                    g h i j k l * m n o           p q r s t u ; v w x                   ",
"                      y z A B C D E F               G H I J K L M N                     ",
"                        O C * D P Q                   R K ; L S T                       ",
"                        U V W E n X Y                 Z `  .M w ..+.                    ",
"                        @.@.#.$.%.&.*.                =.=.-.;.>.,.'.                    ",
"                      ).!.~.      {.].              ^./.(.      _.:.                    ",
"                                    <.                                                  ",
"                                                                                        ",
"                                                                                        "};
