/* XPM */
static char * priority_2_xpm[] = {
"44 16 177 2",
"  	c None",
". 	c #99533A",
"+ 	c #959638",
"@ 	c #3A995B",
"# 	c #A65B40",
"$ 	c #A33E23",
"% 	c #A0A13C",
"& 	c #A39F23",
"* 	c #40A664",
"= 	c #23A349",
"- 	c #AB452C",
"; 	c #B24327",
"> 	c #A65D42",
", 	c #ABA52C",
"' 	c #B2AC27",
") 	c #A0A13E",
"! 	c #2CAB50",
"~ 	c #27B24F",
"{ 	c #42A665",
"] 	c #AD5844",
"^ 	c #CA543F",
"/ 	c #B8472D",
"( 	c #A64229",
"_ 	c #ABA443",
": 	c #CABD3F",
"< 	c #B8B02D",
"[ 	c #A6A128",
"} 	c #44AD61",
"| 	c #3FCA60",
"1 	c #2DB853",
"2 	c #29A64D",
"3 	c #934D37",
"4 	c #A4432C",
"5 	c #C0513E",
"6 	c #E5685C",
"7 	c #F06F65",
"8 	c #D85E4C",
"9 	c #BE4B33",
"0 	c #B34328",
"a 	c #AA3E20",
"b 	c #9C391C",
"c 	c #94381B",
"d 	c #9B5438",
"e 	c #919136",
"f 	c #A59F2C",
"g 	c #C0B33E",
"h 	c #E5D05C",
"i 	c #F0D965",
"j 	c #D8C74C",
"k 	c #BEB433",
"l 	c #B3AC28",
"m 	c #AAA520",
"n 	c #9C9A1C",
"o 	c #94941A",
"p 	c #949734",
"q 	c #379356",
"r 	c #2CA44E",
"s 	c #3EC05C",
"t 	c #5CE574",
"u 	c #65F07B",
"v 	c #4CD86A",
"w 	c #33BE57",
"x 	c #28B34F",
"y 	c #20AA49",
"z 	c #1C9C44",
"A 	c #1B9443",
"B 	c #389B5C",
"C 	c #99422C",
"D 	c #C6523D",
"E 	c #DE6252",
"F 	c #E26557",
"G 	c #D05945",
"H 	c #BA492F",
"I 	c #AB3E20",
"J 	c #A43819",
"K 	c #993B1D",
"L 	c #9A952C",
"M 	c #C6BA3D",
"N 	c #DECC52",
"O 	c #E2CF57",
"P 	c #D0C245",
"Q 	c #BAB22F",
"R 	c #ABA720",
"S 	c #A4A119",
"T 	c #98981C",
"U 	c #2C994C",
"V 	c #3DC65E",
"W 	c #52DE6E",
"X 	c #57E271",
"Y 	c #45D065",
"Z 	c #2FBA55",
"` 	c #20AB4A",
" .	c #19A444",
"..	c #1D9946",
"+.	c #9B432E",
"@.	c #C14E37",
"#.	c #C5503A",
"$.	c #BC4A31",
"%.	c #B44429",
"&.	c #AF4124",
"*.	c #A83C1D",
"=.	c #9D3F22",
"-.	c #9B962E",
";.	c #C1B637",
">.	c #C5B93A",
",.	c #BCB331",
"'.	c #B4AD29",
").	c #AFAA24",
"!.	c #A8A51D",
"~.	c #9C9B21",
"{.	c #2E9B4D",
"].	c #37C15A",
"^.	c #3AC55C",
"/.	c #31BC56",
"(.	c #29B450",
"_.	c #24AF4D",
":.	c #1DA848",
"<.	c #229D4A",
"[.	c #A2422A",
"}.	c #AA3D1F",
"|.	c #A43919",
"1.	c #A39E2A",
"2.	c #AAA61F",
"3.	c #A4A219",
"4.	c #2AA24D",
"5.	c #1FAA49",
"6.	c #19A445",
"7.	c #A13D22",
"8.	c #AC3E21",
"9.	c #AB3D20",
"0.	c #9F3614",
"a.	c #A36245",
"b.	c #A19D22",
"c.	c #ACA721",
"d.	c #ABA620",
"e.	c #9F9E14",
"f.	c #9BA040",
"g.	c #22A148",
"h.	c #21AC4A",
"i.	c #20AB49",
"j.	c #149F42",
"k.	c #45A36A",
"l.	c #A33919",
"m.	c #9E462A",
"n.	c #9B472B",
"o.	c #9A3414",
"p.	c #99310E",
"q.	c #8C381C",
"r.	c #A3A119",
"s.	c #9C9B27",
"t.	c #989828",
"u.	c #9A9A14",
"v.	c #98990E",
"w.	c #8B8C1C",
"x.	c #19A345",
"y.	c #2A9E50",
"z.	c #2B9B50",
"A.	c #149A40",
"B.	c #0E993D",
"C.	c #1C8C42",
"D.	c #A26044",
"E.	c #994022",
"F.	c #964D34",
"G.	c #8E381B",
"H.	c #9B5031",
"I.	c #9A9E3F",
"J.	c #979721",
"K.	c #929331",
"L.	c #8C8E19",
"M.	c #919527",
"N.	c #44A268",
"O.	c #22994A",
"P.	c #349656",
"Q.	c #1B8E42",
"R.	c #309A58",
"S.	c #AA7358",
"T.	c #58AA7A",
"                                                                                        ",
"                                                                                        ",
"                .                           +                           @               ",
"              # $                         % &                         * =               ",
"              - ; >                       , ' )                       ! ~ {             ",
"            ] ^ / (                     _ : < [                     } | 1 2             ",
"    3 4 5 6 7 8 9 0 a b c d     e f g h i j k l m n o p     q r s t u v w x y z A B     ",
"      C D E F G H ; I J K         L M N O P Q ' R S T         U V W X Y Z ~ `  ...      ",
"        +.@.#.$.%.&.*.=.            -.;.>.,.'.).!.~.            {.].^./.(._.:.<.        ",
"          [.%.; &.}.|.                1.'.' ).2.3.                4.(.~ _.5.6.          ",
"          7.8.9.*.J 0.a.              b.c.d.!.S e.f.              g.h.i.:. .j.k.        ",
"          l.l.m.n.o.p.q.              r.r.s.t.u.v.w.              x.x.y.z.A.B.C.        ",
"        D.E.F.      G.H.            I.J.K.      L.M.            N.O.P.      Q.R.        ",
"                      S.                                                      T.        ",
"                                                                                        ",
"                                                                                        "};
