/* XPM */
static char * removedhost_xpm[] = {
"16 16 86 1",
" 	c None",
".	c #A1A1A1",
"+	c #A8A8A8",
"@	c #ACACAC",
"#	c #ADADAD",
"$	c #ABABAB",
"%	c #9F9F9F",
"&	c #C9C9C9",
"*	c #CECECE",
"=	c #D3D3D3",
"-	c #D5D5D5",
";	c #D0D0D0",
">	c #CACACA",
",	c #BFBFBF",
"'	c #6E6E6E",
")	c #CCCCCC",
"!	c #C3C3C3",
"~	c #B9B9B9",
"{	c #B0B0B0",
"]	c #AFAFAF",
"^	c #A2A2A2",
"/	c #878787",
"(	c #5E5E5E",
"_	c #9C9C9C",
":	c #BEBEBE",
"<	c #A4A4A4",
"[	c #999999",
"}	c #8C8C8C",
"|	c #8A8A8A",
"1	c #585858",
"2	c #717171",
"3	c #888888",
"4	c #B1B1B1",
"5	c #FFFFFF",
"6	c #D4D4D4",
"7	c #898989",
"8	c #F7F7F7",
"9	c #E7E7E7",
"0	c #848484",
"a	c #7E7E7E",
"b	c #575757",
"c	c #151515",
"d	c #656565",
"e	c #7A7A7A",
"f	c #CDCDCD",
"g	c #C7C7C7",
"h	c #EAEAEA",
"i	c #FAFAFA",
"j	c #9B9B9B",
"k	c #747474",
"l	c #6A6A6A",
"m	c #454545",
"n	c #131313",
"o	c #676767",
"p	c #555555",
"q	c #686868",
"r	c #BDBDBD",
"s	c #F6F6F6",
"t	c #858585",
"u	c #5D5D5D",
"v	c #505050",
"w	c #3E3E3E",
"x	c #5B5B5B",
"y	c #4C4C4C",
"z	c #616161",
"A	c #E5E5E5",
"B	c #F4F4F4",
"C	c #FCFCFC",
"D	c #3B3B3B",
"E	c #515151",
"F	c #525252",
"G	c #727272",
"H	c #ECECEC",
"I	c #F5F5F5",
"J	c #4A4A4A",
"K	c #4D4D4D",
"L	c #D2D2D2",
"M	c #797979",
"N	c #AEAEAE",
"O	c #4F4F4F",
"P	c #3A3A3A",
"Q	c #121212",
"R	c #343434",
"S	c #1A1A1A",
"T	c #353535",
"U	c #2F2F2F",
"                ",
"    .+@##$%     ",
"   $&*=-;>,'    ",
"  )!~@{]$^%%/   ",
" (~+_:<.[#.}|1  ",
" 2@34567_890abc ",
" d3e3f5ghijklmn ",
" (opqdr5st(uvwn ",
" bxyyzABC$yyyDn ",
" EFyGHI2+5~vyDn ",
" JKyoLMyy~NOyPQ ",
"  RyyOyyyyyywS  ",
"   TyyyyyyywS   ",
"    UDPPPPPS    ",
"     cnnnnQ     ",
"                "};
