/* XPM */
static char * server_c_xpm[] = {
"16 16 85 1",
" 	c None",
".	c #DEDEDE",
"+	c #D8E1D8",
"@	c #CAE1CC",
"#	c #BCE1C0",
"$	c #AADBAE",
"%	c #9BDAA0",
"&	c #89D690",
"*	c #80D588",
"=	c #97B39A",
"-	c #6E6E6E",
";	c #DAE1DA",
">	c #CFFFD3",
",	c #A7FFAF",
"'	c #7EFF8A",
")	c #55FF65",
"!	c #2CFF40",
"~	c #07FF1E",
"{	c #00FF18",
"]	c #66BB6E",
"^	c #676767",
"/	c #CFE0D0",
"(	c #B1FFB8",
"_	c #88FF93",
":	c #60FF6E",
"<	c #37FF49",
"[	c #0FFF25",
"}	c #C1DCC4",
"|	c #92FF9C",
"1	c #69FF77",
"2	c #41FF52",
"3	c #18FF2D",
"4	c #01FF19",
"5	c #B6DBB9",
"6	c #74FF80",
"7	c #4BFF5B",
"8	c #22FF36",
"9	c #03FF1B",
"0	c #A9D9AD",
"a	c #55FF64",
"b	c #08FF1F",
"c	c #62B76A",
"d	c #B3C5B5",
"e	c #8ACA90",
"f	c #7CC983",
"g	c #74C97C",
"h	c #72C77A",
"i	c #6FC477",
"j	c #6DC275",
"k	c #78947A",
"l	c #5A5A5A",
"m	c #B3B3B3",
"n	c #6A6A69",
"o	c #6F6F6E",
"p	c #858584",
"q	c #7D7D7B",
"r	c #6E6E6C",
"s	c #4E4E4C",
"t	c #494948",
"u	c #3F3F3F",
"v	c #1F1F1F",
"w	c #D2D2D2",
"x	c #DADADA",
"y	c #CECECE",
"z	c #C8C8C8",
"A	c #C2C2C2",
"B	c #BABABA",
"C	c #565656",
"D	c #DCDCDC",
"E	c #66F673",
"F	c #4DF75D",
"G	c #B7D8BA",
"H	c #C3C3C3",
"I	c #C1C1C1",
"J	c #555555",
"K	c #CBCBCB",
"L	c #3CCD4A",
"M	c #26D036",
"N	c #769679",
"O	c #999999",
"P	c #8E8E8E",
"Q	c #939393",
"R	c #434343",
"S	c #393939",
"T	c #383838",
"                ",
"                ",
"   .+@#$%&*=-   ",
"   ;>,')!~{]^   ",
"   /(_:<[{{]^   ",
"   }|1234{{]^   ",
"   56789{{{]^   ",
"   0a!b{{{{c^   ",
"   defgghijkl   ",
"   mnopqrstuv   ",
"   w..xyzABC    ",
"   DEFGyHIBJ    ",
"   KLMNOPPQJ    ",
"    RSSSSSST    ",
"                ",
"                "};
