/* XPM */
static char * server_nc_xpm[] = {
"16 16 88 1",
" 	c None",
".	c #AEB3AF",
"+	c #A69299",
"@	c #9F8A92",
"#	c #99828A",
"$	c #947786",
"%	c #8B6F7C",
"&	c #8A6A7C",
"*	c #826172",
"=	c #8C9488",
"-	c #6D6D6D",
";	c #A7949B",
">	c #FFCFD4",
",	c #FFA7B1",
"'	c #FF7E8D",
")	c #FF5569",
"!	c #FF2C44",
"~	c #FF0724",
"{	c #FF001E",
"]	c #7D6268",
"^	c #676767",
"/	c #A28D94",
"(	c #FFB1BA",
"_	c #FF8896",
":	c #FF6072",
"<	c #FF374E",
"[	c #FF0F2B",
"}	c #7F636C",
"|	c #9C868E",
"1	c #FF929E",
"2	c #FF697A",
"3	c #FF4157",
"4	c #FF1833",
"5	c #FF011E",
"6	c #81636D",
"7	c #977F88",
"8	c #FF7484",
"9	c #FF4B60",
"0	c #FF223C",
"a	c #FF0320",
"b	c #81636E",
"c	c #907882",
"d	c #FF0825",
"e	c #80626E",
"f	c #9CA59A",
"g	c #937583",
"h	c #816170",
"i	c #7B586D",
"j	c #7D5B6C",
"k	c #82646F",
"l	c #836670",
"m	c #836571",
"n	c #7D7E7D",
"o	c #5A5A5A",
"p	c #979797",
"q	c #767676",
"r	c #767675",
"s	c #858584",
"t	c #7D7D7B",
"u	c #6E6E6C",
"v	c #555553",
"w	c #50504F",
"x	c #454545",
"y	c #CFCFCF",
"z	c #DEDEDE",
"A	c #DADADA",
"B	c #CECECE",
"C	c #C8C8C8",
"D	c #C2C2C2",
"E	c #BABABA",
"F	c #565656",
"G	c #D8D8D8",
"H	c #DE2F2E",
"I	c #EA1B24",
"J	c #C2A497",
"K	c #C3C3C3",
"L	c #C1C1C1",
"M	c #555555",
"N	c #D72A26",
"O	c #E61821",
"P	c #937568",
"Q	c #999999",
"R	c #8E8E8E",
"S	c #939393",
"T	c #727272",
"U	c #474747",
"V	c #404040",
"W	c #3F3F3F",
"                ",
"                ",
"   .+@#$%&*=-   ",
"   ;>,')!~{]^   ",
"   /(_:<[{{}^   ",
"   |12345{{6^   ",
"   7890a{{{b^   ",
"   c)!d{{{{e^   ",
"   fghijklmno   ",
"   pqrstuvwx    ",
"   yzzABCDEF    ",
"   GHIJBKLEM    ",
"   CNOPQRRSM    ",
"   TUVVVVVVW    ",
"                ",
"                "};
