/* XPM */
static char * reactor_search_xpm[] = {
"39 24 336 2",
"  	c None",
". 	c #000000",
"+ 	c #D0D0D0",
"@ 	c #C5C5C5",
"# 	c #BABABA",
"$ 	c #ADADAD",
"% 	c #A3A3A3",
"& 	c #979797",
"* 	c #8B8B8B",
"= 	c #808080",
"- 	c #747474",
"; 	c #686868",
"> 	c #5D5D5D",
", 	c #515151",
"' 	c #464646",
") 	c #3A3A3A",
"! 	c #2F2F2F",
"~ 	c #232323",
"{ 	c #171717",
"] 	c #0B0B0B",
"^ 	c #B9B9B9",
"/ 	c #A2A2A2",
"( 	c #7F7F7F",
"_ 	c #2E2E2E",
": 	c #222622",
"< 	c #153314",
"[ 	c #0B4908",
"} 	c #035400",
"| 	c #077F00",
"1 	c #0B9304",
"2 	c #0D8707",
"3 	c #087D03",
"4 	c #035200",
"5 	c #002A00",
"6 	c #001000",
"7 	c #000100",
"8 	c #AEAEAE",
"9 	c #696969",
"0 	c #202720",
"a 	c #153E12",
"b 	c #0F8505",
"c 	c #0EB803",
"d 	c #10B706",
"e 	c #0E9806",
"f 	c #076202",
"g 	c #054D00",
"h 	c #045700",
"i 	c #045C00",
"j 	c #056000",
"k 	c #024600",
"l 	c #001700",
"m 	c #000300",
"n 	c #8C8C8C",
"o 	c #454545",
"p 	c #2E312E",
"q 	c #20411E",
"r 	c #186E10",
"s 	c #189807",
"t 	c #18C905",
"u 	c #17CD08",
"v 	c #1ABB0F",
"w 	c #179C0E",
"x 	c #0B7503",
"y 	c #034500",
"z 	c #001F00",
"A 	c #002800",
"B 	c #035600",
"C 	c #057500",
"D 	c #046300",
"E 	c #044600",
"F 	c #223920",
"G 	c #1D8812",
"H 	c #24C80E",
"I 	c #21B60A",
"J 	c #169B07",
"K 	c #13AA07",
"L 	c #18C90C",
"M 	c #1CD30C",
"N 	c #17D306",
"O 	c #0A7B00",
"P 	c #001300",
"Q 	c #000700",
"R 	c #013900",
"S 	c #068302",
"T 	c #08A601",
"U 	c #089801",
"V 	c #013500",
"W 	c #000400",
"X 	c #393939",
"Y 	c #222722",
"Z 	c #1B5514",
"` 	c #2BBC12",
" .	c #2FB311",
"..	c #155706",
"+.	c #063101",
"@.	c #097903",
"#.	c #15D807",
"$.	c #21ED0A",
"%.	c #24EC0A",
"&.	c #179604",
"*.	c #042200",
"=.	c #002400",
"-.	c #067B00",
";.	c #09BB00",
">.	c #0AC800",
",.	c #078800",
"'.	c #042F02",
").	c #173015",
"!.	c #22930E",
"~.	c #3FCA19",
"{.	c #297410",
"].	c #051301",
"^.	c #000500",
"/.	c #024300",
"(.	c #10B604",
"_.	c #23EF0B",
":.	c #30F110",
"<.	c #2CC30E",
"[.	c #115004",
"}.	c #000C00",
"|.	c #045E00",
"1.	c #0AC100",
"2.	c #0DE400",
"3.	c #10D704",
"4.	c #14800D",
"5.	c #525252",
"6.	c #14530C",
"7.	c #35BC14",
"8.	c #44A91C",
"9.	c #173809",
"0.	c #001600",
"a.	c #0A8301",
"b.	c #1EE90A",
"c.	c #2CEA10",
"d.	c #2BC911",
"e.	c #146107",
"f.	c #020D00",
"g.	c #000600",
"h.	c #045400",
"i.	c #0BC900",
"j.	c #0FEF01",
"k.	c #15EB06",
"l.	c #1DA712",
"m.	c #5C5C5C",
"n.	c #181818",
"o.	c #0C0C0C",
"p.	c #1B950A",
"q.	c #4AD51E",
"r.	c #397E17",
"s.	c #071102",
"t.	c #000E00",
"u.	c #087601",
"v.	c #19E408",
"w.	c #23DF0E",
"x.	c #21C40F",
"y.	c #15840A",
"z.	c #0D3E07",
"A.	c #071E04",
"B.	c #065C00",
"C.	c #0BCA00",
"D.	c #0FF101",
"E.	c #1AED07",
"F.	c #21AB12",
"G.	c #21A90C",
"H.	c #4ED521",
"I.	c #307014",
"J.	c #040A01",
"K.	c #000D00",
"L.	c #077502",
"M.	c #20E40E",
"N.	c #41E821",
"O.	c #41E120",
"P.	c #27CF10",
"Q.	c #23A612",
"R.	c #277618",
"S.	c #1B870D",
"T.	c #0FC803",
"U.	c #12E803",
"V.	c #26EB0E",
"W.	c #2DAB18",
"X.	c #26A911",
"Y.	c #48D120",
"Z.	c #266912",
"`.	c #020901",
" +	c #022501",
".+	c #33E81B",
"++	c #70F23D",
"@+	c #76F23F",
"#+	c #44E51F",
"$+	c #3CD41C",
"%+	c #63CC39",
"&+	c #58CE32",
"*+	c #29DA12",
"=+	c #1FE80B",
"-+	c #3DEB1A",
";+	c #3EA924",
">+	c #2AA417",
",+	c #42CE20",
"'+	c #216612",
")+	c #023300",
"!+	c #0F8809",
"~+	c #24C117",
"{+	c #38D120",
"]+	c #51BD2B",
"^+	c #5BD531",
"/+	c #44DC23",
"(+	c #50D82B",
"_+	c #88E74F",
":+	c #7FEB48",
"<+	c #45E921",
"[+	c #37ED15",
"}+	c #50DD23",
"|+	c #367C1E",
"1+	c #1C700F",
"2+	c #33BB18",
"3+	c #1A660D",
"4+	c #010B00",
"5+	c #001800",
"6+	c #077802",
"7+	c #20DE10",
"8+	c #43E926",
"9+	c #3EB123",
"0+	c #1D690F",
"a+	c #186C0B",
"b+	c #1B7B0E",
"c+	c #339C1E",
"d+	c #54D82F",
"e+	c #4CEB28",
"f+	c #37EA17",
"g+	c #4AEA1D",
"h+	c #53B825",
"i+	c #18330B",
"j+	c #222222",
"k+	c #082D03",
"l+	c #23A40F",
"m+	c #17810A",
"n+	c #083C04",
"o+	c #086803",
"p+	c #17C109",
"q+	c #42EF20",
"r+	c #6CEE39",
"s+	c #55C12E",
"t+	c #195F0C",
"u+	c #001A00",
"v+	c #011400",
"w+	c #0A5304",
"x+	c #18C408",
"y+	c #1BF007",
"z+	c #29EE0D",
"A+	c #4BD820",
"B+	c #387319",
"C+	c #081003",
"D+	c #041A02",
"E+	c #1D9310",
"F+	c #1AA60D",
"G+	c #17870F",
"H+	c #1FAE13",
"I+	c #39E31D",
"J+	c #6BF337",
"K+	c #89F248",
"L+	c #5DB930",
"M+	c #184B0B",
"N+	c #001500",
"O+	c #003000",
"P+	c #047600",
"Q+	c #0CCE00",
"R+	c #17F103",
"S+	c #2EEB10",
"T+	c #3DAF1D",
"U+	c #14310A",
"V+	c #010300",
"W+	c #000A00",
"X+	c #0E4F08",
"Y+	c #128E09",
"Z+	c #14910D",
"`+	c #1F9A14",
" @	c #38BC1E",
".@	c #5CDC2F",
"+@	c #66D934",
"@@	c #40971F",
"#@	c #0F4706",
"$@	c #024900",
"%@	c #058400",
"&@	c #09B900",
"*@	c #0EDD00",
"=@	c #19E705",
"-@	c #24BE0D",
";@	c #1D5F0E",
">@	c #050E03",
",@	c #020F01",
"'@	c #064302",
")@	c #0B7305",
"!@	c #0F7C08",
"~@	c #16830B",
"{@	c #229911",
"]@	c #249513",
"^@	c #156A0A",
"/@	c #075702",
"(@	c #057400",
"_@	c #08A100",
":@	c #0AC600",
"<@	c #0ED902",
"[@	c #12B705",
"}@	c #0D5D05",
"|@	c #031401",
"1@	c #010C00",
"2@	c #063803",
"3@	c #0A6806",
"4@	c #087203",
"5@	c #076B03",
"6@	c #076203",
"7@	c #065703",
"8@	c #056502",
"9@	c #078A02",
"0@	c #09AE01",
"a@	c #0AB300",
"b@	c #0A9B02",
"c@	c #065402",
"d@	c #011100",
"e@	c #010A00",
"f@	c #032E00",
"g@	c #044C00",
"h@	c #044D00",
"i@	c #075E03",
"j@	c #0A7606",
"k@	c #0B8B06",
"l@	c #0A8E04",
"m@	c #077F01",
"n@	c #034F00",
"o@	c #002000",
"p@	c #000900",
"q@	c #062A04",
"r@	c #0C4B0A",
"s@	c #0C5809",
"t@	c #074005",
"u@	c #011800",
". . . . . . . . . . . . . . . . . . . . . . . . . . . . . . . . . . . . . . . ",
". . . . . . . . . . . . . . . . . . . . . . . . . . . . . . . . . . . . . . . ",
". . + @ # $ % & * = - ; > , ' ) ! ~ { ] . . . . . . . . . . . . . . . . . . . ",
". . @ ^ $ / & * ( - ; > , ' ) _ : < [ } | 1 2 3 4 5 6 7 . . . . . . . . . . . ",
". . # 8 / & * = - 9 > , ' ) ! 0 a b c d e f g h i j k l m . . . . . . . . . . ",
". . 8 / & n = - ; > , o ) p q r s t u v w x y z A B C D E 6 . . . . . . . . . ",
". . / & * = - 9 > , ' ) ! F G H I J K L M N O P Q R S T U V W . . . . . . . . ",
". . & * ( - 9 > , o X _ Y Z `  ...+.@.#.$.%.&.*.7 =.-.;.>.,.'.. . . . . . . . ",
". . * = - 9 > , o ) _ ~ ).!.~.{.].^./.(._.:.<.[.Q }.|.1.2.3.4.. . . . . . . . ",
". . ( - ; > 5.' ) ! ~ { 6.7.8.9.W . 0.a.b.c.d.e.f.g.h.i.j.k.l.. . . . . . . . ",
". . - 9 m.5.' ) _ ~ n.o.p.q.r.s.. . t.u.v.w.x.y.z.A.B.C.D.E.F.. . . . . . . . ",
". . 9 m., ' ) _ ~ n.o.. G.H.I.J.. . K.L.M.N.O.P.Q.R.S.T.U.V.W.. . . . . . . . ",
". . m., o ) _ ~ { ] . . X.Y.Z.`.. g. +2 .+++@+#+$+%+&+*+=+-+;+. . . . . . . . ",
". . , ' ) ! ~ n.] . . . >+,+'+`.W )+!+~+{+]+^+/+(+_+:+<+[+}+|+. . . . . . . . ",
". . ' ) _ ~ { o.. . . . 1+2+3+4+5+6+7+8+9+0+a+b+c+d+e+f+g+h+i+. . . . . . . . ",
". . ) _ j+{ ] . . . . . k+l+m+n+o+p+q+r+s+t+u+v+w+x+y+z+A+B+C+. . . . . . . . ",
". . _ ~ { ] . . . . . . D+E+F+G+H+I+J+K+L+M+N+O+P+Q+R+S+T+U+V+. . . . . . . . ",
". . ~ { ] . . . . . . . W+X+Y+Z+`+ @.@+@@@#@$@%@&@*@=@-@;@>@. . . . . . . . . ",
". . { o.. . . . . . . . . ,@'@)@!@~@{@]@^@/@(@_@:@<@[@}@|@7 . . . . . . . . . ",
". . o.. . . . . . . . . . . 1@2@3@4@5@6@7@8@9@0@a@b@c@d@. . . . . . . . . . . ",
". . . . . . . . . . . . . . . e@f@g@h@i@j@k@l@m@n@o@p@. . . . . . . . . . . . ",
". . . . . . . . . . . . . . . . W p@t.q@r@s@t@u@g.7 . . . . . . . . . . . . . ",
". . . . . . . . . . . . . . . . . . . . . . . . . . . . . . . . . . . . . . . ",
". . . . . . . . . . . . . . . . . . . . . . . . . . . . . . . . . . . . . . . "};
