/* XPM */
static char * slsk_xpm[] = {
"16 16 176 2",
"  	c None",
". 	c #F8F8F8",
"+ 	c #F0F0F0",
"@ 	c #E8E8E8",
"# 	c #E0E0E0",
"$ 	c #D8D8D8",
"% 	c #D0D0D0",
"& 	c #C8C8C8",
"* 	c #C0C0C0",
"= 	c #B8B8B8",
"- 	c #B0B0B0",
"; 	c #A8A8A8",
"> 	c #A0A0A0",
", 	c #989898",
"' 	c #909090",
") 	c #888888",
"! 	c #808080",
"~ 	c #00C1FF",
"{ 	c #00C9FF",
"] 	c #00D2FF",
"^ 	c #00DBFF",
"/ 	c #00E4FF",
"( 	c #00E7FF",
"_ 	c #00DFFF",
": 	c #00D6FF",
"< 	c #00CDFF",
"[ 	c #00C5FF",
"} 	c #00BCFF",
"| 	c #00B3FF",
"1 	c #00AAFF",
"2 	c #00A1FF",
"3 	c #787878",
"4 	c #00DAFF",
"5 	c #00E3FF",
"6 	c #00DEFE",
"7 	c #00D4FC",
"8 	c #00CEFF",
"9 	c #00ABFF",
"0 	c #00A2FF",
"a 	c #0099FF",
"b 	c #707070",
"c 	c #00D1FF",
"d 	c #00E0FF",
"e 	c #009AB7",
"f 	c #003846",
"g 	c #00A1D1",
"h 	c #00BDFF",
"i 	c #00B4FF",
"j 	c #009AFF",
"k 	c #0091FF",
"l 	c #686868",
"m 	c #00E2FF",
"n 	c #00D8FF",
"o 	c #21798E",
"p 	c #000000",
"q 	c #0B3848",
"r 	c #00B2FD",
"s 	c #00ACFF",
"t 	c #00A3FF",
"u 	c #0089FF",
"v 	c #606060",
"w 	c #00BBCF",
"x 	c #00D4F1",
"y 	c #00CFFF",
"z 	c #5FC9E9",
"A 	c #0A0A0A",
"B 	c #0F1417",
"C 	c #006495",
"D 	c #009BFF",
"E 	c #007BD8",
"F 	c #0059A7",
"G 	c #0080FF",
"H 	c #585858",
"I 	c #21AABD",
"J 	c #012B33",
"K 	c #00819F",
"L 	c #0098C3",
"M 	c #0EC0FE",
"N 	c #4B4E50",
"O 	c #4B5256",
"P 	c #3B7A9E",
"Q 	c #0075C2",
"R 	c #003862",
"S 	c #01070D",
"T 	c #3A78B4",
"U 	c #0078FF",
"V 	c #505050",
"W 	c #3EE2FF",
"X 	c #334043",
"Y 	c #001D2A",
"Z 	c #0A0D0F",
"` 	c #060E14",
" .	c #020405",
"..	c #AAB0B6",
"+.	c #459DFF",
"@.	c #0070FF",
"#.	c #484848",
"$.	c #00D9FF",
"%.	c #ADE6F7",
"&.	c #3F3F3F",
"*.	c #030304",
"=.	c #373737",
"-.	c #C0C3C7",
";.	c #429BFF",
">.	c #0068FF",
",.	c #40403F",
"'.	c #00C8FF",
").	c #05C1FF",
"!.	c #B7EAFF",
"~.	c #AFB1B3",
"{.	c #656565",
"].	c #777777",
"^.	c #AECAE6",
"/.	c #3294FF",
"(.	c #0071FF",
"_.	c #005FFF",
":.	c #00C0FF",
"<.	c #00B7FF",
"[.	c #00AFFF",
"}.	c #45BEFF",
"|.	c #6FA1C1",
"1.	c #808081",
"2.	c #80C1FF",
"3.	c #1584FF",
"4.	c #0069FF",
"5.	c #0060FF",
"6.	c #0057FF",
"7.	c #2F2F2F",
"8.	c #00B8FF",
"9.	c #00A2FA",
"0.	c #005C95",
"a.	c #071825",
"b.	c #74B9FD",
"c.	c #007BFF",
"d.	c #0072FF",
"e.	c #0058FF",
"f.	c #004FFF",
"g.	c #272727",
"h.	c #00B0FF",
"i.	c #00A7FF",
"j.	c #0394EE",
"k.	c #4383B2",
"l.	c #778591",
"m.	c #50AAFF",
"n.	c #017BFF",
"o.	c #006AFF",
"p.	c #0061FF",
"q.	c #0046FF",
"r.	c #1F1F1F",
"s.	c #009FFF",
"t.	c #0F9CFF",
"u.	c #47ACFF",
"v.	c #64B4FF",
"w.	c #007CFF",
"x.	c #0073FF",
"y.	c #0050FF",
"z.	c #0047FF",
"A.	c #003EFF",
"B.	c #171717",
"C.	c #00A8FF",
"D.	c #0096FF",
"E.	c #008EFF",
"F.	c #0085FF",
"G.	c #006BFF",
"H.	c #0062FF",
"I.	c #0059FF",
"J.	c #003FFF",
"K.	c #0036FF",
"L.	c #0F0F0F",
"M.	c #6F6F6F",
"N.	c #676767",
"O.	c #5F5F5F",
"P.	c #575757",
"Q.	c #4F4F4F",
"R.	c #474747",
"S.	c #070707",
". + @ # $ % & * = - ; > , ' ) ! ",
"+ ~ { ] ^ / ( _ : < [ } | 1 2 3 ",
"@ { ] 4 5 ( 6 7 8 [ } | 9 0 a b ",
"# c 4 5 ( d e f g h i 9 0 j k l ",
"$ 4 m ( d n o p q r s t j k u v ",
"% m w x n y z A B C t D E F G H ",
"& ( I J K L M N O P Q R S T U V ",
"* m W X p p Y Z p ` p  ...+.@.#.",
"= $.c %.&.*.p p p p =.-.;.@.>.,.",
"- c '.).!.~.{.p p ].^./.(.>._.=.",
"; { :.<.[.}.|.p 1.2.3.(.4.5.6.7.",
"> ~ 8.[.9.0.a.; b.c.d.4.5.e.f.g.",
", 8.h.i.j.k.l.m.n.d.o.p.e.f.q.r.",
"' h.i.s.t.u.v.w.x.o.p.e.y.z.A.B.",
") C.s.D.E.F.w.x.G.H.I.y.z.J.K.L.",
"! ].M.N.O.P.Q.R.&.=.7.g.r.B.L.S."};
