/* XPM */
static char * stop_search_xpm[] = {
"32 32 564 2",
"  	c None",
". 	c #000000",
"+ 	c #DFDFDF",
"@ 	c #D8D8D8",
"# 	c #D1D1D1",
"$ 	c #CACACA",
"% 	c #C3C3C3",
"& 	c #BCBCBC",
"* 	c #B5B5B5",
"= 	c #AEAEAE",
"- 	c #A7A7A7",
"; 	c #A0A0A0",
"> 	c #999999",
", 	c #939393",
"' 	c #8B8B8B",
") 	c #848484",
"! 	c #7D7D7D",
"~ 	c #777777",
"{ 	c #707070",
"] 	c #686868",
"^ 	c #616161",
"/ 	c #5B5B5B",
"( 	c #535353",
"_ 	c #4C4C4C",
": 	c #454545",
"< 	c #3F3F3F",
"[ 	c #383838",
"} 	c #313131",
"| 	c #2A2A2A",
"1 	c #232323",
"2 	c #D6D6D6",
"3 	c #CFCFCF",
"4 	c #C9C9C9",
"5 	c #C2C2C2",
"6 	c #BBBBBB",
"7 	c #B4B4B4",
"8 	c #ACACAC",
"9 	c #A6A6A6",
"0 	c #9F9F9F",
"a 	c #979797",
"b 	c #919191",
"c 	c #8A8A8A",
"d 	c #838383",
"e 	c #7C7C7C",
"f 	c #757575",
"g 	c #6F6F6F",
"h 	c #676767",
"i 	c #606060",
"j 	c #595959",
"k 	c #525252",
"l 	c #4B4B4B",
"m 	c #444444",
"n 	c #3D3D3D",
"o 	c #363636",
"p 	c #303030",
"q 	c #292929",
"r 	c #212121",
"s 	c #1B1B1B",
"t 	c #C7C7C7",
"u 	c #C0C0C0",
"v 	c #B9B9B9",
"w 	c #B3B3B3",
"x 	c #ABABAB",
"y 	c #A5A5A5",
"z 	c #9D9B9B",
"A 	c #A76262",
"B 	c #B23131",
"C 	c #B02828",
"D 	c #AF2828",
"E 	c #B12828",
"F 	c #AE2727",
"G 	c #AD2626",
"H 	c #AC2525",
"I 	c #AC2323",
"J 	c #A22525",
"K 	c #703131",
"L 	c #434242",
"M 	c #3C3C3C",
"N 	c #353535",
"O 	c #2E2E2E",
"P 	c #272727",
"Q 	c #202020",
"R 	c #191919",
"S 	c #121212",
"T 	c #C6C6C6",
"U 	c #BFBFBF",
"V 	c #B8B8B8",
"W 	c #B1B1B1",
"X 	c #AAAAAA",
"Y 	c #A3A3A3",
"Z 	c #9C9898",
"` 	c #AD6161",
" .	c #DA4646",
"..	c #F36565",
"+.	c #F57575",
"@.	c #F57A7A",
"#.	c #F57D7D",
"$.	c #F57E7E",
"%.	c #F47F7F",
"&.	c #F57C7C",
"*.	c #F57777",
"=.	c #F06767",
"-.	c #C43B3B",
";.	c #6B2727",
">.	c #353232",
",.	c #2D2D2D",
"'.	c #262626",
").	c #1F1F1F",
"!.	c #171717",
"~.	c #111111",
"{.	c #090909",
"].	c #BDBDBD",
"^.	c #B7B7B7",
"/.	c #B0B0B0",
"(.	c #A9A9A9",
"_.	c #A1A1A1",
":.	c #9B9898",
"<.	c #AB6262",
"[.	c #D93E3E",
"}.	c #F86363",
"|.	c #FC7B7B",
"1.	c #FC8282",
"2.	c #FC8888",
"3.	c #F98D8D",
"4.	c #F2A2A2",
"5.	c #F5AFAF",
"6.	c #F89494",
"7.	c #FC8989",
"8.	c #FC8585",
"9.	c #FC7F7F",
"0.	c #F56565",
"a.	c #C23232",
"b.	c #601E1E",
"c.	c #262323",
"d.	c #1E1E1E",
"e.	c #161616",
"f.	c #101010",
"g.	c #080808",
"h.	c #010101",
"i.	c #A8A8A8",
"j.	c #9A9797",
"k.	c #A76666",
"l.	c #D63434",
"m.	c #F75454",
"n.	c #FD6B6B",
"o.	c #FD7070",
"p.	c #FB7979",
"q.	c #F98787",
"r.	c #EF8A8A",
"s.	c #E7C0C0",
"t.	c #F2DDDD",
"u.	c #EC9C9C",
"v.	c #F78888",
"w.	c #FA8080",
"x.	c #FD7474",
"y.	c #FC6E6E",
"z.	c #F55858",
"A.	c #BF2828",
"B.	c #521616",
"C.	c #161414",
"D.	c #0E0E0E",
"E.	c #070707",
"F.	c #ADADAD",
"G.	c #989595",
"H.	c #A76060",
"I.	c #D62D2D",
"J.	c #F74343",
"K.	c #FD5959",
"L.	c #FD6060",
"M.	c #FA6767",
"N.	c #ED8686",
"O.	c #EFC0C0",
"P.	c #E3B0B0",
"Q.	c #E1CDCD",
"R.	c #F0E5E5",
"S.	c #DCAFAF",
"T.	c #EEC4C4",
"U.	c #F2A5A5",
"V.	c #F96F6F",
"W.	c #FD6464",
"X.	c #FC5E5E",
"Y.	c #F54A4A",
"Z.	c #BC2020",
"`.	c #4C0B0B",
" +	c #070404",
".+	c #A4A4A4",
"++	c #9E9E9E",
"@+	c #959494",
"#+	c #A75D5D",
"$+	c #D72929",
"%+	c #F73434",
"&+	c #FD4747",
"*+	c #FD4F4F",
"=+	c #FD5757",
"-+	c #F55D5D",
";+	c #DF8F8F",
">+	c #E9E3E3",
",+	c #DBC6C6",
"'+	c #DBCDCD",
")+	c #EDE4E4",
"!+	c #D3B9B9",
"~+	c #EDE9E9",
"{+	c #EAB8B8",
"]+	c #F36868",
"^+	c #FE5B5B",
"/+	c #FD5454",
"(+	c #FC4D4D",
"_+	c #F63E3E",
":+	c #BA1B1B",
"<+	c #450202",
"[+	c #9C9C9C",
"}+	c #959595",
"|+	c #A45C5C",
"1+	c #D52424",
"2+	c #F72525",
"3+	c #FD3535",
"4+	c #FE3D3D",
"5+	c #FD4545",
"6+	c #FA5151",
"7+	c #F35F5F",
"8+	c #DD8C8C",
"9+	c #D9C4C4",
"0+	c #DACBCB",
"a+	c #ECE3E3",
"b+	c #D1B9B9",
"c+	c #E9B4B4",
"d+	c #F25E5E",
"e+	c #FE5151",
"f+	c #FE4C4C",
"g+	c #FD4444",
"h+	c #FC3D3D",
"i+	c #F53131",
"j+	c #B71717",
"k+	c #410101",
"l+	c #8D8D8D",
"m+	c #CA2020",
"n+	c #F61818",
"o+	c #FD2525",
"p+	c #FD2D2D",
"q+	c #FE3535",
"r+	c #FA3D3D",
"s+	c #EA7C7C",
"t+	c #EBABAB",
"u+	c #D8A4A4",
"v+	c #E9E0E0",
"w+	c #D9C3C3",
"x+	c #DACACA",
"y+	c #D1B8B8",
"z+	c #E9B1B1",
"A+	c #F25555",
"B+	c #FE4747",
"C+	c #FE4242",
"D+	c #FE3C3C",
"E+	c #FD3434",
"F+	c #FC2D2D",
"G+	c #F22525",
"H+	c #9C0A0A",
"I+	c #D41414",
"J+	c #FA1717",
"K+	c #FD1D1D",
"L+	c #FD2C2C",
"M+	c #F33838",
"N+	c #DC9B9B",
"O+	c #E7D8D8",
"P+	c #CDB9B9",
"Q+	c #E7DFDF",
"R+	c #EDE3E3",
"S+	c #D2B8B8",
"T+	c #E9AEAE",
"U+	c #F24C4C",
"V+	c #FE3E3E",
"W+	c #FE3939",
"X+	c #FE3333",
"Y+	c #FE2D2D",
"Z+	c #FC2626",
"`+	c #F82020",
" @	c #B00909",
".@	c #D21111",
"+@	c #FA1010",
"@@	c #FC1717",
"#@	c #F13030",
"$@	c #D99D9D",
"%@	c #E5DADA",
"&@	c #C9B9B9",
"*@	c #E6DFDF",
"=@	c #D6C2C2",
"-@	c #D8C9C9",
";@	c #D3B8B8",
">@	c #EEE9E9",
",@	c #E9AAAA",
"'@	c #F24343",
")@	c #FD2E2E",
"!@	c #FD2929",
"~@	c #FE2525",
"{@	c #FC1F1F",
"]@	c #F81B1B",
"^@	c #B00707",
"/@	c #7B7B7B",
"(@	c #747474",
"_@	c #CF0F0F",
":@	c #F90A0A",
"<@	c #FC0F0F",
"[@	c #FD1515",
"}@	c #FD1C1C",
"|@	c #F12828",
"1@	c #D89999",
"2@	c #E7D9D9",
"3@	c #D6C4C4",
"4@	c #D8CACA",
"5@	c #ECE2E2",
"6@	c #D2B9B9",
"7@	c #EDE8E8",
"8@	c #E9A7A7",
"9@	c #F13939",
"0@	c #F93131",
"a@	c #F84141",
"b@	c #F93838",
"c@	c #FC1818",
"d@	c #F71515",
"e@	c #B10505",
"f@	c #727272",
"g@	c #6B6B6B",
"h@	c #CC0C0C",
"i@	c #F60606",
"j@	c #FC0E0E",
"k@	c #FD1414",
"l@	c #F12020",
"m@	c #D79595",
"n@	c #E8D8D8",
"o@	c #D0B6B6",
"p@	c #E9DFDF",
"q@	c #EADEDE",
"r@	c #EBE0E0",
"s@	c #F5EEEE",
"t@	c #E7D7D7",
"u@	c #F3EDED",
"v@	c #E8A2A2",
"w@	c #EC4040",
"x@	c #F07575",
"y@	c #F3B8B8",
"z@	c #E98A8A",
"A@	c #F32626",
"B@	c #FC1111",
"C@	c #F71010",
"D@	c #B10303",
"E@	c #6A6A6A",
"F@	c #636363",
"G@	c #C90B0B",
"H@	c #F20202",
"I@	c #F50606",
"J@	c #F90909",
"K@	c #F11919",
"L@	c #D69292",
"M@	c #EADBDB",
"N@	c #D8C1C1",
"O@	c #EDDFDF",
"P@	c #FAF0F0",
"Q@	c #FAEEEE",
"R@	c #FCEFEF",
"S@	c #FAEDED",
"T@	c #F8F0F0",
"U@	c #E59F9F",
"V@	c #E27474",
"W@	c #EFCFCF",
"X@	c #EBDEDE",
"Y@	c #D97474",
"Z@	c #F11818",
"`@	c #FB0E0E",
" #	c #F60C0C",
".#	c #B20202",
"+#	c #626262",
"@#	c #5A5A5A",
"##	c #C40A0A",
"$#	c #ED0000",
"%#	c #F10202",
"&#	c #F40505",
"*#	c #F80909",
"=#	c #EE1313",
"-#	c #D48C8C",
";#	c #F2E4E4",
">#	c #F1E0E0",
",#	c #F6E5E5",
"'#	c #F9E8E8",
")#	c #F8EAEA",
"!#	c #E2B6B6",
"~#	c #E0B2B2",
"{#	c #DEB1B1",
"]#	c #E03232",
"^#	c #F80B0B",
"/#	c #F70A0A",
"(#	c #F60808",
"_#	c #B20101",
":#	c #C20909",
"<#	c #EA0000",
"[#	c #F00202",
"}#	c #F30505",
"|#	c #EB1111",
"1#	c #D18A8A",
"2#	c #F0E1E1",
"3#	c #F3E2E2",
"4#	c #F4E3E3",
"5#	c #F5E4E4",
"6#	c #F4E4E4",
"7#	c #EEDBDB",
"8#	c #EDDBDB",
"9#	c #EEDEDE",
"0#	c #D78585",
"a#	c #EC1414",
"b#	c #F70808",
"c#	c #F30606",
"d#	c #B20000",
"e#	c #515151",
"f#	c #4A4A4A",
"g#	c #BF0808",
"h#	c #E70000",
"i#	c #E90000",
"j#	c #EB0000",
"k#	c #EF0202",
"l#	c #E71010",
"m#	c #CE8787",
"n#	c #ECDDDD",
"o#	c #EFDDDD",
"p#	c #F0DFDF",
"q#	c #F1DFDF",
"r#	c #F0DEDE",
"s#	c #E6D2D2",
"t#	c #D65A5A",
"u#	c #F00A0A",
"v#	c #F20505",
"w#	c #EF0303",
"x#	c #B10000",
"y#	c #484848",
"z#	c #424242",
"A#	c #BA0707",
"B#	c #E30000",
"C#	c #E50000",
"D#	c #E80000",
"E#	c #E30F0F",
"F#	c #CC8383",
"G#	c #E8D9D9",
"H#	c #EBDADA",
"I#	c #ECDBDB",
"J#	c #DAB8B8",
"K#	c #DA3030",
"L#	c #F00303",
"M#	c #EE0202",
"N#	c #EC0000",
"O#	c #AB0000",
"P#	c #404040",
"Q#	c #393939",
"R#	c #960D0D",
"S#	c #D60101",
"T#	c #E20000",
"U#	c #E40000",
"V#	c #E20D0D",
"W#	c #CA7676",
"X#	c #E3D3D3",
"Y#	c #E8D6D6",
"Z#	c #E9D7D7",
"`#	c #E9D8D8",
" $	c #E8D7D7",
".$	c #CF8686",
"+$	c #E21313",
"@$	c #CB0000",
"#$	c #6D0000",
"$$	c #373737",
"%$	c #4A1E1E",
"&$	c #9A0909",
"*$	c #D70101",
"=$	c #E10707",
"-$	c #C65252",
";$	c #D8C5C5",
">$	c #E7D4D4",
",$	c #E5D4D4",
"'$	c #E6D4D4",
")$	c #E6D5D5",
"!$	c #D6B9B9",
"~$	c #CF4343",
"{$	c #E70303",
"]$	c #6E0000",
"^$	c #170000",
"/$	c #2F2F2F",
"($	c #282828",
"_$	c #212020",
":$	c #401414",
"<$	c #960808",
"[$	c #E00000",
"}$	c #E10000",
"|$	c #CC2323",
"1$	c #C69696",
"2$	c #DFD0D0",
"3$	c #E3D2D2",
"4$	c #E4D3D3",
"5$	c #DBCBCB",
"6$	c #CB7C7C",
"7$	c #DB1515",
"8$	c #E60000",
"9$	c #6F0000",
"0$	c #180000",
"a$	c #131111",
"b$	c #350909",
"c$	c #910606",
"d$	c #D50101",
"e$	c #DF0000",
"f$	c #D90404",
"g$	c #C03D3D",
"h$	c #C29595",
"i$	c #D1BFBF",
"j$	c #D4C2C2",
"k$	c #D2BEBE",
"l$	c #D2C0C0",
"m$	c #CFBBBB",
"n$	c #C38686",
"o$	c #CD2929",
"p$	c #C90000",
"q$	c #6C0000",
"r$	c #181818",
"s$	c #030202",
"t$	c #2B0303",
"u$	c #900505",
"v$	c #D50000",
"w$	c #DE0000",
"x$	c #D60404",
"y$	c #C22525",
"z$	c #BA4E4E",
"A$	c #BC5353",
"B$	c #BD4C4C",
"C$	c #BC4F4F",
"D$	c #BD4646",
"E$	c #CA1D1D",
"F$	c #DE0101",
"G$	c #020202",
"H$	c #010000",
"I$	c #2D0303",
"J$	c #920505",
"K$	c #D30101",
"L$	c #DD0000",
"M$	c #D70000",
"N$	c #D60000",
"O$	c #D90000",
"P$	c #DA0000",
"Q$	c #DC0000",
"R$	c #C80000",
"S$	c #720000",
"T$	c #1A0000",
"U$	c #020000",
"V$	c #2E0404",
"W$	c #8F0606",
"X$	c #C40202",
"Y$	c #CB0101",
"Z$	c #C90101",
"`$	c #BC0000",
" %	c #1B0000",
".%	c #050505",
"+%	c #220303",
"@%	c #4A0404",
"#%	c #4E0505",
"$%	c #4D0505",
"%%	c #4C0606",
"&%	c #4C0707",
"*%	c #4B0707",
"=%	c #4A0707",
"-%	c #400404",
";%	c #150000",
". . . . . . . . . . . . . . . . . . . . . . . . . . . . . . . . ",
". . . . . . . . . . . . . . . . . . . . . . . . . . . . . . . . ",
". . + @ # $ % & * = - ; > , ' ) ! ~ { ] ^ / ( _ : < [ } | 1 . . ",
". . 2 3 4 5 6 7 8 9 0 a b c d e f g h i j k l m n o p q r s . . ",
". . 3 t u v w x y z A B C D E D F G H I J K L M N O P Q R S . . ",
". . T U V W X Y Z `  ...+.@.#.$.%.$.&.*.=.-.;.>.,.'.).!.~.{.. . ",
". . ].^./.(._.:.<.[.}.|.1.2.3.4.5.6.7.8.9.0.a.b.c.d.e.f.g.h.. . ",
". . * = i.; j.k.l.m.n.o.p.q.r.s.t.u.v.w.x.y.z.A.B.C.D.E.. . . . ",
". . F.y 0 G.H.I.J.K.L.M.N.O.P.Q.R.S.T.U.V.W.X.Y.Z.`. +. . . . . ",
". . .+++@+#+$+%+&+*+=+-+;+>+,+'+)+!+~+{+]+^+/+(+_+:+<+. . . . . ",
". . [+}+|+1+2+3+4+5+6+7+8+>+9+0+a+b+~+c+d+e+f+g+h+i+j+k+. . . . ",
". . , l+m+n+o+p+q+r+s+t+u+v+w+x+a+y+~+z+A+B+C+D+E+F+G+H+. . . . ",
". . ' ) I+J+K+o+L+M+N+O+P+Q+w+x+R+S+~+T+U+V+W+X+Y+Z+`+ @. . . . ",
". . d e .@+@@@K+o+#@$@%@&@*@=@-@a+;@>@,@'@E+)@!@~@{@]@^@. . . . ",
". . /@(@_@:@<@[@}@|@1@2@P+*@3@4@5@6@7@8@9@0@a@b@{@c@d@e@. . . . ",
". . f@g@h@i@:@j@k@l@m@n@o@p@q@r@s@t@u@v@w@x@y@z@A@B@C@D@. . . . ",
". . E@F@G@H@I@J@j@K@L@M@N@O@P@Q@R@S@T@U@V@W@X@Y@Z@`@ #.#. . . . ",
". . +#@###$#%#&#*#=#-#;#>#,#'#'#'#'#)#!#~#;#{#]#^#/#(#_#. . . . ",
". . j k :#<#$#[#}#|#1#2#3#4#5#5#5#5#6#7#8#9#0#a#b#c#}#d#. . . . ",
". . e#f#g#h#i#j#k#l#m#n#o#p#p#q#q#p#p#r#o#s#t#u#v#w#[#x#. . . . ",
". . y#z#A#B#C#D#<#E#F#G#H#I#I#8#8#I#I#H#H#J#K#L#M#N#N#O#. . . . ",
". . P#Q#R#S#T#U#h#V#W#X#Y#Z#`#`#`#`#`# $X#.$+$$#j#i#@$#$. . . . ",
". . $$} %$&$*$T#B#=$-$;$>$,$,$'$'$'$,$)$!$~${$D#D#@$]$^$. . . . ",
". . /$($_$:$<$S#[$}$|$1$2$3$3$4$4$4$3$5$6$7$h#8$@$9$0$. . . . . ",
". . P Q R a$b$c$d$e$f$g$h$i$j$k$k$l$m$n$o$T#U#p$q$0$. . . . . . ",
". . ).r$~.{.s$t$u$v$w$x$y$z$A$B$B$C$D$E$F$T#p$#$0$. . . . . . . ",
". . e.f.g.G$. H$I$J$K$w$L$M$N$O$P$O$Q$}$[$R$S$T$. . . . . . . . ",
". . D.E.. . . . U$V$W$X$p$@$@$Y$Y$Y$Y$Z$`$S$ %H$. . . . . . . . ",
". . .%. . . . . . . +%@%#%$%%%&%&%*%=%=%-%;%. . . . . . . . . . ",
". . . . . . . . . . . . . . . . . . . . . . . . . . . . . . . . ",
". . . . . . . . . . . . . . . . . . . . . . . . . . . . . . . . ",
". . . . . . . . . . . . . . . . . . . . . . . . . . . . . . . . "};
