/* XPM */
static char * submit_search_mini_xpm[] = {
"22 22 340 2",
"  	c None",
". 	c #000000",
"+ 	c #555555",
"@ 	c #828282",
"# 	c #7B7B7B",
"$ 	c #737373",
"% 	c #6C6C6C",
"& 	c #656565",
"* 	c #5D5D5D",
"= 	c #575757",
"- 	c #4F4F4F",
"; 	c #484848",
"> 	c #404040",
", 	c #3A3A3A",
"' 	c #323232",
") 	c #2B2B2B",
"! 	c #242424",
"~ 	c #1C1C1C",
"{ 	c #151515",
"] 	c #0E0E0E",
"^ 	c #070707",
"/ 	c #010101",
"( 	c #C6C6C6",
"_ 	c #BCBCBC",
": 	c #AFAFB0",
"< 	c #A4A5A7",
"[ 	c #9CA0A4",
"} 	c #969A9F",
"| 	c #8B9094",
"1 	c #7C8184",
"2 	c #727A80",
"3 	c #68737D",
"4 	c #5E6A74",
"5 	c #4E5861",
"6 	c #40454B",
"7 	c #323437",
"8 	c #252526",
"9 	c #191919",
"0 	c #0D0D0D",
"a 	c #040404",
"b 	c #B0B1B2",
"c 	c #A2AAB3",
"d 	c #9AB0C5",
"e 	c #9BBED9",
"f 	c #A1C8E4",
"g 	c #9EC3DD",
"h 	c #97B6CC",
"i 	c #92B5D2",
"j 	c #8DBCE4",
"k 	c #8CBAE3",
"l 	c #75A2CD",
"m 	c #5981A8",
"n 	c #3E5974",
"o 	c #222D38",
"p 	c #0F1113",
"q 	c #747474",
"r 	c #B0B0B2",
"s 	c #9FAAB5",
"t 	c #96BBD8",
"u 	c #9ED3F1",
"v 	c #A7DEF7",
"w 	c #A8E0F9",
"x 	c #A7DEF8",
"y 	c #A9DDF5",
"z 	c #ADD9EF",
"A 	c #BADBF0",
"B 	c #C2E4F9",
"C 	c #A6D7F9",
"D 	c #88C3F3",
"E 	c #69A6DE",
"F 	c #4272A1",
"G 	c #15283B",
"H 	c #010305",
"I 	c #6E6E6E",
"J 	c #A0A7AF",
"K 	c #93B5D2",
"L 	c #A2D7F3",
"M 	c #B9EDFA",
"N 	c #C3F4FC",
"O 	c #BAEEFB",
"P 	c #B4EAFB",
"Q 	c #B1E8FA",
"R 	c #B7EBF9",
"S 	c #BBE2EE",
"T 	c #BEE5F2",
"U 	c #ACE2FD",
"V 	c #94D3FD",
"W 	c #7BC1FB",
"X 	c #5CA5EB",
"Y 	c #3066A1",
"Z 	c #0B1D30",
"` 	c #010205",
" .	c #676767",
"..	c #93A4B6",
"+.	c #95C7E9",
"@.	c #B2E8FA",
"#.	c #CFF9FD",
"$.	c #DBFBFE",
"%.	c #C7F3FD",
"&.	c #C4F4FD",
"*.	c #C2F5FC",
"=.	c #C4F7FD",
"-.	c #C2EFF5",
";.	c #B7DBE7",
">.	c #ADE2FB",
",.	c #98D6FE",
"'.	c #7DC4FE",
").	c #61B0FC",
"!.	c #4491E6",
"~.	c #215086",
"{.	c #050F19",
"].	c #606060",
"^.	c #8DA5C0",
"/.	c #9BD2F3",
"(.	c #CDF6FD",
"_.	c #D7F8FD",
":.	c #CBF6FD",
"<.	c #D1FBFE",
"[.	c #D2FEFE",
"}.	c #D3FEFE",
"|.	c #CFF8FA",
"1.	c #BCDCE6",
"2.	c #AFE0FA",
"3.	c #9DD6FF",
"4.	c #7BC2FF",
"5.	c #5FB0FE",
"6.	c #4A9CF6",
"7.	c #2D6EC4",
"8.	c #0F2848",
"9.	c #5A5A5A",
"0.	c #8AA2BE",
"a.	c #9ED5F4",
"b.	c #ADE4FA",
"c.	c #B8ECFB",
"d.	c #C4F3FC",
"e.	c #D2FAFE",
"f.	c #DAFEFF",
"g.	c #DCFFFF",
"h.	c #DFFFFF",
"i.	c #DAF8FA",
"j.	c #BBD9E6",
"k.	c #A0D6FA",
"l.	c #8DCEFF",
"m.	c #70BCFF",
"n.	c #5AADFE",
"o.	c #4A9DF8",
"p.	c #2C72DC",
"q.	c #194383",
"r.	c #525252",
"s.	c #7E91A7",
"t.	c #99CCEB",
"u.	c #A9E1FA",
"v.	c #B6ECFB",
"w.	c #C6F7FD",
"x.	c #D5FEFF",
"y.	c #DDFFFF",
"z.	c #E7FFFF",
"A.	c #ECFFFF",
"B.	c #DFF1F5",
"C.	c #A9C7DE",
"D.	c #86C6F9",
"E.	c #75BFFF",
"F.	c #64B3FF",
"G.	c #59ABFD",
"H.	c #4898F5",
"I.	c #2163DD",
"J.	c #1A50AC",
"K.	c #4C4C4C",
"L.	c #737D89",
"M.	c #8DB6D1",
"N.	c #A9E0F7",
"O.	c #B3EAFB",
"P.	c #C4F7FE",
"Q.	c #D4FEFF",
"R.	c #E0FFFF",
"S.	c #F3FEFE",
"T.	c #D2DFE8",
"U.	c #95BEE3",
"V.	c #74BCFD",
"W.	c #64B4FF",
"X.	c #5AACFE",
"Y.	c #59AAFC",
"Z.	c #4890EF",
"`.	c #205DDA",
" +	c #184CAE",
".+	c #444444",
"++	c #636567",
"@+	c #6A7A88",
"#+	c #97C4DD",
"$+	c #B3E7F6",
"%+	c #C3F6FD",
"&+	c #D2FEFF",
"*+	c #DDFEFE",
"=+	c #E4F8FA",
"-+	c #D9E5EA",
";+	c #A6ADBF",
">+	c #8EB0D5",
",+	c #65AFF7",
"'+	c #55A8FB",
")+	c #50A5FB",
"!+	c #55A1F7",
"~+	c #4484E8",
"{+	c #2B68DD",
"]+	c #2258B2",
"^+	c #3E3E3E",
"/+	c #515457",
"(+	c #6C92BA",
"_+	c #8AB8DC",
":+	c #AEDAE9",
"<+	c #C1E9EE",
"[+	c #C6E6ED",
"}+	c #C1D8E3",
"|+	c #B3C5D5",
"1+	c #A3ACC0",
"2+	c #A2B0C3",
"3+	c #84A2B9",
"4+	c #6398CE",
"5+	c #5097ED",
"6+	c #5F9FF0",
"7+	c #4A83E6",
"8+	c #3674E0",
"9+	c #2F68B7",
"0+	c #373737",
"a+	c #4E4E4E",
"b+	c #4E75AB",
"c+	c #3368CE",
"d+	c #4E7AC8",
"e+	c #779FD0",
"f+	c #94B6D8",
"g+	c #B1D3EC",
"h+	c #BEE1F6",
"i+	c #C0DDEC",
"j+	c #BDBBAC",
"k+	c #D7B673",
"l+	c #BB9D66",
"m+	c #8396AF",
"n+	c #74A4E7",
"o+	c #3D72DF",
"p+	c #255FD7",
"q+	c #2C61AF",
"r+	c #303030",
"s+	c #454545",
"t+	c #393939",
"u+	c #405B82",
"v+	c #295CCA",
"w+	c #3A6FDB",
"x+	c #84B4EF",
"y+	c #ACD6F7",
"z+	c #C3E7FC",
"A+	c #CEEDFD",
"B+	c #D2ECF6",
"C+	c #CCCEBC",
"D+	c #E5CD8E",
"E+	c #EDC673",
"F+	c #C9A767",
"G+	c #8D9FB7",
"H+	c #4375DA",
"I+	c #235BD1",
"J+	c #234F8F",
"K+	c #292929",
"L+	c #2E2E2E",
"M+	c #2E3B4B",
"N+	c #3661AC",
"O+	c #5889E0",
"P+	c #A0CBF6",
"Q+	c #BEE4FB",
"R+	c #D0EFFD",
"S+	c #DCF3FE",
"T+	c #E3F4FE",
"U+	c #DCE9ED",
"V+	c #D2CAAB",
"W+	c #E9D191",
"X+	c #ECC675",
"Y+	c #C5A66D",
"Z+	c #8296B3",
"`+	c #4476BE",
" @	c #173251",
".@	c #232323",
"+@	c #1B2024",
"@@	c #2E496C",
"#@	c #5E8CCC",
"$@	c #A3CDF5",
"%@	c #C4E8FC",
"&@	c #D7F1FE",
"*@	c #E4F6FF",
"=@	c #EEF8FE",
"-@	c #EAF7FE",
";@	c #D9E7E9",
">@	c #D2CFB1",
",@	c #E6D192",
"'@	c #E9C374",
")@	c #B69965",
"!@	c #485767",
"~@	c #08101A",
"{@	c #181818",
"]@	c #0D0E0E",
"^@	c #0D151D",
"/@	c #3C5976",
"(@	c #8DB8DB",
"_@	c #BBE1F8",
":@	c #D1ECFC",
"<@	c #DEF0FC",
"[@	c #EBF5FD",
"}@	c #E7F5FD",
"|@	c #DBF1FD",
"1@	c #CBE4EB",
"2@	c #C2C4AF",
"3@	c #D0B984",
"4@	c #AB8E66",
"5@	c #3C3838",
"6@	c #010203",
"7@	c #030303",
"8@	c #000101",
"9@	c #0C1319",
"0@	c #405E77",
"a@	c #7CA9CE",
"b@	c #8FB8E9",
"c@	c #95B6EC",
"d@	c #A5C0EE",
"e@	c #A6C2EF",
"f@	c #ABCCF2",
"g@	c #AAD1F1",
"h@	c #88ABC6",
"i@	c #696E70",
"j@	c #4B4849",
"k@	c #111215",
"l@	c #0F0F0F",
"m@	c #010102",
"n@	c #0A1219",
"o@	c #223A53",
"p@	c #345D96",
"q@	c #3563AF",
"r@	c #3763B2",
"s@	c #3863B2",
"t@	c #4672B3",
"u@	c #4B739D",
"v@	c #2B445A",
"w@	c #101821",
"x@	c #060709",
"y@	c #060606",
". . . . . . . . . . . . . . . . . . . . . . ",
". + @ # $ % & * = - ; > , ' ) ! ~ { ] ^ / . ",
". @ ( _ : < [ } | 1 2 3 4 5 6 7 8 9 0 a . . ",
". # _ b c d e f g h i j k l m n o p a . . . ",
". q r s t u v w x y z A B C D E F G H . . . ",
". I J K L M N O P Q R S T U V W X Y Z ` . . ",
".  ...+.@.#.$.%.&.*.=.-.;.>.,.'.).!.~.{.. . ",
". ].^./.P (._.:.<.[.}.|.1.2.3.4.5.6.7.8.. . ",
". 9.0.a.b.c.d.e.f.g.h.i.j.k.l.m.n.o.p.q.. . ",
". r.s.t.u.v.w.x.y.z.A.B.C.D.E.F.G.H.I.J.. . ",
". K.L.M.N.O.P.Q.R.A.S.T.U.V.W.X.Y.Z.`. +. . ",
". .+++@+#+$+%+&+*+=+-+;+>+,+'+)+!+~+{+]+. . ",
". ^+9./+(+_+:+<+[+}+|+1+2+3+4+5+6+7+8+9+. . ",
". 0+a+.+b+c+d+e+f+g+h+i+j+k+l+m+n+o+p+q+. . ",
". r+s+t+u+v+w+x+y+z+A+B+C+D+E+F+G+H+I+J+. . ",
". K+t+L+M+N+O+P+Q+R+S+T+U+V+W+X+Y+Z+`+ @. . ",
". .@L+.@+@@@#@$@%@&@*@=@-@;@>@,@'@)@!@~@. . ",
". ~ .@{@]@^@/@(@_@:@<@[@}@|@1@2@3@4@5@6@. . ",
". { {@0 7@8@9@0@a@b@c@d@e@f@g@h@i@j@k@. . . ",
". l@] a . . m@n@o@p@q@r@s@t@u@v@w@x@. . . . ",
". y@a . . . . . . . . . . . . . . . . . . . ",
". . . . . . . . . . . . . . . . . . . . . . "};
