/* XPM */
static char * submit_search_xpm[] = {
"32 32 640 2",
"  	c None",
". 	c #000000",
"+ 	c #D9D9D9",
"@ 	c #D1D1D1",
"# 	c #C9C9C9",
"$ 	c #C1C1C1",
"% 	c #B9B9B9",
"& 	c #B1B1B1",
"* 	c #A9A9A9",
"= 	c #A1A1A1",
"- 	c #999999",
"; 	c #919191",
"> 	c #898989",
", 	c #818181",
"' 	c #797979",
") 	c #717171",
"! 	c #696969",
"~ 	c #616161",
"{ 	c #595959",
"] 	c #515151",
"^ 	c #4A4A4A",
"/ 	c #424242",
"( 	c #3A3A3A",
"_ 	c #313131",
": 	c #2A2A2A",
"< 	c #212121",
"[ 	c #1A1A1A",
"} 	c #111111",
"| 	c #0A0A0A",
"1 	c #020202",
"2 	c #C2C2C2",
"3 	c #929292",
"4 	c #8A8A8A",
"5 	c #828282",
"6 	c #7A7A7A",
"7 	c #727272",
"8 	c #6A6A6A",
"9 	c #626262",
"0 	c #5A5A5A",
"a 	c #525252",
"b 	c #494949",
"c 	c #323232",
"d 	c #222222",
"e 	c #121212",
"f 	c #CACACA",
"g 	c #BABABA",
"h 	c #B2B2B2",
"i 	c #A8AAAA",
"j 	c #A0A4A9",
"k 	c #9DA5B0",
"l 	c #A1B0C1",
"m 	c #ABBDD1",
"n 	c #AABCD0",
"o 	c #9DB0C0",
"p 	c #8C9FAC",
"q 	c #8096A7",
"r 	c #80A4C0",
"s 	c #7FAED2",
"t 	c #7DABD2",
"u 	c #76A5CD",
"v 	c #658FB4",
"w 	c #4D6782",
"x 	c #3E5163",
"y 	c #323D47",
"z 	c #232629",
"A 	c #1A1B1C",
"B 	c #030303",
"C 	c #A8AAAC",
"D 	c #9DA8B5",
"E 	c #97B2CF",
"F 	c #95C0E2",
"G 	c #96CAEE",
"H 	c #99CFF2",
"I 	c #9CD2F4",
"J 	c #9DD0F0",
"K 	c #A2CDEA",
"L 	c #A3C7E2",
"M 	c #9EC6E7",
"N 	c #96C7F0",
"O 	c #9CC9F4",
"P 	c #9AC7F3",
"Q 	c #89BCED",
"R 	c #73A8DD",
"S 	c #6298CC",
"T 	c #4B749E",
"U 	c #2F4963",
"V 	c #1B2630",
"W 	c #0A0C0D",
"X 	c #040404",
"Y 	c #BBBBBB",
"Z 	c #B3B3B3",
"` 	c #A7A9AB",
" .	c #99A7B7",
"..	c #92B7D8",
"+.	c #97CBEE",
"@.	c #A0D9F7",
"#.	c #A6DFF9",
"$.	c #A8E1F9",
"%.	c #A7E0F9",
"&.	c #A6DEF9",
"*.	c #A8DFF8",
"=.	c #AADCF3",
"-.	c #B0D7EC",
";.	c #BAD9ED",
">.	c #CBE7F8",
",.	c #C7E9FD",
"'.	c #AFDDFB",
").	c #96CFF8",
"!.	c #82BFF4",
"~.	c #6DACE8",
"{.	c #538DC7",
"].	c #2F547A",
"^.	c #0D1926",
"/.	c #000103",
"(.	c #A9A9AB",
"_.	c #9AA5B4",
":.	c #8FB5D7",
"<.	c #98CEF0",
"[.	c #A9E1F9",
"}.	c #B5EBFA",
"|.	c #BAEFFB",
"1.	c #B6ECFB",
"2.	c #B2E9FA",
"3.	c #ACE4FA",
"4.	c #ABE3FA",
"5.	c #B0E7FA",
"6.	c #B4E6F6",
"7.	c #B8DDEB",
"8.	c #C4E2EE",
"9.	c #C1EDFC",
"0.	c #AFE4FE",
"a.	c #9CD8FE",
"b.	c #8ACCFB",
"c.	c #7BC0FA",
"d.	c #68B0F2",
"e.	c #498ACD",
"f.	c #224A75",
"g.	c #071421",
"h.	c #ACACAC",
"i.	c #9EA3A9",
"j.	c #8EABC8",
"k.	c #94C9ED",
"l.	c #A8E0F8",
"m.	c #BCF0FB",
"n.	c #CAF9FC",
"o.	c #D1FBFD",
"p.	c #C3F2FC",
"q.	c #BBEFFC",
"r.	c #B5EBFB",
"s.	c #B7EDFB",
"t.	c #BCF1FC",
"u.	c #BBEAF4",
"v.	c #B9DCE7",
"w.	c #BBE4F2",
"x.	c #B0E6FD",
"y.	c #9FDBFE",
"z.	c #8ED0FE",
"A.	c #7DC4FD",
"B.	c #6BB6FB",
"C.	c #55A3F3",
"D.	c #397ECB",
"E.	c #1C4471",
"F.	c #06111C",
"G.	c #000002",
"H.	c #A4A4A4",
"I.	c #939DAA",
"J.	c #8CB7DC",
"K.	c #9DD6F6",
"L.	c #C8F8FC",
"M.	c #DAFDFE",
"N.	c #E2FDFE",
"O.	c #CEF4FD",
"P.	c #C0F1FC",
"Q.	c #C6F6FD",
"R.	c #C3F6FC",
"S.	c #C6F9FD",
"T.	c #C6F7FB",
"U.	c #BCE3EA",
"V.	c #B2D4E2",
"W.	c #B1E5FC",
"X.	c #A0DCFF",
"Y.	c #91D1FE",
"Z.	c #7EC5FE",
"`.	c #6BB8FE",
" +	c #57A9FB",
".+	c #4496F0",
"++	c #3071BE",
"@+	c #132F4F",
"#+	c #000407",
"$+	c #9D9D9D",
"%+	c #8A99B0",
"&+	c #8EC3E9",
"*+	c #A3DBF8",
"=+	c #CCF9FD",
"-+	c #DFFDFE",
";+	c #E4FBFE",
">+	c #CFF5FD",
",+	c #C6F5FD",
"'+	c #D0FBFE",
")+	c #CEFCFE",
"!+	c #CEFDFE",
"~+	c #CFFEFE",
"{+	c #CFFDFE",
"]+	c #C3E9EE",
"^+	c #B3D0DE",
"/+	c #B4E4FB",
"(+	c #A6DDFF",
"_+	c #97D3FF",
":+	c #7FC5FF",
"<+	c #69B6FE",
"[+	c #58ABFD",
"}+	c #499CF7",
"|+	c #3681DE",
"1+	c #1E4B87",
"2+	c #06121F",
"3+	c #969696",
"4+	c #8B9CB7",
"5+	c #94C9EE",
"6+	c #A5DDF9",
"7+	c #AFE6FA",
"8+	c #BBEEFB",
"9+	c #C9F3FC",
"0+	c #CCF4FC",
"a+	c #C8F6FD",
"b+	c #D1FAFE",
"c+	c #D8FEFF",
"d+	c #D6FFFF",
"e+	c #D7FFFF",
"f+	c #D9FFFF",
"g+	c #D8FFFF",
"h+	c #CCEEF2",
"i+	c #B7D6E3",
"j+	c #B0E0FA",
"k+	c #A7DCFF",
"l+	c #94D0FF",
"m+	c #79C1FF",
"n+	c #64B3FE",
"o+	c #56AAFD",
"p+	c #4B9FF9",
"q+	c #3682E8",
"r+	c #2561B8",
"s+	c #102847",
"t+	c #8E8E8E",
"u+	c #8495B0",
"v+	c #95CAEE",
"w+	c #A5DEF9",
"x+	c #B1E8FB",
"y+	c #B8ECFB",
"z+	c #C1F3FC",
"A+	c #CEF9FE",
"B+	c #DBFDFF",
"C+	c #DCFFFF",
"D+	c #DFFFFF",
"E+	c #E1FFFF",
"F+	c #E1FEFE",
"G+	c #D0ECF0",
"H+	c #AECDE0",
"I+	c #9FD6FB",
"J+	c #94D2FF",
"K+	c #82C7FF",
"L+	c #6FBBFF",
"M+	c #5FB0FE",
"N+	c #53A8FD",
"O+	c #4CA0FA",
"P+	c #337EE9",
"Q+	c #2162D1",
"R+	c #1A4580",
"S+	c #868686",
"T+	c #7A899F",
"U+	c #90C1E4",
"V+	c #A4DCF9",
"W+	c #A9E1FA",
"X+	c #BDF1FB",
"Y+	c #C8F7FD",
"Z+	c #D3FDFE",
"`+	c #DAFEFF",
" @	c #DDFFFF",
".@	c #E3FFFF",
"+@	c #E7FFFF",
"@@	c #EAFFFF",
"#@	c #E8FDFE",
"$@	c #CDE1E7",
"%@	c #9CBCD6",
"&@	c #8DCCFA",
"*@	c #81C7FF",
"=@	c #74BEFF",
"-@	c #67B5FF",
";@	c #5CAEFE",
">@	c #499DF8",
",@	c #2D74E6",
"'@	c #1857D5",
")@	c #2057AA",
"!@	c #7F7F7F",
"~@	c #757C89",
"{@	c #87ACCC",
"]@	c #A2D9F5",
"^@	c #A8E0FA",
"/@	c #ADE5FA",
"(@	c #BAEFFC",
"_@	c #C6F8FE",
":@	c #D1FEFF",
"<@	c #E0FFFF",
"[@	c #E8FFFF",
"}@	c #EEFFFF",
"|@	c #F2FEFE",
"1@	c #EBF8FA",
"2@	c #C1D4E1",
"3@	c #8CB7DF",
"4@	c #7FC3FB",
"5@	c #68B6FF",
"6@	c #5FB0FF",
"7@	c #59AAFD",
"8@	c #4A97F4",
"9@	c #2768E0",
"0@	c #104CD2",
"a@	c #1C54B1",
"b@	c #777777",
"c@	c #6D7176",
"d@	c #758DA5",
"e@	c #97C9E4",
"f@	c #ABE2F8",
"g@	c #AEE6FA",
"h@	c #B8EEFC",
"i@	c #C4F8FE",
"j@	c #D0FEFF",
"k@	c #E2FFFF",
"l@	c #F1FFFF",
"m@	c #F5FDFD",
"n@	c #DDE6EA",
"o@	c #A8BDD4",
"p@	c #82BCEF",
"q@	c #71BCFF",
"r@	c #66B5FF",
"s@	c #56AAFE",
"t@	c #58ABFE",
"u@	c #59A7FA",
"v@	c #498EED",
"w@	c #2A67DE",
"x@	c #1651D4",
"y@	c #1B51B0",
"z@	c #6F6F6F",
"A@	c #656666",
"B@	c #646B76",
"C@	c #7C9BB2",
"D@	c #A1D3EB",
"E@	c #B2E8F8",
"F@	c #BBF0FC",
"G@	c #CFFDFF",
"H@	c #E8FEFE",
"I@	c #EEFCFD",
"J@	c #E1EAEE",
"K@	c #B5BBC8",
"L@	c #96A3BB",
"M@	c #84B8EA",
"N@	c #65B3FD",
"O@	c #5AADFE",
"P@	c #53A9FE",
"Q@	c #50A7FD",
"R@	c #53A6FC",
"S@	c #539EF5",
"T@	c #4282E8",
"U@	c #2D69DF",
"V@	c #2360D9",
"W@	c #2057B2",
"X@	c #606060",
"Y@	c #575859",
"Z@	c #5C6570",
"`@	c #82ABCF",
" #	c #A1CFE7",
".#	c #B6E8F4",
"+#	c #CDFDFE",
"@#	c #D5FEFE",
"##	c #DCFCFD",
"$#	c #DCF4F6",
"%#	c #D0E2E8",
"&#	c #B8C3D0",
"*#	c #989BB0",
"=#	c #9DA3B9",
"-#	c #91B6DC",
";#	c #67AAEB",
">#	c #57A3EE",
",#	c #4EA2F9",
"'#	c #4C9FF8",
")#	c #57A2F6",
"!#	c #5B9CF0",
"~#	c #4680E5",
"{#	c #316CDF",
"]#	c #306FDE",
"^#	c #2C65B6",
"/#	c #49494B",
"(#	c #618BBE",
"_#	c #6490CC",
":#	c #87B4D8",
"<#	c #A6CEE0",
"[#	c #B6DDE5",
"}#	c #BBDDE5",
"|#	c #BAD8E3",
"1#	c #B7D0DE",
"2#	c #AEC3D4",
"3#	c #ABC0D4",
"4#	c #A6B4C9",
"5#	c #ACB6C8",
"6#	c #A8ADB5",
"7#	c #9AA099",
"8#	c #86969A",
"9#	c #598ECD",
"0#	c #4B8EEA",
"a#	c #62A0EF",
"b#	c #649DED",
"c#	c #4880E4",
"d#	c #3974E1",
"e#	c #3B7CE2",
"f#	c #346FB9",
"g#	c #5A86BC",
"h#	c #3269D3",
"i#	c #3466C7",
"j#	c #557CBE",
"k#	c #6D92C3",
"l#	c #7EA0C7",
"m#	c #8EACCD",
"n#	c #A5C6E1",
"o#	c #B7DAF3",
"p#	c #BFE3F8",
"q#	c #C0E3F7",
"r#	c #BACED7",
"s#	c #BBAB8F",
"t#	c #D9B26C",
"u#	c #D3A350",
"v#	c #9A896F",
"w#	c #6E8FBF",
"x#	c #7AACEC",
"y#	c #699CEC",
"z#	c #376CDD",
"A#	c #225AD7",
"B#	c #2E6BDB",
"C#	c #316AB4",
"D#	c #50729B",
"E#	c #3268D0",
"F#	c #154BD0",
"G#	c #2D63D8",
"H#	c #5C92E5",
"I#	c #88B8EF",
"J#	c #A8D2F5",
"K#	c #B9E0FA",
"L#	c #C4E8FC",
"M#	c #CAECFD",
"N#	c #CEEEFD",
"O#	c #C8D9D9",
"P#	c #CABB93",
"Q#	c #EED592",
"R#	c #F1CA75",
"S#	c #DDA94B",
"T#	c #B49A6C",
"U#	c #94ADC7",
"V#	c #6A9BE8",
"W#	c #3064DA",
"X#	c #1046CF",
"Y#	c #245FD3",
"Z#	c #2A5DA0",
"`#	c #434343",
" $	c #3B3B3B",
".$	c #3C4F66",
"+$	c #3A69BB",
"@$	c #1F54D1",
"#$	c #4275DD",
"$$	c #84B3F0",
"%$	c #A7D3F8",
"&$	c #B8E1FA",
"*$	c #C5E9FC",
"=$	c #D4F0FE",
"-$	c #D8F2FE",
";$	c #D5E8ED",
">$	c #CAC8B0",
",$	c #DAC58C",
"'$	c #F4DA94",
")$	c #F2CB77",
"!$	c #E0AB4C",
"~$	c #B59E75",
"{$	c #7B99C8",
"]$	c #477ADD",
"^$	c #285ED7",
"/$	c #2D68CA",
"($	c #1F4370",
"_$	c #333333",
":$	c #2B2B2B",
"<$	c #2D363F",
"[$	c #385D90",
"}$	c #376AD0",
"|$	c #5888E3",
"1$	c #95C1F4",
"2$	c #B2DBFA",
"3$	c #C1E6FC",
"4$	c #CDEDFD",
"5$	c #D6F1FE",
"6$	c #DEF3FE",
"7$	c #E2F4FF",
"8$	c #E3F4FE",
"9$	c #D6E3E7",
"0$	c #C8C1A6",
"a$	c #E1C98B",
"b$	c #F4DB95",
"c$	c #DBAA51",
"d$	c #AD9C7D",
"e$	c #7C9CC9",
"f$	c #548CDE",
"g$	c #366BAD",
"h$	c #10253B",
"i$	c #3C3C3C",
"j$	c #2C2C2C",
"k$	c #232323",
"l$	c #1E2124",
"m$	c #2C425C",
"n$	c #4472BA",
"o$	c #5F91E2",
"p$	c #93BFF2",
"q$	c #B7DEFA",
"r$	c #C6EAFD",
"s$	c #D2F0FE",
"t$	c #DCF3FF",
"u$	c #E5F6FF",
"v$	c #EBF7FF",
"w$	c #ECF8FF",
"x$	c #E6F6FE",
"y$	c #D7E4E6",
"z$	c #CDC7A8",
"A$	c #E0CB8F",
"B$	c #F3DA95",
"C$	c #F0C975",
"D$	c #D9A852",
"E$	c #A99977",
"F$	c #6584A5",
"G$	c #26476A",
"H$	c #050D16",
"I$	c #343434",
"J$	c #242424",
"K$	c #1C1C1C",
"L$	c #141516",
"M$	c #172028",
"N$	c #314F73",
"O$	c #5D8CC6",
"P$	c #93C1EF",
"Q$	c #C8EBFD",
"R$	c #DFF4FE",
"S$	c #E9F7FE",
"T$	c #F0F9FE",
"U$	c #F1F9FE",
"V$	c #EAF7FE",
"W$	c #E1F4FF",
"X$	c #D1E4E8",
"Y$	c #C7C8B0",
"Z$	c #DBCA92",
"`$	c #F0D794",
" %	c #EBC574",
".%	c #C5964B",
"+%	c #746659",
"@%	c #0C1825",
"#%	c #1D1D1D",
"$%	c #141414",
"%%	c #0D0D0D",
"&%	c #050607",
"*%	c #0E1822",
"=%	c #3B5976",
"-%	c #7BA8CF",
";%	c #ACD7F5",
">%	c #C3E8FB",
",%	c #D1EEFD",
"'%	c #DBF0FD",
")%	c #E5F4FD",
"!%	c #EEF7FD",
"~%	c #EEF8FD",
"{%	c #E8F6FD",
"]%	c #DFF3FE",
"^%	c #D5F1FE",
"/%	c #C5E0E9",
"(%	c #BCBFAF",
"_%	c #D0BD8C",
":%	c #D6B97E",
"<%	c #B09067",
"[%	c #6F635F",
"}%	c #010508",
"|%	c #252525",
"1%	c #151515",
"2%	c #050505",
"3%	c #010203",
"4%	c #101A23",
"5%	c #3F5D78",
"6%	c #7CAACE",
"7%	c #A6D3F2",
"8%	c #B2D6F5",
"9%	c #B7D4F5",
"0%	c #C4DAF6",
"a%	c #D1E3F8",
"b%	c #D2E5F9",
"c%	c #CFE4F9",
"d%	c #CDE6FA",
"e%	c #C8E7FB",
"f%	c #BEE3FA",
"g%	c #A4C6DE",
"h%	c #929895",
"i%	c #92816E",
"j%	c #776D6C",
"k%	c #34353E",
"l%	c #000001",
"m%	c #1E1E1E",
"n%	c #0E0E0E",
"o%	c #0D1923",
"p%	c #345573",
"q%	c #5B8CBA",
"r%	c #6396D8",
"s%	c #5C8CDE",
"t%	c #5E88DF",
"u%	c #6A91E1",
"v%	c #6E93E2",
"w%	c #7097E2",
"x%	c #7FA7E7",
"y%	c #8DB9EB",
"z%	c #8AB8E2",
"A%	c #6794BD",
"B%	c #3F5B76",
"C%	c #28333F",
"D%	c #161A20",
"E%	c #161616",
"F%	c #060606",
"G%	c #000102",
"H%	c #071018",
"I%	c #162B41",
"J%	c #254B7A",
"K%	c #2D5FA6",
"L%	c #2B5EB0",
"M%	c #2A5CB1",
"N%	c #2959B0",
"O%	c #2A5AB1",
"P%	c #3566B3",
"Q%	c #4070AA",
"R%	c #365B7D",
"S%	c #1B2F42",
"T%	c #08111A",
"U%	c #000204",
"V%	c #0F0F0F",
"W%	c #070707",
". . . . . . . . . . . . . . . . . . . . . . . . . . . . . . . . ",
". . . . . . . . . . . . . . . . . . . . . . . . . . . . . . . . ",
". . + @ # $ % & * = - ; > , ' ) ! ~ { ] ^ / ( _ : < [ } | 1 . . ",
". . @ # 2 % & * = - 3 4 5 6 7 8 9 0 a b / ( c : d [ e | 1 . . . ",
". . f 2 g h i j k l m n o p q r s t u v w x y z A e | B . . . . ",
". . 2 g h C D E F G H I J K L M N O P Q R S T U V W X . . . . . ",
". . Y Z `  ...+.@.#.$.%.&.*.=.-.;.>.,.'.).!.~.{.].^./.. . . . . ",
". . Z (._.:.<.[.}.|.1.2.3.4.5.6.7.8.9.0.a.b.c.d.e.f.g./.. . . . ",
". . h.i.j.k.l.m.n.o.p.q.q.r.s.t.u.v.w.x.y.z.A.B.C.D.E.F.G.. . . ",
". . H.I.J.K.2.L.M.N.O.P.Q.R.R.S.T.U.V.W.X.Y.Z.`. +.+++@+#+. . . ",
". . $+%+&+*+1.=+-+;+>+,+'+)+!+~+{+]+^+/+(+_+:+<+[+}+|+1+2+. . . ",
". . 3+4+5+6+7+8+9+0+a+b+c+d+e+f+g+h+i+j+k+l+m+n+o+p+q+r+s+. . . ",
". . t+u+v+w+3.x+y+z+A+B+C+C+D+E+F+G+H+I+J+K+L+M+N+O+P+Q+R+. . . ",
". . S+T+U+V+W+2.X+Y+Z+`+ @.@+@@@#@$@%@&@*@=@-@;@N+>@,@'@)@. . . ",
". . !@~@{@]@^@/@(@_@:@g+<@[@}@|@1@2@3@4@=@5@6@;@7@8@9@0@a@. . . ",
". . b@c@d@e@f@g@h@i@j@f+k@@@l@m@n@o@p@q@r@;@s@t@u@v@w@x@y@. . . ",
". . z@A@B@C@D@E@F@i@G@g+<@H@I@J@K@L@M@N@O@P@Q@R@S@T@U@V@W@. . . ",
". . ! X@Y@Z@`@ #.#R.+#@###$#%#&#*#=#-#;#>#,#'#)#!#~#{#]#^#. . . ",
". . ~ { ] /#(#_#:#<#[#}#|#1#2#3#4#5#6#7#8#9#0#a#b#c#d#e#f#. . . ",
". . { ] b / g#h#i#j#k#l#m#n#o#p#q#r#s#t#u#v#w#x#y#z#A#B#C#. . . ",
". . a ^ / ( D#E#F#G#H#I#J#K#L#M#N#O#P#Q#R#S#T#U#V#W#X#Y#Z#. . . ",
". . ^ `# $c .$+$@$#$$$%$&$*$N#=$-$;$>$,$'$)$!$~${$]$^$/$($. . . ",
". . /  $_$:$<$[$}$|$1$2$3$4$5$6$7$8$9$0$a$b$)$c$d$e$f$g$h$. . . ",
". . i$_$j$k$l$m$n$o$p$q$r$s$t$u$v$w$x$y$z$A$B$C$D$E$F$G$H$. . . ",
". . I$j$J$K$L$M$N$O$P$q$Q$=$R$S$T$U$V$W$X$Y$Z$`$ %.%+%@%G.. . . ",
". . j$J$#%$%%%&%*%=%-%;%>%,%'%)%!%~%{%]%^%/%(%_%:%<%[%}%. . . . ",
". . |%#%1%%%2%. 3%4%5%6%7%8%9%0%a%b%c%d%e%f%g%h%i%j%k%l%. . . . ",
". . m%1%n%2%. . . 3%o%p%q%r%s%t%u%v%w%x%y%z%A%B%C%D%B . . . . . ",
". . E%n%F%. . . . . G%H%I%J%K%L%M%N%O%P%Q%R%S%T%U%. . . . . . . ",
". . V%W%. . . . . . . . . . . . . . . . . . . . . . . . . . . . ",
". . . . . . . . . . . . . . . . . . . . . . . . . . . . . . . . ",
". . . . . . . . . . . . . . . . . . . . . . . . . . . . . . . . "};
