/* XPM */
static char * subscribe_search_xpm[] = {
"32 32 674 2",
"  	c None",
". 	c #000000",
"+ 	c #D9D9D9",
"@ 	c #D1D1D1",
"# 	c #C9C9C9",
"$ 	c #C1C1C1",
"% 	c #B9B9B9",
"& 	c #B1B1B1",
"* 	c #A9A9A9",
"= 	c #A1A1A1",
"- 	c #999999",
"; 	c #919191",
"> 	c #898989",
", 	c #818181",
"' 	c #797979",
") 	c #6A6A6C",
"! 	c #565668",
"~ 	c #666882",
"{ 	c #7E829C",
"] 	c #8589A6",
"^ 	c #6D708C",
"/ 	c #4E4F63",
"( 	c #3A3A3E",
"_ 	c #313131",
": 	c #2A2A2A",
"< 	c #212121",
"[ 	c #1A1A1A",
"} 	c #111111",
"| 	c #0A0A0A",
"1 	c #020202",
"2 	c #C2C2C2",
"3 	c #929292",
"4 	c #8A8A8A",
"5 	c #828282",
"6 	c #767677",
"7 	c #45486F",
"8 	c #5562A4",
"9 	c #9EB0D6",
"0 	c #C0D0E8",
"a 	c #B4C6E3",
"b 	c #AFC1E0",
"c 	c #AABBDC",
"d 	c #A5B8DA",
"e 	c #929FCB",
"f 	c #323870",
"g 	c #1E1E25",
"h 	c #121212",
"i 	c #CACACA",
"j 	c #BABABA",
"k 	c #B2B2B2",
"l 	c #A8AAAA",
"m 	c #A0A4A9",
"n 	c #9DA5B0",
"o 	c #A1B0C1",
"p 	c #ABBDD1",
"q 	c #AABCCF",
"r 	c #97A7B8",
"s 	c #4A5896",
"t 	c #6C89C2",
"u 	c #7695CA",
"v 	c #A5C1E3",
"w 	c #89AED9",
"x 	c #8AAED9",
"y 	c #8EB2DC",
"z 	c #84A8D6",
"A 	c #6E92C8",
"B 	c #809CCE",
"C 	c #515AA1",
"D 	c #0C0C24",
"E 	c #030303",
"F 	c #A8AAAC",
"G 	c #9DA8B5",
"H 	c #97B2CF",
"I 	c #95C0E2",
"J 	c #96CAEE",
"K 	c #99CFF2",
"L 	c #9CD2F4",
"M 	c #99CCEE",
"N 	c #98C3E5",
"O 	c #8FB5DA",
"P 	c #90B3DA",
"Q 	c #6CA0D6",
"R 	c #649BD4",
"S 	c #699ED6",
"T 	c #689ED6",
"U 	c #7BAADB",
"V 	c #609CD9",
"W 	c #528ACB",
"X 	c #7AA3D6",
"Y 	c #85A1D4",
"Z 	c #041282",
"` 	c #04041C",
" .	c #BBBBBB",
"..	c #B3B3B3",
"+.	c #A7A9AB",
"@.	c #99A7B7",
"#.	c #92B7D8",
"$.	c #97CBEE",
"%.	c #A0D9F7",
"&.	c #A6DFF9",
"*.	c #A8E1F9",
"=.	c #A7E0F9",
"-.	c #A6DEF9",
";.	c #A8DFF8",
">.	c #A8DAF2",
",.	c #98C5E4",
"'.	c #6EA0D2",
").	c #528ECC",
"!.	c #508ECF",
"~.	c #518ED0",
"{.	c #6A9FD7",
"].	c #4588CE",
"^.	c #5E9BD9",
"/.	c #4287CD",
"(.	c #7EAADA",
"_.	c #597CC2",
":.	c #16278D",
"<.	c #000005",
"[.	c #A9A9AB",
"}.	c #9AA5B4",
"|.	c #8FB5D7",
"1.	c #98CEF0",
"2.	c #A9E1F9",
"3.	c #B5EBFA",
"4.	c #BAEFFB",
"5.	c #B6ECFB",
"6.	c #B2E9FA",
"7.	c #ACE4FA",
"8.	c #ABE3FA",
"9.	c #B0E7FA",
"0.	c #B1E3F5",
"a.	c #95C5E1",
"b.	c #5F96CE",
"c.	c #3E82CB",
"d.	c #3C82CD",
"e.	c #9BC0E7",
"f.	c #6EA4DC",
"g.	c #3582CF",
"h.	c #458CD2",
"i.	c #226DC2",
"j.	c #376FC0",
"k.	c #062F9E",
"l.	c #030E51",
"m.	c #ACACAC",
"n.	c #9EA3A9",
"o.	c #8EABC8",
"p.	c #94C9ED",
"q.	c #A8E0F8",
"r.	c #BCF0FB",
"s.	c #CAF9FC",
"t.	c #D1FBFD",
"u.	c #C3F2FC",
"v.	c #BBEFFC",
"w.	c #B5EBFB",
"x.	c #B7EDFB",
"y.	c #BBF0FB",
"z.	c #B8E7F3",
"A.	c #8FBCDA",
"B.	c #669AD0",
"C.	c #5E99D7",
"D.	c #92BCE6",
"E.	c #287ACA",
"F.	c #4B8ED1",
"G.	c #156BC8",
"H.	c #0659BA",
"I.	c #2B6FC2",
"J.	c #0340AA",
"K.	c #09309E",
"L.	c #000104",
"M.	c #A4A4A4",
"N.	c #939DAA",
"O.	c #8CB7DC",
"P.	c #9DD6F6",
"Q.	c #C8F8FC",
"R.	c #DAFDFE",
"S.	c #E2FDFE",
"T.	c #CEF4FD",
"U.	c #C0F1FC",
"V.	c #C6F6FD",
"W.	c #C3F6FC",
"X.	c #C6F9FD",
"Y.	c #C5F6FA",
"Z.	c #AFD9E6",
"`.	c #6597C7",
" +	c #327BC9",
".+	c #5091D4",
"++	c #68A4DB",
"@+	c #327CCA",
"#+	c #1C6CC4",
"$+	c #1367C6",
"%+	c #2B75C8",
"&+	c #0852B5",
"*+	c #073FAA",
"=+	c #030A23",
"-+	c #9D9D9D",
";+	c #8A99B0",
">+	c #8EC3E9",
",+	c #A3DBF8",
"'+	c #CCF9FD",
")+	c #DFFDFE",
"!+	c #E4FBFE",
"~+	c #CFF5FD",
"{+	c #C6F5FD",
"]+	c #D0FBFE",
"^+	c #CEFCFE",
"/+	c #CEFDFE",
"(+	c #CFFEFE",
"_+	c #CFFDFE",
":+	c #C2E8ED",
"<+	c #84ABCE",
"[+	c #448AD0",
"}+	c #98BEE6",
"|+	c #DEEBF7",
"1+	c #3780CE",
"2+	c #2C78C9",
"3+	c #2375CE",
"4+	c #2874C8",
"5+	c #1C69C1",
"6+	c #0750B5",
"7+	c #081A48",
"8+	c #969696",
"9+	c #8B9CB7",
"0+	c #94C9EE",
"a+	c #A5DDF9",
"b+	c #AFE6FA",
"c+	c #BBEEFB",
"d+	c #C9F3FC",
"e+	c #CCF4FC",
"f+	c #C8F6FD",
"g+	c #D1FAFE",
"h+	c #D8FEFF",
"i+	c #D6FFFF",
"j+	c #D7FFFF",
"k+	c #D9FFFF",
"l+	c #D8FFFF",
"m+	c #CCEEF2",
"n+	c #91B8D7",
"o+	c #5496D9",
"p+	c #82B4E6",
"q+	c #8FBCE8",
"r+	c #448AD4",
"s+	c #3C85D0",
"t+	c #3786D4",
"u+	c #307DCD",
"v+	c #337AC8",
"w+	c #0D60BE",
"x+	c #0E2C66",
"y+	c #8E8E8E",
"z+	c #8495B0",
"A+	c #95CAEE",
"B+	c #A5DEF9",
"C+	c #B1E8FB",
"D+	c #B8ECFB",
"E+	c #C1F3FC",
"F+	c #CEF9FE",
"G+	c #DBFDFF",
"H+	c #DCFFFF",
"I+	c #DFFFFF",
"J+	c #E1FFFF",
"K+	c #E1FEFE",
"L+	c #D0ECF0",
"M+	c #96B8D7",
"N+	c #73ACE6",
"O+	c #7AB2EA",
"P+	c #66A5E4",
"Q+	c #66A3E1",
"R+	c #4C92DA",
"S+	c #468FD8",
"T+	c #438ED7",
"U+	c #5293D4",
"V+	c #307CCE",
"W+	c #1D3C64",
"X+	c #868686",
"Y+	c #7A899F",
"Z+	c #90C1E4",
"`+	c #A4DCF9",
" @	c #A9E1FA",
".@	c #BDF1FB",
"+@	c #C8F7FD",
"@@	c #D3FDFE",
"#@	c #DAFEFF",
"$@	c #DDFFFF",
"%@	c #E3FFFF",
"&@	c #E7FFFF",
"*@	c #EAFFFF",
"=@	c #E8FDFE",
"-@	c #CDE1E7",
";@	c #A4BBD4",
">@	c #F1F5FA",
",@	c #B8D7F6",
"'@	c #87BCF2",
")@	c #8FBFF0",
"!@	c #78B1E9",
"~@	c #72ACE6",
"{@	c #8CBCEA",
"]@	c #BBD5F0",
"^@	c #478FD6",
"/@	c #0C2542",
"(@	c #7F7F7F",
"_@	c #757C89",
":@	c #87ACCC",
"<@	c #A2D9F5",
"[@	c #A8E0FA",
"}@	c #ADE5FA",
"|@	c #BAEFFC",
"1@	c #C6F8FE",
"2@	c #D1FEFF",
"3@	c #E0FFFF",
"4@	c #E8FFFF",
"5@	c #EEFFFF",
"6@	c #F2FEFE",
"7@	c #EBF8FA",
"8@	c #BED2E1",
"9@	c #8EB4DE",
"0@	c #D0E7FB",
"a@	c #96CCFE",
"b@	c #80BEFC",
"c@	c #7EBAF8",
"d@	c #88BEF2",
"e@	c #6DAEEB",
"f@	c #88BAEB",
"g@	c #ABCDEE",
"h@	c #498ED4",
"i@	c #0D2034",
"j@	c #777777",
"k@	c #6D7176",
"l@	c #758DA5",
"m@	c #97C9E4",
"n@	c #ABE2F8",
"o@	c #AEE6FA",
"p@	c #B8EEFC",
"q@	c #C4F8FE",
"r@	c #D0FEFF",
"s@	c #E2FFFF",
"t@	c #F1FFFF",
"u@	c #F5FDFD",
"v@	c #DDE6EA",
"w@	c #A6BCD4",
"x@	c #92C6EF",
"y@	c #99D5FF",
"z@	c #8CCEFF",
"A@	c #89CAFF",
"B@	c #84C4FF",
"C@	c #82BFFC",
"D@	c #BDDCF8",
"E@	c #86BAEC",
"F@	c #70AAE3",
"G@	c #488BD2",
"H@	c #242C36",
"I@	c #6F6F6F",
"J@	c #656666",
"K@	c #646B76",
"L@	c #7C9BB2",
"M@	c #A1D1E8",
"N@	c #B2E8F8",
"O@	c #BBF0FC",
"P@	c #CFFDFF",
"Q@	c #E8FEFE",
"R@	c #EEFCFD",
"S@	c #E1EAEE",
"T@	c #B5BBC8",
"U@	c #94A4BB",
"V@	c #A2D0EA",
"W@	c #9DDDFD",
"X@	c #9ADCFF",
"Y@	c #96D8FF",
"Z@	c #90D1FF",
"`@	c #94D0FF",
" #	c #8CC2F9",
".#	c #BFDBF6",
"+#	c #7AB0E5",
"@#	c #5683B2",
"##	c #444446",
"$#	c #696969",
"%#	c #606060",
"&#	c #575859",
"*#	c #5C6570",
"=#	c #7C97AB",
"-#	c #A2CCDE",
";#	c #B6E8F4",
">#	c #CDFDFE",
",#	c #D5FEFE",
"'#	c #DCFCFD",
")#	c #DCF4F6",
"!#	c #D0E1E8",
"~#	c #B2C0D0",
"{#	c #979BB0",
"]#	c #9BA4B9",
"^#	c #C3D2DD",
"/#	c #AFE0EC",
"(#	c #A8E0F0",
"_#	c #A1E1FD",
":#	c #A2DCFF",
"<#	c #90CFFF",
"[#	c #87C0FA",
"}#	c #9FCAF3",
"|#	c #78ABDE",
"1#	c #717886",
"2#	c #4E4E52",
"3#	c #616161",
"4#	c #595959",
"5#	c #515151",
"6#	c #49494B",
"7#	c #4D545C",
"8#	c #687B8A",
"9#	c #89A9B7",
"0#	c #A5CBD7",
"a#	c #B6DDE5",
"b#	c #BBDDE4",
"c#	c #B7D6E0",
"d#	c #ADC8DC",
"e#	c #9BB8D4",
"f#	c #90B4D6",
"g#	c #97B1CA",
"h#	c #A7B8C8",
"i#	c #BDBAB6",
"j#	c #C5BF9C",
"k#	c #BFC49F",
"l#	c #B4D8D8",
"m#	c #9EDCFC",
"n#	c #98D0FE",
"o#	c #92C5F9",
"p#	c #8AB8E6",
"q#	c #8692A4",
"r#	c #86868B",
"s#	c #707074",
"t#	c #494949",
"u#	c #424242",
"v#	c #39393A",
"w#	c #36383B",
"x#	c #3E444B",
"y#	c #545E6B",
"z#	c #9BA8B7",
"A#	c #8E9AA8",
"B#	c #9098A8",
"C#	c #7997BA",
"D#	c #8CBBEC",
"E#	c #90C7FA",
"F#	c #9CD4F9",
"G#	c #A8CCD9",
"H#	c #C2B391",
"I#	c #DDB66D",
"J#	c #E0AE52",
"K#	c #DAB97A",
"L#	c #ADC9D1",
"M#	c #ACD4F8",
"N#	c #BED1E5",
"O#	c #76808E",
"P#	c #85858A",
"Q#	c #6B6B70",
"R#	c #84848A",
"S#	c #525252",
"T#	c #4A4A4A",
"U#	c #3A3A3A",
"V#	c #323232",
"W#	c #222223",
"X#	c #2B2B2C",
"Y#	c #B0B1B7",
"Z#	c #8D8E95",
"`#	c #95959B",
" $	c #79797E",
".$	c #6A7A8C",
"+$	c #81A8D0",
"@$	c #92C8FC",
"#$	c #A3C4DA",
"$$	c #CBBE95",
"%$	c #F0D792",
"&$	c #F2CB76",
"*$	c #E1AE4D",
"=$	c #BBA06A",
"-$	c #818483",
";$	c #5D5D60",
">$	c #6B6B6F",
",$	c #7E7E82",
"'$	c #67676C",
")$	c #939399",
"!$	c #434343",
"~$	c #3B3B3B",
"{$	c #232323",
"]$	c #1B1B1B",
"^$	c #2C2C2D",
"/$	c #BCBCC4",
"($	c #97979C",
"_$	c #94949A",
":$	c #7B7B7F",
"<$	c #616164",
"[$	c #4D4D50",
"}$	c #4E545E",
"|$	c #5F6D79",
"1$	c #96917C",
"2$	c #D5BF81",
"3$	c #F4DA93",
"4$	c #DBA443",
"5$	c #9A7133",
"6$	c #685D4F",
"7$	c #69696C",
"8$	c #7C7C81",
"9$	c #79797F",
"0$	c #8E8E94",
"a$	c #333333",
"b$	c #2B2B2B",
"c$	c #242424",
"d$	c #141414",
"e$	c #383839",
"f$	c #BCBCC1",
"g$	c #B8B8BE",
"h$	c #A8A8AC",
"i$	c #88888D",
"j$	c #737377",
"k$	c #626266",
"l$	c #58585A",
"m$	c #505053",
"n$	c #56514B",
"o$	c #8B7750",
"p$	c #D5B978",
"q$	c #F3D994",
"r$	c #F1CA75",
"s$	c #D6A144",
"t$	c #A07A43",
"u$	c #7E7367",
"v$	c #89898C",
"w$	c #8B8B90",
"x$	c #8E8E93",
"y$	c #090909",
"z$	c #3C3C3C",
"A$	c #2C2C2C",
"B$	c #1C1C1C",
"C$	c #0C0C0C",
"D$	c #464648",
"E$	c #B9B9C2",
"F$	c #B1B1B7",
"G$	c #C3C3C5",
"H$	c #AAAAAF",
"I$	c #8A8A8E",
"J$	c #7F7F85",
"K$	c #76767A",
"L$	c #716B66",
"M$	c #998460",
"N$	c #D3B97B",
"O$	c #F1D893",
"P$	c #F0C874",
"Q$	c #D6A147",
"R$	c #B28D56",
"S$	c #948980",
"T$	c #8B8B91",
"U$	c #8C8C92",
"V$	c #111112",
"W$	c #343434",
"X$	c #151515",
"Y$	c #040404",
"Z$	c #58585B",
"`$	c #BABAC0",
" %	c #B5B5BC",
".%	c #ADADB2",
"+%	c #B8B8BD",
"@%	c #C4C4C7",
"#%	c #AAAAAD",
"$%	c #8F8F95",
"%%	c #87878C",
"&%	c #85858B",
"*%	c #87827E",
"=%	c #9F8D6E",
"-%	c #D1B97F",
";%	c #F0D693",
">%	c #EBC474",
",%	c #C79547",
"'%	c #92765C",
")%	c #1A1A1B",
"!%	c #1D1D1D",
"~%	c #0D0D0D",
"{%	c #050505",
"]%	c #565659",
"^%	c #8F8F96",
"/%	c #B4B4BA",
"(%	c #B2B2B7",
"_%	c #ADADB3",
":%	c #B5B5B9",
"<%	c #C6C6C9",
"[%	c #C7C7C9",
"}%	c #C7C7CA",
"|%	c #C6C6C8",
"1%	c #BEBAB6",
"2%	c #B7A589",
"3%	c #CEB47E",
"4%	c #D6B97E",
"5%	c #B19066",
"6%	c #897870",
"7%	c #8A8A8F",
"8%	c #64646A",
"9%	c #242426",
"0%	c #252525",
"a%	c #636366",
"b%	c #B6B6BA",
"c%	c #C3C3C8",
"d%	c #C0C0C4",
"e%	c #BEBEC2",
"f%	c #BBBBC0",
"g%	c #B9B9BD",
"h%	c #B6B6BB",
"i%	c #B1B1B5",
"j%	c #ACABB1",
"k%	c #A8A8AE",
"l%	c #A7A7AE",
"m%	c #A7A29F",
"n%	c #A6937C",
"o%	c #A2886D",
"p%	c #93837E",
"q%	c #918D95",
"r%	c #9E9EA3",
"s%	c #909095",
"t%	c #323233",
"u%	c #1E1E1E",
"v%	c #0E0E0E",
"w%	c #202024",
"x%	c #6F6F7A",
"y%	c #51515A",
"z%	c #4D4D55",
"A%	c #575760",
"B%	c #5D5D68",
"C%	c #63636E",
"D%	c #6B6B76",
"E%	c #6F6F7B",
"F%	c #595860",
"G%	c #55555E",
"H%	c #48474E",
"I%	c #525259",
"J%	c #4F4B4D",
"K%	c #767075",
"L%	c #787681",
"M%	c #757581",
"N%	c #70707C",
"O%	c #72727E",
"P%	c #131315",
"Q%	c #161616",
"R%	c #060606",
"S%	c #111113",
"T%	c #686872",
"U%	c #474750",
"V%	c #3C3C43",
"W%	c #50505A",
"X%	c #585862",
"Y%	c #5C5C68",
"Z%	c #62626E",
"`%	c #656570",
" &	c #4C4C55",
".&	c #383840",
"+&	c #4A4A53",
"@&	c #42424C",
"#&	c #3A3A42",
"$&	c #666670",
"%&	c #696A68",
"&&	c #878950",
"*&	c #666671",
"=&	c #6D6D78",
"-&	c #0A0A0B",
";&	c #0F0F0F",
">&	c #070707",
",&	c #2B2B30",
"'&	c #1B1B1E",
")&	c #101012",
"!&	c #17171B",
"~&	c #1D1D20",
"{&	c #1F1F23",
"]&	c #151517",
"^&	c #151518",
"/&	c #0F0F11",
"(&	c #141417",
"_&	c #121214",
":&	c #100F12",
"<&	c #171719",
"[&	c #171915",
"}&	c #18181B",
"|&	c #202023",
"1&	c #010101",
". . . . . . . . . . . . . . . . . . . . . . . . . . . . . . . . ",
". . . . . . . . . . . . . . . . . . . . . . . . . . . . . . . . ",
". . + @ # $ % & * = - ; > , ' ) ! ~ { ] ^ / ( _ : < [ } | 1 . . ",
". . @ # 2 % & * = - 3 4 5 6 7 8 9 0 a b c d e f g [ h | 1 . . . ",
". . i 2 j k l m n o p q r s t u v w x x y z A B C D | E . . . . ",
". . 2 j k F G H I J K L M N O P Q R S T U V W X Y Z ` . . . . . ",
". .  ...+.@.#.$.%.&.*.=.-.;.>.,.'.).!.~.{.].^./.(._.:.<.. . . . ",
". . ..[.}.|.1.2.3.4.5.6.7.8.9.0.a.b.c.d.e.f.g.h.i.j.k.l.. . . . ",
". . m.n.o.p.q.r.s.t.u.v.v.w.x.y.z.A.B.C.D.E.F.G.H.I.J.K.L.. . . ",
". . M.N.O.P.6.Q.R.S.T.U.V.W.W.X.Y.Z.`. +.+++@+#+$+%+&+*+=+. . . ",
". . -+;+>+,+5.'+)+!+~+{+]+^+/+(+_+:+<+[+}+|+1+2+3+4+5+6+7+. . . ",
". . 8+9+0+a+b+c+d+e+f+g+h+i+j+k+l+m+n+o+p+q+r+s+t+u+v+w+x+. . . ",
". . y+z+A+B+7.C+D+E+F+G+H+H+I+J+K+L+M+N+O+P+Q+R+S+T+U+V+W+. . . ",
". . X+Y+Z+`+ @6..@+@@@#@$@%@&@*@=@-@;@>@,@'@)@!@~@{@]@^@/@. . . ",
". . (@_@:@<@[@}@|@1@2@l+3@4@5@6@7@8@9@0@a@b@c@d@e@f@g@h@i@. . . ",
". . j@k@l@m@n@o@p@q@r@k+s@*@t@u@v@w@x@y@z@A@B@C@D@E@F@G@H@. . . ",
". . I@J@K@L@M@N@O@q@P@l+3@Q@R@S@T@U@V@W@X@Y@Z@`@ #.#+#@###. . . ",
". . $#%#&#*#=#-#;#W.>#,#'#)#!#~#{#]#^#/#(#_#:#<#[#}#|#1#2#. . . ",
". . 3#4#5#6#7#8#9#0#a#b#c#d#e#f#g#h#i#j#k#l#m#n#o#p#q#r#s#. . . ",
". . 4#5#t#u#v#w#x#y#z#A#B#C#D#E#F#G#H#I#J#K#L#M#N#O#P#Q#R#. . . ",
". . S#T#u#U#V#: W#X#Y#Z#`# $.$+$@$#$$$%$&$*$=$-$;$>$,$'$)$. . . ",
". . T#!$~$V#: {$]$^$/$($_$:$<$[$}$|$1$2$3$&$4$5$6$7$8$9$0$E . . ",
". . u#~$a$b$c$]$d$e$f$g$h$i$j$k$l$m$n$o$p$q$r$s$t$u$v$w$x$y$. . ",
". . z$a$A${$B$d$C$D$E$F$G$H$I$J$K$s#Q#L$M$N$O$P$Q$R$S$T$U$V$. . ",
". . W$A$c$B$X$C$Y$Z$`$ %.%+%@%#%$%I$%%&%*%=%-%;%>%,%'%U$w$)%. . ",
". . A$c$!%d$~%{%. ]%^%/%(%_%h$:%<%[%}%|%G$1%2%3%4%5%6%7%8%9%. . ",
". . 0%!%X$~%{%. . a%b%c%d%e%f%g%h%i%j%k%k%l%m%n%o%p%q%r%s%t%. . ",
". . u%X$v%{%. . . w%x%y%z%A%B%C%D%E%F%G%H%A%I%J%K%L%M%N%O%P%. . ",
". . Q%v%R%. . . . S%T%U%V%W%X%Y%Z%`% & &.&+&@&#&$&%&&&*&=&-&. . ",
". . ;&>&. . . . . E ,&'&)&)&!&~&{&~&]&^&/&(&_&:&'&<&[&}&|&1&. . ",
". . . . . . . . . . . . . . . . . . . . . . . . . . . . . . . . ",
". . . . . . . . . . . . . . . . . . . . . . . . . . . . . . . . "};
