/* XPM */
static char * toggle_display_all_servers_xpm[] = {
"32 32 674 2",
"  	c None",
". 	c #000000",
"+ 	c #000001",
"@ 	c #000102",
"# 	c #00060C",
"$ 	c #001C32",
"% 	c #011728",
"& 	c #000E1B",
"* 	c #000D19",
"= 	c #001323",
"- 	c #001B30",
"; 	c #00223D",
"> 	c #002341",
", 	c #001325",
"' 	c #000103",
") 	c #DBDBDB",
"! 	c #D4D4D4",
"~ 	c #CECECE",
"{ 	c #C7C7C7",
"] 	c #AEB5BB",
"^ 	c #90ABC1",
"/ 	c #AFB2B5",
"( 	c #A0A8AF",
"_ 	c #849EB5",
": 	c #6B95BA",
"< 	c #4D8EC6",
"[ 	c #368BD5",
"} 	c #2988DB",
"| 	c #2785D8",
"1 	c #2C80C8",
"2 	c #3A78AE",
"3 	c #3D709C",
"4 	c #42627F",
"5 	c #5B5F64",
"6 	c #5D5D5D",
"7 	c #565656",
"8 	c #4F4F4F",
"9 	c #484848",
"0 	c #424242",
"a 	c #3B3B3B",
"b 	c #353535",
"c 	c #2E2E2E",
"d 	c #272727",
"e 	c #CDCDCD",
"f 	c #95ABBD",
"g 	c #AEB6BD",
"h 	c #AFB0B2",
"i 	c #8FA4B7",
"j 	c #689CC9",
"k 	c #4C9EE4",
"l 	c #45A1F3",
"m 	c #41A0F6",
"n 	c #3C9FF9",
"o 	c #399EFA",
"p 	c #379CFA",
"q 	c #3599F6",
"r 	c #2C91EE",
"s 	c #2287E3",
"t 	c #2879BF",
"u 	c #47749A",
"v 	c #4A5A68",
"w 	c #4E4F51",
"x 	c #414141",
"y 	c #3A3A3A",
"z 	c #343434",
"A 	c #2D2D2D",
"B 	c #202020",
"C 	c #C5C5C5",
"D 	c #91ABC1",
"E 	c #B7B8B9",
"F 	c #ADB0B2",
"G 	c #86A2BB",
"H 	c #63A6DD",
"I 	c #6DBDF5",
"J 	c #76C7FB",
"K 	c #69BDFE",
"L 	c #59B4FE",
"M 	c #50AEFE",
"N 	c #4DADFE",
"O 	c #4BABFC",
"P 	c #49A7FA",
"Q 	c #44A3FA",
"R 	c #409DF6",
"S 	c #5DA7E9",
"T 	c #7EB3DF",
"U 	c #5A8BB6",
"V 	c #435D77",
"W 	c #404245",
"X 	c #393939",
"Y 	c #333333",
"Z 	c #262626",
"` 	c #1F1F1F",
" .	c #181818",
"..	c #93AABD",
"+.	c #B5B6B7",
"@.	c #AEAFB1",
"#.	c #85A1BA",
"$.	c #6AADE3",
"%.	c #97D6FD",
"&.	c #A9E8FE",
"*.	c #89D7FE",
"=.	c #69C0FF",
"-.	c #5AB8FF",
";.	c #56B5FF",
">.	c #56B2FA",
",.	c #5EAEEF",
"'.	c #6EB5EF",
").	c #76BAF2",
"!.	c #8AC3F4",
"~.	c #B4D9F6",
"{.	c #B2DAFA",
"].	c #82BAEC",
"^.	c #5A91C1",
"/.	c #3F556B",
"(.	c #323436",
"_.	c #2C2C2C",
":.	c #252525",
"<.	c #1E1E1E",
"[.	c #111111",
"}.	c #A9B1B7",
"|.	c #ADB4BA",
"1.	c #B0B0B0",
"2.	c #8DA2B5",
"3.	c #6BA9DC",
"4.	c #A3DAFD",
"5.	c #C8F3FF",
"6.	c #9AE0FF",
"7.	c #6FC5FF",
"8.	c #5DBAFF",
"9.	c #5AB9FF",
"0.	c #5BBBFF",
"a.	c #5DB9F9",
"b.	c #68B2E9",
"c.	c #8ABEE9",
"d.	c #ABD6F4",
"e.	c #C0E3F9",
"f.	c #BEE3FD",
"g.	c #A8D9FE",
"h.	c #9ED3FB",
"i.	c #87C0EC",
"j.	c #5C8CB4",
"k.	c #323D48",
"l.	c #232425",
"m.	c #1D1D1D",
"n.	c #171717",
"o.	c #101010",
"p.	c #090909",
"q.	c #8EA8BE",
"r.	c #9CA4AB",
"s.	c #6DA0C7",
"t.	c #86C8F4",
"u.	c #C5F1FE",
"v.	c #A3E3FF",
"w.	c #71C7FF",
"x.	c #5CBAFF",
"y.	c #5ABAFF",
"z.	c #5EBDFE",
"A.	c #63C0FE",
"B.	c #67C3FD",
"C.	c #6BBFF4",
"D.	c #7CBCEA",
"E.	c #A0D1F4",
"F.	c #B2E0FD",
"G.	c #AEDEFE",
"H.	c #ABDCFE",
"I.	c #A9DBFD",
"J.	c #A2D5F9",
"K.	c #7FB3DB",
"L.	c #43627B",
"M.	c #202224",
"N.	c #161616",
"O.	c #0F0F0F",
"P.	c #020202",
"Q.	c #00070D",
"R.	c #ACAEB0",
"S.	c #A8A8A8",
"T.	c #819CB3",
"U.	c #5CA9E4",
"V.	c #9DDFFB",
"W.	c #A4E6FE",
"X.	c #75CAFF",
"Y.	c #60BEFE",
"Z.	c #6DC5FD",
"`.	c #7ACAFA",
" +	c #84CEF9",
".+	c #8ACEF5",
"++	c #8EC6EA",
"@+	c #9FC9E9",
"#+	c #B3D9F4",
"$+	c #B8DDF4",
"%+	c #B7DBF3",
"&+	c #B6D9F2",
"*+	c #B3D6F0",
"=+	c #A4CAE7",
"-+	c #7A99B4",
";+	c #595E63",
">+	c #363636",
",+	c #1A1A1A",
"'+	c #070707",
")+	c #011C32",
"!+	c #A7A7A7",
"~+	c #9A9DA1",
"{+	c #6B93B9",
"]+	c #5DAFF4",
"^+	c #8DD7FE",
"/+	c #79CBFF",
"(+	c #5DB9FF",
"_+	c #58B7FF",
":+	c #60BDFE",
"<+	c #86CBF8",
"[+	c #B2D8EF",
"}+	c #C7DCE9",
"|+	c #C5D6E0",
"1+	c #BFCFD8",
"2+	c #BDCBD3",
"3+	c #BEC9D1",
"4+	c #C2CCD3",
"5+	c #C4CCD2",
"6+	c #C3CCD1",
"7+	c #C2CBD1",
"8+	c #C1CAD0",
"9+	c #BFC9CF",
"0+	c #B4BDC4",
"a+	c #A4A7AA",
"b+	c #A2A3A3",
"c+	c #9C9D9D",
"d+	c #6E6E6E",
"e+	c #0E0E0E",
"f+	c #021728",
"g+	c #A0A0A0",
"h+	c #8A959E",
"i+	c #508EC6",
"j+	c #58ACF6",
"k+	c #70C2FE",
"l+	c #5FB9FF",
"m+	c #5AB9FE",
"n+	c #75C1F5",
"o+	c #A9C3D6",
"p+	c #AAADAF",
"q+	c #A4AAAB",
"r+	c #A4ACB0",
"s+	c #A0ACB0",
"t+	c #9EABB0",
"u+	c #9DABB1",
"v+	c #9BAAB1",
"w+	c #98A9B1",
"x+	c #95A7AF",
"y+	c #8FA5AF",
"z+	c #8EA5B1",
"A+	c #8CA4B0",
"B+	c #89A1AD",
"C+	c #879CA6",
"D+	c #839299",
"E+	c #848D90",
"F+	c #8B8F90",
"G+	c #686868",
"H+	c #010B13",
"I+	c #989898",
"J+	c #7D8D9C",
"K+	c #398BD5",
"L+	c #4AA4F8",
"M+	c #58B2FE",
"N+	c #53B1FF",
"O+	c #54B4FF",
"P+	c #5CB9FB",
"Q+	c #79AED2",
"R+	c #8B9499",
"S+	c #727F82",
"T+	c #5F8A98",
"U+	c #598FA7",
"V+	c #5991AC",
"W+	c #5D94AE",
"X+	c #6297B0",
"Y+	c #578FAA",
"Z+	c #4B87A6",
"`+	c #4286AB",
" @	c #4189B5",
".@	c #3982B3",
"+@	c #307AA6",
"@@	c #296887",
"#@	c #244A5A",
"$@	c #344D56",
"%@	c #60747B",
"&@	c #6B7071",
"*@	c #222222",
"=@	c #000305",
"-@	c #919191",
";@	c #758898",
">@	c #2D89DD",
",@	c #3E9DF9",
"'@	c #4BA9FE",
")@	c #4FAEFF",
"!@	c #55B4FF",
"~@	c #5CB8F9",
"{@	c #6F98B4",
"]@	c #757B7F",
"^@	c #55747F",
"/@	c #448DAD",
"(@	c #4FA8D1",
"_@	c #50AEDB",
":@	c #52B1DE",
"<@	c #52B3E0",
"[@	c #53B5DD",
"}@	c #43A7CD",
"|@	c #3AA5CF",
"1@	c #3FAFDE",
"2@	c #3EAFE6",
"3@	c #32A4E0",
"4@	c #2296CF",
"5@	c #167BA3",
"6@	c #085366",
"7@	c #15404F",
"8@	c #3E5E69",
"9@	c #657074",
"0@	c #2B2B2B",
"a@	c #000204",
"b@	c #898989",
"c@	c #6F8191",
"d@	c #2B86D9",
"e@	c #3899F8",
"f@	c #46A4FE",
"g@	c #4DACFF",
"h@	c #55B3FF",
"i@	c #5DB7F8",
"j@	c #6990AB",
"k@	c #71787C",
"l@	c #4D7685",
"m@	c #4293B7",
"n@	c #48B2DB",
"o@	c #46B6E1",
"p@	c #46B7E3",
"q@	c #46B8E4",
"r@	c #48B8DE",
"s@	c #3BAFD4",
"t@	c #3EB8E1",
"u@	c #42BDEB",
"v@	c #3BB7EB",
"w@	c #2FACE5",
"x@	c #20A0D6",
"y@	c #1483AB",
"z@	c #086074",
"A@	c #114D62",
"B@	c #386271",
"C@	c #617075",
"D@	c #01060B",
"E@	c #828282",
"F@	c #6B7A87",
"G@	c #2F7FC8",
"H@	c #3395F4",
"I@	c #42A1FE",
"J@	c #4CAAFF",
"K@	c #54B2FF",
"L@	c #5CB6F8",
"M@	c #688FAA",
"N@	c #70787B",
"O@	c #4A7585",
"P@	c #3B8FB4",
"Q@	c #39ABD5",
"R@	c #37B1DB",
"S@	c #37B2DD",
"T@	c #38B4DE",
"U@	c #35AFD4",
"V@	c #32B0D5",
"W@	c #39BAE2",
"X@	c #39BBE7",
"Y@	c #33B6E8",
"Z@	c #28ADE2",
"`@	c #1AA2D4",
" #	c #1088AC",
".#	c #086A7E",
"+#	c #125B71",
"@#	c #386C7E",
"##	c #607176",
"$#	c #2A2A2A",
"%#	c #02111E",
"&#	c #7B7B7B",
"*#	c #69737B",
"=#	c #3A77AC",
"-#	c #3090EE",
";#	c #3F9FFD",
">#	c #4AA7FE",
",#	c #52AFFF",
"'#	c #5AB3F8",
")#	c #668FAD",
"!#	c #6F777C",
"~#	c #467382",
"{#	c #2582AB",
"]#	c #26A1CB",
"^#	c #2AAAD3",
"/#	c #2CADD6",
"(#	c #2EB0D6",
"_#	c #25A9CF",
":#	c #2AB0D7",
"<#	c #32B9E1",
"[#	c #2FB7E3",
"}#	c #2AB3E3",
"|#	c #21ACDD",
"1#	c #12A0CE",
"2#	c #0A89AB",
"3#	c #077187",
"4#	c #146881",
"5#	c #39758A",
"6#	c #5E7076",
"7#	c #282828",
"8#	c #02192C",
"9#	c #737373",
"0#	c #686B6E",
"a#	c #466C8F",
"b#	c #2B8AE2",
"c#	c #3A9AFA",
"d#	c #50ABFF",
"e#	c #58B0F9",
"f#	c #6490B2",
"g#	c #6E777E",
"h#	c #477280",
"i#	c #1E7EA6",
"j#	c #1C99C0",
"k#	c #1EA1C8",
"l#	c #21A5CB",
"m#	c #22A7CB",
"n#	c #1EA6CC",
"o#	c #24AFD5",
"p#	c #2AB4DC",
"q#	c #27B3DE",
"r#	c #22B0DD",
"s#	c #19AAD7",
"t#	c #0E9EC7",
"u#	c #098AA9",
"v#	c #097A91",
"w#	c #177591",
"x#	c #3A7E96",
"y#	c #5B6F75",
"z#	c #252424",
"A#	c #000F1B",
"B#	c #6C6C6C",
"C#	c #656565",
"D#	c #4D6275",
"E#	c #2B79C2",
"F#	c #3391F0",
"G#	c #429EFC",
"H#	c #4CA7FE",
"I#	c #54ACF9",
"J#	c #6191BA",
"K#	c #6C787F",
"L#	c #4B737F",
"M#	c #1F7EA3",
"N#	c #1C98BF",
"O#	c #1C9FC5",
"P#	c #1CA1C7",
"Q#	c #1FA7CB",
"R#	c #1FAACF",
"S#	c #22AED4",
"T#	c #22B0D8",
"U#	c #20AFDA",
"V#	c #1BACD8",
"W#	c #12A6D2",
"X#	c #0B9BC1",
"Y#	c #098AA6",
"Z#	c #0C839E",
"`#	c #1A82A1",
" $	c #3C859E",
".$	c #586B72",
"+$	c #1F1F1E",
"@$	c #586571",
"#$	c #51565B",
"$$	c #34628D",
"%$	c #2B84DC",
"&$	c #3A96F5",
"*$	c #46A0FC",
"=$	c #4FA6FA",
"-$	c #5D92C4",
";$	c #6B7781",
">$	c #50727C",
",$	c #1B7A9D",
"'$	c #1A95BC",
")$	c #1B9FC5",
"!$	c #1BA1C7",
"~$	c #1DA6CC",
"{$	c #1EA8CF",
"]$	c #1DAAD1",
"^$	c #1CAAD3",
"/$	c #1AAAD4",
"($	c #15A8D2",
"_$	c #0EA3CC",
":$	c #0A98BA",
"<$	c #0D90AD",
"[$	c #1A94AF",
"}$	c #2B97B5",
"|$	c #438DA4",
"1$	c #54666D",
"2$	c #1A1919",
"3$	c #475865",
"4$	c #3C4C5A",
"5$	c #2866A0",
"6$	c #2D87E1",
"7$	c #3D97F4",
"8$	c #499EF7",
"9$	c #5993CD",
"0$	c #6A7682",
"a$	c #57717A",
"b$	c #177394",
"c$	c #168CB2",
"d$	c #1899BF",
"e$	c #189DC2",
"f$	c #1BA0C5",
"g$	c #1DA4C8",
"h$	c #1EA7CA",
"i$	c #1DA9CD",
"j$	c #1EACD0",
"k$	c #1EADD1",
"l$	c #1CAACD",
"m$	c #23A8C4",
"n$	c #37AFC5",
"o$	c #51BACB",
"p$	c #56BACE",
"q$	c #5C98A7",
"r$	c #4D5557",
"s$	c #121212",
"t$	c #535353",
"u$	c #3E5263",
"v$	c #404142",
"w$	c #2D465C",
"x$	c #2065A4",
"y$	c #2C84DC",
"z$	c #4899EA",
"A$	c #6A9DCE",
"B$	c #6C7781",
"C$	c #5F7379",
"D$	c #196F8C",
"E$	c #1785AA",
"F$	c #1A95BA",
"G$	c #1C9CBF",
"H$	c #20A1C4",
"I$	c #24A7C9",
"J$	c #2AACCF",
"K$	c #31B5D6",
"L$	c #3EC0E0",
"M$	c #4ECDE9",
"N$	c #5CD6EC",
"O$	c #60D1E5",
"P$	c #55C5DD",
"Q$	c #5CC2D9",
"R$	c #72ADBC",
"S$	c #6C7A7E",
"T$	c #363637",
"U$	c #050505",
"V$	c #4E4E4E",
"W$	c #424344",
"X$	c #364653",
"Y$	c #313335",
"Z$	c #22394D",
"`$	c #1D598F",
" %	c #4F94CF",
".%	c #8FB6D4",
"+%	c #7B8185",
"@%	c #677579",
"#%	c #1E6C87",
"$%	c #1982A8",
"%%	c #2C9DC4",
"&%	c #36AACF",
"*%	c #40B4D8",
"=%	c #4BC0E2",
"-%	c #56CBEB",
";%	c #62D5EF",
">%	c #66D4EF",
",%	c #60CCE9",
"'%	c #5BC2E1",
")%	c #69BBD4",
"!%	c #7FAEBD",
"~%	c #85999E",
"{%	c #717778",
"]%	c #151515",
"^%	c #464646",
"/%	c #404040",
"(%	c #343537",
"_%	c #293B4A",
":%	c #242527",
"<%	c #1C2935",
"[%	c #335976",
"}%	c #507EA0",
"|%	c #5C6C79",
"1%	c #4E8399",
"2%	c #3692B9",
"3%	c #4DB1DB",
"4%	c #5EC1E7",
"5%	c #65C5E8",
"6%	c #62C1E3",
"7%	c #5DB9DB",
"8%	c #62B5D3",
"9%	c #74B5CB",
"0%	c #89AFBD",
"a%	c #8EA0A6",
"b%	c #8B9295",
"c%	c #8C8F91",
"d%	c #808080",
"e%	c #3F3F3F",
"f%	c #131313",
"g%	c #383838",
"h%	c #313131",
"i%	c #282929",
"j%	c #1F303E",
"k%	c #161617",
"l%	c #11161A",
"m%	c #11202C",
"n%	c #2F363E",
"o%	c #6F7071",
"p%	c #8C9DA4",
"q%	c #76A6BC",
"r%	c #6CA8C3",
"s%	c #71ABC3",
"t%	c #7DAEC1",
"u%	c #8DADBA",
"v%	c #94A5AC",
"w%	c #91999B",
"x%	c #888A8B",
"y%	c #818282",
"z%	c #878686",
"A%	c #979797",
"B%	c #9F9F9F",
"C%	c #0B0B0B",
"D%	c #373737",
"E%	c #242424",
"F%	c #1C1C1C",
"G%	c #131C22",
"H%	c #0F1E29",
"I%	c #0C0D0D",
"J%	c #010102",
"K%	c #3C3C3C",
"L%	c #838283",
"M%	c #9C9D9E",
"N%	c #979898",
"O%	c #8C8D8D",
"P%	c #848484",
"Q%	c #8A8A8A",
"R%	c #929292",
"S%	c #ADADAD",
"T%	c #BCBCBC",
"U%	c #BBBBBB",
"V%	c #787878",
"W%	c #303030",
"X%	c #232323",
"Y%	c #060606",
"Z%	c #676767",
"`%	c #969696",
" &	c #A1A1A1",
".&	c #A2A2A2",
"+&	c #9B9B9B",
"@&	c #9D9D9D",
"#&	c #A6A6A6",
"$&	c #B4B4B4",
"%&	c #BABABA",
"&&	c #292929",
"*&	c #1B1B1B",
"=&	c #141414",
"-&	c #0D0D0D",
";&	c #010101",
">&	c #040404",
",&	c #858585",
"'&	c #C2C2C2",
")&	c #C8C8C8",
"!&	c #B5B5B5",
"~&	c #A9A9A9",
"{&	c #AAAAAA",
"]&	c #ABABAB",
"^&	c #9C9C9C",
"/&	c #696969",
"(&	c #212121",
"_&	c #606060",
":&	c #8E8E8E",
"<&	c #B2B2B2",
"[&	c #B6B6B6",
"}&	c #595959",
"|&	c #0A0A0A",
"1&	c #0C0C0C",
". . . . . . . . . . . . + @ . . . . . . . . . . . . . . . . . . ",
". . . . . . . . # $ % & * = - ; > , ' . . . . . . . . . . . . . ",
". . ) ! ~ { ] ^ / ( _ : < [ } | 1 2 3 4 5 6 7 8 9 0 a b c d . . ",
". . ! e { f g h i j k l m n o p q r s t u v w 9 x y z A d B . . ",
". . e C D E F G H I J K L M N O P Q R S T U V W X Y A Z `  .. . ",
". . C ..+.@.#.$.%.&.*.=.-.;.>.,.'.).!.~.{.].^./.(._.:.<. .[.. . ",
". . }.|.1.2.3.4.5.6.7.8.9.0.a.b.c.d.e.f.g.h.i.j.k.l.m.n.o.p.. . ",
". . q.1.r.s.t.u.v.w.x.y.z.A.B.C.D.E.F.G.H.I.J.K.L.M.N.O.p.P.. . ",
". Q.R.S.T.U.V.W.X.8.y.Y.Z.`. +.+++@+#+$+%+&+*+=+-+;+>+,+'+. . . ",
". )+!+~+{+]+^+/+(+_+:+<+[+}+|+1+2+3+4+5+6+7+8+9+0+a+b+c+d+e+. . ",
". f+g+h+i+j+k+l+;.m+n+o+p+q+r+s+t+u+v+w+x+y+z+A+B+C+D+E+F+G+p.. ",
". H+I+J+K+L+M+N+O+P+Q+R+S+T+U+V+W+X+X+Y+Z+`+ @.@+@@@#@$@%@&@*@. ",
"@ =@-@;@>@,@'@)@!@~@{@]@^@/@(@_@:@<@[@}@|@1@2@3@4@5@6@7@8@9@0@. ",
"a@a@b@c@d@e@f@g@h@i@j@k@l@m@n@o@p@q@r@s@t@u@v@w@x@y@z@A@B@C@0@. ",
". D@E@F@G@H@I@J@K@L@M@N@O@P@Q@R@S@T@U@V@W@X@Y@Z@`@ #.#+#@###$#. ",
". %#&#*#=#-#;#>#,#'#)#!#~#{#]#^#/#(#_#:#<#[#}#|#1#2#3#4#5#6#7#. ",
". 8#9#0#a#b#c#f@d#e#f#g#h#i#j#k#l#m#n#o#p#q#r#s#t#u#v#w#x#y#z#. ",
". A#B#C#D#E#F#G#H#I#J#K#L#M#N#O#P#Q#R#S#T#U#V#W#X#Y#Z#`# $.$+$. ",
". . @$6 #$$$%$&$*$=$-$;$>$,$'$)$!$~${$]$^$/$($_$:$<$[$}$|$1$2$. ",
". . 3$7 8 4$5$6$7$8$9$0$a$b$c$d$e$f$g$h$i$j$k$l$m$n$o$p$q$r$s$. ",
". . t$u$9 v$w$x$y$z$A$B$C$D$E$F$G$H$I$J$K$L$M$N$O$P$Q$R$S$T$U$. ",
". . V$W$X$y Y$Z$`$ %.%+%@%#%$%%%&%*%=%-%;%>%,%'%)%!%~%{%a ]%. . ",
". . ^%/%(%_%_.:%<%[%}%|%N@1%2%3%4%5%6%7%8%9%0%a%b%c%d%e%f%. . . ",
". . e%g%h%i%j%<.k%l%m%n%o%p%q%r%s%t%u%v%w%F+x%y%z%A%B%6 C%. . . ",
". . D%h%$#E%F%G%H%I%J%p.K%L%M%M%N%O%y%P%b@Q%Q%R%S%T%U%V%N.. . . ",
". . W%$#X%F%]%e+Y%e+P.. s$Z%`% &.& &+&@&#&!+ &#&$&%&1.C#C%. . . ",
". . &&*@*&=&-&'+;&. [.. >&>+,&1.%&'&)&{ !&!+~&{&]&^&/&A . . . . ",
". . (&,+f%-&Y%. . . ;&e+. U$_._&:&~&<&[&S.^&R%V%}&g%n.p.. . . . ",
". . ,+f%-&U$. . . . . |&O.. ;&1&B c z >+Y A E%n.|&-&|&. . . . . ",
". . s$C%U$. . . . . . . P.n.O.. . . . . . >&O.f%1&. . . . . . . ",
". . . . . . . . . . . . . . . U$|&1&1&p.Y%. . . . . . . . . . . ",
". . . . . . . . . . . . . . . . . . . . . . . . . . . . . . . . "};
