/* XPM */
static char * toggle_display_all_servers_mini_xpm[] = {
"22 22 365 2",
"  	c None",
". 	c #000000",
"+ 	c #000102",
"@ 	c #00070C",
"# 	c #00050A",
"$ 	c #000204",
"% 	c #000203",
"& 	c #000408",
"* 	c #00060B",
"= 	c #565656",
"- 	c #848484",
"; 	c #7E7E7E",
"> 	c #6F767B",
", 	c #67717A",
"' 	c #5F6C76",
") 	c #586978",
"! 	c #4C677F",
"~ 	c #3F698C",
"{ 	c #38668D",
"] 	c #345A7B",
"^ 	c #374F65",
"/ 	c #37434D",
"( 	c #3A3B3B",
"_ 	c #353535",
": 	c #2F2F2F",
"< 	c #292929",
"[ 	c #232323",
"} 	c #1E1E1E",
"| 	c #0F0F0F",
"1 	c #C6C8C9",
"2 	c #ABB7C0",
"3 	c #ACB2B8",
"4 	c #A1AAB2",
"5 	c #799EBE",
"6 	c #589AD5",
"7 	c #4698E1",
"8 	c #3696EC",
"9 	c #3194ED",
"0 	c #318CDE",
"a 	c #2F80C9",
"b 	c #3C6E9B",
"c 	c #4D6071",
"d 	c #4A4D4F",
"e 	c #434343",
"f 	c #393939",
"g 	c #303030",
"h 	c #272727",
"i 	c #131313",
"j 	c #7D7D7D",
"k 	c #AAB6BF",
"l 	c #ADB2B8",
"m 	c #9AA9B5",
"n 	c #77AAD2",
"o 	c #78C2F2",
"p 	c #6FC2FC",
"q 	c #5AB4FD",
"r 	c #4FAEFE",
"s 	c #4EABFA",
"t 	c #50A9F7",
"u 	c #4FA5F5",
"v 	c #74B2E7",
"w 	c #72A1CB",
"x 	c #496680",
"y 	c #383C40",
"z 	c #252525",
"A 	c #1C1C1C",
"B 	c #0D0D0D",
"C 	c #6D7479",
"D 	c #ABB1B6",
"E 	c #A1A9B0",
"F 	c #7CABD1",
"G 	c #9FD7F7",
"H 	c #9CDFFE",
"I 	c #6FC5FF",
"J 	c #5CB9FF",
"K 	c #59B7FD",
"L 	c #62B2EF",
"M 	c #85BFEE",
"N 	c #A1D1F5",
"O 	c #B5DDFA",
"P 	c #9CCFF8",
"Q 	c #6FA2CD",
"R 	c #3F566B",
"S 	c #232527",
"T 	c #1A1A1A",
"U 	c #111111",
"V 	c #050505",
"W 	c #656F78",
"X 	c #A4A8AC",
"Y 	c #7C9FBB",
"Z 	c #90CDF2",
"` 	c #ABE5FE",
" .	c #76C9FF",
"..	c #5DBBFF",
"+.	c #60BEFE",
"@.	c #68C2FD",
"#.	c #6FC1F5",
"$.	c #8CC4ED",
"%.	c #AEDAF8",
"&.	c #B1DEFC",
"*.	c #ABDAFB",
"=.	c #9BCCEF",
"-.	c #658BAA",
";.	c #353C42",
">.	c #171717",
",.	c #070707",
"'.	c #010101",
").	c #00070D",
"!.	c #606970",
"~.	c #919CA6",
"{.	c #64A2D5",
"].	c #90D8FB",
"^.	c #7ACCFF",
"/.	c #5DBAFF",
"(.	c #67C0FD",
"_.	c #8ACDF7",
":.	c #A1D2F0",
"<.	c #A4CFE8",
"[.	c #A8C9DE",
"}.	c #B6CFE2",
"|.	c #BDD4E3",
"1.	c #BCD3E2",
"2.	c #B8CFE0",
"3.	c #A1B8CA",
"4.	c #757B81",
"5.	c #5E5E5E",
"6.	c #464646",
"7.	c #060606",
"8.	c #5D6368",
"9.	c #7790A7",
"0.	c #55A0E2",
"a.	c #6EC0FD",
"b.	c #5DB8FF",
"c.	c #5DB9FC",
"d.	c #87BFE5",
"e.	c #A4B4BE",
"f.	c #A4B1B7",
"g.	c #A0B1B8",
"h.	c #9EAFB7",
"i.	c #9DAFB8",
"j.	c #9AADB7",
"k.	c #94AAB5",
"l.	c #90A9B7",
"m.	c #8BA5B3",
"n.	c #8499A4",
"o.	c #7F8B90",
"p.	c #797F80",
"q.	c #3B3B3B",
"r.	c #030303",
"s.	c #595B5D",
"t.	c #6288AB",
"u.	c #3E98EB",
"v.	c #51AEFE",
"w.	c #53B2FF",
"x.	c #5FB5F2",
"y.	c #7B98AB",
"z.	c #6A7F87",
"A.	c #5491AA",
"B.	c #559CBE",
"C.	c #59A1C3",
"D.	c #5CA3C3",
"E.	c #4C98B8",
"F.	c #4295BC",
"G.	c #3E97C8",
"H.	c #308BBE",
"I.	c #216E91",
"J.	c #1F4D5D",
"K.	c #49616A",
"L.	c #4F5355",
"M.	c #535455",
"N.	c #5881A5",
"O.	c #3493EC",
"P.	c #48A6FE",
"Q.	c #52B0FF",
"R.	c #5EB0EC",
"S.	c #6E8696",
"T.	c #557987",
"U.	c #459EC3",
"V.	c #49B2DD",
"W.	c #49B6E2",
"X.	c #4AB7DF",
"Y.	c #3DAFD5",
"Z.	c #3FB6E3",
"`.	c #3AB3E8",
" +	c #28A3DB",
".+	c #157FA6",
"++	c #0D5569",
"@+	c #325A69",
"#+	c #4B5457",
"$+	c #0E0E0E",
"%+	c #000407",
"&+	c #4B4F53",
"*+	c #577794",
"=+	c #328ADE",
"-+	c #42A2FD",
";+	c #50ADFF",
">+	c #5CAEEC",
",+	c #6B8494",
"'+	c #4F7787",
")+	c #3397BE",
"!+	c #33ADD6",
"~+	c #34B1DB",
"{+	c #31AFD5",
"]+	c #31B3D9",
"^+	c #36BAE4",
"/+	c #2EB4E5",
"(+	c #1EA7D9",
"_+	c #0E87AA",
":+	c #0D667C",
"<+	c #32697C",
"[+	c #495457",
"}+	c #00060C",
"|+	c #41494F",
"1+	c #586A7A",
"2+	c #3380C7",
"3+	c #3D9CFA",
"4+	c #4DA9FF",
"5+	c #5AABED",
"6+	c #698498",
"7+	c #4B7584",
"8+	c #208BB3",
"9+	c #21A2CA",
"0+	c #25A9CF",
"a+	c #22A8CE",
"b+	c #28B1D8",
"c+	c #2BB5DF",
"d+	c #23B0DE",
"e+	c #15A5D1",
"f+	c #0A89AA",
"g+	c #0E728B",
"h+	c #33768C",
"i+	c #455155",
"j+	c #0C0C0C",
"k+	c #000103",
"l+	c #3B4248",
"m+	c #595F64",
"n+	c #386A99",
"o+	c #348FEA",
"p+	c #46A1FC",
"q+	c #54A5EF",
"r+	c #66859F",
"s+	c #4E7582",
"t+	c #1D88AD",
"u+	c #1C9DC3",
"v+	c #1DA3C9",
"w+	c #1FA8CE",
"x+	c #21ADD4",
"y+	c #1FAED8",
"z+	c #18AAD5",
"A+	c #0EA0C8",
"B+	c #0B8DAB",
"C+	c #1686A3",
"D+	c #38849D",
"E+	c #404C50",
"F+	c #090808",
"G+	c #333A41",
"H+	c #4D5356",
"I+	c #3E5162",
"J+	c #2B76BE",
"K+	c #3994F0",
"L+	c #4D9EF0",
"M+	c #6285A7",
"N+	c #53737F",
"O+	c #1881A4",
"P+	c #1998BE",
"Q+	c #1AA0C5",
"R+	c #1DA5CA",
"S+	c #1DA8CE",
"T+	c #1CAAD1",
"U+	c #1AAAD1",
"V+	c #18A4C6",
"W+	c #27A3BC",
"X+	c #3FAAC0",
"Y+	c #4F95A7",
"Z+	c #3A4244",
"`+	c #323232",
" @	c #414950",
".@	c #3C4145",
"+@	c #2A4A66",
"@@	c #2670B6",
"#@	c #4C96DF",
"$@	c #6F8EAA",
"%@	c #5C747D",
"&@	c #197898",
"*@	c #1C92B8",
"=@	c #23A1C5",
"-@	c #2AA9CC",
";@	c #34B4D6",
">@	c #3FBFDE",
",@	c #4DCAE6",
"'@	c #58CAE2",
")@	c #5CBFD4",
"!@	c #69AEBF",
"~@	c #60787E",
"{@	c #222323",
"]@	c #2C2C2C",
"^@	c #3C3D3E",
"/@	c #2F373E",
"(@	c #272E34",
"_@	c #1D364D",
":@	c #43749C",
"<@	c #6D889C",
"[@	c #66777D",
"}@	c #31809E",
"|@	c #38A0C8",
"1@	c #4EB8DD",
"2@	c #56BFE2",
"3@	c #5CC2E2",
"4@	c #69C4DE",
"5@	c #75BBD0",
"6@	c #78ABBA",
"7@	c #829CA5",
"8@	c #6F7677",
"9@	c #303031",
"0@	c #040404",
"a@	c #333333",
"b@	c #1D242A",
"c@	c #141B21",
"d@	c #152029",
"e@	c #24323C",
"f@	c #5F6567",
"g@	c #799AA8",
"h@	c #6EA6BF",
"i@	c #76ADC2",
"j@	c #81ACBC",
"k@	c #88A2AC",
"l@	c #87989D",
"m@	c #888F92",
"n@	c #898B8C",
"o@	c #999999",
"p@	c #808080",
"q@	c #1F1F1F",
"r@	c #141515",
"s@	c #0B0D0E",
"t@	c #0A0B0C",
"u@	c #2A2A2A",
"v@	c #848485",
"w@	c #9C9D9D",
"x@	c #9A9A9A",
"y@	c #909090",
"z@	c #919191",
"A@	c #979797",
"B@	c #969696",
"C@	c #A6A6A6",
"D@	c #B8B8B8",
"E@	c #959595",
"F@	c #1D1D1D",
"G@	c #141414",
"H@	c #0A0A0A",
"I@	c #020202",
"J@	c #080808",
"K@	c #5B5B5B",
"L@	c #9E9E9E",
"M@	c #B3B3B3",
"N@	c #BBBBBB",
"O@	c #AAAAAA",
"P@	c #575757",
"Q@	c #373737",
"R@	c #6C6C6C",
"S@	c #838383",
"T@	c #767676",
"U@	c #656565",
"V@	c #474747",
"W@	c #0B0B0B",
"X@	c #121212",
". . . . . + @ # $ % & * + . . . . . . . . . ",
". = - ; > , ' ) ! ~ { ] ^ / ( _ : < [ } | . ",
". - 1 2 3 4 5 6 7 8 9 0 a b c d e f g h i . ",
". j k l m n o p q r s t u v w x y : z A B . ",
". C D E F G H I J K L M N O P Q R S T U V . ",
"+ W X Y Z `  ...+.@.#.$.%.&.*.=.-.;.>.,.'.. ",
").!.~.{.].^./.(._.:.<.[.}.|.1.2.3.4.5.6.7.. ",
"# 8.9.0.a.b.c.d.e.f.g.h.i.j.k.l.m.n.o.p.q.r.",
"$ s.t.u.v.w.x.y.z.A.B.C.D.E.F.G.H.I.J.K.L.B ",
"$ M.N.O.P.Q.R.S.T.U.V.W.X.Y.Z.`. +.+++@+#+$+",
"%+&+*+=+-+;+>+,+'+)+!+~+{+]+^+/+(+_+:+<+[+B ",
"}+|+1+2+3+4+5+6+7+8+9+0+a+b+c+d+e+f+g+h+i+j+",
"k+l+m+n+o+p+q+r+s+t+u+v+w+x+y+z+A+B+C+D+E+F+",
". G+H+I+J+K+L+M+N+O+P+Q+R+S+T+U+V+W+X+Y+Z+7.",
". `+ @.@+@@@#@$@%@&@*@=@-@;@>@,@'@)@!@~@{@'.",
". ]@^@/@(@_@:@<@[@}@|@1@2@3@4@5@6@7@8@9@0@. ",
". z a@< b@c@d@e@f@g@h@i@j@k@l@m@n@o@p@q@. . ",
". } < q@r@s@t@r.u@v@w@x@y@z@A@B@C@D@E@< . . ",
". >.F@G@H@I@'.J@j+K@L@M@N@D@O@C@C@o@P@| . . ",
". U i H@I@. . V H@$+Q@R@p@S@T@U@V@u@W@. . . ",
". ,.7.'.. . . . '.j+,.| i i U X@$+'.. . . . ",
". . . . . . . . . . '.r.r.I@. . . . . . . . "};
