/* XPM */
static char * trash_mini_xpm[] = {
"22 22 187 2",
"  	c None",
". 	c #C7C7CE",
"+ 	c #E7E7EB",
"@ 	c #D6D6D8",
"# 	c #BFBFC7",
"$ 	c #AFAFB8",
"% 	c #A5A5AD",
"& 	c #ACACB1",
"* 	c #BABAC0",
"= 	c #C5C5CA",
"- 	c #D2D2D7",
"; 	c #E9E9ED",
"> 	c #C5C5CC",
", 	c #84848B",
"' 	c #6C6C72",
") 	c #616167",
"! 	c #626265",
"~ 	c #6F6F6F",
"{ 	c #808080",
"] 	c #7C7C7C",
"^ 	c #606060",
"/ 	c #434343",
"( 	c #3A3A3A",
"_ 	c #363636",
": 	c #39393A",
"< 	c #59595B",
"[ 	c #88888C",
"} 	c #8D8D95",
"| 	c #7A7A82",
"1 	c #A6A6AC",
"2 	c #68686C",
"3 	c #3E3E3F",
"4 	c #454545",
"5 	c #848484",
"6 	c #C4C4C4",
"7 	c #D8D8D8",
"8 	c #DCDCDC",
"9 	c #CFCFCF",
"0 	c #747474",
"a 	c #626262",
"b 	c #585858",
"c 	c #2F2F2F",
"d 	c #373737",
"e 	c #48484A",
"f 	c #56565B",
"g 	c #77777F",
"h 	c #8D8D93",
"i 	c #444445",
"j 	c #575757",
"k 	c #A7A7A7",
"l 	c #E3E3E3",
"m 	c #E8E8E8",
"n 	c #E7E7E7",
"o 	c #ECECEC",
"p 	c #CCCCCC",
"q 	c #D5D5D5",
"r 	c #E1E1E1",
"s 	c #C2C2C2",
"t 	c #7B7B7B",
"u 	c #414142",
"v 	c #79797E",
"w 	c #67676D",
"x 	c #525254",
"y 	c #AEAEAE",
"z 	c #EAEAEA",
"A 	c #E9E9E9",
"B 	c #EFEFEF",
"C 	c #F2F2F2",
"D 	c #F5F5F5",
"E 	c #EBEBEB",
"F 	c #F1F1F1",
"G 	c #C6C6C6",
"H 	c #C1C1C1",
"I 	c #787878",
"J 	c #383838",
"K 	c #565659",
"L 	c #93939A",
"M 	c #77777C",
"N 	c #B4B4B8",
"O 	c #E1E1E3",
"P 	c #DDDDDE",
"Q 	c #DFDFDF",
"R 	c #E4E4E4",
"S 	c #F3F3F3",
"T 	c #DDDDDD",
"U 	c #CACACA",
"V 	c #D9D9D9",
"W 	c #838385",
"X 	c #66666A",
"Y 	c #6E6E74",
"Z 	c #6C6C6D",
"` 	c #9B9BA0",
" .	c #BABABF",
"..	c #C7C7CC",
"+.	c #BBBBC0",
"@.	c #BDBDC1",
"#.	c #D0D0D4",
"$.	c #CBCBCF",
"%.	c #BFBFC3",
"&.	c #D9D9DC",
"*.	c #DCDCDE",
"=.	c #C8C8CC",
"-.	c #97979C",
";.	c #76767A",
">.	c #6C6C6E",
",.	c #5A5A5A",
"'.	c #747475",
").	c #717172",
"!.	c #7E7E80",
"~.	c #919195",
"{.	c #89898D",
"].	c #86868C",
"^.	c #909095",
"/.	c #939398",
"(.	c #8B8B90",
"_.	c #A7A7AA",
":.	c #909091",
"<.	c #6E6E6F",
"[.	c #6B6B6C",
"}.	c #696969",
"|.	c #595959",
"1.	c #707070",
"2.	c #666666",
"3.	c #656565",
"4.	c #616161",
"5.	c #6A6A6A",
"6.	c #505050",
"7.	c #494949",
"8.	c #545454",
"9.	c #6E6E6E",
"0.	c #646464",
"a.	c #686868",
"b.	c #5D5D5D",
"c.	c #5F5F5F",
"d.	c #636363",
"e.	c #6B6B6B",
"f.	c #525252",
"g.	c #565656",
"h.	c #5C5C5C",
"i.	c #4D4D4D",
"j.	c #6D6D6D",
"k.	c #727272",
"l.	c #5E5E5E",
"m.	c #5B5B5B",
"n.	c #4C4C4C",
"o.	c #474747",
"p.	c #515151",
"q.	c #3E3E3E",
"r.	c #4F4F4F",
"s.	c #535353",
"t.	c #484848",
"u.	c #3F3F3F",
"v.	c #4B4B4B",
"w.	c #4A4A4A",
"x.	c #616164",
"y.	c #6C6C6C",
"z.	c #555555",
"A.	c #636364",
"B.	c #68686E",
"C.	c #767679",
"D.	c #646465",
"E.	c #6F6F71",
"F.	c #5E5F5F",
"G.	c #6D6D6E",
"H.	c #68686B",
"I.	c #808086",
"J.	c #58585E",
"K.	c #B5B5BE",
"L.	c #A4A4AC",
"M.	c #7E7E84",
"N.	c #8B8B92",
"O.	c #98999E",
"P.	c #A6A6A9",
"Q.	c #BCBCBF",
"R.	c #96969D",
"S.	c #64646D",
"T.	c #75757B",
"U.	c #B2B2BB",
"V.	c #A3A3AD",
"W.	c #73737E",
"X.	c #71717C",
"Y.	c #92929D",
"Z.	c #CCCCD6",
"`.	c #EEEEF2",
" +	c #DEDEE2",
".+	c #96969F",
"++	c #5F5F67",
"                                            ",
"          . + @ # $ % & * = - ; >           ",
"      , ' ) ! ~ { ] ^ / ( _ : < [ } |       ",
"    1 2 3 4 5 6 7 8 9 0 a b 4 c d e f g     ",
"    h i j k l m n n o p q r s t 4 _ u v     ",
"    w x y z o A B C D E F r G H I J K L     ",
"      M N O P Q l R S T U V 6 H W X Y       ",
"      Z `  .= ..+.@.#.$.%.&.*.=.-.;.>.      ",
"      ,.'.).!.~.{.].^./.(._.:.<.[.~ }.      ",
"      |.1.2.}.3.4.5.3.6.7.8.9.}.3.0.a.      ",
"      b.a.c.b.d.e.}.f.g.8.h.3.2.9.~ }.      ",
"      b.e.c.b.d.b.d.j i.}.j b ^ ^ j.5.      ",
"        k.l.m.h.j 8.n.g.^ ^ l.d.0.0.        ",
"        2.i.j ^ g.o.p.d.d.,.g.m.^ ,.        ",
"        i.q.f.|.r.i.p.a ^ s.t.6.h.l.        ",
"        r.g.u.t.i.s.8.|.f.7.o.p.m.a         ",
"          m./ 6.j 8.8.b v.w.p.s.b.          ",
"          x.g.0.y.a |.,.8.z.b |.A.          ",
"          B.C.).D.E.D.F.h.5.G.H.I.          ",
"          J.K.L.M.I.N.O.P.Q.R.S.T.          ",
"            U.V.W.X.Y.Z.`. +.+++            ",
"                                            "};
