/* XPM */
static char * trash_xpm[] = {
"32 32 319 2",
"  	c None",
". 	c #CBCBD5",
"+ 	c #C4C4CE",
"@ 	c #C8C8D3",
"# 	c #D4D4DE",
"$ 	c #DDDDE4",
"% 	c #E0E0E6",
"& 	c #DEDEE4",
"* 	c #DFDFE3",
"= 	c #E0E0E2",
"- 	c #BBBBC1",
"; 	c #D4D4DB",
"> 	c #EDEDF1",
", 	c #E3E3E5",
"' 	c #C5C5C8",
") 	c #B7B7BF",
"! 	c #AAAAB1",
"~ 	c #95959D",
"{ 	c #87878C",
"] 	c #8E8E93",
"^ 	c #8D8D92",
"/ 	c #B2B2B9",
"( 	c #B0B0B7",
"_ 	c #C2C2C9",
": 	c #D7D7DD",
"< 	c #EEEEF0",
"[ 	c #E5E5EA",
"} 	c #A6A6AF",
"| 	c #8B8B92",
"1 	c #7C7C84",
"2 	c #6A6A72",
"3 	c #69696F",
"4 	c #636366",
"5 	c #4D4D4E",
"6 	c #5C5C5C",
"7 	c #5D5D5D",
"8 	c #656565",
"9 	c #4B4B4B",
"0 	c #373737",
"a 	c #383838",
"b 	c #3E3E3E",
"c 	c #292929",
"d 	c #272727",
"e 	c #232323",
"f 	c #2C2C2D",
"g 	c #525255",
"h 	c #87878A",
"i 	c #B9B9C1",
"j 	c #9C9CA6",
"k 	c #84848D",
"l 	c #9E9EA5",
"m 	c #5C5C62",
"n 	c #3E3E41",
"o 	c #353536",
"p 	c #2F2F2F",
"q 	c #3C3C3C",
"r 	c #8A8A8A",
"s 	c #BDBDBD",
"t 	c #D6D6D6",
"u 	c #CDCDCD",
"v 	c #C7C7C7",
"w 	c #ADADAD",
"x 	c #575757",
"y 	c #2A2A2A",
"z 	c #414141",
"A 	c #404040",
"B 	c #454545",
"C 	c #3A3A3A",
"D 	c #323232",
"E 	c #393939",
"F 	c #636368",
"G 	c #616168",
"H 	c #77777F",
"I 	c #B5B5BB",
"J 	c #858589",
"K 	c #3A3A3B",
"L 	c #494949",
"M 	c #5F5F5F",
"N 	c #C8C8C8",
"O 	c #DFDFDF",
"P 	c #DEDEDE",
"Q 	c #EAEAEA",
"R 	c #636363",
"S 	c #959595",
"T 	c #6E6E6E",
"U 	c #282828",
"V 	c #404041",
"W 	c #4D4D52",
"X 	c #878790",
"Y 	c #ACACB3",
"Z 	c #414142",
"` 	c #3F3F3F",
" .	c #737373",
"..	c #D5D5D5",
"+.	c #EDEDED",
"@.	c #E9E9E9",
"#.	c #E7E7E7",
"$.	c #E2E2E2",
"%.	c #E5E5E5",
"&.	c #EEEEEE",
"*.	c #DADADA",
"=.	c #F7F7F7",
"-.	c #F6F6F6",
";.	c #BFBFBF",
">.	c #777777",
",.	c #444444",
"'.	c #303030",
").	c #343434",
"!.	c #3B3B3B",
"~.	c #434344",
"{.	c #85858B",
"].	c #7D7D84",
"^.	c #575759",
"/.	c #363636",
"(.	c #9D9D9D",
"_.	c #E4E4E4",
":.	c #EFEFEF",
"<.	c #EBEBEB",
"[.	c #ECECEC",
"}.	c #F0F0F0",
"|.	c #F3F3F3",
"1.	c #F4F4F4",
"2.	c #F2F2F2",
"3.	c #FBFBFB",
"4.	c #C5C5C5",
"5.	c #B9B9B9",
"6.	c #59595C",
"7.	c #A1A1A8",
"8.	c #55555B",
"9.	c #6A6A71",
"0.	c #575758",
"a.	c #E1E1E1",
"b.	c #D7D7D7",
"c.	c #B2B2B2",
"d.	c #C3C3C3",
"e.	c #C0C0C0",
"f.	c #4A4A4B",
"g.	c #8B8B91",
"h.	c #626267",
"i.	c #92929B",
"j.	c #ABABB0",
"k.	c #DEDEDF",
"l.	c #E3E3E4",
"m.	c #D4D4D4",
"n.	c #E8E8E8",
"o.	c #E3E3E3",
"p.	c #F9F9F9",
"q.	c #CACACA",
"r.	c #BEBEBE",
"s.	c #DDDDDD",
"t.	c #DCDCDC",
"u.	c #B1B1B1",
"v.	c #C9C9C9",
"w.	c #A2A2A2",
"x.	c #616163",
"y.	c #717176",
"z.	c #787880",
"A.	c #66666C",
"B.	c #626263",
"C.	c #858588",
"D.	c #D2D2DA",
"E.	c #D8D8DE",
"F.	c #D4D4D8",
"G.	c #DFDFE1",
"H.	c #C4C4C5",
"I.	c #C2C2C2",
"J.	c #CFCFCF",
"K.	c #BCBCBC",
"L.	c #D7D7D8",
"M.	c #CCCCCD",
"N.	c #D4D4D7",
"O.	c #B0B0B6",
"P.	c #78787F",
"Q.	c #6E6E72",
"R.	c #6A6A6B",
"S.	c #5A5A5A",
"T.	c #838384",
"U.	c #7B7B7E",
"V.	c #B2B2B7",
"W.	c #AEAEB6",
"X.	c #AAAAB3",
"Y.	c #A5A5AF",
"Z.	c #ACACB5",
"`.	c #B7B7BE",
" +	c #C0C0C8",
".+	c #C1C1C9",
"++	c #BABAC3",
"@+	c #C5C5CE",
"#+	c #DEDEE6",
"$+	c #F0F0F2",
"%+	c #E8E8EA",
"&+	c #C3C3C8",
"*+	c #A6A6AC",
"=+	c #767678",
"-+	c #6E6E6F",
";+	c #727272",
">+	c #666666",
",+	c #7A7A7A",
"'+	c #626262",
")+	c #686868",
"!+	c #6C6C6C",
"~+	c #8E8E8F",
"{+	c #8D8D8F",
"]+	c #7F7F82",
"^+	c #78787C",
"/+	c #7F7F84",
"(+	c #86868B",
"_+	c #8F8F94",
":+	c #7B7B80",
"<+	c #7F7F83",
"[+	c #A2A2A4",
"}+	c #888889",
"|+	c #606060",
"1+	c #4D4D4D",
"2+	c #535353",
"3+	c #6A6A6A",
"4+	c #676767",
"5+	c #7C7C7C",
"6+	c #5E5E5E",
"7+	c #616161",
"8+	c #474747",
"9+	c #595959",
"0+	c #717171",
"a+	c #585858",
"b+	c #747474",
"c+	c #767676",
"d+	c #797979",
"e+	c #696969",
"f+	c #464646",
"g+	c #515151",
"h+	c #6F6F6F",
"i+	c #565656",
"j+	c #6B6B6B",
"k+	c #505050",
"l+	c #6D6D6D",
"m+	c #707070",
"n+	c #4E4E4E",
"o+	c #424242",
"p+	c #5B5B5B",
"q+	c #646464",
"r+	c #555555",
"s+	c #545454",
"t+	c #353535",
"u+	c #484848",
"v+	c #757575",
"w+	c #7B7B7B",
"x+	c #4F4F4F",
"y+	c #4C4C4C",
"z+	c #434343",
"A+	c #4A4A4A",
"B+	c #3D3D3D",
"C+	c #313131",
"D+	c #525252",
"E+	c #606061",
"F+	c #5A5A5B",
"G+	c #828282",
"H+	c #6B6B6D",
"I+	c #6E6E71",
"J+	c #585859",
"K+	c #646465",
"L+	c #65656B",
"M+	c #717175",
"N+	c #565657",
"O+	c #6F6F71",
"P+	c #6B6B6E",
"Q+	c #8C8C92",
"R+	c #44444A",
"S+	c #86868E",
"T+	c #A2A2A9",
"U+	c #7E7E81",
"V+	c #69696B",
"W+	c #8B8B8E",
"X+	c #78787B",
"Y+	c #555656",
"Z+	c #686869",
"`+	c #67676A",
" @	c #6F6F75",
".@	c #686871",
"+@	c #A4A4AA",
"@@	c #353539",
"#@	c #72727A",
"$@	c #C9C9D3",
"%@	c #9B9BA4",
"&@	c #7A7A81",
"*@	c #77777E",
"=@	c #8F8F96",
"-@	c #9B9BA3",
";@	c #AFB0B7",
">@	c #9A9AA0",
",@	c #C3C3C6",
"'@	c #D9D9DC",
")@	c #CDCDD4",
"!@	c #898992",
"~@	c #585862",
"{@	c #696971",
"]@	c #77777B",
"^@	c #AFAFB7",
"/@	c #8C8C97",
"(@	c #6A6A76",
"_@	c #6E6E7A",
":@	c #7C7C88",
"<@	c #A2A2AE",
"[@	c #C6C6D2",
"}@	c #E8E8F1",
"|@	c #FCFCFD",
"1@	c #F9F9FC",
"2@	c #C6C6D0",
"3@	c #71717B",
"4@	c #5D5D65",
"5@	c #5B5B60",
"6@	c #707079",
"7@	c #696974",
"8@	c #71717C",
"9@	c #9696A1",
"0@	c #BABAC4",
"a@	c #DADAE2",
"b@	c #E8E8EB",
"c@	c #D3D3D8",
"d@	c #95959C",
"                                                                ",
"                        . + @ # $ % & * =                       ",
"              - ; > , ' ) ! ~ { ] ^ / ( _ : < [ }               ",
"          | 1 2 3 4 5 6 7 8 9 0 a b c d e f g h i j k           ",
"        l m n o p q r s t u v w x y z A B z C D E F G H         ",
"      I J K E L M N O O P Q Q O w R S 8 T U e E 0 C V W X       ",
"      Y Z ` `  ...+.@.#.#.$.%.&.*.w =.-.&.;.>.,.'.).!.~.{.      ",
"      ].^./.(._.:.&.<.[.&.}.|.1.2.#.3.[.@.;.4.5./.a a 6.7.      ",
"      8.9.0.4.@.+.[.$.<.2.2.-.-.@.a.-.b.v c.d.e.'.a f.g.l       ",
"        h.i.j.k.l.*.m.n.o.P :.p.%.q.r.s.t.u.v.w.x.y.z.A.        ",
"        B.C./ D.E.F.G.= H.I.J.#.P e.K.m.L.M.N.O.| P.Q.R.        ",
"        S.R T.U.V.W.X.Y.} Z.`. +.+++@+#+$+%+&+*+=+-+;+>+        ",
"          x ,+'+)+!+~+{+]+^+/+(+_+:+<+[+}+|+1+2+3+ .4+3+        ",
"          S.5+M 3+'+|+4+6+7+R M S.8+8+9+T 0+7+;+6+|+R           ",
"          a+b+|+0+c+)+>+6+c+d+e+f+g+9 E 4+T h+3+i+h+h+          ",
"          |+j+9+7 k+a+l+m+h+n+o+|+g+p+)+q+|+6+c+;+ .>+          ",
"          7 m+6 e+6+M 7 r+S.7+k+n+2+m+s+7 M )+e+S.0+3+          ",
"          7 b+|+g+s+3+ .R c+>+r+t+m+m+r+u+n+k+r+8 v+j+          ",
"            w+M 8 6+s+x+y+z+,.o+q+r+x 3+8 l+h+T R 9+            ",
"            ;+x 9 7 |+>+g+f+y+x 6+l+6+x S.S.M i+q+x             ",
"            a+A q g+g+)+x B A g+|+;+6+q+f+f+k+'+e+a+            ",
"            A+A B+9+8 f+B A+8 1+M '+9+L s+A s+A 3+6             ",
"            1+i+a+C+u+u+i+s+M s+D+M y+u+B+8+g+u+h+M             ",
"              E+|+/.` C A q u+A+>+n+f+g+6+k+q+2+3+              ",
"              F+g+z+y+G+3+>+3+S.u+8 A ` f+k+B y+H+              ",
"              I+J+a+6 j+m+8 p+s+S.|+k+i+S.r+6 6 K+              ",
"              L+M+D+h+T x+N+O+p+>+n+g+)+0+ .|+P+Q+              ",
"              R+S+T+U+V+=+W+X+E+Y+;+)+T Z+`+ @.@+@              ",
"              @@#@# $@%@&@*@=@-@;@>@,@'@)@!@~@{@]@              ",
"                  ^@+ /@(@_@:@<@[@}@|@1@2@3@4@5@                ",
"                      k 6@7@8@9@0@a@b@c@d@                      ",
"                                                                "};
