/* XPM */
static char * tree_opened_xpm[] = {
"16 16 81 1",
" 	c None",
".	c #B4B4B4",
"+	c #D0D0D0",
"@	c #7A7A7A",
"#	c #EDEDED",
"$	c #F4F4F4",
"%	c #F7F7F7",
"&	c #D9D9D9",
"*	c #BEBEBE",
"=	c #F5F5F5",
"-	c #DADADA",
";	c #EEEEEE",
">	c #B9B9B9",
",	c #F1F1F1",
"'	c #DCDCDC",
")	c #DDDDDD",
"!	c #FDFDFD",
"~	c #707070",
"{	c #C4C4C4",
"]	c #FFFFFF",
"^	c #C1C1C1",
"/	c #BCBCBC",
"(	c #F3F3F3",
"_	c #E0E0E0",
":	c #DFDFDF",
"<	c #EBEBEB",
"[	c #A6A6A6",
"}	c #FBFBFB",
"|	c #DEDEDE",
"1	c #E2E2E2",
"2	c #D3D3D3",
"3	c #C0C0C0",
"4	c #F6F6F6",
"5	c #E4E4E4",
"6	c #E1E1E1",
"7	c #E5E5E5",
"8	c #DBDBDB",
"9	c #AEAEAE",
"0	c #646464",
"a	c #C3C3C3",
"b	c #F8F8F8",
"c	c #E7E7E7",
"d	c #EAEAEA",
"e	c #B0B0B0",
"f	c #CDCDCD",
"g	c #151515",
"h	c #C7C7C7",
"i	c #FEFEFE",
"j	c #EFEFEF",
"k	c #CECECE",
"l	c #BABABA",
"m	c #F2F2F2",
"n	c #7E7E7E",
"o	c #CBCBCB",
"p	c #ECECEC",
"q	c #F9F9F9",
"r	c #D1D1D1",
"s	c #222222",
"t	c #9A9A9A",
"u	c #BFBFBF",
"v	c #E6E6E6",
"w	c #C5C5C5",
"x	c #BDBDBD",
"y	c #9B9B9B",
"z	c #AFAFAF",
"A	c #E3E3E3",
"B	c #1B1B1B",
"C	c #515151",
"D	c #404040",
"E	c #5D5D5D",
"F	c #8C8C8C",
"G	c #B8B8B8",
"H	c #828282",
"I	c #868686",
"J	c #777777",
"K	c #262626",
"L	c #747474",
"M	c #353535",
"N	c #242424",
"O	c #111111",
"P	c #080808",
"                ",
"                ",
"  .+@           ",
"  #$%&          ",
" *=-&;$         ",
" >,'&)!~ {]]$^  ",
" /(_):<[)}|'1]2 ",
" 3456789<)))740 ",
" abc5d+e;6_1%fg ",
" hi#djklm55<]n  ",
" o]p%q^rb;#]8s  ",
" :ftu}.=,v}]@   ",
" 45_w2^xyzA5B   ",
" CDEFGGHIFuJ    ",
"     KLMNOP     ",
"                "};
