/* XPM */
static char * tree_closed_xpm[] = {
"16 16 97 2",
"  	c None",
". 	c #040404",
"+ 	c #000000",
"@ 	c #080808",
"# 	c #1D1D1D",
"$ 	c #484848",
"% 	c #292929",
"& 	c #111111",
"* 	c #262626",
"= 	c #515151",
"- 	c #7F7F7F",
"; 	c #A0A0A0",
"> 	c #AAAAAA",
", 	c #7D7D7D",
"' 	c #5B5B5B",
") 	c #313131",
"! 	c #FEFEFE",
"~ 	c #B0B0B0",
"{ 	c #575757",
"] 	c #242424",
"^ 	c #383838",
"/ 	c #494949",
"( 	c #A1A1A1",
"_ 	c #E6E6E6",
": 	c #888888",
"< 	c #828282",
"[ 	c #6B6B6B",
"} 	c #0F0F0F",
"| 	c #191919",
"1 	c #202020",
"2 	c #F5F5F5",
"3 	c #9E9E9E",
"4 	c #878787",
"5 	c #4E4E4E",
"6 	c #656565",
"7 	c #050505",
"8 	c #1C1C1C",
"9 	c #999999",
"0 	c #E4E4E4",
"a 	c #7A7A7A",
"b 	c #2E2E2E",
"c 	c #4C4C4C",
"d 	c #070707",
"e 	c #141414",
"f 	c #222222",
"g 	c #FFFFFF",
"h 	c #A5A5A5",
"i 	c #898989",
"j 	c #333333",
"k 	c #F8F8F8",
"l 	c #868686",
"m 	c #2F2F2F",
"n 	c #252525",
"o 	c #151515",
"p 	c #ADADAD",
"q 	c #818181",
"r 	c #626262",
"s 	c #090909",
"t 	c #171717",
"u 	c #343434",
"v 	c #525252",
"w 	c #C2C2C2",
"x 	c #F2F2F2",
"y 	c #7E7E7E",
"z 	c #393939",
"A 	c #4F4F4F",
"B 	c #303030",
"C 	c #6E6E6E",
"D 	c #8A8A8A",
"E 	c #C6C6C6",
"F 	c #D7D7D7",
"G 	c #A9A9A9",
"H 	c #676767",
"I 	c #3C3C3C",
"J 	c #565656",
"K 	c #7B7B7B",
"L 	c #989898",
"M 	c #ACACAC",
"N 	c #ABABAB",
"O 	c #B9B9B9",
"P 	c #C1C1C1",
"Q 	c #9C9C9C",
"R 	c #848484",
"S 	c #696969",
"T 	c #797979",
"U 	c #B3B3B3",
"V 	c #8B8B8B",
"W 	c #858585",
"X 	c #BEBEBE",
"Y 	c #BBBBBB",
"Z 	c #666666",
"` 	c #606060",
" .	c #9D9D9D",
"..	c #6A6A6A",
"+.	c #5D5D5D",
"@.	c #1E1E1E",
"#.	c #1F1F1F",
"                    . + @       ",
"              # $ % & + *       ",
"            = - # + + + ; >     ",
"          , ' + + + + ) ! ~ {   ",
"      ] ^ / + + + + + ( _ : <   ",
"    [ } | + + + + + 1 2 3 4 5   ",
"    6 7 8 + + + + + 9 0 - a b   ",
"    c d e + + + + f g h i '     ",
"    j } d + + + + ; k l , m     ",
"    n o + + + + o g p q r       ",
"    s + + t u v w x - y z       ",
"  A + B C D E F g G < H         ",
"  I J K L M N O P Q R           ",
"  S T U ; V W W X Y Z           ",
"  n `  ...+.A j @.#.            ",
"    + z                         "};
