/* XPM */
static char * unknown_xpm[] = {
"16 16 172 2",
"  	c None",
". 	c #F8F8F8",
"+ 	c #F0F0F0",
"@ 	c #E8E8E8",
"# 	c #E0E0E0",
"$ 	c #D8D8D8",
"% 	c #D0D0D0",
"& 	c #C8C8C8",
"* 	c #C0C0C0",
"= 	c #B8B8B8",
"- 	c #B0B0B0",
"; 	c #A8A8A8",
"> 	c #A0A0A0",
", 	c #989898",
"' 	c #909090",
") 	c #888888",
"! 	c #808080",
"~ 	c #00C1FF",
"{ 	c #00C9FF",
"] 	c #00D2FF",
"^ 	c #00DBFF",
"/ 	c #00E4FF",
"( 	c #00E7FF",
"_ 	c #00DFFF",
": 	c #00D6FF",
"< 	c #00CDFF",
"[ 	c #00C5FF",
"} 	c #00BCFF",
"| 	c #00B3FF",
"1 	c #00AAFF",
"2 	c #00A1FF",
"3 	c #787878",
"4 	c #00DAFF",
"5 	c #00E3FF",
"6 	c #00D7FF",
"7 	c #00CEFF",
"8 	c #00ABFF",
"9 	c #00A2FF",
"0 	c #0099FF",
"a 	c #707070",
"b 	c #00D1FF",
"c 	c #00CBE8",
"d 	c #095867",
"e 	c #1A292D",
"f 	c #2F373A",
"g 	c #718993",
"h 	c #6BD2FE",
"i 	c #01ABFF",
"j 	c #009AFF",
"k 	c #0091FF",
"l 	c #686868",
"m 	c #00E2FF",
"n 	c #00DDFC",
"o 	c #00242B",
"p 	c #000001",
"q 	c #4D4D4E",
"r 	c #12181B",
"s 	c #000000",
"t 	c #9D9D9D",
"u 	c #62C6FF",
"v 	c #0089FF",
"w 	c #606060",
"x 	c #00E1FF",
"y 	c #00C7EB",
"z 	c #085C70",
"A 	c #4F7F8E",
"B 	c #71DAFF",
"C 	c #00648E",
"D 	c #656565",
"E 	c #9AD7FF",
"F 	c #0092FF",
"G 	c #0080FF",
"H 	c #585858",
"I 	c #00D8FF",
"J 	c #00D0FF",
"K 	c #00C7FF",
"L 	c #00BEFF",
"M 	c #0097D6",
"N 	c #04141C",
"O 	c #A6A6A6",
"P 	c #59B8FF",
"Q 	c #008AFF",
"R 	c #0081FF",
"S 	c #0078FF",
"T 	c #505050",
"U 	c #00D9FF",
"V 	c #00BFFF",
"W 	c #009EDE",
"X 	c #020C11",
"Y 	c #7F7F80",
"Z 	c #7FC8FF",
"` 	c #0079FF",
" .	c #0070FF",
"..	c #484848",
"+.	c #00C8FF",
"@.	c #00B6FF",
"#.	c #005C87",
"$.	c #727272",
"%.	c #8DCEFF",
"&.	c #008BFF",
"*.	c #0082FF",
"=.	c #0068FF",
"-.	c #40403F",
";.	c #00C0FF",
">.	c #00B7FF",
",.	c #00AEFF",
"'.	c #009AEF",
").	c #0D8EDF",
"!.	c #1E99F3",
"~.	c #0C90FF",
"{.	c #007AFF",
"].	c #0071FF",
"^.	c #005FFF",
"/.	c #373737",
"(.	c #00AFFF",
"_.	c #00A6FF",
":.	c #0089E0",
"<.	c #105385",
"[.	c #6EB0E7",
"}.	c #188EFF",
"|.	c #0069FF",
"1.	c #0060FF",
"2.	c #0057FF",
"3.	c #2F2F2F",
"4.	c #00B8FF",
"5.	c #009EFF",
"6.	c #003D69",
"7.	c #7B7B7B",
"8.	c #84BFFF",
"9.	c #0072FF",
"0.	c #0058FF",
"a.	c #004FFF",
"b.	c #272727",
"c.	c #00B0FF",
"d.	c #00A7FF",
"e.	c #0095FF",
"f.	c #0070CC",
"g.	c #12385C",
"h.	c #89AED7",
"i.	c #2888FF",
"j.	c #006AFF",
"k.	c #0061FF",
"l.	c #0046FF",
"m.	c #1F1F1F",
"n.	c #009FFF",
"o.	c #0096FF",
"p.	c #008DFF",
"q.	c #0084FF",
"r.	c #007CFF",
"s.	c #0073FF",
"t.	c #0050FF",
"u.	c #0047FF",
"v.	c #003EFF",
"w.	c #171717",
"x.	c #00A8FF",
"y.	c #008EFF",
"z.	c #0085FF",
"A.	c #006BFF",
"B.	c #0062FF",
"C.	c #0059FF",
"D.	c #003FFF",
"E.	c #0036FF",
"F.	c #0F0F0F",
"G.	c #777777",
"H.	c #6F6F6F",
"I.	c #676767",
"J.	c #5F5F5F",
"K.	c #575757",
"L.	c #4F4F4F",
"M.	c #474747",
"N.	c #3F3F3F",
"O.	c #070707",
". + @ # $ % & * = - ; > , ' ) ! ",
"+ ~ { ] ^ / ( _ : < [ } | 1 2 3 ",
"@ { ] 4 5 ( _ 6 7 [ } | 8 9 0 a ",
"# b 4 5 ( c d e f g h i 9 j k l ",
"$ 4 m ( n o p q r s t u j k v w ",
"% m ( x y z A B C s D E F v G H ",
"& ( x I J K L M N s O P Q R S T ",
"* m U J K V W X p Y Z Q R `  ...",
"= U b +.V @.#.s $.%.&.*.`  .=.-.",
"- b +.;.>.,.'.).!.~.*.{.].=.^./.",
"; { ;.>.(._.:.<.[.}.{.].|.1.2.3.",
"> ~ 4.(._.5.6.s 7.8.9.|.1.0.a.b.",
", 4.c.d.5.e.f.g.h.i.j.k.0.a.l.m.",
"' c.d.n.o.p.q.r.s.j.k.0.t.u.v.w.",
") x.n.o.y.z.r.s.A.B.C.t.u.D.E.F.",
"! G.H.I.J.K.L.M.N./.3.b.m.w.F.O."};
