/* XPM */
static char * view_pending_slots_mini_xpm[] = {
"22 22 242 2",
"  	c None",
". 	c #FFFFFF",
"+ 	c #FAFAFA",
"@ 	c #F0F0F0",
"# 	c #E3E3E3",
"$ 	c #D7D7D8",
"% 	c #CCCCCC",
"& 	c #BCBBBC",
"* 	c #A2A2A2",
"= 	c #8F8F8F",
"- 	c #828282",
"; 	c #777777",
"> 	c #706F6E",
", 	c #615F5E",
"' 	c #666766",
") 	c #5A5A5A",
"! 	c #515151",
"~ 	c #464646",
"{ 	c #3A3A3A",
"] 	c #2E2E2E",
"^ 	c #222222",
"/ 	c #171717",
"( 	c #FBFBFB",
"_ 	c #E4E5E5",
": 	c #D8D8D8",
"< 	c #CBCBCB",
"[ 	c #BCBCBC",
"} 	c #9B9A9B",
"| 	c #818181",
"1 	c #666666",
"2 	c #888786",
"3 	c #8698A7",
"4 	c #5882A4",
"5 	c #4E7392",
"6 	c #6A7782",
"7 	c #626263",
"8 	c #4A4A4A",
"9 	c #3C3C3C",
"0 	c #2F2F2F",
"a 	c #232323",
"b 	c #161716",
"c 	c #0B0C0C",
"d 	c #F0EFF0",
"e 	c #E3E2E3",
"f 	c #D7D7D7",
"g 	c #CBCBCA",
"h 	c #BDBDBD",
"i 	c #959595",
"j 	c #8C8D8C",
"k 	c #A7A7A7",
"l 	c #CECFD0",
"m 	c #B7D0E4",
"n 	c #4CA9F2",
"o 	c #40A1ED",
"p 	c #2B93EA",
"q 	c #257FCC",
"r 	c #8CA3B4",
"s 	c #A4A3A4",
"t 	c #606060",
"u 	c #353535",
"v 	c #1E1E1E",
"w 	c #090A0A",
"x 	c #020202",
"y 	c #EEEEEE",
"z 	c #E4E4E4",
"A 	c #BEBEBE",
"B 	c #B3B3B3",
"C 	c #A3A3A3",
"D 	c #B7B7B7",
"E 	c #EDEDED",
"F 	c #E7F2FB",
"G 	c #63B4F9",
"H 	c #87BFDA",
"I 	c #5B7F8E",
"J 	c #4485B0",
"K 	c #3195EA",
"L 	c #4782B6",
"M 	c #D5D9DC",
"N 	c #D6D6D6",
"O 	c #3F3F3F",
"P 	c #010202",
"Q 	c #000000",
"R 	c #E1E1E1",
"S 	c #C5C4C5",
"T 	c #AAAAAA",
"U 	c #A0A1A0",
"V 	c #969696",
"W 	c #9C9C9C",
"X 	c #D4E7F6",
"Y 	c #4EA7F5",
"Z 	c #567D98",
"` 	c #6C6D6E",
" .	c #495964",
"..	c #5197D3",
"+.	c #3475B0",
"@.	c #C2CBD3",
"#.	c #A5A5A5",
"$.	c #D4D3D4",
"%.	c #C0C0C0",
"&.	c #C2C2C2",
"*.	c #D3D3D3",
"=.	c #D2D2D2",
"-.	c #D0D0D0",
";.	c #CECECE",
">.	c #CED8DF",
",.	c #5BA3E3",
"'.	c #3E81BD",
").	c #465E72",
"!.	c #4A6B86",
"~.	c #4F8FCE",
"{.	c #4176A5",
"].	c #BABFC2",
"^.	c #BABABA",
"/.	c #838383",
"(.	c #434343",
"_.	c #080808",
":.	c #C1C0C1",
"<.	c #C4C4C4",
"[.	c #EFEFEF",
"}.	c #DEDEDE",
"|.	c #C4C4C5",
"1.	c #94ADC2",
"2.	c #287FCC",
"3.	c #2C79C2",
"4.	c #3278BB",
"5.	c #296BA9",
"6.	c #6B8093",
"7.	c #A5A5A6",
"8.	c #979797",
"9.	c #929292",
"0.	c #3E3E3E",
"a.	c #ACACAC",
"b.	c #D4D4D4",
"c.	c #E9E9E9",
"d.	c #D9D9D9",
"e.	c #D5D5D5",
"f.	c #C7C7C7",
"g.	c #B2B2B1",
"h.	c #7E8D9A",
"i.	c #4E7492",
"j.	c #486C88",
"k.	c #697680",
"l.	c #8A8B8B",
"m.	c #8E8E8E",
"n.	c #9E9E9E",
"o.	c #747474",
"p.	c #151515",
"q.	c #C3C3C3",
"r.	c #E2E2E2",
"s.	c #CFCECE",
"t.	c #BABBBC",
"u.	c #ACADAE",
"v.	c #ADADAD",
"w.	c #B8B8B8",
"x.	c #BFBFBF",
"y.	c #B1B1B1",
"z.	c #878787",
"A.	c #1D1D1D",
"B.	c #9B9B9B",
"C.	c #DDDDDD",
"D.	c #F7F7F7",
"E.	c #F1F1F1",
"F.	c #F2F2F2",
"G.	c #ECECEC",
"H.	c #E7E7E7",
"I.	c #DCDCDC",
"J.	c #CFCFCF",
"K.	c #B5B5B5",
"L.	c #B2B2B2",
"M.	c #898989",
"N.	c #939494",
"O.	c #DADADA",
"P.	c #FCFCFC",
"Q.	c #F6F6F6",
"R.	c #F3F3F3",
"S.	c #DFDFDF",
"T.	c #8B8B8B",
"U.	c #F9F9F9",
"V.	c #888888",
"W.	c #858585",
"X.	c #E0E0E0",
"Y.	c #F5F5F5",
"Z.	c #FDFDFD",
"`.	c #DBDBDB",
" +	c #7D7D7D",
".+	c #FEFEFE",
"++	c #F8F8F8",
"@+	c #C6C6C6",
"#+	c #AEAEAE",
"$+	c #757575",
"%+	c #E5E5E5",
"&+	c #A1A1A1",
"*+	c #868686",
"=+	c #6E6E6E",
"-+	c #CACACA",
";+	c #EBEBEB",
">+	c #D1D1D1",
",+	c #B9B9B9",
"'+	c #9D9D9D",
")+	c #848484",
"!+	c #676767",
"~+	c #ABABAB",
"{+	c #C5C5C5",
"]+	c #9F9F9F",
"^+	c #999999",
"/+	c #5F5F5F",
"(+	c #CDCDCD",
"_+	c #A9A9A9",
":+	c #9A9A9A",
"<+	c #4D4D4D",
"[+	c #B6B6B6",
"}+	c #B4B4B4",
"|+	c #B0B0B0",
"1+	c #A8A8A8",
"2+	c #919191",
"3+	c #797979",
"4+	c #191919",
"5+	c #323232",
"6+	c #727272",
"7+	c #A0A0A0",
"8+	c #989898",
"9+	c #939393",
"0+	c #909090",
"a+	c #525252",
"b+	c #070707",
"c+	c #292929",
"d+	c #686868",
"e+	c #8C8C8C",
"f+	c #8D8D8D",
"g+	c #8A8A8A",
"h+	c #7B7B7B",
"i+	c #585858",
"j+	c #121212",
"k+	c #0C0C0B",
"l+	c #030303",
"m+	c #111111",
"n+	c #242424",
"o+	c #282828",
"p+	c #2A2A2A",
"q+	c #272727",
"r+	c #212121",
"s+	c #0A0A0A",
". . + @ # $ % & * = - ; > , ' ) ! ~ { ] ^ / ",
". ( @ _ : < [ } | 1 2 3 4 5 6 7 8 9 0 a b c ",
"+ d e f g h i j k l m n o p q r s t u v w x ",
"y z f < A B C D E F G H I J K L M N = O P Q ",
"R N S D T U V W f X Y Z `  ...+.@.z #.u Q Q ",
"$.%.&.*.=.-.;.< < >.,.'.).!.~.{.].^./.(._.Q ",
":.<.@ @ E y [.[.}.|.1.2.3.4.5.6.7.8.W 9.0.x ",
"a.b.c.z d.*.b.e.N f.g.h.i.j.k.l.m.n.<.h o.p.",
"C q.# : }.}.R r.# r.}.s.t.u.v.w.&.x.y.%.z.A.",
"B.A C.r.D.[.E.F.F.F.F.F.E.G.H.r.I.J.K.L.M.v ",
"N.[ O.r.P.+ D.Q.Q.Q.Q.Q.Q.R.y H.S.-.D a.M.v ",
"T.^.: r.P.. P.U.( ( ( ( + D.E.c.}.;.K.T V.v ",
"W.D N X.P.. U.Y.P.Z.Z.Z.P.Q.@ H.`.< L.k V.v ",
" +K.*.S.P..+++F.( Z.Z.P.U.R.G.r.e.@+#+#.z.v ",
"$+y.J.C.P..+Y.E Q.U.U.Q.F.G.%+`.J.%.T &+*+v ",
"=+#+-+O.( Z.E.c.E y y ;+H.R O.>+@+,+#.'+)+v ",
"!+~+{+N + Y.r.S.X.R X.}.O.b.;.f.h y.]+^+/.v ",
"/+k %.-+S.b.(+J.-.-.J.(+-+<.x.,+L._+:+i | v ",
"<+i D B [+D w.,+^.^.,+[+}+|+a.1+C W 2+V 3+4+",
"5+6+* a.* 7+&+&+* &+7+]+n.B.8+V 9+0+2+= a+b+",
"/ c+d+/.M.V.M.T.e+f+e+e+g+M.z.W.- | h+i+j+Q ",
"k+l+m+n+o+c+c+c+p+p+p+p+c+p+c+c+o+q+r+s+Q Q "};
