/* XPM */
static char * view_pending_slots_xpm[] = {
"32 32 352 2",
"  	c None",
". 	c #FFFFFF",
"+ 	c #FEFEFE",
"@ 	c #F7F7F7",
"# 	c #EFEFEF",
"$ 	c #E6E6E6",
"% 	c #DEDEDF",
"& 	c #D5D5D5",
"* 	c #CECECE",
"= 	c #C5C4C4",
"- 	c #BDBDBD",
"; 	c #A7A7A7",
"> 	c #A4A3A4",
", 	c #939392",
"' 	c #8C8C8C",
") 	c #858585",
"! 	c #696A69",
"~ 	c #7E7E7E",
"{ 	c #60605F",
"] 	c #707070",
"^ 	c #686968",
"/ 	c #5D5D5D",
"( 	c #575857",
"_ 	c #4F504F",
": 	c #494949",
"< 	c #40403F",
"[ 	c #383838",
"} 	c #2F2F2F",
"| 	c #282828",
"1 	c #1E1E1F",
"2 	c #171717",
"3 	c #F8F8F8",
"4 	c #EEEFEF",
"5 	c #E7E7E7",
"6 	c #DEDEDE",
"7 	c #D7D7D7",
"8 	c #CECDCE",
"9 	c #C6C6C6",
"0 	c #B8B7B8",
"a 	c #ABABAB",
"b 	c #868786",
"c 	c #6B6B6B",
"d 	c #7B7B7B",
"e 	c #616161",
"f 	c #7A7A7A",
"g 	c #555452",
"h 	c #6C6A67",
"i 	c #4D4946",
"j 	c #646362",
"k 	c #5A5A5A",
"l 	c #525252",
"m 	c #464645",
"n 	c #3F3F3F",
"o 	c #313031",
"p 	c #272727",
"q 	c #202020",
"r 	c #0F100F",
"s 	c #F6F6F5",
"t 	c #EFEEEE",
"u 	c #E5E5E5",
"v 	c #D4D5D4",
"w 	c #CDCDCD",
"x 	c #C2C2C2",
"y 	c #B6B7B6",
"z 	c #AAAAAA",
"A 	c #6A6A6A",
"B 	c #858485",
"C 	c #464647",
"D 	c #8A8A8A",
"E 	c #A3A1A0",
"F 	c #A6B9C9",
"G 	c #75A8D0",
"H 	c #3E8CCD",
"I 	c #3E85BF",
"J 	c #6E92AE",
"K 	c #768088",
"L 	c #757372",
"M 	c #4A4A4A",
"N 	c #484848",
"O 	c #393A39",
"P 	c #2E2D2D",
"Q 	c #1E1E1E",
"R 	c #161716",
"S 	c #0D0D0D",
"T 	c #050606",
"U 	c #F8F7F8",
"V 	c #EEEEEE",
"W 	c #E7E6E7",
"X 	c #DDDDDE",
"Y 	c #D6D6D6",
"Z 	c #CDCDCC",
"` 	c #C6C5C6",
" .	c #B7B7B7",
"..	c #828282",
"+.	c #8A8B8B",
"@.	c #717171",
"#.	c #9F9F9F",
"$.	c #C3C3C3",
"%.	c #DCDAD9",
"&.	c #CADDEA",
"*.	c #329CF3",
"=.	c #2B9CF9",
"-.	c #2E9BF9",
";.	c #1E90F4",
">.	c #0D7CD9",
",.	c #327CBB",
"'.	c #B5BABD",
").	c #B1B0B0",
"!.	c #808080",
"~.	c #333333",
"{.	c #313131",
"].	c #222222",
"^.	c #151515",
"/.	c #0D0E0E",
"(.	c #050506",
"_.	c #010101",
":.	c #F5F5F5",
"<.	c #E4E4E4",
"[.	c #DDDDDD",
"}.	c #D3D3D4",
"|.	c #CCCCCC",
"1.	c #BCBCBC",
"2.	c #B3B2B2",
"3.	c #A2A2A2",
"4.	c #9A9A9A",
"5.	c #D8D9D8",
"6.	c #E6F3FC",
"7.	c #49A8F9",
"8.	c #7BC9FF",
"9.	c #A1D9E4",
"0.	c #549FC8",
"a.	c #57AEE7",
"b.	c #369EF9",
"c.	c #0978D7",
"d.	c #427AAA",
"e.	c #D3D5D7",
"f.	c #C5C5C5",
"g.	c #757575",
"h.	c #323233",
"i.	c #303030",
"j.	c #050505",
"k.	c #000000",
"l.	c #EDEDED",
"m.	c #D6D5D5",
"n.	c #BBBBBB",
"o.	c #B4B4B4",
"p.	c #A3A4A3",
"q.	c #D8D8D8",
"r.	c #F6F6F6",
"s.	c #ACD6F7",
"t.	c #2898F9",
"u.	c #96CEE4",
"v.	c #677A7C",
"w.	c #394044",
"x.	c #315161",
"y.	c #5DB2F2",
"z.	c #2C8FEA",
"A.	c #1D67A7",
"B.	c #B1BCC5",
"C.	c #E9E9E9",
"D.	c #A4A4A4",
"E.	c #000101",
"F.	c #E3E4E4",
"G.	c #DCDCDC",
"H.	c #D3D3D3",
"I.	c #CCCBCC",
"J.	c #BFBFBF",
"K.	c #B2B2B2",
"L.	c #A8A8A8",
"M.	c #A1A2A1",
"N.	c #999999",
"O.	c #929292",
"P.	c #868686",
"Q.	c #ADADAD",
"R.	c #FBFBFB",
"S.	c #90C5F1",
"T.	c #2F9AF8",
"U.	c #497DA2",
"V.	c #686867",
"W.	c #807F7F",
"X.	c #444140",
"Y.	c #4D83A5",
"Z.	c #56A4F0",
"`.	c #1361A6",
" +	c #869AAB",
".+	c #FBFAFA",
"++	c #939393",
"@+	c #1A1A1A",
"#+	c #DCDBDC",
"$+	c #D5D4D5",
"%+	c #C8C8C8",
"&+	c #ACACAC",
"*+	c #AFAFAF",
"=+	c #A9A9A9",
"-+	c #A6A6A6",
";+	c #9E9E9E",
">+	c #A3A3A3",
",+	c #CFCFCF",
"'+	c #F0F0EE",
")+	c #9DC9EC",
"!+	c #2790EF",
"~+	c #4284BB",
"{+	c #42474B",
"]+	c #6B6967",
"^+	c #464A4B",
"/+	c #568CB1",
"(+	c #5B9FE7",
"_+	c #1C61A0",
":+	c #909FAB",
"<+	c #A1A1A1",
"[+	c #636363",
"}+	c #030303",
"|+	c #D2D2D2",
"1+	c #C7C7C7",
"2+	c #ACABAB",
"3+	c #D4D4D4",
"4+	c #FDFDFD",
"5+	c #FCFCFC",
"6+	c #FAFAFA",
"7+	c #F3F3F3",
"8+	c #C9C9C9",
"9+	c #CCD6DE",
"0+	c #3D8ED5",
"a+	c #3998F3",
"b+	c #3D7FBA",
"c+	c #2A4C69",
"d+	c #447299",
"e+	c #5A98D6",
"f+	c #357BC4",
"g+	c #326794",
"h+	c #A9ADB0",
"i+	c #878787",
"j+	c #6D6D6D",
"k+	c #1C1C1C",
"l+	c #CBCACB",
"m+	c #F2F2F2",
"n+	c #EBEBEB",
"o+	c #F0F0F0",
"p+	c #F1F1F1",
"q+	c #E0E0E0",
"r+	c #C1C1C1",
"s+	c #C6C5C4",
"t+	c #89A7BF",
"u+	c #1275C9",
"v+	c #2383DC",
"w+	c #3285D7",
"x+	c #3481CE",
"y+	c #216FB9",
"z+	c #135B9A",
"A+	c #6F7D89",
"B+	c #8F8F8F",
"C+	c #909090",
"D+	c #959595",
"E+	c #686868",
"F+	c #020202",
"G+	c #B3B3B3",
"H+	c #EAEAEA",
"I+	c #E1E1E1",
"J+	c #D9D9D9",
"K+	c #DADADA",
"L+	c #A8A7A5",
"M+	c #7F8E9A",
"N+	c #346C98",
"O+	c #1C6199",
"P+	c #1B5E93",
"Q+	c #356082",
"R+	c #6D747A",
"S+	c #90908F",
"T+	c #919191",
"U+	c #818181",
"V+	c #8E8E8E",
"W+	c #E8E8E8",
"X+	c #D0D0D0",
"Y+	c #D1D1D1",
"Z+	c #CACACA",
"`+	c #B9B9B9",
" @	c #A19F9F",
".@	c #8F9091",
"+@	c #7B8084",
"@@	c #777B7F",
"#@	c #7F7F80",
"$@	c #888787",
"%@	c #888888",
"&@	c #898989",
"*@	c #A4A5A5",
"=@	c #E3E3E3",
"-@	c #E2E2E2",
";@	c #BABABA",
">@	c #B5B5B5",
",@	c #B8B8B8",
"'@	c #CBCBCB",
")@	c #585858",
"!@	c #040404",
"~@	c #9C9C9C",
"{@	c #F9F9F9",
"]@	c #ECECEC",
"^@	c #575757",
"/@	c #969697",
"(@	c #9B9B9B",
"_@	c #909190",
":@	c #C0C0C0",
"<@	c #898889",
"[@	c #989898",
"}@	c #BEBEBE",
"|@	c #838383",
"1@	c #979797",
"2@	c #DBDBDB",
"3@	c #7B7C7C",
"4@	c #DFDFDF",
"5@	c #949494",
"6@	c #A5A5A5",
"7@	c #6E6E6E",
"8@	c #F4F4F4",
"9@	c #676767",
"0@	c #B0B0B0",
"a@	c #A0A0A0",
"b@	c #606060",
"c@	c #9D9D9D",
"d@	c #525352",
"e@	c #8D8D8D",
"f@	c #C4C4C4",
"g@	c #B6B6B6",
"h@	c #AEAEAE",
"i@	c #969696",
"j@	c #4D4D4C",
"k@	c #414141",
"l@	c #565656",
"m@	c #B1B1B1",
"n@	c #404040",
"o@	c #242424",
"p@	c #444444",
"q@	c #747474",
"r@	c #080808",
"s@	c #1D1D1D",
"t@	c #171716",
"u@	c #555555",
"v@	c #797979",
"w@	c #131313",
"x@	c #0C0C0C",
"y@	c #040504",
"z@	c #2C2C2C",
"A@	c #666666",
"B@	c #696969",
"C@	c #6C6C6C",
"D@	c #626262",
"E@	c #515151",
"F@	c #111111",
"G@	c #0B0C0B",
"H@	c #050404",
"I@	c #0A0A0A",
"J@	c #0B0B0B",
"K@	c #090909",
". . . + @ # $ % & * = - ; > , ' ) ! ~ { ] ^ / ( _ : < [ } | 1 2 ",
". . + 3 4 5 6 7 8 9 0 a b c d e f g h i j k l l m n [ o p q 2 r ",
". + s t u 6 v w x y z A B C D E F G H I J K L M N O P p Q R S T ",
"+ U V W X Y Z `  ...+.@.#.$.%.&.*.=.-.;.>.,.'.).!.~.{.].^./.(._.",
":.V <.[.}.|.$.1.2.3.4.5.V 3 6.7.8.9.0.a.b.c.d.e.[.f.g.h.i.j.k.k.",
"l.$ [.m.|.f.n.o.a p.#.q.r.. s.t.u.v.w.x.y.z.A.B.r.C.|.D.~.E.k.k.",
"F.G.H.I.J.K.L.M.N.O.P.Q.$ R.S.T.U.V.W.X.Y.Z.`. +.+l.1.++@+k.k.k.",
"#+$+%+&+L.*+a =+-+D.;+>+,+'+)+!+~+{+]+^+/+(+_+:+l.|.<+[+}+k.k.k.",
"|+1+2+3+4+5+6+6+6+6+6+7+1+8+9+0+a+b+c+d+e+f+g+h+x -+i+f j+k+k.k.",
"l+Q.7 R.m+n+n+V # o+p+p+q+r+s+t+u+v+w+x+y+z+A+L.>+B+C+-+D+E+F+k.",
"G+-+@ n+H+H+I+q.Y 7 J+J+K+,+z L+M+N+O+P+Q+R+S+T+U+++1+Y *+V+~.k.",
"a =+$ $ W+|+* * * ,+X+Y+|+|+Z+`+ @.@+@@@#@$@%@&@<+a a 8+%+4.l F+",
"*@;+3+W+H.q.=@I+<.$ 5 W+W+W+W+W+-@Y $.;@>@,@f.X+X+1+o.-+'@L.)@!@",
";+~@H.u |+l.{@n+]@# o+o+o+o+o+p+p+o+l.H+u =@q+6 q.* - ; n.=+^@!@",
"/@(@|+6 |+p+. @ m+:.:.:.:.:.:.:.:.:.:.7+V n+$ -@K+Y+r+&+Q.L.^@!@",
"_@4.Y+[.Y+# + . R.3 @ @ @ @ @ @ @ @ @ :.p+l.W+<.K+X+:@a &+L.^@!@",
"<@[@X+G.Y+# + . . 5+6+6+6+6+6+6+6+6+6+3 7+# H+<.J+* }@z z ; )@!@",
"|@1@* 2@Y+V + . . 6+:.R.5+5+5+5+5+5+R.3 7+o+C.-@7 w - =+=+-+)@!@",
"3@D+|.J+,+l.+ . + {@p+@ 4+4+4+4+4+4+R.@ m+V $ 4@3+Z+;@-+; -+)@!@",
"g.5@Z+7 * ]@+ . + 3 o+r.+ + + + + 5+{@:.# n+=@G.Y+1+ .6@6@6@)@!@",
"7@++1+H.|.n++ . 4+r.]@m+R.5+5+5+6+3 8@o+H+$ 6 7 |.x G+3.>+D.)@!@",
"9@T+f.X+'@C.+ . 5+8@W+o+r.r.@ r.:.m+# n+u I+J+|+%+}@0@#.a@3.)@!@",
"b@C+r+|.8+5 + . 5+p+W+]@V # # V ]@H+$ =@[.J+|+'@x `+&+~@c@a@)@!@",
"k B+J.8+9 u + . 6+C.=@u $ 5 5 $ <.-@6 2@Y |+|.f.1.o.L.N.(@#.)@!@",
"d@e@1.f@$.=@4+6+-@Y J+K+K+2@2@K+J+7 H.X+'@1+x - g@h@>+i@1@~@)@!@",
"j@e@;@r+}@3+=@7 '@|.* ,+X+X+,+* w |.%+f.r+}@`+>@0@=+#.++D+(@)@!@",
"k@..h@}@o.,@1.1.- }@J.J.:@:@J.J.- n.`+g@G+0@Q.z 6@a@1@e@4.i@l@}+",
"i.] (@>@o.&+*+*+0@m@K.K.K.K.m@m@*+h@a =+; D.3.#.~@[@B+e@4.B+n@k.",
"o@p@&@[@m@=+~@(@(@(@(@~@~@~@(@4.4.N.[@i@5@++O.C+V+' V+1@B+q@r@k.",
"s@t@u@) D+c@c@(@(@~@c@#.#.a@a@#.#.;+~@(@N.[@i@++T+O.T+e@v@} k.k.",
"w@x@y@z@k A@B@A c c C@C@C@j+j+j+C@C@C@C@C@c A B@9@A@D@E@F@k.k.k.",
"G@H@k.k.j.I@J@J@J@J@J@J@J@J@J@J@J@J@J@J@J@J@J@J@J@J@K@}+k.k.k.k."};
