/* XPM */
static char * cancel_xpm[] = {
"48 48 128 2",
"  	c None",
". 	c #000000",
"+ 	c #140000",
"@ 	c #150000",
"# 	c #0E0000",
"$ 	c #050000",
"% 	c #550000",
"& 	c #7A0000",
"* 	c #200000",
"= 	c #4B0000",
"- 	c #740000",
"; 	c #800000",
"> 	c #D80000",
", 	c #9C0000",
"' 	c #3A0000",
") 	c #660000",
"! 	c #C60000",
"~ 	c #EA0000",
"{ 	c #500000",
"] 	c #450000",
"^ 	c #930000",
"/ 	c #D10000",
"( 	c #D60000",
"_ 	c #750000",
": 	c #CF0000",
"< 	c #A60000",
"[ 	c #5D0000",
"} 	c #280000",
"| 	c #7D0000",
"1 	c #BF0000",
"2 	c #CD0000",
"3 	c #D00000",
"4 	c #BE0000",
"5 	c #680000",
"6 	c #110000",
"7 	c #FC0000",
"8 	c #F70000",
"9 	c #D30000",
"0 	c #7F0000",
"a 	c #2B0000",
"b 	c #260000",
"c 	c #4C0000",
"d 	c #A00000",
"e 	c #F40000",
"f 	c #AE0000",
"g 	c #950000",
"h 	c #570000",
"i 	c #100000",
"j 	c #F30000",
"k 	c #E30000",
"l 	c #B20000",
"m 	c #690000",
"n 	c #BD0000",
"o 	c #DA0000",
"p 	c #A10000",
"q 	c #670000",
"r 	c #4D0000",
"s 	c #380000",
"t 	c #CA0000",
"u 	c #E50000",
"v 	c #FF0000",
"w 	c #C00000",
"x 	c #700000",
"y 	c #D50000",
"z 	c #A70000",
"A 	c #460000",
"B 	c #2C0000",
"C 	c #4F0000",
"D 	c #1D0000",
"E 	c #C20000",
"F 	c #B90000",
"G 	c #3C0000",
"H 	c #6D0000",
"I 	c #B30000",
"J 	c #6B0000",
"K 	c #4E0000",
"L 	c #980000",
"M 	c #E10000",
"N 	c #A80000",
"O 	c #400000",
"P 	c #520000",
"Q 	c #790000",
"R 	c #A50000",
"S 	c #BB0000",
"T 	c #B10000",
"U 	c #A30000",
"V 	c #650000",
"W 	c #3E0000",
"X 	c #870000",
"Y 	c #CE0000",
"Z 	c #E60000",
"` 	c #F50000",
" .	c #DD0000",
"..	c #C50000",
"+.	c #300000",
"@.	c #C80000",
"#.	c #C30000",
"$.	c #2D0000",
"%.	c #770000",
"&.	c #C10000",
"*.	c #240000",
"=.	c #7C0000",
"-.	c #CC0000",
";.	c #C40000",
">.	c #600000",
",.	c #8C0000",
"'.	c #EF0000",
").	c #DC0000",
"!.	c #B00000",
"~.	c #B50000",
"{.	c #630000",
"].	c #6C0000",
"^.	c #9B0000",
"/.	c #910000",
"(.	c #290000",
"_.	c #1E0000",
":.	c #AC0000",
"<.	c #B40000",
"[.	c #180000",
"}.	c #040000",
"|.	c #0B0000",
"1.	c #A20000",
"2.	c #5C0000",
"3.	c #130000",
"4.	c #0F0000",
"5.	c #830000",
"6.	c #310000",
"7.	c #2F0000",
"                                                                                                ",
"                                                                                                ",
"                                                                                                ",
"                                                                                                ",
"                                                                                                ",
"                                                                                                ",
"                                                                                                ",
"                                                                                                ",
"                                                                                                ",
"                                                                                                ",
"                          . . . .                               . . . .                         ",
"                        + @ # $ .                               @ @ @ @ +                       ",
"                      + % & % * .                           . = - ; ; & % +                     ",
"                    . @ & > , ' .                         . . ) ! ~ ~ > & @ .                   ",
"                    . @ ; ~ ! ; { '                       ] % ^ / ~ ~ ( _ + .                   ",
"                    . @ ; ~ ~ : < [ .                 . } | 1 ! 2 3 3 4 5 6 .                   ",
"                    . @ ; ~ 7 8 9 0 a b               } c d e / f d d g h i .                   ",
"                    . @ ; ~ j k : l g m b         . ] | d n o p q { { r s                       ",
"                    . @ ; ~ ~ 3 t u v g a .     . . % 1 e o w x * . . . .                       ",
"                    . @ ; ~ ~ 3 ! y u z m A B   = ) ^ ! / p x C D . . .                         ",
"                    . @ ; ~ ~ 3 E ! t F z | G @ - ! / 2 f q * D                                 ",
"                    . @ H I 1 w w w w w w d J K L M : N | A .                                   ",
"                        O P Q R w w w w w S T f w / U V G B                                     ",
"                          . W X I F w w w Y Z `  ...; +..                                       ",
"                            +.P x L w w w @.y  .3 #.; +..                                       ",
"                              i $.%.w w w &.#...#.w ; +..                                       ",
"                              . *.=.y -.;.w w w w w g >.G B                                     ",
"                              . } ,.'.).@.w w w w w !., | A .                                   ",
"                              } c d e / f N ~.w w w w w R {.* D                                 ",
"                          . ] | d n o p q ].^.w w w w w I /.x C D                               ",
"                        . . % 1 e o w x * +.; w w w w w w w w x * .                             ",
"                        = ) ^ ! / p x C D (.h %.L F w w w w w /.{.A B                           ",
"                    . @ - ! / 2 f q * D     _.$.x I w w w w w I R | G . . . .                   ",
"                    . @ ; ~ o :.| A .       . i P X d <.w w w w w , >.B [.}..                   ",
"                    . @ ; ~ 1 x G B             +.W J d w w w w w !.g _ O |..                   ",
"                    . @ | u < W .                 . W X !.!.!.!.!.!.!.1.2.i .                   ",
"                    . 3.x 2 g s .                   +.P >.>.>.>.>.>.>.2.O 4.                    ",
"                    . i {.~.5.6..                     i i i i i i i i i 4.                      ",
"                      4.r Q >.a .                     . . . . . . . . .                         ",
"                        b 7.a                                                                   ",
"                          . .                                                                   ",
"                                                                                                ",
"                                                                                                ",
"                                                                                                ",
"                                                                                                ",
"                                                                                                ",
"                                                                                                ",
"                                                                                                "};
