/* XPM */
static char * connect_more_xpm[] = {
"48 48 137 2",
"  	c None",
". 	c #000000",
"+ 	c #404040",
"@ 	c #7F7F7F",
"# 	c #808080",
"$ 	c #FDFDFD",
"% 	c #F6F6F6",
"& 	c #F4F4F4",
"* 	c #F1F1F1",
"= 	c #E3E3E3",
"- 	c #707070",
"; 	c #D3D3D3",
"> 	c #CACACA",
", 	c #B9B9B9",
"' 	c #727272",
") 	c #303030",
"! 	c #909090",
"~ 	c #606060",
"{ 	c #757575",
"] 	c #D0D0D0",
"^ 	c #ABABAB",
"/ 	c #555555",
"( 	c #202020",
"_ 	c #000007",
": 	c #000023",
"< 	c #00002A",
"[ 	c #050529",
"} 	c #1B1B22",
"| 	c #101025",
"1 	c #2A2A4E",
"2 	c #D4D4DC",
"3 	c #E0E0E0",
"4 	c #0000B1",
"5 	c #0000D4",
"6 	c #1B1BCC",
"7 	c #8585A9",
"8 	c #5050BA",
"9 	c #2A2ADC",
"0 	c #D4D4F8",
"a 	c #0000FF",
"b 	c #2020F4",
"c 	c #A0A0CA",
"d 	c #6060E0",
"e 	c #2A2AFF",
"f 	c #D4D4FF",
"g 	c #0505FD",
"h 	c #1B1BF6",
"i 	c #2020F5",
"j 	c #3535EE",
"k 	c #8B8BD1",
"l 	c #5050E5",
"m 	c #8585D3",
"n 	c #A0A0CB",
"o 	c #8B8BD2",
"p 	c #3535ED",
"q 	c #1010FA",
"r 	c #6060DF",
"s 	c #3030EF",
"t 	c #07072A",
"u 	c #2323D4",
"v 	c #4E4EFF",
"w 	c #DCDCFF",
"x 	c #23232A",
"y 	c #B1B1D4",
"z 	c #F8F8FF",
"A 	c #C5B0B0",
"B 	c #C9A5A5",
"C 	c #C2BBBB",
"D 	c #C0C0C0",
"E 	c #B0B0B0",
"F 	c #A0A0A0",
"G 	c #DA7070",
"H 	c #EC3B3B",
"I 	c #D09090",
"J 	c #151515",
"K 	c #2A2A2A",
"L 	c #6A6A6A",
"M 	c #D4D4D4",
"N 	c #FAFAFA",
"O 	c #E5E5E5",
"P 	c #D5D5D5",
"Q 	c #AAAAAA",
"R 	c #505050",
"S 	c #9A9A9A",
"T 	c #858585",
"U 	c #4B4B4B",
"V 	c #A7A7A7",
"W 	c #C3C3C3",
"X 	c #C5C5C5",
"Y 	c #1B1B1B",
"Z 	c #353535",
"` 	c #434343",
" .	c #D1D1D1",
"..	c #DADADA",
"+.	c #050505",
"@.	c #0B0B0B",
"#.	c #000015",
"$.	c #00006A",
"%.	c #00007F",
"&.	c #10107A",
"*.	c #505065",
"=.	c #303070",
"-.	c #2A2A95",
";.	c #D4D4EA",
">.	c #240000",
",.	c #740000",
"'.	c #550000",
").	c #FF0000",
"!.	c #CE0000",
"~.	c #B60000",
"{.	c #080000",
"].	c #170000",
"^.	c #15152A",
"/.	c #6A6AD4",
"(.	c #7F7FFF",
"_.	c #9595FF",
":.	c #EAEAFF",
"<.	c #F5F5F5",
"[.	c #FFFFFF",
"}.	c #EEEEEE",
"|.	c #BABABA",
"1.	c #252525",
"2.	c #CBCBCB",
"3.	c #777777",
"4.	c #101010",
"5.	c #979797",
"6.	c #5B5B5B",
"7.	c #2C2C2C",
"8.	c #090909",
"9.	c #020202",
"0.	c #D6D6D6",
"a.	c #B3B3B3",
"b.	c #999999",
"c.	c #525252",
"d.	c #5E5E5E",
"e.	c #575757",
"f.	c #444444",
"                                                                                                ",
"                                                                                                ",
"                                                    . . . . . . . . . . . . . . . . . . . . .   ",
"                        .                           . + @ @ @ @ @ @ @ @ @ @ @ @ @ @ @ @ @ + .   ",
"                      . . .                         . # $ % & & & & & & & & & & & & & * = - .   ",
"                      . . .                         . # % ; > > > > > > > > > > > > > , ' ) .   ",
"                      . . .                         . # & > ! ~ ~ ~ ~ ~ ~ ~ ~ ~ { > ] ^ / ( .   ",
"                      . . .                         . # & > ~ _ : < < < < [ } | 1 2 3 ^ / ( .   ",
"                      . . .                         . # & > ~ : 4 5 5 5 5 6 7 8 9 0 3 ^ / ( .   ",
"                      . . .                         . # & > ~ < 5 a a a a b c d e f 3 ^ / ( .   ",
"                      . . .                         . # & > ~ < 5 a g h i j k l e f 3 ^ / ( .   ",
"        . . . . . . . . . . . . . . . . .           . # & > ~ < 5 a h m n o p q e f 3 ^ / ( .   ",
"        . . . . . . . . . . . . . . . . .           . # & > ~ < 5 a q l r l q a e f 3 ^ / ( .   ",
"                      . . .                         . # & > ~ < 5 q h g a a a a e f 3 ^ / ( .   ",
"                      . . .                         . # & > ~ < 5 l m h a a a a e f 3 ^ / ( .   ",
"                      . . .                         . # & > ~ < 5 s l q a a a a e f 3 ^ / ( .   ",
"                      . . .                         . # & > ~ t u e e e e e e e v w 3 ^ / ( .   ",
"                      . . .                         . # & > ~ x y f f f f f f f w z 3 ^ / ( .   ",
"                      . . .                         . # & > ! { > 3 3 3 3 3 3 3 3 3 ] ^ / ( .   ",
"                      . . .                         . # & > A B C D D D E F F F F F E ^ / ( .   ",
"                                                    . # & > G H B D D D - ( ( ( ( ( - ^ / ( .   ",
"      . . . . . . . . . . . . . . . . . . .         . # & > I G A D D D ! ~ ~ ~ ~ ~ ! ^ / ( .   ",
"    . J K K K K K K K K K K K K K K K K K J .       . # & > D D D D D D D D D D D D D ^ / ( .   ",
"    . L M M M M M M M M M M M M M M M M M L .       . # & > D D D D D D D D D D D D D ^ / ( .   ",
"    . # N O 3 3 3 3 3 3 3 3 3 3 3 3 3 P Q R .       . R S T # # # # # # # # # # # # # { U ( .   ",
"    . # & > E F F F F F F F F F V W X ^ / ( .       . Y Z Z Z Z Z Z Z Z Z Z Z Z Z Z Z Z Z Y .   ",
"    . # & > - ( ( ( ( ( ( ( ( ( `  ...^ / ( .       . +.@.@.@.@.@.@.@.@.@.@.@.@.@.@.@.@.@.+..   ",
"    . # & > ~ #.$.%.%.%.%.&.*.=.-.;.3 ^ / ( .         . . . . . . . >.,.'.. . . . . . . . .     ",
"    . # & > ~ < 5 a a a a b c d e f 3 ^ / ( .                         ).).                      ",
"    . # & > ~ < 5 a a a a b c d e f 3 ^ / ( .                         ).).                      ",
"    . # & > ~ < 5 a q l d d r s e f 3 ^ / ( .                         ).).                      ",
"    . # & > ~ < 5 a h m c m h a e f 3 ^ / ( .                         ).).                      ",
"    . # & > ~ < 5 a g h b h g a e f 3 ^ / ( .                         ).).                      ",
"    . # & > ~ < 5 s l q a a a a e f 3 ^ / ( .                         ).).                      ",
"    . # & > ~ < 5 l m h a a a a e f 3 ^ / ( .                         !.~.                      ",
"    . # & > ~ < 5 q h g a a a a e f 3 ^ / ( .                   . . {.>.].. .                   ",
"    . # & > ~ ^./.(.(.(.(.(.(.(._.:.3 ^ / ( .                   . + @ @ @ L J .                 ",
"    . # & > - `  .<.<.<.<.<.<.<.<.<...^ / ( {.                  {.# [.[.}.|.1..                 ",
"    . # & > E V W 2.2.2.2.2.2.2.2.2.X ^ / ( >.!.).).).).).).).!.>.# [.  3.R 4..                 ",
"    . # & > I G A D D D ! ~ ~ ~ ~ ~ ! ^ / ( ].~.).).).).).).).~.].R 5.6.+ Z @..                 ",
"    . # & > G H B D D D - ( ( ( ( ( - ^ / ( .                   . Y Z Z Z 7.8..                 ",
"    . # & > A B C D D D E F F F F F E ^ / ( .                   . +.@.@.@.8.9..                 ",
"    . # & > D D D D D D D D D D D D D ^ / ( .                     . . . . . .                   ",
"    . - 0.a.^ ^ ^ ^ ^ ^ ^ ^ ^ ^ ^ ^ ^ b.c.( .                                                   ",
"    . ) d.e./ / / / / / / / / / / / / c.f.( .                                                   ",
"    . 4.( ( ( ( ( ( ( ( ( ( ( ( ( ( ( ( ( 4..                                                   ",
"    . . . . . . . . . . . . . . . . . . . . .                                                   ",
"                                                                                                "};
