/* XPM */
static char * extend_search_xpm[] = {
"48 48 822 2",
"  	c None",
". 	c #346DB0",
"+ 	c #4174AA",
"@ 	c #5580A0",
"# 	c #73928B",
"$ 	c #779485",
"% 	c #769382",
"& 	c #80957C",
"* 	c #7E9278",
"= 	c #7B8D75",
"- 	c #7D8C6B",
"; 	c #758564",
"> 	c #6A7A5B",
", 	c #5C684E",
"' 	c #467DB4",
") 	c #5B8BB8",
"! 	c #6D90B0",
"~ 	c #6F90A8",
"{ 	c #71909F",
"] 	c #789593",
"^ 	c #7C968E",
"/ 	c #82988A",
"( 	c #8C9C83",
"_ 	c #8C9A7E",
": 	c #889678",
"< 	c #829070",
"[ 	c #7C8B69",
"} 	c #778562",
"| 	c #717C5A",
"1 	c #727C57",
"2 	c #717A4F",
"3 	c #5A5D3B",
"4 	c #3D75AE",
"5 	c #5184B5",
"6 	c #729ABB",
"7 	c #A9B7B3",
"8 	c #A9B5AB",
"9 	c #98AAA4",
"0 	c #879FA0",
"a 	c #849B9A",
"b 	c #899A94",
"c 	c #95A08D",
"d 	c #99A286",
"e 	c #97A17F",
"f 	c #8E9879",
"g 	c #899473",
"h 	c #88926D",
"i 	c #8C946A",
"j 	c #868E62",
"k 	c #7A8155",
"l 	c #686943",
"m 	c #67653F",
"n 	c #4579AF",
"o 	c #4C7FB2",
"p 	c #7C9EB8",
"q 	c #B4C2BF",
"r 	c #D8DBC3",
"s 	c #D7DBC1",
"t 	c #C8D0BC",
"u 	c #AFBDB6",
"v 	c #8CA3AA",
"w 	c #75909F",
"x 	c #899699",
"y 	c #999D93",
"z 	c #A4A38E",
"A 	c #A8A58C",
"B 	c #9D9C85",
"C 	c #95957D",
"D 	c #A8A07C",
"E 	c #A5A177",
"F 	c #9F9E6F",
"G 	c #A19A63",
"H 	c #908653",
"I 	c #7B7044",
"J 	c #5F8CB6",
"K 	c #769BBA",
"L 	c #96B2BE",
"M 	c #BDCCC6",
"N 	c #E0E4CE",
"O 	c #F0F0D7",
"P 	c #E8EAD2",
"Q 	c #DADFC9",
"R 	c #B6C4BC",
"S 	c #97ADB1",
"T 	c #9DADAF",
"U 	c #9CA8A5",
"V 	c #9BA29A",
"W 	c #A3A495",
"X 	c #AEA991",
"Y 	c #BCB28E",
"Z 	c #CCBE90",
"` 	c #BEB68A",
" .	c #ADAB82",
"..	c #B3AE78",
"+.	c #A79D65",
"@.	c #978953",
"#.	c #83774B",
"$.	c #477DB1",
"%.	c #779DBD",
"&.	c #B2C6CA",
"*.	c #E1E6CE",
"=.	c #F4F5D6",
"-.	c #FCFCDE",
";.	c #FCFCE6",
">.	c #FCFCE5",
",.	c #FCFCE1",
"'.	c #FBFBD7",
").	c #E3E8CC",
"!.	c #C9D4C4",
"~.	c #C1CFC6",
"{.	c #AEBEBA",
"].	c #9DAEAA",
"^.	c #A1A99E",
"/.	c #C1BC9C",
"(.	c #E3D39D",
"_.	c #EDDDA1",
":.	c #D3C99A",
"<.	c #B7B490",
"[.	c #B9B686",
"}.	c #B9AF74",
"|.	c #AF9E60",
"1.	c #877C50",
"2.	c #746C46",
"3.	c #4377A8",
"4.	c #5586B4",
"5.	c #9DB9CC",
"6.	c #E5EBE1",
"7.	c #F5F6E3",
"8.	c #FAFBE4",
"9.	c #FCFCE4",
"0.	c #FCFCE0",
"a.	c #FCFCDD",
"b.	c #FCFCDA",
"c.	c #FCFCD6",
"d.	c #F7F8D2",
"e.	c #F1F3D0",
"f.	c #EFF2D6",
"g.	c #E6EAD3",
"h.	c #D9DFC8",
"i.	c #C9CDAF",
"j.	c #DAD8A8",
"k.	c #F1E8A8",
"l.	c #F6EEAB",
"m.	c #E1D9A1",
"n.	c #C9C193",
"o.	c #BFB886",
"p.	c #B8AC75",
"q.	c #AD9E65",
"r.	c #968C5E",
"s.	c #6A6445",
"t.	c #3C3928",
"u.	c #4278AC",
"v.	c #4D7FAF",
"w.	c #789DB9",
"x.	c #BBCCCA",
"y.	c #F4F5DB",
"z.	c #FAFAE2",
"A.	c #FCFCE3",
"B.	c #FCFCDC",
"C.	c #FBFBD4",
"D.	c #FBFBD0",
"E.	c #FBFBDA",
"F.	c #F8F9DD",
"G.	c #EFF1D5",
"H.	c #D9DBB7",
"I.	c #D5D5A8",
"J.	c #DCD9A3",
"K.	c #F2EDAB",
"L.	c #E4DEA3",
"M.	c #CDC695",
"N.	c #BBB487",
"O.	c #B0A676",
"P.	c #A59A66",
"Q.	c #958D61",
"R.	c #757150",
"S.	c #54523D",
"T.	c #2C2B21",
"U.	c #467DB3",
"V.	c #5888B6",
"W.	c #95AFBB",
"X.	c #CAD3C1",
"Y.	c #F0EFC8",
"Z.	c #F7F6D5",
"`.	c #FAF9D9",
" +	c #FBFBD9",
".+	c #FBFBE0",
"++	c #FBFBD6",
"@+	c #FCFCDB",
"#+	c #F7F7DA",
"$+	c #E2E2BB",
"%+	c #C8CAA5",
"&+	c #BEC19B",
"*+	c #E8E4A7",
"=+	c #E4DFA2",
"-+	c #CFCA97",
";+	c #B7B289",
">+	c #A6A076",
",+	c #999265",
"'+	c #8F8860",
")+	c #827E5C",
"!+	c #69674F",
"~+	c #2E2D23",
"{+	c #1F1E18",
"]+	c #3970A6",
"^+	c #4279B0",
"/+	c #5789B7",
"(+	c #8AA7B3",
"_+	c #B4C1AD",
":+	c #D4D8AA",
"<+	c #E5E5B6",
"[+	c #F1F1C3",
"}+	c #F9F9D0",
"|+	c #FCFCDF",
"1+	c #FCFCE2",
"2+	c #FCFCD8",
"3+	c #F9F9D4",
"4+	c #EFEDBB",
"5+	c #C3C6A3",
"6+	c #A7AD94",
"7+	c #DCD59E",
"8+	c #E8DF9F",
"9+	c #DFD89A",
"0+	c #BFB989",
"a+	c #9C9974",
"b+	c #818162",
"c+	c #87825C",
"d+	c #807D5A",
"e+	c #6C6B50",
"f+	c #3D3D30",
"g+	c #313128",
"h+	c #3C72A8",
"i+	c #447AB1",
"j+	c #5488B8",
"k+	c #779CB5",
"l+	c #9AB1AC",
"m+	c #B7C3A4",
"n+	c #C1CBAA",
"o+	c #CBD4B1",
"p+	c #D5DDB7",
"q+	c #DDE5BD",
"r+	c #E5EBC4",
"s+	c #EAEFC8",
"t+	c #EAEDC6",
"u+	c #EFEFC5",
"v+	c #F5F2C5",
"w+	c #F8F4C9",
"x+	c #F9F4C6",
"y+	c #F8F1BF",
"z+	c #F1E7AF",
"A+	c #C6C29D",
"B+	c #A7A990",
"C+	c #D1CA99",
"D+	c #E3DB9E",
"E+	c #E5DD9B",
"F+	c #CAC18B",
"G+	c #909072",
"H+	c #5F665B",
"I+	c #636655",
"J+	c #6A6B53",
"K+	c #68684E",
"L+	c #4A4A3A",
"M+	c #2C2D24",
"N+	c #3F74AB",
"O+	c #467CB2",
"P+	c #5186B9",
"Q+	c #6391BA",
"R+	c #7EA1B2",
"S+	c #95AEAA",
"T+	c #96AFAA",
"U+	c #9DB4A6",
"V+	c #A7BCA2",
"W+	c #B7C9A2",
"X+	c #C3D4A4",
"Y+	c #CCDAA6",
"Z+	c #CCD7A4",
"`+	c #D6DBA7",
" @	c #E3E0AA",
".@	c #EBE5AC",
"+@	c #EFE5AB",
"@@	c #F1E2A7",
"#@	c #EBD99F",
"$@	c #C9BE94",
"%@	c #AEAA8D",
"&@	c #C2BD94",
"*@	c #D0CB98",
"=@	c #D3CF97",
"-@	c #BDB788",
";@	c #7A7F6E",
">@	c #3D4C55",
",@	c #3D494E",
"'@	c #51584C",
")@	c #62634A",
"!@	c #535442",
"~@	c #272820",
"{@	c #000000",
"]@	c #4076AA",
"^@	c #4E84BA",
"/@	c #558ABC",
"(@	c #5E90BA",
"_@	c #6795B8",
":@	c #6995B6",
"<@	c #729AAF",
"[@	c #80A2A7",
"}@	c #97B49D",
"|@	c #9DBB96",
"1@	c #9CBD92",
"2@	c #9ABA90",
"3@	c #A6BD91",
"4@	c #B7C193",
"5@	c #C7C593",
"6@	c #D3C795",
"7@	c #DAC795",
"8@	c #D3C291",
"9@	c #C5B78C",
"0@	c #B5AC88",
"a@	c #A7A68A",
"b@	c #989D88",
"c@	c #859081",
"d@	c #677773",
"e@	c #455964",
"f@	c #2B4155",
"g@	c #2B3F4E",
"h@	c #44504B",
"i@	c #5B5E48",
"j@	c #505444",
"k@	c #272921",
"l@	c #4074A9",
"m@	c #467BB0",
"n@	c #4C82B8",
"o@	c #4F86BA",
"p@	c #5389BB",
"q@	c #578BBB",
"r@	c #598BB7",
"s@	c #638FB0",
"t@	c #7598A6",
"u@	c #95AE9A",
"v@	c #9BB592",
"w@	c #99B68C",
"x@	c #97B38B",
"y@	c #9FB48B",
"z@	c #ABB68B",
"A@	c #BABA8B",
"B@	c #C6BC8D",
"C@	c #CFBE8E",
"D@	c #CDBC8C",
"E@	c #CCBA8A",
"F@	c #CBB888",
"G@	c #C2B68A",
"H@	c #9D9E84",
"I@	c #6F7E7A",
"J@	c #415C6A",
"K@	c #2D495E",
"L@	c #243E55",
"M@	c #263D4F",
"N@	c #3D4B4C",
"O@	c #51574A",
"P@	c #454E48",
"Q@	c #212624",
"R@	c #3F72A7",
"S@	c #4479AE",
"T@	c #4A80B6",
"U@	c #4D83B8",
"V@	c #5085B9",
"W@	c #5287B9",
"X@	c #5386B5",
"Y@	c #5D89AE",
"Z@	c #7293A5",
"`@	c #9CAD9A",
" #	c #A7B593",
".#	c #A8B78D",
"+#	c #A9B58D",
"@#	c #ABB48A",
"##	c #AFB488",
"$#	c #B7B688",
"%#	c #BFB78A",
"&#	c #C6B88B",
"*#	c #CABB8A",
"=#	c #D1BC88",
"-#	c #D7BE87",
";#	c #D6C189",
">#	c #A2A081",
",#	c #617475",
"'#	c #2F4F66",
")#	c #22425B",
"!#	c #223E54",
"~#	c #243D50",
"{#	c #37474E",
"]#	c #464F4C",
"^#	c #38474B",
"/#	c #1A2326",
"(#	c #3D70A5",
"_#	c #4276AC",
":#	c #487DB3",
"<#	c #4B80B6",
"[#	c #4E82B7",
"}#	c #5084B6",
"|#	c #5183B1",
"1#	c #5885AC",
"2#	c #6C8EA6",
"3#	c #9FACA0",
"4#	c #B5B899",
"5#	c #C1BD92",
"6#	c #C6BC90",
"7#	c #C4BA8C",
"8#	c #C0B688",
"9#	c #BCB286",
"0#	c #B7AD86",
"a#	c #B6AC85",
"b#	c #C4B686",
"c#	c #C0B080",
"d#	c #B4A57B",
"e#	c #9F997B",
"f#	c #6A7774",
"g#	c #36556A",
"h#	c #254662",
"i#	c #21405A",
"j#	c #223D53",
"k#	c #233D50",
"l#	c #2F434E",
"m#	c #39484D",
"n#	c #30444D",
"o#	c #172126",
"p#	c #3A6CA0",
"q#	c #4679AE",
"r#	c #497CB0",
"s#	c #4B7EB1",
"t#	c #4E7EAB",
"u#	c #5380A7",
"v#	c #6589A5",
"w#	c #9FABA7",
"x#	c #C0BDA2",
"y#	c #D3C699",
"z#	c #D5C292",
"A#	c #D0BD8C",
"B#	c #C7B788",
"C#	c #BFB184",
"D#	c #B7AB81",
"E#	c #B2A67F",
"F#	c #B0A47D",
"G#	c #949179",
"H#	c #737C74",
"I#	c #5F7072",
"J#	c #415B6C",
"K#	c #264864",
"L#	c #22425D",
"M#	c #223E56",
"N#	c #223D51",
"O#	c #223D4F",
"P#	c #283F4E",
"Q#	c #2C414E",
"R#	c #283E4C",
"S#	c #131F26",
"T#	c #36689A",
"U#	c #3C6EA2",
"V#	c #4475A9",
"W#	c #4677AA",
"X#	c #4879AA",
"Y#	c #4A79A9",
"Z#	c #4B7AA5",
"`#	c #507CA2",
" $	c #6487A3",
".$	c #A2AEAC",
"+$	c #C9C4A9",
"@$	c #E0CFA0",
"#$	c #DEC693",
"$$	c #D3BF8C",
"%$	c #C7B787",
"&$	c #BDB082",
"*$	c #B8AA7D",
"=$	c #AFA179",
"-$	c #978F74",
";$	c #667272",
">$	c #385770",
",$	c #2C4F6C",
"'$	c #254966",
")$	c #21435F",
"!$	c #213F58",
"~$	c #223C4F",
"{$	c #223C4E",
"]$	c #203849",
"^$	c #101B24",
"/$	c #326294",
"($	c #38699C",
"_$	c #3F70A4",
":$	c #4373A6",
"<$	c #4575A6",
"[$	c #4776A4",
"}$	c #48759F",
"|$	c #547C9E",
"1$	c #718EA0",
"2$	c #B3B8A8",
"3$	c #D4CEAA",
"4$	c #E4D6A6",
"5$	c #DFCA95",
"6$	c #CDBF8B",
"7$	c #BAB584",
"8$	c #B2AD80",
"9$	c #B0A679",
"0$	c #A49A74",
"a$	c #787D71",
"b$	c #4D6470",
"c$	c #2C506D",
"d$	c #284B69",
"e$	c #244562",
"f$	c #21405B",
"g$	c #213D54",
"h$	c #233D51",
"i$	c #243D4F",
"j$	c #223D50",
"k$	c #223C50",
"l$	c #203A4E",
"m$	c #1D3445",
"n$	c #0E1921",
"o$	c #2D5A89",
"p$	c #336293",
"q$	c #3B6A9D",
"r$	c #3F6D9F",
"s$	c #416FA0",
"t$	c #42709E",
"u$	c #43709A",
"v$	c #547999",
"w$	c #778E9A",
"x$	c #BABAA2",
"y$	c #D6CEA4",
"z$	c #E0D4A1",
"A$	c #DACA95",
"B$	c #C6BD89",
"C$	c #B1AF80",
"D$	c #A7A77C",
"E$	c #A39F76",
"F$	c #969271",
"G$	c #68736E",
"H$	c #445C6B",
"I$	c #2A4C67",
"J$	c #284762",
"K$	c #24425C",
"L$	c #213D55",
"M$	c #213C51",
"N$	c #233D4F",
"O$	c #20394C",
"P$	c #1A2D3C",
"Q$	c #0C151C",
"R$	c #27517C",
"S$	c #2E5A89",
"T$	c #376496",
"U$	c #3B6799",
"V$	c #3D6999",
"W$	c #3D6B99",
"X$	c #3E6A95",
"Y$	c #517493",
"Z$	c #758994",
"`$	c #BAB89C",
" %	c #D6CC9E",
".%	c #DED29B",
"+%	c #D5CA94",
"@%	c #C1BA88",
"#%	c #ACAA7D",
"$%	c #9CA078",
"%%	c #929574",
"&%	c #82866F",
"*%	c #5B6B6A",
"=%	c #435966",
"-%	c #334D62",
";%	c #2D465C",
">%	c #263F55",
",%	c #213B50",
"'%	c #213C4E",
")%	c #223D4E",
"!%	c #213C4F",
"~%	c #1F3749",
"{%	c #162631",
"]%	c #0A1116",
"^%	c #21446A",
"/%	c #29517D",
"(%	c #325F8F",
"_%	c #366292",
":%	c #396493",
"<%	c #3A6693",
"[%	c #3B668F",
"}%	c #466B8D",
"|%	c #647E90",
"1%	c #AFB39D",
"2%	c #D6CC9F",
"3%	c #E5D49C",
"4%	c #D4C893",
"5%	c #C1BA87",
"6%	c #ACAA7B",
"7%	c #959973",
"8%	c #7A8470",
"9%	c #5F6E6D",
"0%	c #495C67",
"a%	c #4D5D64",
"b%	c #525D61",
"c%	c #3B4C5A",
"d%	c #2B4153",
"e%	c #203B4E",
"f%	c #203A4D",
"g%	c #1C3343",
"h%	c #101C25",
"i%	c #060B0F",
"j%	c #274F7A",
"k%	c #2B5785",
"l%	c #2F5B8A",
"m%	c #325E8C",
"n%	c #34608C",
"o%	c #36608A",
"p%	c #3C6388",
"q%	c #53738B",
"r%	c #9DA99E",
"s%	c #CFC8A1",
"t%	c #E9D69C",
"u%	c #D3C590",
"v%	c #BEB584",
"w%	c #A6A278",
"x%	c #83886E",
"y%	c #5D6D6A",
"z%	c #425966",
"A%	c #46575F",
"B%	c #505C5E",
"C%	c #525C5E",
"D%	c #354858",
"E%	c #274053",
"F%	c #203C50",
"G%	c #203C4E",
"H%	c #1E3647",
"I%	c #182A38",
"J%	c #0A1218",
"K%	c #040608",
"L%	c #234972",
"M%	c #244B75",
"N%	c #285481",
"O%	c #2C5884",
"P%	c #2E5985",
"Q%	c #305A84",
"R%	c #325B82",
"S%	c #446785",
"T%	c #839799",
"U%	c #C0BE9E",
"V%	c #E7D49A",
"W%	c #D2C08C",
"X%	c #B8AB7F",
"Y%	c #989373",
"Z%	c #6A726A",
"`%	c #425864",
" &	c #2B4860",
".&	c #435358",
"+&	c #4A5658",
"@&	c #44535A",
"#&	c #2A4357",
"$&	c #213D52",
"%&	c #213B4D",
"&&	c #1A2F3E",
"*&	c #111E27",
"=&	c #05090B",
"-&	c #010202",
";&	c #1A3554",
">&	c #1C395A",
",&	c #254973",
"'&	c #28507B",
")&	c #2A537E",
"!&	c #2B537C",
"~&	c #2C537A",
"{&	c #365A7B",
"]&	c #5A7383",
"^&	c #A0A28A",
"/&	c #DBC68E",
"(&	c #CEB586",
"_&	c #A59679",
":&	c #74736C",
"<&	c #465865",
"[&	c #2E4A64",
"}&	c #264362",
"|&	c #354A5A",
"1&	c #344858",
"2&	c #2C4457",
"3&	c #243F57",
"4&	c #203D53",
"5&	c #203D50",
"6&	c #1F384A",
"7&	c #13232E",
"8&	c #070C10",
"9&	c #020304",
"0&	c #1A3451",
"a&	c #1F3C5D",
"b&	c #234468",
"c&	c #274A71",
"d&	c #284B71",
"e&	c #284C72",
"f&	c #2B5076",
"g&	c #385A7C",
"h&	c #5E7280",
"i&	c #7F8681",
"j&	c #7B7D79",
"k&	c #626A70",
"l&	c #455568",
"m&	c #2E4866",
"n&	c #244364",
"o&	c #224160",
"p&	c #29435A",
"q&	c #274258",
"r&	c #234057",
"s&	c #213E57",
"t&	c #203E56",
"u&	c #203D55",
"v&	c #203B4F",
"w&	c #172A37",
"x&	c #0C161C",
"y&	c #020405",
"z&	c #000101",
"A&	c #1A2F48",
"B&	c #1F3855",
"C&	c #244061",
"D&	c #254364",
"E&	c #24466B",
"F&	c #234772",
"G&	c #20487A",
"H&	c #224979",
"I&	c #244975",
"J&	c #26466E",
"K&	c #234269",
"L&	c #203F66",
"M&	c #1F3F66",
"N&	c #1F3F63",
"O&	c #1F3F5E",
"P&	c #203F59",
"Q&	c #203F58",
"R&	c #213F57",
"S&	c #203E57",
"T&	c #203E58",
"U&	c #1F3D55",
"V&	c #1D374B",
"W&	c #182D3B",
"X&	c #0E1920",
"Y&	c #060A0C",
"Z&	c #1C3049",
"`&	c #1E324D",
" *	c #223B5A",
".*	c #224065",
"+*	c #21426D",
"@*	c #1F4271",
"#*	c #1F4371",
"$*	c #1F426F",
"%*	c #20416C",
"&*	c #1F4067",
"**	c #1F3F62",
"=*	c #1F3F61",
"-*	c #203F5D",
";*	c #213F5A",
">*	c #1F3F59",
",*	c #1F3E56",
"'*	c #1D3B53",
")*	c #162B3C",
"!*	c #0D1921",
"~*	c #05090C",
"{*	c #1A2B43",
"]*	c #172A41",
"^*	c #1B3250",
"/*	c #1F3B61",
"(*	c #1E3E67",
"_*	c #1F3F68",
":*	c #1F3F67",
"<*	c #1E3F66",
"[*	c #1E3E63",
"}*	c #1F3E5F",
"|*	c #1F3E5C",
"1*	c #203E59",
"2*	c #203F5A",
"3*	c #1F3F5B",
"4*	c #1F3D57",
"5*	c #1D394F",
"6*	c #183145",
"7*	c #122534",
"8*	c #0B1720",
"9*	c #050A0D",
"0*	c #010304",
"a*	c #0C1825",
"b*	c #132439",
"c*	c #192F4B",
"d*	c #1C3555",
"e*	c #1E395A",
"f*	c #1F3B5D",
"g*	c #1E3C5E",
"h*	c #1F3D5C",
"i*	c #203D59",
"j*	c #203D57",
"k*	c #1F3D56",
"l*	c #1E3C56",
"m*	c #1D3B57",
"n*	c #1C3954",
"o*	c #1B354B",
"p*	c #162C3E",
"q*	c #0F1F2C",
"r*	c #060D12",
"s*	c #020406",
"t*	c #0A131D",
"u*	c #0B1520",
"v*	c #101F2F",
"w*	c #16293F",
"x*	c #1B324D",
"y*	c #1B3654",
"z*	c #1E3D5E",
"A*	c #1E3B58",
"B*	c #1D3951",
"C*	c #172E41",
"D*	c #122536",
"E*	c #0E1D28",
"F*	c #09121A",
"G*	c #04080C",
"H*	c #080E15",
"I*	c #0E1926",
"J*	c #0D1825",
"K*	c #0D1A29",
"L*	c #0E1C2D",
"M*	c #0F1E2F",
"N*	c #0F1E2C",
"O*	c #0E1C28",
"P*	c #0D1A24",
"Q*	c #0B151E",
"R*	c #081017",
"S*	c #060B10",
"T*	c #030608",
"U*	c #010102",
"                                                                                                ",
"                                                                                                ",
"                                                                                                ",
"                                                                                                ",
"                                                                                                ",
"                                                                                                ",
"                                                                                                ",
"                                                                                                ",
"                                  . + @ # $ % & * = - ; > ,                                     ",
"                              ' ) ! ~ { ] ^ / ( _ : < [ } | 1 2 3                               ",
"                            4 5 6 7 8 9 0 a b c d e f g h i j k l m                             ",
"                          n o p q r s t u v w x y z A B C D E F G H I                           ",
"                        J K L M N O O P Q R S T U V W X Y Z `  ...+.@.#.                        ",
"                      $.%.&.*.=.-.;.>.,.'.).!.~.{.].^./.(._.:.<.[.}.|.1.2.                      ",
"                    3.4.5.6.7.8.9.0.a.b.c.d.e.f.g.h.i.j.k.l.m.n.o.p.q.r.s.t.                    ",
"                  u.v.w.x.y.z.A.,.b.B.-.b.C.D.E.F.G.H.I.J.K.L.M.N.O.P.Q.R.S.T.                  ",
"                  U.V.W.X.Y.Z.`. +c.a.9..+++D.@+0.#+$+%+&+*+=+-+;+>+,+'+)+!+~+{+                ",
"                ]+^+/+(+_+:+<+[+}+++|+>.1+B.2+|+a.3+4+5+6+7+8+9+0+a+b+c+d+e+f+g+                ",
"                h+i+j+k+l+m+n+o+p+q+r+s+t+u+v+w+x+y+z+A+B+C+D+E+F+G+H+I+J+K+L+M+                ",
"                N+O+P+Q+R+S+T+U+V+W+X+Y+Z+`+ @.@+@@@#@$@%@&@*@=@-@;@>@,@'@)@!@~@{@              ",
"                ]@O+^@/@(@_@:@<@[@}@|@1@2@3@4@5@6@7@8@9@0@a@b@c@d@e@f@g@h@i@j@k@{@              ",
"                l@m@n@o@p@q@r@s@t@u@v@w@x@y@z@A@B@C@D@E@F@G@H@I@J@K@L@M@N@O@P@Q@{@              ",
"                R@S@T@U@V@W@X@Y@Z@`@ #.#+#@###$#%#&#*#=#-#;#>#,#'#)#!#~#{#]#^#/#{@              ",
"                (#_#:#<#[#}#|#1#2#3#4#5#6#7#8#9#0#a#b#c#d#e#f#g#h#i#j#k#l#m#n#o#{@{@            ",
"                p#R@q#r#s#v.t#u#v#w#x#y#z#A#B#C#D#E#F#G#H#I#J#K#L#M#N#O#P#Q#R#S#{@{@{@          ",
"                T#U#V#W#X#Y#Z#`# $.$+$@$#$$$%$&$*$=$-$;$>$,$'$)$!$j#k#~$~${$]$^${@{@{@          ",
"                /$($_$:$<$[$}$|$1$2$3$4$5$6$7$8$9$0$a$b$c$d$e$f$g$h$i$j$k$l$m$n${@{@{@          ",
"                o$p$q$r$s$t$u$v$w$x$y$z$A$B$C$D$E$F$G$H$I$J$K$L$M$~$N$j$k$O$P$Q${@{@{@          ",
"                R$S$T$U$V$W$X$Y$Z$`$ %.%+%@%#%$%%%&%*%=%-%;%>%,%'%'%)%k$!%~%{%]%{@{@{@          ",
"                ^%/%(%_%:%<%[%}%|%1%2%3%4%5%6%7%8%9%0%a%b%c%d%e%e%'%'%!%f%g%h%i%{@{@{@          ",
"                  j%k%l%m%n%o%p%q%r%s%t%u%v%w%x%y%z%A%B%C%D%E%F%e%G%'%'%H%I%J%K%{@{@            ",
"                  L%M%N%O%P%Q%R%S%T%U%V%W%X%Y%Z%`% &.&+&@&#&!#$&G%G%'%%&&&*&=&-&{@              ",
"                  ;&>&,&'&)&!&~&{&]&^&/&(&_&:&<&[&}&|&1&2&3&L$4&5&G%%&6&7&8&9&{@{@              ",
"                    0&a&b&c&d&e&f&g&h&i&j&k&l&m&n&o&p&q&r&s&t&u&4&v&H%w&x&y&z&{@                ",
"                      A&B&C&D&E&F&G&H&I&J&K&L&M&N&O&P&Q&R&S&T&S&U&V&W&X&Y&{@{@{@                ",
"                        Z&`& *.*+*@*#*$*%*&***=*-*;*!$P&>*P&Q&,*'*)*!*~*9&{@{@{@                ",
"                          {*]*^*/*(*_*:*<*[*}*|*1*T&1*2*3*4*5*6*7*8*9*0*z&{@{@                  ",
"                            a*b*c*d*e*f*g*g*h*i*j*k*l*m*n*o*p*q*r*s*{@{@{@{@                    ",
"                              t*u*v*w*x*y*>&g*z*A*B*o*C*D*E*F*G*9&z&{@{@{@                      ",
"                                H*I*I*J*K*L*M*M*N*O*P*Q*R*S*T*U*{@{@{@{@                        ",
"                                      {@{@{@{@{@{@{@{@{@{@{@{@{@{@{@{@                          ",
"                                        {@{@{@{@{@{@{@{@{@{@{@{@                                ",
"                                          {@{@{@{@{@{@{@{@{@{@                                  ",
"                                                                                                ",
"                                                                                                ",
"                                                                                                ",
"                                                                                                ",
"                                                                                                "};
