/* XPM */
static char * local_search_xpm[] = {
"48 48 826 2",
"  	c None",
". 	c #584434",
"+ 	c #422522",
"@ 	c #30110E",
"# 	c #260A08",
"$ 	c #988978",
"% 	c #806F5E",
"& 	c #6F5D4E",
"* 	c #665447",
"= 	c #524338",
"- 	c #462623",
"; 	c #492723",
"> 	c #36130F",
", 	c #2C0C09",
"' 	c #280D09",
") 	c #928474",
"! 	c #928373",
"~ 	c #766656",
"{ 	c #736255",
"] 	c #716156",
"^ 	c #5B4E44",
"/ 	c #4F433A",
"( 	c #150504",
"_ 	c #441E1A",
": 	c #662D27",
"< 	c #511A14",
"[ 	c #42120D",
"} 	c #3E1914",
"| 	c #5F4F44",
"1 	c #776A5C",
"2 	c #796A5B",
"3 	c #4F4135",
"4 	c #53463B",
"5 	c #695C53",
"6 	c #857970",
"7 	c #5F554D",
"8 	c #2A211A",
"9 	c #210C0A",
"0 	c #4E231E",
"a 	c #75352E",
"b 	c #5E1F19",
"c 	c #5C2821",
"d 	c #664037",
"e 	c #7B685C",
"f 	c #6D6052",
"g 	c #53483C",
"h 	c #3C342C",
"i 	c #524B44",
"j 	c #726B64",
"k 	c #81776F",
"l 	c #71675F",
"m 	c #5A5149",
"n 	c #3F3731",
"o 	c #2E1310",
"p 	c #5C2B25",
"q 	c #7D3B33",
"r 	c #662922",
"s 	c #76463C",
"t 	c #8C6B5E",
"u 	c #8C796B",
"v 	c #615549",
"w 	c #372F27",
"x 	c #3A3632",
"y 	c #5E5D5A",
"z 	c #807E7A",
"A 	c #766E68",
"B 	c #827870",
"C 	c #827971",
"D 	c #4E4640",
"E 	c #3C352F",
"F 	c #74342B",
"G 	c #7D3C32",
"H 	c #714539",
"I 	c #876B5E",
"J 	c #958477",
"K 	c #695C50",
"L 	c #4D453E",
"M 	c #423E3A",
"N 	c #545350",
"O 	c #727371",
"P 	c #8B8B89",
"Q 	c #85837F",
"R 	c #857E78",
"S 	c #847B72",
"T 	c #7E746B",
"U 	c #534A43",
"V 	c #201913",
"W 	c #1A1411",
"X 	c #8E584A",
"Y 	c #8D5B4E",
"Z 	c #86695C",
"` 	c #79695D",
" .	c #685E54",
"..	c #4C443E",
"+.	c #504C48",
"@.	c #5D5C5A",
"#.	c #626260",
"$.	c #808180",
"%.	c #9D9E9D",
"&.	c #9B9B99",
"*.	c #94918E",
"=.	c #8A847F",
"-.	c #7C736C",
";.	c #635850",
">.	c #483D34",
",.	c #332A24",
"'.	c #27201B",
").	c #9B7C6C",
"!.	c #9A7C6C",
"~.	c #8A7C6F",
"{.	c #5E554C",
"].	c #38332D",
"^.	c #43403E",
"/.	c #5F5E5C",
"(.	c #757675",
"_.	c #6B6C6A",
":.	c #8C8C8B",
"<.	c #AFB0AF",
"[.	c #B0B0B0",
"}.	c #A6A5A4",
"|.	c #93928F",
"1.	c #736E69",
"2.	c #70665E",
"3.	c #6E6157",
"4.	c #52463D",
"5.	c #352C26",
"6.	c #1F1914",
"7.	c #8C7E6E",
"8.	c #948577",
"9.	c #8D7F73",
"0.	c #574E46",
"a.	c #3A3530",
"b.	c #393734",
"c.	c #71706F",
"d.	c #7B7C7A",
"e.	c #777876",
"f.	c #717271",
"g.	c #959595",
"h.	c #BABABA",
"i.	c #B9B9B9",
"j.	c #B1B1B0",
"k.	c #A2A2A1",
"l.	c #878683",
"m.	c #76716C",
"n.	c #6C625B",
"o.	c #685C51",
"p.	c #4D4138",
"q.	c #2E251F",
"r.	c #1B1510",
"s.	c #ACA08F",
"t.	c #998E80",
"u.	c #7C7267",
"v.	c #5A524A",
"w.	c #3C3732",
"x.	c #494643",
"y.	c #656563",
"z.	c #878785",
"A.	c #8D8E8D",
"B.	c #8B8B8B",
"C.	c #888888",
"D.	c #A7A7A6",
"E.	c #C6C6C6",
"F.	c #BCBCBC",
"G.	c #ACACAC",
"H.	c #929292",
"I.	c #878583",
"J.	c #7E7974",
"K.	c #6A625A",
"L.	c #574B42",
"M.	c #43362D",
"N.	c #31261E",
"O.	c #261D17",
"P.	c #B0A393",
"Q.	c #A69A8B",
"R.	c #91897E",
"S.	c #5E5851",
"T.	c #322E2A",
"U.	c #666564",
"V.	c #929291",
"W.	c #939492",
"X.	c #9A9A9A",
"Y.	c #A1A1A1",
"Z.	c #B8B8B8",
"`.	c #CFCFCF",
" +	c #D0D0D0",
".+	c #C4C4C4",
"++	c #B2B2B2",
"@+	c #9C9C9C",
"#+	c #9B9B9A",
"$+	c #979694",
"%+	c #6F6C68",
"&+	c #5E554D",
"*+	c #54453A",
"=+	c #48392E",
"-+	c #33281F",
";+	c #221813",
">+	c #CABFAE",
",+	c #A4998B",
"'+	c #786F64",
")+	c #47413A",
"!+	c #47423E",
"~+	c #555350",
"{+	c #61615E",
"]+	c #7C7B7A",
"^+	c #959594",
"/+	c #9C9D9B",
"(+	c #A4A4A4",
"_+	c #ABABAB",
":+	c #C1C1C1",
"<+	c #D2D2D2",
"[+	c #C5C5C5",
"}+	c #B4B4B4",
"|+	c #A7A7A7",
"1+	c #ADADAC",
"2+	c #AFAFAE",
"3+	c #91918E",
"4+	c #6E6965",
"5+	c #524841",
"6+	c #504136",
"7+	c #47382C",
"8+	c #392B21",
"9+	c #1D1510",
"0+	c #D4CBBA",
"a+	c #C3BAAD",
"b+	c #9E9487",
"c+	c #736B61",
"d+	c #4E4841",
"e+	c #514D48",
"f+	c #615F5C",
"g+	c #72716F",
"h+	c #787776",
"i+	c #A4A4A3",
"j+	c #B3B3B2",
"k+	c #BDBDBD",
"l+	c #B7B7B7",
"m+	c #C0C0C0",
"n+	c #B0B0AF",
"o+	c #8C8B89",
"p+	c #6A6662",
"q+	c #5E564F",
"r+	c #51453B",
"s+	c #44352A",
"t+	c #392B22",
"u+	c #2F241C",
"v+	c #201813",
"w+	c #1A1511",
"x+	c #D7CEBC",
"y+	c #CBC2B3",
"z+	c #AEA69A",
"A+	c #6C645B",
"B+	c #443E38",
"C+	c #3B3734",
"D+	c #75726F",
"E+	c #858482",
"F+	c #868685",
"G+	c #858585",
"H+	c #9C9C9B",
"I+	c #B8B8B7",
"J+	c #CACACA",
"K+	c #CECECE",
"L+	c #BEBEBE",
"M+	c #CDCDCD",
"N+	c #C8C8C8",
"O+	c #ACACAB",
"P+	c #8B8B8A",
"Q+	c #777572",
"R+	c #5C554F",
"S+	c #493C32",
"T+	c #514032",
"U+	c #3F3026",
"V+	c #281E18",
"W+	c #1D1713",
"X+	c #1A1512",
"Y+	c #E1D7C3",
"Z+	c #E5DECF",
"`+	c #A7A095",
" @	c #5F574F",
".@	c #39332C",
"+@	c #45403B",
"@@	c #65625F",
"#@	c #91908E",
"$@	c #91908F",
"%@	c #878786",
"&@	c #8C8C8C",
"*@	c #ADADAD",
"=@	c #D5D5D5",
"-@	c #C7C7C7",
";@	c #CBCBCB",
">@	c #D1D1D1",
",@	c #BFBFBF",
"'@	c #A5A6A4",
")@	c #74716D",
"!@	c #443C35",
"~@	c #41352B",
"{@	c #47372B",
"]@	c #2B221A",
"^@	c #141110",
"/@	c #C2B7A6",
"(@	c #BBB0A0",
"_@	c #A0978B",
":@	c #746C64",
"<@	c #4A443E",
"[@	c #37322E",
"}@	c #4C4946",
"|@	c #716F6D",
"1@	c #9F9E9D",
"2@	c #9A9A99",
"3@	c #A5A5A5",
"4@	c #D4D4D4",
"5@	c #D6D6D6",
"6@	c #C3C3C3",
"7@	c #BBBBBB",
"8@	c #BBBCBB",
"9@	c #848381",
"0@	c #494542",
"a@	c #3B342E",
"b@	c #46362A",
"c@	c #36291E",
"d@	c #231B15",
"e@	c #15110F",
"f@	c #968B7F",
"g@	c #8B8075",
"h@	c #5E534B",
"i@	c #4D4640",
"j@	c #46413E",
"k@	c #3C3937",
"l@	c #51504E",
"m@	c #757574",
"n@	c #B6B6B5",
"o@	c #C2C2C2",
"p@	c #C9C9C9",
"q@	c #4A4A49",
"r@	c #343230",
"s@	c #342C27",
"t@	c #382C23",
"u@	c #382A1F",
"v@	c #261D15",
"w@	c #14100C",
"x@	c #615850",
"y@	c #665D55",
"z@	c #79716A",
"A@	c #5D5955",
"B@	c #393736",
"C@	c #262524",
"D@	c #494948",
"E@	c #BEBEBD",
"F@	c #DADADA",
"G@	c #DDDDDD",
"H@	c #DFDFDF",
"I@	c #DEDEDE",
"J@	c #DBDBDB",
"K@	c #D9D9D9",
"L@	c #D8D8D8",
"M@	c #D7D7D7",
"N@	c #D3D3D3",
"O@	c #CCCCCC",
"P@	c #7E7E7E",
"Q@	c #383838",
"R@	c #242423",
"S@	c #23201E",
"T@	c #26201D",
"U@	c #251E19",
"V@	c #191410",
"W@	c #0E0A08",
"X@	c #5D544D",
"Y@	c #7F7872",
"Z@	c #413E3C",
"`@	c #1D1D1C",
" #	c #1B1B1A",
".#	c #4A4B4A",
"+#	c #8A8B8A",
"@#	c #DCDCDC",
"##	c #A9A9A9",
"$#	c #6A6A6A",
"%#	c #2D2D2D",
"&#	c #191919",
"*#	c #121111",
"=#	c #110F0E",
"-#	c #100D0C",
";#	c #0F0C0A",
">#	c #060606",
",#	c #4F4F4F",
"'#	c #909090",
")#	c #AFAFAF",
"!#	c #AEAFAF",
"~#	c #B6B6B6",
"{#	c #8E8E8E",
"]#	c #575757",
"^#	c #252525",
"/#	c #111111",
"(#	c #070707",
"_#	c #000000",
":#	c #272727",
"<#	c #525252",
"[#	c #8A8A8A",
"}#	c #9D9D9D",
"|#	c #7A7B7B",
"1#	c #5F6160",
"2#	c #595858",
"3#	c #595959",
"4#	c #5E6060",
"5#	c #6C6C6C",
"6#	c #949494",
"7#	c #AEAEAE",
"8#	c #828282",
"9#	c #232323",
"0#	c #131313",
"a#	c #0D0D0D",
"b#	c #323232",
"c#	c #545454",
"d#	c #868686",
"e#	c #B5B5B5",
"f#	c #B3B3B3",
"g#	c #B1B1B1",
"h#	c #7B7B7B",
"i#	c #565A59",
"j#	c #3F4645",
"k#	c #3D403F",
"l#	c #474A49",
"m#	c #515352",
"n#	c #4D4D4C",
"o#	c #797A79",
"p#	c #9E9E9E",
"q#	c #787878",
"r#	c #4B4B4B",
"s#	c #151515",
"t#	c #3C3C3C",
"u#	c #565656",
"v#	c #7F7F7F",
"w#	c #838282",
"x#	c #818181",
"y#	c #838483",
"z#	c #8D8D8D",
"A#	c #636463",
"B#	c #414846",
"C#	c #36403F",
"D#	c #3F4544",
"E#	c #555857",
"F#	c #616361",
"G#	c #424341",
"H#	c #676866",
"I#	c #727272",
"J#	c #4A4A4A",
"K#	c #161616",
"L#	c #444444",
"M#	c #555555",
"N#	c #757575",
"O#	c #323332",
"P#	c #373532",
"Q#	c #2B2A28",
"R#	c #1E1F1E",
"S#	c #202321",
"T#	c #313432",
"U#	c #515452",
"V#	c #919191",
"W#	c #626261",
"X#	c #424644",
"Y#	c #3E4342",
"Z#	c #5D5E5D",
"`#	c #7B7C7B",
" $	c #858684",
".$	c #515250",
"+$	c #686867",
"@$	c #707070",
"#$	c #4C4C4C",
"$$	c #292929",
"%$	c #1A1A1A",
"&$	c #515151",
"*$	c #6B6B6B",
"=$	c #747070",
"-$	c #352927",
";$	c #533B37",
">$	c #573F3C",
",$	c #4A3A38",
"'$	c #272220",
")$	c #252623",
"!$	c #3D403D",
"~$	c #A8A8A8",
"{$	c #5A5A5A",
"]$	c #404342",
"^$	c #444847",
"/$	c #6F706F",
"($	c #979796",
"_$	c #A3A3A2",
":$	c #656564",
"<$	c #666666",
"[$	c #464646",
"}$	c #282828",
"|$	c #1E1E1E",
"1$	c #1C1C1C",
"2$	c #5C5C5C",
"3$	c #646464",
"4$	c #7A7170",
"5$	c #48302F",
"6$	c #7D4E49",
"7$	c #976561",
"8$	c #936A67",
"9$	c #4E3D3B",
"0$	c #2F2B29",
"a$	c #343635",
"b$	c #9FA09F",
"c$	c #9F9F9F",
"d$	c #535454",
"e$	c #3E4241",
"f$	c #4A4F4E",
"g$	c #7F8180",
"h$	c #ADAEAD",
"i$	c #666767",
"j$	c #606161",
"k$	c #3D3D3D",
"l$	c #242424",
"m$	c #212121",
"n$	c #202020",
"o$	c #626262",
"p$	c #A6A6A6",
"q$	c #706867",
"r$	c #351E1B",
"s$	c #61302C",
"t$	c #914E49",
"u$	c #A7625C",
"v$	c #6E4947",
"w$	c #392B2A",
"x$	c #262727",
"y$	c #A2A2A2",
"z$	c #585858",
"A$	c #444746",
"B$	c #545857",
"C$	c #939494",
"D$	c #BEBFBF",
"E$	c #C3C4C4",
"F$	c #6A6B6B",
"G$	c #5E5F5F",
"H$	c #636363",
"I$	c #505050",
"J$	c #343434",
"K$	c #1D1D1D",
"L$	c #1B1B1B",
"M$	c #4E4E4E",
"N$	c #5F5F5F",
"O$	c #716766",
"P$	c #3A1D1A",
"Q$	c #6E312C",
"R$	c #93453E",
"S$	c #9D4E48",
"T$	c #683B38",
"U$	c #332220",
"V$	c #212221",
"W$	c #767676",
"X$	c #A6A6A5",
"Y$	c #5C5C5B",
"Z$	c #4A4D4B",
"`$	c #5A5E5B",
" %	c #939493",
".%	c #606160",
"+%	c #5E5E5E",
"@%	c #4D4D4D",
"#%	c #313131",
"$%	c #171717",
"%%	c #494949",
"&%	c #A0A0A0",
"*%	c #736765",
"=%	c #44221E",
"-%	c #833B34",
";%	c #97423A",
">%	c #8E3E38",
",%	c #5B2B27",
"'%	c #2C1816",
")%	c #1F201F",
"!%	c #747574",
"~%	c #686866",
"{%	c #595A57",
"]%	c #626562",
"^%	c #888987",
"/%	c #949493",
"(%	c #898A88",
"_%	c #535352",
":%	c #2F2F2F",
"<%	c #404040",
"[%	c #979797",
"}%	c #6F6463",
"|%	c #452623",
"1%	c #883E38",
"2%	c #9B453E",
"3%	c #90423B",
"4%	c #5E302C",
"5%	c #2D1A18",
"6%	c #1D1E1D",
"7%	c #727372",
"8%	c #8F8C88",
"9%	c #807E79",
"0%	c #777673",
"a%	c #71716F",
"b%	c #5C5D5C",
"c%	c #484848",
"d%	c #181818",
"e%	c #645C5C",
"f%	c #3B2321",
"g%	c #773833",
"h%	c #90433D",
"i%	c #8D443E",
"j%	c #5B322E",
"k%	c #2C1B19",
"l%	c #A9A7A5",
"m%	c #A19F9D",
"n%	c #999896",
"o%	c #8F8F8E",
"p%	c #858584",
"q%	c #7B7B7A",
"r%	c #2E2E2E",
"s%	c #606060",
"t%	c #5A5655",
"u%	c #32201F",
"v%	c #64322E",
"w%	c #82413C",
"x%	c #884641",
"y%	c #583330",
"z%	c #2A1C1A",
"A%	c #7A7A7A",
"B%	c #414141",
"C%	c #2D2E2D",
"D%	c #1E1F1D",
"E%	c #161716",
"F%	c #151514",
"G%	c #616161",
"H%	c #686868",
"I%	c #848484",
"J%	c #5D5857",
"K%	c #3A2826",
"L%	c #653734",
"M%	c #7D443F",
"N%	c #804843",
"O%	c #553431",
"P%	c #291C1A",
"Q%	c #1C1D1C",
"R%	c #6E6E6E",
"S%	c #626362",
"T%	c #40413E",
"U%	c #2F342C",
"V%	c #242B1F",
"W%	c #161B12",
"X%	c #13170F",
"Y%	c #6C7069",
"Z%	c #6F736C",
"`%	c #7B8076",
" &	c #575850",
".&	c #382E2A",
"+&	c #563733",
"@&	c #6B423F",
"#&	c #714844",
"$&	c #513734",
"%&	c #2B1F1D",
"&&	c #1D1D1B",
"*&	c #5F615D",
"=&	c #7F847D",
"-&	c #8D9489",
";&	c #858E7F",
">&	c #838C7D",
",&	c #828A7C",
"'&	c #798273",
")&	c #6F7868",
"!&	c #666F61",
"~&	c #5B6357",
"{&	c #4C5449",
"]&	c #384035",
"^&	c #30392C",
"/&	c #2A3626",
"(&	c #212C1E",
"_&	c #283721",
":&	c #3B532B",
"<&	c #3E592B",
"[&	c #687660",
"}&	c #6F7A67",
"|&	c #6B7861",
"1&	c #4E5845",
"2&	c #35382B",
"3&	c #44382F",
"4&	c #543E39",
"5&	c #5B413F",
"6&	c #483533",
"7&	c #2A201E",
"8&	c #1C1B18",
"9&	c #454943",
"0&	c #565E51",
"a&	c #5A6653",
"b&	c #506046",
"c&	c #516246",
"d&	c #55674A",
"e&	c #596B4E",
"f&	c #536748",
"g&	c #4A5F3E",
"h&	c #425537",
"i&	c #394C32",
"j&	c #32442E",
"k&	c #303E2C",
"l&	c #2E3D2C",
"m&	c #2D3D2C",
"n&	c #2C3D2B",
"o&	c #32462B",
"p&	c #39512B",
"q&	c #3C552B",
"r&	c #3D562B",
"s&	c #3B592C",
"t&	c #4D6840",
"u&	c #59714D",
"v&	c #506941",
"w&	c #435A35",
"x&	c #394C2C",
"y&	c #3A4029",
"z&	c #3B3428",
"A&	c #392826",
"B&	c #2E211F",
"C&	c #1C1614",
"D&	c #100F0D",
"E&	c #181D17",
"F&	c #1E251D",
"G&	c #232B21",
"H&	c #263223",
"I&	c #2E3D28",
"J&	c #37492F",
"K&	c #3D5334",
"L&	c #3F5834",
"M&	c #3F5A33",
"N&	c #3D5730",
"O&	c #364D2F",
"P&	c #2F422E",
"Q&	c #2C3A2C",
"R&	c #2B3A2C",
"S&	c #2C3B2C",
"T&	c #2C3B2B",
"U&	c #2F402B",
"V&	c #33452A",
"W&	c #34472C",
"X&	c #34482C",
"Y&	c #446834",
"Z&	c #426432",
"`&	c #3E5E2E",
" *	c #446335",
".*	c #49673B",
"+*	c #436133",
"@*	c #3E5A2F",
"#*	c #39522B",
"$*	c #374727",
"%*	c #363924",
"&*	c #342D21",
"**	c #2A281B",
"=*	c #212416",
"-*	c #1B2313",
";*	c #1C2916",
">*	c #1F2D18",
",*	c #23321B",
"'*	c #293C1F",
")*	c #304625",
"!*	c #374E29",
"~*	c #39522C",
"{*	c #3A542C",
"]*	c #39532B",
"^*	c #354D2A",
"/*	c #31462A",
"(*	c #2D3F29",
"_*	c #2B3B27",
":*	c #283625",
"<*	c #253423",
"[*	c #2A3928",
"}*	c #2E3E2A",
"|*	c #31422A",
"1*	c #32442C",
"2*	c #456A35",
"3*	c #436632",
"4*	c #416230",
"5*	c #406030",
"6*	c #3E5F2E",
"7*	c #3C5A2B",
"8*	c #39562A",
"9*	c #375229",
"0*	c #354A26",
"a*	c #374224",
"b*	c #373922",
"c*	c #2D361D",
"d*	c #2B381C",
"e*	c #2B3D1E",
"f*	c #2D4320",
"g*	c #2F4621",
"h*	c #314A22",
"i*	c #375125",
"j*	c #3B5628",
"k*	c #3C5829",
"l*	c #395427",
"m*	c #374F26",
"n*	c #344A25",
"o*	c #2E4024",
"p*	c #2C3D25",
"q*	c #2C3D24",
"r*	c #2B3C22",
"s*	c #24341D",
"t*	c #1E2B18",
"u*	c #344C23",
"v*	c #344C24",
"w*	c #344B24",
"x*	c #304420",
"y*	c #304120",
"z*	c #2B3C1E",
"A*	c #304522",
"B*	c #344D26",
"C*	c #324C25",
"D*	c #334D25",
"E*	c #354F24",
"F*	c #375226",
"G*	c #375126",
"H*	c #354D24",
"I*	c #2E431F",
"J*	c #2C3F1E",
"K*	c #29391D",
"L*	c #29381E",
"M*	c #334A22",
"N*	c #334922",
"O*	c #2E421F",
"P*	c #314824",
"Q*	c #365128",
"R*	c #344E26",
"S*	c #365025",
"T*	c #385226",
"U*	c #334A23",
"V*	c #2C3F1D",
"W*	c #293B1C",
"X*	c #29391C",
"Y*	c #27371B",
"                                                                                                ",
"                                                                                                ",
"                                                                                                ",
"                                                                                                ",
"                                                                                                ",
"                                                  .                                             ",
"                                + @ #       $ % & * =                                           ",
"                              - ; > , '   ) ! ~ { ] ^ /                                         ",
"                            ( _ : < [ } | 1 2 3 4 5 6 7 8                                       ",
"                            9 0 a b c d e f g h i j k l m n                                     ",
"                            o p q r s t u v w x y z A B C D E                                   ",
"                              F G H I J K L M N O P Q R S T U V W                               ",
"                              X Y Z `  ...+.@.#.$.%.&.*.=.-.;.>.,.'.                            ",
"                              ).!.~.{.].^./.(._.:.<.[.}.|.1.2.3.4.5.6.                          ",
"                            7.8.9.0.a.b.c.d.e.f.g.h.i.j.k.l.m.n.o.p.q.r.                        ",
"                          s.t.u.v.w.x.y.z.A.B.C.D.E.E.F.G.H.I.J.K.L.M.N.O.                      ",
"                        P.Q.R.S.T.b.U.V.W.X.Y.Y.Z.`. +.+++@+#+$+%+&+*+=+-+;+                    ",
"                      >+,+'+)+!+~+{+]+^+/+(+_+++:+ +<+[+}+|+1+2+3+4+5+6+7+8+9+                  ",
"                  0+a+b+c+d+e+f+g+h+:.i+j+}+}+k+E.`.<+[+l+}+F.m+n+o+p+q+r+s+t+u+v+w+            ",
"                x+y+z+A+B+C+D+E+F+G+H+I+J+.+F..+J+K+<+E.h.L+E.M+N+O+P+Q+R+S+T+U+V+W+X+          ",
"              Y+Z+`+ @.@+@@@#@$@%@&@*@K+=@M+.+-@;@K+>@-@k+k+-@>@`.,@1+'@)@!@~@7+{@]@W+^@        ",
"            /@(@_@:@<@[@}@|@&.1@2@3@k+4@5@`.-@[+-@J+J+6@7@Z.,@-@-@,@Z.8@9@0@a@~@b@c@d@e@        ",
"            f@g@h@i@j@k@l@m@i+j.n@o@M+=@5@>@;@-@N+p@E.o@k+Z.7@m+m+L+k+[+B.q@r@s@t@u@v@w@        ",
"            x@y@z@A@B@C@D@$.E@>@5@F@G@H@I@G@J@K@L@M@N@<+>@;@O@K+`.O@N+:+P@Q@R@S@T@U@V@W@        ",
"              X@Y@Z@`@ #.#+#p@J@G@G@@#@#@#F@L@L@M@=@<+>@`.;@J+J+J+N+:+##$#%#&#*#=#-#;#          ",
"                    >#&#,#'#O@@#J@L@5@=@5@N@ +>@ +M+.+7@}+[.)#!#[.Z.~#{#]#^#/#(#_#_#            ",
"                      :#<#[#E.L@K@=@<+ +M+J+p@;@;@o@}#|#1#2#3#4#5#6#7#8#,#9#0#a#                ",
"                      b#c#d#o@-@F.Z.e#f#++[.g#k+.+i.h#i#j#k#l#m#n#o#p#q#r#9#s#/#                ",
"                      t#u#v#F._++#%@w#v#x#y#z#_+k+f#A#B#C#D#E#F#G#H#z#I#J#^#K#0#                ",
"                      L#M#N#++o#O#P#Q#R#S#T#U#V#f#++W#X#Y#Z#`# $.$+$d#@$#$$$%$K#                ",
"                      &$u#*$G.=$-$;$>$,$'$)$!$y#~$~${$]$^$/$($_$Z#:$q#<$[$}$|$1$                ",
"                      2$]#3$~$4$5$6$7$8$9$0$a$`#b$c$d$e$f$g$h$i.i$j$*${$k$l$m$n$                ",
"                        <#o$p$q$r$s$t$u$v$w$x$q#y$3@z$A$B$C$D$E$F$G$H$I$J$K$L$%$                ",
"                        M$N$(+O$P$Q$R$S$T$U$V$W$y$X$Y$Z$`$ %g#h$.%z$+%@%#%&#$%$%                ",
"                        %%{$&%*%=%-%;%>%,%'%)%!%b$p$~%{%]%^%/%(%_%&$3#r#:%$%s#s#                ",
"                        <%<#[%}%|%1%2%3%4%5%6%7%%.O+8%9%0%a%+$b%#$@%,#c%:%d%K#K#                ",
"                        %%]#z#e%f%g%h%i%j%k%6%7%&%e#l%m%n%o%p%q%I#H$<#L#r%%$K#K#                ",
"                        ]#s%d#t%u%v%w%x%y%z%6%7%y$F.Z.~#f#[.##Y.[%A%{$B%C%D%E%F%                ",
"                        G%H%I%J%K%L%M%N%O%P%Q%R%@+e#++)#_+p$}#/%&@q%S%T%U%V%W%X%                ",
"                        Y%Z%`% &.&+&@&#&$&%&&&*&=&-&;&>&>&,&'&)&!&~&{&]&^&/&(&_&:&<&            ",
"                        [&}&|&1&2&3&4&5&6&7&8&9&0&a&b&c&d&e&f&g&h&i&j&k&l&m&n&o&p&q&r&          ",
"                      s&t&u&v&w&x&y&z&A&B&C&D&E&F&G&H&I&J&K&L&M&N&O&P&Q&R&S&T&U&V&W&X&          ",
"                  Y&Z&`& *.*+*@*#*$*%*&***=*-*;*>*,*'*)*!*~*{*]*^*/*(*_*:*<*[*}*|*1*            ",
"                2*Y&3*4*5*6*7*8*9*0*a*b*c*d*e*f*g*h*i*j*k*l*m*n*o*p*q*r*s*t*                    ",
"                            u*v*w*x*y*  z*A*B*C*D*E*F*G*H*I*J*e*K*L*                            ",
"                              M*N*O*      P*Q*R*R*S*T*S*U*V*W*X*Y*                              ",
"                                                                                                ",
"                                                                                                "};
