/* XPM */
static char * reload48_xpm[] = {
"48 48 256 2",
"  	c None",
". 	c #9999CC",
"+ 	c #5F5F7E",
"@ 	c #9898CB",
"# 	c #9B9BCD",
"$ 	c #7C7C8C",
"% 	c #9A9ACD",
"& 	c #636380",
"* 	c #9D9DCE",
"= 	c #9898CA",
"- 	c #8E8E94",
"; 	c #9696C8",
"> 	c #A5A5D2",
", 	c #9797C9",
"' 	c #8D8DBC",
") 	c #8A8AB8",
"! 	c #ABABD5",
"~ 	c #9F9FCF",
"{ 	c #9393C4",
"] 	c #A1A1D0",
"^ 	c #B7B7DB",
"/ 	c #8F8FBE",
"( 	c #9191C2",
"_ 	c #8E8EBD",
": 	c #B5B5DA",
"< 	c #9797CA",
"[ 	c #CDCDE6",
"} 	c #717186",
"| 	c #A9A9D4",
"1 	c #8A8A92",
"2 	c #9090C0",
"3 	c #9595C7",
"4 	c #ADADD6",
"5 	c #666681",
"6 	c #6E6E92",
"7 	c #8080AB",
"8 	c #7878A0",
"9 	c #8B8BB9",
"0 	c #ACACD6",
"a 	c #D2D2E8",
"b 	c #D2D2DF",
"c 	c #6E6E85",
"d 	c #A8A8D3",
"e 	c #929296",
"f 	c #B9B9DC",
"g 	c #9E9ECF",
"h 	c #8C8CBA",
"i 	c #9393C5",
"j 	c #78788A",
"k 	c #AEAED6",
"l 	c #A2A2D0",
"m 	c #9292C3",
"n 	c #C8C8E3",
"o 	c #98989B",
"p 	c #9393C3",
"q 	c #9494C6",
"r 	c #BFBFDF",
"s 	c #8888B6",
"t 	c #9999B7",
"u 	c #9C9CCD",
"v 	c #959597",
"w 	c #C6C6E2",
"x 	c #CECEE6",
"y 	c #AFAFD7",
"z 	c #9B9BA5",
"A 	c #6C6C90",
"B 	c #C1C1E0",
"C 	c #A0A0A3",
"D 	c #A4A4D1",
"E 	c #969699",
"F 	c #BCBCDD",
"G 	c #878791",
"H 	c #A6A6D3",
"I 	c #B0B0D7",
"J 	c #6A6A83",
"K 	c #A7A7D3",
"L 	c #9292BF",
"M 	c #83838F",
"N 	c #95959E",
"O 	c #AEAEB3",
"P 	c #8383AE",
"Q 	c #A3A3AB",
"R 	c #A0A0D0",
"S 	c #DADAEC",
"T 	c #7D7D8D",
"U 	c #BDBDDE",
"V 	c #9090C1",
"W 	c #9595A1",
"X 	c #8B8B99",
"Y 	c #9C9CAB",
"Z 	c #707095",
"` 	c #9494C5",
" .	c #8D8D9A",
"..	c #ADADB6",
"+.	c #97979A",
"@.	c #B1B1D8",
"#.	c #8383AF",
"$.	c #8686B3",
"%.	c #7C7CA5",
"&.	c #A4A4D2",
"*.	c #9292C2",
"=.	c #C3C3CE",
"-.	c #A1A1A4",
";.	c #AAAAD4",
">.	c #A3A3D1",
",.	c #85859E",
"'.	c #676789",
").	c #6F6F95",
"!.	c #9E9ECE",
"~.	c #8282AD",
"{.	c #C1C1D3",
"].	c #C0C0DF",
"^.	c #9B9B9D",
"/.	c #8181AC",
"(.	c #B4B4CD",
"_.	c #DDDDEE",
":.	c #7E7E8F",
"<.	c #6D6D91",
"[.	c #8B8BBA",
"}.	c #8B8BAA",
"|.	c #CBCBE5",
"1.	c #616181",
"2.	c #B3B3D9",
"3.	c #7B7BA4",
"4.	c #7E7EA9",
"5.	c #AFAFB7",
"6.	c #B7B7D8",
"7.	c #9898A1",
"8.	c #8484B0",
"9.	c #8B8BA5",
"0.	c #9797C2",
"a.	c #74749B",
"b.	c #96969B",
"c.	c #76769E",
"d.	c #99999C",
"e.	c #8787B4",
"f.	c #D5D5EA",
"g.	c #D0D0E8",
"h.	c #757588",
"i.	c #8F8FBF",
"j.	c #8D8DA9",
"k.	c #DBDBED",
"l.	c #68688B",
"m.	c #7979A1",
"n.	c #8C8CBB",
"o.	c #8888B5",
"p.	c #BBBBDD",
"q.	c #8989B7",
"r.	c #636383",
"s.	c #737399",
"t.	c #B8B8C2",
"u.	c #ABABAF",
"v.	c #A9A9AE",
"w.	c #9C9CBD",
"x.	c #727297",
"y.	c #BCBCC4",
"z.	c #9494A2",
"A.	c #BEBEDF",
"B.	c #AFAFB4",
"C.	c #6E6E93",
"D.	c #9191C1",
"E.	c #727291",
"F.	c #C8C8E4",
"G.	c #A0A0B9",
"H.	c #B3B3B9",
"I.	c #888893",
"J.	c #A0A0A9",
"K.	c #A1A1AA",
"L.	c #80808D",
"M.	c #B0B0B8",
"N.	c #707096",
"O.	c #717196",
"P.	c #717197",
"Q.	c #C3C3E1",
"R.	c #CCCCE5",
"S.	c #C0C0C9",
"T.	c #8080A1",
"U.	c #92929C",
"V.	c #D9D9EC",
"W.	c #75759C",
"X.	c #9D9D9E",
"Y.	c #5F5F7F",
"Z.	c #8383A9",
"`.	c #9999C9",
" +	c #C6C6D6",
".+	c #C5C5E2",
"++	c #9F9FB2",
"@+	c #9F9FA2",
"#+	c #9898B1",
"$+	c #B7B7C2",
"%+	c #A2A2B7",
"&+	c #9C9CB4",
"*+	c #656587",
"=+	c #6B6B8F",
"-+	c #D9D9E9",
";+	c #9797A3",
">+	c #8989B4",
",+	c #AAAAC8",
"'+	c #7D7D96",
")+	c #77779E",
"!+	c #7A7A8F",
"~+	c #98989A",
"{+	c #7B7BA0",
"]+	c #C9C9DE",
"^+	c #CDCDE3",
"/+	c #9A9A9D",
"(+	c #69698C",
"_+	c #7C7CA6",
":+	c #6E6E86",
"<+	c #A8A8B4",
"[+	c #A2A2C4",
"}+	c #757599",
"|+	c #B6B6DB",
"1+	c #939397",
"2+	c #B3B3C6",
"3+	c #B8B8DC",
"4+	c #77779F",
"5+	c #A7A7CF",
"6+	c #9090B3",
"7+	c #9191B4",
"8+	c #B9B9C9",
"9+	c #BABAD3",
"0+	c #B8B8D5",
"a+	c #7F7FA0",
"b+	c #818198",
"c+	c #8383AC",
"d+	c #A1A1C0",
"e+	c #8F8F96",
"f+	c #AEAEC0",
"g+	c #8585B2",
"h+	c #A8A8B3",
"i+	c #8F8FA4",
"j+	c #71718B",
"k+	c #AAAAD5",
"l+	c #676783",
"m+	c #838391",
"n+	c #A1A1CD",
"o+	c #9494B2",
"p+	c #A4A4BE",
"q+	c #A7A7AD",
"r+	c #D5D5E7",
"s+	c #7A7AA3",
"t+	c #6F6F91",
"u+	c #C5C5DF",
"v+	c #BABADC",
"w+	c #BDBDD1",
"x+	c #8888AF",
"y+	c #9696B4",
"z+	c #BFBFCF",
"A+	c #8D8D95",
"B+	c #8C8C97",
"C+	c #7F7FAA",
"D+	c #888896",
"E+	c #7979A2",
"F+	c #777791",
"G+	c #9F9FAC",
"                                                                                                ",
"                                                                                                ",
"                                                                                                ",
"                                                                                                ",
"                                -.5.p+                    -.$+^.                                ",
"                        X.B.S.b k.].x+                    =.S 0+G+                              ",
"                  v.y.b _.S f.x U h j+                  C f.[ : ! G.                            ",
"                /+,+v+Q.B 3+y H 3 x.c                   z+[ @.l H D w.d.                        ",
"                    j._ < . . . / 6 j                 q+g.].l % * ] * y+                        ",
"                      %+d * . . ' =+$                 {.|.k # . . * ~ @ o+                      ",
"                    M.^+f u { q q.'.$               Q U : ~ . . . . * * 2 z.                    ",
"                  H.k.[ K P s.m.3.1.1               #+_ ) L , . . . . * 3 >+o                   ",
"                O k.[ k+7 + J } r.+ 1                 B+t+8 9 3 @ . . % # ' 9.                  ",
"              -.r+x 4 o.+ 5 v   $ + -                   E h.8 [.; . . . # i /.b.                ",
"               +a : p A + -       G                       E b+4.i., . . . @ e.,.                ",
"            5.a r ~ 7 + $                                     a+8.( = . . % _ {++.              ",
"            ]+F.! ( 6 & v                                     +.Z.h ; . . . i _+X               ",
"          ..R.f !.s Y.j                                         N 9 i = . . < #.'+              ",
"          w+w ;.= C++ -                                           6+p < . . . s Z               ",
"        @+.+p.R ` )+&                                             ;+` @ @ . . ) A 1+            ",
"        <+B y # V ).c                                               0.% @ . . ' 6 A+            ",
"        f+A.| . / <.j                                               t g # . . _ N.m+            ",
"        (.F &.. _ 6 $                                               Y D ] . . / Z T             ",
"        6.^ ~ . i.Z T                                               z d > . . / ).T             ",
"        : I # . D.a.:.                                                0 | . . ' <.$             ",
"        @.0 . . q 3.!+                                                I ! . . ) '.$             ",
"        y | . . = 8.F+                                                2.0 . . $.1.1             ",
"        | > @ . % h O.                                                ^ 4 . , C++ -             ",
"        [+D % . . *.E+ .                                            K.F 4 . m s.&               ",
"        d+> * . . < e.,.                                            h+r ! . [.*+}               ",
"        &+>.g . . % p 7 b.                                          2+B d ; 7 + M               ",
"        z !.g @ . . . n.9.                                          u+r l 2 C.& v               ",
"          `.# = . . # < ' W                                       ..|.: @ /.+ h.                ",
"          y+; = . . . u @ L 7.                                    ]+n K ' l.& e                 ",
"          7.m ; = . . % * % 0.d.                      C         t.a f ; c.+ $                   ",
"            7+( ; @ . . # ~ ] n+z                     =.8+^.  u.V.F.] 4.+ J                     ",
"            W ) ( , . . . u ] > 5+++                  {.a 9+..-+x ;.~.+ & e                     ",
"              j.) { = . . . # R >.3 x+o               (.w p.n n 4 P + & -                       ",
"              ~+c+s { @ . . . . 2 P.5                 : ^ > > &.2 l.& -                         ",
"                U.%.$.{ @ . . q s++ M                 |+y # . . / }+e                           ",
"                  X 8 g+{ @ = q.r.5                   ^ k . . . , n.}.o                         ",
"                    D+a.~.V ( W.+ G                 K.^ ! , m 9 #.%.8 T.N                       ",
"                      D+A c.m.+ c                   J.k *.4+(++ + + 5 h.I.                      ",
"                        e+l++ + 1                   Y o.+ + & } L.-                             ",
"                            $ }                     i+:+$ -                                     ",
"                                                                                                ",
"                                                                                                ",
"                                                                                                "};
