<?xml version="1.0" encoding="UTF-8" standalone="no"?>
<!DOCTYPE svg PUBLIC "-//W3C//DTD SVG 20010904//EN"
"http://www.w3.org/TR/2001/REC-SVG-20010904/DTD/svg10.dtd">
<!-- Created with Sodipodi ("http://www.sodipodi.com/") -->
<svg
   xmlns:x="http://ns.adobe.com/Extensibility/1.0/"
   xmlns:i="http://ns.adobe.com/AdobeIllustrator/10.0/"
   xmlns:graph="http://ns.adobe.com/Graphs/1.0/"
   xmlns="http://www.w3.org/2000/svg"
   xmlns:xlink="http://www.w3.org/1999/xlink"
   xmlns:a="http://ns.adobe.com/AdobeSVGViewerExtensions/3.0/"
   xml:space="preserve"
   i:viewOrigin="170.1553 427.6699"
   i:rulerOrigin="0 0"
   i:pageBounds="0 792 612 0"
   width="48"
   height="48.7"
   viewBox="0 0 48 48.7"
   overflow="visible"
   enable-background="new 0 0 48 48.7"
   xmlns:sodipodi="http://sodipodi.sourceforge.net/DTD/sodipodi-0.dtd"
   id="svg602"
   sodipodi:version="0.34"
   sodipodi:docname="C:\msys\home\su_blanc\mldonkey-2.5.12\src\gtk2\rsvg\emoticons\emoticon_bad.svg"><defs
   id="defs688" /><sodipodi:namedview
   id="namedview687" /><g
   id="Layer_1"
   i:knockout="Off"
   i:layer="yes"
   i:dimmedPercent="50"
   i:rgbTrio="#4F008000FFFF"><g
   id="g606"><path
   id="path597_5_"
   i:isolated="yes"
   i:knockout="Off"
   opacity="0.15"
   fill="none"
   stroke="#474000"
   stroke-width="1.8818"
   enable-background="new    "
   d="      M5.6,20.2c0-10.7,8-19.3,17.8-19.3c9.8,0,18.4,8.1,18.4,18.7c0,10.7-8.6,19.9-18.4,19.9C13.6,39.5,5.6,30.9,5.6,20.2z" /><path
   id="path597_4_"
   i:isolated="yes"
   i:knockout="Off"
   opacity="0.2"
   fill="none"
   stroke="#474000"
   stroke-width="0.9409"
   enable-background="new    "
   d="      M5.6,20.2c0-10.7,8-19.3,17.8-19.3c9.8,0,18.4,8.1,18.4,18.7c0,10.7-8.6,19.9-18.4,19.9C13.6,39.5,5.6,30.9,5.6,20.2z" /><path
   id="path597_3_"
   i:isolated="yes"
   i:knockout="Off"
   opacity="0.3"
   fill="none"
   stroke="#474000"
   stroke-width="0.4704"
   enable-background="new    "
   d="      M5.6,20.2c0-10.7,8-19.3,17.8-19.3c9.8,0,18.4,8.1,18.4,18.7c0,10.7-8.6,19.9-18.4,19.9C13.6,39.5,5.6,30.9,5.6,20.2z" /><radialGradient
   id="path700_1_"
   cx="-509.875"
   cy="428.4512"
   r="6.407402e-002"
   fx="-509.875"
   fy="428.4512"
   gradientTransform="matrix(310.7065 0 0 -144.1183 158446.2969 61790.25)"
   gradientUnits="userSpaceOnUse"><stop
   offset="0"
   style="stop-color:#261700"
   id="stop611" /><stop
   offset="1"
   style="stop-color:#D2D2D2"
   id="stop612" /><a:midPointStop
   offset="0"
   style="stop-color:#261700"
   id="midPointStop613" /><a:midPointStop
   offset="0.5"
   style="stop-color:#261700"
   id="midPointStop614" /><a:midPointStop
   offset="1"
   style="stop-color:#D2D2D2"
   id="midPointStop615" /></radialGradient><path
   id="path700"
   i:isolated="yes"
   i:knockout="Off"
   opacity="0.3"
   fill="url(#path700_1_)"
   enable-background="new    "
   d="      M37.9,31.8c6.5,4.5,6,10.6-1.9,14.3c-7.9,3.7-19.5,3.1-25.9-1.5c-5.5-3.8-5.7-9.1-0.5-13.1c3.4,4.7,6.2,6.3,14,7.3      C30.1,38.7,34.3,35.8,37.9,31.8z" /><radialGradient
   id="path597_1_"
   cx="23.5112"
   cy="32.0034"
   r="36.1541"
   fx="23.5112"
   fy="32.0034"
   gradientUnits="userSpaceOnUse"><stop
   offset="0"
   style="stop-color:#FFFF00"
   id="stop618" /><stop
   offset="9.246969e-002"
   style="stop-color:#FFE100"
   id="stop619" /><stop
   offset="0.3484"
   style="stop-color:#FF9200"
   id="stop620" /><stop
   offset="0.5762"
   style="stop-color:#FF5300"
   id="stop621" /><stop
   offset="0.7673"
   style="stop-color:#FF2600"
   id="stop622" /><stop
   offset="0.9145"
   style="stop-color:#FF0A00"
   id="stop623" /><stop
   offset="1"
   style="stop-color:#FF0000"
   id="stop624" /><a:midPointStop
   offset="0"
   style="stop-color:#FFFF00"
   id="midPointStop625" /><a:midPointStop
   offset="0.4124"
   style="stop-color:#FFFF00"
   id="midPointStop626" /><a:midPointStop
   offset="1"
   style="stop-color:#FF0000"
   id="midPointStop627" /></radialGradient><path
   id="path597"
   i:isolated="yes"
   i:knockout="Off"
   fill="url(#path597_1_)"
   enable-background="new    "
   d="M5.6,20.2      c0-10.7,8-19.3,17.8-19.3c9.9,0,18.4,8,18.4,18.7c0,10.7-8.6,19.9-18.4,19.9C13.6,39.5,5.6,30.9,5.6,20.2z" /><radialGradient
   id="path597_6_"
   cx="24.8447"
   cy="3.3364"
   r="30.6737"
   fx="24.8447"
   fy="3.3364"
   gradientUnits="userSpaceOnUse"><stop
   offset="0"
   style="stop-color:#FFFFB1"
   id="stop630" /><stop
   offset="3.518873e-002"
   style="stop-color:#FFECA4"
   id="stop631" /><stop
   offset="0.1445"
   style="stop-color:#FFB57E"
   id="stop632" /><stop
   offset="0.2576"
   style="stop-color:#FF855C"
   id="stop633" /><stop
   offset="0.3722"
   style="stop-color:#FF5C40"
   id="stop634" /><stop
   offset="0.4887"
   style="stop-color:#FF3B29"
   id="stop635" /><stop
   offset="0.6076"
   style="stop-color:#FF2117"
   id="stop636" /><stop
   offset="0.7299"
   style="stop-color:#FF0E0A"
   id="stop637" /><stop
   offset="0.8577"
   style="stop-color:#FF0402"
   id="stop638" /><stop
   offset="1"
   style="stop-color:#FF0000"
   id="stop639" /><a:midPointStop
   offset="0"
   style="stop-color:#FFFFB1"
   id="midPointStop640" /><a:midPointStop
   offset="0.2712"
   style="stop-color:#FFFFB1"
   id="midPointStop641" /><a:midPointStop
   offset="1"
   style="stop-color:#FF0000"
   id="midPointStop642" /></radialGradient><path
   id="path597_2_"
   i:isolated="yes"
   i:knockout="Off"
   fill="url(#path597_6_)"
   enable-background="new    "
   d="M12.2,7.8      c0-3.8,5-6.9,11.1-6.9s11.4,2.9,11.4,6.7C34.7,11.4,12.2,11.6,12.2,7.8z" /><path
   id="path643"
   nodetypes="cs"
   opacity="0.25"
   fill="none"
   stroke="#000000"
   stroke-width="4"
   stroke-linecap="round"
   d="      M32,31.4c-3.3-4.4-13.7-4.3-17.3-0.2" /><path
   id="path639"
   nodetypes="cs"
   fill="none"
   stroke="#795000"
   stroke-width="1.5"
   stroke-linecap="round"
   d="      M32,31.4c-3.3-4.3-13.7-4.2-17.3-0.1" /><radialGradient
   id="path650_1_"
   cx="-170.5693"
   cy="426.6289"
   r="8.388422e-002"
   fx="-170.5693"
   fy="426.6289"
   gradientTransform="matrix(49.5421 23.6888 19.6726 -42.3182 73.4786 22113.5156)"
   gradientUnits="userSpaceOnUse"><stop
   offset="0"
   style="stop-color:#DEE2E7"
   id="stop647" /><stop
   offset="1"
   style="stop-color:#FFFFFF"
   id="stop648" /><a:midPointStop
   offset="0"
   style="stop-color:#DEE2E7"
   id="midPointStop649" /><a:midPointStop
   offset="0.5"
   style="stop-color:#DEE2E7"
   id="midPointStop650" /><a:midPointStop
   offset="1"
   style="stop-color:#FFFFFF"
   id="midPointStop651" /></radialGradient><path
   id="path650"
   type="arc"
   cx="50.24698"
   cy="478.4100"
   rx="24.52531"
   ry="34.99345"
   fill="url(#path650_1_)"
   stroke="#7C3902"
   stroke-width="0.75"
   d="      M18.4,19.3c0.7-1.5-0.2-3.3-1.9-4.2c-1.7-0.8-3.7-0.3-4.4,1.2c0,0,0,0,0,0c-0.7,1.5,0.2,3.3,1.9,4.2      C15.8,21.3,17.8,20.8,18.4,19.3C18.4,19.3,18.4,19.3,18.4,19.3z" /><path
   id="path651"
   type="arc"
   cx="50.09747"
   cy="476.7646"
   rx="28.86212"
   ry="41.42389"
   opacity="0.25"
   fill="none"
   stroke="#000000"
   d="      M18.9,19.5c0.8-1.6-0.3-3.7-2.2-4.7c-2-1-4.2-0.4-5,1.2c0,0,0,0,0,0C11,17.7,12,19.8,14,20.8C16,21.7,18.2,21.2,18.9,19.5      C18.9,19.5,18.9,19.5,18.9,19.5z" /><radialGradient
   id="path656_1_"
   cx="-172.1377"
   cy="426.2705"
   r="7.822733e-002"
   fx="-172.1377"
   fy="426.2705"
   gradientTransform="matrix(20.6329 9.8658 10.2514 -22.0519 -802.4297 11115.7998)"
   gradientUnits="userSpaceOnUse"><stop
   offset="0"
   style="stop-color:#000082"
   id="stop655" /><stop
   offset="1"
   style="stop-color:#000000"
   id="stop656" /><a:midPointStop
   offset="0"
   style="stop-color:#000082"
   id="midPointStop657" /><a:midPointStop
   offset="0.5"
   style="stop-color:#000082"
   id="midPointStop658" /><a:midPointStop
   offset="1"
   style="stop-color:#000000"
   id="midPointStop659" /></radialGradient><path
   id="path656"
   type="arc"
   cx="61.64901"
   cy="495.8291"
   rx="10.46870"
   ry="10.89169"
   fill="url(#path656_1_)"
   d="      M17.1,19c0.4-0.8,0.1-1.7-0.7-2c-0.7-0.3-1.6,0-1.9,0.8c0,0,0,0,0,0c-0.4,0.8-0.1,1.7,0.7,2C15.9,20.2,16.8,19.8,17.1,19      C17.1,19,17.1,19,17.1,19z" /><radialGradient
   id="path648_1_"
   cx="-166.6943"
   cy="428.7529"
   r="8.401422e-002"
   fx="-166.6943"
   fy="428.7529"
   gradientTransform="matrix(-49.5421 23.6888 -19.6726 -42.3182 208.2734 22111.3125)"
   gradientUnits="userSpaceOnUse"><stop
   offset="0"
   style="stop-color:#DEE2E7"
   id="stop662" /><stop
   offset="1"
   style="stop-color:#FFFFFF"
   id="stop663" /><a:midPointStop
   offset="0"
   style="stop-color:#DEE2E7"
   id="midPointStop664" /><a:midPointStop
   offset="0.5"
   style="stop-color:#DEE2E7"
   id="midPointStop665" /><a:midPointStop
   offset="1"
   style="stop-color:#FFFFFF"
   id="midPointStop666" /></radialGradient><path
   id="path648"
   type="arc"
   cx="50.24698"
   cy="478.4100"
   rx="24.52531"
   ry="34.99345"
   fill="url(#path648_1_)"
   stroke="#7C3902"
   stroke-width="0.75"
   d="      M29.6,19.1c-0.7-1.5,0.2-3.3,1.9-4.2c1.7-0.8,3.7-0.3,4.4,1.2c0,0,0,0,0,0c0.7,1.5-0.2,3.3-1.9,4.2      C32.2,21.1,30.2,20.5,29.6,19.1C29.6,19.1,29.6,19.1,29.6,19.1z" /><path
   id="path649"
   type="arc"
   cx="50.09747"
   cy="476.7646"
   rx="28.86212"
   ry="41.42389"
   opacity="0.25"
   fill="none"
   stroke="#000000"
   d="      M29.1,19.3c-0.8-1.6,0.3-3.7,2.2-4.7c2-1,4.2-0.4,5,1.2c0,0,0,0,0,0c0.8,1.6-0.3,3.7-2.2,4.7S29.8,20.9,29.1,19.3      C29.1,19.3,29.1,19.3,29.1,19.3z" /><radialGradient
   id="path661_1_"
   cx="-162.8315"
   cy="430.3467"
   r="7.804588e-002"
   fx="-162.8315"
   fy="430.3467"
   gradientTransform="matrix(-20.6329 9.8658 -10.2514 -22.0519 1084.213 11113.5889)"
   gradientUnits="userSpaceOnUse"><stop
   offset="0"
   style="stop-color:#000082"
   id="stop670" /><stop
   offset="1"
   style="stop-color:#000000"
   id="stop671" /><a:midPointStop
   offset="0"
   style="stop-color:#000082"
   id="midPointStop672" /><a:midPointStop
   offset="0.5"
   style="stop-color:#000082"
   id="midPointStop673" /><a:midPointStop
   offset="1"
   style="stop-color:#000000"
   id="midPointStop674" /></radialGradient><path
   id="path661"
   type="arc"
   cx="61.64901"
   cy="495.8291"
   rx="10.46870"
   ry="10.89169"
   fill="url(#path661_1_)"
   d="      M30.9,18.8c-0.4-0.8-0.1-1.7,0.7-2c0.7-0.3,1.6,0,1.9,0.8c0,0,0,0,0,0c0.4,0.8,0.1,1.7-0.7,2S31.2,19.5,30.9,18.8      C30.9,18.8,30.9,18.8,30.9,18.8z" /><g
   id="path644"
   nodetypes="cccc"
   opacity="0.25"><polygon
   i:knockout="Off"
   fill="#474000"
   points="14,10 19.3,13.2 19,11.8 "
   id="polygon677" /><polygon
   i:knockout="Off"
   opacity="0.7725"
   fill="none"
   stroke="#2A0000"
   stroke-width="2"
   stroke-linecap="round"
   stroke-linejoin="round"
   points="       14,10 19.3,13.2 19,11.8 "
   id="polygon678" /></g><g
   id="path644_2_"
   nodetypes="cccc"><polygon
   i:knockout="Off"
   fill="#474000"
   points="14,10 19.3,13.2 19,11.8 "
   id="polygon680" /><polygon
   i:knockout="Off"
   opacity="0.7725"
   fill="none"
   stroke="#2A0000"
   stroke-linecap="round"
   stroke-linejoin="round"
   points="       14,10 19.3,13.2 19,11.8 "
   id="polygon681" /></g><g
   id="path670"
   nodetypes="cccc"><polygon
   i:knockout="Off"
   fill="#474000"
   points="33.4,10 28.1,13.2 28.4,11.8 "
   id="polygon683" /><polygon
   i:knockout="Off"
   opacity="0.7725"
   fill="none"
   stroke="#2A0000"
   stroke-linecap="round"
   stroke-linejoin="round"
   points="       33.4,10 28.1,13.2 28.4,11.8 "
   id="polygon684" /></g><polygon
   id="path671"
   nodetypes="cccc"
   opacity="0.25"
   fill="#474000"
   stroke="#2A0000"
   stroke-width="2"
   stroke-linecap="round"
   stroke-linejoin="round"
   points="      33.4,10 28.1,13.2 28.4,11.8 " /><rect
   id="rect662"
   y="0.7"
   i:knockout="Off"
   fill="none"
   width="48"
   height="48" /></g></g></svg>
