<?xml version="1.0" encoding="UTF-8" standalone="no"?>
<!DOCTYPE svg PUBLIC "-//W3C//DTD SVG 20010904//EN"
"http://www.w3.org/TR/2001/REC-SVG-20010904/DTD/svg10.dtd">
<!-- Created with Sodipodi ("http://www.sodipodi.com/") -->
<svg
   xmlns:x="http://ns.adobe.com/Extensibility/1.0/"
   xmlns:i="http://ns.adobe.com/AdobeIllustrator/10.0/"
   xmlns:graph="http://ns.adobe.com/Graphs/1.0/"
   xmlns="http://www.w3.org/2000/svg"
   xmlns:xlink="http://www.w3.org/1999/xlink"
   xmlns:a="http://ns.adobe.com/AdobeSVGViewerExtensions/3.0/"
   xml:space="preserve"
   i:viewOrigin="169.9258 427.7109"
   i:rulerOrigin="0 0"
   i:pageBounds="0 792 612 0"
   width="48"
   height="48.7"
   viewBox="0 0 48 48.7"
   overflow="visible"
   enable-background="new 0 0 48 48.7"
   xmlns:sodipodi="http://sodipodi.sourceforge.net/DTD/sodipodi-0.dtd"
   id="svg602"
   sodipodi:version="0.34"
   sodipodi:docname="C:\msys\home\su_blanc\mldonkey-2.5.12\src\gtk2\rsvg\emoticons\emoticon_shade.svg"><defs
   id="defs752" /><sodipodi:namedview
   id="base" /><g
   id="Layer_1"
   i:knockout="Off"
   i:layer="yes"
   i:dimmedPercent="50"
   i:rgbTrio="#4F008000FFFF"><g
   id="g606"><path
   id="path597_5_"
   i:isolated="yes"
   i:knockout="Off"
   opacity="0.15"
   fill="none"
   stroke="#474000"
   stroke-width="1.8818"
   enable-background="new    "
   d="      M5.6,20.2c0-10.7,8-19.3,17.8-19.3c9.8,0,18.4,8.1,18.4,18.7c0,10.7-8.6,19.9-18.4,19.9C13.6,39.5,5.6,30.9,5.6,20.2z" /><path
   id="path597_4_"
   i:isolated="yes"
   i:knockout="Off"
   opacity="0.2"
   fill="none"
   stroke="#474000"
   stroke-width="0.9409"
   enable-background="new    "
   d="      M5.6,20.2c0-10.7,8-19.3,17.8-19.3c9.8,0,18.4,8.1,18.4,18.7c0,10.7-8.6,19.9-18.4,19.9C13.6,39.5,5.6,30.9,5.6,20.2z" /><path
   id="path597_3_"
   i:isolated="yes"
   i:knockout="Off"
   opacity="0.3"
   fill="none"
   stroke="#474000"
   stroke-width="0.4704"
   enable-background="new    "
   d="      M5.6,20.2c0-10.7,8-19.3,17.8-19.3c9.8,0,18.4,8.1,18.4,18.7c0,10.7-8.6,19.9-18.4,19.9C13.6,39.5,5.6,30.9,5.6,20.2z" /><radialGradient
   id="path700_1_"
   cx="-679.5713"
   cy="-0.7402"
   r="6.388162e-002"
   fx="-679.5713"
   fy="-0.7402"
   gradientTransform="matrix(310.7065 0 0 144.1183 211172.2188 149.3426)"
   gradientUnits="userSpaceOnUse"><stop
   offset="0"
   style="stop-color:#261700"
   id="stop611" /><stop
   offset="1"
   style="stop-color:#D2D2D2"
   id="stop612" /><a:midPointStop
   offset="0"
   style="stop-color:#261700"
   id="midPointStop613" /><a:midPointStop
   offset="0.5"
   style="stop-color:#261700"
   id="midPointStop614" /><a:midPointStop
   offset="1"
   style="stop-color:#D2D2D2"
   id="midPointStop615" /></radialGradient><path
   id="path700"
   i:isolated="yes"
   i:knockout="Off"
   opacity="0.3"
   fill="url(#path700_1_)"
   enable-background="new    "
   d="      M37.9,31.8c6.5,4.5,6,10.6-1.9,14.3c-7.9,3.7-19.5,3.1-25.9-1.5c-5.5-3.8-5.7-9.1-0.5-13.1c3.4,4.7,6.2,6.3,14,7.3      C30.1,38.7,34.3,35.8,37.9,31.8z" /><radialGradient
   id="path577_1_"
   cx="-638.4961"
   cy="42.7715"
   r="41.5567"
   fx="-638.4961"
   fy="42.7715"
   gradientTransform="matrix(298.9032 0 0 316.3969 203151.1563 -98.4275)"
   gradientUnits="userSpaceOnUse"><stop
   offset="0"
   style="stop-color:#FF6F00"
   id="stop618" /><stop
   offset="1"
   style="stop-color:#FFFF00"
   id="stop619" /><a:midPointStop
   offset="0"
   style="stop-color:#FF6F00"
   id="midPointStop620" /><a:midPointStop
   offset="0.5"
   style="stop-color:#FF6F00"
   id="midPointStop621" /><a:midPointStop
   offset="1"
   style="stop-color:#FFFF00"
   id="midPointStop622" /></radialGradient><circle
   id="path577"
   fill="url(#path577_1_)"
   cx="23.9"
   cy="20.4"
   r="17.8" /><linearGradient
   id="path597_1_"
   gradientUnits="userSpaceOnUse"
   x1="-679.5654"
   y1="0.3184"
   x2="-679.5668"
   y2="0.4371"
   gradientTransform="matrix(303.6933 0 0 316.3967 206403.3125 -98.1642)"><stop
   offset="0"
   style="stop-color:#FF6500"
   id="stop625" /><stop
   offset="1"
   style="stop-color:#FFFF00"
   id="stop626" /><a:midPointStop
   offset="0"
   style="stop-color:#FF6500"
   id="midPointStop627" /><a:midPointStop
   offset="0.5"
   style="stop-color:#FF6500"
   id="midPointStop628" /><a:midPointStop
   offset="1"
   style="stop-color:#FFFF00"
   id="midPointStop629" /></linearGradient><path
   id="path597"
   i:isolated="yes"
   i:knockout="Off"
   opacity="0.75"
   fill="url(#path597_1_)"
   enable-background="new    "
   d="      M5.6,20.2c0-10.7,8-19.3,17.8-19.3c9.9,0,18.4,8,18.4,18.7c0,10.7-8.6,19.9-18.4,19.9C13.6,39.5,5.6,30.9,5.6,20.2z" /><radialGradient
   id="path597_6_"
   cx="-486.4063"
   cy="426.7461"
   r="20.2352"
   fx="-486.4063"
   fy="426.7461"
   gradientTransform="matrix(1 0 0 -1 509.7773 427.6934)"
   gradientUnits="userSpaceOnUse"><stop
   offset="0"
   style="stop-color:#FFFFFF"
   id="stop632" /><stop
   offset="0.1046"
   style="stop-color:#FFFEFA"
   id="stop633" /><stop
   offset="0.2282"
   style="stop-color:#FFFBEC"
   id="stop634" /><stop
   offset="0.3616"
   style="stop-color:#FFF7D4"
   id="stop635" /><stop
   offset="0.5018"
   style="stop-color:#FFF1B2"
   id="stop636" /><stop
   offset="0.6474"
   style="stop-color:#FFE988"
   id="stop637" /><stop
   offset="0.7976"
   style="stop-color:#FFDF53"
   id="stop638" /><stop
   offset="0.9487"
   style="stop-color:#FFD316"
   id="stop639" /><stop
   offset="1"
   style="stop-color:#FFCF00"
   id="stop640" /><a:midPointStop
   offset="0"
   style="stop-color:#FFFFFF"
   id="midPointStop641" /><a:midPointStop
   offset="0.5"
   style="stop-color:#FFFFFF"
   id="midPointStop642" /><a:midPointStop
   offset="0.1046"
   style="stop-color:#FFFEFA"
   id="midPointStop643" /><a:midPointStop
   offset="0.5"
   style="stop-color:#FFFEFA"
   id="midPointStop644" /><a:midPointStop
   offset="0.2282"
   style="stop-color:#FFFBEC"
   id="midPointStop645" /><a:midPointStop
   offset="0.5"
   style="stop-color:#FFFBEC"
   id="midPointStop646" /><a:midPointStop
   offset="0.3616"
   style="stop-color:#FFF7D4"
   id="midPointStop647" /><a:midPointStop
   offset="0.5"
   style="stop-color:#FFF7D4"
   id="midPointStop648" /><a:midPointStop
   offset="0.5018"
   style="stop-color:#FFF1B2"
   id="midPointStop649" /><a:midPointStop
   offset="0.5"
   style="stop-color:#FFF1B2"
   id="midPointStop650" /><a:midPointStop
   offset="0.6474"
   style="stop-color:#FFE988"
   id="midPointStop651" /><a:midPointStop
   offset="0.5"
   style="stop-color:#FFE988"
   id="midPointStop652" /><a:midPointStop
   offset="0.7976"
   style="stop-color:#FFDF53"
   id="midPointStop653" /><a:midPointStop
   offset="0.5"
   style="stop-color:#FFDF53"
   id="midPointStop654" /><a:midPointStop
   offset="0.9487"
   style="stop-color:#FFD316"
   id="midPointStop655" /><a:midPointStop
   offset="0.5"
   style="stop-color:#FFD316"
   id="midPointStop656" /><a:midPointStop
   offset="1"
   style="stop-color:#FFCF00"
   id="midPointStop657" /></radialGradient><path
   id="path597_2_"
   i:isolated="yes"
   i:knockout="Off"
   opacity="0.75"
   fill="url(#path597_6_)"
   enable-background="new    "
   d="      M12.2,7.8c0-3.8,5-6.9,11.1-6.9c6.1,0,11.4,2.9,11.4,6.7C34.7,11.4,12.2,11.6,12.2,7.8z" /><rect
   id="rect662"
   y="0.7"
   i:knockout="Off"
   fill="none"
   width="48"
   height="48" /><g
   id="g660"><path
   id="path643"
   nodetypes="cs"
   opacity="0.25"
   fill="none"
   stroke="#000000"
   stroke-width="2.7"
   stroke-linecap="round"
   d="       M12.3,29.7c4.2,5.1,17.9,4.8,22.6,0" /><path
   id="path639"
   nodetypes="cs"
   fill="none"
   stroke="#795000"
   stroke-width="1.8"
   stroke-linecap="round"
   d="       M12.3,29.7c4.2,5,17.9,4.7,22.6,0" /></g><g
   id="g663"><radialGradient
   id="path630_1_"
   cx="-165.9468"
   cy="427.3867"
   r="0.1138"
   fx="-165.9468"
   fy="427.3867"
   gradientTransform="matrix(-47.8028 0 0 -65.5878 -7899.1484 28049.5879)"
   gradientUnits="userSpaceOnUse"><stop
   offset="0"
   style="stop-color:#DEE2E7"
   id="stop665" /><stop
   offset="1"
   style="stop-color:#FFFFFF"
   id="stop666" /><a:midPointStop
   offset="0"
   style="stop-color:#DEE2E7"
   id="midPointStop667" /><a:midPointStop
   offset="0.5"
   style="stop-color:#DEE2E7"
   id="midPointStop668" /><a:midPointStop
   offset="1"
   style="stop-color:#FFFFFF"
   id="midPointStop669" /></radialGradient><path
   id="path630"
   type="arc"
   cx="50.24698"
   cy="478.4100"
   rx="24.52531"
   ry="34.99345"
   fill="url(#path630_1_)"
   stroke="#7C5202"
   stroke-width="0.7013"
   d="       M30.8,17.1c0-3.1,1.8-5.6,4.1-5.6s4.1,2.5,4.1,5.6c0,0,0,0,0,0c0,3.1-1.8,5.6-4.1,5.6S30.8,20.2,30.8,17.1       C30.8,17.1,30.8,17.1,30.8,17.1z" /><g
   id="path631"
   type="arc"
   cx="50.09747"
   cy="476.7646"
   rx="28.86212"
   ry="41.42389"><path
   i:knockout="Off"
   opacity="3.790000e-002"
   fill="none"
   stroke="#000000"
   stroke-width="0.6375"
   d="M30.2,17        c0-3.4,2.1-6.1,4.7-6.1s4.7,2.7,4.7,6.1c0,0,0,0,0,0c0,3.4-2.1,6.1-4.7,6.1C32.3,23.2,30.2,20.4,30.2,17        C30.2,17,30.2,17,30.2,17z"
   id="path672" /></g><g
   id="path632"
   type="arc"
   cx="50.09747"
   cy="476.7646"
   rx="28.86212"
   ry="41.42389"><path
   i:knockout="Off"
   opacity="1.420000e-002"
   fill="none"
   stroke="#000000"
   stroke-width="2.2168"
   d="M30.2,17.1        c0-3.4,2.1-6.1,4.7-6.1c2.6,0,4.7,2.7,4.7,6.1c0,0,0,0,0,0c0,3.4-2.1,6.1-4.7,6.1C32.3,23.2,30.2,20.4,30.2,17.1        C30.2,17.1,30.2,17.1,30.2,17.1z"
   id="path674" /></g><g
   id="path633"
   type="arc"
   cx="50.09747"
   cy="476.7646"
   rx="28.86212"
   ry="41.42389"><path
   i:knockout="Off"
   opacity="1.420000e-002"
   fill="none"
   stroke="#000000"
   stroke-width="1.4008"
   d="M30.2,17.1        c0-3.4,2.1-6.1,4.7-6.1c2.6,0,4.7,2.7,4.7,6.1c0,0,0,0,0,0c0,3.4-2.1,6.1-4.7,6.1C32.3,23.2,30.2,20.4,30.2,17.1        C30.2,17.1,30.2,17.1,30.2,17.1z"
   id="path676" /></g><g
   id="path634"
   type="arc"
   cx="50.09747"
   cy="476.7646"
   rx="28.86212"
   ry="41.42389"><path
   i:knockout="Off"
   opacity="1.420000e-002"
   fill="none"
   stroke="#000000"
   stroke-width="0.4825"
   d="M30.2,17.1        c0-3.4,2.1-6.1,4.7-6.1c2.6,0,4.7,2.7,4.7,6.1c0,0,0,0,0,0c0,3.4-2.1,6.1-4.7,6.1C32.3,23.2,30.2,20.4,30.2,17.1        C30.2,17.1,30.2,17.1,30.2,17.1z"
   id="path678" /></g><g
   id="path635"
   type="arc"
   cx="50.09747"
   cy="476.7646"
   rx="28.86212"
   ry="41.42389"><path
   i:knockout="Off"
   opacity="0.1517"
   fill="none"
   stroke="#000000"
   stroke-width="0.2425"
   d="M30.4,17.1c0-3.3,2-6,4.5-6        c2.5,0,4.5,2.7,4.5,6c0,0,0,0,0,0c0,3.3-2,6-4.5,6S30.4,20.4,30.4,17.1C30.4,17.1,30.4,17.1,30.4,17.1z"
   id="path680" /></g><radialGradient
   id="path637_1_"
   cx="-161.3447"
   cy="427.3975"
   r="0.1051"
   fx="-161.3447"
   fy="427.3975"
   gradientTransform="matrix(-19.9085 0 0 -20.9347 -3177.3074 8961.5498)"
   gradientUnits="userSpaceOnUse"><stop
   offset="0"
   style="stop-color:#000082"
   id="stop682" /><stop
   offset="1"
   style="stop-color:#000000"
   id="stop683" /><a:midPointStop
   offset="0"
   style="stop-color:#000082"
   id="midPointStop684" /><a:midPointStop
   offset="0.5"
   style="stop-color:#000082"
   id="midPointStop685" /><a:midPointStop
   offset="1"
   style="stop-color:#000000"
   id="midPointStop686" /></radialGradient><path
   id="path637"
   type="arc"
   cx="61.64901"
   cy="495.8291"
   rx="10.46870"
   ry="10.89169"
   fill="url(#path637_1_)"
   d="       M32.5,15.1c0-1,0.8-1.8,1.7-1.8c0.9,0,1.7,0.8,1.7,1.8c0,0,0,0,0,0c0,1-0.8,1.8-1.7,1.8S32.5,16.1,32.5,15.1L32.5,15.1z" /><radialGradient
   id="path650_1_"
   cx="-170.5811"
   cy="427.3867"
   r="0.1138"
   fx="-170.5811"
   fy="427.3867"
   gradientTransform="matrix(47.8028 0 0 -65.5878 8168.2344 28049.5879)"
   gradientUnits="userSpaceOnUse"><stop
   offset="0"
   style="stop-color:#DEE2E7"
   id="stop689" /><stop
   offset="1"
   style="stop-color:#FFFFFF"
   id="stop690" /><a:midPointStop
   offset="0"
   style="stop-color:#DEE2E7"
   id="midPointStop691" /><a:midPointStop
   offset="0.5"
   style="stop-color:#DEE2E7"
   id="midPointStop692" /><a:midPointStop
   offset="1"
   style="stop-color:#FFFFFF"
   id="midPointStop693" /></radialGradient><path
   id="path650"
   type="arc"
   cx="50.24698"
   cy="478.4100"
   rx="24.52531"
   ry="34.99345"
   fill="url(#path650_1_)"
   stroke="#7C3902"
   stroke-width="0.7013"
   d="       M16.7,17.1c0-3.1-1.8-5.6-4.1-5.6c-2.2,0-4.1,2.5-4.1,5.6c0,0,0,0,0,0c0,3.1,1.8,5.6,4.1,5.6S16.7,20.2,16.7,17.1       C16.7,17.1,16.7,17.1,16.7,17.1z" /><g
   id="path651"
   type="arc"
   cx="50.09747"
   cy="476.7646"
   rx="28.86212"
   ry="41.42389"><path
   i:knockout="Off"
   opacity="3.790000e-002"
   fill="none"
   stroke="#000000"
   stroke-width="0.6375"
   d="M17.4,17        c0-3.4-2.1-6.1-4.7-6.1C10.1,10.9,8,13.6,8,17c0,0,0,0,0,0c0,3.4,2.1,6.1,4.7,6.1C15.3,23.2,17.4,20.4,17.4,17        C17.4,17,17.4,17,17.4,17z"
   id="path696" /></g><g
   id="path652"
   type="arc"
   cx="50.09747"
   cy="476.7646"
   rx="28.86212"
   ry="41.42389"><path
   i:knockout="Off"
   opacity="1.420000e-002"
   fill="none"
   stroke="#000000"
   stroke-width="2.2168"
   d="M17.4,17.1        c0-3.4-2.1-6.1-4.7-6.1c-2.6,0-4.7,2.7-4.7,6.1c0,0,0,0,0,0c0,3.4,2.1,6.1,4.7,6.1C15.3,23.2,17.4,20.4,17.4,17.1        C17.4,17.1,17.4,17.1,17.4,17.1z"
   id="path698" /></g><g
   id="path653"
   type="arc"
   cx="50.09747"
   cy="476.7646"
   rx="28.86212"
   ry="41.42389"><path
   i:knockout="Off"
   opacity="1.420000e-002"
   fill="none"
   stroke="#000000"
   stroke-width="1.4008"
   d="M17.4,17.1        c0-3.4-2.1-6.1-4.7-6.1c-2.6,0-4.7,2.7-4.7,6.1c0,0,0,0,0,0c0,3.4,2.1,6.1,4.7,6.1C15.3,23.2,17.4,20.4,17.4,17.1        C17.4,17.1,17.4,17.1,17.4,17.1z"
   id="path701" /></g><g
   id="path654"
   type="arc"
   cx="50.09747"
   cy="476.7646"
   rx="28.86212"
   ry="41.42389"><path
   i:knockout="Off"
   opacity="1.420000e-002"
   fill="none"
   stroke="#000000"
   stroke-width="0.4825"
   d="M17.4,17.1        c0-3.4-2.1-6.1-4.7-6.1c-2.6,0-4.7,2.7-4.7,6.1c0,0,0,0,0,0c0,3.4,2.1,6.1,4.7,6.1C15.3,23.2,17.4,20.4,17.4,17.1        C17.4,17.1,17.4,17.1,17.4,17.1z"
   id="path703" /></g><g
   id="path655"
   type="arc"
   cx="50.09747"
   cy="476.7646"
   rx="28.86212"
   ry="41.42389"><path
   i:knockout="Off"
   opacity="0.1517"
   fill="none"
   stroke="#000000"
   stroke-width="0.2425"
   d="M17.2,17.1c0-3.3-2-6-4.5-6        c-2.5,0-4.5,2.7-4.5,6c0,0,0,0,0,0c0,3.3,2,6,4.5,6S17.2,20.4,17.2,17.1C17.2,17.1,17.2,17.1,17.2,17.1z"
   id="path705" /></g><radialGradient
   id="path656_1_"
   cx="-172.4712"
   cy="427.3975"
   r="0.1053"
   fx="-172.4712"
   fy="427.3975"
   gradientTransform="matrix(19.9085 0 0 -20.9347 3446.3933 8961.5498)"
   gradientUnits="userSpaceOnUse"><stop
   offset="0"
   style="stop-color:#000082"
   id="stop707" /><stop
   offset="1"
   style="stop-color:#000000"
   id="stop708" /><a:midPointStop
   offset="0"
   style="stop-color:#000082"
   id="midPointStop709" /><a:midPointStop
   offset="0.5"
   style="stop-color:#000082"
   id="midPointStop710" /><a:midPointStop
   offset="1"
   style="stop-color:#000000"
   id="midPointStop711" /></radialGradient><path
   id="path656"
   type="arc"
   cx="61.64901"
   cy="495.8291"
   rx="10.46870"
   ry="10.89169"
   fill="url(#path656_1_)"
   d="       M15.1,15.1c0-1-0.8-1.8-1.7-1.8c-0.9,0-1.7,0.8-1.7,1.8c0,0,0,0,0,0c0,1,0.8,1.8,1.7,1.8S15.1,16.1,15.1,15.1L15.1,15.1z" /><linearGradient
   id="path638_1_"
   gradientUnits="userSpaceOnUse"
   x1="-169.8574"
   y1="427.3555"
   x2="-169.9379"
   y2="427.4749"
   gradientTransform="matrix(115.8352 0 0 -88.9312 19692.2988 38026.7969)"><stop
   offset="0"
   style="stop-color:#000082"
   id="stop714" /><stop
   offset="1"
   style="stop-color:#000000"
   id="stop715" /><a:midPointStop
   offset="0"
   style="stop-color:#000082"
   id="midPointStop716" /><a:midPointStop
   offset="0.5"
   style="stop-color:#000082"
   id="midPointStop717" /><a:midPointStop
   offset="1"
   style="stop-color:#000000"
   id="midPointStop718" /></linearGradient><path
   id="path638"
   nodetypes="ccccc"
   opacity="0.4"
   fill="url(#path638_1_)"
   stroke="#230000"
   stroke-width="0.8452"
   d="       M3.5,12.2c-2.7,3.6,0.3,9.1,1.9,10.9c1.6,1.8,8.5,4.3,13.2-0.3c4.7-4.6,3.7-9.1,2.8-10.7C20.5,10.6,6,8.9,3.5,12.2z" /><path
   id="path649"
   nodetypes="ccccc"
   fill="none"
   stroke="#230000"
   stroke-width="1.207442e-002"
   d="M3.1,12       c-2.8,3.8,0.3,9.6,2,11.5c1.7,1.9,9,4.5,13.9-0.3c5-4.8,3.9-9.6,2.9-11.2C21,10.4,5.7,8.6,3.1,12z" /><linearGradient
   id="path644_1_"
   gradientUnits="userSpaceOnUse"
   x1="3.5034"
   y1="12.5024"
   x2="22.0034"
   y2="17.0024"><stop
   offset="0"
   style="stop-color:#FFFFFF"
   id="stop722" /><stop
   offset="1"
   style="stop-color:#00FFFF"
   id="stop723" /><a:midPointStop
   offset="0"
   style="stop-color:#FFFFFF"
   id="midPointStop724" /><a:midPointStop
   offset="0.5"
   style="stop-color:#FFFFFF"
   id="midPointStop725" /><a:midPointStop
   offset="1"
   style="stop-color:#00FFFF"
   id="midPointStop726" /></linearGradient><path
   id="path644"
   nodetypes="cccccccccc"
   opacity="0.35"
   fill="url(#path644_1_)"
   d="M2.6,17.1       c1.4-0.3,2.7-1.1,4.3-1c2.7,0,5,3.4,7.3,3.4c2.4,0.3,5-1.5,7.5-2.2L21.5,12l-7.3-1.7l-6.2-0.1L3.6,12l-1,2.9V17.1z" /><linearGradient
   id="path657_1_"
   gradientUnits="userSpaceOnUse"
   x1="-170.8037"
   y1="427.3564"
   x2="-170.8843"
   y2="427.476"
   gradientTransform="matrix(115.8351 0 0 -88.9313 19824.625 38026.7969)"><stop
   offset="0"
   style="stop-color:#000082"
   id="stop729" /><stop
   offset="1"
   style="stop-color:#000000"
   id="stop730" /><a:midPointStop
   offset="0"
   style="stop-color:#000082"
   id="midPointStop731" /><a:midPointStop
   offset="0.5"
   style="stop-color:#000082"
   id="midPointStop732" /><a:midPointStop
   offset="1"
   style="stop-color:#000000"
   id="midPointStop733" /></linearGradient><path
   id="path657"
   nodetypes="ccccc"
   opacity="0.4"
   fill="url(#path657_1_)"
   stroke="#230000"
   stroke-width="0.8452"
   d="       M43.5,12.2c2.7,3.6-0.3,9.1-1.9,10.9c-1.6,1.8-8.5,4.3-13.2-0.3c-4.7-4.6-3.7-9.1-2.8-10.7C26.6,10.6,41,8.9,43.5,12.2z" /><path
   id="path658"
   nodetypes="ccccc"
   fill="none"
   stroke="#230000"
   stroke-width="1.207442e-002"
   d="M44,12       c2.8,3.8-0.3,9.6-2,11.5c-1.7,1.9-9,4.5-13.9-0.3s-3.9-9.6-2.9-11.2C26,10.4,41.3,8.6,44,12z" /><linearGradient
   id="path659_1_"
   gradientUnits="userSpaceOnUse"
   x1="25.5107"
   y1="12.4697"
   x2="44.0107"
   y2="16.9697"><stop
   offset="0"
   style="stop-color:#FFFFFF"
   id="stop737" /><stop
   offset="1"
   style="stop-color:#00FFFF"
   id="stop738" /><a:midPointStop
   offset="0"
   style="stop-color:#FFFFFF"
   id="midPointStop739" /><a:midPointStop
   offset="0.5"
   style="stop-color:#FFFFFF"
   id="midPointStop740" /><a:midPointStop
   offset="1"
   style="stop-color:#00FFFF"
   id="midPointStop741" /></linearGradient><path
   id="path659"
   nodetypes="cccccccccc"
   opacity="0.35"
   fill="url(#path659_1_)"
   d="M44.4,17.1       c-1.4-0.3-2.7-1.1-4.3-1c-2.7,0-5,3.4-7.3,3.4c-2.4,0.3-5-1.5-7.5-2.2l0.3-5.2l7.3-1.7l6.2-0.1l4.3,1.8l1,2.9V17.1z" /><path
   id="path663"
   nodetypes="cc"
   fill="none"
   stroke="#000000"
   stroke-width="0.8288"
   stroke-linecap="round"
   d="       M21.5,12.1c1.4-0.4,2.7-0.4,4.1,0" /><linearGradient
   id="path660_1_"
   gradientUnits="userSpaceOnUse"
   x1="-169.9185"
   y1="427.7939"
   x2="-168.9415"
   y2="427.6273"><stop
   offset="0"
   style="stop-color:#FFFFFF"
   id="stop745" /><stop
   offset="1"
   style="stop-color:#FFFFFF"
   id="stop746" /><a:midPointStop
   offset="0"
   style="stop-color:#FFFFFF"
   id="midPointStop747" /><a:midPointStop
   offset="0.5"
   style="stop-color:#FFFFFF"
   id="midPointStop748" /><a:midPointStop
   offset="1"
   style="stop-color:#FFFFFF"
   id="midPointStop749" /></linearGradient><path
   id="path660"
   nodetypes="cc"
   fill="none"
   stroke="url(#path660_1_)"
   stroke-width="0.8288"
   stroke-linecap="round"
   d="       M21.5,12.1c1.4-0.4,2.7-0.4,4.1,0" /></g></g></g></svg>
