<?xml version="1.0" encoding="UTF-8" standalone="no"?>
<!DOCTYPE svg PUBLIC "-//W3C//DTD SVG 20010904//EN"
"http://www.w3.org/TR/2001/REC-SVG-20010904/DTD/svg10.dtd">
<!-- Created with Sodipodi ("http://www.sodipodi.com/") -->
<svg
   xmlns:x="http://ns.adobe.com/Extensibility/1.0/"
   xmlns:i="http://ns.adobe.com/AdobeIllustrator/10.0/"
   xmlns:graph="http://ns.adobe.com/Graphs/1.0/"
   xmlns="http://www.w3.org/2000/svg"
   xmlns:xlink="http://www.w3.org/1999/xlink"
   xmlns:a="http://ns.adobe.com/AdobeSVGViewerExtensions/3.0/"
   xml:space="preserve"
   i:viewOrigin="205.7563 451.5576"
   i:rulerOrigin="0 0"
   i:pageBounds="0 792 612 0"
   width="48"
   height="48.8"
   viewBox="0 0 48 48.8"
   overflow="visible"
   enable-background="new 0 0 48 48.8"
   xmlns:sodipodi="http://sodipodi.sourceforge.net/DTD/sodipodi-0.dtd"
   id="svg602"
   sodipodi:version="0.34"
   sodipodi:docname="C:\msys\home\su_blanc\mldonkey-2.5.12\src\gtk2\rsvg\emoticons\emoticon_angel.svg"><defs
   id="defs709" /><sodipodi:namedview
   id="base" /><g
   id="Layer_1"
   i:knockout="Off"
   i:layer="yes"
   i:dimmedPercent="50"
   i:rgbTrio="#4F008000FFFF"><g
   id="g606"><g
   id="path688_2_"
   nodetypes="cccccc"
   opacity="0.4"><path
   i:knockout="Off"
   fill="#9F9F9F"
   d="M31.6,16.1c0.5,1.4,0.9,1.1,1.6,1.6c3,0.2,3.2-6.8,5.9-5.9c3.4,0.7,4.8,21.5-6.6,28.6       c1.4-6.7-1.3-16-2.7-18.1C30.3,19.8,31.1,18.4,31.6,16.1z"
   id="path608" /></g><radialGradient
   id="path700_1_"
   cx="-375.4478"
   cy="22.9873"
   r="5.735332e-002"
   fx="-375.4478"
   fy="22.9873"
   gradientTransform="matrix(310.7065 0 0 144.1183 116675.1797 -3269.4287)"
   gradientUnits="userSpaceOnUse"><stop
   offset="0"
   style="stop-color:#261700"
   id="stop610" /><stop
   offset="1"
   style="stop-color:#D2D2D2"
   id="stop611" /><a:midPointStop
   offset="0"
   style="stop-color:#261700"
   id="midPointStop612" /><a:midPointStop
   offset="0.5"
   style="stop-color:#261700"
   id="midPointStop613" /><a:midPointStop
   offset="1"
   style="stop-color:#D2D2D2"
   id="midPointStop614" /></radialGradient><path
   id="path700"
   i:isolated="yes"
   i:knockout="Off"
   opacity="0.3"
   fill="url(#path700_1_)"
   enable-background="new    "
   d="      M32.7,33.9c5.8,4,5.3,9.4-1.7,12.7c-7,3.3-17.4,2.8-23.1-1.3c-4.9-3.4-5.1-8.1-0.4-11.7c3,4.2,5.5,5.6,12.5,6.5      C25.8,40,29.5,37.5,32.7,33.9z" /><g
   id="path688"
   nodetypes="cccccc"><path
   i:knockout="Off"
   opacity="0.3318"
   fill="none"
   stroke="#000000"
   stroke-width="1.782"
   stroke-linejoin="round"
   d="       M29.8,11c0.7,2,1.2,1.6,2.2,2.2c4.3,0.3,4.6-9.6,8.5-8.5c4.8,1,6.9,30.8-9.4,40.8c2-9.6-1.9-22.9-3.9-25.8       C28,16.3,29.2,14.3,29.8,11z"
   id="path617" /></g><g
   id="path699"
   nodetypes="cccccc"><path
   i:knockout="Off"
   opacity="0.3318"
   fill="none"
   stroke="#000000"
   stroke-width="1.782"
   stroke-linejoin="round"
   d="       M22.3,8.1C21.2,9.2,21,8.9,20.2,9c-2.8-1,0-7.8-2.8-8.1C14.1,0.3,4,20.1,11.1,31.4c1.6-7.1,8-15.2,10.1-16.6       C21.8,12.2,21.7,10.6,22.3,8.1z"
   id="path619" /></g><path
   id="path597_5_"
   i:isolated="yes"
   i:knockout="Off"
   opacity="0.15"
   fill="none"
   stroke="#474000"
   stroke-width="1.6767"
   enable-background="new    "
   d="      M4,23.6C4,14,11.1,6.4,19.8,6.4c8.7,0,16.4,7.2,16.4,16.7c0,9.5-7.7,17.7-16.4,17.7C11.1,40.7,4,33.1,4,23.6z" /><path
   id="path597_4_"
   i:isolated="yes"
   i:knockout="Off"
   opacity="0.2"
   fill="none"
   stroke="#474000"
   stroke-width="0.8383"
   enable-background="new    "
   d="      M4,23.6C4,14,11.1,6.4,19.8,6.4c8.7,0,16.4,7.2,16.4,16.7c0,9.5-7.7,17.7-16.4,17.7C11.1,40.7,4,33.1,4,23.6z" /><path
   id="path597_3_"
   i:isolated="yes"
   i:knockout="Off"
   opacity="0.3"
   fill="none"
   stroke="#474000"
   stroke-width="0.4191"
   enable-background="new    "
   d="      M4,23.6C4,14,11.1,6.4,19.8,6.4c8.7,0,16.4,7.2,16.4,16.7c0,9.5-7.7,17.7-16.4,17.7C11.1,40.7,4,33.1,4,23.6z" /><radialGradient
   id="path577_1_"
   cx="-338.9136"
   cy="61.9863"
   r="37.0003"
   fx="-338.9136"
   fy="61.9863"
   gradientTransform="matrix(298.9032 0 0 316.3969 112242.6875 -7632.5967)"
   gradientUnits="userSpaceOnUse"><stop
   offset="0"
   style="stop-color:#FF6F00"
   id="stop624" /><stop
   offset="1"
   style="stop-color:#FFFF00"
   id="stop625" /><a:midPointStop
   offset="0"
   style="stop-color:#FF6F00"
   id="midPointStop626" /><a:midPointStop
   offset="0.5"
   style="stop-color:#FF6F00"
   id="midPointStop627" /><a:midPointStop
   offset="1"
   style="stop-color:#FFFF00"
   id="midPointStop628" /></radialGradient><circle
   id="path577"
   fill="url(#path577_1_)"
   cx="20.3"
   cy="23.7"
   r="15.9" /><linearGradient
   id="path597_1_"
   gradientUnits="userSpaceOnUse"
   x1="-375.4385"
   y1="24.1479"
   x2="-375.4397"
   y2="24.2534"
   gradientTransform="matrix(303.6933 0 0 316.3967 114038.4688 -7632.3281)"><stop
   offset="0"
   style="stop-color:#FF6500"
   id="stop631" /><stop
   offset="1"
   style="stop-color:#FFFF00"
   id="stop632" /><a:midPointStop
   offset="0"
   style="stop-color:#FF6500"
   id="midPointStop633" /><a:midPointStop
   offset="0.5"
   style="stop-color:#FF6500"
   id="midPointStop634" /><a:midPointStop
   offset="1"
   style="stop-color:#FFFF00"
   id="midPointStop635" /></linearGradient><path
   id="path597"
   i:isolated="yes"
   i:knockout="Off"
   opacity="0.75"
   fill="url(#path597_1_)"
   enable-background="new    "
   d="      M4,23.6C4,14,11.1,6.4,19.8,6.4c8.8,0,16.4,7.1,16.4,16.7c0,9.5-7.7,17.7-16.4,17.7C11.1,40.7,4,33.1,4,23.6z" /><radialGradient
   id="path587_1_"
   cx="24.2114"
   cy="8.0806"
   r="11.2728"
   fx="24.2114"
   fy="8.0806"
   gradientUnits="userSpaceOnUse"><stop
   offset="0"
   style="stop-color:#FFFF00"
   id="stop638" /><stop
   offset="0.29"
   style="stop-color:#FFFC00"
   id="stop639" /><stop
   offset="0.4938"
   style="stop-color:#FFF300"
   id="stop640" /><stop
   offset="0.6712"
   style="stop-color:#FFE300"
   id="stop641" /><stop
   offset="0.8334"
   style="stop-color:#FFCE00"
   id="stop642" /><stop
   offset="0.9841"
   style="stop-color:#FFB100"
   id="stop643" /><stop
   offset="1"
   style="stop-color:#FFAE00"
   id="stop644" /><a:midPointStop
   offset="0"
   style="stop-color:#FFFF00"
   id="midPointStop645" /><a:midPointStop
   offset="0.774"
   style="stop-color:#FFFF00"
   id="midPointStop646" /><a:midPointStop
   offset="1"
   style="stop-color:#FFAE00"
   id="midPointStop647" /></radialGradient><path
   id="path587"
   nodetypes="ccccc"
   opacity="0.7"
   fill="url(#path587_1_)"
   d="M19.8,18.5c-10-2.7-11-7.2-9.3-8.9      c1.9-1.8,7-3.9,13.6-2.3c6.4,1.5,8.9,5.1,9.4,8C33.8,17.4,29.7,21,19.8,18.5z" /><path
   id="path859"
   nodetypes="ccccc"
   opacity="0.2"
   fill="none"
   stroke="#000000"
   stroke-width="3.564"
   d="M35.7,11.5      c1.6,1.8-0.3,3.4-10.6,0.6C14.7,9.1,11.7,5.8,12.9,4.9c2.5-1.9,8.6-0.3,10.5,0.2C25.7,5.7,32.5,8,35.7,11.5z" /><path
   id="path859_2_"
   nodetypes="ccccc"
   opacity="0.3"
   fill="none"
   stroke="#000000"
   stroke-width="2.673"
   d="      M35.7,11.5c1.6,1.8-0.3,3.4-10.6,0.6C14.7,9.1,11.7,5.8,12.9,4.9c2.5-1.9,8.6-0.3,10.5,0.2C25.7,5.7,32.5,8,35.7,11.5z" /><path
   id="path859_3_"
   nodetypes="ccccc"
   opacity="0.5"
   fill="none"
   stroke="#000000"
   stroke-width="1.782"
   stroke-linecap="round"
   d="      M35.7,11.5c1.6,1.8-0.3,3.4-10.6,0.6C14.7,9.1,11.7,5.8,12.9,4.9c2.5-1.9,8.6-0.3,10.5,0.2C25.7,5.7,32.5,8,35.7,11.5z" /><g
   id="g652"><g
   id="path638"
   nodetypes="ccccc"><path
   i:knockout="Off"
   opacity="0.3697"
   fill="none"
   stroke="#000000"
   stroke-width="1.2226"
   d="M9.4,28.6        c0.2-0.5-0.8-0.8-0.8-0.1c1.2,5.3,3.9,8.5,9,8.6c1.4-0.1,1-1.3-0.1-1.3C13.3,35.2,10.9,33.8,9.4,28.6z"
   id="path654" /></g><radialGradient
   id="path630_1_"
   cx="-203.9814"
   cy="451.1133"
   r="8.478976e-002"
   fx="-203.9814"
   fy="451.1133"
   gradientTransform="matrix(-37.6362 -15.7254 22.805 -54.5799 -17941.9668 21436.2969)"
   gradientUnits="userSpaceOnUse"><stop
   offset="0"
   style="stop-color:#DEE2E7"
   id="stop656" /><stop
   offset="1"
   style="stop-color:#FFFFFF"
   id="stop657" /><a:midPointStop
   offset="0"
   style="stop-color:#DEE2E7"
   id="midPointStop658" /><a:midPointStop
   offset="0.5"
   style="stop-color:#DEE2E7"
   id="midPointStop659" /><a:midPointStop
   offset="1"
   style="stop-color:#FFFFFF"
   id="midPointStop660" /></radialGradient><path
   id="path630"
   type="arc"
   cx="50.24698"
   cy="478.4100"
   rx="24.52531"
   ry="34.99345"
   fill="url(#path630_1_)"
   stroke="#873C00"
   stroke-width="0.524"
   d="       M21.4,20.9c0.8-1.9,2.5-3,3.8-2.5c1.3,0.6,1.7,2.5,0.9,4.5c0,0,0,0,0,0c-0.8,1.9-2.5,3-3.8,2.5C21,24.8,20.6,22.8,21.4,20.9       C21.4,20.9,21.4,20.9,21.4,20.9z" /><g
   id="path631"
   type="arc"
   cx="50.09747"
   cy="476.7646"
   rx="28.86212"
   ry="41.42389"><path
   i:knockout="Off"
   opacity="3.790000e-002"
   fill="none"
   stroke="#000000"
   stroke-width="0.4763"
   d="M21,20.7        c0.9-2.1,2.8-3.3,4.4-2.7c1.5,0.6,2.1,2.9,1.2,5c0,0,0,0,0,0c-0.9,2.1-2.8,3.3-4.4,2.7C20.7,25,20.2,22.8,21,20.7        C21,20.7,21,20.7,21,20.7z"
   id="path663" /></g><g
   id="path632"
   type="arc"
   cx="50.09747"
   cy="476.7646"
   rx="28.86212"
   ry="41.42389"><path
   i:knockout="Off"
   opacity="1.420000e-002"
   fill="none"
   stroke="#000000"
   stroke-width="1.6564"
   d="M21,20.7        c0.9-2.1,2.8-3.3,4.4-2.7c1.5,0.6,2.1,2.9,1.2,5c0,0,0,0,0,0c-0.9,2.1-2.8,3.3-4.4,2.7C20.7,25,20.2,22.8,21,20.7        C21,20.7,21,20.7,21,20.7z"
   id="path665" /></g><g
   id="path633"
   type="arc"
   cx="50.09747"
   cy="476.7646"
   rx="28.86212"
   ry="41.42389"><path
   i:knockout="Off"
   opacity="1.420000e-002"
   fill="none"
   stroke="#000000"
   stroke-width="1.0467"
   d="M21,20.7        c0.9-2.1,2.8-3.3,4.4-2.7c1.5,0.6,2.1,2.9,1.2,5c0,0,0,0,0,0c-0.9,2.1-2.8,3.3-4.4,2.7C20.7,25,20.2,22.8,21,20.7        C21,20.7,21,20.7,21,20.7z"
   id="path667" /></g><g
   id="path634"
   type="arc"
   cx="50.09747"
   cy="476.7646"
   rx="28.86212"
   ry="41.42389"><path
   i:knockout="Off"
   opacity="1.420000e-002"
   fill="none"
   stroke="#000000"
   stroke-width="0.3605"
   d="M21,20.7        c0.9-2.1,2.8-3.3,4.4-2.7c1.5,0.6,2.1,2.9,1.2,5c0,0,0,0,0,0c-0.9,2.1-2.8,3.3-4.4,2.7C20.7,25,20.2,22.8,21,20.7        C21,20.7,21,20.7,21,20.7z"
   id="path669" /></g><g
   id="path635"
   type="arc"
   cx="50.09747"
   cy="476.7646"
   rx="28.86212"
   ry="41.42389"><path
   i:knockout="Off"
   opacity="0.1517"
   fill="none"
   stroke="#000000"
   stroke-width="0.1812"
   d="M21.1,20.7        c0.9-2.1,2.8-3.2,4.2-2.6c1.5,0.6,2,2.8,1.1,4.9c0,0,0,0,0,0c-0.9,2.1-2.8,3.2-4.2,2.6C20.8,25,20.3,22.8,21.1,20.7        C21.1,20.7,21.1,20.7,21.1,20.7z"
   id="path671" /></g><radialGradient
   id="path607_1_"
   cx="-204.2109"
   cy="451.0879"
   r="8.468792e-002"
   fx="-204.2109"
   fy="451.0879"
   gradientTransform="matrix(33.2109 13.8214 20.1236 -47.9714 -2283.0286 24479.3555)"
   gradientUnits="userSpaceOnUse"><stop
   offset="0"
   style="stop-color:#DEE2E7"
   id="stop673" /><stop
   offset="1"
   style="stop-color:#FFFFFF"
   id="stop674" /><a:midPointStop
   offset="0"
   style="stop-color:#DEE2E7"
   id="midPointStop675" /><a:midPointStop
   offset="0.5"
   style="stop-color:#DEE2E7"
   id="midPointStop676" /><a:midPointStop
   offset="1"
   style="stop-color:#FFFFFF"
   id="midPointStop677" /></radialGradient><path
   id="path607"
   type="arc"
   cx="50.24698"
   cy="478.4100"
   rx="24.52531"
   ry="34.99345"
   fill="url(#path607_1_)"
   stroke="#754000"
   stroke-width="0.524"
   d="       M14.2,17.5c0.7-1.7,0.3-3.4-0.8-3.9c-1.2-0.5-2.7,0.5-3.4,2.2c0,0,0,0,0,0c-0.7,1.7-0.3,3.4,0.8,3.9       C11.9,20.2,13.5,19.2,14.2,17.5C14.2,17.5,14.2,17.5,14.2,17.5z" /><g
   id="path612"
   type="arc"
   cx="50.09747"
   cy="476.7646"
   rx="28.86212"
   ry="41.42389"><path
   i:knockout="Off"
   opacity="3.790000e-002"
   fill="none"
   stroke="#000000"
   stroke-width="0.4763"
   d="M14.5,17.7        c0.8-1.9,0.3-3.8-1-4.4c-1.3-0.6-3.1,0.5-3.9,2.3c0,0,0,0,0,0c-0.8,1.9-0.3,3.8,1,4.4C12,20.6,13.7,19.5,14.5,17.7        C14.5,17.7,14.5,17.7,14.5,17.7z"
   id="path680" /></g><g
   id="path613"
   type="arc"
   cx="50.09747"
   cy="476.7646"
   rx="28.86212"
   ry="41.42389"><path
   i:knockout="Off"
   opacity="1.420000e-002"
   fill="none"
   stroke="#000000"
   stroke-width="1.6564"
   d="M14.5,17.7        c0.8-1.8,0.3-3.8-1-4.4c-1.3-0.6-3.1,0.5-3.8,2.3c0,0,0,0,0,0c-0.8,1.8-0.3,3.8,1,4.4C12,20.6,13.7,19.5,14.5,17.7        C14.5,17.7,14.5,17.7,14.5,17.7z"
   id="path682" /></g><g
   id="path614"
   type="arc"
   cx="50.09747"
   cy="476.7646"
   rx="28.86212"
   ry="41.42389"><path
   i:knockout="Off"
   opacity="1.420000e-002"
   fill="none"
   stroke="#000000"
   stroke-width="1.0467"
   d="M14.5,17.7        c0.8-1.8,0.3-3.8-1-4.4c-1.3-0.6-3.1,0.5-3.8,2.3c0,0,0,0,0,0c-0.8,1.8-0.3,3.8,1,4.4C12,20.6,13.7,19.5,14.5,17.7        C14.5,17.7,14.5,17.7,14.5,17.7z"
   id="path684" /></g><g
   id="path615"
   type="arc"
   cx="50.09747"
   cy="476.7646"
   rx="28.86212"
   ry="41.42389"><path
   i:knockout="Off"
   opacity="1.420000e-002"
   fill="none"
   stroke="#000000"
   stroke-width="0.3605"
   d="M14.5,17.7        c0.8-1.8,0.3-3.8-1-4.4c-1.3-0.6-3.1,0.5-3.8,2.3c0,0,0,0,0,0c-0.8,1.8-0.3,3.8,1,4.4C12,20.6,13.7,19.5,14.5,17.7        C14.5,17.7,14.5,17.7,14.5,17.7z"
   id="path686" /></g><g
   id="path616"
   type="arc"
   cx="50.09747"
   cy="476.7646"
   rx="28.86212"
   ry="41.42389"><path
   i:knockout="Off"
   opacity="0.1517"
   fill="none"
   stroke="#000000"
   stroke-width="0.1812"
   d="M14.4,17.6        c0.8-1.8,0.3-3.7-1-4.3c-1.3-0.5-3,0.5-3.7,2.3c0,0,0,0,0,0c-0.8,1.8-0.3,3.7,1,4.3C12,20.5,13.6,19.4,14.4,17.6        C14.4,17.6,14.4,17.6,14.4,17.6z"
   id="path689" /></g><radialGradient
   id="path624_1_"
   cx="-202.9971"
   cy="451.7988"
   r="7.839381e-002"
   fx="-202.9971"
   fy="451.7988"
   gradientTransform="matrix(13.8314 5.7562 6.4231 -15.3118 -82.4416 8103.7734)"
   gradientUnits="userSpaceOnUse"><stop
   offset="0"
   style="stop-color:#000082"
   id="stop691" /><stop
   offset="1"
   style="stop-color:#000000"
   id="stop692" /><a:midPointStop
   offset="0"
   style="stop-color:#000082"
   id="midPointStop693" /><a:midPointStop
   offset="0.5"
   style="stop-color:#000082"
   id="midPointStop694" /><a:midPointStop
   offset="1"
   style="stop-color:#000000"
   id="midPointStop695" /></radialGradient><path
   id="path624"
   type="arc"
   cx="61.64901"
   cy="495.8291"
   rx="10.46870"
   ry="10.89169"
   fill="url(#path624_1_)"
   d="       M12.8,18.5c0.2-0.5,0-1.1-0.5-1.3c-0.5-0.2-1.1,0.1-1.3,0.6c0,0,0,0,0,0c-0.2,0.5,0,1.1,0.5,1.3C12,19.3,12.5,19,12.8,18.5       C12.8,18.5,12.8,18.5,12.8,18.5z" /><radialGradient
   id="path637_1_"
   cx="-202.4463"
   cy="451.8799"
   r="7.844417e-002"
   fx="-202.4463"
   fy="451.8799"
   gradientTransform="matrix(-15.6744 -6.5492 7.279 -17.4211 -6439.0757 6569.0581)"
   gradientUnits="userSpaceOnUse"><stop
   offset="0"
   style="stop-color:#000082"
   id="stop698" /><stop
   offset="1"
   style="stop-color:#000000"
   id="stop699" /><a:midPointStop
   offset="0"
   style="stop-color:#000082"
   id="midPointStop700" /><a:midPointStop
   offset="0.5"
   style="stop-color:#000082"
   id="midPointStop701" /><a:midPointStop
   offset="1"
   style="stop-color:#000000"
   id="midPointStop702" /></radialGradient><path
   id="path637"
   type="arc"
   cx="61.64901"
   cy="495.8291"
   rx="10.46870"
   ry="10.89169"
   fill="url(#path637_1_)"
   d="       M21.8,22.7c0.3-0.6,0.9-0.9,1.5-0.7c0.5,0.2,0.8,0.9,0.5,1.5c0,0,0,0,0,0c-0.3,0.6-0.9,0.9-1.5,0.7       C21.8,24,21.5,23.3,21.8,22.7C21.8,22.7,21.8,22.7,21.8,22.7z" /><path
   id="path629"
   nodetypes="ccccc"
   fill="#5D1A00"
   d="M9.4,28.6c0.2-0.5-0.8-0.8-0.8-0.1c1.2,5.3,3.9,8.5,9,8.6       c1.4-0.1,1-1.3-0.1-1.3C13.3,35.2,10.9,33.8,9.4,28.6z" /><g
   id="path639_1_"
   nodetypes="ccccc"><path
   i:knockout="Off"
   opacity="0.3697"
   fill="none"
   stroke="#000000"
   stroke-width="0.3969"
   d="M9.4,28.6        c0.2-0.5-0.8-0.8-0.8-0.1c1.2,5.3,3.9,8.5,9,8.6c1.4-0.1,1-1.3-0.1-1.3C13.3,35.2,10.9,33.8,9.4,28.6z"
   id="path706" /></g></g></g><rect
   y="0.8"
   opacity="0.5"
   fill="none"
   width="48"
   height="48"
   id="rect707" /></g></svg>
