<?xml version="1.0" encoding="UTF-8" standalone="no"?>
<!DOCTYPE svg PUBLIC "-//W3C//DTD SVG 20010904//EN"
"http://www.w3.org/TR/2001/REC-SVG-20010904/DTD/svg10.dtd">
<!-- Created with Sodipodi ("http://www.sodipodi.com/") -->
<svg
   xmlns:x="http://ns.adobe.com/Extensibility/1.0/"
   xmlns:i="http://ns.adobe.com/AdobeIllustrator/10.0/"
   xmlns:graph="http://ns.adobe.com/Graphs/1.0/"
   xmlns="http://www.w3.org/2000/svg"
   xmlns:xlink="http://www.w3.org/1999/xlink"
   xmlns:a="http://ns.adobe.com/AdobeSVGViewerExtensions/3.0/"
   xml:space="preserve"
   i:viewOrigin="169.9258 427.752"
   i:rulerOrigin="0 0"
   i:pageBounds="0 792 612 0"
   width="48"
   height="48.7"
   viewBox="0 0 48 48.7"
   overflow="visible"
   enable-background="new 0 0 48 48.7"
   xmlns:sodipodi="http://sodipodi.sourceforge.net/DTD/sodipodi-0.dtd"
   id="svg602"
   sodipodi:version="0.34"
   sodipodi:docname="C:\msys\home\su_blanc\mldonkey-2.5.12\src\gtk2\rsvg\emoticons\emoticon_eyeroll.svg"><defs
   id="defs715" /><sodipodi:namedview
   id="namedview714" /><g
   id="Layer_1"
   i:knockout="Off"
   i:layer="yes"
   i:dimmedPercent="50"
   i:rgbTrio="#4F008000FFFF"><path
   id="path597_5_"
   i:isolated="yes"
   i:knockout="Off"
   opacity="0.15"
   fill="none"
   stroke="#474000"
   stroke-width="1.8818"
   enable-background="new    "
   d="     M5.6,20.2c0-10.7,8-19.3,17.8-19.3c9.8,0,18.4,8.1,18.4,18.7c0,10.7-8.6,19.9-18.4,19.9C13.6,39.5,5.6,30.9,5.6,20.2z" /><path
   id="path597_4_"
   i:isolated="yes"
   i:knockout="Off"
   opacity="0.2"
   fill="none"
   stroke="#474000"
   stroke-width="0.9409"
   enable-background="new    "
   d="     M5.6,20.2c0-10.7,8-19.3,17.8-19.3c9.8,0,18.4,8.1,18.4,18.7c0,10.7-8.6,19.9-18.4,19.9C13.6,39.5,5.6,30.9,5.6,20.2z" /><path
   id="path597_3_"
   i:isolated="yes"
   i:knockout="Off"
   opacity="0.3"
   fill="none"
   stroke="#474000"
   stroke-width="0.4704"
   enable-background="new    "
   d="     M5.6,20.2c0-10.7,8-19.3,17.8-19.3c9.8,0,18.4,8.1,18.4,18.7c0,10.7-8.6,19.9-18.4,19.9C13.6,39.5,5.6,30.9,5.6,20.2z" /><radialGradient
   id="path700_1_"
   cx="-849.4971"
   cy="428.4922"
   r="6.388162e-002"
   fx="-849.4971"
   fy="428.4922"
   gradientTransform="matrix(310.7065 0 0 -144.1183 263969.1875 61796.2813)"
   gradientUnits="userSpaceOnUse"><stop
   offset="0"
   style="stop-color:#261700"
   id="stop610" /><stop
   offset="1"
   style="stop-color:#D2D2D2"
   id="stop611" /><a:midPointStop
   offset="0"
   style="stop-color:#261700"
   id="midPointStop612" /><a:midPointStop
   offset="0.5"
   style="stop-color:#261700"
   id="midPointStop613" /><a:midPointStop
   offset="1"
   style="stop-color:#D2D2D2"
   id="midPointStop614" /></radialGradient><path
   id="path700"
   i:isolated="yes"
   i:knockout="Off"
   opacity="0.3"
   fill="url(#path700_1_)"
   enable-background="new    "
   d="     M37.9,31.8c6.5,4.5,6,10.6-1.9,14.3c-7.9,3.7-19.5,3.1-25.9-1.5c-5.5-3.8-5.7-9.1-0.5-13.1c3.4,4.7,6.2,6.3,14,7.3     C30.1,38.7,34.3,35.8,37.9,31.8z" /><radialGradient
   id="path577_1_"
   cx="-808.4219"
   cy="384.9805"
   r="41.5567"
   fx="-808.4219"
   fy="384.9805"
   gradientTransform="matrix(298.9032 0 0 -316.3969 253942.4063 135241.1094)"
   gradientUnits="userSpaceOnUse"><stop
   offset="0"
   style="stop-color:#FF6F00"
   id="stop617" /><stop
   offset="1"
   style="stop-color:#FFFF00"
   id="stop618" /><a:midPointStop
   offset="0"
   style="stop-color:#FF6F00"
   id="midPointStop619" /><a:midPointStop
   offset="0.5"
   style="stop-color:#FF6F00"
   id="midPointStop620" /><a:midPointStop
   offset="1"
   style="stop-color:#FFFF00"
   id="midPointStop621" /></radialGradient><circle
   id="path577"
   fill="url(#path577_1_)"
   cx="23.9"
   cy="20.4"
   r="17.8" /><linearGradient
   id="path597_1_"
   gradientUnits="userSpaceOnUse"
   x1="-849.4907"
   y1="427.4336"
   x2="-849.4921"
   y2="427.3149"
   gradientTransform="matrix(303.6933 0 0 -316.3967 258008.5625 135241.1094)"><stop
   offset="0"
   style="stop-color:#FF6500"
   id="stop624" /><stop
   offset="1"
   style="stop-color:#FFFF00"
   id="stop625" /><a:midPointStop
   offset="0"
   style="stop-color:#FF6500"
   id="midPointStop626" /><a:midPointStop
   offset="0.5"
   style="stop-color:#FF6500"
   id="midPointStop627" /><a:midPointStop
   offset="1"
   style="stop-color:#FFFF00"
   id="midPointStop628" /></linearGradient><path
   id="path597"
   i:isolated="yes"
   i:knockout="Off"
   opacity="0.75"
   fill="url(#path597_1_)"
   enable-background="new    "
   d="     M5.6,20.2c0-10.7,8-19.3,17.8-19.3c9.9,0,18.4,8,18.4,18.7c0,10.7-8.6,19.9-18.4,19.9C13.6,39.5,5.6,30.9,5.6,20.2z" /><radialGradient
   id="path597_6_"
   cx="-656.332"
   cy="1.0059"
   r="20.2352"
   fx="-656.332"
   fy="1.0059"
   gradientTransform="matrix(1 0 0 1 679.7031 -1.757813e-002)"
   gradientUnits="userSpaceOnUse"><stop
   offset="0"
   style="stop-color:#FFFFFF"
   id="stop631" /><stop
   offset="0.1046"
   style="stop-color:#FFFEFA"
   id="stop632" /><stop
   offset="0.2282"
   style="stop-color:#FFFBEC"
   id="stop633" /><stop
   offset="0.3616"
   style="stop-color:#FFF7D4"
   id="stop634" /><stop
   offset="0.5018"
   style="stop-color:#FFF1B2"
   id="stop635" /><stop
   offset="0.6474"
   style="stop-color:#FFE988"
   id="stop636" /><stop
   offset="0.7976"
   style="stop-color:#FFDF53"
   id="stop637" /><stop
   offset="0.9487"
   style="stop-color:#FFD316"
   id="stop638" /><stop
   offset="1"
   style="stop-color:#FFCF00"
   id="stop639" /><a:midPointStop
   offset="0"
   style="stop-color:#FFFFFF"
   id="midPointStop640" /><a:midPointStop
   offset="0.5"
   style="stop-color:#FFFFFF"
   id="midPointStop641" /><a:midPointStop
   offset="0.1046"
   style="stop-color:#FFFEFA"
   id="midPointStop642" /><a:midPointStop
   offset="0.5"
   style="stop-color:#FFFEFA"
   id="midPointStop643" /><a:midPointStop
   offset="0.2282"
   style="stop-color:#FFFBEC"
   id="midPointStop644" /><a:midPointStop
   offset="0.5"
   style="stop-color:#FFFBEC"
   id="midPointStop645" /><a:midPointStop
   offset="0.3616"
   style="stop-color:#FFF7D4"
   id="midPointStop646" /><a:midPointStop
   offset="0.5"
   style="stop-color:#FFF7D4"
   id="midPointStop647" /><a:midPointStop
   offset="0.5018"
   style="stop-color:#FFF1B2"
   id="midPointStop648" /><a:midPointStop
   offset="0.5"
   style="stop-color:#FFF1B2"
   id="midPointStop649" /><a:midPointStop
   offset="0.6474"
   style="stop-color:#FFE988"
   id="midPointStop650" /><a:midPointStop
   offset="0.5"
   style="stop-color:#FFE988"
   id="midPointStop651" /><a:midPointStop
   offset="0.7976"
   style="stop-color:#FFDF53"
   id="midPointStop652" /><a:midPointStop
   offset="0.5"
   style="stop-color:#FFDF53"
   id="midPointStop653" /><a:midPointStop
   offset="0.9487"
   style="stop-color:#FFD316"
   id="midPointStop654" /><a:midPointStop
   offset="0.5"
   style="stop-color:#FFD316"
   id="midPointStop655" /><a:midPointStop
   offset="1"
   style="stop-color:#FFCF00"
   id="midPointStop656" /></radialGradient><path
   id="path597_2_"
   i:isolated="yes"
   i:knockout="Off"
   opacity="0.75"
   fill="url(#path597_6_)"
   enable-background="new    "
   d="     M12.2,7.8c0-3.8,5-6.9,11.1-6.9c6.1,0,11.4,2.9,11.4,6.7C34.7,11.4,12.2,11.6,12.2,7.8z" /><rect
   id="rect662"
   y="0.7"
   i:knockout="Off"
   fill="none"
   width="48"
   height="48" /><g
   id="g659"
   i:knockout="Off"><radialGradient
   id="path630_1_"
   cx="-335.8198"
   cy="0.4434"
   r="0.1259"
   fx="-335.8198"
   fy="0.4434"
   gradientTransform="matrix(-47.8028 0 0 73.2626 -16022.082 -14.0539)"
   gradientUnits="userSpaceOnUse"><stop
   offset="0"
   style="stop-color:#DEE2E7"
   id="stop661" /><stop
   offset="1"
   style="stop-color:#FFFFFF"
   id="stop662" /><a:midPointStop
   offset="0"
   style="stop-color:#DEE2E7"
   id="midPointStop663" /><a:midPointStop
   offset="0.5"
   style="stop-color:#DEE2E7"
   id="midPointStop664" /><a:midPointStop
   offset="1"
   style="stop-color:#FFFFFF"
   id="midPointStop665" /></radialGradient><path
   id="path630"
   fill="url(#path630_1_)"
   stroke="#7C5202"
   stroke-width="0.7722"
   d="M27.8,16.9c0-3.8,2-6.9,4.5-6.9      s4.5,3.1,4.5,6.9l0,0c0,3.8-2,6.9-4.5,6.9S27.8,20.7,27.8,16.9L27.8,16.9z" /><g
   id="path631"
   i:knockout="Off"><path
   id="path668"
   i:isolated="yes"
   i:knockout="Off"
   opacity="3.790000e-002"
   fill="none"
   stroke="#000000"
   stroke-width="0.702"
   enable-background="new    "
   d="       M27.1,16.9c0-4.2,2.3-7.6,5.2-7.6c2.9,0,5.2,3.4,5.2,7.6l0,0c0,4.2-2.3,7.6-5.2,7.6C29.4,24.4,27.1,21,27.1,16.9L27.1,16.9z" /></g><g
   id="path632"
   i:knockout="Off"><path
   id="path670"
   i:isolated="yes"
   i:knockout="Off"
   opacity="1.420000e-002"
   fill="none"
   stroke="#000000"
   stroke-width="2.4411"
   enable-background="new    "
   d="       M27.1,16.9c0-4.2,2.3-7.5,5.2-7.5c2.9,0,5.2,3.4,5.2,7.5l0,0c0,4.2-2.3,7.5-5.2,7.5C29.4,24.4,27.1,21.1,27.1,16.9L27.1,16.9z" /></g><g
   id="path633"
   i:knockout="Off"><path
   id="path672"
   i:isolated="yes"
   i:knockout="Off"
   opacity="1.420000e-002"
   fill="none"
   stroke="#000000"
   stroke-width="1.5425"
   enable-background="new    "
   d="       M27.1,16.9c0-4.2,2.3-7.5,5.2-7.5c2.9,0,5.2,3.4,5.2,7.5l0,0c0,4.2-2.3,7.5-5.2,7.5C29.4,24.4,27.1,21.1,27.1,16.9L27.1,16.9z" /></g><g
   id="path634"
   i:knockout="Off"><path
   id="path674"
   i:isolated="yes"
   i:knockout="Off"
   opacity="1.420000e-002"
   fill="none"
   stroke="#000000"
   stroke-width="0.5313"
   enable-background="new    "
   d="       M27.1,16.9c0-4.2,2.3-7.5,5.2-7.5c2.9,0,5.2,3.4,5.2,7.5l0,0c0,4.2-2.3,7.5-5.2,7.5C29.4,24.4,27.1,21.1,27.1,16.9L27.1,16.9z" /></g><g
   id="path635"
   i:knockout="Off"><path
   id="path676"
   i:isolated="yes"
   i:knockout="Off"
   opacity="0.1517"
   fill="none"
   stroke="#000000"
   stroke-width="0.2671"
   enable-background="new    "
   d="       M27.3,16.9c0-4.1,2.2-7.4,5-7.4c2.8,0,5,3.3,5,7.4l0,0c0,4.1-2.2,7.4-5,7.4C29.5,24.3,27.3,21,27.3,16.9L27.3,16.9z" /></g><radialGradient
   id="path637_1_"
   cx="-331.1357"
   cy="-0.4092"
   r="0.1162"
   fx="-331.1357"
   fy="-0.4092"
   gradientTransform="matrix(-19.9085 0 0 23.3843 -6560.2808 28.2144)"
   gradientUnits="userSpaceOnUse"><stop
   offset="0"
   style="stop-color:#000082"
   id="stop678" /><stop
   offset="1"
   style="stop-color:#000000"
   id="stop679" /><a:midPointStop
   offset="0"
   style="stop-color:#000082"
   id="midPointStop680" /><a:midPointStop
   offset="0.5"
   style="stop-color:#000082"
   id="midPointStop681" /><a:midPointStop
   offset="1"
   style="stop-color:#000000"
   id="midPointStop682" /></radialGradient><path
   id="path637"
   fill="url(#path637_1_)"
   d="M29.6,19.8c0-1.2,0.8-2.2,1.9-2.2s1.9,1,1.9,2.2l0,0c0,1.2-0.8,2.2-1.9,2.2      C30.5,22,29.6,21,29.6,19.8L29.6,19.8z" /></g><g
   id="g684"
   i:knockout="Off"><g
   id="path643"
   i:knockout="Off"><path
   id="path686"
   i:isolated="yes"
   i:knockout="Off"
   opacity="3.320000e-002"
   fill="none"
   stroke="#000000"
   stroke-width="1.8112"
   stroke-linecap="round"
   enable-background="new    "
   d="       M13.8,30.6c5.8,6.1,19.5,2.9,22.9-4.7" /></g><path
   id="path639"
   fill="none"
   stroke="#795000"
   stroke-width="1.62"
   stroke-linecap="round"
   d="M13.8,30.6      c5.7,5.9,19.4,2.8,22.9-4.7" /><path
   id="path640"
   i:isolated="yes"
   i:knockout="Off"
   opacity="0.2"
   fill="none"
   stroke="#000000"
   stroke-width="3.1315"
   stroke-linecap="round"
   enable-background="new    "
   d="      M13.7,30.6c5.8,6.1,19.5,2.9,22.9-4.7" /></g><g
   id="g689"
   i:knockout="Off"><radialGradient
   id="path650_1_"
   cx="-338.1582"
   cy="0.4697"
   r="0.125"
   fx="-338.1582"
   fy="0.4697"
   gradientTransform="matrix(-47.7876 -1.2054 -1.8474 73.2392 -16146.5283 -423.6943)"
   gradientUnits="userSpaceOnUse"><stop
   offset="0"
   style="stop-color:#DEE2E7"
   id="stop691" /><stop
   offset="1"
   style="stop-color:#FFFFFF"
   id="stop692" /><a:midPointStop
   offset="0"
   style="stop-color:#DEE2E7"
   id="midPointStop693" /><a:midPointStop
   offset="0.5"
   style="stop-color:#DEE2E7"
   id="midPointStop694" /><a:midPointStop
   offset="1"
   style="stop-color:#FFFFFF"
   id="midPointStop695" /></radialGradient><path
   id="path650"
   fill="url(#path650_1_)"
   stroke="#7C3902"
   stroke-width="0.7722"
   d="M9.3,16.7c0.1-3.8,2.2-6.8,4.6-6.7      c2.5,0.1,4.4,3.2,4.3,7l0,0c-0.1,3.8-2.2,6.8-4.6,6.7C11.2,23.6,9.3,20.5,9.3,16.7L9.3,16.7z" /><g
   id="path651"
   i:knockout="Off"><path
   id="path698"
   i:isolated="yes"
   i:knockout="Off"
   opacity="3.790000e-002"
   fill="none"
   stroke="#000000"
   stroke-width="0.702"
   enable-background="new    "
   d="       M8.6,16.7c0.1-4.2,2.5-7.5,5.4-7.4c2.9,0.1,5.1,3.5,5,7.7l0,0c-0.1,4.2-2.5,7.5-5.4,7.4C10.8,24.4,8.5,20.9,8.6,16.7L8.6,16.7z       " /></g><g
   id="path652"
   i:knockout="Off"><path
   id="path701"
   i:isolated="yes"
   i:knockout="Off"
   opacity="1.420000e-002"
   fill="none"
   stroke="#000000"
   stroke-width="2.4411"
   enable-background="new    "
   d="       M8.6,16.7c0.1-4.2,2.5-7.5,5.4-7.4c2.9,0.1,5.1,3.5,5,7.7l0,0c-0.1,4.2-2.5,7.5-5.4,7.4C10.8,24.3,8.5,20.9,8.6,16.7L8.6,16.7z       " /></g><g
   id="path653"
   i:knockout="Off"><path
   id="path703"
   i:isolated="yes"
   i:knockout="Off"
   opacity="1.420000e-002"
   fill="none"
   stroke="#000000"
   stroke-width="1.5425"
   enable-background="new    "
   d="       M8.6,16.7c0.1-4.2,2.5-7.5,5.4-7.4c2.9,0.1,5.1,3.5,5,7.7l0,0c-0.1,4.2-2.5,7.5-5.4,7.4C10.8,24.3,8.5,20.9,8.6,16.7L8.6,16.7z       " /></g><g
   id="path654"
   i:knockout="Off"><path
   id="path705"
   i:isolated="yes"
   i:knockout="Off"
   opacity="1.420000e-002"
   fill="none"
   stroke="#000000"
   stroke-width="0.5313"
   enable-background="new    "
   d="       M8.6,16.7c0.1-4.2,2.5-7.5,5.4-7.4c2.9,0.1,5.1,3.5,5,7.7l0,0c-0.1,4.2-2.5,7.5-5.4,7.4C10.8,24.3,8.5,20.9,8.6,16.7L8.6,16.7z       " /></g><g
   id="path655"
   i:knockout="Off"><path
   id="path707"
   i:isolated="yes"
   i:knockout="Off"
   opacity="0.1517"
   fill="none"
   stroke="#000000"
   stroke-width="0.2671"
   enable-background="new    "
   d="       M8.8,16.7c0.1-4.1,2.4-7.4,5.2-7.3s4.9,3.4,4.8,7.5l0,0c-0.1,4.1-2.4,7.4-5.2,7.3C10.8,24.1,8.7,20.8,8.8,16.7L8.8,16.7z" /></g><radialGradient
   id="path656_1_"
   cx="-336.4248"
   cy="0.7344"
   r="0.1158"
   fx="-336.4248"
   fy="0.7344"
   gradientTransform="matrix(-19.9022 -0.502 -0.5896 23.3769 -6679.7744 -173.2411)"
   gradientUnits="userSpaceOnUse"><stop
   offset="0"
   style="stop-color:#000082"
   id="stop708" /><stop
   offset="1"
   style="stop-color:#000000"
   id="stop709" /><a:midPointStop
   offset="0"
   style="stop-color:#000082"
   id="midPointStop710" /><a:midPointStop
   offset="0.5"
   style="stop-color:#000082"
   id="midPointStop711" /><a:midPointStop
   offset="1"
   style="stop-color:#000000"
   id="midPointStop712" /></radialGradient><path
   id="path656"
   fill="url(#path656_1_)"
   d="M12.8,13.9c0-1.2,0.9-2.2,1.9-2.1c1,0,1.8,1,1.8,2.2l0,0c0,1.2-0.9,2.2-1.9,2.1      S12.8,15.1,12.8,13.9L12.8,13.9z" /></g></g></svg>
