<?xml version="1.0" encoding="UTF-8" standalone="no"?>
<!DOCTYPE svg PUBLIC "-//W3C//DTD SVG 20010904//EN"
"http://www.w3.org/TR/2001/REC-SVG-20010904/DTD/svg10.dtd">
<!-- Created with Sodipodi ("http://www.sodipodi.com/") -->
<svg
   xmlns:x="http://ns.adobe.com/Extensibility/1.0/"
   xmlns:i="http://ns.adobe.com/AdobeIllustrator/10.0/"
   xmlns:graph="http://ns.adobe.com/Graphs/1.0/"
   xmlns="http://www.w3.org/2000/svg"
   xmlns:xlink="http://www.w3.org/1999/xlink"
   xmlns:a="http://ns.adobe.com/AdobeSVGViewerExtensions/3.0/"
   xml:space="preserve"
   i:viewOrigin="169.9258 427.6289"
   i:rulerOrigin="0 0"
   i:pageBounds="0 792 612 0"
   width="48"
   height="48.7"
   viewBox="0 0 48 48.7"
   overflow="visible"
   enable-background="new 0 0 48 48.7"
   xmlns:sodipodi="http://sodipodi.sourceforge.net/DTD/sodipodi-0.dtd"
   id="svg602"
   sodipodi:version="0.34"
   sodipodi:docname="C:\msys\home\su_blanc\mldonkey-2.5.12\src\gtk2\rsvg\emoticons\emoticon_asl.svg"><defs
   id="defs663" /><sodipodi:namedview
   id="base" /><g
   id="Layer_1"
   i:knockout="Off"
   i:layer="yes"
   i:dimmedPercent="50"
   i:rgbTrio="#4F008000FFFF"><g
   id="g606"><path
   id="path597_5_"
   i:isolated="yes"
   i:knockout="Off"
   opacity="0.15"
   fill="none"
   stroke="#474000"
   stroke-width="1.8818"
   enable-background="new    "
   d="      M5.6,20.2c0-10.7,8-19.3,17.8-19.3c9.8,0,18.4,8.1,18.4,18.7c0,10.7-8.6,19.9-18.4,19.9C13.6,39.5,5.6,30.9,5.6,20.2z" /><path
   id="path597_4_"
   i:isolated="yes"
   i:knockout="Off"
   opacity="0.2"
   fill="none"
   stroke="#474000"
   stroke-width="0.9409"
   enable-background="new    "
   d="      M5.6,20.2c0-10.7,8-19.3,17.8-19.3c9.8,0,18.4,8.1,18.4,18.7c0,10.7-8.6,19.9-18.4,19.9C13.6,39.5,5.6,30.9,5.6,20.2z" /><path
   id="path597_3_"
   i:isolated="yes"
   i:knockout="Off"
   opacity="0.3"
   fill="none"
   stroke="#474000"
   stroke-width="0.4704"
   enable-background="new    "
   d="      M5.6,20.2c0-10.7,8-19.3,17.8-19.3c9.8,0,18.4,8.1,18.4,18.7c0,10.7-8.6,19.9-18.4,19.9C13.6,39.5,5.6,30.9,5.6,20.2z" /><radialGradient
   id="path700_1_"
   cx="-339.7202"
   cy="-0.7817"
   r="6.407402e-002"
   fx="-339.7202"
   fy="-0.7817"
   gradientTransform="matrix(310.7065 0 0 144.1183 105578.2188 155.2078)"
   gradientUnits="userSpaceOnUse"><stop
   offset="0"
   style="stop-color:#261700"
   id="stop611" /><stop
   offset="1"
   style="stop-color:#D2D2D2"
   id="stop612" /><a:midPointStop
   offset="0"
   style="stop-color:#261700"
   id="midPointStop613" /><a:midPointStop
   offset="0.5"
   style="stop-color:#261700"
   id="midPointStop614" /><a:midPointStop
   offset="1"
   style="stop-color:#D2D2D2"
   id="midPointStop615" /></radialGradient><path
   id="path700"
   i:isolated="yes"
   i:knockout="Off"
   opacity="0.3"
   fill="url(#path700_1_)"
   enable-background="new    "
   d="      M37.9,31.8c6.5,4.5,6,10.6-1.9,14.3c-7.9,3.7-19.5,3.1-25.9-1.5c-5.5-3.8-5.7-9.1-0.5-13.1c3.4,4.7,6.2,6.3,14,7.3      C30.1,38.7,34.3,35.8,37.9,31.8z" /><radialGradient
   id="path577_1_"
   cx="-298.6445"
   cy="42.7305"
   r="41.5567"
   fx="-298.6445"
   fy="42.7305"
   gradientTransform="matrix(298.9032 0 0 316.3969 101568.6563 -85.5551)"
   gradientUnits="userSpaceOnUse"><stop
   offset="0"
   style="stop-color:#FF6F00"
   id="stop618" /><stop
   offset="1"
   style="stop-color:#FFFF00"
   id="stop619" /><a:midPointStop
   offset="0"
   style="stop-color:#FF6F00"
   id="midPointStop620" /><a:midPointStop
   offset="0.5"
   style="stop-color:#FF6F00"
   id="midPointStop621" /><a:midPointStop
   offset="1"
   style="stop-color:#FFFF00"
   id="midPointStop622" /></radialGradient><circle
   id="path577"
   fill="url(#path577_1_)"
   cx="23.9"
   cy="20.4"
   r="17.8" /><linearGradient
   id="path597_1_"
   gradientUnits="userSpaceOnUse"
   x1="-339.7139"
   y1="0.2778"
   x2="-339.7153"
   y2="0.3965"
   gradientTransform="matrix(303.6933 0 0 316.3967 103192.7969 -85.2919)"><stop
   offset="0"
   style="stop-color:#FF6500"
   id="stop625" /><stop
   offset="1"
   style="stop-color:#FFFF00"
   id="stop626" /><a:midPointStop
   offset="0"
   style="stop-color:#FF6500"
   id="midPointStop627" /><a:midPointStop
   offset="0.5"
   style="stop-color:#FF6500"
   id="midPointStop628" /><a:midPointStop
   offset="1"
   style="stop-color:#FFFF00"
   id="midPointStop629" /></linearGradient><path
   id="path597"
   i:isolated="yes"
   i:knockout="Off"
   opacity="0.75"
   fill="url(#path597_1_)"
   enable-background="new    "
   d="      M5.6,20.2c0-10.7,8-19.3,17.8-19.3c9.9,0,18.4,8,18.4,18.7c0,10.7-8.6,19.9-18.4,19.9C13.6,39.5,5.6,30.9,5.6,20.2z" /><rect
   id="rect662"
   y="0.7"
   i:knockout="Off"
   fill="none"
   width="48"
   height="48" /><g
   i:knockout="Off"
   id="g632"><path
   i:knockout="Off"
   d="M26.7,25.7h-6.1v-7.3h1.8c1.3,0,2.3-0.3,3-0.8s1-1.3,1-2.3c0-0.8-0.3-1.5-0.8-2s-1.2-0.8-1.9-0.8       c-0.8,0-1.5,0.2-1.9,0.7c-0.5,0.4-0.7,1.1-0.8,1.9h-6v-0.1c0-2.3,0.8-4.1,2.4-5.5c1.6-1.4,3.8-2,6.5-2c2.5,0,4.5,0.7,6,2.2       c1.5,1.4,2.3,3.3,2.3,5.7c0,2-0.5,3.6-1.6,4.8c-1,1.2-2.4,1.9-4.1,1.9L26.7,25.7z M19.9,31.5c0-1,0.3-1.8,1-2.5s1.5-1,2.5-1       c1,0,1.9,0.3,2.5,1s1,1.5,1,2.5s-0.3,1.9-1,2.5c-0.7,0.7-1.5,1-2.5,1c-1,0-1.8-0.3-2.5-1C20.2,33.3,19.9,32.5,19.9,31.5z"
   id="path633" /></g><radialGradient
   id="path597_6_"
   cx="-146.5547"
   cy="426.7051"
   r="20.2352"
   fx="-146.5547"
   fy="426.7051"
   gradientTransform="matrix(1 0 0 -1 169.9258 427.5703)"
   gradientUnits="userSpaceOnUse"><stop
   offset="0"
   style="stop-color:#FFFFFF"
   id="stop635" /><stop
   offset="0.1046"
   style="stop-color:#FFFEFA"
   id="stop636" /><stop
   offset="0.2282"
   style="stop-color:#FFFBEC"
   id="stop637" /><stop
   offset="0.3616"
   style="stop-color:#FFF7D4"
   id="stop638" /><stop
   offset="0.5018"
   style="stop-color:#FFF1B2"
   id="stop639" /><stop
   offset="0.6474"
   style="stop-color:#FFE988"
   id="stop640" /><stop
   offset="0.7976"
   style="stop-color:#FFDF53"
   id="stop641" /><stop
   offset="0.9487"
   style="stop-color:#FFD316"
   id="stop642" /><stop
   offset="1"
   style="stop-color:#FFCF00"
   id="stop643" /><a:midPointStop
   offset="0"
   style="stop-color:#FFFFFF"
   id="midPointStop644" /><a:midPointStop
   offset="0.5"
   style="stop-color:#FFFFFF"
   id="midPointStop645" /><a:midPointStop
   offset="0.1046"
   style="stop-color:#FFFEFA"
   id="midPointStop646" /><a:midPointStop
   offset="0.5"
   style="stop-color:#FFFEFA"
   id="midPointStop647" /><a:midPointStop
   offset="0.2282"
   style="stop-color:#FFFBEC"
   id="midPointStop648" /><a:midPointStop
   offset="0.5"
   style="stop-color:#FFFBEC"
   id="midPointStop649" /><a:midPointStop
   offset="0.3616"
   style="stop-color:#FFF7D4"
   id="midPointStop650" /><a:midPointStop
   offset="0.5"
   style="stop-color:#FFF7D4"
   id="midPointStop651" /><a:midPointStop
   offset="0.5018"
   style="stop-color:#FFF1B2"
   id="midPointStop652" /><a:midPointStop
   offset="0.5"
   style="stop-color:#FFF1B2"
   id="midPointStop653" /><a:midPointStop
   offset="0.6474"
   style="stop-color:#FFE988"
   id="midPointStop654" /><a:midPointStop
   offset="0.5"
   style="stop-color:#FFE988"
   id="midPointStop655" /><a:midPointStop
   offset="0.7976"
   style="stop-color:#FFDF53"
   id="midPointStop656" /><a:midPointStop
   offset="0.5"
   style="stop-color:#FFDF53"
   id="midPointStop657" /><a:midPointStop
   offset="0.9487"
   style="stop-color:#FFD316"
   id="midPointStop658" /><a:midPointStop
   offset="0.5"
   style="stop-color:#FFD316"
   id="midPointStop659" /><a:midPointStop
   offset="1"
   style="stop-color:#FFCF00"
   id="midPointStop660" /></radialGradient><path
   id="path597_2_"
   i:isolated="yes"
   i:knockout="Off"
   opacity="0.75"
   fill="url(#path597_6_)"
   enable-background="new    "
   d="      M12.2,7.8c0-3.8,5-6.9,11.1-6.9c6.1,0,11.4,2.9,11.4,6.7C34.7,11.4,12.2,11.6,12.2,7.8z" /></g></g></svg>
