<?xml version="1.0" encoding="UTF-8" standalone="no"?>
<!DOCTYPE svg PUBLIC "-//W3C//DTD SVG 20010904//EN"
"http://www.w3.org/TR/2001/REC-SVG-20010904/DTD/svg10.dtd">
<!-- Created with Sodipodi ("http://www.sodipodi.com/") -->
<svg
   xmlns:x="http://ns.adobe.com/Extensibility/1.0/"
   xmlns:i="http://ns.adobe.com/AdobeIllustrator/10.0/"
   xmlns:graph="http://ns.adobe.com/Graphs/1.0/"
   xmlns="http://www.w3.org/2000/svg"
   xmlns:xlink="http://www.w3.org/1999/xlink"
   xmlns:a="http://ns.adobe.com/AdobeSVGViewerExtensions/3.0/"
   xml:space="preserve"
   i:viewOrigin="203.021 461.354"
   i:rulerOrigin="0 0"
   i:pageBounds="0 792 612 0"
   width="54.1"
   height="54.3"
   viewBox="0 0 54.1 54.3"
   overflow="visible"
   enable-background="new 0 0 54.1 54.3"
   xmlns:sodipodi="http://sodipodi.sourceforge.net/DTD/sodipodi-0.dtd"
   id="svg602"
   sodipodi:version="0.34"
   sodipodi:docname="C:\msys\home\su_blanc\mldonkey-2.5.12\src\gtk2\rsvg\emoticons\emoticon_thumbs_down.svg"><defs
   id="defs656" /><sodipodi:namedview
   id="namedview655" /><g
   id="Layer_1"
   i:layer="yes"
   i:dimmedPercent="50"
   i:rgbTrio="#4F008000FFFF"><g
   id="g606"><g
   id="g607"><g
   id="path592"
   nodetypes="ccccccccccccc"><path
   i:knockout="Off"
   opacity="4.270000e-002"
   fill="none"
   stroke="#140000"
   stroke-width="1.6741"
   stroke-linejoin="round"
   d="        M12.6,3.3C17,9.1,22,14.5,27.1,20c5.1-5.2,10.3-11,14.3-16.6c3,3.3,6.4,6.4,9.4,9.7c-4.3,5.5-9.2,11.3-14,16.3        c4.3,4.4,9,8.3,14.1,12.1c-3.2,3.3-6.3,6.2-9.5,9.5c-5.2-3.8-9.6-7.5-14.2-11.8c-4.6,4.1-9.3,8.8-14.3,11.8        c-3.2-3.2-6.2-6.2-9.4-9.5c5-3.7,9.5-7.7,14.1-12.1C12.2,24,7.6,18.6,3.3,13.1C6.4,9.8,9.6,6.7,12.6,3.3z"
   id="path609" /></g><g
   id="path591"
   nodetypes="ccccccccccccc"><path
   i:knockout="Off"
   opacity="4.270000e-002"
   fill="none"
   stroke="#140000"
   stroke-width="2.0089"
   stroke-linejoin="round"
   d="        M12.6,3.3C17,9.1,22,14.5,27.1,20c5.1-5.2,10.3-11,14.3-16.6c3,3.3,6.4,6.4,9.4,9.7c-4.3,5.5-9.2,11.3-14,16.3        c4.3,4.4,9,8.3,14.1,12.1c-3.2,3.3-6.3,6.2-9.5,9.5c-5.2-3.8-9.6-7.5-14.2-11.8c-4.6,4.1-9.3,8.8-14.3,11.8        c-3.2-3.2-6.2-6.2-9.4-9.5c5-3.7,9.5-7.7,14.1-12.1C12.2,24,7.6,18.6,3.3,13.1C6.4,9.8,9.6,6.7,12.6,3.3z"
   id="path611" /></g><g
   id="path590"
   nodetypes="ccccccccccccc"><path
   i:knockout="Off"
   opacity="4.270000e-002"
   fill="none"
   stroke="#140000"
   stroke-width="2.5111"
   stroke-linejoin="round"
   d="        M12.6,3.3C17,9.1,22,14.5,27.1,20c5.1-5.2,10.3-11,14.3-16.6c3,3.3,6.4,6.4,9.4,9.7c-4.3,5.5-9.2,11.3-14,16.3        c4.3,4.4,9,8.3,14.1,12.1c-3.2,3.3-6.3,6.2-9.5,9.5c-5.2-3.8-9.6-7.5-14.2-11.8c-4.6,4.1-9.3,8.8-14.3,11.8        c-3.2-3.2-6.2-6.2-9.4-9.5c5-3.7,9.5-7.7,14.1-12.1C12.2,24,7.6,18.6,3.3,13.1C6.4,9.8,9.6,6.7,12.6,3.3z"
   id="path613" /></g><g
   id="path589"
   nodetypes="ccccccccccccc"><path
   i:knockout="Off"
   opacity="4.270000e-002"
   fill="none"
   stroke="#140000"
   stroke-width="3.0133"
   stroke-linejoin="round"
   d="        M12.6,3.3C17,9.1,22,14.5,27.1,20c5.1-5.2,10.3-11,14.3-16.6c3,3.3,6.4,6.4,9.4,9.7c-4.3,5.5-9.2,11.3-14,16.3        c4.3,4.4,9,8.3,14.1,12.1c-3.2,3.3-6.3,6.2-9.5,9.5c-5.2-3.8-9.6-7.5-14.2-11.8c-4.6,4.1-9.3,8.8-14.3,11.8        c-3.2-3.2-6.2-6.2-9.4-9.5c5-3.7,9.5-7.7,14.1-12.1C12.2,24,7.6,18.6,3.3,13.1C6.4,9.8,9.6,6.7,12.6,3.3z"
   id="path615" /></g><g
   id="path588"
   nodetypes="ccccccccccccc"><path
   i:knockout="Off"
   opacity="4.270000e-002"
   fill="none"
   stroke="#140000"
   stroke-width="3.3482"
   stroke-linejoin="round"
   d="        M12.6,3.3C17,9.1,22,14.5,27.1,20c5.1-5.2,10.3-11,14.3-16.6c3,3.3,6.4,6.4,9.4,9.7c-4.3,5.5-9.2,11.3-14,16.3        c4.3,4.4,9,8.3,14.1,12.1c-3.2,3.3-6.3,6.2-9.5,9.5c-5.2-3.8-9.6-7.5-14.2-11.8c-4.6,4.1-9.3,8.8-14.3,11.8        c-3.2-3.2-6.2-6.2-9.4-9.5c5-3.7,9.5-7.7,14.1-12.1C12.2,24,7.6,18.6,3.3,13.1C6.4,9.8,9.6,6.7,12.6,3.3z"
   id="path617" /></g><g
   id="path587"
   nodetypes="ccccccccccccc"><path
   i:knockout="Off"
   opacity="4.270000e-002"
   fill="none"
   stroke="#140000"
   stroke-width="4.1852"
   stroke-linejoin="round"
   d="        M12.6,3.3C17,9.1,22,14.5,27.1,20c5.1-5.2,10.3-11,14.3-16.6c3,3.3,6.4,6.4,9.4,9.7c-4.3,5.5-9.2,11.3-14,16.3        c4.3,4.4,9,8.3,14.1,12.1c-3.2,3.3-6.3,6.2-9.5,9.5c-5.2-3.8-9.6-7.5-14.2-11.8c-4.6,4.1-9.3,8.8-14.3,11.8        c-3.2-3.2-6.2-6.2-9.4-9.5c5-3.7,9.5-7.7,14.1-12.1C12.2,24,7.6,18.6,3.3,13.1C6.4,9.8,9.6,6.7,12.6,3.3z"
   id="path619" /></g><g
   id="path586"
   nodetypes="ccccccccccccc"><path
   i:knockout="Off"
   opacity="4.270000e-002"
   fill="none"
   stroke="#140000"
   stroke-width="5.0222"
   stroke-linejoin="round"
   d="        M12.6,3.3C17,9.1,22,14.5,27.1,20c5.1-5.2,10.3-11,14.3-16.6c3,3.3,6.4,6.4,9.4,9.7c-4.3,5.5-9.2,11.3-14,16.3        c4.3,4.4,9,8.3,14.1,12.1c-3.2,3.3-6.3,6.2-9.5,9.5c-5.2-3.8-9.6-7.5-14.2-11.8c-4.6,4.1-9.3,8.8-14.3,11.8        c-3.2-3.2-6.2-6.2-9.4-9.5c5-3.7,9.5-7.7,14.1-12.1C12.2,24,7.6,18.6,3.3,13.1C6.4,9.8,9.6,6.7,12.6,3.3z"
   id="path621" /></g><g
   id="path585"
   nodetypes="ccccccccccccc"><path
   i:knockout="Off"
   opacity="4.270000e-002"
   fill="none"
   stroke="#140000"
   stroke-width="5.8593"
   stroke-linejoin="round"
   d="        M12.6,3.3C17,9.1,22,14.5,27.1,20c5.1-5.2,10.3-11,14.3-16.6c3,3.3,6.4,6.4,9.4,9.7c-4.3,5.5-9.2,11.3-14,16.3        c4.3,4.4,9,8.3,14.1,12.1c-3.2,3.3-6.3,6.2-9.5,9.5c-5.2-3.8-9.6-7.5-14.2-11.8c-4.6,4.1-9.3,8.8-14.3,11.8        c-3.2-3.2-6.2-6.2-9.4-9.5c5-3.7,9.5-7.7,14.1-12.1C12.2,24,7.6,18.6,3.3,13.1C6.4,9.8,9.6,6.7,12.6,3.3z"
   id="path623" /></g><g
   id="path584"
   nodetypes="ccccccccccccc"><path
   i:knockout="Off"
   opacity="4.270000e-002"
   fill="none"
   stroke="#140000"
   stroke-width="6.6963"
   stroke-linejoin="round"
   d="        M12.6,3.3C17,9.1,22,14.5,27.1,20c5.1-5.2,10.3-11,14.3-16.6c3,3.3,6.4,6.4,9.4,9.7c-4.3,5.5-9.2,11.3-14,16.3        c4.3,4.4,9,8.3,14.1,12.1c-3.2,3.3-6.3,6.2-9.5,9.5c-5.2-3.8-9.6-7.5-14.2-11.8c-4.6,4.1-9.3,8.8-14.3,11.8        c-3.2-3.2-6.2-6.2-9.4-9.5c5-3.7,9.5-7.7,14.1-12.1C12.2,24,7.6,18.6,3.3,13.1C6.4,9.8,9.6,6.7,12.6,3.3z"
   id="path625" /></g><linearGradient
   id="path617_1_"
   gradientUnits="userSpaceOnUse"
   x1="-202.7363"
   y1="460.9048"
   x2="-202.7363"
   y2="461.0148"
   gradientTransform="matrix(354.121 0 0 -355.3172 71820.3281 163815.3281)"><stop
   offset="0"
   style="stop-color:#C50000"
   id="stop627" /><stop
   offset="1"
   style="stop-color:#A20000"
   id="stop628" /><a:midPointStop
   offset="0"
   style="stop-color:#C50000"
   id="midPointStop629" /><a:midPointStop
   offset="0.5"
   style="stop-color:#C50000"
   id="midPointStop630" /><a:midPointStop
   offset="1"
   style="stop-color:#A20000"
   id="midPointStop631" /></linearGradient><path
   id="path632"
   nodetypes="ccccccccccccc"
   fill="url(#path617_1_)"
   stroke="#4A0000"
   stroke-width="1.0212"
   stroke-linejoin="round"
   d="       M12.6,3.3C17,9.1,22,14.5,27.1,20c5.1-5.2,10.3-11,14.3-16.6c3,3.3,6.4,6.4,9.4,9.7c-4.3,5.5-9.2,11.3-14,16.3       c4.3,4.4,9,8.3,14.1,12.1c-3.2,3.3-6.3,6.2-9.5,9.5c-5.2-3.8-9.6-7.5-14.2-11.8c-4.6,4.1-9.3,8.8-14.3,11.8       c-3.2-3.2-6.2-6.2-9.4-9.5c5-3.7,9.5-7.7,14.1-12.1C12.2,24,7.6,18.6,3.3,13.1C6.4,9.8,9.6,6.7,12.6,3.3z" /><radialGradient
   id="path581_1_"
   cx="-202.6553"
   cy="460.9019"
   r="0.1307"
   fx="-202.6553"
   fy="460.9019"
   gradientTransform="matrix(354.121 0 0 -355.3172 71820.3281 163815.3281)"
   gradientUnits="userSpaceOnUse"><stop
   offset="0"
   style="stop-color:#FFFFFF"
   id="stop634" /><stop
   offset="1"
   style="stop-color:#FF5B28"
   id="stop635" /><a:midPointStop
   offset="0"
   style="stop-color:#FFFFFF"
   id="midPointStop636" /><a:midPointStop
   offset="0.5"
   style="stop-color:#FFFFFF"
   id="midPointStop637" /><a:midPointStop
   offset="1"
   style="stop-color:#FF5B28"
   id="midPointStop638" /></radialGradient><path
   id="path581"
   nodetypes="ccccccccccccc"
   opacity="0.2"
   fill="url(#path581_1_)"
   stroke="#4A0000"
   stroke-width="1.0212"
   stroke-linejoin="round"
   d="       M12.6,3.3C17,9.1,22,14.5,27.1,20c5.1-5.2,10.3-11,14.3-16.6c3,3.3,6.4,6.4,9.4,9.7c-4.3,5.5-9.2,11.3-14,16.3       c4.3,4.4,9,8.3,14.1,12.1c-3.2,3.3-6.3,6.2-9.5,9.5c-5.2-3.8-9.6-7.5-14.2-11.8c-4.6,4.1-9.3,8.8-14.3,11.8       c-3.2-3.2-6.2-6.2-9.4-9.5c5-3.7,9.5-7.7,14.1-12.1C12.2,24,7.6,18.6,3.3,13.1C6.4,9.8,9.6,6.7,12.6,3.3z" /><radialGradient
   id="path594_1_"
   cx="-202.2959"
   cy="460.2388"
   r="0.4447"
   fx="-202.2959"
   fy="460.2388"
   gradientTransform="matrix(139.1681 0 0 -103.3038 28180.1699 47546.6641)"
   gradientUnits="userSpaceOnUse"><stop
   offset="0"
   style="stop-color:#FFFFFF"
   id="stop641" /><stop
   offset="1"
   style="stop-color:#FF2600"
   id="stop642" /><a:midPointStop
   offset="0"
   style="stop-color:#FFFFFF"
   id="midPointStop643" /><a:midPointStop
   offset="0.5"
   style="stop-color:#FFFFFF"
   id="midPointStop644" /><a:midPointStop
   offset="1"
   style="stop-color:#FF2600"
   id="midPointStop645" /></radialGradient><path
   id="path594"
   nodetypes="ccsccc"
   opacity="0.6"
   fill="url(#path594_1_)"
   d="M12.5,3.2l9.4,11.1       c-1.6,0.8-3.5,2.5-7.2,1.5c-1.4-0.4-5.8-1-7.7,1.3l-3.8-4.1L12.5,3.2z" /><radialGradient
   id="path593_1_"
   cx="-203.6978"
   cy="460.354"
   r="0.4447"
   fx="-203.6978"
   fy="460.354"
   gradientTransform="matrix(134.5577 0 0 -113.0244 27464.9277 52033.6602)"
   gradientUnits="userSpaceOnUse"><stop
   offset="0"
   style="stop-color:#FFFFFF"
   id="stop648" /><stop
   offset="1"
   style="stop-color:#FF5103"
   id="stop649" /><a:midPointStop
   offset="0"
   style="stop-color:#FFFFFF"
   id="midPointStop650" /><a:midPointStop
   offset="0.5"
   style="stop-color:#FFFFFF"
   id="midPointStop651" /><a:midPointStop
   offset="1"
   style="stop-color:#FF5103"
   id="midPointStop652" /></radialGradient><path
   id="path593"
   nodetypes="ccsccc"
   opacity="0.6"
   fill="url(#path593_1_)"
   d="M41.6,3.5l-8.8,10.7       c2,0.8,3.5,1.3,5.1,3.2c1.5,1.7,5.6,1.5,8.7,0.3l4.2-4.5L41.6,3.5z" /></g><rect
   x="3.1"
   y="3.1"
   i:knockout="Off"
   fill="none"
   width="48"
   height="48"
   id="rect654" /></g></g></svg>
