<?xml version="1.0" encoding="UTF-8" standalone="no"?>
<!DOCTYPE svg PUBLIC "-//W3C//DTD SVG 20010904//EN"
"http://www.w3.org/TR/2001/REC-SVG-20010904/DTD/svg10.dtd">
<!-- Created with Sodipodi ("http://www.sodipodi.com/") -->
<svg
   xmlns:x="http://ns.adobe.com/Extensibility/1.0/"
   xmlns:i="http://ns.adobe.com/AdobeIllustrator/10.0/"
   xmlns:graph="http://ns.adobe.com/Graphs/1.0/"
   xmlns="http://www.w3.org/2000/svg"
   xmlns:xlink="http://www.w3.org/1999/xlink"
   xmlns:a="http://ns.adobe.com/AdobeSVGViewerExtensions/3.0/"
   xml:space="preserve"
   i:viewOrigin="228.8276 447.0796"
   i:rulerOrigin="0 0"
   i:pageBounds="0 792 612 0"
   width="48.1"
   height="48"
   viewBox="0 0 48.1 48"
   overflow="visible"
   enable-background="new 0 0 48.1 48"
   xmlns:sodipodi="http://sodipodi.sourceforge.net/DTD/sodipodi-0.dtd"
   id="svg602"
   sodipodi:version="0.34"
   sodipodi:docname="C:\msys\home\su_blanc\mldonkey-2.5.12\src\gtk2\rsvg\emoticons\emoticon_ip.svg"><defs
   id="defs881" /><sodipodi:namedview
   id="namedview880" /><namedview
   id="base" /><g
   id="Layer_1"
   i:layer="yes"
   i:dimmedPercent="50"
   i:rgbTrio="#4F008000FFFF"><g
   id="g606"><radialGradient
   id="path563_1_"
   cx="-228.6494"
   cy="446.8335"
   r="2.783631e-002"
   fx="-228.6494"
   fy="446.8335"
   gradientTransform="matrix(219.4846 0 0 -524.4146 50210.0391 234355.875)"
   gradientUnits="userSpaceOnUse"><stop
   offset="0"
   style="stop-color:#8F0002"
   id="stop608" /><stop
   offset="1"
   style="stop-color:#8D3A0D"
   id="stop609" /><a:midPointStop
   offset="0"
   style="stop-color:#8F0002"
   id="midPointStop610" /><a:midPointStop
   offset="0.5"
   style="stop-color:#8F0002"
   id="midPointStop611" /><a:midPointStop
   offset="1"
   style="stop-color:#8D3A0D"
   id="midPointStop612" /></radialGradient><path
   id="path563"
   nodetypes="cssssss"
   fill="url(#path563_1_)"
   stroke="#B47000"
   stroke-width="0.5499"
   d="M19.4,40.8      c-1.6,2.2,0.3,5.2,2.1,3.8c3-2.1,7-8.2,8.6-13.1c1.5-4.5,1.1-10.8,0.5-15c-0.3-1.5-2.4-1.5-2.4,0c0,4,0.9,9-1.3,14.3      C25.4,34.9,21.7,37.6,19.4,40.8z" /><radialGradient
   id="path572_1_"
   cx="-228.6802"
   cy="446.8364"
   r="2.807723e-002"
   fx="-228.6802"
   fy="446.8364"
   gradientTransform="matrix(201.9999 0 0 -505.8171 46218.4883 226046.8281)"
   gradientUnits="userSpaceOnUse"><stop
   offset="0"
   style="stop-color:#8F0002"
   id="stop615" /><stop
   offset="1"
   style="stop-color:#8D3A0D"
   id="stop616" /><a:midPointStop
   offset="0"
   style="stop-color:#8F0002"
   id="midPointStop617" /><a:midPointStop
   offset="0.5"
   style="stop-color:#8F0002"
   id="midPointStop618" /><a:midPointStop
   offset="1"
   style="stop-color:#8D3A0D"
   id="midPointStop619" /></radialGradient><path
   id="path572"
   nodetypes="cssssss"
   fill="url(#path572_1_)"
   d="M20,40.9c-1.4,1.9-0.3,4.1,1.3,3      c2.9-2.2,6.7-7.8,8.3-12.6c1.5-4.5,1.4-10.5,0.6-14.7c-0.2-1.1-1.5-1.2-1.5-0.1c0.2,4,0.5,10.6-1.2,14.8      C25.9,34.9,22.2,37.6,20,40.9z" /><radialGradient
   id="path573_1_"
   cx="-228.7202"
   cy="446.8345"
   r="2.807723e-002"
   fx="-228.7202"
   fy="446.8345"
   gradientTransform="matrix(184.2494 0 0 -488.4845 42166.8359 218301.6563)"
   gradientUnits="userSpaceOnUse"><stop
   offset="0"
   style="stop-color:#8F0002"
   id="stop622" /><stop
   offset="1"
   style="stop-color:#8D3A0D"
   id="stop623" /><a:midPointStop
   offset="0"
   style="stop-color:#8F0002"
   id="midPointStop624" /><a:midPointStop
   offset="0.5"
   style="stop-color:#8F0002"
   id="midPointStop625" /><a:midPointStop
   offset="1"
   style="stop-color:#8D3A0D"
   id="midPointStop626" /></radialGradient><path
   id="path573"
   nodetypes="cssssss"
   fill="url(#path573_1_)"
   d="M20.6,41c-1.1,1.4-0.6,3,0.4,2.2      c3-2.2,6.5-7.3,8.1-12.2c1.5-4.5,1.5-10.3,0.8-14.5c-0.2-0.8-0.9-1-0.9-0.2c0.2,4,0.7,10.7-1,14.9C26.3,35,23,37.9,20.6,41z" /><g
   id="path615"
   nodetypes="ccccc"><radialGradient
   id="XMLID_1_"
   cx="-229.1353"
   cy="446.2622"
   r="3.780095e-002"
   fx="-229.1353"
   fy="446.2622"
   gradientTransform="matrix(216.9625 0 0 -143.1767 49737.9492 63917.7852)"
   gradientUnits="userSpaceOnUse"><stop
   offset="0"
   style="stop-color:#FFFFFF"
   id="stop630" /><stop
   offset="1"
   style="stop-color:#FFFFFF"
   id="stop631" /><a:midPointStop
   offset="0"
   style="stop-color:#FFFFFF"
   id="midPointStop632" /><a:midPointStop
   offset="0.5"
   style="stop-color:#FFFFFF"
   id="midPointStop633" /><a:midPointStop
   offset="1"
   style="stop-color:#FFFFFF"
   id="midPointStop634" /></radialGradient><path
   i:knockout="Off"
   opacity="0.673"
   fill="url(#XMLID_1_)"
   d="M28.8,14.8c0.2-0.6,0.7-1.4,0.8-2c-5.8-0.6-10.8,0.8-12.2,7.9       c2-5.4,6.1-6.9,11.4-6.1C28.8,14.9,29,15,28.8,14.8z"
   id="path635" /></g><radialGradient
   id="path616_1_"
   cx="-227.7607"
   cy="447.0454"
   r="2.832031e-002"
   fx="-227.7607"
   fy="447.0454"
   gradientTransform="matrix(194.8656 0 0 -393.2557 44396.9453 175836.4219)"
   gradientUnits="userSpaceOnUse"><stop
   offset="0"
   style="stop-color:#8F0002"
   id="stop637" /><stop
   offset="1"
   style="stop-color:#8D3A0D"
   id="stop638" /><a:midPointStop
   offset="0"
   style="stop-color:#8F0002"
   id="midPointStop639" /><a:midPointStop
   offset="0.5"
   style="stop-color:#8F0002"
   id="midPointStop640" /><a:midPointStop
   offset="1"
   style="stop-color:#8D3A0D"
   id="midPointStop641" /></radialGradient><path
   id="path616"
   nodetypes="cssssss"
   fill="url(#path616_1_)"
   stroke="#B47000"
   stroke-width="0.4487"
   d="M19.2,41.1      c1.4,1.7-0.3,3.9-1.9,2.8c-2.7-1.6-6.2-6.2-7.6-9.8c-1.3-3.4-1-8.1-0.4-11.3c0.3-1.1,2.1-1.1,2.1,0c0,3-0.8,6.7,1.1,10.7      C13.9,36.7,17.1,38.7,19.2,41.1z" /><radialGradient
   id="path617_1_"
   cx="-227.7085"
   cy="447.0542"
   r="2.807723e-002"
   fx="-227.7085"
   fy="447.0542"
   gradientTransform="matrix(179.342 0 0 -379.3096 40851.8359 169605.1094)"
   gradientUnits="userSpaceOnUse"><stop
   offset="0"
   style="stop-color:#8F0002"
   id="stop644" /><stop
   offset="1"
   style="stop-color:#8D3A0D"
   id="stop645" /><a:midPointStop
   offset="0"
   style="stop-color:#8F0002"
   id="midPointStop646" /><a:midPointStop
   offset="0.5"
   style="stop-color:#8F0002"
   id="midPointStop647" /><a:midPointStop
   offset="1"
   style="stop-color:#8D3A0D"
   id="midPointStop648" /></radialGradient><path
   id="path617"
   nodetypes="cssssss"
   fill="url(#path617_1_)"
   d="M18.7,41.2c1.2,1.5,0.2,3.1-1.2,2.3      c-2.6-1.7-6-5.8-7.3-9.5c-1.3-3.4-1.3-7.9-0.5-11c0.1-0.8,1.3-0.9,1.3-0.1c-0.1,3-0.4,7.9,1.1,11.1      C13.4,36.7,16.7,38.7,18.7,41.2z" /><radialGradient
   id="path618_1_"
   cx="-227.6421"
   cy="447.064"
   r="2.832031e-002"
   fx="-227.6421"
   fy="447.064"
   gradientTransform="matrix(163.5825 0 0 -366.312 37252.4141 163797.4531)"
   gradientUnits="userSpaceOnUse"><stop
   offset="0"
   style="stop-color:#8F0002"
   id="stop651" /><stop
   offset="1"
   style="stop-color:#8D3A0D"
   id="stop652" /><a:midPointStop
   offset="0"
   style="stop-color:#8F0002"
   id="midPointStop653" /><a:midPointStop
   offset="0.5"
   style="stop-color:#8F0002"
   id="midPointStop654" /><a:midPointStop
   offset="1"
   style="stop-color:#8D3A0D"
   id="midPointStop655" /></radialGradient><path
   id="path618"
   nodetypes="cssssss"
   fill="url(#path618_1_)"
   d="M18.2,41.3c0.9,1.1,0.6,2.2-0.4,1.7      c-2.6-1.6-5.8-5.5-7.2-9.1C9.3,30.5,9.3,26.2,9.9,23c0.1-0.6,0.8-0.7,0.8-0.2c-0.2,3-0.6,8,0.9,11.2C13,36.8,16,39,18.2,41.3z" /><g
   id="path619"
   nodetypes="ccccc"><path
   i:knockout="Off"
   opacity="0.891"
   fill="#00A800"
   d="M10.1,22.4c0.4,0.1,1.1,0.4,1.6,0.5c-0.4-5.6-2.2-10.1-7.8-10.3       c4.1,2,4.9,6.5,5.3,10.8C9,23.5,9.9,22.7,10.1,22.4z"
   id="path658" /><path
   i:knockout="Off"
   fill="none"
   stroke="#007600"
   stroke-width="0.429"
   stroke-linecap="round"
   stroke-linejoin="round"
   d="       M10.1,22.4c0.4,0.1,1.1,0.4,1.6,0.5c-0.4-5.6-2.2-10.1-7.8-10.3c4.1,2,4.9,6.5,5.3,10.8C9,23.5,9.9,22.7,10.1,22.4z"
   id="path659" /></g><linearGradient
   id="path620_1_"
   gradientUnits="userSpaceOnUse"
   x1="-223.2808"
   y1="444.2202"
   x2="-223.3331"
   y2="444.2735"
   gradientTransform="matrix(41.7132 0 0 -51.0406 9322.8828 22689.0977)"><stop
   offset="0"
   style="stop-color:#FFFFFF"
   id="stop661" /><stop
   offset="1"
   style="stop-color:#FFFFFF"
   id="stop662" /><a:midPointStop
   offset="0"
   style="stop-color:#FFFFFF"
   id="midPointStop663" /><a:midPointStop
   offset="0.5"
   style="stop-color:#FFFFFF"
   id="midPointStop664" /><a:midPointStop
   offset="1"
   style="stop-color:#FFFFFF"
   id="midPointStop665" /></linearGradient><path
   id="path620"
   nodetypes="cssss"
   fill="url(#path620_1_)"
   d="M8.6,14.2c-0.3-0.3-1.3-0.8-1.4-0.5      c-0.1,0.4,0.4,1.1,0.8,1.6c0.4,0.5,1.2,1.5,1.4,1.1C9.7,15.8,9,14.8,8.6,14.2z" /><g
   id="path621"
   nodetypes="ccccc"><radialGradient
   id="XMLID_2_"
   cx="-227.6733"
   cy="446.4243"
   r="3.669540e-002"
   fx="-227.6733"
   fy="446.4243"
   gradientTransform="matrix(137.8635 0 0 -182.2845 31398.5586 81401.5078)"
   gradientUnits="userSpaceOnUse"><stop
   offset="0"
   style="stop-color:#FFFFFF"
   id="stop669" /><stop
   offset="1"
   style="stop-color:#FFFFFF"
   id="stop670" /><a:midPointStop
   offset="0"
   style="stop-color:#FFFFFF"
   id="midPointStop671" /><a:midPointStop
   offset="0.5"
   style="stop-color:#FFFFFF"
   id="midPointStop672" /><a:midPointStop
   offset="1"
   style="stop-color:#FFFFFF"
   id="midPointStop673" /></radialGradient><path
   i:knockout="Off"
   opacity="0.673"
   fill="url(#XMLID_2_)"
   d="M10.1,22.4c0.4,0.1,1.1,0.4,1.6,0.5       c-0.4-5.6-2.2-10.1-7.8-10.3C8.3,13.6,10.1,17.3,10.1,22.4C10,22.5,9.9,22.7,10.1,22.4z"
   id="path674" /></g><g
   id="path622"
   nodetypes="ccccc"><path
   i:knockout="Off"
   opacity="0.673"
   fill="#009000"
   d="M10.4,22.4c0.3-0.3,0.9-0.7,1.2-1c-4-2.4-8.1-3.2-11.4,1.2       c3.7-2.3,7.2-0.8,10.3,1C10.5,23.8,10.5,22.7,10.4,22.4z"
   id="path676" /><path
   i:knockout="Off"
   fill="none"
   stroke="#007300"
   stroke-width="0.429"
   stroke-linecap="round"
   stroke-linejoin="round"
   d="       M10.4,22.4c0.3-0.3,0.9-0.7,1.2-1c-4-2.4-8.1-3.2-11.4,1.2c3.7-2.3,7.2-0.8,10.3,1C10.5,23.8,10.5,22.7,10.4,22.4z"
   id="path677" /></g><linearGradient
   id="path623_1_"
   gradientUnits="userSpaceOnUse"
   x1="-223.3394"
   y1="444.9077"
   x2="-223.3917"
   y2="444.961"
   gradientTransform="matrix(55.5488 0 0 -20.5987 12411.4453 9185.084)"><stop
   offset="0"
   style="stop-color:#FFFFFF"
   id="stop679" /><stop
   offset="1"
   style="stop-color:#FFFFFF"
   id="stop680" /><a:midPointStop
   offset="0"
   style="stop-color:#FFFFFF"
   id="midPointStop681" /><a:midPointStop
   offset="0.5"
   style="stop-color:#FFFFFF"
   id="midPointStop682" /><a:midPointStop
   offset="1"
   style="stop-color:#FFFFFF"
   id="midPointStop683" /></linearGradient><path
   id="path623"
   nodetypes="cssss"
   fill="url(#path623_1_)"
   d="M3.9,19.7c-0.4,0.1-1.3,0.7-1.2,0.9      c0.2,0.3,1,0.2,1.5,0.1c0.5-0.1,1.7-0.2,1.6-0.6C5.7,19.5,4.6,19.6,3.9,19.7z" /><g
   id="path624"
   nodetypes="ccccc"><radialGradient
   id="XMLID_3_"
   cx="-227.7339"
   cy="447.0903"
   r="3.751022e-002"
   fx="-227.7339"
   fy="447.0903"
   gradientTransform="matrix(202.5135 0 0 -55.9926 46126.0898 25059.3105)"
   gradientUnits="userSpaceOnUse"><stop
   offset="0"
   style="stop-color:#FFFFFF"
   id="stop687" /><stop
   offset="1"
   style="stop-color:#FFFFFF"
   id="stop688" /><a:midPointStop
   offset="0"
   style="stop-color:#FFFFFF"
   id="midPointStop689" /><a:midPointStop
   offset="0.5"
   style="stop-color:#FFFFFF"
   id="midPointStop690" /><a:midPointStop
   offset="1"
   style="stop-color:#FFFFFF"
   id="midPointStop691" /></radialGradient><path
   i:knockout="Off"
   opacity="0.673"
   fill="url(#XMLID_3_)"
   d="M10.4,22.4c0.3-0.3,0.9-0.7,1.2-1c-4-2.4-8.1-3.2-11.4,1.2       C3.3,19.6,6.8,19.9,10.4,22.4C10.3,22.5,10.5,22.7,10.4,22.4z"
   id="path692" /></g><g
   id="path625"
   nodetypes="ccccc"><path
   i:knockout="Off"
   opacity="0.673"
   fill="#009000"
   d="M10.8,22.4c0.1-0.5,0.5-1.1,0.6-1.6C6,20.6,1.5,22,1,27.8       c2.2-4,6.6-4.4,10.8-4.3C11.7,23.7,11.1,22.7,10.8,22.4z"
   id="path694" /><path
   i:knockout="Off"
   fill="none"
   stroke="#007E00"
   stroke-width="0.429"
   stroke-linecap="round"
   stroke-linejoin="round"
   d="       M10.8,22.4c0.1-0.5,0.5-1.1,0.6-1.6C6,20.6,1.5,22,1,27.8c2.2-4,6.6-4.4,10.8-4.3C11.7,23.7,11.1,22.7,10.8,22.4z"
   id="path695" /></g><linearGradient
   id="path626_1_"
   gradientUnits="userSpaceOnUse"
   x1="-222.7319"
   y1="447.1177"
   x2="-222.7841"
   y2="447.1708"
   gradientTransform="matrix(51.6335 0 0 -39.2404 11504.9219 17569.3301)"><stop
   offset="0"
   style="stop-color:#FFFFFF"
   id="stop697" /><stop
   offset="1"
   style="stop-color:#FFFFFF"
   id="stop698" /><a:midPointStop
   offset="0"
   style="stop-color:#FFFFFF"
   id="midPointStop699" /><a:midPointStop
   offset="0.5"
   style="stop-color:#FFFFFF"
   id="midPointStop700" /><a:midPointStop
   offset="1"
   style="stop-color:#FFFFFF"
   id="midPointStop701" /></linearGradient><path
   id="path626"
   nodetypes="cssss"
   fill="url(#path626_1_)"
   d="M2.8,23.2c-0.4,0.3-0.9,1.3-0.6,1.4      c0.4,0.2,1.1-0.3,1.6-0.6c0.5-0.3,1.5-1.1,1.2-1.4C4.4,22.1,3.4,22.7,2.8,23.2z" /><g
   id="path628"
   nodetypes="ccccc"><path
   i:knockout="Off"
   opacity="0.673"
   fill="#009000"
   d="M10.4,22.9c-0.2-0.5-0.3-1.3-0.5-1.7c-4.7,2.8-7.8,6.6-4.7,12       c-0.6-4.8,3-7.6,6.6-9.9C11.9,23.5,10.7,23,10.4,22.9z"
   id="path704" /><path
   i:knockout="Off"
   fill="none"
   stroke="#006D00"
   stroke-width="0.429"
   stroke-linecap="round"
   stroke-linejoin="round"
   d="       M10.4,22.9c-0.2-0.5-0.3-1.3-0.5-1.7c-4.7,2.8-7.8,6.6-4.7,12c-0.6-4.8,3-7.6,6.6-9.9C11.9,23.5,10.7,23,10.4,22.9z"
   id="path705" /></g><path
   id="path631"
   nodetypes="cssss"
   fill="url(#path626_1_)"
   d="M2.8,23.2c-0.4,0.3-0.9,1.3-0.6,1.4      c0.4,0.2,1.1-0.3,1.6-0.6c0.5-0.3,1.5-1.1,1.2-1.4C4.4,22.1,3.4,22.7,2.8,23.2z" /><g
   id="path633"
   nodetypes="ccccc"><path
   i:knockout="Off"
   opacity="0.7441"
   fill="#00B900"
   d="M11,21.2c-0.4-0.2-1.2-0.3-1.6-0.5c3.9-4.2,8.3-6.8,12.8-3.7       c-4.5-0.8-8.1,2.4-11.2,5.5C11.2,22.6,11,21.5,11,21.2z"
   id="path708" /><path
   i:knockout="Off"
   fill="none"
   stroke="#008300"
   stroke-width="0.429"
   stroke-linecap="round"
   stroke-linejoin="round"
   d="       M11,21.2c-0.4-0.2-1.2-0.3-1.6-0.5c3.9-4.2,8.3-6.8,12.8-3.7c-4.5-0.8-8.1,2.4-11.2,5.5C11.2,22.6,11,21.5,11,21.2z"
   id="path709" /></g><linearGradient
   id="path634_1_"
   gradientUnits="userSpaceOnUse"
   x1="-227.3501"
   y1="442.856"
   x2="-227.4025"
   y2="442.9092"
   gradientTransform="matrix(62.5153 0 0 -26.9168 14231.082 11937.0508)"><stop
   offset="0"
   style="stop-color:#FFFFFF"
   id="stop711" /><stop
   offset="1"
   style="stop-color:#FFFFFF"
   id="stop712" /><a:midPointStop
   offset="0"
   style="stop-color:#FFFFFF"
   id="midPointStop713" /><a:midPointStop
   offset="0.5"
   style="stop-color:#FFFFFF"
   id="midPointStop714" /><a:midPointStop
   offset="1"
   style="stop-color:#FFFFFF"
   id="midPointStop715" /></linearGradient><path
   id="path634"
   nodetypes="cssss"
   fill="url(#path634_1_)"
   d="M17.5,15.5c0.5-0.1,1.6,0.1,1.5,0.4      c-0.1,0.4-1.1,0.7-1.6,0.8c-0.6,0.1-1.9,0.5-1.9,0.1C15.6,16.1,16.8,15.7,17.5,15.5z" /><g
   id="g717"
   nodetypes="ccccc"><radialGradient
   id="XMLID_4_"
   cx="-228.5308"
   cy="446.4292"
   r="3.754005e-002"
   fx="-228.5308"
   fy="446.4292"
   gradientTransform="matrix(227.3539 0 0 -102.5223 51973.3789 45793.0234)"
   gradientUnits="userSpaceOnUse"><stop
   offset="0"
   style="stop-color:#FFFFFF"
   id="stop719" /><stop
   offset="1"
   style="stop-color:#FFFFFF"
   id="stop720" /><a:midPointStop
   offset="0"
   style="stop-color:#FFFFFF"
   id="midPointStop721" /><a:midPointStop
   offset="0.5"
   style="stop-color:#FFFFFF"
   id="midPointStop722" /><a:midPointStop
   offset="1"
   style="stop-color:#FFFFFF"
   id="midPointStop723" /></radialGradient><path
   i:knockout="Off"
   opacity="0.673"
   fill="url(#XMLID_4_)"
   d="M11,21.2c-0.4-0.2-1.2-0.3-1.6-0.5c3.9-4.2,8.3-6.8,12.8-3.7       C18.1,15.2,14.4,17.1,11,21.2C11.1,21.3,11,21.5,11,21.2z"
   id="path724" /></g><g
   id="path636"
   nodetypes="ccccc"><path
   i:knockout="Off"
   opacity="0.8199"
   fill="#00AC00"
   d="M11,23.1c0.2-0.4,0.3-1.2,0.5-1.6c4.6,4.1,7.5,8.6,4.3,13.3       c0.7-4.7-2.7-8.5-6.2-11.6C9.4,23.3,10.6,23.1,11,23.1z"
   id="path726" /><path
   i:knockout="Off"
   fill="none"
   stroke="#008B00"
   stroke-width="0.429"
   stroke-linecap="round"
   stroke-linejoin="round"
   d="       M11,23.1c0.2-0.4,0.3-1.2,0.5-1.6c4.6,4.1,7.5,8.6,4.3,13.3c0.7-4.7-2.7-8.5-6.2-11.6C9.4,23.3,10.6,23.1,11,23.1z"
   id="path727" /></g><g
   id="path638"
   nodetypes="ccccc"><radialGradient
   id="XMLID_5_"
   cx="-228.4297"
   cy="447.188"
   r="3.657658e-002"
   fx="-228.4297"
   fy="447.188"
   gradientTransform="matrix(112.2295 0 0 -236.2112 25654.3027 105667.9844)"
   gradientUnits="userSpaceOnUse"><stop
   offset="0"
   style="stop-color:#FFFFFF"
   id="stop730" /><stop
   offset="1"
   style="stop-color:#FFFFFF"
   id="stop731" /><a:midPointStop
   offset="0"
   style="stop-color:#FFFFFF"
   id="midPointStop732" /><a:midPointStop
   offset="0.5"
   style="stop-color:#FFFFFF"
   id="midPointStop733" /><a:midPointStop
   offset="1"
   style="stop-color:#FFFFFF"
   id="midPointStop734" /></radialGradient><path
   i:knockout="Off"
   opacity="0.673"
   fill="url(#XMLID_5_)"
   d="M11,23.1c0.2-0.4,0.3-1.2,0.5-1.6c4.6,4.1,7.5,8.6,4.3,13.3       C17.5,30.6,15.4,26.7,11,23.1C10.9,23.2,10.6,23.1,11,23.1z"
   id="path735" /></g><g
   id="path639"
   nodetypes="ccccc"><path
   i:knockout="Off"
   opacity="0.673"
   fill="#009000"
   d="M10.9,21.6c-0.2-0.4-0.6-1-0.8-1.5c5.1-0.5,9.6,0.6,10.9,5.9       c-2.6-3.7-6.9-3.8-10.8-3.5C10.1,22.8,10.7,21.8,10.9,21.6z"
   id="path737" /><path
   i:knockout="Off"
   fill="none"
   stroke="#008700"
   stroke-width="0.429"
   stroke-linecap="round"
   stroke-linejoin="round"
   d="       M10.9,21.6c-0.2-0.4-0.6-1-0.8-1.5c5.1-0.5,9.6,0.6,10.9,5.9c-2.6-3.7-6.9-3.8-10.8-3.5C10.1,22.8,10.7,21.8,10.9,21.6z"
   id="path738" /></g><linearGradient
   id="path640_1_"
   gradientUnits="userSpaceOnUse"
   x1="-227.3384"
   y1="446.5786"
   x2="-227.3907"
   y2="446.6319"
   gradientTransform="matrix(51.8084 0 0 -34.7558 11796.9043 15543.9902)"><stop
   offset="0"
   style="stop-color:#FFFFFF"
   id="stop740" /><stop
   offset="1"
   style="stop-color:#FFFFFF"
   id="stop741" /><a:midPointStop
   offset="0"
   style="stop-color:#FFFFFF"
   id="midPointStop742" /><a:midPointStop
   offset="0.5"
   style="stop-color:#FFFFFF"
   id="midPointStop743" /><a:midPointStop
   offset="1"
   style="stop-color:#FFFFFF"
   id="midPointStop744" /></linearGradient><path
   id="path640"
   nodetypes="cssss"
   fill="url(#path640_1_)"
   d="M18.5,21.9c0.4,0.2,1,1.2,0.7,1.3      c-0.3,0.2-1.1-0.2-1.5-0.5c-0.5-0.3-1.6-0.9-1.3-1.2C16.9,21,17.9,21.5,18.5,21.9z" /><g
   id="path643"
   nodetypes="cssssssssssssssssssssss"><path
   i:knockout="Off"
   opacity="3.320000e-002"
   d="M19.3,44.5c-2.7-0.2-3-5.3-2.5-8.5c0.2-1.6,4.8-5.3,4.7-5.8       c-0.1-0.4-4.6,3.3-5.1,2.8c-0.7-0.6-0.2-4.4,1.4-6c1.8-1.8,6.1-3.3,8.8-3.9c2.1-0.5,5.3-0.5,5.4,0.7c0.1,1.7-2.8,6.8-4.6,8.2       c-1.1,0.8-2.9-2.1-3.9-1.5c-1.1,0.6-2.2,3.6-2.4,5.2c-0.3,1.7-0.5,4.5,0.9,4.4c1.8,0,6.1-2.6,8.5-4.6c2.8-2.3,6.3-6.8,7-8.2       c0.3-0.6-3.3,2.6-3.9,2.4c-0.8-0.2-0.2-2.2-0.3-3.3c0,0,1.7-4.8,6-6.9c3.6-1.8,6.2,0.2,6.2,0.2c0.4,1.1,1.4,1.9,1.1,3.2       c-0.5,1.9-1.9,4.5-3.5,6.3c-0.8,0.9-3.4,2.1-3.8,1.8c-0.5-0.3,1.5-4.2,0.9-3.7c-1.4,1.3-3.8,6.8-6.9,9.3       C29.4,40.1,22.1,44.6,19.3,44.5z"
   id="path747" /></g><g
   id="path641"
   nodetypes="ccccc"><radialGradient
   id="XMLID_6_"
   cx="-228.5371"
   cy="447.1558"
   r="3.771329e-002"
   fx="-228.5371"
   fy="447.1558"
   gradientTransform="matrix(192.6263 0 0 -107.3676 44039.1172 48038.9883)"
   gradientUnits="userSpaceOnUse"><stop
   offset="0"
   style="stop-color:#FFFFFF"
   id="stop750" /><stop
   offset="1"
   style="stop-color:#FFFFFF"
   id="stop751" /><a:midPointStop
   offset="0"
   style="stop-color:#FFFFFF"
   id="midPointStop752" /><a:midPointStop
   offset="0.5"
   style="stop-color:#FFFFFF"
   id="midPointStop753" /><a:midPointStop
   offset="1"
   style="stop-color:#FFFFFF"
   id="midPointStop754" /></radialGradient><path
   i:knockout="Off"
   opacity="0.673"
   fill="url(#XMLID_6_)"
   d="M10.9,21.6c-0.2-0.4-0.6-1-0.8-1.5c5.1-0.5,9.6,0.6,10.9,5.9       C19.2,22.1,15.5,20.9,10.9,21.6C10.9,21.7,10.7,21.8,10.9,21.6z"
   id="path755" /></g><g
   id="path644"
   nodetypes="cssssssssssssssssssssss"><path
   i:knockout="Off"
   opacity="3.320000e-002"
   d="M18.8,45.1c-2.9-0.2-3.2-5.5-2.7-8.8c0.3-1.7,5.1-5.5,5-6.1       c-0.1-0.4-4.9,3.4-5.5,2.9c-0.8-0.6-0.2-4.6,1.5-6.2c1.9-1.8,6.5-3.4,9.4-4c2.2-0.5,5.6-0.5,5.7,0.8c0.2,1.8-3,7-4.9,8.5       c-1.1,0.9-3.1-2.1-4.1-1.5c-1.2,0.7-2.3,3.8-2.6,5.4c-0.3,1.7-0.5,4.6,1,4.6c1.9,0,6.5-2.7,9.1-4.7c3-2.4,6.7-7.1,7.5-8.5       c0.3-0.6-3.5,2.7-4.2,2.5c-0.8-0.2-0.2-2.3-0.4-3.4c0,0,1.8-5,6.4-7.1c3.9-1.9,6.6,0.2,6.6,0.2c0.4,1.1,1.5,2,1.2,3.4       c-0.5,1.9-2,4.7-3.8,6.5c-0.9,0.9-3.6,2.2-4,1.9c-0.6-0.4,1.6-4.4,1-3.8c-1.5,1.4-4.1,7.1-7.3,9.7       C29.6,40.5,21.8,45.2,18.8,45.1z"
   id="path757" /></g><g
   id="path645"
   nodetypes="cssssssssssssssssssssss"><path
   i:knockout="Off"
   opacity="3.320000e-002"
   d="M18.1,46.3c-2.9-0.2-3.3-6-2.8-9.4c0.3-1.8,5.3-5.9,5.2-6.5       c-0.1-0.5-5.1,3.6-5.6,3.2c-0.8-0.7-0.2-5,1.5-6.7c2-2,6.7-3.7,9.7-4.3c2.3-0.5,5.8-0.5,5.9,0.8c0.2,1.9-3.1,7.6-5.1,9.1       c-1.2,0.9-3.1-2.3-4.3-1.6c-1.2,0.7-2.4,4-2.6,5.8c-0.3,1.9-0.5,5,1,5c1.9,0,6.7-2.9,9.4-5.1c3.1-2.6,6.9-7.6,7.7-9.1       c0.3-0.6-3.6,2.9-4.3,2.7c-0.8-0.2-0.3-2.4-0.4-3.7c0,0,1.9-5.3,6.6-7.7c4-2,6.8,0.3,6.8,0.3c0.4,1.2,1.6,2.2,1.2,3.6       c-0.5,2.1-2.1,5-3.9,7c-0.9,1-3.7,2.3-4.2,2c-0.6-0.4,1.7-4.7,1-4.1c-1.5,1.5-4.2,7.6-7.6,10.4C29.1,41.4,21.1,46.5,18.1,46.3z       "
   id="path759" /></g><g
   id="path646"
   nodetypes="cssssssssssssssssssssss"><path
   i:knockout="Off"
   opacity="3.320000e-002"
   d="M20.6,42.8c-2.5-0.1-2.8-4.8-2.4-7.6c0.2-1.5,4.5-4.7,4.4-5.3       c-0.1-0.4-4.4,2.9-4.8,2.5c-0.7-0.6-0.2-4,1.3-5.4c1.7-1.6,5.8-3,8.3-3.5c1.9-0.4,5-0.4,5.1,0.7c0.1,1.6-2.7,6.1-4.4,7.4       c-1,0.8-2.7-1.9-3.6-1.3c-1,0.6-2,3.3-2.3,4.6c-0.2,1.5-0.4,4,0.9,4c1.7,0,5.8-2.3,8-4.1c2.6-2.1,5.9-6.2,6.6-7.4       c0.3-0.5-3.1,2.3-3.7,2.2c-0.7-0.1-0.2-2-0.3-3c0,0,1.6-4.3,5.7-6.2c3.4-1.6,5.8,0.2,5.8,0.2c0.3,1,1.4,1.7,1,2.9       c-0.4,1.7-1.8,4.1-3.3,5.7c-0.8,0.8-3.2,1.9-3.6,1.6c-0.5-0.3,1.4-3.8,0.9-3.3c-1.3,1.2-3.6,6.2-6.5,8.4       C30.1,38.8,23.3,42.9,20.6,42.8z"
   id="path761" /></g><g
   id="path729"
   nodetypes="cssssssssssssssssssssss"><path
   i:knockout="Off"
   opacity="3.320000e-002"
   d="M20.5,42.8c-2.4-0.1-2.7-4.6-2.3-7.3c0.2-1.4,4.4-4.5,4.3-5       c-0.1-0.4-4.2,2.8-4.7,2.4c-0.7-0.5-0.2-3.8,1.3-5.1c1.7-1.5,5.6-2.8,8-3.3c1.9-0.4,4.8-0.4,4.9,0.6c0.1,1.5-2.6,5.8-4.2,7       c-1,0.7-2.6-1.8-3.5-1.3c-1,0.5-2,3.1-2.2,4.4c-0.2,1.4-0.4,3.8,0.9,3.8c1.6,0,5.6-2.2,7.8-3.9c2.6-2,5.8-5.9,6.4-7       c0.3-0.5-3,2.2-3.6,2.1c-0.7-0.1-0.2-1.9-0.3-2.8c0,0,1.5-4.1,5.5-5.9c3.3-1.5,5.6,0.2,5.6,0.2c0.3,0.9,1.3,1.7,1,2.8       c-0.4,1.6-1.7,3.9-3.2,5.4c-0.7,0.8-3.1,1.8-3.5,1.5c-0.5-0.3,1.4-3.6,0.8-3.1c-1.3,1.1-3.5,5.9-6.3,8       C29.7,39,23.1,42.9,20.5,42.8z"
   id="path763" /></g><g
   id="path730"
   nodetypes="cssssssssssssssssssssss"><path
   i:knockout="Off"
   opacity="3.320000e-002"
   d="M20.3,42.8c-2.2-0.1-2.5-4.3-2.1-6.8c0.2-1.3,3.9-4.2,3.9-4.7       c-0.1-0.3-3.8,2.6-4.2,2.3C17.2,33,17.7,30,19,28.7c1.5-1.4,5.1-2.7,7.3-3.1c1.7-0.4,4.4-0.4,4.4,0.6c0.1,1.4-2.4,5.5-3.8,6.6       c-0.9,0.7-2.4-1.7-3.2-1.2c-0.9,0.5-1.8,2.9-2,4.2c-0.2,1.3-0.4,3.6,0.8,3.6c1.5,0,5.1-2.1,7-3.7c2.3-1.8,5.2-5.5,5.8-6.6       c0.2-0.4-2.7,2.1-3.3,2c-0.6-0.1-0.2-1.8-0.3-2.7c0,0,1.4-3.9,5-5.5c3-1.4,5.1,0.2,5.1,0.2c0.3,0.9,1.2,1.6,0.9,2.6       c-0.4,1.5-1.6,3.6-2.9,5.1c-0.7,0.7-2.8,1.7-3.1,1.5c-0.4-0.3,1.2-3.4,0.8-3c-1.2,1.1-3.1,5.5-5.7,7.5       C28.6,39.2,22.6,42.9,20.3,42.8z"
   id="path765" /></g><g
   id="path731"
   nodetypes="cssssssssssssssssssssss"><path
   i:knockout="Off"
   opacity="3.320000e-002"
   d="M20.7,42.8c-2.5-0.2-2.8-5.4-2.4-8.6c0.2-1.7,4.5-5.3,4.5-5.9       c-0.1-0.4-4.4,3.3-4.9,2.9c-0.7-0.6-0.2-4.5,1.3-6.1c1.7-1.8,5.8-3.4,8.4-4c2-0.5,5-0.5,5.1,0.7c0.1,1.8-2.7,6.9-4.4,8.3       c-1,0.8-2.7-2.1-3.7-1.5c-1,0.6-2.1,3.7-2.3,5.2c-0.2,1.7-0.4,4.5,0.9,4.5c1.7,0,5.8-2.6,8.1-4.6c2.7-2.3,6-7,6.7-8.3       c0.3-0.6-3.1,2.6-3.8,2.5c-0.7-0.2-0.2-2.2-0.3-3.3c0,0,1.6-4.9,5.7-7c3.4-1.8,5.9,0.2,5.9,0.2c0.3,1.1,1.4,2,1,3.3       c-0.5,1.9-1.8,4.6-3.4,6.4c-0.8,0.9-3.2,2.1-3.6,1.8c-0.5-0.3,1.4-4.3,0.9-3.7c-1.3,1.4-3.6,7-6.5,9.5       C30.2,38.3,23.3,43,20.7,42.8z"
   id="path767" /></g><g
   id="path732"
   nodetypes="ccccc"><path
   i:knockout="Off"
   opacity="0.891"
   fill="#00A800"
   d="M29.3,14c-0.5,0.1-1.4,0.5-1.9,0.6c0.4-7,2.6-12.7,9.4-12.9       c-4.9,2.5-5.9,8.2-6.4,13.5C30.6,15.3,29.6,14.3,29.3,14z"
   id="path769" /><path
   i:knockout="Off"
   fill="none"
   stroke="#007600"
   stroke-width="0.5275"
   stroke-linecap="round"
   stroke-linejoin="round"
   d="       M29.3,14c-0.5,0.1-1.4,0.5-1.9,0.6c0.4-7,2.6-12.7,9.4-12.9c-4.9,2.5-5.9,8.2-6.4,13.5C30.6,15.3,29.6,14.3,29.3,14z"
   id="path770" /></g><linearGradient
   id="path733_1_"
   gradientUnits="userSpaceOnUse"
   x1="-231.8813"
   y1="441.9966"
   x2="-231.9338"
   y2="442.0499"
   gradientTransform="matrix(50.2114 0 0 -64.1212 11675.4961 28347.2344)"><stop
   offset="0"
   style="stop-color:#FFFFFF"
   id="stop772" /><stop
   offset="1"
   style="stop-color:#FFFFFF"
   id="stop773" /><a:midPointStop
   offset="0"
   style="stop-color:#FFFFFF"
   id="midPointStop774" /><a:midPointStop
   offset="0.5"
   style="stop-color:#FFFFFF"
   id="midPointStop775" /><a:midPointStop
   offset="1"
   style="stop-color:#FFFFFF"
   id="midPointStop776" /></linearGradient><path
   id="path733"
   nodetypes="cssss"
   fill="url(#path733_1_)"
   d="M31.2,3.7c0.3-0.4,1.6-1,1.7-0.7      c0.2,0.5-0.5,1.4-0.9,2c-0.4,0.6-1.5,1.9-1.7,1.4C29.8,5.7,30.6,4.4,31.2,3.7z" /><g
   id="path734"
   nodetypes="ccccc"><radialGradient
   id="XMLID_7_"
   cx="-230.2358"
   cy="445.7446"
   r="3.743107e-002"
   fx="-230.2358"
   fy="445.7446"
   gradientTransform="matrix(165.9503 0 0 -229.0001 38241.9453 102092.6875)"
   gradientUnits="userSpaceOnUse"><stop
   offset="0"
   style="stop-color:#FFFFFF"
   id="stop780" /><stop
   offset="1"
   style="stop-color:#FFFFFF"
   id="stop781" /><a:midPointStop
   offset="0"
   style="stop-color:#FFFFFF"
   id="midPointStop782" /><a:midPointStop
   offset="0.5"
   style="stop-color:#FFFFFF"
   id="midPointStop783" /><a:midPointStop
   offset="1"
   style="stop-color:#FFFFFF"
   id="midPointStop784" /></radialGradient><path
   i:knockout="Off"
   opacity="0.673"
   fill="url(#XMLID_7_)"
   d="M29.3,14c-0.5,0.1-1.4,0.5-1.9,0.6c0.4-7,2.6-12.7,9.4-12.9       c-5.2,1.2-7.4,5.8-7.5,12.3C29.5,14,29.6,14.3,29.3,14z"
   id="path785" /></g><g
   id="g786"
   nodetypes="ccccc"><path
   i:knockout="Off"
   opacity="0.673"
   fill="#009000"
   d="M29,14c-0.4-0.4-1.1-0.9-1.5-1.3c4.8-3,9.8-4,13.7,1.5       c-4.4-2.9-8.7-1-12.5,1.3C28.9,15.7,28.9,14.3,29,14z"
   id="path787" /><path
   i:knockout="Off"
   fill="none"
   stroke="#007300"
   stroke-width="0.5275"
   stroke-linecap="round"
   stroke-linejoin="round"
   d="       M29,14c-0.4-0.4-1.1-0.9-1.5-1.3c4.8-3,9.8-4,13.7,1.5c-4.4-2.9-8.7-1-12.5,1.3C28.9,15.7,28.9,14.3,29,14z"
   id="path788" /></g><linearGradient
   id="path736_1_"
   gradientUnits="userSpaceOnUse"
   x1="-232.1895"
   y1="439.4058"
   x2="-232.2418"
   y2="439.459"
   gradientTransform="matrix(66.8658 0 0 -25.8777 15562.9863 11382.4512)"><stop
   offset="0"
   style="stop-color:#FFFFFF"
   id="stop790" /><stop
   offset="1"
   style="stop-color:#FFFFFF"
   id="stop791" /><a:midPointStop
   offset="0"
   style="stop-color:#FFFFFF"
   id="midPointStop792" /><a:midPointStop
   offset="0.5"
   style="stop-color:#FFFFFF"
   id="midPointStop793" /><a:midPointStop
   offset="1"
   style="stop-color:#FFFFFF"
   id="midPointStop794" /></linearGradient><path
   id="path736"
   nodetypes="cssss"
   fill="url(#path736_1_)"
   d="M36.8,10.5c0.5,0.1,1.6,0.8,1.4,1.1      C38,12,37,11.9,36.3,11.8c-0.6-0.1-2.1-0.3-1.9-0.7C34.7,10.3,36,10.4,36.8,10.5z" /><g
   id="g796"
   nodetypes="ccccc"><radialGradient
   id="XMLID_8_"
   cx="-229.7949"
   cy="444.8813"
   r="3.761515e-002"
   fx="-229.7949"
   fy="444.8813"
   gradientTransform="matrix(243.7714 0 0 -70.3425 56051.4844 31311.1738)"
   gradientUnits="userSpaceOnUse"><stop
   offset="0"
   style="stop-color:#FFFFFF"
   id="stop798" /><stop
   offset="1"
   style="stop-color:#FFFFFF"
   id="stop799" /><a:midPointStop
   offset="0"
   style="stop-color:#FFFFFF"
   id="midPointStop800" /><a:midPointStop
   offset="0.5"
   style="stop-color:#FFFFFF"
   id="midPointStop801" /><a:midPointStop
   offset="1"
   style="stop-color:#FFFFFF"
   id="midPointStop802" /></radialGradient><path
   i:knockout="Off"
   opacity="0.673"
   fill="url(#XMLID_8_)"
   d="M29,14c-0.4-0.4-1.1-0.9-1.5-1.3c4.8-3,9.8-4,13.7,1.5       c-3.8-3.7-8-3.3-12.3-0.3C29.1,14.1,28.9,14.3,29,14z"
   id="path803" /></g><g
   id="g804"
   nodetypes="ccccc"><path
   i:knockout="Off"
   opacity="0.673"
   fill="#009000"
   d="M28.5,14c-0.1-0.6-0.6-1.4-0.7-2c6.5-0.3,11.9,1.5,12.6,8.7       c-2.6-5.1-8-5.5-12.9-5.4C27.4,15.5,28.2,14.3,28.5,14z"
   id="path805" /><path
   i:knockout="Off"
   fill="none"
   stroke="#007E00"
   stroke-width="0.5275"
   stroke-linecap="round"
   stroke-linejoin="round"
   d="       M28.5,14c-0.1-0.6-0.6-1.4-0.7-2c6.5-0.3,11.9,1.5,12.6,8.7c-2.6-5.1-8-5.5-12.9-5.4C27.4,15.5,28.2,14.3,28.5,14z"
   id="path806" /></g><linearGradient
   id="path739_1_"
   gradientUnits="userSpaceOnUse"
   x1="-232.7109"
   y1="444.231"
   x2="-232.7633"
   y2="444.2842"
   gradientTransform="matrix(62.1528 0 0 -49.2969 14501.9805 21915.3809)"><stop
   offset="0"
   style="stop-color:#FFFFFF"
   id="stop808" /><stop
   offset="1"
   style="stop-color:#FFFFFF"
   id="stop809" /><a:midPointStop
   offset="0"
   style="stop-color:#FFFFFF"
   id="midPointStop810" /><a:midPointStop
   offset="0.5"
   style="stop-color:#FFFFFF"
   id="midPointStop811" /><a:midPointStop
   offset="1"
   style="stop-color:#FFFFFF"
   id="midPointStop812" /></linearGradient><path
   id="path739"
   nodetypes="cssss"
   fill="url(#path739_1_)"
   d="M38.1,14.9c0.4,0.3,1,1.6,0.7,1.8      c-0.4,0.2-1.3-0.4-1.9-0.8c-0.6-0.4-1.9-1.4-1.4-1.7C36.2,13.6,37.4,14.4,38.1,14.9z" /><g
   id="path740"
   nodetypes="ccccc"><path
   i:knockout="Off"
   opacity="0.673"
   fill="#009000"
   d="M29,14.6c0.2-0.6,0.4-1.6,0.6-2.2c5.7,3.6,9.4,8.3,5.7,15.1       c0.7-6-3.6-9.6-7.9-12.4C27.2,15.3,28.6,14.7,29,14.6z"
   id="path815" /><path
   i:knockout="Off"
   opacity="0.5829"
   fill="none"
   stroke="#006D00"
   stroke-width="0.5275"
   stroke-linecap="round"
   stroke-linejoin="round"
   d="       M29,14.6c0.2-0.6,0.4-1.6,0.6-2.2c5.7,3.6,9.4,8.3,5.7,15.1c0.7-6-3.6-9.6-7.9-12.4C27.2,15.3,28.6,14.7,29,14.6z"
   id="path816" /></g><linearGradient
   id="path741_1_"
   gradientUnits="userSpaceOnUse"
   x1="-235.0156"
   y1="446.2905"
   x2="-235.068"
   y2="446.3438"
   gradientTransform="matrix(37.2164 0 0 -74.2238 8782.877 33147.625)"><stop
   offset="0"
   style="stop-color:#FFFFFF"
   id="stop818" /><stop
   offset="1"
   style="stop-color:#FFFFFF"
   id="stop819" /><a:midPointStop
   offset="0"
   style="stop-color:#FFFFFF"
   id="midPointStop820" /><a:midPointStop
   offset="0.5"
   style="stop-color:#FFFFFF"
   id="midPointStop821" /><a:midPointStop
   offset="1"
   style="stop-color:#FFFFFF"
   id="midPointStop822" /></linearGradient><path
   id="path741"
   nodetypes="cssss"
   fill="url(#path741_1_)"
   d="M36.7,21.1c0.2,0.5-0.1,2-0.4,2      c-0.5,0-0.9-1.1-1.2-1.8c-0.2-0.7-0.8-2.3-0.2-2.3C35.8,18.8,36.4,20.2,36.7,21.1z" /><path
   id="path742"
   nodetypes="cssss"
   fill="url(#path739_1_)"
   d="M38.1,14.9c0.4,0.3,1,1.6,0.7,1.8      c-0.4,0.2-1.3-0.4-1.9-0.8c-0.6-0.4-1.9-1.4-1.4-1.7C36.2,13.6,37.4,14.4,38.1,14.9z" /><g
   id="path743"
   nodetypes="ccccc"><path
   i:knockout="Off"
   opacity="0.7441"
   fill="#00B900"
   d="M28.3,12.4c0.5-0.3,1.4-0.4,1.9-0.7c-4.7-5.3-10-8.6-15.4-4.7       c5.5-1,9.8,3,13.5,7C28,14.2,28.3,12.8,28.3,12.4z"
   id="path826" /><path
   i:knockout="Off"
   fill="none"
   stroke="#008300"
   stroke-width="0.5275"
   stroke-linecap="round"
   stroke-linejoin="round"
   d="       M28.3,12.4c0.5-0.3,1.4-0.4,1.9-0.7c-4.7-5.3-10-8.6-15.4-4.7c5.5-1,9.8,3,13.5,7C28,14.2,28.3,12.8,28.3,12.4z"
   id="path827" /></g><linearGradient
   id="path744_1_"
   gradientUnits="userSpaceOnUse"
   x1="-228.3003"
   y1="438.646"
   x2="-228.3526"
   y2="438.6992"
   gradientTransform="matrix(75.2513 0 0 -33.815 17201.9746 14839.6504)"><stop
   offset="0"
   style="stop-color:#FFFFFF"
   id="stop829" /><stop
   offset="1"
   style="stop-color:#FFFFFF"
   id="stop830" /><a:midPointStop
   offset="0"
   style="stop-color:#FFFFFF"
   id="midPointStop831" /><a:midPointStop
   offset="0.5"
   style="stop-color:#FFFFFF"
   id="midPointStop832" /><a:midPointStop
   offset="1"
   style="stop-color:#FFFFFF"
   id="midPointStop833" /></linearGradient><path
   id="path744"
   nodetypes="cssss"
   fill="url(#path744_1_)"
   d="M20.4,5.3c-0.5-0.1-1.9,0.2-1.8,0.5      c0.1,0.5,1.3,0.8,2,1C21.3,7,23,7.5,22.9,6.9C22.8,6,21.3,5.5,20.4,5.3z" /><g
   id="path745"
   nodetypes="ccccc"><radialGradient
   id="XMLID_9_"
   cx="-228.9102"
   cy="445.2212"
   r="3.771660e-002"
   fx="-228.9102"
   fy="445.2212"
   gradientTransform="matrix(273.6722 0 0 -128.7966 62667.3203 57358.375)"
   gradientUnits="userSpaceOnUse"><stop
   offset="0"
   style="stop-color:#FFFFFF"
   id="stop837" /><stop
   offset="1"
   style="stop-color:#FFFFFF"
   id="stop838" /><a:midPointStop
   offset="0"
   style="stop-color:#FFFFFF"
   id="midPointStop839" /><a:midPointStop
   offset="0.5"
   style="stop-color:#FFFFFF"
   id="midPointStop840" /><a:midPointStop
   offset="1"
   style="stop-color:#FFFFFF"
   id="midPointStop841" /></radialGradient><path
   i:knockout="Off"
   opacity="0.673"
   fill="url(#XMLID_9_)"
   d="M28.3,12.4c0.5-0.3,1.4-0.4,1.9-0.7c-4.7-5.3-10-8.6-15.4-4.7       C19.7,4.9,24.2,7.3,28.3,12.4C28.2,12.5,28.3,12.8,28.3,12.4z"
   id="path842" /></g><g
   id="path746"
   nodetypes="ccccc"><path
   i:knockout="Off"
   opacity="0.8199"
   fill="#00AC00"
   d="M28.3,14.8c-0.2-0.5-0.4-1.5-0.6-2c-5.5,5.1-9,10.9-5.1,16.7       c-0.9-5.9,3.3-10.6,7.4-14.6C30.2,15.1,28.7,14.8,28.3,14.8z"
   id="path844" /><path
   i:knockout="Off"
   fill="none"
   stroke="#008B00"
   stroke-width="0.5275"
   stroke-linecap="round"
   stroke-linejoin="round"
   d="       M28.3,14.8c-0.2-0.5-0.4-1.5-0.6-2c-5.5,5.1-9,10.9-5.1,16.7c-0.9-5.9,3.3-10.6,7.4-14.6C30.2,15.1,28.7,14.8,28.3,14.8z"
   id="path845" /></g><linearGradient
   id="path747_1_"
   gradientUnits="userSpaceOnUse"
   x1="-228.8315"
   y1="446.729"
   x2="-228.8839"
   y2="446.7823"
   gradientTransform="matrix(34.6038 0 0 -81.5816 7941.0161 36469.1914)"><stop
   offset="0"
   style="stop-color:#FFFFFF"
   id="stop847" /><stop
   offset="1"
   style="stop-color:#FFFFFF"
   id="stop848" /><a:midPointStop
   offset="0"
   style="stop-color:#FFFFFF"
   id="midPointStop849" /><a:midPointStop
   offset="0.5"
   style="stop-color:#FFFFFF"
   id="midPointStop850" /><a:midPointStop
   offset="1"
   style="stop-color:#FFFFFF"
   id="midPointStop851" /></linearGradient><path
   id="path852"
   nodetypes="cssss"
   fill="url(#path747_1_)"
   d="M21,23.4c-0.2,0.6,0.1,2.1,0.5,1.9      c0.5-0.2,0.9-1.4,1.1-2.2c0.2-0.8,0.7-2.5,0.2-2.4C21.7,20.9,21.2,22.4,21,23.4z" /><g
   id="path748"
   nodetypes="ccccc"><radialGradient
   id="XMLID_10_"
   cx="-229.752"
   cy="446.6636"
   r="3.746480e-002"
   fx="-229.752"
   fy="446.6636"
   gradientTransform="matrix(135.0938 0 0 -296.7469 31065.8203 132578.0313)"
   gradientUnits="userSpaceOnUse"><stop
   offset="0"
   style="stop-color:#FFFFFF"
   id="stop855" /><stop
   offset="1"
   style="stop-color:#FFFFFF"
   id="stop856" /><a:midPointStop
   offset="0"
   style="stop-color:#FFFFFF"
   id="midPointStop857" /><a:midPointStop
   offset="0.5"
   style="stop-color:#FFFFFF"
   id="midPointStop858" /><a:midPointStop
   offset="1"
   style="stop-color:#FFFFFF"
   id="midPointStop859" /></radialGradient><path
   i:knockout="Off"
   opacity="0.673"
   fill="url(#XMLID_10_)"
   d="M28.3,14.8c-0.2-0.5-0.4-1.5-0.6-2c-5.5,5.1-9,10.9-5.1,16.7       C20.5,24.2,23,19.3,28.3,14.8C28.4,14.9,28.7,14.8,28.3,14.8z"
   id="path860" /></g><g
   id="path749"
   nodetypes="ccccc"><path
   i:knockout="Off"
   opacity="0.673"
   fill="#009000"
   d="M28.4,12.9c0.2-0.5,0.7-1.3,0.9-1.8c-6.1-0.6-11.6,0.7-13.1,7.5       c3.1-4.6,8.3-4.8,13-4.4C29.3,14.4,28.7,13.2,28.4,12.9z"
   id="path862" /><path
   i:knockout="Off"
   fill="none"
   stroke="#008700"
   stroke-width="0.5275"
   stroke-linecap="round"
   stroke-linejoin="round"
   d="       M28.4,12.9c0.2-0.5,0.7-1.3,0.9-1.8c-6.1-0.6-11.6,0.7-13.1,7.5c3.1-4.6,8.3-4.8,13-4.4C29.3,14.4,28.7,13.2,28.4,12.9z"
   id="path863" /></g><linearGradient
   id="path750_1_"
   gradientUnits="userSpaceOnUse"
   x1="-228.1074"
   y1="443.314"
   x2="-228.1598"
   y2="443.3672"
   gradientTransform="matrix(62.3631 0 0 -43.6631 14246.5996 19371.0352)"><stop
   offset="0"
   style="stop-color:#FFFFFF"
   id="stop865" /><stop
   offset="1"
   style="stop-color:#FFFFFF"
   id="stop866" /><a:midPointStop
   offset="0"
   style="stop-color:#FFFFFF"
   id="midPointStop867" /><a:midPointStop
   offset="0.5"
   style="stop-color:#FFFFFF"
   id="midPointStop868" /><a:midPointStop
   offset="1"
   style="stop-color:#FFFFFF"
   id="midPointStop869" /></linearGradient><path
   id="path750"
   nodetypes="cssss"
   fill="url(#path750_1_)"
   d="M19.3,13.3c-0.4,0.3-1.2,1.5-0.9,1.6      c0.4,0.2,1.3-0.3,1.9-0.7c0.6-0.4,1.9-1.2,1.5-1.5C21.2,12.2,20,12.8,19.3,13.3z" /><g
   id="path751"
   nodetypes="ccccc"><radialGradient
   id="XMLID_11_"
   cx="-229.0337"
   cy="446.0044"
   r="3.771651e-002"
   fx="-229.0337"
   fy="446.0044"
   gradientTransform="matrix(231.8698 0 0 -134.8836 53128.7344 60180.0117)"
   gradientUnits="userSpaceOnUse"><stop
   offset="0"
   style="stop-color:#FFFFFF"
   id="stop873" /><stop
   offset="1"
   style="stop-color:#FFFFFF"
   id="stop874" /><a:midPointStop
   offset="0"
   style="stop-color:#FFFFFF"
   id="midPointStop875" /><a:midPointStop
   offset="0.5"
   style="stop-color:#FFFFFF"
   id="midPointStop876" /><a:midPointStop
   offset="1"
   style="stop-color:#FFFFFF"
   id="midPointStop877" /></radialGradient><path
   i:knockout="Off"
   opacity="0.673"
   fill="url(#XMLID_11_)"
   d="M28.4,12.9c0.2-0.5,0.7-1.3,0.9-1.8       c-6.1-0.6-11.6,0.7-13.1,7.5c2.1-5,6.5-6.5,12.2-5.7C28.4,13.1,28.7,13.2,28.4,12.9z"
   id="path878" /></g></g><rect
   x="0.1"
   fill="none"
   width="48"
   height="48"
   id="rect879" /></g></svg>
