<?xml version="1.0" encoding="UTF-8" standalone="no"?>
<!DOCTYPE svg PUBLIC "-//W3C//DTD SVG 20010904//EN"
"http://www.w3.org/TR/2001/REC-SVG-20010904/DTD/svg10.dtd">
<!-- Created with Sodipodi ("http://www.sodipodi.com/") -->
<svg
   xmlns:x="http://ns.adobe.com/Extensibility/1.0/"
   xmlns:i="http://ns.adobe.com/AdobeIllustrator/10.0/"
   xmlns:graph="http://ns.adobe.com/Graphs/1.0/"
   xmlns="http://www.w3.org/2000/svg"
   xmlns:xlink="http://www.w3.org/1999/xlink"
   xmlns:a="http://ns.adobe.com/AdobeSVGViewerExtensions/3.0/"
   xml:space="preserve"
   i:viewOrigin="172.9727 456.0005"
   i:rulerOrigin="0 0"
   i:pageBounds="0 792 612 0"
   width="54.1"
   height="48"
   viewBox="0 0 54.1 48"
   overflow="visible"
   enable-background="new 0 0 54.1 48"
   xmlns:sodipodi="http://sodipodi.sourceforge.net/DTD/sodipodi-0.dtd"
   id="svg602"
   sodipodi:version="0.34"
   sodipodi:docname="C:\msys\home\su_blanc\mldonkey-2.5.12\src\gtk2\rsvg\emoticons\emoticon_thumbs_up.svg"><defs
   id="defs658" /><sodipodi:namedview
   id="namedview657" /><g
   id="Layer_1"
   i:layer="yes"
   i:dimmedPercent="50"
   i:rgbTrio="#4F008000FFFF"><g
   id="g606"><g
   id="g607"><g
   id="path588"
   nodetypes="cccccc"><path
   i:knockout="Off"
   opacity="3.790000e-002"
   fill="none"
   stroke="#000000"
   stroke-width="1.4213"
   stroke-linecap="round"
   stroke-linejoin="round"
   d="        M11.1,19.6l-7.8,6.7c3.7,6.4,8.9,12,15.7,14.9c12.8-5.2,26.2-24.2,31.8-34.5c-5.1,4.6-18.8,18-32,22.6        C15.7,27,14.1,24.2,11.1,19.6z"
   id="path609" /></g><g
   id="path587"
   nodetypes="cccccc"><path
   i:knockout="Off"
   opacity="3.790000e-002"
   fill="none"
   stroke="#000000"
   stroke-width="1.9708"
   stroke-linecap="round"
   stroke-linejoin="round"
   d="        M11.1,19.6l-7.8,6.7c3.7,6.4,8.9,12,15.7,14.9c12.8-5.2,26.2-24.2,31.8-34.5c-5.1,4.6-18.8,18-32,22.6        C15.7,27,14.1,24.2,11.1,19.6z"
   id="path611" /></g><g
   id="path585"
   nodetypes="cccccc"><path
   i:knockout="Off"
   opacity="3.790000e-002"
   fill="none"
   stroke="#000000"
   stroke-width="2.8866"
   stroke-linecap="round"
   stroke-linejoin="round"
   d="        M11.1,19.6l-7.8,6.7c3.7,6.4,8.9,12,15.7,14.9c12.8-5.2,26.2-24.2,31.8-34.5c-5.1,4.6-18.8,18-32,22.6        C15.7,27,14.1,24.2,11.1,19.6z"
   id="path613" /></g><g
   id="path584"
   nodetypes="cccccc"><path
   i:knockout="Off"
   opacity="3.790000e-002"
   fill="none"
   stroke="#000000"
   stroke-width="3.8024"
   stroke-linecap="round"
   stroke-linejoin="round"
   d="        M11.1,19.6l-7.8,6.7c3.7,6.4,8.9,12,15.7,14.9c12.8-5.2,26.2-24.2,31.8-34.5c-5.1,4.6-18.8,18-32,22.6        C15.7,27,14.1,24.2,11.1,19.6z"
   id="path615" /></g><g
   id="path583"
   nodetypes="cccccc"><path
   i:knockout="Off"
   opacity="3.790000e-002"
   fill="none"
   stroke="#000000"
   stroke-width="4.7182"
   stroke-linecap="round"
   stroke-linejoin="round"
   d="        M11.1,19.6l-7.8,6.7c3.7,6.4,8.9,12,15.7,14.9c12.8-5.2,26.2-24.2,31.8-34.5c-5.1,4.6-18.8,18-32,22.6        C15.7,27,14.1,24.2,11.1,19.6z"
   id="path617" /></g><g
   id="path582"
   nodetypes="cccccc"><path
   i:knockout="Off"
   opacity="3.790000e-002"
   fill="none"
   stroke="#000000"
   stroke-width="5.0846"
   stroke-linecap="round"
   stroke-linejoin="round"
   d="        M11.1,19.6l-7.8,6.7c3.7,6.4,8.9,12,15.7,14.9c12.8-5.2,26.2-24.2,31.8-34.5c-5.1,4.6-18.8,18-32,22.6        C15.7,27,14.1,24.2,11.1,19.6z"
   id="path619" /></g><g
   id="path581"
   nodetypes="cccccc"><path
   i:knockout="Off"
   opacity="3.790000e-002"
   fill="none"
   stroke="#000000"
   stroke-width="5.6341"
   stroke-linecap="round"
   stroke-linejoin="round"
   d="        M11.1,19.6l-7.8,6.7c3.7,6.4,8.9,12,15.7,14.9c12.8-5.2,26.2-24.2,31.8-34.5c-5.1,4.6-18.8,18-32,22.6        C15.7,27,14.1,24.2,11.1,19.6z"
   id="path621" /></g><g
   id="path580"
   nodetypes="cccccc"><path
   i:knockout="Off"
   opacity="3.790000e-002"
   fill="none"
   stroke="#000000"
   stroke-width="6.0004"
   stroke-linecap="round"
   stroke-linejoin="round"
   d="        M11.1,19.6l-7.8,6.7c3.7,6.4,8.9,12,15.7,14.9c12.8-5.2,26.2-24.2,31.8-34.5c-5.1,4.6-18.8,18-32,22.6        C15.7,27,14.1,24.2,11.1,19.6z"
   id="path623" /></g><g
   id="path579"
   nodetypes="cccccc"><path
   i:knockout="Off"
   opacity="3.790000e-002"
   fill="none"
   stroke="#000000"
   stroke-width="6.5499"
   stroke-linecap="round"
   stroke-linejoin="round"
   d="        M11.1,19.6l-7.8,6.7c3.7,6.4,8.9,12,15.7,14.9c12.8-5.2,26.2-24.2,31.8-34.5c-5.1,4.6-18.8,18-32,22.6        C15.7,27,14.1,24.2,11.1,19.6z"
   id="path625" /></g><linearGradient
   id="path578_1_"
   gradientUnits="userSpaceOnUse"
   x1="-172.7803"
   y1="455.5522"
   x2="-172.7834"
   y2="455.6773"
   gradientTransform="matrix(343.3546 0 0 -249.5929 59352.875 113750.0391)"><stop
   offset="0"
   style="stop-color:#000000"
   id="stop627" /><stop
   offset="1"
   style="stop-color:#FFFFFF"
   id="stop628" /><a:midPointStop
   offset="0"
   style="stop-color:#000000"
   id="midPointStop629" /><a:midPointStop
   offset="0.5"
   style="stop-color:#000000"
   id="midPointStop630" /><a:midPointStop
   offset="1"
   style="stop-color:#FFFFFF"
   id="midPointStop631" /></linearGradient><path
   id="path578"
   nodetypes="cccccc"
   fill="url(#path578_1_)"
   stroke="#000000"
   stroke-width="0.6521"
   stroke-linecap="round"
   stroke-linejoin="round"
   d="       M11.1,19.6l-7.8,6.7c3.7,6.4,8.9,12,15.7,14.9c12.8-5.2,26.2-24.2,31.8-34.5c-5.1,4.6-18.8,18-32,22.6       C15.7,27,14.1,24.2,11.1,19.6z" /><linearGradient
   id="path577_1_"
   gradientUnits="userSpaceOnUse"
   x1="-172.7627"
   y1="455.6616"
   x2="-172.8"
   y2="455.7724"
   gradientTransform="matrix(305.0712 0 0 -199.9427 52741.6406 91147.2266)"><stop
   offset="0"
   style="stop-color:#006000"
   id="stop634" /><stop
   offset="1"
   style="stop-color:#00DC00"
   id="stop635" /><a:midPointStop
   offset="0"
   style="stop-color:#006000"
   id="midPointStop636" /><a:midPointStop
   offset="0.5"
   style="stop-color:#006000"
   id="midPointStop637" /><a:midPointStop
   offset="1"
   style="stop-color:#00DC00"
   id="midPointStop638" /></linearGradient><path
   id="path577"
   nodetypes="cccccc"
   fill="url(#path577_1_)"
   d="M11.1,21.6l-6.3,5c3.2,5.2,8.4,10.6,14.2,13       c11.4-5.4,18-15.2,28-27.7C36.3,21.8,30,26.5,18.8,30.9C16.2,29,13.7,25.4,11.1,21.6z" /><g
   id="path586"
   nodetypes="cccccc"><path
   i:knockout="Off"
   opacity="3.790000e-002"
   fill="none"
   stroke="#000000"
   stroke-width="2.3371"
   stroke-linecap="round"
   stroke-linejoin="round"
   d="        M11.1,19.6l-7.8,6.7c3.7,6.4,8.9,12,15.7,14.9c12.8-5.2,26.2-24.2,31.8-34.5c-5.1,4.6-18.8,18-32,22.6        C15.7,27,14.1,24.2,11.1,19.6z"
   id="path641" /></g><radialGradient
   id="path589_1_"
   cx="-172.792"
   cy="455.5884"
   r="3.247648e-002"
   fx="-172.792"
   fy="455.5884"
   gradientTransform="matrix(343.3549 0 0 -249.5927 59352.8281 113749.8984)"
   gradientUnits="userSpaceOnUse"><stop
   offset="0"
   style="stop-color:#FFFFFF"
   id="stop643" /><stop
   offset="1"
   style="stop-color:#FFFFFF"
   id="stop644" /><a:midPointStop
   offset="0"
   style="stop-color:#FFFFFF"
   id="midPointStop645" /><a:midPointStop
   offset="0.5"
   style="stop-color:#FFFFFF"
   id="midPointStop646" /><a:midPointStop
   offset="1"
   style="stop-color:#FFFFFF"
   id="midPointStop647" /></radialGradient><path
   id="path589"
   nodetypes="cccccc"
   opacity="0.2"
   fill="url(#path589_1_)"
   d="M11.1,19.6l-7.8,6.7       c3.7,6.4,8.9,12,15.7,14.9c12.8-5.2,26.2-24.2,31.8-34.5c-5.1,4.6-18.8,18-32,22.6C15.7,27,14.1,24.2,11.1,19.6z" /><linearGradient
   id="path598_1_"
   gradientUnits="userSpaceOnUse"
   x1="-172.6382"
   y1="456.1206"
   x2="-172.5866"
   y2="455.9583"
   gradientTransform="matrix(95.9373 0 0 -102.6972 16571.8613 46860.832)"><stop
   offset="0"
   style="stop-color:#FFFFFF"
   id="stop650" /><stop
   offset="1"
   style="stop-color:#FFFFFF"
   id="stop651" /><a:midPointStop
   offset="0"
   style="stop-color:#FFFFFF"
   id="midPointStop652" /><a:midPointStop
   offset="0.5"
   style="stop-color:#FFFFFF"
   id="midPointStop653" /><a:midPointStop
   offset="1"
   style="stop-color:#FFFFFF"
   id="midPointStop654" /></linearGradient><path
   id="path598"
   nodetypes="cccsc"
   opacity="0.2"
   fill="url(#path598_1_)"
   d="M18.6,29.7c-2.6-3.3-5.2-6.6-7.8-9.8       l-5.4,5C8.2,30,16.1,36.8,17.9,33C18.1,32.8,18.9,31,18.6,29.7z" /></g><rect
   x="3"
   fill="none"
   width="48"
   height="48"
   id="rect656" /></g></g></svg>
