<?xml version="1.0" encoding="UTF-8" standalone="no"?>
<!DOCTYPE svg PUBLIC "-//W3C//DTD SVG 20010904//EN"
"http://www.w3.org/TR/2001/REC-SVG-20010904/DTD/svg10.dtd">
<!-- Created with Sodipodi ("http://www.sodipodi.com/") -->
<svg
   xmlns:x="http://ns.adobe.com/Extensibility/1.0/"
   xmlns:i="http://ns.adobe.com/AdobeIllustrator/10.0/"
   xmlns:graph="http://ns.adobe.com/Graphs/1.0/"
   xmlns="http://www.w3.org/2000/svg"
   xmlns:xlink="http://www.w3.org/1999/xlink"
   xmlns:a="http://ns.adobe.com/AdobeSVGViewerExtensions/3.0/"
   xml:space="preserve"
   i:viewOrigin="169.1606 474.5313"
   i:rulerOrigin="0 0"
   i:pageBounds="0 792 612 0"
   width="49.4"
   height="50.2"
   viewBox="0 0 49.4 50.2"
   overflow="visible"
   enable-background="new 0 0 49.4 50.2"
   xmlns:sodipodi="http://sodipodi.sourceforge.net/DTD/sodipodi-0.dtd"
   id="svg602"
   sodipodi:version="0.34"
   sodipodi:docname="C:\msys\home\su_blanc\mldonkey-2.5.12\src\gtk2\rsvg\emoticons\emoticon_cigaret.svg"><defs
   id="defs670" /><sodipodi:namedview
   id="namedview669" /><g
   id="Layer_1"
   i:layer="yes"
   i:dimmedPercent="50"
   i:rgbTrio="#4F008000FFFF"><g
   id="g606"><g
   id="path613"
   nodetypes="cccccccccccccc"><path
   i:knockout="Off"
   opacity="3.320000e-002"
   fill="none"
   stroke="#000000"
   stroke-width="2.147"
   stroke-linejoin="round"
   d="       M3.5,16.5c8.7,9.4,18.7,18.9,27.3,27.2c0.8,0.5,1.6,1.1,2.3,1.6c0.8,0.2,1.7,0.5,2.5,0.7c1.1,0.6,2.2,1.2,3.3,1.8       c1.4-0.4,2.8-0.8,4.3-1.3c0.1-0.8,0.2-1.6,0.3-2.4c-0.6-0.3-1.2-0.6-1.8-1c-0.1-0.6-0.3-1.2-0.4-1.8c-0.4-0.3-0.7-0.5-1.1-0.8       c-0.6-1-1.1-2-1.7-3.1c-9-9.2-18.1-18.4-27.1-27.6c-2-2.2-5.5-2.3-7.4,0C2.4,11.6,1.7,14.4,3.5,16.5z"
   id="path608" /></g><g
   id="path612"
   nodetypes="cccccccccccccc"><path
   i:knockout="Off"
   opacity="3.320000e-002"
   fill="none"
   stroke="#000000"
   stroke-width="2.6055"
   stroke-linejoin="round"
   d="       M3.5,16.5c8.7,9.4,18.7,18.9,27.3,27.2c0.8,0.5,1.6,1.1,2.3,1.6c0.8,0.2,1.7,0.5,2.5,0.7c1.1,0.6,2.2,1.2,3.3,1.8       c1.4-0.4,2.8-0.8,4.3-1.3c0.1-0.8,0.2-1.6,0.3-2.4c-0.6-0.3-1.2-0.6-1.8-1c-0.1-0.6-0.3-1.2-0.4-1.8c-0.4-0.3-0.7-0.5-1.1-0.8       c-0.6-1-1.1-2-1.7-3.1c-9-9.2-18.1-18.4-27.1-27.6c-2-2.2-5.5-2.3-7.4,0C2.4,11.6,1.7,14.4,3.5,16.5z"
   id="path610" /></g><g
   id="path611"
   nodetypes="cccccccccccccc"><path
   i:knockout="Off"
   opacity="3.320000e-002"
   fill="none"
   stroke="#000000"
   stroke-width="3.4601"
   stroke-linejoin="round"
   d="       M3.5,16.5c8.7,9.4,18.7,18.9,27.3,27.2c0.8,0.5,1.6,1.1,2.3,1.6c0.8,0.2,1.7,0.5,2.5,0.7c1.1,0.6,2.2,1.2,3.3,1.8       c1.4-0.4,2.8-0.8,4.3-1.3c0.1-0.8,0.2-1.6,0.3-2.4c-0.6-0.3-1.2-0.6-1.8-1c-0.1-0.6-0.3-1.2-0.4-1.8c-0.4-0.3-0.7-0.5-1.1-0.8       c-0.6-1-1.1-2-1.7-3.1c-9-9.2-18.1-18.4-27.1-27.6c-2-2.2-5.5-2.3-7.4,0C2.4,11.6,1.7,14.4,3.5,16.5z"
   id="path614" /></g><g
   id="g615"
   nodetypes="cccccccccccccc"><path
   i:knockout="Off"
   opacity="3.320000e-002"
   fill="none"
   stroke="#000000"
   stroke-width="3.9812"
   stroke-linejoin="round"
   d="       M3.5,16.5c8.7,9.4,18.7,18.9,27.3,27.2c0.8,0.5,1.6,1.1,2.3,1.6c0.8,0.2,1.7,0.5,2.5,0.7c1.1,0.6,2.2,1.2,3.3,1.8       c1.4-0.4,2.8-0.8,4.3-1.3c0.1-0.8,0.2-1.6,0.3-2.4c-0.6-0.3-1.2-0.6-1.8-1c-0.1-0.6-0.3-1.2-0.4-1.8c-0.4-0.3-0.7-0.5-1.1-0.8       c-0.6-1-1.1-2-1.7-3.1c-9-9.2-18.1-18.4-27.1-27.6c-2-2.2-5.5-2.3-7.4,0C2.4,11.6,1.7,14.4,3.5,16.5z"
   id="path616" /></g><g
   id="path609"
   nodetypes="cccccccccccccc"><path
   i:knockout="Off"
   opacity="3.320000e-002"
   fill="none"
   stroke="#000000"
   stroke-width="4.8359"
   stroke-linejoin="round"
   d="       M3.5,16.5c8.7,9.4,18.7,18.9,27.3,27.2c0.8,0.5,1.6,1.1,2.3,1.6c0.8,0.2,1.7,0.5,2.5,0.7c1.1,0.6,2.2,1.2,3.3,1.8       c1.4-0.4,2.8-0.8,4.3-1.3c0.1-0.8,0.2-1.6,0.3-2.4c-0.6-0.3-1.2-0.6-1.8-1c-0.1-0.6-0.3-1.2-0.4-1.8c-0.4-0.3-0.7-0.5-1.1-0.8       c-0.6-1-1.1-2-1.7-3.1c-9-9.2-18.1-18.4-27.1-27.6c-2-2.2-5.5-2.3-7.4,0C2.4,11.6,1.7,14.4,3.5,16.5z"
   id="path618" /></g><linearGradient
   id="path579_1_"
   gradientUnits="userSpaceOnUse"
   x1="-169.0508"
   y1="474.3896"
   x2="-169.159"
   y2="474.2615"
   gradientTransform="matrix(209.4362 0 0 -205.7111 35439.0391 97597.2422)"><stop
   offset="0"
   style="stop-color:#AEADA5"
   id="stop620" /><stop
   offset="1"
   style="stop-color:#F7F8FA"
   id="stop621" /><a:midPointStop
   offset="0"
   style="stop-color:#AEADA5"
   id="midPointStop622" /><a:midPointStop
   offset="0.5"
   style="stop-color:#AEADA5"
   id="midPointStop623" /><a:midPointStop
   offset="1"
   style="stop-color:#F7F8FA"
   id="midPointStop624" /></linearGradient><path
   id="path579"
   nodetypes="ccccc"
   fill="url(#path579_1_)"
   stroke="#000000"
   stroke-width="0.1299"
   d="M38.3,37.5      c-1.1,3.8-4,7.1-7.8,5.8C9.1,23.9,4.2,17.6,4.2,17.6c-5.1-5.5,2.5-12.1,7-7.8C28.7,27.5,20.7,19.8,38.3,37.5z" /><linearGradient
   id="path581_1_"
   gradientUnits="userSpaceOnUse"
   x1="-169.1172"
   y1="474.2227"
   x2="-169.2058"
   y2="474.0887"
   gradientTransform="matrix(96.4706 0 0 -92.5913 16329.8379 43917.6797)"><stop
   offset="0"
   style="stop-color:#000000"
   id="stop627" /><stop
   offset="1"
   style="stop-color:#FFFFFF"
   id="stop628" /><a:midPointStop
   offset="0"
   style="stop-color:#000000"
   id="midPointStop629" /><a:midPointStop
   offset="0.5"
   style="stop-color:#000000"
   id="midPointStop630" /><a:midPointStop
   offset="1"
   style="stop-color:#FFFFFF"
   id="midPointStop631" /></linearGradient><linearGradient
   id="path581_2_"
   gradientUnits="userSpaceOnUse"
   x1="-167.7832"
   y1="474.1543"
   x2="-168.6197"
   y2="474.2235"><stop
   offset="0"
   style="stop-color:#000000"
   id="stop633" /><stop
   offset="1"
   style="stop-color:#FFFFFF"
   id="stop634" /><a:midPointStop
   offset="0"
   style="stop-color:#000000"
   id="midPointStop635" /><a:midPointStop
   offset="0.5"
   style="stop-color:#000000"
   id="midPointStop636" /><a:midPointStop
   offset="1"
   style="stop-color:#FFFFFF"
   id="midPointStop637" /></linearGradient><path
   id="path581"
   nodetypes="ccccc"
   fill="url(#path581_1_)"
   stroke="url(#path581_2_)"
   stroke-width="0.8943"
   stroke-linejoin="round"
   d="      M11.1,24.1c-2.4-2.6-4.3-3.9-6.9-6.6c-5-5.4,2.6-12.3,7-7.8c2.6,2.7,5.2,5.3,7.9,8C14.8,13.6,7.6,20.3,11.1,24.1z" /><linearGradient
   id="path588_1_"
   gradientUnits="userSpaceOnUse"
   x1="-171.0542"
   y1="476.3408"
   x2="-170.9911"
   y2="476.2526"
   gradientTransform="matrix(75.0865 0 0 -61.2005 12877.0254 29190.9453)"><stop
   offset="0"
   style="stop-color:#70624F"
   id="stop640" /><stop
   offset="1"
   style="stop-color:#C7D2CA"
   id="stop641" /><a:midPointStop
   offset="0"
   style="stop-color:#70624F"
   id="midPointStop642" /><a:midPointStop
   offset="0.5"
   style="stop-color:#70624F"
   id="midPointStop643" /><a:midPointStop
   offset="1"
   style="stop-color:#C7D2CA"
   id="midPointStop644" /></linearGradient><polygon
   id="path588"
   nodetypes="ccccccccccccccccccccccc"
   fill="url(#path588_1_)"
   points="38.5,37.4 37,37.3       36.4,37.7 35,37.3 34.7,38.2 33.3,38.4 32.9,39.9 31.9,39.4 31.6,41.3 31,41.9 31.2,43.1 30.7,43.2 33,45.1 35.7,46 38.8,47.7       40.2,47.3 43.2,46.6 43.5,44.1 41.7,43.1 41.4,41.5 40,40.4 38.9,38.3 " /><radialGradient
   id="path593_1_"
   cx="-170.9434"
   cy="476.2275"
   r="0.1552"
   fx="-170.9434"
   fy="476.2275"
   gradientTransform="matrix(75.0865 0 0 -61.2005 12877.0254 29190.9453)"
   gradientUnits="userSpaceOnUse"><stop
   offset="0"
   style="stop-color:#FF0000"
   id="stop647" /><stop
   offset="1"
   style="stop-color:#C7D2CA"
   id="stop648" /><a:midPointStop
   offset="0"
   style="stop-color:#FF0000"
   id="midPointStop649" /><a:midPointStop
   offset="0.5"
   style="stop-color:#FF0000"
   id="midPointStop650" /><a:midPointStop
   offset="1"
   style="stop-color:#C7D2CA"
   id="midPointStop651" /></radialGradient><polygon
   id="path593"
   nodetypes="ccccccccccccccccccccccc"
   fill="url(#path593_1_)"
   points="38.5,37.4 37,37.3       36.4,37.7 35,37.3 34.7,38.2 33.3,38.4 32.9,39.9 31.9,39.4 31.6,41.3 31,41.9 31.2,43.1 30.7,43.2 33,45.1 35.7,46 38.8,47.7       40.2,47.3 43.2,46.6 43.5,44.1 41.7,43.1 41.4,41.5 40,40.4 38.9,38.3 " /><path
   id="path602"
   nodetypes="cccccccccccccc"
   fill="none"
   stroke="#000000"
   stroke-width="0.8129"
   stroke-linejoin="round"
   d="      M3.5,16.5c8.7,9.4,18.7,18.9,27.3,27.2c0.8,0.5,1.6,1.1,2.3,1.6c0.8,0.2,1.7,0.5,2.5,0.7c1.1,0.6,2.2,1.2,3.3,1.8      c1.4-0.4,2.8-0.8,4.3-1.3c0.1-0.8,0.2-1.6,0.3-2.4c-0.6-0.3-1.2-0.6-1.8-1c-0.1-0.6-0.3-1.2-0.4-1.8c-0.4-0.3-0.7-0.5-1.1-0.8      c-0.6-1-1.1-2-1.7-3.1c-9-9.2-18.1-18.4-27.1-27.6c-2-2.2-5.5-2.3-7.4,0C2.4,11.6,1.7,14.4,3.5,16.5z" /><linearGradient
   id="path603_1_"
   gradientUnits="userSpaceOnUse"
   x1="-169.2344"
   y1="474.332"
   x2="-169.0854"
   y2="474.332"
   gradientTransform="matrix(220.1445 0 0 -230.3123 37260.0195 109268.4297)"><stop
   offset="0"
   style="stop-color:#AEADA5"
   id="stop655" /><stop
   offset="0.236"
   style="stop-color:#FFFFFF"
   id="stop656" /><stop
   offset="1"
   style="stop-color:#F7F8FA"
   id="stop657" /><a:midPointStop
   offset="0"
   style="stop-color:#AEADA5"
   id="midPointStop658" /><a:midPointStop
   offset="0.5"
   style="stop-color:#AEADA5"
   id="midPointStop659" /><a:midPointStop
   offset="0.236"
   style="stop-color:#FFFFFF"
   id="midPointStop660" /><a:midPointStop
   offset="0.5"
   style="stop-color:#FFFFFF"
   id="midPointStop661" /><a:midPointStop
   offset="1"
   style="stop-color:#F7F8FA"
   id="midPointStop662" /></linearGradient><path
   id="path603"
   nodetypes="cccssscc"
   opacity="0.4"
   fill="url(#path603_1_)"
   d="M34,38.5L4.1,9.1c0,0,1.8-1,2.7-1.2      C7.3,7.9,8,8,8.4,8.4l28,29.1C37.7,39.5,36.4,40.2,34,38.5z" /><g
   id="g664"
   nodetypes="csscsssc"><path
   i:knockout="Off"
   opacity="0.1517"
   d="M40.7,36.6c2.4-3.3,7.6-6.7,7.7-9.8c0-3.8-7-6.8-7-11c0-3.8,4-8.6,6.4-12.9       c-3.4,3.7-6.7,6.5-9.6,11.2c-0.7,1.1-1.2,5-0.7,6.1c1.3,2.8,6.4,4,5.9,8C42.9,31.8,41.5,32.9,40.7,36.6z"
   id="path665" /></g><g
   id="path615"
   nodetypes="csscsssc"><path
   i:knockout="Off"
   opacity="0.1517"
   d="M40.5,39.7c1.4-4,4.8-8.3,4.6-12c-0.3-4.4-5.5-7.3-5.8-12.2       c-0.3-4.4,2.1-10.2,3.4-15.4c-2.1,4.6-4.2,8.1-5.8,13.6c-0.4,1.4-0.4,5.9,0,7.1c1.2,3.1,4.8,4.2,4.8,8.7       C41.6,34,40.7,35.4,40.5,39.7z"
   id="path667" /></g></g><rect
   x="1.4"
   fill="none"
   width="48"
   height="48"
   id="rect668" /></g></svg>
