<?xml version="1.0" encoding="UTF-8" standalone="no"?>
<!DOCTYPE svg PUBLIC "-//W3C//DTD SVG 20010904//EN"
"http://www.w3.org/TR/2001/REC-SVG-20010904/DTD/svg10.dtd">
<!-- Created with Sodipodi ("http://www.sodipodi.com/") -->
<svg
   xmlns:x="http://ns.adobe.com/Extensibility/1.0/"
   xmlns:i="http://ns.adobe.com/AdobeIllustrator/10.0/"
   xmlns:graph="http://ns.adobe.com/Graphs/1.0/"
   xmlns="http://www.w3.org/2000/svg"
   xmlns:xlink="http://www.w3.org/1999/xlink"
   xmlns:a="http://ns.adobe.com/AdobeSVGViewerExtensions/3.0/"
   xml:space="preserve"
   i:viewOrigin="169.9258 427.7109"
   i:rulerOrigin="0 0"
   i:pageBounds="0 792 612 0"
   width="48"
   height="48.7"
   viewBox="0 0 48 48.7"
   overflow="visible"
   enable-background="new 0 0 48 48.7"
   xmlns:sodipodi="http://sodipodi.sourceforge.net/DTD/sodipodi-0.dtd"
   id="svg602"
   sodipodi:version="0.34"
   sodipodi:docname="C:\msys\home\su_blanc\mldonkey-2.5.12\src\gtk2\rsvg\emoticons\emoticon_sorry.svg"><defs
   id="defs742" /><sodipodi:namedview
   id="base" /><g
   id="Layer_1"
   i:knockout="Off"
   i:layer="yes"
   i:dimmedPercent="50"
   i:rgbTrio="#4F008000FFFF"><g
   id="g606"><path
   id="path597_5_"
   i:isolated="yes"
   i:knockout="Off"
   opacity="0.15"
   fill="none"
   stroke="#474000"
   stroke-width="1.8818"
   enable-background="new    "
   d="      M5.6,20.2c0-10.7,8-19.3,17.8-19.3c9.8,0,18.4,8.1,18.4,18.7c0,10.7-8.6,19.9-18.4,19.9C13.6,39.5,5.6,30.9,5.6,20.2z" /><path
   id="path597_4_"
   i:isolated="yes"
   i:knockout="Off"
   opacity="0.2"
   fill="none"
   stroke="#474000"
   stroke-width="0.9409"
   enable-background="new    "
   d="      M5.6,20.2c0-10.7,8-19.3,17.8-19.3c9.8,0,18.4,8.1,18.4,18.7c0,10.7-8.6,19.9-18.4,19.9C13.6,39.5,5.6,30.9,5.6,20.2z" /><path
   id="path597_3_"
   i:isolated="yes"
   i:knockout="Off"
   opacity="0.3"
   fill="none"
   stroke="#474000"
   stroke-width="0.4704"
   enable-background="new    "
   d="      M5.6,20.2c0-10.7,8-19.3,17.8-19.3c9.8,0,18.4,8.1,18.4,18.7c0,10.7-8.6,19.9-18.4,19.9C13.6,39.5,5.6,30.9,5.6,20.2z" /><radialGradient
   id="path700_1_"
   cx="-679.5713"
   cy="-0.7402"
   r="6.388162e-002"
   fx="-679.5713"
   fy="-0.7402"
   gradientTransform="matrix(310.7065 0 0 144.1183 211172.2188 149.3426)"
   gradientUnits="userSpaceOnUse"><stop
   offset="0"
   style="stop-color:#261700"
   id="stop611" /><stop
   offset="1"
   style="stop-color:#D2D2D2"
   id="stop612" /><a:midPointStop
   offset="0"
   style="stop-color:#261700"
   id="midPointStop613" /><a:midPointStop
   offset="0.5"
   style="stop-color:#261700"
   id="midPointStop614" /><a:midPointStop
   offset="1"
   style="stop-color:#D2D2D2"
   id="midPointStop615" /></radialGradient><path
   id="path700"
   i:isolated="yes"
   i:knockout="Off"
   opacity="0.3"
   fill="url(#path700_1_)"
   enable-background="new    "
   d="      M37.9,31.8c6.5,4.5,6,10.6-1.9,14.3c-7.9,3.7-19.5,3.1-25.9-1.5c-5.5-3.8-5.7-9.1-0.5-13.1c3.4,4.7,6.2,6.3,14,7.3      C30.1,38.7,34.3,35.8,37.9,31.8z" /><radialGradient
   id="path577_1_"
   cx="-638.4961"
   cy="42.7715"
   r="41.5567"
   fx="-638.4961"
   fy="42.7715"
   gradientTransform="matrix(298.9032 0 0 316.3969 203151.1563 -98.4275)"
   gradientUnits="userSpaceOnUse"><stop
   offset="0"
   style="stop-color:#FF6F00"
   id="stop618" /><stop
   offset="1"
   style="stop-color:#FFFF00"
   id="stop619" /><a:midPointStop
   offset="0"
   style="stop-color:#FF6F00"
   id="midPointStop620" /><a:midPointStop
   offset="0.5"
   style="stop-color:#FF6F00"
   id="midPointStop621" /><a:midPointStop
   offset="1"
   style="stop-color:#FFFF00"
   id="midPointStop622" /></radialGradient><circle
   id="path577"
   fill="url(#path577_1_)"
   cx="23.9"
   cy="20.4"
   r="17.8" /><linearGradient
   id="path597_1_"
   gradientUnits="userSpaceOnUse"
   x1="-679.5654"
   y1="0.3184"
   x2="-679.5668"
   y2="0.4371"
   gradientTransform="matrix(303.6933 0 0 316.3967 206403.3125 -98.1642)"><stop
   offset="0"
   style="stop-color:#FF6500"
   id="stop625" /><stop
   offset="1"
   style="stop-color:#FFFF00"
   id="stop626" /><a:midPointStop
   offset="0"
   style="stop-color:#FF6500"
   id="midPointStop627" /><a:midPointStop
   offset="0.5"
   style="stop-color:#FF6500"
   id="midPointStop628" /><a:midPointStop
   offset="1"
   style="stop-color:#FFFF00"
   id="midPointStop629" /></linearGradient><path
   id="path597"
   i:isolated="yes"
   i:knockout="Off"
   opacity="0.75"
   fill="url(#path597_1_)"
   enable-background="new    "
   d="      M5.6,20.2c0-10.7,8-19.3,17.8-19.3c9.9,0,18.4,8,18.4,18.7c0,10.7-8.6,19.9-18.4,19.9C13.6,39.5,5.6,30.9,5.6,20.2z" /><radialGradient
   id="path597_6_"
   cx="-486.4063"
   cy="426.7461"
   r="20.2352"
   fx="-486.4063"
   fy="426.7461"
   gradientTransform="matrix(1 0 0 -1 509.7773 427.6934)"
   gradientUnits="userSpaceOnUse"><stop
   offset="0"
   style="stop-color:#FFFFFF"
   id="stop632" /><stop
   offset="0.1046"
   style="stop-color:#FFFEFA"
   id="stop633" /><stop
   offset="0.2282"
   style="stop-color:#FFFBEC"
   id="stop634" /><stop
   offset="0.3616"
   style="stop-color:#FFF7D4"
   id="stop635" /><stop
   offset="0.5018"
   style="stop-color:#FFF1B2"
   id="stop636" /><stop
   offset="0.6474"
   style="stop-color:#FFE988"
   id="stop637" /><stop
   offset="0.7976"
   style="stop-color:#FFDF53"
   id="stop638" /><stop
   offset="0.9487"
   style="stop-color:#FFD316"
   id="stop639" /><stop
   offset="1"
   style="stop-color:#FFCF00"
   id="stop640" /><a:midPointStop
   offset="0"
   style="stop-color:#FFFFFF"
   id="midPointStop641" /><a:midPointStop
   offset="0.5"
   style="stop-color:#FFFFFF"
   id="midPointStop642" /><a:midPointStop
   offset="0.1046"
   style="stop-color:#FFFEFA"
   id="midPointStop643" /><a:midPointStop
   offset="0.5"
   style="stop-color:#FFFEFA"
   id="midPointStop644" /><a:midPointStop
   offset="0.2282"
   style="stop-color:#FFFBEC"
   id="midPointStop645" /><a:midPointStop
   offset="0.5"
   style="stop-color:#FFFBEC"
   id="midPointStop646" /><a:midPointStop
   offset="0.3616"
   style="stop-color:#FFF7D4"
   id="midPointStop647" /><a:midPointStop
   offset="0.5"
   style="stop-color:#FFF7D4"
   id="midPointStop648" /><a:midPointStop
   offset="0.5018"
   style="stop-color:#FFF1B2"
   id="midPointStop649" /><a:midPointStop
   offset="0.5"
   style="stop-color:#FFF1B2"
   id="midPointStop650" /><a:midPointStop
   offset="0.6474"
   style="stop-color:#FFE988"
   id="midPointStop651" /><a:midPointStop
   offset="0.5"
   style="stop-color:#FFE988"
   id="midPointStop652" /><a:midPointStop
   offset="0.7976"
   style="stop-color:#FFDF53"
   id="midPointStop653" /><a:midPointStop
   offset="0.5"
   style="stop-color:#FFDF53"
   id="midPointStop654" /><a:midPointStop
   offset="0.9487"
   style="stop-color:#FFD316"
   id="midPointStop655" /><a:midPointStop
   offset="0.5"
   style="stop-color:#FFD316"
   id="midPointStop656" /><a:midPointStop
   offset="1"
   style="stop-color:#FFCF00"
   id="midPointStop657" /></radialGradient><path
   id="path597_2_"
   i:isolated="yes"
   i:knockout="Off"
   opacity="0.75"
   fill="url(#path597_6_)"
   enable-background="new    "
   d="      M12.2,7.8c0-3.8,5-6.9,11.1-6.9c6.1,0,11.4,2.9,11.4,6.7C34.7,11.4,12.2,11.6,12.2,7.8z" /><rect
   id="rect662"
   y="0.7"
   i:knockout="Off"
   fill="none"
   width="48"
   height="48" /><radialGradient
   id="path762_1_"
   cx="-169.709"
   cy="427.8652"
   r="7.167400e-002"
   fx="-169.709"
   fy="427.8652"
   gradientTransform="matrix(93.0546 0 0 -84.595 15805.3135 36220.1406)"
   gradientUnits="userSpaceOnUse"><stop
   offset="0"
   style="stop-color:#FF002F"
   id="stop661" /><stop
   offset="0.2538"
   style="stop-color:#FF022E"
   id="stop662" /><stop
   offset="0.4043"
   style="stop-color:#FF0B2C"
   id="stop663" /><stop
   offset="0.5278"
   style="stop-color:#FF1929"
   id="stop664" /><stop
   offset="0.6368"
   style="stop-color:#FF2D24"
   id="stop665" /><stop
   offset="0.7362"
   style="stop-color:#FF471D"
   id="stop666" /><stop
   offset="0.8285"
   style="stop-color:#FF6715"
   id="stop667" /><stop
   offset="0.9143"
   style="stop-color:#FF8D0C"
   id="stop668" /><stop
   offset="0.995"
   style="stop-color:#FFB801"
   id="stop669" /><stop
   offset="1"
   style="stop-color:#FFBB00"
   id="stop670" /><a:midPointStop
   offset="0"
   style="stop-color:#FF002F"
   id="midPointStop671" /><a:midPointStop
   offset="0.8023"
   style="stop-color:#FF002F"
   id="midPointStop672" /><a:midPointStop
   offset="1"
   style="stop-color:#FFBB00"
   id="midPointStop673" /></radialGradient><circle
   id="path762"
   type="arc"
   cx="13.1"
   cy="25"
   rx="53.29488"
   ry="56.67867"
   opacity="0.5"
   fill="url(#path762_1_)"
   r="6.7" /><radialGradient
   id="path767_1_"
   cx="-171.5947"
   cy="427.8838"
   r="7.226563e-002"
   fx="-171.5947"
   fy="427.8838"
   gradientTransform="matrix(92.2086 0 0 -84.5951 15856.9668 36221.0195)"
   gradientUnits="userSpaceOnUse"><stop
   offset="0"
   style="stop-color:#FF002F"
   id="stop676" /><stop
   offset="0.2538"
   style="stop-color:#FF022E"
   id="stop677" /><stop
   offset="0.4043"
   style="stop-color:#FF0B2C"
   id="stop678" /><stop
   offset="0.5278"
   style="stop-color:#FF1929"
   id="stop679" /><stop
   offset="0.6368"
   style="stop-color:#FF2D24"
   id="stop680" /><stop
   offset="0.7362"
   style="stop-color:#FF471D"
   id="stop681" /><stop
   offset="0.8285"
   style="stop-color:#FF6715"
   id="stop682" /><stop
   offset="0.9143"
   style="stop-color:#FF8D0C"
   id="stop683" /><stop
   offset="0.995"
   style="stop-color:#FFB801"
   id="stop684" /><stop
   offset="1"
   style="stop-color:#FFBB00"
   id="stop685" /><a:midPointStop
   offset="0"
   style="stop-color:#FF002F"
   id="midPointStop686" /><a:midPointStop
   offset="0.8023"
   style="stop-color:#FF002F"
   id="midPointStop687" /><a:midPointStop
   offset="1"
   style="stop-color:#FFBB00"
   id="midPointStop688" /></radialGradient><circle
   id="path767"
   type="arc"
   cx="34.5"
   cy="24.1"
   rx="53.29488"
   ry="56.67867"
   opacity="0.5"
   fill="url(#path767_1_)"
   r="6.6" /><path
   id="path639"
   nodetypes="cs"
   fill="none"
   stroke="#795000"
   stroke-width="3"
   stroke-linecap="round"
   d="      M16.3,32.4c3.2-3.9,13.5-3.8,17-0.1" /><g
   id="g691"><radialGradient
   id="path630_1_"
   cx="-165.9424"
   cy="427.1289"
   r="0.1181"
   fx="-165.9424"
   fy="427.1289"
   gradientTransform="matrix(-47.8028 0 0 -60.2156 -7899.9922 25737.1387)"
   gradientUnits="userSpaceOnUse"><stop
   offset="0"
   style="stop-color:#DEE2E7"
   id="stop693" /><stop
   offset="1"
   style="stop-color:#FFFFFF"
   id="stop694" /><a:midPointStop
   offset="0"
   style="stop-color:#DEE2E7"
   id="midPointStop695" /><a:midPointStop
   offset="0.5"
   style="stop-color:#DEE2E7"
   id="midPointStop696" /><a:midPointStop
   offset="1"
   style="stop-color:#FFFFFF"
   id="midPointStop697" /></radialGradient><path
   id="path630"
   type="arc"
   cx="50.24698"
   cy="478.4100"
   rx="24.52531"
   ry="34.99345"
   fill="url(#path630_1_)"
   stroke="#7C5202"
   stroke-width="0.726"
   d="       M29.6,16.1c0-2.9,1.9-5.3,4.2-5.3c2.3,0,4.2,2.4,4.2,5.3c0,0,0,0,0,0c0,2.9-1.9,5.3-4.2,5.3S29.6,19.1,29.6,16.1       C29.6,16.1,29.6,16.1,29.6,16.1z" /><g
   id="path631"
   type="arc"
   cx="50.09747"
   cy="476.7646"
   rx="28.86212"
   ry="41.42389"><path
   i:knockout="Off"
   opacity="3.790000e-002"
   fill="none"
   stroke="#000000"
   stroke-width="0.66"
   d="M28.9,16.1        c0-3.2,2.2-5.8,4.9-5.8c2.7,0,4.9,2.6,4.9,5.8c0,0,0,0,0,0c0,3.2-2.2,5.8-4.9,5.8S28.9,19.3,28.9,16.1        C28.9,16.1,28.9,16.1,28.9,16.1z"
   id="path701" /></g><g
   id="path632"
   type="arc"
   cx="50.09747"
   cy="476.7646"
   rx="28.86212"
   ry="41.42389"><path
   i:knockout="Off"
   opacity="1.420000e-002"
   fill="none"
   stroke="#000000"
   stroke-width="2.295"
   d="M28.9,16.1        c0-3.2,2.2-5.8,4.9-5.8c2.7,0,4.9,2.6,4.9,5.8c0,0,0,0,0,0c0,3.2-2.2,5.8-4.9,5.8S28.9,19.3,28.9,16.1        C28.9,16.1,28.9,16.1,28.9,16.1z"
   id="path703" /></g><g
   id="path633"
   type="arc"
   cx="50.09747"
   cy="476.7646"
   rx="28.86212"
   ry="41.42389"><path
   i:knockout="Off"
   opacity="1.420000e-002"
   fill="none"
   stroke="#000000"
   stroke-width="1.4502"
   d="M28.9,16.1        c0-3.2,2.2-5.8,4.9-5.8c2.7,0,4.9,2.6,4.9,5.8c0,0,0,0,0,0c0,3.2-2.2,5.8-4.9,5.8S28.9,19.3,28.9,16.1        C28.9,16.1,28.9,16.1,28.9,16.1z"
   id="path705" /></g><g
   id="path634"
   type="arc"
   cx="50.09747"
   cy="476.7646"
   rx="28.86212"
   ry="41.42389"><path
   i:knockout="Off"
   opacity="1.420000e-002"
   fill="none"
   stroke="#000000"
   stroke-width="0.4995"
   d="M28.9,16.1        c0-3.2,2.2-5.8,4.9-5.8c2.7,0,4.9,2.6,4.9,5.8c0,0,0,0,0,0c0,3.2-2.2,5.8-4.9,5.8S28.9,19.3,28.9,16.1        C28.9,16.1,28.9,16.1,28.9,16.1z"
   id="path707" /></g><g
   id="path635"
   type="arc"
   cx="50.09747"
   cy="476.7646"
   rx="28.86212"
   ry="41.42389"><path
   i:knockout="Off"
   opacity="0.1517"
   fill="none"
   stroke="#000000"
   stroke-width="0.2511"
   d="M29.1,16.1        c0-3.2,2.1-5.7,4.7-5.7c2.6,0,4.7,2.6,4.7,5.7c0,0,0,0,0,0c0,3.2-2.1,5.7-4.7,5.7S29.1,19.3,29.1,16.1        C29.1,16.1,29.1,16.1,29.1,16.1z"
   id="path709" /></g><radialGradient
   id="path637_1_"
   cx="-161.5938"
   cy="427.8145"
   r="0.1097"
   fx="-161.5938"
   fy="427.8145"
   gradientTransform="matrix(-20.9741 0 0 -20.0662 -3354.9956 8603.0029)"
   gradientUnits="userSpaceOnUse"><stop
   offset="0"
   style="stop-color:#000082"
   id="stop711" /><stop
   offset="1"
   style="stop-color:#000000"
   id="stop712" /><a:midPointStop
   offset="0"
   style="stop-color:#000082"
   id="midPointStop713" /><a:midPointStop
   offset="0.5"
   style="stop-color:#000082"
   id="midPointStop714" /><a:midPointStop
   offset="1"
   style="stop-color:#000000"
   id="midPointStop715" /></radialGradient><path
   id="path637"
   type="arc"
   cx="61.64901"
   cy="495.8291"
   rx="10.46870"
   ry="10.89169"
   fill="url(#path637_1_)"
   d="       M31.9,19.3c0-1,0.8-1.8,1.8-1.8c1,0,1.8,0.8,1.8,1.8c0,0,0,0,0,0c0,1-0.8,1.8-1.8,1.8S31.9,20.3,31.9,19.3       C31.9,19.3,31.9,19.3,31.9,19.3z" /><radialGradient
   id="path650_1_"
   cx="-170.5176"
   cy="427.1289"
   r="0.118"
   fx="-170.5176"
   fy="427.1289"
   gradientTransform="matrix(47.8028 0 0 -60.2156 8167.3906 25737.1387)"
   gradientUnits="userSpaceOnUse"><stop
   offset="0"
   style="stop-color:#DEE2E7"
   id="stop718" /><stop
   offset="1"
   style="stop-color:#FFFFFF"
   id="stop719" /><a:midPointStop
   offset="0"
   style="stop-color:#DEE2E7"
   id="midPointStop720" /><a:midPointStop
   offset="0.5"
   style="stop-color:#DEE2E7"
   id="midPointStop721" /><a:midPointStop
   offset="1"
   style="stop-color:#FFFFFF"
   id="midPointStop722" /></radialGradient><path
   id="path650"
   type="arc"
   cx="50.24698"
   cy="478.4100"
   rx="24.52531"
   ry="34.99345"
   fill="url(#path650_1_)"
   stroke="#7C3902"
   stroke-width="0.726"
   d="       M19,16.1c0-2.9-1.9-5.3-4.2-5.3c-2.3,0-4.2,2.4-4.2,5.3c0,0,0,0,0,0c0,2.9,1.9,5.3,4.2,5.3S19,19.1,19,16.1       C19,16.1,19,16.1,19,16.1z" /><g
   id="path651"
   type="arc"
   cx="50.09747"
   cy="476.7646"
   rx="28.86212"
   ry="41.42389"><path
   i:knockout="Off"
   opacity="3.790000e-002"
   fill="none"
   stroke="#000000"
   stroke-width="0.66"
   d="M19.7,16.1        c0-3.2-2.2-5.8-4.9-5.8c-2.7,0-4.9,2.6-4.9,5.8c0,0,0,0,0,0c0,3.2,2.2,5.8,4.9,5.8S19.7,19.3,19.7,16.1        C19.7,16.1,19.7,16.1,19.7,16.1z"
   id="path725" /></g><g
   id="path652"
   type="arc"
   cx="50.09747"
   cy="476.7646"
   rx="28.86212"
   ry="41.42389"><path
   i:knockout="Off"
   opacity="1.420000e-002"
   fill="none"
   stroke="#000000"
   stroke-width="2.295"
   d="M19.7,16.1        c0-3.2-2.2-5.8-4.9-5.8c-2.7,0-4.9,2.6-4.9,5.8c0,0,0,0,0,0c0,3.2,2.2,5.8,4.9,5.8S19.7,19.3,19.7,16.1        C19.7,16.1,19.7,16.1,19.7,16.1z"
   id="path727" /></g><g
   id="path653"
   type="arc"
   cx="50.09747"
   cy="476.7646"
   rx="28.86212"
   ry="41.42389"><path
   i:knockout="Off"
   opacity="1.420000e-002"
   fill="none"
   stroke="#000000"
   stroke-width="1.4502"
   d="M19.7,16.1        c0-3.2-2.2-5.8-4.9-5.8c-2.7,0-4.9,2.6-4.9,5.8c0,0,0,0,0,0c0,3.2,2.2,5.8,4.9,5.8S19.7,19.3,19.7,16.1        C19.7,16.1,19.7,16.1,19.7,16.1z"
   id="path729" /></g><g
   id="path654"
   type="arc"
   cx="50.09747"
   cy="476.7646"
   rx="28.86212"
   ry="41.42389"><path
   i:knockout="Off"
   opacity="1.420000e-002"
   fill="none"
   stroke="#000000"
   stroke-width="0.4995"
   d="M19.7,16.1        c0-3.2-2.2-5.8-4.9-5.8c-2.7,0-4.9,2.6-4.9,5.8c0,0,0,0,0,0c0,3.2,2.2,5.8,4.9,5.8S19.7,19.3,19.7,16.1        C19.7,16.1,19.7,16.1,19.7,16.1z"
   id="path731" /></g><g
   id="path655"
   type="arc"
   cx="50.09747"
   cy="476.7646"
   rx="28.86212"
   ry="41.42389"><path
   i:knockout="Off"
   opacity="0.1517"
   fill="none"
   stroke="#000000"
   stroke-width="0.2511"
   d="M19.5,16.1        c0-3.2-2.1-5.7-4.7-5.7c-2.6,0-4.7,2.6-4.7,5.7c0,0,0,0,0,0c0,3.2,2.1,5.7,4.7,5.7C17.4,21.8,19.5,19.3,19.5,16.1        C19.5,16.1,19.5,16.1,19.5,16.1z"
   id="path733" /></g><radialGradient
   id="path656_1_"
   cx="-172.064"
   cy="427.8145"
   r="0.1093"
   fx="-172.064"
   fy="427.8145"
   gradientTransform="matrix(20.9741 0 0 -20.0662 3623.2378 8603.0029)"
   gradientUnits="userSpaceOnUse"><stop
   offset="0"
   style="stop-color:#000082"
   id="stop735" /><stop
   offset="1"
   style="stop-color:#000000"
   id="stop736" /><a:midPointStop
   offset="0"
   style="stop-color:#000082"
   id="midPointStop737" /><a:midPointStop
   offset="0.5"
   style="stop-color:#000082"
   id="midPointStop738" /><a:midPointStop
   offset="1"
   style="stop-color:#000000"
   id="midPointStop739" /></radialGradient><path
   id="path656"
   type="arc"
   cx="61.64901"
   cy="495.8291"
   rx="10.46870"
   ry="10.89169"
   fill="url(#path656_1_)"
   d="       M16.9,19.3c0-1-0.8-1.8-1.8-1.8c-1,0-1.8,0.8-1.8,1.8c0,0,0,0,0,0c0,1,0.8,1.8,1.8,1.8S16.9,20.3,16.9,19.3       C16.9,19.3,16.9,19.3,16.9,19.3z" /></g></g></g></svg>
