<?xml version="1.0" encoding="UTF-8" standalone="no"?>
<!DOCTYPE svg PUBLIC "-//W3C//DTD SVG 20010904//EN"
"http://www.w3.org/TR/2001/REC-SVG-20010904/DTD/svg10.dtd">
<!-- Created with Sodipodi ("http://www.sodipodi.com/") -->
<svg
   xmlns:x="http://ns.adobe.com/Extensibility/1.0/"
   xmlns:i="http://ns.adobe.com/AdobeIllustrator/10.0/"
   xmlns:graph="http://ns.adobe.com/Graphs/1.0/"
   xmlns="http://www.w3.org/2000/svg"
   xmlns:xlink="http://www.w3.org/1999/xlink"
   xmlns:a="http://ns.adobe.com/AdobeSVGViewerExtensions/3.0/"
   xml:space="preserve"
   i:viewOrigin="169.1553 426.9697"
   i:rulerOrigin="0 0"
   i:pageBounds="0 792 612 0"
   width="48"
   height="48.4"
   viewBox="0 0 48 48.4"
   overflow="visible"
   enable-background="new 0 0 48 48.4"
   xmlns:sodipodi="http://sodipodi.sourceforge.net/DTD/sodipodi-0.dtd"
   id="svg602"
   sodipodi:version="0.34"
   sodipodi:docname="C:\msys\home\su_blanc\mldonkey-2.5.12\src\gtk2\rsvg\emoticons\emoticon_devil.svg"><defs
   id="defs758" /><sodipodi:namedview
   id="base" /><g
   id="Layer_1"
   i:knockout="Off"
   i:layer="yes"
   i:dimmedPercent="50"
   i:rgbTrio="#4F008000FFFF"><g
   id="g606"><g
   id="g607"><g
   id="path668"
   nodetypes="cccccccccccccc"><radialGradient
   id="XMLID_1_"
   cx="-169.4189"
   cy="427.2393"
   r="0.1133"
   fx="-169.4189"
   fy="427.2393"
   gradientTransform="matrix(101.3323 0 0 -243.5823 17188.6641 104112.9766)"
   gradientUnits="userSpaceOnUse"><stop
   offset="0"
   style="stop-color:#A6002F"
   id="stop610" /><stop
   offset="1"
   style="stop-color:#220000"
   id="stop611" /><a:midPointStop
   offset="0"
   style="stop-color:#A6002F"
   id="midPointStop612" /><a:midPointStop
   offset="0.5"
   style="stop-color:#A6002F"
   id="midPointStop613" /><a:midPointStop
   offset="1"
   style="stop-color:#220000"
   id="midPointStop614" /></radialGradient><path
   i:knockout="Off"
   fill="url(#XMLID_1_)"
   d="M12.5,17.6c3-0.5-4.5-4.8,0.6,1.3c3.6,5.7-7.3,10.5-7.7,14.6        c-0.9,7,7.5,9.5,7.5,9.5l-0.7-2.1l4.3,3.5l-4.8,2.9l1.2-2.1c0-0.2,0,0,0-0.2C9.2,44.8-0.2,39.3,2.1,32.6        c2.2-5.8,10.7-10.4,7.3-15.1c-3.4-4.7,10.4-5.1-0.1-0.1c-1.3-13,6.7,0.8,3.7,1.3C13.8,13.8,14.9,18.3,12.5,17.6z"
   id="path615" /><path
   i:knockout="Off"
   opacity="0.1517"
   fill="none"
   stroke="#210700"
   stroke-width="1.5038"
   stroke-linejoin="round"
   d="        M12.5,17.6c3-0.5-4.5-4.8,0.6,1.3c3.6,5.7-7.3,10.5-7.7,14.6c-0.9,7,7.5,9.5,7.5,9.5l-0.7-2.1l4.3,3.5l-4.8,2.9l1.2-2.1        c0-0.2,0,0,0-0.2C9.2,44.8-0.2,39.3,2.1,32.6c2.2-5.8,10.7-10.4,7.3-15.1c-3.4-4.7,10.4-5.1-0.1-0.1c-1.3-13,6.7,0.8,3.7,1.3        C13.8,13.8,14.9,18.3,12.5,17.6z"
   id="path616" /></g><g
   id="path667"
   nodetypes="cccccccccccccc"><radialGradient
   id="XMLID_2_"
   cx="-169.3789"
   cy="427.2422"
   r="0.1131"
   fx="-169.3789"
   fy="427.2422"
   gradientTransform="matrix(104.5895 0 0 -242.3495 17736.4219 103587.8125)"
   gradientUnits="userSpaceOnUse"><stop
   offset="0"
   style="stop-color:#A6002F"
   id="stop619" /><stop
   offset="1"
   style="stop-color:#220000"
   id="stop620" /><a:midPointStop
   offset="0"
   style="stop-color:#A6002F"
   id="midPointStop621" /><a:midPointStop
   offset="0.5"
   style="stop-color:#A6002F"
   id="midPointStop622" /><a:midPointStop
   offset="1"
   style="stop-color:#220000"
   id="midPointStop623" /></radialGradient><path
   i:knockout="Off"
   fill="url(#XMLID_2_)"
   d="M12.3,17.8C15.4,17.3,7.7,13,13,19c3.7,5.6-7.5,10.5-8,14.5        c-0.9,6.9,7.7,9.4,7.7,9.4L12,40.9l4.4,3.4l-4.9,2.9l1.2-2c0-0.2,0,0,0-0.2C9,44.8-0.8,39.3,1.7,32.7        c2.3-5.8,11-10.4,7.6-15.1c-3.5-4.7,10.7-5-0.1-0.1C7.8,4.6,16,18.4,13,18.8C13.7,14,14.8,18.5,12.3,17.8z"
   id="path624" /><path
   i:knockout="Off"
   opacity="0.1517"
   fill="none"
   stroke="#210700"
   stroke-width="2.4387"
   stroke-linejoin="round"
   d="        M12.3,17.8C15.4,17.3,7.7,13,13,19c3.7,5.6-7.5,10.5-8,14.5c-0.9,6.9,7.7,9.4,7.7,9.4L12,40.9l4.4,3.4l-4.9,2.9l1.2-2        c0-0.2,0,0,0-0.2C9,44.8-0.8,39.3,1.7,32.7c2.3-5.8,11-10.4,7.6-15.1c-3.5-4.7,10.7-5-0.1-0.1C7.8,4.6,16,18.4,13,18.8        C13.7,14,14.8,18.5,12.3,17.8z"
   id="path625" /></g><radialGradient
   id="path665_1_"
   cx="-168.7476"
   cy="426.8086"
   r="0.1137"
   fx="-168.7476"
   fy="426.8086"
   gradientTransform="matrix(101.3323 0 0 -243.5823 17109.1016 103990.4766)"
   gradientUnits="userSpaceOnUse"><stop
   offset="0"
   style="stop-color:#A6002F"
   id="stop627" /><stop
   offset="1"
   style="stop-color:#220000"
   id="stop628" /><a:midPointStop
   offset="0"
   style="stop-color:#A6002F"
   id="midPointStop629" /><a:midPointStop
   offset="0.5"
   style="stop-color:#A6002F"
   id="midPointStop630" /><a:midPointStop
   offset="1"
   style="stop-color:#220000"
   id="midPointStop631" /></radialGradient><path
   id="path665"
   nodetypes="cccccccccccccc"
   fill="url(#path665_1_)"
   stroke="#6E0700"
   stroke-width="0.5765"
   stroke-linejoin="round"
   d="       M13.1,18.9c3.6,5.7-7.3,10.5-7.7,14.6c-0.9,7,7.5,9.5,7.5,9.5l-0.7-2.1l4.3,3.5l-4.8,2.9l1.2-2.1c0-0.2,0,0,0-0.2       C9.2,44.8-0.2,39.3,2.1,32.6c2.2-5.8,10.7-10.4,7.3-15.1c-3.4-4.7,10.4-5.1-0.1-0.1c-1.3-13,6.7,0.8,3.7,1.3       C13.8,13.8,8,12.8,13.1,18.9z" /></g><path
   id="path597_5_"
   i:isolated="yes"
   i:knockout="Off"
   opacity="0.15"
   fill="none"
   stroke="#474000"
   stroke-width="1.8818"
   enable-background="new    "
   d="      M6.6,20.5c0-10.7,8-19.3,17.8-19.3c9.8,0,18.4,8.1,18.4,18.7c0,10.7-8.6,19.9-18.4,19.9C14.6,39.8,6.6,31.2,6.6,20.5z" /><path
   id="path597_4_"
   i:isolated="yes"
   i:knockout="Off"
   opacity="0.2"
   fill="none"
   stroke="#474000"
   stroke-width="0.9409"
   enable-background="new    "
   d="      M6.6,20.5c0-10.7,8-19.3,17.8-19.3c9.8,0,18.4,8.1,18.4,18.7c0,10.7-8.6,19.9-18.4,19.9C14.6,39.8,6.6,31.2,6.6,20.5z" /><path
   id="path597_3_"
   i:isolated="yes"
   i:knockout="Off"
   opacity="0.3"
   fill="none"
   stroke="#474000"
   stroke-width="0.4704"
   enable-background="new    "
   d="      M6.6,20.5c0-10.7,8-19.3,17.8-19.3c9.8,0,18.4,8.1,18.4,18.7c0,10.7-8.6,19.9-18.4,19.9C14.6,39.8,6.6,31.2,6.6,20.5z" /><radialGradient
   id="path700_1_"
   cx="-679.0298"
   cy="-1.4814"
   r="6.370923e-002"
   fx="-679.0298"
   fy="-1.4814"
   gradientTransform="matrix(310.7065 0 0 144.1183 211004.8281 255.4235)"
   gradientUnits="userSpaceOnUse"><stop
   offset="0"
   style="stop-color:#261700"
   id="stop637" /><stop
   offset="1"
   style="stop-color:#D2D2D2"
   id="stop638" /><a:midPointStop
   offset="0"
   style="stop-color:#261700"
   id="midPointStop639" /><a:midPointStop
   offset="0.5"
   style="stop-color:#261700"
   id="midPointStop640" /><a:midPointStop
   offset="1"
   style="stop-color:#D2D2D2"
   id="midPointStop641" /></radialGradient><path
   id="path700"
   i:isolated="yes"
   i:knockout="Off"
   opacity="0.3"
   fill="url(#path700_1_)"
   enable-background="new    "
   d="      M38.9,31.1c6.5,4.5,6,10.6-1.9,14.3c-7.9,3.7-19.5,3.1-25.9-1.5c-5.5-3.8-5.7-9.1-0.5-13.1c3.4,4.7,6.2,6.3,14,7.3      C31.1,38,35.3,35.1,38.9,31.1z" /><radialGradient
   id="path597_1_"
   cx="-145.6436"
   cy="393.9668"
   r="36.1539"
   fx="-145.6436"
   fy="393.9668"
   gradientTransform="matrix(1 0 0 -1 170.1553 426.2695)"
   gradientUnits="userSpaceOnUse"><stop
   offset="0"
   style="stop-color:#FFFF00"
   id="stop644" /><stop
   offset="9.246969e-002"
   style="stop-color:#FFE100"
   id="stop645" /><stop
   offset="0.3484"
   style="stop-color:#FF9200"
   id="stop646" /><stop
   offset="0.5762"
   style="stop-color:#FF5300"
   id="stop647" /><stop
   offset="0.7673"
   style="stop-color:#FF2600"
   id="stop648" /><stop
   offset="0.9145"
   style="stop-color:#FF0A00"
   id="stop649" /><stop
   offset="1"
   style="stop-color:#FF0000"
   id="stop650" /><a:midPointStop
   offset="0"
   style="stop-color:#FFFF00"
   id="midPointStop651" /><a:midPointStop
   offset="0.5"
   style="stop-color:#FFFF00"
   id="midPointStop652" /><a:midPointStop
   offset="9.246969e-002"
   style="stop-color:#FFE100"
   id="midPointStop653" /><a:midPointStop
   offset="0.5"
   style="stop-color:#FFE100"
   id="midPointStop654" /><a:midPointStop
   offset="0.3484"
   style="stop-color:#FF9200"
   id="midPointStop655" /><a:midPointStop
   offset="0.5"
   style="stop-color:#FF9200"
   id="midPointStop656" /><a:midPointStop
   offset="0.5762"
   style="stop-color:#FF5300"
   id="midPointStop657" /><a:midPointStop
   offset="0.5"
   style="stop-color:#FF5300"
   id="midPointStop658" /><a:midPointStop
   offset="0.7673"
   style="stop-color:#FF2600"
   id="midPointStop659" /><a:midPointStop
   offset="0.5"
   style="stop-color:#FF2600"
   id="midPointStop660" /><a:midPointStop
   offset="0.9145"
   style="stop-color:#FF0A00"
   id="midPointStop661" /><a:midPointStop
   offset="0.5"
   style="stop-color:#FF0A00"
   id="midPointStop662" /><a:midPointStop
   offset="1"
   style="stop-color:#FF0000"
   id="midPointStop663" /></radialGradient><path
   id="path597"
   fill="url(#path597_1_)"
   d="M6.6,20.5c0-10.7,8-19.3,17.8-19.3c9.9,0,18.4,8,18.4,18.7      c0,10.7-8.6,19.9-18.4,19.9C14.6,39.8,6.6,31.2,6.6,20.5z" /><radialGradient
   id="path597_6_"
   cx="-144.3105"
   cy="422.6338"
   r="30.6737"
   fx="-144.3105"
   fy="422.6338"
   gradientTransform="matrix(1 0 0 -1 170.1553 426.2695)"
   gradientUnits="userSpaceOnUse"><stop
   offset="0"
   style="stop-color:#FFFFB1"
   id="stop666" /><stop
   offset="3.518873e-002"
   style="stop-color:#FFECA4"
   id="stop667" /><stop
   offset="0.1445"
   style="stop-color:#FFB57E"
   id="stop668" /><stop
   offset="0.2576"
   style="stop-color:#FF855C"
   id="stop669" /><stop
   offset="0.3722"
   style="stop-color:#FF5C40"
   id="stop670" /><stop
   offset="0.4887"
   style="stop-color:#FF3B29"
   id="stop671" /><stop
   offset="0.6076"
   style="stop-color:#FF2117"
   id="stop672" /><stop
   offset="0.7299"
   style="stop-color:#FF0E0A"
   id="stop673" /><stop
   offset="0.8577"
   style="stop-color:#FF0402"
   id="stop674" /><stop
   offset="1"
   style="stop-color:#FF0000"
   id="stop675" /><a:midPointStop
   offset="0"
   style="stop-color:#FFFFB1"
   id="midPointStop676" /><a:midPointStop
   offset="0.5"
   style="stop-color:#FFFFB1"
   id="midPointStop677" /><a:midPointStop
   offset="3.518873e-002"
   style="stop-color:#FFECA4"
   id="midPointStop678" /><a:midPointStop
   offset="0.5"
   style="stop-color:#FFECA4"
   id="midPointStop679" /><a:midPointStop
   offset="0.1445"
   style="stop-color:#FFB57E"
   id="midPointStop680" /><a:midPointStop
   offset="0.5"
   style="stop-color:#FFB57E"
   id="midPointStop681" /><a:midPointStop
   offset="0.2576"
   style="stop-color:#FF855C"
   id="midPointStop682" /><a:midPointStop
   offset="0.5"
   style="stop-color:#FF855C"
   id="midPointStop683" /><a:midPointStop
   offset="0.3722"
   style="stop-color:#FF5C40"
   id="midPointStop684" /><a:midPointStop
   offset="0.5"
   style="stop-color:#FF5C40"
   id="midPointStop685" /><a:midPointStop
   offset="0.4887"
   style="stop-color:#FF3B29"
   id="midPointStop686" /><a:midPointStop
   offset="0.5"
   style="stop-color:#FF3B29"
   id="midPointStop687" /><a:midPointStop
   offset="0.6076"
   style="stop-color:#FF2117"
   id="midPointStop688" /><a:midPointStop
   offset="0.5"
   style="stop-color:#FF2117"
   id="midPointStop689" /><a:midPointStop
   offset="0.7299"
   style="stop-color:#FF0E0A"
   id="midPointStop690" /><a:midPointStop
   offset="0.5"
   style="stop-color:#FF0E0A"
   id="midPointStop691" /><a:midPointStop
   offset="0.8577"
   style="stop-color:#FF0402"
   id="midPointStop692" /><a:midPointStop
   offset="0.5"
   style="stop-color:#FF0402"
   id="midPointStop693" /><a:midPointStop
   offset="1"
   style="stop-color:#FF0000"
   id="midPointStop694" /></radialGradient><path
   id="path597_2_"
   fill="url(#path597_6_)"
   d="M13.2,8.1c0-3.8,5-6.9,11.1-6.9c6.1,0,11.4,2.9,11.4,6.7      C35.7,11.7,13.2,11.9,13.2,8.1z" /><rect
   id="rect662"
   i:knockout="Off"
   fill="none"
   width="48"
   height="48" /><g
   id="path643_1_"
   nodetypes="cs"><path
   i:knockout="Off"
   opacity="3.320000e-002"
   fill="none"
   stroke="#000000"
   stroke-width="2.091"
   stroke-linecap="round"
   d="       M12,29.5c4.6,9,19.6,8.8,24.8,0.3"
   id="path698" /></g><radialGradient
   id="path630_1_"
   cx="-164.8076"
   cy="426.5977"
   r="8.816679e-002"
   fx="-164.8076"
   fy="426.5977"
   gradientTransform="matrix(-47.8028 0 0 -58.6806 -7845.9834 25052.2852)"
   gradientUnits="userSpaceOnUse"><stop
   offset="0"
   style="stop-color:#DEE2E7"
   id="stop700" /><stop
   offset="1"
   style="stop-color:#FFFFFF"
   id="stop701" /><a:midPointStop
   offset="0"
   style="stop-color:#DEE2E7"
   id="midPointStop702" /><a:midPointStop
   offset="0.5"
   style="stop-color:#DEE2E7"
   id="midPointStop703" /><a:midPointStop
   offset="1"
   style="stop-color:#FFFFFF"
   id="midPointStop704" /></radialGradient><path
   id="path630"
   type="arc"
   cx="50.24698"
   cy="478.4100"
   rx="24.52531"
   ry="34.99345"
   fill="url(#path630_1_)"
   stroke="#7C5202"
   d="      M30,18.5c0-2.1,1.4-3.9,3.2-3.9c1.7,0,3.2,1.7,3.2,3.9c0,0,0,0,0,0c0,2.1-1.4,3.9-3.2,3.9C31.4,22.4,30,20.7,30,18.5      C30,18.5,30,18.5,30,18.5z" /><radialGradient
   id="path637_1_"
   cx="-159.6274"
   cy="426.8564"
   r="8.175509e-002"
   fx="-159.6274"
   fy="426.8564"
   gradientTransform="matrix(-19.9085 0 0 -30.5783 -3144.7751 13070.4414)"
   gradientUnits="userSpaceOnUse"><stop
   offset="0"
   style="stop-color:#000082"
   id="stop707" /><stop
   offset="1"
   style="stop-color:#000000"
   id="stop708" /><a:midPointStop
   offset="0"
   style="stop-color:#000082"
   id="midPointStop709" /><a:midPointStop
   offset="0.5"
   style="stop-color:#000082"
   id="midPointStop710" /><a:midPointStop
   offset="1"
   style="stop-color:#000000"
   id="midPointStop711" /></radialGradient><path
   id="path637"
   type="arc"
   cx="61.64901"
   cy="495.8291"
   rx="10.46870"
   ry="10.89169"
   fill="url(#path637_1_)"
   d="      M31.4,18.9c0-1.1,0.6-2,1.3-2c0.7,0,1.3,0.9,1.3,2c0,0,0,0,0,0c0,1.1-0.6,2-1.3,2C32,20.9,31.4,20,31.4,18.9      C31.4,18.9,31.4,18.9,31.4,18.9z" /><path
   id="path639_1_"
   nodetypes="cs"
   fill="none"
   stroke="#795000"
   stroke-width="1.8"
   stroke-linecap="round"
   d="      M13.2,28.8c4.1,7.9,17.6,7.7,22.3,0.3" /><path
   id="path640"
   nodetypes="cs"
   opacity="0.2"
   fill="none"
   stroke="#000000"
   stroke-width="3.2535"
   stroke-linecap="round"
   d="      M13.1,28.8c4.1,8.1,17.6,7.9,22.3,0.3" /><radialGradient
   id="path650_2_"
   cx="-170.0952"
   cy="426.5977"
   r="8.813623e-002"
   fx="-170.0952"
   fy="426.5977"
   gradientTransform="matrix(47.8028 0 0 -58.6806 8147.7354 25052.2852)"
   gradientUnits="userSpaceOnUse"><stop
   offset="0"
   style="stop-color:#DEE2E7"
   id="stop716" /><stop
   offset="1"
   style="stop-color:#FFFFFF"
   id="stop717" /><a:midPointStop
   offset="0"
   style="stop-color:#DEE2E7"
   id="midPointStop718" /><a:midPointStop
   offset="0.5"
   style="stop-color:#DEE2E7"
   id="midPointStop719" /><a:midPointStop
   offset="1"
   style="stop-color:#FFFFFF"
   id="midPointStop720" /></radialGradient><path
   id="path650_1_"
   type="arc"
   cx="50.24698"
   cy="478.4100"
   rx="24.52531"
   ry="34.99345"
   fill="url(#path650_2_)"
   stroke="#7C3902"
   d="      M19,18.5c0-2.1-1.4-3.9-3.2-3.9c-1.7,0-3.2,1.7-3.2,3.9c0,0,0,0,0,0c0,2.1,1.4,3.9,3.2,3.9C17.6,22.4,19,20.7,19,18.5      C19,18.5,19,18.5,19,18.5z" /><radialGradient
   id="path656_2_"
   cx="-172.3999"
   cy="426.8564"
   r="8.180764e-002"
   fx="-172.3999"
   fy="426.8564"
   gradientTransform="matrix(19.9085 0 0 -30.5783 3448.2458 13070.4414)"
   gradientUnits="userSpaceOnUse"><stop
   offset="0"
   style="stop-color:#000082"
   id="stop723" /><stop
   offset="1"
   style="stop-color:#000000"
   id="stop724" /><a:midPointStop
   offset="0"
   style="stop-color:#000082"
   id="midPointStop725" /><a:midPointStop
   offset="0.5"
   style="stop-color:#000082"
   id="midPointStop726" /><a:midPointStop
   offset="1"
   style="stop-color:#000000"
   id="midPointStop727" /></radialGradient><path
   id="path656_1_"
   type="arc"
   cx="61.64901"
   cy="495.8291"
   rx="10.46870"
   ry="10.89169"
   fill="url(#path656_2_)"
   d="      M17.9,18.9c0-1.1-0.6-2-1.3-2c-0.7,0-1.3,0.9-1.3,2c0,0,0,0,0,0c0,1.1,0.6,2,1.3,2C17.3,20.9,17.9,20,17.9,18.9      C17.9,18.9,17.9,18.9,17.9,18.9z" /><linearGradient
   id="path647_1_"
   gradientUnits="userSpaceOnUse"
   x1="-169.5239"
   y1="425.207"
   x2="-169.4615"
   y2="425.1328"
   gradientTransform="matrix(45.7106 0 0 -62.9194 7757.5396 26754.2969)"><stop
   offset="0"
   style="stop-color:#A6002F"
   id="stop730" /><stop
   offset="1"
   style="stop-color:#220000"
   id="stop731" /><a:midPointStop
   offset="0"
   style="stop-color:#A6002F"
   id="midPointStop732" /><a:midPointStop
   offset="0.5"
   style="stop-color:#A6002F"
   id="midPointStop733" /><a:midPointStop
   offset="1"
   style="stop-color:#220000"
   id="midPointStop734" /></linearGradient><path
   id="path647"
   fill="url(#path647_1_)"
   stroke="#870000"
   stroke-width="0.7095"
   stroke-linecap="round"
   stroke-linejoin="round"
   d="      M11.3,8.7c-1.1-6.5-3.5-7.8-3.3-8.2c0.6-0.7,3,0.8,6,5.7C13,6.3,11.7,7.4,11.3,8.7z" /><radialGradient
   id="path648_2_"
   cx="-169.4897"
   cy="425.8516"
   r="5.741735e-002"
   fx="-169.4897"
   fy="425.8516"
   gradientTransform="matrix(67.292 -50.96 -27.3576 -43.3091 23069.6211 9813.8955)"
   gradientUnits="userSpaceOnUse"><stop
   offset="0"
   style="stop-color:#000000"
   id="stop737" /><stop
   offset="1"
   style="stop-color:#000000"
   id="stop738" /><a:midPointStop
   offset="0"
   style="stop-color:#000000"
   id="midPointStop739" /><a:midPointStop
   offset="0.5"
   style="stop-color:#000000"
   id="midPointStop740" /><a:midPointStop
   offset="1"
   style="stop-color:#000000"
   id="midPointStop741" /></radialGradient><path
   id="path648_1_"
   type="arc"
   cx="193.7228"
   cy="512.6453"
   rx="53.29492"
   ry="31.30022"
   opacity="0.18"
   fill="url(#path648_2_)"
   d="      M18.1,5.5c-1-1.6-3.8-1.4-6.2,0.5c-2.5,1.9-3.6,4.6-2.6,6.2c0,0,0,0,0,0c1,1.6,3.8,1.4,6.2-0.5C17.9,9.9,19.1,7.1,18.1,5.5      C18.1,5.5,18.1,5.5,18.1,5.5z" /><linearGradient
   id="path663_1_"
   gradientUnits="userSpaceOnUse"
   x1="-173.4336"
   y1="425.2383"
   x2="-173.3711"
   y2="425.164"
   gradientTransform="matrix(45.7105 0 0 -62.9194 7963.8921 26755.9844)"><stop
   offset="0"
   style="stop-color:#A6002F"
   id="stop744" /><stop
   offset="1"
   style="stop-color:#220000"
   id="stop745" /><a:midPointStop
   offset="0"
   style="stop-color:#A6002F"
   id="midPointStop746" /><a:midPointStop
   offset="0.5"
   style="stop-color:#A6002F"
   id="midPointStop747" /><a:midPointStop
   offset="1"
   style="stop-color:#220000"
   id="midPointStop748" /></linearGradient><path
   id="path663"
   fill="url(#path663_1_)"
   stroke="#870000"
   stroke-width="0.7095"
   stroke-linecap="round"
   stroke-linejoin="round"
   d="      M37.8,9c1.1-6.5,3.5-7.8,3.3-8.2c-0.6-0.7-3,0.8-6,5.7C36.2,6.5,37.4,7.6,37.8,9z" /><radialGradient
   id="path664_1_"
   cx="-166.9204"
   cy="422.8447"
   r="5.685718e-002"
   fx="-166.9204"
   fy="422.8447"
   gradientTransform="matrix(-67.292 -50.96 27.3576 -43.3091 -22765.1836 9815.583)"
   gradientUnits="userSpaceOnUse"><stop
   offset="0"
   style="stop-color:#000000"
   id="stop751" /><stop
   offset="1"
   style="stop-color:#000000"
   id="stop752" /><a:midPointStop
   offset="0"
   style="stop-color:#000000"
   id="midPointStop753" /><a:midPointStop
   offset="0.5"
   style="stop-color:#000000"
   id="midPointStop754" /><a:midPointStop
   offset="1"
   style="stop-color:#000000"
   id="midPointStop755" /></radialGradient><path
   id="path664"
   type="arc"
   cx="193.7228"
   cy="512.6453"
   rx="53.29492"
   ry="31.30022"
   opacity="0.2"
   fill="url(#path664_1_)"
   d="      M31.3,5.8c1-1.6,3.8-1.4,6.2,0.5c2.5,1.9,3.6,4.6,2.6,6.2c0,0,0,0,0,0c-1,1.6-3.8,1.4-6.2-0.5C31.5,10.1,30.3,7.3,31.3,5.8      C31.3,5.8,31.3,5.8,31.3,5.8z" /></g></g></svg>
