<?xml version="1.0" encoding="UTF-8" standalone="no"?>
<!DOCTYPE svg PUBLIC "-//W3C//DTD SVG 20010904//EN"
"http://www.w3.org/TR/2001/REC-SVG-20010904/DTD/svg10.dtd">
<!-- Created with Sodipodi ("http://www.sodipodi.com/") -->
<svg
   xmlns:x="http://ns.adobe.com/Extensibility/1.0/"
   xmlns:i="http://ns.adobe.com/AdobeIllustrator/10.0/"
   xmlns:graph="http://ns.adobe.com/Graphs/1.0/"
   xmlns="http://www.w3.org/2000/svg"
   xmlns:xlink="http://www.w3.org/1999/xlink"
   xmlns:a="http://ns.adobe.com/AdobeSVGViewerExtensions/3.0/"
   xml:space="preserve"
   i:viewOrigin="167.2036 430.9771"
   i:rulerOrigin="0 0"
   i:pageBounds="0 792 612 0"
   width="52.6"
   height="51.4"
   viewBox="0 0 52.6 51.4"
   overflow="visible"
   enable-background="new 0 0 52.6 51.4"
   xmlns:sodipodi="http://sodipodi.sourceforge.net/DTD/sodipodi-0.dtd"
   id="svg602"
   sodipodi:version="0.34"
   sodipodi:docname="C:\msys\home\su_blanc\mldonkey-2.5.12\src\gtk2\rsvg\emoticons\emoticon_sun.svg"><defs
   id="defs677" /><sodipodi:namedview
   id="namedview676" /><g
   id="Layer_1"
   i:knockout="Off"
   i:layer="yes"
   i:dimmedPercent="50"
   i:rgbTrio="#4F008000FFFF"><g
   id="g606"><radialGradient
   id="path700_1_"
   cx="-846.7744"
   cy="431.7212"
   r="5.917140e-002"
   fx="-846.7744"
   fy="431.7212"
   gradientTransform="matrix(310.7065 0 0 -144.1183 263126.125 62264.3047)"
   gradientUnits="userSpaceOnUse"><stop
   offset="0"
   style="stop-color:#261700"
   id="stop608" /><stop
   offset="1"
   style="stop-color:#D2D2D2"
   id="stop609" /><a:midPointStop
   offset="0"
   style="stop-color:#261700"
   id="midPointStop610" /><a:midPointStop
   offset="0.5"
   style="stop-color:#261700"
   id="midPointStop611" /><a:midPointStop
   offset="1"
   style="stop-color:#D2D2D2"
   id="midPointStop612" /></radialGradient><path
   id="path700"
   i:isolated="yes"
   i:knockout="Off"
   opacity="0.3"
   fill="url(#path700_1_)"
   enable-background="new    "
   d="      M39.9,35.4c6,4.2,5.5,9.8-1.8,13.2c-7.3,3.4-18,2.9-23.9-1.4c-5.1-3.5-5.3-8.4-0.5-12.1c3.1,4.3,5.7,5.8,12.9,6.7      C32.7,41.8,36.5,39.1,39.9,35.4z" /><polygon
   i:knockout="Off"
   opacity="0.3"
   fill="none"
   stroke="#000000"
   stroke-width="2.7671"
   points="49.6,32.3 33.8,34.4       26.3,48.3 19.7,34.3 4,31.9 15.8,21.2 13.5,5.9 27.4,13.2 41.7,6.1 38.5,21.4 "
   id="polygon614" /><polygon
   i:knockout="Off"
   opacity="0.3"
   fill="none"
   stroke="#000000"
   stroke-width="2.7671"
   points="40.9,45 26.6,38.1       12.7,45.6 14.9,30.2 3.1,19.6 18.8,17.1 25.3,3.1 32.9,16.8 48.7,18.7 37.7,29.8 "
   id="polygon615" /><radialGradient
   id="XMLID_1_"
   cx="25.2949"
   cy="25.7212"
   r="22.137"
   fx="25.2949"
   fy="25.7212"
   gradientTransform="matrix(0.9742 0.2258 -0.2258 0.9742 5.5906 -5.1992)"
   gradientUnits="userSpaceOnUse"><stop
   offset="0"
   style="stop-color:#FF6500"
   id="stop617" /><stop
   offset="1"
   style="stop-color:#FFFF00"
   id="stop618" /><a:midPointStop
   offset="0"
   style="stop-color:#FF6500"
   id="midPointStop619" /><a:midPointStop
   offset="0.5"
   style="stop-color:#FF6500"
   id="midPointStop620" /><a:midPointStop
   offset="1"
   style="stop-color:#FFFF00"
   id="midPointStop621" /></radialGradient><polygon
   i:knockout="Off"
   fill="url(#XMLID_1_)"
   points="40.9,45 26.6,38.1 12.7,45.6 14.9,30.2 3.1,19.6 18.8,17.1 25.3,3.1       32.9,16.8 48.7,18.7 37.7,29.8 "
   id="polygon622" /><radialGradient
   id="XMLID_2_"
   cx="42.1743"
   cy="-49.1323"
   r="22.137"
   fx="42.1743"
   fy="-49.1323"
   gradientTransform="matrix(0.9379 -0.347 0.347 0.9379 2.6308 85.8734)"
   gradientUnits="userSpaceOnUse"><stop
   offset="0"
   style="stop-color:#FF6500"
   id="stop624" /><stop
   offset="1"
   style="stop-color:#FFFF00"
   id="stop625" /><a:midPointStop
   offset="0"
   style="stop-color:#FF6500"
   id="midPointStop626" /><a:midPointStop
   offset="0.5"
   style="stop-color:#FF6500"
   id="midPointStop627" /><a:midPointStop
   offset="1"
   style="stop-color:#FFFF00"
   id="midPointStop628" /></radialGradient><polygon
   i:knockout="Off"
   fill="url(#XMLID_2_)"
   points="49.6,32.3 33.8,34.4 26.3,48.3 19.7,34.3 4,31.9 15.8,21.2 13.5,5.9       27.4,13.2 41.7,6.1 38.5,21.4 "
   id="polygon629" /><path
   id="path597_5_"
   i:isolated="yes"
   i:knockout="Off"
   opacity="0.15"
   fill="none"
   stroke="#474000"
   stroke-width="1.7357"
   enable-background="new    "
   d="      M10.1,24.7c0-9.9,7.4-17.8,16.4-17.8s17,7.5,17,17.2c0,9.9-7.9,18.4-17,18.4S10.1,34.6,10.1,24.7z" /><path
   id="path597_4_"
   i:isolated="yes"
   i:knockout="Off"
   opacity="0.2"
   fill="none"
   stroke="#474000"
   stroke-width="0.8679"
   enable-background="new    "
   d="      M10.1,24.7c0-9.9,7.4-17.8,16.4-17.8s17,7.5,17,17.2c0,9.9-7.9,18.4-17,18.4S10.1,34.6,10.1,24.7z" /><path
   id="path597_3_"
   i:isolated="yes"
   i:knockout="Off"
   opacity="0.3"
   fill="none"
   stroke="#474000"
   stroke-width="0.4339"
   enable-background="new    "
   d="      M10.1,24.7c0-9.9,7.4-17.8,16.4-17.8s17,7.5,17,17.2c0,9.9-7.9,18.4-17,18.4S10.1,34.6,10.1,24.7z" /><radialGradient
   id="path577_1_"
   cx="-808.8975"
   cy="391.8569"
   r="38.1416"
   fx="-808.8975"
   fy="391.8569"
   gradientTransform="matrix(298.9032 0 0 -316.3969 253131.4531 136264.7656)"
   gradientUnits="userSpaceOnUse"><stop
   offset="0"
   style="stop-color:#FF6F00"
   id="stop634" /><stop
   offset="1"
   style="stop-color:#FFFF00"
   id="stop635" /><a:midPointStop
   offset="0"
   style="stop-color:#FF6F00"
   id="midPointStop636" /><a:midPointStop
   offset="0.5"
   style="stop-color:#FF6F00"
   id="midPointStop637" /><a:midPointStop
   offset="1"
   style="stop-color:#FFFF00"
   id="midPointStop638" /></radialGradient><circle
   id="path577"
   fill="url(#path577_1_)"
   cx="27"
   cy="24.9"
   r="16.4" /><linearGradient
   id="path597_1_"
   gradientUnits="userSpaceOnUse"
   x1="-846.7671"
   y1="430.6499"
   x2="-846.7683"
   y2="430.5407"
   gradientTransform="matrix(303.6933 0 0 -316.3967 257184.5625 136264.75)"><stop
   offset="0"
   style="stop-color:#FF6500"
   id="stop641" /><stop
   offset="1"
   style="stop-color:#FFFF00"
   id="stop642" /><a:midPointStop
   offset="0"
   style="stop-color:#FF6500"
   id="midPointStop643" /><a:midPointStop
   offset="0.5"
   style="stop-color:#FF6500"
   id="midPointStop644" /><a:midPointStop
   offset="1"
   style="stop-color:#FFFF00"
   id="midPointStop645" /></linearGradient><path
   id="path597"
   i:isolated="yes"
   i:knockout="Off"
   opacity="0.75"
   fill="url(#path597_1_)"
   enable-background="new    "
   d="      M10.1,24.7c0-9.9,7.4-17.8,16.4-17.8c9.1,0,17,7.4,17,17.2c0,9.9-7.9,18.4-17,18.4S10.1,34.6,10.1,24.7z" /><radialGradient
   id="path597_6_"
   cx="-653.2393"
   cy="6.9492"
   r="18.6649"
   fx="-653.2393"
   fy="6.9492"
   gradientTransform="matrix(1 0 0 1 679.7031 -1.757813e-002)"
   gradientUnits="userSpaceOnUse"><stop
   offset="0"
   style="stop-color:#FFFFFF"
   id="stop648" /><stop
   offset="0.1046"
   style="stop-color:#FFFEFA"
   id="stop649" /><stop
   offset="0.2282"
   style="stop-color:#FFFBEC"
   id="stop650" /><stop
   offset="0.3616"
   style="stop-color:#FFF7D4"
   id="stop651" /><stop
   offset="0.5018"
   style="stop-color:#FFF1B2"
   id="stop652" /><stop
   offset="0.6474"
   style="stop-color:#FFE988"
   id="stop653" /><stop
   offset="0.7976"
   style="stop-color:#FFDF53"
   id="stop654" /><stop
   offset="0.9487"
   style="stop-color:#FFD316"
   id="stop655" /><stop
   offset="1"
   style="stop-color:#FFCF00"
   id="stop656" /><a:midPointStop
   offset="0"
   style="stop-color:#FFFFFF"
   id="midPointStop657" /><a:midPointStop
   offset="0.5"
   style="stop-color:#FFFFFF"
   id="midPointStop658" /><a:midPointStop
   offset="0.1046"
   style="stop-color:#FFFEFA"
   id="midPointStop659" /><a:midPointStop
   offset="0.5"
   style="stop-color:#FFFEFA"
   id="midPointStop660" /><a:midPointStop
   offset="0.2282"
   style="stop-color:#FFFBEC"
   id="midPointStop661" /><a:midPointStop
   offset="0.5"
   style="stop-color:#FFFBEC"
   id="midPointStop662" /><a:midPointStop
   offset="0.3616"
   style="stop-color:#FFF7D4"
   id="midPointStop663" /><a:midPointStop
   offset="0.5"
   style="stop-color:#FFF7D4"
   id="midPointStop664" /><a:midPointStop
   offset="0.5018"
   style="stop-color:#FFF1B2"
   id="midPointStop665" /><a:midPointStop
   offset="0.5"
   style="stop-color:#FFF1B2"
   id="midPointStop666" /><a:midPointStop
   offset="0.6474"
   style="stop-color:#FFE988"
   id="midPointStop667" /><a:midPointStop
   offset="0.5"
   style="stop-color:#FFE988"
   id="midPointStop668" /><a:midPointStop
   offset="0.7976"
   style="stop-color:#FFDF53"
   id="midPointStop669" /><a:midPointStop
   offset="0.5"
   style="stop-color:#FFDF53"
   id="midPointStop670" /><a:midPointStop
   offset="0.9487"
   style="stop-color:#FFD316"
   id="midPointStop671" /><a:midPointStop
   offset="0.5"
   style="stop-color:#FFD316"
   id="midPointStop672" /><a:midPointStop
   offset="1"
   style="stop-color:#FFCF00"
   id="midPointStop673" /></radialGradient><path
   id="path597_2_"
   i:isolated="yes"
   i:knockout="Off"
   opacity="0.75"
   fill="url(#path597_6_)"
   enable-background="new    "
   d="      M16.2,13.3c0-3.5,4.6-6.4,10.2-6.4s10.5,2.7,10.5,6.2C36.9,16.6,16.2,16.8,16.2,13.3z" /></g><rect
   id="rect662"
   x="2.3"
   y="2.9"
   i:knockout="Off"
   fill="none"
   width="48"
   height="48" /></g></svg>
