<?xml version="1.0" encoding="UTF-8" standalone="no"?>
<!DOCTYPE svg PUBLIC "-//W3C//DTD SVG 20010904//EN"
"http://www.w3.org/TR/2001/REC-SVG-20010904/DTD/svg10.dtd">
<!-- Created with Sodipodi ("http://www.sodipodi.com/") -->
<svg
   xmlns:x="http://ns.adobe.com/Extensibility/1.0/"
   xmlns:i="http://ns.adobe.com/AdobeIllustrator/10.0/"
   xmlns:graph="http://ns.adobe.com/Graphs/1.0/"
   xmlns="http://www.w3.org/2000/svg"
   xmlns:xlink="http://www.w3.org/1999/xlink"
   xmlns:a="http://ns.adobe.com/AdobeSVGViewerExtensions/3.0/"
   xml:space="preserve"
   i:viewOrigin="169.9258 427.7109"
   i:rulerOrigin="0 0"
   i:pageBounds="0 792 612 0"
   width="48"
   height="48.7"
   viewBox="0 0 48 48.7"
   overflow="visible"
   enable-background="new 0 0 48 48.7"
   xmlns:sodipodi="http://sodipodi.sourceforge.net/DTD/sodipodi-0.dtd"
   id="svg602"
   sodipodi:version="0.34"
   sodipodi:docname="C:\msys\home\su_blanc\mldonkey-2.5.12\src\gtk2\rsvg\emoticons\emoticon_sleepy.svg"><defs
   id="defs704" /><sodipodi:namedview
   id="base" /><g
   id="Layer_1"
   i:knockout="Off"
   i:layer="yes"
   i:dimmedPercent="50"
   i:rgbTrio="#4F008000FFFF"><g
   id="g606"><path
   id="path597_5_"
   i:isolated="yes"
   i:knockout="Off"
   opacity="0.15"
   fill="none"
   stroke="#474000"
   stroke-width="1.8818"
   enable-background="new    "
   d="      M5.6,20.2c0-10.7,8-19.3,17.8-19.3c9.8,0,18.4,8.1,18.4,18.7c0,10.7-8.6,19.9-18.4,19.9C13.6,39.5,5.6,30.9,5.6,20.2z" /><path
   id="path597_4_"
   i:isolated="yes"
   i:knockout="Off"
   opacity="0.2"
   fill="none"
   stroke="#474000"
   stroke-width="0.9409"
   enable-background="new    "
   d="      M5.6,20.2c0-10.7,8-19.3,17.8-19.3c9.8,0,18.4,8.1,18.4,18.7c0,10.7-8.6,19.9-18.4,19.9C13.6,39.5,5.6,30.9,5.6,20.2z" /><path
   id="path597_3_"
   i:isolated="yes"
   i:knockout="Off"
   opacity="0.3"
   fill="none"
   stroke="#474000"
   stroke-width="0.4704"
   enable-background="new    "
   d="      M5.6,20.2c0-10.7,8-19.3,17.8-19.3c9.8,0,18.4,8.1,18.4,18.7c0,10.7-8.6,19.9-18.4,19.9C13.6,39.5,5.6,30.9,5.6,20.2z" /><radialGradient
   id="path700_1_"
   cx="-679.5713"
   cy="-0.7402"
   r="6.388162e-002"
   fx="-679.5713"
   fy="-0.7402"
   gradientTransform="matrix(310.7065 0 0 144.1183 211172.2188 149.3426)"
   gradientUnits="userSpaceOnUse"><stop
   offset="0"
   style="stop-color:#261700"
   id="stop611" /><stop
   offset="1"
   style="stop-color:#D2D2D2"
   id="stop612" /><a:midPointStop
   offset="0"
   style="stop-color:#261700"
   id="midPointStop613" /><a:midPointStop
   offset="0.5"
   style="stop-color:#261700"
   id="midPointStop614" /><a:midPointStop
   offset="1"
   style="stop-color:#D2D2D2"
   id="midPointStop615" /></radialGradient><path
   id="path700"
   i:isolated="yes"
   i:knockout="Off"
   opacity="0.3"
   fill="url(#path700_1_)"
   enable-background="new    "
   d="      M37.9,31.8c6.5,4.5,6,10.6-1.9,14.3c-7.9,3.7-19.5,3.1-25.9-1.5c-5.5-3.8-5.7-9.1-0.5-13.1c3.4,4.7,6.2,6.3,14,7.3      C30.1,38.7,34.3,35.8,37.9,31.8z" /><radialGradient
   id="path577_1_"
   cx="-638.4961"
   cy="42.7715"
   r="41.5567"
   fx="-638.4961"
   fy="42.7715"
   gradientTransform="matrix(298.9032 0 0 316.3969 203151.1563 -98.4275)"
   gradientUnits="userSpaceOnUse"><stop
   offset="0"
   style="stop-color:#FF6F00"
   id="stop618" /><stop
   offset="1"
   style="stop-color:#FFFF00"
   id="stop619" /><a:midPointStop
   offset="0"
   style="stop-color:#FF6F00"
   id="midPointStop620" /><a:midPointStop
   offset="0.5"
   style="stop-color:#FF6F00"
   id="midPointStop621" /><a:midPointStop
   offset="1"
   style="stop-color:#FFFF00"
   id="midPointStop622" /></radialGradient><circle
   id="path577"
   fill="url(#path577_1_)"
   cx="23.9"
   cy="20.4"
   r="17.8" /><linearGradient
   id="path597_1_"
   gradientUnits="userSpaceOnUse"
   x1="-679.5654"
   y1="0.3184"
   x2="-679.5668"
   y2="0.4371"
   gradientTransform="matrix(303.6933 0 0 316.3967 206403.3125 -98.1642)"><stop
   offset="0"
   style="stop-color:#FF6500"
   id="stop625" /><stop
   offset="1"
   style="stop-color:#FFFF00"
   id="stop626" /><a:midPointStop
   offset="0"
   style="stop-color:#FF6500"
   id="midPointStop627" /><a:midPointStop
   offset="0.5"
   style="stop-color:#FF6500"
   id="midPointStop628" /><a:midPointStop
   offset="1"
   style="stop-color:#FFFF00"
   id="midPointStop629" /></linearGradient><path
   id="path597"
   i:isolated="yes"
   i:knockout="Off"
   opacity="0.75"
   fill="url(#path597_1_)"
   enable-background="new    "
   d="      M5.6,20.2c0-10.7,8-19.3,17.8-19.3c9.9,0,18.4,8,18.4,18.7c0,10.7-8.6,19.9-18.4,19.9C13.6,39.5,5.6,30.9,5.6,20.2z" /><radialGradient
   id="path597_6_"
   cx="-486.4063"
   cy="426.7461"
   r="20.2352"
   fx="-486.4063"
   fy="426.7461"
   gradientTransform="matrix(1 0 0 -1 509.7773 427.6934)"
   gradientUnits="userSpaceOnUse"><stop
   offset="0"
   style="stop-color:#FFFFFF"
   id="stop632" /><stop
   offset="0.1046"
   style="stop-color:#FFFEFA"
   id="stop633" /><stop
   offset="0.2282"
   style="stop-color:#FFFBEC"
   id="stop634" /><stop
   offset="0.3616"
   style="stop-color:#FFF7D4"
   id="stop635" /><stop
   offset="0.5018"
   style="stop-color:#FFF1B2"
   id="stop636" /><stop
   offset="0.6474"
   style="stop-color:#FFE988"
   id="stop637" /><stop
   offset="0.7976"
   style="stop-color:#FFDF53"
   id="stop638" /><stop
   offset="0.9487"
   style="stop-color:#FFD316"
   id="stop639" /><stop
   offset="1"
   style="stop-color:#FFCF00"
   id="stop640" /><a:midPointStop
   offset="0"
   style="stop-color:#FFFFFF"
   id="midPointStop641" /><a:midPointStop
   offset="0.5"
   style="stop-color:#FFFFFF"
   id="midPointStop642" /><a:midPointStop
   offset="0.1046"
   style="stop-color:#FFFEFA"
   id="midPointStop643" /><a:midPointStop
   offset="0.5"
   style="stop-color:#FFFEFA"
   id="midPointStop644" /><a:midPointStop
   offset="0.2282"
   style="stop-color:#FFFBEC"
   id="midPointStop645" /><a:midPointStop
   offset="0.5"
   style="stop-color:#FFFBEC"
   id="midPointStop646" /><a:midPointStop
   offset="0.3616"
   style="stop-color:#FFF7D4"
   id="midPointStop647" /><a:midPointStop
   offset="0.5"
   style="stop-color:#FFF7D4"
   id="midPointStop648" /><a:midPointStop
   offset="0.5018"
   style="stop-color:#FFF1B2"
   id="midPointStop649" /><a:midPointStop
   offset="0.5"
   style="stop-color:#FFF1B2"
   id="midPointStop650" /><a:midPointStop
   offset="0.6474"
   style="stop-color:#FFE988"
   id="midPointStop651" /><a:midPointStop
   offset="0.5"
   style="stop-color:#FFE988"
   id="midPointStop652" /><a:midPointStop
   offset="0.7976"
   style="stop-color:#FFDF53"
   id="midPointStop653" /><a:midPointStop
   offset="0.5"
   style="stop-color:#FFDF53"
   id="midPointStop654" /><a:midPointStop
   offset="0.9487"
   style="stop-color:#FFD316"
   id="midPointStop655" /><a:midPointStop
   offset="0.5"
   style="stop-color:#FFD316"
   id="midPointStop656" /><a:midPointStop
   offset="1"
   style="stop-color:#FFCF00"
   id="midPointStop657" /></radialGradient><path
   id="path597_2_"
   i:isolated="yes"
   i:knockout="Off"
   opacity="0.75"
   fill="url(#path597_6_)"
   enable-background="new    "
   d="      M12.2,7.8c0-3.8,5-6.9,11.1-6.9c6.1,0,11.4,2.9,11.4,6.7C34.7,11.4,12.2,11.6,12.2,7.8z" /><rect
   id="rect662"
   y="0.7"
   i:knockout="Off"
   fill="none"
   width="48"
   height="48" /><g
   id="path702"
   nodetypes="ccccc"><path
   i:knockout="Off"
   opacity="0.3697"
   fill="none"
   stroke="#000000"
   stroke-width="0.9689"
   d="M28.7,13.8       c-0.6,0-1-0.5-0.1-0.4c6.5,1.1,10.3,2.8,10.3,5.4c-0.2,0.7-1.6,0.4-1.6-0.2C36.8,16.4,35.1,15.1,28.7,13.8z"
   id="path661" /></g><path
   id="path703"
   nodetypes="ccccc"
   fill="#5D1A00"
   d="M28.7,13.8c-0.6,0-1-0.5-0.1-0.4c6.5,1.1,10.3,2.8,10.3,5.4      c-0.2,0.7-1.6,0.4-1.6-0.2C36.8,16.4,35.1,15.1,28.7,13.8z" /><g
   id="path704"
   nodetypes="ccccc"><path
   i:knockout="Off"
   opacity="0.3697"
   fill="none"
   stroke="#000000"
   stroke-width="0.3146"
   d="M28.7,13.8       c-0.6,0-1-0.5-0.1-0.4c6.5,1.1,10.3,2.8,10.3,5.4c-0.2,0.7-1.6,0.4-1.6-0.2C36.8,16.4,35.1,15.1,28.7,13.8z"
   id="path664" /></g><g
   id="g665"><g
   id="path921"
   nodetypes="ccccc"><path
   i:knockout="Off"
   opacity="0.3697"
   fill="none"
   stroke="#000000"
   stroke-width="0.8573"
   d="M18,12.7        c0.5,0.1,0.9-0.4,0.2-0.4c-5.6,0.5-9.1,1.7-9.8,4.1c0,0.7,1.2,0.5,1.4,0C10.8,14.5,12.5,13.4,18,12.7z"
   id="path667" /></g><path
   id="path922"
   nodetypes="ccccc"
   fill="#5D1A00"
   d="M17.1,12.4c0.4,0.1,0.7-0.5,0.2-0.4c-4.5,0.6-7.3,2-7.8,5       c0,0.8,1,0.6,1.1,0C11.3,14.5,12.7,13.2,17.1,12.4z" /><g
   id="path923"
   nodetypes="ccccc"><path
   i:knockout="Off"
   opacity="0.3697"
   fill="none"
   stroke="#000000"
   stroke-width="0.2783"
   d="M18,12.7        c0.5,0.1,0.9-0.4,0.2-0.4c-5.6,0.5-9.1,1.7-9.8,4.1c0,0.7,1.2,0.5,1.4,0C10.8,14.5,12.5,13.4,18,12.7z"
   id="path670" /></g></g><g
   id="g671"><g
   id="path755"
   nodetypes="cccccc"><linearGradient
   id="XMLID_1_"
   gradientUnits="userSpaceOnUse"
   x1="-172.3403"
   y1="429.9941"
   x2="-172.3463"
   y2="429.8932"
   gradientTransform="matrix(67.0105 0 0 -74.7332 11570.9121 32183.9297)"><stop
   offset="0"
   style="stop-color:#DEE2E7"
   id="stop674" /><stop
   offset="1"
   style="stop-color:#FFFFFF"
   id="stop675" /><a:midPointStop
   offset="0"
   style="stop-color:#DEE2E7"
   id="midPointStop676" /><a:midPointStop
   offset="0.5"
   style="stop-color:#DEE2E7"
   id="midPointStop677" /><a:midPointStop
   offset="1"
   style="stop-color:#FFFFFF"
   id="midPointStop678" /></linearGradient><path
   i:knockout="Off"
   fill="url(#XMLID_1_)"
   d="M23,25.7c3.3-0.1,5.5,1.7,5.7,6.1c-0.1,5.5-2,5.5-4.2,5.9        c-2.8-0.4-3.5-1.8-4.4-3.5c-1.3-1.7-1.9-0.8-2.1-4.3C18.2,27.4,20.8,25.8,23,25.7z"
   id="path679" /><path
   i:knockout="Off"
   opacity="3.000000e-002"
   fill="none"
   stroke="#000000"
   stroke-width="3.5568"
   d="M23,25.7        c3.3-0.1,5.5,1.7,5.7,6.1c-0.1,5.5-2,5.5-4.2,5.9c-2.8-0.4-3.5-1.8-4.4-3.5c-1.3-1.7-1.9-0.8-2.1-4.3        C18.2,27.4,20.8,25.8,23,25.7z"
   id="path680" /></g><g
   id="path756"
   nodetypes="cccccc"><path
   i:knockout="Off"
   fill="url(#XMLID_1_)"
   d="M23,25.7c3.3-0.1,5.5,1.7,5.7,6.1c-0.1,5.5-2,5.5-4.2,5.9        c-2.8-0.4-3.5-1.8-4.4-3.5c-1.3-1.7-1.9-0.8-2.1-4.3C18.2,27.4,20.8,25.8,23,25.7z"
   id="path682" /><path
   i:knockout="Off"
   opacity="3.000000e-002"
   fill="none"
   stroke="#000000"
   stroke-width="3.0558"
   d="M23,25.7        c3.3-0.1,5.5,1.7,5.7,6.1c-0.1,5.5-2,5.5-4.2,5.9c-2.8-0.4-3.5-1.8-4.4-3.5c-1.3-1.7-1.9-0.8-2.1-4.3        C18.2,27.4,20.8,25.8,23,25.7z"
   id="path683" /></g><g
   id="path757"
   nodetypes="cccccc"><path
   i:knockout="Off"
   fill="url(#XMLID_1_)"
   d="M23,25.7c3.3-0.1,5.5,1.7,5.7,6.1c-0.1,5.5-2,5.5-4.2,5.9        c-2.8-0.4-3.5-1.8-4.4-3.5c-1.3-1.7-1.9-0.8-2.1-4.3C18.2,27.4,20.8,25.8,23,25.7z"
   id="path685" /><path
   i:knockout="Off"
   opacity="3.000000e-002"
   fill="none"
   stroke="#000000"
   stroke-width="2.4747"
   d="M23,25.7        c3.3-0.1,5.5,1.7,5.7,6.1c-0.1,5.5-2,5.5-4.2,5.9c-2.8-0.4-3.5-1.8-4.4-3.5c-1.3-1.7-1.9-0.8-2.1-4.3        C18.2,27.4,20.8,25.8,23,25.7z"
   id="path686" /></g><g
   id="path758"
   nodetypes="cccccc"><path
   i:knockout="Off"
   fill="url(#XMLID_1_)"
   d="M23,25.7c3.3-0.1,5.5,1.7,5.7,6.1c-0.1,5.5-2,5.5-4.2,5.9        c-2.8-0.4-3.5-1.8-4.4-3.5c-1.3-1.7-1.9-0.8-2.1-4.3C18.2,27.4,20.8,25.8,23,25.7z"
   id="path688" /><path
   i:knockout="Off"
   opacity="3.000000e-002"
   fill="none"
   stroke="#000000"
   stroke-width="1.8435"
   d="M23,25.7        c3.3-0.1,5.5,1.7,5.7,6.1c-0.1,5.5-2,5.5-4.2,5.9c-2.8-0.4-3.5-1.8-4.4-3.5c-1.3-1.7-1.9-0.8-2.1-4.3        C18.2,27.4,20.8,25.8,23,25.7z"
   id="path689" /></g><g
   id="path759"
   nodetypes="cccccc"><path
   i:knockout="Off"
   fill="url(#XMLID_1_)"
   d="M23,25.7c3.3-0.1,5.5,1.7,5.7,6.1c-0.1,5.5-2,5.5-4.2,5.9        c-2.8-0.4-3.5-1.8-4.4-3.5c-1.3-1.7-1.9-0.8-2.1-4.3C18.2,27.4,20.8,25.8,23,25.7z"
   id="path691" /><path
   i:knockout="Off"
   opacity="3.000000e-002"
   fill="none"
   stroke="#000000"
   stroke-width="1.7834"
   d="M23,25.7        c3.3-0.1,5.5,1.7,5.7,6.1c-0.1,5.5-2,5.5-4.2,5.9c-2.8-0.4-3.5-1.8-4.4-3.5c-1.3-1.7-1.9-0.8-2.1-4.3        C18.2,27.4,20.8,25.8,23,25.7z"
   id="path692" /></g><g
   id="path760"
   nodetypes="cccccc"><path
   i:knockout="Off"
   fill="url(#XMLID_1_)"
   d="M23,25.7c3.3-0.1,5.5,1.7,5.7,6.1c-0.1,5.5-2,5.5-4.2,5.9        c-2.8-0.4-3.5-1.8-4.4-3.5c-1.3-1.7-1.9-0.8-2.1-4.3C18.2,27.4,20.8,25.8,23,25.7z"
   id="path694" /><path
   i:knockout="Off"
   opacity="3.000000e-002"
   fill="none"
   stroke="#000000"
   stroke-width="1.7032"
   d="M23,25.7        c3.3-0.1,5.5,1.7,5.7,6.1c-0.1,5.5-2,5.5-4.2,5.9c-2.8-0.4-3.5-1.8-4.4-3.5c-1.3-1.7-1.9-0.8-2.1-4.3        C18.2,27.4,20.8,25.8,23,25.7z"
   id="path695" /></g><linearGradient
   id="path754_1_"
   gradientUnits="userSpaceOnUse"
   x1="-171.228"
   y1="428.6445"
   x2="-171.234"
   y2="428.5436"
   gradientTransform="matrix(67.0105 0 0 -74.7332 11497.2871 32064.9922)"><stop
   offset="0"
   style="stop-color:#DEE2E7"
   id="stop697" /><stop
   offset="1"
   style="stop-color:#FFFFFF"
   id="stop698" /><a:midPointStop
   offset="0"
   style="stop-color:#DEE2E7"
   id="midPointStop699" /><a:midPointStop
   offset="0.5"
   style="stop-color:#DEE2E7"
   id="midPointStop700" /><a:midPointStop
   offset="1"
   style="stop-color:#FFFFFF"
   id="midPointStop701" /></linearGradient><path
   id="path754"
   nodetypes="cccccc"
   fill="url(#path754_1_)"
   stroke="#580000"
   stroke-width="1.042"
   d="M23,25.7       c3.3-0.1,5.5,1.7,5.7,6.1c-0.1,5.5-2,5.5-4.2,5.9c-2.8-0.4-3.5-1.8-4.4-3.5c-1.3-1.7-1.9-0.8-2.1-4.3       C18.2,27.4,20.8,25.8,23,25.7z" /></g></g></g></svg>
