<?xml version="1.0" encoding="UTF-8" standalone="no"?>
<!DOCTYPE svg PUBLIC "-//W3C//DTD SVG 20010904//EN"
"http://www.w3.org/TR/2001/REC-SVG-20010904/DTD/svg10.dtd">
<!-- Created with Sodipodi ("http://www.sodipodi.com/") -->
<svg
   xmlns:x="http://ns.adobe.com/Extensibility/1.0/"
   xmlns:i="http://ns.adobe.com/AdobeIllustrator/10.0/"
   xmlns:graph="http://ns.adobe.com/Graphs/1.0/"
   xmlns="http://www.w3.org/2000/svg"
   xmlns:xlink="http://www.w3.org/1999/xlink"
   xmlns:a="http://ns.adobe.com/AdobeSVGViewerExtensions/3.0/"
   xml:space="preserve"
   i:viewOrigin="254.5508 420.2407"
   i:rulerOrigin="0 0"
   i:pageBounds="0 792 612 0"
   width="48"
   height="48.8"
   viewBox="0 0 48 48.8"
   overflow="visible"
   enable-background="new 0 0 48 48.8"
   xmlns:sodipodi="http://sodipodi.sourceforge.net/DTD/sodipodi-0.dtd"
   id="svg602"
   sodipodi:version="0.34"
   sodipodi:docname="C:\msys\home\su_blanc\mldonkey-2.5.12\src\gtk2\rsvg\emoticons\emoticon_girl_hug.svg"><defs
   id="defs663" /><sodipodi:namedview
   id="namedview662" /><g
   id="Layer_1"
   i:layer="yes"
   i:dimmedPercent="50"
   i:rgbTrio="#4F008000FFFF"><g
   id="g606"><radialGradient
   id="path808_1_"
   cx="-254.1606"
   cy="421.9604"
   r="5.079826e-002"
   fx="-254.1606"
   fy="421.9604"
   gradientTransform="matrix(242.9707 0 0 -67.3081 61776.2031 28445.582)"
   gradientUnits="userSpaceOnUse"><stop
   offset="0"
   style="stop-color:#261700"
   id="stop608" /><stop
   offset="1"
   style="stop-color:#FFFFFF"
   id="stop609" /><a:midPointStop
   offset="0"
   style="stop-color:#261700"
   id="midPointStop610" /><a:midPointStop
   offset="0.5"
   style="stop-color:#261700"
   id="midPointStop611" /><a:midPointStop
   offset="1"
   style="stop-color:#FFFFFF"
   id="midPointStop612" /></radialGradient><path
   id="path808"
   nodetypes="cccccc"
   fill="url(#path808_1_)"
   d="M33.3,40.5c5.5,1.7,6.9,3.3,0.6,5.7      c-6.2,2.4-15.7,3.1-21.2,1.4c-4.6-1.4-5.2-3.2-1.2-5.6c3.3,1.2,5.5,1.9,11.8,1.7C28.8,43.3,30.3,42.4,33.3,40.5z" /><path
   id="path802_3_"
   nodetypes="ccccscccsscc"
   opacity="5.000000e-002"
   fill="none"
   stroke="#000000"
   stroke-width="3"
   d="      M19.6,21.1c-0.2,0.9,0,0.8-0.3,1.6c-2.1,0.2-15.9,5.9-8.6,12.4c1.1,1.2,2.9-1.2,0.7-2.7c-2.2-1.7,5-4.3,4.5-3.5      c-1.7,3.5-4.2,9.3-4.1,13.1c6.5,2.4,16.1,2.7,21.8-1.6c0-3.6-1.4-10.3-2.9-13.8c1.5,0.2,5.7-0.5,6.8,3.9      c0.2,1.3,2.4,1.5,2.3-0.5c-0.5-7.7-10-8.5-11-8.6c-0.3-0.8-0.2-0.5-0.5-1.3" /><path
   id="path802"
   nodetypes="ccccscccsscc"
   opacity="5.000000e-002"
   fill="none"
   stroke="#000000"
   stroke-width="2"
   d="      M19.6,21.1c-0.2,0.9,0,0.8-0.3,1.6c-2.1,0.2-15.9,5.9-8.6,12.4c1.1,1.2,2.9-1.2,0.7-2.7c-2.2-1.7,5-4.3,4.5-3.5      c-1.7,3.5-4.2,9.3-4.1,13.1c6.5,2.4,16.1,2.7,21.8-1.6c0-3.6-1.4-10.3-2.9-13.8c1.5,0.2,5.7-0.5,6.8,3.9      c0.2,1.3,2.4,1.5,2.3-0.5c-0.5-7.7-10-8.5-11-8.6c-0.3-0.8-0.2-0.5-0.5-1.3" /><path
   id="path802_2_"
   nodetypes="ccccscccsscc"
   opacity="5.000000e-002"
   fill="none"
   stroke="#000000"
   d="M19.6,21.1      c-0.2,0.9,0,0.8-0.3,1.6c-2.1,0.2-15.9,5.9-8.6,12.4c1.1,1.2,2.9-1.2,0.7-2.7c-2.2-1.7,5-4.3,4.5-3.5c-1.7,3.5-4.2,9.3-4.1,13.1      c6.5,2.4,16.1,2.7,21.8-1.6c0-3.6-1.4-10.3-2.9-13.8c1.5,0.2,5.7-0.5,6.8,3.9c0.2,1.3,2.4,1.5,2.3-0.5c-0.5-7.7-10-8.5-11-8.6      c-0.3-0.8-0.2-0.5-0.5-1.3" /><linearGradient
   id="path807_1_"
   gradientUnits="userSpaceOnUse"
   x1="-254.2227"
   y1="420.0503"
   x2="-254.1327"
   y2="420.0215"
   gradientTransform="matrix(260.0265 0 0 -197.232 66112.2656 82875.7734)"><stop
   offset="0"
   style="stop-color:#FF3AAF"
   id="stop618" /><stop
   offset="1"
   style="stop-color:#E7BAE7"
   id="stop619" /><a:midPointStop
   offset="0"
   style="stop-color:#FF3AAF"
   id="midPointStop620" /><a:midPointStop
   offset="0.5"
   style="stop-color:#FF3AAF"
   id="midPointStop621" /><a:midPointStop
   offset="1"
   style="stop-color:#E7BAE7"
   id="midPointStop622" /></linearGradient><path
   id="path807"
   nodetypes="ccccscccssccc"
   fill="url(#path807_1_)"
   d="M19.3,21.2c-0.2,0.9,0,0.8-0.3,1.6      c-2.1,0.2-15.9,5.9-8.6,12.4c1.1,1.2,2.9-1.2,0.7-2.7c-2.2-1.7,5-4.3,4.5-3.5c-1.7,3.5-4.2,9.3-4.1,13.1      c6.5,2.4,16.1,2.7,21.8-1.6c0-3.6-1.4-10.3-2.9-13.8c1.5,0.2,5.7-0.5,6.8,3.9c0.2,1.3,2.4,1.5,2.3-0.5c-0.5-7.7-10-8.5-11-8.6      c-0.3-0.8-0.2-0.5-0.5-1.3C25.8,21.5,21.6,22.5,19.3,21.2z" /><linearGradient
   id="path641_1_"
   gradientUnits="userSpaceOnUse"
   x1="-254.0923"
   y1="420.0522"
   x2="-254.1972"
   y2="420.0208"
   gradientTransform="matrix(260.0265 0 0 -197.232 66112.2656 82875.7734)"><stop
   offset="0"
   style="stop-color:#FF3AAF"
   id="stop625" /><stop
   offset="1"
   style="stop-color:#E7BAE7"
   id="stop626" /><a:midPointStop
   offset="0"
   style="stop-color:#FF3AAF"
   id="midPointStop627" /><a:midPointStop
   offset="0.5"
   style="stop-color:#FF3AAF"
   id="midPointStop628" /><a:midPointStop
   offset="1"
   style="stop-color:#E7BAE7"
   id="midPointStop629" /></linearGradient><path
   id="path641"
   nodetypes="ccccscccssccc"
   fill="url(#path641_1_)"
   d="M19.3,21.2c-0.2,0.9,0,0.8-0.3,1.6      c-2.1,0.2-15.9,5.9-8.6,12.4c1.1,1.2,2.9-1.2,0.7-2.7c-2.2-1.7,5-4.3,4.5-3.5c-1.7,3.5-4.2,9.3-4.1,13.1      c6.5,2.4,16.1,2.7,21.8-1.6c0-3.6-1.4-10.3-2.9-13.8c1.5,0.2,5.7-0.5,6.8,3.9c0.2,1.3,2.4,1.5,2.3-0.5c-0.5-7.7-10-8.5-11-8.6      c-0.3-0.8-0.2-0.5-0.5-1.3C25.8,21.5,21.6,22.5,19.3,21.2z" /><g
   id="path658"
   nodetypes="ccscc"><path
   i:knockout="Off"
   opacity="4.000000e-002"
   fill="none"
   stroke="#000000"
   stroke-width="0.9795"
   stroke-linejoin="round"
   d="       M24.3,6.6C17.6,8,18.8,23.6,12.7,23.5C9.6,8.1,14.2,2.6,20.6,1.2C25.7,0.1,34.1,5,32,14C28.2,13.5,32.7,4.2,24.3,6.6"
   id="path632" /></g><g
   id="path657"
   nodetypes="ccscc"><path
   i:knockout="Off"
   opacity="4.000000e-002"
   fill="none"
   stroke="#000000"
   stroke-width="1.1895"
   stroke-linejoin="round"
   d="       M24.3,6.6C17.6,8,18.8,23.6,12.7,23.5C9.6,8.1,14.2,2.6,20.6,1.2C25.7,0.1,34.1,5,32,14C28.2,13.5,32.7,4.2,24.3,6.6"
   id="path634" /></g><g
   id="path656"
   nodetypes="ccscc"><path
   i:knockout="Off"
   opacity="4.000000e-002"
   fill="none"
   stroke="#000000"
   stroke-width="1.6094"
   stroke-linejoin="round"
   d="       M24.3,6.6C17.6,8,18.8,23.6,12.7,23.5C9.6,8.1,14.2,2.6,20.6,1.2C25.7,0.1,34.1,5,32,14C28.2,13.5,32.7,4.2,24.3,6.6"
   id="path636" /></g><g
   id="path655"
   nodetypes="ccscc"><path
   i:knockout="Off"
   opacity="4.000000e-002"
   fill="none"
   stroke="#000000"
   stroke-width="2.1044"
   stroke-linejoin="round"
   d="       M24.3,6.6C17.6,8,18.8,23.6,12.7,23.5C9.6,8.1,14.2,2.6,20.6,1.2C25.7,0.1,34.1,5,32,14C28.2,13.5,32.7,4.2,24.3,6.6"
   id="path638" /></g><linearGradient
   id="path636_1_"
   gradientUnits="userSpaceOnUse"
   x1="-254.1499"
   y1="419.1255"
   x2="-254.1502"
   y2="419.1968"
   gradientTransform="matrix(161.2654 0 0 -170.8617 41008.082 71637.5391)"><stop
   offset="0"
   style="stop-color:#EB852F"
   id="stop640" /><stop
   offset="1"
   style="stop-color:#FFFF00"
   id="stop641" /><a:midPointStop
   offset="0"
   style="stop-color:#EB852F"
   id="midPointStop642" /><a:midPointStop
   offset="0.5"
   style="stop-color:#EB852F"
   id="midPointStop643" /><a:midPointStop
   offset="1"
   style="stop-color:#FFFF00"
   id="midPointStop644" /></linearGradient><path
   id="path645"
   nodetypes="ccccc"
   fill="url(#path636_1_)"
   d="M12.5,11.6c0-5.6,4.3-10.1,9.7-10.1s10,4.2,10,9.8      s-4.6,10.4-10,10.4S12.5,17.2,12.5,11.6z" /><linearGradient
   id="path653_1_"
   gradientUnits="userSpaceOnUse"
   x1="-254.167"
   y1="419.3159"
   x2="-254.0895"
   y2="419.1534"
   gradientTransform="matrix(172.2965 0 0 -186.6927 43809.1328 78286.875)"><stop
   offset="0"
   style="stop-color:#CCA277"
   id="stop647" /><stop
   offset="1"
   style="stop-color:#E7E700"
   id="stop648" /><a:midPointStop
   offset="0"
   style="stop-color:#CCA277"
   id="midPointStop649" /><a:midPointStop
   offset="0.5"
   style="stop-color:#CCA277"
   id="midPointStop650" /><a:midPointStop
   offset="1"
   style="stop-color:#E7E700"
   id="midPointStop651" /></linearGradient><path
   id="path653"
   nodetypes="ccscc"
   fill="url(#path653_1_)"
   d="M24.3,6.6C17.6,8,18.8,23.6,12.7,23.5      C9.6,8.1,14.2,2.6,20.6,1.2C25.7,0.1,34.1,5,32,14C28.2,13.5,32.7,4.2,24.3,6.6" /><radialGradient
   id="path587_1_"
   cx="-254.2212"
   cy="417.0171"
   r="0.1486"
   fx="-254.2212"
   fy="417.0171"
   gradientTransform="matrix(91.7059 0 0 -52.0368 23335.9824 21701.8105)"
   gradientUnits="userSpaceOnUse"><stop
   offset="0"
   style="stop-color:#FFFFFF"
   id="stop654" /><stop
   offset="1"
   style="stop-color:#F5FFFF"
   id="stop655" /><a:midPointStop
   offset="0"
   style="stop-color:#FFFFFF"
   id="midPointStop656" /><a:midPointStop
   offset="0.5"
   style="stop-color:#FFFFFF"
   id="midPointStop657" /><a:midPointStop
   offset="1"
   style="stop-color:#F5FFFF"
   id="midPointStop658" /></radialGradient><path
   id="path587"
   nodetypes="ccccc"
   opacity="0.46"
   fill="url(#path587_1_)"
   d="M22.1,7.3c-4.8-0.1-5.8-2.3-5.3-3.4      c0.5-1.2,2.1-2.8,5.2-2.9c3-0.1,4.9,1.3,5.6,2.7C28,4.7,26.8,7.2,22.1,7.3z" /><path
   id="path652"
   nodetypes="cc"
   fill="none"
   stroke="#FF0000"
   stroke-width="2.175"
   stroke-linecap="round"
   stroke-dasharray="2.175 4.35"
   stroke-dashoffset="1.9574"
   d="      M23.3,24.6c1.2,8.2-3.1,12-1.3,16.8" /></g><rect
   y="0.8"
   opacity="0.1"
   fill="none"
   width="48"
   height="48"
   id="rect661" /></g></svg>
