<?xml version="1.0" encoding="UTF-8" standalone="no"?>
<!DOCTYPE svg PUBLIC "-//W3C//DTD SVG 20010904//EN"
"http://www.w3.org/TR/2001/REC-SVG-20010904/DTD/svg10.dtd">
<!-- Created with Sodipodi ("http://www.sodipodi.com/") -->
<svg
   xmlns:x="http://ns.adobe.com/Extensibility/1.0/"
   xmlns:i="http://ns.adobe.com/AdobeIllustrator/10.0/"
   xmlns:graph="http://ns.adobe.com/Graphs/1.0/"
   xmlns="http://www.w3.org/2000/svg"
   xmlns:xlink="http://www.w3.org/1999/xlink"
   xmlns:a="http://ns.adobe.com/AdobeSVGViewerExtensions/3.0/"
   xml:space="preserve"
   i:viewOrigin="169.9258 427.7109"
   i:rulerOrigin="0 0"
   i:pageBounds="0 792 612 0"
   width="48"
   height="48.7"
   viewBox="0 0 48 48.7"
   overflow="visible"
   enable-background="new 0 0 48 48.7"
   xmlns:sodipodi="http://sodipodi.sourceforge.net/DTD/sodipodi-0.dtd"
   id="svg602"
   sodipodi:version="0.34"
   sodipodi:docname="C:\msys\home\su_blanc\mldonkey-2.5.12\src\gtk2\rsvg\emoticons\emoticon_nerd.svg"><defs
   id="defs747" /><sodipodi:namedview
   id="base" /><g
   id="Layer_1"
   i:knockout="Off"
   i:layer="yes"
   i:dimmedPercent="50"
   i:rgbTrio="#4F008000FFFF"><path
   id="path597_5_"
   i:isolated="yes"
   i:knockout="Off"
   opacity="0.15"
   fill="none"
   stroke="#474000"
   stroke-width="1.8818"
   enable-background="new    "
   d="     M5.6,20.2c0-10.7,8-19.3,17.8-19.3c9.8,0,18.4,8.1,18.4,18.7c0,10.7-8.6,19.9-18.4,19.9C13.6,39.5,5.6,30.9,5.6,20.2z" /><path
   id="path597_4_"
   i:isolated="yes"
   i:knockout="Off"
   opacity="0.2"
   fill="none"
   stroke="#474000"
   stroke-width="0.9409"
   enable-background="new    "
   d="     M5.6,20.2c0-10.7,8-19.3,17.8-19.3c9.8,0,18.4,8.1,18.4,18.7c0,10.7-8.6,19.9-18.4,19.9C13.6,39.5,5.6,30.9,5.6,20.2z" /><path
   id="path597_3_"
   i:isolated="yes"
   i:knockout="Off"
   opacity="0.3"
   fill="none"
   stroke="#474000"
   stroke-width="0.4704"
   enable-background="new    "
   d="     M5.6,20.2c0-10.7,8-19.3,17.8-19.3c9.8,0,18.4,8.1,18.4,18.7c0,10.7-8.6,19.9-18.4,19.9C13.6,39.5,5.6,30.9,5.6,20.2z" /><radialGradient
   id="path700_1_"
   cx="-679.5713"
   cy="-0.7402"
   r="6.388162e-002"
   fx="-679.5713"
   fy="-0.7402"
   gradientTransform="matrix(310.7065 0 0 144.1183 211172.2188 149.3426)"
   gradientUnits="userSpaceOnUse"><stop
   offset="0"
   style="stop-color:#261700"
   id="stop610" /><stop
   offset="1"
   style="stop-color:#D2D2D2"
   id="stop611" /><a:midPointStop
   offset="0"
   style="stop-color:#261700"
   id="midPointStop612" /><a:midPointStop
   offset="0.5"
   style="stop-color:#261700"
   id="midPointStop613" /><a:midPointStop
   offset="1"
   style="stop-color:#D2D2D2"
   id="midPointStop614" /></radialGradient><path
   id="path700"
   i:isolated="yes"
   i:knockout="Off"
   opacity="0.3"
   fill="url(#path700_1_)"
   enable-background="new    "
   d="     M37.9,31.8c6.5,4.5,6,10.6-1.9,14.3c-7.9,3.7-19.5,3.1-25.9-1.5c-5.5-3.8-5.7-9.1-0.5-13.1c3.4,4.7,6.2,6.3,14,7.3     C30.1,38.7,34.3,35.8,37.9,31.8z" /><radialGradient
   id="path577_1_"
   cx="-638.4961"
   cy="42.7715"
   r="41.5567"
   fx="-638.4961"
   fy="42.7715"
   gradientTransform="matrix(298.9032 0 0 316.3969 203151.1563 -98.4275)"
   gradientUnits="userSpaceOnUse"><stop
   offset="0"
   style="stop-color:#FF6F00"
   id="stop617" /><stop
   offset="1"
   style="stop-color:#FFFF00"
   id="stop618" /><a:midPointStop
   offset="0"
   style="stop-color:#FF6F00"
   id="midPointStop619" /><a:midPointStop
   offset="0.5"
   style="stop-color:#FF6F00"
   id="midPointStop620" /><a:midPointStop
   offset="1"
   style="stop-color:#FFFF00"
   id="midPointStop621" /></radialGradient><circle
   id="path577"
   fill="url(#path577_1_)"
   cx="23.9"
   cy="20.4"
   r="17.8" /><linearGradient
   id="path597_1_"
   gradientUnits="userSpaceOnUse"
   x1="-679.5654"
   y1="0.3184"
   x2="-679.5668"
   y2="0.4371"
   gradientTransform="matrix(303.6933 0 0 316.3967 206403.3125 -98.1642)"><stop
   offset="0"
   style="stop-color:#FF6500"
   id="stop624" /><stop
   offset="1"
   style="stop-color:#FFFF00"
   id="stop625" /><a:midPointStop
   offset="0"
   style="stop-color:#FF6500"
   id="midPointStop626" /><a:midPointStop
   offset="0.5"
   style="stop-color:#FF6500"
   id="midPointStop627" /><a:midPointStop
   offset="1"
   style="stop-color:#FFFF00"
   id="midPointStop628" /></linearGradient><path
   id="path597"
   i:isolated="yes"
   i:knockout="Off"
   opacity="0.75"
   fill="url(#path597_1_)"
   enable-background="new    "
   d="     M5.6,20.2c0-10.7,8-19.3,17.8-19.3c9.9,0,18.4,8,18.4,18.7c0,10.7-8.6,19.9-18.4,19.9C13.6,39.5,5.6,30.9,5.6,20.2z" /><radialGradient
   id="path597_6_"
   cx="-486.4063"
   cy="426.7461"
   r="20.2352"
   fx="-486.4063"
   fy="426.7461"
   gradientTransform="matrix(1 0 0 -1 509.7773 427.6934)"
   gradientUnits="userSpaceOnUse"><stop
   offset="0"
   style="stop-color:#FFFFFF"
   id="stop631" /><stop
   offset="0.1046"
   style="stop-color:#FFFEFA"
   id="stop632" /><stop
   offset="0.2282"
   style="stop-color:#FFFBEC"
   id="stop633" /><stop
   offset="0.3616"
   style="stop-color:#FFF7D4"
   id="stop634" /><stop
   offset="0.5018"
   style="stop-color:#FFF1B2"
   id="stop635" /><stop
   offset="0.6474"
   style="stop-color:#FFE988"
   id="stop636" /><stop
   offset="0.7976"
   style="stop-color:#FFDF53"
   id="stop637" /><stop
   offset="0.9487"
   style="stop-color:#FFD316"
   id="stop638" /><stop
   offset="1"
   style="stop-color:#FFCF00"
   id="stop639" /><a:midPointStop
   offset="0"
   style="stop-color:#FFFFFF"
   id="midPointStop640" /><a:midPointStop
   offset="0.5"
   style="stop-color:#FFFFFF"
   id="midPointStop641" /><a:midPointStop
   offset="0.1046"
   style="stop-color:#FFFEFA"
   id="midPointStop642" /><a:midPointStop
   offset="0.5"
   style="stop-color:#FFFEFA"
   id="midPointStop643" /><a:midPointStop
   offset="0.2282"
   style="stop-color:#FFFBEC"
   id="midPointStop644" /><a:midPointStop
   offset="0.5"
   style="stop-color:#FFFBEC"
   id="midPointStop645" /><a:midPointStop
   offset="0.3616"
   style="stop-color:#FFF7D4"
   id="midPointStop646" /><a:midPointStop
   offset="0.5"
   style="stop-color:#FFF7D4"
   id="midPointStop647" /><a:midPointStop
   offset="0.5018"
   style="stop-color:#FFF1B2"
   id="midPointStop648" /><a:midPointStop
   offset="0.5"
   style="stop-color:#FFF1B2"
   id="midPointStop649" /><a:midPointStop
   offset="0.6474"
   style="stop-color:#FFE988"
   id="midPointStop650" /><a:midPointStop
   offset="0.5"
   style="stop-color:#FFE988"
   id="midPointStop651" /><a:midPointStop
   offset="0.7976"
   style="stop-color:#FFDF53"
   id="midPointStop652" /><a:midPointStop
   offset="0.5"
   style="stop-color:#FFDF53"
   id="midPointStop653" /><a:midPointStop
   offset="0.9487"
   style="stop-color:#FFD316"
   id="midPointStop654" /><a:midPointStop
   offset="0.5"
   style="stop-color:#FFD316"
   id="midPointStop655" /><a:midPointStop
   offset="1"
   style="stop-color:#FFCF00"
   id="midPointStop656" /></radialGradient><path
   id="path597_2_"
   i:isolated="yes"
   i:knockout="Off"
   opacity="0.75"
   fill="url(#path597_6_)"
   enable-background="new    "
   d="     M12.2,7.8c0-3.8,5-6.9,11.1-6.9c6.1,0,11.4,2.9,11.4,6.7C34.7,11.4,12.2,11.6,12.2,7.8z" /><rect
   id="rect662"
   y="0.7"
   i:knockout="Off"
   fill="none"
   width="48"
   height="48" /><g
   id="g659"><g
   id="path643"
   nodetypes="cs"><path
   i:knockout="Off"
   opacity="3.320000e-002"
   fill="none"
   stroke="#000000"
   stroke-width="3"
   stroke-linecap="round"
   d="       M11.4,28.8c4.4,8.8,18.9,8.5,24,0.3"
   id="path661" /></g><path
   id="path639"
   nodetypes="cs"
   fill="none"
   stroke="#795000"
   stroke-width="2"
   stroke-linecap="round"
   d="      M11.4,28.8c4.4,8.6,18.9,8.3,24,0.3" /><g
   id="path640"
   nodetypes="cs"><path
   i:knockout="Off"
   opacity="3.320000e-002"
   fill="none"
   stroke="#000000"
   stroke-width="3.5089"
   stroke-linecap="round"
   d="       M11.2,28.8c4.4,8.8,18.9,8.5,24,0.3"
   id="path664" /></g><g
   id="path641"
   nodetypes="cs"><path
   i:knockout="Off"
   opacity="3.320000e-002"
   fill="none"
   stroke="#000000"
   stroke-width="2.7289"
   stroke-linecap="round"
   d="       M11.2,28.5c4.4,8.8,18.9,8.5,24,0.3"
   id="path666" /></g><g
   id="path642"
   nodetypes="cs"><path
   i:knockout="Off"
   opacity="3.320000e-002"
   fill="none"
   stroke="#000000"
   stroke-width="4.6317"
   stroke-linecap="round"
   d="       M11.2,28.6c4.4,8.8,18.9,8.5,24,0.3"
   id="path668" /></g></g><g
   id="g669"><radialGradient
   id="path630_1_"
   cx="-166.6748"
   cy="427.2656"
   r="9.428354e-002"
   fx="-166.6748"
   fy="427.2656"
   gradientTransform="matrix(-61.651 0 0 -88.1742 -10244.9775 37693.1602)"
   gradientUnits="userSpaceOnUse"><stop
   offset="0"
   style="stop-color:#DEE2E7"
   id="stop671" /><stop
   offset="1"
   style="stop-color:#FFFFFF"
   id="stop672" /><a:midPointStop
   offset="0"
   style="stop-color:#DEE2E7"
   id="midPointStop673" /><a:midPointStop
   offset="0.5"
   style="stop-color:#DEE2E7"
   id="midPointStop674" /><a:midPointStop
   offset="1"
   style="stop-color:#FFFFFF"
   id="midPointStop675" /></radialGradient><path
   id="path630"
   type="arc"
   cx="50.24698"
   cy="478.4100"
   rx="24.52531"
   ry="34.99345"
   fill="url(#path630_1_)"
   stroke="#7C5202"
   stroke-width="0.5775"
   d="      M27.6,18c0-3.4,1.9-6.2,4.3-6.2c2.4,0,4.3,2.8,4.3,6.2c0,0,0,0,0,0c0,3.4-1.9,6.2-4.3,6.2C29.6,24.2,27.6,21.4,27.6,18      C27.6,18,27.6,18,27.6,18z" /><g
   id="path631"
   type="arc"
   cx="50.09747"
   cy="476.7646"
   rx="28.86212"
   ry="41.42389"><path
   i:knockout="Off"
   opacity="3.790000e-002"
   fill="none"
   stroke="#000000"
   stroke-width="0.525"
   d="M27,17.9       c0-3.8,2.2-6.8,5-6.8c2.8,0,5,3,5,6.8c0,0,0,0,0,0c0,3.8-2.2,6.8-5,6.8C29.2,24.7,27,21.7,27,17.9C27,17.9,27,17.9,27,17.9z"
   id="path678" /></g><g
   id="path632"
   type="arc"
   cx="50.09747"
   cy="476.7646"
   rx="28.86212"
   ry="41.42389"><path
   i:knockout="Off"
   opacity="1.420000e-002"
   fill="none"
   stroke="#000000"
   stroke-width="1.8256"
   d="M27,18       c0-3.7,2.2-6.8,5-6.8c2.8,0,5,3,5,6.8c0,0,0,0,0,0c0,3.7-2.2,6.8-5,6.8C29.2,24.7,27,21.7,27,18C27,18,27,18,27,18z"
   id="path680" /></g><g
   id="path633"
   type="arc"
   cx="50.09747"
   cy="476.7646"
   rx="28.86212"
   ry="41.42389"><path
   i:knockout="Off"
   opacity="1.420000e-002"
   fill="none"
   stroke="#000000"
   stroke-width="1.1536"
   d="M27,18       c0-3.7,2.2-6.8,5-6.8c2.8,0,5,3,5,6.8c0,0,0,0,0,0c0,3.7-2.2,6.8-5,6.8C29.2,24.7,27,21.7,27,18C27,18,27,18,27,18z"
   id="path682" /></g><g
   id="path634"
   type="arc"
   cx="50.09747"
   cy="476.7646"
   rx="28.86212"
   ry="41.42389"><path
   i:knockout="Off"
   opacity="1.420000e-002"
   fill="none"
   stroke="#000000"
   stroke-width="0.3973"
   d="M27,18       c0-3.7,2.2-6.8,5-6.8c2.8,0,5,3,5,6.8c0,0,0,0,0,0c0,3.7-2.2,6.8-5,6.8C29.2,24.7,27,21.7,27,18C27,18,27,18,27,18z"
   id="path684" /></g><g
   id="path635"
   type="arc"
   cx="50.09747"
   cy="476.7646"
   rx="28.86212"
   ry="41.42389"><path
   i:knockout="Off"
   opacity="0.1517"
   fill="none"
   stroke="#000000"
   stroke-width="0.1997"
   d="M27.2,18       c0-3.7,2.2-6.7,4.8-6.7c2.7,0,4.8,3,4.8,6.7c0,0,0,0,0,0c0,3.7-2.2,6.7-4.8,6.7C29.3,24.6,27.2,21.6,27.2,18       C27.2,18,27.2,18,27.2,18z"
   id="path686" /></g><radialGradient
   id="path637_1_"
   cx="-165.8169"
   cy="427.3623"
   r="8.714822e-002"
   fx="-165.8169"
   fy="427.3623"
   gradientTransform="matrix(-45.0862 0 0 -56.2866 -7443.6206 24070.8047)"
   gradientUnits="userSpaceOnUse"><stop
   offset="0"
   style="stop-color:#000082"
   id="stop688" /><stop
   offset="1"
   style="stop-color:#000000"
   id="stop689" /><a:midPointStop
   offset="0"
   style="stop-color:#000082"
   id="midPointStop690" /><a:midPointStop
   offset="0.5"
   style="stop-color:#000082"
   id="midPointStop691" /><a:midPointStop
   offset="1"
   style="stop-color:#000000"
   id="midPointStop692" /></radialGradient><path
   id="path637"
   type="arc"
   cx="61.64901"
   cy="495.8291"
   rx="10.46870"
   ry="10.89169"
   fill="url(#path637_1_)"
   d="      M28.1,18c0-2.2,1.4-3.9,3.2-3.9c1.7,0,3.2,1.8,3.2,3.9c0,0,0,0,0,0c0,2.2-1.4,3.9-3.2,3.9C29.5,22,28.1,20.2,28.1,18      C28.1,18,28.1,18,28.1,18z" /><radialGradient
   id="path650_1_"
   cx="-170.373"
   cy="427.2109"
   r="9.436427e-002"
   fx="-170.373"
   fy="427.2109"
   gradientTransform="matrix(61.651 0 0 -88.1742 10519.126 37687.5977)"
   gradientUnits="userSpaceOnUse"><stop
   offset="0"
   style="stop-color:#DEE2E7"
   id="stop695" /><stop
   offset="1"
   style="stop-color:#FFFFFF"
   id="stop696" /><a:midPointStop
   offset="0"
   style="stop-color:#DEE2E7"
   id="midPointStop697" /><a:midPointStop
   offset="0.5"
   style="stop-color:#DEE2E7"
   id="midPointStop698" /><a:midPointStop
   offset="1"
   style="stop-color:#FFFFFF"
   id="midPointStop699" /></radialGradient><path
   id="path650"
   type="arc"
   cx="50.24698"
   cy="478.4100"
   rx="24.52531"
   ry="34.99345"
   fill="url(#path650_1_)"
   stroke="#7C3902"
   stroke-width="0.5775"
   d="      M18.6,17.2c0-3.4-1.9-6.2-4.3-6.2c-2.4,0-4.3,2.8-4.3,6.2c0,0,0,0,0,0c0,3.4,1.9,6.2,4.3,6.2C16.6,23.4,18.6,20.6,18.6,17.2      C18.6,17.2,18.6,17.2,18.6,17.2z" /><g
   id="path651"
   type="arc"
   cx="50.09747"
   cy="476.7646"
   rx="28.86212"
   ry="41.42389"><path
   i:knockout="Off"
   opacity="3.790000e-002"
   fill="none"
   stroke="#000000"
   stroke-width="0.525"
   d="M19.3,17.1       c0-3.8-2.2-6.8-5-6.8c-2.8,0-5,3-5,6.8c0,0,0,0,0,0c0,3.8,2.2,6.8,5,6.8C17,24,19.3,20.9,19.3,17.1       C19.3,17.2,19.3,17.2,19.3,17.1z"
   id="path702" /></g><g
   id="path652"
   type="arc"
   cx="50.09747"
   cy="476.7646"
   rx="28.86212"
   ry="41.42389"><path
   i:knockout="Off"
   opacity="1.420000e-002"
   fill="none"
   stroke="#000000"
   stroke-width="1.8256"
   d="M19.3,17.2       c0-3.7-2.2-6.8-5-6.8c-2.8,0-5,3-5,6.8c0,0,0,0,0,0c0,3.7,2.2,6.8,5,6.8C17,24,19.3,20.9,19.3,17.2       C19.3,17.2,19.3,17.2,19.3,17.2z"
   id="path704" /></g><g
   id="path653"
   type="arc"
   cx="50.09747"
   cy="476.7646"
   rx="28.86212"
   ry="41.42389"><path
   i:knockout="Off"
   opacity="1.420000e-002"
   fill="none"
   stroke="#000000"
   stroke-width="1.1536"
   d="M19.3,17.2       c0-3.7-2.2-6.8-5-6.8c-2.8,0-5,3-5,6.8c0,0,0,0,0,0c0,3.7,2.2,6.8,5,6.8C17,24,19.3,20.9,19.3,17.2       C19.3,17.2,19.3,17.2,19.3,17.2z"
   id="path706" /></g><g
   id="path654"
   type="arc"
   cx="50.09747"
   cy="476.7646"
   rx="28.86212"
   ry="41.42389"><path
   i:knockout="Off"
   opacity="1.420000e-002"
   fill="none"
   stroke="#000000"
   stroke-width="0.3973"
   d="M19.3,17.2       c0-3.7-2.2-6.8-5-6.8c-2.8,0-5,3-5,6.8c0,0,0,0,0,0c0,3.7,2.2,6.8,5,6.8C17,24,19.3,20.9,19.3,17.2       C19.3,17.2,19.3,17.2,19.3,17.2z"
   id="path708" /></g><g
   id="path655"
   type="arc"
   cx="50.09747"
   cy="476.7646"
   rx="28.86212"
   ry="41.42389"><path
   i:knockout="Off"
   opacity="0.1517"
   fill="none"
   stroke="#000000"
   stroke-width="0.1997"
   d="M19,17.2       c0-3.7-2.2-6.7-4.8-6.7c-2.7,0-4.8,3-4.8,6.7c0,0,0,0,0,0c0,3.7,2.2,6.7,4.8,6.7C16.9,23.9,19,20.9,19,17.2       C19,17.2,19,17.2,19,17.2z"
   id="path710" /></g><radialGradient
   id="path656_1_"
   cx="-170.8716"
   cy="427.3086"
   r="8.699935e-002"
   fx="-170.8716"
   fy="427.3086"
   gradientTransform="matrix(45.0862 0 0 -56.2866 7717.769 24067.2109)"
   gradientUnits="userSpaceOnUse"><stop
   offset="0"
   style="stop-color:#000082"
   id="stop712" /><stop
   offset="1"
   style="stop-color:#000000"
   id="stop713" /><a:midPointStop
   offset="0"
   style="stop-color:#000082"
   id="midPointStop714" /><a:midPointStop
   offset="0.5"
   style="stop-color:#000082"
   id="midPointStop715" /><a:midPointStop
   offset="1"
   style="stop-color:#000000"
   id="midPointStop716" /></radialGradient><path
   id="path656"
   type="arc"
   cx="61.64901"
   cy="495.8291"
   rx="10.46870"
   ry="10.89169"
   fill="url(#path656_1_)"
   d="      M18.1,17.5c0-2.2-1.4-3.9-3.2-3.9c-1.7,0-3.2,1.8-3.2,3.9c0,0,0,0,0,0c0,2.2,1.4,3.9,3.2,3.9C16.7,21.5,18.1,19.7,18.1,17.5      C18.1,17.5,18.1,17.5,18.1,17.5z" /><circle
   id="path646"
   type="arc"
   cx="13.6"
   cy="17.7"
   rx="89.72659"
   ry="87.33388"
   fill="none"
   stroke="#000000"
   stroke-width="2.1"
   r="6.5" /><linearGradient
   id="path644_1_"
   gradientUnits="userSpaceOnUse"
   x1="-170.0386"
   y1="427.2471"
   x2="-169.9217"
   y2="427.1377"
   gradientTransform="matrix(91.6887 0 0 -92.823 15602.8506 39674.1641)"><stop
   offset="0"
   style="stop-color:#FFFFFF"
   id="stop720" /><stop
   offset="1"
   style="stop-color:#F5FFFF"
   id="stop721" /><a:midPointStop
   offset="0"
   style="stop-color:#FFFFFF"
   id="midPointStop722" /><a:midPointStop
   offset="0.5"
   style="stop-color:#FFFFFF"
   id="midPointStop723" /><a:midPointStop
   offset="1"
   style="stop-color:#F5FFFF"
   id="midPointStop724" /></linearGradient><circle
   id="path644"
   type="arc"
   cx="13.5"
   cy="17.3"
   rx="89.72659"
   ry="87.33388"
   opacity="0.4"
   fill="url(#path644_1_)"
   r="6.4" /><circle
   id="path645"
   type="arc"
   cx="32.8"
   cy="17.7"
   rx="89.72659"
   ry="87.33388"
   fill="none"
   stroke="#000000"
   stroke-width="2.1"
   r="6.5" /><linearGradient
   id="path647_1_"
   gradientUnits="userSpaceOnUse"
   x1="-171.3262"
   y1="427.2461"
   x2="-171.214"
   y2="427.1411"
   gradientTransform="matrix(91.6887 0 0 -92.823 15740.1631 39674.1641)"><stop
   offset="0"
   style="stop-color:#FFFFFF"
   id="stop728" /><stop
   offset="1"
   style="stop-color:#F5FFFF"
   id="stop729" /><a:midPointStop
   offset="0"
   style="stop-color:#FFFFFF"
   id="midPointStop730" /><a:midPointStop
   offset="0.5"
   style="stop-color:#FFFFFF"
   id="midPointStop731" /><a:midPointStop
   offset="1"
   style="stop-color:#F5FFFF"
   id="midPointStop732" /></linearGradient><circle
   id="path647"
   type="arc"
   cx="32.7"
   cy="17.3"
   rx="89.72659"
   ry="87.33388"
   opacity="0.4"
   fill="url(#path647_1_)"
   r="6.2" /><path
   id="path648"
   nodetypes="cc"
   fill="none"
   stroke="#000000"
   stroke-width="1.4302"
   stroke-linecap="round"
   d="      M19.8,14.4c2.1-0.8,5.1-0.7,7,0.2" /><radialGradient
   id="path649_1_"
   cx="-169.4243"
   cy="428.7109"
   r="4.0175"
   fx="-169.4243"
   fy="428.7109"
   gradientUnits="userSpaceOnUse"><stop
   offset="0"
   style="stop-color:#FFFFFF"
   id="stop736" /><stop
   offset="1"
   style="stop-color:#F5FFFF"
   id="stop737" /><a:midPointStop
   offset="0"
   style="stop-color:#FFFFFF"
   id="midPointStop738" /><a:midPointStop
   offset="0.5"
   style="stop-color:#FFFFFF"
   id="midPointStop739" /><a:midPointStop
   offset="1"
   style="stop-color:#F5FFFF"
   id="midPointStop740" /></radialGradient><path
   id="path649"
   nodetypes="cc"
   fill="none"
   stroke="url(#path649_1_)"
   stroke-width="1.0273"
   stroke-linecap="round"
   d="      M19.8,14.5c2.2-0.9,5.2-0.9,7.1,0.3" /><path
   id="path657"
   nodetypes="cc"
   fill="none"
   stroke="#000000"
   stroke-width="1.2145"
   stroke-linecap="round"
   d="      M39.4,14.4c0.9-1.9,2.7-3.8,4.2-4.1" /><path
   id="path658"
   nodetypes="cc"
   fill="none"
   stroke="url(#path649_1_)"
   stroke-width="0.8724"
   stroke-linecap="round"
   d="      M39.4,14.5c0.9-2.1,2.7-3.9,4.3-4.1" /><path
   id="path659"
   nodetypes="cc"
   fill="none"
   stroke="#000000"
   stroke-width="1.1455"
   stroke-linecap="round"
   d="      M7.1,14.4c-0.8-1.9-2.4-3.8-3.7-4.1" /><path
   id="path660"
   nodetypes="cc"
   fill="none"
   stroke="url(#path649_1_)"
   stroke-width="0.8228"
   stroke-linecap="round"
   d="      M7.1,14.5c-0.8-2.1-2.4-3.9-3.8-4.1" /></g></g></svg>
