<?xml version="1.0" encoding="UTF-8" standalone="no"?>
<!DOCTYPE svg PUBLIC "-//W3C//DTD SVG 20010904//EN"
"http://www.w3.org/TR/2001/REC-SVG-20010904/DTD/svg10.dtd">
<!-- Created with Sodipodi ("http://www.sodipodi.com/") -->
<svg
   xmlns:x="http://ns.adobe.com/Extensibility/1.0/"
   xmlns:i="http://ns.adobe.com/AdobeIllustrator/10.0/"
   xmlns:graph="http://ns.adobe.com/Graphs/1.0/"
   xmlns="http://www.w3.org/2000/svg"
   xmlns:xlink="http://www.w3.org/1999/xlink"
   xmlns:a="http://ns.adobe.com/AdobeSVGViewerExtensions/3.0/"
   xml:space="preserve"
   i:viewOrigin="169.9258 427.793"
   i:rulerOrigin="0 0"
   i:pageBounds="0 792 612 0"
   width="48"
   height="48.7"
   viewBox="0 0 48 48.7"
   overflow="visible"
   enable-background="new 0 0 48 48.7"
   xmlns:sodipodi="http://sodipodi.sourceforge.net/DTD/sodipodi-0.dtd"
   id="svg602"
   sodipodi:version="0.34"
   sodipodi:docname="C:\msys\home\su_blanc\mldonkey-2.5.12\src\gtk2\rsvg\emoticons\emoticon_ugly.svg"><defs
   id="defs756" /><sodipodi:namedview
   id="base" /><g
   id="Layer_1"
   i:knockout="Off"
   i:layer="yes"
   i:dimmedPercent="50"
   i:rgbTrio="#4F008000FFFF"><path
   id="path597_5_"
   i:isolated="yes"
   i:knockout="Off"
   opacity="0.15"
   fill="none"
   stroke="#474000"
   stroke-width="1.8818"
   enable-background="new    "
   d="     M5.6,20.2c0-10.7,8-19.3,17.8-19.3c9.8,0,18.4,8.1,18.4,18.7c0,10.7-8.6,19.9-18.4,19.9C13.6,39.5,5.6,30.9,5.6,20.2z" /><path
   id="path597_4_"
   i:isolated="yes"
   i:knockout="Off"
   opacity="0.2"
   fill="none"
   stroke="#474000"
   stroke-width="0.9409"
   enable-background="new    "
   d="     M5.6,20.2c0-10.7,8-19.3,17.8-19.3c9.8,0,18.4,8.1,18.4,18.7c0,10.7-8.6,19.9-18.4,19.9C13.6,39.5,5.6,30.9,5.6,20.2z" /><path
   id="path597_3_"
   i:isolated="yes"
   i:knockout="Off"
   opacity="0.3"
   fill="none"
   stroke="#474000"
   stroke-width="0.4704"
   enable-background="new    "
   d="     M5.6,20.2c0-10.7,8-19.3,17.8-19.3c9.8,0,18.4,8.1,18.4,18.7c0,10.7-8.6,19.9-18.4,19.9C13.6,39.5,5.6,30.9,5.6,20.2z" /><radialGradient
   id="path700_1_"
   cx="-1019.4229"
   cy="-0.6992"
   r="6.388162e-002"
   fx="-1019.4229"
   fy="-0.6992"
   gradientTransform="matrix(310.7065 0 0 144.1183 316766.1875 143.4774)"
   gradientUnits="userSpaceOnUse"><stop
   offset="0"
   style="stop-color:#261700"
   id="stop610" /><stop
   offset="1"
   style="stop-color:#D2D2D2"
   id="stop611" /><a:midPointStop
   offset="0"
   style="stop-color:#261700"
   id="midPointStop612" /><a:midPointStop
   offset="0.5"
   style="stop-color:#261700"
   id="midPointStop613" /><a:midPointStop
   offset="1"
   style="stop-color:#D2D2D2"
   id="midPointStop614" /></radialGradient><path
   id="path700"
   i:isolated="yes"
   i:knockout="Off"
   opacity="0.3"
   fill="url(#path700_1_)"
   enable-background="new    "
   d="     M37.9,31.8c6.5,4.5,6,10.6-1.9,14.3c-7.9,3.7-19.5,3.1-25.9-1.5c-5.5-3.8-5.7-9.1-0.5-13.1c3.4,4.7,6.2,6.3,14,7.3     C30.1,38.7,34.3,35.8,37.9,31.8z" /><radialGradient
   id="path577_1_"
   cx="-978.3477"
   cy="42.8125"
   r="41.5567"
   fx="-978.3477"
   fy="42.8125"
   gradientTransform="matrix(298.9032 0 0 316.3969 304733.6563 -111.2999)"
   gradientUnits="userSpaceOnUse"><stop
   offset="0"
   style="stop-color:#FF6F00"
   id="stop617" /><stop
   offset="1"
   style="stop-color:#FFFF00"
   id="stop618" /><a:midPointStop
   offset="0"
   style="stop-color:#FF6F00"
   id="midPointStop619" /><a:midPointStop
   offset="0.5"
   style="stop-color:#FF6F00"
   id="midPointStop620" /><a:midPointStop
   offset="1"
   style="stop-color:#FFFF00"
   id="midPointStop621" /></radialGradient><circle
   id="path577"
   fill="url(#path577_1_)"
   cx="23.9"
   cy="20.4"
   r="17.8" /><linearGradient
   id="path597_1_"
   gradientUnits="userSpaceOnUse"
   x1="-1019.4165"
   y1="0.3599"
   x2="-1019.4179"
   y2="0.4785"
   gradientTransform="matrix(303.6933 0 0 316.3967 309613.7813 -111.0366)"><stop
   offset="0"
   style="stop-color:#FF6500"
   id="stop624" /><stop
   offset="1"
   style="stop-color:#FFFF00"
   id="stop625" /><a:midPointStop
   offset="0"
   style="stop-color:#FF6500"
   id="midPointStop626" /><a:midPointStop
   offset="0.5"
   style="stop-color:#FF6500"
   id="midPointStop627" /><a:midPointStop
   offset="1"
   style="stop-color:#FFFF00"
   id="midPointStop628" /></linearGradient><path
   id="path597"
   i:isolated="yes"
   i:knockout="Off"
   opacity="0.75"
   fill="url(#path597_1_)"
   enable-background="new    "
   d="     M5.6,20.2c0-10.7,8-19.3,17.8-19.3c9.9,0,18.4,8,18.4,18.7c0,10.7-8.6,19.9-18.4,19.9C13.6,39.5,5.6,30.9,5.6,20.2z" /><radialGradient
   id="path597_6_"
   cx="-826.2578"
   cy="426.7871"
   r="20.2352"
   fx="-826.2578"
   fy="426.7871"
   gradientTransform="matrix(1 0 0 -1 849.6289 427.8164)"
   gradientUnits="userSpaceOnUse"><stop
   offset="0"
   style="stop-color:#FFFFFF"
   id="stop631" /><stop
   offset="0.1046"
   style="stop-color:#FFFEFA"
   id="stop632" /><stop
   offset="0.2282"
   style="stop-color:#FFFBEC"
   id="stop633" /><stop
   offset="0.3616"
   style="stop-color:#FFF7D4"
   id="stop634" /><stop
   offset="0.5018"
   style="stop-color:#FFF1B2"
   id="stop635" /><stop
   offset="0.6474"
   style="stop-color:#FFE988"
   id="stop636" /><stop
   offset="0.7976"
   style="stop-color:#FFDF53"
   id="stop637" /><stop
   offset="0.9487"
   style="stop-color:#FFD316"
   id="stop638" /><stop
   offset="1"
   style="stop-color:#FFCF00"
   id="stop639" /><a:midPointStop
   offset="0"
   style="stop-color:#FFFFFF"
   id="midPointStop640" /><a:midPointStop
   offset="0.5"
   style="stop-color:#FFFFFF"
   id="midPointStop641" /><a:midPointStop
   offset="0.1046"
   style="stop-color:#FFFEFA"
   id="midPointStop642" /><a:midPointStop
   offset="0.5"
   style="stop-color:#FFFEFA"
   id="midPointStop643" /><a:midPointStop
   offset="0.2282"
   style="stop-color:#FFFBEC"
   id="midPointStop644" /><a:midPointStop
   offset="0.5"
   style="stop-color:#FFFBEC"
   id="midPointStop645" /><a:midPointStop
   offset="0.3616"
   style="stop-color:#FFF7D4"
   id="midPointStop646" /><a:midPointStop
   offset="0.5"
   style="stop-color:#FFF7D4"
   id="midPointStop647" /><a:midPointStop
   offset="0.5018"
   style="stop-color:#FFF1B2"
   id="midPointStop648" /><a:midPointStop
   offset="0.5"
   style="stop-color:#FFF1B2"
   id="midPointStop649" /><a:midPointStop
   offset="0.6474"
   style="stop-color:#FFE988"
   id="midPointStop650" /><a:midPointStop
   offset="0.5"
   style="stop-color:#FFE988"
   id="midPointStop651" /><a:midPointStop
   offset="0.7976"
   style="stop-color:#FFDF53"
   id="midPointStop652" /><a:midPointStop
   offset="0.5"
   style="stop-color:#FFDF53"
   id="midPointStop653" /><a:midPointStop
   offset="0.9487"
   style="stop-color:#FFD316"
   id="midPointStop654" /><a:midPointStop
   offset="0.5"
   style="stop-color:#FFD316"
   id="midPointStop655" /><a:midPointStop
   offset="1"
   style="stop-color:#FFCF00"
   id="midPointStop656" /></radialGradient><path
   id="path597_2_"
   i:isolated="yes"
   i:knockout="Off"
   opacity="0.75"
   fill="url(#path597_6_)"
   enable-background="new    "
   d="     M12.2,7.8c0-3.8,5-6.9,11.1-6.9c6.1,0,11.4,2.9,11.4,6.7C34.7,11.4,12.2,11.6,12.2,7.8z" /><rect
   id="rect662"
   y="0.7"
   i:knockout="Off"
   fill="none"
   width="48"
   height="48" /><g
   id="g659"><radialGradient
   id="path630_1_"
   cx="-166.689"
   cy="427.3564"
   r="8.863626e-002"
   fx="-166.689"
   fy="427.3564"
   gradientTransform="matrix(-61.651 0 0 -88.1742 -10244.9775 37700.4727)"
   gradientUnits="userSpaceOnUse"><stop
   offset="0"
   style="stop-color:#DEE2E7"
   id="stop661" /><stop
   offset="1"
   style="stop-color:#FFFFFF"
   id="stop662" /><a:midPointStop
   offset="0"
   style="stop-color:#DEE2E7"
   id="midPointStop663" /><a:midPointStop
   offset="0.5"
   style="stop-color:#DEE2E7"
   id="midPointStop664" /><a:midPointStop
   offset="1"
   style="stop-color:#FFFFFF"
   id="midPointStop665" /></radialGradient><path
   id="path630"
   type="arc"
   cx="50.24698"
   cy="478.4100"
   rx="24.52531"
   ry="34.99345"
   fill="url(#path630_1_)"
   stroke="#7C5202"
   stroke-width="0.5413"
   d="      M28.7,17.4c0-3.2,1.8-5.8,4-5.8c2.2,0,4,2.6,4,5.8c0,0,0,0,0,0c0,3.2-1.8,5.8-4,5.8C30.5,23.2,28.7,20.6,28.7,17.4      C28.7,17.4,28.7,17.4,28.7,17.4z" /><g
   id="path631"
   type="arc"
   cx="50.09747"
   cy="476.7646"
   rx="28.86212"
   ry="41.42389"><path
   i:knockout="Off"
   opacity="3.790000e-002"
   fill="none"
   stroke="#000000"
   stroke-width="0.4921"
   d="M28.1,17.4       c0-3.5,2.1-6.4,4.7-6.4c2.6,0,4.7,2.9,4.7,6.4c0,0,0,0,0,0c0,3.5-2.1,6.4-4.7,6.4C30.2,23.8,28.1,20.9,28.1,17.4       C28.1,17.4,28.1,17.4,28.1,17.4z"
   id="path668" /></g><g
   id="path632"
   type="arc"
   cx="50.09747"
   cy="476.7646"
   rx="28.86212"
   ry="41.42389"><path
   i:knockout="Off"
   opacity="1.420000e-002"
   fill="none"
   stroke="#000000"
   stroke-width="1.7111"
   d="M28.1,17.4       c0-3.5,2.1-6.4,4.7-6.4c2.6,0,4.7,2.8,4.7,6.4c0,0,0,0,0,0c0,3.5-2.1,6.4-4.7,6.4C30.2,23.8,28.1,20.9,28.1,17.4       C28.1,17.4,28.1,17.4,28.1,17.4z"
   id="path670" /></g><g
   id="path633"
   type="arc"
   cx="50.09747"
   cy="476.7646"
   rx="28.86212"
   ry="41.42389"><path
   i:knockout="Off"
   opacity="1.420000e-002"
   fill="none"
   stroke="#000000"
   stroke-width="1.0813"
   d="M28.1,17.4       c0-3.5,2.1-6.4,4.7-6.4c2.6,0,4.7,2.8,4.7,6.4c0,0,0,0,0,0c0,3.5-2.1,6.4-4.7,6.4C30.2,23.8,28.1,20.9,28.1,17.4       C28.1,17.4,28.1,17.4,28.1,17.4z"
   id="path672" /></g><g
   id="path634"
   type="arc"
   cx="50.09747"
   cy="476.7646"
   rx="28.86212"
   ry="41.42389"><path
   i:knockout="Off"
   opacity="1.420000e-002"
   fill="none"
   stroke="#000000"
   stroke-width="0.3724"
   d="M28.1,17.4       c0-3.5,2.1-6.4,4.7-6.4c2.6,0,4.7,2.8,4.7,6.4c0,0,0,0,0,0c0,3.5-2.1,6.4-4.7,6.4C30.2,23.8,28.1,20.9,28.1,17.4       C28.1,17.4,28.1,17.4,28.1,17.4z"
   id="path674" /></g><g
   id="path635"
   type="arc"
   cx="50.09747"
   cy="476.7646"
   rx="28.86212"
   ry="41.42389"><path
   i:knockout="Off"
   opacity="0.1517"
   fill="none"
   stroke="#000000"
   stroke-width="0.1872"
   d="M28.3,17.4       c0-3.5,2-6.3,4.5-6.3c2.5,0,4.5,2.8,4.5,6.3c0,0,0,0,0,0c0,3.5-2,6.3-4.5,6.3C30.3,23.7,28.3,20.9,28.3,17.4       C28.3,17.4,28.3,17.4,28.3,17.4z"
   id="path676" /></g><radialGradient
   id="path637_1_"
   cx="-165.7412"
   cy="427.6201"
   r="8.078212e-002"
   fx="-165.7412"
   fy="427.6201"
   gradientTransform="matrix(-45.0862 0 0 -56.2866 -7438.8394 24086.2852)"
   gradientUnits="userSpaceOnUse"><stop
   offset="0"
   style="stop-color:#000082"
   id="stop678" /><stop
   offset="1"
   style="stop-color:#000000"
   id="stop679" /><a:midPointStop
   offset="0"
   style="stop-color:#000082"
   id="midPointStop680" /><a:midPointStop
   offset="0.5"
   style="stop-color:#000082"
   id="midPointStop681" /><a:midPointStop
   offset="1"
   style="stop-color:#000000"
   id="midPointStop682" /></radialGradient><path
   id="path637"
   type="arc"
   cx="61.64901"
   cy="495.8291"
   rx="10.46870"
   ry="10.89169"
   fill="url(#path637_1_)"
   d="      M29.8,18.9c0-2,1.3-3.7,3-3.7c1.6,0,3,1.7,3,3.7c0,0,0,0,0,0c0,2-1.3,3.7-3,3.7C31.1,22.6,29.8,20.9,29.8,18.9      C29.8,18.9,29.8,18.9,29.8,18.9z" /><radialGradient
   id="path650_1_"
   cx="-170.3438"
   cy="427.3018"
   r="8.813623e-002"
   fx="-170.3438"
   fy="427.3018"
   gradientTransform="matrix(61.651 0 0 -88.1742 10519.126 37694.9102)"
   gradientUnits="userSpaceOnUse"><stop
   offset="0"
   style="stop-color:#DEE2E7"
   id="stop685" /><stop
   offset="1"
   style="stop-color:#FFFFFF"
   id="stop686" /><a:midPointStop
   offset="0"
   style="stop-color:#DEE2E7"
   id="midPointStop687" /><a:midPointStop
   offset="0.5"
   style="stop-color:#DEE2E7"
   id="midPointStop688" /><a:midPointStop
   offset="1"
   style="stop-color:#FFFFFF"
   id="midPointStop689" /></radialGradient><path
   id="path650"
   type="arc"
   cx="50.24698"
   cy="478.4100"
   rx="24.52531"
   ry="34.99345"
   fill="url(#path650_1_)"
   stroke="#7C3902"
   stroke-width="0.5413"
   d="      M20.2,16.7c0-3.2-1.8-5.8-4-5.8c-2.2,0-4,2.6-4,5.8c0,0,0,0,0,0c0,3.2,1.8,5.8,4,5.8C18.4,22.5,20.2,19.9,20.2,16.7      C20.2,16.7,20.2,16.7,20.2,16.7z" /><g
   id="path651"
   type="arc"
   cx="50.09747"
   cy="476.7646"
   rx="28.86212"
   ry="41.42389"><path
   i:knockout="Off"
   opacity="3.790000e-002"
   fill="none"
   stroke="#000000"
   stroke-width="0.4921"
   d="M20.9,16.6       c0-3.5-2.1-6.4-4.7-6.4c-2.6,0-4.7,2.9-4.7,6.4c0,0,0,0,0,0c0,3.5,2.1,6.4,4.7,6.4C18.8,23,20.9,20.2,20.9,16.6       C20.9,16.6,20.9,16.6,20.9,16.6z"
   id="path692" /></g><g
   id="path652"
   type="arc"
   cx="50.09747"
   cy="476.7646"
   rx="28.86212"
   ry="41.42389"><path
   i:knockout="Off"
   opacity="1.420000e-002"
   fill="none"
   stroke="#000000"
   stroke-width="1.7111"
   d="M20.9,16.7       c0-3.5-2.1-6.4-4.7-6.4c-2.6,0-4.7,2.8-4.7,6.4c0,0,0,0,0,0c0,3.5,2.1,6.4,4.7,6.4C18.8,23,20.9,20.2,20.9,16.7       C20.9,16.7,20.9,16.7,20.9,16.7z"
   id="path694" /></g><g
   id="path653"
   type="arc"
   cx="50.09747"
   cy="476.7646"
   rx="28.86212"
   ry="41.42389"><path
   i:knockout="Off"
   opacity="1.420000e-002"
   fill="none"
   stroke="#000000"
   stroke-width="1.0813"
   d="M20.9,16.7       c0-3.5-2.1-6.4-4.7-6.4c-2.6,0-4.7,2.8-4.7,6.4c0,0,0,0,0,0c0,3.5,2.1,6.4,4.7,6.4C18.8,23,20.9,20.2,20.9,16.7       C20.9,16.7,20.9,16.7,20.9,16.7z"
   id="path696" /></g><g
   id="path654"
   type="arc"
   cx="50.09747"
   cy="476.7646"
   rx="28.86212"
   ry="41.42389"><path
   i:knockout="Off"
   opacity="1.420000e-002"
   fill="none"
   stroke="#000000"
   stroke-width="0.3724"
   d="M20.9,16.7       c0-3.5-2.1-6.4-4.7-6.4c-2.6,0-4.7,2.8-4.7,6.4c0,0,0,0,0,0c0,3.5,2.1,6.4,4.7,6.4C18.8,23,20.9,20.2,20.9,16.7       C20.9,16.7,20.9,16.7,20.9,16.7z"
   id="path698" /></g><g
   id="path655"
   type="arc"
   cx="50.09747"
   cy="476.7646"
   rx="28.86212"
   ry="41.42389"><path
   i:knockout="Off"
   opacity="0.1517"
   fill="none"
   stroke="#000000"
   stroke-width="0.1872"
   d="M20.7,16.7       c0-3.5-2-6.3-4.5-6.3c-2.5,0-4.5,2.8-4.5,6.3c0,0,0,0,0,0c0,3.5,2,6.3,4.5,6.3C18.6,22.9,20.7,20.1,20.7,16.7       C20.7,16.7,20.7,16.7,20.7,16.7z"
   id="path701" /></g><radialGradient
   id="path656_1_"
   cx="-170.7368"
   cy="427.2158"
   r="8.112860e-002"
   fx="-170.7368"
   fy="427.2158"
   gradientTransform="matrix(45.0862 0 0 -56.2866 7712.9878 24059.9414)"
   gradientUnits="userSpaceOnUse"><stop
   offset="0"
   style="stop-color:#000082"
   id="stop703" /><stop
   offset="1"
   style="stop-color:#000000"
   id="stop704" /><a:midPointStop
   offset="0"
   style="stop-color:#000082"
   id="midPointStop705" /><a:midPointStop
   offset="0.5"
   style="stop-color:#000082"
   id="midPointStop706" /><a:midPointStop
   offset="1"
   style="stop-color:#000000"
   id="midPointStop707" /></radialGradient><path
   id="path656"
   type="arc"
   cx="61.64901"
   cy="495.8291"
   rx="10.46870"
   ry="10.89169"
   fill="url(#path656_1_)"
   d="      M19.2,15.4c0-2-1.3-3.7-3-3.7c-1.6,0-3,1.7-3,3.7c0,0,0,0,0,0c0,2,1.3,3.7,3,3.7C17.9,19.1,19.2,17.5,19.2,15.4      C19.2,15.4,19.2,15.4,19.2,15.4z" /><ellipse
   id="path646"
   type="arc"
   cx="15.7"
   cy="17.4"
   rx="6.1"
   ry="8.1"
   fill="none"
   stroke="#000000"
   stroke-width="2.0995" /><linearGradient
   id="path644_1_"
   gradientUnits="userSpaceOnUse"
   x1="-170.0288"
   y1="427.3154"
   x2="-169.9193"
   y2="427.2129"
   gradientTransform="matrix(91.6887 0 0 -115.9486 15604.0381 49561.6563)"><stop
   offset="0"
   style="stop-color:#FFFFFF"
   id="stop711" /><stop
   offset="1"
   style="stop-color:#F5FFFF"
   id="stop712" /><a:midPointStop
   offset="0"
   style="stop-color:#FFFFFF"
   id="midPointStop713" /><a:midPointStop
   offset="0.5"
   style="stop-color:#FFFFFF"
   id="midPointStop714" /><a:midPointStop
   offset="1"
   style="stop-color:#F5FFFF"
   id="midPointStop715" /></linearGradient><linearGradient
   id="path644_2_"
   gradientUnits="userSpaceOnUse"
   x1="-169.7476"
   y1="427.6045"
   x2="-168.9131"
   y2="426.8623"><stop
   offset="0"
   style="stop-color:#FFFFFF"
   id="stop717" /><stop
   offset="1"
   style="stop-color:#F5FFFF"
   id="stop718" /><a:midPointStop
   offset="0"
   style="stop-color:#FFFFFF"
   id="midPointStop719" /><a:midPointStop
   offset="0.5"
   style="stop-color:#FFFFFF"
   id="midPointStop720" /><a:midPointStop
   offset="1"
   style="stop-color:#F5FFFF"
   id="midPointStop721" /></linearGradient><ellipse
   id="path644"
   type="arc"
   cx="15.6"
   cy="16.6"
   rx="6"
   ry="7.6"
   opacity="0.4"
   fill="url(#path644_1_)"
   stroke="url(#path644_2_)"
   stroke-width="3.5276" /><ellipse
   id="path645"
   type="arc"
   cx="33.7"
   cy="17.4"
   rx="6.1"
   ry="8.1"
   fill="none"
   stroke="#000000"
   stroke-width="2.0995" /><linearGradient
   id="path647_1_"
   gradientUnits="userSpaceOnUse"
   x1="-171.3296"
   y1="427.3164"
   x2="-171.2201"
   y2="427.2139"
   gradientTransform="matrix(91.6887 0 0 -115.9486 15741.3506 49561.6563)"><stop
   offset="0"
   style="stop-color:#FFFFFF"
   id="stop725" /><stop
   offset="1"
   style="stop-color:#F5FFFF"
   id="stop726" /><a:midPointStop
   offset="0"
   style="stop-color:#FFFFFF"
   id="midPointStop727" /><a:midPointStop
   offset="0.5"
   style="stop-color:#FFFFFF"
   id="midPointStop728" /><a:midPointStop
   offset="1"
   style="stop-color:#F5FFFF"
   id="midPointStop729" /></linearGradient><ellipse
   id="path647"
   type="arc"
   cx="33.6"
   cy="16.6"
   rx="6"
   ry="7.6"
   opacity="0.4"
   fill="url(#path647_1_)"
   stroke="url(#path644_2_)"
   stroke-width="3.5276" /><path
   id="path648"
   nodetypes="cc"
   fill="none"
   stroke="#000000"
   stroke-width="1.4982"
   stroke-linecap="round"
   d="      M21.6,13.5c1.9-0.9,4.8-0.9,6.5,0.2" /><radialGradient
   id="path649_1_"
   cx="-169.4243"
   cy="428.793"
   r="4.0175"
   fx="-169.4243"
   fy="428.793"
   gradientUnits="userSpaceOnUse"><stop
   offset="0"
   style="stop-color:#FFFFFF"
   id="stop733" /><stop
   offset="1"
   style="stop-color:#F5FFFF"
   id="stop734" /><a:midPointStop
   offset="0"
   style="stop-color:#FFFFFF"
   id="midPointStop735" /><a:midPointStop
   offset="0.5"
   style="stop-color:#FFFFFF"
   id="midPointStop736" /><a:midPointStop
   offset="1"
   style="stop-color:#F5FFFF"
   id="midPointStop737" /></radialGradient><path
   id="path649"
   nodetypes="cc"
   fill="none"
   stroke="url(#path649_1_)"
   stroke-width="1.0762"
   stroke-linecap="round"
   d="      M21.5,13.3c2.1-1,4.9-1,6.7,0.3" /><path
   id="path657"
   nodetypes="cc"
   fill="none"
   stroke="#000000"
   stroke-width="1.1384"
   stroke-linecap="round"
   d="      M39.7,14.1c0.8-1.8,2.5-3.5,3.9-3.9" /><path
   id="path658"
   nodetypes="cc"
   fill="none"
   stroke="url(#path649_1_)"
   stroke-width="0.8177"
   stroke-linecap="round"
   d="      M39.7,14.2c0.9-1.9,2.5-3.6,4-3.9" /><path
   id="path659"
   nodetypes="cc"
   fill="none"
   stroke="#000000"
   stroke-width="1.0737"
   stroke-linecap="round"
   d="      M9.5,14.1c-0.7-1.8-2.3-3.5-3.5-3.9" /><path
   id="path660"
   nodetypes="cc"
   fill="none"
   stroke="url(#path649_1_)"
   stroke-width="0.7712"
   stroke-linecap="round"
   d="      M9.5,14.2c-0.8-1.9-2.2-3.6-3.6-3.9" /></g><g
   id="g743"><path
   id="path714"
   nodetypes="css"
   fill="none"
   stroke="#795000"
   stroke-width="1.0352"
   stroke-linecap="round"
   d="      M13.3,30.5c2,4.5,7.5,3.9,10,1.6c2.4-2.3,6.9-4.3,10.1,0.6" /><g
   id="path721"
   nodetypes="css"><path
   i:knockout="Off"
   opacity="2.000000e-002"
   fill="none"
   stroke="#010100"
   stroke-width="3.281"
   stroke-linecap="round"
   d="       M13.3,30.5c2,4.5,7.5,3.9,10,1.6c2.4-2.3,6.9-4.3,10.1,0.6"
   id="path746" /></g><g
   id="path638"
   nodetypes="css"><path
   i:knockout="Off"
   opacity="2.000000e-002"
   fill="none"
   stroke="#010100"
   stroke-width="2.9247"
   stroke-linecap="round"
   d="       M13.3,30.5c2,4.5,7.5,3.9,10,1.6c2.4-2.3,6.9-4.3,10.1,0.6"
   id="path748" /></g><g
   id="path723"
   nodetypes="css"><path
   i:knockout="Off"
   opacity="0.11"
   fill="none"
   stroke="#010100"
   stroke-width="1.7784"
   stroke-linecap="round"
   d="       M13.3,30.5c2,4.5,7.5,3.9,10,1.6c2.4-2.3,6.9-4.3,10.1,0.6"
   id="path750" /></g><g
   id="path724"
   nodetypes="css"><path
   i:knockout="Off"
   opacity="2.000000e-002"
   fill="none"
   stroke="#010100"
   stroke-width="2.429"
   stroke-linecap="round"
   d="       M13.3,30.5c2,4.5,7.5,3.9,10,1.6c2.4-2.3,6.9-4.3,10.1,0.6"
   id="path752" /></g><g
   id="path726"
   nodetypes="css"><path
   i:knockout="Off"
   opacity="2.000000e-002"
   fill="none"
   stroke="#010100"
   stroke-width="2.6304"
   stroke-linecap="round"
   d="       M13.3,30.5c2,4.5,7.5,3.9,10,1.6c2.4-2.3,6.9-4.3,10.1,0.6"
   id="path754" /></g></g></g></svg>
