<?xml version="1.0" encoding="UTF-8" standalone="no"?>
<!DOCTYPE svg PUBLIC "-//W3C//DTD SVG 20010904//EN"
"http://www.w3.org/TR/2001/REC-SVG-20010904/DTD/svg10.dtd">
<!-- Created with Sodipodi ("http://www.sodipodi.com/") -->
<svg
   xmlns:x="http://ns.adobe.com/Extensibility/1.0/"
   xmlns:i="http://ns.adobe.com/AdobeIllustrator/10.0/"
   xmlns:graph="http://ns.adobe.com/Graphs/1.0/"
   xmlns="http://www.w3.org/2000/svg"
   xmlns:xlink="http://www.w3.org/1999/xlink"
   xmlns:a="http://ns.adobe.com/AdobeSVGViewerExtensions/3.0/"
   xmlns:sodipodi="http://sodipodi.sourceforge.net/DTD/sodipodi-0.dtd"
   xml:space="preserve"
   i:viewOrigin="184.0127 448.3428"
   i:rulerOrigin="0 0"
   i:pageBounds="0 792 612 0"
   width="52.5"
   height="48"
   viewBox="0 0 52.5 48"
   overflow="visible"
   enable-background="new 0 0 52.5 48"
   id="svg602"
   sodipodi:version="0.34"
   sodipodi:docname="C:\msys\home\su_blanc\mldonkey-2.5.24\src\gtk2\rsvg\emoticon_pizza.svg"
   sodipodi:docbase="C:\msys\home\su_blanc\mldonkey-2.5.24\src\gtk2\rsvg"><defs
   id="defs794" /><sodipodi:namedview
   id="namedview793" /><g
   id="Layer_1"
   i:layer="yes"
   i:dimmedPercent="50"
   i:rgbTrio="#4F008000FFFF"><g
   id="g606"><g
   id="g607"><g
   id="path622"
   nodetypes="cccccccc"><path
   i:knockout="Off"
   opacity="3.790000e-002"
   fill="none"
   stroke="#232929"
   stroke-width="2.4435"
   stroke-linejoin="round"
   d="        M2.8,43c13.6-6.3,33.1-13.9,47.1-20c0.6-4.6,0.8-14.1-3-15c-1.2-0.4-11.1-2.2-16.2-2.7c-4.1-0.4-11.3-0.3-15.1-0.5        c-1.4,1.4-2,6.5-1.5,12.7c-3.3,6.3-7.4,12.3-11.5,18.6C1.7,38.2,3,41.1,2.8,43z"
   id="path609" /></g><g
   id="path621"
   nodetypes="cccccccc"><path
   i:knockout="Off"
   opacity="3.790000e-002"
   fill="none"
   stroke="#232929"
   stroke-width="2.7945"
   stroke-linejoin="round"
   d="        M2.8,43c13.6-6.3,33.1-13.9,47.1-20c0.6-4.6,0.8-14.1-3-15c-1.2-0.4-11.1-2.2-16.2-2.7c-4.1-0.4-11.3-0.3-15.1-0.5        c-1.4,1.4-2,6.5-1.5,12.7c-3.3,6.3-7.4,12.3-11.5,18.6C1.7,38.2,3,41.1,2.8,43z"
   id="path611" /></g><g
   id="path620"
   nodetypes="cccccccc"><path
   i:knockout="Off"
   opacity="3.790000e-002"
   fill="none"
   stroke="#232929"
   stroke-width="3.0375"
   stroke-linejoin="round"
   d="        M2.8,43c13.6-6.3,33.1-13.9,47.1-20c0.6-4.6,0.8-14.1-3-15c-1.2-0.4-11.1-2.2-16.2-2.7c-4.1-0.4-11.3-0.3-15.1-0.5        c-1.4,1.4-2,6.5-1.5,12.7c-3.3,6.3-7.4,12.3-11.5,18.6C1.7,38.2,3,41.1,2.8,43z"
   id="path613" /></g><g
   id="path619"
   nodetypes="cccccccc"><path
   i:knockout="Off"
   opacity="3.790000e-002"
   fill="none"
   stroke="#232929"
   stroke-width="3.3885"
   stroke-linejoin="round"
   d="        M2.8,43c13.6-6.3,33.1-13.9,47.1-20c0.6-4.6,0.8-14.1-3-15c-1.2-0.4-11.1-2.2-16.2-2.7c-4.1-0.4-11.3-0.3-15.1-0.5        c-1.4,1.4-2,6.5-1.5,12.7c-3.3,6.3-7.4,12.3-11.5,18.6C1.7,38.2,3,41.1,2.8,43z"
   id="path615" /></g><g
   id="path618"
   nodetypes="cccccccc"><path
   i:knockout="Off"
   opacity="3.790000e-002"
   fill="none"
   stroke="#232929"
   stroke-width="3.9825"
   stroke-linejoin="round"
   d="        M2.8,43c13.6-6.3,33.1-13.9,47.1-20c0.6-4.6,0.8-14.1-3-15c-1.2-0.4-11.1-2.2-16.2-2.7c-4.1-0.4-11.3-0.3-15.1-0.5        c-1.4,1.4-2,6.5-1.5,12.7c-3.3,6.3-7.4,12.3-11.5,18.6C1.7,38.2,3,41.1,2.8,43z"
   id="path617" /></g><g
   id="g618"
   nodetypes="cccccccc"><path
   i:knockout="Off"
   opacity="3.790000e-002"
   fill="none"
   stroke="#232929"
   stroke-width="4.509"
   stroke-linejoin="round"
   d="        M2.8,43c13.6-6.3,33.1-13.9,47.1-20c0.6-4.6,0.8-14.1-3-15c-1.2-0.4-11.1-2.2-16.2-2.7c-4.1-0.4-11.3-0.3-15.1-0.5        c-1.4,1.4-2,6.5-1.5,12.7c-3.3,6.3-7.4,12.3-11.5,18.6C1.7,38.2,3,41.1,2.8,43z"
   id="path623" /></g><linearGradient
   id="path567_1_"
   gradientUnits="userSpaceOnUse"
   x1="-183.7886"
   y1="447.9756"
   x2="-183.6807"
   y2="447.9756"
   gradientTransform="matrix(437.8213 0 0 -322.6064 80469.2734 144545.5625)"><stop
   offset="0"
   style="stop-color:#8C7A65"
   id="stop625" /><stop
   offset="1"
   style="stop-color:#D7D70A"
   id="stop626" /><a:midPointStop
   offset="0"
   style="stop-color:#8C7A65"
   id="midPointStop627" /><a:midPointStop
   offset="0.5"
   style="stop-color:#8C7A65"
   id="midPointStop628" /><a:midPointStop
   offset="1"
   style="stop-color:#D7D70A"
   id="midPointStop629" /></linearGradient><path
   id="path567"
   nodetypes="ccsccc"
   fill="url(#path567_1_)"
   d="M2.7,43.1l47.2-19.9c0.3-6.4,0.5-17.3-5.3-14.5       c-2.9,1.3-5.4,7.9-4.3,11.7L2.7,36.2V43.1z" /><linearGradient
   id="path570_1_"
   gradientUnits="userSpaceOnUse"
   x1="-183.9609"
   y1="447.4648"
   x2="-183.9286"
   y2="447.352"
   gradientTransform="matrix(303.1233 0 0 -144.1542 55787.4258 64506.9258)"><stop
   offset="0"
   style="stop-color:#BAA77F"
   id="stop632" /><stop
   offset="1"
   style="stop-color:#FFFF6F"
   id="stop633" /><a:midPointStop
   offset="0"
   style="stop-color:#BAA77F"
   id="midPointStop634" /><a:midPointStop
   offset="0.5"
   style="stop-color:#BAA77F"
   id="midPointStop635" /><a:midPointStop
   offset="1"
   style="stop-color:#FFFF6F"
   id="midPointStop636" /></linearGradient><path
   id="path570"
   nodetypes="ccccc"
   fill="url(#path570_1_)"
   d="M46.7,8.2C38.2,5.8,26,4.6,15.5,5       c-1.6,2.1-1.5,7.9-1.5,12.7c9.3,0,18.9,1,26.5,2.8C40.2,17.4,40.1,9.4,46.7,8.2z" /><linearGradient
   id="path569_1_"
   gradientUnits="userSpaceOnUse"
   x1="-183.728"
   y1="448.1348"
   x2="-183.66"
   y2="448.1069"
   gradientTransform="matrix(347.6206 0 0 -179.3531 63871.5625 80398.2891)"><stop
   offset="0"
   style="stop-color:#D9CD87"
   id="stop639" /><stop
   offset="1"
   style="stop-color:#FFFFFF"
   id="stop640" /><a:midPointStop
   offset="0"
   style="stop-color:#D9CD87"
   id="midPointStop641" /><a:midPointStop
   offset="0.5"
   style="stop-color:#D9CD87"
   id="midPointStop642" /><a:midPointStop
   offset="1"
   style="stop-color:#FFFFFF"
   id="midPointStop643" /></linearGradient><path
   id="path569"
   nodetypes="csssssssccc"
   fill="url(#path569_1_)"
   d="M14.2,17.6c1.2,0,2.5-0.8,3.7-0.8       c1.2,0,2.3,0.9,3.4,1c1.2,0.1,2.7-1,3.8-0.9c1.1,0.1,1.9,1.4,3,1.5c1.1,0.1,2.7-1.4,3.8-1.2c1.1,0.2,1.5,2,2.6,2.1       c1,0.2,2.5-0.8,3.5-0.6c1,0.2,1.5,1.6,2.4,1.8c0,0-37.7,15.9-37.5,15.7C2.9,36,14,17.7,14.2,17.6z" /><radialGradient
   id="path583_1_"
   cx="-182.3594"
   cy="453.4629"
   r="0.206"
   fx="-182.3594"
   fy="453.4629"
   gradientTransform="matrix(38.2834 0 0 -14.9674 7000.6792 6813.0444)"
   gradientUnits="userSpaceOnUse"><stop
   offset="0"
   style="stop-color:#850000"
   id="stop646" /><stop
   offset="1"
   style="stop-color:#D50000"
   id="stop647" /><a:midPointStop
   offset="0"
   style="stop-color:#850000"
   id="midPointStop648" /><a:midPointStop
   offset="0.5"
   style="stop-color:#850000"
   id="midPointStop649" /><a:midPointStop
   offset="1"
   style="stop-color:#D50000"
   id="midPointStop650" /></radialGradient><path
   id="path583"
   type="arc"
   cx="192.0158"
   cy="601.0353"
   rx="25.72175"
   ry="11.06635"
   fill="url(#path583_1_)"
   stroke="#000000"
   stroke-width="0.1713"
   d="       M12.4,30.1c0-0.4-0.9-0.8-2.1-0.8c-1.1,0-2.1,0.4-2.1,0.8v0c0,0.4,0.9,0.8,2.1,0.8C11.5,30.9,12.4,30.6,12.4,30.1       C12.4,30.1,12.4,30.1,12.4,30.1z" /><radialGradient
   id="path588_1_"
   cx="-182.6719"
   cy="452.2441"
   r="0.2647"
   fx="-182.6719"
   fy="452.2441"
   gradientTransform="matrix(29.839 0 0 -11.666 5470.1348 5301.7646)"
   gradientUnits="userSpaceOnUse"><stop
   offset="0"
   style="stop-color:#850000"
   id="stop653" /><stop
   offset="1"
   style="stop-color:#D50000"
   id="stop654" /><a:midPointStop
   offset="0"
   style="stop-color:#850000"
   id="midPointStop655" /><a:midPointStop
   offset="0.5"
   style="stop-color:#850000"
   id="midPointStop656" /><a:midPointStop
   offset="1"
   style="stop-color:#D50000"
   id="midPointStop657" /></radialGradient><path
   id="path588"
   type="arc"
   cx="192.0158"
   cy="601.0353"
   rx="25.72175"
   ry="11.06635"
   fill="url(#path588_1_)"
   stroke="#000000"
   stroke-width="0.2198"
   d="       M14.3,26.6c0-0.3-0.8-0.6-1.7-0.6c-1,0-1.7,0.3-1.7,0.6c0,0,0,0,0,0c0,0.3,0.8,0.6,1.7,0.6S14.3,26.9,14.3,26.6       C14.3,26.6,14.3,26.6,14.3,26.6z" /><radialGradient
   id="path589_1_"
   cx="-184.0767"
   cy="452.0645"
   r="0.207"
   fx="-184.0767"
   fy="452.0645"
   gradientTransform="matrix(38.2834 0 0 -14.9674 7066.4604 6792.1069)"
   gradientUnits="userSpaceOnUse"><stop
   offset="0"
   style="stop-color:#850000"
   id="stop660" /><stop
   offset="1"
   style="stop-color:#D50000"
   id="stop661" /><a:midPointStop
   offset="0"
   style="stop-color:#850000"
   id="midPointStop662" /><a:midPointStop
   offset="0.5"
   style="stop-color:#850000"
   id="midPointStop663" /><a:midPointStop
   offset="1"
   style="stop-color:#D50000"
   id="midPointStop664" /></radialGradient><path
   id="path589"
   type="arc"
   cx="192.0158"
   cy="601.0353"
   rx="25.72175"
   ry="11.06635"
   fill="url(#path589_1_)"
   stroke="#000000"
   stroke-width="0.1713"
   d="       M19.5,27.9c0-0.4-0.9-0.8-2.1-0.8c-1.1,0-2.1,0.4-2.1,0.8c0,0,0,0,0,0c0,0.4,0.9,0.8,2.1,0.8C18.6,28.7,19.5,28.3,19.5,27.9       L19.5,27.9z" /><radialGradient
   id="path590_1_"
   cx="-184.0146"
   cy="449.9053"
   r="0.2043"
   fx="-184.0146"
   fy="449.9053"
   gradientTransform="matrix(38.2834 0 0 -14.9674 7064.0854 6759.7944)"
   gradientUnits="userSpaceOnUse"><stop
   offset="0"
   style="stop-color:#850000"
   id="stop667" /><stop
   offset="1"
   style="stop-color:#D50000"
   id="stop668" /><a:midPointStop
   offset="0"
   style="stop-color:#850000"
   id="midPointStop669" /><a:midPointStop
   offset="0.5"
   style="stop-color:#850000"
   id="midPointStop670" /><a:midPointStop
   offset="1"
   style="stop-color:#D50000"
   id="midPointStop671" /></radialGradient><path
   id="path590"
   type="arc"
   cx="192.0158"
   cy="601.0353"
   rx="25.72175"
   ry="11.06635"
   fill="url(#path590_1_)"
   stroke="#000000"
   stroke-width="0.1713"
   d="       M19.2,24.4c0-0.4-0.9-0.8-2.1-0.8s-2.1,0.4-2.1,0.8v0c0,0.4,0.9,0.8,2.1,0.8C18.3,25.2,19.2,24.8,19.2,24.4       C19.2,24.4,19.2,24.4,19.2,24.4z" /><radialGradient
   id="path591_1_"
   cx="-185.9053"
   cy="450.1436"
   r="0.2066"
   fx="-185.9053"
   fy="450.1436"
   gradientTransform="matrix(38.2834 0 0 -14.9674 7136.4604 6763.3882)"
   gradientUnits="userSpaceOnUse"><stop
   offset="0"
   style="stop-color:#850000"
   id="stop674" /><stop
   offset="1"
   style="stop-color:#D50000"
   id="stop675" /><a:midPointStop
   offset="0"
   style="stop-color:#850000"
   id="midPointStop676" /><a:midPointStop
   offset="0.5"
   style="stop-color:#850000"
   id="midPointStop677" /><a:midPointStop
   offset="1"
   style="stop-color:#D50000"
   id="midPointStop678" /></radialGradient><path
   id="path591"
   type="arc"
   cx="192.0158"
   cy="601.0353"
   rx="25.72175"
   ry="11.06635"
   fill="url(#path591_1_)"
   stroke="#232929"
   stroke-width="0.1713"
   d="       M27.1,24.8c0-0.4-0.9-0.8-2.1-0.8c-1.1,0-2.1,0.4-2.1,0.8v0c0,0.4,0.9,0.8,2.1,0.8C26.1,25.6,27.1,25.2,27.1,24.8       C27.1,24.8,27.1,24.8,27.1,24.8z" /><radialGradient
   id="path592_1_"
   cx="-185.6982"
   cy="448.3467"
   r="0.2408"
   fx="-185.6982"
   fy="448.3467"
   gradientTransform="matrix(32.6813 0 0 -12.7772 6088.2583 5754.5093)"
   gradientUnits="userSpaceOnUse"><stop
   offset="0"
   style="stop-color:#850000"
   id="stop681" /><stop
   offset="1"
   style="stop-color:#D50000"
   id="stop682" /><a:midPointStop
   offset="0"
   style="stop-color:#850000"
   id="midPointStop683" /><a:midPointStop
   offset="0.5"
   style="stop-color:#850000"
   id="midPointStop684" /><a:midPointStop
   offset="1"
   style="stop-color:#D50000"
   id="midPointStop685" /></radialGradient><path
   id="path592"
   type="arc"
   cx="192.0158"
   cy="601.0353"
   rx="25.72175"
   ry="11.06635"
   fill="url(#path592_1_)"
   stroke="#232929"
   stroke-width="0.2007"
   d="       M24.5,21.8c0-0.4-0.8-0.7-1.7-0.7s-1.7,0.3-1.7,0.7v0c0,0.4,0.8,0.7,1.7,0.7C23.7,22.5,24.5,22.2,24.5,21.8       C24.5,21.8,24.5,21.8,24.5,21.8z" /><radialGradient
   id="path593_1_"
   cx="-183.7588"
   cy="447.832"
   r="0.241"
   fx="-183.7588"
   fy="447.832"
   gradientTransform="matrix(32.6813 0 0 -12.7772 6024.8521 5747.9312)"
   gradientUnits="userSpaceOnUse"><stop
   offset="0"
   style="stop-color:#850000"
   id="stop688" /><stop
   offset="1"
   style="stop-color:#D50000"
   id="stop689" /><a:midPointStop
   offset="0"
   style="stop-color:#850000"
   id="midPointStop690" /><a:midPointStop
   offset="0.5"
   style="stop-color:#850000"
   id="midPointStop691" /><a:midPointStop
   offset="1"
   style="stop-color:#D50000"
   id="midPointStop692" /></radialGradient><path
   id="path593"
   type="arc"
   cx="192.0158"
   cy="601.0353"
   rx="25.72175"
   ry="11.06635"
   fill="url(#path593_1_)"
   stroke="#000000"
   stroke-width="0.2007"
   d="       M17.6,21.1c0-0.4-0.8-0.7-1.7-0.7c-0.9,0-1.7,0.3-1.7,0.7c0,0,0,0,0,0c0,0.4,0.8,0.7,1.7,0.7C16.9,21.8,17.6,21.5,17.6,21.1       L17.6,21.1z" /><radialGradient
   id="path594_1_"
   cx="-187.8042"
   cy="448.207"
   r="0.2414"
   fx="-187.8042"
   fy="448.207"
   gradientTransform="matrix(32.6813 0 0 -12.7772 6157.0552 5752.7202)"
   gradientUnits="userSpaceOnUse"><stop
   offset="0"
   style="stop-color:#850000"
   id="stop695" /><stop
   offset="1"
   style="stop-color:#D50000"
   id="stop696" /><a:midPointStop
   offset="0"
   style="stop-color:#850000"
   id="midPointStop697" /><a:midPointStop
   offset="0.5"
   style="stop-color:#850000"
   id="midPointStop698" /><a:midPointStop
   offset="1"
   style="stop-color:#D50000"
   id="midPointStop699" /></radialGradient><path
   id="path594"
   type="arc"
   cx="192.0158"
   cy="601.0353"
   rx="25.72175"
   ry="11.06635"
   fill="url(#path594_1_)"
   stroke="#232929"
   stroke-width="0.2007"
   d="       M31.9,21.6c0-0.4-0.8-0.7-1.7-0.7c-0.9,0-1.7,0.3-1.7,0.7c0,0,0,0,0,0c0,0.4,0.8,0.7,1.7,0.7C31.1,22.3,31.9,22,31.9,21.6       L31.9,21.6z" /><linearGradient
   id="path604_1_"
   gradientUnits="userSpaceOnUse"
   x1="-184.1309"
   y1="447.0967"
   x2="-184.1321"
   y2="446.936"
   gradientTransform="matrix(174.5632 0 0 -100.2257 32170.0586 44812.6602)"><stop
   offset="0"
   style="stop-color:#FFFFFF"
   id="stop702" /><stop
   offset="1"
   style="stop-color:#FFFFFF"
   id="stop703" /><a:midPointStop
   offset="0"
   style="stop-color:#FFFFFF"
   id="midPointStop704" /><a:midPointStop
   offset="0.5"
   style="stop-color:#FFFFFF"
   id="midPointStop705" /><a:midPointStop
   offset="1"
   style="stop-color:#FFFFFF"
   id="midPointStop706" /></linearGradient><path
   id="path604"
   nodetypes="csssss"
   opacity="0.35"
   fill="url(#path604_1_)"
   d="M24.6,5c-2-0.2-5.4,0.6-6.2,2.7       c-0.5,1.5-0.1,3.8,1.1,4.8c2.2,2,5.5,3.3,8.9,3.2c3.3-0.1,8.4-2.4,8.6-4C38,4.4,30.4,5.6,24.6,5z" /><path
   id="path708"
   nodetypes="cccccccc"
   fill="none"
   stroke="#6F4747"
   stroke-width="0.81"
   stroke-linejoin="round"
   d="       M2.8,43c13.6-6.3,33.1-13.9,47.1-20c0.6-4.6,0.8-14.1-3-15c-1.2-0.4-11.1-2.2-16.2-2.7c-4.1-0.4-11.3-0.3-15.1-0.5       c-1.4,1.4-2,6.5-1.5,12.7c-3.3,6.3-7.4,12.3-11.5,18.6C1.7,38.2,3,41.1,2.8,43z" /><linearGradient
   id="path595_1_"
   gradientUnits="userSpaceOnUse"
   x1="-183.668"
   y1="448.2344"
   x2="-183.697"
   y2="448.323"
   gradientTransform="matrix(360.7106 0 0 -196.4639 66278.9063 88101.5234)"><stop
   offset="0"
   style="stop-color:#D9CD87"
   id="stop710" /><stop
   offset="1"
   style="stop-color:#FFFFFF"
   id="stop711" /><a:midPointStop
   offset="0"
   style="stop-color:#D9CD87"
   id="midPointStop712" /><a:midPointStop
   offset="0.5"
   style="stop-color:#D9CD87"
   id="midPointStop713" /><a:midPointStop
   offset="1"
   style="stop-color:#FFFFFF"
   id="midPointStop714" /></linearGradient><path
   id="path595"
   nodetypes="cssssssssssssssssssssssc"
   fill="url(#path595_1_)"
   d="M40.6,20.2l0.8,1       c0.5,0.6-0.3,2.2-0.8,2.6c-0.6,0.5-1.2-1-2-0.6c-0.4,0.2-1.3,1.8-1.7,1.9c-0.7,0.2-1-1.2-1.7-0.8c-1.1,0.5-1.7,2.5-2.7,2.9       c-0.6,0.2-1.7-1.4-2.3-1.1c-0.9,0.4-2.4,3.9-3.7,3.8c-1.2-0.1-1.4-1.4-2.4-0.9c-0.9,0.4-1.7,2.7-2.5,3       c-0.5,0.3-0.9-1.5-1.5-1.2c-1.1,0.5-2.4,2.5-3.4,3.6c-0.6,0.7-1.3-1.3-2-1c-0.9,0.3-1.6,1.6-2.5,2.4c-0.7,0.7-2.3-1.4-2.8-0.8       l-1.6,1.7c-0.7,0.8,0.7,2,0.6,2.6c-0.1,0.6-0.6,1.7-1.5,2.2c-0.5,0.2-1.7-0.7-2-1.3c-0.2-0.4,0.3-2.9,0.1-3       C4.7,37,3.3,38,2.8,37.9c-0.3-0.1-0.1-1.7,0.4-1.9L40.6,20.2z" /><radialGradient
   id="path610_1_"
   cx="-180.0327"
   cy="456.6973"
   r="2.206197e-002"
   fx="-180.0327"
   fy="456.6973"
   gradientTransform="matrix(16.8797 0 0 -17.761 3046.5298 8151.0444)"
   gradientUnits="userSpaceOnUse"><stop
   offset="0"
   style="stop-color:#FFFFFF"
   id="stop717" /><stop
   offset="1"
   style="stop-color:#FFFFFF"
   id="stop718" /><a:midPointStop
   offset="0"
   style="stop-color:#FFFFFF"
   id="midPointStop719" /><a:midPointStop
   offset="0.5"
   style="stop-color:#FFFFFF"
   id="midPointStop720" /><a:midPointStop
   offset="1"
   style="stop-color:#FFFFFF"
   id="midPointStop721" /></radialGradient><path
   id="path610"
   nodetypes="cssss"
   fill="url(#path610_1_)"
   d="M7.5,40.5c0.3,0,0.9-1,0.9-1.3       c0-0.3-0.7-0.6-1.1-0.6c-0.3,0-0.8,0.5-0.8,0.8C6.6,39.7,7.2,40.5,7.5,40.5z" /><path
   id="path723"
   nodetypes="cssss"
   fill="url(#path610_1_)"
   d="M7.5,40.5c0.3,0,0.9-1,0.9-1.3       c0-0.3-0.7-0.6-1.1-0.6c-0.3,0-0.8,0.5-0.8,0.8C6.6,39.7,7.2,40.5,7.5,40.5z" /><linearGradient
   id="path599_1_"
   gradientUnits="userSpaceOnUse"
   x1="-183.729"
   y1="448.2617"
   x2="-183.6202"
   y2="448.2609"
   gradientTransform="matrix(350.8741 0 0 -155.8625 64468.1719 69895.3594)"><stop
   offset="0"
   style="stop-color:#FFFFFF"
   id="stop725" /><stop
   offset="1"
   style="stop-color:#FFFFFF"
   id="stop726" /><a:midPointStop
   offset="0"
   style="stop-color:#FFFFFF"
   id="midPointStop727" /><a:midPointStop
   offset="0.5"
   style="stop-color:#FFFFFF"
   id="midPointStop728" /><a:midPointStop
   offset="1"
   style="stop-color:#FFFFFF"
   id="midPointStop729" /></linearGradient><path
   id="path599"
   nodetypes="ccsssc"
   fill="url(#path599_1_)"
   d="M40,19.9l0.5,0.6L2.7,36.7C2.2,37,3,35.5,3.3,35.2       c0.1-0.1,0.4,0.4,0.6,0.3L40,19.9z" /><linearGradient
   id="path612_1_"
   gradientUnits="userSpaceOnUse"
   x1="-183.1523"
   y1="448.1455"
   x2="-183.0435"
   y2="448.1447"
   gradientTransform="matrix(116.8427 0 0 -172.7939 21402.3828 77463.5234)"><stop
   offset="0"
   style="stop-color:#FFFFFF"
   id="stop732" /><stop
   offset="1"
   style="stop-color:#FFFFFF"
   id="stop733" /><a:midPointStop
   offset="0"
   style="stop-color:#FFFFFF"
   id="midPointStop734" /><a:midPointStop
   offset="0.5"
   style="stop-color:#FFFFFF"
   id="midPointStop735" /><a:midPointStop
   offset="1"
   style="stop-color:#FFFFFF"
   id="midPointStop736" /></linearGradient><path
   id="path612"
   nodetypes="ccsssc"
   fill="url(#path612_1_)"
   d="M14.5,17.5l0.5,0L3.7,35.8       c-0.1,0.2-1.4,0.5-1.3,0.1c0-0.1,0.8-0.8,0.8-0.9L14.5,17.5z" /><radialGradient
   id="path613_1_"
   cx="-181.5376"
   cy="458.0977"
   r="2.226560e-002"
   fx="-181.5376"
   fy="458.0977"
   gradientTransform="matrix(10.2506 0 0 -11.5735 1873.105 5336.7202)"
   gradientUnits="userSpaceOnUse"><stop
   offset="0"
   style="stop-color:#FFFFFF"
   id="stop739" /><stop
   offset="1"
   style="stop-color:#FFFFFF"
   id="stop740" /><a:midPointStop
   offset="0"
   style="stop-color:#FFFFFF"
   id="midPointStop741" /><a:midPointStop
   offset="0.5"
   style="stop-color:#FFFFFF"
   id="midPointStop742" /><a:midPointStop
   offset="1"
   style="stop-color:#FFFFFF"
   id="midPointStop743" /></radialGradient><path
   id="path744"
   nodetypes="cssss"
   fill="url(#path613_1_)"
   d="M12.1,35.5c0.2,0,0.6-0.6,0.5-0.9       c0-0.2-0.4-0.4-0.6-0.4c-0.2,0-0.5,0.3-0.5,0.5C11.6,35,12,35.5,12.1,35.5z" /><radialGradient
   id="path614_1_"
   cx="-185.1909"
   cy="457.1104"
   r="2.203746e-002"
   fx="-185.1909"
   fy="457.1104"
   gradientTransform="matrix(10.2506 0 0 -11.5735 1915.0894 5323.8999)"
   gradientUnits="userSpaceOnUse"><stop
   offset="0"
   style="stop-color:#FFFFFF"
   id="stop746" /><stop
   offset="1"
   style="stop-color:#FFFFFF"
   id="stop747" /><a:midPointStop
   offset="0"
   style="stop-color:#FFFFFF"
   id="midPointStop748" /><a:midPointStop
   offset="0.5"
   style="stop-color:#FFFFFF"
   id="midPointStop749" /><a:midPointStop
   offset="1"
   style="stop-color:#FFFFFF"
   id="midPointStop750" /></radialGradient><path
   id="path614"
   nodetypes="cssss"
   fill="url(#path614_1_)"
   d="M16.7,34.1c0.2,0,0.6-0.6,0.5-0.9       c0-0.2-0.4-0.4-0.6-0.4c-0.2,0-0.5,0.3-0.5,0.5C16.1,33.6,16.5,34.1,16.7,34.1z" /><radialGradient
   id="path615_1_"
   cx="-189.3447"
   cy="455.4072"
   r="2.212306e-002"
   fx="-189.3447"
   fy="455.4072"
   gradientTransform="matrix(10.2506 0 0 -11.5735 1962.8159 5301.8062)"
   gradientUnits="userSpaceOnUse"><stop
   offset="0"
   style="stop-color:#FFFFFF"
   id="stop753" /><stop
   offset="1"
   style="stop-color:#FFFFFF"
   id="stop754" /><a:midPointStop
   offset="0"
   style="stop-color:#FFFFFF"
   id="midPointStop755" /><a:midPointStop
   offset="0.5"
   style="stop-color:#FFFFFF"
   id="midPointStop756" /><a:midPointStop
   offset="1"
   style="stop-color:#FFFFFF"
   id="midPointStop757" /></radialGradient><path
   id="path758"
   nodetypes="cssss"
   fill="url(#path615_1_)"
   d="M21.8,31.7c0.2,0,0.6-0.6,0.5-0.9       c0-0.2-0.4-0.4-0.6-0.4c-0.2,0-0.5,0.3-0.5,0.5C21.3,31.2,21.7,31.7,21.8,31.7z" /><path
   id="path637"
   type="arc"
   cx="192.0158"
   cy="601.0353"
   rx="25.72175"
   ry="11.06635"
   fill="url(#path583_1_)"
   stroke="#000000"
   stroke-width="0.1713"
   d="       M12.4,30.1c0-0.4-0.9-0.8-2.1-0.8c-1.1,0-2.1,0.4-2.1,0.8v0c0,0.4,0.9,0.8,2.1,0.8C11.5,30.9,12.4,30.6,12.4,30.1       C12.4,30.1,12.4,30.1,12.4,30.1z" /><radialGradient
   id="path635_1_"
   cx="-182.1421"
   cy="457.7813"
   r="3.239540e-002"
   fx="-182.1421"
   fy="457.7813"
   gradientTransform="matrix(20.6057 0 0 -7.8903 3764.1177 3641.8176)"
   gradientUnits="userSpaceOnUse"><stop
   offset="0"
   style="stop-color:#FFFFFF"
   id="stop761" /><stop
   offset="1"
   style="stop-color:#FFFFFF"
   id="stop762" /><a:midPointStop
   offset="0"
   style="stop-color:#FFFFFF"
   id="midPointStop763" /><a:midPointStop
   offset="0.5"
   style="stop-color:#FFFFFF"
   id="midPointStop764" /><a:midPointStop
   offset="1"
   style="stop-color:#FFFFFF"
   id="midPointStop765" /></radialGradient><path
   id="path635"
   type="arc"
   cx="192.0158"
   cy="601.0353"
   rx="25.72175"
   ry="11.06635"
   fill="url(#path635_1_)"
   d="       M12.3,29.9c0-0.2-0.5-0.4-1.1-0.4c-0.6,0-1.1,0.2-1.1,0.4l0,0c0,0.2,0.5,0.4,1.1,0.4S12.3,30.2,12.3,29.9L12.3,29.9z" /><path
   id="path639"
   type="arc"
   cx="192.0158"
   cy="601.0353"
   rx="25.72175"
   ry="11.06635"
   fill="url(#path635_1_)"
   d="       M12.3,29.9c0-0.2-0.5-0.4-1.1-0.4c-0.6,0-1.1,0.2-1.1,0.4l0,0c0,0.2,0.5,0.4,1.1,0.4S12.3,30.2,12.3,29.9L12.3,29.9z" /><radialGradient
   id="path640_1_"
   cx="-184.9351"
   cy="451.8359"
   r="3.254076e-002"
   fx="-184.9351"
   fy="451.8359"
   gradientTransform="matrix(20.6057 0 0 -7.8903 3828.6333 3589.2317)"
   gradientUnits="userSpaceOnUse"><stop
   offset="0"
   style="stop-color:#FFFFFF"
   id="stop769" /><stop
   offset="1"
   style="stop-color:#FFFFFF"
   id="stop770" /><a:midPointStop
   offset="0"
   style="stop-color:#FFFFFF"
   id="midPointStop771" /><a:midPointStop
   offset="0.5"
   style="stop-color:#FFFFFF"
   id="midPointStop772" /><a:midPointStop
   offset="1"
   style="stop-color:#FFFFFF"
   id="midPointStop773" /></radialGradient><path
   id="path640"
   type="arc"
   cx="192.0158"
   cy="601.0353"
   rx="25.72175"
   ry="11.06635"
   fill="url(#path640_1_)"
   d="       M19.2,24.3c0-0.2-0.5-0.4-1.1-0.4c-0.6,0-1.1,0.2-1.1,0.4c0,0,0,0,0,0c0,0.2,0.5,0.4,1.1,0.4C18.7,24.7,19.2,24.5,19.2,24.3       L19.2,24.3z" /><path
   id="path641"
   type="arc"
   cx="192.0158"
   cy="601.0353"
   rx="25.72175"
   ry="11.06635"
   fill="url(#path640_1_)"
   d="       M19.2,24.3c0-0.2-0.5-0.4-1.1-0.4c-0.6,0-1.1,0.2-1.1,0.4c0,0,0,0,0,0c0,0.2,0.5,0.4,1.1,0.4C18.7,24.7,19.2,24.5,19.2,24.3       L19.2,24.3z" /><radialGradient
   id="path642_1_"
   cx="-185.0308"
   cy="455.3828"
   r="3.258454e-002"
   fx="-185.0308"
   fy="455.3828"
   gradientTransform="matrix(20.6057 0 0 -7.8903 3830.8521 3620.6067)"
   gradientUnits="userSpaceOnUse"><stop
   offset="0"
   style="stop-color:#FFFFFF"
   id="stop777" /><stop
   offset="1"
   style="stop-color:#FFFFFF"
   id="stop778" /><a:midPointStop
   offset="0"
   style="stop-color:#FFFFFF"
   id="midPointStop779" /><a:midPointStop
   offset="0.5"
   style="stop-color:#FFFFFF"
   id="midPointStop780" /><a:midPointStop
   offset="1"
   style="stop-color:#FFFFFF"
   id="midPointStop781" /></radialGradient><path
   id="path642"
   type="arc"
   cx="192.0158"
   cy="601.0353"
   rx="25.72175"
   ry="11.06635"
   fill="url(#path642_1_)"
   d="       M19.5,27.7c0-0.2-0.5-0.4-1.1-0.4c-0.6,0-1.1,0.2-1.1,0.4l0,0c0,0.2,0.5,0.4,1.1,0.4C19,28.1,19.5,27.9,19.5,27.7       C19.5,27.7,19.5,27.7,19.5,27.7z" /><path
   id="path643"
   type="arc"
   cx="192.0158"
   cy="601.0353"
   rx="25.72175"
   ry="11.06635"
   fill="url(#path642_1_)"
   d="       M19.5,27.7c0-0.2-0.5-0.4-1.1-0.4c-0.6,0-1.1,0.2-1.1,0.4l0,0c0,0.2,0.5,0.4,1.1,0.4C19,28.1,19.5,27.9,19.5,27.7       C19.5,27.7,19.5,27.7,19.5,27.7z" /><radialGradient
   id="path644_1_"
   cx="-188.0347"
   cy="452.2344"
   r="3.239540e-002"
   fx="-188.0347"
   fy="452.2344"
   gradientTransform="matrix(20.6057 0 0 -7.8903 3900.2427 3592.7629)"
   gradientUnits="userSpaceOnUse"><stop
   offset="0"
   style="stop-color:#FFFFFF"
   id="stop785" /><stop
   offset="1"
   style="stop-color:#FFFFFF"
   id="stop786" /><a:midPointStop
   offset="0"
   style="stop-color:#FFFFFF"
   id="midPointStop787" /><a:midPointStop
   offset="0.5"
   style="stop-color:#FFFFFF"
   id="midPointStop788" /><a:midPointStop
   offset="1"
   style="stop-color:#FFFFFF"
   id="midPointStop789" /></radialGradient><path
   id="path644"
   type="arc"
   cx="192.0158"
   cy="601.0353"
   rx="25.72175"
   ry="11.06635"
   fill="url(#path644_1_)"
   d="       M27,24.6c0-0.2-0.5-0.4-1.1-0.4c-0.6,0-1.1,0.2-1.1,0.4c0,0,0,0,0,0c0,0.2,0.5,0.4,1.1,0.4C26.5,25.1,27,24.9,27,24.6L27,24.6z       " /><path
   id="path645"
   type="arc"
   cx="192.0158"
   cy="601.0353"
   rx="25.72175"
   ry="11.06635"
   fill="url(#path644_1_)"
   d="       M27,24.6c0-0.2-0.5-0.4-1.1-0.4c-0.6,0-1.1,0.2-1.1,0.4c0,0,0,0,0,0c0,0.2,0.5,0.4,1.1,0.4C26.5,25.1,27,24.9,27,24.6L27,24.6z       " /></g><rect
   x="2.2"
   fill="none"
   width="48"
   height="48"
   id="rect792" /></g></g></svg>
