<?xml version="1.0" encoding="UTF-8" standalone="no"?>
<!DOCTYPE svg PUBLIC "-//W3C//DTD SVG 20010904//EN"
"http://www.w3.org/TR/2001/REC-SVG-20010904/DTD/svg10.dtd">
<!-- Created with Sodipodi ("http://www.sodipodi.com/") -->
<svg
   xmlns:x="http://ns.adobe.com/Extensibility/1.0/"
   xmlns:i="http://ns.adobe.com/AdobeIllustrator/10.0/"
   xmlns:graph="http://ns.adobe.com/Graphs/1.0/"
   xmlns="http://www.w3.org/2000/svg"
   xmlns:xlink="http://www.w3.org/1999/xlink"
   xmlns:a="http://ns.adobe.com/AdobeSVGViewerExtensions/3.0/"
   xml:space="preserve"
   i:viewOrigin="169.9258 427.7109"
   i:rulerOrigin="0 0"
   i:pageBounds="0 792 612 0"
   width="48"
   height="48.7"
   viewBox="0 0 48 48.7"
   overflow="visible"
   enable-background="new 0 0 48 48.7"
   xmlns:sodipodi="http://sodipodi.sourceforge.net/DTD/sodipodi-0.dtd"
   id="svg602"
   sodipodi:version="0.34"
   sodipodi:docname="C:\msys\home\su_blanc\mldonkey-2.5.12\src\gtk2\rsvg\emoticons\emoticon_megasmile.svg"><defs
   id="defs741" /><sodipodi:namedview
   id="base" /><g
   id="Layer_1"
   i:knockout="Off"
   i:layer="yes"
   i:dimmedPercent="50"
   i:rgbTrio="#4F008000FFFF"><g
   id="g606"><path
   id="path597_5_"
   i:isolated="yes"
   i:knockout="Off"
   opacity="0.15"
   fill="none"
   stroke="#474000"
   stroke-width="1.8818"
   enable-background="new    "
   d="      M5.6,20.2c0-10.7,8-19.3,17.8-19.3c9.8,0,18.4,8.1,18.4,18.7c0,10.7-8.6,19.9-18.4,19.9C13.6,39.5,5.6,30.9,5.6,20.2z" /><path
   id="path597_4_"
   i:isolated="yes"
   i:knockout="Off"
   opacity="0.2"
   fill="none"
   stroke="#474000"
   stroke-width="0.9409"
   enable-background="new    "
   d="      M5.6,20.2c0-10.7,8-19.3,17.8-19.3c9.8,0,18.4,8.1,18.4,18.7c0,10.7-8.6,19.9-18.4,19.9C13.6,39.5,5.6,30.9,5.6,20.2z" /><path
   id="path597_3_"
   i:isolated="yes"
   i:knockout="Off"
   opacity="0.3"
   fill="none"
   stroke="#474000"
   stroke-width="0.4704"
   enable-background="new    "
   d="      M5.6,20.2c0-10.7,8-19.3,17.8-19.3c9.8,0,18.4,8.1,18.4,18.7c0,10.7-8.6,19.9-18.4,19.9C13.6,39.5,5.6,30.9,5.6,20.2z" /><radialGradient
   id="path700_1_"
   cx="-679.5713"
   cy="-0.7402"
   r="6.388162e-002"
   fx="-679.5713"
   fy="-0.7402"
   gradientTransform="matrix(310.7065 0 0 144.1183 211172.2188 149.3426)"
   gradientUnits="userSpaceOnUse"><stop
   offset="0"
   style="stop-color:#261700"
   id="stop611" /><stop
   offset="1"
   style="stop-color:#D2D2D2"
   id="stop612" /><a:midPointStop
   offset="0"
   style="stop-color:#261700"
   id="midPointStop613" /><a:midPointStop
   offset="0.5"
   style="stop-color:#261700"
   id="midPointStop614" /><a:midPointStop
   offset="1"
   style="stop-color:#D2D2D2"
   id="midPointStop615" /></radialGradient><path
   id="path700"
   i:isolated="yes"
   i:knockout="Off"
   opacity="0.3"
   fill="url(#path700_1_)"
   enable-background="new    "
   d="      M37.9,31.8c6.5,4.5,6,10.6-1.9,14.3c-7.9,3.7-19.5,3.1-25.9-1.5c-5.5-3.8-5.7-9.1-0.5-13.1c3.4,4.7,6.2,6.3,14,7.3      C30.1,38.7,34.3,35.8,37.9,31.8z" /><radialGradient
   id="path577_1_"
   cx="-638.4961"
   cy="42.7715"
   r="41.5567"
   fx="-638.4961"
   fy="42.7715"
   gradientTransform="matrix(298.9032 0 0 316.3969 203151.1563 -98.4275)"
   gradientUnits="userSpaceOnUse"><stop
   offset="0"
   style="stop-color:#FF6F00"
   id="stop618" /><stop
   offset="1"
   style="stop-color:#FFFF00"
   id="stop619" /><a:midPointStop
   offset="0"
   style="stop-color:#FF6F00"
   id="midPointStop620" /><a:midPointStop
   offset="0.5"
   style="stop-color:#FF6F00"
   id="midPointStop621" /><a:midPointStop
   offset="1"
   style="stop-color:#FFFF00"
   id="midPointStop622" /></radialGradient><circle
   id="path577"
   fill="url(#path577_1_)"
   cx="23.9"
   cy="20.4"
   r="17.8" /><linearGradient
   id="path597_1_"
   gradientUnits="userSpaceOnUse"
   x1="-679.5654"
   y1="0.3184"
   x2="-679.5668"
   y2="0.4371"
   gradientTransform="matrix(303.6933 0 0 316.3967 206403.3125 -98.1642)"><stop
   offset="0"
   style="stop-color:#FF6500"
   id="stop625" /><stop
   offset="1"
   style="stop-color:#FFFF00"
   id="stop626" /><a:midPointStop
   offset="0"
   style="stop-color:#FF6500"
   id="midPointStop627" /><a:midPointStop
   offset="0.5"
   style="stop-color:#FF6500"
   id="midPointStop628" /><a:midPointStop
   offset="1"
   style="stop-color:#FFFF00"
   id="midPointStop629" /></linearGradient><path
   id="path597"
   i:isolated="yes"
   i:knockout="Off"
   opacity="0.75"
   fill="url(#path597_1_)"
   enable-background="new    "
   d="      M5.6,20.2c0-10.7,8-19.3,17.8-19.3c9.9,0,18.4,8,18.4,18.7c0,10.7-8.6,19.9-18.4,19.9C13.6,39.5,5.6,30.9,5.6,20.2z" /><radialGradient
   id="path597_6_"
   cx="-486.4063"
   cy="426.7461"
   r="20.2352"
   fx="-486.4063"
   fy="426.7461"
   gradientTransform="matrix(1 0 0 -1 509.7773 427.6934)"
   gradientUnits="userSpaceOnUse"><stop
   offset="0"
   style="stop-color:#FFFFFF"
   id="stop632" /><stop
   offset="0.1046"
   style="stop-color:#FFFEFA"
   id="stop633" /><stop
   offset="0.2282"
   style="stop-color:#FFFBEC"
   id="stop634" /><stop
   offset="0.3616"
   style="stop-color:#FFF7D4"
   id="stop635" /><stop
   offset="0.5018"
   style="stop-color:#FFF1B2"
   id="stop636" /><stop
   offset="0.6474"
   style="stop-color:#FFE988"
   id="stop637" /><stop
   offset="0.7976"
   style="stop-color:#FFDF53"
   id="stop638" /><stop
   offset="0.9487"
   style="stop-color:#FFD316"
   id="stop639" /><stop
   offset="1"
   style="stop-color:#FFCF00"
   id="stop640" /><a:midPointStop
   offset="0"
   style="stop-color:#FFFFFF"
   id="midPointStop641" /><a:midPointStop
   offset="0.5"
   style="stop-color:#FFFFFF"
   id="midPointStop642" /><a:midPointStop
   offset="0.1046"
   style="stop-color:#FFFEFA"
   id="midPointStop643" /><a:midPointStop
   offset="0.5"
   style="stop-color:#FFFEFA"
   id="midPointStop644" /><a:midPointStop
   offset="0.2282"
   style="stop-color:#FFFBEC"
   id="midPointStop645" /><a:midPointStop
   offset="0.5"
   style="stop-color:#FFFBEC"
   id="midPointStop646" /><a:midPointStop
   offset="0.3616"
   style="stop-color:#FFF7D4"
   id="midPointStop647" /><a:midPointStop
   offset="0.5"
   style="stop-color:#FFF7D4"
   id="midPointStop648" /><a:midPointStop
   offset="0.5018"
   style="stop-color:#FFF1B2"
   id="midPointStop649" /><a:midPointStop
   offset="0.5"
   style="stop-color:#FFF1B2"
   id="midPointStop650" /><a:midPointStop
   offset="0.6474"
   style="stop-color:#FFE988"
   id="midPointStop651" /><a:midPointStop
   offset="0.5"
   style="stop-color:#FFE988"
   id="midPointStop652" /><a:midPointStop
   offset="0.7976"
   style="stop-color:#FFDF53"
   id="midPointStop653" /><a:midPointStop
   offset="0.5"
   style="stop-color:#FFDF53"
   id="midPointStop654" /><a:midPointStop
   offset="0.9487"
   style="stop-color:#FFD316"
   id="midPointStop655" /><a:midPointStop
   offset="0.5"
   style="stop-color:#FFD316"
   id="midPointStop656" /><a:midPointStop
   offset="1"
   style="stop-color:#FFCF00"
   id="midPointStop657" /></radialGradient><path
   id="path597_2_"
   i:isolated="yes"
   i:knockout="Off"
   opacity="0.75"
   fill="url(#path597_6_)"
   enable-background="new    "
   d="      M12.2,7.8c0-3.8,5-6.9,11.1-6.9c6.1,0,11.4,2.9,11.4,6.7C34.7,11.4,12.2,11.6,12.2,7.8z" /><rect
   id="rect662"
   y="0.7"
   i:knockout="Off"
   fill="none"
   width="48"
   height="48" /><g
   id="g660"><radialGradient
   id="path630_1_"
   cx="-165.9258"
   cy="427.3076"
   r="0.1072"
   fx="-165.9258"
   fy="427.3076"
   gradientTransform="matrix(-47.8028 0 0 -73.2626 -7899.1484 31324.1348)"
   gradientUnits="userSpaceOnUse"><stop
   offset="0"
   style="stop-color:#DEE2E7"
   id="stop662" /><stop
   offset="1"
   style="stop-color:#FFFFFF"
   id="stop663" /><a:midPointStop
   offset="0"
   style="stop-color:#DEE2E7"
   id="midPointStop664" /><a:midPointStop
   offset="0.5"
   style="stop-color:#DEE2E7"
   id="midPointStop665" /><a:midPointStop
   offset="1"
   style="stop-color:#FFFFFF"
   id="midPointStop666" /></radialGradient><path
   id="path630"
   type="arc"
   cx="50.24698"
   cy="478.4100"
   rx="24.52531"
   ry="34.99345"
   fill="url(#path630_1_)"
   stroke="#7C5202"
   stroke-width="0.66"
   d="       M29.8,17.2c0-3.2,1.7-5.9,3.8-5.9c2.1,0,3.8,2.6,3.8,5.9c0,0,0,0,0,0c0,3.2-1.7,5.9-3.8,5.9C31.6,23.1,29.8,20.5,29.8,17.2       C29.8,17.2,29.8,17.2,29.8,17.2z" /><g
   id="path631"
   type="arc"
   cx="50.09747"
   cy="476.7646"
   rx="28.86212"
   ry="41.42389"><path
   i:knockout="Off"
   opacity="3.790000e-002"
   fill="none"
   stroke="#000000"
   stroke-width="0.6"
   d="M29.2,17.2        c0-3.6,2-6.5,4.4-6.5s4.4,2.9,4.4,6.5c0,0,0,0,0,0c0,3.6-2,6.5-4.4,6.5C31.2,23.6,29.2,20.7,29.2,17.2        C29.2,17.2,29.2,17.2,29.2,17.2z"
   id="path669" /></g><g
   id="path632"
   type="arc"
   cx="50.09747"
   cy="476.7646"
   rx="28.86212"
   ry="41.42389"><path
   i:knockout="Off"
   opacity="1.420000e-002"
   fill="none"
   stroke="#000000"
   stroke-width="2.0864"
   d="M29.2,17.2        c0-3.6,2-6.4,4.4-6.4c2.4,0,4.4,2.9,4.4,6.4c0,0,0,0,0,0c0,3.6-2,6.4-4.4,6.4C31.2,23.6,29.2,20.8,29.2,17.2        C29.2,17.2,29.2,17.2,29.2,17.2z"
   id="path671" /></g><g
   id="path633"
   type="arc"
   cx="50.09747"
   cy="476.7646"
   rx="28.86212"
   ry="41.42389"><path
   i:knockout="Off"
   opacity="1.420000e-002"
   fill="none"
   stroke="#000000"
   stroke-width="1.3184"
   d="M29.2,17.2        c0-3.6,2-6.4,4.4-6.4c2.4,0,4.4,2.9,4.4,6.4c0,0,0,0,0,0c0,3.6-2,6.4-4.4,6.4C31.2,23.6,29.2,20.8,29.2,17.2        C29.2,17.2,29.2,17.2,29.2,17.2z"
   id="path673" /></g><g
   id="path634"
   type="arc"
   cx="50.09747"
   cy="476.7646"
   rx="28.86212"
   ry="41.42389"><path
   i:knockout="Off"
   opacity="1.420000e-002"
   fill="none"
   stroke="#000000"
   stroke-width="0.4541"
   d="M29.2,17.2        c0-3.6,2-6.4,4.4-6.4c2.4,0,4.4,2.9,4.4,6.4c0,0,0,0,0,0c0,3.6-2,6.4-4.4,6.4C31.2,23.6,29.2,20.8,29.2,17.2        C29.2,17.2,29.2,17.2,29.2,17.2z"
   id="path675" /></g><g
   id="path635"
   type="arc"
   cx="50.09747"
   cy="476.7646"
   rx="28.86212"
   ry="41.42389"><path
   i:knockout="Off"
   opacity="0.1517"
   fill="none"
   stroke="#000000"
   stroke-width="0.2283"
   d="M29.4,17.2        c0-3.5,1.9-6.3,4.3-6.3c2.4,0,4.3,2.8,4.3,6.3c0,0,0,0,0,0c0,3.5-1.9,6.3-4.3,6.3C31.3,23.5,29.4,20.7,29.4,17.2        C29.4,17.2,29.4,17.2,29.4,17.2z"
   id="path677" /></g><radialGradient
   id="path637_1_"
   cx="-161.2817"
   cy="428.1592"
   r="9.924631e-002"
   fx="-161.2817"
   fy="428.1592"
   gradientTransform="matrix(-19.9085 0 0 -23.3843 -3177.3074 10030.8525)"
   gradientUnits="userSpaceOnUse"><stop
   offset="0"
   style="stop-color:#000082"
   id="stop679" /><stop
   offset="1"
   style="stop-color:#000000"
   id="stop680" /><a:midPointStop
   offset="0"
   style="stop-color:#000082"
   id="midPointStop681" /><a:midPointStop
   offset="0.5"
   style="stop-color:#000082"
   id="midPointStop682" /><a:midPointStop
   offset="1"
   style="stop-color:#000000"
   id="midPointStop683" /></radialGradient><path
   id="path637"
   type="arc"
   cx="61.64901"
   cy="495.8291"
   rx="10.46870"
   ry="10.89169"
   fill="url(#path637_1_)"
   d="       M31.4,19.7c0-1,0.7-1.9,1.6-1.9c0.9,0,1.6,0.8,1.6,1.9c0,0,0,0,0,0c0,1-0.7,1.9-1.6,1.9C32.1,21.5,31.4,20.7,31.4,19.7       C31.4,19.7,31.4,19.7,31.4,19.7z" /></g><g
   id="g685"><radialGradient
   id="path650_1_"
   cx="-170.5762"
   cy="427.3076"
   r="0.1069"
   fx="-170.5762"
   fy="427.3076"
   gradientTransform="matrix(47.8028 0 0 -73.2626 8168.2344 31324.1348)"
   gradientUnits="userSpaceOnUse"><stop
   offset="0"
   style="stop-color:#DEE2E7"
   id="stop687" /><stop
   offset="1"
   style="stop-color:#FFFFFF"
   id="stop688" /><a:midPointStop
   offset="0"
   style="stop-color:#DEE2E7"
   id="midPointStop689" /><a:midPointStop
   offset="0.5"
   style="stop-color:#DEE2E7"
   id="midPointStop690" /><a:midPointStop
   offset="1"
   style="stop-color:#FFFFFF"
   id="midPointStop691" /></radialGradient><path
   id="path650"
   type="arc"
   cx="50.24698"
   cy="478.4100"
   rx="24.52531"
   ry="34.99345"
   fill="url(#path650_1_)"
   stroke="#7C3902"
   stroke-width="0.66"
   d="       M16.9,17.2c0-3.2-1.7-5.9-3.8-5.9c-2.1,0-3.8,2.6-3.8,5.9c0,0,0,0,0,0c0,3.2,1.7,5.9,3.8,5.9C15.2,23.1,16.9,20.5,16.9,17.2       C16.9,17.2,16.9,17.2,16.9,17.2z" /><g
   id="path651"
   type="arc"
   cx="50.09747"
   cy="476.7646"
   rx="28.86212"
   ry="41.42389"><path
   i:knockout="Off"
   opacity="3.790000e-002"
   fill="none"
   stroke="#000000"
   stroke-width="0.6"
   d="M17.5,17.2        c0-3.6-2-6.5-4.4-6.5s-4.4,2.9-4.4,6.5c0,0,0,0,0,0c0,3.6,2,6.5,4.4,6.5C15.5,23.6,17.5,20.7,17.5,17.2        C17.5,17.2,17.5,17.2,17.5,17.2z"
   id="path694" /></g><g
   id="path652"
   type="arc"
   cx="50.09747"
   cy="476.7646"
   rx="28.86212"
   ry="41.42389"><path
   i:knockout="Off"
   opacity="1.420000e-002"
   fill="none"
   stroke="#000000"
   stroke-width="2.0864"
   d="M17.5,17.2        c0-3.6-2-6.4-4.4-6.4c-2.4,0-4.4,2.9-4.4,6.4c0,0,0,0,0,0c0,3.6,2,6.4,4.4,6.4C15.5,23.6,17.5,20.8,17.5,17.2        C17.5,17.2,17.5,17.2,17.5,17.2z"
   id="path696" /></g><g
   id="path653"
   type="arc"
   cx="50.09747"
   cy="476.7646"
   rx="28.86212"
   ry="41.42389"><path
   i:knockout="Off"
   opacity="1.420000e-002"
   fill="none"
   stroke="#000000"
   stroke-width="1.3184"
   d="M17.5,17.2        c0-3.6-2-6.4-4.4-6.4c-2.4,0-4.4,2.9-4.4,6.4c0,0,0,0,0,0c0,3.6,2,6.4,4.4,6.4C15.5,23.6,17.5,20.8,17.5,17.2        C17.5,17.2,17.5,17.2,17.5,17.2z"
   id="path698" /></g><g
   id="path654"
   type="arc"
   cx="50.09747"
   cy="476.7646"
   rx="28.86212"
   ry="41.42389"><path
   i:knockout="Off"
   opacity="1.420000e-002"
   fill="none"
   stroke="#000000"
   stroke-width="0.4541"
   d="M17.5,17.2        c0-3.6-2-6.4-4.4-6.4c-2.4,0-4.4,2.9-4.4,6.4c0,0,0,0,0,0c0,3.6,2,6.4,4.4,6.4C15.5,23.6,17.5,20.8,17.5,17.2        C17.5,17.2,17.5,17.2,17.5,17.2z"
   id="path701" /></g><g
   id="path655"
   type="arc"
   cx="50.09747"
   cy="476.7646"
   rx="28.86212"
   ry="41.42389"><path
   i:knockout="Off"
   opacity="0.1517"
   fill="none"
   stroke="#000000"
   stroke-width="0.2283"
   d="M17.3,17.2        c0-3.5-1.9-6.3-4.3-6.3c-2.4,0-4.3,2.8-4.3,6.3c0,0,0,0,0,0c0,3.5,1.9,6.3,4.3,6.3C15.4,23.5,17.3,20.7,17.3,17.2        C17.3,17.2,17.3,17.2,17.3,17.2z"
   id="path703" /></g><radialGradient
   id="path656_1_"
   cx="-172.4487"
   cy="428.1592"
   r="9.911894e-002"
   fx="-172.4487"
   fy="428.1592"
   gradientTransform="matrix(19.9085 0 0 -23.3843 3446.3933 10030.8525)"
   gradientUnits="userSpaceOnUse"><stop
   offset="0"
   style="stop-color:#000082"
   id="stop705" /><stop
   offset="1"
   style="stop-color:#000000"
   id="stop706" /><a:midPointStop
   offset="0"
   style="stop-color:#000082"
   id="midPointStop707" /><a:midPointStop
   offset="0.5"
   style="stop-color:#000082"
   id="midPointStop708" /><a:midPointStop
   offset="1"
   style="stop-color:#000000"
   id="midPointStop709" /></radialGradient><path
   id="path656"
   type="arc"
   cx="61.64901"
   cy="495.8291"
   rx="10.46870"
   ry="10.89169"
   fill="url(#path656_1_)"
   d="       M15.4,19.7c0-1-0.7-1.9-1.6-1.9s-1.6,0.8-1.6,1.9c0,0,0,0,0,0c0,1,0.7,1.9,1.6,1.9C14.6,21.5,15.4,20.7,15.4,19.7       C15.4,19.7,15.4,19.7,15.4,19.7z" /></g><g
   id="g711"><g
   id="path661"
   nodetypes="ccc"><linearGradient
   id="XMLID_1_"
   gradientUnits="userSpaceOnUse"
   x1="-170.6802"
   y1="430.4854"
   x2="-170.6802"
   y2="430.561"
   gradientTransform="matrix(164.9603 0 0 -65.4581 28179.1445 28226.9707)"><stop
   offset="0"
   style="stop-color:#D7D7DA"
   id="stop714" /><stop
   offset="1"
   style="stop-color:#FFFFFF"
   id="stop715" /><a:midPointStop
   offset="0"
   style="stop-color:#D7D7DA"
   id="midPointStop716" /><a:midPointStop
   offset="0.5"
   style="stop-color:#D7D7DA"
   id="midPointStop717" /><a:midPointStop
   offset="1"
   style="stop-color:#FFFFFF"
   id="midPointStop718" /></linearGradient><path
   i:knockout="Off"
   fill="url(#XMLID_1_)"
   d="M10.4,27.4c5.8,11.5,19.6,11.5,26.7,0C27.5,24.6,19.2,24.8,10.4,27.4z"
   id="path719" /><path
   i:knockout="Off"
   opacity="7.000000e-002"
   fill="none"
   stroke="#000000"
   stroke-width="2.8924"
   stroke-linejoin="round"
   d="        M10.4,27.4c5.8,11.5,19.6,11.5,26.7,0C27.5,24.6,19.2,24.8,10.4,27.4z"
   id="path720" /></g><g
   id="path660"
   nodetypes="ccc"><path
   i:knockout="Off"
   fill="url(#XMLID_1_)"
   d="M10.4,27.4c5.8,11.5,19.6,11.5,26.7,0C27.5,24.6,19.2,24.8,10.4,27.4z"
   id="path722" /><path
   i:knockout="Off"
   opacity="1.900000e-002"
   fill="none"
   stroke="#000000"
   stroke-width="3.5274"
   stroke-linejoin="round"
   d="        M10.4,27.4c5.8,11.5,19.6,11.5,26.7,0C27.5,24.6,19.2,24.8,10.4,27.4z"
   id="path723" /></g><g
   id="path658"
   nodetypes="ccc"><path
   i:knockout="Off"
   fill="url(#XMLID_1_)"
   d="M10.4,27.4c5.8,11.5,19.6,11.5,26.7,0C27.5,24.6,19.2,24.8,10.4,27.4z"
   id="path725" /><path
   i:knockout="Off"
   opacity="1.900000e-002"
   fill="none"
   stroke="#000000"
   stroke-width="4.8208"
   stroke-linejoin="round"
   d="        M10.4,27.4c5.8,11.5,19.6,11.5,26.7,0C27.5,24.6,19.2,24.8,10.4,27.4z"
   id="path726" /></g><g
   id="path659"
   nodetypes="ccc"><path
   i:knockout="Off"
   fill="url(#XMLID_1_)"
   d="M10.4,27.4c5.8,11.5,19.6,11.5,26.7,0C27.5,24.6,19.2,24.8,10.4,27.4z"
   id="path728" /><path
   i:knockout="Off"
   opacity="1.900000e-002"
   fill="none"
   stroke="#000000"
   stroke-width="3.3628"
   stroke-linejoin="round"
   d="        M10.4,27.4c5.8,11.5,19.6,11.5,26.7,0C27.5,24.6,19.2,24.8,10.4,27.4z"
   id="path729" /></g><g
   id="path657"
   nodetypes="ccc"><path
   i:knockout="Off"
   fill="url(#XMLID_1_)"
   d="M10.4,27.4c5.8,11.5,19.6,11.5,26.7,0C27.5,24.6,19.2,24.8,10.4,27.4z"
   id="path731" /><path
   i:knockout="Off"
   opacity="1.900000e-002"
   fill="none"
   stroke="#000000"
   stroke-width="6.2082"
   stroke-linejoin="round"
   d="        M10.4,27.4c5.8,11.5,19.6,11.5,26.7,0C27.5,24.6,19.2,24.8,10.4,27.4z"
   id="path732" /></g><linearGradient
   id="path648_1_"
   gradientUnits="userSpaceOnUse"
   x1="-170.103"
   y1="428.8389"
   x2="-170.103"
   y2="428.9145"
   gradientTransform="matrix(164.9603 0 0 -72.2256 28084.0195 31002.4668)"><stop
   offset="0"
   style="stop-color:#D7D7DA"
   id="stop734" /><stop
   offset="1"
   style="stop-color:#FFFFFF"
   id="stop735" /><a:midPointStop
   offset="0"
   style="stop-color:#D7D7DA"
   id="midPointStop736" /><a:midPointStop
   offset="0.5"
   style="stop-color:#D7D7DA"
   id="midPointStop737" /><a:midPointStop
   offset="1"
   style="stop-color:#FFFFFF"
   id="midPointStop738" /></linearGradient><path
   id="path648"
   nodetypes="ccc"
   fill="url(#path648_1_)"
   stroke="#700000"
   stroke-width="1.1857"
   stroke-linejoin="round"
   d="       M10.4,27.2c5.8,12.6,19.6,12.6,26.7,0C27.5,24.2,19.2,24.4,10.4,27.2z" /></g></g></g></svg>
