<?xml version="1.0" encoding="UTF-8" standalone="no"?>
<!DOCTYPE svg PUBLIC "-//W3C//DTD SVG 20010904//EN"
"http://www.w3.org/TR/2001/REC-SVG-20010904/DTD/svg10.dtd">
<!-- Created with Sodipodi ("http://www.sodipodi.com/") -->
<svg
   xmlns:x="http://ns.adobe.com/Extensibility/1.0/"
   xmlns:i="http://ns.adobe.com/AdobeIllustrator/10.0/"
   xmlns:graph="http://ns.adobe.com/Graphs/1.0/"
   xmlns="http://www.w3.org/2000/svg"
   xmlns:xlink="http://www.w3.org/1999/xlink"
   xmlns:a="http://ns.adobe.com/AdobeSVGViewerExtensions/3.0/"
   xml:space="preserve"
   i:viewOrigin="169.9258 427.7109"
   i:rulerOrigin="0 0"
   i:pageBounds="0 792 612 0"
   width="48"
   height="48.7"
   viewBox="0 0 48 48.7"
   overflow="visible"
   enable-background="new 0 0 48 48.7"
   xmlns:sodipodi="http://sodipodi.sourceforge.net/DTD/sodipodi-0.dtd"
   id="svg602"
   sodipodi:version="0.34"
   sodipodi:docname="C:\msys\home\su_blanc\mldonkey-2.5.12\src\gtk2\rsvg\emoticons\emoticon_sarcastic.svg"><defs
   id="defs741" /><sodipodi:namedview
   id="base" /><g
   id="Layer_1"
   i:knockout="Off"
   i:layer="yes"
   i:dimmedPercent="50"
   i:rgbTrio="#4F008000FFFF"><path
   id="path597_5_"
   i:isolated="yes"
   i:knockout="Off"
   opacity="0.15"
   fill="none"
   stroke="#474000"
   stroke-width="1.8818"
   enable-background="new    "
   d="     M5.6,20.2c0-10.7,8-19.3,17.8-19.3c9.8,0,18.4,8.1,18.4,18.7c0,10.7-8.6,19.9-18.4,19.9C13.6,39.5,5.6,30.9,5.6,20.2z" /><path
   id="path597_4_"
   i:isolated="yes"
   i:knockout="Off"
   opacity="0.2"
   fill="none"
   stroke="#474000"
   stroke-width="0.9409"
   enable-background="new    "
   d="     M5.6,20.2c0-10.7,8-19.3,17.8-19.3c9.8,0,18.4,8.1,18.4,18.7c0,10.7-8.6,19.9-18.4,19.9C13.6,39.5,5.6,30.9,5.6,20.2z" /><path
   id="path597_3_"
   i:isolated="yes"
   i:knockout="Off"
   opacity="0.3"
   fill="none"
   stroke="#474000"
   stroke-width="0.4704"
   enable-background="new    "
   d="     M5.6,20.2c0-10.7,8-19.3,17.8-19.3c9.8,0,18.4,8.1,18.4,18.7c0,10.7-8.6,19.9-18.4,19.9C13.6,39.5,5.6,30.9,5.6,20.2z" /><radialGradient
   id="path700_1_"
   cx="-679.5713"
   cy="-0.7402"
   r="6.388162e-002"
   fx="-679.5713"
   fy="-0.7402"
   gradientTransform="matrix(310.7065 0 0 144.1183 211172.2188 149.3426)"
   gradientUnits="userSpaceOnUse"><stop
   offset="0"
   style="stop-color:#261700"
   id="stop610" /><stop
   offset="1"
   style="stop-color:#D2D2D2"
   id="stop611" /><a:midPointStop
   offset="0"
   style="stop-color:#261700"
   id="midPointStop612" /><a:midPointStop
   offset="0.5"
   style="stop-color:#261700"
   id="midPointStop613" /><a:midPointStop
   offset="1"
   style="stop-color:#D2D2D2"
   id="midPointStop614" /></radialGradient><path
   id="path700"
   i:isolated="yes"
   i:knockout="Off"
   opacity="0.3"
   fill="url(#path700_1_)"
   enable-background="new    "
   d="     M37.9,31.8c6.5,4.5,6,10.6-1.9,14.3c-7.9,3.7-19.5,3.1-25.9-1.5c-5.5-3.8-5.7-9.1-0.5-13.1c3.4,4.7,6.2,6.3,14,7.3     C30.1,38.7,34.3,35.8,37.9,31.8z" /><radialGradient
   id="path577_1_"
   cx="-638.4961"
   cy="42.7715"
   r="41.5567"
   fx="-638.4961"
   fy="42.7715"
   gradientTransform="matrix(298.9032 0 0 316.3969 203151.1563 -98.4275)"
   gradientUnits="userSpaceOnUse"><stop
   offset="0"
   style="stop-color:#FF6F00"
   id="stop617" /><stop
   offset="1"
   style="stop-color:#FFFF00"
   id="stop618" /><a:midPointStop
   offset="0"
   style="stop-color:#FF6F00"
   id="midPointStop619" /><a:midPointStop
   offset="0.5"
   style="stop-color:#FF6F00"
   id="midPointStop620" /><a:midPointStop
   offset="1"
   style="stop-color:#FFFF00"
   id="midPointStop621" /></radialGradient><circle
   id="path577"
   fill="url(#path577_1_)"
   cx="23.9"
   cy="20.4"
   r="17.8" /><linearGradient
   id="path597_1_"
   gradientUnits="userSpaceOnUse"
   x1="-679.5654"
   y1="0.3184"
   x2="-679.5668"
   y2="0.4371"
   gradientTransform="matrix(303.6933 0 0 316.3967 206403.3125 -98.1642)"><stop
   offset="0"
   style="stop-color:#FF6500"
   id="stop624" /><stop
   offset="1"
   style="stop-color:#FFFF00"
   id="stop625" /><a:midPointStop
   offset="0"
   style="stop-color:#FF6500"
   id="midPointStop626" /><a:midPointStop
   offset="0.5"
   style="stop-color:#FF6500"
   id="midPointStop627" /><a:midPointStop
   offset="1"
   style="stop-color:#FFFF00"
   id="midPointStop628" /></linearGradient><path
   id="path597"
   i:isolated="yes"
   i:knockout="Off"
   opacity="0.75"
   fill="url(#path597_1_)"
   enable-background="new    "
   d="     M5.6,20.2c0-10.7,8-19.3,17.8-19.3c9.9,0,18.4,8,18.4,18.7c0,10.7-8.6,19.9-18.4,19.9C13.6,39.5,5.6,30.9,5.6,20.2z" /><radialGradient
   id="path597_6_"
   cx="-486.4063"
   cy="426.7461"
   r="20.2352"
   fx="-486.4063"
   fy="426.7461"
   gradientTransform="matrix(1 0 0 -1 509.7773 427.6934)"
   gradientUnits="userSpaceOnUse"><stop
   offset="0"
   style="stop-color:#FFFFFF"
   id="stop631" /><stop
   offset="0.1046"
   style="stop-color:#FFFEFA"
   id="stop632" /><stop
   offset="0.2282"
   style="stop-color:#FFFBEC"
   id="stop633" /><stop
   offset="0.3616"
   style="stop-color:#FFF7D4"
   id="stop634" /><stop
   offset="0.5018"
   style="stop-color:#FFF1B2"
   id="stop635" /><stop
   offset="0.6474"
   style="stop-color:#FFE988"
   id="stop636" /><stop
   offset="0.7976"
   style="stop-color:#FFDF53"
   id="stop637" /><stop
   offset="0.9487"
   style="stop-color:#FFD316"
   id="stop638" /><stop
   offset="1"
   style="stop-color:#FFCF00"
   id="stop639" /><a:midPointStop
   offset="0"
   style="stop-color:#FFFFFF"
   id="midPointStop640" /><a:midPointStop
   offset="0.5"
   style="stop-color:#FFFFFF"
   id="midPointStop641" /><a:midPointStop
   offset="0.1046"
   style="stop-color:#FFFEFA"
   id="midPointStop642" /><a:midPointStop
   offset="0.5"
   style="stop-color:#FFFEFA"
   id="midPointStop643" /><a:midPointStop
   offset="0.2282"
   style="stop-color:#FFFBEC"
   id="midPointStop644" /><a:midPointStop
   offset="0.5"
   style="stop-color:#FFFBEC"
   id="midPointStop645" /><a:midPointStop
   offset="0.3616"
   style="stop-color:#FFF7D4"
   id="midPointStop646" /><a:midPointStop
   offset="0.5"
   style="stop-color:#FFF7D4"
   id="midPointStop647" /><a:midPointStop
   offset="0.5018"
   style="stop-color:#FFF1B2"
   id="midPointStop648" /><a:midPointStop
   offset="0.5"
   style="stop-color:#FFF1B2"
   id="midPointStop649" /><a:midPointStop
   offset="0.6474"
   style="stop-color:#FFE988"
   id="midPointStop650" /><a:midPointStop
   offset="0.5"
   style="stop-color:#FFE988"
   id="midPointStop651" /><a:midPointStop
   offset="0.7976"
   style="stop-color:#FFDF53"
   id="midPointStop652" /><a:midPointStop
   offset="0.5"
   style="stop-color:#FFDF53"
   id="midPointStop653" /><a:midPointStop
   offset="0.9487"
   style="stop-color:#FFD316"
   id="midPointStop654" /><a:midPointStop
   offset="0.5"
   style="stop-color:#FFD316"
   id="midPointStop655" /><a:midPointStop
   offset="1"
   style="stop-color:#FFCF00"
   id="midPointStop656" /></radialGradient><path
   id="path597_2_"
   i:isolated="yes"
   i:knockout="Off"
   opacity="0.75"
   fill="url(#path597_6_)"
   enable-background="new    "
   d="     M12.2,7.8c0-3.8,5-6.9,11.1-6.9c6.1,0,11.4,2.9,11.4,6.7C34.7,11.4,12.2,11.6,12.2,7.8z" /><rect
   id="rect662"
   y="0.7"
   i:knockout="Off"
   fill="none"
   width="48"
   height="48" /><g
   id="g659"><g
   id="path644"
   nodetypes="cccc"><polygon
   i:knockout="Off"
   fill="#474000"
   points="37,11.7 28.9,13.1 30,14.1 "
   id="polygon661" /><polygon
   i:knockout="Off"
   opacity="0.7725"
   fill="none"
   stroke="#2A0000"
   stroke-width="0.8024"
   stroke-linecap="round"
   stroke-linejoin="round"
   points="       37,11.7 28.9,13.1 30,14.1 "
   id="polygon662" /></g><g
   id="path663"
   nodetypes="cccc"><polygon
   i:knockout="Off"
   opacity="0"
   fill="#474000"
   points="37,11.7 28.9,13.1 30,14.1 "
   id="polygon664" /><polygon
   i:knockout="Off"
   opacity="9.950000e-002"
   fill="none"
   stroke="#2A0000"
   stroke-width="1.5648"
   stroke-linecap="round"
   stroke-linejoin="round"
   points="       37,11.7 28.9,13.1 30,14.1 "
   id="polygon665" /></g><g
   id="path665"
   nodetypes="cccc"><polygon
   i:knockout="Off"
   opacity="0"
   fill="#474000"
   points="37,11.7 28.9,13.1 30,14.1 "
   id="polygon667" /><polygon
   i:knockout="Off"
   opacity="9.950000e-002"
   fill="none"
   stroke="#2A0000"
   stroke-width="1.2639"
   stroke-linecap="round"
   stroke-linejoin="round"
   points="       37,11.7 28.9,13.1 30,14.1 "
   id="polygon668" /></g><g
   id="path667"
   nodetypes="cccc"><polygon
   i:knockout="Off"
   opacity="0"
   fill="#474000"
   points="37,11.7 28.9,13.1 30,14.1 "
   id="polygon670" /><polygon
   i:knockout="Off"
   opacity="9.950000e-002"
   fill="none"
   stroke="#2A0000"
   stroke-width="2.0062"
   stroke-linecap="round"
   stroke-linejoin="round"
   points="       37,11.7 28.9,13.1 30,14.1 "
   id="polygon671" /></g></g><g
   id="g672"><g
   id="path670"
   nodetypes="cccc"><polygon
   i:knockout="Off"
   fill="#474000"
   points="12.2,8.9 23.3,15.5 21.9,15.6 "
   id="polygon674" /><polygon
   i:knockout="Off"
   opacity="0.7725"
   fill="none"
   stroke="#2A0000"
   stroke-width="1.5"
   stroke-linecap="round"
   stroke-linejoin="round"
   points="       12.2,8.9 23.3,15.5 21.9,15.6 "
   id="polygon675" /></g><g
   id="path671"
   nodetypes="cccc"><polygon
   i:knockout="Off"
   opacity="0"
   fill="#474000"
   points="12.2,8.9 23.3,15.5 21.9,15.6 "
   id="polygon677" /><polygon
   i:knockout="Off"
   opacity="9.950000e-002"
   fill="none"
   stroke="#2A0000"
   stroke-width="1.6119"
   stroke-linecap="round"
   stroke-linejoin="round"
   points="       12.2,8.9 23.3,15.5 21.9,15.6 "
   id="polygon678" /></g><g
   id="path672"
   nodetypes="cccc"><polygon
   i:knockout="Off"
   opacity="0"
   fill="#474000"
   points="12.2,8.9 23.3,15.5 21.9,15.6 "
   id="polygon680" /><polygon
   i:knockout="Off"
   opacity="9.950000e-002"
   fill="none"
   stroke="#2A0000"
   stroke-width="1.8"
   stroke-linecap="round"
   stroke-linejoin="round"
   points="       12.2,8.9 23.3,15.5 21.9,15.6 "
   id="polygon681" /></g><g
   id="path673"
   nodetypes="cccc"><polygon
   i:knockout="Off"
   opacity="0"
   fill="#474000"
   points="12.2,8.9 23.3,15.5 21.9,15.6 "
   id="polygon683" /><polygon
   i:knockout="Off"
   opacity="9.950000e-002"
   fill="none"
   stroke="#2A0000"
   stroke-width="2.2"
   stroke-linecap="round"
   stroke-linejoin="round"
   points="       12.2,8.9 23.3,15.5 21.9,15.6 "
   id="polygon684" /></g></g><g
   id="g685"><radialGradient
   id="path630_1_"
   cx="-163.6421"
   cy="429.0508"
   r="9.970105e-002"
   fx="-163.6421"
   fy="429.0508"
   gradientTransform="matrix(-47.8028 0 0 -73.2626 -7789.8047 31454.6973)"
   gradientUnits="userSpaceOnUse"><stop
   offset="0"
   style="stop-color:#DEE2E7"
   id="stop687" /><stop
   offset="1"
   style="stop-color:#FFFFFF"
   id="stop688" /><a:midPointStop
   offset="0"
   style="stop-color:#DEE2E7"
   id="midPointStop689" /><a:midPointStop
   offset="0.5"
   style="stop-color:#DEE2E7"
   id="midPointStop690" /><a:midPointStop
   offset="1"
   style="stop-color:#FFFFFF"
   id="midPointStop691" /></radialGradient><path
   id="path630"
   type="arc"
   cx="50.24698"
   cy="478.4100"
   rx="24.52531"
   ry="34.99345"
   fill="url(#path630_1_)"
   stroke="#7C5202"
   stroke-width="0.6188"
   d="      M30.2,20.2c0-3,1.6-5.5,3.6-5.5c2,0,3.6,2.5,3.6,5.5c0,0,0,0,0,0c0,3-1.6,5.5-3.6,5.5C31.8,25.7,30.2,23.2,30.2,20.2      C30.2,20.2,30.2,20.2,30.2,20.2z" /><g
   id="path631"
   type="arc"
   cx="50.09747"
   cy="476.7646"
   rx="28.86212"
   ry="41.42389"><path
   i:knockout="Off"
   opacity="3.790000e-002"
   fill="none"
   stroke="#000000"
   stroke-width="0.5625"
   d="M29.6,20.1       c0-3.3,1.9-6.1,4.2-6.1c2.3,0,4.2,2.7,4.2,6.1c0,0,0,0,0,0c0,3.3-1.9,6.1-4.2,6.1C31.5,26.2,29.6,23.5,29.6,20.1       C29.6,20.1,29.6,20.1,29.6,20.1z"
   id="path694" /></g><g
   id="path632"
   type="arc"
   cx="50.09747"
   cy="476.7646"
   rx="28.86212"
   ry="41.42389"><path
   i:knockout="Off"
   opacity="1.420000e-002"
   fill="none"
   stroke="#000000"
   stroke-width="1.956"
   d="M29.6,20.2       c0-3.3,1.9-6,4.2-6c2.3,0,4.2,2.7,4.2,6c0,0,0,0,0,0c0,3.3-1.9,6-4.2,6C31.5,26.2,29.6,23.5,29.6,20.2       C29.6,20.2,29.6,20.2,29.6,20.2z"
   id="path696" /></g><g
   id="path633"
   type="arc"
   cx="50.09747"
   cy="476.7646"
   rx="28.86212"
   ry="41.42389"><path
   i:knockout="Off"
   opacity="1.420000e-002"
   fill="none"
   stroke="#000000"
   stroke-width="1.236"
   d="M29.6,20.2       c0-3.3,1.9-6,4.2-6c2.3,0,4.2,2.7,4.2,6c0,0,0,0,0,0c0,3.3-1.9,6-4.2,6C31.5,26.2,29.6,23.5,29.6,20.2       C29.6,20.2,29.6,20.2,29.6,20.2z"
   id="path698" /></g><g
   id="path634"
   type="arc"
   cx="50.09747"
   cy="476.7646"
   rx="28.86212"
   ry="41.42389"><path
   i:knockout="Off"
   opacity="1.420000e-002"
   fill="none"
   stroke="#000000"
   stroke-width="0.4257"
   d="M29.6,20.2       c0-3.3,1.9-6,4.2-6c2.3,0,4.2,2.7,4.2,6c0,0,0,0,0,0c0,3.3-1.9,6-4.2,6C31.5,26.2,29.6,23.5,29.6,20.2       C29.6,20.2,29.6,20.2,29.6,20.2z"
   id="path701" /></g><g
   id="path635"
   type="arc"
   cx="50.09747"
   cy="476.7646"
   rx="28.86212"
   ry="41.42389"><path
   i:knockout="Off"
   opacity="0.1517"
   fill="none"
   stroke="#000000"
   stroke-width="0.214"
   d="M29.8,20.2c0-3.3,1.8-5.9,4-5.9       c2.2,0,4,2.7,4,5.9v0c0,3.3-1.8,5.9-4,5.9C31.6,26.1,29.8,23.5,29.8,20.2C29.8,20.2,29.8,20.2,29.8,20.2z"
   id="path703" /></g><radialGradient
   id="path637_1_"
   cx="-155.7842"
   cy="433.627"
   r="9.309062e-002"
   fx="-155.7842"
   fy="433.627"
   gradientTransform="matrix(-19.9085 0 0 -23.3843 -3067.9324 10161.415)"
   gradientUnits="userSpaceOnUse"><stop
   offset="0"
   style="stop-color:#000082"
   id="stop705" /><stop
   offset="1"
   style="stop-color:#000000"
   id="stop706" /><a:midPointStop
   offset="0"
   style="stop-color:#000082"
   id="midPointStop707" /><a:midPointStop
   offset="0.5"
   style="stop-color:#000082"
   id="midPointStop708" /><a:midPointStop
   offset="1"
   style="stop-color:#000000"
   id="midPointStop709" /></radialGradient><path
   id="path637"
   type="arc"
   cx="61.64901"
   cy="495.8291"
   rx="10.46870"
   ry="10.89169"
   fill="url(#path637_1_)"
   d="      M31.7,22.5c0-1,0.7-1.8,1.5-1.8c0.8,0,1.5,0.8,1.5,1.8c0,0,0,0,0,0c0,1-0.7,1.8-1.5,1.8C32.3,24.2,31.7,23.5,31.7,22.5      C31.7,22.5,31.7,22.5,31.7,22.5z" /></g><g
   id="g711"><g
   id="path643"
   nodetypes="cs"><path
   i:knockout="Off"
   opacity="3.320000e-002"
   fill="none"
   stroke="#000000"
   stroke-width="4"
   stroke-linecap="round"
   d="       M13.4,30.5c3.8,5.3,16.2,5.2,20.5,0.2"
   id="path713" /></g><path
   id="path639"
   nodetypes="cs"
   fill="none"
   stroke="#795000"
   stroke-width="2"
   stroke-linecap="round"
   d="      M13.4,30.5c3.8,5.2,16.2,5,20.5,0.2" /></g><g
   id="g715"><radialGradient
   id="path650_1_"
   cx="-172.8257"
   cy="428.8984"
   r="0.1008"
   fx="-172.8257"
   fy="428.8984"
   gradientTransform="matrix(47.8028 0 0 -73.2626 8277.6094 31442.8223)"
   gradientUnits="userSpaceOnUse"><stop
   offset="0"
   style="stop-color:#DEE2E7"
   id="stop717" /><stop
   offset="1"
   style="stop-color:#FFFFFF"
   id="stop718" /><a:midPointStop
   offset="0"
   style="stop-color:#DEE2E7"
   id="midPointStop719" /><a:midPointStop
   offset="0.5"
   style="stop-color:#DEE2E7"
   id="midPointStop720" /><a:midPointStop
   offset="1"
   style="stop-color:#FFFFFF"
   id="midPointStop721" /></radialGradient><path
   id="path650"
   type="arc"
   cx="50.24698"
   cy="478.4100"
   rx="24.52531"
   ry="34.99345"
   fill="url(#path650_1_)"
   stroke="#7C3902"
   stroke-width="0.6188"
   d="      M18.8,19.4c0-3-1.6-5.5-3.6-5.5c-2,0-3.6,2.5-3.6,5.5c0,0,0,0,0,0c0,3,1.6,5.5,3.6,5.5C17.2,24.9,18.8,22.5,18.8,19.4      C18.8,19.4,18.8,19.4,18.8,19.4z" /><g
   id="path651"
   type="arc"
   cx="50.09747"
   cy="476.7646"
   rx="28.86212"
   ry="41.42389"><path
   i:knockout="Off"
   opacity="3.790000e-002"
   fill="none"
   stroke="#000000"
   stroke-width="0.5625"
   d="M19.3,19.4       c0-3.3-1.9-6.1-4.2-6.1S11,16,11,19.4c0,0,0,0,0,0c0,3.3,1.9,6.1,4.2,6.1C17.5,25.4,19.3,22.7,19.3,19.4       C19.3,19.4,19.3,19.4,19.3,19.4z"
   id="path724" /></g><g
   id="path652"
   type="arc"
   cx="50.09747"
   cy="476.7646"
   rx="28.86212"
   ry="41.42389"><path
   i:knockout="Off"
   opacity="1.420000e-002"
   fill="none"
   stroke="#000000"
   stroke-width="1.956"
   d="M19.3,19.4       c0-3.3-1.9-6-4.2-6c-2.3,0-4.2,2.7-4.2,6c0,0,0,0,0,0c0,3.3,1.9,6,4.2,6C17.5,25.4,19.3,22.7,19.3,19.4       C19.3,19.4,19.3,19.4,19.3,19.4z"
   id="path726" /></g><g
   id="path653"
   type="arc"
   cx="50.09747"
   cy="476.7646"
   rx="28.86212"
   ry="41.42389"><path
   i:knockout="Off"
   opacity="1.420000e-002"
   fill="none"
   stroke="#000000"
   stroke-width="1.236"
   d="M19.3,19.4       c0-3.3-1.9-6-4.2-6c-2.3,0-4.2,2.7-4.2,6c0,0,0,0,0,0c0,3.3,1.9,6,4.2,6C17.5,25.4,19.3,22.7,19.3,19.4       C19.3,19.4,19.3,19.4,19.3,19.4z"
   id="path728" /></g><g
   id="path654"
   type="arc"
   cx="50.09747"
   cy="476.7646"
   rx="28.86212"
   ry="41.42389"><path
   i:knockout="Off"
   opacity="1.420000e-002"
   fill="none"
   stroke="#000000"
   stroke-width="0.4257"
   d="M19.3,19.4       c0-3.3-1.9-6-4.2-6c-2.3,0-4.2,2.7-4.2,6c0,0,0,0,0,0c0,3.3,1.9,6,4.2,6C17.5,25.4,19.3,22.7,19.3,19.4       C19.3,19.4,19.3,19.4,19.3,19.4z"
   id="path730" /></g><g
   id="path655"
   type="arc"
   cx="50.09747"
   cy="476.7646"
   rx="28.86212"
   ry="41.42389"><path
   i:knockout="Off"
   opacity="0.1517"
   fill="none"
   stroke="#000000"
   stroke-width="0.214"
   d="M19.2,19.4c0-3.3-1.8-5.9-4-5.9       c-2.2,0-4,2.7-4,5.9c0,0,0,0,0,0c0,3.3,1.8,5.9,4,5.9S19.2,22.7,19.2,19.4L19.2,19.4z"
   id="path732" /></g><radialGradient
   id="path656_1_"
   cx="-177.8374"
   cy="433.1533"
   r="9.279085e-002"
   fx="-177.8374"
   fy="433.1533"
   gradientTransform="matrix(19.9085 0 0 -23.3843 3555.7683 10149.5869)"
   gradientUnits="userSpaceOnUse"><stop
   offset="0"
   style="stop-color:#000082"
   id="stop734" /><stop
   offset="1"
   style="stop-color:#000000"
   id="stop735" /><a:midPointStop
   offset="0"
   style="stop-color:#000082"
   id="midPointStop736" /><a:midPointStop
   offset="0.5"
   style="stop-color:#000082"
   id="midPointStop737" /><a:midPointStop
   offset="1"
   style="stop-color:#000000"
   id="midPointStop738" /></radialGradient><path
   id="path656"
   type="arc"
   cx="61.64901"
   cy="495.8291"
   rx="10.46870"
   ry="10.89169"
   fill="url(#path656_1_)"
   d="      M17.3,21.7c0-1-0.7-1.8-1.5-1.8c-0.8,0-1.5,0.8-1.5,1.8c0,0,0,0,0,0c0,1,0.7,1.8,1.5,1.8C16.6,23.5,17.3,22.7,17.3,21.7      C17.3,21.7,17.3,21.7,17.3,21.7z" /></g></g></svg>
