<?xml version="1.0" encoding="UTF-8" standalone="no"?>
<!DOCTYPE svg PUBLIC "-//W3C//DTD SVG 20010904//EN"
"http://www.w3.org/TR/2001/REC-SVG-20010904/DTD/svg10.dtd">
<!-- Created with Sodipodi ("http://www.sodipodi.com/") -->
<svg
   xmlns:x="http://ns.adobe.com/Extensibility/1.0/"
   xmlns:i="http://ns.adobe.com/AdobeIllustrator/10.0/"
   xmlns:graph="http://ns.adobe.com/Graphs/1.0/"
   xmlns="http://www.w3.org/2000/svg"
   xmlns:xlink="http://www.w3.org/1999/xlink"
   xmlns:a="http://ns.adobe.com/AdobeSVGViewerExtensions/3.0/"
   xml:space="preserve"
   i:viewOrigin="166.0005 465.75"
   i:rulerOrigin="0 0"
   i:pageBounds="0 792 612 0"
   width="52.6"
   height="48"
   viewBox="0 0 52.6 48"
   overflow="visible"
   enable-background="new 0 0 52.6 48"
   xmlns:sodipodi="http://sodipodi.sourceforge.net/DTD/sodipodi-0.dtd"
   id="svg602"
   sodipodi:version="0.34"
   sodipodi:docname="C:\msys\home\su_blanc\mldonkey-2.5.12\src\gtk2\rsvg\emoticons\emoticon_kiss.svg"><defs
   id="defs779" /><sodipodi:namedview
   id="namedview778" /><g
   id="Layer_1"
   i:layer="yes"
   i:dimmedPercent="50"
   i:rgbTrio="#4F008000FFFF"><g
   id="g606"><g
   id="path621"
   nodetypes="cssssss"><path
   i:knockout="Off"
   opacity="3.790000e-002"
   fill="none"
   stroke="#000000"
   stroke-width="1.6359"
   d="M2.3,22.4       c0-3.4,12.2-9.9,18.6-13.3c1.3-0.7,3.3,1.4,4.8,1.4c1.8,0,3.8-2.1,5.4-1.3c6.7,3.4,19.4,9.6,19.2,13.8       c-0.3,8.2-15.8,16-25,15.9C15.2,38.9,2.2,29.3,2.3,22.4z"
   id="path608" /></g><g
   id="path620"
   nodetypes="cssssss"><path
   i:knockout="Off"
   opacity="3.790000e-002"
   fill="none"
   stroke="#000000"
   stroke-width="1.8696"
   d="M2.3,22.4       c0-3.4,12.2-9.9,18.6-13.3c1.3-0.7,3.3,1.4,4.8,1.4c1.8,0,3.8-2.1,5.4-1.3c6.7,3.4,19.4,9.6,19.2,13.8       c-0.3,8.2-15.8,16-25,15.9C15.2,38.9,2.2,29.3,2.3,22.4z"
   id="path610" /></g><g
   id="path619"
   nodetypes="cssssss"><path
   i:knockout="Off"
   opacity="3.790000e-002"
   fill="none"
   stroke="#000000"
   stroke-width="2.337"
   d="M2.3,22.4       c0-3.4,12.2-9.9,18.6-13.3c1.3-0.7,3.3,1.4,4.8,1.4c1.8,0,3.8-2.1,5.4-1.3c6.7,3.4,19.4,9.6,19.2,13.8       c-0.3,8.2-15.8,16-25,15.9C15.2,38.9,2.2,29.3,2.3,22.4z"
   id="path612" /></g><g
   id="path618"
   nodetypes="cssssss"><path
   i:knockout="Off"
   opacity="3.790000e-002"
   fill="none"
   stroke="#000000"
   stroke-width="3.0381"
   d="M2.3,22.4       c0-3.4,12.2-9.9,18.6-13.3c1.3-0.7,3.3,1.4,4.8,1.4c1.8,0,3.8-2.1,5.4-1.3c6.7,3.4,19.4,9.6,19.2,13.8       c-0.3,8.2-15.8,16-25,15.9C15.2,38.9,2.2,29.3,2.3,22.4z"
   id="path614" /></g><g
   id="path617"
   nodetypes="cssssss"><path
   i:knockout="Off"
   opacity="3.790000e-002"
   fill="none"
   stroke="#000000"
   stroke-width="3.5056"
   d="M2.3,22.4       c0-3.4,12.2-9.9,18.6-13.3c1.3-0.7,3.3,1.4,4.8,1.4c1.8,0,3.8-2.1,5.4-1.3c6.7,3.4,19.4,9.6,19.2,13.8       c-0.3,8.2-15.8,16-25,15.9C15.2,38.9,2.2,29.3,2.3,22.4z"
   id="path616" /></g><g
   id="g617"
   nodetypes="cssssss"><path
   i:knockout="Off"
   opacity="3.790000e-002"
   fill="none"
   stroke="#000000"
   stroke-width="4.2067"
   d="M2.3,22.4       c0-3.4,12.2-9.9,18.6-13.3c1.3-0.7,3.3,1.4,4.8,1.4c1.8,0,3.8-2.1,5.4-1.3c6.7,3.4,19.4,9.6,19.2,13.8       c-0.3,8.2-15.8,16-25,15.9C15.2,38.9,2.2,29.3,2.3,22.4z"
   id="path622" /></g><g
   id="path615"
   nodetypes="cssssss"><path
   i:knockout="Off"
   opacity="3.790000e-002"
   fill="none"
   stroke="#000000"
   stroke-width="4.6741"
   d="M2.3,22.4       c0-3.4,12.2-9.9,18.6-13.3c1.3-0.7,3.3,1.4,4.8,1.4c1.8,0,3.8-2.1,5.4-1.3c6.7,3.4,19.4,9.6,19.2,13.8       c-0.3,8.2-15.8,16-25,15.9C15.2,38.9,2.2,29.3,2.3,22.4z"
   id="path624" /></g><linearGradient
   id="path563_1_"
   gradientUnits="userSpaceOnUse"
   x1="-165.9258"
   y1="465.5508"
   x2="-165.9258"
   y2="465.4847"
   gradientTransform="matrix(269.0338 0 0 -152.9243 44665.8711 71218.2734)"><stop
   offset="0"
   style="stop-color:#CC0000"
   id="stop626" /><stop
   offset="1"
   style="stop-color:#FF8275"
   id="stop627" /><a:midPointStop
   offset="0"
   style="stop-color:#CC0000"
   id="midPointStop628" /><a:midPointStop
   offset="0.5"
   style="stop-color:#CC0000"
   id="midPointStop629" /><a:midPointStop
   offset="1"
   style="stop-color:#FF8275"
   id="midPointStop630" /></linearGradient><path
   id="path563"
   nodetypes="cssssss"
   fill="url(#path563_1_)"
   stroke="#650000"
   stroke-width="0.9114"
   d="M2.3,22.4      c0-3.4,12.2-9.9,18.6-13.3c1.3-0.7,3.3,1.4,4.8,1.4c1.8,0,3.8-2.1,5.4-1.3c6.7,3.4,19.4,9.6,19.2,13.8c-0.3,8.2-15.8,16-25,15.9      C15.2,38.9,2.2,29.3,2.3,22.4z" /><g
   id="path564"
   nodetypes="cssssssssssss"><linearGradient
   id="XMLID_1_"
   gradientUnits="userSpaceOnUse"
   x1="3.4185"
   y1="21.3203"
   x2="49.0259"
   y2="21.3203"><stop
   offset="0"
   style="stop-color:#CC0000"
   id="stop634" /><stop
   offset="1"
   style="stop-color:#FF8275"
   id="stop635" /><a:midPointStop
   offset="0"
   style="stop-color:#CC0000"
   id="midPointStop636" /><a:midPointStop
   offset="0.5"
   style="stop-color:#CC0000"
   id="midPointStop637" /><a:midPointStop
   offset="1"
   style="stop-color:#FF8275"
   id="midPointStop638" /></linearGradient><path
   i:knockout="Off"
   opacity="3.790000e-002"
   fill="url(#XMLID_1_)"
   d="M3.7,21.7c2.3-1.8,6.2-4.5,9.7-4.7       c3.1-0.2,7.5,3.9,10.3,3.7c1.2-0.1,1.8-3.7,2.6-3.7c0.8,0,1,3.5,2.1,3.7c3.1,0.3,7.9-3.9,11.4-3.7c3.3,0.2,6.8,3,8.9,4.8       c0.7,0.6-0.2,3.7-1.1,3.7c-2,0-4.9-3.8-7.5-3.8c-4.4-0.1-9,3.3-13.6,3.5c-4.1,0.1-8.3-2.7-12.4-2.7c-3.2,0-6.8,3.2-9.3,3       C3.9,25.5,2.9,22.3,3.7,21.7z"
   id="path639" /></g><linearGradient
   id="path565_1_"
   gradientUnits="userSpaceOnUse"
   x1="25.9614"
   y1="26.0596"
   x2="25.9614"
   y2="10.9544"><stop
   offset="0"
   style="stop-color:#000000"
   id="stop641" /><stop
   offset="0.1971"
   style="stop-color:#030303"
   id="stop642" /><stop
   offset="0.3312"
   style="stop-color:#0C0C0C"
   id="stop643" /><stop
   offset="0.4467"
   style="stop-color:#1B1B1B"
   id="stop644" /><stop
   offset="0.5515"
   style="stop-color:#313131"
   id="stop645" /><stop
   offset="0.6493"
   style="stop-color:#4D4D4D"
   id="stop646" /><stop
   offset="0.7417"
   style="stop-color:#6F6F6F"
   id="stop647" /><stop
   offset="0.83"
   style="stop-color:#989898"
   id="stop648" /><stop
   offset="0.9149"
   style="stop-color:#C7C7C7"
   id="stop649" /><stop
   offset="0.9945"
   style="stop-color:#FBFBFB"
   id="stop650" /><stop
   offset="1"
   style="stop-color:#FFFFFF"
   id="stop651" /><a:midPointStop
   offset="0"
   style="stop-color:#000000"
   id="midPointStop652" /><a:midPointStop
   offset="0.7797"
   style="stop-color:#000000"
   id="midPointStop653" /><a:midPointStop
   offset="1"
   style="stop-color:#FFFFFF"
   id="midPointStop654" /></linearGradient><path
   id="path565"
   nodetypes="cssssssssss"
   i:knockout="Off"
   opacity="0.31"
   fill="url(#path565_1_)"
   d="M19.7,11      c-1.2,1.4,3.5,4.4,3.9,6.8c0.4,2.1-1.8,5-1.4,6.8c0.2,1.1,3,1.8,4.2,1.7c1.5-0.1,3.2-0.6,3.7-2c0.8-2.3-2.1-4.8-1.8-6.8      c0.3-1.9,5.4-5.2,3.9-6.8c-1.1-1.2-2.8,2.4-4.1,2.5c-0.9,0-1.6-2.2-2.4-2.2c-0.7,0-1.2,2.2-2,2.2C22.5,13.2,21,9.5,19.7,11z" /><linearGradient
   id="path566_1_"
   gradientUnits="userSpaceOnUse"
   x1="-165.9487"
   y1="466.1699"
   x2="-165.9476"
   y2="466.3077"
   gradientTransform="matrix(258.3861 0 0 -75.582 42905.0625 35273.1133)"><stop
   offset="0"
   style="stop-color:#000000"
   id="stop657" /><stop
   offset="1"
   style="stop-color:#FFFFFF"
   id="stop658" /><a:midPointStop
   offset="0"
   style="stop-color:#000000"
   id="midPointStop659" /><a:midPointStop
   offset="0.5"
   style="stop-color:#000000"
   id="midPointStop660" /><a:midPointStop
   offset="1"
   style="stop-color:#FFFFFF"
   id="midPointStop661" /></linearGradient><path
   id="path566"
   nodetypes="cssss"
   opacity="5.000000e-002"
   fill="url(#path566_1_)"
   d="M3.6,25.1      c-1,3,10.2,13.6,21.5,13.8c13.4,0.2,24.6-11.3,24.5-14.6c-0.1-2-9,7.7-24.2,7.8C11.4,32.3,4,24.1,3.6,25.1z" /><linearGradient
   id="path575_1_"
   gradientUnits="userSpaceOnUse"
   x1="-166.0571"
   y1="466.1787"
   x2="-165.9086"
   y2="466.3557"
   gradientTransform="matrix(258.3861 0 0 -75.582 42905.0625 35273.1133)"><stop
   offset="0"
   style="stop-color:#000000"
   id="stop664" /><stop
   offset="5.554014e-002"
   style="stop-color:#131313"
   id="stop665" /><stop
   offset="0.1748"
   style="stop-color:#353535"
   id="stop666" /><stop
   offset="0.302"
   style="stop-color:#515151"
   id="stop667" /><stop
   offset="0.438"
   style="stop-color:#676767"
   id="stop668" /><stop
   offset="0.5865"
   style="stop-color:#777777"
   id="stop669" /><stop
   offset="0.7572"
   style="stop-color:#808080"
   id="stop670" /><stop
   offset="1"
   style="stop-color:#838383"
   id="stop671" /><a:midPointStop
   offset="0"
   style="stop-color:#000000"
   id="midPointStop672" /><a:midPointStop
   offset="0.226"
   style="stop-color:#000000"
   id="midPointStop673" /><a:midPointStop
   offset="1"
   style="stop-color:#838383"
   id="midPointStop674" /></linearGradient><path
   id="path575"
   nodetypes="cssss"
   opacity="7.000000e-002"
   fill="url(#path575_1_)"
   d="M3.6,25.1      c-1,3,10.2,13.6,21.5,13.8c13.4,0.2,24.6-11.3,24.5-14.6c-0.1-2-9,7.7-24.2,7.8C11.4,32.3,4,24.1,3.6,25.1z" /><linearGradient
   id="path576_1_"
   gradientUnits="userSpaceOnUse"
   x1="-165.8213"
   y1="466.1934"
   x2="-165.9449"
   y2="466.2997"
   gradientTransform="matrix(258.3861 0 0 -75.582 42905.0625 35273.1133)"><stop
   offset="0"
   style="stop-color:#000000"
   id="stop677" /><stop
   offset="5.506516e-003"
   style="stop-color:#040404"
   id="stop678" /><stop
   offset="8.510184e-002"
   style="stop-color:#383838"
   id="stop679" /><stop
   offset="0.17"
   style="stop-color:#676767"
   id="stop680" /><stop
   offset="0.2583"
   style="stop-color:#909090"
   id="stop681" /><stop
   offset="0.3507"
   style="stop-color:#B2B2B2"
   id="stop682" /><stop
   offset="0.4485"
   style="stop-color:#CECECE"
   id="stop683" /><stop
   offset="0.5533"
   style="stop-color:#E4E4E4"
   id="stop684" /><stop
   offset="0.6688"
   style="stop-color:#F3F3F3"
   id="stop685" /><stop
   offset="0.8029"
   style="stop-color:#FCFCFC"
   id="stop686" /><stop
   offset="1"
   style="stop-color:#FFFFFF"
   id="stop687" /><a:midPointStop
   offset="0"
   style="stop-color:#000000"
   id="midPointStop688" /><a:midPointStop
   offset="0.2203"
   style="stop-color:#000000"
   id="midPointStop689" /><a:midPointStop
   offset="1"
   style="stop-color:#FFFFFF"
   id="midPointStop690" /></linearGradient><path
   id="path576"
   nodetypes="cssss"
   opacity="0.2"
   fill="url(#path576_1_)"
   d="M3.6,25.1c-1,3,10.2,13.6,21.5,13.8      c13.4,0.2,24.6-11.3,24.5-14.6c-0.1-2-9,7.7-24.2,7.8C11.4,32.3,4,24.1,3.6,25.1z" /><path
   id="path578"
   nodetypes="cssssssssssss"
   i:knockout="Off"
   opacity="0.15"
   d="M4.4,22.9c2.3-1,6.3-3,9.8-3.1      c3.1-0.1,7,1.8,9.8,1.6c1.2-0.1,1.5-1.7,2.3-1.7c0.8,0,0.8,2,1.9,2c3.1,0.2,7.4-2.8,10.9-2.7c3.3,0.1,7.1,2.6,9.2,3.6      c0.7,0.3,0.2,1.2-0.6,1.2c-2,0-5.3-3-7.9-3c-4.4,0-9.2,3-13.7,3.1c-4.1,0.1-7.7-2.3-11.8-2.3c-3.2,0-6.6,3.1-9.2,3      C4.2,24.6,3.7,23.3,4.4,22.9z" /><path
   id="path579"
   nodetypes="cssssssssssss"
   i:knockout="Off"
   opacity="0.25"
   d="M5.4,23.4c2.3-1,5.5-2.9,9-3      c3.1-0.1,7.8,1.8,10.6,1.6c1.2-0.1,0.6-1,1.4-1c0.8,0,0.5,1.3,1.6,1.4c3.1,0.2,7.6-3.1,11.1-3c3.3,0.1,6.6,2.6,8.7,3.6      c0.7,0.3,0.7,0.6-0.2,0.6c-2,0-5.5-3.2-8.1-3.2c-4.4,0-8.5,4-13,4.1c-4.1,0.1-8-3.3-12.1-3.3c-3.2,0-6.4,2.9-9,2.8      C4.5,24,4.6,23.8,5.4,23.4z" /><path
   id="path584"
   nodetypes="cssss"
   i:knockout="Off"
   opacity="0.2"
   d="M26.3,21.6c-0.7,0-2.2,1.1-2.3,1.7      c-0.1,0.4,1.2,1.4,1.8,1.3c0.7,0,2.2-1,2.3-1.5C28.2,22.6,26.9,21.5,26.3,21.6z" /><linearGradient
   id="path585_1_"
   gradientUnits="userSpaceOnUse"
   x1="-166.5518"
   y1="465.4424"
   x2="-166.5506"
   y2="465.2415"
   gradientTransform="matrix(106.1742 0 0 -47.8795 17709.1113 22293.877)"><stop
   offset="0"
   style="stop-color:#FFFFFF"
   id="stop696" /><stop
   offset="1"
   style="stop-color:#FFFFFF"
   id="stop697" /><a:midPointStop
   offset="0"
   style="stop-color:#FFFFFF"
   id="midPointStop698" /><a:midPointStop
   offset="0.5"
   style="stop-color:#FFFFFF"
   id="midPointStop699" /><a:midPointStop
   offset="1"
   style="stop-color:#FFFFFF"
   id="midPointStop700" /></linearGradient><path
   id="path585"
   nodetypes="cssssss"
   opacity="0.55"
   fill="url(#path585_1_)"
   d="M25.7,10.5      c-2.2,0.1-2.6-1.4-4.5-1.4c-0.3,0.1-4.1,1.4-4.9,4c-1,3.2,6.6,5.6,9.7,5.4c3.1-0.2,10.2-3,9-5.9C34.3,10.6,31,9.1,30.6,9      C29,9.1,27.9,10.4,25.7,10.5z" /><linearGradient
   id="path590_1_"
   gradientUnits="userSpaceOnUse"
   x1="-169.0352"
   y1="469.749"
   x2="-169.0341"
   y2="469.5495"
   gradientTransform="matrix(16.0826 0 0 -13.8199 2732.3792 6518.0146)"><stop
   offset="0"
   style="stop-color:#FFFFFF"
   id="stop703" /><stop
   offset="1"
   style="stop-color:#FFFFFF"
   id="stop704" /><a:midPointStop
   offset="0"
   style="stop-color:#FFFFFF"
   id="midPointStop705" /><a:midPointStop
   offset="0.5"
   style="stop-color:#FFFFFF"
   id="midPointStop706" /><a:midPointStop
   offset="1"
   style="stop-color:#FFFFFF"
   id="midPointStop707" /></linearGradient><path
   id="path590"
   nodetypes="cssss"
   opacity="0.55"
   fill="url(#path590_1_)"
   d="M13.9,26.2c-0.5,0.1-1.4,0.9-1.4,1.3      c0,0.9,1,1.4,1.5,1.4c0.5-0.1,1.4-0.7,1.4-1.5C15.3,26.9,14.4,26.1,13.9,26.2z" /><path
   id="path591"
   nodetypes="cssss"
   opacity="0.6"
   fill="url(#path590_1_)"
   d="M13.9,26.2c-0.5,0.1-1.4,0.9-1.4,1.3      c0,0.9,1,1.4,1.5,1.4c0.5-0.1,1.4-0.7,1.4-1.5C15.3,26.9,14.4,26.1,13.9,26.2z" /><linearGradient
   id="path592_1_"
   gradientUnits="userSpaceOnUse"
   x1="-175.8384"
   y1="470.0283"
   x2="-175.8373"
   y2="469.828"
   gradientTransform="matrix(16.2813 0 0 -12.4653 2900.9087 5884.707)"><stop
   offset="0"
   style="stop-color:#FFFFFF"
   id="stop711" /><stop
   offset="1"
   style="stop-color:#FFFFFF"
   id="stop712" /><a:midPointStop
   offset="0"
   style="stop-color:#FFFFFF"
   id="midPointStop713" /><a:midPointStop
   offset="0.5"
   style="stop-color:#FFFFFF"
   id="midPointStop714" /><a:midPointStop
   offset="1"
   style="stop-color:#FFFFFF"
   id="midPointStop715" /></linearGradient><path
   id="path592"
   nodetypes="cssss"
   opacity="0.6"
   fill="url(#path592_1_)"
   d="M38.5,25.8c-0.5-0.3-1.7-0.1-1.9,0.3      c-0.3,0.7,0.4,1.7,0.9,1.9c0.5,0.2,1.6,0.2,1.9-0.5C39.6,27.2,39.1,26.1,38.5,25.8z" /><linearGradient
   id="path593_1_"
   gradientUnits="userSpaceOnUse"
   x1="-183.8286"
   y1="471.4873"
   x2="-183.8275"
   y2="471.2868"
   gradientTransform="matrix(10.3596 0 0 -7.8125 1947.0874 3707.1016)"><stop
   offset="0"
   style="stop-color:#FFFFFF"
   id="stop718" /><stop
   offset="1"
   style="stop-color:#FFFFFF"
   id="stop719" /><a:midPointStop
   offset="0"
   style="stop-color:#FFFFFF"
   id="midPointStop720" /><a:midPointStop
   offset="0.5"
   style="stop-color:#FFFFFF"
   id="midPointStop721" /><a:midPointStop
   offset="1"
   style="stop-color:#FFFFFF"
   id="midPointStop722" /></linearGradient><path
   id="path593"
   nodetypes="cssss"
   opacity="0.6"
   fill="url(#path593_1_)"
   d="M43,23.7c-0.3-0.2-1.1,0-1.2,0.2      c-0.2,0.4,0.3,1.1,0.6,1.2c0.3,0.1,1,0.1,1.2-0.3C43.7,24.6,43.4,23.9,43,23.7z" /><linearGradient
   id="path594_1_"
   gradientUnits="userSpaceOnUse"
   x1="-178.8945"
   y1="474.4834"
   x2="-178.8934"
   y2="474.2831"
   gradientTransform="matrix(9.9366 0 0 -7.3895 1808.0077 3534.6094)"><stop
   offset="0"
   style="stop-color:#FFFFFF"
   id="stop725" /><stop
   offset="1"
   style="stop-color:#FFFFFF"
   id="stop726" /><a:midPointStop
   offset="0"
   style="stop-color:#FFFFFF"
   id="midPointStop727" /><a:midPointStop
   offset="0.5"
   style="stop-color:#FFFFFF"
   id="midPointStop728" /><a:midPointStop
   offset="1"
   style="stop-color:#FFFFFF"
   id="midPointStop729" /></linearGradient><path
   id="path594"
   nodetypes="cssss"
   opacity="0.6"
   fill="url(#path594_1_)"
   d="M30.7,28.5c-0.3-0.1-1.1,0-1.1,0.2      c-0.2,0.4,0.3,1,0.6,1.1c0.3,0.1,1,0.1,1.2-0.3C31.4,29.3,31,28.7,30.7,28.5z" /><linearGradient
   id="path595_1_"
   gradientUnits="userSpaceOnUse"
   x1="-169.7788"
   y1="472.2324"
   x2="-169.7777"
   y2="472.0317"
   gradientTransform="matrix(10.2071 0 0 -7.6303 1743.9529 3628.0164)"><stop
   offset="0"
   style="stop-color:#FFFFFF"
   id="stop732" /><stop
   offset="1"
   style="stop-color:#FFFFFF"
   id="stop733" /><a:midPointStop
   offset="0"
   style="stop-color:#FFFFFF"
   id="midPointStop734" /><a:midPointStop
   offset="0.5"
   style="stop-color:#FFFFFF"
   id="midPointStop735" /><a:midPointStop
   offset="1"
   style="stop-color:#FFFFFF"
   id="midPointStop736" /></linearGradient><path
   id="path595"
   nodetypes="cssss"
   opacity="0.6"
   fill="url(#path595_1_)"
   d="M10.9,24.8c-0.3,0.1-0.8,0.7-0.8,1      c0.1,0.5,0.8,0.6,1.1,0.5c0.3-0.1,0.8-0.6,0.7-1C11.9,25,11.2,24.7,10.9,24.8z" /><linearGradient
   id="path596_1_"
   gradientUnits="userSpaceOnUse"
   x1="-175.6855"
   y1="473.8311"
   x2="-175.6844"
   y2="473.6301"
   gradientTransform="matrix(9.5159 0 0 -7.9669 1694.3604 3803.3193)"><stop
   offset="0"
   style="stop-color:#FFFFFF"
   id="stop739" /><stop
   offset="1"
   style="stop-color:#FFFFFF"
   id="stop740" /><a:midPointStop
   offset="0"
   style="stop-color:#FFFFFF"
   id="midPointStop741" /><a:midPointStop
   offset="0.5"
   style="stop-color:#FFFFFF"
   id="midPointStop742" /><a:midPointStop
   offset="1"
   style="stop-color:#FFFFFF"
   id="midPointStop743" /></linearGradient><path
   id="path596"
   nodetypes="cssss"
   opacity="0.55"
   fill="url(#path596_1_)"
   d="M22.3,28.5c-0.3,0.2-0.6,0.9-0.5,1.1      c0.2,0.4,0.9,0.4,1.2,0.2c0.3-0.2,0.6-0.8,0.5-1.2C23.3,28.4,22.6,28.3,22.3,28.5z" /><path
   id="path597"
   nodetypes="cssss"
   opacity="0.6"
   fill="url(#path596_1_)"
   d="M22.3,28.5c-0.3,0.2-0.6,0.9-0.5,1.1      c0.2,0.4,0.9,0.4,1.2,0.2c0.3-0.2,0.6-0.8,0.5-1.2C23.3,28.4,22.6,28.3,22.3,28.5z" /><g
   id="path598"
   nodetypes="cssssssssssss"
   opacity="0.2"><path
   i:knockout="Off"
   opacity="3.790000e-002"
   d="M5.5,23.8c2.4-0.7,5.4-2.7,9-2.8c3.1-0.1,7.8,2.7,10.6,2.5       c1.2-0.1,0.5,0,1.3,0c0.8,0,0.7,0,1.8,0c3.1,0.2,7.8-3.4,11.3-3.3c3.3,0.1,5.6,2.4,7.7,3.4C48,24,48,24,47.1,24       c-2,0-4.9-3.3-7.6-3.3c-4.4,0-8.4,3.8-13,3.9c-4.1,0.1-8-3.2-12-3.1c-3.2,0-6.5,2.3-9,2.7C5.1,24.1,5.3,23.8,5.5,23.8z"
   id="path747" /><path
   i:knockout="Off"
   fill="none"
   stroke="#000000"
   stroke-width="0.3739"
   d="M5.5,23.8c2.4-0.7,5.4-2.7,9-2.8       c3.1-0.1,7.8,2.7,10.6,2.5c1.2-0.1,0.5,0,1.3,0c0.8,0,0.7,0,1.8,0c3.1,0.2,7.8-3.4,11.3-3.3c3.3,0.1,5.6,2.4,7.7,3.4       C48,24,48,24,47.1,24c-2,0-4.9-3.3-7.6-3.3c-4.4,0-8.4,3.8-13,3.9c-4.1,0.1-8-3.2-12-3.1c-3.2,0-6.5,2.3-9,2.7       C5.1,24.1,5.3,23.8,5.5,23.8z"
   id="path748" /></g><linearGradient
   id="path607_1_"
   gradientUnits="userSpaceOnUse"
   x1="-166.2021"
   y1="466.5391"
   x2="-165.8609"
   y2="466.5222"
   gradientTransform="matrix(24.0121 0 0 -32.3778 3992.1841 15128.5732)"><stop
   offset="0"
   style="stop-color:#000000"
   id="stop750" /><stop
   offset="1"
   style="stop-color:#FFFFFF"
   id="stop751" /><a:midPointStop
   offset="0"
   style="stop-color:#000000"
   id="midPointStop752" /><a:midPointStop
   offset="0.5"
   style="stop-color:#000000"
   id="midPointStop753" /><a:midPointStop
   offset="1"
   style="stop-color:#FFFFFF"
   id="midPointStop754" /></linearGradient><path
   id="path607"
   nodetypes="cssss"
   opacity="5.000000e-002"
   fill="url(#path607_1_)"
   d="M4,19.8      c0.6-0.3,2.3,1.9,2.3,2.9c-0.1,1.3-1.9,4.4-2.4,4.1c-0.8-0.6-1.5-3-1.5-4.4C2.4,21.4,3.5,20.1,4,19.8z" /><linearGradient
   id="path609_1_"
   gradientUnits="userSpaceOnUse"
   x1="-166.2886"
   y1="467.1299"
   x2="-165.7951"
   y2="467.1055"
   gradientTransform="matrix(16.5883 0 0 -22.3677 2759.7834 10471.4189)"><stop
   offset="0"
   style="stop-color:#000000"
   id="stop757" /><stop
   offset="1"
   style="stop-color:#FFFFFF"
   id="stop758" /><a:midPointStop
   offset="0"
   style="stop-color:#000000"
   id="midPointStop759" /><a:midPointStop
   offset="0.5"
   style="stop-color:#000000"
   id="midPointStop760" /><a:midPointStop
   offset="1"
   style="stop-color:#FFFFFF"
   id="midPointStop761" /></linearGradient><path
   id="path609"
   nodetypes="cssss"
   opacity="7.000000e-002"
   fill="url(#path609_1_)"
   d="M3.4,20.8      c0.6-0.3,2,1.3,1.9,2.3c-0.1,1.3-1.5,2.4-2,2c-0.8-0.6-1.1-1.4-1-2.8C2.4,21.4,2.9,21.1,3.4,20.8z" /><linearGradient
   id="path610_1_"
   gradientUnits="userSpaceOnUse"
   x1="-174.3936"
   y1="466.5205"
   x2="-174.5793"
   y2="466.525"
   gradientTransform="matrix(24.2471 0 0 -32.0881 4278.5117 14992.9219)"><stop
   offset="0"
   style="stop-color:#000000"
   id="stop764" /><stop
   offset="1"
   style="stop-color:#FFFFFF"
   id="stop765" /><a:midPointStop
   offset="0"
   style="stop-color:#000000"
   id="midPointStop766" /><a:midPointStop
   offset="0.5"
   style="stop-color:#000000"
   id="midPointStop767" /><a:midPointStop
   offset="1"
   style="stop-color:#FFFFFF"
   id="midPointStop768" /></linearGradient><path
   id="path769"
   nodetypes="cssss"
   opacity="5.000000e-002"
   fill="url(#path610_1_)"
   d="M48.9,26.5      c-0.6,0.4-2.5-1.7-2.5-2.6c0-1.3,1.5-4.6,2-4.3c0.9,0.5,1.8,2.9,1.9,4.3C50.4,24.7,49.4,26.2,48.9,26.5z" /><linearGradient
   id="path611_1_"
   gradientUnits="userSpaceOnUse"
   x1="-178.3989"
   y1="467.209"
   x2="-178.666"
   y2="467.2155"
   gradientTransform="matrix(16.822 0 0 -22.262 3051.009 10424.3936)"><stop
   offset="0"
   style="stop-color:#000000"
   id="stop771" /><stop
   offset="1"
   style="stop-color:#FFFFFF"
   id="stop772" /><a:midPointStop
   offset="0"
   style="stop-color:#000000"
   id="midPointStop773" /><a:midPointStop
   offset="0.5"
   style="stop-color:#000000"
   id="midPointStop774" /><a:midPointStop
   offset="1"
   style="stop-color:#FFFFFF"
   id="midPointStop775" /></linearGradient><path
   id="path611"
   nodetypes="cssss"
   opacity="7.000000e-002"
   fill="url(#path611_1_)"
   d="M49.5,25.5      c-0.6,0.4-2.1-1.1-2.1-2.1c0-1.3,1.2-2.5,1.8-2.2c0.9,0.5,1.2,1.3,1.2,2.7C50.4,24.7,50,25.1,49.5,25.5z" /></g><rect
   x="2.3"
   i:knockout="Off"
   opacity="0.31"
   fill="none"
   width="48"
   height="48"
   id="rect777" /></g></svg>
