<?xml version="1.0" encoding="UTF-8" standalone="no"?>
<!DOCTYPE svg PUBLIC "-//W3C//DTD SVG 20010904//EN"
"http://www.w3.org/TR/2001/REC-SVG-20010904/DTD/svg10.dtd">
<!-- Created with Sodipodi ("http://www.sodipodi.com/") -->
<svg
   xmlns:x="http://ns.adobe.com/Extensibility/1.0/"
   xmlns:i="http://ns.adobe.com/AdobeIllustrator/10.0/"
   xmlns:graph="http://ns.adobe.com/Graphs/1.0/"
   xmlns="http://www.w3.org/2000/svg"
   xmlns:xlink="http://www.w3.org/1999/xlink"
   xmlns:a="http://ns.adobe.com/AdobeSVGViewerExtensions/3.0/"
   xml:space="preserve"
   i:viewOrigin="224.25 438.4482"
   i:rulerOrigin="0 0"
   i:pageBounds="0 792 612 0"
   width="48"
   height="48.2"
   viewBox="0 0 48 48.2"
   overflow="visible"
   enable-background="new 0 0 48 48.2"
   xmlns:sodipodi="http://sodipodi.sourceforge.net/DTD/sodipodi-0.dtd"
   id="svg602"
   sodipodi:version="0.34"
   sodipodi:docname="C:\msys\home\su_blanc\mldonkey-2.5.12\src\gtk2\rsvg\emoticons\emoticon_boy.svg"><defs
   id="defs706" /><sodipodi:namedview
   id="base" /><g
   id="Layer_1"
   i:knockout="Off"
   i:layer="yes"
   i:dimmedPercent="50"
   i:rgbTrio="#4F008000FFFF"><g
   id="g606"><g
   id="path649"
   i:knockout="Off"><path
   id="path609"
   i:isolated="yes"
   i:knockout="Off"
   opacity="4.270000e-002"
   fill="none"
   stroke="#000000"
   stroke-width="0.4763"
   stroke-linejoin="round"
   enable-background="new    "
   d="       M19.9,20.8c-1.7,6.8-7.9,13.4-7.7,20.8c6.4,2.4,15.9,2.6,21.5-1.6c0.1-7.1-3.2-13.7-5.3-20.1" /></g><g
   id="path645"
   i:knockout="Off"><path
   id="path611"
   i:isolated="yes"
   i:knockout="Off"
   opacity="4.270000e-002"
   fill="none"
   stroke="#000000"
   stroke-width="0.9405"
   stroke-linejoin="round"
   enable-background="new    "
   d="       M19.9,20.8c-1.7,6.8-7.9,13.4-7.7,20.8c6.4,2.4,15.9,2.6,21.5-1.6c0.1-7.1-3.2-13.7-5.3-20.1" /></g><g
   id="path644"
   i:knockout="Off"><path
   id="path613"
   i:isolated="yes"
   i:knockout="Off"
   opacity="4.270000e-002"
   fill="none"
   stroke="#000000"
   stroke-width="1.1833"
   stroke-linejoin="round"
   enable-background="new    "
   d="       M19.9,20.8c-1.7,6.8-7.9,13.4-7.7,20.8c6.4,2.4,15.9,2.6,21.5-1.6c0.1-7.1-3.2-13.7-5.3-20.1" /></g><g
   id="path643"
   i:knockout="Off"><path
   id="path615"
   i:isolated="yes"
   i:knockout="Off"
   opacity="4.270000e-002"
   fill="none"
   stroke="#000000"
   stroke-width="1.4404"
   stroke-linejoin="round"
   enable-background="new    "
   d="       M19.9,20.8c-1.7,6.8-7.9,13.4-7.7,20.8c6.4,2.4,15.9,2.6,21.5-1.6c0.1-7.1-3.2-13.7-5.3-20.1" /></g><g
   id="path642"
   i:knockout="Off"><path
   id="path617"
   i:isolated="yes"
   i:knockout="Off"
   opacity="4.270000e-002"
   fill="none"
   stroke="#000000"
   stroke-width="1.6689"
   stroke-linejoin="round"
   enable-background="new    "
   d="       M19.9,20.8c-1.7,6.8-7.9,13.4-7.7,20.8c6.4,2.4,15.9,2.6,21.5-1.6c0.1-7.1-3.2-13.7-5.3-20.1" /></g><linearGradient
   id="path651_1_"
   gradientUnits="userSpaceOnUse"
   x1="-448.2104"
   y1="-4.882813e-002"
   x2="-448.3136"
   y2="-1.782225e-002"
   gradientTransform="matrix(181.3356 0 0 197.232 81311.7266 37.4425)"><stop
   offset="0"
   style="stop-color:#8C92AF"
   id="stop618" /><stop
   offset="1"
   style="stop-color:#E7E7E7"
   id="stop619" /><a:midPointStop
   offset="0"
   style="stop-color:#8C92AF"
   id="midPointStop620" /><a:midPointStop
   offset="0.5"
   style="stop-color:#8C92AF"
   id="midPointStop621" /><a:midPointStop
   offset="1"
   style="stop-color:#E7E7E7"
   id="midPointStop622" /></linearGradient><path
   id="path651"
   fill="url(#path651_1_)"
   stroke="#000000"
   stroke-width="0.2764"
   d="M19.9,20.8c-1.7,6.8-7.9,13.4-7.7,20.8      c6.4,2.4,15.9,2.6,21.5-1.6c0.1-7.1-3.2-13.7-5.3-20.1C26.3,21.2,22.2,22.1,19.9,20.8z" /><radialGradient
   id="path700_1_"
   cx="-448.2432"
   cy="-2.397"
   r="5.035168e-002"
   fx="-448.2432"
   fy="-2.397"
   gradientTransform="matrix(242.9707 0 0 67.308 108933.0469 205.0347)"
   gradientUnits="userSpaceOnUse"><stop
   offset="0"
   style="stop-color:#261700"
   id="stop625" /><stop
   offset="1"
   style="stop-color:#FFFFFF"
   id="stop626" /><a:midPointStop
   offset="0"
   style="stop-color:#261700"
   id="midPointStop627" /><a:midPointStop
   offset="0.5"
   style="stop-color:#261700"
   id="midPointStop628" /><a:midPointStop
   offset="1"
   style="stop-color:#FFFFFF"
   id="midPointStop629" /></radialGradient><path
   id="path700"
   i:isolated="yes"
   i:knockout="Off"
   opacity="0.4"
   fill="url(#path700_1_)"
   enable-background="new    "
   d="      M33.7,40c5.4,1.6,6.8,3.3,0.6,5.7c-6.2,2.4-15.5,3-21,1.4c-4.6-1.4-5.1-3.2-1.2-5.5c3.3,1.2,5.4,1.9,11.7,1.7      C29.2,42.7,30.7,41.9,33.7,40z" /><g
   id="path627"
   i:knockout="Off"><linearGradient
   id="path639_1_"
   gradientUnits="userSpaceOnUse"
   x1="-449.5542"
   y1="-1.8955"
   x2="-449.6494"
   y2="-1.9371"
   gradientTransform="matrix(34.8981 0 0 152.3409 15717.4941 330.3812)"><stop
   offset="0"
   style="stop-color:#EB2F2F"
   id="stop633" /><stop
   offset="1"
   style="stop-color:#FFFF00"
   id="stop634" /><a:midPointStop
   offset="0"
   style="stop-color:#EB2F2F"
   id="midPointStop635" /><a:midPointStop
   offset="0.5"
   style="stop-color:#EB2F2F"
   id="midPointStop636" /><a:midPointStop
   offset="1"
   style="stop-color:#FFFF00"
   id="midPointStop637" /></linearGradient><path
   id="path639"
   fill="url(#path639_1_)"
   d="M23.2,22.4c0.2,0.6,0.5,1.1,0.7,1.7c-0.8,6.6-1.3,9.6-2,16.2       c1.8-1.3,3.3-1.1,4.1-2.3c0-6.7-0.6-7.3-1.4-13.9c0.1-0.6,0.3-1.2,0.4-1.9C24.5,22.4,23.8,22.5,23.2,22.4z" /><path
   id="path640"
   i:isolated="yes"
   i:knockout="Off"
   opacity="0.1469"
   fill="none"
   stroke="#460000"
   stroke-width="0.2214"
   stroke-linecap="round"
   stroke-linejoin="round"
   enable-background="new    "
   d="       M23.2,22.4c0.2,0.6,0.5,1.1,0.7,1.7c-0.8,6.6-1.3,9.6-2,16.2c1.8-1.3,3.3-1.1,4.1-2.3c0-6.7-0.6-7.3-1.4-13.9       c0.1-0.6,0.3-1.2,0.4-1.9C24.5,22.4,23.8,22.5,23.2,22.4z" /></g><g
   id="path629"
   i:knockout="Off"><linearGradient
   id="path648_1_"
   gradientUnits="userSpaceOnUse"
   x1="-449.7617"
   y1="-1.9629"
   x2="-449.1957"
   y2="-1.9805"
   gradientTransform="matrix(34.898 0 0 152.3408 15717.4404 330.3822)"><stop
   offset="0"
   style="stop-color:#EB2F2F"
   id="stop642" /><stop
   offset="1"
   style="stop-color:#FFFF00"
   id="stop643" /><a:midPointStop
   offset="0"
   style="stop-color:#EB2F2F"
   id="midPointStop644" /><a:midPointStop
   offset="0.5"
   style="stop-color:#EB2F2F"
   id="midPointStop645" /><a:midPointStop
   offset="1"
   style="stop-color:#FFFF00"
   id="midPointStop646" /></linearGradient><path
   id="path648"
   fill="url(#path648_1_)"
   d="M23.2,22.4c0.2,0.6,0.5,1.1,0.7,1.7c-0.8,6.6-1.3,9.6-2,16.2       c1.8-1.3,3.3-1.1,4.1-2.3c0-6.7-0.6-7.3-1.4-13.9c0.1-0.6,0.3-1.2,0.4-1.9C24.5,22.4,23.8,22.5,23.2,22.4z" /><path
   id="path650"
   i:isolated="yes"
   i:knockout="Off"
   opacity="0.7393"
   fill="none"
   stroke="#000000"
   stroke-width="4.284724e-002"
   enable-background="new    "
   d="       M23.2,22.4c0.2,0.6,0.5,1.1,0.7,1.7c-0.8,6.6-1.3,9.6-2,16.2c1.8-1.3,3.3-1.1,4.1-2.3c0-6.7-0.6-7.3-1.4-13.9       c0.1-0.6,0.3-1.2,0.4-1.9C24.5,22.4,23.8,22.5,23.2,22.4z" /></g><linearGradient
   id="path634_1_"
   gradientUnits="userSpaceOnUse"
   x1="-451.231"
   y1="-1.5791"
   x2="-450.868"
   y2="-1.6818"
   gradientTransform="matrix(15.6602 0 0 65.8411 7088.2437 141.5189)"><stop
   offset="0"
   style="stop-color:#FFFFFF"
   id="stop650" /><stop
   offset="1"
   style="stop-color:#F5FFFF"
   id="stop651" /><a:midPointStop
   offset="0"
   style="stop-color:#FFFFFF"
   id="midPointStop652" /><a:midPointStop
   offset="0.5"
   style="stop-color:#FFFFFF"
   id="midPointStop653" /><a:midPointStop
   offset="1"
   style="stop-color:#F5FFFF"
   id="midPointStop654" /></linearGradient><path
   id="path634"
   opacity="0.8"
   fill="url(#path634_1_)"
   d="M22.8,32.6c-0.8,6.6-0.2,1-0.9,7.6c1-0.8,1.3-0.7,1.9-1      C23.8,32.6,22.7,32.1,22.8,32.6z" /><linearGradient
   id="path637_1_"
   gradientUnits="userSpaceOnUse"
   x1="-451.8569"
   y1="-0.9883"
   x2="-451.8542"
   y2="-0.9345"
   gradientTransform="matrix(15.3753 0 0 30.7957 6971.6392 54.5857)"><stop
   offset="0"
   style="stop-color:#000000"
   id="stop657" /><stop
   offset="1"
   style="stop-color:#000000"
   id="stop658" /><a:midPointStop
   offset="0"
   style="stop-color:#000000"
   id="midPointStop659" /><a:midPointStop
   offset="0.5"
   style="stop-color:#000000"
   id="midPointStop660" /><a:midPointStop
   offset="1"
   style="stop-color:#000000"
   id="midPointStop661" /></linearGradient><path
   id="path637"
   fill="url(#path637_1_)"
   d="M23.2,22.4c0.2,0.6,0.5,1.1,0.7,1.7c-0.3,2.3,1.1,2.4,0.8,0      c0.1-0.6,0.3-1.2,0.4-1.9C24.5,22.4,23.8,22.5,23.2,22.4z" /><g
   id="path646"
   i:knockout="Off"><path
   id="path666"
   i:isolated="yes"
   i:knockout="Off"
   opacity="4.270000e-002"
   fill="none"
   stroke="#000000"
   stroke-width="0.7048"
   stroke-linejoin="round"
   enable-background="new    "
   d="       M19.9,20.8c-1.7,6.8-7.9,13.4-7.7,20.8c6.4,2.4,15.9,2.6,21.5-1.6c0.1-7.1-3.2-13.7-5.3-20.1" /></g><g
   id="path647"
   i:knockout="Off"><path
   id="path668"
   i:isolated="yes"
   i:knockout="Off"
   opacity="4.270000e-002"
   fill="none"
   stroke="#000000"
   stroke-width="0.5692"
   stroke-linejoin="round"
   enable-background="new    "
   d="       M19.9,20.8c-1.7,6.8-7.9,13.4-7.7,20.8c6.4,2.4,15.9,2.6,21.5-1.6c0.1-7.1-3.2-13.7-5.3-20.1" /></g><path
   id="path597_5_"
   i:isolated="yes"
   i:knockout="Off"
   opacity="0.15"
   fill="none"
   stroke="#474000"
   stroke-width="0.9778"
   enable-background="new    "
   d="      M13.5,10.5c0-5.6,4.2-10,9.2-10c5.1,0,9.6,4.2,9.6,9.7c0,5.6-4.5,10.3-9.6,10.3C17.7,20.5,13.5,16.1,13.5,10.5z" /><path
   id="path597_4_"
   i:isolated="yes"
   i:knockout="Off"
   opacity="0.2"
   fill="none"
   stroke="#474000"
   stroke-width="0.4889"
   enable-background="new    "
   d="      M13.5,10.5c0-5.6,4.2-10,9.2-10c5.1,0,9.6,4.2,9.6,9.7c0,5.6-4.5,10.3-9.6,10.3C17.7,20.5,13.5,16.1,13.5,10.5z" /><path
   id="path597_3_"
   i:isolated="yes"
   i:knockout="Off"
   opacity="0.3"
   fill="none"
   stroke="#474000"
   stroke-width="0.2444"
   enable-background="new    "
   d="      M13.5,10.5c0-5.6,4.2-10,9.2-10c5.1,0,9.6,4.2,9.6,9.7c0,5.6-4.5,10.3-9.6,10.3C17.7,20.5,13.5,16.1,13.5,10.5z" /><radialGradient
   id="path577_1_"
   cx="-596.7383"
   cy="405.2285"
   r="21.6566"
   fx="-596.7383"
   fy="405.2285"
   gradientTransform="matrix(298.9032 0 0 -316.3969 184781.0156 135222.0938)"
   gradientUnits="userSpaceOnUse"><stop
   offset="0"
   style="stop-color:#FF6F00"
   id="stop671" /><stop
   offset="1"
   style="stop-color:#FFFF00"
   id="stop672" /><a:midPointStop
   offset="0"
   style="stop-color:#FF6F00"
   id="midPointStop673" /><a:midPointStop
   offset="0.5"
   style="stop-color:#FF6F00"
   id="midPointStop674" /><a:midPointStop
   offset="1"
   style="stop-color:#FFFF00"
   id="midPointStop675" /></radialGradient><circle
   id="path577"
   fill="url(#path577_1_)"
   cx="23"
   cy="10.6"
   r="9.2" /><linearGradient
   id="path597_1_"
   gradientUnits="userSpaceOnUse"
   x1="-618.1133"
   y1="427.3779"
   x2="-618.114"
   y2="427.3166"
   gradientTransform="matrix(303.6933 0 0 -316.3967 187739.625 135222.3281)"><stop
   offset="0"
   style="stop-color:#FF6500"
   id="stop678" /><stop
   offset="1"
   style="stop-color:#FFFF00"
   id="stop679" /><a:midPointStop
   offset="0"
   style="stop-color:#FF6500"
   id="midPointStop680" /><a:midPointStop
   offset="0.5"
   style="stop-color:#FF6500"
   id="midPointStop681" /><a:midPointStop
   offset="1"
   style="stop-color:#FFFF00"
   id="midPointStop682" /></linearGradient><path
   id="path597"
   i:isolated="yes"
   i:knockout="Off"
   opacity="0.75"
   fill="url(#path597_1_)"
   enable-background="new    "
   d="      M13.5,10.5c0-5.6,4.2-10,9.2-10c5.1,0,9.6,4.2,9.6,9.7c0,5.6-4.5,10.3-9.6,10.3C17.7,20.5,13.5,16.1,13.5,10.5z" /><linearGradient
   id="path653_1_"
   gradientUnits="userSpaceOnUse"
   x1="-448.3428"
   y1="1.4629"
   x2="-448.266"
   y2="1.6239"
   gradientTransform="matrix(161.4472 0 0 85.2899 72400.8672 -122.9976)"><stop
   offset="0"
   style="stop-color:#000000"
   id="stop685" /><stop
   offset="1"
   style="stop-color:#E7E7E7"
   id="stop686" /><a:midPointStop
   offset="0"
   style="stop-color:#000000"
   id="midPointStop687" /><a:midPointStop
   offset="0.5"
   style="stop-color:#000000"
   id="midPointStop688" /><a:midPointStop
   offset="1"
   style="stop-color:#E7E7E7"
   id="midPointStop689" /></linearGradient><linearGradient
   id="path653_2_"
   gradientUnits="userSpaceOnUse"
   x1="-448.2715"
   y1="0.3247"
   x2="-447.4887"
   y2="0.6919"><stop
   offset="0"
   style="stop-color:#8C92AF"
   id="stop691" /><stop
   offset="1"
   style="stop-color:#E7E7E7"
   id="stop692" /><a:midPointStop
   offset="0"
   style="stop-color:#8C92AF"
   id="midPointStop693" /><a:midPointStop
   offset="0.5"
   style="stop-color:#8C92AF"
   id="midPointStop694" /><a:midPointStop
   offset="1"
   style="stop-color:#E7E7E7"
   id="midPointStop695" /></linearGradient><path
   id="path653"
   fill="url(#path653_1_)"
   stroke="url(#path653_2_)"
   stroke-width="6.368844e-002"
   d="M25.2,5.7      c-2.7,0.8-5.8,5-11.9,4.8C13.6-1,28.7-3.6,32.4,7C30.3,8.6,27,6.1,25.2,5.7" /><radialGradient
   id="path587_1_"
   cx="-448.5581"
   cy="2.3452"
   r="0.1474"
   fx="-448.5581"
   fy="2.3452"
   gradientTransform="matrix(91.706 0 0 52.0368 41158.7031 -121.2396)"
   gradientUnits="userSpaceOnUse"><stop
   offset="0"
   style="stop-color:#FFFFFF"
   id="stop698" /><stop
   offset="1"
   style="stop-color:#F5FFFF"
   id="stop699" /><a:midPointStop
   offset="0"
   style="stop-color:#FFFFFF"
   id="midPointStop700" /><a:midPointStop
   offset="0.5"
   style="stop-color:#FFFFFF"
   id="midPointStop701" /><a:midPointStop
   offset="1"
   style="stop-color:#F5FFFF"
   id="midPointStop702" /></radialGradient><path
   id="path587"
   i:isolated="yes"
   i:knockout="Off"
   opacity="0.6"
   fill="url(#path587_1_)"
   enable-background="new    "
   d="      M23,6.5c-4.8-0.1-5.7-2.3-5.3-3.4c0.5-1.2,2.1-2.8,5.1-2.8c3-0.1,4.9,1.2,5.6,2.6C28.9,3.9,27.7,6.4,23,6.5z" /><rect
   id="rect706"
   y="0.2"
   i:knockout="Off"
   fill="none"
   width="48"
   height="48" /></g></g></svg>
