<?xml version="1.0" encoding="UTF-8" standalone="no"?>
<!DOCTYPE svg PUBLIC "-//W3C//DTD SVG 20010904//EN"
"http://www.w3.org/TR/2001/REC-SVG-20010904/DTD/svg10.dtd">
<!-- Created with Sodipodi ("http://www.sodipodi.com/") -->
<svg
   xmlns:x="http://ns.adobe.com/Extensibility/1.0/"
   xmlns:i="http://ns.adobe.com/AdobeIllustrator/10.0/"
   xmlns:graph="http://ns.adobe.com/Graphs/1.0/"
   xmlns="http://www.w3.org/2000/svg"
   xmlns:xlink="http://www.w3.org/1999/xlink"
   xmlns:a="http://ns.adobe.com/AdobeSVGViewerExtensions/3.0/"
   xml:space="preserve"
   i:viewOrigin="169.6299 427.7109"
   i:rulerOrigin="0 0"
   i:pageBounds="0 792 612 0"
   width="48"
   height="48.7"
   viewBox="0 0 48 48.7"
   overflow="visible"
   enable-background="new 0 0 48 48.7"
   xmlns:sodipodi="http://sodipodi.sourceforge.net/DTD/sodipodi-0.dtd"
   id="svg602"
   sodipodi:version="0.34"
   sodipodi:docname="C:\msys\home\su_blanc\mldonkey-2.5.12\src\gtk2\rsvg\emoticons\emoticon_teeth.svg"><defs
   id="defs741" /><sodipodi:namedview
   id="base" /><g
   id="Layer_1"
   i:knockout="Off"
   i:layer="yes"
   i:dimmedPercent="50"
   i:rgbTrio="#4F008000FFFF"><path
   id="path597_5_"
   i:isolated="yes"
   i:knockout="Off"
   opacity="0.15"
   fill="none"
   stroke="#474000"
   stroke-width="1.8818"
   enable-background="new    "
   d="     M5.9,20.2c0-10.7,8-19.3,17.8-19.3c9.8,0,18.4,8.1,18.4,18.7c0,10.7-8.6,19.9-18.4,19.9C13.9,39.5,5.9,30.9,5.9,20.2z" /><path
   id="path597_4_"
   i:isolated="yes"
   i:knockout="Off"
   opacity="0.2"
   fill="none"
   stroke="#474000"
   stroke-width="0.9409"
   enable-background="new    "
   d="     M5.9,20.2c0-10.7,8-19.3,17.8-19.3c9.8,0,18.4,8.1,18.4,18.7c0,10.7-8.6,19.9-18.4,19.9C13.9,39.5,5.9,30.9,5.9,20.2z" /><path
   id="path597_3_"
   i:isolated="yes"
   i:knockout="Off"
   opacity="0.3"
   fill="none"
   stroke="#474000"
   stroke-width="0.4704"
   enable-background="new    "
   d="     M5.9,20.2c0-10.7,8-19.3,17.8-19.3c9.8,0,18.4,8.1,18.4,18.7c0,10.7-8.6,19.9-18.4,19.9C13.9,39.5,5.9,30.9,5.9,20.2z" /><radialGradient
   id="path700_1_"
   cx="-678.6855"
   cy="-0.7402"
   r="6.424040e-002"
   fx="-678.6855"
   fy="-0.7402"
   gradientTransform="matrix(310.7065 0 0 144.1183 210896.5781 149.3426)"
   gradientUnits="userSpaceOnUse"><stop
   offset="0"
   style="stop-color:#261700"
   id="stop610" /><stop
   offset="1"
   style="stop-color:#D2D2D2"
   id="stop611" /><a:midPointStop
   offset="0"
   style="stop-color:#261700"
   id="midPointStop612" /><a:midPointStop
   offset="0.5"
   style="stop-color:#261700"
   id="midPointStop613" /><a:midPointStop
   offset="1"
   style="stop-color:#D2D2D2"
   id="midPointStop614" /></radialGradient><path
   id="path700"
   i:isolated="yes"
   i:knockout="Off"
   opacity="0.3"
   fill="url(#path700_1_)"
   enable-background="new    "
   d="     M37.8,31.8c6.5,4.5,6,10.6-1.9,14.3C28,49.8,16.4,49.2,10,44.6c-5.5-3.8-5.7-9.1-0.5-13.1c3.4,4.7,6.2,6.3,14,7.3     C30,38.7,34.2,35.8,37.8,31.8z" /><radialGradient
   id="path577_1_"
   cx="-637.7773"
   cy="42.7715"
   r="41.4744"
   fx="-637.7773"
   fy="42.7715"
   gradientTransform="matrix(298.9032 0 0 316.3969 202886.5156 -98.4275)"
   gradientUnits="userSpaceOnUse"><stop
   offset="0"
   style="stop-color:#FF6F00"
   id="stop617" /><stop
   offset="1"
   style="stop-color:#FFFF00"
   id="stop618" /><a:midPointStop
   offset="0"
   style="stop-color:#FF6F00"
   id="midPointStop619" /><a:midPointStop
   offset="0.5"
   style="stop-color:#FF6F00"
   id="midPointStop620" /><a:midPointStop
   offset="1"
   style="stop-color:#FFFF00"
   id="midPointStop621" /></radialGradient><circle
   id="path577"
   fill="url(#path577_1_)"
   cx="24"
   cy="20.4"
   r="17.8" /><linearGradient
   id="path597_1_"
   gradientUnits="userSpaceOnUse"
   x1="-678.6782"
   y1="0.3188"
   x2="-678.6796"
   y2="0.4376"
   gradientTransform="matrix(303.6933 0 0 316.3967 206134.2344 -98.1642)"><stop
   offset="0"
   style="stop-color:#FF6500"
   id="stop624" /><stop
   offset="1"
   style="stop-color:#FFFF00"
   id="stop625" /><a:midPointStop
   offset="0"
   style="stop-color:#FF6500"
   id="midPointStop626" /><a:midPointStop
   offset="0.5"
   style="stop-color:#FF6500"
   id="midPointStop627" /><a:midPointStop
   offset="1"
   style="stop-color:#FFFF00"
   id="midPointStop628" /></linearGradient><path
   id="path597"
   i:isolated="yes"
   i:knockout="Off"
   opacity="0.75"
   fill="url(#path597_1_)"
   enable-background="new    "
   d="     M5.9,20.2c0-10.7,8-19.3,17.8-19.3c9.9,0,18.4,8,18.4,18.7c0,10.7-8.6,19.9-18.4,19.9C13.9,39.5,5.9,30.9,5.9,20.2z" /><radialGradient
   id="path597_6_"
   cx="-485.2646"
   cy="426.7461"
   r="20.2352"
   fx="-485.2646"
   fy="426.7461"
   gradientTransform="matrix(1 0 0 -1 509.1855 427.6934)"
   gradientUnits="userSpaceOnUse"><stop
   offset="0"
   style="stop-color:#FFFFFF"
   id="stop631" /><stop
   offset="0.1046"
   style="stop-color:#FFFEFA"
   id="stop632" /><stop
   offset="0.2282"
   style="stop-color:#FFFBEC"
   id="stop633" /><stop
   offset="0.3616"
   style="stop-color:#FFF7D4"
   id="stop634" /><stop
   offset="0.5018"
   style="stop-color:#FFF1B2"
   id="stop635" /><stop
   offset="0.6474"
   style="stop-color:#FFE988"
   id="stop636" /><stop
   offset="0.7976"
   style="stop-color:#FFDF53"
   id="stop637" /><stop
   offset="0.9487"
   style="stop-color:#FFD316"
   id="stop638" /><stop
   offset="1"
   style="stop-color:#FFCF00"
   id="stop639" /><a:midPointStop
   offset="0"
   style="stop-color:#FFFFFF"
   id="midPointStop640" /><a:midPointStop
   offset="0.5"
   style="stop-color:#FFFFFF"
   id="midPointStop641" /><a:midPointStop
   offset="0.1046"
   style="stop-color:#FFFEFA"
   id="midPointStop642" /><a:midPointStop
   offset="0.5"
   style="stop-color:#FFFEFA"
   id="midPointStop643" /><a:midPointStop
   offset="0.2282"
   style="stop-color:#FFFBEC"
   id="midPointStop644" /><a:midPointStop
   offset="0.5"
   style="stop-color:#FFFBEC"
   id="midPointStop645" /><a:midPointStop
   offset="0.3616"
   style="stop-color:#FFF7D4"
   id="midPointStop646" /><a:midPointStop
   offset="0.5"
   style="stop-color:#FFF7D4"
   id="midPointStop647" /><a:midPointStop
   offset="0.5018"
   style="stop-color:#FFF1B2"
   id="midPointStop648" /><a:midPointStop
   offset="0.5"
   style="stop-color:#FFF1B2"
   id="midPointStop649" /><a:midPointStop
   offset="0.6474"
   style="stop-color:#FFE988"
   id="midPointStop650" /><a:midPointStop
   offset="0.5"
   style="stop-color:#FFE988"
   id="midPointStop651" /><a:midPointStop
   offset="0.7976"
   style="stop-color:#FFDF53"
   id="midPointStop652" /><a:midPointStop
   offset="0.5"
   style="stop-color:#FFDF53"
   id="midPointStop653" /><a:midPointStop
   offset="0.9487"
   style="stop-color:#FFD316"
   id="midPointStop654" /><a:midPointStop
   offset="0.5"
   style="stop-color:#FFD316"
   id="midPointStop655" /><a:midPointStop
   offset="1"
   style="stop-color:#FFCF00"
   id="midPointStop656" /></radialGradient><path
   id="path597_2_"
   i:isolated="yes"
   i:knockout="Off"
   opacity="0.75"
   fill="url(#path597_6_)"
   enable-background="new    "
   d="     M12.8,7.8c0-3.8,5-6.9,11.1-6.9s11.4,2.9,11.4,6.7C35.3,11.4,12.8,11.6,12.8,7.8z" /><rect
   id="rect662"
   y="0.7"
   i:knockout="Off"
   fill="none"
   width="48"
   height="48" /><g
   id="path661"
   i:knockout="Off"><linearGradient
   id="path668_1_"
   gradientUnits="userSpaceOnUse"
   x1="-509.6841"
   y1="430.3887"
   x2="-509.6841"
   y2="430.4535"
   gradientTransform="matrix(164.9603 0 0 -65.4581 84101.875 28227.6563)"><stop
   offset="0"
   style="stop-color:#BFBFBF"
   id="stop661" /><stop
   offset="1"
   style="stop-color:#FFFFFF"
   id="stop662" /><a:midPointStop
   offset="0"
   style="stop-color:#BFBFBF"
   id="midPointStop663" /><a:midPointStop
   offset="0.5"
   style="stop-color:#BFBFBF"
   id="midPointStop664" /><a:midPointStop
   offset="1"
   style="stop-color:#FFFFFF"
   id="midPointStop665" /></linearGradient><path
   id="path668"
   fill="url(#path668_1_)"
   d="M12.8,29.5c4.9,9.8,16.7,9.8,22.8,0C27.3,27.1,20.3,27.3,12.8,29.5z" /><path
   id="path669"
   i:isolated="yes"
   i:knockout="Off"
   opacity="7.000000e-002"
   fill="none"
   stroke="#000000"
   stroke-width="2.4682"
   stroke-linejoin="round"
   enable-background="new    "
   d="      M12.8,29.5c4.9,9.8,16.7,9.8,22.8,0C27.3,27.1,20.3,27.3,12.8,29.5z" /></g><g
   id="path660"
   i:knockout="Off"><path
   id="path671"
   fill="url(#path668_1_)"
   d="M12.8,29.5c4.9,9.8,16.7,9.8,22.8,0C27.3,27.1,20.3,27.3,12.8,29.5z" /><path
   id="path672"
   i:isolated="yes"
   i:knockout="Off"
   opacity="1.900000e-002"
   fill="none"
   stroke="#000000"
   stroke-width="3.01"
   stroke-linejoin="round"
   enable-background="new    "
   d="      M12.8,29.5c4.9,9.8,16.7,9.8,22.8,0C27.3,27.1,20.3,27.3,12.8,29.5z" /></g><g
   id="path658"
   i:knockout="Off"><path
   id="path674"
   fill="url(#path668_1_)"
   d="M12.8,29.5c4.9,9.8,16.7,9.8,22.8,0C27.3,27.1,20.3,27.3,12.8,29.5z" /><path
   id="path675"
   i:isolated="yes"
   i:knockout="Off"
   opacity="1.900000e-002"
   fill="none"
   stroke="#000000"
   stroke-width="4.1137"
   stroke-linejoin="round"
   enable-background="new    "
   d="      M12.8,29.5c4.9,9.8,16.7,9.8,22.8,0C27.3,27.1,20.3,27.3,12.8,29.5z" /></g><g
   id="path659"
   i:knockout="Off"><path
   id="path677"
   fill="url(#path668_1_)"
   d="M12.8,29.5c4.9,9.8,16.7,9.8,22.8,0C27.3,27.1,20.3,27.3,12.8,29.5z" /><path
   id="path678"
   i:isolated="yes"
   i:knockout="Off"
   opacity="1.900000e-002"
   fill="none"
   stroke="#000000"
   stroke-width="2.8696"
   stroke-linejoin="round"
   enable-background="new    "
   d="      M12.8,29.5c4.9,9.8,16.7,9.8,22.8,0C27.3,27.1,20.3,27.3,12.8,29.5z" /></g><g
   id="path657"
   i:knockout="Off"><path
   id="path680"
   fill="url(#path668_1_)"
   d="M12.8,29.5c4.9,9.8,16.7,9.8,22.8,0C27.3,27.1,20.3,27.3,12.8,29.5z" /><path
   id="path681"
   i:isolated="yes"
   i:knockout="Off"
   opacity="1.900000e-002"
   fill="none"
   stroke="#000000"
   stroke-width="5.2977"
   stroke-linejoin="round"
   enable-background="new    "
   d="      M12.8,29.5c4.9,9.8,16.7,9.8,22.8,0C27.3,27.1,20.3,27.3,12.8,29.5z" /></g><linearGradient
   id="path648_1_"
   gradientUnits="userSpaceOnUse"
   x1="-509.0791"
   y1="428.0107"
   x2="-509.0659"
   y2="428.0107"
   gradientTransform="matrix(164.9603 0 0 -72.2257 84002.25 30945.9063)"><stop
   offset="0"
   style="stop-color:#BFBFBF"
   id="stop681" /><stop
   offset="1"
   style="stop-color:#FFFFFF"
   id="stop682" /><a:midPointStop
   offset="0"
   style="stop-color:#BFBFBF"
   id="midPointStop683" /><a:midPointStop
   offset="0.5"
   style="stop-color:#BFBFBF"
   id="midPointStop684" /><a:midPointStop
   offset="1"
   style="stop-color:#FFFFFF"
   id="midPointStop685" /></linearGradient><path
   id="path648"
   fill="url(#path648_1_)"
   stroke="#700000"
   stroke-width="1.0118"
   stroke-linejoin="round"
   d="M12.8,29.3     c4.9,10.8,16.7,10.8,22.8,0C27.3,26.7,20.3,26.9,12.8,29.3z" /><g
   id="path642"
   i:knockout="Off"><path
   id="path690"
   i:isolated="yes"
   i:knockout="Off"
   opacity="0.4787"
   fill="none"
   stroke="#000000"
   stroke-width="1.0368"
   stroke-linecap="round"
   stroke-dasharray="4.1472 1.0368"
   stroke-dashoffset="5.495"
   enable-background="new    "
   d="      M13.4,30.6c3.4,0.4,4.6,2,10.6,2c5.7,0,6.7-1.5,10.3-2c0.2,0,0.2-0.2,0.3-0.3" /></g><g
   id="g689"><radialGradient
   id="path630_1_"
   cx="-165.6538"
   cy="427.3047"
   r="0.1209"
   fx="-165.6538"
   fy="427.3047"
   gradientTransform="matrix(-47.8028 0 0 -73.2626 -7884.708 31324.1348)"
   gradientUnits="userSpaceOnUse"><stop
   offset="0"
   style="stop-color:#DEE2E7"
   id="stop691" /><stop
   offset="1"
   style="stop-color:#FFFFFF"
   id="stop692" /><a:midPointStop
   offset="0"
   style="stop-color:#DEE2E7"
   id="midPointStop693" /><a:midPointStop
   offset="0.5"
   style="stop-color:#DEE2E7"
   id="midPointStop694" /><a:midPointStop
   offset="1"
   style="stop-color:#FFFFFF"
   id="midPointStop695" /></radialGradient><path
   id="path630"
   type="arc"
   cx="50.24698"
   cy="478.4100"
   rx="24.52531"
   ry="34.99345"
   fill="url(#path630_1_)"
   stroke="#7C5202"
   stroke-width="0.7425"
   d="      M31,17.3c0-3.6,1.9-6.6,4.3-6.6c2.4,0,4.3,2.9,4.3,6.6c0,0,0,0,0,0c0,3.6-1.9,6.6-4.3,6.6C32.9,23.9,31,20.9,31,17.3      C31,17.3,31,17.3,31,17.3z" /><g
   id="path631"
   type="arc"
   cx="50.09747"
   cy="476.7646"
   rx="28.86212"
   ry="41.42389"><path
   i:knockout="Off"
   opacity="3.790000e-002"
   fill="none"
   stroke="#000000"
   stroke-width="0.675"
   d="M30.3,17.2       c0-4,2.2-7.3,5-7.3c2.8,0,5,3.3,5,7.3c0,0,0,0,0,0c0,4-2.2,7.3-5,7.3C32.5,24.5,30.3,21.2,30.3,17.2       C30.3,17.2,30.3,17.2,30.3,17.2z"
   id="path698" /></g><g
   id="path632"
   type="arc"
   cx="50.09747"
   cy="476.7646"
   rx="28.86212"
   ry="41.42389"><path
   i:knockout="Off"
   opacity="1.420000e-002"
   fill="none"
   stroke="#000000"
   stroke-width="2.3472"
   d="M30.3,17.3       c0-4,2.2-7.2,5-7.2c2.8,0,5,3.2,5,7.2c0,0,0,0,0,0c0,4-2.2,7.2-5,7.2C32.5,24.5,30.3,21.3,30.3,17.3       C30.3,17.3,30.3,17.3,30.3,17.3z"
   id="path701" /></g><g
   id="path633"
   type="arc"
   cx="50.09747"
   cy="476.7646"
   rx="28.86212"
   ry="41.42389"><path
   i:knockout="Off"
   opacity="1.420000e-002"
   fill="none"
   stroke="#000000"
   stroke-width="1.4832"
   d="M30.3,17.3       c0-4,2.2-7.2,5-7.2c2.8,0,5,3.2,5,7.2c0,0,0,0,0,0c0,4-2.2,7.2-5,7.2C32.5,24.5,30.3,21.3,30.3,17.3       C30.3,17.3,30.3,17.3,30.3,17.3z"
   id="path703" /></g><g
   id="path634"
   type="arc"
   cx="50.09747"
   cy="476.7646"
   rx="28.86212"
   ry="41.42389"><path
   i:knockout="Off"
   opacity="1.420000e-002"
   fill="none"
   stroke="#000000"
   stroke-width="0.5109"
   d="M30.3,17.3       c0-4,2.2-7.2,5-7.2c2.8,0,5,3.2,5,7.2c0,0,0,0,0,0c0,4-2.2,7.2-5,7.2C32.5,24.5,30.3,21.3,30.3,17.3       C30.3,17.3,30.3,17.3,30.3,17.3z"
   id="path705" /></g><g
   id="path635"
   type="arc"
   cx="50.09747"
   cy="476.7646"
   rx="28.86212"
   ry="41.42389"><path
   i:knockout="Off"
   opacity="0.1517"
   fill="none"
   stroke="#000000"
   stroke-width="0.2568"
   d="M30.5,17.3       c0-3.9,2.1-7.1,4.8-7.1c2.7,0,4.8,3.2,4.8,7.1c0,0,0,0,0,0c0,3.9-2.1,7.1-4.8,7.1C32.6,24.4,30.5,21.2,30.5,17.3       C30.5,17.3,30.5,17.3,30.5,17.3z"
   id="path707" /></g><radialGradient
   id="path637_1_"
   cx="-161.0503"
   cy="428.1484"
   r="0.1113"
   fx="-161.0503"
   fy="428.1484"
   gradientTransform="matrix(-19.9085 0 0 -23.3843 -3171.1206 10030.8525)"
   gradientUnits="userSpaceOnUse"><stop
   offset="0"
   style="stop-color:#000082"
   id="stop709" /><stop
   offset="1"
   style="stop-color:#000000"
   id="stop710" /><a:midPointStop
   offset="0"
   style="stop-color:#000082"
   id="midPointStop711" /><a:midPointStop
   offset="0.5"
   style="stop-color:#000082"
   id="midPointStop712" /><a:midPointStop
   offset="1"
   style="stop-color:#000000"
   id="midPointStop713" /></radialGradient><path
   id="path637"
   type="arc"
   cx="61.64901"
   cy="495.8291"
   rx="10.46870"
   ry="10.89169"
   fill="url(#path637_1_)"
   d="      M32.7,20c0-1.2,0.8-2.1,1.8-2.1c1,0,1.8,0.9,1.8,2.1c0,0,0,0,0,0c0,1.2-0.8,2.1-1.8,2.1C33.5,22.1,32.7,21.2,32.7,20      C32.7,20,32.7,20,32.7,20z" /></g><g
   id="g715"><radialGradient
   id="path650_1_"
   cx="-170.2773"
   cy="427.3047"
   r="0.1209"
   fx="-170.2773"
   fy="427.3047"
   gradientTransform="matrix(47.8028 0 0 -73.2626 8154.3857 31324.1348)"
   gradientUnits="userSpaceOnUse"><stop
   offset="0"
   style="stop-color:#DEE2E7"
   id="stop717" /><stop
   offset="1"
   style="stop-color:#FFFFFF"
   id="stop718" /><a:midPointStop
   offset="0"
   style="stop-color:#DEE2E7"
   id="midPointStop719" /><a:midPointStop
   offset="0.5"
   style="stop-color:#DEE2E7"
   id="midPointStop720" /><a:midPointStop
   offset="1"
   style="stop-color:#FFFFFF"
   id="midPointStop721" /></radialGradient><path
   id="path650"
   type="arc"
   cx="50.24698"
   cy="478.4100"
   rx="24.52531"
   ry="34.99345"
   fill="url(#path650_1_)"
   stroke="#7C3902"
   stroke-width="0.7425"
   d="      M17.7,17.3c0-3.6-1.9-6.6-4.3-6.6c-2.4,0-4.3,2.9-4.3,6.6c0,0,0,0,0,0c0,3.6,1.9,6.6,4.3,6.6C15.8,23.9,17.7,20.9,17.7,17.3      C17.7,17.3,17.7,17.3,17.7,17.3z" /><g
   id="path651"
   type="arc"
   cx="50.09747"
   cy="476.7646"
   rx="28.86212"
   ry="41.42389"><path
   i:knockout="Off"
   opacity="3.790000e-002"
   fill="none"
   stroke="#000000"
   stroke-width="0.675"
   d="M18.4,17.2       c0-4-2.2-7.3-5-7.3c-2.8,0-5,3.3-5,7.3c0,0,0,0,0,0c0,4,2.2,7.3,5,7.3C16.2,24.5,18.4,21.2,18.4,17.2       C18.4,17.2,18.4,17.2,18.4,17.2z"
   id="path724" /></g><g
   id="path652"
   type="arc"
   cx="50.09747"
   cy="476.7646"
   rx="28.86212"
   ry="41.42389"><path
   i:knockout="Off"
   opacity="1.420000e-002"
   fill="none"
   stroke="#000000"
   stroke-width="2.3472"
   d="M18.4,17.3       c0-4-2.2-7.2-5-7.2s-5,3.2-5,7.2c0,0,0,0,0,0c0,4,2.2,7.2,5,7.2C16.2,24.5,18.4,21.3,18.4,17.3C18.4,17.3,18.4,17.3,18.4,17.3z       "
   id="path726" /></g><g
   id="path653"
   type="arc"
   cx="50.09747"
   cy="476.7646"
   rx="28.86212"
   ry="41.42389"><path
   i:knockout="Off"
   opacity="1.420000e-002"
   fill="none"
   stroke="#000000"
   stroke-width="1.4832"
   d="M18.4,17.3       c0-4-2.2-7.2-5-7.2s-5,3.2-5,7.2c0,0,0,0,0,0c0,4,2.2,7.2,5,7.2C16.2,24.5,18.4,21.3,18.4,17.3C18.4,17.3,18.4,17.3,18.4,17.3z       "
   id="path728" /></g><g
   id="path654"
   type="arc"
   cx="50.09747"
   cy="476.7646"
   rx="28.86212"
   ry="41.42389"><path
   i:knockout="Off"
   opacity="1.420000e-002"
   fill="none"
   stroke="#000000"
   stroke-width="0.5109"
   d="M18.4,17.3       c0-4-2.2-7.2-5-7.2s-5,3.2-5,7.2c0,0,0,0,0,0c0,4,2.2,7.2,5,7.2C16.2,24.5,18.4,21.3,18.4,17.3C18.4,17.3,18.4,17.3,18.4,17.3z       "
   id="path730" /></g><g
   id="path655"
   type="arc"
   cx="50.09747"
   cy="476.7646"
   rx="28.86212"
   ry="41.42389"><path
   i:knockout="Off"
   opacity="0.1517"
   fill="none"
   stroke="#000000"
   stroke-width="0.2568"
   d="M18.2,17.3       c0-3.9-2.1-7.1-4.8-7.1c-2.7,0-4.8,3.2-4.8,7.1c0,0,0,0,0,0c0,3.9,2.1,7.1,4.8,7.1S18.2,21.2,18.2,17.3       C18.2,17.3,18.2,17.3,18.2,17.3z"
   id="path732" /></g><radialGradient
   id="path656_1_"
   cx="-172.1514"
   cy="428.1484"
   r="0.112"
   fx="-172.1514"
   fy="428.1484"
   gradientTransform="matrix(19.9085 0 0 -23.3843 3440.7981 10030.8525)"
   gradientUnits="userSpaceOnUse"><stop
   offset="0"
   style="stop-color:#000082"
   id="stop734" /><stop
   offset="1"
   style="stop-color:#000000"
   id="stop735" /><a:midPointStop
   offset="0"
   style="stop-color:#000082"
   id="midPointStop736" /><a:midPointStop
   offset="0.5"
   style="stop-color:#000082"
   id="midPointStop737" /><a:midPointStop
   offset="1"
   style="stop-color:#000000"
   id="midPointStop738" /></radialGradient><path
   id="path656"
   type="arc"
   cx="61.64901"
   cy="495.8291"
   rx="10.46870"
   ry="10.89169"
   fill="url(#path656_1_)"
   d="      M16,20c0-1.2-0.8-2.1-1.8-2.1s-1.8,0.9-1.8,2.1c0,0,0,0,0,0c0,1.2,0.8,2.1,1.8,2.1C15.2,22.1,16,21.2,16,20C16,20,16,20,16,20z" /></g></g></svg>
