<?xml version="1.0" encoding="UTF-8" standalone="no"?>
<!DOCTYPE svg PUBLIC "-//W3C//DTD SVG 20010904//EN"
"http://www.w3.org/TR/2001/REC-SVG-20010904/DTD/svg10.dtd">
<!-- Created with Sodipodi ("http://www.sodipodi.com/") -->
<svg
   xmlns:x="http://ns.adobe.com/Extensibility/1.0/"
   xmlns:i="http://ns.adobe.com/AdobeIllustrator/10.0/"
   xmlns:graph="http://ns.adobe.com/Graphs/1.0/"
   xmlns="http://www.w3.org/2000/svg"
   xmlns:xlink="http://www.w3.org/1999/xlink"
   xmlns:a="http://ns.adobe.com/AdobeSVGViewerExtensions/3.0/"
   xml:space="preserve"
   i:viewOrigin="178.6152 464.7817"
   i:rulerOrigin="0 0"
   i:pageBounds="0 792 612 0"
   width="51.3"
   height="48"
   viewBox="0 0 51.3 48"
   overflow="visible"
   enable-background="new 0 0 51.3 48"
   xmlns:sodipodi="http://sodipodi.sourceforge.net/DTD/sodipodi-0.dtd"
   id="svg602"
   sodipodi:version="0.34"
   sodipodi:docname="C:\msys\home\su_blanc\mldonkey-2.5.12\src\gtk2\rsvg\emoticons\emoticon_rainbow.svg"><defs
   id="defs665" /><sodipodi:namedview
   id="namedview664" /><g
   id="Layer_1"
   i:layer="yes"
   i:dimmedPercent="50"
   i:rgbTrio="#4F008000FFFF"><g
   id="g606"><g
   id="path587"
   nodetypes="ccccc"><path
   i:knockout="Off"
   opacity="3.320000e-002"
   fill="none"
   stroke="#000000"
   stroke-width="0.7538"
   stroke-linejoin="round"
   d="       M10.1,36c-2.7,0.3-5.6,0.1-8.3-0.1C2.3,3.9,49.1,4.1,49.4,36.1c-2.5,0-5.5,0.1-8.5,0.1C41.2,15.7,10.9,14,10.1,36z"
   id="path608" /></g><g
   id="path586"
   nodetypes="ccccc"><path
   i:knockout="Off"
   opacity="3.320000e-002"
   fill="none"
   stroke="#000000"
   stroke-width="0.9338"
   stroke-linejoin="round"
   d="       M10.1,36c-2.7,0.3-5.6,0.1-8.3-0.1C2.3,3.9,49.1,4.1,49.4,36.1c-2.5,0-5.5,0.1-8.5,0.1C41.2,15.7,10.9,14,10.1,36z"
   id="path610" /></g><g
   id="path585"
   nodetypes="ccccc"><path
   i:knockout="Off"
   opacity="3.320000e-002"
   fill="none"
   stroke="#000000"
   stroke-width="1.2263"
   stroke-linejoin="round"
   d="       M10.1,36c-2.7,0.3-5.6,0.1-8.3-0.1C2.3,3.9,49.1,4.1,49.4,36.1c-2.5,0-5.5,0.1-8.5,0.1C41.2,15.7,10.9,14,10.1,36z"
   id="path612" /></g><g
   id="path584"
   nodetypes="ccccc"><path
   i:knockout="Off"
   opacity="3.320000e-002"
   fill="none"
   stroke="#000000"
   stroke-width="1.4963"
   stroke-linejoin="round"
   d="       M10.1,36c-2.7,0.3-5.6,0.1-8.3-0.1C2.3,3.9,49.1,4.1,49.4,36.1c-2.5,0-5.5,0.1-8.5,0.1C41.2,15.7,10.9,14,10.1,36z"
   id="path614" /></g><g
   id="path583"
   nodetypes="ccccc"><path
   i:knockout="Off"
   opacity="3.320000e-002"
   fill="none"
   stroke="#000000"
   stroke-width="1.9125"
   stroke-linejoin="round"
   d="       M10.1,36c-2.7,0.3-5.6,0.1-8.3-0.1C2.3,3.9,49.1,4.1,49.4,36.1c-2.5,0-5.5,0.1-8.5,0.1C41.2,15.7,10.9,14,10.1,36z"
   id="path616" /></g><g
   id="path582"
   nodetypes="ccccc"><path
   i:knockout="Off"
   opacity="3.320000e-002"
   fill="none"
   stroke="#000000"
   stroke-width="2.2387"
   stroke-linejoin="round"
   d="       M10.1,36c-2.7,0.3-5.6,0.1-8.3-0.1C2.3,3.9,49.1,4.1,49.4,36.1c-2.5,0-5.5,0.1-8.5,0.1C41.2,15.7,10.9,14,10.1,36z"
   id="path618" /></g><g
   id="path581"
   nodetypes="ccccc"><path
   i:knockout="Off"
   opacity="3.320000e-002"
   fill="none"
   stroke="#000000"
   stroke-width="2.61"
   stroke-linejoin="round"
   d="       M10.1,36c-2.7,0.3-5.6,0.1-8.3-0.1C2.3,3.9,49.1,4.1,49.4,36.1c-2.5,0-5.5,0.1-8.5,0.1C41.2,15.7,10.9,14,10.1,36z"
   id="path620" /></g><g
   id="path580"
   nodetypes="ccccc"><path
   i:knockout="Off"
   opacity="3.320000e-002"
   fill="none"
   stroke="#000000"
   stroke-width="3.15"
   stroke-linejoin="round"
   d="       M10.1,36c-2.7,0.3-5.6,0.1-8.3-0.1C2.3,3.9,49.1,4.1,49.4,36.1c-2.5,0-5.5,0.1-8.5,0.1C41.2,15.7,10.9,14,10.1,36z"
   id="path622" /></g><g
   id="path579"
   nodetypes="ccccc"><path
   i:knockout="Off"
   opacity="3.320000e-002"
   fill="none"
   stroke="#000000"
   stroke-width="3.6788"
   stroke-linejoin="round"
   d="       M10.1,36c-2.7,0.3-5.6,0.1-8.3-0.1C2.3,3.9,49.1,4.1,49.4,36.1c-2.5,0-5.5,0.1-8.5,0.1C41.2,15.7,10.9,14,10.1,36z"
   id="path624" /></g><g
   id="path563"
   nodetypes="cscccc"><path
   i:knockout="Off"
   opacity="0.9005"
   fill="#FFFF00"
   d="M2,36.1c0.1-16,11.8-24.2,23.7-24.3c11.9-0.1,23.7,7.9,23.6,24.3       c-0.1-0.1-2.2,0.1-3.3,0C45.7,7.8,5.5,9,5.3,36.2C3.7,36.3,3.1,36,2,36.1z"
   id="path626" /></g><g
   id="path564"
   nodetypes="cscccc"><path
   i:knockout="Off"
   opacity="0.7536"
   fill="#FF00FF"
   d="M3.6,36.2c0.1-14.9,11-22.6,22-22.7c11-0.1,22,7.4,21.9,22.7       c-0.1,0-2.1,0.1-3.1,0C44.1,9.7,6.8,10.8,6.6,36.2C5.7,36.3,4.8,36.2,3.6,36.2z"
   id="path628" /></g><g
   id="path565"
   nodetypes="cscccc"><path
   i:knockout="Off"
   opacity="0.654"
   fill="#00FFFF"
   d="M5.6,36.2c0.1-13.7,9.9-20.7,19.9-20.8c10-0.1,19.9,6.8,19.8,20.8       c-0.1,0-1.9,0.1-2.8,0C42.3,12,8.6,12.9,8.4,36.3C7.5,36.2,6.9,36.4,5.6,36.2z"
   id="path630" /></g><g
   id="path566"
   nodetypes="cscccc"><path
   i:knockout="Off"
   opacity="0.6682"
   fill="#EB0000"
   d="M8.2,36.3c0.1-11.8,8.6-17.8,17.3-17.9c8.7-0.1,17.3,5.8,17.2,17.9       c-0.1,0-0.9-0.2-1.8,0C40.8,15,10.4,14.9,10.1,36.2C9.2,36.1,9.2,36.2,8.2,36.3z"
   id="path632" /></g><g
   id="path578"
   nodetypes="ccccc"
   opacity="0.28"><radialGradient
   id="XMLID_1_"
   cx="-178.541"
   cy="464.5474"
   r="4.492188e-002"
   fx="-178.541"
   fy="464.5474"
   gradientTransform="matrix(528.7888 0 0 -268.8828 94436.2031 124932.6406)"
   gradientUnits="userSpaceOnUse"><stop
   offset="0"
   style="stop-color:#FFFFFF"
   id="stop635" /><stop
   offset="1"
   style="stop-color:#727272"
   id="stop636" /><a:midPointStop
   offset="0"
   style="stop-color:#FFFFFF"
   id="midPointStop637" /><a:midPointStop
   offset="0.5"
   style="stop-color:#FFFFFF"
   id="midPointStop638" /><a:midPointStop
   offset="1"
   style="stop-color:#727272"
   id="midPointStop639" /></radialGradient><path
   i:knockout="Off"
   fill="url(#XMLID_1_)"
   d="M10.1,36c-2.7,0.3-5.6,0.1-8.3-0.1C2.3,3.9,49.1,4.1,49.4,36.1       c-2.5,0-5.5,0.1-8.5,0.1C41.2,15.7,10.9,14,10.1,36z"
   id="path640" /><path
   i:knockout="Off"
   opacity="0.2844"
   fill="none"
   stroke="#000000"
   stroke-width="0.4388"
   d="M10.1,36       c-2.7,0.3-5.6,0.1-8.3-0.1C2.3,3.9,49.1,4.1,49.4,36.1c-2.5,0-5.5,0.1-8.5,0.1C41.2,15.7,10.9,14,10.1,36z"
   id="path641" /></g><g
   id="path572"
   nodetypes="ccccc"
   opacity="5.000000e-002"><radialGradient
   id="XMLID_2_"
   cx="-178.5488"
   cy="464.4771"
   r="0.1153"
   fx="-178.5488"
   fy="464.4771"
   gradientTransform="matrix(528.7888 0 0 -268.8828 94436.2031 124932.6406)"
   gradientUnits="userSpaceOnUse"><stop
   offset="0"
   style="stop-color:#FFFFFF"
   id="stop644" /><stop
   offset="1"
   style="stop-color:#FFFFFF"
   id="stop645" /><a:midPointStop
   offset="0"
   style="stop-color:#FFFFFF"
   id="midPointStop646" /><a:midPointStop
   offset="0.5"
   style="stop-color:#FFFFFF"
   id="midPointStop647" /><a:midPointStop
   offset="1"
   style="stop-color:#FFFFFF"
   id="midPointStop648" /></radialGradient><path
   i:knockout="Off"
   fill="url(#XMLID_2_)"
   d="M10.1,36c-2.7,0.3-5.6,0.1-8.3-0.1C2.3,3.9,49.1,4.1,49.4,36.1       c-2.5,0-5.5,0.1-8.5,0.1C41.2,15.7,10.9,14,10.1,36z"
   id="path649" /><path
   i:knockout="Off"
   opacity="0.2844"
   fill="none"
   stroke="#000000"
   stroke-width="0.4388"
   d="M10.1,36       c-2.7,0.3-5.6,0.1-8.3-0.1C2.3,3.9,49.1,4.1,49.4,36.1c-2.5,0-5.5,0.1-8.5,0.1C41.2,15.7,10.9,14,10.1,36z"
   id="path650" /></g><radialGradient
   id="path567_1_"
   cx="-178.5811"
   cy="463.8706"
   r="9.176701e-002"
   fx="-178.5811"
   fy="463.8706"
   gradientTransform="matrix(208.7519 0 0 -87.954 37304.3203 40810.9258)"
   gradientUnits="userSpaceOnUse"><stop
   offset="5.617829e-003"
   style="stop-color:#FFFFFF"
   id="stop652" /><stop
   offset="0.2714"
   style="stop-color:#FCFCFC"
   id="stop653" /><stop
   offset="0.4583"
   style="stop-color:#F3F3F3"
   id="stop654" /><stop
   offset="0.6209"
   style="stop-color:#E3E3E3"
   id="stop655" /><stop
   offset="0.7696"
   style="stop-color:#CDCDCD"
   id="stop656" /><stop
   offset="0.9076"
   style="stop-color:#B1B1B1"
   id="stop657" /><stop
   offset="1"
   style="stop-color:#9A9A9A"
   id="stop658" /><a:midPointStop
   offset="5.617829e-003"
   style="stop-color:#FFFFFF"
   id="midPointStop659" /><a:midPointStop
   offset="0.774"
   style="stop-color:#FFFFFF"
   id="midPointStop660" /><a:midPointStop
   offset="1"
   style="stop-color:#9A9A9A"
   id="midPointStop661" /></radialGradient><path
   id="path567"
   nodetypes="cssss"
   opacity="0.6"
   fill="url(#path567_1_)"
   d="M25.4,11.7c-4.6,0.1-8.9,2.3-9.5,3.9      c-0.9,2.5,2.3,3.9,9.4,4c6.4,0,10.1-1.9,9.1-4.1C33.8,13.9,30.6,11.6,25.4,11.7z" /></g><rect
   x="1.6"
   opacity="0.6"
   fill="none"
   width="48"
   height="48"
   id="rect663" /></g></svg>
