<?xml version="1.0" encoding="UTF-8" standalone="no"?>
<!DOCTYPE svg PUBLIC "-//W3C//DTD SVG 20010904//EN"
"http://www.w3.org/TR/2001/REC-SVG-20010904/DTD/svg10.dtd">
<!-- Created with Sodipodi ("http://www.sodipodi.com/") -->
<svg
   xmlns:x="http://ns.adobe.com/Extensibility/1.0/"
   xmlns:i="http://ns.adobe.com/AdobeIllustrator/10.0/"
   xmlns:graph="http://ns.adobe.com/Graphs/1.0/"
   xmlns="http://www.w3.org/2000/svg"
   xmlns:xlink="http://www.w3.org/1999/xlink"
   xmlns:a="http://ns.adobe.com/AdobeSVGViewerExtensions/3.0/"
   xml:space="preserve"
   i:viewOrigin="164.2417 427.6538"
   i:rulerOrigin="0 0"
   i:pageBounds="0 792 612 0"
   width="49.5"
   height="48.7"
   viewBox="0 0 49.5 48.7"
   overflow="visible"
   enable-background="new 0 0 49.5 48.7"
   xmlns:sodipodi="http://sodipodi.sourceforge.net/DTD/sodipodi-0.dtd"
   id="svg602"
   sodipodi:version="0.34"
   sodipodi:docname="C:\msys\home\su_blanc\mldonkey-2.5.12\src\gtk2\rsvg\emoticons\emoticon_party.svg"><defs
   id="defs779" /><sodipodi:namedview
   id="base" /><g
   id="Layer_1"
   i:knockout="Off"
   i:layer="yes"
   i:dimmedPercent="50"
   i:rgbTrio="#4F008000FFFF"><g
   id="g606"><radialGradient
   id="path700_1_"
   cx="-673.8799"
   cy="-0.7993"
   r="5.775516e-002"
   fx="-673.8799"
   fy="-0.7993"
   gradientTransform="matrix(310.7065 0 0 144.1183 209411.8281 157.5188)"
   gradientUnits="userSpaceOnUse"><stop
   offset="0"
   style="stop-color:#261700"
   id="stop608" /><stop
   offset="1"
   style="stop-color:#D2D2D2"
   id="stop609" /><a:midPointStop
   offset="0"
   style="stop-color:#261700"
   id="midPointStop610" /><a:midPointStop
   offset="0.5"
   style="stop-color:#261700"
   id="midPointStop611" /><a:midPointStop
   offset="1"
   style="stop-color:#D2D2D2"
   id="midPointStop612" /></radialGradient><path
   id="path700"
   i:isolated="yes"
   i:knockout="Off"
   opacity="0.3"
   fill="url(#path700_1_)"
   enable-background="new    "
   d="      M44.6,32.6c5.9,4,5.4,9.5-1.7,12.9c-7.1,3.3-17.5,2.8-23.3-1.3c-4.9-3.4-5.1-8.2-0.4-11.8c3.1,4.2,5.6,5.7,12.6,6.6      C37.6,38.8,41.4,36.2,44.6,32.6z" /><g
   id="g614"><linearGradient
   id="path703_1_"
   gradientUnits="userSpaceOnUse"
   x1="-163.9766"
   y1="427.1782"
   x2="-163.9342"
   y2="427.1501"
   gradientTransform="matrix(327.4485 0 0 -418.1861 53701.0195 178648.7813)"><stop
   offset="0"
   style="stop-color:#9E0000"
   id="stop616" /><stop
   offset="1"
   style="stop-color:#FF0000"
   id="stop617" /><a:midPointStop
   offset="0"
   style="stop-color:#9E0000"
   id="midPointStop618" /><a:midPointStop
   offset="0.5"
   style="stop-color:#9E0000"
   id="midPointStop619" /><a:midPointStop
   offset="1"
   style="stop-color:#FF0000"
   id="midPointStop620" /></linearGradient><path
   id="path703"
   nodetypes="cscccc"
   fill="url(#path703_1_)"
   stroke="#670000"
   stroke-width="1.3677"
   stroke-linejoin="round"
   d="       M30.9,1.1c-4.4-1.8-6.7,3-4.1,5.3C26.9,6.4,0.7,29.9,0.7,29.9C7.5,39,18.2,44.5,28,41.8l2-33.9C33.5,7.9,35.2,3.3,30.9,1.1z" /><linearGradient
   id="path707_1_"
   gradientUnits="userSpaceOnUse"
   x1="-163.9116"
   y1="427.2896"
   x2="-163.9142"
   y2="427.2277"
   gradientTransform="matrix(253.4516 0 0 -314.7465 41558.6875 134510.0781)"><stop
   offset="0"
   style="stop-color:#FF0000"
   id="stop623" /><stop
   offset="1"
   style="stop-color:#FFFFFF"
   id="stop624" /><a:midPointStop
   offset="0"
   style="stop-color:#FF0000"
   id="midPointStop625" /><a:midPointStop
   offset="0.5"
   style="stop-color:#FF0000"
   id="midPointStop626" /><a:midPointStop
   offset="1"
   style="stop-color:#FFFFFF"
   id="midPointStop627" /></linearGradient><path
   id="path707"
   nodetypes="cccc"
   fill="url(#path707_1_)"
   d="M26.7,10.5C20.6,15.3,1.8,30,1.8,30       C8,38.5,17.9,43.8,27.1,41.3L26.7,10.5z" /><radialGradient
   id="path712_1_"
   cx="-165.1304"
   cy="423.5864"
   r="6.559331e-002"
   fx="-165.1304"
   fy="423.5864"
   gradientTransform="matrix(66.296 29.7036 24.9458 -55.6769 409.9528 28492.375)"
   gradientUnits="userSpaceOnUse"><stop
   offset="0.1573"
   style="stop-color:#FFFFFF"
   id="stop630" /><stop
   offset="1"
   style="stop-color:#FF0000"
   id="stop631" /><a:midPointStop
   offset="0.1573"
   style="stop-color:#FFFFFF"
   id="midPointStop632" /><a:midPointStop
   offset="0.5"
   style="stop-color:#FFFFFF"
   id="midPointStop633" /><a:midPointStop
   offset="1"
   style="stop-color:#FF0000"
   id="midPointStop634" /></radialGradient><path
   id="path712"
   type="arc"
   cx="481.5348"
   cy="764.6377"
   rx="16.15085"
   ry="14.95450"
   fill="url(#path712_1_)"
   d="       M33,5.8c0.7-1.5-0.2-3.4-2.1-4.3c-1.8-0.8-3.9-0.2-4.6,1.3c0,0,0,0,0,0c-0.7,1.5,0.2,3.4,2.1,4.3C30.3,7.9,32.3,7.3,33,5.8       C33,5.8,33,5.8,33,5.8z" /><g
   id="path725"
   type="arc"
   cx="129.4305"
   cy="670.8383"
   rx="14.38116"
   ry="21.14877"><circle
   i:knockout="Off"
   fill="#5E3000"
   cx="17.5"
   cy="27.5"
   r="0.9"
   id="circle637" /><circle
   i:knockout="Off"
   opacity="0.3886"
   fill="none"
   stroke="#000000"
   stroke-width="0.7125"
   cx="17.5"
   cy="27.5"
   r="0.9"
   id="circle638" /></g><g
   id="path720"
   type="arc"
   cx="129.4305"
   cy="670.8383"
   rx="14.38116"
   ry="21.14877"><circle
   i:knockout="Off"
   fill="#5E30FF"
   cx="8.3"
   cy="28"
   r="1"
   id="circle640" /><circle
   i:knockout="Off"
   opacity="0.3886"
   fill="none"
   stroke="#000000"
   stroke-width="0.7125"
   cx="8.3"
   cy="28"
   r="1"
   id="circle641" /></g><g
   id="path721"
   type="arc"
   cx="129.4305"
   cy="670.8383"
   rx="14.38116"
   ry="21.14877"><circle
   i:knockout="Off"
   fill="#5E3000"
   cx="20.7"
   cy="30.2"
   r="1"
   id="circle643" /><circle
   i:knockout="Off"
   opacity="0.3886"
   fill="none"
   stroke="#000000"
   stroke-width="0.7125"
   cx="20.7"
   cy="30.2"
   r="1"
   id="circle644" /></g><g
   id="path722"
   type="arc"
   cx="129.4305"
   cy="670.8383"
   rx="14.38116"
   ry="21.14877"><circle
   i:knockout="Off"
   fill="#5E8F00"
   cx="25.2"
   cy="16.3"
   r="1"
   id="circle646" /><circle
   i:knockout="Off"
   opacity="0.3886"
   fill="none"
   stroke="#000000"
   stroke-width="0.7125"
   cx="25.2"
   cy="16.3"
   r="1"
   id="circle647" /></g><g
   id="path723"
   type="arc"
   cx="129.4305"
   cy="670.8383"
   rx="14.38116"
   ry="21.14877"><circle
   i:knockout="Off"
   fill="#5E2E9E"
   cx="26.7"
   cy="25"
   r="0.9"
   id="circle649" /><circle
   i:knockout="Off"
   opacity="0.3886"
   fill="none"
   stroke="#000000"
   stroke-width="0.7125"
   cx="26.7"
   cy="25"
   r="0.9"
   id="circle650" /></g><g
   id="path724"
   type="arc"
   cx="129.4305"
   cy="670.8383"
   rx="14.38116"
   ry="21.14877"><circle
   i:knockout="Off"
   fill="#9600D4"
   cx="18.7"
   cy="37"
   r="0.9"
   id="circle652" /><circle
   i:knockout="Off"
   opacity="0.3886"
   fill="none"
   stroke="#000000"
   stroke-width="0.7125"
   cx="18.7"
   cy="37"
   r="0.9"
   id="circle653" /></g><g
   id="path726"
   type="arc"
   cx="129.4305"
   cy="670.8383"
   rx="14.38116"
   ry="21.14877"><circle
   i:knockout="Off"
   fill="#5E2E9E"
   cx="14.3"
   cy="23"
   r="0.8"
   id="circle655" /><circle
   i:knockout="Off"
   opacity="0.3886"
   fill="none"
   stroke="#000000"
   stroke-width="0.7125"
   cx="14.3"
   cy="23"
   r="0.8"
   id="circle656" /></g><g
   id="path727"
   type="arc"
   cx="129.4305"
   cy="670.8383"
   rx="14.38116"
   ry="21.14877"><circle
   i:knockout="Off"
   fill="#9600D4"
   cx="11.4"
   cy="31.3"
   r="0.8"
   id="circle658" /><circle
   i:knockout="Off"
   opacity="0.3886"
   fill="none"
   stroke="#000000"
   stroke-width="0.7125"
   cx="11.4"
   cy="31.3"
   r="0.8"
   id="circle659" /></g><g
   id="path728"
   type="arc"
   cx="129.4305"
   cy="670.8383"
   rx="14.38116"
   ry="21.14877"><circle
   i:knockout="Off"
   fill="#5E2E9E"
   cx="31.4"
   cy="5.1"
   r="0.8"
   id="circle661" /><circle
   i:knockout="Off"
   opacity="0.3886"
   fill="none"
   stroke="#000000"
   stroke-width="0.7125"
   cx="31.4"
   cy="5.1"
   r="0.8"
   id="circle662" /></g></g><g
   id="g663"><path
   id="path597_5_"
   i:isolated="yes"
   i:knockout="Off"
   opacity="0.15"
   fill="none"
   stroke="#474000"
   stroke-width="1.6936"
   enable-background="new    "
   d="       M16.1,25.2c0-9.6,7.2-17.4,16-17.4s16.6,7.3,16.6,16.8c0,9.6-7.7,17.9-16.6,17.9S16.1,34.8,16.1,25.2z" /><path
   id="path597_4_"
   i:isolated="yes"
   i:knockout="Off"
   opacity="0.2"
   fill="none"
   stroke="#474000"
   stroke-width="0.8468"
   enable-background="new    "
   d="       M16.1,25.2c0-9.6,7.2-17.4,16-17.4s16.6,7.3,16.6,16.8c0,9.6-7.7,17.9-16.6,17.9S16.1,34.8,16.1,25.2z" /><path
   id="path597_3_"
   i:isolated="yes"
   i:knockout="Off"
   opacity="0.3"
   fill="none"
   stroke="#474000"
   stroke-width="0.4234"
   enable-background="new    "
   d="       M16.1,25.2c0-9.6,7.2-17.4,16-17.4s16.6,7.3,16.6,16.8c0,9.6-7.7,17.9-16.6,17.9S16.1,34.8,16.1,25.2z" /><radialGradient
   id="path577_1_"
   cx="-637.0112"
   cy="38.3257"
   r="37.2681"
   fx="-637.0112"
   fy="38.3257"
   gradientTransform="matrix(298.9032 0 0 316.3969 201457.8594 -80.4092)"
   gradientUnits="userSpaceOnUse"><stop
   offset="0"
   style="stop-color:#FF6F00"
   id="stop668" /><stop
   offset="1"
   style="stop-color:#FFFF00"
   id="stop669" /><a:midPointStop
   offset="0"
   style="stop-color:#FF6F00"
   id="midPointStop670" /><a:midPointStop
   offset="0.5"
   style="stop-color:#FF6F00"
   id="midPointStop671" /><a:midPointStop
   offset="1"
   style="stop-color:#FFFF00"
   id="midPointStop672" /></radialGradient><circle
   id="path577"
   fill="url(#path577_1_)"
   cx="32.6"
   cy="25.4"
   r="16" /><linearGradient
   id="path597_1_"
   gradientUnits="userSpaceOnUse"
   x1="-673.8716"
   y1="0.2827"
   x2="-673.8729"
   y2="0.3896"
   gradientTransform="matrix(303.6933 0 0 316.3967 204682.7813 -80.146)"><stop
   offset="0"
   style="stop-color:#FF6500"
   id="stop675" /><stop
   offset="1"
   style="stop-color:#FFFF00"
   id="stop676" /><a:midPointStop
   offset="0"
   style="stop-color:#FF6500"
   id="midPointStop677" /><a:midPointStop
   offset="0.5"
   style="stop-color:#FF6500"
   id="midPointStop678" /><a:midPointStop
   offset="1"
   style="stop-color:#FFFF00"
   id="midPointStop679" /></linearGradient><path
   id="path597"
   i:isolated="yes"
   i:knockout="Off"
   opacity="0.75"
   fill="url(#path597_1_)"
   enable-background="new    "
   d="       M16.1,25.2c0-9.6,7.2-17.4,16-17.4c8.9,0,16.6,7.2,16.6,16.8c0,9.6-7.7,17.9-16.6,17.9S16.1,34.8,16.1,25.2z" /><radialGradient
   id="path597_6_"
   cx="-477.6792"
   cy="419.7603"
   r="18.2119"
   fx="-477.6792"
   fy="419.7603"
   gradientTransform="matrix(1 0 0 -1 509.7773 427.5791)"
   gradientUnits="userSpaceOnUse"><stop
   offset="0"
   style="stop-color:#FFFFFF"
   id="stop682" /><stop
   offset="0.1046"
   style="stop-color:#FFFEFA"
   id="stop683" /><stop
   offset="0.2282"
   style="stop-color:#FFFBEC"
   id="stop684" /><stop
   offset="0.3616"
   style="stop-color:#FFF7D4"
   id="stop685" /><stop
   offset="0.5018"
   style="stop-color:#FFF1B2"
   id="stop686" /><stop
   offset="0.6474"
   style="stop-color:#FFE988"
   id="stop687" /><stop
   offset="0.7976"
   style="stop-color:#FFDF53"
   id="stop688" /><stop
   offset="0.9487"
   style="stop-color:#FFD316"
   id="stop689" /><stop
   offset="1"
   style="stop-color:#FFCF00"
   id="stop690" /><a:midPointStop
   offset="0"
   style="stop-color:#FFFFFF"
   id="midPointStop691" /><a:midPointStop
   offset="0.5"
   style="stop-color:#FFFFFF"
   id="midPointStop692" /><a:midPointStop
   offset="0.1046"
   style="stop-color:#FFFEFA"
   id="midPointStop693" /><a:midPointStop
   offset="0.5"
   style="stop-color:#FFFEFA"
   id="midPointStop694" /><a:midPointStop
   offset="0.2282"
   style="stop-color:#FFFBEC"
   id="midPointStop695" /><a:midPointStop
   offset="0.5"
   style="stop-color:#FFFBEC"
   id="midPointStop696" /><a:midPointStop
   offset="0.3616"
   style="stop-color:#FFF7D4"
   id="midPointStop697" /><a:midPointStop
   offset="0.5"
   style="stop-color:#FFF7D4"
   id="midPointStop698" /><a:midPointStop
   offset="0.5018"
   style="stop-color:#FFF1B2"
   id="midPointStop699" /><a:midPointStop
   offset="0.5"
   style="stop-color:#FFF1B2"
   id="midPointStop700" /><a:midPointStop
   offset="0.6474"
   style="stop-color:#FFE988"
   id="midPointStop701" /><a:midPointStop
   offset="0.5"
   style="stop-color:#FFE988"
   id="midPointStop702" /><a:midPointStop
   offset="0.7976"
   style="stop-color:#FFDF53"
   id="midPointStop703" /><a:midPointStop
   offset="0.5"
   style="stop-color:#FFDF53"
   id="midPointStop704" /><a:midPointStop
   offset="0.9487"
   style="stop-color:#FFD316"
   id="midPointStop705" /><a:midPointStop
   offset="0.5"
   style="stop-color:#FFD316"
   id="midPointStop706" /><a:midPointStop
   offset="1"
   style="stop-color:#FFCF00"
   id="midPointStop707" /></radialGradient><path
   id="path597_2_"
   i:isolated="yes"
   i:knockout="Off"
   opacity="0.75"
   fill="url(#path597_6_)"
   enable-background="new    "
   d="       M22,14c0-3.4,4.5-6.2,10-6.2c5.5,0,10.3,2.6,10.3,6S22,17.4,22,14z" /></g><g
   id="g709"><radialGradient
   id="path630_1_"
   cx="-160.1455"
   cy="426.0444"
   r="9.560131e-002"
   fx="-160.1455"
   fy="426.0444"
   gradientTransform="matrix(-37.0822 -16.9909 24.6402 -53.7764 -16403.0957 20216.2949)"
   gradientUnits="userSpaceOnUse"><stop
   offset="0"
   style="stop-color:#DEE2E7"
   id="stop711" /><stop
   offset="1"
   style="stop-color:#FFFFFF"
   id="stop712" /><a:midPointStop
   offset="0"
   style="stop-color:#DEE2E7"
   id="midPointStop713" /><a:midPointStop
   offset="0.5"
   style="stop-color:#DEE2E7"
   id="midPointStop714" /><a:midPointStop
   offset="1"
   style="stop-color:#FFFFFF"
   id="midPointStop715" /></radialGradient><path
   id="path630"
   type="arc"
   cx="50.24698"
   cy="478.4100"
   rx="24.52531"
   ry="34.99345"
   fill="url(#path630_1_)"
   stroke="#873C00"
   d="       M31.8,24.5c1-2.1,3-3.3,4.4-2.6c1.5,0.7,1.9,3,0.9,5.1h0c-1,2.1-3,3.3-4.4,2.7C31.2,28.9,30.8,26.6,31.8,24.5       C31.8,24.5,31.8,24.5,31.8,24.5z" /><g
   id="path631"
   type="arc"
   cx="50.09747"
   cy="476.7646"
   rx="28.86212"
   ry="41.42389"><path
   i:knockout="Off"
   opacity="3.790000e-002"
   fill="none"
   stroke="#000000"
   stroke-width="0.54"
   d="M31.2,24.3        c1.1-2.4,3.3-3.6,5-2.9c1.7,0.8,2.2,3.3,1.1,5.7c0,0,0,0,0,0c-1.1,2.4-3.3,3.6-5,2.9C30.6,29.2,30.1,26.6,31.2,24.3        C31.2,24.3,31.2,24.3,31.2,24.3z"
   id="path718" /></g><g
   id="path632"
   type="arc"
   cx="50.09747"
   cy="476.7646"
   rx="28.86212"
   ry="41.42389"><path
   i:knockout="Off"
   opacity="1.420000e-002"
   fill="none"
   stroke="#000000"
   stroke-width="1.8778"
   d="M31.2,24.3        c1.1-2.3,3.3-3.6,5-2.8c1.7,0.8,2.2,3.3,1.1,5.7c0,0,0,0,0,0c-1.1,2.3-3.3,3.6-5,2.8C30.6,29.2,30.1,26.6,31.2,24.3        C31.2,24.3,31.2,24.3,31.2,24.3z"
   id="path729" /></g><g
   id="path633"
   type="arc"
   cx="50.09747"
   cy="476.7646"
   rx="28.86212"
   ry="41.42389"><path
   i:knockout="Off"
   opacity="1.420000e-002"
   fill="none"
   stroke="#000000"
   stroke-width="1.1866"
   d="M31.2,24.3        c1.1-2.3,3.3-3.6,5-2.8c1.7,0.8,2.2,3.3,1.1,5.7c0,0,0,0,0,0c-1.1,2.3-3.3,3.6-5,2.8C30.6,29.2,30.1,26.6,31.2,24.3        C31.2,24.3,31.2,24.3,31.2,24.3z"
   id="path731" /></g><g
   id="path634"
   type="arc"
   cx="50.09747"
   cy="476.7646"
   rx="28.86212"
   ry="41.42389"><path
   i:knockout="Off"
   opacity="1.420000e-002"
   fill="none"
   stroke="#000000"
   stroke-width="0.4087"
   d="M31.2,24.3        c1.1-2.3,3.3-3.6,5-2.8c1.7,0.8,2.2,3.3,1.1,5.7c0,0,0,0,0,0c-1.1,2.3-3.3,3.6-5,2.8C30.6,29.2,30.1,26.6,31.2,24.3        C31.2,24.3,31.2,24.3,31.2,24.3z"
   id="path733" /></g><g
   id="path635"
   type="arc"
   cx="50.09747"
   cy="476.7646"
   rx="28.86212"
   ry="41.42389"><path
   i:knockout="Off"
   opacity="0.1517"
   fill="none"
   stroke="#000000"
   stroke-width="0.2054"
   d="M31.3,24.3        c1.1-2.3,3.3-3.6,4.9-2.8c1.6,0.8,2.1,3.2,1.1,5.5c0,0,0,0,0,0c-1.1,2.3-3.3,3.6-4.9,2.8C30.8,29.1,30.3,26.7,31.3,24.3        C31.3,24.3,31.3,24.3,31.3,24.3z"
   id="path735" /></g><radialGradient
   id="path607_1_"
   cx="-165.3687"
   cy="425.8628"
   r="9.670593e-002"
   fx="-165.3687"
   fy="425.8628"
   gradientTransform="matrix(32.7239 14.9381 21.7364 -47.2624 -3823.5298 22618.0371)"
   gradientUnits="userSpaceOnUse"><stop
   offset="0"
   style="stop-color:#DEE2E7"
   id="stop737" /><stop
   offset="1"
   style="stop-color:#FFFFFF"
   id="stop738" /><a:midPointStop
   offset="0"
   style="stop-color:#DEE2E7"
   id="midPointStop739" /><a:midPointStop
   offset="0.5"
   style="stop-color:#DEE2E7"
   id="midPointStop740" /><a:midPointStop
   offset="1"
   style="stop-color:#FFFFFF"
   id="midPointStop741" /></radialGradient><path
   id="path607"
   type="arc"
   cx="50.24698"
   cy="478.4100"
   rx="24.52531"
   ry="34.99345"
   fill="url(#path607_1_)"
   stroke="#754000"
   d="       M23.7,20.5c0.9-1.9,0.5-3.9-0.8-4.5c-1.3-0.6-3.1,0.4-3.9,2.3l0,0c-0.9,1.9-0.5,3.9,0.8,4.5C21.1,23.4,22.9,22.4,23.7,20.5       C23.7,20.5,23.7,20.5,23.7,20.5z" /><g
   id="path612"
   type="arc"
   cx="50.09747"
   cy="476.7646"
   rx="28.86212"
   ry="41.42389"><path
   i:knockout="Off"
   opacity="3.790000e-002"
   fill="none"
   stroke="#000000"
   stroke-width="0.54"
   d="M24.1,20.6        c1-2.1,0.5-4.3-1-5c-1.5-0.7-3.5,0.4-4.5,2.5c0,0,0,0,0,0c-1,2.1-0.5,4.3,1,5C21.2,23.8,23.2,22.7,24.1,20.6        C24.1,20.6,24.1,20.6,24.1,20.6z"
   id="path744" /></g><g
   id="path613"
   type="arc"
   cx="50.09747"
   cy="476.7646"
   rx="28.86212"
   ry="41.42389"><path
   i:knockout="Off"
   opacity="1.420000e-002"
   fill="none"
   stroke="#000000"
   stroke-width="1.8778"
   d="M24.1,20.6        c0.9-2.1,0.5-4.3-1-5c-1.5-0.7-3.5,0.4-4.4,2.5c0,0,0,0,0,0c-0.9,2.1-0.5,4.3,1,5C21.2,23.8,23.2,22.7,24.1,20.6        C24.1,20.6,24.1,20.6,24.1,20.6z"
   id="path746" /></g><g
   id="path614"
   type="arc"
   cx="50.09747"
   cy="476.7646"
   rx="28.86212"
   ry="41.42389"><path
   i:knockout="Off"
   opacity="1.420000e-002"
   fill="none"
   stroke="#000000"
   stroke-width="1.1866"
   d="M24.1,20.6        c0.9-2.1,0.5-4.3-1-5c-1.5-0.7-3.5,0.4-4.4,2.5c0,0,0,0,0,0c-0.9,2.1-0.5,4.3,1,5C21.2,23.8,23.2,22.7,24.1,20.6        C24.1,20.6,24.1,20.6,24.1,20.6z"
   id="path748" /></g><g
   id="path615"
   type="arc"
   cx="50.09747"
   cy="476.7646"
   rx="28.86212"
   ry="41.42389"><path
   i:knockout="Off"
   opacity="1.420000e-002"
   fill="none"
   stroke="#000000"
   stroke-width="0.4087"
   d="M24.1,20.6        c0.9-2.1,0.5-4.3-1-5c-1.5-0.7-3.5,0.4-4.4,2.5c0,0,0,0,0,0c-0.9,2.1-0.5,4.3,1,5C21.2,23.8,23.2,22.7,24.1,20.6        C24.1,20.6,24.1,20.6,24.1,20.6z"
   id="path750" /></g><g
   id="path616"
   type="arc"
   cx="50.09747"
   cy="476.7646"
   rx="28.86212"
   ry="41.42389"><path
   i:knockout="Off"
   opacity="0.1517"
   fill="none"
   stroke="#000000"
   stroke-width="0.2054"
   d="M24,20.6        c0.9-2,0.5-4.2-0.9-4.9c-1.5-0.7-3.4,0.4-4.3,2.5c0,0,0,0,0,0c-0.9,2-0.5,4.2,0.9,4.9C21.1,23.7,23.1,22.6,24,20.6        C24,20.6,24,20.6,24,20.6z"
   id="path752" /></g><radialGradient
   id="path624_1_"
   cx="-167.9019"
   cy="423.7563"
   r="8.904428e-002"
   fx="-167.9019"
   fy="423.7563"
   gradientTransform="matrix(13.6286 6.2213 6.938 -15.0855 -630.7041 7457.3765)"
   gradientUnits="userSpaceOnUse"><stop
   offset="0"
   style="stop-color:#000082"
   id="stop754" /><stop
   offset="1"
   style="stop-color:#000000"
   id="stop755" /><a:midPointStop
   offset="0"
   style="stop-color:#000082"
   id="midPointStop756" /><a:midPointStop
   offset="0.5"
   style="stop-color:#000082"
   id="midPointStop757" /><a:midPointStop
   offset="1"
   style="stop-color:#000000"
   id="midPointStop758" /></radialGradient><path
   id="path624"
   type="arc"
   cx="61.64901"
   cy="495.8291"
   rx="10.46870"
   ry="10.89169"
   fill="url(#path624_1_)"
   d="       M22.1,21.5c0.3-0.6,0.1-1.3-0.5-1.5c-0.5-0.2-1.2,0-1.5,0.6l0,0c-0.3,0.6-0.1,1.3,0.5,1.5C21.2,22.3,21.8,22.1,22.1,21.5       C22.1,21.5,22.1,21.5,22.1,21.5z" /><radialGradient
   id="path637_1_"
   cx="-155.3657"
   cy="424.3257"
   r="8.966715e-002"
   fx="-155.3657"
   fy="424.3257"
   gradientTransform="matrix(-15.4437 -7.0762 7.8648 -17.1646 -5702.6519 6210.6328)"
   gradientUnits="userSpaceOnUse"><stop
   offset="0"
   style="stop-color:#000082"
   id="stop761" /><stop
   offset="1"
   style="stop-color:#000000"
   id="stop762" /><a:midPointStop
   offset="0"
   style="stop-color:#000082"
   id="midPointStop763" /><a:midPointStop
   offset="0.5"
   style="stop-color:#000082"
   id="midPointStop764" /><a:midPointStop
   offset="1"
   style="stop-color:#000000"
   id="midPointStop765" /></radialGradient><path
   id="path637"
   type="arc"
   cx="61.64901"
   cy="495.8291"
   rx="10.46870"
   ry="10.89169"
   fill="url(#path637_1_)"
   d="       M32.1,26.6c0.3-0.7,1.1-1,1.7-0.7c0.6,0.3,0.9,1.1,0.5,1.7c0,0,0,0,0,0c-0.3,0.7-1.1,1-1.7,0.7C32.1,28.1,31.8,27.3,32.1,26.6       C32.1,26.6,32.1,26.6,32.1,26.6z" /></g><g
   id="g767"><g
   id="path638"
   nodetypes="ccccc"><path
   i:knockout="Off"
   opacity="0.3697"
   fill="none"
   stroke="#000000"
   stroke-width="1.545"
   d="M19.9,28.3        c0.1-0.6-1.2-0.8-1,0c2.7,6.2,6.8,9.5,13.4,8.7c1.8-0.4,1.1-1.8-0.4-1.5C26.3,35.6,23,34.3,19.9,28.3z"
   id="path769" /></g><path
   id="path629"
   nodetypes="ccccc"
   fill="#5D1A00"
   d="M19.9,28.3c0.1-0.6-1.2-0.8-1,0c2.7,6.2,6.8,9.5,13.4,8.7       c1.8-0.4,1.1-1.8-0.4-1.5C26.3,35.6,23,34.3,19.9,28.3z" /><g
   id="path639"
   nodetypes="ccccc"><path
   i:knockout="Off"
   opacity="0.3697"
   fill="none"
   stroke="#000000"
   stroke-width="0.5016"
   d="M19.9,28.3        c0.1-0.6-1.2-0.8-1,0c2.7,6.2,6.8,9.5,13.4,8.7c1.8-0.4,1.1-1.8-0.4-1.5C26.3,35.6,23,34.3,19.9,28.3z"
   id="path772" /></g></g><g
   id="g773"><path
   id="path774"
   nodetypes="ccccccccc"
   fill="none"
   stroke="#B84D00"
   stroke-width="1.2832"
   stroke-linecap="round"
   stroke-linejoin="round"
   d="       M24.6,4.6C21.7,16.1,24,17,24.5,20.3c0.3,4.6-1.4,5-1.6,7.9c0.2,2.3,1.7,2.6,1.8,4.9c0.2,2.6-3.6,3.7-3.5,6.8       c-0.1,1.7,1.5,3.9,2.7,4c1.1,0,1.7-0.5,1.7-1.1c0.1-0.8-0.8-1.2-1.6-1.1c-1.2,0-2.7,1.3-1.5,4.9" /><path
   id="path775"
   nodetypes="ccccccccc"
   fill="none"
   stroke="#B89200"
   stroke-width="1.3173"
   stroke-linecap="round"
   stroke-linejoin="round"
   d="       M41.9,3.9C45,15.2,42.5,16.1,42,19.4c-0.4,4.5,1.5,5,1.8,7.7c-0.3,2.3-1.8,2.5-1.9,4.8c-0.2,2.5,3.9,3.6,3.7,6.6       c0.1,1.7-1.6,3.8-2.9,3.9c-1.1,0-1.8-0.5-1.8-1.1c-0.2-0.8,0.9-1.2,1.7-1.1c1.3,0,2.9,1.3,1.6,4.8" /><path
   id="path730"
   nodetypes="ccccccccc"
   fill="none"
   stroke="#B84D00"
   stroke-width="1.1692"
   stroke-linecap="round"
   stroke-linejoin="round"
   d="       M16.4,1.5c-2.9,9.5-0.5,10.3-0.1,13.1c0.3,3.8-1.4,4.2-1.6,6.5c0.2,1.9,1.7,2.1,1.8,4c0.2,2.1-3.6,3.1-3.5,5.6       c-0.1,1.4,1.5,3.2,2.7,3.3c1.1,0,1.7-0.4,1.7-0.9c0.1-0.7-0.8-1-1.6-0.9c-1.2,0-2.7,1.1-1.5,4.1" /></g><rect
   id="rect662"
   x="0.7"
   y="0.7"
   i:knockout="Off"
   fill="none"
   width="48"
   height="48" /></g></g></svg>
