<?xml version="1.0" encoding="UTF-8" standalone="no"?>
<!DOCTYPE svg PUBLIC "-//W3C//DTD SVG 20010904//EN"
"http://www.w3.org/TR/2001/REC-SVG-20010904/DTD/svg10.dtd">
<!-- Created with Sodipodi ("http://www.sodipodi.com/") -->
<svg
   xmlns:x="http://ns.adobe.com/Extensibility/1.0/"
   xmlns:i="http://ns.adobe.com/AdobeIllustrator/10.0/"
   xmlns:graph="http://ns.adobe.com/Graphs/1.0/"
   xmlns="http://www.w3.org/2000/svg"
   xmlns:xlink="http://www.w3.org/1999/xlink"
   xmlns:a="http://ns.adobe.com/AdobeSVGViewerExtensions/3.0/"
   xml:space="preserve"
   i:viewOrigin="278.792 404.4033"
   i:rulerOrigin="0 0"
   i:pageBounds="0 792 612 0"
   width="48"
   height="48"
   viewBox="0 0 48 48"
   overflow="visible"
   enable-background="new 0 0 48 48"
   xmlns:sodipodi="http://sodipodi.sourceforge.net/DTD/sodipodi-0.dtd"
   id="svg602"
   sodipodi:version="0.34"
   sodipodi:docname="C:\msys\home\su_blanc\mldonkey-2.5.12\src\gtk2\rsvg\menu_friends.svg"><defs
   id="defs755" /><sodipodi:namedview
   id="base" /><g
   id="Layer_3"
   i:knockout="Off"
   i:layer="yes"
   i:dimmedPercent="50"
   i:rgbTrio="#4F00FFFF4F00"><g
   id="g649"
   i:knockout="Off"><path
   id="path219"
   fill="#FFFFFF"
   d="M8.8,12l-5.7,0.9C2.2,13,1.5,14,1.6,15.1l0.1,0.8c-0.1-1.1,0.5-2.1,1.4-2.3l5.7-0.9      c0.9-0.1,1.8,0.7,1.9,1.8l-0.1-0.8C10.7,12.6,9.7,11.8,8.8,12z" /><linearGradient
   id="path251_1_"
   gradientUnits="userSpaceOnUse"
   x1="-1355.2354"
   y1="87.0791"
   x2="-1334.8636"
   y2="87.0791"
   gradientTransform="matrix(0.125 0 0 0.125 207.5209 9.1166)"><stop
   offset="0"
   style="stop-color:#A7ABAC"
   id="stop609" /><stop
   offset="1"
   style="stop-color:#85898A"
   id="stop610" /><a:midPointStop
   offset="0"
   style="stop-color:#A7ABAC"
   id="midPointStop611" /><a:midPointStop
   offset="0.5"
   style="stop-color:#A7ABAC"
   id="midPointStop612" /><a:midPointStop
   offset="1"
   style="stop-color:#85898A"
   id="midPointStop613" /></linearGradient><path
   id="path251"
   fill="url(#path251_1_)"
   d="M40.6,29.9L38,10.1L40.6,29.9z" /><path
   id="path252"
   i:isolated="yes"
   i:knockout="Off"
   opacity="0.2"
   enable-background="new    "
   d="M2.2,12.3      c0.4,4.2,0.9,8.6,1.3,12.6c1,2.1,2.4,4,4.1,5.5l13.2,13.3l9.5-1.8C36.4,35.8,45,27,44.9,27c1.9-3,3.1-6.5,3.1-10.2      C48,7.6,41.4,0,33.3,0c-3.1,0-5.9,1.1-8.5,3.1C22.4,1,19.4,0,16.3,0C9.5-0.1,3.8,5.2,2.2,12.3z" /><path
   id="path253"
   fill="#CC0000"
   d="M23.2,3.4c-2.5-2.1-5.4-3.1-8.5-3.1C6.6,0.3,0,7.9,0,17.2c0,5.4,2.3,10.5,5.9,13.5l0,0      L23.1,48c0,0,20.4-20.6,20.2-20.6c1.9-3,3.1-6.5,3.1-10.2c0-9.2-6.6-16.8-14.7-16.8C28.6,0.3,25.6,1.3,23.2,3.4z" /><path
   id="path254"
   fill="#FF0000"
   d="M45.4,17.2c0-8.7-6.2-15.6-13.7-15.6c-3.2,0-6.2,1.2-8.5,3.3c-2.4-2.1-5.2-3.3-8.5-3.3      C7.1,1.4,0.9,8.5,0.9,17.2c0,5.2,2.2,9.7,5.5,12.5L23,46.5l18-17.9h-0.1C43.8,25.8,45.4,21.7,45.4,17.2z" /><linearGradient
   id="path261_1_"
   gradientUnits="userSpaceOnUse"
   x1="-1432.854"
   y1="-15.8467"
   x2="-1582.1422"
   y2="202.487"
   gradientTransform="matrix(0.1694 0 0 0.2099 277.193 -1.5256)"><stop
   offset="0"
   style="stop-color:#FFFFFF"
   id="stop619" /><stop
   offset="1"
   style="stop-color:#FF0000"
   id="stop620" /><a:midPointStop
   offset="0"
   style="stop-color:#FFFFFF"
   id="midPointStop621" /><a:midPointStop
   offset="0.5"
   style="stop-color:#FFFFFF"
   id="midPointStop622" /><a:midPointStop
   offset="1"
   style="stop-color:#FF0000"
   id="midPointStop623" /></linearGradient><path
   id="path261"
   fill="url(#path261_1_)"
   d="M31.7,2.5c-2.7,0-5.2,1-7.3,2.9l-1,1l-0.1,0.1l-1.2-1.1c-2.1-1.9-4.6-2.9-7.3-2.9      C8.4,2.5,3.2,8.3,3.2,15.3c0,4,1.6,7.7,4.6,10.1l0.1,0.1c0,0,12.5,12.6,15.2,15.3c0.1,0.1,0.1,0.1,0.2,0.2      c2-2,14-13.8,15.7-15.5c0.3-0.3,0.9-1,0.9-1c2.3-2.4,3.6-5.7,3.6-9.2C43.3,8.3,38.1,2.5,31.7,2.5z" /><radialGradient
   id="path268_1_"
   cx="-1498.5884"
   cy="179.3232"
   r="121.0091"
   fx="-1498.5884"
   fy="179.3232"
   gradientTransform="matrix(0.2606 0 0 0.3466 412.5828 -6.6908)"
   gradientUnits="userSpaceOnUse"><stop
   offset="0"
   style="stop-color:#CA002D"
   id="stop626" /><stop
   offset="1"
   style="stop-color:#FF0000"
   id="stop627" /><a:midPointStop
   offset="0"
   style="stop-color:#CA002D"
   id="midPointStop628" /><a:midPointStop
   offset="0.5"
   style="stop-color:#CA002D"
   id="midPointStop629" /><a:midPointStop
   offset="1"
   style="stop-color:#FF0000"
   id="midPointStop630" /></radialGradient><path
   id="path268"
   fill="url(#path268_1_)"
   d="M37.4,31c-2.4-7.7-8.1-13.1-14.7-13.1c-6.5,0-11.9,5.1-14.5,12.3      c3.3,3.3,13.6,13.8,14.8,15C24.2,44.1,33.2,35.2,37.4,31z" /></g><linearGradient
   id="path977_1_"
   gradientUnits="userSpaceOnUse"
   x1="-522.5962"
   y1="36.3516"
   x2="-531.7822"
   y2="36.3516"
   gradientTransform="matrix(1 0 0 1 557.584 9.765625e-004)"><stop
   offset="0"
   style="stop-color:#E18330"
   id="stop633" /><stop
   offset="1"
   style="stop-color:#7C0023"
   id="stop634" /><a:midPointStop
   offset="0"
   style="stop-color:#E18330"
   id="midPointStop635" /><a:midPointStop
   offset="0.5"
   style="stop-color:#E18330"
   id="midPointStop636" /><a:midPointStop
   offset="1"
   style="stop-color:#7C0023"
   id="midPointStop637" /></linearGradient><path
   id="path977_2_"
   fill="url(#path977_1_)"
   d="M36.3,39.4c0.8,2.1,1.4,4.6-3.4,5.6c-4.8,0.9-8.8-1-9.2-2.9     c0-4.3,4.1-9.3-3.7-13.1c-1.7-0.7,1-1.3,3.1-1.5c3.4-0.1,7.8,0,9.2,1.3C35.7,31.9,35,35.8,36.3,39.4z" /><path
   id="path655"
   fill="#FFFFFF"
   d="M43.9,9.9c-1.4,1.2-3.2,2.4-5,3.5c-0.3,0.2-0.6,0.5-0.8,0.8c-0.3-1.7-1-3.2-2.7-4.2     c-3.1-1.9-6.7-1.3-10.1-1c-1,0.3-2.4,0.9-2.4,1.9c0,2.2,0,2.2,0,0c0-0.3-0.7-0.6-0.7-0.6c-4.1,1.3-8.4-0.6-11.8,1.3     c-5.6,3.2-10,10.3-7.3,15.9c1,1.6,4.1,1.3,6,1.3c1.7,0,2.4-2.2,3.7-1.6c1,0.3,2.1,0.3,3,0.1c-0.1,0.1-0.2,0.2-0.3,0.2     c5.3,2.2,11.1,3.8,16.8,3.5c4.4-0.6,7.4-5,6.4-9c-0.2-0.8-0.3-1.6-0.4-2.4c1.2,1.1,3.3-1.3,4.3-2.7C44.1,14.9,45.3,12.3,43.9,9.9     z" /><radialGradient
   id="path861_1_"
   cx="-539.0718"
   cy="11.249"
   r="22.0481"
   fx="-539.0718"
   fy="11.249"
   gradientTransform="matrix(1 0 0 1 557.584 9.765625e-004)"
   gradientUnits="userSpaceOnUse"><stop
   offset="0"
   style="stop-color:#FFFFFF"
   id="stop641" /><stop
   offset="4.136020e-002"
   style="stop-color:#F2F2F2"
   id="stop642" /><stop
   offset="0.2133"
   style="stop-color:#C1C1C1"
   id="stop643" /><stop
   offset="0.3839"
   style="stop-color:#999999"
   id="stop644" /><stop
   offset="0.5503"
   style="stop-color:#7A7A7A"
   id="stop645" /><stop
   offset="0.711"
   style="stop-color:#636363"
   id="stop646" /><stop
   offset="0.8638"
   style="stop-color:#565656"
   id="stop647" /><stop
   offset="1"
   style="stop-color:#515151"
   id="stop648" /><a:midPointStop
   offset="0"
   style="stop-color:#FFFFFF"
   id="midPointStop649" /><a:midPointStop
   offset="0.5"
   style="stop-color:#FFFFFF"
   id="midPointStop650" /><a:midPointStop
   offset="4.136020e-002"
   style="stop-color:#F2F2F2"
   id="midPointStop651" /><a:midPointStop
   offset="0.5"
   style="stop-color:#F2F2F2"
   id="midPointStop652" /><a:midPointStop
   offset="0.2133"
   style="stop-color:#C1C1C1"
   id="midPointStop653" /><a:midPointStop
   offset="0.5"
   style="stop-color:#C1C1C1"
   id="midPointStop654" /><a:midPointStop
   offset="0.3839"
   style="stop-color:#999999"
   id="midPointStop655" /><a:midPointStop
   offset="0.5"
   style="stop-color:#999999"
   id="midPointStop656" /><a:midPointStop
   offset="0.5503"
   style="stop-color:#7A7A7A"
   id="midPointStop657" /><a:midPointStop
   offset="0.5"
   style="stop-color:#7A7A7A"
   id="midPointStop658" /><a:midPointStop
   offset="0.711"
   style="stop-color:#636363"
   id="midPointStop659" /><a:midPointStop
   offset="0.5"
   style="stop-color:#636363"
   id="midPointStop660" /><a:midPointStop
   offset="0.8638"
   style="stop-color:#565656"
   id="midPointStop661" /><a:midPointStop
   offset="0.5"
   style="stop-color:#565656"
   id="midPointStop662" /><a:midPointStop
   offset="1"
   style="stop-color:#515151"
   id="midPointStop663" /></radialGradient><path
   id="path861_3_"
   i:isolated="yes"
   i:knockout="Off"
   opacity="0.59"
   fill="url(#path861_1_)"
   enable-background="new    "
   d="     M20.3,23.5c-1,2.8-4.4,4.7-7.5,3.8c-1.4-0.6-2.1,1.6-3.7,1.6C7,28.9,4,29.2,3,27.6c-2.7-5.7,1.7-12.9,7.5-16.1     c3.4-1.9,7.8,0,11.9-1.3c0,0,0.7,0.3,0.7,0.6C23.1,15.3,21.7,19.4,20.3,23.5z" /><radialGradient
   id="path987_1_"
   cx="-528.1357"
   cy="8.772"
   r="22.1613"
   fx="-528.1357"
   fy="8.772"
   gradientTransform="matrix(1 0 0 1 557.584 9.765625e-004)"
   gradientUnits="userSpaceOnUse"><stop
   offset="0"
   style="stop-color:#FF9D56"
   id="stop666" /><stop
   offset="1"
   style="stop-color:#9F0023"
   id="stop667" /><a:midPointStop
   offset="0"
   style="stop-color:#FF9D56"
   id="midPointStop668" /><a:midPointStop
   offset="0.5"
   style="stop-color:#FF9D56"
   id="midPointStop669" /><a:midPointStop
   offset="1"
   style="stop-color:#9F0023"
   id="midPointStop670" /></radialGradient><path
   id="path987_3_"
   fill="url(#path987_1_)"
   d="M39,21.9c1,4-2.1,8.5-6.5,9.1c-5.8,0.3-11.5-1.3-17-3.5     c5.1-4.1,7.5-10.4,7.5-16.7c0-1,1.4-1.6,2.4-1.9c3.4-0.3,7.1-1,10.2,1C39.7,12.5,38,17.8,39,21.9z" /><radialGradient
   id="path938_1_"
   cx="-513.9932"
   cy="9.9365"
   r="10.3037"
   fx="-513.9932"
   fy="9.9365"
   gradientTransform="matrix(1 0 0 1 557.584 9.765625e-004)"
   gradientUnits="userSpaceOnUse"><stop
   offset="0"
   style="stop-color:#E18330"
   id="stop673" /><stop
   offset="1"
   style="stop-color:#7C0023"
   id="stop674" /><a:midPointStop
   offset="0"
   style="stop-color:#E18330"
   id="midPointStop675" /><a:midPointStop
   offset="0.5"
   style="stop-color:#E18330"
   id="midPointStop676" /><a:midPointStop
   offset="1"
   style="stop-color:#7C0023"
   id="midPointStop677" /></radialGradient><path
   id="path938_3_"
   fill="url(#path938_1_)"
   d="M42.8,16.8c-1.1,1.6-3.5,4.3-4.6,2.3c-0.9-1.6-0.9-4.9,0.8-5.7     c1.8-1.1,3.6-2.3,5-3.5C45.4,12.2,44.2,14.8,42.8,16.8z" /><g
   id="g925_2_"
   i:knockout="Off"><ellipse
   id="ellipse1004_4_"
   transform="matrix(0.7601 0.6498 -0.6498 0.7601 14.6658 -3.791)"
   fill="#990000"
   cx="12.5"
   cy="18"
   rx="2.7"
   ry="4.6" /><ellipse
   id="ellipse1004_2_"
   transform="matrix(0.7601 0.6498 -0.6498 0.7601 14.6689 -3.788)"
   cx="12.5"
   cy="18"
   rx="1.9"
   ry="3.2" /></g><g
   id="g931_2_"
   i:knockout="Off"><g
   id="g932_2_"
   i:knockout="Off"><path
   id="path933_2_"
   fill="#6D1E1E"
   d="M30.6,15.1c1.5,0.5,2.5,1.6,2.9,2.8c0.8-2.2,0-4.5-1.9-5.2c-1.9-0.7-4.1,0.6-5,2.7       C27.7,14.8,29.2,14.6,30.6,15.1z" /></g></g><path
   id="path1000_4_"
   fill="#7E0000"
   d="M30.2,16.7c2,0.8,2.7,3.6,1.6,6.3c-1.1,2.7-3.6,4.2-5.6,3.4s-2.7-3.6-1.6-6.3     S28.2,15.9,30.2,16.7z" /><radialGradient
   id="path1000_1_"
   cx="-2188.4502"
   cy="-1661.5649"
   r="4.0715"
   fx="-2188.4502"
   fy="-1661.5649"
   gradientTransform="matrix(0.9561 1.0433 -1.0598 1.3406 355.5399 4534.4155)"
   gradientUnits="userSpaceOnUse"><stop
   offset="5.600000e-003"
   style="stop-color:#CACACA"
   id="stop687" /><stop
   offset="0.2698"
   style="stop-color:#D3D3D3"
   id="stop688" /><stop
   offset="0.6909"
   style="stop-color:#EAEAEA"
   id="stop689" /><stop
   offset="1"
   style="stop-color:#FFFFFF"
   id="stop690" /><a:midPointStop
   offset="5.600000e-003"
   style="stop-color:#CACACA"
   id="midPointStop691" /><a:midPointStop
   offset="0.5"
   style="stop-color:#CACACA"
   id="midPointStop692" /><a:midPointStop
   offset="0.2698"
   style="stop-color:#D3D3D3"
   id="midPointStop693" /><a:midPointStop
   offset="0.5"
   style="stop-color:#D3D3D3"
   id="midPointStop694" /><a:midPointStop
   offset="0.6909"
   style="stop-color:#EAEAEA"
   id="midPointStop695" /><a:midPointStop
   offset="0.5"
   style="stop-color:#EAEAEA"
   id="midPointStop696" /><a:midPointStop
   offset="1"
   style="stop-color:#FFFFFF"
   id="midPointStop697" /></radialGradient><path
   id="path1000_2_"
   fill="url(#path1000_1_)"
   d="M29.8,17.7c1.6,0.7,2.1,2.9,1.2,5.1c-0.9,2.2-2.9,3.4-4.4,2.7     c-1.6-0.7-2.1-2.9-1.2-5.1C26.3,18.3,28.3,17.1,29.8,17.7z" /><circle
   id="circle1001_2_"
   cx="27.3"
   cy="22.6"
   r="1.7" /><path
   id="path719"
   fill="#2B0000"
   d="M12.1,24.2c-1.2,0.7-1.8,0.9-4,0.9c-2.3,0-3.7-0.8-5.9-0.3c-0.1,5.3,2.7,4.5,7.9,3.8     c1.1-0.2,2.8-1.3,3.9-2.1C14.8,26,14,24.2,12.1,24.2z" /><path
   id="path1040_3_"
   i:isolated="yes"
   i:knockout="Off"
   opacity="0.5"
   fill="#FFFFFF"
   enable-background="new    "
   d="     M11.5,27.8c1.8-0.5,2.7-0.6,2.1-0.2c-0.6,0.4-1,2.1-0.8,3.9l0.2,3.2c0.1,1.7-0.8,4.3-2.2,5.6l-2.6,2.8c-1.3,1.4-2.4,1.1-2.3-0.6     v-0.9c0.1-1.7-0.1-2-0.6-0.5s-1.8,1.4-2.9,0L2,40.5c-1.2-1.5-1.7-4.1-1.2-5.7L2.1,30c0.5-1.7,1.6-2.8,2.5-2.3     c0.8,0.4,2,0.8,2.6,0.9C7.6,28.6,9.7,28.3,11.5,27.8z" /><g
   id="g720"
   i:knockout="Off"><path
   id="path1040_1_"
   fill="#D22B2D"
   d="M10.4,26.5c1.5-0.5,2.3-0.6,1.8-0.2c-0.5,0.4-0.8,2.1-0.7,3.9l0.2,3.2      c0.1,1.7-0.7,4.3-1.8,5.7l-2.2,2.8c-1.1,1.4-2,1.1-1.9-0.6v-0.9c0.1-1.7-0.1-2-0.5-0.5c-0.4,1.5-1.5,1.4-2.4,0l-0.4-0.6      c-1-1.5-1.4-4.1-1-5.8l1.1-4.8C3,27,3.9,25.9,4.7,26.4c0.7,0.4,1.7,0.8,2.2,0.9C7.2,27.3,8.9,27,10.4,26.5z" /><linearGradient
   id="path1042_2_"
   gradientUnits="userSpaceOnUse"
   x1="-1092.1396"
   y1="-111.8613"
   x2="-1082.0383"
   y2="-111.8613"
   gradientTransform="matrix(1 0 0 -1 1093.4238 -77.375)"><stop
   offset="0"
   style="stop-color:#CA0000"
   id="stop705" /><stop
   offset="0.25"
   style="stop-color:#D90000"
   id="stop706" /><stop
   offset="0.5"
   style="stop-color:#E80000"
   id="stop707" /><stop
   offset="0.75"
   style="stop-color:#FF0000"
   id="stop708" /><stop
   offset="1"
   style="stop-color:#CA0000"
   id="stop709" /><a:midPointStop
   offset="0"
   style="stop-color:#CA0000"
   id="midPointStop710" /><a:midPointStop
   offset="0.5"
   style="stop-color:#CA0000"
   id="midPointStop711" /><a:midPointStop
   offset="0.25"
   style="stop-color:#D90000"
   id="midPointStop712" /><a:midPointStop
   offset="0.5"
   style="stop-color:#D90000"
   id="midPointStop713" /><a:midPointStop
   offset="0.5"
   style="stop-color:#E80000"
   id="midPointStop714" /><a:midPointStop
   offset="0.5"
   style="stop-color:#E80000"
   id="midPointStop715" /><a:midPointStop
   offset="0.75"
   style="stop-color:#FF0000"
   id="midPointStop716" /><a:midPointStop
   offset="0.5"
   style="stop-color:#FF0000"
   id="midPointStop717" /><a:midPointStop
   offset="1"
   style="stop-color:#CA0000"
   id="midPointStop718" /></linearGradient><path
   id="path1042_1_"
   fill="url(#path1042_2_)"
   d="M9.6,26.6c1.4-0.4,2.2-0.5,1.7-0.1c-0.5,0.4-0.7,2.1-0.6,3.8l0.2,2.4      c0.1,1.8-0.5,4.4-1.4,5.9l-1.8,3c-0.9,1.5-1.7,1.5-1.6,0c0-1.5-0.4-2-1-1.2S3.5,40.6,2.7,39l-0.6-1.2c-0.7-1.6-1-4.3-0.7-6      l0.7-3.1C2.4,27,3.2,26,3.7,26.4s1.4,0.9,2.1,0.9C6.5,27.4,8.1,27,9.6,26.6z" /><linearGradient
   id="path1044_2_"
   gradientUnits="userSpaceOnUse"
   x1="-1091.2603"
   y1="-114.7275"
   x2="-1083.2882"
   y2="-114.7275"
   gradientTransform="matrix(1 0 0 -1 1093.4238 -77.375)"><stop
   offset="0"
   style="stop-color:#FF00FF"
   id="stop721" /><stop
   offset="0.1323"
   style="stop-color:#EA2AFF"
   id="stop722" /><stop
   offset="0.25"
   style="stop-color:#D94CFF"
   id="stop723" /><stop
   offset="0.5"
   style="stop-color:#E890FF"
   id="stop724" /><stop
   offset="0.75"
   style="stop-color:#FFCFFF"
   id="stop725" /><stop
   offset="1"
   style="stop-color:#FFFFFF"
   id="stop726" /><a:midPointStop
   offset="0"
   style="stop-color:#FF00FF"
   id="midPointStop727" /><a:midPointStop
   offset="0.5"
   style="stop-color:#FF00FF"
   id="midPointStop728" /><a:midPointStop
   offset="0.1323"
   style="stop-color:#EA2AFF"
   id="midPointStop729" /><a:midPointStop
   offset="0.5"
   style="stop-color:#EA2AFF"
   id="midPointStop730" /><a:midPointStop
   offset="0.25"
   style="stop-color:#D94CFF"
   id="midPointStop731" /><a:midPointStop
   offset="0.5"
   style="stop-color:#D94CFF"
   id="midPointStop732" /><a:midPointStop
   offset="0.5"
   style="stop-color:#E890FF"
   id="midPointStop733" /><a:midPointStop
   offset="0.5"
   style="stop-color:#E890FF"
   id="midPointStop734" /><a:midPointStop
   offset="0.75"
   style="stop-color:#FFCFFF"
   id="midPointStop735" /><a:midPointStop
   offset="0.5"
   style="stop-color:#FFCFFF"
   id="midPointStop736" /><a:midPointStop
   offset="1"
   style="stop-color:#FFFFFF"
   id="midPointStop737" /></linearGradient><path
   id="path1044_1_"
   fill="url(#path1044_2_)"
   d="M8,34c1.9,0.2,2.6,1.5,1.8,3L8,40c-0.9,1.5-1.7,1.5-1.6,0c0-1.5-0.4-2-1-1.2      C4.8,39.6,3.8,39,3,37.4l-0.6-1.2c-0.7-1.6,0.2-2.8,2.1-2.6L8,34z" /></g><g
   id="g757"
   i:knockout="Off"><path
   id="path1012_2_"
   fill="#6D1E1E"
   d="M26,4.8c3.1,0,3.9,2.8,4.2,4.3" /><path
   id="path1013_2_"
   fill="#6D1E1E"
   d="M25.5,5.6c2.7,0.1,3.8,2.2,4.2,4.3c0,0,0.6-0.7,0.6-0.8c0.1-0.2,0.5-0.6,0.4-0.9      c-0.5-2.1-1.6-4.2-4.2-4.3C26.1,3.9,25.7,5.6,25.5,5.6L25.5,5.6z" /><path
   id="path1016_1_"
   fill="#6D1E1E"
   d="M30.2,3.5c1.9,2,1,3.5,0.2,5.6" /><path
   id="path1017_2_"
   fill="#6D1E1E"
   d="M29.7,4.3c1.6,1.8,1,3.4,0.2,5.4c-0.1,0.4,0.3-0.2,0.3-0.2c0.3-0.4,0.5-0.7,0.7-1.1      c0.8-2.1,1.5-3.8-0.1-5.7C30.8,2.8,29.5,4,29.7,4.3L29.7,4.3z" /><path
   id="path1020_2_"
   fill="#6D1E1E"
   d="M37.3,2.8c0.1,1.2-1.8,2.7-2.5,3.8c-1,1.6-2.9,1.8-5.2,2.8" /><path
   id="path1021_2_"
   fill="#6D1E1E"
   d="M36.8,3.6c0,0.8-1.7,2.5-2.3,3.1c-1.1,1-2.9,1.4-4.3,1.9c-0.5,0.2-0.7,1.5-0.9,1.6      c1.2-0.5,2.5-0.9,3.7-1.5c1-0.5,1.5-1.4,2.1-2.1c1-1.2,2.7-2.8,2.8-4.5C37.8,2.3,36.8,3.1,36.8,3.6L36.8,3.6z" /><path
   id="path1024_1_"
   fill="#6D1E1E"
   d="M32.7,3.2c1.5,2-1.5,4.1-2.5,6" /><path
   id="path1025_1_"
   fill="#6D1E1E"
   d="M32.2,4.1c0.8,1.2,0.2,2.1-0.7,3.1c-0.6,0.7-1.1,1.5-1.6,2.3c0,0.1-0.3,0.7-0.3,0.6      c0.3-0.2,0.5-0.7,0.7-1c1.1-1.8,4.4-4.3,2.8-6.6C33.3,2.5,32,3.7,32.2,4.1L32.2,4.1z" /><path
   id="path1028_2_"
   fill="#6D1E1E"
   d="M35.1,2.6c0.2,2-1.7,5.4-4.6,6.2" /><path
   id="path1029_2_"
   fill="#6D1E1E"
   d="M34.6,3.4c0.1,2.1-1.4,3.9-3.5,4.6c-0.3,0.1-0.5,0.6-0.6,0.8c0,0.1-0.4,0.8-0.4,0.9      c3-0.9,5.7-4.9,5.6-7.8C35.6,2,34.6,2.8,34.6,3.4L34.6,3.4z" /><path
   id="path1032_1_"
   fill="#6D1E1E"
   d="M39.4,3.4c-0.4,3.5-5.6,5.1-9.8,6.2" /><path
   id="path1033_1_"
   fill="#6D1E1E"
   d="M38.8,4.1c-0.2,1.5-2.2,2.3-3.5,2.9c-1.7,0.7-3.5,1.3-5.3,1.7c-0.6,0.1-0.7,1.5-1,1.6      c4.4-1.1,10.1-2.9,10.9-7.8C39.8,2.9,38.9,3.6,38.8,4.1L38.8,4.1z" /><path
   id="path1036_2_"
   fill="#6D1E1E"
   d="M41.7,3.6c-0.4,4.3-7,4.5-11.5,5.6" /><path
   id="path1037_2_"
   fill="#6D1E1E"
   d="M41.2,4.3c-0.2,1.8-2.8,2.4-4.3,2.8c-2,0.5-4.2,0.7-6.2,1.2c-0.5,0.1-0.7,1.6-1,1.6      c4.8-1,11.9-1.3,12.6-7.1C42.2,3.1,41.3,3.8,41.2,4.3L41.2,4.3z" /></g></g></svg>
