<?xml version="1.0" encoding="UTF-8" standalone="no"?>
<!DOCTYPE svg PUBLIC "-//W3C//DTD SVG 20010904//EN"
"http://www.w3.org/TR/2001/REC-SVG-20010904/DTD/svg10.dtd">
<!-- Created with Sodipodi ("http://www.sodipodi.com/") -->
<svg
   xmlns:x="http://ns.adobe.com/Extensibility/1.0/"
   xmlns:i="http://ns.adobe.com/AdobeIllustrator/10.0/"
   xmlns:graph="http://ns.adobe.com/Graphs/1.0/"
   xmlns="http://www.w3.org/2000/svg"
   xmlns:xlink="http://www.w3.org/1999/xlink"
   xmlns:a="http://ns.adobe.com/AdobeSVGViewerExtensions/3.0/"
   xml:space="preserve"
   i:viewOrigin="237.125 442.8828"
   i:rulerOrigin="0 1"
   i:pageBounds="0 791 612 -1"
   width="48"
   height="48"
   viewBox="0 0 48 48"
   overflow="visible"
   enable-background="new 0 0 48 48"
   xmlns:sodipodi="http://sodipodi.sourceforge.net/DTD/sodipodi-0.dtd"
   id="svg602"
   sodipodi:version="0.34"
   sodipodi:docname="C:\msys\home\su_blanc\mldonkey-2.5.12\src\gtk2\rsvg\menu_search_freedb.svg"><defs
   id="defs628" /><sodipodi:namedview
   id="base" /><g
   id="Layer_1"
   i:layer="yes"
   i:dimmedPercent="50"
   i:rgbTrio="#4F008000FFFF"><g
   id="g605"><g
   id="g606"><g
   id="g607"><rect
   y="11"
   fill="#9598C1"
   width="48"
   height="26"
   id="rect608" /></g><g
   id="g609"><rect
   x="1"
   y="12"
   fill="#FCFFFF"
   width="46"
   height="24"
   id="rect610" /></g></g><g
   id="g611"><rect
   x="29.7"
   y="12"
   fill="#121068"
   width="17.3"
   height="24"
   id="rect612" /></g><g
   id="g613"><g
   id="g614"><path
   i:knockout="Off"
   fill="#121068"
   d="M2.3,22.8v4.5H1.3v-4.5H0.6v-0.7h0.8v-0.5c0-1.1,0.5-1.6,1.5-1.6        c0.3,0,0.5,0,0.7,0.1v0.8c-0.2,0-0.4,0-0.6,0c-0.2,0-0.4,0.1-0.5,0.2c-0.1,0.1-0.2,0.3-0.2,0.6v0.4h1v0.7H2.3z"
   id="path615" /><path
   i:knockout="Off"
   fill="#121068"
   d="M6.6,22.9c-0.1,0-0.3-0.1-0.6-0.1c-0.5,0-0.9,0.2-1.2,0.7v3.7H4v-5.2h0.9v0.7        c0.4-0.6,0.8-0.8,1.4-0.8c0.1,0,0.3,0,0.4,0V22.9z"
   id="path616" /><path
   i:knockout="Off"
   fill="#121068"
   d="M9.5,27.4c-0.8,0-1.4-0.2-1.8-0.7c-0.5-0.5-0.7-1.1-0.7-2c0-0.8,0.2-1.5,0.7-2        s1-0.7,1.8-0.7c0.7,0,1.3,0.2,1.8,0.7s0.7,1.1,0.7,2v0.2H7.9c0,0.6,0.2,1.1,0.5,1.3c0.3,0.3,0.6,0.4,1.1,0.4        c0.3,0,0.6-0.1,0.9-0.2c0.3-0.2,0.4-0.4,0.4-0.7h1c-0.1,0.5-0.3,0.9-0.7,1.2C10.6,27.2,10.1,27.4,9.5,27.4z M10.9,24.1        c-0.1-0.5-0.2-0.9-0.5-1.1s-0.6-0.4-1-0.4c-0.4,0-0.7,0.1-1,0.4c-0.3,0.2-0.4,0.6-0.5,1.1H10.9z"
   id="path617" /><path
   i:knockout="Off"
   fill="#121068"
   d="M15.1,27.4c-0.8,0-1.4-0.2-1.8-0.7c-0.5-0.5-0.7-1.1-0.7-2c0-0.8,0.2-1.5,0.7-2        s1-0.7,1.8-0.7c0.7,0,1.3,0.2,1.8,0.7s0.7,1.1,0.7,2v0.2h-3.9c0,0.6,0.2,1.1,0.5,1.3c0.3,0.3,0.6,0.4,1.1,0.4        c0.3,0,0.6-0.1,0.9-0.2c0.3-0.2,0.4-0.4,0.4-0.7h1c-0.1,0.5-0.3,0.9-0.7,1.2C16.1,27.2,15.6,27.4,15.1,27.4z M16.4,24.1        c-0.1-0.5-0.2-0.9-0.5-1.1s-0.6-0.4-1-0.4c-0.4,0-0.7,0.1-1,0.4c-0.3,0.2-0.4,0.6-0.5,1.1H16.4z"
   id="path618" /><path
   i:knockout="Off"
   fill="#121068"
   d="M21.7,26.6c-0.4,0.5-0.9,0.7-1.5,0.7c-0.7,0-1.2-0.2-1.6-0.7s-0.6-1.1-0.6-2        c0-0.8,0.2-1.5,0.6-2c0.4-0.5,0.9-0.7,1.6-0.7c0.6,0,1,0.2,1.4,0.5v-2.4h0.9v7.2h-0.9V26.6z M21.7,25.8v-2.5        c-0.4-0.4-0.8-0.6-1.4-0.6c-0.4,0-0.7,0.2-0.9,0.5C19.2,23.5,19,24,19,24.7c0,0.6,0.1,1.1,0.3,1.5s0.5,0.5,0.9,0.5        C20.8,26.6,21.3,26.3,21.7,25.8z"
   id="path619" /><path
   i:knockout="Off"
   fill="#121068"
   d="M24.9,22.7c0.4-0.5,0.9-0.7,1.5-0.7c0.7,0,1.2,0.2,1.6,0.7s0.6,1.1,0.6,2        c0,0.9-0.2,1.5-0.6,2c-0.4,0.5-0.9,0.7-1.6,0.7c-0.6,0-1-0.2-1.4-0.5v0.4H24v-7.2h0.9V22.7z M24.9,26c0.4,0.4,0.8,0.6,1.4,0.6        c0.4,0,0.7-0.2,0.9-0.5s0.4-0.9,0.4-1.5c0-0.6-0.1-1.1-0.3-1.5c-0.2-0.3-0.5-0.5-0.9-0.5c-0.5,0-1,0.3-1.4,0.9V26z"
   id="path620" /></g></g><g
   i:knockout="Off"
   id="g621"><path
   i:knockout="Off"
   fill="#FFFFFF"
   d="M31.4,27.2h-1v-1h1V27.2z"
   id="path622" /><path
   i:knockout="Off"
   fill="#FFFFFF"
   d="M35.1,21.9c0.7,0,1.3,0.2,1.8,0.7c0.4,0.5,0.7,1.1,0.7,2c0,0.9-0.2,1.5-0.7,2       c-0.4,0.5-1,0.7-1.8,0.7c-0.7,0-1.3-0.2-1.8-0.7c-0.4-0.5-0.7-1.1-0.7-2c0-0.9,0.2-1.5,0.7-2C33.7,22.2,34.3,21.9,35.1,21.9z        M35.1,26.6c0.4,0,0.8-0.2,1.1-0.5s0.4-0.8,0.4-1.5c0-0.7-0.1-1.2-0.4-1.5c-0.3-0.3-0.6-0.5-1.1-0.5c-0.4,0-0.8,0.2-1.1,0.5       c-0.3,0.3-0.4,0.8-0.4,1.5c0,0.7,0.1,1.2,0.4,1.5S34.6,26.6,35.1,26.6z"
   id="path623" /><path
   i:knockout="Off"
   fill="#FFFFFF"
   d="M41.2,22.9c-0.1,0-0.3-0.1-0.6-0.1c-0.5,0-0.9,0.2-1.2,0.7v3.7h-0.9v-5.2h0.9v0.7       c0.4-0.6,0.8-0.8,1.4-0.8c0.1,0,0.3,0,0.4,0V22.9z"
   id="path624" /><path
   i:knockout="Off"
   fill="#FFFFFF"
   d="M46,26.8c0,1.7-0.8,2.5-2.2,2.5c-0.6,0-1.2-0.1-1.5-0.4s-0.6-0.7-0.6-1.1h1       c0,0.6,0.4,0.8,1.1,0.8c0.4,0,0.8-0.1,1-0.4s0.3-0.7,0.3-1.4v-0.3c-0.4,0.5-0.9,0.7-1.5,0.7c-0.7,0-1.2-0.2-1.6-0.7       s-0.6-1.1-0.6-2c0-0.8,0.2-1.5,0.6-2c0.4-0.5,0.9-0.7,1.6-0.7c0.6,0,1,0.2,1.4,0.5v-0.4H46V26.8z M45.1,25.8v-2.5       c-0.4-0.4-0.8-0.6-1.4-0.6c-0.4,0-0.7,0.2-0.9,0.5c-0.2,0.3-0.4,0.9-0.4,1.5c0,0.6,0.1,1.1,0.3,1.5s0.5,0.5,0.9,0.5       C44.2,26.6,44.7,26.3,45.1,25.8z"
   id="path625" /></g></g><rect
   i:knockout="Off"
   fill="none"
   width="48"
   height="48"
   id="rect626" /></g></svg>
