<?xml version="1.0" encoding="UTF-8" standalone="no"?>
<!DOCTYPE svg PUBLIC "-//W3C//DTD SVG 20010904//EN"
"http://www.w3.org/TR/2001/REC-SVG-20010904/DTD/svg10.dtd">
<!-- Created with Sodipodi ("http://www.sodipodi.com/") -->
<svg
   xmlns:x="http://ns.adobe.com/Extensibility/1.0/"
   xmlns:i="http://ns.adobe.com/AdobeIllustrator/10.0/"
   xmlns:graph="http://ns.adobe.com/Graphs/1.0/"
   xmlns="http://www.w3.org/2000/svg"
   xmlns:xlink="http://www.w3.org/1999/xlink"
   xmlns:a="http://ns.adobe.com/AdobeSVGViewerExtensions/3.0/"
   xml:space="preserve"
   i:viewOrigin="234.7627 435.4438"
   i:rulerOrigin="0 0"
   i:pageBounds="0 792 612 0"
   width="48"
   height="48"
   viewBox="0 0 48 48"
   overflow="visible"
   enable-background="new 0 0 48 48"
   xmlns:sodipodi="http://sodipodi.sourceforge.net/DTD/sodipodi-0.dtd"
   id="svg602"
   sodipodi:version="0.34"
   sodipodi:docname="C:\msys\home\su_blanc\mldonkey-2.5.12\src\gtk2\rsvg\menu_search_movie.svg"><defs
   id="defs664" /><sodipodi:namedview
   id="base" /><g
   id="Layer_x0020_1"
   i:knockout="Off"
   i:layer="yes"
   i:dimmedPercent="50"
   i:rgbTrio="#4F008000FFFF"><rect
   i:knockout="Off"
   fill="none"
   width="48"
   height="48"
   id="rect605" /></g><g
   id="Layer_x0020_3"
   i:knockout="Off"
   i:layer="yes"
   i:dimmedPercent="50"
   i:rgbTrio="#4F004F00FFFF"><g
   id="g607"><path
   fill="#5B0000"
   d="M11,28.6c1.3,4.6,7.2,5.3,12.1,5.8c2.2,0.2,5,0.5,5.8,1.3c1.9,1.9-0.2,5.9-0.2,5.9l-1.9,3.3l3.5-1.2      c3-1.1,11.6-3.3,15-0.8l2.4,1.8l-0.2-3c-0.4-5-1.7-8.5-4.1-10.5c-3.4-2.8-8.2-2.4-13.3-1.9c-5.4,0.5-11.6,1.2-16.9-2.2L10,25      l0.9,3.5L11,28.6z"
   id="path608" /><path
   d="M15.5,3.8c-3.3,0.8-6.6,2.8-9.2,5.5c-2.6,2.7-4.6,6-5.5,9.2c-0.3,1.4-0.5,2.6-0.5,3.9s0.2,2.5,0.5,3.8      c0.7,2.3,2,4.3,3.9,5.7c2.1,2.9,5.5,4.5,9.5,4.5c4.7,0,9.7-2.1,13.3-5.9c3.8-3.8,5.9-8.6,5.9-13.3c0-3.9-1.6-7.1-4.3-9.2      c-1.4-1.9-3.4-3.4-5.8-4.1c-2.4-0.7-5.1-0.7-7.9,0H15.5z"
   id="path609" /><linearGradient
   id="XMLID_7_"
   gradientUnits="userSpaceOnUse"
   x1="-256.1353"
   y1="427.9868"
   x2="-250.0798"
   y2="421.031"
   gradientTransform="matrix(1 0 0 -1 276.0498 451.3877)"><stop
   offset="0"
   style="stop-color:#000095"
   id="stop611" /><stop
   offset="1"
   style="stop-color:#28284E"
   id="stop612" /><a:midPointStop
   offset="0"
   style="stop-color:#000095"
   id="midPointStop613" /><a:midPointStop
   offset="0.5"
   style="stop-color:#000095"
   id="midPointStop614" /><a:midPointStop
   offset="1"
   style="stop-color:#28284E"
   id="midPointStop615" /></linearGradient><path
   fill="url(#XMLID_7_)"
   d="M17.8,7.5C11.6,9.2,5.9,14.8,4.3,21c-1.8,7,1.9,13.4,9.5,13.4c9,0,17.5-8.5,17.5-17.5      C31.3,9.3,24.8,5.6,17.8,7.5z M13.9,25.1c-0.4,2.5-2.6,4.6-4.8,4.7c-2.1,0.1-3.3-1.8-2.7-4.1c0.5-2.2,2.4-4.2,4.4-4.4      c2.1-0.3,3.5,1.4,3.1,3.7V25.1z M15.4,14.4c-0.3,2-2.3,4-4.3,4.3c-1.9,0.3-3-1-2.6-2.9c0.4-1.8,2.2-3.6,4-4      C14.4,11.4,15.8,12.5,15.4,14.4z M26,24c-0.1,2.7-2.6,5.3-5.4,5.4c-2.6,0.1-4.4-1.9-4-4.5c0.3-2.4,2.5-4.6,4.9-4.9      c2.5-0.3,4.6,1.4,4.5,4L26,24z M26.6,12.2c-0.1,2.2-2.3,4.4-4.8,4.8c-2.4,0.4-4-1-3.7-3c0.3-2,2.2-3.9,4.4-4.4      c2.3-0.5,4.2,0.6,4.1,2.7V12.2z"
   id="path616" /><radialGradient
   id="XMLID_8_"
   cx="-261.5967"
   cy="435.1001"
   r="11.4244"
   fx="-261.5967"
   fy="435.1001"
   gradientTransform="matrix(1 0 0 -1 276.0498 451.3877)"
   gradientUnits="userSpaceOnUse"><stop
   offset="0"
   style="stop-color:#000045"
   id="stop618" /><stop
   offset="1"
   style="stop-color:#000033"
   id="stop619" /><a:midPointStop
   offset="0"
   style="stop-color:#000045"
   id="midPointStop620" /><a:midPointStop
   offset="0.5"
   style="stop-color:#000045"
   id="midPointStop621" /><a:midPointStop
   offset="1"
   style="stop-color:#000033"
   id="midPointStop622" /></radialGradient><path
   fill="url(#XMLID_8_)"
   d="M25.5,17.7c0,5.6-5.4,10.9-11,10.9c-4.7,0-7-4-5.9-8.4c1-3.9,4.5-7.5,8.4-8.4      C21.4,10.6,25.5,12.9,25.5,17.7z"
   id="path623" /><radialGradient
   id="XMLID_9_"
   cx="-251.4595"
   cy="417.5757"
   r="28.3192"
   fx="-251.4595"
   fy="417.5757"
   gradientTransform="matrix(1 0 0 -1 276.0498 451.3877)"
   gradientUnits="userSpaceOnUse"><stop
   offset="0"
   style="stop-color:#000076"
   id="stop625" /><stop
   offset="1"
   style="stop-color:#000048"
   id="stop626" /><a:midPointStop
   offset="0"
   style="stop-color:#000076"
   id="midPointStop627" /><a:midPointStop
   offset="0.5"
   style="stop-color:#000076"
   id="midPointStop628" /><a:midPointStop
   offset="1"
   style="stop-color:#000048"
   id="midPointStop629" /></radialGradient><path
   fill="url(#XMLID_9_)"
   d="M23.8,16c0,5.7-5.4,10.9-10.9,10.9c-4.7,0-7-4-5.9-8.4c1.1-3.9,4.5-7.5,8.4-8.4      c4.4-1.2,8.5,1.2,8.5,5.9H23.8z"
   id="path630" /><path
   fill="#00003B"
   d="M29,10.1c3.7,3.7,3.8,12-1.9,18.3c-5.7,6.4-14.2,7.8-19.2,4.3C22.1,39.5,36.5,20.5,29,10.1z"
   id="path631" /><radialGradient
   id="XMLID_10_"
   cx="-265.9663"
   cy="424.3179"
   r="14.8593"
   fx="-265.9663"
   fy="424.3179"
   gradientTransform="matrix(1 0 0 -1 276.0498 451.3877)"
   gradientUnits="userSpaceOnUse"><stop
   offset="0"
   style="stop-color:#FF7600"
   id="stop633" /><stop
   offset="1"
   style="stop-color:#900000"
   id="stop634" /><a:midPointStop
   offset="0"
   style="stop-color:#FF7600"
   id="midPointStop635" /><a:midPointStop
   offset="0.5"
   style="stop-color:#FF7600"
   id="midPointStop636" /><a:midPointStop
   offset="1"
   style="stop-color:#900000"
   id="midPointStop637" /></radialGradient><path
   fill="url(#XMLID_10_)"
   d="M46.1,41.6c-4.7-3.4-16.3,0.6-16.3,0.6s2.7-4.9,0-7.6c-2.7-2.7-15.8-0.4-17.4-6.4      c14.2,8.7,32.1-7.7,33.7,13.4V41.6z"
   id="path638" /><radialGradient
   id="XMLID_11_"
   cx="-242.8955"
   cy="422.2397"
   r="15.1535"
   fx="-242.8955"
   fy="422.2397"
   gradientTransform="matrix(1 0 0 -1 276.0498 451.3877)"
   gradientUnits="userSpaceOnUse"><stop
   offset="0"
   style="stop-color:#FFFF00"
   id="stop640" /><stop
   offset="1"
   style="stop-color:#B80000"
   id="stop641" /><a:midPointStop
   offset="0"
   style="stop-color:#FFFF00"
   id="midPointStop642" /><a:midPointStop
   offset="0.5"
   style="stop-color:#FFFF00"
   id="midPointStop643" /><a:midPointStop
   offset="1"
   style="stop-color:#B80000"
   id="midPointStop644" /></radialGradient><path
   fill="url(#XMLID_11_)"
   d="M46,41.5c-4.7-3.4-16.3,0.6-16.3,0.6s6.1-9.7-5.8-11.3C38,29.3,45.5,28.6,46,41.5z"
   id="path645" /><path
   fill="#FF0000"
   d="M30.9,33.8c1.5,5.4-1.2,8.3-1.2,8.3s2.4-4.3,0.5-8c-2.3-4.4-12.6-0.3-18-6C17.9,33.7,29.3,28,30.9,33.8z      "
   id="path646" /><linearGradient
   id="XMLID_12_"
   gradientUnits="userSpaceOnUse"
   x1="-277.0249"
   y1="451.4741"
   x2="-247.8652"
   y2="418.3008"
   gradientTransform="matrix(1 0 0 -1 276.0498 451.3877)"><stop
   offset="0"
   style="stop-color:#FFFFFF"
   id="stop648" /><stop
   offset="1"
   style="stop-color:#6D6DFF"
   id="stop649" /><a:midPointStop
   offset="0"
   style="stop-color:#FFFFFF"
   id="midPointStop650" /><a:midPointStop
   offset="0.5"
   style="stop-color:#FFFFFF"
   id="midPointStop651" /><a:midPointStop
   offset="1"
   style="stop-color:#6D6DFF"
   id="midPointStop652" /></linearGradient><path
   fill="url(#XMLID_12_)"
   d="M15.5,5.3C9.4,7,3.7,12.6,2.1,18.8c-1.8,7,1.9,13.4,9.5,13.4c9,0,17.5-8.5,17.5-17.5      C29.1,7.1,22.6,3.4,15.5,5.3z M11.7,22.8c-0.4,2.5-2.6,4.6-4.8,4.7c-2.1,0.1-3.3-1.8-2.7-4.1c0.5-2.2,2.4-4.2,4.4-4.4      c2.1-0.3,3.5,1.4,3.1,3.7V22.8z M13.2,12.2c-0.3,2-2.3,4-4.3,4.3c-1.9,0.3-3-1-2.6-2.9c0.4-1.8,2.2-3.6,4-4      C12.2,9.2,13.6,10.3,13.2,12.2z M23.8,21.7c-0.1,2.7-2.6,5.2-5.4,5.4c-2.6,0.1-4.4-1.9-4-4.5c0.3-2.4,2.5-4.6,4.9-4.9      c2.5-0.3,4.6,1.4,4.5,4L23.8,21.7z M24.4,9.9c-0.1,2.2-2.3,4.4-4.8,4.8c-2.4,0.4-4-1-3.7-3c0.3-2,2.2-3.9,4.4-4.4      c2.3-0.5,4.2,0.6,4.1,2.7V9.9z"
   id="path653" /><path
   fill="#3B3B3B"
   d="M22.6,18.5c-1.6-1.4-4.4-1.3-6.3,0.6c-2,2-2.9,5.3-0.4,7.1C12.1,21.5,18.6,16.1,22.6,18.5z"
   id="path654" /><path
   fill="#E6E6E6"
   d="M15.9,26.3c5.1,3.5,11-4.7,6.7-7.8C26.6,22.6,20.5,28.9,15.9,26.3z"
   id="path655" /><path
   fill="#545454"
   d="M12.7,10c-0.7-0.7-2.6-1-4.7,0.8c-1.4,1.3-2.6,3.9-0.8,5.3c-2.2-2.2,2.6-7.9,5.7-6.1H12.7z"
   id="path656" /><path
   fill="#E6E6E6"
   d="M7,16.1c0.7,0.7,2.6,1.1,4.7-0.8c1.4-1.3,2.6-3.9,0.8-5.3c2.2,2.2-2.6,7.9-5.7,6.1H7z"
   id="path657" /><path
   fill="#454545"
   d="M10.5,19.7c-0.7-0.7-2.7-0.9-4.7,0.8c-2.2,2.1-2.5,5.4-0.7,6.6c-2.5-3.3,2.1-9,5.5-7.6V19.7z"
   id="path658" /><path
   fill="#E6E6E6"
   d="M5.4,27.3c0.7,0.7,2.7,0.9,4.7-0.8c2.2-2.1,2.5-5.4,0.7-6.6c2.5,3.3-2.1,9-5.5,7.6V27.3z"
   id="path659" /><path
   fill="#545454"
   d="M23.2,7.6c-0.7-0.7-3.6-0.8-5.7,1c-1.9,1.8-2.4,4-0.8,5.5C14,10.5,19.9,6,23.1,7.5L23.2,7.6z"
   id="path660" /><path
   fill="#E6E6E6"
   d="M17.3,14.5c0.7,0.7,3.6,0.8,5.7-1.1c1.9-1.8,2.4-4,0.8-5.5c2.7,3.6-3.2,8.1-6.4,6.6L17.3,14.5z"
   id="path661" /><path
   fill="#00003B"
   d="M26.7,7.8c3.7,3.7,3.8,12-1.9,18.3c-5.7,6.4-14.2,7.8-19.2,4.3c14.2,6.7,28.8-12.3,21.1-22.7V7.8z"
   id="path662" /></g></g></svg>
