<?xml version="1.0" encoding="UTF-8" standalone="no"?>
<!DOCTYPE svg PUBLIC "-//W3C//DTD SVG 20010904//EN"
"http://www.w3.org/TR/2001/REC-SVG-20010904/DTD/svg10.dtd">
<!-- Created with Sodipodi ("http://www.sodipodi.com/") -->
<svg
   xmlns:x="http://ns.adobe.com/Extensibility/1.0/"
   xmlns:i="http://ns.adobe.com/AdobeIllustrator/10.0/"
   xmlns:graph="http://ns.adobe.com/Graphs/1.0/"
   xmlns="http://www.w3.org/2000/svg"
   xmlns:xlink="http://www.w3.org/1999/xlink"
   xmlns:a="http://ns.adobe.com/AdobeSVGViewerExtensions/3.0/"
   xml:space="preserve"
   i:viewOrigin="282.5 419.5"
   i:rulerOrigin="0 0"
   i:pageBounds="0 792 612 0"
   width="48"
   height="48"
   viewBox="0 0 48 48"
   overflow="visible"
   enable-background="new 0 0 48 48"
   xmlns:sodipodi="http://sodipodi.sourceforge.net/DTD/sodipodi-0.dtd"
   id="svg602"
   sodipodi:version="0.34"
   sodipodi:docname="C:\msys\home\su_blanc\mldonkey-2.5.24\src\gtk2\rsvg\menu_quit.svg"><defs
   id="defs666" /><sodipodi:namedview
   id="namedview665" /><g
   id="Layer_1"
   i:knockout="Off"
   i:layer="yes"
   i:dimmedPercent="50"
   i:rgbTrio="#4F008000FFFF"><rect
   id="path550"
   i:knockout="Off"
   fill="none"
   width="48"
   height="48" /></g><g
   id="Layer_2_1_"
   i:knockout="Off"
   i:layer="yes"
   i:dimmedPercent="50"
   i:rgbTrio="#4F00FFFF4F00"><path
   id="path552"
   i:isolated="yes"
   i:knockout="Off"
   opacity="0.2"
   enable-background="new    "
   d="M2.1,24.5     c0,12.7,10.3,22.9,22.9,22.9C37.7,47.4,48,37.1,48,24.5C48,11.8,37.7,1.6,25.1,1.6C12.4,1.6,2.1,11.8,2.1,24.5z" /><g
   id="g553"
   i:knockout="Off"
   display="none"><path
   id="path554"
   i:isolated="yes"
   i:knockout="Off"
   display="inline"
   opacity="0.2"
   enable-background="new    "
   d="M25,10      l1.5,1.3l15.6,13.3l-18,15.3c0,0,0-5.7,0-6.4c-0.8-0.2-14.5-3.7-14.5-3.7V19.2c0,0,13.7-3.4,14.5-3.6c0-0.7,0-6.4,0-6.4L25,10z" /><path
   id="path555"
   display="inline"
   fill="#0066CC"
   d="M41.8,23.2l-19-16.2v0.8c0,0,0,5.6,0,6.1c-0.5,0.1-14.5,3.6-14.5,3.6      v11.2c0,0,13.9,3.6,14.5,3.7c0,0.5,0,6.9,0,6.9L41.8,23.2z" /><linearGradient
   id="path562_1_"
   gradientUnits="userSpaceOnUse"
   x1="-228.1392"
   y1="295.71"
   x2="-74.7852"
   y2="295.71"
   gradientTransform="matrix(0.1875 0 0 -0.1875 52.9688 78.6563)"><stop
   offset="0"
   style="stop-color:#3399FF"
   id="stop613" /><stop
   offset="1"
   style="stop-color:#99CCFF"
   id="stop614" /><a:midPointStop
   offset="0"
   style="stop-color:#3399FF"
   id="midPointStop615" /><a:midPointStop
   offset="0.5"
   style="stop-color:#3399FF"
   id="midPointStop616" /><a:midPointStop
   offset="1"
   style="stop-color:#99CCFF"
   id="midPointStop617" /></linearGradient><polygon
   id="path562"
   display="inline"
   fill="url(#path562_1_)"
   points="10.2,19 24.7,15.4 24.7,11.1 31.8,17.1 38.9,23.2       31.8,29.3 24.7,35.4 24.7,31 10.2,27.3 " /><linearGradient
   id="path574_1_"
   gradientUnits="userSpaceOnUse"
   x1="-108.7476"
   y1="330.8223"
   x2="-123.8416"
   y2="315.7279"
   gradientTransform="matrix(0.1875 0 0 -0.1875 52.9688 78.6563)"><stop
   offset="0"
   style="stop-color:#FFFFFF"
   id="stop620" /><stop
   offset="0.2111"
   style="stop-color:#FBFDFF"
   id="stop621" /><stop
   offset="0.4061"
   style="stop-color:#F0F8FF"
   id="stop622" /><stop
   offset="0.5949"
   style="stop-color:#DDEEFF"
   id="stop623" /><stop
   offset="0.7797"
   style="stop-color:#C3E1FF"
   id="stop624" /><stop
   offset="0.9601"
   style="stop-color:#A2D0FF"
   id="stop625" /><stop
   offset="1"
   style="stop-color:#99CCFF"
   id="stop626" /><a:midPointStop
   offset="0"
   style="stop-color:#FFFFFF"
   id="midPointStop627" /><a:midPointStop
   offset="0.5"
   style="stop-color:#FFFFFF"
   id="midPointStop628" /><a:midPointStop
   offset="0.2111"
   style="stop-color:#FBFDFF"
   id="midPointStop629" /><a:midPointStop
   offset="0.5"
   style="stop-color:#FBFDFF"
   id="midPointStop630" /><a:midPointStop
   offset="0.4061"
   style="stop-color:#F0F8FF"
   id="midPointStop631" /><a:midPointStop
   offset="0.5"
   style="stop-color:#F0F8FF"
   id="midPointStop632" /><a:midPointStop
   offset="0.5949"
   style="stop-color:#DDEEFF"
   id="midPointStop633" /><a:midPointStop
   offset="0.5"
   style="stop-color:#DDEEFF"
   id="midPointStop634" /><a:midPointStop
   offset="0.7797"
   style="stop-color:#C3E1FF"
   id="midPointStop635" /><a:midPointStop
   offset="0.5"
   style="stop-color:#C3E1FF"
   id="midPointStop636" /><a:midPointStop
   offset="0.9601"
   style="stop-color:#A2D0FF"
   id="midPointStop637" /><a:midPointStop
   offset="0.5"
   style="stop-color:#A2D0FF"
   id="midPointStop638" /><a:midPointStop
   offset="1"
   style="stop-color:#99CCFF"
   id="midPointStop639" /></linearGradient><path
   id="path574"
   i:isolated="yes"
   i:knockout="Off"
   display="inline"
   opacity="0.7"
   fill="url(#path574_1_)"
   enable-background="new    "
   d="      M25,13c0-0.3,0-0.5,0-0.7c1.4,1.2,6.2,5.3,6.2,5.3s5.8,4.9,6.6,5.7c-0.3,0.2-1.5,1.3-3.1,2.7C32.9,20.2,29.4,15.6,25,13z" /></g><path
   id="path575"
   fill="#660000"
   d="M1.2,23.6c0,12.7,10.3,22.9,22.9,22.9c12.6,0,22.9-10.3,22.9-22.9S36.8,0.6,24.2,0.6     C11.5,0.6,1.2,10.9,1.2,23.6z" /><path
   id="path576"
   fill="#660000"
   d="M24.2,1C11.7,1,1.6,11.1,1.6,23.6s10.1,22.6,22.6,22.6c12.4,0,22.6-10.1,22.6-22.6     S36.6,1,24.2,1z" /><radialGradient
   id="path586_1_"
   cx="-231.9141"
   cy="364.4902"
   r="259.5079"
   fx="-231.9141"
   fy="364.4902"
   gradientTransform="matrix(0.1875 0 0 -0.1875 52.9688 78.6563)"
   gradientUnits="userSpaceOnUse"><stop
   offset="5.600000e-003"
   style="stop-color:#FF9999"
   id="stop644" /><stop
   offset="0.5843"
   style="stop-color:#FF0000"
   id="stop645" /><stop
   offset="1"
   style="stop-color:#990000"
   id="stop646" /><a:midPointStop
   offset="5.600000e-003"
   style="stop-color:#FF9999"
   id="midPointStop647" /><a:midPointStop
   offset="0.5"
   style="stop-color:#FF9999"
   id="midPointStop648" /><a:midPointStop
   offset="0.5843"
   style="stop-color:#FF0000"
   id="midPointStop649" /><a:midPointStop
   offset="0.5"
   style="stop-color:#FF0000"
   id="midPointStop650" /><a:midPointStop
   offset="1"
   style="stop-color:#990000"
   id="midPointStop651" /></radialGradient><circle
   id="path586"
   fill="url(#path586_1_)"
   cx="24.2"
   cy="23.6"
   r="21.4" /><path
   id="path587"
   i:isolated="yes"
   i:knockout="Off"
   opacity="0.5"
   fill="#FFFFFF"
   enable-background="new    "
   d="M3.3,24.3     c0-11.8,9.6-21.4,21.4-21.4c6.9,0,13,3.2,16.9,8.3c-3.9-5.5-10.3-9-17.5-9c-11.8,0-21.4,9.6-21.4,21.4c0,5,1.7,9.6,4.5,13.2     C4.7,33.3,3.3,29,3.3,24.3z" /><linearGradient
   id="path594_1_"
   gradientUnits="userSpaceOnUse"
   x1="-154.9844"
   y1="406.502"
   x2="-154.9844"
   y2="317.5016"
   gradientTransform="matrix(0.1875 0 0 -0.1875 52.9688 78.6563)"><stop
   offset="5.600000e-003"
   style="stop-color:#FFFFFF"
   id="stop655" /><stop
   offset="1"
   style="stop-color:#FF5656"
   id="stop656" /><a:midPointStop
   offset="5.600000e-003"
   style="stop-color:#FFFFFF"
   id="midPointStop657" /><a:midPointStop
   offset="0.5"
   style="stop-color:#FFFFFF"
   id="midPointStop658" /><a:midPointStop
   offset="1"
   style="stop-color:#FF5656"
   id="midPointStop659" /></linearGradient><path
   id="path594"
   fill="url(#path594_1_)"
   d="M6.7,13.5c4.1,1.9,9.9,3,16.3,3c7.4,0,14-1.5,18.1-3.9c-3.4-5.9-9.7-9.8-17-9.8     C16.5,2.7,9.9,7.1,6.7,13.5z" /><path
   id="path595"
   fill="#660000"
   d="M30.2,7.8v6.3c3.1,2,5.2,5.5,5.2,9.5c0,6.2-5.1,11.3-11.3,11.3s-11.3-5.1-11.3-11.3     c0-4,2.1-7.5,5.2-9.5V7.8c-6.3,2.5-10.8,8.6-10.8,15.8c0,9.3,7.6,16.9,16.9,16.9s16.9-7.6,16.9-16.9     C41.1,16.4,36.6,10.2,30.2,7.8z" /><path
   id="path596"
   fill="#FFFFFF"
   d="M30.8,8.6v5.1c3.1,2.1,5.2,5.7,5.2,9.8c0,6.6-5.3,11.9-11.9,11.9c-6.6,0-11.9-5.3-11.9-11.9     c0-4.1,2.1-7.7,5.2-9.8V8.6c-5.7,2.6-9.7,8.3-9.7,15c0,9,7.3,16.4,16.4,16.4c9,0,16.4-7.3,16.4-16.4     C40.5,16.9,36.5,11.2,30.8,8.6z" /><path
   id="path597"
   fill="#660000"
   d="M21.1,6.2c-0.3,0-0.6,0.2-0.6,0.5v23c0,0.3,0.3,0.5,0.6,0.5h6.2c0.3,0,0.6-0.2,0.6-0.5v-23     c0-0.3-0.3-0.5-0.6-0.5H21.1z" /><rect
   id="path598"
   x="21.1"
   y="6.7"
   fill="#FFFFFF"
   width="6.2"
   height="23" /></g></svg>
