<?xml version="1.0" encoding="UTF-8" standalone="no"?>
<!DOCTYPE svg PUBLIC "-//W3C//DTD SVG 20010904//EN"
"http://www.w3.org/TR/2001/REC-SVG-20010904/DTD/svg10.dtd">
<!-- Created with Sodipodi ("http://www.sodipodi.com/") -->
<svg
   xmlns:x="http://ns.adobe.com/Extensibility/1.0/"
   xmlns:i="http://ns.adobe.com/AdobeIllustrator/10.0/"
   xmlns:graph="http://ns.adobe.com/Graphs/1.0/"
   xmlns="http://www.w3.org/2000/svg"
   xmlns:xlink="http://www.w3.org/1999/xlink"
   xmlns:a="http://ns.adobe.com/AdobeSVGViewerExtensions/3.0/"
   xml:space="preserve"
   i:viewOrigin="279.938 419.022"
   i:rulerOrigin="0 0"
   i:pageBounds="0 792 612 0"
   width="48"
   height="48"
   viewBox="0 0 48 48"
   overflow="visible"
   enable-background="new 0 0 48 48"
   xmlns:sodipodi="http://sodipodi.sourceforge.net/DTD/sodipodi-0.dtd"
   id="svg602"
   sodipodi:version="0.34"
   sodipodi:docname="C:\msys\home\su_blanc\mldonkey-2.5.12\src\gtk2\rsvg\menu_search_album.svg"><defs
   id="defs754" /><sodipodi:namedview
   id="namedview753" /><g
   id="Layer_x0020_1"
   i:knockout="Off"
   i:layer="yes"
   i:dimmedPercent="50"
   i:rgbTrio="#4F008000FFFF"><g
   id="g606"><ellipse
   id="path4"
   i:isolated="yes"
   i:knockout="Off"
   opacity="0.2"
   enable-background="new    "
   cx="20.8"
   cy="40.4"
   rx="19.2"
   ry="5.6" /><linearGradient
   id="XMLID_7_"
   gradientUnits="userSpaceOnUse"
   x1="-260.6304"
   y1="345.8052"
   x2="-154.9697"
   y2="345.8052"
   gradientTransform="matrix(0.3715 0 0 -0.3611 103.817 148.8358)"><stop
   offset="0"
   style="stop-color:#FFFFFF"
   id="stop609" /><stop
   offset="1"
   style="stop-color:#000000"
   id="stop610" /><a:midPointStop
   offset="0"
   style="stop-color:#FFFFFF"
   id="midPointStop611" /><a:midPointStop
   offset="0.5"
   style="stop-color:#FFFFFF"
   id="midPointStop612" /><a:midPointStop
   offset="1"
   style="stop-color:#000000"
   id="midPointStop613" /></linearGradient><path
   i:isolated="yes"
   i:knockout="Off"
   opacity="0.2"
   fill="url(#XMLID_7_)"
   enable-background="new    "
   d="M14.7,5.3      C6.1,10.5,4.4,23.1,11,33.4c6.6,10.3,18.9,14.4,27.6,9.2c8.6-5.2,10.3-17.8,3.7-28.1C35.7,4.2,23.3,0.1,14.7,5.3z M28.2,26.4      c-1.1,0.7-2.8,0.1-3.7-1.2c-0.9-1.4-0.7-3,0.5-3.7c1.1-0.7,2.8-0.1,3.7,1.2C29.6,24.1,29.4,25.7,28.2,26.4L28.2,26.4z"
   id="path614" /><linearGradient
   id="XMLID_8_"
   gradientUnits="userSpaceOnUse"
   x1="-245.6035"
   y1="308.8433"
   x2="-174.3523"
   y2="383.9552"
   gradientTransform="matrix(0.3715 0 0 -0.3611 103.817 148.8358)"><stop
   offset="1.120000e-002"
   style="stop-color:#98AFF2"
   id="stop616" /><stop
   offset="9.580000e-002"
   style="stop-color:#9DB3F3"
   id="stop617" /><stop
   offset="0.1985"
   style="stop-color:#ACBFF5"
   id="stop618" /><stop
   offset="0.3104"
   style="stop-color:#C4D2F8"
   id="stop619" /><stop
   offset="0.4282"
   style="stop-color:#E6ECFC"
   id="stop620" /><stop
   offset="0.5"
   style="stop-color:#FFFFFF"
   id="stop621" /><stop
   offset="0.5187"
   style="stop-color:#F7F9FE"
   id="stop622" /><stop
   offset="0.6105"
   style="stop-color:#D5DEFA"
   id="stop623" /><stop
   offset="0.7041"
   style="stop-color:#BACAF6"
   id="stop624" /><stop
   offset="0.7992"
   style="stop-color:#A7BBF4"
   id="stop625" /><stop
   offset="0.8967"
   style="stop-color:#9CB2F2"
   id="stop626" /><stop
   offset="1"
   style="stop-color:#98AFF2"
   id="stop627" /><a:midPointStop
   offset="1.120000e-002"
   style="stop-color:#98AFF2"
   id="midPointStop628" /><a:midPointStop
   offset="0.5"
   style="stop-color:#98AFF2"
   id="midPointStop629" /><a:midPointStop
   offset="9.580000e-002"
   style="stop-color:#9DB3F3"
   id="midPointStop630" /><a:midPointStop
   offset="0.5"
   style="stop-color:#9DB3F3"
   id="midPointStop631" /><a:midPointStop
   offset="0.1985"
   style="stop-color:#ACBFF5"
   id="midPointStop632" /><a:midPointStop
   offset="0.5"
   style="stop-color:#ACBFF5"
   id="midPointStop633" /><a:midPointStop
   offset="0.3104"
   style="stop-color:#C4D2F8"
   id="midPointStop634" /><a:midPointStop
   offset="0.5"
   style="stop-color:#C4D2F8"
   id="midPointStop635" /><a:midPointStop
   offset="0.4282"
   style="stop-color:#E6ECFC"
   id="midPointStop636" /><a:midPointStop
   offset="0.5"
   style="stop-color:#E6ECFC"
   id="midPointStop637" /><a:midPointStop
   offset="0.5"
   style="stop-color:#FFFFFF"
   id="midPointStop638" /><a:midPointStop
   offset="0.5"
   style="stop-color:#FFFFFF"
   id="midPointStop639" /><a:midPointStop
   offset="0.5187"
   style="stop-color:#F7F9FE"
   id="midPointStop640" /><a:midPointStop
   offset="0.5"
   style="stop-color:#F7F9FE"
   id="midPointStop641" /><a:midPointStop
   offset="0.6105"
   style="stop-color:#D5DEFA"
   id="midPointStop642" /><a:midPointStop
   offset="0.5"
   style="stop-color:#D5DEFA"
   id="midPointStop643" /><a:midPointStop
   offset="0.7041"
   style="stop-color:#BACAF6"
   id="midPointStop644" /><a:midPointStop
   offset="0.5"
   style="stop-color:#BACAF6"
   id="midPointStop645" /><a:midPointStop
   offset="0.7992"
   style="stop-color:#A7BBF4"
   id="midPointStop646" /><a:midPointStop
   offset="0.5"
   style="stop-color:#A7BBF4"
   id="midPointStop647" /><a:midPointStop
   offset="0.8967"
   style="stop-color:#9CB2F2"
   id="midPointStop648" /><a:midPointStop
   offset="0.5"
   style="stop-color:#9CB2F2"
   id="midPointStop649" /><a:midPointStop
   offset="1"
   style="stop-color:#98AFF2"
   id="midPointStop650" /></linearGradient><path
   fill="url(#XMLID_8_)"
   d="M13.9,5.1c-8.6,5.2-10.3,17.8-3.7,28.1c6.6,10.3,18.9,14.4,27.6,9.2c8.6-5.2,10.3-17.8,3.7-28.1      C34.8,4,22.5-0.1,13.9,5.1z M27.4,26.2c-1.1,0.7-2.8,0.1-3.7-1.2c-0.9-1.4-0.7-3,0.5-3.7c1.1-0.7,2.8-0.1,3.7,1.2      C28.7,23.9,28.5,25.5,27.4,26.2L27.4,26.2z"
   id="path651" /><linearGradient
   id="path34_1_"
   gradientUnits="userSpaceOnUse"
   x1="791.2231"
   y1="325.2622"
   x2="883.8178"
   y2="417.8568"
   gradientTransform="matrix(0.3154 -0.1908 -0.1963 -0.3066 -167.7451 296)"><stop
   offset="1.120000e-002"
   style="stop-color:#B1CAFF"
   id="stop653" /><stop
   offset="0.1108"
   style="stop-color:#B6CDFF"
   id="stop654" /><stop
   offset="0.2315"
   style="stop-color:#C5D8FF"
   id="stop655" /><stop
   offset="0.3631"
   style="stop-color:#DDE8FF"
   id="stop656" /><stop
   offset="0.5"
   style="stop-color:#FFFFFF"
   id="stop657" /><stop
   offset="0.5262"
   style="stop-color:#F8FAFF"
   id="stop658" /><stop
   offset="0.6396"
   style="stop-color:#DDE6FF"
   id="stop659" /><stop
   offset="0.7554"
   style="stop-color:#CAD8FF"
   id="stop660" /><stop
   offset="0.8741"
   style="stop-color:#BFD0FF"
   id="stop661" /><stop
   offset="1"
   style="stop-color:#BBCDFF"
   id="stop662" /><a:midPointStop
   offset="1.120000e-002"
   style="stop-color:#B1CAFF"
   id="midPointStop663" /><a:midPointStop
   offset="0.5"
   style="stop-color:#B1CAFF"
   id="midPointStop664" /><a:midPointStop
   offset="0.1108"
   style="stop-color:#B6CDFF"
   id="midPointStop665" /><a:midPointStop
   offset="0.5"
   style="stop-color:#B6CDFF"
   id="midPointStop666" /><a:midPointStop
   offset="0.2315"
   style="stop-color:#C5D8FF"
   id="midPointStop667" /><a:midPointStop
   offset="0.5"
   style="stop-color:#C5D8FF"
   id="midPointStop668" /><a:midPointStop
   offset="0.3631"
   style="stop-color:#DDE8FF"
   id="midPointStop669" /><a:midPointStop
   offset="0.5"
   style="stop-color:#DDE8FF"
   id="midPointStop670" /><a:midPointStop
   offset="0.5"
   style="stop-color:#FFFFFF"
   id="midPointStop671" /><a:midPointStop
   offset="0.5"
   style="stop-color:#FFFFFF"
   id="midPointStop672" /><a:midPointStop
   offset="0.5262"
   style="stop-color:#F8FAFF"
   id="midPointStop673" /><a:midPointStop
   offset="0.5"
   style="stop-color:#F8FAFF"
   id="midPointStop674" /><a:midPointStop
   offset="0.6396"
   style="stop-color:#DDE6FF"
   id="midPointStop675" /><a:midPointStop
   offset="0.5"
   style="stop-color:#DDE6FF"
   id="midPointStop676" /><a:midPointStop
   offset="0.7554"
   style="stop-color:#CAD8FF"
   id="midPointStop677" /><a:midPointStop
   offset="0.5"
   style="stop-color:#CAD8FF"
   id="midPointStop678" /><a:midPointStop
   offset="0.8741"
   style="stop-color:#BFD0FF"
   id="midPointStop679" /><a:midPointStop
   offset="0.5"
   style="stop-color:#BFD0FF"
   id="midPointStop680" /><a:midPointStop
   offset="1"
   style="stop-color:#BBCDFF"
   id="midPointStop681" /></linearGradient><path
   id="path34"
   fill="url(#path34_1_)"
   d="M23.7,25c-0.1-0.1-0.1-0.3-0.2-0.4L12.2,36c3.8,4.6,8.9,7.5,14,8.4l-0.6-17.9      C24.9,26.2,24.2,25.8,23.7,25z" /><linearGradient
   id="path46_1_"
   gradientUnits="userSpaceOnUse"
   x1="798.9536"
   y1="317.5054"
   x2="890.4121"
   y2="408.9638"
   gradientTransform="matrix(0.3154 -0.1908 -0.1963 -0.3066 -167.7451 296)"><stop
   offset="1.120000e-002"
   style="stop-color:#B1CAFF"
   id="stop684" /><stop
   offset="0.1108"
   style="stop-color:#B6CDFF"
   id="stop685" /><stop
   offset="0.2315"
   style="stop-color:#C5D8FF"
   id="stop686" /><stop
   offset="0.3631"
   style="stop-color:#DDE8FF"
   id="stop687" /><stop
   offset="0.5"
   style="stop-color:#FFFFFF"
   id="stop688" /><stop
   offset="0.5262"
   style="stop-color:#F8FAFF"
   id="stop689" /><stop
   offset="0.6396"
   style="stop-color:#DDE6FF"
   id="stop690" /><stop
   offset="0.7554"
   style="stop-color:#CAD8FF"
   id="stop691" /><stop
   offset="0.8741"
   style="stop-color:#BFD0FF"
   id="stop692" /><stop
   offset="1"
   style="stop-color:#BBCDFF"
   id="stop693" /><a:midPointStop
   offset="1.120000e-002"
   style="stop-color:#B1CAFF"
   id="midPointStop694" /><a:midPointStop
   offset="0.5"
   style="stop-color:#B1CAFF"
   id="midPointStop695" /><a:midPointStop
   offset="0.1108"
   style="stop-color:#B6CDFF"
   id="midPointStop696" /><a:midPointStop
   offset="0.5"
   style="stop-color:#B6CDFF"
   id="midPointStop697" /><a:midPointStop
   offset="0.2315"
   style="stop-color:#C5D8FF"
   id="midPointStop698" /><a:midPointStop
   offset="0.5"
   style="stop-color:#C5D8FF"
   id="midPointStop699" /><a:midPointStop
   offset="0.3631"
   style="stop-color:#DDE8FF"
   id="midPointStop700" /><a:midPointStop
   offset="0.5"
   style="stop-color:#DDE8FF"
   id="midPointStop701" /><a:midPointStop
   offset="0.5"
   style="stop-color:#FFFFFF"
   id="midPointStop702" /><a:midPointStop
   offset="0.5"
   style="stop-color:#FFFFFF"
   id="midPointStop703" /><a:midPointStop
   offset="0.5262"
   style="stop-color:#F8FAFF"
   id="midPointStop704" /><a:midPointStop
   offset="0.5"
   style="stop-color:#F8FAFF"
   id="midPointStop705" /><a:midPointStop
   offset="0.6396"
   style="stop-color:#DDE6FF"
   id="midPointStop706" /><a:midPointStop
   offset="0.5"
   style="stop-color:#DDE6FF"
   id="midPointStop707" /><a:midPointStop
   offset="0.7554"
   style="stop-color:#CAD8FF"
   id="midPointStop708" /><a:midPointStop
   offset="0.5"
   style="stop-color:#CAD8FF"
   id="midPointStop709" /><a:midPointStop
   offset="0.8741"
   style="stop-color:#BFD0FF"
   id="midPointStop710" /><a:midPointStop
   offset="0.5"
   style="stop-color:#BFD0FF"
   id="midPointStop711" /><a:midPointStop
   offset="1"
   style="stop-color:#BBCDFF"
   id="midPointStop712" /></linearGradient><path
   id="path46"
   fill="url(#path46_1_)"
   d="M26.7,21.4L38,10c-3.8-3.9-8.5-6.3-13.1-6.9L25.4,21C25.9,21,26.3,21.2,26.7,21.4z" /><g
   id="g47"
   i:knockout="Off"><path
   id="path48"
   i:isolated="yes"
   i:knockout="Off"
   opacity="0.8"
   fill="#FFFFFF"
   enable-background="new    "
   d="M23.7,25       c-0.1-0.1-0.1-0.3-0.2-0.4L12.2,36c3.8,4.6,8.9,7.5,14,8.4l-0.6-17.9C24.9,26.2,24.2,25.8,23.7,25z" /><path
   id="path49"
   i:isolated="yes"
   i:knockout="Off"
   opacity="0.8"
   fill="#FFFFFF"
   enable-background="new    "
   d="M26.7,21.4       L38,10c-3.8-3.9-8.5-6.3-13.1-6.9L25.4,21C25.9,21,26.3,21.2,26.7,21.4z" /></g><g
   id="g50"
   i:knockout="Off"
   opacity="0.4"><path
   id="path51"
   i:isolated="yes"
   i:knockout="Off"
   opacity="0.8"
   fill="#FFFFFF"
   enable-background="new    "
   d="M24.2,25.5       c-0.1-0.1-0.2-0.2-0.3-0.3l-7.7,14.6c4.6,3.6,10,5.2,14.9,4.8l-4.8-18C25.5,26.5,24.8,26.1,24.2,25.5L24.2,25.5z" /><path
   id="path52"
   i:isolated="yes"
   i:knockout="Off"
   opacity="0.8"
   fill="#FFFFFF"
   enable-background="new    "
   d="M26.1,21       l7.7-14.6C29.4,3.6,24.5,2.4,20,2.9l4.8,18C25.2,20.9,25.6,20.9,26.1,21L26.1,21z" /></g><g
   id="g53"
   i:knockout="Off"
   opacity="0.68"><path
   id="path54"
   i:isolated="yes"
   i:knockout="Off"
   opacity="0.9"
   fill="#FFFFFF"
   enable-background="new    "
   d="M26.6,26.2       c-0.1,0-0.3,0-0.4,0l9.2,17c4.6-1.8,7.8-5.7,9.2-10.6l-16.5-7.7C27.8,25.6,27.3,26.1,26.6,26.2L26.6,26.2z" /><path
   id="path55"
   i:isolated="yes"
   i:knockout="Off"
   opacity="0.9"
   fill="#FFFFFF"
   enable-background="new    "
   d="M23.6,21.4       l-9.2-17c-3.9,2.1-6.7,5.8-7.8,10.4l16.5,7.7C23.1,22.1,23.3,21.7,23.6,21.4L23.6,21.4z" /></g><linearGradient
   id="XMLID_1_"
   gradientUnits="userSpaceOnUse"
   x1="-200.374"
   y1="330.7876"
   x2="-108.1074"
   y2="181.6059"
   gradientTransform="matrix(0.3715 0 0 -0.3611 103.817 148.8358)"><stop
   offset="0"
   style="stop-color:#FFFFFF"
   id="stop724" /><stop
   offset="1"
   style="stop-color:#9195F2"
   id="stop725" /><a:midPointStop
   offset="0"
   style="stop-color:#FFFFFF"
   id="midPointStop726" /><a:midPointStop
   offset="0.5"
   style="stop-color:#FFFFFF"
   id="midPointStop727" /><a:midPointStop
   offset="1"
   style="stop-color:#9195F2"
   id="midPointStop728" /></linearGradient><path
   fill="url(#XMLID_1_)"
   d="M10.4,33.1c6.5,10.2,18.7,14.2,27.2,9.1c8.5-5.2,10.1-17.6,3.6-27.7C34.7,4.3,22.5,0.2,14,5.3      C5.5,10.5,3.9,22.9,10.4,33.1z M40.3,15c6.2,9.6,4.7,21.4-3.3,26.3c-3.3,2-7.4,2.6-11.5,1.6c-5.6-1.3-10.7-5-14.1-10.3      c-6.2-9.6-4.7-21.4,3.3-26.3C22.6,1.4,34.1,5.3,40.3,15L40.3,15z"
   id="path729" /><linearGradient
   id="XMLID_2_"
   gradientUnits="userSpaceOnUse"
   x1="-261.5469"
   y1="346.3667"
   x2="-158.4778"
   y2="346.3667"
   gradientTransform="matrix(0.3715 0 0 -0.3611 103.817 148.8358)"><stop
   offset="0"
   style="stop-color:#9AB1FF"
   id="stop731" /><stop
   offset="1"
   style="stop-color:#444973"
   id="stop732" /><a:midPointStop
   offset="0"
   style="stop-color:#9AB1FF"
   id="midPointStop733" /><a:midPointStop
   offset="0.5"
   style="stop-color:#9AB1FF"
   id="midPointStop734" /><a:midPointStop
   offset="1"
   style="stop-color:#444973"
   id="midPointStop735" /></linearGradient><path
   fill="url(#XMLID_2_)"
   d="M26.7,2.4C32.9,3.8,38.6,8,42.3,13.8c6.9,10.7,5,23.9-4.1,29.4c-9.1,5.5-22.1,1.3-28.9-9.4      c-2.7-4.3-4.2-9-4.2-13.7c0-1.7,0.2-3.3,0.6-4.9c1.1-4.6,3.8-8.5,7.7-10.8C17.2,2,21.9,1.4,26.7,2.4z M37.4,41.9      c8.4-5.1,10-17.4,3.6-27.4c-6.4-10-18.5-14-26.9-9C5.7,10.7,4.1,23,10.5,33C17,43,29,47,37.4,41.9z"
   id="path736" /><linearGradient
   id="XMLID_3_"
   gradientUnits="userSpaceOnUse"
   x1="-218.228"
   y1="346.3677"
   x2="-201.7867"
   y2="346.3677"
   gradientTransform="matrix(0.3715 0 0 -0.3611 103.817 148.8358)"><stop
   offset="0"
   style="stop-color:#9AB1FF"
   id="stop738" /><stop
   offset="1"
   style="stop-color:#444973"
   id="stop739" /><a:midPointStop
   offset="0"
   style="stop-color:#9AB1FF"
   id="midPointStop740" /><a:midPointStop
   offset="0.5"
   style="stop-color:#9AB1FF"
   id="midPointStop741" /><a:midPointStop
   offset="1"
   style="stop-color:#444973"
   id="midPointStop742" /></linearGradient><path
   fill="url(#XMLID_3_)"
   d="M23.3,25.2c1,1.6,3,2.3,4.3,1.4c1.4-0.8,1.6-2.8,0.6-4.4c-1-1.6-3-2.3-4.3-1.4      C22.6,21.7,22.3,23.6,23.3,25.2L23.3,25.2z M27,23c0.6,0.9,0.5,2-0.1,2.4c-0.6,0.4-1.7-0.1-2.3-1c-0.3-0.4-0.4-0.9-0.4-1.3      c0-0.5,0.2-0.9,0.5-1.1C25.3,21.7,26.4,22.1,27,23L27,23z"
   id="path743" /><linearGradient
   id="XMLID_4_"
   gradientUnits="userSpaceOnUse"
   x1="-225.8081"
   y1="346.3657"
   x2="-194.208"
   y2="346.3657"
   gradientTransform="matrix(0.3715 0 0 -0.3611 103.817 148.8358)"><stop
   offset="0"
   style="stop-color:#9AB1FF"
   id="stop745" /><stop
   offset="1"
   style="stop-color:#626AA4"
   id="stop746" /><a:midPointStop
   offset="0"
   style="stop-color:#9AB1FF"
   id="midPointStop747" /><a:midPointStop
   offset="0.5"
   style="stop-color:#9AB1FF"
   id="midPointStop748" /><a:midPointStop
   offset="1"
   style="stop-color:#626AA4"
   id="midPointStop749" /></linearGradient><path
   i:isolated="yes"
   i:knockout="Off"
   opacity="0.5"
   fill="url(#XMLID_4_)"
   enable-background="new    "
   d="M21.1,26.6      c2,3.1,5.7,4.3,8.3,2.8c2.6-1.6,3.1-5.4,1.1-8.5c-2-3.1-5.7-4.3-8.3-2.8C19.6,19.7,19.1,23.5,21.1,26.6L21.1,26.6z M22.5,25.7      c-1.4-2.1-1-4.8,0.8-5.9c1.8-1.1,4.4-0.2,5.8,1.9c1.4,2.1,1,4.8-0.8,5.9C26.5,28.7,23.9,27.9,22.5,25.7z"
   id="path750" /></g></g><g
   id="Layer_2_1_"
   i:layer="yes"
   i:dimmedPercent="3"
   i:rgbTrio="#FFFF4F004F00"><rect
   id="path3"
   i:knockout="Off"
   fill="none"
   width="48"
   height="48" /></g></svg>
