<?xml version="1.0" encoding="UTF-8" standalone="no"?>
<!DOCTYPE svg PUBLIC "-//W3C//DTD SVG 20010904//EN"
"http://www.w3.org/TR/2001/REC-SVG-20010904/DTD/svg10.dtd">
<!-- Created with Sodipodi ("http://www.sodipodi.com/") -->
<svg
   xmlns:x="http://ns.adobe.com/Extensibility/1.0/"
   xmlns:i="http://ns.adobe.com/AdobeIllustrator/10.0/"
   xmlns:graph="http://ns.adobe.com/Graphs/1.0/"
   xmlns="http://www.w3.org/2000/svg"
   xmlns:xlink="http://www.w3.org/1999/xlink"
   xmlns:a="http://ns.adobe.com/AdobeSVGViewerExtensions/3.0/"
   xml:space="preserve"
   i:viewOrigin="199.0581 427.166"
   i:rulerOrigin="0 1"
   i:pageBounds="0 791 612 -1"
   width="49.5"
   height="48.9"
   viewBox="0 0 49.5 48.9"
   overflow="visible"
   enable-background="new 0 0 49.5 48.9"
   xmlns:sodipodi="http://sodipodi.sourceforge.net/DTD/sodipodi-0.dtd"
   id="svg602"
   sodipodi:version="0.34"
   sodipodi:docname="C:\msys\home\su_blanc\mldonkey-2.5.12\src\gtk2\rsvg\menu_core_scanports.svg"><defs
   id="defs665" /><sodipodi:namedview
   id="base" /><g
   id="Layer_1"
   i:knockout="Off"
   i:layer="yes"
   i:dimmedPercent="50"
   i:rgbTrio="#4F008000FFFF"><g
   id="g606"
   i:knockout="Off"><rect
   id="rect606"
   x="0.9"
   i:knockout="Off"
   fill="none"
   width="48"
   height="48" /><circle
   id="circle608"
   fill="#007C00"
   cx="23.6"
   cy="26.8"
   r="20.3" /><rect
   id="rect609"
   x="30.7"
   y="7.4"
   transform="matrix(0.7741 0.633 -0.633 0.7741 15.3228 -19.7139)"
   fill="#007C00"
   width="9.2"
   height="8.5" /><linearGradient
   id="path624_1_"
   gradientUnits="userSpaceOnUse"
   x1="-587.1543"
   y1="384.6201"
   x2="-578.4807"
   y2="371.9307"
   gradientTransform="matrix(1 0 0 -1 599.7686 395.4434)"><stop
   offset="0"
   style="stop-color:#FFFFFF"
   id="stop611" /><stop
   offset="1"
   style="stop-color:#007C00"
   id="stop612" /><a:midPointStop
   offset="0"
   style="stop-color:#FFFFFF"
   id="midPointStop613" /><a:midPointStop
   offset="0.5"
   style="stop-color:#FFFFFF"
   id="midPointStop614" /><a:midPointStop
   offset="1"
   style="stop-color:#007C00"
   id="midPointStop615" /></linearGradient><path
   id="path624"
   fill="url(#path624_1_)"
   d="M29.7,11.1c2.8,4.4-0.1,11.5-6.6,15.6C16.8,31,9.3,30.9,6.5,26.5      C3.8,22.1,6.6,15,13.1,10.9C19.5,6.5,27,6.7,29.7,11.1z" /><linearGradient
   id="path631_1_"
   gradientUnits="userSpaceOnUse"
   x1="-753.7681"
   y1="56.0322"
   x2="-761.6434"
   y2="45.7818"
   gradientTransform="matrix(1.0733 9.580456e-002 9.580457e-002 1.1252 841.6487 54.8343)"><stop
   offset="0"
   style="stop-color:#00FF00"
   id="stop618" /><stop
   offset="1"
   style="stop-color:#007C00"
   id="stop619" /><a:midPointStop
   offset="0"
   style="stop-color:#00FF00"
   id="midPointStop620" /><a:midPointStop
   offset="0.5"
   style="stop-color:#00FF00"
   id="midPointStop621" /><a:midPointStop
   offset="1"
   style="stop-color:#007C00"
   id="midPointStop622" /></linearGradient><path
   id="path631"
   fill="url(#path631_1_)"
   d="M16.8,41.2c4.1,4.9,12.1,5.2,18.2,0.5c6.1-4.6,7.9-12.5,4.2-17.7L16.8,41.2z" /><linearGradient
   id="polygon638_1_"
   gradientUnits="userSpaceOnUse"
   x1="-795.6304"
   y1="-26.688"
   x2="-791.8807"
   y2="-23.8133"
   gradientTransform="matrix(0.7815 -0.2756 -0.2756 0.893 646.8628 -187.8082)"><stop
   offset="0"
   style="stop-color:#FFFFFF"
   id="stop625" /><stop
   offset="0.4326"
   style="stop-color:#007C00"
   id="stop626" /><a:midPointStop
   offset="0"
   style="stop-color:#FFFFFF"
   id="midPointStop627" /><a:midPointStop
   offset="0.5"
   style="stop-color:#FFFFFF"
   id="midPointStop628" /><a:midPointStop
   offset="0.4326"
   style="stop-color:#007C00"
   id="midPointStop629" /></linearGradient><polygon
   id="polygon638"
   fill="url(#polygon638_1_)"
   points="34.9,13 30.9,9.7 34.4,5.4 38.4,8.7 " /><ellipse
   id="ellipse639"
   transform="matrix(0.7837 0.6212 -0.6212 0.7837 13.2677 -22.0061)"
   fill="#FFFFFF"
   stroke="#007C00"
   stroke-width="0.7198"
   cx="38.2"
   cy="8"
   rx="4.4"
   ry="2.3" /><path
   id="path640"
   fill="none"
   stroke="#FFCA00"
   stroke-width="2.25"
   stroke-linecap="round"
   d="M45.1,1.7      C46.9,3,47,5.4,44.3,5.6c-1.1,0.1-2.3-0.5-3.4-0.3c-1,0.3-1.6,1.1-2.2,1.9" /></g><g
   id="g633"><path
   stroke="#000000"
   stroke-width="1.7296"
   d="M32.1,15.9c-0.9,0-1.6,0.4-2,1.1c-1.8,0-6.2,0-6.2,0c-2.5,0-5.1,1.8-7.8,5.4      c-1.3,1.8-2.5,3.6-3.1,4.5c-0.9,0-12,0-12,0v11.8c0,0,11.2,0,12,0c0.4,0.7,1.6,2.2,3.1,3.8c2.9,2.9,5.4,4.5,7.8,4.5      c0,0,4.5,0,6.5,0c0.4,0.7,1.3,1.1,2.2,1.1H35c1.1,0,2.5-0.7,2.5-2.7c0,0,0-2.5,0-4.2c2.5,0,8.5,0,8.5,0c1.6,0,2.7-1.1,2.7-2.7      v-1.3c0-1.6-1.1-2.7-2.7-2.7c0,0-6.3,0-8.5,0c0-1.8,0-4.2,0-6c2.5,0,8.5,0,8.5,0c1.6,0,2.7-1.1,2.7-2.7v-1.3      c0-1.6-1.1-2.7-2.7-2.7c0,0-6.3,0-8.5,0c0-1.6,0-3.3,0-3.3c0-1.3-1.1-2.5-2.5-2.5h-2.7H32.1z"
   id="path634" /><linearGradient
   id="XMLID_1_"
   gradientUnits="userSpaceOnUse"
   x1="38.5762"
   y1="36.583"
   x2="38.5762"
   y2="39.833"><stop
   offset="0"
   style="stop-color:#FF7C00"
   id="stop636" /><stop
   offset="1"
   style="stop-color:#FFFF00"
   id="stop637" /><a:midPointStop
   offset="0"
   style="stop-color:#FF7C00"
   id="midPointStop638" /><a:midPointStop
   offset="0.5"
   style="stop-color:#FF7C00"
   id="midPointStop639" /><a:midPointStop
   offset="1"
   style="stop-color:#FFFF00"
   id="midPointStop640" /></linearGradient><path
   fill="url(#XMLID_1_)"
   d="M46.8,38.9c0,0.4-0.4,0.9-0.9,0.9H31.2c-0.4,0-0.9-0.4-0.9-0.9v-1.3c0-0.4,0.4-0.9,0.9-0.9h14.7      c0.4,0,0.9,0.4,0.9,0.9V38.9z"
   id="path641" /><linearGradient
   id="XMLID_2_"
   gradientUnits="userSpaceOnUse"
   x1="-255.9238"
   y1="425.1504"
   x2="-255.9238"
   y2="422.3761"
   gradientTransform="matrix(1 0 0 -1 294.5 448.832)"><stop
   offset="0"
   style="stop-color:#FF7C00"
   id="stop643" /><stop
   offset="1"
   style="stop-color:#FFFF00"
   id="stop644" /><a:midPointStop
   offset="0"
   style="stop-color:#FF7C00"
   id="midPointStop645" /><a:midPointStop
   offset="0.5"
   style="stop-color:#FF7C00"
   id="midPointStop646" /><a:midPointStop
   offset="1"
   style="stop-color:#FFFF00"
   id="midPointStop647" /></linearGradient><path
   fill="url(#XMLID_2_)"
   d="M46.8,25.9c0,0.4-0.4,0.9-0.9,0.9H31.2c-0.4,0-0.9-0.4-0.9-0.9v-1.6c0-0.4,0.4-0.9,0.9-0.9h14.7      c0.4,0,0.9,0.4,0.9,0.9v1.3V25.9z"
   id="path648" /><radialGradient
   id="XMLID_3_"
   cx="-230.8672"
   cy="421.4023"
   r="12.5732"
   fx="-230.8672"
   fy="421.4023"
   gradientTransform="matrix(2 0 0 -2 481.5581 864.998)"
   gradientUnits="userSpaceOnUse"><stop
   offset="0"
   style="stop-color:#ECECEC"
   id="stop650" /><stop
   offset="1"
   style="stop-color:#8B8B8B"
   id="stop651" /><a:midPointStop
   offset="0"
   style="stop-color:#ECECEC"
   id="midPointStop652" /><a:midPointStop
   offset="0.5"
   style="stop-color:#ECECEC"
   id="midPointStop653" /><a:midPointStop
   offset="1"
   style="stop-color:#8B8B8B"
   id="midPointStop654" /></radialGradient><path
   fill="url(#XMLID_3_)"
   d="M2.6,28.6h10.7c0.2,0,0.7,0,0.7-0.4c0,0,5.1-9.4,9.8-9.4h7.8v-0.7c0-0.2,0.2-0.7,0.7-0.7H35      c0.4,0,0.7,0.4,0.7,0.7v27.4c0,0.7-0.2,0.9-0.7,0.9h-2.5c-0.7,0-0.9-0.4-0.9-0.9v-0.4h-7.8c-4.5,0-9.8-7.8-9.8-7.8      s-0.2-0.4-0.7-0.4H2.6V28.6z"
   id="path655" /><path
   i:isolated="yes"
   i:knockout="Off"
   opacity="0.5"
   fill="#FFFFFF"
   enable-background="new    "
   d="M2.6,28.6h10.9      c0.4,0,0.4-0.4,0.4-0.4c0.4-0.9,5.6-9.4,9.6-9.4h7.8l-7.8,0.4c-5.4,0.9-7.4,11.2-10.5,11.2H2.4v-1.8H2.6z"
   id="path656" /><linearGradient
   id="XMLID_4_"
   gradientUnits="userSpaceOnUse"
   x1="-264.834"
   y1="417.457"
   x2="-263.012"
   y2="417.457"
   gradientTransform="matrix(1 0 0 -1 294.5 448.832)"><stop
   offset="0"
   style="stop-color:#959595"
   id="stop658" /><stop
   offset="1"
   style="stop-color:#FFFFFF"
   id="stop659" /><a:midPointStop
   offset="0"
   style="stop-color:#959595"
   id="midPointStop660" /><a:midPointStop
   offset="0.5"
   style="stop-color:#959595"
   id="midPointStop661" /><a:midPointStop
   offset="1"
   style="stop-color:#FFFFFF"
   id="midPointStop662" /></linearGradient><polygon
   i:isolated="yes"
   i:knockout="Off"
   opacity="0.5"
   fill="url(#XMLID_4_)"
   enable-background="new    "
   points="      31.4,18.8 29.6,44 31.4,44 "
   id="polygon663" /></g></g></svg>
