<?xml version="1.0" encoding="UTF-8" standalone="no"?>
<!DOCTYPE svg PUBLIC "-//W3C//DTD SVG 20010904//EN"
"http://www.w3.org/TR/2001/REC-SVG-20010904/DTD/svg10.dtd">
<!-- Created with Sodipodi ("http://www.sodipodi.com/") -->
<svg
   xmlns:x="http://ns.adobe.com/Extensibility/1.0/"
   xmlns:i="http://ns.adobe.com/AdobeIllustrator/10.0/"
   xmlns:graph="http://ns.adobe.com/Graphs/1.0/"
   xmlns="http://www.w3.org/2000/svg"
   xmlns:xlink="http://www.w3.org/1999/xlink"
   xmlns:a="http://ns.adobe.com/AdobeSVGViewerExtensions/3.0/"
   xml:space="preserve"
   i:viewOrigin="283.4063 418.75"
   i:rulerOrigin="0 0"
   i:pageBounds="0 792 612 0"
   width="48"
   height="48"
   viewBox="0 0 48 48"
   overflow="visible"
   enable-background="new 0 0 48 48"
   xmlns:sodipodi="http://sodipodi.sourceforge.net/DTD/sodipodi-0.dtd"
   id="svg602"
   sodipodi:version="0.34"
   sodipodi:docname="C:\msys\home\su_blanc\mldonkey-2.5.12\src\gtk2\rsvg\menu_console.svg"><defs
   id="defs646" /><sodipodi:namedview
   id="base" /><g
   id="Layer_1"
   i:knockout="Off"
   i:layer="yes"
   i:dimmedPercent="50"
   i:rgbTrio="#4F00FFFF4F00"><path
   id="path157"
   i:isolated="yes"
   i:knockout="Off"
   opacity="0.2"
   enable-background="new    "
   d="M48,47.1     c0,0.5-0.4,0.9-0.8,0.9H2.3c-0.4,0-0.8-0.4-0.8-0.9V2.7c0-0.5,0.4-0.9,0.8-0.9h44.9c0.4,0,0.8,0.4,0.8,0.9V47.1z" /><linearGradient
   id="path164_1_"
   gradientUnits="userSpaceOnUse"
   x1="-561.978"
   y1="127.2021"
   x2="-313.978"
   y2="127.2021"
   gradientTransform="matrix(0.1875 0 0 0.1875 105.3711 -0.75)"><stop
   offset="0"
   style="stop-color:#999999"
   id="stop609" /><stop
   offset="1"
   style="stop-color:#666666"
   id="stop610" /><a:midPointStop
   offset="0"
   style="stop-color:#999999"
   id="midPointStop611" /><a:midPointStop
   offset="0.5"
   style="stop-color:#999999"
   id="midPointStop612" /><a:midPointStop
   offset="1"
   style="stop-color:#666666"
   id="midPointStop613" /></linearGradient><path
   id="path164"
   fill="url(#path164_1_)"
   d="M46.5,45.3c0,0.5-0.4,0.9-0.8,0.9H0.8c-0.4,0-0.8-0.4-0.8-0.9V0.9     C0,0.4,0.4,0,0.8,0h44.9c0.4,0,0.8,0.4,0.8,0.9V45.3z" /><linearGradient
   id="path171_1_"
   gradientUnits="userSpaceOnUse"
   x1="-558.1753"
   y1="13.498"
   x2="-317.2495"
   y2="240.8718"
   gradientTransform="matrix(0.1875 0 0 0.1875 105.3711 -0.75)"><stop
   offset="0"
   style="stop-color:#FFFFFF"
   id="stop616" /><stop
   offset="1"
   style="stop-color:#D4CCBF"
   id="stop617" /><a:midPointStop
   offset="0"
   style="stop-color:#FFFFFF"
   id="midPointStop618" /><a:midPointStop
   offset="0.5"
   style="stop-color:#FFFFFF"
   id="midPointStop619" /><a:midPointStop
   offset="1"
   style="stop-color:#D4CCBF"
   id="midPointStop620" /></linearGradient><path
   id="path171"
   fill="url(#path171_1_)"
   d="M1,1.1C1,1.5,1,44.6,1,45c0.4,0,44.1,0,44.5,0c0-0.4,0-43.5,0-43.9     C45.1,1.1,1.4,1.1,1,1.1z" /><linearGradient
   id="path178_1_"
   gradientUnits="userSpaceOnUse"
   x1="-411.7305"
   y1="151.6719"
   x2="-568.8046"
   y2="-1.6433"
   gradientTransform="matrix(0.1875 0 0 0.1875 105.3711 -0.75)"><stop
   offset="0"
   style="stop-color:#FFFFFF"
   id="stop623" /><stop
   offset="1"
   style="stop-color:#666666"
   id="stop624" /><a:midPointStop
   offset="0"
   style="stop-color:#FFFFFF"
   id="midPointStop625" /><a:midPointStop
   offset="0.5"
   style="stop-color:#FFFFFF"
   id="midPointStop626" /><a:midPointStop
   offset="1"
   style="stop-color:#666666"
   id="midPointStop627" /></linearGradient><path
   id="path178"
   fill="url(#path178_1_)"
   d="M40.5,37.5c0,0.5-0.4,0.9-0.8,0.9H5.5c-0.4,0-0.8-0.4-0.8-0.9V7     c0-0.5,0.4-0.9,0.8-0.9h34.2c0.4,0,0.8,0.4,0.8,0.9V37.5z" /><path
   id="path179"
   fill="#FFFFFF"
   d="M41.9,39.1c0,0.5-0.4,0.9-0.8,0.9L6,39.5c-0.4,0-0.5-0.6-0.5-1.1L6.1,8.6     c0-0.5,0.4-0.9,0.8-0.9L39.5,7c0.4,0,1.7,0.1,1.7,0.6L41.9,39.1z" /><path
   id="path180"
   fill="#003366"
   d="M41.1,38.2c0,0.5-0.4,0.9-0.8,0.9H6.1c-0.4,0-0.8-0.4-0.8-0.9V7.7c0-0.5,0.4-0.9,0.8-0.9     h34.2c0.4,0,0.8,0.4,0.8,0.9V38.2z" /><path
   id="path181"
   fill="#3399FF"
   d="M6.3,7.9c0,0.4,0,29.6,0,30c0.4,0,33.4,0,33.8,0c0-0.4,0-29.6,0-30     C39.7,7.9,6.7,7.9,6.3,7.9z" /><linearGradient
   id="path188_1_"
   gradientUnits="userSpaceOnUse"
   x1="-510.0913"
   y1="25.5332"
   x2="-399.2717"
   y2="143.6911"
   gradientTransform="matrix(0.1875 0 0 0.1875 105.3711 -0.75)"><stop
   offset="0"
   style="stop-color:#FFFFFF"
   id="stop633" /><stop
   offset="1"
   style="stop-color:#3399FF"
   id="stop634" /><a:midPointStop
   offset="0"
   style="stop-color:#FFFFFF"
   id="midPointStop635" /><a:midPointStop
   offset="0.5"
   style="stop-color:#FFFFFF"
   id="midPointStop636" /><a:midPointStop
   offset="1"
   style="stop-color:#3399FF"
   id="midPointStop637" /></linearGradient><path
   id="path188"
   fill="url(#path188_1_)"
   d="M33,19.2c3.3-2.7,5.2-6.1,7.1-9.7c0-1,0-1.5,0-1.6c-0.4,0-33.4,0-33.8,0     c0,0.3,0,12.3,0,21c2.1-2,4.6-3.5,7.2-4.5C20,22.2,27,24,33,19.2z" /><g
   id="g189"
   i:knockout="Off"><path
   id="path190"
   d="M9.6,35.4c-0.8-0.1-1.5-0.3-2.1-0.8l0.6-1.7c0.7,0.6,1.4,0.8,2,0.8c1,0,1.5-0.4,1.5-1.2      c0-0.4-0.1-0.8-0.4-1.1c-0.3-0.3-0.8-0.7-1.5-1.1c-0.7-0.4-1.2-0.8-1.5-1c-0.3-0.3-0.5-0.6-0.6-1c-0.1-0.4-0.2-0.8-0.2-1.3      c0-0.7,0.2-1.3,0.6-1.8s0.9-0.9,1.5-1v-1.4H11v1.3c0.8,0.1,1.4,0.3,1.8,0.7l-0.5,1.7c-0.6-0.5-1.2-0.7-1.9-0.7      c-0.4,0-0.7,0.1-0.9,0.4c-0.2,0.2-0.3,0.5-0.3,0.9c0,0.6,0.6,1.3,1.8,2c0.6,0.4,1.1,0.7,1.4,1c0.3,0.3,0.5,0.7,0.7,1.1      c0.1,0.4,0.2,0.9,0.2,1.3c0,0.7-0.2,1.3-0.6,1.8c-0.4,0.5-1,0.9-1.7,1.1V37H9.6V35.4L9.6,35.4z" /><polygon
   id="path191"
   points="16.2,34 16.2,32.3 19.7,30.5 16.2,28.7 16.2,27 21.5,29.9 21.5,31.1 " /></g><g
   id="g192"
   i:knockout="Off"><path
   id="path193"
   fill="#FFFFFF"
   d="M9.2,35c-0.8-0.1-1.5-0.3-2.1-0.8l0.6-1.7c0.7,0.6,1.4,0.8,2,0.8c1,0,1.5-0.4,1.5-1.2      c0-0.4-0.1-0.8-0.4-1.1c-0.3-0.3-0.8-0.7-1.5-1.1c-0.7-0.4-1.2-0.8-1.5-1c-0.3-0.3-0.5-0.6-0.6-1C7.1,27.5,7,27.1,7,26.6      c0-0.7,0.2-1.3,0.6-1.8s0.9-0.9,1.5-1v-1.4h1.5v1.3c0.8,0.1,1.4,0.3,1.8,0.7L12,26c-0.6-0.5-1.2-0.7-1.9-0.7      c-0.4,0-0.7,0.1-0.9,0.4C9,26,8.9,26.2,8.9,26.6c0,0.6,0.6,1.3,1.8,2c0.6,0.4,1.1,0.7,1.4,1c0.3,0.3,0.5,0.7,0.7,1.1      c0.1,0.4,0.2,0.9,0.2,1.3c0,0.7-0.2,1.3-0.6,1.8s-1,0.9-1.7,1.1v1.7H9.2V35L9.2,35z" /><polygon
   id="path194"
   fill="#FFFFFF"
   points="15.8,33.5 15.8,31.8 19.3,30 15.8,28.2 15.8,26.5 21.1,29.4 21.1,30.6 " /></g></g></svg>
