<?xml version="1.0" encoding="UTF-8" standalone="no"?>
<!DOCTYPE svg PUBLIC "-//W3C//DTD SVG 20010904//EN"
"http://www.w3.org/TR/2001/REC-SVG-20010904/DTD/svg10.dtd">
<!-- Created with Sodipodi ("http://www.sodipodi.com/") -->
<svg
   xmlns:x="http://ns.adobe.com/Extensibility/1.0/"
   xmlns:i="http://ns.adobe.com/AdobeIllustrator/10.0/"
   xmlns:graph="http://ns.adobe.com/Graphs/1.0/"
   xmlns="http://www.w3.org/2000/svg"
   xmlns:xlink="http://www.w3.org/1999/xlink"
   xmlns:a="http://ns.adobe.com/AdobeSVGViewerExtensions/3.0/"
   xml:space="preserve"
   i:viewOrigin="282.1104 417.3477"
   i:rulerOrigin="0 0"
   i:pageBounds="0 792 612 0"
   width="48"
   height="48"
   viewBox="0 0 48 48"
   overflow="visible"
   enable-background="new 0 0 48 48"
   xmlns:sodipodi="http://sodipodi.sourceforge.net/DTD/sodipodi-0.dtd"
   id="svg602"
   sodipodi:version="0.34"
   sodipodi:docname="C:\msys\home\su_blanc\mldonkey-2.5.12\src\gtk2\rsvg\menu_graph.svg"><defs
   id="defs713" /><sodipodi:namedview
   id="base" /><g
   id="g1038"
   i:knockout="Off"
   i:layer="yes"
   i:dimmedPercent="50"
   i:rgbTrio="#4F008000FFFF"><path
   id="path607"
   i:isolated="yes"
   i:knockout="Off"
   opacity="0.2"
   enable-background="new    "
   d="M46.4,3.1H6.3v37.1h40.1     c0.4,0,0.8-0.3,0.8-0.7V3.8C47.1,3.4,46.8,3.1,46.4,3.1z" /><linearGradient
   id="path614_1_"
   gradientUnits="userSpaceOnUse"
   x1="-1565.5562"
   y1="20.8486"
   x2="-1438.9542"
   y2="20.8486"
   gradientTransform="matrix(0.3479 0 0 0.2983 545.2225 12.9311)"><stop
   offset="0"
   style="stop-color:#999999"
   id="stop608" /><stop
   offset="1"
   style="stop-color:#666666"
   id="stop609" /><a:midPointStop
   offset="0"
   style="stop-color:#999999"
   id="midPointStop610" /><a:midPointStop
   offset="0.5"
   style="stop-color:#999999"
   id="midPointStop611" /><a:midPointStop
   offset="1"
   style="stop-color:#666666"
   id="midPointStop612" /></linearGradient><path
   id="path614"
   fill="url(#path614_1_)"
   d="M1.3,0C0.6,0,0,0.6,0,1.3V37c0,0.7,0.6,1.3,1.3,1.3h42.5c0.7,0,1.3-0.6,1.3-1.3     V1.3c0-0.7-0.6-1.3-1.3-1.3H1.3L1.3,0z" /><linearGradient
   id="path615_1_"
   gradientUnits="userSpaceOnUse"
   x1="-1565.543"
   y1="20.6807"
   x2="-1438.9553"
   y2="20.6807"
   gradientTransform="matrix(0.3479 0 0 0.2983 545.2225 12.9311)"><stop
   offset="0"
   style="stop-color:#999999"
   id="stop615" /><stop
   offset="1"
   style="stop-color:#666666"
   id="stop616" /><a:midPointStop
   offset="0"
   style="stop-color:#999999"
   id="midPointStop617" /><a:midPointStop
   offset="0.5"
   style="stop-color:#999999"
   id="midPointStop618" /><a:midPointStop
   offset="1"
   style="stop-color:#666666"
   id="midPointStop619" /></linearGradient><path
   id="path615"
   fill="url(#path615_1_)"
   d="M44.6,36.9c0,0.4-0.3,0.7-0.8,0.7H1.3c-0.4,0-0.8-0.3-0.8-0.7V1.3     c0-0.4,0.3-0.7,0.8-0.7h42.5c0.4,0,0.8,0.3,0.8,0.7V36.9L44.6,36.9z" /><linearGradient
   id="path622_1_"
   gradientUnits="userSpaceOnUse"
   x1="-1563.4111"
   y1="-36.9014"
   x2="-1441.1042"
   y2="78.5256"
   gradientTransform="matrix(0.3479 0 0 0.2983 545.2225 12.9311)"><stop
   offset="0"
   style="stop-color:#FFFFFF"
   id="stop622" /><stop
   offset="1"
   style="stop-color:#D4CCBF"
   id="stop623" /><a:midPointStop
   offset="0"
   style="stop-color:#FFFFFF"
   id="midPointStop624" /><a:midPointStop
   offset="0.5"
   style="stop-color:#FFFFFF"
   id="midPointStop625" /><a:midPointStop
   offset="1"
   style="stop-color:#D4CCBF"
   id="midPointStop626" /></linearGradient><path
   id="path622"
   fill="url(#path622_1_)"
   d="M1.5,1.5c0,0.4,0,34.9,0,35.3c0.4,0,41.8,0,42.2,0c0-0.4,0-34.9,0-35.3     C43.3,1.5,1.9,1.5,1.5,1.5z" /><linearGradient
   id="path629_1_"
   gradientUnits="userSpaceOnUse"
   x1="-1489.0977"
   y1="33.2744"
   x2="-1568.8461"
   y2="-44.5654"
   gradientTransform="matrix(0.3479 0 0 0.2983 545.2225 12.9311)"><stop
   offset="0"
   style="stop-color:#FFFFFF"
   id="stop629" /><stop
   offset="1"
   style="stop-color:#666666"
   id="stop630" /><a:midPointStop
   offset="0"
   style="stop-color:#FFFFFF"
   id="midPointStop631" /><a:midPointStop
   offset="0.5"
   style="stop-color:#FFFFFF"
   id="midPointStop632" /><a:midPointStop
   offset="1"
   style="stop-color:#666666"
   id="midPointStop633" /></linearGradient><path
   id="path629"
   fill="url(#path629_1_)"
   d="M38.9,30.7c0,0.4-0.3,0.7-0.8,0.7H5.7c-0.4,0-0.8-0.3-0.8-0.7V6.2     c0-0.4,0.3-0.7,0.8-0.7h32.4c0.4,0,0.8,0.3,0.8,0.7V30.7L38.9,30.7z" /><path
   id="path630"
   fill="#FFFFFF"
   d="M40.2,32c0,0.4-0.3,0.7-0.8,0.7L6.2,32.3c-0.4,0-0.5-0.4-0.5-0.8l0.6-24     c0-0.4,0.3-0.7,0.8-0.7l31-0.5c0.4,0,1.6,0.1,1.6,0.5L40.2,32z" /><path
   id="path631"
   fill="#003366"
   d="M39.5,31.2c0,0.4-0.3,0.7-0.8,0.7H6.3c-0.4,0-0.8-0.3-0.8-0.7V6.7C5.5,6.3,5.9,6,6.3,6h32.4     c0.4,0,0.8,0.3,0.8,0.7V31.2L39.5,31.2z" /><path
   id="path632"
   fill="#3399FF"
   d="M6.5,6.9c0,0.4,0,23.8,0,24.1c0.4,0,31.7,0,32,0c0-0.4,0-23.8,0-24.1     C38.1,6.9,6.8,6.9,6.5,6.9z" /><linearGradient
   id="path188_1_"
   gradientUnits="userSpaceOnUse"
   x1="-846.2998"
   y1="417.2979"
   x2="-845.4459"
   y2="416.2606"
   gradientTransform="matrix(31.8548 0 0 -17.8164 26967.7227 7441.7368)"><stop
   offset="0"
   style="stop-color:#C7FFFF"
   id="stop639" /><stop
   offset="1"
   style="stop-color:#3399FF"
   id="stop640" /><a:midPointStop
   offset="0"
   style="stop-color:#C7FFFF"
   id="midPointStop641" /><a:midPointStop
   offset="0.5"
   style="stop-color:#C7FFFF"
   id="midPointStop642" /><a:midPointStop
   offset="1"
   style="stop-color:#3399FF"
   id="midPointStop643" /></linearGradient><path
   id="path188"
   fill="url(#path188_1_)"
   d="M31.7,16.7c3.1-2.3,4.9-5.2,6.6-8.2c0-0.8,0-1.3,0-1.4c-0.4,0-31.6,0-32,0     c0,0.2,0,10.4,0,17.8c2-1.7,4.3-3,6.8-3.8C19.4,19.2,26.1,20.7,31.7,16.7z" /></g><g
   id="Layer_2_1_"
   i:knockout="Off"
   i:layer="yes"
   i:dimmedPercent="50"
   i:rgbTrio="#4F004F00FFFF"><linearGradient
   id="path570_1_"
   gradientUnits="userSpaceOnUse"
   x1="-1578.8862"
   y1="410.9941"
   x2="-1578.0698"
   y2="410.9941"
   gradientTransform="matrix(37.7297 0 0 37.0588 59578.1563 -15210.6738)"><stop
   offset="0"
   style="stop-color:#FF6666"
   id="stop647" /><stop
   offset="0.5786"
   style="stop-color:#FF0000"
   id="stop648" /><stop
   offset="1"
   style="stop-color:#CF0000"
   id="stop649" /><a:midPointStop
   offset="0"
   style="stop-color:#FF6666"
   id="midPointStop650" /><a:midPointStop
   offset="0.5"
   style="stop-color:#FF6666"
   id="midPointStop651" /><a:midPointStop
   offset="0.5786"
   style="stop-color:#FF0000"
   id="midPointStop652" /><a:midPointStop
   offset="0.5"
   style="stop-color:#FF0000"
   id="midPointStop653" /><a:midPointStop
   offset="1"
   style="stop-color:#CF0000"
   id="midPointStop654" /></linearGradient><path
   id="path570"
   i:isolated="yes"
   i:knockout="Off"
   opacity="0.2"
   fill="url(#path570_1_)"
   enable-background="new    "
   d="     M25.5,29.2l-3.7-12.6L20,21.8L16.4,14L12,25.1l-2.1-3.4l-2.6,5.1v0.1c0.3,0,0.6,0,0.9,0c0.4-0.8,1.3-2.5,1.8-3.5     c0.6,1,2.2,3.5,2.2,3.5s3.5-8.7,4.3-10.9c0.8,1.9,3.5,7.9,3.5,7.9s1.1-3.3,1.6-4.8C22.4,22,25.4,32,25.4,32l0.6-2.3     c0,0,4.4-15.7,5.2-18.8c1,2.4,4.9,11.9,5.9,14.3c0.3,0,0.6,0,0.9,0L31.3,8.5L25.5,29.2z" /><linearGradient
   id="path580_1_"
   gradientUnits="userSpaceOnUse"
   x1="-1578.8643"
   y1="-113.9785"
   x2="-1578.0468"
   y2="-113.9785"
   gradientTransform="matrix(37.7301 0 0 25.5987 59577.9883 2937.136)"><stop
   offset="0"
   style="stop-color:#FF6666"
   id="stop657" /><stop
   offset="0.5786"
   style="stop-color:#FF0000"
   id="stop658" /><stop
   offset="1"
   style="stop-color:#CF0000"
   id="stop659" /><a:midPointStop
   offset="0"
   style="stop-color:#FF6666"
   id="midPointStop660" /><a:midPointStop
   offset="0.5"
   style="stop-color:#FF6666"
   id="midPointStop661" /><a:midPointStop
   offset="0.5786"
   style="stop-color:#FF0000"
   id="midPointStop662" /><a:midPointStop
   offset="0.5"
   style="stop-color:#FF0000"
   id="midPointStop663" /><a:midPointStop
   offset="1"
   style="stop-color:#CF0000"
   id="midPointStop664" /></linearGradient><path
   id="path580"
   fill="url(#path580_1_)"
   d="M24.8,28.4L21,15.8L19.3,21l-3.5-7.8l-4.4,11.1l-2.1-3.4L6.7,26v0.1     c0.3,0,0.6,0,0.9,0c0.4-0.8,1.3-2.5,1.8-3.5c0.6,1,2.2,3.5,2.2,3.5s3.5-8.7,4.3-10.9c0.8,1.9,3.5,7.9,3.5,7.9s1.1-3.3,1.6-4.8     c0.8,2.9,3.7,12.9,3.7,12.9l0.6-2.3c0,0,4.4-15.7,5.2-18.8c1,2.4,4.9,11.9,5.9,14.3c0.3,0,0.6,0,0.9,0L30.6,7.7L24.8,28.4z" /></g><g
   id="g702"
   i:knockout="Off"
   i:layer="yes"
   i:dimmedPercent="50"
   i:rgbTrio="#4F004F00FFFF"><path
   id="path2923"
   d="M29,25.9c-2.3,2.2-3.4,5.1-3.4,8.2v2.6c0,3.1,1.3,6,3.4,8.2c2.1,2,4.9,3.1,7.8,3.1c3,0,5.8-1.1,7.8-3.1     c2.3-2.2,3.4-5.1,3.4-8.2v-2.6c0-3.1-1.3-6-3.4-8.2c-2.1-2.1-4.9-3.1-7.8-3.1C33.9,22.7,31.1,23.8,29,25.9z" /><linearGradient
   id="path2927_1_"
   gradientUnits="userSpaceOnUse"
   x1="-1411.4272"
   y1="26.9326"
   x2="-1401.5179"
   y2="41.1717"
   gradientTransform="matrix(0.763 0 0 0.9508 1110.0913 4.2152)"><stop
   offset="0"
   style="stop-color:#C09287"
   id="stop669" /><stop
   offset="1"
   style="stop-color:#803926"
   id="stop670" /><a:midPointStop
   offset="0"
   style="stop-color:#C09287"
   id="midPointStop671" /><a:midPointStop
   offset="0.5"
   style="stop-color:#C09287"
   id="midPointStop672" /><a:midPointStop
   offset="1"
   style="stop-color:#803926"
   id="midPointStop673" /></linearGradient><path
   id="path2927"
   fill="url(#path2927_1_)"
   d="M46.8,33.5c-1.2-4.2-5.2-7.4-10.1-7.4c-4.9,0-8.9,3.1-10.1,7.4h-0.4v2.6     c0,5.5,4.7,10,10.4,10c5.8,0,10.4-4.5,10.4-10v-2.6H46.8z" /><linearGradient
   id="path2931_1_"
   gradientUnits="userSpaceOnUse"
   x1="-1411.4155"
   y1="24.0264"
   x2="-1401.4363"
   y2="38.3659"
   gradientTransform="matrix(0.763 0 0 0.9508 1110.0913 4.2152)"><stop
   offset="0"
   style="stop-color:#FF0000"
   id="stop676" /><stop
   offset="1"
   style="stop-color:#FF7700"
   id="stop677" /><a:midPointStop
   offset="0"
   style="stop-color:#FF0000"
   id="midPointStop678" /><a:midPointStop
   offset="0.5"
   style="stop-color:#FF0000"
   id="midPointStop679" /><a:midPointStop
   offset="1"
   style="stop-color:#FF7700"
   id="midPointStop680" /></linearGradient><path
   id="path2931"
   fill="url(#path2931_1_)"
   d="M47.2,33.5c0,5.5-4.7,10-10.4,10c-5.8,0-10.4-4.4-10.4-10c0-5.5,4.7-10,10.4-10     S47.2,28,47.2,33.5z" /><linearGradient
   id="path2935_1_"
   gradientUnits="userSpaceOnUse"
   x1="-1407.9092"
   y1="31.5371"
   x2="-1396.4155"
   y2="37.8638"
   gradientTransform="matrix(0.763 0 0 0.9508 1110.0913 4.2152)"><stop
   offset="0"
   style="stop-color:#2C7894"
   id="stop683" /><stop
   offset="1"
   style="stop-color:#0E3D47"
   id="stop684" /><a:midPointStop
   offset="0"
   style="stop-color:#2C7894"
   id="midPointStop685" /><a:midPointStop
   offset="0.5"
   style="stop-color:#2C7894"
   id="midPointStop686" /><a:midPointStop
   offset="1"
   style="stop-color:#0E3D47"
   id="midPointStop687" /></linearGradient><path
   id="path2935"
   fill="url(#path2935_1_)"
   d="M47.2,36.5v-2.7c-1.2,5.6-3.7,8.1-6.8,9.2v2.5C43.8,44.3,47,41.4,47.2,36.5     L47.2,36.5z" /><linearGradient
   id="path2939_1_"
   gradientUnits="userSpaceOnUse"
   x1="-1412.3545"
   y1="22.6211"
   x2="-1397.1243"
   y2="36.1332"
   gradientTransform="matrix(0.763 0 0 0.9508 1110.0913 4.2152)"><stop
   offset="0"
   style="stop-color:#2381FF"
   id="stop690" /><stop
   offset="1"
   style="stop-color:#0000FF"
   id="stop691" /><a:midPointStop
   offset="0"
   style="stop-color:#2381FF"
   id="midPointStop692" /><a:midPointStop
   offset="0.5"
   style="stop-color:#2381FF"
   id="midPointStop693" /><a:midPointStop
   offset="1"
   style="stop-color:#0000FF"
   id="midPointStop694" /></linearGradient><path
   id="path2939"
   fill="url(#path2939_1_)"
   d="M47.2,33.5c-0.3,6.4-5.7,9.3-6.9,9.4l-3.5-9.4H47.2z" /><linearGradient
   id="path2943_1_"
   gradientUnits="userSpaceOnUse"
   x1="-1422.3564"
   y1="34.5859"
   x2="-1403.8969"
   y2="43.2169"
   gradientTransform="matrix(0.763 0 0 0.9508 1110.0913 4.2152)"><stop
   offset="0"
   style="stop-color:#E8F066"
   id="stop697" /><stop
   offset="1"
   style="stop-color:#777A34"
   id="stop698" /><a:midPointStop
   offset="0"
   style="stop-color:#E8F066"
   id="midPointStop699" /><a:midPointStop
   offset="0.5"
   style="stop-color:#E8F066"
   id="midPointStop700" /><a:midPointStop
   offset="1"
   style="stop-color:#777A34"
   id="midPointStop701" /></linearGradient><path
   id="path2943"
   fill="url(#path2943_1_)"
   d="M34.6,45.9v-2.6c2,0.4,3.8,0.4,5.7-0.3v2.5C38.6,46.4,36.1,46.4,34.6,45.9     L34.6,45.9L34.6,45.9z" /><linearGradient
   id="path2947_1_"
   gradientUnits="userSpaceOnUse"
   x1="-1418.7251"
   y1="27.2861"
   x2="-1401.366"
   y2="41.4668"
   gradientTransform="matrix(0.763 0 0 0.9508 1110.0913 4.2152)"><stop
   offset="0"
   style="stop-color:#FFFF00"
   id="stop704" /><stop
   offset="1"
   style="stop-color:#FACA00"
   id="stop705" /><a:midPointStop
   offset="0"
   style="stop-color:#FFFF00"
   id="midPointStop706" /><a:midPointStop
   offset="0.5"
   style="stop-color:#FFFF00"
   id="midPointStop707" /><a:midPointStop
   offset="1"
   style="stop-color:#FACA00"
   id="midPointStop708" /></linearGradient><path
   id="path2947"
   fill="url(#path2947_1_)"
   d="M36.8,33.5l3.5,9.4c-2.2,1.2-5.7,0.4-5.7,0.4L36.8,33.5L36.8,33.5z" /><path
   id="path2948"
   i:isolated="yes"
   i:knockout="Off"
   opacity="0.45"
   fill="#ECCFC7"
   enable-background="new    "
   d="M43.7,26.1     c0,0,3.7,3,3.4,7.8c-0.3,4.8-5,11.1-12.7,9.3c7.7,0.7,11.9-5.3,12.2-9.2C46.9,30.2,45.1,27.8,43.7,26.1z" /><path
   id="path2949"
   fill="#EDA18C"
   d="M33.4,42.9c-3.1-0.8-7.2-4.5-7-9.7c0.1-4.9,4.5-10.7,12.4-9.6c-7.7-0.5-11.8,4.9-12,9.3     C26.7,37.1,30.1,41.9,33.4,42.9z" /></g></svg>
