<?xml version="1.0" encoding="UTF-8" standalone="no"?>
<!DOCTYPE svg PUBLIC "-//W3C//DTD SVG 20010904//EN"
"http://www.w3.org/TR/2001/REC-SVG-20010904/DTD/svg10.dtd">
<!-- Created with Sodipodi ("http://www.sodipodi.com/") -->
<svg
   xmlns:x="http://ns.adobe.com/Extensibility/1.0/"
   xmlns:i="http://ns.adobe.com/AdobeIllustrator/10.0/"
   xmlns:graph="http://ns.adobe.com/Graphs/1.0/"
   xmlns="http://www.w3.org/2000/svg"
   xmlns:xlink="http://www.w3.org/1999/xlink"
   xmlns:a="http://ns.adobe.com/AdobeSVGViewerExtensions/3.0/"
   xml:space="preserve"
   i:viewOrigin="275.4268 422.6821"
   i:rulerOrigin="0 0"
   i:pageBounds="0 792 612 0"
   width="48"
   height="48"
   viewBox="0 0 48 48"
   overflow="visible"
   enable-background="new 0 0 48 48"
   xmlns:sodipodi="http://sodipodi.sourceforge.net/DTD/sodipodi-0.dtd"
   id="svg602"
   sodipodi:version="0.34"
   sodipodi:docname="C:\msys\home\su_blanc\mldonkey-2.5.12\src\gtk2\rsvg\menu_networks.svg"><defs
   id="defs684" /><sodipodi:namedview
   id="base" /><g
   id="Layer_x0020_1"
   i:knockout="Off"
   i:layer="yes"
   i:dimmedPercent="50"
   i:rgbTrio="#4F008000FFFF"><circle
   id="path622_6_"
   i:isolated="yes"
   i:knockout="Off"
   opacity="0.1"
   enable-background="new    "
   cx="24"
   cy="24"
   r="24" /><circle
   id="path622_4_"
   i:isolated="yes"
   i:knockout="Off"
   opacity="0.2"
   enable-background="new    "
   cx="24"
   cy="24"
   r="23.5" /><circle
   id="path622_5_"
   i:isolated="yes"
   i:knockout="Off"
   opacity="0.4"
   enable-background="new    "
   cx="24"
   cy="24"
   r="23" /><radialGradient
   id="path622_7_"
   cx="-894.1841"
   cy="331.6089"
   r="319.4634"
   fx="-894.1841"
   fy="331.6089"
   gradientTransform="matrix(0.1169 0 0 0.1169 134.2434 1.7589)"
   gradientUnits="userSpaceOnUse"><stop
   offset="0"
   style="stop-color:#90B2D4"
   id="stop610" /><stop
   offset="2.730000e-002"
   style="stop-color:#86A7CF"
   id="stop611" /><stop
   offset="0.3146"
   style="stop-color:#28459C"
   id="stop612" /><stop
   offset="0.3576"
   style="stop-color:#243B8F"
   id="stop613" /><stop
   offset="0.4842"
   style="stop-color:#1D2570"
   id="stop614" /><stop
   offset="0.5562"
   style="stop-color:#1A1E66"
   id="stop615" /><stop
   offset="0.7238"
   style="stop-color:#1B1F65"
   id="stop616" /><stop
   offset="0.7842"
   style="stop-color:#1E2265"
   id="stop617" /><stop
   offset="0.8272"
   style="stop-color:#262663"
   id="stop618" /><stop
   offset="0.8621"
   style="stop-color:#2E2D61"
   id="stop619" /><stop
   offset="0.8919"
   style="stop-color:#36335D"
   id="stop620" /><stop
   offset="0.9183"
   style="stop-color:#3C3856"
   id="stop621" /><stop
   offset="0.9422"
   style="stop-color:#3D394C"
   id="stop622" /><stop
   offset="0.9641"
   style="stop-color:#35323B"
   id="stop623" /><stop
   offset="0.9837"
   style="stop-color:#201F21"
   id="stop624" /><stop
   offset="1"
   style="stop-color:#000000"
   id="stop625" /><a:midPointStop
   offset="0"
   style="stop-color:#90B2D4"
   id="midPointStop626" /><a:midPointStop
   offset="0.5"
   style="stop-color:#90B2D4"
   id="midPointStop627" /><a:midPointStop
   offset="2.730000e-002"
   style="stop-color:#86A7CF"
   id="midPointStop628" /><a:midPointStop
   offset="0.5"
   style="stop-color:#86A7CF"
   id="midPointStop629" /><a:midPointStop
   offset="0.3146"
   style="stop-color:#28459C"
   id="midPointStop630" /><a:midPointStop
   offset="0.5"
   style="stop-color:#28459C"
   id="midPointStop631" /><a:midPointStop
   offset="0.3576"
   style="stop-color:#243B8F"
   id="midPointStop632" /><a:midPointStop
   offset="0.5"
   style="stop-color:#243B8F"
   id="midPointStop633" /><a:midPointStop
   offset="0.4842"
   style="stop-color:#1D2570"
   id="midPointStop634" /><a:midPointStop
   offset="0.5"
   style="stop-color:#1D2570"
   id="midPointStop635" /><a:midPointStop
   offset="0.5562"
   style="stop-color:#1A1E66"
   id="midPointStop636" /><a:midPointStop
   offset="0.5"
   style="stop-color:#1A1E66"
   id="midPointStop637" /><a:midPointStop
   offset="0.7238"
   style="stop-color:#1B1F65"
   id="midPointStop638" /><a:midPointStop
   offset="0.5"
   style="stop-color:#1B1F65"
   id="midPointStop639" /><a:midPointStop
   offset="0.7842"
   style="stop-color:#1E2265"
   id="midPointStop640" /><a:midPointStop
   offset="0.5"
   style="stop-color:#1E2265"
   id="midPointStop641" /><a:midPointStop
   offset="0.8272"
   style="stop-color:#262663"
   id="midPointStop642" /><a:midPointStop
   offset="0.5"
   style="stop-color:#262663"
   id="midPointStop643" /><a:midPointStop
   offset="0.8621"
   style="stop-color:#2E2D61"
   id="midPointStop644" /><a:midPointStop
   offset="0.5"
   style="stop-color:#2E2D61"
   id="midPointStop645" /><a:midPointStop
   offset="0.8919"
   style="stop-color:#36335D"
   id="midPointStop646" /><a:midPointStop
   offset="0.5"
   style="stop-color:#36335D"
   id="midPointStop647" /><a:midPointStop
   offset="0.9183"
   style="stop-color:#3C3856"
   id="midPointStop648" /><a:midPointStop
   offset="0.5"
   style="stop-color:#3C3856"
   id="midPointStop649" /><a:midPointStop
   offset="0.9422"
   style="stop-color:#3D394C"
   id="midPointStop650" /><a:midPointStop
   offset="0.5"
   style="stop-color:#3D394C"
   id="midPointStop651" /><a:midPointStop
   offset="0.9641"
   style="stop-color:#35323B"
   id="midPointStop652" /><a:midPointStop
   offset="0.5"
   style="stop-color:#35323B"
   id="midPointStop653" /><a:midPointStop
   offset="0.9837"
   style="stop-color:#201F21"
   id="midPointStop654" /><a:midPointStop
   offset="0.5"
   style="stop-color:#201F21"
   id="midPointStop655" /><a:midPointStop
   offset="1"
   style="stop-color:#000000"
   id="midPointStop656" /></radialGradient><circle
   id="path622"
   fill="url(#path622_7_)"
   cx="24"
   cy="24"
   r="22.5" /><path
   i:isolated="yes"
   i:knockout="Off"
   opacity="0.5"
   enable-background="new    "
   d="M17.4,5.9c-0.1,0-0.2,0-0.3,0.1     C17.3,5.9,17.5,5.9,17.4,5.9z M23.9,7.1L24,6.2l-1,0.1l0.1,0.9h0.8V7.1z M12.6,23.5c-0.2-0.2-0.1-1-0.1-1s-3-1.6-6.3-2.5     c-0.4-0.1-0.2-0.9,0.2-1.3l-0.1-0.9c0-0.5,0.7-2.6,1.4-2.8s-0.1,1.3-0.1,1.3l-0.7,0.4c0,0,0.9,1,1.1,1c0.2,0,0.5-0.5,0.5-0.5     l-0.9-0.6l0.9-0.4l0.1-0.3h0.1l1.4-2.2c1-0.4,2.2-0.9,2.4-1c0.3-0.1,2.1-1.2,2.5-1.4c0.3-0.3,1-0.3,1.3-0.3     c0.3,0,0.7-0.1,0.7-0.8c0.1-0.7,0.3-0.8,0.5-0.6c0.2,0.2-0.2,0.5,0.3,0.6c0.5,0.1,0.9,0.4,1.2,0.1c0.2-0.2-0.1-0.5-0.3-0.7h3.7     l0.4-1.1l-0.9-0.1l-3.2-0.3V7.7h-0.3c0.3-1.9,2.4-1.6,0.9-2.7c-0.1-0.1-1.4,2.1-1.8,2.1C16.9,7,16.1,7,15.9,7.2     c-0.2,0.3,0.5-0.9,1.1-1.3c-1,0.3-4.2,1.4-7.6,5c-3.2,3.5-4.5,8.1-4.5,8.3c0,0.3,0.7,0.4,0.7,0.8c0.1,0.4-1.3,1.6-1.3,2.3     c0,0.3-0.3,4.2,0.8,7.4c1.3,3.7,4.1,6.9,4.4,7.1l0.7-0.3c0,0-1.5-2.7-1.6-3c-0.1-0.3,1.7-3.9,2.6-3.8c0.9,0.1,0.7,0.4,1.2,0.1     s0.9-2.9,1.5-3.2c0.6-0.3,1.3-0.6,1.2-1.2C15.1,24.8,12.8,23.6,12.6,23.5L12.6,23.5z M27.1,4.9l-1.8-0.6l0.3,1L27.1,4.9z      M20.3,7.2c0.2,0,4.2-2.6,3.8-2.7s-0.5,0-1.5-0.1c-1.1-0.1-2.2,1.5-2.5,1.8C19.9,6.4,20,7.2,20.3,7.2z M38.7,26.3l0.5-0.7     l-0.5-0.2l-0.4,0.5l-0.5,0.7l0.4,0.2L38.7,26.3z M40.9,28.4l-0.1-1H40l-0.1,0.7L39.1,28l-0.2-0.8L38.5,27L38,27.5l-0.4-0.1     l-0.1,0.4L38,28v4l1.8,0.4c0,0.1-0.1,0.1-0.1,0.2c-0.1,0.4,0.5,0.6,1,0.4c0.2-0.1,0.7-0.6,1-1.4c0.5-1.1,0.9-2.6,1-3.1l0.2-0.4     l-1.3,0.5L40.9,28.4L40.9,28.4z M43.6,21.1l-0.3-0.7c-0.4-2.2-1.3-5.1-3.3-8.1c-3-4.5-11.2-7.1-11.2-7.1l-0.4,0.5l-0.3-0.4     l-0.6-0.2v0.5l0.6,0.5l-0.4,0.2l-1.5,0.1l-3.4,1.8l0.3,1.5l-0.4,0.1l-0.2,0.3l1.1,1.6l0.1,0.5l-0.9,0.2v1.1l-0.5,0.1l0.1,0.9     l-4.4,3l0.1,1.7c0.3,0.4,2.8,3,2.8,3s2.9,0.1,3.5-0.2c0.6-0.4,0.2,0.4,0.4,0.5c0.2,0.1,0.3,1.5,0.5,1.6c0.2,0.1,0,0.9,0.3,1.1     c0.3,0.2,0.3,3.2,0.3,3.2s1.5,2.6,1.5,3.3c0,0.7-0.1,0.6,1.2,0.5c1.2-0.1,1.5-0.5,1.7-0.7c0.3-0.2,0.3-0.6,0.5-1     c0.3-0.4,0.7-1.8,1.3-2.2c0.6-0.5,2.1-0.9,2.3-1.7c0.1-0.9,0.7-1.5,0.7-1.5l2.8-2.9l-0.1,0.4l-0.1,1.5l0.8-0.3l-0.1-1.6l-0.3-0.3     l0,0c0,0-0.2-0.4-0.5-0.4c-0.3,0-1.8,0.4-2.1,0.3c-0.3-0.1-1.4-3-1.5-3.1c-0.2-0.1-1.4-2.1-1.4-2.1s2.8,3.4,3.3,4.7     c0.3,0.8,1.2,0.1,2-0.8l0.2,0.5l0.5-0.1l-0.1-0.6h0.6v0.9l-0.2,0.5l-0.1,0.8l0.5,0.5l0.3-0.4l0.8-0.8l1-0.5l0.3,0.5l0.1,0.7     l-0.3,0.7L41,23.6l-0.3,1.1v0.5l-0.6-0.4L40,23.6l-0.8,0.1l-0.4,1l0.6,0.9l1.4,0.2l1.1-1l0.1-2l0.5-0.6c0.3,0.8,0.5,1.7,0.5,2.5     c0,0.9,0.4-0.6,0.1-3.3L43.6,21.1L43.6,21.1L43.6,21.1z M27.4,14.9l-3.5-0.1l1.5-1.2h0.8l1.2,0.8V14.9L27.4,14.9z M31.6,14.5V15     h-1.5l0.1,0.4l-0.9,0.1l-0.1,0.3l-0.6-0.1l-1.2-0.2l0.2-0.3l0.2-0.4l0.6-0.7l0.3,0.5l1-0.1l0.5-0.5l2,0.4L31.6,14.5L31.6,14.5     L31.6,14.5z M31.8,13.7L31,13.8l-0.1-0.5l1-0.1l0.1-0.5l0.7,0.7L31.8,13.7L31.8,13.7z M35.5,32.6L35,33l0.1,0.9h0.6v-0.8l0.5-0.7     V31l-0.3-0.1L35.5,32.6L35.5,32.6z M31.2,30.8c0,0-0.5,0.1,0.1,0.3c0.5,0.2,2.6-3,2.6-3l-1.7,1.1L31.2,30.8L31.2,30.8L31.2,30.8z      M27.7,42.4L27.3,42l-0.8-0.1l-0.1,0.4l-1-0.1l-0.1-0.5h-0.8l-0.8,0.5h-1.5l-0.1-0.4l-2.4-0.2L19.3,42l-1-0.2l-0.1-0.9l-0.5-0.1     l-0.5,0.9l-1.7-0.1c0.3,0.1,2.9,1.7,6.9,2c5.3,0.4,7.8-0.9,7.8-0.9L30,42.6L27.7,42.4L27.7,42.4L27.7,42.4z"
   id="path658" /><path
   fill="#FFFFFF"
   d="M16.7,3.8c-0.1,0-0.2,0-0.4,0.1C16.6,3.9,16.7,3.8,16.7,3.8z M23.8,5.2l0.1-1l-1.1,0.1l0.1,1L23.8,5.2     L23.8,5.2z M11.3,23.4c-0.2-0.2-0.1-1.1-0.1-1.1s-3.3-1.8-7-2.8c-0.4-0.1-0.2-1.1,0.2-1.4l-0.1-1C4.2,16.6,5,14.2,5.9,14     c0.8-0.2-0.1,1.4-0.1,1.4L5,15.9c0,0,1,1.1,1.2,1.1s0.6-0.6,0.6-0.6l-1-0.7l1-0.4V15L7,14.9l1.6-2.4c1.1-0.5,2.5-1,2.6-1.1     c0.3-0.1,2.4-1.3,2.7-1.6c0.3-0.3,1.2-0.2,1.5-0.2c0.3,0,0.7-0.1,0.8-0.9c0.1-0.8,0.4-0.9,0.6-0.7c0.2,0.2-0.2,0.6,0.3,0.7     c0.5,0.1,1,0.5,1.3,0.1c0.3-0.3-0.1-0.5-0.3-0.8h4.1l0.4-1.3l-1-0.1L18,6.2V5.9h-0.3c0.4-2.1,2.7-1.8,1-3c-0.1-0.1-1.6,2.4-2,2.3     c-0.7-0.1-1.6-0.1-1.8,0.1c-0.3,0.3,0.6-1,1.3-1.4c-1.1,0.3-4.7,1.6-8.5,5.6c-3.6,3.8-5,9-5,9.2c0,0.3,0.7,0.5,0.8,0.9     c0.1,0.4-1.4,1.8-1.4,2.5c0,0.3-0.3,4.6,0.9,8.2c1.6,4.2,4.6,7.7,5,7.9l0.7-0.4c0,0-1.7-3-1.8-3.3c-0.1-0.3,1.9-4.3,2.9-4.2     c1,0.1,0.7,0.4,1.3,0.1s1-3.2,1.6-3.5c0.7-0.3,1.4-0.6,1.3-1.3C14.1,24.9,11.6,23.6,11.3,23.4L11.3,23.4z M27.4,2.8l-2-0.7     l0.4,1.1L27.4,2.8z M19.9,5.4c0.2,0,4.7-2.9,4.2-3c-0.4-0.1-0.5,0-1.7-0.1c-1.2-0.1-2.4,1.7-2.7,2C19.4,4.5,19.5,5.4,19.9,5.4z      M40.3,26.5l0.6-0.7l-0.6-0.2l-0.4,0.5l-0.5,0.7l0.4,0.2L40.3,26.5z M42.8,28.9l-0.1-1.1h-0.9l-0.1,0.8l-0.9-0.1l-0.2-0.9     l-0.4-0.3L39.7,28l-0.5-0.1L39,28.3l0.6,0.1v4.4l2,0.5c0,0.1-0.1,0.1-0.1,0.2c-0.1,0.5,0.6,0.7,1.1,0.5c0.2-0.1,0.8-0.7,1.1-1.6     c0.5-1.2,1-2.8,1.1-3.4l0.2-0.5L43.6,29L42.8,28.9L42.8,28.9z M45.8,20.8L45.4,20c-0.4-2.5-1.5-5.7-3.6-9     c-3.3-5-12.4-7.8-12.4-7.8l-0.5,0.6l-0.3-0.5L27.9,3v0.6l0.6,0.5l-0.4,0.2l-1.6,0.1l-3.7,2L23.2,8l-0.4,0.1l-0.2,0.3l1.2,1.8     l0.1,0.6l-1,0.2v1.2l-0.6,0.1l0.1,0.9l-5,3.8l0.1,1.9c0.4,0.5,3.2,3.3,3.2,3.3s3.2,0.1,3.9-0.3c0.7-0.4,0.2,0.4,0.4,0.6     c0.2,0.2,0.3,1.6,0.5,1.8c0.2,0.1,0,0.9,0.3,1.2c0.3,0.3,0.3,3.5,0.3,3.5s1.7,2.9,1.7,3.6s-0.1,0.7,1.3,0.6     c1.4-0.1,1.6-0.6,1.9-0.8c0.3-0.2,0.3-0.7,0.6-1.1c0.3-0.4,0.8-2,1.4-2.5c0.6-0.5,2.4-0.9,2.5-1.9c0.1-0.9,0.8-1.7,0.8-1.7     l3.1-3.3l-0.1,0.4L39.2,24l0.9-0.3l0.1-1.7l-0.3-0.4v-0.1c0,0-0.2-0.4-0.5-0.4s-2,0.4-2.3,0.3c-0.3-0.1-1.5-3.3-1.7-3.4     s-1.6-2.4-1.6-2.4s3.2,3.8,3.7,5.3c0.3,0.9,1.4,0.1,2.3-0.8l0.2,0.6l0.6-0.1l-0.1-0.7h0.6v1l-0.2,0.5l-0.1,0.9l0.6,0.5l0.3-0.5     l0.9-0.9l1.1-0.5l0.3,0.5l0.1,0.7l-0.3,0.8l-0.6,0.5l-0.3,1.2v0.6L42.3,25l-0.1-1.3l-0.9,0.1l-0.4,1.1l0.6,0.9L43,26l1.2-1.2     l0.1-2.2l0.5-0.7c0.4,0.9,0.6,1.9,0.6,2.7c0,1,0.4-0.7,0.1-3.6L45.8,20.8L45.8,20.8L45.8,20.8z M27.8,13.9l-3.9-0.1l1.6-1.3h0.9     l1.4,0.9V13.9L27.8,13.9z M32.5,13.4V14h-1.6l0.1,0.4l-1,0.1l-0.1,0.3l-0.7-0.1l-1.3-0.3l0.2-0.3l0.2-0.4L29,13l0.3,0.5l1.1-0.1     l0.6-0.6l2.2,0.4L32.5,13.4L32.5,13.4L32.5,13.4z M32.6,12.5l-0.9,0.1L31.6,12l1.1-0.1l0.1-0.6l0.8,0.8L32.6,12.5L32.6,12.5z      M36.8,33.5l-0.5,0.4l0.1,1H37V34l0.6-0.7v-1.6l-0.4-0.1L36.8,33.5L36.8,33.5z M32,31.5c0,0-0.5,0.1,0.1,0.3     c0.6,0.2,2.9-3.3,2.9-3.3l-2,1.3L32,31.5L32,31.5L32,31.5z M28.1,44.5L27.7,44l-0.9-0.1l-0.1,0.4l-1.1-0.1l-0.1-0.5h-0.9     l-0.9,0.5H22l-0.1-0.4l-2.6-0.3l-0.4,0.4l-1.1-0.3l-0.1-1l-0.5-0.1l-0.6,1l-1.9-0.1c0.3,0.2,3.2,1.9,7.7,2.2c5.9,0.5,8.7-1,8.7-1     l-0.2-0.2L28.1,44.5L28.1,44.5L28.1,44.5z"
   id="path659" /><circle
   id="path622_2_"
   i:isolated="yes"
   i:knockout="Off"
   opacity="0.23"
   fill="#000092"
   enable-background="new    "
   cx="24"
   cy="24"
   r="22.5" /><ellipse
   id="path622_3_"
   i:isolated="yes"
   i:knockout="Off"
   opacity="0.5"
   fill="#FFFFFF"
   enable-background="new    "
   cx="24"
   cy="13"
   rx="16.2"
   ry="10.6" /><g
   id="g662"
   i:knockout="Off"><g
   id="g663"
   i:knockout="Off"><path
   id="path664"
   fill="#FF8D00"
   d="M47.4,6.7c-1.2-1.5-3.8-1.7-7.3-0.8c1.9,0,3.3,0.4,4.1,1.4c2.9,3.8-4,14-15.5,22.7       c-11.4,8.7-23.1,12.6-26,8.8c-0.9-1.2-0.9-3,0-5.1c-2.4,3.7-3.2,6.7-1.9,8.4c2.9,3.8,15.7-1,28.5-10.8       C42.2,21.5,50.3,10.5,47.4,6.7z" /></g></g><g
   id="g665"
   i:knockout="Off"
   opacity="0.6"><g
   id="g666"
   i:knockout="Off"><path
   id="path667"
   fill="#FFFF00"
   d="M46.1,6.6c-0.6-0.8-1.7-1.3-3.1-1.3c-0.9,0.1-1.8,0.2-2.9,0.5c0.3,0,0.6,0,0.9,0       c2.2-0.2,3.8,0.1,4.6,1.2c2.8,3.7-4.6,14.2-16.7,23.4c-12.1,9.2-24.1,13.8-27,10.1c-0.9-1.2-0.7-3.2,0.4-5.6       c0.1-0.4,0.2-0.9,0.4-1.3c-0.5,0.8-1,1.6-1.4,2.4c-0.8,2.1-0.8,3.8,0.1,5c3,3.9,15.4-0.6,27.7-10.1       C41.5,21.3,49.1,10.5,46.1,6.6z" /></g></g><g
   id="g701"
   i:knockout="Off"><g
   id="path702"
   i:knockout="Off"><g
   id="circle700"
   i:knockout="Off"><g
   id="g711"
   i:knockout="Off"><g
   id="circle712"
   i:knockout="Off"><g
   id="circle673"
   i:knockout="Off"><g
   id="circle675"><circle
   i:knockout="Off"
   opacity="0"
   fill="#00FF00"
   cx="24"
   cy="34.3"
   r="5"
   id="circle676" /></g></g></g></g></g></g><circle
   id="path703"
   i:isolated="yes"
   i:knockout="Off"
   opacity="0.1667"
   fill="#00FF00"
   enable-background="new    "
   cx="24"
   cy="34.3"
   r="4.5" /><circle
   id="path704"
   i:isolated="yes"
   i:knockout="Off"
   opacity="0.3333"
   fill="#00FF00"
   enable-background="new    "
   cx="24"
   cy="34.3"
   r="3.8" /><circle
   id="path705"
   i:isolated="yes"
   i:knockout="Off"
   opacity="0.5"
   fill="#00FF00"
   enable-background="new    "
   cx="24"
   cy="34.3"
   r="3.1" /><circle
   id="path706"
   i:isolated="yes"
   i:knockout="Off"
   opacity="0.6667"
   fill="#00FF00"
   enable-background="new    "
   cx="24"
   cy="34.3"
   r="2.6" /><circle
   id="path707"
   i:isolated="yes"
   i:knockout="Off"
   opacity="0.8333"
   fill="#00FF00"
   enable-background="new    "
   cx="24"
   cy="34.3"
   r="1.9" /><circle
   id="path708"
   fill="#00FF00"
   cx="24"
   cy="34.3"
   r="1.4" /></g></g></svg>
