<?xml version="1.0" encoding="UTF-8" standalone="no"?>
<!DOCTYPE svg PUBLIC "-//W3C//DTD SVG 20010904//EN"
"http://www.w3.org/TR/2001/REC-SVG-20010904/DTD/svg10.dtd">
<!-- Created with Sodipodi ("http://www.sodipodi.com/") -->
<svg
   xmlns:x="http://ns.adobe.com/Extensibility/1.0/"
   xmlns:i="http://ns.adobe.com/AdobeIllustrator/10.0/"
   xmlns:graph="http://ns.adobe.com/Graphs/1.0/"
   xmlns="http://www.w3.org/2000/svg"
   xmlns:xlink="http://www.w3.org/1999/xlink"
   xmlns:a="http://ns.adobe.com/AdobeSVGViewerExtensions/3.0/"
   xml:space="preserve"
   i:viewOrigin="249 436.5"
   i:rulerOrigin="-178 -268"
   i:pageBounds="178 524 434 268"
   width="48"
   height="48"
   viewBox="0 0 48 48"
   overflow="visible"
   enable-background="new 0 0 48 48"
   xmlns:sodipodi="http://sodipodi.sourceforge.net/DTD/sodipodi-0.dtd"
   id="svg602"
   sodipodi:version="0.34"
   sodipodi:docname="C:\msys\home\su_blanc\mldonkey-2.5.12\src\gtk2\rsvg\menu_search_mp3.svg"><defs
   id="defs701" /><sodipodi:namedview
   id="base" /><g
   id="Layer_3"
   i:knockout="Off"
   i:layer="yes"
   i:dimmedPercent="50"
   i:rgbTrio="#4F00FFFF4F00"><g
   id="g605"><path
   i:isolated="yes"
   i:knockout="Off"
   opacity="0.2"
   enable-background="new    "
   d="M7.3,1.2c-1.9,0-3.4,1.5-3.4,3.4v40      c0,1.9,1.5,3.4,3.4,3.4h35.2c1.9,0,3.4-1.5,3.4-3.4v-40c0-1.9-1.5-3.4-3.4-3.4H7.3z"
   id="path606" /><linearGradient
   id="XMLID_7_"
   gradientUnits="userSpaceOnUse"
   x1="-175.8999"
   y1="325.5996"
   x2="-133.9004"
   y2="325.5996"
   gradientTransform="matrix(1 0 0 -1 178 349)"><stop
   offset="0"
   style="stop-color:#A7ABAC"
   id="stop608" /><stop
   offset="1"
   style="stop-color:#85898A"
   id="stop609" /><a:midPointStop
   offset="0"
   style="stop-color:#A7ABAC"
   id="midPointStop610" /><a:midPointStop
   offset="0.5"
   style="stop-color:#A7ABAC"
   id="midPointStop611" /><a:midPointStop
   offset="1"
   style="stop-color:#85898A"
   id="midPointStop612" /></linearGradient><path
   fill="url(#XMLID_7_)"
   d="M5.5,0C3.6,0,2.1,1.5,2.1,3.4v40c0,1.9,1.5,3.4,3.4,3.4h35.2c1.9,0,3.4-1.5,3.4-3.4v-40      c0-1.9-1.5-3.4-3.4-3.4H5.5z"
   id="path613" /><path
   fill="#99CCFF"
   d="M3.1,43.4c0,1.3,1.1,2.4,2.4,2.4h35.2c1.3,0,2.4-1.1,2.4-2.4v-40C43.1,2.1,42,1,40.7,1H5.5      C4.2,1,3.1,2.1,3.1,3.4V43.4z"
   id="path614" /><linearGradient
   id="XMLID_8_"
   gradientUnits="userSpaceOnUse"
   x1="-163.5991"
   y1="334.2998"
   x2="-116.1996"
   y2="286.9003"
   gradientTransform="matrix(1 0 0 -1 178 349)"><stop
   offset="0"
   style="stop-color:#FFFFFF"
   id="stop616" /><stop
   offset="1"
   style="stop-color:#99CCFF"
   id="stop617" /><a:midPointStop
   offset="0"
   style="stop-color:#FFFFFF"
   id="midPointStop618" /><a:midPointStop
   offset="0.5"
   style="stop-color:#FFFFFF"
   id="midPointStop619" /><a:midPointStop
   offset="1"
   style="stop-color:#99CCFF"
   id="midPointStop620" /></linearGradient><path
   fill="url(#XMLID_8_)"
   d="M5.5,2C4.7,2,4.1,2.6,4.1,3.4v40c0,0.8,0.6,1.4,1.4,1.4h35.2c0.8,0,1.4-0.6,1.4-1.4v-40      c0-0.8-0.6-1.4-1.4-1.4H5.5z"
   id="path621" /><path
   i:isolated="yes"
   i:knockout="Off"
   opacity="0.4"
   fill="#FFFFFF"
   enable-background="new    "
   d="M30.1,19      c3.7-3.5,8.2-5.2,13-6.1V3.4C43.1,2.1,42,1,40.7,1H5.5C4.2,1,3.1,2.1,3.1,3.4v28.7C13,32.8,22.4,25.9,30.1,19z"
   id="path622" /><g
   i:knockout="Off"
   id="g623"><path
   i:isolated="yes"
   i:knockout="Off"
   opacity="0.5"
   fill="#9CBCDA"
   enable-background="new    "
   d="M24.5,5.1       c0,0,0,21.1,0,25.2c-1.9-0.7-4.1-1.1-6.4-1.1c-6.8,0-12.1,3.2-12.1,7.3c0,4.1,5.3,7.3,12.1,7.3c6.8,0,12.1-3.2,12.1-7.3       c0-0.4-0.1-0.9-0.2-1.3c0-0.3,0-17.6,0-21.9c1,0.7,2.1,1.5,3.6,1.8c2.5,0.4,4.8-0.4,6.7-1.1l0.8-0.3l-1-3c-1.7,0.5-3-0.5-5-2.2       c-1.5-1.3-3.1-2.7-5.2-3.1c0,0,0-0.1,0-0.1s-0.7,0-1.2,0c-0.1,0-0.2,0-0.2,0c0,0-0.7,0-0.7,0l-1.8,0H24.5z"
   id="path624" /><linearGradient
   id="XMLID_9_"
   gradientUnits="userSpaceOnUse"
   x1="-161.3657"
   y1="325.7461"
   x2="-142.1653"
   y2="325.7461"
   gradientTransform="matrix(1 0 0 -1 178 349)"><stop
   offset="0"
   style="stop-color:#99CCFF"
   id="stop626" /><stop
   offset="1"
   style="stop-color:#C7E3EF"
   id="stop627" /><a:midPointStop
   offset="0"
   style="stop-color:#99CCFF"
   id="midPointStop628" /><a:midPointStop
   offset="0.5"
   style="stop-color:#99CCFF"
   id="midPointStop629" /><a:midPointStop
   offset="1"
   style="stop-color:#C7E3EF"
   id="midPointStop630" /></linearGradient><path
   fill="url(#XMLID_9_)"
   d="M23.3,3.9c0,0,0,21.1,0,25.2c-1.9-0.7-4.1-1.1-6.4-1.1C10,28,4.7,31.2,4.7,35.3       s5.3,7.3,12.1,7.3c6.8,0,12.1-3.2,12.1-7.3c0-0.4-0.1-0.9-0.2-1.3c0-0.3,0-17.6,0-21.9c1,0.7,2.1,1.5,3.6,1.8       c2.5,0.4,4.8-0.4,6.7-1.1l0.8-0.3l-1-3c-1.7,0.5-3-0.5-5-2.2c-1.5-1.3-3.1-2.7-5.2-3.1c0,0,0-0.1,0-0.1s-0.7,0-1.2,0       c-0.1,0-0.2,0-0.2,0c0,0-0.7,0-0.7,0l-1.8,0H23.3z"
   id="path631" /><linearGradient
   id="XMLID_10_"
   gradientUnits="userSpaceOnUse"
   x1="-155.1538"
   y1="345.499"
   x2="-155.1538"
   y2="334.5984"
   gradientTransform="matrix(1 0 0 -1 178 349)"><stop
   offset="0"
   style="stop-color:#0066CC"
   id="stop633" /><stop
   offset="0.1414"
   style="stop-color:#0D73D9"
   id="stop634" /><stop
   offset="0.4377"
   style="stop-color:#2288EE"
   id="stop635" /><stop
   offset="0.7273"
   style="stop-color:#2F95FB"
   id="stop636" /><stop
   offset="1"
   style="stop-color:#3399FF"
   id="stop637" /><a:midPointStop
   offset="0"
   style="stop-color:#0066CC"
   id="midPointStop638" /><a:midPointStop
   offset="0.5"
   style="stop-color:#0066CC"
   id="midPointStop639" /><a:midPointStop
   offset="0.1414"
   style="stop-color:#0D73D9"
   id="midPointStop640" /><a:midPointStop
   offset="0.5"
   style="stop-color:#0D73D9"
   id="midPointStop641" /><a:midPointStop
   offset="0.4377"
   style="stop-color:#2288EE"
   id="midPointStop642" /><a:midPointStop
   offset="0.5"
   style="stop-color:#2288EE"
   id="midPointStop643" /><a:midPointStop
   offset="0.7273"
   style="stop-color:#2F95FB"
   id="midPointStop644" /><a:midPointStop
   offset="0.5"
   style="stop-color:#2F95FB"
   id="midPointStop645" /><a:midPointStop
   offset="1"
   style="stop-color:#3399FF"
   id="midPointStop646" /></linearGradient><path
   fill="url(#XMLID_10_)"
   d="M27.3,5.5l-0.2,0.1V5.5h-0.5v0h-1.8v26.1c-1.9-1.2-4.8-2-8-2c-5.8,0-10.5,2.6-10.5,5.7       c0,3.1,4.7,5.7,10.5,5.7c5.8,0,10.5-2.6,10.5-5.7c0-0.4-0.1-0.8-0.2-1.1V9.4c2,0.6,3.3,2.6,5.5,2.9c2.5,0.4,4.6-0.6,6.8-1.4       C34.4,12.5,32.1,5.3,27.3,5.5z"
   id="path647" /><linearGradient
   id="XMLID_11_"
   gradientUnits="userSpaceOnUse"
   x1="-361.1343"
   y1="8.789063e-003"
   x2="-360.3272"
   y2="4.8513"
   gradientTransform="matrix(1 0 0 1 372.1221 31.4082)"><stop
   offset="0"
   style="stop-color:#FFFFFF"
   id="stop649" /><stop
   offset="1.540000e-002"
   style="stop-color:#F9F9F9"
   id="stop650" /><stop
   offset="0.1111"
   style="stop-color:#DCDCDC"
   id="stop651" /><stop
   offset="0.2173"
   style="stop-color:#C3C3C3"
   id="stop652" /><stop
   offset="0.3363"
   style="stop-color:#B0B0B0"
   id="stop653" /><stop
   offset="0.4752"
   style="stop-color:#A3A3A3"
   id="stop654" /><stop
   offset="0.6526"
   style="stop-color:#9B9B9B"
   id="stop655" /><stop
   offset="1"
   style="stop-color:#999999"
   id="stop656" /><a:midPointStop
   offset="0"
   style="stop-color:#FFFFFF"
   id="midPointStop657" /><a:midPointStop
   offset="0.5"
   style="stop-color:#FFFFFF"
   id="midPointStop658" /><a:midPointStop
   offset="1.540000e-002"
   style="stop-color:#F9F9F9"
   id="midPointStop659" /><a:midPointStop
   offset="0.5"
   style="stop-color:#F9F9F9"
   id="midPointStop660" /><a:midPointStop
   offset="0.1111"
   style="stop-color:#DCDCDC"
   id="midPointStop661" /><a:midPointStop
   offset="0.5"
   style="stop-color:#DCDCDC"
   id="midPointStop662" /><a:midPointStop
   offset="0.2173"
   style="stop-color:#C3C3C3"
   id="midPointStop663" /><a:midPointStop
   offset="0.5"
   style="stop-color:#C3C3C3"
   id="midPointStop664" /><a:midPointStop
   offset="0.3363"
   style="stop-color:#B0B0B0"
   id="midPointStop665" /><a:midPointStop
   offset="0.5"
   style="stop-color:#B0B0B0"
   id="midPointStop666" /><a:midPointStop
   offset="0.4752"
   style="stop-color:#A3A3A3"
   id="midPointStop667" /><a:midPointStop
   offset="0.5"
   style="stop-color:#A3A3A3"
   id="midPointStop668" /><a:midPointStop
   offset="0.6526"
   style="stop-color:#9B9B9B"
   id="midPointStop669" /><a:midPointStop
   offset="0.5"
   style="stop-color:#9B9B9B"
   id="midPointStop670" /><a:midPointStop
   offset="1"
   style="stop-color:#999999"
   id="midPointStop671" /></linearGradient><path
   i:isolated="yes"
   i:knockout="Off"
   opacity="0.5"
   fill="url(#XMLID_11_)"
   a:adobe-blending-mode="screen"
   enable-background="new    "
   d="       M15.7,30.1c-5.1,0.4-9,2.5-9,5.1c0,1,0.6,2,1.6,2.8C8.7,34.8,11.5,31.9,15.7,30.1z"
   id="path672" /><linearGradient
   id="XMLID_12_"
   gradientUnits="userSpaceOnUse"
   x1="-348.2485"
   y1="9.3535"
   x2="-352.1985"
   y2="5.4036"
   gradientTransform="matrix(1 0 0 1 372.1221 31.4082)"><stop
   offset="0"
   style="stop-color:#FFFFFF"
   id="stop674" /><stop
   offset="1.540000e-002"
   style="stop-color:#F9F9F9"
   id="stop675" /><stop
   offset="0.1111"
   style="stop-color:#DCDCDC"
   id="stop676" /><stop
   offset="0.2173"
   style="stop-color:#C3C3C3"
   id="stop677" /><stop
   offset="0.3363"
   style="stop-color:#B0B0B0"
   id="stop678" /><stop
   offset="0.4752"
   style="stop-color:#A3A3A3"
   id="stop679" /><stop
   offset="0.6526"
   style="stop-color:#9B9B9B"
   id="stop680" /><stop
   offset="1"
   style="stop-color:#999999"
   id="stop681" /><a:midPointStop
   offset="0"
   style="stop-color:#FFFFFF"
   id="midPointStop682" /><a:midPointStop
   offset="0.5"
   style="stop-color:#FFFFFF"
   id="midPointStop683" /><a:midPointStop
   offset="1.540000e-002"
   style="stop-color:#F9F9F9"
   id="midPointStop684" /><a:midPointStop
   offset="0.5"
   style="stop-color:#F9F9F9"
   id="midPointStop685" /><a:midPointStop
   offset="0.1111"
   style="stop-color:#DCDCDC"
   id="midPointStop686" /><a:midPointStop
   offset="0.5"
   style="stop-color:#DCDCDC"
   id="midPointStop687" /><a:midPointStop
   offset="0.2173"
   style="stop-color:#C3C3C3"
   id="midPointStop688" /><a:midPointStop
   offset="0.5"
   style="stop-color:#C3C3C3"
   id="midPointStop689" /><a:midPointStop
   offset="0.3363"
   style="stop-color:#B0B0B0"
   id="midPointStop690" /><a:midPointStop
   offset="0.5"
   style="stop-color:#B0B0B0"
   id="midPointStop691" /><a:midPointStop
   offset="0.4752"
   style="stop-color:#A3A3A3"
   id="midPointStop692" /><a:midPointStop
   offset="0.5"
   style="stop-color:#A3A3A3"
   id="midPointStop693" /><a:midPointStop
   offset="0.6526"
   style="stop-color:#9B9B9B"
   id="midPointStop694" /><a:midPointStop
   offset="0.5"
   style="stop-color:#9B9B9B"
   id="midPointStop695" /><a:midPointStop
   offset="1"
   style="stop-color:#999999"
   id="midPointStop696" /></linearGradient><path
   i:isolated="yes"
   i:knockout="Off"
   opacity="0.5"
   fill="url(#XMLID_12_)"
   a:adobe-blending-mode="screen"
   enable-background="new    "
   d="       M24.5,33.4c0.2,0.4,0.3,0.8,0.3,1.2c0,2.7-4.6,4.8-10.3,4.8c-0.1,0-0.2,0-0.2,0c1.2,0.3,2.5,0.5,3.9,0.5c4.4,0,8-1.8,8-4       C26.2,34.9,25.6,34,24.5,33.4z"
   id="path697" /></g></g></g><g
   id="Layer_2_2_"
   i:layer="yes"
   i:dimmedPercent="3"
   i:rgbTrio="#FFFF4F004F00"><rect
   fill="none"
   width="48"
   height="48"
   id="rect699" /></g></svg>
