<?xml version="1.0" encoding="UTF-8" standalone="no"?>
<!DOCTYPE svg PUBLIC "-//W3C//DTD SVG 20010904//EN"
"http://www.w3.org/TR/2001/REC-SVG-20010904/DTD/svg10.dtd">
<!-- Created with Sodipodi ("http://www.sodipodi.com/") -->
<svg
   xmlns:x="http://ns.adobe.com/Extensibility/1.0/"
   xmlns:i="http://ns.adobe.com/AdobeIllustrator/10.0/"
   xmlns:graph="http://ns.adobe.com/Graphs/1.0/"
   xmlns="http://www.w3.org/2000/svg"
   xmlns:xlink="http://www.w3.org/1999/xlink"
   xmlns:a="http://ns.adobe.com/AdobeSVGViewerExtensions/3.0/"
   xml:space="preserve"
   i:viewOrigin="282.9219 419.0313"
   i:rulerOrigin="0 0"
   i:pageBounds="0 792 612 0"
   width="48"
   height="48"
   viewBox="0 0 48 48"
   overflow="visible"
   enable-background="new 0 0 48 48"
   xmlns:sodipodi="http://sodipodi.sourceforge.net/DTD/sodipodi-0.dtd"
   id="svg602"
   sodipodi:version="0.34"
   sodipodi:docname="C:\msys\home\su_blanc\mldonkey-2.5.12\src\gtk2\rsvg\mime_binary.svg"><defs
   id="defs699" /><sodipodi:namedview
   id="namedview698" /><g
   id="Layer_x5F_1"
   i:knockout="Off"
   i:layer="yes"
   i:dimmedPercent="3"
   i:rgbTrio="#4F008000FFFF"><g
   id="g620"
   i:knockout="Off"><path
   id="path155"
   i:isolated="yes"
   i:knockout="Off"
   opacity="0.2"
   enable-background="new    "
   d="M10.1,1.6      c-1.8,0-3.3,1.5-3.3,3.3v39.4c0,1.8,1.5,3.3,3.3,3.3h34.6c1.8,0,3.3-1.5,3.3-3.3V4.9c0-1.8-1.5-3.3-3.3-3.3H10.1z" /><linearGradient
   id="path162_1_"
   gradientUnits="userSpaceOnUse"
   x1="-1385.9985"
   y1="291.7295"
   x2="-1165.4985"
   y2="291.7295"
   gradientTransform="matrix(0.1875 0 0 -0.1875 264.8174 78.0996)"><stop
   offset="0"
   style="stop-color:#A7ABAC"
   id="stop609" /><stop
   offset="1"
   style="stop-color:#85898A"
   id="stop610" /><a:midPointStop
   offset="0"
   style="stop-color:#A7ABAC"
   id="midPointStop611" /><a:midPointStop
   offset="0.5"
   style="stop-color:#A7ABAC"
   id="midPointStop612" /><a:midPointStop
   offset="1"
   style="stop-color:#85898A"
   id="midPointStop613" /></linearGradient><path
   id="path162"
   fill="url(#path162_1_)"
   d="M8.3,0.4C6.5,0.4,5,1.9,5,3.7v39.4c0,1.8,1.5,3.3,3.3,3.3H43      c1.8,0,3.3-1.5,3.3-3.3V3.7c0-1.8-1.5-3.3-3.3-3.3H8.3z" /><path
   id="path163"
   fill="#99CCFF"
   d="M5.9,43.1c0,1.3,1.1,2.4,2.4,2.4H43c1.3,0,2.4-1.1,2.4-2.4V3.7c0-1.3-1.1-2.4-2.4-2.4H8.3      C7,1.3,5.9,2.4,5.9,3.7V43.1z" /><linearGradient
   id="path170_1_"
   gradientUnits="userSpaceOnUse"
   x1="-1321.3008"
   y1="337.4727"
   x2="-1072.4517"
   y2="88.6235"
   gradientTransform="matrix(0.1875 0 0 -0.1875 264.8174 78.0996)"><stop
   offset="0"
   style="stop-color:#FFFFFF"
   id="stop617" /><stop
   offset="1"
   style="stop-color:#99CCFF"
   id="stop618" /><a:midPointStop
   offset="0"
   style="stop-color:#FFFFFF"
   id="midPointStop619" /><a:midPointStop
   offset="0.5"
   style="stop-color:#FFFFFF"
   id="midPointStop620" /><a:midPointStop
   offset="1"
   style="stop-color:#99CCFF"
   id="midPointStop621" /></linearGradient><path
   id="path170"
   fill="url(#path170_1_)"
   d="M8.3,2.3C7.5,2.3,6.9,3,6.9,3.7v39.4c0,0.8,0.6,1.4,1.4,1.4H43      c0.8,0,1.4-0.6,1.4-1.4V3.7c0-0.8-0.6-1.4-1.4-1.4H8.3z" /><path
   id="path171"
   i:isolated="yes"
   i:knockout="Off"
   opacity="0.4"
   fill="#FFFFFF"
   enable-background="new    "
   d="M32.5,19.1      c3.7-3.4,8.1-5.1,12.8-6V3.7c0-1.3-1.1-2.4-2.4-2.4H8.3C7,1.3,5.9,2.4,5.9,3.7v28.2C15.7,32.7,24.9,25.9,32.5,19.1z" /></g></g><g
   id="Layer_x5F_2"
   i:knockout="Off"
   i:layer="yes"
   i:dimmedPercent="3"
   i:rgbTrio="#4F004F00FFFF"><g
   id="g625"
   i:knockout="Off"><path
   id="path172"
   i:isolated="yes"
   i:knockout="Off"
   opacity="0.3"
   fill="#999999"
   enable-background="new    "
   d="M3.9,5.7      c-1.7,0-3.1,1.1-3.1,2.5v31.1c0,1.4,1.4,2.5,3.1,2.5h37.8c1.7,0,3.1-1.1,3.1-2.5v-31c0-1.4-1.4-2.5-3.1-2.5L3.9,5.7L3.9,5.7z" /><linearGradient
   id="path179_1_"
   gradientUnits="userSpaceOnUse"
   x1="-449.4609"
   y1="232.6357"
   x2="-449.4609"
   y2="25.1573"
   gradientTransform="matrix(0.1875 0 0 0.1875 105.6738 -0.4688)"><stop
   offset="0"
   style="stop-color:#6A5B97"
   id="stop628" /><stop
   offset="1"
   style="stop-color:#6D7BB0"
   id="stop629" /><a:midPointStop
   offset="0"
   style="stop-color:#6A5B97"
   id="midPointStop630" /><a:midPointStop
   offset="0.5"
   style="stop-color:#6A5B97"
   id="midPointStop631" /><a:midPointStop
   offset="1"
   style="stop-color:#6D7BB0"
   id="midPointStop632" /></linearGradient><path
   id="path179"
   fill="url(#path179_1_)"
   d="M42.8,38.2c0,1.1-1.1,2-2.5,2H2.5c-1.4,0-2.5-0.9-2.5-2v-31c0-1.1,1.1-2,2.5-2      h37.8c1.4,0,2.5,0.9,2.5,2V38.2L42.8,38.2z" /><linearGradient
   id="path186_1_"
   gradientUnits="userSpaceOnUse"
   x1="-558.2593"
   y1="123.834"
   x2="-341.0797"
   y2="123.834"
   gradientTransform="matrix(0.1875 0 0 0.1875 105.6738 -0.4688)"><stop
   offset="0"
   style="stop-color:#EFEDF5"
   id="stop635" /><stop
   offset="1"
   style="stop-color:#99ACD2"
   id="stop636" /><a:midPointStop
   offset="0"
   style="stop-color:#EFEDF5"
   id="midPointStop637" /><a:midPointStop
   offset="0.5"
   style="stop-color:#EFEDF5"
   id="midPointStop638" /><a:midPointStop
   offset="1"
   style="stop-color:#99ACD2"
   id="midPointStop639" /></linearGradient><path
   id="path186"
   fill="url(#path186_1_)"
   d="M2.5,6C1.7,6,1,6.5,1,7.2v31.1c0,0.7,0.7,1.2,1.5,1.2h37.8c0.8,0,1.5-0.5,1.5-1.2      V7.2c0-0.7-0.7-1.2-1.5-1.2H2.5L2.5,6z" /><path
   id="path187"
   i:isolated="yes"
   i:knockout="Off"
   opacity="0.64"
   fill="#FFFFFF"
   enable-background="new    "
   d="M3.1,25.4      c1.4,0.1,2.8,0.2,4.2,0.2c16.8,0,30.3-7.5,30.3-16.8c0-0.4,0-0.7-0.1-1.1c-7.7,0-33.4,0-34.5,0C3.1,8.2,3.1,17.4,3.1,25.4z" /></g></g><g
   id="Layer_x5F_3"
   i:knockout="Off"
   i:layer="yes"
   i:dimmedPercent="3"
   i:rgbTrio="#4F00FFFF4F00"><g
   id="g643"><line
   fill="#1B7157"
   x1="23"
   y1="35.5"
   x2="26.3"
   y2="38.4"
   id="line644" /><path
   fill="#0066CC"
   d="M19.4,3.6c0,0-0.3,0.7-0.3,0.7c0,0-1,2.1-1.2,2.7C17,7,16.1,7.2,15.3,7.4c-0.6-0.5-3.7-3.1-3.7-3.1      L6.5,7.5l-1.5,3.1c0,0,1.3,2.5,1.7,3.3c-1.1,0-4.4,0-4.4,0l-1.6,3.4l-0.7,5c0,0,3.6,1.4,4.3,1.7c0.1,0.7,0.3,1.4,0.5,2.1      c-0.3,0.3-1,1-1,1l-1.5,3l3.6,4.6c0,0,3.4-1.2,4.1-1.5c0.9,0.7,1.9,1.2,2.9,1.7c0.1,0.6,0.4,4.2,0.4,4.2l6.1,1.2l1.8-2.9      c0,0,0.3-0.8,0.4-1.1c0.8-0.1,1.7-0.2,2.5-0.5c0.6,0.5,3.5,3,3.5,3l4.6-2.9l2.1-3.2c0,0-1.3-2.7-1.7-3.4c1.2,0,4,0,4,0l1.9-2.9      l0.8-5.5c0,0-3.7-1.5-4.4-1.8c-0.1-0.9-0.4-1.8-0.7-2.6c0.4-0.5,2.8-3.5,2.8-3.5l-0.4-0.4l-3.3-4.2c0,0-3.5,1.3-4.3,1.6      c-0.9-0.6-1.8-1.2-2.7-1.6c-0.1-0.6-0.4-4.3-0.4-4.3l-6.3-1.2L19.4,3.6z M19.6,16.2c3.8,0.7,6.7,4.1,6.7,7.6c0,0,0,0,0,0      c-0.5,0.8-1.2,1.5-2,1.9c-1.3,0.8-3,1-4.7,0.7c-3.5-0.7-6.1-3.7-6.1-6.9c0-0.3,0-0.6,0.1-0.8c0.1-0.6,0.3-1.1,0.5-1.6      C15.7,16.1,17.7,15.8,19.6,16.2z"
   id="path645" /><linearGradient
   id="XMLID_1_"
   gradientUnits="userSpaceOnUse"
   x1="-144.2461"
   y1="278.9229"
   x2="-168.5898"
   y2="306.112"
   gradientTransform="matrix(1 0 0 -1 178.5 314.5625)"><stop
   offset="0"
   style="stop-color:#336699"
   id="stop647" /><stop
   offset="1"
   style="stop-color:#6699CC"
   id="stop648" /><a:midPointStop
   offset="0"
   style="stop-color:#336699"
   id="midPointStop649" /><a:midPointStop
   offset="0.5"
   style="stop-color:#336699"
   id="midPointStop650" /><a:midPointStop
   offset="1"
   style="stop-color:#6699CC"
   id="midPointStop651" /></linearGradient><path
   fill="url(#XMLID_1_)"
   d="M20,4.4c0,0-1,2.5-1.3,3.2c-1.3,0-2.5,0.3-3.7,0.6c-0.6-0.5-3.5-3-3.5-3L7.6,7.7      c0,0,1.7,3.4,2,3.9c-0.8,0.9-1.5,1.9-2,3c-0.8,0-4.5,0-4.5,0l-0.6,4.3c0,0,3.5,1.4,4.2,1.7c0.2,1.3,0.5,2.5,1.1,3.7      c-0.5,0.5-2.9,2.9-2.9,2.9l2.9,3.7c0,0,3.3-1.2,4-1.5c1.1,0.9,2.2,1.6,3.5,2.1c0.1,0.6,0.4,4.1,0.4,4.1l4.9,1      c0,0,1.2-3.1,1.5-3.8c1.3,0,2.5-0.3,3.7-0.6c0.6,0.5,3.4,2.9,3.4,2.9l3.9-2.5c0,0-1.6-3.3-1.9-3.9c0.8-0.9,1.5-1.9,2-3      c0.8,0,4.5,0,4.5,0l0.6-4.3c0,0-3.6-1.4-4.2-1.7c-0.2-1.3-0.5-2.5-1.1-3.7c0.5-0.5,2.9-2.9,2.9-2.9L33,9.4c0,0-3.4,1.2-4.1,1.5      c-1-0.8-2.2-1.5-3.4-2c-0.1-0.6-0.4-4.2-0.4-4.2l-4.9-1L20,4.4z M12.7,19.5c0-0.3,0-0.6,0.1-0.9c0.3-1.9,1.4-3.6,3.1-4.6      c1.6-0.9,3.5-1.2,5.4-0.8c4.2,0.8,7.3,4.7,6.7,8.5c-0.3,1.9-1.4,3.6-3.1,4.6c-1.6,0.9-3.5,1.2-5.4,0.8      C15.6,26.4,12.7,23.1,12.7,19.5z"
   id="path652" /><path
   i:isolated="yes"
   i:knockout="Off"
   opacity="0.36"
   fill="#999999"
   enable-background="new    "
   d="M20.4,5.6      c0,0-0.3,0.7-0.3,0.7c0,0-1,2.1-1.2,2.7C18,9,17.1,9.2,16.3,9.4c-0.6-0.5-3.7-3.1-3.7-3.1L7.5,9.5l-1.5,3.1c0,0,1.3,2.5,1.7,3.3      c-1.1,0-4.4,0-4.4,0l-1.6,3.4l-0.7,5c0,0,3.6,1.4,4.3,1.7c0.1,0.7,0.3,1.4,0.5,2.1c-0.3,0.3-1,1-1,1l-1.5,3l3.6,4.6      c0,0,3.4-1.2,4.1-1.5c0.9,0.7,1.9,1.2,2.9,1.7c0.1,0.6,0.4,4.2,0.4,4.2l6.1,1.2l1.8-2.9c0,0,0.3-0.8,0.4-1.1      c0.8-0.1,1.7-0.2,2.5-0.5c0.6,0.5,3.5,3,3.5,3l4.6-2.9l2.1-3.2c0,0-1.3-2.7-1.7-3.4c1.2,0,4,0,4,0l1.9-2.9l0.8-5.5      c0,0-3.7-1.5-4.4-1.8c-0.1-0.9-0.4-1.8-0.7-2.6c0.4-0.5,2.8-3.5,2.8-3.5l-0.4-0.4l-3.3-4.2c0,0-3.5,1.3-4.3,1.6      c-0.9-0.6-1.8-1.2-2.7-1.6c-0.1-0.6-0.4-4.3-0.4-4.3l-6.3-1.2L20.4,5.6z M20.6,18.2c3.8,0.8,6.7,4.1,6.7,7.6c0,0,0,0,0,0      c-0.5,0.8-1.2,1.5-2,1.9c-1.3,0.8-3,1-4.7,0.7c-3.5-0.7-6.1-3.7-6.1-6.9c0-0.3,0-0.6,0.1-0.8c0.1-0.6,0.3-1.1,0.5-1.6      C16.7,18.1,18.7,17.8,20.6,18.2z"
   id="path653" /><path
   fill="#2461AA"
   d="M33,16.1c0.1,0.2,0.1,0.3,0.2,0.5l2.6-3.3C35.3,13.8,33.4,15.6,33,16.1z"
   id="path654" /><path
   fill="#336699"
   d="M18.5,7.6c0.1,0,0.2,0,0.2,0c0.2-0.6,1-2.6,1.2-3.1L18.5,7.6z"
   id="path655" /><polygon
   fill="#1B7157"
   points="7.7,7.6 7.7,7.6 7.7,7.6 "
   id="polygon656" /><linearGradient
   id="XMLID_2_"
   gradientUnits="userSpaceOnUse"
   x1="-165.0649"
   y1="296.0469"
   x2="-150.4827"
   y2="296.0469"
   gradientTransform="matrix(1 0 0 -1 178.5 314.5625)"><stop
   offset="0"
   style="stop-color:#0066CC"
   id="stop658" /><stop
   offset="1"
   style="stop-color:#99CCFF"
   id="stop659" /><a:midPointStop
   offset="0"
   style="stop-color:#0066CC"
   id="midPointStop660" /><a:midPointStop
   offset="0.5"
   style="stop-color:#0066CC"
   id="midPointStop661" /><a:midPointStop
   offset="1"
   style="stop-color:#99CCFF"
   id="midPointStop662" /></linearGradient><path
   fill="url(#XMLID_2_)"
   d="M28,21.8c0.5-3.9-2.5-7.7-6.7-8.5c-1.9-0.4-3.8-0.1-5.4,0.8c-1.1,0.6-1.9,1.5-2.5,2.6      c1.7-1.1,4-1.6,6.4-1.1c4.4,0.9,7.5,4.6,7.4,8.5C27.6,23.3,27.9,22.5,28,21.8z"
   id="path663" /><path
   fill="#3399FF"
   d="M29,34.9c-0.7-0.6-2.7-2.3-3.2-2.7c-0.5,1-1,2-1.5,2.9l3.2,2.8C27.9,36.8,28.5,35.9,29,34.9z"
   id="path664" /><path
   fill="#0066CC"
   d="M25.8,32.1c-1.2,0.4-2.4,0.6-3.7,0.6c-0.2,0.4-0.8,1.9-1.2,2.9c1.2-0.1,2.3-0.3,3.4-0.6l0,0      C24.8,34.1,25.3,33.1,25.8,32.1C25.8,32.1,25.8,32.1,25.8,32.1z"
   id="path665" /><path
   fill="#0066CC"
   d="M33.1,32.6c0,0-4,2.4-4.1,2.2c-0.4,1-1,2-1.4,3l0.1,0.1l3.8-2.4L33.1,32.6      C33.1,32.6,33.1,32.6,33.1,32.6z"
   id="path666" /><path
   fill="#0066CC"
   d="M15.7,35.6c0,0,0,0,0-0.1c-0.5,1-1,1.9-1.6,2.9l0,0.2l4.8,0.9l1.6-2.9L15.7,35.6z"
   id="path667" /><path
   fill="#336699"
   d="M7.8,30.8L7.8,30.8c-0.6,0.9-1.2,1.8-1.6,2.9l0,0l4-1.4c0.4-0.9,0.8-1.9,1.2-2.8      C10.3,29.9,7.8,30.8,7.8,30.8z"
   id="path668" /><path
   fill="#0066CC"
   d="M4.9,27.2L3.3,30l2.9,3.7c0.3-1,1-2,1.6-2.9L4.9,27.2z"
   id="path669" /><path
   fill="#0066CC"
   d="M15.3,31.5c-1.3-0.5-2.4-1.3-3.5-2.1c-0.1,0-0.2,0.1-0.4,0.1c-0.4,0.9-0.9,1.8-1.2,2.8l0,0      c1,0.8,2.2,1.5,3.4,2.1c0.7-0.8,1.2-1.6,1.7-2.5C15.3,31.7,15.3,31.6,15.3,31.5z"
   id="path670" /><path
   fill="#3399FF"
   d="M13.7,34.4c0,0,0.1,0,0.1,0l0.3,3.9c0.5-1,1-1.9,1.6-2.9c0-0.5-0.2-2.7-0.3-3.6      C14.9,32.7,14.4,33.6,13.7,34.4z"
   id="path671" /><path
   fill="#99CCFF"
   d="M9.6,11.6c-0.3-0.5-1.7-3.5-1.9-3.9L6,10.5l1.8,3.6C8.3,13.2,8.9,12.4,9.6,11.6z"
   id="path672" /><path
   fill="#336699"
   d="M33.2,25.8c-0.5,1.1-1.1,2.1-2,3c0,0.1,0.1,0.2,0.2,0.4c0-0.2,0.1-0.3,0.1-0.5l4.4,0l1.6-2.9      C37.1,25.8,34,25.8,33.2,25.8z"
   id="path673" /><path
   fill="#0000CC"
   d="M6.7,20.6c-0.6-0.2-3.5-1.4-4.1-1.6C2,19.7,1.5,20.5,1,21.3l-0.1,0.5L5,23.4c0.5-0.9,1.1-1.7,1.7-2.5      C6.7,20.8,6.7,20.7,6.7,20.6z"
   id="path674" /><path
   fill="#0066CC"
   d="M2.5,18.9l0.6-4.1c0,0,0,0,0,0l-1.5,2.7L1,21.3C1.5,20.5,2,19.7,2.5,18.9C2.5,18.9,2.5,18.9,2.5,18.9z"
   id="path675" /><path
   fill="#0066CC"
   d="M6.7,20.9c-0.6,0.8-1.2,1.7-1.7,2.5l0,0c0.1,0.9,0.4,1.9,0.7,2.8c0.7-0.7,1.7-1.7,2-2      C7.3,23.2,6.9,22,6.7,20.9z"
   id="path676" /><linearGradient
   id="XMLID_3_"
   gradientUnits="userSpaceOnUse"
   x1="-148.2783"
   y1="281.8105"
   x2="-164.2557"
   y2="302.2781"
   gradientTransform="matrix(1 0 0 -1 178.5 314.5625)"><stop
   offset="0"
   style="stop-color:#3399FF"
   id="stop678" /><stop
   offset="1"
   style="stop-color:#99CCFF"
   id="stop679" /><a:midPointStop
   offset="0"
   style="stop-color:#3399FF"
   id="midPointStop680" /><a:midPointStop
   offset="0.5"
   style="stop-color:#3399FF"
   id="midPointStop681" /><a:midPointStop
   offset="1"
   style="stop-color:#99CCFF"
   id="midPointStop682" /></linearGradient><path
   fill="url(#XMLID_3_)"
   d="M36.9,25.1l0.5-3.2l-4.1-1.6c-0.1-1.5-0.6-2.9-1.3-4.3l2.8-2.8l-2.2-2.8l-3.9,1.4      c-1.2-1-2.5-1.8-4-2.4l-0.4-4l-3.6-0.7l-1.4,3.6c-1.6,0-3.1,0.3-4.5,0.8l-3.3-2.9L8.6,7.9l1.9,3.8c-1,1-1.8,2.2-2.4,3.6l-4.3,0      l-0.5,3.2l4,1.6C7.6,21.6,8,23,8.7,24.4l-2.8,2.8L8.1,30l3.9-1.4c1.2,1,2.6,1.9,4.1,2.5l0.3,4l3.6,0.7l1.4-3.6      c1.6,0,3.2-0.3,4.6-0.8l3.3,2.8l2.8-1.8l-1.9-3.7c1-1,1.8-2.2,2.4-3.6L36.9,25.1z M19.3,27.8c-4.6-0.9-7.9-5.1-7.3-9.3      c0.6-4.2,4.9-6.9,9.5-6c4.6,0.9,7.9,5.1,7.3,9.3C28.2,26,23.9,28.7,19.3,27.8z"
   id="path683" /><linearGradient
   id="XMLID_4_"
   gradientUnits="userSpaceOnUse"
   x1="-154.3306"
   y1="290.0127"
   x2="-164.595"
   y2="300.2771"
   gradientTransform="matrix(1 0 0 -1 178.5 314.5625)"><stop
   offset="0"
   style="stop-color:#3399FF"
   id="stop685" /><stop
   offset="1"
   style="stop-color:#FFFFFF"
   id="stop686" /><a:midPointStop
   offset="0"
   style="stop-color:#3399FF"
   id="midPointStop687" /><a:midPointStop
   offset="0.5"
   style="stop-color:#3399FF"
   id="midPointStop688" /><a:midPointStop
   offset="1"
   style="stop-color:#FFFFFF"
   id="midPointStop689" /></linearGradient><path
   i:isolated="yes"
   i:knockout="Off"
   opacity="0.8"
   fill="url(#XMLID_4_)"
   enable-background="new    "
   d="M15.5,26.1      c-2.5-1.8-3.9-4.7-3.5-7.6c0.6-4.2,4.9-6.9,9.5-6c2.4,0.5,4.4,1.8,5.8,3.6c1.8-1.6,3.3-3.5,4.5-5.5l-3,1.1c-1.2-1-2.5-1.8-4-2.4      l-0.4-4l-3.6-0.7l-1.4,3.6c-1.6,0-3.1,0.3-4.5,0.8l-3.3-2.9L8.6,7.9l1.9,3.8c-1,1-1.8,2.2-2.4,3.6l-4.3,0l-0.5,3.2l4,1.6      C7.6,21.6,8,23,8.7,24.4l-2.8,2.8L8.1,30l3.9-1.4c0.9,0.8,1.9,1.4,3,2C14.9,29,15.1,27.5,15.5,26.1z"
   id="path690" /><path
   fill="#FFFFFF"
   d="M10.5,11.7L8.6,7.9L11,6.4l0,0L8.1,8.2L10,12c-0.9,0.9-1.7,2-2.2,3.3l0.4,0C8.7,13.9,9.5,12.7,10.5,11.7      z"
   id="path691" /><path
   fill="#FFFFFF"
   d="M16.1,31.1c-1.5-0.6-2.9-1.5-4.1-2.5L8.1,30l-2.2-2.8l2.8-2.8C8,23,7.6,21.6,7.4,20.1l-4-1.6l0.4-2.9      l-0.5,0l-0.5,3.2l4,1.6c0.1,1.5,0.6,2.9,1.2,4.3l-2.8,2.8l2.2,2.8l3.9-1.4c1.2,1,2.6,1.9,4.1,2.5l0.3,4l3.6,0.7l0.1-0.4L16.5,35      L16.1,31.1z"
   id="path692" /><path
   fill="#FFFFFF"
   d="M21.5,12.6c-2.3-0.4-4.4,0-6.1,1c1.6-0.8,3.6-1.1,5.6-0.7c4.6,0.9,7.9,5.1,7.3,9.3      c-0.3,2.2-1.6,3.9-3.4,5c2.1-1,3.6-2.9,3.9-5.3C29.4,17.6,26.1,13.5,21.5,12.6z"
   id="path693" /><path
   fill="#FFFFFF"
   d="M21.5,32.1l-0.1,0.3c1.5,0,2.9-0.3,4.2-0.8l3.3,2.8l0.5-0.3L26,31.3C24.6,31.9,23.1,32.1,21.5,32.1z"
   id="path694" /><path
   fill="#FFFFFF"
   d="M32.5,25.4l3.9,0l0-0.3l-3.8,0C32.6,25.2,32.6,25.3,32.5,25.4z"
   id="path695" /></g></g><g
   id="Layer_x5F_4"
   i:knockout="Off"
   i:layer="yes"
   i:dimmedPercent="3"
   i:rgbTrio="#4F00FFFF4F00"><rect
   id="path241"
   i:knockout="Off"
   fill="none"
   width="48"
   height="48" /></g></svg>
