<?xml version="1.0" encoding="UTF-8" standalone="no"?>
<!DOCTYPE svg PUBLIC "-//W3C//DTD SVG 20010904//EN"
"http://www.w3.org/TR/2001/REC-SVG-20010904/DTD/svg10.dtd">
<!-- Created with Sodipodi ("http://www.sodipodi.com/") -->
<svg
   xmlns:x="http://ns.adobe.com/Extensibility/1.0/"
   xmlns:i="http://ns.adobe.com/AdobeIllustrator/10.0/"
   xmlns:graph="http://ns.adobe.com/Graphs/1.0/"
   xmlns="http://www.w3.org/2000/svg"
   xmlns:xlink="http://www.w3.org/1999/xlink"
   xmlns:a="http://ns.adobe.com/AdobeSVGViewerExtensions/3.0/"
   xml:space="preserve"
   i:viewOrigin="282.9219 419.0313"
   i:rulerOrigin="0 0"
   i:pageBounds="0 792 612 0"
   width="48"
   height="48"
   viewBox="0 0 48 48"
   overflow="visible"
   enable-background="new 0 0 48 48"
   xmlns:sodipodi="http://sodipodi.sourceforge.net/DTD/sodipodi-0.dtd"
   id="svg602"
   sodipodi:version="0.34"
   sodipodi:docname="C:\msys\home\su_blanc\mldonkey-2.5.12\src\gtk2\rsvg\mime_recycled.svg"><defs
   id="defs787" /><sodipodi:namedview
   id="namedview786" /><g
   id="Layer_x5F_1"
   i:knockout="Off"
   i:layer="yes"
   i:dimmedPercent="3"
   i:rgbTrio="#4F008000FFFF"><g
   id="g620"
   i:knockout="Off"><path
   id="path155"
   i:isolated="yes"
   i:knockout="Off"
   opacity="0.2"
   enable-background="new    "
   d="M10.1,1.6      c-1.8,0-3.3,1.5-3.3,3.3v39.4c0,1.8,1.5,3.3,3.3,3.3h34.6c1.8,0,3.3-1.5,3.3-3.3V4.9c0-1.8-1.5-3.3-3.3-3.3H10.1z" /><linearGradient
   id="path162_1_"
   gradientUnits="userSpaceOnUse"
   x1="-1385.9985"
   y1="291.7295"
   x2="-1165.4985"
   y2="291.7295"
   gradientTransform="matrix(0.1875 0 0 -0.1875 264.8174 78.0996)"><stop
   offset="0"
   style="stop-color:#A7ABAC"
   id="stop609" /><stop
   offset="1"
   style="stop-color:#85898A"
   id="stop610" /><a:midPointStop
   offset="0"
   style="stop-color:#A7ABAC"
   id="midPointStop611" /><a:midPointStop
   offset="0.5"
   style="stop-color:#A7ABAC"
   id="midPointStop612" /><a:midPointStop
   offset="1"
   style="stop-color:#85898A"
   id="midPointStop613" /></linearGradient><path
   id="path162"
   fill="url(#path162_1_)"
   d="M8.3,0.4C6.5,0.4,5,1.9,5,3.7v39.4c0,1.8,1.5,3.3,3.3,3.3H43      c1.8,0,3.3-1.5,3.3-3.3V3.7c0-1.8-1.5-3.3-3.3-3.3H8.3z" /><path
   id="path163"
   fill="#99CCFF"
   d="M5.9,43.1c0,1.3,1.1,2.4,2.4,2.4H43c1.3,0,2.4-1.1,2.4-2.4V3.7c0-1.3-1.1-2.4-2.4-2.4H8.3      C7,1.3,5.9,2.4,5.9,3.7V43.1z" /><linearGradient
   id="path170_1_"
   gradientUnits="userSpaceOnUse"
   x1="-1321.3008"
   y1="337.4727"
   x2="-1072.4517"
   y2="88.6235"
   gradientTransform="matrix(0.1875 0 0 -0.1875 264.8174 78.0996)"><stop
   offset="0"
   style="stop-color:#FFFFFF"
   id="stop617" /><stop
   offset="1"
   style="stop-color:#99CCFF"
   id="stop618" /><a:midPointStop
   offset="0"
   style="stop-color:#FFFFFF"
   id="midPointStop619" /><a:midPointStop
   offset="0.5"
   style="stop-color:#FFFFFF"
   id="midPointStop620" /><a:midPointStop
   offset="1"
   style="stop-color:#99CCFF"
   id="midPointStop621" /></linearGradient><path
   id="path170"
   fill="url(#path170_1_)"
   d="M8.3,2.3C7.5,2.3,6.9,3,6.9,3.7v39.4c0,0.8,0.6,1.4,1.4,1.4H43      c0.8,0,1.4-0.6,1.4-1.4V3.7c0-0.8-0.6-1.4-1.4-1.4H8.3z" /><path
   id="path171"
   i:isolated="yes"
   i:knockout="Off"
   opacity="0.4"
   fill="#FFFFFF"
   enable-background="new    "
   d="M32.5,19.1      c3.7-3.4,8.1-5.1,12.8-6V3.7c0-1.3-1.1-2.4-2.4-2.4H8.3C7,1.3,5.9,2.4,5.9,3.7v28.2C15.7,32.7,24.9,25.9,32.5,19.1z" /></g></g><g
   id="Layer_x5F_2"
   i:knockout="Off"
   i:layer="yes"
   i:dimmedPercent="3"
   i:rgbTrio="#4F004F00FFFF"><g
   id="g625"
   i:knockout="Off"><path
   id="path172"
   i:isolated="yes"
   i:knockout="Off"
   opacity="0.3"
   fill="#999999"
   enable-background="new    "
   d="M3.9,5.7      c-1.7,0-3.1,1.1-3.1,2.5v31.1c0,1.4,1.4,2.5,3.1,2.5h37.8c1.7,0,3.1-1.1,3.1-2.5v-31c0-1.4-1.4-2.5-3.1-2.5L3.9,5.7L3.9,5.7z" /><linearGradient
   id="path179_1_"
   gradientUnits="userSpaceOnUse"
   x1="-449.4609"
   y1="232.6357"
   x2="-449.4609"
   y2="25.1573"
   gradientTransform="matrix(0.1875 0 0 0.1875 105.6738 -0.4688)"><stop
   offset="0"
   style="stop-color:#6A5B97"
   id="stop628" /><stop
   offset="1"
   style="stop-color:#6D7BB0"
   id="stop629" /><a:midPointStop
   offset="0"
   style="stop-color:#6A5B97"
   id="midPointStop630" /><a:midPointStop
   offset="0.5"
   style="stop-color:#6A5B97"
   id="midPointStop631" /><a:midPointStop
   offset="1"
   style="stop-color:#6D7BB0"
   id="midPointStop632" /></linearGradient><path
   id="path179"
   fill="url(#path179_1_)"
   d="M42.8,38.2c0,1.1-1.1,2-2.5,2H2.5c-1.4,0-2.5-0.9-2.5-2v-31c0-1.1,1.1-2,2.5-2      h37.8c1.4,0,2.5,0.9,2.5,2V38.2L42.8,38.2z" /><linearGradient
   id="path186_1_"
   gradientUnits="userSpaceOnUse"
   x1="-558.2593"
   y1="123.834"
   x2="-341.0797"
   y2="123.834"
   gradientTransform="matrix(0.1875 0 0 0.1875 105.6738 -0.4688)"><stop
   offset="0"
   style="stop-color:#EFEDF5"
   id="stop635" /><stop
   offset="1"
   style="stop-color:#99ACD2"
   id="stop636" /><a:midPointStop
   offset="0"
   style="stop-color:#EFEDF5"
   id="midPointStop637" /><a:midPointStop
   offset="0.5"
   style="stop-color:#EFEDF5"
   id="midPointStop638" /><a:midPointStop
   offset="1"
   style="stop-color:#99ACD2"
   id="midPointStop639" /></linearGradient><path
   id="path186"
   fill="url(#path186_1_)"
   d="M2.5,6C1.7,6,1,6.5,1,7.2v31.1c0,0.7,0.7,1.2,1.5,1.2h37.8c0.8,0,1.5-0.5,1.5-1.2      V7.2c0-0.7-0.7-1.2-1.5-1.2H2.5L2.5,6z" /><path
   id="path187"
   i:isolated="yes"
   i:knockout="Off"
   opacity="0.64"
   fill="#FFFFFF"
   enable-background="new    "
   d="M3.1,25.4      c1.4,0.1,2.8,0.2,4.2,0.2c16.8,0,30.3-7.5,30.3-16.8c0-0.4,0-0.7-0.1-1.1c-7.7,0-33.4,0-34.5,0C3.1,8.2,3.1,17.4,3.1,25.4z" /></g></g><g
   id="Layer_x5F_3"
   i:knockout="Off"
   i:layer="yes"
   i:dimmedPercent="3"
   i:rgbTrio="#4F00FFFF4F00"><g
   id="g643"><linearGradient
   id="XMLID_1_"
   gradientUnits="userSpaceOnUse"
   x1="-360.6592"
   y1="15.6592"
   x2="-341.0708"
   y2="15.6592"
   gradientTransform="matrix(1 0 0 1 356.5 0.5)"><stop
   offset="0"
   style="stop-color:#33CC33"
   id="stop645" /><stop
   offset="0.2919"
   style="stop-color:#2FC82F"
   id="stop646" /><stop
   offset="0.5615"
   style="stop-color:#24BD24"
   id="stop647" /><stop
   offset="0.8215"
   style="stop-color:#12AB12"
   id="stop648" /><stop
   offset="1"
   style="stop-color:#009900"
   id="stop649" /><a:midPointStop
   offset="0"
   style="stop-color:#33CC33"
   id="midPointStop650" /><a:midPointStop
   offset="0.5"
   style="stop-color:#33CC33"
   id="midPointStop651" /><a:midPointStop
   offset="0.2919"
   style="stop-color:#2FC82F"
   id="midPointStop652" /><a:midPointStop
   offset="0.5"
   style="stop-color:#2FC82F"
   id="midPointStop653" /><a:midPointStop
   offset="0.5615"
   style="stop-color:#24BD24"
   id="midPointStop654" /><a:midPointStop
   offset="0.5"
   style="stop-color:#24BD24"
   id="midPointStop655" /><a:midPointStop
   offset="0.8215"
   style="stop-color:#12AB12"
   id="midPointStop656" /><a:midPointStop
   offset="0.5"
   style="stop-color:#12AB12"
   id="midPointStop657" /><a:midPointStop
   offset="1"
   style="stop-color:#009900"
   id="midPointStop658" /></linearGradient><path
   fill="url(#XMLID_1_)"
   d="M11.7,5.2l-0.6,0.5L0,16.2l12.5,11.6c0,0,0-4.6,0-5.1c0.6-0.2,9.1-2.6,9.1-2.6v-8      c0,0-8.5-2.3-9.1-2.5c0-0.6,0-5.1,0-5.1L11.7,5.2z"
   id="path659" /><linearGradient
   id="XMLID_2_"
   gradientUnits="userSpaceOnUse"
   x1="-390.4404"
   y1="67.7529"
   x2="-370.8525"
   y2="67.7529"
   gradientTransform="matrix(1 0 0 1 391.6294 -51.5938)"><stop
   offset="0"
   style="stop-color:#33CC33"
   id="stop661" /><stop
   offset="0.2919"
   style="stop-color:#2FC82F"
   id="stop662" /><stop
   offset="0.5615"
   style="stop-color:#24BD24"
   id="stop663" /><stop
   offset="0.8215"
   style="stop-color:#12AB12"
   id="stop664" /><stop
   offset="1"
   style="stop-color:#009900"
   id="stop665" /><a:midPointStop
   offset="0"
   style="stop-color:#33CC33"
   id="midPointStop666" /><a:midPointStop
   offset="0.5"
   style="stop-color:#33CC33"
   id="midPointStop667" /><a:midPointStop
   offset="0.2919"
   style="stop-color:#2FC82F"
   id="midPointStop668" /><a:midPointStop
   offset="0.5"
   style="stop-color:#2FC82F"
   id="midPointStop669" /><a:midPointStop
   offset="0.5615"
   style="stop-color:#24BD24"
   id="midPointStop670" /><a:midPointStop
   offset="0.5"
   style="stop-color:#24BD24"
   id="midPointStop671" /><a:midPointStop
   offset="0.8215"
   style="stop-color:#12AB12"
   id="midPointStop672" /><a:midPointStop
   offset="0.5"
   style="stop-color:#12AB12"
   id="midPointStop673" /><a:midPointStop
   offset="1"
   style="stop-color:#009900"
   id="midPointStop674" /></linearGradient><path
   fill="url(#XMLID_2_)"
   d="M11.4,6.1l-1,0.9l-9.8,9.2L12,26.8c0,0,0-3.9,0-4.4c0.5-0.1,9.1-2.6,9.1-2.6v-7.3      c0,0-8.6-2.4-9.1-2.5c0-0.5,0-4.4,0-4.4L11.4,6.1z"
   id="path675" /><linearGradient
   id="XMLID_3_"
   gradientUnits="userSpaceOnUse"
   x1="-390.4399"
   y1="67.7539"
   x2="-370.8525"
   y2="67.7539"
   gradientTransform="matrix(1 0 0 1 391.6294 -51.5938)"><stop
   offset="0"
   style="stop-color:#33CC33"
   id="stop677" /><stop
   offset="0.2919"
   style="stop-color:#2FC82F"
   id="stop678" /><stop
   offset="0.5615"
   style="stop-color:#24BD24"
   id="stop679" /><stop
   offset="0.8215"
   style="stop-color:#12AB12"
   id="stop680" /><stop
   offset="1"
   style="stop-color:#009900"
   id="stop681" /><a:midPointStop
   offset="0"
   style="stop-color:#33CC33"
   id="midPointStop682" /><a:midPointStop
   offset="0.5"
   style="stop-color:#33CC33"
   id="midPointStop683" /><a:midPointStop
   offset="0.2919"
   style="stop-color:#2FC82F"
   id="midPointStop684" /><a:midPointStop
   offset="0.5"
   style="stop-color:#2FC82F"
   id="midPointStop685" /><a:midPointStop
   offset="0.5615"
   style="stop-color:#24BD24"
   id="midPointStop686" /><a:midPointStop
   offset="0.5"
   style="stop-color:#24BD24"
   id="midPointStop687" /><a:midPointStop
   offset="0.8215"
   style="stop-color:#12AB12"
   id="midPointStop688" /><a:midPointStop
   offset="0.5"
   style="stop-color:#12AB12"
   id="midPointStop689" /><a:midPointStop
   offset="1"
   style="stop-color:#009900"
   id="midPointStop690" /></linearGradient><path
   fill="url(#XMLID_3_)"
   d="M10.7,7.3l-4.5,4.2l-5,4.7l10.5,9.8c0,0,0-3.2,0-3.9c0.8-0.2,9.1-2.6,9.1-2.6v-6.7      c0,0-8.3-2.3-9.1-2.5c0-0.7,0-3.9,0-3.9L10.7,7.3z"
   id="path691" /><polygon
   fill="#99FF66"
   points="20.2,13.3 11.1,10.8 11.1,7.8 6.6,12 2.1,16.2 6.6,20.4 11.1,24.6 11.1,21.5 20.2,19 "
   id="polygon692" /><linearGradient
   id="XMLID_4_"
   gradientUnits="userSpaceOnUse"
   x1="-380.3003"
   y1="72.1133"
   x2="-380.3003"
   y2="54.4263"
   gradientTransform="matrix(1 0 0 1 391.6294 -51.5938)"><stop
   offset="0"
   style="stop-color:#33CC33"
   id="stop694" /><stop
   offset="1"
   style="stop-color:#009900"
   id="stop695" /><a:midPointStop
   offset="0"
   style="stop-color:#33CC33"
   id="midPointStop696" /><a:midPointStop
   offset="0.5"
   style="stop-color:#33CC33"
   id="midPointStop697" /><a:midPointStop
   offset="1"
   style="stop-color:#009900"
   id="midPointStop698" /></linearGradient><path
   fill="url(#XMLID_4_)"
   d="M15.3,16.2c-2.1-0.5-4.2-1.5-6.3-0.8c-1.8,0.8-3.9,1-5.9,0.7c0,0,0,0,0,0c0.9,0.9,6,5.6,7.2,6.7      c0-0.7,0-2,0-2s8.2-2.3,9.1-2.6c0-0.5,0-1.7,0-2.8C18.2,16.1,16.8,16.6,15.3,16.2z"
   id="path699" /><linearGradient
   id="XMLID_5_"
   gradientUnits="userSpaceOnUse"
   x1="-380.2925"
   y1="62.4414"
   x2="-380.2925"
   y2="70.331"
   gradientTransform="matrix(1 0 0 1 391.6294 -51.5938)"><stop
   offset="0"
   style="stop-color:#4DB36D"
   id="stop701" /><stop
   offset="1"
   style="stop-color:#1E7945"
   id="stop702" /><a:midPointStop
   offset="0"
   style="stop-color:#4DB36D"
   id="midPointStop703" /><a:midPointStop
   offset="0.5"
   style="stop-color:#4DB36D"
   id="midPointStop704" /><a:midPointStop
   offset="1"
   style="stop-color:#1E7945"
   id="midPointStop705" /></linearGradient><path
   i:isolated="yes"
   i:knockout="Off"
   opacity="0.44"
   fill="url(#XMLID_5_)"
   enable-background="new    "
   d="M9,15.4      c2.1-0.8,4.2,0.3,6.3,0.8c1.5,0.4,2.8-0.1,4.2-0.6c0-0.7,0-1.4,0-1.7c-0.9-0.3-9.1-2.5-9.1-2.5s0-1.3,0-2      C9.1,10.6,7,12.5,7,12.5s-2.9,2.7-3.9,3.6C5.1,16.4,7.2,16.3,9,15.4z"
   id="path706" /><linearGradient
   id="XMLID_6_"
   gradientUnits="userSpaceOnUse"
   x1="-178.4722"
   y1="301.7568"
   x2="-168.105"
   y2="301.1089"
   gradientTransform="matrix(1 0 0 -1 178.5 314.5625)"><stop
   offset="0"
   style="stop-color:#FFFFFF"
   id="stop708" /><stop
   offset="1"
   style="stop-color:#99FF66"
   id="stop709" /><a:midPointStop
   offset="0"
   style="stop-color:#FFFFFF"
   id="midPointStop710" /><a:midPointStop
   offset="0.5"
   style="stop-color:#FFFFFF"
   id="midPointStop711" /><a:midPointStop
   offset="1"
   style="stop-color:#99FF66"
   id="midPointStop712" /></linearGradient><path
   fill="url(#XMLID_6_)"
   d="M10.8,9.1c0-0.2,0-0.4,0-0.5c-0.9,0.8-3.9,3.7-3.9,3.7s-3.6,3.4-4.2,3.9c0.2,0.2,0.9,0.9,2,1.8      C5.9,14.1,8.1,10.9,10.8,9.1z"
   id="path713" /><linearGradient
   id="XMLID_7_"
   gradientUnits="userSpaceOnUse"
   x1="-362.2261"
   y1="30.8535"
   x2="-342.6386"
   y2="30.8535"
   gradientTransform="matrix(1 0 0 1 356.5 0.5)"><stop
   offset="0"
   style="stop-color:#33CC33"
   id="stop715" /><stop
   offset="0.2919"
   style="stop-color:#2FC82F"
   id="stop716" /><stop
   offset="0.5615"
   style="stop-color:#24BD24"
   id="stop717" /><stop
   offset="0.8215"
   style="stop-color:#12AB12"
   id="stop718" /><stop
   offset="1"
   style="stop-color:#009900"
   id="stop719" /><a:midPointStop
   offset="0"
   style="stop-color:#33CC33"
   id="midPointStop720" /><a:midPointStop
   offset="0.5"
   style="stop-color:#33CC33"
   id="midPointStop721" /><a:midPointStop
   offset="0.2919"
   style="stop-color:#2FC82F"
   id="midPointStop722" /><a:midPointStop
   offset="0.5"
   style="stop-color:#2FC82F"
   id="midPointStop723" /><a:midPointStop
   offset="0.5615"
   style="stop-color:#24BD24"
   id="midPointStop724" /><a:midPointStop
   offset="0.5"
   style="stop-color:#24BD24"
   id="midPointStop725" /><a:midPointStop
   offset="0.8215"
   style="stop-color:#12AB12"
   id="midPointStop726" /><a:midPointStop
   offset="0.5"
   style="stop-color:#12AB12"
   id="midPointStop727" /><a:midPointStop
   offset="1"
   style="stop-color:#009900"
   id="midPointStop728" /></linearGradient><path
   fill="url(#XMLID_7_)"
   d="M27.6,20.7c0,0,0,3.5,0,4.1c-0.6,0.2-9.1,2.5-9.1,2.5v8c0,0,8.5,2.4,9.1,2.6c0,0.5,0,5.1,0,5.1      l0.8-0.7l11.7-10.9L27.6,19.7V20.7z"
   id="path729" /><linearGradient
   id="XMLID_8_"
   gradientUnits="userSpaceOnUse"
   x1="-392.2563"
   y1="-0.4238"
   x2="-372.6681"
   y2="-0.4238"
   gradientTransform="matrix(-1 0 0 1 -353.3379 31.7773)"><stop
   offset="0"
   style="stop-color:#33CC33"
   id="stop731" /><stop
   offset="0.2919"
   style="stop-color:#2FC82F"
   id="stop732" /><stop
   offset="0.5615"
   style="stop-color:#24BD24"
   id="stop733" /><stop
   offset="0.8215"
   style="stop-color:#12AB12"
   id="stop734" /><stop
   offset="1"
   style="stop-color:#009900"
   id="stop735" /><a:midPointStop
   offset="0"
   style="stop-color:#33CC33"
   id="midPointStop736" /><a:midPointStop
   offset="0.5"
   style="stop-color:#33CC33"
   id="midPointStop737" /><a:midPointStop
   offset="0.2919"
   style="stop-color:#2FC82F"
   id="midPointStop738" /><a:midPointStop
   offset="0.5"
   style="stop-color:#2FC82F"
   id="midPointStop739" /><a:midPointStop
   offset="0.5615"
   style="stop-color:#24BD24"
   id="midPointStop740" /><a:midPointStop
   offset="0.5"
   style="stop-color:#24BD24"
   id="midPointStop741" /><a:midPointStop
   offset="0.8215"
   style="stop-color:#12AB12"
   id="midPointStop742" /><a:midPointStop
   offset="0.5"
   style="stop-color:#12AB12"
   id="midPointStop743" /><a:midPointStop
   offset="1"
   style="stop-color:#009900"
   id="midPointStop744" /></linearGradient><path
   fill="url(#XMLID_8_)"
   d="M28.7,21.3l1,0.9l9.8,9.2L28.1,42c0,0,0-3.9,0-4.4C27.6,37.4,19,35,19,35v-7.3      c0,0,8.6-2.4,9.1-2.5c0-0.5,0-4.4,0-4.4L28.7,21.3z"
   id="path745" /><linearGradient
   id="XMLID_9_"
   gradientUnits="userSpaceOnUse"
   x1="-392.2559"
   y1="-0.4238"
   x2="-372.668"
   y2="-0.4238"
   gradientTransform="matrix(-1 0 0 1 -353.3379 31.7773)"><stop
   offset="0"
   style="stop-color:#33CC33"
   id="stop747" /><stop
   offset="0.2919"
   style="stop-color:#2FC82F"
   id="stop748" /><stop
   offset="0.5615"
   style="stop-color:#24BD24"
   id="stop749" /><stop
   offset="0.8215"
   style="stop-color:#12AB12"
   id="stop750" /><stop
   offset="1"
   style="stop-color:#009900"
   id="stop751" /><a:midPointStop
   offset="0"
   style="stop-color:#33CC33"
   id="midPointStop752" /><a:midPointStop
   offset="0.5"
   style="stop-color:#33CC33"
   id="midPointStop753" /><a:midPointStop
   offset="0.2919"
   style="stop-color:#2FC82F"
   id="midPointStop754" /><a:midPointStop
   offset="0.5"
   style="stop-color:#2FC82F"
   id="midPointStop755" /><a:midPointStop
   offset="0.5615"
   style="stop-color:#24BD24"
   id="midPointStop756" /><a:midPointStop
   offset="0.5"
   style="stop-color:#24BD24"
   id="midPointStop757" /><a:midPointStop
   offset="0.8215"
   style="stop-color:#12AB12"
   id="midPointStop758" /><a:midPointStop
   offset="0.5"
   style="stop-color:#12AB12"
   id="midPointStop759" /><a:midPointStop
   offset="1"
   style="stop-color:#009900"
   id="midPointStop760" /></linearGradient><path
   fill="url(#XMLID_9_)"
   d="M29.4,22.5l4.5,4.2l5,4.7l-10.5,9.8c0,0,0-3.2,0-3.9c-0.8-0.2-9.1-2.6-9.1-2.6V28      c0,0,8.3-2.3,9.1-2.5c0-0.7,0-3.9,0-3.9L29.4,22.5z"
   id="path761" /><polygon
   fill="#99FF66"
   points="19.9,28.5 29,26 29,23 33.5,27.2 38,31.4 33.5,35.6 29,39.8 29,36.7 19.9,34.2 "
   id="polygon762" /><linearGradient
   id="XMLID_10_"
   gradientUnits="userSpaceOnUse"
   x1="-382.1147"
   y1="3.938"
   x2="-382.1148"
   y2="-13.7511"
   gradientTransform="matrix(-1 0 0 1 -353.3379 31.7773)"><stop
   offset="0"
   style="stop-color:#33CC33"
   id="stop764" /><stop
   offset="1"
   style="stop-color:#009900"
   id="stop765" /><a:midPointStop
   offset="0"
   style="stop-color:#33CC33"
   id="midPointStop766" /><a:midPointStop
   offset="0.5"
   style="stop-color:#33CC33"
   id="midPointStop767" /><a:midPointStop
   offset="1"
   style="stop-color:#009900"
   id="midPointStop768" /></linearGradient><path
   fill="url(#XMLID_10_)"
   d="M24.8,31.4c2.1-0.5,4.2-1.5,6.3-0.8c1.8,0.8,3.9,1,5.9,0.7c0,0,0,0,0,0      c-0.9,0.9-5.9,5.6-7.2,6.7c0-0.7,0-2,0-2s-8.2-2.3-9.1-2.6c0-0.5,0-1.7,0-2.8C22,31.3,23.3,31.8,24.8,31.4z"
   id="path769" /><linearGradient
   id="XMLID_11_"
   gradientUnits="userSpaceOnUse"
   x1="-382.1089"
   y1="-5.7344"
   x2="-382.1089"
   y2="2.156"
   gradientTransform="matrix(-1 0 0 1 -353.3379 31.7773)"><stop
   offset="0"
   style="stop-color:#4DB36D"
   id="stop771" /><stop
   offset="1"
   style="stop-color:#1E7945"
   id="stop772" /><a:midPointStop
   offset="0"
   style="stop-color:#4DB36D"
   id="midPointStop773" /><a:midPointStop
   offset="0.5"
   style="stop-color:#4DB36D"
   id="midPointStop774" /><a:midPointStop
   offset="1"
   style="stop-color:#1E7945"
   id="midPointStop775" /></linearGradient><path
   i:isolated="yes"
   i:knockout="Off"
   opacity="0.4"
   fill="url(#XMLID_11_)"
   enable-background="new    "
   d="M31.1,30.6      c-2.1-0.8-4.2,0.3-6.3,0.8c-1.5,0.4-2.8-0.1-4.2-0.6c0-0.7,0-1.4,0-1.7c0.9-0.3,9.1-2.5,9.1-2.5s0-1.3,0-2      c1.3,1.2,3.3,3.1,3.3,3.1s2.9,2.7,3.9,3.6C35,31.6,32.9,31.5,31.1,30.6z"
   id="path776" /><linearGradient
   id="XMLID_12_"
   gradientUnits="userSpaceOnUse"
   x1="-139.9019"
   y1="285.8066"
   x2="-144.87"
   y2="286.0226"
   gradientTransform="matrix(1 0 0 -1 178.5 314.5625)"><stop
   offset="0"
   style="stop-color:#FFFFFF"
   id="stop778" /><stop
   offset="1"
   style="stop-color:#99FF66"
   id="stop779" /><a:midPointStop
   offset="0"
   style="stop-color:#FFFFFF"
   id="midPointStop780" /><a:midPointStop
   offset="0.5"
   style="stop-color:#FFFFFF"
   id="midPointStop781" /><a:midPointStop
   offset="1"
   style="stop-color:#99FF66"
   id="midPointStop782" /></linearGradient><path
   fill="url(#XMLID_12_)"
   d="M29.3,24.3c0-0.2,0-0.3,0-0.5c0.9,0.8,3.9,3.7,3.9,3.7s3.6,3.4,4.2,3.9c-0.2,0.2-0.9,0.9-2,1.8      C34.2,29.3,32,26.1,29.3,24.3z"
   id="path783" /></g></g><g
   id="Layer_x5F_4"
   i:knockout="Off"
   i:layer="yes"
   i:dimmedPercent="3"
   i:rgbTrio="#4F00FFFF4F00"><rect
   id="path241"
   i:knockout="Off"
   fill="none"
   width="48"
   height="48" /></g></svg>
