<?xml version="1.0" encoding="UTF-8" standalone="no"?>
<!DOCTYPE svg PUBLIC "-//W3C//DTD SVG 20010904//EN"
"http://www.w3.org/TR/2001/REC-SVG-20010904/DTD/svg10.dtd">
<!-- Created with Sodipodi ("http://www.sodipodi.com/") -->
<svg
   xmlns:x="http://ns.adobe.com/Extensibility/1.0/"
   xmlns:i="http://ns.adobe.com/AdobeIllustrator/10.0/"
   xmlns:graph="http://ns.adobe.com/Graphs/1.0/"
   xmlns="http://www.w3.org/2000/svg"
   xmlns:xlink="http://www.w3.org/1999/xlink"
   xmlns:a="http://ns.adobe.com/AdobeSVGViewerExtensions/3.0/"
   xml:space="preserve"
   i:viewOrigin="282.9219 419.0313"
   i:rulerOrigin="0 0"
   i:pageBounds="0 792 612 0"
   width="48"
   height="48"
   viewBox="0 0 48 48"
   overflow="visible"
   enable-background="new 0 0 48 48"
   xmlns:sodipodi="http://sodipodi.sourceforge.net/DTD/sodipodi-0.dtd"
   id="svg602"
   sodipodi:version="0.34"
   sodipodi:docname="C:\msys\home\su_blanc\mldonkey-2.5.12\src\gtk2\rsvg\mime_tgz.svg"><defs
   id="defs687" /><sodipodi:namedview
   id="base" /><g
   id="Layer_x5F_1"
   i:knockout="Off"
   i:layer="yes"
   i:dimmedPercent="3"
   i:rgbTrio="#4F008000FFFF"><g
   id="g620"
   i:knockout="Off"><path
   id="path155"
   i:isolated="yes"
   i:knockout="Off"
   opacity="0.2"
   enable-background="new    "
   d="M10.1,1.6      c-1.8,0-3.3,1.5-3.3,3.3v39.4c0,1.8,1.5,3.3,3.3,3.3h34.6c1.8,0,3.3-1.5,3.3-3.3V4.9c0-1.8-1.5-3.3-3.3-3.3H10.1z" /><linearGradient
   id="path162_1_"
   gradientUnits="userSpaceOnUse"
   x1="-1668.9204"
   y1="127.3018"
   x2="-1448.4204"
   y2="127.3018"
   gradientTransform="matrix(0.1875 0 0 0.1875 317.8652 -0.4688)"><stop
   offset="0"
   style="stop-color:#A7ABAC"
   id="stop609" /><stop
   offset="1"
   style="stop-color:#85898A"
   id="stop610" /><a:midPointStop
   offset="0"
   style="stop-color:#A7ABAC"
   id="midPointStop611" /><a:midPointStop
   offset="0.5"
   style="stop-color:#A7ABAC"
   id="midPointStop612" /><a:midPointStop
   offset="1"
   style="stop-color:#85898A"
   id="midPointStop613" /></linearGradient><path
   id="path162"
   fill="url(#path162_1_)"
   d="M8.3,0.4C6.5,0.4,5,1.9,5,3.7v39.4c0,1.8,1.5,3.3,3.3,3.3H43      c1.8,0,3.3-1.5,3.3-3.3V3.7c0-1.8-1.5-3.3-3.3-3.3H8.3z" /><path
   id="path163"
   fill="#99CCFF"
   d="M5.9,43.1c0,1.3,1.1,2.4,2.4,2.4H43c1.3,0,2.4-1.1,2.4-2.4V3.7c0-1.3-1.1-2.4-2.4-2.4H8.3      C7,1.3,5.9,2.4,5.9,3.7V43.1z" /><linearGradient
   id="path170_1_"
   gradientUnits="userSpaceOnUse"
   x1="-1604.2227"
   y1="81.5586"
   x2="-1355.3735"
   y2="330.4078"
   gradientTransform="matrix(0.1875 0 0 0.1875 317.8652 -0.4688)"><stop
   offset="0"
   style="stop-color:#FFFFFF"
   id="stop617" /><stop
   offset="1"
   style="stop-color:#99CCFF"
   id="stop618" /><a:midPointStop
   offset="0"
   style="stop-color:#FFFFFF"
   id="midPointStop619" /><a:midPointStop
   offset="0.5"
   style="stop-color:#FFFFFF"
   id="midPointStop620" /><a:midPointStop
   offset="1"
   style="stop-color:#99CCFF"
   id="midPointStop621" /></linearGradient><path
   id="path170"
   fill="url(#path170_1_)"
   d="M8.3,2.3C7.5,2.3,6.9,3,6.9,3.7v39.4c0,0.8,0.6,1.4,1.4,1.4H43      c0.8,0,1.4-0.6,1.4-1.4V3.7c0-0.8-0.6-1.4-1.4-1.4H8.3z" /><path
   id="path171"
   i:isolated="yes"
   i:knockout="Off"
   opacity="0.4"
   fill="#FFFFFF"
   enable-background="new    "
   d="M32.5,19.1      c3.7-3.4,8.1-5.1,12.8-6V3.7c0-1.3-1.1-2.4-2.4-2.4H8.3C7,1.3,5.9,2.4,5.9,3.7v28.2C15.7,32.7,24.9,25.9,32.5,19.1z" /></g></g><g
   id="Layer_x5F_2"
   i:knockout="Off"
   i:layer="yes"
   i:dimmedPercent="3"
   i:rgbTrio="#4F004F00FFFF"><g
   id="g625"
   i:knockout="Off"><path
   id="path172"
   i:isolated="yes"
   i:knockout="Off"
   opacity="0.3"
   fill="#999999"
   enable-background="new    "
   d="M3.9,5.7      c-1.7,0-3.1,1.1-3.1,2.5v31.1c0,1.4,1.4,2.5,3.1,2.5h37.8c1.7,0,3.1-1.1,3.1-2.5v-31c0-1.4-1.4-2.5-3.1-2.5L3.9,5.7L3.9,5.7z" /><linearGradient
   id="path179_1_"
   gradientUnits="userSpaceOnUse"
   x1="-732.3838"
   y1="186.3955"
   x2="-732.3838"
   y2="393.8739"
   gradientTransform="matrix(0.1875 0 0 -0.1875 158.7217 78.0996)"><stop
   offset="0"
   style="stop-color:#6A5B97"
   id="stop628" /><stop
   offset="1"
   style="stop-color:#6D7BB0"
   id="stop629" /><a:midPointStop
   offset="0"
   style="stop-color:#6A5B97"
   id="midPointStop630" /><a:midPointStop
   offset="0.5"
   style="stop-color:#6A5B97"
   id="midPointStop631" /><a:midPointStop
   offset="1"
   style="stop-color:#6D7BB0"
   id="midPointStop632" /></linearGradient><path
   id="path179"
   fill="url(#path179_1_)"
   d="M42.8,38.2c0,1.1-1.1,2-2.5,2H2.5c-1.4,0-2.5-0.9-2.5-2v-31c0-1.1,1.1-2,2.5-2      h37.8c1.4,0,2.5,0.9,2.5,2V38.2L42.8,38.2z" /><linearGradient
   id="path186_1_"
   gradientUnits="userSpaceOnUse"
   x1="-841.1812"
   y1="295.1973"
   x2="-624.0016"
   y2="295.1973"
   gradientTransform="matrix(0.1875 0 0 -0.1875 158.7217 78.0996)"><stop
   offset="0"
   style="stop-color:#EFEDF5"
   id="stop635" /><stop
   offset="1"
   style="stop-color:#99ACD2"
   id="stop636" /><a:midPointStop
   offset="0"
   style="stop-color:#EFEDF5"
   id="midPointStop637" /><a:midPointStop
   offset="0.5"
   style="stop-color:#EFEDF5"
   id="midPointStop638" /><a:midPointStop
   offset="1"
   style="stop-color:#99ACD2"
   id="midPointStop639" /></linearGradient><path
   id="path186"
   fill="url(#path186_1_)"
   d="M2.5,6C1.7,6,1,6.5,1,7.2v31.1c0,0.7,0.7,1.2,1.5,1.2h37.8c0.8,0,1.5-0.5,1.5-1.2      V7.2c0-0.7-0.7-1.2-1.5-1.2H2.5L2.5,6z" /><path
   id="path187"
   i:isolated="yes"
   i:knockout="Off"
   opacity="0.64"
   fill="#FFFFFF"
   enable-background="new    "
   d="M3.1,25.4      c1.4,0.1,2.8,0.2,4.2,0.2c16.8,0,30.3-7.5,30.3-16.8c0-0.4,0-0.7-0.1-1.1c-7.7,0-33.4,0-34.5,0C3.1,8.2,3.1,17.4,3.1,25.4z" /></g></g><g
   id="Layer_x5F_3"
   i:knockout="Off"
   i:layer="yes"
   i:dimmedPercent="3"
   i:rgbTrio="#4F00FFFF4F00"><g
   id="g643"><polygon
   id="path895"
   i:isolated="yes"
   i:knockout="Off"
   opacity="0.2"
   enable-background="new    "
   points="37.9,11.1       19.6,4.6 19.3,4.8 1.5,11.3 1.5,35.3 2.1,35.5 19.9,42.1 37.9,35.7 " /><linearGradient
   id="path902_1_"
   gradientUnits="userSpaceOnUse"
   x1="-212.7441"
   y1="360.9609"
   x2="-127.3854"
   y2="178.8033"
   gradientTransform="matrix(0.1875 0 0 -0.1875 52.626 78.0996)"><stop
   offset="0"
   style="stop-color:#FD993E"
   id="stop646" /><stop
   offset="1"
   style="stop-color:#E67901"
   id="stop647" /><a:midPointStop
   offset="0"
   style="stop-color:#FD993E"
   id="midPointStop648" /><a:midPointStop
   offset="0.5"
   style="stop-color:#FD993E"
   id="midPointStop649" /><a:midPointStop
   offset="1"
   style="stop-color:#E67901"
   id="midPointStop650" /></linearGradient><polygon
   id="path902"
   fill="url(#path902_1_)"
   points="17.8,3.7 0,10.2 0,34.2 0.6,34.4 18.4,41 36.4,34.6 36.4,10 18.1,3.5 " /><polygon
   id="path903"
   fill="#FEBF59"
   points="18.2,10.9 0.9,10.9 0.9,33.8 0.9,33.8 18.1,40.1 18.2,40.1 " /><polygon
   id="path905"
   fill="#FFFFE6"
   points="18.2,10.9 18.2,40.1 18.1,40.1 35.4,33.8 35.5,33.8 35.5,10.9 " /><polygon
   id="path906"
   fill="#FFFFE6"
   points="0.9,10.9 18.1,17.2 35.4,10.9 18.1,4.5 " /><polygon
   id="path907"
   fill="#FFFFE6"
   points="18.1,17.2 0.9,10.9 0.9,33.6 0.9,33.6 18.1,39.9 18.2,39.9 18.2,17.2 " /><linearGradient
   id="path914_1_"
   gradientUnits="userSpaceOnUse"
   x1="-183.9712"
   y1="272.7266"
   x2="-183.9712"
   y2="396.8076"
   gradientTransform="matrix(0.1875 0 0 -0.1875 52.626 78.0996)"><stop
   offset="0"
   style="stop-color:#FFFF73"
   id="stop657" /><stop
   offset="1"
   style="stop-color:#FFF7E2"
   id="stop658" /><a:midPointStop
   offset="0"
   style="stop-color:#FFFF73"
   id="midPointStop659" /><a:midPointStop
   offset="0.5"
   style="stop-color:#FFFF73"
   id="midPointStop660" /><a:midPointStop
   offset="1"
   style="stop-color:#FFF7E2"
   id="midPointStop661" /></linearGradient><path
   id="path914"
   fill="url(#path914_1_)"
   d="M18.1,4.5l-17,6.3c2.8,1,5.6,2.1,8.4,3.1c1.9,0.7,3.8,1.4,5.7,2.1      c0.8,0.3,2,1.1,2.9,1.1c0.7,0,1.8-0.7,2.5-0.9c2-0.8,4.1-1.5,6.1-2.3c2.8-1,5.6-2.1,8.4-3.1L18.1,4.5z" /><linearGradient
   id="path921_1_"
   gradientUnits="userSpaceOnUse"
   x1="-183.3931"
   y1="321.8057"
   x2="-254.6694"
   y2="258.449"
   gradientTransform="matrix(0.1875 0 0 -0.1875 52.626 78.0996)"><stop
   offset="0"
   style="stop-color:#FEE679"
   id="stop664" /><stop
   offset="1"
   style="stop-color:#FFF7B0"
   id="stop665" /><a:midPointStop
   offset="0"
   style="stop-color:#FEE679"
   id="midPointStop666" /><a:midPointStop
   offset="0.5"
   style="stop-color:#FEE679"
   id="midPointStop667" /><a:midPointStop
   offset="1"
   style="stop-color:#FFF7B0"
   id="midPointStop668" /></linearGradient><path
   id="path921"
   fill="url(#path921_1_)"
   d="M0.9,11.4v22.2h0l16.9,6.3c0-7.4,0.2-15-0.1-22.2C12.1,15.6,6.5,13.5,0.9,11.4z" /><linearGradient
   id="path928_1_"
   gradientUnits="userSpaceOnUse"
   x1="-120.0278"
   y1="242.1396"
   x2="-176.347"
   y2="367.9778"
   gradientTransform="matrix(0.1875 0 0 -0.1875 52.626 78.0996)"><stop
   offset="5.600000e-003"
   style="stop-color:#FEE69E"
   id="stop671" /><stop
   offset="1"
   style="stop-color:#FFCC00"
   id="stop672" /><a:midPointStop
   offset="5.600000e-003"
   style="stop-color:#FEE69E"
   id="midPointStop673" /><a:midPointStop
   offset="0.5"
   style="stop-color:#FEE69E"
   id="midPointStop674" /><a:midPointStop
   offset="1"
   style="stop-color:#FFCC00"
   id="midPointStop675" /></linearGradient><path
   id="path928"
   fill="url(#path928_1_)"
   d="M18.6,40l16.8-6.2h0.2V11.7c-1.9,0.7-16.5,5.7-16.8,6.2      C18.4,18.3,18.6,39.1,18.6,40z" /><linearGradient
   id="path935_1_"
   gradientUnits="userSpaceOnUse"
   x1="-184.2056"
   y1="354.5645"
   x2="-184.2056"
   y2="379.203"
   gradientTransform="matrix(0.1875 0 0 -0.1875 52.626 78.0996)"><stop
   offset="0"
   style="stop-color:#FD993E"
   id="stop678" /><stop
   offset="1"
   style="stop-color:#E65C00"
   id="stop679" /><a:midPointStop
   offset="0"
   style="stop-color:#FD993E"
   id="midPointStop680" /><a:midPointStop
   offset="0.5"
   style="stop-color:#FD993E"
   id="midPointStop681" /><a:midPointStop
   offset="1"
   style="stop-color:#E65C00"
   id="midPointStop682" /></linearGradient><path
   id="path935"
   fill="url(#path935_1_)"
   d="M18.2,10.8l17,0l-17-1V4.4c0,0-0.7,5-0.9,5.3C17.1,9.9,1,10.8,1,10.8l16.3-0.2      l0.8,6.6L18.2,10.8z" /></g></g><g
   id="Layer_x5F_4"
   i:knockout="Off"
   i:layer="yes"
   i:dimmedPercent="3"
   i:rgbTrio="#4F00FFFF4F00"><rect
   id="path241"
   i:knockout="Off"
   fill="none"
   width="48"
   height="48" /></g></svg>
