<?xml version="1.0" encoding="UTF-8" standalone="no"?>
<!DOCTYPE svg PUBLIC "-//W3C//DTD SVG 20010904//EN"
"http://www.w3.org/TR/2001/REC-SVG-20010904/DTD/svg10.dtd">
<!-- Created with Sodipodi ("http://www.sodipodi.com/") -->
<svg
   xmlns:x="http://ns.adobe.com/Extensibility/1.0/"
   xmlns:i="http://ns.adobe.com/AdobeIllustrator/10.0/"
   xmlns:graph="http://ns.adobe.com/Graphs/1.0/"
   xmlns="http://www.w3.org/2000/svg"
   xmlns:xlink="http://www.w3.org/1999/xlink"
   xmlns:a="http://ns.adobe.com/AdobeSVGViewerExtensions/3.0/"
   xml:space="preserve"
   i:viewOrigin="282.9219 419.0313"
   i:rulerOrigin="0 0"
   i:pageBounds="0 792 612 0"
   width="48"
   height="48"
   viewBox="0 0 48 48"
   overflow="visible"
   enable-background="new 0 0 48 48"
   xmlns:sodipodi="http://sodipodi.sourceforge.net/DTD/sodipodi-0.dtd"
   id="svg602"
   sodipodi:version="0.34"
   sodipodi:docname="C:\msys\home\su_blanc\mldonkey-2.5.12\src\gtk2\rsvg\mime_sound.svg"><defs
   id="defs825" /><sodipodi:namedview
   id="base" /><g
   id="Layer_x5F_1"
   i:knockout="Off"
   i:layer="yes"
   i:dimmedPercent="3"
   i:rgbTrio="#4F008000FFFF"><g
   id="g620"
   i:knockout="Off"><path
   id="path155"
   i:isolated="yes"
   i:knockout="Off"
   opacity="0.2"
   enable-background="new    "
   d="M10.1,1.6      c-1.8,0-3.3,1.5-3.3,3.3v39.4c0,1.8,1.5,3.3,3.3,3.3h34.6c1.8,0,3.3-1.5,3.3-3.3V4.9c0-1.8-1.5-3.3-3.3-3.3H10.1z" /><linearGradient
   id="path162_1_"
   gradientUnits="userSpaceOnUse"
   x1="-1668.9204"
   y1="127.3018"
   x2="-1448.4204"
   y2="127.3018"
   gradientTransform="matrix(0.1875 0 0 0.1875 317.8652 -0.4688)"><stop
   offset="0"
   style="stop-color:#A7ABAC"
   id="stop609" /><stop
   offset="1"
   style="stop-color:#85898A"
   id="stop610" /><a:midPointStop
   offset="0"
   style="stop-color:#A7ABAC"
   id="midPointStop611" /><a:midPointStop
   offset="0.5"
   style="stop-color:#A7ABAC"
   id="midPointStop612" /><a:midPointStop
   offset="1"
   style="stop-color:#85898A"
   id="midPointStop613" /></linearGradient><path
   id="path162"
   fill="url(#path162_1_)"
   d="M8.3,0.4C6.5,0.4,5,1.9,5,3.7v39.4c0,1.8,1.5,3.3,3.3,3.3H43      c1.8,0,3.3-1.5,3.3-3.3V3.7c0-1.8-1.5-3.3-3.3-3.3H8.3z" /><path
   id="path163"
   fill="#99CCFF"
   d="M5.9,43.1c0,1.3,1.1,2.4,2.4,2.4H43c1.3,0,2.4-1.1,2.4-2.4V3.7c0-1.3-1.1-2.4-2.4-2.4H8.3      C7,1.3,5.9,2.4,5.9,3.7V43.1z" /><linearGradient
   id="path170_1_"
   gradientUnits="userSpaceOnUse"
   x1="-1604.2227"
   y1="81.5586"
   x2="-1355.3735"
   y2="330.4078"
   gradientTransform="matrix(0.1875 0 0 0.1875 317.8652 -0.4688)"><stop
   offset="0"
   style="stop-color:#FFFFFF"
   id="stop617" /><stop
   offset="1"
   style="stop-color:#99CCFF"
   id="stop618" /><a:midPointStop
   offset="0"
   style="stop-color:#FFFFFF"
   id="midPointStop619" /><a:midPointStop
   offset="0.5"
   style="stop-color:#FFFFFF"
   id="midPointStop620" /><a:midPointStop
   offset="1"
   style="stop-color:#99CCFF"
   id="midPointStop621" /></linearGradient><path
   id="path170"
   fill="url(#path170_1_)"
   d="M8.3,2.3C7.5,2.3,6.9,3,6.9,3.7v39.4c0,0.8,0.6,1.4,1.4,1.4H43      c0.8,0,1.4-0.6,1.4-1.4V3.7c0-0.8-0.6-1.4-1.4-1.4H8.3z" /><path
   id="path171"
   i:isolated="yes"
   i:knockout="Off"
   opacity="0.4"
   fill="#FFFFFF"
   enable-background="new    "
   d="M32.5,19.1      c3.7-3.4,8.1-5.1,12.8-6V3.7c0-1.3-1.1-2.4-2.4-2.4H8.3C7,1.3,5.9,2.4,5.9,3.7v28.2C15.7,32.7,24.9,25.9,32.5,19.1z" /></g></g><g
   id="Layer_x5F_2"
   i:knockout="Off"
   i:layer="yes"
   i:dimmedPercent="3"
   i:rgbTrio="#4F004F00FFFF"><g
   id="g625"
   i:knockout="Off"><path
   id="path172"
   i:isolated="yes"
   i:knockout="Off"
   opacity="0.3"
   fill="#999999"
   enable-background="new    "
   d="M3.9,5.7      c-1.7,0-3.1,1.1-3.1,2.5v31.1c0,1.4,1.4,2.5,3.1,2.5h37.8c1.7,0,3.1-1.1,3.1-2.5v-31c0-1.4-1.4-2.5-3.1-2.5L3.9,5.7L3.9,5.7z" /><linearGradient
   id="path179_1_"
   gradientUnits="userSpaceOnUse"
   x1="-732.3838"
   y1="186.3955"
   x2="-732.3838"
   y2="393.8739"
   gradientTransform="matrix(0.1875 0 0 -0.1875 158.7217 78.0996)"><stop
   offset="0"
   style="stop-color:#6A5B97"
   id="stop628" /><stop
   offset="1"
   style="stop-color:#6D7BB0"
   id="stop629" /><a:midPointStop
   offset="0"
   style="stop-color:#6A5B97"
   id="midPointStop630" /><a:midPointStop
   offset="0.5"
   style="stop-color:#6A5B97"
   id="midPointStop631" /><a:midPointStop
   offset="1"
   style="stop-color:#6D7BB0"
   id="midPointStop632" /></linearGradient><path
   id="path179"
   fill="url(#path179_1_)"
   d="M42.8,38.2c0,1.1-1.1,2-2.5,2H2.5c-1.4,0-2.5-0.9-2.5-2v-31c0-1.1,1.1-2,2.5-2      h37.8c1.4,0,2.5,0.9,2.5,2V38.2L42.8,38.2z" /><linearGradient
   id="path186_1_"
   gradientUnits="userSpaceOnUse"
   x1="-841.1812"
   y1="295.1973"
   x2="-624.0016"
   y2="295.1973"
   gradientTransform="matrix(0.1875 0 0 -0.1875 158.7217 78.0996)"><stop
   offset="0"
   style="stop-color:#EFEDF5"
   id="stop635" /><stop
   offset="1"
   style="stop-color:#99ACD2"
   id="stop636" /><a:midPointStop
   offset="0"
   style="stop-color:#EFEDF5"
   id="midPointStop637" /><a:midPointStop
   offset="0.5"
   style="stop-color:#EFEDF5"
   id="midPointStop638" /><a:midPointStop
   offset="1"
   style="stop-color:#99ACD2"
   id="midPointStop639" /></linearGradient><path
   id="path186"
   fill="url(#path186_1_)"
   d="M2.5,6C1.7,6,1,6.5,1,7.2v31.1c0,0.7,0.7,1.2,1.5,1.2h37.8c0.8,0,1.5-0.5,1.5-1.2      V7.2c0-0.7-0.7-1.2-1.5-1.2H2.5L2.5,6z" /><path
   id="path187"
   i:isolated="yes"
   i:knockout="Off"
   opacity="0.64"
   fill="#FFFFFF"
   enable-background="new    "
   d="M3.1,25.4      c1.4,0.1,2.8,0.2,4.2,0.2c16.8,0,30.3-7.5,30.3-16.8c0-0.4,0-0.7-0.1-1.1c-7.7,0-33.4,0-34.5,0C3.1,8.2,3.1,17.4,3.1,25.4z" /></g></g><g
   id="Layer_x5F_3"
   i:knockout="Off"
   i:layer="yes"
   i:dimmedPercent="3"
   i:rgbTrio="#4F00FFFF4F00"><g
   id="g643"><linearGradient
   id="path556_1_"
   gradientUnits="userSpaceOnUse"
   x1="-218.2437"
   y1="294.9023"
   x2="-92.1045"
   y2="294.9023"
   gradientTransform="matrix(0.2344 0 0 -0.2344 59.8879 91.7417)"><stop
   offset="0"
   style="stop-color:#FFFFFF"
   id="stop645" /><stop
   offset="1"
   style="stop-color:#949494"
   id="stop646" /><a:midPointStop
   offset="0"
   style="stop-color:#FFFFFF"
   id="midPointStop647" /><a:midPointStop
   offset="0.5"
   style="stop-color:#FFFFFF"
   id="midPointStop648" /><a:midPointStop
   offset="1"
   style="stop-color:#949494"
   id="midPointStop649" /></linearGradient><path
   id="path556"
   fill="url(#path556_1_)"
   d="M37.4,19.9c-0.1-0.2-0.1-0.5-0.2-0.7c-0.1-0.2-0.1-0.5-0.2-0.7      C34.2,8.8,27.3,2.3,21.4,3.9C21.2,3.9,21,4,20.8,4.1c-0.6,0.1-1.3,0.3-2.3,0.6c-7.6,2-11.6,11.9-8.9,22      c2.7,10.1,11.1,16.6,18.7,14.6c0.8-0.2,1.5-0.4,2.1-0.6c0.2,0,0.5-0.1,0.7-0.1C37.1,38.9,39.8,29.8,37.4,19.9z" /><path
   id="path557"
   i:isolated="yes"
   i:knockout="Off"
   opacity="0.2"
   enable-background="new    "
   d="M23.8,11.4l-19,5.1      c-3.7,1-5.3,7-3.5,13.7c1.8,6.7,6.1,11.1,9.9,10.1l19.9-5.3l-6.4-23.8L23.8,11.4z" /><path
   id="path558"
   i:isolated="yes"
   i:knockout="Off"
   opacity="0.2"
   enable-background="new    "
   d="M21.7,3.7      c0,0-0.4,0.1-0.6,0.2c-0.1,0-2.3,0.6-2.3,0.6C12.4,6.2,8.4,13.1,8.4,21.1c0,2.1,0.3,4.3,0.9,6.5C12.1,38.2,21,45,29.1,42.9      c0.8-0.2,1.5-0.4,2.1-0.6c0.2,0,0.7-0.2,0.7-0.2c4.9-1.3,7.8-7.1,7.8-14.4c0-2.3-0.3-4.7-0.9-7.2c0,0-0.2-0.7-0.2-0.7L38.5,19      C35.5,8.7,28.1,2,21.7,3.7z" /><linearGradient
   id="path565_1_"
   gradientUnits="userSpaceOnUse"
   x1="-190.3433"
   y1="347.1289"
   x2="-190.3433"
   y2="222.3057"
   gradientTransform="matrix(0.2344 0 0 -0.2344 59.8879 91.7417)"><stop
   offset="0"
   style="stop-color:#949494"
   id="stop654" /><stop
   offset="1"
   style="stop-color:#616161"
   id="stop655" /><a:midPointStop
   offset="0"
   style="stop-color:#949494"
   id="midPointStop656" /><a:midPointStop
   offset="0.5"
   style="stop-color:#949494"
   id="midPointStop657" /><a:midPointStop
   offset="1"
   style="stop-color:#616161"
   id="midPointStop658" /></linearGradient><path
   id="path565"
   fill="url(#path565_1_)"
   d="M23.3,10.6l-19,5.1c-3.7,1-5.3,7-3.5,13.7c1.8,6.7,6.1,11.1,9.9,10.1l19.9-5.3      l-6.4-23.8L23.3,10.6z" /><linearGradient
   id="path572_1_"
   gradientUnits="userSpaceOnUse"
   x1="-197.8462"
   y1="294.0879"
   x2="-158.9804"
   y2="202.4044"
   gradientTransform="matrix(0.2344 0 0 -0.2344 59.8879 91.7417)"><stop
   offset="0"
   style="stop-color:#DFDFDF"
   id="stop661" /><stop
   offset="1"
   style="stop-color:#828282"
   id="stop662" /><a:midPointStop
   offset="0"
   style="stop-color:#DFDFDF"
   id="midPointStop663" /><a:midPointStop
   offset="0.5"
   style="stop-color:#DFDFDF"
   id="midPointStop664" /><a:midPointStop
   offset="1"
   style="stop-color:#828282"
   id="midPointStop665" /></linearGradient><path
   id="path572"
   fill="url(#path572_1_)"
   d="M4.5,16.6C1.3,17.5,0,23.1,1.6,29.2c1.6,6.1,5.5,10.3,8.7,9.4l19-5.1l-5.9-22      L4.5,16.6z" /><linearGradient
   id="path579_1_"
   gradientUnits="userSpaceOnUse"
   x1="-188.6509"
   y1="324.5781"
   x2="-188.6509"
   y2="248.8354"
   gradientTransform="matrix(0.2344 0 0 -0.2344 59.8879 91.7417)"><stop
   offset="0"
   style="stop-color:#FFFFFF"
   id="stop668" /><stop
   offset="1"
   style="stop-color:#B2B2B2"
   id="stop669" /><a:midPointStop
   offset="0"
   style="stop-color:#FFFFFF"
   id="midPointStop670" /><a:midPointStop
   offset="0.5"
   style="stop-color:#FFFFFF"
   id="midPointStop671" /><a:midPointStop
   offset="1"
   style="stop-color:#B2B2B2"
   id="midPointStop672" /></linearGradient><path
   id="path579"
   fill="url(#path579_1_)"
   d="M5.4,17.2C2.3,18,1.1,23.5,2.6,29.3c1.6,5.9,5.3,9.9,8.4,9.1l18.4-4.9l-5.7-21.2      L5.4,17.2z" /><path
   id="path580"
   fill="#999999"
   d="M10.6,37.8c-2.3,0.6-4.8-0.8-6.8-3.5c1.9,3.1,4.4,4.8,6.5,4.2l19-5.1l-0.2-0.7L10.6,37.8z" /><linearGradient
   id="path587_1_"
   gradientUnits="userSpaceOnUse"
   x1="-155.1577"
   y1="379.8037"
   x2="-155.1577"
   y2="210.0137"
   gradientTransform="matrix(0.2344 0 0 -0.2344 59.8879 91.7417)"><stop
   offset="0"
   style="stop-color:#949494"
   id="stop676" /><stop
   offset="1"
   style="stop-color:#616161"
   id="stop677" /><a:midPointStop
   offset="0"
   style="stop-color:#949494"
   id="midPointStop678" /><a:midPointStop
   offset="0.5"
   style="stop-color:#949494"
   id="midPointStop679" /><a:midPointStop
   offset="1"
   style="stop-color:#616161"
   id="midPointStop680" /></linearGradient><path
   id="path587"
   fill="url(#path587_1_)"
   d="M21.1,3c0,0-0.4,0.1-0.6,0.2c-0.1,0-2.3,0.6-2.3,0.6C11.8,5.5,7.8,12.3,7.8,20.4      c0,2.1,0.3,4.3,0.9,6.5c2.8,10.6,11.8,17.4,19.9,15.2c0.8-0.2,1.5-0.4,2.1-0.6c0.2,0,0.7-0.2,0.7-0.2c4.9-1.3,7.8-7.1,7.8-14.4      c0-2.3-0.3-4.7-0.9-7.2c0,0-0.2-0.7-0.2-0.7l-0.2-0.8C34.9,8,27.5,1.3,21.1,3z" /><linearGradient
   id="path594_1_"
   gradientUnits="userSpaceOnUse"
   x1="-103.0513"
   y1="366.9248"
   x2="-103.0513"
   y2="205.4707"
   gradientTransform="matrix(0.2264 -6.065625e-002 -6.065625e-002 -0.2264 64.1085 81.4768)"><stop
   offset="0"
   style="stop-color:#DFDFDF"
   id="stop683" /><stop
   offset="1"
   style="stop-color:#CCCCCC"
   id="stop684" /><a:midPointStop
   offset="0"
   style="stop-color:#DFDFDF"
   id="midPointStop685" /><a:midPointStop
   offset="0.5"
   style="stop-color:#DFDFDF"
   id="midPointStop686" /><a:midPointStop
   offset="1"
   style="stop-color:#CCCCCC"
   id="midPointStop687" /></linearGradient><path
   id="path594"
   fill="url(#path594_1_)"
   d="M9.6,26.6c2.7,10.1,11.1,16.6,18.7,14.6c6.1-1.6,4.3-2,5.9-3.8      c3.6-4.2,4.9-11.1,3-18.1c-2.1-8-7.8-13.7-13.8-14.8c-1.6-0.3,1.6-1.6-4.9,0.2C10.9,6.7,6.9,16.6,9.6,26.6z" /><linearGradient
   id="path601_1_"
   gradientUnits="userSpaceOnUse"
   x1="-156.3564"
   y1="239.0605"
   x2="-178.9305"
   y2="216.4865"
   gradientTransform="matrix(0.2344 0 0 -0.2344 59.8879 91.7417)"><stop
   offset="0"
   style="stop-color:#B2B2B2"
   id="stop690" /><stop
   offset="1"
   style="stop-color:#828282"
   id="stop691" /><a:midPointStop
   offset="0"
   style="stop-color:#B2B2B2"
   id="midPointStop692" /><a:midPointStop
   offset="0.5"
   style="stop-color:#B2B2B2"
   id="midPointStop693" /><a:midPointStop
   offset="1"
   style="stop-color:#828282"
   id="midPointStop694" /></linearGradient><path
   id="path601"
   fill="url(#path601_1_)"
   d="M31.4,39.7c0,0-0.6,0.1-0.7,0.2c-0.6,0.2-1.3,0.4-2.1,0.6      c-5.8,1.6-12.1-1.5-16.2-7.3c3.8,6.2,10.1,9.6,15.9,8c4-1.1,4.6-1.6,5-2.3C32.7,39.2,32.1,39.5,31.4,39.7z" /><linearGradient
   id="path608_1_"
   gradientUnits="userSpaceOnUse"
   x1="-138.9312"
   y1="286.1934"
   x2="-41.9253"
   y2="286.1934"
   gradientTransform="matrix(0.2264 -6.065625e-002 -6.065625e-002 -0.2264 64.1085 81.4768)"><stop
   offset="0"
   style="stop-color:#FFFFFF"
   id="stop697" /><stop
   offset="1"
   style="stop-color:#949494"
   id="stop698" /><a:midPointStop
   offset="0"
   style="stop-color:#FFFFFF"
   id="midPointStop699" /><a:midPointStop
   offset="0.5"
   style="stop-color:#FFFFFF"
   id="midPointStop700" /><a:midPointStop
   offset="1"
   style="stop-color:#949494"
   id="midPointStop701" /></linearGradient><path
   id="path608"
   fill="url(#path608_1_)"
   d="M15.3,25.1c2.7,10.1,9.8,17,15.9,15.3c6.1-1.6,8.8-11.1,6.1-21.2      c-2.7-10.1-9.8-17-15.9-15.3C15.3,5.5,12.6,15,15.3,25.1z" /><path
   id="path609"
   fill="#FFFFFF"
   d="M21.4,4.8c6.1-1.6,13.2,5.2,15.9,15.3c0.7,2.5,1,4.9,1,7.2c0-2.6-0.3-5.4-1-8.2      c-2.7-10.1-9.8-17-15.9-15.3c-4.6,1.2-7.2,6.9-7.1,14C14.4,11.3,17,6,21.4,4.8z" /><linearGradient
   id="path619_1_"
   gradientUnits="userSpaceOnUse"
   x1="-136.9326"
   y1="286.1973"
   x2="-48.5674"
   y2="286.1973"
   gradientTransform="matrix(0.2264 -6.065625e-002 -6.065625e-002 -0.2264 64.1085 81.4768)"><stop
   offset="0"
   style="stop-color:#CCCCCC"
   id="stop705" /><stop
   offset="0.8483"
   style="stop-color:#828282"
   id="stop706" /><stop
   offset="1"
   style="stop-color:#616161"
   id="stop707" /><a:midPointStop
   offset="0"
   style="stop-color:#CCCCCC"
   id="midPointStop708" /><a:midPointStop
   offset="0.5"
   style="stop-color:#CCCCCC"
   id="midPointStop709" /><a:midPointStop
   offset="0.8483"
   style="stop-color:#828282"
   id="midPointStop710" /><a:midPointStop
   offset="0.5"
   style="stop-color:#828282"
   id="midPointStop711" /><a:midPointStop
   offset="1"
   style="stop-color:#616161"
   id="midPointStop712" /></linearGradient><path
   id="path619"
   fill="url(#path619_1_)"
   d="M15.7,25c2.5,9.4,9,15.8,14.6,14.3c5.5-1.5,8-10.3,5.4-19.7      c-2.5-9.4-9-15.8-14.6-14.3C15.7,6.8,13.2,15.6,15.7,25z" /><linearGradient
   id="path630_1_"
   gradientUnits="userSpaceOnUse"
   x1="-68.5029"
   y1="286.1924"
   x2="-115.0078"
   y2="286.1924"
   gradientTransform="matrix(0.2264 -6.065625e-002 -6.065625e-002 -0.2264 64.1085 81.4768)"><stop
   offset="0"
   style="stop-color:#CCCCCC"
   id="stop715" /><stop
   offset="0.2243"
   style="stop-color:#C8C8C8"
   id="stop716" /><stop
   offset="0.4625"
   style="stop-color:#BBBBBB"
   id="stop717" /><stop
   offset="0.7071"
   style="stop-color:#A6A6A6"
   id="stop718" /><stop
   offset="0.9548"
   style="stop-color:#888888"
   id="stop719" /><stop
   offset="1"
   style="stop-color:#828282"
   id="stop720" /><a:midPointStop
   offset="0"
   style="stop-color:#CCCCCC"
   id="midPointStop721" /><a:midPointStop
   offset="0.5"
   style="stop-color:#CCCCCC"
   id="midPointStop722" /><a:midPointStop
   offset="0.2243"
   style="stop-color:#C8C8C8"
   id="midPointStop723" /><a:midPointStop
   offset="0.5"
   style="stop-color:#C8C8C8"
   id="midPointStop724" /><a:midPointStop
   offset="0.4625"
   style="stop-color:#BBBBBB"
   id="midPointStop725" /><a:midPointStop
   offset="0.5"
   style="stop-color:#BBBBBB"
   id="midPointStop726" /><a:midPointStop
   offset="0.7071"
   style="stop-color:#A6A6A6"
   id="midPointStop727" /><a:midPointStop
   offset="0.5"
   style="stop-color:#A6A6A6"
   id="midPointStop728" /><a:midPointStop
   offset="0.9548"
   style="stop-color:#888888"
   id="midPointStop729" /><a:midPointStop
   offset="0.5"
   style="stop-color:#888888"
   id="midPointStop730" /><a:midPointStop
   offset="1"
   style="stop-color:#828282"
   id="midPointStop731" /></linearGradient><path
   id="path630"
   fill="url(#path630_1_)"
   d="M20.7,23.7c1.3,4.8,4.7,8.1,7.6,7.4c2.9-0.8,4.2-5.3,2.9-10.2      c-1.3-4.8-4.7-8.1-7.6-7.4C20.7,14.3,19.4,18.8,20.7,23.7z" /><linearGradient
   id="path637_1_"
   gradientUnits="userSpaceOnUse"
   x1="-68.5024"
   y1="286.1963"
   x2="-111.6865"
   y2="286.1963"
   gradientTransform="matrix(0.2264 -6.065625e-002 -6.065625e-002 -0.2264 64.1085 81.4768)"><stop
   offset="0"
   style="stop-color:#FFFFFF"
   id="stop734" /><stop
   offset="1"
   style="stop-color:#DADADA"
   id="stop735" /><a:midPointStop
   offset="0"
   style="stop-color:#FFFFFF"
   id="midPointStop736" /><a:midPointStop
   offset="0.5"
   style="stop-color:#FFFFFF"
   id="midPointStop737" /><a:midPointStop
   offset="1"
   style="stop-color:#DADADA"
   id="midPointStop738" /></linearGradient><path
   id="path637"
   fill="url(#path637_1_)"
   d="M21.5,23.5c1.2,4.5,4.4,7.6,7.1,6.8s3.9-5,2.7-9.4c-1.2-4.5-4.4-7.5-7.1-6.8      C21.5,14.7,20.3,19,21.5,23.5z" /><radialGradient
   id="path644_1_"
   cx="-62.5249"
   cy="300.4814"
   r="56.8503"
   fx="-62.5249"
   fy="300.4814"
   gradientTransform="matrix(0.2264 -6.065625e-002 -6.065625e-002 -0.2264 64.1085 81.4768)"
   gradientUnits="userSpaceOnUse"><stop
   offset="0"
   style="stop-color:#FFFFFF"
   id="stop741" /><stop
   offset="1"
   style="stop-color:#B2B2B2"
   id="stop742" /><a:midPointStop
   offset="0"
   style="stop-color:#FFFFFF"
   id="midPointStop743" /><a:midPointStop
   offset="0.5"
   style="stop-color:#FFFFFF"
   id="midPointStop744" /><a:midPointStop
   offset="1"
   style="stop-color:#B2B2B2"
   id="midPointStop745" /></radialGradient><path
   id="path644"
   fill="url(#path644_1_)"
   d="M22.8,23.1c1,3.9,3.8,6.5,6.1,5.9c2.3-0.6,3.4-4.3,2.3-8.1      c-1-3.9-3.8-6.5-6.1-5.9C22.8,15.6,21.8,19.2,22.8,23.1z" /></g><g
   id="g173"
   i:knockout="Off"><path
   id="path174"
   i:isolated="yes"
   i:knockout="Off"
   opacity="0.5"
   fill="#9CBCDA"
   enable-background="new    "
   d="M31.4,6.3      c0,0,0,19.7,0,23.6c-1.8-0.7-3.9-1-6-1c-6.4,0-11.3,3-11.3,6.8s5,6.8,11.3,6.8s11.3-3,11.3-6.8c0-0.4-0.1-0.8-0.2-1.2      c0-0.3,0-16.5,0-20.5c0.9,0.7,2,1.4,3.4,1.6c2.4,0.4,4.5-0.4,6.3-1.1l0.8-0.3L46,11.4c-1.6,0.5-2.8-0.5-4.7-2.1      c-1.4-1.2-2.9-2.5-4.9-2.9c0,0,0-0.1,0-0.1s-0.7,0-1.1,0c-0.1,0-0.1,0-0.2,0c0,0-0.7,0-0.7,0l-1.7,0H31.4z" /><linearGradient
   id="path181_1_"
   gradientUnits="userSpaceOnUse"
   x1="404.75"
   y1="-264.9038"
   x2="500.7506"
   y2="-264.9038"
   gradientTransform="matrix(0.1875 0 0 -0.1875 -51.874 -26.4004)"><stop
   offset="0"
   style="stop-color:#99CCFF"
   id="stop750" /><stop
   offset="1"
   style="stop-color:#C7E3EF"
   id="stop751" /><a:midPointStop
   offset="0"
   style="stop-color:#99CCFF"
   id="midPointStop752" /><a:midPointStop
   offset="0.5"
   style="stop-color:#99CCFF"
   id="midPointStop753" /><a:midPointStop
   offset="1"
   style="stop-color:#C7E3EF"
   id="midPointStop754" /></linearGradient><path
   id="path181"
   fill="url(#path181_1_)"
   d="M30.2,5.1c0,0,0,19.7,0,23.6c-1.8-0.7-3.9-1-6-1c-6.4,0-11.3,3-11.3,6.8      s5,6.8,11.3,6.8s11.3-3,11.3-6.8c0-0.4-0.1-0.8-0.2-1.2c0-0.3,0-16.5,0-20.5c0.9,0.7,2,1.4,3.4,1.6c2.4,0.4,4.5-0.4,6.3-1.1      l0.8-0.3l-0.9-2.8c-1.6,0.5-2.8-0.5-4.7-2.1c-1.4-1.2-2.9-2.5-4.9-2.9c0,0,0-0.1,0-0.1s-0.7,0-1.1,0c-0.1,0-0.1,0-0.2,0      c0,0-0.7,0-0.7,0l-1.7,0H30.2z" /><linearGradient
   id="path197_1_"
   gradientUnits="userSpaceOnUse"
   x1="435.8076"
   y1="-166.1406"
   x2="435.8076"
   y2="-220.6434"
   gradientTransform="matrix(0.1875 0 0 -0.1875 -51.874 -26.4004)"><stop
   offset="0"
   style="stop-color:#0066CC"
   id="stop757" /><stop
   offset="0.1414"
   style="stop-color:#0D73D9"
   id="stop758" /><stop
   offset="0.4377"
   style="stop-color:#2288EE"
   id="stop759" /><stop
   offset="0.7273"
   style="stop-color:#2F95FB"
   id="stop760" /><stop
   offset="1"
   style="stop-color:#3399FF"
   id="stop761" /><a:midPointStop
   offset="0"
   style="stop-color:#0066CC"
   id="midPointStop762" /><a:midPointStop
   offset="0.5"
   style="stop-color:#0066CC"
   id="midPointStop763" /><a:midPointStop
   offset="0.1414"
   style="stop-color:#0D73D9"
   id="midPointStop764" /><a:midPointStop
   offset="0.5"
   style="stop-color:#0D73D9"
   id="midPointStop765" /><a:midPointStop
   offset="0.4377"
   style="stop-color:#2288EE"
   id="midPointStop766" /><a:midPointStop
   offset="0.5"
   style="stop-color:#2288EE"
   id="midPointStop767" /><a:midPointStop
   offset="0.7273"
   style="stop-color:#2F95FB"
   id="midPointStop768" /><a:midPointStop
   offset="0.5"
   style="stop-color:#2F95FB"
   id="midPointStop769" /><a:midPointStop
   offset="1"
   style="stop-color:#3399FF"
   id="midPointStop770" /></linearGradient><path
   id="path197"
   fill="url(#path197_1_)"
   d="M34,6.6l-0.2,0.1V6.6h-0.5v0h-1.7v24.5c-1.8-1.2-4.5-1.9-7.5-1.9      c-5.4,0-9.8,2.4-9.8,5.3s4.4,5.3,9.8,5.3c5.4,0,9.8-2.4,9.8-5.3c0-0.4-0.1-0.7-0.2-1V10.3c1.9,0.5,3.1,2.4,5.1,2.7      c2.3,0.4,4.3-0.6,6.3-1.3C40.6,13.2,38.5,6.5,34,6.6z" /><linearGradient
   id="path222_1_"
   gradientUnits="userSpaceOnUse"
   x1="182.4131"
   y1="588.3711"
   x2="186.4486"
   y2="612.5844"
   gradientTransform="matrix(0.1875 0 0 0.1875 -15.4761 -79.3979)"><stop
   offset="0"
   style="stop-color:#FFFFFF"
   id="stop773" /><stop
   offset="1.540000e-002"
   style="stop-color:#F9F9F9"
   id="stop774" /><stop
   offset="0.1111"
   style="stop-color:#DCDCDC"
   id="stop775" /><stop
   offset="0.2173"
   style="stop-color:#C3C3C3"
   id="stop776" /><stop
   offset="0.3363"
   style="stop-color:#B0B0B0"
   id="stop777" /><stop
   offset="0.4752"
   style="stop-color:#A3A3A3"
   id="stop778" /><stop
   offset="0.6526"
   style="stop-color:#9B9B9B"
   id="stop779" /><stop
   offset="1"
   style="stop-color:#999999"
   id="stop780" /><a:midPointStop
   offset="0"
   style="stop-color:#FFFFFF"
   id="midPointStop781" /><a:midPointStop
   offset="0.5"
   style="stop-color:#FFFFFF"
   id="midPointStop782" /><a:midPointStop
   offset="1.540000e-002"
   style="stop-color:#F9F9F9"
   id="midPointStop783" /><a:midPointStop
   offset="0.5"
   style="stop-color:#F9F9F9"
   id="midPointStop784" /><a:midPointStop
   offset="0.1111"
   style="stop-color:#DCDCDC"
   id="midPointStop785" /><a:midPointStop
   offset="0.5"
   style="stop-color:#DCDCDC"
   id="midPointStop786" /><a:midPointStop
   offset="0.2173"
   style="stop-color:#C3C3C3"
   id="midPointStop787" /><a:midPointStop
   offset="0.5"
   style="stop-color:#C3C3C3"
   id="midPointStop788" /><a:midPointStop
   offset="0.3363"
   style="stop-color:#B0B0B0"
   id="midPointStop789" /><a:midPointStop
   offset="0.5"
   style="stop-color:#B0B0B0"
   id="midPointStop790" /><a:midPointStop
   offset="0.4752"
   style="stop-color:#A3A3A3"
   id="midPointStop791" /><a:midPointStop
   offset="0.5"
   style="stop-color:#A3A3A3"
   id="midPointStop792" /><a:midPointStop
   offset="0.6526"
   style="stop-color:#9B9B9B"
   id="midPointStop793" /><a:midPointStop
   offset="0.5"
   style="stop-color:#9B9B9B"
   id="midPointStop794" /><a:midPointStop
   offset="1"
   style="stop-color:#999999"
   id="midPointStop795" /></linearGradient><path
   id="path222"
   i:isolated="yes"
   i:knockout="Off"
   opacity="0.5"
   fill="url(#path222_1_)"
   a:adobe-blending-mode="screen"
   enable-background="new    "
   d="      M23.1,29.7c-4.8,0.3-8.4,2.4-8.4,4.8c0,1,0.6,1.8,1.5,2.6C16.6,34.1,19.2,31.4,23.1,29.7z" /><linearGradient
   id="path247_1_"
   gradientUnits="userSpaceOnUse"
   x1="246.8271"
   y1="635.1006"
   x2="227.0757"
   y2="615.3492"
   gradientTransform="matrix(0.1875 0 0 0.1875 -15.4761 -79.3979)"><stop
   offset="0"
   style="stop-color:#FFFFFF"
   id="stop798" /><stop
   offset="1.540000e-002"
   style="stop-color:#F9F9F9"
   id="stop799" /><stop
   offset="0.1111"
   style="stop-color:#DCDCDC"
   id="stop800" /><stop
   offset="0.2173"
   style="stop-color:#C3C3C3"
   id="stop801" /><stop
   offset="0.3363"
   style="stop-color:#B0B0B0"
   id="stop802" /><stop
   offset="0.4752"
   style="stop-color:#A3A3A3"
   id="stop803" /><stop
   offset="0.6526"
   style="stop-color:#9B9B9B"
   id="stop804" /><stop
   offset="1"
   style="stop-color:#999999"
   id="stop805" /><a:midPointStop
   offset="0"
   style="stop-color:#FFFFFF"
   id="midPointStop806" /><a:midPointStop
   offset="0.5"
   style="stop-color:#FFFFFF"
   id="midPointStop807" /><a:midPointStop
   offset="1.540000e-002"
   style="stop-color:#F9F9F9"
   id="midPointStop808" /><a:midPointStop
   offset="0.5"
   style="stop-color:#F9F9F9"
   id="midPointStop809" /><a:midPointStop
   offset="0.1111"
   style="stop-color:#DCDCDC"
   id="midPointStop810" /><a:midPointStop
   offset="0.5"
   style="stop-color:#DCDCDC"
   id="midPointStop811" /><a:midPointStop
   offset="0.2173"
   style="stop-color:#C3C3C3"
   id="midPointStop812" /><a:midPointStop
   offset="0.5"
   style="stop-color:#C3C3C3"
   id="midPointStop813" /><a:midPointStop
   offset="0.3363"
   style="stop-color:#B0B0B0"
   id="midPointStop814" /><a:midPointStop
   offset="0.5"
   style="stop-color:#B0B0B0"
   id="midPointStop815" /><a:midPointStop
   offset="0.4752"
   style="stop-color:#A3A3A3"
   id="midPointStop816" /><a:midPointStop
   offset="0.5"
   style="stop-color:#A3A3A3"
   id="midPointStop817" /><a:midPointStop
   offset="0.6526"
   style="stop-color:#9B9B9B"
   id="midPointStop818" /><a:midPointStop
   offset="0.5"
   style="stop-color:#9B9B9B"
   id="midPointStop819" /><a:midPointStop
   offset="1"
   style="stop-color:#999999"
   id="midPointStop820" /></linearGradient><path
   id="path247"
   i:isolated="yes"
   i:knockout="Off"
   opacity="0.5"
   fill="url(#path247_1_)"
   a:adobe-blending-mode="screen"
   enable-background="new    "
   d="      M31.4,32.7c0.2,0.4,0.3,0.7,0.3,1.1c0,2.5-4.3,4.5-9.7,4.5c-0.1,0-0.1,0-0.2,0c1.1,0.3,2.3,0.5,3.6,0.5c4.2,0,7.5-1.7,7.5-3.8      C33,34.2,32.4,33.4,31.4,32.7z" /></g></g><g
   id="Layer_x5F_4"
   i:knockout="Off"
   i:layer="yes"
   i:dimmedPercent="3"
   i:rgbTrio="#4F00FFFF4F00"><rect
   id="path241"
   i:knockout="Off"
   fill="none"
   width="48"
   height="48" /></g></svg>
