<?xml version="1.0" encoding="UTF-8" standalone="no"?>
<!DOCTYPE svg PUBLIC "-//W3C//DTD SVG 20010904//EN"
"http://www.w3.org/TR/2001/REC-SVG-20010904/DTD/svg10.dtd">
<!-- Created with Sodipodi ("http://www.sodipodi.com/") -->
<svg
   xmlns:x="http://ns.adobe.com/Extensibility/1.0/"
   xmlns:i="http://ns.adobe.com/AdobeIllustrator/10.0/"
   xmlns:graph="http://ns.adobe.com/Graphs/1.0/"
   xmlns="http://www.w3.org/2000/svg"
   xmlns:xlink="http://www.w3.org/1999/xlink"
   xmlns:a="http://ns.adobe.com/AdobeSVGViewerExtensions/3.0/"
   xml:space="preserve"
   i:viewOrigin="282.9219 419.0313"
   i:rulerOrigin="0 0"
   i:pageBounds="0 792 612 0"
   width="48"
   height="48"
   viewBox="0 0 48 48"
   overflow="visible"
   enable-background="new 0 0 48 48"
   xmlns:sodipodi="http://sodipodi.sourceforge.net/DTD/sodipodi-0.dtd"
   id="svg602"
   sodipodi:version="0.34"
   sodipodi:docname="C:\msys\home\su_blanc\mldonkey-2.5.12\src\gtk2\rsvg\mime_html.svg"><defs
   id="defs703" /><sodipodi:namedview
   id="namedview702" /><g
   id="Layer_x5F_1"
   i:knockout="Off"
   i:layer="yes"
   i:dimmedPercent="3"
   i:rgbTrio="#4F008000FFFF"><g
   id="g620"
   i:knockout="Off"><path
   id="path155"
   i:isolated="yes"
   i:knockout="Off"
   opacity="0.2"
   enable-background="new    "
   d="M10.1,1.6      c-1.8,0-3.3,1.5-3.3,3.3v39.4c0,1.8,1.5,3.3,3.3,3.3h34.6c1.8,0,3.3-1.5,3.3-3.3V4.9c0-1.8-1.5-3.3-3.3-3.3H10.1z" /><linearGradient
   id="path162_1_"
   gradientUnits="userSpaceOnUse"
   x1="-1385.9985"
   y1="291.7295"
   x2="-1165.4985"
   y2="291.7295"
   gradientTransform="matrix(0.1875 0 0 -0.1875 264.8174 78.0996)"><stop
   offset="0"
   style="stop-color:#A7ABAC"
   id="stop609" /><stop
   offset="1"
   style="stop-color:#85898A"
   id="stop610" /><a:midPointStop
   offset="0"
   style="stop-color:#A7ABAC"
   id="midPointStop611" /><a:midPointStop
   offset="0.5"
   style="stop-color:#A7ABAC"
   id="midPointStop612" /><a:midPointStop
   offset="1"
   style="stop-color:#85898A"
   id="midPointStop613" /></linearGradient><path
   id="path162"
   fill="url(#path162_1_)"
   d="M8.3,0.4C6.5,0.4,5,1.9,5,3.7v39.4c0,1.8,1.5,3.3,3.3,3.3H43      c1.8,0,3.3-1.5,3.3-3.3V3.7c0-1.8-1.5-3.3-3.3-3.3H8.3z" /><path
   id="path163"
   fill="#99CCFF"
   d="M5.9,43.1c0,1.3,1.1,2.4,2.4,2.4H43c1.3,0,2.4-1.1,2.4-2.4V3.7c0-1.3-1.1-2.4-2.4-2.4H8.3      C7,1.3,5.9,2.4,5.9,3.7V43.1z" /><linearGradient
   id="path170_1_"
   gradientUnits="userSpaceOnUse"
   x1="-1321.3008"
   y1="337.4727"
   x2="-1072.4517"
   y2="88.6235"
   gradientTransform="matrix(0.1875 0 0 -0.1875 264.8174 78.0996)"><stop
   offset="0"
   style="stop-color:#FFFFFF"
   id="stop617" /><stop
   offset="1"
   style="stop-color:#99CCFF"
   id="stop618" /><a:midPointStop
   offset="0"
   style="stop-color:#FFFFFF"
   id="midPointStop619" /><a:midPointStop
   offset="0.5"
   style="stop-color:#FFFFFF"
   id="midPointStop620" /><a:midPointStop
   offset="1"
   style="stop-color:#99CCFF"
   id="midPointStop621" /></linearGradient><path
   id="path170"
   fill="url(#path170_1_)"
   d="M8.3,2.3C7.5,2.3,6.9,3,6.9,3.7v39.4c0,0.8,0.6,1.4,1.4,1.4H43      c0.8,0,1.4-0.6,1.4-1.4V3.7c0-0.8-0.6-1.4-1.4-1.4H8.3z" /><path
   id="path171"
   i:isolated="yes"
   i:knockout="Off"
   opacity="0.4"
   fill="#FFFFFF"
   enable-background="new    "
   d="M32.5,19.1      c3.7-3.4,8.1-5.1,12.8-6V3.7c0-1.3-1.1-2.4-2.4-2.4H8.3C7,1.3,5.9,2.4,5.9,3.7v28.2C15.7,32.7,24.9,25.9,32.5,19.1z" /></g></g><g
   id="Layer_x5F_2"
   i:knockout="Off"
   i:layer="yes"
   i:dimmedPercent="3"
   i:rgbTrio="#4F004F00FFFF"><g
   id="g625"
   i:knockout="Off"><path
   id="path172"
   i:isolated="yes"
   i:knockout="Off"
   opacity="0.3"
   fill="#999999"
   enable-background="new    "
   d="M3.9,5.7      c-1.7,0-3.1,1.1-3.1,2.5v31.1c0,1.4,1.4,2.5,3.1,2.5h37.8c1.7,0,3.1-1.1,3.1-2.5v-31c0-1.4-1.4-2.5-3.1-2.5L3.9,5.7L3.9,5.7z" /><linearGradient
   id="path179_1_"
   gradientUnits="userSpaceOnUse"
   x1="-449.4609"
   y1="232.6357"
   x2="-449.4609"
   y2="25.1573"
   gradientTransform="matrix(0.1875 0 0 0.1875 105.6738 -0.4688)"><stop
   offset="0"
   style="stop-color:#6A5B97"
   id="stop628" /><stop
   offset="1"
   style="stop-color:#6D7BB0"
   id="stop629" /><a:midPointStop
   offset="0"
   style="stop-color:#6A5B97"
   id="midPointStop630" /><a:midPointStop
   offset="0.5"
   style="stop-color:#6A5B97"
   id="midPointStop631" /><a:midPointStop
   offset="1"
   style="stop-color:#6D7BB0"
   id="midPointStop632" /></linearGradient><path
   id="path179"
   fill="url(#path179_1_)"
   d="M42.8,38.2c0,1.1-1.1,2-2.5,2H2.5c-1.4,0-2.5-0.9-2.5-2v-31c0-1.1,1.1-2,2.5-2      h37.8c1.4,0,2.5,0.9,2.5,2V38.2L42.8,38.2z" /><linearGradient
   id="path186_1_"
   gradientUnits="userSpaceOnUse"
   x1="-558.2593"
   y1="123.834"
   x2="-341.0797"
   y2="123.834"
   gradientTransform="matrix(0.1875 0 0 0.1875 105.6738 -0.4688)"><stop
   offset="0"
   style="stop-color:#EFEDF5"
   id="stop635" /><stop
   offset="1"
   style="stop-color:#99ACD2"
   id="stop636" /><a:midPointStop
   offset="0"
   style="stop-color:#EFEDF5"
   id="midPointStop637" /><a:midPointStop
   offset="0.5"
   style="stop-color:#EFEDF5"
   id="midPointStop638" /><a:midPointStop
   offset="1"
   style="stop-color:#99ACD2"
   id="midPointStop639" /></linearGradient><path
   id="path186"
   fill="url(#path186_1_)"
   d="M2.5,6C1.7,6,1,6.5,1,7.2v31.1c0,0.7,0.7,1.2,1.5,1.2h37.8c0.8,0,1.5-0.5,1.5-1.2      V7.2c0-0.7-0.7-1.2-1.5-1.2H2.5L2.5,6z" /><path
   id="path187"
   i:isolated="yes"
   i:knockout="Off"
   opacity="0.64"
   fill="#FFFFFF"
   enable-background="new    "
   d="M3.1,25.4      c1.4,0.1,2.8,0.2,4.2,0.2c16.8,0,30.3-7.5,30.3-16.8c0-0.4,0-0.7-0.1-1.1c-7.7,0-33.4,0-34.5,0C3.1,8.2,3.1,17.4,3.1,25.4z" /></g></g><g
   id="Layer_x5F_3"
   i:knockout="Off"
   i:layer="yes"
   i:dimmedPercent="3"
   i:rgbTrio="#4F00FFFF4F00"><g
   id="g643"><circle
   id="path622_6_"
   i:isolated="yes"
   i:knockout="Off"
   opacity="0.1"
   enable-background="new    "
   cx="19.2"
   cy="22.3"
   r="19.2" /><circle
   id="path622_4_"
   i:isolated="yes"
   i:knockout="Off"
   opacity="0.2"
   enable-background="new    "
   cx="19.2"
   cy="22.3"
   r="18.8" /><circle
   id="path622_5_"
   i:isolated="yes"
   i:knockout="Off"
   opacity="0.4"
   enable-background="new    "
   cx="19.2"
   cy="22.3"
   r="18.4" /><radialGradient
   id="path622_1_"
   cx="-1163.8242"
   cy="98.582"
   r="255.5714"
   fx="-1163.8242"
   fy="98.582"
   gradientTransform="matrix(0.1169 0 0 -0.1169 159.8217 47.0922)"
   gradientUnits="userSpaceOnUse"><stop
   offset="0"
   style="stop-color:#90B2D4"
   id="stop648" /><stop
   offset="2.730000e-002"
   style="stop-color:#86A7CF"
   id="stop649" /><stop
   offset="0.3146"
   style="stop-color:#28459C"
   id="stop650" /><stop
   offset="0.3576"
   style="stop-color:#243B8F"
   id="stop651" /><stop
   offset="0.4842"
   style="stop-color:#1D2570"
   id="stop652" /><stop
   offset="0.5562"
   style="stop-color:#1A1E66"
   id="stop653" /><stop
   offset="0.7238"
   style="stop-color:#1B1F65"
   id="stop654" /><stop
   offset="0.7842"
   style="stop-color:#1E2265"
   id="stop655" /><stop
   offset="0.8272"
   style="stop-color:#262663"
   id="stop656" /><stop
   offset="0.8621"
   style="stop-color:#2E2D61"
   id="stop657" /><stop
   offset="0.8919"
   style="stop-color:#36335D"
   id="stop658" /><stop
   offset="0.9183"
   style="stop-color:#3C3856"
   id="stop659" /><stop
   offset="0.9422"
   style="stop-color:#3D394C"
   id="stop660" /><stop
   offset="0.9641"
   style="stop-color:#35323B"
   id="stop661" /><stop
   offset="0.9837"
   style="stop-color:#201F21"
   id="stop662" /><stop
   offset="1"
   style="stop-color:#000000"
   id="stop663" /><a:midPointStop
   offset="0"
   style="stop-color:#90B2D4"
   id="midPointStop664" /><a:midPointStop
   offset="0.5"
   style="stop-color:#90B2D4"
   id="midPointStop665" /><a:midPointStop
   offset="2.730000e-002"
   style="stop-color:#86A7CF"
   id="midPointStop666" /><a:midPointStop
   offset="0.5"
   style="stop-color:#86A7CF"
   id="midPointStop667" /><a:midPointStop
   offset="0.3146"
   style="stop-color:#28459C"
   id="midPointStop668" /><a:midPointStop
   offset="0.5"
   style="stop-color:#28459C"
   id="midPointStop669" /><a:midPointStop
   offset="0.3576"
   style="stop-color:#243B8F"
   id="midPointStop670" /><a:midPointStop
   offset="0.5"
   style="stop-color:#243B8F"
   id="midPointStop671" /><a:midPointStop
   offset="0.4842"
   style="stop-color:#1D2570"
   id="midPointStop672" /><a:midPointStop
   offset="0.5"
   style="stop-color:#1D2570"
   id="midPointStop673" /><a:midPointStop
   offset="0.5562"
   style="stop-color:#1A1E66"
   id="midPointStop674" /><a:midPointStop
   offset="0.5"
   style="stop-color:#1A1E66"
   id="midPointStop675" /><a:midPointStop
   offset="0.7238"
   style="stop-color:#1B1F65"
   id="midPointStop676" /><a:midPointStop
   offset="0.5"
   style="stop-color:#1B1F65"
   id="midPointStop677" /><a:midPointStop
   offset="0.7842"
   style="stop-color:#1E2265"
   id="midPointStop678" /><a:midPointStop
   offset="0.5"
   style="stop-color:#1E2265"
   id="midPointStop679" /><a:midPointStop
   offset="0.8272"
   style="stop-color:#262663"
   id="midPointStop680" /><a:midPointStop
   offset="0.5"
   style="stop-color:#262663"
   id="midPointStop681" /><a:midPointStop
   offset="0.8621"
   style="stop-color:#2E2D61"
   id="midPointStop682" /><a:midPointStop
   offset="0.5"
   style="stop-color:#2E2D61"
   id="midPointStop683" /><a:midPointStop
   offset="0.8919"
   style="stop-color:#36335D"
   id="midPointStop684" /><a:midPointStop
   offset="0.5"
   style="stop-color:#36335D"
   id="midPointStop685" /><a:midPointStop
   offset="0.9183"
   style="stop-color:#3C3856"
   id="midPointStop686" /><a:midPointStop
   offset="0.5"
   style="stop-color:#3C3856"
   id="midPointStop687" /><a:midPointStop
   offset="0.9422"
   style="stop-color:#3D394C"
   id="midPointStop688" /><a:midPointStop
   offset="0.5"
   style="stop-color:#3D394C"
   id="midPointStop689" /><a:midPointStop
   offset="0.9641"
   style="stop-color:#35323B"
   id="midPointStop690" /><a:midPointStop
   offset="0.5"
   style="stop-color:#35323B"
   id="midPointStop691" /><a:midPointStop
   offset="0.9837"
   style="stop-color:#201F21"
   id="midPointStop692" /><a:midPointStop
   offset="0.5"
   style="stop-color:#201F21"
   id="midPointStop693" /><a:midPointStop
   offset="1"
   style="stop-color:#000000"
   id="midPointStop694" /></radialGradient><circle
   id="path622"
   fill="url(#path622_1_)"
   cx="19.2"
   cy="22.3"
   r="18" /><path
   i:isolated="yes"
   i:knockout="Off"
   opacity="0.5"
   enable-background="new    "
   d="M13.9,7.9c-0.1,0-0.2,0-0.2,0.1      C13.8,7.9,14,7.9,13.9,7.9z M19.1,8.8l0.1-0.7l-0.8,0.1l0.1,0.7L19.1,8.8L19.1,8.8z M10.1,21.9c-0.2-0.2-0.1-0.8-0.1-0.8      s-2.4-1.3-5-2c-0.3-0.1-0.2-0.7,0.2-1L5,17.4c0-0.4,0.6-2.1,1.1-2.2s-0.1,1-0.1,1l-0.6,0.3c0,0,0.7,0.8,0.9,0.8s0.4-0.4,0.4-0.4      l-0.7-0.5l0.7-0.3l0.1-0.2H7l1.1-1.8c0.8-0.3,1.8-0.7,1.9-0.8c0.2-0.1,1.7-1,2-1.1c0.2-0.2,0.8-0.2,1-0.2c0.2,0,0.6-0.1,0.6-0.6      c0.1-0.6,0.2-0.6,0.4-0.5s-0.2,0.4,0.2,0.5c0.4,0.1,0.7,0.3,1,0.1c0.2-0.2-0.1-0.4-0.2-0.6h3l0.3-0.9l-0.7-0.1L15,9.6V9.3h-0.2      C15,7.8,16.6,8,15.4,7.1c-0.1-0.1-1.1,1.7-1.4,1.7c-0.5-0.1-1.1-0.1-1.3,0.1c-0.2,0.2,0.4-0.7,0.9-1c-0.8,0.2-3.4,1.1-6.1,4      c-2.6,2.8-3.6,6.5-3.6,6.6c0,0.2,0.6,0.3,0.6,0.6c0.1,0.3-1,1.3-1,1.8c0,0.2-0.2,3.4,0.6,5.9c1,3,3.3,5.5,3.5,5.7l0.6-0.2      c0,0-1.2-2.2-1.3-2.4s1.4-3.1,2.1-3c0.7,0.1,0.6,0.3,1,0.1c0.4-0.2,0.7-2.3,1.2-2.6c0.5-0.2,1-0.5,1-1      C12.1,23,10.2,22,10.1,21.9L10.1,21.9z M21.7,7.1l-1.4-0.5l0.2,0.8L21.7,7.1z M16.2,8.9c0.2,0,3.4-2.1,3-2.2s-0.4,0-1.2-0.1      c-0.9-0.1-1.8,1.2-2,1.4C15.9,8.3,16,8.9,16.2,8.9z M31,24.2l0.4-0.6L31,23.5l-0.3,0.4l-0.4,0.6l0.3,0.2L31,24.2z M32.7,25.9      l-0.1-0.8H32l-0.1,0.6l-0.6-0.1l-0.2-0.6l-0.3-0.2l-0.4,0.4l-0.3-0.1L30,25.4l0.4,0.2v3.2l1.4,0.3c0,0.1-0.1,0.1-0.1,0.2      c-0.1,0.3,0.4,0.5,0.8,0.3c0.2-0.1,0.6-0.5,0.8-1.1c0.4-0.9,0.7-2.1,0.8-2.5l0.2-0.3l-1,0.4L32.7,25.9L32.7,25.9z M34.9,20      l-0.2-0.6c-0.3-1.8-1-4.1-2.6-6.5c-2.4-3.6-9-5.7-9-5.7l-0.3,0.4l-0.2-0.3L22,7.2v0.4L22.5,8l-0.3,0.2L21,8.3l-2.7,1.4l0.2,1.2      L18.2,11L18,11.2l0.9,1.3l0.1,0.4l-0.7,0.2v0.9L17.8,14l0.1,0.7l-3.5,2.4l0.1,1.4c0.2,0.3,2.2,2.4,2.2,2.4s2.3,0.1,2.8-0.2      c0.5-0.3,0.2,0.3,0.3,0.4c0.2,0.1,0.2,1.2,0.4,1.3c0.2,0.1,0,0.7,0.2,0.9c0.2,0.2,0.2,2.6,0.2,2.6s1.2,2.1,1.2,2.6      c0,0.6-0.1,0.5,1,0.4c1-0.1,1.2-0.4,1.4-0.6c0.2-0.2,0.2-0.5,0.4-0.8c0.2-0.3,0.6-1.4,1-1.8c0.5-0.4,1.7-0.7,1.8-1.4      c0.1-0.7,0.6-1.2,0.6-1.2l2.2-2.3l-0.1,0.3l-0.1,1.2l0.6-0.2l-0.1-1.3l-0.2-0.2l0,0c0,0-0.2-0.3-0.4-0.3s-1.4,0.3-1.7,0.2      c-0.2-0.1-1.1-2.4-1.2-2.5c-0.2-0.1-1.1-1.7-1.1-1.7s2.2,2.7,2.6,3.8c0.2,0.6,1,0.1,1.6-0.6l0.2,0.4l0.4-0.1l-0.1-0.5h0.5v0.7      l-0.2,0.4L31,21.1l0.4,0.4l0.2-0.3l0.6-0.6l0.8-0.4l0.2,0.4l0.1,0.6l-0.2,0.6L32.8,22l-0.2,0.9v0.4L32.1,23L32,22l-0.6,0.1      L31,22.9l0.5,0.7l1.1,0.2l0.9-0.8l0.1-1.6l0.4-0.5c0.2,0.6,0.4,1.4,0.4,2c0,0.7,0.3-0.5,0.1-2.6L34.9,20L34.9,20L34.9,20z       M21.9,15.1L19.1,15l1.2-1H21l1,0.6V15.1L21.9,15.1z M25.3,14.7v0.4h-1.2l0.1,0.3l-0.7,0.1l-0.1,0.2l-0.5-0.1l-1-0.2l0.2-0.2      l0.2-0.3l0.5-0.6l0.2,0.4l0.8-0.1l0.4-0.4l1.6,0.3L25.3,14.7L25.3,14.7L25.3,14.7z M25.4,14.1l-0.6,0.1l-0.1-0.4l0.8-0.1      l0.1-0.4l0.6,0.6L25.4,14.1L25.4,14.1z M28.4,29.2L28,29.5l0.1,0.7h0.5v-0.6l0.4-0.6v-1.1l-0.2-0.1L28.4,29.2L28.4,29.2z       M25,27.8c0,0-0.4,0.1,0.1,0.2c0.4,0.2,2.1-2.4,2.1-2.4l-1.4,0.9L25,27.8L25,27.8L25,27.8z M22.2,37.1l-0.3-0.3l-0.6-0.1      L21.1,37l-0.8-0.1l-0.1-0.4h-0.6L19,36.9h-1.2l-0.1-0.3l-1.9-0.2l-0.3,0.3l-0.8-0.2l-0.1-0.7l-0.4-0.1l-0.4,0.7l-1.4-0.1      c0.2,0.1,2.3,1.4,5.5,1.6c4.2,0.3,6.2-0.7,6.2-0.7L24,37.2L22.2,37.1L22.2,37.1L22.2,37.1z"
   id="path696" /><path
   fill="#FFFFFF"
   d="M13.4,6.2c-0.1,0-0.2,0-0.3,0.1C13.3,6.3,13.4,6.2,13.4,6.2z M19,7.3l0.1-0.8l-0.9,0.1l0.1,0.8L19,7.3      L19,7.3z M9,21.9C8.9,21.7,9,21,9,21s-2.6-1.4-5.6-2.2c-0.3-0.1-0.2-0.9,0.2-1.1l-0.1-0.8c-0.1-0.4,0.6-2.3,1.3-2.5      c0.6-0.2-0.1,1.1-0.1,1.1L4,15.9c0,0,0.8,0.9,1,0.9c0.2,0,0.5-0.5,0.5-0.5l-0.8-0.6l0.8-0.3v-0.2l0.2-0.1l1.3-1.9      c0.9-0.4,2-0.8,2.1-0.9c0.2-0.1,1.9-1,2.2-1.3c0.2-0.2,1-0.2,1.2-0.2c0.2,0,0.6-0.1,0.6-0.7c0.1-0.6,0.3-0.7,0.5-0.6      c0.2,0.2-0.2,0.5,0.2,0.6c0.4,0.1,0.8,0.4,1,0.1c0.2-0.2-0.1-0.4-0.2-0.6h3.3l0.3-1l-0.8-0.1l-2.9-0.3V7.9h-0.2      c0.3-1.7,2.2-1.4,0.8-2.4c-0.1-0.1-1.3,1.9-1.6,1.8c-0.6-0.1-1.3-0.1-1.4,0.1c-0.2,0.2,0.5-0.8,1-1.1c-0.9,0.2-3.8,1.3-6.8,4.5      c-2.9,3-4,7.2-4,7.4c0,0.2,0.6,0.4,0.6,0.7c0.1,0.3-1.1,1.4-1.1,2c0,0.2-0.2,3.7,0.7,6.6c1.3,3.4,3.7,6.2,4,6.3L7,33.4      c0,0-1.4-2.4-1.4-2.6c-0.1-0.2,1.5-3.4,2.3-3.4c0.8,0.1,0.6,0.3,1,0.1c0.5-0.2,0.8-2.6,1.3-2.8c0.6-0.2,1.1-0.5,1-1      C11.3,23.1,9.3,22,9,21.9L9,21.9z M21.9,5.4l-1.6-0.6l0.3,0.9L21.9,5.4z M15.9,7.5c0.2,0,3.8-2.3,3.4-2.4C19,5,18.9,5.1,17.9,5      c-1-0.1-1.9,1.4-2.2,1.6C15.5,6.7,15.6,7.5,15.9,7.5z M32.2,24.3l0.5-0.6l-0.5-0.2L31.9,24l-0.4,0.6l0.3,0.2L32.2,24.3z       M34.2,26.3l-0.1-0.9h-0.7L33.4,26l-0.7-0.1l-0.2-0.7L32.2,25l-0.4,0.6l-0.4-0.1l-0.2,0.3l0.5,0.1v3.5l1.6,0.4      c0,0.1-0.1,0.1-0.1,0.2c-0.1,0.4,0.5,0.6,0.9,0.4c0.2-0.1,0.6-0.6,0.9-1.3c0.4-1,0.8-2.2,0.9-2.7l0.2-0.4l-1.1,0.4L34.2,26.3      L34.2,26.3z M36.6,19.8l-0.3-0.6c-0.3-2-1.2-4.6-2.9-7.2c-2.6-4-9.9-6.2-9.9-6.2l-0.4,0.5l-0.2-0.4l-0.6-0.2V6l0.5,0.4l-0.3,0.2      l-1.3,0.1l-3,1.6l0.3,1.3l-0.3,0.1l-0.2,0.2l1,1.4l0.1,0.5l-0.8,0.2v1L17.8,13l0.1,0.7l-4,3l0.1,1.5c0.3,0.4,2.6,2.6,2.6,2.6      s2.6,0.1,3.1-0.2c0.6-0.3,0.2,0.3,0.3,0.5s0.2,1.3,0.4,1.4c0.2,0.1,0,0.7,0.2,1c0.2,0.2,0.2,2.8,0.2,2.8s1.4,2.3,1.4,2.9      c0,0.6-0.1,0.6,1,0.5s1.3-0.5,1.5-0.6c0.2-0.2,0.2-0.6,0.5-0.9c0.2-0.3,0.6-1.6,1.1-2s1.9-0.7,2-1.5c0.1-0.7,0.6-1.4,0.6-1.4      l2.5-2.6L31.4,21l-0.1,1.4l0.7-0.2l0.1-1.4l-0.2-0.3v-0.1c0,0-0.2-0.3-0.4-0.3s-1.6,0.3-1.8,0.2c-0.2-0.1-1.2-2.6-1.4-2.7      c-0.2-0.1-1.3-1.9-1.3-1.9s2.6,3,3,4.2c0.2,0.7,1.1,0.1,1.8-0.6l0.2,0.5l0.5-0.1l-0.1-0.6h0.5v0.8l-0.2,0.4L32.6,21l0.5,0.4      l0.2-0.4l0.7-0.7l0.9-0.4l0.2,0.4l0.1,0.6L35,21.5l-0.5,0.4l-0.2,1v0.5l-0.5-0.2l-0.1-1L33,22.2l-0.3,0.9l0.5,0.7l1.2,0.2l1-1      l0.1-1.8l0.4-0.6c0.3,0.7,0.5,1.5,0.5,2.2c0,0.8,0.3-0.6,0.1-2.9L36.6,19.8L36.6,19.8L36.6,19.8z M22.2,14.3l-3.1-0.1l1.3-1h0.7      l1.1,0.7V14.3L22.2,14.3z M26,13.9v0.5h-1.3l0.1,0.3L24,14.7L23.9,15l-0.6-0.1l-1-0.2l0.2-0.2l0.2-0.3l0.6-0.6l0.2,0.4l0.9-0.1      l0.5-0.5l1.8,0.3L26,13.9L26,13.9L26,13.9z M26.1,13.1l-0.7,0.1l-0.1-0.5l0.9-0.1l0.1-0.5l0.6,0.6L26.1,13.1L26.1,13.1z       M29.4,29.9L29,30.3l0.1,0.8h0.5v-0.7l0.5-0.6v-1.3l-0.3-0.1L29.4,29.9L29.4,29.9z M25.6,28.3c0,0-0.4,0.1,0.1,0.2      c0.5,0.2,2.3-2.6,2.3-2.6l-1.6,1L25.6,28.3L25.6,28.3L25.6,28.3z M22.5,38.8l-0.3-0.4l-0.7-0.1l-0.1,0.3l-0.9-0.1l-0.1-0.4h-0.7      L19,38.5h-1.4l-0.1-0.3l-2.1-0.2l-0.3,0.3L14.2,38l-0.1-0.8l-0.4-0.1l-0.5,0.8l-1.5-0.1c0.2,0.2,2.6,1.5,6.2,1.8      c4.7,0.4,7-0.8,7-0.8l-0.2-0.2L22.5,38.8L22.5,38.8L22.5,38.8z"
   id="path697" /><circle
   id="path622_2_"
   i:isolated="yes"
   i:knockout="Off"
   opacity="0.23"
   fill="#000092"
   enable-background="new    "
   cx="19.2"
   cy="22.3"
   r="18" /><ellipse
   id="path622_3_"
   i:isolated="yes"
   i:knockout="Off"
   opacity="0.5"
   fill="#FFFFFF"
   enable-background="new    "
   cx="19.2"
   cy="13.5"
   rx="13"
   ry="8.5" /></g></g><g
   id="Layer_x5F_4"
   i:knockout="Off"
   i:layer="yes"
   i:dimmedPercent="3"
   i:rgbTrio="#4F00FFFF4F00"><rect
   id="path241"
   i:knockout="Off"
   fill="none"
   width="48"
   height="48" /></g></svg>
