<?xml version="1.0" encoding="UTF-8" standalone="no"?>
<!DOCTYPE svg PUBLIC "-//W3C//DTD SVG 20010904//EN"
"http://www.w3.org/TR/2001/REC-SVG-20010904/DTD/svg10.dtd">
<!-- Created with Sodipodi ("http://www.sodipodi.com/") -->
<svg
   xmlns:x="http://ns.adobe.com/Extensibility/1.0/"
   xmlns:i="http://ns.adobe.com/AdobeIllustrator/10.0/"
   xmlns:graph="http://ns.adobe.com/Graphs/1.0/"
   xmlns="http://www.w3.org/2000/svg"
   xmlns:xlink="http://www.w3.org/1999/xlink"
   xmlns:a="http://ns.adobe.com/AdobeSVGViewerExtensions/3.0/"
   xml:space="preserve"
   i:viewOrigin="285.917 415"
   i:rulerOrigin="-178 -268"
   i:pageBounds="178 524 434 268"
   width="48"
   height="48"
   viewBox="0 0 48 48"
   overflow="visible"
   enable-background="new 0 0 48 48"
   xmlns:sodipodi="http://sodipodi.sourceforge.net/DTD/sodipodi-0.dtd"
   id="svg602"
   sodipodi:version="0.34"
   sodipodi:docname="C:\msys\home\su_blanc\mldonkey-2.5.12\src\gtk2\rsvg\mime_unknown.svg"><defs
   id="defs625" /><sodipodi:namedview
   id="namedview624" /><g
   id="Layer_3"
   i:knockout="Off"
   i:layer="yes"
   i:dimmedPercent="50"
   i:rgbTrio="#4F00FFFF4F00"><rect
   id="rect605"
   i:knockout="Off"
   fill="none"
   width="48"
   height="48" /><path
   id="path606"
   i:isolated="yes"
   i:knockout="Off"
   opacity="0.2"
   enable-background="new    "
   d="M7.9,1.2     C6,1.2,4.5,2.7,4.5,4.6v40C4.5,46.5,6,48,7.9,48h35.2c1.9,0,3.4-1.5,3.4-3.4v-40c0-1.9-1.5-3.4-3.4-3.4H7.9z" /><linearGradient
   id="path613_1_"
   gradientUnits="userSpaceOnUse"
   x1="-461.2168"
   y1="132.4004"
   x2="-419.2168"
   y2="132.4004"
   gradientTransform="matrix(1 0 0 1 463.917 -109)"><stop
   offset="0"
   style="stop-color:#A7ABAC"
   id="stop609" /><stop
   offset="1"
   style="stop-color:#85898A"
   id="stop610" /><a:midPointStop
   offset="0"
   style="stop-color:#A7ABAC"
   id="midPointStop611" /><a:midPointStop
   offset="0.5"
   style="stop-color:#A7ABAC"
   id="midPointStop612" /><a:midPointStop
   offset="1"
   style="stop-color:#85898A"
   id="midPointStop613" /></linearGradient><path
   id="path613"
   fill="url(#path613_1_)"
   d="M6.1,0C4.2,0,2.7,1.5,2.7,3.4v40c0,1.9,1.5,3.4,3.4,3.4h35.2     c1.9,0,3.4-1.5,3.4-3.4v-40c0-1.9-1.5-3.4-3.4-3.4H6.1z" /><path
   id="path614"
   fill="#99CCFF"
   d="M3.7,43.4c0,1.3,1.1,2.4,2.4,2.4h35.2c1.3,0,2.4-1.1,2.4-2.4v-40c0-1.3-1.1-2.4-2.4-2.4H6.1     C4.8,1,3.7,2.1,3.7,3.4V43.4z" /><linearGradient
   id="path621_1_"
   gradientUnits="userSpaceOnUse"
   x1="-448.9243"
   y1="123.6924"
   x2="-401.5248"
   y2="171.0919"
   gradientTransform="matrix(1 0 0 1 463.917 -109)"><stop
   offset="0"
   style="stop-color:#FFFFFF"
   id="stop617" /><stop
   offset="1"
   style="stop-color:#99CCFF"
   id="stop618" /><a:midPointStop
   offset="0"
   style="stop-color:#FFFFFF"
   id="midPointStop619" /><a:midPointStop
   offset="0.5"
   style="stop-color:#FFFFFF"
   id="midPointStop620" /><a:midPointStop
   offset="1"
   style="stop-color:#99CCFF"
   id="midPointStop621" /></linearGradient><path
   id="path621"
   fill="url(#path621_1_)"
   d="M6.1,2C5.3,2,4.7,2.6,4.7,3.4v40c0,0.8,0.6,1.4,1.4,1.4h35.2     c0.8,0,1.4-0.6,1.4-1.4v-40c0-0.8-0.6-1.4-1.4-1.4H6.1z" /><path
   id="path622"
   i:isolated="yes"
   i:knockout="Off"
   opacity="0.4"
   fill="#FFFFFF"
   enable-background="new    "
   d="M30.7,19     c3.7-3.5,8.2-5.2,13-6.1V3.4c0-1.3-1.1-2.4-2.4-2.4H6.1C4.8,1,3.7,2.1,3.7,3.4v28.7C13.6,32.8,23,25.9,30.7,19z" /></g></svg>
