<?xml version="1.0" encoding="UTF-8" standalone="no"?>
<!DOCTYPE svg PUBLIC "-//W3C//DTD SVG 20010904//EN"
"http://www.w3.org/TR/2001/REC-SVG-20010904/DTD/svg10.dtd">
<!-- Created with Sodipodi ("http://www.sodipodi.com/") -->
<svg
   xmlns:x="http://ns.adobe.com/Extensibility/1.0/"
   xmlns:i="http://ns.adobe.com/AdobeIllustrator/10.0/"
   xmlns:graph="http://ns.adobe.com/Graphs/1.0/"
   xmlns="http://www.w3.org/2000/svg"
   xmlns:xlink="http://www.w3.org/1999/xlink"
   xmlns:a="http://ns.adobe.com/AdobeSVGViewerExtensions/3.0/"
   xml:space="preserve"
   i:viewOrigin="282.9219 419.0313"
   i:rulerOrigin="0 0"
   i:pageBounds="0 792 612 0"
   width="48"
   height="48"
   viewBox="0 0 48 48"
   overflow="visible"
   enable-background="new 0 0 48 48"
   xmlns:sodipodi="http://sodipodi.sourceforge.net/DTD/sodipodi-0.dtd"
   id="svg602"
   sodipodi:version="0.34"
   sodipodi:docname="C:\msys\home\su_blanc\mldonkey-2.5.12\src\gtk2\rsvg\mime_postscript.svg"><defs
   id="defs748" /><sodipodi:namedview
   id="base" /><g
   id="Layer_x5F_1"
   i:knockout="Off"
   i:layer="yes"
   i:dimmedPercent="3"
   i:rgbTrio="#4F008000FFFF"><g
   id="g620"
   i:knockout="Off"><path
   id="path155"
   i:isolated="yes"
   i:knockout="Off"
   opacity="0.2"
   enable-background="new    "
   d="M10.1,1.6      c-1.8,0-3.3,1.5-3.3,3.3v39.4c0,1.8,1.5,3.3,3.3,3.3h34.6c1.8,0,3.3-1.5,3.3-3.3V4.9c0-1.8-1.5-3.3-3.3-3.3H10.1z" /><linearGradient
   id="path162_1_"
   gradientUnits="userSpaceOnUse"
   x1="-1668.9204"
   y1="127.3018"
   x2="-1448.4204"
   y2="127.3018"
   gradientTransform="matrix(0.1875 0 0 0.1875 317.8652 -0.4688)"><stop
   offset="0"
   style="stop-color:#A7ABAC"
   id="stop609" /><stop
   offset="1"
   style="stop-color:#85898A"
   id="stop610" /><a:midPointStop
   offset="0"
   style="stop-color:#A7ABAC"
   id="midPointStop611" /><a:midPointStop
   offset="0.5"
   style="stop-color:#A7ABAC"
   id="midPointStop612" /><a:midPointStop
   offset="1"
   style="stop-color:#85898A"
   id="midPointStop613" /></linearGradient><path
   id="path162"
   fill="url(#path162_1_)"
   d="M8.3,0.4C6.5,0.4,5,1.9,5,3.7v39.4c0,1.8,1.5,3.3,3.3,3.3H43      c1.8,0,3.3-1.5,3.3-3.3V3.7c0-1.8-1.5-3.3-3.3-3.3H8.3z" /><path
   id="path163"
   fill="#99CCFF"
   d="M5.9,43.1c0,1.3,1.1,2.4,2.4,2.4H43c1.3,0,2.4-1.1,2.4-2.4V3.7c0-1.3-1.1-2.4-2.4-2.4H8.3      C7,1.3,5.9,2.4,5.9,3.7V43.1z" /><linearGradient
   id="path170_1_"
   gradientUnits="userSpaceOnUse"
   x1="-1604.2227"
   y1="81.5586"
   x2="-1355.3735"
   y2="330.4078"
   gradientTransform="matrix(0.1875 0 0 0.1875 317.8652 -0.4688)"><stop
   offset="0"
   style="stop-color:#FFFFFF"
   id="stop617" /><stop
   offset="1"
   style="stop-color:#99CCFF"
   id="stop618" /><a:midPointStop
   offset="0"
   style="stop-color:#FFFFFF"
   id="midPointStop619" /><a:midPointStop
   offset="0.5"
   style="stop-color:#FFFFFF"
   id="midPointStop620" /><a:midPointStop
   offset="1"
   style="stop-color:#99CCFF"
   id="midPointStop621" /></linearGradient><path
   id="path170"
   fill="url(#path170_1_)"
   d="M8.3,2.3C7.5,2.3,6.9,3,6.9,3.7v39.4c0,0.8,0.6,1.4,1.4,1.4H43      c0.8,0,1.4-0.6,1.4-1.4V3.7c0-0.8-0.6-1.4-1.4-1.4H8.3z" /><path
   id="path171"
   i:isolated="yes"
   i:knockout="Off"
   opacity="0.4"
   fill="#FFFFFF"
   enable-background="new    "
   d="M32.5,19.1      c3.7-3.4,8.1-5.1,12.8-6V3.7c0-1.3-1.1-2.4-2.4-2.4H8.3C7,1.3,5.9,2.4,5.9,3.7v28.2C15.7,32.7,24.9,25.9,32.5,19.1z" /></g></g><g
   id="Layer_x5F_2"
   i:knockout="Off"
   i:layer="yes"
   i:dimmedPercent="3"
   i:rgbTrio="#4F004F00FFFF"><g
   id="g625"
   i:knockout="Off"><path
   id="path172"
   i:isolated="yes"
   i:knockout="Off"
   opacity="0.3"
   fill="#999999"
   enable-background="new    "
   d="M3.9,5.7      c-1.7,0-3.1,1.1-3.1,2.5v31.1c0,1.4,1.4,2.5,3.1,2.5h37.8c1.7,0,3.1-1.1,3.1-2.5v-31c0-1.4-1.4-2.5-3.1-2.5L3.9,5.7L3.9,5.7z" /><linearGradient
   id="path179_1_"
   gradientUnits="userSpaceOnUse"
   x1="-732.3838"
   y1="186.3955"
   x2="-732.3838"
   y2="393.8739"
   gradientTransform="matrix(0.1875 0 0 -0.1875 158.7217 78.0996)"><stop
   offset="0"
   style="stop-color:#6A5B97"
   id="stop628" /><stop
   offset="1"
   style="stop-color:#6D7BB0"
   id="stop629" /><a:midPointStop
   offset="0"
   style="stop-color:#6A5B97"
   id="midPointStop630" /><a:midPointStop
   offset="0.5"
   style="stop-color:#6A5B97"
   id="midPointStop631" /><a:midPointStop
   offset="1"
   style="stop-color:#6D7BB0"
   id="midPointStop632" /></linearGradient><path
   id="path179"
   fill="url(#path179_1_)"
   d="M42.8,38.2c0,1.1-1.1,2-2.5,2H2.5c-1.4,0-2.5-0.9-2.5-2v-31c0-1.1,1.1-2,2.5-2      h37.8c1.4,0,2.5,0.9,2.5,2V38.2L42.8,38.2z" /><linearGradient
   id="path186_1_"
   gradientUnits="userSpaceOnUse"
   x1="-841.1812"
   y1="295.1973"
   x2="-624.0016"
   y2="295.1973"
   gradientTransform="matrix(0.1875 0 0 -0.1875 158.7217 78.0996)"><stop
   offset="0"
   style="stop-color:#EFEDF5"
   id="stop635" /><stop
   offset="1"
   style="stop-color:#99ACD2"
   id="stop636" /><a:midPointStop
   offset="0"
   style="stop-color:#EFEDF5"
   id="midPointStop637" /><a:midPointStop
   offset="0.5"
   style="stop-color:#EFEDF5"
   id="midPointStop638" /><a:midPointStop
   offset="1"
   style="stop-color:#99ACD2"
   id="midPointStop639" /></linearGradient><path
   id="path186"
   fill="url(#path186_1_)"
   d="M2.5,6C1.7,6,1,6.5,1,7.2v31.1c0,0.7,0.7,1.2,1.5,1.2h37.8c0.8,0,1.5-0.5,1.5-1.2      V7.2c0-0.7-0.7-1.2-1.5-1.2H2.5L2.5,6z" /><path
   id="path187"
   i:isolated="yes"
   i:knockout="Off"
   opacity="0.64"
   fill="#FFFFFF"
   enable-background="new    "
   d="M3.1,25.4      c1.4,0.1,2.8,0.2,4.2,0.2c16.8,0,30.3-7.5,30.3-16.8c0-0.4,0-0.7-0.1-1.1c-7.7,0-33.4,0-34.5,0C3.1,8.2,3.1,17.4,3.1,25.4z" /></g></g><g
   id="Layer_x5F_3"
   i:knockout="Off"
   i:layer="yes"
   i:dimmedPercent="3"
   i:rgbTrio="#4F00FFFF4F00"><g
   id="g643"
   i:knockout="Off"><g
   id="g644"
   i:knockout="Off"><path
   id="path645"
   fill="#434343"
   d="M40.3,32.8c0,2.5-2,4.5-4.5,4.5H4.5c-2.5,0-4.5-2-4.5-4.5V19.3c0-2.5,1.2-5.6,9.3-5.5       l1.1-1.7l20,0.1l1.4,1.3c6.4,0,8.5,3.2,8.5,5.7V32.8L40.3,32.8z" /></g><g
   id="g646"
   i:knockout="Off"><radialGradient
   id="path653_1_"
   cx="-280.0874"
   cy="404.3242"
   r="40.4617"
   fx="-280.0874"
   fy="404.3242"
   gradientTransform="matrix(1 0 0 -1 282.9219 419.0313)"
   gradientUnits="userSpaceOnUse"><stop
   offset="0"
   style="stop-color:#FFFFFF"
   id="stop648" /><stop
   offset="1"
   style="stop-color:#DBDBDB"
   id="stop649" /><a:midPointStop
   offset="0"
   style="stop-color:#FFFFFF"
   id="midPointStop650" /><a:midPointStop
   offset="0.5"
   style="stop-color:#FFFFFF"
   id="midPointStop651" /><a:midPointStop
   offset="1"
   style="stop-color:#DBDBDB"
   id="midPointStop652" /></radialGradient><path
   id="path653"
   fill="url(#path653_1_)"
   d="M39.6,32.4c0,2.4-1.9,4.3-4.3,4.3H5.1c-2.4,0-4.4-1.9-4.4-4.3v-13       c0-2.4,1.2-4.9,8.8-5l1.2-1.8L30,12.8l1.3,1.4c5.6,0,8.3,2.8,8.3,5.2V32.4z" /></g><g
   id="g654"
   i:knockout="Off"><linearGradient
   id="path664_1_"
   gradientUnits="userSpaceOnUse"
   x1="-262.7974"
   y1="396.2852"
   x2="-262.8636"
   y2="382.2421"
   gradientTransform="matrix(1 0 0 -1 282.9219 419.0313)"><stop
   offset="0"
   style="stop-color:#D2D2D2"
   id="stop656" /><stop
   offset="0.2565"
   style="stop-color:#CECECE"
   id="stop657" /><stop
   offset="0.5364"
   style="stop-color:#C0C0C0"
   id="stop658" /><stop
   offset="0.8262"
   style="stop-color:#ABABAB"
   id="stop659" /><stop
   offset="1"
   style="stop-color:#9A9A9A"
   id="stop660" /><a:midPointStop
   offset="0"
   style="stop-color:#D2D2D2"
   id="midPointStop661" /><a:midPointStop
   offset="0.5"
   style="stop-color:#D2D2D2"
   id="midPointStop662" /><a:midPointStop
   offset="0.2565"
   style="stop-color:#CECECE"
   id="midPointStop663" /><a:midPointStop
   offset="0.5"
   style="stop-color:#CECECE"
   id="midPointStop664" /><a:midPointStop
   offset="0.5364"
   style="stop-color:#C0C0C0"
   id="midPointStop665" /><a:midPointStop
   offset="0.5"
   style="stop-color:#C0C0C0"
   id="midPointStop666" /><a:midPointStop
   offset="0.8262"
   style="stop-color:#ABABAB"
   id="midPointStop667" /><a:midPointStop
   offset="0.5"
   style="stop-color:#ABABAB"
   id="midPointStop668" /><a:midPointStop
   offset="1"
   style="stop-color:#9A9A9A"
   id="midPointStop669" /></linearGradient><path
   id="path664"
   fill="url(#path664_1_)"
   d="M39.6,32.4c0,2.4-2,4.3-4.4,4.3H5c-2.4,0-4.4-1.9-4.4-4.3v-9       c0,6.3,39,5.8,39-0.5V32.4z" /></g><linearGradient
   id="rect674_1_"
   gradientUnits="userSpaceOnUse"
   x1="-262.7222"
   y1="382.3779"
   x2="-262.7222"
   y2="388.3769"
   gradientTransform="matrix(1 0 0 -1 282.9219 419.0313)"><stop
   offset="0"
   style="stop-color:#FFFFFF"
   id="stop672" /><stop
   offset="0.2471"
   style="stop-color:#F9F9F9"
   id="stop673" /><stop
   offset="0.5626"
   style="stop-color:#EAEAEA"
   id="stop674" /><stop
   offset="0.9139"
   style="stop-color:#D0D0D0"
   id="stop675" /><stop
   offset="1"
   style="stop-color:#C8C8C8"
   id="stop676" /><a:midPointStop
   offset="0"
   style="stop-color:#FFFFFF"
   id="midPointStop677" /><a:midPointStop
   offset="0.5"
   style="stop-color:#FFFFFF"
   id="midPointStop678" /><a:midPointStop
   offset="0.2471"
   style="stop-color:#F9F9F9"
   id="midPointStop679" /><a:midPointStop
   offset="0.5"
   style="stop-color:#F9F9F9"
   id="midPointStop680" /><a:midPointStop
   offset="0.5626"
   style="stop-color:#EAEAEA"
   id="midPointStop681" /><a:midPointStop
   offset="0.5"
   style="stop-color:#EAEAEA"
   id="midPointStop682" /><a:midPointStop
   offset="0.9139"
   style="stop-color:#D0D0D0"
   id="midPointStop683" /><a:midPointStop
   offset="0.5"
   style="stop-color:#D0D0D0"
   id="midPointStop684" /><a:midPointStop
   offset="1"
   style="stop-color:#C8C8C8"
   id="midPointStop685" /></linearGradient><rect
   id="rect674"
   x="7.6"
   y="30"
   fill="url(#rect674_1_)"
   width="25.2"
   height="4.3" /><rect
   id="rect675"
   x="7.9"
   y="30.4"
   width="24.5"
   height="3.6" /><radialGradient
   id="polygon682_1_"
   cx="-274.3921"
   cy="378.1777"
   r="42.7744"
   fx="-274.3921"
   fy="378.1777"
   gradientTransform="matrix(1 0 0 -1 282.9219 419.0313)"
   gradientUnits="userSpaceOnUse"><stop
   offset="0"
   style="stop-color:#FFFFFF"
   id="stop689" /><stop
   offset="1"
   style="stop-color:#C8C8C8"
   id="stop690" /><a:midPointStop
   offset="0"
   style="stop-color:#FFFFFF"
   id="midPointStop691" /><a:midPointStop
   offset="0.5"
   style="stop-color:#FFFFFF"
   id="midPointStop692" /><a:midPointStop
   offset="1"
   style="stop-color:#C8C8C8"
   id="midPointStop693" /></radialGradient><polygon
   id="polygon682"
   fill="url(#polygon682_1_)"
   stroke="#000000"
   stroke-width="0.36"
   points="32.5,41.2 7.8,41.2       10.8,32.2 28.7,32.2 " /><rect
   id="rect683"
   x="7.9"
   y="30.4"
   i:isolated="yes"
   i:knockout="Off"
   opacity="0.2"
   enable-background="new    "
   width="24.5"
   height="3.6" /><g
   id="g684"
   i:knockout="Off"><path
   id="path685"
   fill="#FFFFFF"
   d="M1,18.6c0-2.1,1.2-4.3,8.7-4.4l1.2-1.6L30,12.8l1.3,1.3c5.6,0,8.2,2.5,8.2,4.6H1V18.6z" /></g><radialGradient
   id="rect695_1_"
   cx="-270.6719"
   cy="416.2178"
   r="28.2784"
   fx="-270.6719"
   fy="416.2178"
   gradientTransform="matrix(1 0 0 -1 282.9219 419.0313)"
   gradientUnits="userSpaceOnUse"><stop
   offset="0"
   style="stop-color:#FFFFFF"
   id="stop699" /><stop
   offset="0.2471"
   style="stop-color:#F9F9F9"
   id="stop700" /><stop
   offset="0.5626"
   style="stop-color:#EAEAEA"
   id="stop701" /><stop
   offset="0.9139"
   style="stop-color:#D0D0D0"
   id="stop702" /><stop
   offset="1"
   style="stop-color:#C8C8C8"
   id="stop703" /><a:midPointStop
   offset="0"
   style="stop-color:#FFFFFF"
   id="midPointStop704" /><a:midPointStop
   offset="0.5"
   style="stop-color:#FFFFFF"
   id="midPointStop705" /><a:midPointStop
   offset="0.2471"
   style="stop-color:#F9F9F9"
   id="midPointStop706" /><a:midPointStop
   offset="0.5"
   style="stop-color:#F9F9F9"
   id="midPointStop707" /><a:midPointStop
   offset="0.5626"
   style="stop-color:#EAEAEA"
   id="midPointStop708" /><a:midPointStop
   offset="0.5"
   style="stop-color:#EAEAEA"
   id="midPointStop709" /><a:midPointStop
   offset="0.9139"
   style="stop-color:#D0D0D0"
   id="midPointStop710" /><a:midPointStop
   offset="0.5"
   style="stop-color:#D0D0D0"
   id="midPointStop711" /><a:midPointStop
   offset="1"
   style="stop-color:#C8C8C8"
   id="midPointStop712" /></radialGradient><rect
   id="rect695"
   x="11.7"
   y="2.7"
   fill="url(#rect695_1_)"
   stroke="#000000"
   stroke-width="0.36"
   width="16.9"
   height="15.4" /><polygon
   id="polygon696"
   fill="#535353"
   stroke="#000000"
   stroke-width="0.36"
   points="11.6,17.9 9.4,25.9 11.6,13.1 " /><polygon
   id="polygon697"
   fill="#535353"
   stroke="#000000"
   stroke-width="0.36"
   points="28.8,17.9 31.1,25.9 28.8,13.1 " /><g
   id="g698"
   i:knockout="Off"><path
   id="path699"
   fill="#FFFFFF"
   d="M0.6,23.5c0,6.3,38.9,5.8,39-0.5v-0.8c0,6.3-39,6.8-39,0.5v9l0,0V23.5z" /></g><g
   id="g700"
   i:knockout="Off"
   opacity="0.15"><linearGradient
   id="path710_1_"
   gradientUnits="userSpaceOnUse"
   x1="-272.6519"
   y1="396.5313"
   x2="-252.4911"
   y2="396.5313"
   gradientTransform="matrix(1 0 0 -1 282.9219 419.0313)"><stop
   offset="0"
   style="stop-color:#D2D2D2"
   id="stop720" /><stop
   offset="0.2565"
   style="stop-color:#CECECE"
   id="stop721" /><stop
   offset="0.5364"
   style="stop-color:#C0C0C0"
   id="stop722" /><stop
   offset="0.8262"
   style="stop-color:#ABABAB"
   id="stop723" /><stop
   offset="1"
   style="stop-color:#9A9A9A"
   id="stop724" /><a:midPointStop
   offset="0"
   style="stop-color:#D2D2D2"
   id="midPointStop725" /><a:midPointStop
   offset="0.5"
   style="stop-color:#D2D2D2"
   id="midPointStop726" /><a:midPointStop
   offset="0.2565"
   style="stop-color:#CECECE"
   id="midPointStop727" /><a:midPointStop
   offset="0.5"
   style="stop-color:#CECECE"
   id="midPointStop728" /><a:midPointStop
   offset="0.5364"
   style="stop-color:#C0C0C0"
   id="midPointStop729" /><a:midPointStop
   offset="0.5"
   style="stop-color:#C0C0C0"
   id="midPointStop730" /><a:midPointStop
   offset="0.8262"
   style="stop-color:#ABABAB"
   id="midPointStop731" /><a:midPointStop
   offset="0.5"
   style="stop-color:#ABABAB"
   id="midPointStop732" /><a:midPointStop
   offset="1"
   style="stop-color:#9A9A9A"
   id="midPointStop733" /></linearGradient><path
   id="path710"
   fill="url(#path710_1_)"
   d="M30.4,25.9l-2-6.8c-7.2,0-18,0.8-18.2,6.8H30.4z" /></g><g
   id="g711"
   i:knockout="Off"><circle
   id="circle712"
   fill="#00A400"
   cx="35.2"
   cy="21.4"
   r="1.4" /></g><g
   id="g713"
   i:knockout="Off"><radialGradient
   id="circle720_1_"
   cx="-248.4502"
   cy="398.4795"
   r="1.8468"
   fx="-248.4502"
   fy="398.4795"
   gradientTransform="matrix(1 0 0 -1 282.9219 419.0313)"
   gradientUnits="userSpaceOnUse"><stop
   offset="0"
   style="stop-color:#FFFFFF"
   id="stop739" /><stop
   offset="1"
   style="stop-color:#00C700"
   id="stop740" /><a:midPointStop
   offset="0"
   style="stop-color:#FFFFFF"
   id="midPointStop741" /><a:midPointStop
   offset="0.5"
   style="stop-color:#FFFFFF"
   id="midPointStop742" /><a:midPointStop
   offset="1"
   style="stop-color:#00C700"
   id="midPointStop743" /></radialGradient><circle
   id="circle720"
   fill="url(#circle720_1_)"
   cx="35.2"
   cy="21.4"
   r="1.1" /></g></g></g><g
   id="Layer_x5F_4"
   i:knockout="Off"
   i:layer="yes"
   i:dimmedPercent="3"
   i:rgbTrio="#4F00FFFF4F00"><rect
   id="path241"
   i:knockout="Off"
   fill="none"
   width="48"
   height="48" /></g></svg>
