<?xml version="1.0" encoding="UTF-8" standalone="no"?>
<!DOCTYPE svg PUBLIC "-//W3C//DTD SVG 20010904//EN"
"http://www.w3.org/TR/2001/REC-SVG-20010904/DTD/svg10.dtd">
<!-- Created with Sodipodi ("http://www.sodipodi.com/") -->
<svg
   xmlns:x="http://ns.adobe.com/Extensibility/1.0/"
   xmlns:i="http://ns.adobe.com/AdobeIllustrator/10.0/"
   xmlns:graph="http://ns.adobe.com/Graphs/1.0/"
   xmlns="http://www.w3.org/2000/svg"
   xmlns:xlink="http://www.w3.org/1999/xlink"
   xmlns:a="http://ns.adobe.com/AdobeSVGViewerExtensions/3.0/"
   xml:space="preserve"
   i:viewOrigin="282.4219 419.0313"
   i:rulerOrigin="0 0"
   i:pageBounds="0 792 612 0"
   width="48.5"
   height="48"
   viewBox="0 0 48.5 48"
   overflow="visible"
   enable-background="new 0 0 48.5 48"
   xmlns:sodipodi="http://sodipodi.sourceforge.net/DTD/sodipodi-0.dtd"
   id="svg602"
   sodipodi:version="0.34"
   sodipodi:docname="C:\msys\home\su_blanc\mldonkey-2.5.12\src\gtk2\rsvg\mime_rpm.svg"><defs
   id="defs654" /><sodipodi:namedview
   id="namedview653" /><g
   id="Layer_x5F_1"
   i:knockout="Off"
   i:layer="yes"
   i:dimmedPercent="3"
   i:rgbTrio="#4F008000FFFF"><g
   id="g620"
   i:knockout="Off"><path
   id="path155"
   i:isolated="yes"
   i:knockout="Off"
   opacity="0.2"
   enable-background="new    "
   d="M10.6,1.6      c-1.8,0-3.3,1.5-3.3,3.3v39.4c0,1.8,1.5,3.3,3.3,3.3h34.6c1.8,0,3.3-1.5,3.3-3.3V4.9c0-1.8-1.5-3.3-3.3-3.3H10.6z" /><linearGradient
   id="path162_1_"
   gradientUnits="userSpaceOnUse"
   x1="-1385.4985"
   y1="291.7295"
   x2="-1164.9985"
   y2="291.7295"
   gradientTransform="matrix(0.1875 0 0 -0.1875 265.2236 78.0996)"><stop
   offset="0"
   style="stop-color:#A7ABAC"
   id="stop609" /><stop
   offset="1"
   style="stop-color:#85898A"
   id="stop610" /><a:midPointStop
   offset="0"
   style="stop-color:#A7ABAC"
   id="midPointStop611" /><a:midPointStop
   offset="0.5"
   style="stop-color:#A7ABAC"
   id="midPointStop612" /><a:midPointStop
   offset="1"
   style="stop-color:#85898A"
   id="midPointStop613" /></linearGradient><path
   id="path162"
   fill="url(#path162_1_)"
   d="M8.8,0.4C7,0.4,5.5,1.9,5.5,3.7v39.4c0,1.8,1.5,3.3,3.3,3.3h34.7      c1.8,0,3.3-1.5,3.3-3.3V3.7c0-1.8-1.5-3.3-3.3-3.3H8.8z" /><path
   id="path163"
   fill="#99CCFF"
   d="M6.4,43.1c0,1.3,1.1,2.4,2.4,2.4h34.7c1.3,0,2.4-1.1,2.4-2.4V3.7c0-1.3-1.1-2.4-2.4-2.4      H8.8c-1.3,0-2.4,1.1-2.4,2.4V43.1z" /><linearGradient
   id="path170_1_"
   gradientUnits="userSpaceOnUse"
   x1="-1320.8008"
   y1="337.4727"
   x2="-1071.9517"
   y2="88.6235"
   gradientTransform="matrix(0.1875 0 0 -0.1875 265.2236 78.0996)"><stop
   offset="0"
   style="stop-color:#FFFFFF"
   id="stop617" /><stop
   offset="1"
   style="stop-color:#99CCFF"
   id="stop618" /><a:midPointStop
   offset="0"
   style="stop-color:#FFFFFF"
   id="midPointStop619" /><a:midPointStop
   offset="0.5"
   style="stop-color:#FFFFFF"
   id="midPointStop620" /><a:midPointStop
   offset="1"
   style="stop-color:#99CCFF"
   id="midPointStop621" /></linearGradient><path
   id="path170"
   fill="url(#path170_1_)"
   d="M8.8,2.3C8,2.3,7.4,3,7.4,3.7v39.4c0,0.8,0.6,1.4,1.4,1.4h34.7      c0.8,0,1.4-0.6,1.4-1.4V3.7c0-0.8-0.6-1.4-1.4-1.4H8.8z" /><path
   id="path171"
   i:isolated="yes"
   i:knockout="Off"
   opacity="0.4"
   fill="#FFFFFF"
   enable-background="new    "
   d="M33,19.1      c3.7-3.4,8.1-5.1,12.8-6V3.7c0-1.3-1.1-2.4-2.4-2.4H8.8c-1.3,0-2.4,1.1-2.4,2.4v28.2C16.2,32.7,25.4,25.9,33,19.1z" /></g></g><g
   id="Layer_x5F_2"
   i:knockout="Off"
   i:layer="yes"
   i:dimmedPercent="3"
   i:rgbTrio="#4F004F00FFFF"><g
   id="g625"
   i:knockout="Off"><path
   id="path172"
   i:isolated="yes"
   i:knockout="Off"
   opacity="0.3"
   fill="#999999"
   enable-background="new    "
   d="M4.4,5.7      c-1.7,0-3.1,1.1-3.1,2.5v31.1c0,1.4,1.4,2.5,3.1,2.5h37.8c1.7,0,3.1-1.1,3.1-2.5v-31c0-1.4-1.4-2.5-3.1-2.5L4.4,5.7L4.4,5.7z" /><linearGradient
   id="path179_1_"
   gradientUnits="userSpaceOnUse"
   x1="-448.9609"
   y1="232.6357"
   x2="-448.9609"
   y2="25.1573"
   gradientTransform="matrix(0.1875 0 0 0.1875 106.0801 -0.4688)"><stop
   offset="0"
   style="stop-color:#6A5B97"
   id="stop628" /><stop
   offset="1"
   style="stop-color:#6D7BB0"
   id="stop629" /><a:midPointStop
   offset="0"
   style="stop-color:#6A5B97"
   id="midPointStop630" /><a:midPointStop
   offset="0.5"
   style="stop-color:#6A5B97"
   id="midPointStop631" /><a:midPointStop
   offset="1"
   style="stop-color:#6D7BB0"
   id="midPointStop632" /></linearGradient><path
   id="path179"
   fill="url(#path179_1_)"
   d="M43.3,38.2c0,1.1-1.1,2-2.5,2H3c-1.4,0-2.5-0.9-2.5-2v-31c0-1.1,1.1-2,2.5-2h37.8      c1.4,0,2.5,0.9,2.5,2V38.2L43.3,38.2z" /><linearGradient
   id="path186_1_"
   gradientUnits="userSpaceOnUse"
   x1="-557.7593"
   y1="123.834"
   x2="-340.5797"
   y2="123.834"
   gradientTransform="matrix(0.1875 0 0 0.1875 106.0801 -0.4688)"><stop
   offset="0"
   style="stop-color:#EFEDF5"
   id="stop635" /><stop
   offset="1"
   style="stop-color:#99ACD2"
   id="stop636" /><a:midPointStop
   offset="0"
   style="stop-color:#EFEDF5"
   id="midPointStop637" /><a:midPointStop
   offset="0.5"
   style="stop-color:#EFEDF5"
   id="midPointStop638" /><a:midPointStop
   offset="1"
   style="stop-color:#99ACD2"
   id="midPointStop639" /></linearGradient><path
   id="path186"
   fill="url(#path186_1_)"
   d="M3,6C2.2,6,1.5,6.5,1.5,7.2v31.1c0,0.7,0.7,1.2,1.5,1.2h37.8      c0.8,0,1.5-0.5,1.5-1.2V7.2c0-0.7-0.7-1.2-1.5-1.2H3L3,6z" /><path
   id="path187"
   i:isolated="yes"
   i:knockout="Off"
   opacity="0.64"
   fill="#FFFFFF"
   enable-background="new    "
   d="M3.6,25.4      c1.4,0.1,2.8,0.2,4.2,0.2c16.8,0,30.3-7.5,30.3-16.8c0-0.4,0-0.7-0.1-1.1c-7.7,0-33.4,0-34.5,0C3.6,8.2,3.6,17.4,3.6,25.4z" /></g></g><g
   id="Layer_x5F_3"
   i:knockout="Off"
   i:layer="yes"
   i:dimmedPercent="3"
   i:rgbTrio="#4F00FFFF4F00"><path
   d="M19.5,35.5c-0.3,0.1-0.8,0.6-0.4,0.9c0.2,0.2,0.5,0.1,0.7,0.2c0.6,0.2,1,0.6,1.6,0.4c0.4-0.1,1.1-1.1,0.4-1.4     C21.6,35.5,21.3,36,21,36C20.5,36,20.1,35.3,19.5,35.5z M1.7,33c-3.1-9.3-0.1-19.8,7.1-25.1c7.3-5.3,16.8-3.7,22.5,3.6     c5.8,7.4,6.4,18.2,1,26.4c-0.7-0.4-2.2-0.2-3.2-0.2c-0.6,0-1.2-0.1-1.4,0.1c-0.3,0.4,0.1,0.6-0.4,1.1c-0.3,0.3-0.8,0.4-1.6,1     c-1.1,0.8-2.5,2.9-3.1,2.2c-0.3-0.4,0.4-1.2,1.1-2.1c0.7-0.9,1.5-2.1,1.7-2.8c0.3-1,0.2-1.6,0.3-2c0.3-1,0.5-2,0.1-2.1     c-0.3-0.1-0.7,0.2-1.2,0.2c-0.5,0-0.8-0.2-1.6-0.1c-0.6,0-1.1,0.1-1.6,0.1c-0.9,0-1.2-0.3-1.9-0.3c-0.8,0-2.4,0.6-3.7-0.1     c-1-0.5-1.7-2.4-2.7-2.9c-0.4-0.2-0.7,0.2-1.2,0.1c-0.6-0.2-0.8-1.4-1.9-2.3c-0.8-0.5-1.6-0.1-1.8,0.2c-0.7,1-0.1,2.4,0.6,3.5     c0.6,0.9,1.1,0.9,1.2,1.5c0,0.4-0.5,0.8-0.9,0.7c-1.1-0.4-1.7-1.9-2.5-2.3c-0.3-0.1-0.8,0-1.2,0c-0.8,0-2.3,0-3.1,0     C2.4,32.5,2.2,32.7,1.7,33z"
   id="path643" /><radialGradient
   id="XMLID_1_"
   cx="10.5781"
   cy="8.0313"
   r="25.9422"
   fx="10.5781"
   fy="8.0313"
   gradientUnits="userSpaceOnUse"><stop
   offset="0"
   style="stop-color:#FF0000"
   id="stop645" /><stop
   offset="1"
   style="stop-color:#B80000"
   id="stop646" /><a:midPointStop
   offset="0"
   style="stop-color:#FF0000"
   id="midPointStop647" /><a:midPointStop
   offset="0.5"
   style="stop-color:#FF0000"
   id="midPointStop648" /><a:midPointStop
   offset="1"
   style="stop-color:#B80000"
   id="midPointStop649" /></radialGradient><path
   fill="url(#XMLID_1_)"
   stroke="#000000"
   d="M26.5,9.9L26.5,9.9z M6.7,17c-1.5,0-3.4-0.3-4.8,0.6c-0.6,0.3-1.2,0.9-1.4,1.7     c-0.2,1.1,0.4,1.9,0.9,2.7c1.1,1.4,2.3,2.6,3.6,3.8c4.5,3.9,10,5.8,15.5,6.1c2.6,0.1,6.1-1.1,7.8-3.6c0.9-1.3,1.5-3.6,0.8-5.1     c-0.6-1.3-2.9-2.6-4.1-2.8c-0.2,0.8-0.5,1.6-1.2,2c-0.1-1.1,0.4-2.3,0.3-3.4c-0.1-2-1.1-4.1-1.7-6c-0.3-1-0.6-2-1.3-2.7     c-1.8-2-4-0.9-6.1-0.7C13.5,9.6,12,8.7,10.4,9C8,9.5,7.6,13.2,7.2,15.6c-0.2,1.7,1.2,2.5,2.3,3c1.2,0.5,2.5,1,3.8,1.4     c0.7,0.2,1.5,0.4,1.9,1.1c0.3,0.4,0.2,1,0.3,1.5c0.1,0.4,0.8,1,0.6,1.3c-0.1,0.3-0.7,0.2-0.9,0.2c-0.9-0.1-1.7-0.5-2.5-0.8     c-1.6-0.6-3.1-1.5-4.5-2.4c-0.6-0.4-1.4-0.8-1.7-1.6C6.4,18.6,6.6,17.8,6.7,17 M16.9,10.3L16.9,10.3c0.4,0.2,1.6,0.2,1.5,0.9     c0,0.3-0.4,0.6-0.6,0.8c0.5,0.2,2.7,0.1,2.1-1.1C19.4,9.8,17.7,10,16.9,10.3z M9.4,12.7c-0.3,0.2-0.3,0.6-0.3,0.9     c0,0.9,0.5,1.5,1.2,1.8c0.4,0.2,0.7-0.2,1-0.3c0.8-0.3,2.3,0,3-0.7c0.5-0.5-0.4-0.7-0.7-0.8c-1-0.3-2,0.2-2.9-0.1     C10.4,13.4,9.8,12.5,9.4,12.7z"
   id="path650" /></g><g
   id="Layer_x5F_4"
   i:knockout="Off"
   i:layer="yes"
   i:dimmedPercent="3"
   i:rgbTrio="#4F00FFFF4F00"><rect
   id="path241"
   x="0.5"
   i:knockout="Off"
   fill="none"
   width="48"
   height="48" /></g></svg>
