<?xml version="1.0" encoding="UTF-8" standalone="no"?>
<!DOCTYPE svg PUBLIC "-//W3C//DTD SVG 20010904//EN"
"http://www.w3.org/TR/2001/REC-SVG-20010904/DTD/svg10.dtd">
<!-- Created with Sodipodi ("http://www.sodipodi.com/") -->
<svg
   xmlns:x="http://ns.adobe.com/Extensibility/1.0/"
   xmlns:i="http://ns.adobe.com/AdobeIllustrator/10.0/"
   xmlns:graph="http://ns.adobe.com/Graphs/1.0/"
   xmlns="http://www.w3.org/2000/svg"
   xmlns:xlink="http://www.w3.org/1999/xlink"
   xmlns:a="http://ns.adobe.com/AdobeSVGViewerExtensions/3.0/"
   xml:space="preserve"
   i:viewOrigin="276.1709 394.3037"
   i:rulerOrigin="0 0"
   i:pageBounds="0 792 612 0"
   width="50.1"
   height="50.1"
   viewBox="0 0 50.1 50.1"
   overflow="visible"
   enable-background="new 0 0 50.1 50.1"
   xmlns:sodipodi="http://sodipodi.sourceforge.net/DTD/sodipodi-0.dtd"
   id="svg602"
   sodipodi:version="0.34"
   sodipodi:docname="C:\msys\home\su_blanc\mldonkey-2.5.12\src\gtk2\rsvg\net_soulseek.svg"><defs
   id="defs654" /><sodipodi:namedview
   id="namedview653" /><g
   id="g1038"
   i:knockout="Off"
   i:layer="yes"
   i:dimmedPercent="50"
   i:rgbTrio="#4F008000FFFF"><rect
   id="rect606"
   x="1.1"
   y="1.1"
   fill="#FFFFFF"
   width="48"
   height="48" /><radialGradient
   id="rect634_1_"
   cx="-1779.041"
   cy="1.1152"
   r="67.6896"
   fx="-1779.041"
   fy="1.1152"
   gradientTransform="matrix(-0.7869 0 0 -1.0491 -1375.8788 2.1465)"
   gradientUnits="userSpaceOnUse"><stop
   offset="0"
   style="stop-color:#FFFFFF"
   id="stop608" /><stop
   offset="0.126"
   style="stop-color:#D5E6F3"
   id="stop609" /><stop
   offset="0.2513"
   style="stop-color:#B3D1EA"
   id="stop610" /><stop
   offset="0.3696"
   style="stop-color:#9AC2E3"
   id="stop611" /><stop
   offset="0.478"
   style="stop-color:#8BB9DF"
   id="stop612" /><stop
   offset="0.5674"
   style="stop-color:#86B6DE"
   id="stop613" /><stop
   offset="0.8539"
   style="stop-color:#0E5FA9"
   id="stop614" /><stop
   offset="0.9113"
   style="stop-color:#0F4378"
   id="stop615" /><stop
   offset="1"
   style="stop-color:#111426"
   id="stop616" /><a:midPointStop
   offset="0"
   style="stop-color:#FFFFFF"
   id="midPointStop617" /><a:midPointStop
   offset="0.5"
   style="stop-color:#FFFFFF"
   id="midPointStop618" /><a:midPointStop
   offset="0.126"
   style="stop-color:#D5E6F3"
   id="midPointStop619" /><a:midPointStop
   offset="0.5"
   style="stop-color:#D5E6F3"
   id="midPointStop620" /><a:midPointStop
   offset="0.2513"
   style="stop-color:#B3D1EA"
   id="midPointStop621" /><a:midPointStop
   offset="0.5"
   style="stop-color:#B3D1EA"
   id="midPointStop622" /><a:midPointStop
   offset="0.3696"
   style="stop-color:#9AC2E3"
   id="midPointStop623" /><a:midPointStop
   offset="0.5"
   style="stop-color:#9AC2E3"
   id="midPointStop624" /><a:midPointStop
   offset="0.478"
   style="stop-color:#8BB9DF"
   id="midPointStop625" /><a:midPointStop
   offset="0.5"
   style="stop-color:#8BB9DF"
   id="midPointStop626" /><a:midPointStop
   offset="0.5674"
   style="stop-color:#86B6DE"
   id="midPointStop627" /><a:midPointStop
   offset="0.5"
   style="stop-color:#86B6DE"
   id="midPointStop628" /><a:midPointStop
   offset="0.8539"
   style="stop-color:#0E5FA9"
   id="midPointStop629" /><a:midPointStop
   offset="0.5"
   style="stop-color:#0E5FA9"
   id="midPointStop630" /><a:midPointStop
   offset="0.9113"
   style="stop-color:#0F4378"
   id="midPointStop631" /><a:midPointStop
   offset="0.5"
   style="stop-color:#0F4378"
   id="midPointStop632" /><a:midPointStop
   offset="1"
   style="stop-color:#111426"
   id="midPointStop633" /></radialGradient><rect
   id="rect634"
   x="1.1"
   y="1.1"
   i:isolated="yes"
   i:knockout="Off"
   opacity="0.4"
   fill="url(#rect634_1_)"
   stroke="#3030B1"
   stroke-width="2.1414"
   enable-background="new    "
   width="48"
   height="48" /><g
   id="g591_1_"
   i:knockout="Off"><g
   id="g592_1_"
   i:knockout="Off"><linearGradient
   id="XMLID_1_"
   gradientUnits="userSpaceOnUse"
   x1="25.3511"
   y1="-2.6675"
   x2="24.6846"
   y2="40.6655"><stop
   offset="0"
   style="stop-color:#FFF59E"
   id="stop638" /><stop
   offset="0.25"
   style="stop-color:#FF5900"
   id="stop639" /><stop
   offset="0.5"
   style="stop-color:#B50000"
   id="stop640" /><stop
   offset="0.75"
   style="stop-color:#610000"
   id="stop641" /><stop
   offset="1"
   style="stop-color:#000000"
   id="stop642" /><a:midPointStop
   offset="0"
   style="stop-color:#FFF59E"
   id="midPointStop643" /><a:midPointStop
   offset="0.5"
   style="stop-color:#FFF59E"
   id="midPointStop644" /><a:midPointStop
   offset="0.25"
   style="stop-color:#FF5900"
   id="midPointStop645" /><a:midPointStop
   offset="0.5"
   style="stop-color:#FF5900"
   id="midPointStop646" /><a:midPointStop
   offset="0.5"
   style="stop-color:#B50000"
   id="midPointStop647" /><a:midPointStop
   offset="0.5"
   style="stop-color:#B50000"
   id="midPointStop648" /><a:midPointStop
   offset="0.75"
   style="stop-color:#610000"
   id="midPointStop649" /><a:midPointStop
   offset="0.5"
   style="stop-color:#610000"
   id="midPointStop650" /><a:midPointStop
   offset="1"
   style="stop-color:#000000"
   id="midPointStop651" /></linearGradient><path
   fill="url(#XMLID_1_)"
   d="M47.2,15.7l-2.9,0.1l-0.1,1.4l-3.3,0.1L41,19l-3.4,0.1l-0.1,1.6l-5,0.1l-0.1,1.6h-2.4l-0.1-1.8       h-3.1l-0.1-4h2.4v1.8l3-0.3v-0.9l-2-0.1L30,14l-1.4-0.4v-3.2l-2-0.1l-0.1-1.8H25V7.1h-3.5V5.5l-1,0.1l-0.1,3.1h-3.4l0.1,1.1       l1.4,0.1l0.1,1.6l1.9,0.1l0.1,5l1.6,0.1l-0.1,5.9l-5.8-0.3V21l-6.9-0.1l0.1-1.6L6.2,19v-1.6L4,17.2v-1.8H3L3.1,20h1.6l0.1,3.5       h1.5l-0.1,1.6l2,0.1l0.1,1.4l1.5,0.1v2.1h3.8v1.5l4.8,0.1v1.9l1.9,0.1v4l-1.9,0.1l-0.1,1.5h-1.4l-0.1,1.9L13.4,40l-0.1,1.5       l-1.9,0.1l0.1,1.1l5.2,0.1l-0.1,1.8l1-0.1l0.1-1.6l1.6-0.1l0.1-3.5l3.3-0.1v-1.4h1.9l0.1-1.8h1.4v-1.8l1.8-0.1l0.1-1.4l1.4-0.1       l0.1-1.6l3.4-0.1l0.1-1.6l1.6-0.1l0.1-2.1l3.4-0.1l0.1-1.4l1.6-0.1l0.1-1.6l1.5-0.1v-1.4l1.6-0.1l0.1-1.9l1.8-0.1v-1.5l1.8-0.1       L47.2,15.7z M26.3,13.9h-2v-2.5h2V13.9z"
   id="path652" /></g></g></g></svg>
