<?xml version="1.0" encoding="UTF-8" standalone="no"?>
<!DOCTYPE svg PUBLIC "-//W3C//DTD SVG 20010904//EN"
"http://www.w3.org/TR/2001/REC-SVG-20010904/DTD/svg10.dtd">
<!-- Created with Sodipodi ("http://www.sodipodi.com/") -->
<svg
   xmlns:x="http://ns.adobe.com/Extensibility/1.0/"
   xmlns:i="http://ns.adobe.com/AdobeIllustrator/10.0/"
   xmlns:graph="http://ns.adobe.com/Graphs/1.0/"
   xmlns="http://www.w3.org/2000/svg"
   xmlns:xlink="http://www.w3.org/1999/xlink"
   xmlns:a="http://ns.adobe.com/AdobeSVGViewerExtensions/3.0/"
   xml:space="preserve"
   i:viewOrigin="282.5 419.5"
   i:rulerOrigin="0 0"
   i:pageBounds="0 792 612 0"
   width="48"
   height="48"
   viewBox="0 0 48 48"
   overflow="visible"
   enable-background="new 0 0 48 48"
   xmlns:sodipodi="http://sodipodi.sourceforge.net/DTD/sodipodi-0.dtd"
   id="svg602"
   sodipodi:version="0.34"
   sodipodi:docname="C:\msys\home\su_blanc\mldonkey-2.5.12\src\gtk2\rsvg\net_globalshare.svg"><defs
   id="defs681" /><sodipodi:namedview
   id="base" /><g
   id="Layer_1_2_"
   i:knockout="Off"
   i:layer="yes"
   i:dimmedPercent="50"
   i:rgbTrio="#4F008000FFFF"><g
   id="g604"
   i:knockout="Off"><radialGradient
   id="path611_1_"
   cx="-503.957"
   cy="130.4746"
   r="130.184"
   fx="-503.957"
   fy="130.4746"
   gradientTransform="matrix(0.3861 0 0 0.3861 218.1446 -1.559448e-002)"
   gradientUnits="userSpaceOnUse"><stop
   offset="0"
   style="stop-color:#D4E8FF"
   id="stop608" /><stop
   offset="8.610000e-002"
   style="stop-color:#CAE4FF"
   id="stop609" /><stop
   offset="0.3389"
   style="stop-color:#B2DBFF"
   id="stop610" /><stop
   offset="0.4944"
   style="stop-color:#A9D7FF"
   id="stop611" /><stop
   offset="1"
   style="stop-color:#1260D9"
   id="stop612" /><a:midPointStop
   offset="0"
   style="stop-color:#D4E8FF"
   id="midPointStop613" /><a:midPointStop
   offset="0.5"
   style="stop-color:#D4E8FF"
   id="midPointStop614" /><a:midPointStop
   offset="8.610000e-002"
   style="stop-color:#CAE4FF"
   id="midPointStop615" /><a:midPointStop
   offset="0.5"
   style="stop-color:#CAE4FF"
   id="midPointStop616" /><a:midPointStop
   offset="0.3389"
   style="stop-color:#B2DBFF"
   id="midPointStop617" /><a:midPointStop
   offset="0.5"
   style="stop-color:#B2DBFF"
   id="midPointStop618" /><a:midPointStop
   offset="0.4944"
   style="stop-color:#A9D7FF"
   id="midPointStop619" /><a:midPointStop
   offset="0.5"
   style="stop-color:#A9D7FF"
   id="midPointStop620" /><a:midPointStop
   offset="1"
   style="stop-color:#1260D9"
   id="midPointStop621" /></radialGradient><path
   id="path611"
   fill="url(#path611_1_)"
   d="M24,48c13.3,0,24-10.8,24-24S37.3,0,24,0C10.8,0,0,10.8,0,24S10.8,48,24,48z" /><g
   id="g612"
   i:knockout="Off"><radialGradient
   id="path620_1_"
   cx="-503.9087"
   cy="130.2197"
   r="124.7532"
   fx="-503.9087"
   fy="130.2197"
   gradientTransform="matrix(0.3861 0 0 0.3659 218.1446 1.6231)"
   gradientUnits="userSpaceOnUse"><stop
   offset="0"
   style="stop-color:#FFFFFF"
   id="stop625" /><stop
   offset="0.1176"
   style="stop-color:#E6F9FF"
   id="stop626" /><stop
   offset="0.2604"
   style="stop-color:#CEF2FF"
   id="stop627" /><stop
   offset="0.3483"
   style="stop-color:#C5F0FF"
   id="stop628" /><stop
   offset="0.427"
   style="stop-color:#BBE9FD"
   id="stop629" /><stop
   offset="1"
   style="stop-color:#1D74D9"
   id="stop630" /><a:midPointStop
   offset="0"
   style="stop-color:#FFFFFF"
   id="midPointStop631" /><a:midPointStop
   offset="0.5"
   style="stop-color:#FFFFFF"
   id="midPointStop632" /><a:midPointStop
   offset="0.1176"
   style="stop-color:#E6F9FF"
   id="midPointStop633" /><a:midPointStop
   offset="0.5"
   style="stop-color:#E6F9FF"
   id="midPointStop634" /><a:midPointStop
   offset="0.2604"
   style="stop-color:#CEF2FF"
   id="midPointStop635" /><a:midPointStop
   offset="0.5"
   style="stop-color:#CEF2FF"
   id="midPointStop636" /><a:midPointStop
   offset="0.3483"
   style="stop-color:#C5F0FF"
   id="midPointStop637" /><a:midPointStop
   offset="0.5"
   style="stop-color:#C5F0FF"
   id="midPointStop638" /><a:midPointStop
   offset="0.427"
   style="stop-color:#BBE9FD"
   id="midPointStop639" /><a:midPointStop
   offset="0.5"
   style="stop-color:#BBE9FD"
   id="midPointStop640" /><a:midPointStop
   offset="1"
   style="stop-color:#1D74D9"
   id="midPointStop641" /></radialGradient><path
   id="path620"
   fill="url(#path620_1_)"
   d="M24,47c12.7,0,23-10.3,23-23C47,11.4,36.7,1,24,1C11.4,1,1,11.4,1,24       C1,36.6,11.4,47,24,47z" /></g><radialGradient
   id="XMLID_1_"
   cx="-254.4971"
   cy="461.6914"
   r="73.9827"
   fx="-254.4971"
   fy="461.6914"
   gradientTransform="matrix(0.3861 0 0 -0.3861 123.8072 176.7031)"
   gradientUnits="userSpaceOnUse"><stop
   offset="0.1742"
   style="stop-color:#53A4FF"
   id="stop644" /><stop
   offset="0.2463"
   style="stop-color:#4B99F6"
   id="stop645" /><stop
   offset="0.7613"
   style="stop-color:#1550BB"
   id="stop646" /><stop
   offset="1"
   style="stop-color:#0033A4"
   id="stop647" /><a:midPointStop
   offset="0.1742"
   style="stop-color:#53A4FF"
   id="midPointStop648" /><a:midPointStop
   offset="0.5"
   style="stop-color:#53A4FF"
   id="midPointStop649" /><a:midPointStop
   offset="0.2463"
   style="stop-color:#4B99F6"
   id="midPointStop650" /><a:midPointStop
   offset="0.5"
   style="stop-color:#4B99F6"
   id="midPointStop651" /><a:midPointStop
   offset="0.7613"
   style="stop-color:#1550BB"
   id="midPointStop652" /><a:midPointStop
   offset="0.5"
   style="stop-color:#1550BB"
   id="midPointStop653" /><a:midPointStop
   offset="1"
   style="stop-color:#0033A4"
   id="midPointStop654" /></radialGradient><path
   i:isolated="yes"
   i:knockout="Off"
   opacity="0.1"
   fill="url(#XMLID_1_)"
   a:adobe-blending-mode="multiply"
   enable-background="new    "
   d="      M12.9,24.1c-0.2-0.2-0.1-1-0.1-1s-2.9-1.5-6.1-2.5c-0.4-0.1-0.2-0.9,0.2-1.2l-0.1-0.9c-0.1-0.4,0.6-2.5,1.4-2.7      C8.9,15.6,8.1,17,8.1,17l-0.7,0.4c0,0,0.8,1,1,1C8.7,18.5,9,18,9,18l-0.9-0.6L8.9,17L9,16.7h0.1l1.4-2.1c1-0.4,2.1-0.9,2.3-1      c0.3-0.1,2.1-1.2,2.4-1.4c0.3-0.2,1-0.2,1.3-0.2s0.6-0.1,0.7-0.8c0.1-0.7,0.3-0.8,0.5-0.6c0.2,0.2-0.2,0.5,0.3,0.6      c0.5,0.1,0.8,0.4,1.2,0.1c0.2-0.2-0.1-0.5-0.3-0.7h3.6l0.4-1.1l-0.8-0.1L19,9.1V8.7h-0.2c0.3-1.9,2.3-1.5,0.8-2.6      c-0.1-0.1-1.4,2.1-1.7,2C17.3,8,16.5,8,16.3,8.2c-0.2,0.3,0.5-0.9,1.1-1.2c-1,0.3-4.1,1.4-7.4,4.9c-3.1,3.4-4.4,7.9-4.4,8      c0,0.3,0.6,0.4,0.7,0.8c0,0.4-1.3,1.6-1.3,2.2c0,0.3-0.3,4.1,0.8,7.2C7,33.8,9.7,36.8,10,37l0.6-0.3c0,0-1.5-2.6-1.5-2.9      c-0.1-0.2,1.7-3.8,2.5-3.7c0.8,0.1,0.6,0.4,1.2,0.1c0.5-0.3,0.8-2.8,1.4-3.1c0.6-0.2,1.2-0.6,1.2-1.2      C15.3,25.3,13.1,24.2,12.9,24.1z M17.5,6.9c-0.1,0-0.2,0-0.3,0.1C17.5,6.9,17.6,6.9,17.5,6.9z M23.8,8.1l0.1-0.9l-1,0.1L23,8.1      H23.8z M26.9,6l-1.7-0.6l0.3,1L26.9,6z M20.4,8.3c0.2,0,4.1-2.6,3.7-2.6c-0.4-0.1-0.5,0-1.5-0.1s-2.1,1.5-2.4,1.7      C19.9,7.5,20,8.3,20.4,8.3z M30.9,31.2c0,0-0.4,0.1,0.1,0.3s2.5-2.9,2.5-2.9l-1.7,1.1L30.9,31.2z M42.9,21.8l-0.3-0.6      c-0.4-2.2-1.3-5-3.2-7.9c-2.8-4.4-10.8-6.9-10.8-6.9l-0.4,0.5l-0.3-0.4l-0.6-0.2v0.5l0.6,0.5l-0.4,0.2l-1.4,0.1l-3.2,1.8      l0.3,1.4l-0.4,0.1l-0.2,0.3l1.1,1.6l0.1,0.5l-0.9,0.2v1.1l-0.5,0.1l0.1,0.8l-4.2,3l0.1,1.7C18.6,20.5,21,23,21,23      s2.8,0.1,3.4-0.2c0.6-0.4,0.2,0.4,0.4,0.5c0.2,0.2,0.2,1.4,0.4,1.5c0.2,0.1,0,0.8,0.2,1.1c0.3,0.2,0.3,3.1,0.3,3.1      s1.5,2.5,1.5,3.2s-0.1,0.6,1.1,0.5c1.2-0.1,1.4-0.5,1.7-0.7s0.3-0.6,0.5-0.9c0.3-0.4,0.7-1.7,1.2-2.2c0.6-0.5,2.1-0.8,2.2-1.7      c0.1-0.8,0.7-1.5,0.7-1.5l2.7-2.9l-0.1,0.4l-0.1,1.5l0.8-0.3l0.1-1.6l-0.3-0.3l0,0c0,0-0.2-0.4-0.4-0.4s-1.7,0.4-2,0.3      c-0.2-0.1-1.3-2.9-1.5-3s-1.4-2.1-1.4-2.1s2.7,3.3,3.2,4.6c0.3,0.8,1.2,0.1,2-0.7l0.2,0.5l0.5-0.1L38.2,21h0.6v0.9l-0.2,0.5      l-0.1,0.8l0.5,0.5l0.3-0.4l0.8-0.8L41,22l0.2,0.5l0.1,0.7L41,23.9l-0.5,0.4l-0.2,1.1v0.5l-0.6-0.4l-0.1-1.1H39l-0.4,1l0.6,0.8      l1.3,0.2l1.1-1l0.1-2l0.5-0.6c0.3,0.8,0.5,1.6,0.5,2.4c0,0.9,0.4-0.6,0.1-3.2L42.9,21.8z M27.2,15.7l-3.4-0.1l1.4-1.2H26      l1.2,0.8V15.7L27.2,15.7z M31.3,15.3v0.5h-1.4l0.1,0.4l-0.9,0.1L29,16.6l-0.6-0.1l-1.1-0.2l0.2-0.3l0.2-0.4l0.6-0.7l0.2,0.5      l0.9-0.1l0.5-0.5l1.9,0.4L31.3,15.3z M31.4,14.5l-0.7,0.1l-0.1-0.5l0.9-0.1l0.1-0.5l0.7,0.7L31.4,14.5z M38.1,26.8l0.5-0.7      L38.1,26l-0.4,0.5l-0.4,0.7l0.4,0.2L38.1,26.8z M35,33l-0.4,0.4l0.1,0.9h0.6v-0.8l0.5-0.7v-1.4l-0.3-0.1L35,33z M40.3,28.9      L40.2,28h-0.8l-0.1,0.7l-0.7-0.1l-0.2-0.8L38,27.6l-0.4,0.5L37.1,28L37,28.4l0.5,0.1v3.8l1.8,0.4c0,0.1-0.1,0.1-0.1,0.2      c-0.1,0.4,0.5,0.6,0.9,0.4c0.2-0.1,0.7-0.6,1-1.4c0.4-1.1,0.8-2.5,0.9-3l0.2-0.4L41,29L40.3,28.9z"
   id="path655" /><linearGradient
   id="XMLID_2_"
   gradientUnits="userSpaceOnUse"
   x1="-502.9263"
   y1="30.0996"
   x2="-502.9264"
   y2="84.183"
   gradientTransform="matrix(1 0 0 1 526.8389 -38.166)"><stop
   offset="8.989999e-002"
   style="stop-color:#2B9FD7"
   id="stop657" /><stop
   offset="0.3508"
   style="stop-color:#1175D4"
   id="stop658" /><stop
   offset="0.5562"
   style="stop-color:#0058D2"
   id="stop659" /><stop
   offset="1"
   style="stop-color:#0032BB"
   id="stop660" /><a:midPointStop
   offset="8.989999e-002"
   style="stop-color:#2B9FD7"
   id="midPointStop661" /><a:midPointStop
   offset="0.5"
   style="stop-color:#2B9FD7"
   id="midPointStop662" /><a:midPointStop
   offset="0.3508"
   style="stop-color:#1175D4"
   id="midPointStop663" /><a:midPointStop
   offset="0.5"
   style="stop-color:#1175D4"
   id="midPointStop664" /><a:midPointStop
   offset="0.5562"
   style="stop-color:#0058D2"
   id="midPointStop665" /><a:midPointStop
   offset="0.5"
   style="stop-color:#0058D2"
   id="midPointStop666" /><a:midPointStop
   offset="1"
   style="stop-color:#0032BB"
   id="midPointStop667" /></linearGradient><path
   fill="url(#XMLID_2_)"
   d="M16.2,3.1c-0.1,0-0.2,0-0.4,0.1C16.1,3.1,16.3,3.1,16.2,3.1z M23.8,4.6l0.1-1.1l-1.2,0.1l0.2,1      H23.8z M10.6,23.7c-0.2-0.2-0.1-1.2-0.1-1.2S7,20.7,3.2,19.6c-0.5-0.1-0.2-1.1,0.2-1.5l-0.2-1c-0.1-0.5,0.8-3,1.6-3.2      c0.9-0.2-0.1,1.5-0.1,1.5L4,15.8c0,0,1,1.2,1.2,1.2c0.2,0,0.6-0.6,0.6-0.6l-1.1-0.7l1-0.4l0.1-0.4L6,14.8l1.7-2.5      c1.2-0.5,2.6-1.1,2.8-1.1c0.3-0.1,2.5-1.4,2.9-1.7s1.2-0.2,1.6-0.2c0.3,0,0.8-0.1,0.9-1c0.1-0.8,0.4-1,0.6-0.7      c0.2,0.2-0.2,0.6,0.3,0.7c0.5,0.1,1,0.5,1.4,0.1c0.3-0.3-0.1-0.6-0.4-0.8H22l0.5-1.3l-1-0.1l-3.7-0.4V5.3l-0.3,0.1      c0.4-2.2,2.8-1.9,1-3.1c-0.1-0.1-1.7,2.5-2.1,2.4c-0.7-0.1-1.7-0.1-1.9,0.1c-0.3,0.3,0.6-1.1,1.3-1.5c-1.2,0.3-4.9,1.6-8.9,5.9      c-3.8,4-5.3,9.5-5.3,9.7c0,0.4,0.8,0.5,0.9,1C2.6,20.2,1,21.6,1,22.4c0,0.3-0.3,4.9,1,8.6c1.5,4.4,4.8,8,5.1,8.3l0.8-0.4      c0,0-1.8-3.2-1.9-3.5c-0.1-0.3,2-4.6,3-4.4c1,0.1,0.8,0.4,1.4,0.1c0.6-0.4,1-3.4,1.7-3.7c0.7-0.3,1.5-0.7,1.4-1.4      C13.5,25.2,10.8,23.9,10.6,23.7z M27.5,2l-2-0.4l0.3,0.8L27.5,2z M19.6,4.7c0.2,0,4.9-3.1,4.4-3.2s-0.6,0.2-1.8,0.1      c-1.2-0.1-2.5,1.5-2.8,1.8C19.1,3.8,19.2,4.7,19.6,4.7z M41.1,27l0.6-0.8L41.1,26l-0.5,0.6l-0.5,0.8l0.5,0.2L41.1,27z       M43.7,29.5l-0.2-1.1h-1l-0.1,0.9l-0.9-0.1l-0.2-0.9L40.8,28l-0.5,0.6l-0.5-0.1L39.6,29l0.6,0.1v4.6l2.1,0.5      c0,0.1-0.1,0.2-0.1,0.2c-0.2,0.5,0.6,0.7,1.1,0.5c0.2-0.1,0.8-0.7,1.2-1.6c0.5-1.3,1-3,1.1-3.6l0.2-0.5l-1.5,0.6L43.7,29.5z       M46.6,20.8l-0.1-0.6c-0.5-2.6-1.5-6-3.8-9.5C38.7,4.6,30,2.1,30,2.1l-0.9,1l-0.3-0.5L28,2.3V3l0.7,0.6l-0.5,0.2l-1.7,0.1      L22.6,6L23,7.7l-0.5,0.1l-0.2,0.4l1.3,1.9l0.1,0.6L22.6,11v1.3L22,12.4l0.1,1L17,17l0.2,2c0.4,0.5,3.3,3.5,3.3,3.5      s3.4,0.1,4.1-0.3c0.8-0.4,0.2,0.4,0.5,0.6c0.2,0.2,0.3,1.7,0.5,1.8c0.2,0.1,0,1,0.3,1.3c0.3,0.3,0.3,3.7,0.3,3.7      s1.8,3.1,1.8,3.8c0,0.8-0.1,0.7,1.4,0.6c1.4-0.1,1.7-0.6,2-0.9c0.3-0.2,0.3-0.7,0.6-1.1s0.8-2.1,1.5-2.6c0.7-0.6,2.5-1,2.6-2      c0.2-1,0.8-1.8,0.8-1.8l3.3-3.4l-0.1,0.5L40,24.5l1-0.4l-0.1-1.9l-0.4-0.4l0.1-0.1c0,0-0.2-0.4-0.5-0.4c-0.3,0-2.1,0.4-2.4,0.4      c-0.3-0.1-1.6-3.5-1.8-3.6c-0.2-0.1-1.7-2.5-1.7-2.5s3.3,4,3.8,5.5c0.3,0.9,1.5,0.1,2.4-0.9l0.2,0.6l0.6-0.1V20h0.7v1.1      l-0.2,0.6l-0.1,0.9l0.6,0.6l0.3-0.5l1-0.9l1.1-0.6l0.3,0.6l0.2,0.8l-0.3,0.9L44.2,24l-0.3,1.3v0.6l-0.7-0.4L43.1,24l-1,0.1      l-0.5,1.2l0.7,1l1.6,0.2l1.3-1.2l0.2-2.3l0.6-0.8c0.4,1,0.6,2,0.6,2.9c0,1,0.5-0.7,0.1-3.8L46.6,20.8z M27.9,13.7l-4.1-0.1      l1.7-1.4h0.9l1.4,1v0.5H27.9z M32.9,13.2v0.6h-1.7l0.2,0.4l-1.1,0.1l-0.1,0.4l-0.8-0.1L28,14.3l0.2-0.4l0.2-0.4l0.8-0.8l0.3,0.6      l1.1-0.1l0.6-0.6l2.3,0.4L32.9,13.2z M33,12.3l-0.9,0.1L32,11.8l1.1-0.1l0.2-0.6l0.8,0.9L33,12.3z M37.4,34.4l-0.5,0.4l0.1,1.1      h0.7V35l0.6-0.8v-1.6l-0.4-0.1L37.4,34.4z M32.3,32.2c0,0-0.5,0.1,0.1,0.4c0.6,0.2,3-3.5,3-3.5l-2,1.3L32.3,32.2z M28.2,45.9      l-0.5-0.4l-0.9-0.1l-0.2,0.4l-1.2-0.1V45h-0.9l-1,0.6h-1.7l-0.1-0.4l-2.8-0.3l-0.5,0.4L17.3,45l-0.2-1l-0.5-0.1L16,45l-2-0.1      c0.4,0.2,3.4,2,8.1,2.4c6.2,0.5,9.1-1,9.1-1L31,46.1L28.2,45.9z"
   id="path668" /><path
   id="path636"
   i:knockout="Off"
   fill="none"
   d="M4.3,15.7c0-0.1,0-0.2,0-0.3c0-0.3,0-0.7,0.1-1c-0.6,0.8-1.1,2.4-1,2.7      l0.2,1c-0.5,0.4-0.7,1.3-0.2,1.5c0.8,0.2,1.6,0.5,2.3,0.8c-0.7-1.3-1.1-2.8-1.3-4.2c-0.2-0.2-0.3-0.3-0.3-0.3L4.3,15.7z" /><path
   d="M35.5,29.3"
   id="path670" /><path
   id="path638"
   i:isolated="yes"
   i:knockout="Off"
   opacity="0.3"
   fill="#FFFFFF"
   a:adobe-blending-mode="screen"
   enable-background="new    "
   d="      M24,41.2c-10.4,0-19.1-6.2-19.9-16c0,0.5-0.1,1-0.1,1.5c0,10.4,9,18.9,20,18.9s20-8.5,20-18.9c0-0.5,0-1-0.1-1.5      C43.1,35,34.5,41.2,24,41.2z" /><ellipse
   id="path639"
   i:isolated="yes"
   i:knockout="Off"
   opacity="0.2"
   fill="#FFFFFF"
   a:adobe-blending-mode="screen"
   enable-background="new    "
   cx="24.2"
   cy="36.2"
   rx="12"
   ry="9.4" /><linearGradient
   id="path643_1_"
   gradientUnits="userSpaceOnUse"
   x1="-502.5386"
   y1="40.4492"
   x2="-502.5386"
   y2="64.9544"
   gradientTransform="matrix(1 0 0 1 526.8389 -38.166)"><stop
   offset="4.022990e-002"
   style="stop-color:#FFFFFF"
   id="stop674" /><stop
   offset="1"
   style="stop-color:#FFFFFF"
   id="stop675" /><a:midPointStop
   offset="4.022990e-002"
   style="stop-color:#FFFFFF"
   id="midPointStop676" /><a:midPointStop
   offset="0.5"
   style="stop-color:#FFFFFF"
   id="midPointStop677" /><a:midPointStop
   offset="1"
   style="stop-color:#FFFFFF"
   id="midPointStop678" /></linearGradient><ellipse
   id="path643"
   i:isolated="yes"
   i:knockout="Off"
   opacity="0.4"
   fill="url(#path643_1_)"
   a:adobe-blending-mode="screen"
   enable-background="new    "
   cx="24.3"
   cy="14.1"
   rx="18.2"
   ry="12.6" /></g></g></svg>
