<?xml version="1.0" encoding="UTF-8" standalone="no"?>
<!DOCTYPE svg PUBLIC "-//W3C//DTD SVG 20010904//EN"
"http://www.w3.org/TR/2001/REC-SVG-20010904/DTD/svg10.dtd">
<!-- Created with Sodipodi ("http://www.sodipodi.com/") -->
<svg
   xmlns:x="http://ns.adobe.com/Extensibility/1.0/"
   xmlns:i="http://ns.adobe.com/AdobeIllustrator/10.0/"
   xmlns:graph="http://ns.adobe.com/Graphs/1.0/"
   xmlns="http://www.w3.org/2000/svg"
   xmlns:xlink="http://www.w3.org/1999/xlink"
   xmlns:a="http://ns.adobe.com/AdobeSVGViewerExtensions/3.0/"
   xml:space="preserve"
   i:viewOrigin="178.75 490.25"
   i:rulerOrigin="0 0"
   i:pageBounds="0 792 612 0"
   width="48"
   height="48"
   viewBox="0 0 48 48"
   overflow="visible"
   enable-background="new 0 0 48 48"
   xmlns:sodipodi="http://sodipodi.sourceforge.net/DTD/sodipodi-0.dtd"
   id="svg602"
   sodipodi:version="0.34"
   sodipodi:docname="C:\msys\home\su_blanc\mldonkey-2.5.12\src\gtk2\rsvg\net_filetp.svg"><defs
   id="defs1017" /><sodipodi:namedview
   id="base" /><g
   id="Layer_1_2_"
   i:knockout="Off"
   i:layer="yes"
   i:dimmedPercent="50"
   i:rgbTrio="#4F008000FFFF"><g
   id="g605"><g
   id="g606"><linearGradient
   id="XMLID_43_"
   gradientUnits="userSpaceOnUse"
   x1="-229.979"
   y1="451.708"
   x2="-229.979"
   y2="494.2134"
   gradientTransform="matrix(1 0 0 -1 253.9795 521)"><stop
   offset="0"
   style="stop-color:#FFFFFF"
   id="stop608" /><stop
   offset="0.764"
   style="stop-color:#C2CFDC"
   id="stop609" /><stop
   offset="1"
   style="stop-color:#B8C2D4"
   id="stop610" /><a:midPointStop
   offset="0"
   style="stop-color:#FFFFFF"
   id="midPointStop611" /><a:midPointStop
   offset="0.5"
   style="stop-color:#FFFFFF"
   id="midPointStop612" /><a:midPointStop
   offset="0.764"
   style="stop-color:#C2CFDC"
   id="midPointStop613" /><a:midPointStop
   offset="0.5"
   style="stop-color:#C2CFDC"
   id="midPointStop614" /><a:midPointStop
   offset="1"
   style="stop-color:#B8C2D4"
   id="midPointStop615" /></linearGradient><path
   fill="url(#XMLID_43_)"
   d="M41.1,10.3C41,9,40,7.9,38.7,7.9H9.3c-1.3,0-2.3,1-2.4,2.4L4.5,42.2l0.4,3.1       c0.2,1.3,1.1,2.4,2.4,2.4h33.3c1.3,0,2.2-1.1,2.4-2.4l0.4-3.1L41.1,10.3z"
   id="path616" /><path
   fill="#FFFFFF"
   d="M41,38.6H7c-1.3,0-2.4,1.1-2.4,2.4l0.4,3.1c0.2,1.3,1.1,2.4,2.4,2.4h33.3c1.3,0,2.2-1.1,2.4-2.4       l0.4-3.1C43.5,39.7,42.4,38.6,41,38.6z"
   id="path617" /><linearGradient
   id="XMLID_44_"
   gradientUnits="userSpaceOnUse"
   x1="-229.9795"
   y1="471.2217"
   x2="-229.9795"
   y2="480.717"
   gradientTransform="matrix(1 0 0 -1 253.9795 521)"><stop
   offset="0"
   style="stop-color:#FFFFFF"
   id="stop619" /><stop
   offset="0.1629"
   style="stop-color:#F0F0FF"
   id="stop620" /><stop
   offset="1"
   style="stop-color:#8D99A9"
   id="stop621" /><a:midPointStop
   offset="0"
   style="stop-color:#FFFFFF"
   id="midPointStop622" /><a:midPointStop
   offset="0.5"
   style="stop-color:#FFFFFF"
   id="midPointStop623" /><a:midPointStop
   offset="0.1629"
   style="stop-color:#F0F0FF"
   id="midPointStop624" /><a:midPointStop
   offset="0.5"
   style="stop-color:#F0F0FF"
   id="midPointStop625" /><a:midPointStop
   offset="1"
   style="stop-color:#8D99A9"
   id="midPointStop626" /></linearGradient><path
   fill="url(#XMLID_44_)"
   d="M41,39.6H7c-1.3,0-2.4,1.1-2.4,2.4l0.4,3.1c0.2,1.3,1.1,2.4,2.4,2.4h33.3       c1.3,0,2.2-1.1,2.4-2.4l0.4-3.1C43.5,40.6,42.4,39.6,41,39.6z"
   id="path627" /><path
   i:knockout="Off"
   fill="none"
   d="M38.7,8.2H9.3c-1.2,0-2.1,0.9-2.2,2.2L5.2,35.9c0.4-0.4,1-0.6,1.6-0.6h34.3       c0.6,0,1.2,0.2,1.6,0.6c-0.7-9.3-1.9-25.5-1.9-25.5C40.8,9.1,39.9,8.2,38.7,8.2z"
   id="path628" /><linearGradient
   id="XMLID_45_"
   gradientUnits="userSpaceOnUse"
   x1="-229.9795"
   y1="457.4531"
   x2="-229.9795"
   y2="481.6618"
   gradientTransform="matrix(1 0 0 -1 253.9795 521)"><stop
   offset="0"
   style="stop-color:#9E9EAC"
   id="stop630" /><stop
   offset="1"
   style="stop-color:#42425B"
   id="stop631" /><a:midPointStop
   offset="0"
   style="stop-color:#9E9EAC"
   id="midPointStop632" /><a:midPointStop
   offset="0.5"
   style="stop-color:#9E9EAC"
   id="midPointStop633" /><a:midPointStop
   offset="1"
   style="stop-color:#42425B"
   id="midPointStop634" /></linearGradient><path
   fill="url(#XMLID_45_)"
   d="M43.3,36.5l-1.9-26.2c-0.1-1.6-1.2-2.6-2.7-2.6H9.3c-1.5,0-2.6,1.1-2.7,2.6L4.7,36.5l-0.4,5.7       l0.4,3.2C5,46.9,6,48,7.4,48h33.3c1.4,0,2.4-1.1,2.7-2.6l0.4-3.1L43.3,36.5z M42.8,45.3c-0.2,1.1-0.9,2.2-2.2,2.2H7.4       c-1.3,0-2-1.2-2.2-2.2l-0.4-3.1l0.5-6.3l1.9-25.5c0.1-1.3,1-2.2,2.2-2.2h29.4c1.2,0,2.1,0.9,2.2,2.2c0,0,1.2,16.2,1.9,25.5       c0.3,3.7,0.5,6.4,0.5,6.4L42.8,45.3z"
   id="path635" /><g
   i:knockout="Off"
   id="g636"><g
   i:knockout="Off"
   id="g637"><g
   i:knockout="Off"
   id="g638"><linearGradient
   id="XMLID_46_"
   gradientUnits="userSpaceOnUse"
   x1="-231.5708"
   y1="477.3662"
   x2="-246.6599"
   y2="477.3662"
   gradientTransform="matrix(1 0 0 -1 253.9795 521)"><stop
   offset="0"
   style="stop-color:#D1D1E6"
   id="stop640" /><stop
   offset="4.210000e-002"
   style="stop-color:#C9C9DE"
   id="stop641" /><stop
   offset="0.1692"
   style="stop-color:#B5B5CA"
   id="stop642" /><stop
   offset="0.2986"
   style="stop-color:#AAAABF"
   id="stop643" /><stop
   offset="0.4326"
   style="stop-color:#A6A6BB"
   id="stop644" /><stop
   offset="0.9944"
   style="stop-color:#666679"
   id="stop645" /><a:midPointStop
   offset="0"
   style="stop-color:#D1D1E6"
   id="midPointStop646" /><a:midPointStop
   offset="0.5"
   style="stop-color:#D1D1E6"
   id="midPointStop647" /><a:midPointStop
   offset="4.210000e-002"
   style="stop-color:#C9C9DE"
   id="midPointStop648" /><a:midPointStop
   offset="0.5"
   style="stop-color:#C9C9DE"
   id="midPointStop649" /><a:midPointStop
   offset="0.1692"
   style="stop-color:#B5B5CA"
   id="midPointStop650" /><a:midPointStop
   offset="0.5"
   style="stop-color:#B5B5CA"
   id="midPointStop651" /><a:midPointStop
   offset="0.2986"
   style="stop-color:#AAAABF"
   id="midPointStop652" /><a:midPointStop
   offset="0.5"
   style="stop-color:#AAAABF"
   id="midPointStop653" /><a:midPointStop
   offset="0.4326"
   style="stop-color:#A6A6BB"
   id="midPointStop654" /><a:midPointStop
   offset="0.5"
   style="stop-color:#A6A6BB"
   id="midPointStop655" /><a:midPointStop
   offset="0.9944"
   style="stop-color:#666679"
   id="midPointStop656" /></linearGradient><polygon
   fill="url(#XMLID_46_)"
   points="32,46.1 7.8,46.1 7.3,41.1 32,41.1 "
   id="polygon657" /><linearGradient
   id="XMLID_47_"
   gradientUnits="userSpaceOnUse"
   x1="-222.6187"
   y1="473.5742"
   x2="-222.6187"
   y2="479.5158"
   gradientTransform="matrix(1 0 0 -1 253.9795 521)"><stop
   offset="0"
   style="stop-color:#000000"
   id="stop659" /><stop
   offset="0.9828"
   style="stop-color:#000000"
   id="stop660" /><a:midPointStop
   offset="0"
   style="stop-color:#000000"
   id="midPointStop661" /><a:midPointStop
   offset="0.5"
   style="stop-color:#000000"
   id="midPointStop662" /><a:midPointStop
   offset="0.9828"
   style="stop-color:#000000"
   id="midPointStop663" /></linearGradient><rect
   x="30.7"
   y="41.6"
   i:isolated="yes"
   i:knockout="Off"
   opacity="0.7"
   fill="url(#XMLID_47_)"
   a:adobe-blending-mode="multiply"
   enable-background="new    "
   width="1.3"
   height="4.1"
   id="rect664" /><linearGradient
   id="XMLID_48_"
   gradientUnits="userSpaceOnUse"
   x1="-224.9707"
   y1="473.5742"
   x2="-224.9707"
   y2="479.5158"
   gradientTransform="matrix(1 0 0 -1 253.9795 521)"><stop
   offset="0"
   style="stop-color:#FFFFFF"
   id="stop666" /><stop
   offset="1"
   style="stop-color:#000000"
   id="stop667" /><a:midPointStop
   offset="0"
   style="stop-color:#FFFFFF"
   id="midPointStop668" /><a:midPointStop
   offset="0.5"
   style="stop-color:#FFFFFF"
   id="midPointStop669" /><a:midPointStop
   offset="1"
   style="stop-color:#000000"
   id="midPointStop670" /></linearGradient><rect
   x="28.4"
   y="41.6"
   i:isolated="yes"
   i:knockout="Off"
   opacity="0.7"
   fill="url(#XMLID_48_)"
   a:adobe-blending-mode="multiply"
   enable-background="new    "
   width="1.3"
   height="4.1"
   id="rect671" /><linearGradient
   id="XMLID_49_"
   gradientUnits="userSpaceOnUse"
   x1="-227.3242"
   y1="473.5742"
   x2="-227.3242"
   y2="479.5158"
   gradientTransform="matrix(1 0 0 -1 253.9795 521)"><stop
   offset="0"
   style="stop-color:#000000"
   id="stop673" /><stop
   offset="0.9943"
   style="stop-color:#000000"
   id="stop674" /><a:midPointStop
   offset="0"
   style="stop-color:#000000"
   id="midPointStop675" /><a:midPointStop
   offset="0.5"
   style="stop-color:#000000"
   id="midPointStop676" /><a:midPointStop
   offset="0.9943"
   style="stop-color:#000000"
   id="midPointStop677" /></linearGradient><rect
   x="26"
   y="41.6"
   i:isolated="yes"
   i:knockout="Off"
   opacity="0.7"
   fill="url(#XMLID_49_)"
   a:adobe-blending-mode="multiply"
   enable-background="new    "
   width="1.3"
   height="4.1"
   id="rect678" /><linearGradient
   id="XMLID_50_"
   gradientUnits="userSpaceOnUse"
   x1="-229.6763"
   y1="473.5742"
   x2="-229.6763"
   y2="479.5158"
   gradientTransform="matrix(1 0 0 -1 253.9795 521)"><stop
   offset="0"
   style="stop-color:#000000"
   id="stop680" /><stop
   offset="1"
   style="stop-color:#000000"
   id="stop681" /><a:midPointStop
   offset="0"
   style="stop-color:#000000"
   id="midPointStop682" /><a:midPointStop
   offset="0.5"
   style="stop-color:#000000"
   id="midPointStop683" /><a:midPointStop
   offset="1"
   style="stop-color:#000000"
   id="midPointStop684" /></linearGradient><rect
   x="23.7"
   y="41.6"
   i:isolated="yes"
   i:knockout="Off"
   opacity="0.7"
   fill="url(#XMLID_50_)"
   a:adobe-blending-mode="multiply"
   enable-background="new    "
   width="1.3"
   height="4.1"
   id="rect685" /><linearGradient
   id="XMLID_51_"
   gradientUnits="userSpaceOnUse"
   x1="-232.0298"
   y1="473.5742"
   x2="-232.0298"
   y2="479.5158"
   gradientTransform="matrix(1 0 0 -1 253.9795 521)"><stop
   offset="0"
   style="stop-color:#000000"
   id="stop687" /><stop
   offset="1"
   style="stop-color:#000000"
   id="stop688" /><a:midPointStop
   offset="0"
   style="stop-color:#000000"
   id="midPointStop689" /><a:midPointStop
   offset="0.5"
   style="stop-color:#000000"
   id="midPointStop690" /><a:midPointStop
   offset="1"
   style="stop-color:#000000"
   id="midPointStop691" /></linearGradient><rect
   x="21.3"
   y="41.6"
   i:isolated="yes"
   i:knockout="Off"
   opacity="0.7"
   fill="url(#XMLID_51_)"
   a:adobe-blending-mode="multiply"
   enable-background="new    "
   width="1.3"
   height="4.1"
   id="rect692" /><linearGradient
   id="XMLID_52_"
   gradientUnits="userSpaceOnUse"
   x1="-238.0552"
   y1="476.5342"
   x2="-246.4937"
   y2="476.5342"
   gradientTransform="matrix(1 0 0 -1 253.9795 521)"><stop
   offset="0.123"
   style="stop-color:#CECECE"
   id="stop694" /><stop
   offset="0.2768"
   style="stop-color:#BABABA"
   id="stop695" /><stop
   offset="0.4334"
   style="stop-color:#AFAFAF"
   id="stop696" /><stop
   offset="0.5955"
   style="stop-color:#ABABAB"
   id="stop697" /><stop
   offset="1"
   style="stop-color:#6E6E6E"
   id="stop698" /><stop
   offset="1"
   style="stop-color:#E3E3E3"
   id="stop699" /><a:midPointStop
   offset="0.123"
   style="stop-color:#CECECE"
   id="midPointStop700" /><a:midPointStop
   offset="0.5"
   style="stop-color:#CECECE"
   id="midPointStop701" /><a:midPointStop
   offset="0.2768"
   style="stop-color:#BABABA"
   id="midPointStop702" /><a:midPointStop
   offset="0.5"
   style="stop-color:#BABABA"
   id="midPointStop703" /><a:midPointStop
   offset="0.4334"
   style="stop-color:#AFAFAF"
   id="midPointStop704" /><a:midPointStop
   offset="0.5"
   style="stop-color:#AFAFAF"
   id="midPointStop705" /><a:midPointStop
   offset="0.5955"
   style="stop-color:#ABABAB"
   id="midPointStop706" /><a:midPointStop
   offset="0.5"
   style="stop-color:#ABABAB"
   id="midPointStop707" /><a:midPointStop
   offset="1"
   style="stop-color:#6E6E6E"
   id="midPointStop708" /><a:midPointStop
   offset="0.5"
   style="stop-color:#6E6E6E"
   id="midPointStop709" /><a:midPointStop
   offset="1"
   style="stop-color:#E3E3E3"
   id="midPointStop710" /></linearGradient><path
   i:isolated="yes"
   i:knockout="Off"
   opacity="0.8"
   fill="url(#XMLID_52_)"
   a:adobe-blending-mode="multiply"
   enable-background="new    "
   d="          M11.3,44.7c3,1.4,10,1.5,10,1.5H7.8l-0.3-3.4C7.5,42.8,7.9,43.1,11.3,44.7z"
   id="path711" /><rect
   x="7.8"
   y="45.7"
   fill="#FFFFFF"
   width="24.7"
   height="0.4"
   id="rect712" /><polygon
   fill="#FFFFFF"
   points="32,45.8 32,41.1 32.5,41.1 32.5,45.8 32,45.8 "
   id="polygon713" /><linearGradient
   id="XMLID_53_"
   gradientUnits="userSpaceOnUse"
   x1="-232.873"
   y1="473.5762"
   x2="-235.5813"
   y2="487.6163"
   gradientTransform="matrix(1 0 0 -1 253.9795 521)"><stop
   offset="0"
   style="stop-color:#9E9EAC"
   id="stop715" /><stop
   offset="1"
   style="stop-color:#42425B"
   id="stop716" /><a:midPointStop
   offset="0"
   style="stop-color:#9E9EAC"
   id="midPointStop717" /><a:midPointStop
   offset="0.5"
   style="stop-color:#9E9EAC"
   id="midPointStop718" /><a:midPointStop
   offset="1"
   style="stop-color:#42425B"
   id="midPointStop719" /></linearGradient><rect
   x="7.4"
   y="41.1"
   fill="url(#XMLID_53_)"
   width="25.1"
   height="0.4"
   id="rect720" /></g><linearGradient
   id="XMLID_54_"
   gradientUnits="userSpaceOnUse"
   x1="-234.1079"
   y1="476.666"
   x2="-234.1079"
   y2="481.872"
   gradientTransform="matrix(1 0 0 -1 253.9795 521)"><stop
   offset="0"
   style="stop-color:#000000"
   id="stop722" /><stop
   offset="1"
   style="stop-color:#000000"
   id="stop723" /><a:midPointStop
   offset="0"
   style="stop-color:#000000"
   id="midPointStop724" /><a:midPointStop
   offset="0.5"
   style="stop-color:#000000"
   id="midPointStop725" /><a:midPointStop
   offset="1"
   style="stop-color:#000000"
   id="midPointStop726" /></linearGradient><path
   i:isolated="yes"
   i:knockout="Off"
   opacity="0.7"
   fill="url(#XMLID_54_)"
   a:adobe-blending-mode="multiply"
   enable-background="new    "
   d="         M7.3,41.1l0.1,1.1c4.5,1.2,11.2,2.3,18.4,2.3c2.3,0,4.5-0.1,6.6-0.2v-3.2H7.3L7.3,41.1z"
   id="path727" /></g><g
   i:knockout="Off"
   id="g728"><linearGradient
   id="XMLID_55_"
   gradientUnits="userSpaceOnUse"
   x1="-216.0698"
   y1="475.4941"
   x2="-216.0698"
   y2="478.1454"
   gradientTransform="matrix(1 0 0 -1 253.9795 521)"><stop
   offset="0"
   style="stop-color:#FFFFFF"
   id="stop730" /><stop
   offset="1"
   style="stop-color:#000000"
   id="stop731" /><a:midPointStop
   offset="0"
   style="stop-color:#FFFFFF"
   id="midPointStop732" /><a:midPointStop
   offset="0.5"
   style="stop-color:#FFFFFF"
   id="midPointStop733" /><a:midPointStop
   offset="1"
   style="stop-color:#000000"
   id="midPointStop734" /></linearGradient><circle
   fill="url(#XMLID_55_)"
   cx="37.9"
   cy="44.5"
   r="1.6"
   id="circle735" /><g
   i:knockout="Off"
   id="g736"><linearGradient
   id="XMLID_56_"
   gradientUnits="userSpaceOnUse"
   x1="-216.0693"
   y1="474.0986"
   x2="-216.0693"
   y2="476.3878"
   gradientTransform="matrix(1 0 0 -1 253.9795 521)"><stop
   offset="0.4888"
   style="stop-color:#FFFFFF"
   id="stop738" /><stop
   offset="0.8202"
   style="stop-color:#00CD00"
   id="stop739" /><stop
   offset="1"
   style="stop-color:#00BD00"
   id="stop740" /><a:midPointStop
   offset="0.4888"
   style="stop-color:#FFFFFF"
   id="midPointStop741" /><a:midPointStop
   offset="0.5"
   style="stop-color:#FFFFFF"
   id="midPointStop742" /><a:midPointStop
   offset="0.8202"
   style="stop-color:#00CD00"
   id="midPointStop743" /><a:midPointStop
   offset="0.5"
   style="stop-color:#00CD00"
   id="midPointStop744" /><a:midPointStop
   offset="1"
   style="stop-color:#00BD00"
   id="midPointStop745" /></linearGradient><circle
   fill="url(#XMLID_56_)"
   cx="37.9"
   cy="44.5"
   r="1.2"
   id="circle746" /><linearGradient
   id="XMLID_57_"
   gradientUnits="userSpaceOnUse"
   x1="-217.5757"
   y1="478.7344"
   x2="-216.6595"
   y2="477.3598"
   gradientTransform="matrix(1 0 0 -1 253.9795 521)"><stop
   offset="1.120000e-002"
   style="stop-color:#009500"
   id="stop748" /><stop
   offset="0.2978"
   style="stop-color:#009000"
   id="stop749" /><stop
   offset="1"
   style="stop-color:#005B00"
   id="stop750" /><a:midPointStop
   offset="1.120000e-002"
   style="stop-color:#009500"
   id="midPointStop751" /><a:midPointStop
   offset="0.5"
   style="stop-color:#009500"
   id="midPointStop752" /><a:midPointStop
   offset="0.2978"
   style="stop-color:#009000"
   id="midPointStop753" /><a:midPointStop
   offset="0.5"
   style="stop-color:#009000"
   id="midPointStop754" /><a:midPointStop
   offset="1"
   style="stop-color:#005B00"
   id="midPointStop755" /></linearGradient><path
   fill="url(#XMLID_57_)"
   d="M36.6,44.5c0,0.7,0.6,1.3,1.3,1.3c0.7,0,1.3-0.6,1.3-1.3s-0.6-1.3-1.3-1.3          C37.2,43.2,36.6,43.8,36.6,44.5z M36.7,44.5c0-0.6,0.5-1.2,1.2-1.2c0.6,0,1.2,0.5,1.2,1.2c0,0.6-0.5,1.2-1.2,1.2          C37.3,45.7,36.7,45.2,36.7,44.5z"
   id="path756" /><linearGradient
   id="XMLID_58_"
   gradientUnits="userSpaceOnUse"
   x1="-216.103"
   y1="477.582"
   x2="-216.103"
   y2="476.2749"
   gradientTransform="matrix(1 0 0 -1 253.9795 521)"><stop
   offset="0"
   style="stop-color:#FFFFFF"
   id="stop758" /><stop
   offset="0.1147"
   style="stop-color:#E9FAE9"
   id="stop759" /><stop
   offset="0.3539"
   style="stop-color:#B0EDB0"
   id="stop760" /><stop
   offset="0.6936"
   style="stop-color:#57D957"
   id="stop761" /><stop
   offset="1"
   style="stop-color:#00C500"
   id="stop762" /><a:midPointStop
   offset="0"
   style="stop-color:#FFFFFF"
   id="midPointStop763" /><a:midPointStop
   offset="0.5"
   style="stop-color:#FFFFFF"
   id="midPointStop764" /><a:midPointStop
   offset="0.1147"
   style="stop-color:#E9FAE9"
   id="midPointStop765" /><a:midPointStop
   offset="0.5"
   style="stop-color:#E9FAE9"
   id="midPointStop766" /><a:midPointStop
   offset="0.3539"
   style="stop-color:#B0EDB0"
   id="midPointStop767" /><a:midPointStop
   offset="0.5"
   style="stop-color:#B0EDB0"
   id="midPointStop768" /><a:midPointStop
   offset="0.6936"
   style="stop-color:#57D957"
   id="midPointStop769" /><a:midPointStop
   offset="0.5"
   style="stop-color:#57D957"
   id="midPointStop770" /><a:midPointStop
   offset="1"
   style="stop-color:#00C500"
   id="midPointStop771" /></linearGradient><path
   fill="url(#XMLID_58_)"
   d="M37.9,44.6c0.4-0.3,0.8-0.4,1-0.5c-0.2-0.4-0.6-0.6-1-0.6c-0.6,0-1.1,0.5-1.1,1.1          c0,0.1,0,0.2,0,0.3C37,44.9,37.5,44.9,37.9,44.6z"
   id="path772" /></g></g></g><g
   i:knockout="Off"
   id="g773"><g
   i:knockout="Off"
   id="g774"><linearGradient
   id="XMLID_59_"
   gradientUnits="userSpaceOnUse"
   x1="-230.5908"
   y1="489.8799"
   x2="-230.277"
   y2="499.7678"
   gradientTransform="matrix(1 0 0 -1 253.9795 521)"><stop
   offset="0"
   style="stop-color:#FFFFFF"
   id="stop776" /><stop
   offset="0.1629"
   style="stop-color:#F0F0FF"
   id="stop777" /><stop
   offset="1"
   style="stop-color:#354C60"
   id="stop778" /><a:midPointStop
   offset="0"
   style="stop-color:#FFFFFF"
   id="midPointStop779" /><a:midPointStop
   offset="0.5"
   style="stop-color:#FFFFFF"
   id="midPointStop780" /><a:midPointStop
   offset="0.1629"
   style="stop-color:#F0F0FF"
   id="midPointStop781" /><a:midPointStop
   offset="0.5"
   style="stop-color:#F0F0FF"
   id="midPointStop782" /><a:midPointStop
   offset="1"
   style="stop-color:#354C60"
   id="midPointStop783" /></linearGradient><path
   fill="url(#XMLID_59_)"
   d="M35.7,23.5c-0.1-0.2-0.3-0.4-0.4-0.6L34.7,12l-0.9-0.9l-5.2,7.8c-1.6-0.4-3.3-0.6-5-0.6         c-7.4,0-13.3,3.9-13.3,8.7c0,4.8,6,8.7,13.3,8.7c7.4,0,13.3-3.9,13.3-8.7C36.9,25.7,36.4,24.5,35.7,23.5z"
   id="path784" /><linearGradient
   id="XMLID_60_"
   gradientUnits="userSpaceOnUse"
   x1="-230.46"
   y1="473.9902"
   x2="-230.46"
   y2="498.2091"
   gradientTransform="matrix(1 0 0 -1 253.9795 521)"><stop
   offset="0"
   style="stop-color:#FFFFFF"
   id="stop786" /><stop
   offset="0.764"
   style="stop-color:#C2CFDC"
   id="stop787" /><stop
   offset="1"
   style="stop-color:#B8C2D4"
   id="stop788" /><a:midPointStop
   offset="0"
   style="stop-color:#FFFFFF"
   id="midPointStop789" /><a:midPointStop
   offset="0.5"
   style="stop-color:#FFFFFF"
   id="midPointStop790" /><a:midPointStop
   offset="0.764"
   style="stop-color:#C2CFDC"
   id="midPointStop791" /><a:midPointStop
   offset="0.5"
   style="stop-color:#C2CFDC"
   id="midPointStop792" /><a:midPointStop
   offset="1"
   style="stop-color:#B8C2D4"
   id="midPointStop793" /></linearGradient><path
   fill="url(#XMLID_60_)"
   d="M34.8,23.5c-0.1-0.2-0.3-0.4-0.4-0.5l-0.5-10L33,12l-4.9,7.2c-1.4-0.4-3-0.6-4.7-0.6         c-6.8,0-12.3,3.6-12.3,8c0,4.4,5.5,8,12.3,8c6.8,0,12.3-3.6,12.3-8C35.9,25.5,35.5,24.5,34.8,23.5z"
   id="path794" /><linearGradient
   id="XMLID_61_"
   gradientUnits="userSpaceOnUse"
   x1="-230.6641"
   y1="492.2627"
   x2="-230.5799"
   y2="494.9121"
   gradientTransform="matrix(1 0 0 -1 253.9795 521)"><stop
   offset="0"
   style="stop-color:#FFFFFF"
   id="stop796" /><stop
   offset="0.1629"
   style="stop-color:#F0F0FF"
   id="stop797" /><stop
   offset="1"
   style="stop-color:#354C60"
   id="stop798" /><a:midPointStop
   offset="0"
   style="stop-color:#FFFFFF"
   id="midPointStop799" /><a:midPointStop
   offset="0.5"
   style="stop-color:#FFFFFF"
   id="midPointStop800" /><a:midPointStop
   offset="0.1629"
   style="stop-color:#F0F0FF"
   id="midPointStop801" /><a:midPointStop
   offset="0.5"
   style="stop-color:#F0F0FF"
   id="midPointStop802" /><a:midPointStop
   offset="1"
   style="stop-color:#354C60"
   id="midPointStop803" /></linearGradient><ellipse
   fill="url(#XMLID_61_)"
   cx="23.4"
   cy="26.6"
   rx="5.5"
   ry="3.3"
   id="ellipse804" /><linearGradient
   id="XMLID_62_"
   gradientUnits="userSpaceOnUse"
   x1="-230.5972"
   y1="488.3516"
   x2="-230.5972"
   y2="494.5293"
   gradientTransform="matrix(1 0 0 -1 253.9795 521)"><stop
   offset="0"
   style="stop-color:#FFFFFF"
   id="stop806" /><stop
   offset="0.764"
   style="stop-color:#C2CFDC"
   id="stop807" /><stop
   offset="1"
   style="stop-color:#B8C2D4"
   id="stop808" /><a:midPointStop
   offset="0"
   style="stop-color:#FFFFFF"
   id="midPointStop809" /><a:midPointStop
   offset="0.5"
   style="stop-color:#FFFFFF"
   id="midPointStop810" /><a:midPointStop
   offset="0.764"
   style="stop-color:#C2CFDC"
   id="midPointStop811" /><a:midPointStop
   offset="0.5"
   style="stop-color:#C2CFDC"
   id="midPointStop812" /><a:midPointStop
   offset="1"
   style="stop-color:#B8C2D4"
   id="midPointStop813" /></linearGradient><ellipse
   fill="url(#XMLID_62_)"
   cx="23.4"
   cy="26.6"
   rx="4.8"
   ry="2.9"
   id="ellipse814" /></g><g
   i:knockout="Off"
   id="g815"><linearGradient
   id="XMLID_63_"
   gradientUnits="userSpaceOnUse"
   x1="-235.499"
   y1="504.4805"
   x2="-235.4302"
   y2="506.6493"
   gradientTransform="matrix(1 0 0 -1 253.9795 521)"><stop
   offset="0"
   style="stop-color:#FFFFFF"
   id="stop817" /><stop
   offset="0.1629"
   style="stop-color:#F0F0FF"
   id="stop818" /><stop
   offset="1"
   style="stop-color:#354C60"
   id="stop819" /><a:midPointStop
   offset="0"
   style="stop-color:#FFFFFF"
   id="midPointStop820" /><a:midPointStop
   offset="0.5"
   style="stop-color:#FFFFFF"
   id="midPointStop821" /><a:midPointStop
   offset="0.1629"
   style="stop-color:#F0F0FF"
   id="midPointStop822" /><a:midPointStop
   offset="0.5"
   style="stop-color:#F0F0FF"
   id="midPointStop823" /><a:midPointStop
   offset="1"
   style="stop-color:#354C60"
   id="midPointStop824" /></linearGradient><path
   fill="url(#XMLID_63_)"
   d="M26.9,13c0-0.4-0.3-0.7-0.7-0.7H11.1c-0.4,0-0.6,0.3-0.7,0.7l-0.4,3.9         c0.1,0.3,0.3,0.4,0.6,0.4h15.6c0.4,0,0.6-0.3,0.6-0.6v-0.4L26.9,13z"
   id="path825" /><linearGradient
   id="XMLID_64_"
   gradientUnits="userSpaceOnUse"
   x1="-235.5054"
   y1="501.8086"
   x2="-235.5054"
   y2="506.3258"
   gradientTransform="matrix(1 0 0 -1 253.9795 521)"><stop
   offset="0"
   style="stop-color:#FFFFFF"
   id="stop827" /><stop
   offset="0.764"
   style="stop-color:#C2CFDC"
   id="stop828" /><stop
   offset="1"
   style="stop-color:#B8C2D4"
   id="stop829" /><a:midPointStop
   offset="0"
   style="stop-color:#FFFFFF"
   id="midPointStop830" /><a:midPointStop
   offset="0.5"
   style="stop-color:#FFFFFF"
   id="midPointStop831" /><a:midPointStop
   offset="0.764"
   style="stop-color:#C2CFDC"
   id="midPointStop832" /><a:midPointStop
   offset="0.5"
   style="stop-color:#C2CFDC"
   id="midPointStop833" /><a:midPointStop
   offset="1"
   style="stop-color:#B8C2D4"
   id="midPointStop834" /></linearGradient><path
   fill="url(#XMLID_64_)"
   d="M26.3,13.2c0-0.3-0.3-0.6-0.6-0.6H11.6c-0.3,0-0.6,0.2-0.6,0.6l-0.4,3.3         c0.1,0.2,0.3,0.4,0.6,0.4h14.6c0.3,0,0.6-0.2,0.6-0.5V16L26.3,13.2z"
   id="path835" /><path
   fill="#FFFFFF"
   d="M25.4,13.4c0-0.3-0.2-0.5-0.5-0.5H12.4c-0.3,0-0.5,0.2-0.5,0.5L11.5,16c0.1,0.2,0.3,0.3,0.5,0.3h12.8         c0.3,0,0.5-0.2,0.5-0.4v-0.3L25.4,13.4z"
   id="path836" /><path
   d="M25.4,13.3c0-0.2-0.2-0.4-0.5-0.4H12.4c-0.3,0-0.5,0.2-0.5,0.4l-0.3,2.2c0.1,0.1,0.3,0.3,0.5,0.3h12.8         c0.3,0,0.5-0.2,0.5-0.4v-0.2L25.4,13.3z"
   id="path837" /></g></g><linearGradient
   id="XMLID_65_"
   gradientUnits="userSpaceOnUse"
   x1="-202.0493"
   y1="519.2891"
   x2="-241.5995"
   y2="485.8597"
   gradientTransform="matrix(1 0 0 -1 253.9795 521)"><stop
   offset="0"
   style="stop-color:#FFFFFF"
   id="stop839" /><stop
   offset="0.764"
   style="stop-color:#C2CFDC"
   id="stop840" /><stop
   offset="1"
   style="stop-color:#B8C2D4"
   id="stop841" /><a:midPointStop
   offset="0"
   style="stop-color:#FFFFFF"
   id="midPointStop842" /><a:midPointStop
   offset="0.5"
   style="stop-color:#FFFFFF"
   id="midPointStop843" /><a:midPointStop
   offset="0.764"
   style="stop-color:#C2CFDC"
   id="midPointStop844" /><a:midPointStop
   offset="0.5"
   style="stop-color:#C2CFDC"
   id="midPointStop845" /><a:midPointStop
   offset="1"
   style="stop-color:#B8C2D4"
   id="midPointStop846" /></linearGradient><path
   opacity="0.75"
   fill="url(#XMLID_65_)"
   d="M36,8.3H12c-0.9,0-1.5,0.7-1.6,1.6L7.5,39.1H9h30h1.5L37.7,9.9       C37.5,9,36.9,8.3,36,8.3z"
   id="path847" /><g
   i:knockout="Off"
   id="g848"><g
   i:knockout="Off"
   id="g849"><g
   i:knockout="Off"
   id="g850"><linearGradient
   id="XMLID_66_"
   gradientUnits="userSpaceOnUse"
   x1="-244.668"
   y1="483.6348"
   x2="-244.6972"
   y2="485.3219"
   gradientTransform="matrix(1 0 0 -1 253.9795 521)"><stop
   offset="0"
   style="stop-color:#FFFFFF"
   id="stop852" /><stop
   offset="0.3483"
   style="stop-color:#F0F0FF"
   id="stop853" /><stop
   offset="1"
   style="stop-color:#8D99A9"
   id="stop854" /><a:midPointStop
   offset="0"
   style="stop-color:#FFFFFF"
   id="midPointStop855" /><a:midPointStop
   offset="0.5"
   style="stop-color:#FFFFFF"
   id="midPointStop856" /><a:midPointStop
   offset="0.3483"
   style="stop-color:#F0F0FF"
   id="midPointStop857" /><a:midPointStop
   offset="0.5"
   style="stop-color:#F0F0FF"
   id="midPointStop858" /><a:midPointStop
   offset="1"
   style="stop-color:#8D99A9"
   id="midPointStop859" /></linearGradient><circle
   fill="url(#XMLID_66_)"
   cx="9.3"
   cy="35.8"
   r="1.3"
   id="circle860" /><linearGradient
   id="XMLID_67_"
   gradientUnits="userSpaceOnUse"
   x1="-244.73"
   y1="486.2637"
   x2="-244.73"
   y2="485.1761"
   gradientTransform="matrix(1 0 0 -1 253.9795 521)"><stop
   offset="0.1092"
   style="stop-color:#FFFFFF"
   id="stop862" /><stop
   offset="1"
   style="stop-color:#FFFFFF"
   id="stop863" /><a:midPointStop
   offset="0.1092"
   style="stop-color:#FFFFFF"
   id="midPointStop864" /><a:midPointStop
   offset="0.5"
   style="stop-color:#FFFFFF"
   id="midPointStop865" /><a:midPointStop
   offset="1"
   style="stop-color:#FFFFFF"
   id="midPointStop866" /></linearGradient><path
   i:isolated="yes"
   i:knockout="Off"
   fill="url(#XMLID_67_)"
   a:adobe-blending-mode="screen"
   enable-background="new    "
   d="          M9.3,35.8c0.5-0.3,0.9-0.4,1.1-0.4c-0.2-0.3-0.6-0.5-1.1-0.5c-0.6,0-1.2,0.4-1.2,0.9c0,0.1,0,0.2,0,0.2          C8.4,36.1,8.8,36.1,9.3,35.8z"
   id="path867" /><linearGradient
   id="XMLID_68_"
   gradientUnits="userSpaceOnUse"
   x1="-244.6948"
   y1="484.0547"
   x2="-244.6948"
   y2="484.4529"
   gradientTransform="matrix(1 0 0 -1 253.9795 521)"><stop
   offset="0"
   style="stop-color:#9E9EAC"
   id="stop869" /><stop
   offset="1"
   style="stop-color:#42425B"
   id="stop870" /><a:midPointStop
   offset="0"
   style="stop-color:#9E9EAC"
   id="midPointStop871" /><a:midPointStop
   offset="0.5"
   style="stop-color:#9E9EAC"
   id="midPointStop872" /><a:midPointStop
   offset="1"
   style="stop-color:#42425B"
   id="midPointStop873" /></linearGradient><path
   fill="url(#XMLID_68_)"
   d="M7.9,35.8c0,0.6,0.6,1.1,1.4,1.1c0.8,0,1.4-0.5,1.4-1.1c0-0.6-0.6-1.1-1.4-1.1          C8.5,34.8,7.9,35.2,7.9,35.8z M8,35.8c0-0.5,0.6-1,1.2-1s1.2,0.4,1.2,1c0,0.5-0.6,1-1.2,1S8,36.4,8,35.8z"
   id="path874" /><g
   i:knockout="Off"
   id="g875"><rect
   x="8.1"
   y="35.8"
   fill="#EEEEEE"
   width="2.4"
   height="0.1"
   id="rect876" /><linearGradient
   id="XMLID_69_"
   gradientUnits="userSpaceOnUse"
   x1="-244.7456"
   y1="484.6348"
   x2="-244.7456"
   y2="484.8368"
   gradientTransform="matrix(1 0 0 -1 253.9795 521)"><stop
   offset="0"
   style="stop-color:#9E9EAC"
   id="stop878" /><stop
   offset="1"
   style="stop-color:#42425B"
   id="stop879" /><a:midPointStop
   offset="0"
   style="stop-color:#9E9EAC"
   id="midPointStop880" /><a:midPointStop
   offset="0.5"
   style="stop-color:#9E9EAC"
   id="midPointStop881" /><a:midPointStop
   offset="1"
   style="stop-color:#42425B"
   id="midPointStop882" /></linearGradient><rect
   x="8"
   y="35.7"
   fill="url(#XMLID_69_)"
   width="2.4"
   height="0.1"
   id="rect883" /></g></g><g
   i:knockout="Off"
   id="g884"><linearGradient
   id="XMLID_70_"
   gradientUnits="userSpaceOnUse"
   x1="-215.6978"
   y1="483.6348"
   x2="-215.7269"
   y2="485.3219"
   gradientTransform="matrix(1 0 0 -1 253.9795 521)"><stop
   offset="0"
   style="stop-color:#FFFFFF"
   id="stop886" /><stop
   offset="0.3483"
   style="stop-color:#F0F0FF"
   id="stop887" /><stop
   offset="1"
   style="stop-color:#8D99A9"
   id="stop888" /><a:midPointStop
   offset="0"
   style="stop-color:#FFFFFF"
   id="midPointStop889" /><a:midPointStop
   offset="0.5"
   style="stop-color:#FFFFFF"
   id="midPointStop890" /><a:midPointStop
   offset="0.3483"
   style="stop-color:#F0F0FF"
   id="midPointStop891" /><a:midPointStop
   offset="0.5"
   style="stop-color:#F0F0FF"
   id="midPointStop892" /><a:midPointStop
   offset="1"
   style="stop-color:#8D99A9"
   id="midPointStop893" /></linearGradient><circle
   fill="url(#XMLID_70_)"
   cx="38.3"
   cy="35.8"
   r="1.3"
   id="circle894" /><linearGradient
   id="XMLID_71_"
   gradientUnits="userSpaceOnUse"
   x1="-215.7593"
   y1="486.2637"
   x2="-215.7593"
   y2="485.1761"
   gradientTransform="matrix(1 0 0 -1 253.9795 521)"><stop
   offset="0.1149"
   style="stop-color:#FFFFFF"
   id="stop896" /><stop
   offset="1"
   style="stop-color:#FFFFFF"
   id="stop897" /><a:midPointStop
   offset="0.1149"
   style="stop-color:#FFFFFF"
   id="midPointStop898" /><a:midPointStop
   offset="0.5"
   style="stop-color:#FFFFFF"
   id="midPointStop899" /><a:midPointStop
   offset="1"
   style="stop-color:#FFFFFF"
   id="midPointStop900" /></linearGradient><path
   i:isolated="yes"
   i:knockout="Off"
   fill="url(#XMLID_71_)"
   a:adobe-blending-mode="screen"
   enable-background="new    "
   d="          M38.3,35.8c0.5-0.3,0.9-0.4,1.1-0.4c-0.2-0.3-0.6-0.5-1.1-0.5c-0.6,0-1.2,0.4-1.2,0.9c0,0.1,0,0.2,0,0.2          C37.3,36.1,37.8,36.1,38.3,35.8z"
   id="path901" /><linearGradient
   id="XMLID_72_"
   gradientUnits="userSpaceOnUse"
   x1="-215.7241"
   y1="484.0547"
   x2="-215.7241"
   y2="484.4529"
   gradientTransform="matrix(1 0 0 -1 253.9795 521)"><stop
   offset="0"
   style="stop-color:#9E9EAC"
   id="stop903" /><stop
   offset="1"
   style="stop-color:#42425B"
   id="stop904" /><a:midPointStop
   offset="0"
   style="stop-color:#9E9EAC"
   id="midPointStop905" /><a:midPointStop
   offset="0.5"
   style="stop-color:#9E9EAC"
   id="midPointStop906" /><a:midPointStop
   offset="1"
   style="stop-color:#42425B"
   id="midPointStop907" /></linearGradient><path
   fill="url(#XMLID_72_)"
   d="M36.9,35.8c0,0.6,0.6,1.1,1.4,1.1c0.8,0,1.4-0.5,1.4-1.1c0-0.6-0.6-1.1-1.4-1.1          C37.5,34.8,36.9,35.2,36.9,35.8z M37,35.8c0-0.5,0.6-1,1.2-1c0.7,0,1.2,0.4,1.2,1c0,0.5-0.6,1-1.2,1          C37.6,36.8,37,36.4,37,35.8z"
   id="path908" /><g
   i:knockout="Off"
   id="g909"><rect
   x="37"
   y="35.8"
   fill="#EEEEEE"
   width="2.4"
   height="0.1"
   id="rect910" /><linearGradient
   id="XMLID_73_"
   gradientUnits="userSpaceOnUse"
   x1="-215.7754"
   y1="484.6348"
   x2="-215.7754"
   y2="484.8368"
   gradientTransform="matrix(1 0 0 -1 253.9795 521)"><stop
   offset="0"
   style="stop-color:#9E9EAC"
   id="stop912" /><stop
   offset="1"
   style="stop-color:#42425B"
   id="stop913" /><a:midPointStop
   offset="0"
   style="stop-color:#9E9EAC"
   id="midPointStop914" /><a:midPointStop
   offset="0.5"
   style="stop-color:#9E9EAC"
   id="midPointStop915" /><a:midPointStop
   offset="1"
   style="stop-color:#42425B"
   id="midPointStop916" /></linearGradient><rect
   x="37"
   y="35.7"
   fill="url(#XMLID_73_)"
   width="2.4"
   height="0.1"
   id="rect917" /></g></g></g><g
   i:knockout="Off"
   id="g918"><g
   i:knockout="Off"
   id="g919"><linearGradient
   id="XMLID_74_"
   gradientUnits="userSpaceOnUse"
   x1="-242.0146"
   y1="509.6074"
   x2="-242.0394"
   y2="511.0373"
   gradientTransform="matrix(1 0 0 -1 253.9795 521)"><stop
   offset="0"
   style="stop-color:#FFFFFF"
   id="stop921" /><stop
   offset="0.3483"
   style="stop-color:#F0F0FF"
   id="stop922" /><stop
   offset="1"
   style="stop-color:#8D99A9"
   id="stop923" /><a:midPointStop
   offset="0"
   style="stop-color:#FFFFFF"
   id="midPointStop924" /><a:midPointStop
   offset="0.5"
   style="stop-color:#FFFFFF"
   id="midPointStop925" /><a:midPointStop
   offset="0.3483"
   style="stop-color:#F0F0FF"
   id="midPointStop926" /><a:midPointStop
   offset="0.5"
   style="stop-color:#F0F0FF"
   id="midPointStop927" /><a:midPointStop
   offset="1"
   style="stop-color:#8D99A9"
   id="midPointStop928" /></linearGradient><circle
   fill="url(#XMLID_74_)"
   cx="11.9"
   cy="10.1"
   r="1.1"
   id="circle929" /><linearGradient
   id="XMLID_75_"
   gradientUnits="userSpaceOnUse"
   x1="-242.0669"
   y1="511.833"
   x2="-242.0669"
   y2="510.9136"
   gradientTransform="matrix(1 0 0 -1 253.9795 521)"><stop
   offset="0"
   style="stop-color:#FFFFFF"
   id="stop931" /><stop
   offset="1"
   style="stop-color:#000000"
   id="stop932" /><a:midPointStop
   offset="0"
   style="stop-color:#FFFFFF"
   id="midPointStop933" /><a:midPointStop
   offset="0.5"
   style="stop-color:#FFFFFF"
   id="midPointStop934" /><a:midPointStop
   offset="1"
   style="stop-color:#000000"
   id="midPointStop935" /></linearGradient><path
   i:isolated="yes"
   i:knockout="Off"
   fill="url(#XMLID_75_)"
   a:adobe-blending-mode="screen"
   enable-background="new    "
   d="          M11.9,10.1c0.4-0.2,0.7-0.3,0.9-0.3c-0.1-0.3-0.5-0.5-0.9-0.5c-0.5,0-1,0.3-1,0.8c0,0.1,0,0.1,0,0.2          C11.2,10.3,11.6,10.3,11.9,10.1z"
   id="path936" /><linearGradient
   id="XMLID_76_"
   gradientUnits="userSpaceOnUse"
   x1="-242.0371"
   y1="509.9648"
   x2="-242.0371"
   y2="510.3019"
   gradientTransform="matrix(1 0 0 -1 253.9795 521)"><stop
   offset="0"
   style="stop-color:#9E9EAC"
   id="stop938" /><stop
   offset="1"
   style="stop-color:#42425B"
   id="stop939" /><a:midPointStop
   offset="0"
   style="stop-color:#9E9EAC"
   id="midPointStop940" /><a:midPointStop
   offset="0.5"
   style="stop-color:#9E9EAC"
   id="midPointStop941" /><a:midPointStop
   offset="1"
   style="stop-color:#42425B"
   id="midPointStop942" /></linearGradient><path
   fill="url(#XMLID_76_)"
   d="M10.8,10.1c0,0.5,0.5,0.9,1.1,0.9s1.1-0.4,1.1-0.9s-0.5-0.9-1.1-0.9S10.8,9.6,10.8,10.1z           M10.9,10.1c0-0.5,0.5-0.8,1-0.8s1,0.4,1,0.8s-0.5,0.8-1,0.8C11.4,10.9,10.9,10.5,10.9,10.1z"
   id="path943" /><g
   i:knockout="Off"
   id="g944"><rect
   x="10.9"
   y="10.1"
   fill="#EEEEEE"
   width="2"
   height="0.1"
   id="rect945" /><linearGradient
   id="XMLID_77_"
   gradientUnits="userSpaceOnUse"
   x1="-242.0796"
   y1="510.4561"
   x2="-242.0796"
   y2="510.627"
   gradientTransform="matrix(1 0 0 -1 253.9795 521)"><stop
   offset="0"
   style="stop-color:#9E9EAC"
   id="stop947" /><stop
   offset="1"
   style="stop-color:#42425B"
   id="stop948" /><a:midPointStop
   offset="0"
   style="stop-color:#9E9EAC"
   id="midPointStop949" /><a:midPointStop
   offset="0.5"
   style="stop-color:#9E9EAC"
   id="midPointStop950" /><a:midPointStop
   offset="1"
   style="stop-color:#42425B"
   id="midPointStop951" /></linearGradient><rect
   x="10.9"
   y="10"
   fill="url(#XMLID_77_)"
   width="2"
   height="0.1"
   id="rect952" /></g></g><g
   i:knockout="Off"
   id="g953"><linearGradient
   id="XMLID_78_"
   gradientUnits="userSpaceOnUse"
   x1="-217.8975"
   y1="509.6084"
   x2="-217.9222"
   y2="511.0372"
   gradientTransform="matrix(1 0 0 -1 253.9795 521)"><stop
   offset="0"
   style="stop-color:#FFFFFF"
   id="stop955" /><stop
   offset="0.3483"
   style="stop-color:#F0F0FF"
   id="stop956" /><stop
   offset="1"
   style="stop-color:#8D99A9"
   id="stop957" /><a:midPointStop
   offset="0"
   style="stop-color:#FFFFFF"
   id="midPointStop958" /><a:midPointStop
   offset="0.5"
   style="stop-color:#FFFFFF"
   id="midPointStop959" /><a:midPointStop
   offset="0.3483"
   style="stop-color:#F0F0FF"
   id="midPointStop960" /><a:midPointStop
   offset="0.5"
   style="stop-color:#F0F0FF"
   id="midPointStop961" /><a:midPointStop
   offset="1"
   style="stop-color:#8D99A9"
   id="midPointStop962" /></linearGradient><circle
   fill="url(#XMLID_78_)"
   cx="36.1"
   cy="10.1"
   r="1.1"
   id="circle963" /><linearGradient
   id="XMLID_79_"
   gradientUnits="userSpaceOnUse"
   x1="-217.9492"
   y1="511.833"
   x2="-217.9492"
   y2="510.9136"
   gradientTransform="matrix(1 0 0 -1 253.9795 521)"><stop
   offset="2.298850e-002"
   style="stop-color:#FFFFFF"
   id="stop965" /><stop
   offset="1"
   style="stop-color:#FFFFFF"
   id="stop966" /><a:midPointStop
   offset="2.298850e-002"
   style="stop-color:#FFFFFF"
   id="midPointStop967" /><a:midPointStop
   offset="0.5"
   style="stop-color:#FFFFFF"
   id="midPointStop968" /><a:midPointStop
   offset="1"
   style="stop-color:#FFFFFF"
   id="midPointStop969" /></linearGradient><path
   i:isolated="yes"
   i:knockout="Off"
   fill="url(#XMLID_79_)"
   a:adobe-blending-mode="screen"
   enable-background="new    "
   d="          M36.1,10.1c0.4-0.2,0.7-0.3,0.9-0.3c-0.2-0.3-0.5-0.5-0.9-0.5c-0.5,0-1,0.3-1,0.8c0,0.1,0,0.1,0,0.2          C35.3,10.3,35.7,10.3,36.1,10.1z"
   id="path970" /><linearGradient
   id="XMLID_80_"
   gradientUnits="userSpaceOnUse"
   x1="-217.9199"
   y1="509.9648"
   x2="-217.9199"
   y2="510.3019"
   gradientTransform="matrix(1 0 0 -1 253.9795 521)"><stop
   offset="0"
   style="stop-color:#9E9EAC"
   id="stop972" /><stop
   offset="1"
   style="stop-color:#42425B"
   id="stop973" /><a:midPointStop
   offset="0"
   style="stop-color:#9E9EAC"
   id="midPointStop974" /><a:midPointStop
   offset="0.5"
   style="stop-color:#9E9EAC"
   id="midPointStop975" /><a:midPointStop
   offset="1"
   style="stop-color:#42425B"
   id="midPointStop976" /></linearGradient><path
   fill="url(#XMLID_80_)"
   d="M34.9,10.1c0,0.5,0.5,0.9,1.1,0.9c0.6,0,1.1-0.4,1.1-0.9s-0.5-0.9-1.1-0.9          C35.4,9.2,34.9,9.6,34.9,10.1z M35,10.1c0-0.5,0.5-0.8,1-0.8c0.6,0,1,0.4,1,0.8s-0.5,0.8-1,0.8C35.5,10.9,35,10.5,35,10.1z"
   id="path977" /><g
   i:knockout="Off"
   id="g978"><rect
   x="35"
   y="10.1"
   fill="#EEEEEE"
   width="2"
   height="0.1"
   id="rect979" /><linearGradient
   id="XMLID_81_"
   gradientUnits="userSpaceOnUse"
   x1="-217.9619"
   y1="510.4561"
   x2="-217.9619"
   y2="510.627"
   gradientTransform="matrix(1 0 0 -1 253.9795 521)"><stop
   offset="0"
   style="stop-color:#9E9EAC"
   id="stop981" /><stop
   offset="1"
   style="stop-color:#42425B"
   id="stop982" /><a:midPointStop
   offset="0"
   style="stop-color:#9E9EAC"
   id="midPointStop983" /><a:midPointStop
   offset="0.5"
   style="stop-color:#9E9EAC"
   id="midPointStop984" /><a:midPointStop
   offset="1"
   style="stop-color:#42425B"
   id="midPointStop985" /></linearGradient><rect
   x="35"
   y="10"
   fill="url(#XMLID_81_)"
   width="2"
   height="0.1"
   id="rect986" /></g></g></g></g><path
   i:isolated="yes"
   i:knockout="Off"
   opacity="0.15"
   enable-background="new    "
   d="M39,20.8c-0.4-0.5-1.2-0.8-2.1-0.8       c0,0-3.2,0-4.2,0c0-0.6,0-5.3,0-5.3c0-0.7-1-1.3-2.3-1.3H17.6c-1.3,0-2.3,0.6-2.3,1.3c0,0,0,4.6,0,5.3c-1,0-4.2,0-4.2,0       c-0.9,0-1.8,0.3-2.1,0.8C9,21,8.9,21.2,8.9,21.3c0,0.3,0.2,0.7,0.7,0.9l12.8,7.2c0.9,0.5,2.3,0.5,3.2,0l12.8-7.2       C39.1,21.9,39.3,21.3,39,20.8z"
   id="path987" /><linearGradient
   id="XMLID_82_"
   gradientUnits="userSpaceOnUse"
   x1="-229.9575"
   y1="490.0439"
   x2="-229.9575"
   y2="514.572"
   gradientTransform="matrix(1 0 0 -1 253.9795 521)"><stop
   offset="1.120000e-002"
   style="stop-color:#009500"
   id="stop989" /><stop
   offset="0.2978"
   style="stop-color:#009000"
   id="stop990" /><stop
   offset="1"
   style="stop-color:#005B00"
   id="stop991" /><a:midPointStop
   offset="1.120000e-002"
   style="stop-color:#009500"
   id="midPointStop992" /><a:midPointStop
   offset="0.5"
   style="stop-color:#009500"
   id="midPointStop993" /><a:midPointStop
   offset="0.2978"
   style="stop-color:#009000"
   id="midPointStop994" /><a:midPointStop
   offset="0.5"
   style="stop-color:#009000"
   id="midPointStop995" /><a:midPointStop
   offset="1"
   style="stop-color:#005B00"
   id="midPointStop996" /></linearGradient><path
   fill="url(#XMLID_82_)"
   d="M17.6,0c-1.3,0-2.3,1-2.3,2.3c0,0,0,8.2,0,9.4c-1,0-4.2,0-4.2,0c-0.9,0-1.8,0.6-2.1,1.4       C9,13.4,8.9,13.7,8.9,14c0,0.6,0.2,1.2,0.7,1.6l12.8,12.8c0.9,0.9,2.3,0.9,3.2,0l12.8-12.8c0.7-0.7,0.9-1.6,0.5-2.5v0       c-0.4-0.9-1.2-1.4-2.1-1.4c0,0-3.2,0-4.2,0c0-1.2,0-9.4,0-9.4c0-1.3-1-2.3-2.3-2.3H17.6z M23.3,27.5L10.5,14.6       c-0.2-0.2-0.3-0.4-0.3-0.7c0-0.1,0-0.3,0.1-0.4c0.1-0.4,0.5-0.6,0.9-0.6h5.5V2.3c0-0.5,0.4-1,1-1h12.7c0.5,0,1,0.4,1,1V13h5.5       c0.4,0,0.7,0.2,0.9,0.6c0.1,0.1,0.1,0.2,0.1,0.4c0,0.3-0.1,0.5-0.3,0.7L24.7,27.5C24.3,27.8,23.7,27.8,23.3,27.5z"
   id="path997" /><linearGradient
   id="XMLID_83_"
   gradientUnits="userSpaceOnUse"
   x1="-244.4121"
   y1="506.4658"
   x2="-215.6277"
   y2="506.4658"
   gradientTransform="matrix(1 0 0 -1 253.9795 521)"><stop
   offset="0"
   style="stop-color:#FFFFFF"
   id="stop999" /><stop
   offset="0.4045"
   style="stop-color:#00CD00"
   id="stop1000" /><stop
   offset="1"
   style="stop-color:#006F00"
   id="stop1001" /><a:midPointStop
   offset="0"
   style="stop-color:#FFFFFF"
   id="midPointStop1002" /><a:midPointStop
   offset="0.5"
   style="stop-color:#FFFFFF"
   id="midPointStop1003" /><a:midPointStop
   offset="0.4045"
   style="stop-color:#00CD00"
   id="midPointStop1004" /><a:midPointStop
   offset="0.5"
   style="stop-color:#00CD00"
   id="midPointStop1005" /><a:midPointStop
   offset="1"
   style="stop-color:#006F00"
   id="midPointStop1006" /></linearGradient><path
   fill="url(#XMLID_83_)"
   d="M38.4,13.3c-0.3-0.6-0.8-1-1.5-1c0,0-3,0-4.8,0c0-2.4,0-10,0-10c0-0.9-0.7-1.6-1.6-1.6H17.6       c-0.9,0-1.6,0.7-1.6,1.6c0,0,0,7.6,0,10c-1.8,0-4.8,0-4.8,0c-0.7,0-1.3,0.4-1.5,1c-0.1,0.2-0.1,0.4-0.1,0.6       c0,0.4,0.2,0.8,0.5,1.1l12.8,12.8c0.6,0.6,1.7,0.6,2.3,0L38,15.1C38.5,14.6,38.6,13.9,38.4,13.3z"
   id="path1007" /><linearGradient
   id="XMLID_84_"
   gradientUnits="userSpaceOnUse"
   x1="-230.2363"
   y1="518.0762"
   x2="-230.2363"
   y2="501.8058"
   gradientTransform="matrix(1 0 0 -1 253.9795 521)"><stop
   offset="5.747130e-002"
   style="stop-color:#FFFFFF"
   id="stop1009" /><stop
   offset="1"
   style="stop-color:#FFFFFF"
   id="stop1010" /><a:midPointStop
   offset="5.747130e-002"
   style="stop-color:#FFFFFF"
   id="midPointStop1011" /><a:midPointStop
   offset="0.5"
   style="stop-color:#FFFFFF"
   id="midPointStop1012" /><a:midPointStop
   offset="1"
   style="stop-color:#FFFFFF"
   id="midPointStop1013" /></linearGradient><path
   i:isolated="yes"
   i:knockout="Off"
   opacity="0.6"
   fill="url(#XMLID_84_)"
   a:adobe-blending-mode="screen"
   enable-background="new    "
   d="       M31.3,12.6c0-2.2,0-9.8,0-9.8c0-0.8-0.7-1.5-1.5-1.5H18.1c-0.8,0-1.5,0.7-1.5,1.5c0,0,0,7.6,0,9.8c-1.7,0-4.4,0-4.4,0       c-0.6,0-1.1,0.4-1.4,0.9c0,0.1,0,0.1-0.1,0.2c3.1,2.1,7.5,3.5,12.4,3.5c5.5,0,10.4-1.7,13.5-4.3c-0.3-0.2-0.6-0.3-0.9-0.3       C35.8,12.6,33,12.6,31.3,12.6z"
   id="path1014" /></g><rect
   opacity="0.75"
   fill="none"
   width="48"
   height="48"
   id="rect1015" /></g></g></svg>
