<?xml version="1.0" encoding="UTF-8" standalone="no"?>
<!-- Created with Sodipodi ("http://www.sodipodi.com/") -->

<svg
   xmlns:a="http://ns.adobe.com/AdobeSVGViewerExtensions/3.0/"
   xmlns:i="http://ns.adobe.com/AdobeIllustrator/10.0/"
   xmlns:dc="http://purl.org/dc/elements/1.1/"
   xmlns:cc="http://creativecommons.org/ns#"
   xmlns:rdf="http://www.w3.org/1999/02/22-rdf-syntax-ns#"
   xmlns:svg="http://www.w3.org/2000/svg"
   xmlns="http://www.w3.org/2000/svg"
   xmlns:sodipodi="http://sodipodi.sourceforge.net/DTD/sodipodi-0.dtd"
   xmlns:inkscape="http://www.inkscape.org/namespaces/inkscape"
   xml:space="preserve"
   i:viewOrigin="-37.5 595.5"
   i:rulerOrigin="0 0"
   i:pageBounds="0 792 612 0"
   width="688"
   height="400"
   viewBox="0 0 688 400"
   overflow="visible"
   enable-background="new 0 0 688 400"
   id="svg602"
   sodipodi:version="0.34"
   sodipodi:docname="splash_screen.svg"
   version="1.1"
   inkscape:version="0.48.3.1 r9886"><metadata
     id="metadata215"><rdf:RDF><cc:Work
         rdf:about=""><dc:format>image/svg+xml</dc:format><dc:type
           rdf:resource="http://purl.org/dc/dcmitype/StillImage" /></cc:Work></rdf:RDF></metadata><defs
     id="defs951" /><sodipodi:namedview
     id="base"
     showgrid="false"
     inkscape:zoom="1.002907"
     inkscape:cx="309.54151"
     inkscape:cy="223.00333"
     inkscape:window-width="1600"
     inkscape:window-height="838"
     inkscape:window-x="0"
     inkscape:window-y="31"
     inkscape:window-maximized="0"
     inkscape:current-layer="g1038" /><g
     id="g1038"
     i:knockout="Off"
     i:layer="yes"
     i:dimmedPercent="50"
     i:rgbTrio="#4F008000FFFF"><rect
       id="rect581"
       i:isolated="yes"
       i:knockout="Off"
       opacity="0.5"
       fill="#818181"
       enable-background="new    "
       width="688"
       height="400" /><linearGradient
       id="rect588_1_"
       gradientUnits="userSpaceOnUse"
       x1="603"
       y1="220.9502"
       x2="603"
       y2="99.9502"
       gradientTransform="matrix(1 0 0 -1 -259 494.9492)"><stop
         offset="0"
         style="stop-color:#FFFFFF"
         id="stop608" /><stop
         offset="1"
         style="stop-color:#E7E7E7"
         id="stop609" /><a:midPointStop
         offset="0"
         style="stop-color:#FFFFFF"
         id="midPointStop610" /><a:midPointStop
         offset="0.5"
         style="stop-color:#FFFFFF"
         id="midPointStop611" /><a:midPointStop
         offset="1"
         style="stop-color:#E7E7E7"
         id="midPointStop612" /></linearGradient><rect
       id="rect588"
       x="5"
       y="5"
       width="678"
       height="390"
       fill="url(#rect588_1_)" /><linearGradient
       id="rect648_1_"
       gradientUnits="userSpaceOnUse"
       x1="568.5"
       y1="5"
       x2="568.5"
       y2="119"
       gradientTransform="matrix(1 0 0 1 -225 0)"><stop
         offset="0"
         style="stop-color:#CDCDFF"
         id="stop615" /><stop
         offset="0.1912"
         style="stop-color:#B9B9F2"
         id="stop616" /><stop
         offset="0.5"
         style="stop-color:#9090D7"
         id="stop617" /><stop
         offset="0.6765"
         style="stop-color:#9393DA"
         id="stop618" /><stop
         offset="0.8161"
         style="stop-color:#9D9DE4"
         id="stop619" /><stop
         offset="0.9426"
         style="stop-color:#AEAEF5"
         id="stop620" /><stop
         offset="1"
         style="stop-color:#B8B8FF"
         id="stop621" /><a:midPointStop
         offset="0"
         style="stop-color:#CDCDFF"
         id="midPointStop622" /><a:midPointStop
         offset="0.5"
         style="stop-color:#CDCDFF"
         id="midPointStop623" /><a:midPointStop
         offset="0.1912"
         style="stop-color:#B9B9F2"
         id="midPointStop624" /><a:midPointStop
         offset="0.5"
         style="stop-color:#B9B9F2"
         id="midPointStop625" /><a:midPointStop
         offset="0.5"
         style="stop-color:#9090D7"
         id="midPointStop626" /><a:midPointStop
         offset="0.5"
         style="stop-color:#9090D7"
         id="midPointStop627" /><a:midPointStop
         offset="0.6765"
         style="stop-color:#9393DA"
         id="midPointStop628" /><a:midPointStop
         offset="0.5"
         style="stop-color:#9393DA"
         id="midPointStop629" /><a:midPointStop
         offset="0.8161"
         style="stop-color:#9D9DE4"
         id="midPointStop630" /><a:midPointStop
         offset="0.5"
         style="stop-color:#9D9DE4"
         id="midPointStop631" /><a:midPointStop
         offset="0.9426"
         style="stop-color:#AEAEF5"
         id="midPointStop632" /><a:midPointStop
         offset="0.5"
         style="stop-color:#AEAEF5"
         id="midPointStop633" /><a:midPointStop
         offset="1"
         style="stop-color:#B8B8FF"
         id="midPointStop634" /></linearGradient><rect
       id="rect648_2_"
       x="4"
       y="4"
       i:isolated="yes"
       i:knockout="Off"
       opacity="0.6"
       fill="url(#rect648_1_)"
       a:adobe-blending-mode="multiply"
       enable-background="new    "
       width="679"
       height="115" /><g
       id="g604"
       i:knockout="Off"><ellipse
         id="circle580_1_"
         i:isolated="yes"
         i:knockout="Off"
         opacity="0.4"
         fill="#BDBDBD"
         enable-background="new    "
         cx="191.4"
         cy="350.7"
         rx="139.2"
         ry="31.4" /><ellipse
         id="circle581_1_"
         i:isolated="yes"
         i:knockout="Off"
         opacity="7.000000e-002"
         fill="#D4D4D4"
         enable-background="new    "
         cx="191.4"
         cy="350.7"
         rx="139.2"
         ry="31.4" /><linearGradient
         id="circle615_2_"
         gradientUnits="userSpaceOnUse"
         x1="222.1382"
         y1="485.8887"
         x2="436.735"
         y2="664.7195"
         gradientTransform="matrix(1.4917 -1.470000e-002 -2.300000e-003 -0.6704 -267.9108 729.4778)"><stop
           offset="5.600000e-003"
           style="stop-color:#FF0000"
           id="stop640" /><stop
           offset="2.690000e-002"
           style="stop-color:#FF1003"
           id="stop641" /><stop
           offset="9.830000e-002"
           style="stop-color:#FF420B"
           id="stop642" /><stop
           offset="0.1753"
           style="stop-color:#FF6F13"
           id="stop643" /><stop
           offset="0.2561"
           style="stop-color:#FF9619"
           id="stop644" /><stop
           offset="0.3415"
           style="stop-color:#FFB61F"
           id="stop645" /><stop
           offset="0.433"
           style="stop-color:#FFD123"
           id="stop646" /><stop
           offset="0.5327"
           style="stop-color:#FFE527"
           id="stop647" /><stop
           offset="0.6449"
           style="stop-color:#FFF429"
           id="stop648" /><stop
           offset="0.78"
           style="stop-color:#FFFC2B"
           id="stop649" /><stop
           offset="1"
           style="stop-color:#FFFF2B"
           id="stop650" /><a:midPointStop
           offset="5.600000e-003"
           style="stop-color:#FF0000"
           id="midPointStop651" /><a:midPointStop
           offset="0.5"
           style="stop-color:#FF0000"
           id="midPointStop652" /><a:midPointStop
           offset="2.690000e-002"
           style="stop-color:#FF1003"
           id="midPointStop653" /><a:midPointStop
           offset="0.5"
           style="stop-color:#FF1003"
           id="midPointStop654" /><a:midPointStop
           offset="9.830000e-002"
           style="stop-color:#FF420B"
           id="midPointStop655" /><a:midPointStop
           offset="0.5"
           style="stop-color:#FF420B"
           id="midPointStop656" /><a:midPointStop
           offset="0.1753"
           style="stop-color:#FF6F13"
           id="midPointStop657" /><a:midPointStop
           offset="0.5"
           style="stop-color:#FF6F13"
           id="midPointStop658" /><a:midPointStop
           offset="0.2561"
           style="stop-color:#FF9619"
           id="midPointStop659" /><a:midPointStop
           offset="0.5"
           style="stop-color:#FF9619"
           id="midPointStop660" /><a:midPointStop
           offset="0.3415"
           style="stop-color:#FFB61F"
           id="midPointStop661" /><a:midPointStop
           offset="0.5"
           style="stop-color:#FFB61F"
           id="midPointStop662" /><a:midPointStop
           offset="0.433"
           style="stop-color:#FFD123"
           id="midPointStop663" /><a:midPointStop
           offset="0.5"
           style="stop-color:#FFD123"
           id="midPointStop664" /><a:midPointStop
           offset="0.5327"
           style="stop-color:#FFE527"
           id="midPointStop665" /><a:midPointStop
           offset="0.5"
           style="stop-color:#FFE527"
           id="midPointStop666" /><a:midPointStop
           offset="0.6449"
           style="stop-color:#FFF429"
           id="midPointStop667" /><a:midPointStop
           offset="0.5"
           style="stop-color:#FFF429"
           id="midPointStop668" /><a:midPointStop
           offset="0.78"
           style="stop-color:#FFFC2B"
           id="midPointStop669" /><a:midPointStop
           offset="0.5"
           style="stop-color:#FFFC2B"
           id="midPointStop670" /><a:midPointStop
           offset="1"
           style="stop-color:#FFFF2B"
           id="midPointStop671" /></linearGradient><ellipse
         id="circle615_1_"
         fill="url(#circle615_2_)"
         cx="191.4"
         cy="350.8"
         rx="129.1"
         ry="29.1" /><linearGradient
         id="circle622_2_"
         gradientUnits="userSpaceOnUse"
         x1="308.9956"
         y1="594.3447"
         x2="308.5452"
         y2="521.8207"
         gradientTransform="matrix(1.4917 -1.470000e-002 -2.300000e-003 -0.6704 -267.9108 729.4778)"><stop
           offset="0"
           style="stop-color:#FFFFFF"
           id="stop674" /><stop
           offset="1"
           style="stop-color:#A9A9B8"
           id="stop675" /><a:midPointStop
           offset="0"
           style="stop-color:#FFFFFF"
           id="midPointStop676" /><a:midPointStop
           offset="0.5"
           style="stop-color:#FFFFFF"
           id="midPointStop677" /><a:midPointStop
           offset="1"
           style="stop-color:#A9A9B8"
           id="midPointStop678" /></linearGradient><ellipse
         id="circle622_1_"
         fill="url(#circle622_2_)"
         cx="191.4"
         cy="350.8"
         rx="107.6"
         ry="24.3" /><g
         id="g1015_2_"
         i:knockout="Off"
         opacity="0.8"><g
           id="g1016_1_"
           i:knockout="Off"><path
             id="path1017_2_"
             fill="#FFFFFF"
             d="M307.9,337.6c-30.9-14.4-108-20.1-172.3-12.9c-23.1,2.6-41.4,6.5-53.9,11.2        c12.3-4,29.1-7.4,49.9-9.8c64.3-7.3,141.4-1.5,172.3,12.9c19.8,9.2,15.8,19.7-6.5,28C323.2,358.5,328.8,347.3,307.9,337.6z" /></g></g><radialGradient
         id="circle581_2_"
         cx="422.002"
         cy="576.125"
         r="228.0174"
         fx="461.3156"
         fy="800.7276"
         gradientTransform="matrix(1 0 0 0.3383 -225 152.6762)"
         gradientUnits="userSpaceOnUse"><stop
           offset="0"
           style="stop-color:#DCDCDC"
           id="stop684" /><stop
           offset="1"
           style="stop-color:#FFFFFF"
           id="stop685" /><a:midPointStop
           offset="0"
           style="stop-color:#DCDCDC"
           id="midPointStop686" /><a:midPointStop
           offset="0.5"
           style="stop-color:#DCDCDC"
           id="midPointStop687" /><a:midPointStop
           offset="1"
           style="stop-color:#FFFFFF"
           id="midPointStop688" /></radialGradient><ellipse
         id="circle581_3_"
         i:isolated="yes"
         i:knockout="Off"
         opacity="0.79"
         fill="url(#circle581_2_)"
         enable-background="new    "
         cx="193.4"
         cy="350.7"
         rx="139.2"
         ry="31.4" /></g><rect
       id="rect648"
       x="5"
       y="280"
       i:isolated="yes"
       i:knockout="Off"
       a:adobe-blending-mode="multiply"
       enable-background="new    "
       width="678"
       height="115"
       fill="#FFFFFF"
       opacity="0.1" /><circle
       id="circle580"
       i:isolated="yes"
       i:knockout="Off"
       opacity="0.4"
       fill="#BDBDBD"
       enable-background="new    "
       cx="184.5"
       cy="180.5"
       r="138.6" /><circle
       id="circle581"
       fill="#EBEBEB"
       stroke="#FFFFFF"
       stroke-width="4"
       stroke-miterlimit="2"
       cx="184.5"
       cy="180.5"
       r="138.6" /><linearGradient
       id="circle615_3_"
       gradientUnits="userSpaceOnUse"
       x1="409.5"
       y1="-15.3984"
       x2="409.5"
       y2="517.0745"
       gradientTransform="matrix(1 0 0 1 -225 0)"><stop
         offset="5.600000e-003"
         style="stop-color:#FF0000"
         id="stop694" /><stop
         offset="2.690000e-002"
         style="stop-color:#FF1003"
         id="stop695" /><stop
         offset="9.830000e-002"
         style="stop-color:#FF420B"
         id="stop696" /><stop
         offset="0.1753"
         style="stop-color:#FF6F13"
         id="stop697" /><stop
         offset="0.2561"
         style="stop-color:#FF9619"
         id="stop698" /><stop
         offset="0.3415"
         style="stop-color:#FFB61F"
         id="stop699" /><stop
         offset="0.433"
         style="stop-color:#FFD123"
         id="stop700" /><stop
         offset="0.5327"
         style="stop-color:#FFE527"
         id="stop701" /><stop
         offset="0.6449"
         style="stop-color:#FFF429"
         id="stop702" /><stop
         offset="0.78"
         style="stop-color:#FFFC2B"
         id="stop703" /><stop
         offset="1"
         style="stop-color:#FFFF2B"
         id="stop704" /><a:midPointStop
         offset="5.600000e-003"
         style="stop-color:#FF0000"
         id="midPointStop705" /><a:midPointStop
         offset="0.5"
         style="stop-color:#FF0000"
         id="midPointStop706" /><a:midPointStop
         offset="2.690000e-002"
         style="stop-color:#FF1003"
         id="midPointStop707" /><a:midPointStop
         offset="0.5"
         style="stop-color:#FF1003"
         id="midPointStop708" /><a:midPointStop
         offset="9.830000e-002"
         style="stop-color:#FF420B"
         id="midPointStop709" /><a:midPointStop
         offset="0.5"
         style="stop-color:#FF420B"
         id="midPointStop710" /><a:midPointStop
         offset="0.1753"
         style="stop-color:#FF6F13"
         id="midPointStop711" /><a:midPointStop
         offset="0.5"
         style="stop-color:#FF6F13"
         id="midPointStop712" /><a:midPointStop
         offset="0.2561"
         style="stop-color:#FF9619"
         id="midPointStop713" /><a:midPointStop
         offset="0.5"
         style="stop-color:#FF9619"
         id="midPointStop714" /><a:midPointStop
         offset="0.3415"
         style="stop-color:#FFB61F"
         id="midPointStop715" /><a:midPointStop
         offset="0.5"
         style="stop-color:#FFB61F"
         id="midPointStop716" /><a:midPointStop
         offset="0.433"
         style="stop-color:#FFD123"
         id="midPointStop717" /><a:midPointStop
         offset="0.5"
         style="stop-color:#FFD123"
         id="midPointStop718" /><a:midPointStop
         offset="0.5327"
         style="stop-color:#FFE527"
         id="midPointStop719" /><a:midPointStop
         offset="0.5"
         style="stop-color:#FFE527"
         id="midPointStop720" /><a:midPointStop
         offset="0.6449"
         style="stop-color:#FFF429"
         id="midPointStop721" /><a:midPointStop
         offset="0.5"
         style="stop-color:#FFF429"
         id="midPointStop722" /><a:midPointStop
         offset="0.78"
         style="stop-color:#FFFC2B"
         id="midPointStop723" /><a:midPointStop
         offset="0.5"
         style="stop-color:#FFFC2B"
         id="midPointStop724" /><a:midPointStop
         offset="1"
         style="stop-color:#FFFF2B"
         id="midPointStop725" /></linearGradient><circle
       id="circle615"
       fill="url(#circle615_3_)"
       cx="184.5"
       cy="179.9"
       r="128.5" /><linearGradient
       id="circle622_3_"
       gradientUnits="userSpaceOnUse"
       x1="357.665"
       y1="409.5488"
       x2="356.3346"
       y2="195.3528"
       gradientTransform="matrix(1 0 0 1 -172.5 -122.5508)"><stop
         offset="0"
         style="stop-color:#FFFFFF"
         id="stop728" /><stop
         offset="0.4224"
         style="stop-color:#E6E6EA"
         id="stop729" /><stop
         offset="1"
         style="stop-color:#BDBDC7"
         id="stop730" /><a:midPointStop
         offset="0"
         style="stop-color:#FFFFFF"
         id="midPointStop731" /><a:midPointStop
         offset="0.5"
         style="stop-color:#FFFFFF"
         id="midPointStop732" /><a:midPointStop
         offset="0.4224"
         style="stop-color:#E6E6EA"
         id="midPointStop733" /><a:midPointStop
         offset="0.5"
         style="stop-color:#E6E6EA"
         id="midPointStop734" /><a:midPointStop
         offset="1"
         style="stop-color:#BDBDC7"
         id="midPointStop735" /></linearGradient><circle
       id="circle622"
       fill="url(#circle622_3_)"
       cx="184.5"
       cy="179.9"
       r="107.1" /><g
       id="g1015"
       i:knockout="Off"
       opacity="0.8"><g
         id="g1016"
         i:knockout="Off"><path
           id="path1017"
           fill="#FFFFFF"
           d="M289.8,106.5c22.3,36,26.3,82.2,6.7,123.2c-30.6,64-107.4,91.1-171.4,60.5       c-20.6-9.9-37.4-24.6-49.7-42c12.5,20.2,30.7,37.2,53.8,48.2c64,30.6,140.8,3.6,171.4-60.5       C321.3,192.5,315.6,143.3,289.8,106.5z" /></g></g><g
       id="g1099"
       i:knockout="Off"><path
         id="path1100"
         fill="#FFFFFF"
         d="M386.5,79.1h-11.8l-2.2-40.9l-6.3,35.2c-0.3,1.9-1.1,3.5-2.2,4.6c-1.1,1.2-2.5,1.8-4,1.8      s-2.9-0.6-4-1.7s-1.8-2.7-2.2-4.7l-6.2-34.1l-2.2,39.8h-11.9l4-40.1c0.4-3.9,1.2-6.6,2.4-8.1c1.4-1.8,3.9-2.7,7.4-2.7      c5.1,0,8.1,3,9,9.1l3.6,24.2h0.4l3.7-24.2c0.9-6.1,3.9-9.1,9-9.1c3.6,0,6,0.9,7.4,2.7c1.2,1.5,2,4.2,2.4,8.2L386.5,79.1z" /><path
         id="path1101"
         fill="#FFFFFF"
         d="M418.8,79.1h-9.5c-6.1,0-10.6-1.3-13.5-3.8c-2.9-2.5-4.3-6.6-4.3-12.3V29h12.4v32.9      c0,2,0.4,3.4,1.3,4.1c0.9,0.7,2.6,1.1,5.1,1.1h8.5V79.1L418.8,79.1z" /><path
         id="path1102"
         fill="#FFFFFF"
         d="M464.2,54.6c0,7.1-2.4,13-7.2,17.6c-4.8,4.6-10.8,6.9-18,6.9v-12c3.5,0,6.4-1.2,8.8-3.7      c2.4-2.5,3.6-5.4,3.6-8.8c0-4.5-1.5-8-4.5-10.4c-2.7-2.2-6.3-3.2-10.8-3.2v38.1h-12.4V29h12.6c8.7,0,15.6,2.5,20.7,7.5      C461.8,41.2,464.2,47.2,464.2,54.6z" /><path
         fill="#FFFFFF"
         d="M505.1,61.7c0,5-1.8,9.3-5.4,12.8c-3.6,3.6-7.8,5.4-12.6,5.4c-4.8,0-9-1.8-12.5-5.4      c-3.6-3.6-5.4-7.8-5.4-12.8s1.8-9.3,5.3-12.8c3.5-3.6,7.7-5.4,12.6-5.4c4.8,0,9,1.8,12.6,5.4C503.3,52.5,505.1,56.7,505.1,61.7z       M494,61.7c0-2.1-0.7-3.8-2-5.2s-2.9-2.1-4.9-2.1s-3.6,0.7-4.9,2.1s-2,3.1-2,5.2c0,2,0.6,3.7,1.9,5.2c1.3,1.4,2.9,2.1,4.9,2.1      s3.7-0.7,4.9-2.1C493.1,65.5,494,63.7,494,61.7z"
         id="path744" /><path
         id="path1104"
         fill="#FFFFFF"
         d="M540,79.1h-11V59.2c0-1.5-0.3-2.7-1-3.6s-1.7-1.3-2.9-1.3c-2.6,0-3.9,1.6-3.9,4.8V79h-11      V59.2c0-4.7,1.3-8.4,3.9-11.4c2.6-2.9,6.3-4.4,11-4.4c4.8,0,8.5,1.5,11.2,4.5c2.5,2.8,3.8,6.6,3.8,11.3L540,79.1L540,79.1z" /><path
         id="path1105"
         fill="#FFFFFF"
         d="M576.9,44.4l-3.2,9.1c-0.5,1.3-1,2.4-1.7,3.3c-0.9,1.1-1.8,1.8-2.8,2.1      c2.9,1.1,4.9,2.5,6,4.3c0.9,1.5,1.4,3.7,1.4,6.7v9.3h-11v-9c0-1.6-0.4-2.8-1.2-3.6c-0.8-0.8-1.9-1.2-3.3-1.2h-3.7v13.8H546V29      h11.5v25.9c1.8,0,3.1-0.6,4-1.7c0.8-1.1,2.1-4.1,3.7-8.7h11.7V44.4z" /><path
         id="path1106"
         fill="#FFFFFF"
         d="M617.9,66.3c-1.7,4-4.3,7.3-7.8,9.8s-7.3,3.8-11.5,3.8c-4.8,0-9-1.8-12.6-5.4      s-5.4-7.8-5.4-12.8s1.8-9.3,5.3-12.8c3.5-3.6,7.7-5.4,12.6-5.4c3.8,0,7.1,1,9.9,2.9c2.8,1.9,5.2,4.7,7.1,8.3l-17.3,11.7      l-4.5-6.8l9.5-6.1c-0.8-0.5-1.5-0.8-2.2-1s-1.5-0.2-2.2-0.2c-2.2,0-4,0.9-5.3,2.7s-2,3.9-2,6.2c0,2.2,0.7,4.3,2.2,6.1      c1.4,1.8,3.3,2.7,5.5,2.7c2.1,0,4.1-0.8,6-2.3c1.9-1.5,3.3-3.4,4.3-5.5L617.9,66.3z" /><path
         id="path1107"
         fill="#FFFFFF"
         d="M651.7,66.7c0,3.3-0.8,6-2.4,8.2c-1.6,2.1-3.9,3.7-6.7,4.6v14.7h-11.5V79.4      c-3.2-1-5.6-2.5-7.1-4.7c-1.5-2.2-2.3-4.9-2.3-8.1V44.4h11v20.1c0,1.4,0.2,2.5,0.7,3.3c0.7,1.1,1.8,1.6,3.4,1.6      c1.5,0,2.6-0.5,3.1-1.4s0.8-2.2,0.8-4V44.4h11V66.7L651.7,66.7z" /></g><g
       id="g1108"
       i:knockout="Off"
       opacity="0.8"><path
         id="path1109"
         fill="#9D9D9D"
         d="M384.5,77.1h-11.8l-2.2-40.9l-6.3,35.2c-0.3,1.9-1.1,3.5-2.2,4.6c-1.1,1.2-2.5,1.8-4,1.8      s-2.9-0.6-4-1.7s-1.8-2.7-2.2-4.7l-6.2-34.1l-2.2,39.8h-11.9l4-40.1c0.4-3.9,1.2-6.6,2.4-8.1c1.4-1.8,3.9-2.7,7.4-2.7      c5.1,0,8.1,3,9,9.1l3.6,24.2h0.4l3.7-24.2c0.9-6.1,3.9-9.1,9-9.1c3.6,0,6,0.9,7.4,2.7c1.2,1.5,2,4.2,2.4,8.2L384.5,77.1z" /><path
         id="path1110"
         fill="#9D9D9D"
         d="M416.8,77.1h-9.5c-6.1,0-10.6-1.3-13.5-3.8c-2.9-2.5-4.3-6.6-4.3-12.3V27h12.4v32.9      c0,2,0.4,3.4,1.3,4.1c0.9,0.7,2.6,1.1,5.1,1.1h8.5V77.1L416.8,77.1z" /><path
         id="path1111"
         fill="#9D9D9D"
         d="M462.2,52.6c0,7.1-2.4,13-7.2,17.6c-4.8,4.6-10.8,6.9-18,6.9v-12c3.5,0,6.4-1.2,8.8-3.7      c2.4-2.5,3.6-5.4,3.6-8.8c0-4.5-1.5-8-4.5-10.4c-2.7-2.2-6.3-3.2-10.8-3.2v38.1h-12.4V27h12.6c8.7,0,15.6,2.5,20.7,7.5      C459.8,39.2,462.2,45.2,462.2,52.6z" /><path
         fill="#9D9D9D"
         d="M503.1,59.7c0,5-1.8,9.3-5.4,12.8c-3.6,3.6-7.8,5.4-12.6,5.4c-4.8,0-9-1.8-12.5-5.4      c-3.6-3.6-5.4-7.8-5.4-12.8s1.8-9.3,5.3-12.8c3.5-3.6,7.7-5.4,12.6-5.4c4.8,0,9,1.8,12.6,5.4C501.3,50.5,503.1,54.7,503.1,59.7z       M492,59.7c0-2.1-0.7-3.8-2-5.2s-2.9-2.1-4.9-2.1s-3.6,0.7-4.9,2.1s-2,3.1-2,5.2c0,2,0.6,3.7,1.9,5.2c1.3,1.4,2.9,2.1,4.9,2.1      s3.7-0.7,4.9-2.1C491.1,63.5,492,61.7,492,59.7z"
         id="path753" /><path
         id="path1113"
         fill="#9D9D9D"
         d="M538,77.1h-11V57.2c0-1.5-0.3-2.7-1-3.6s-1.7-1.3-2.9-1.3c-2.6,0-3.9,1.6-3.9,4.8V77h-11      V57.2c0-4.7,1.3-8.4,3.9-11.4c2.6-2.9,6.3-4.4,11-4.4c4.8,0,8.5,1.5,11.2,4.5c2.5,2.8,3.8,6.6,3.8,11.3L538,77.1L538,77.1z" /><path
         id="path1114"
         fill="#9D9D9D"
         d="M574.9,42.4l-3.2,9.1c-0.5,1.3-1,2.4-1.7,3.3c-0.9,1.1-1.8,1.8-2.8,2.1      c2.9,1.1,4.9,2.5,6,4.3c0.9,1.5,1.4,3.7,1.4,6.7v9.3h-11v-9c0-1.6-0.4-2.8-1.2-3.6c-0.8-0.8-1.9-1.2-3.3-1.2h-3.7v13.8H544V27      h11.5v25.9c1.8,0,3.1-0.6,4-1.7c0.8-1.1,2.1-4.1,3.7-8.7h11.7V42.4z" /><path
         id="path1115"
         fill="#9D9D9D"
         d="M615.9,64.3c-1.7,4-4.3,7.3-7.8,9.8s-7.3,3.8-11.5,3.8c-4.8,0-9-1.8-12.6-5.4      s-5.4-7.8-5.4-12.8s1.8-9.3,5.3-12.8c3.5-3.6,7.7-5.4,12.6-5.4c3.8,0,7.1,1,9.9,2.9c2.8,1.9,5.2,4.7,7.1,8.3l-17.3,11.7      l-4.5-6.8l9.5-6.1c-0.8-0.5-1.5-0.8-2.2-1s-1.5-0.2-2.2-0.2c-2.2,0-4,0.9-5.3,2.7s-2,3.9-2,6.2c0,2.2,0.7,4.3,2.2,6.1      c1.4,1.8,3.3,2.7,5.5,2.7c2.1,0,4.1-0.8,6-2.3c1.9-1.5,3.3-3.4,4.3-5.5L615.9,64.3z" /><path
         id="path1116"
         fill="#9D9D9D"
         d="M649.7,64.7c0,3.3-0.8,6-2.4,8.2c-1.6,2.1-3.9,3.7-6.7,4.6v14.7h-11.5V77.4      c-3.2-1-5.6-2.5-7.1-4.7c-1.5-2.2-2.3-4.9-2.3-8.1V42.4h11v20.1c0,1.4,0.2,2.5,0.7,3.3c0.7,1.1,1.8,1.6,3.4,1.6      c1.5,0,2.6-0.5,3.1-1.4s0.8-2.2,0.8-4V42.4h11V64.7L649.7,64.7z" /></g><g
       id="g793"
       i:knockout="Off"><radialGradient
         id="path880_2_"
         cx="230.6113"
         cy="445.5947"
         r="80.8218"
         fx="230.6113"
         fy="445.5947"
         gradientTransform="matrix(1 0 0 -1 -37.5 595.5)"
         gradientUnits="userSpaceOnUse"><stop
           offset="0"
           style="stop-color:#E18330"
           id="stop784" /><stop
           offset="1"
           style="stop-color:#7C0023"
           id="stop785" /><a:midPointStop
           offset="0"
           style="stop-color:#E18330"
           id="midPointStop786" /><a:midPointStop
           offset="0.5"
           style="stop-color:#E18330"
           id="midPointStop787" /><a:midPointStop
           offset="1"
           style="stop-color:#7C0023"
           id="midPointStop788" /></radialGradient><path
         id="path880_1_"
         fill="url(#path880_2_)"
         stroke="#000000"
         d="M256.4,207.6c1.1,12.3-9.3,18-20.2,26      c-33.4,18-24.9-5-30-17.3c-5.8-7.9-10.2-21.6-15.3-29.6c-3.6-5-10.9-4.3-13.8-10.1c-1.5-2.9,0.7-13.7,2.2-16.6      c3.6-5,2.2-9.4,13.8-10.1c13.1,1.4,16.9,13.2,23.3,18c10.1,6.7,24,7.2,32,17.3C253.5,192.5,255.7,199.7,256.4,207.6z" /><linearGradient
         id="path899_1_"
         gradientUnits="userSpaceOnUse"
         x1="278.2422"
         y1="419.9199"
         x2="320.2422"
         y2="342.7201"
         gradientTransform="matrix(1 0 0 -1 -37.5 595.5)"><stop
           offset="0"
           style="stop-color:#E18330"
           id="stop791" /><stop
           offset="1"
           style="stop-color:#7C0023"
           id="stop792" /><a:midPointStop
           offset="0"
           style="stop-color:#E18330"
           id="midPointStop793" /><a:midPointStop
           offset="0.5"
           style="stop-color:#E18330"
           id="midPointStop794" /><a:midPointStop
           offset="1"
           style="stop-color:#7C0023"
           id="midPointStop795" /></linearGradient><path
         id="path899_2_"
         fill="url(#path899_1_)"
         stroke="#000000"
         d="M274.3,218.7c-0.7,4.3,0,7.9-2.6,11.5      c-4.3,3.6-13.1,3.6-16.6-0.7c-5.2-9.4-2.6-19.5-3.5-29.6c-1.7-8.7-6.1-16.6-13.1-23.1c9.6,1.4,15.7,7.9,21.8,13.7      C268.2,198.6,276.1,207.9,274.3,218.7z" /><linearGradient
         id="path966_4_"
         gradientUnits="userSpaceOnUse"
         x1="182.4282"
         y1="414.5449"
         x2="215.4282"
         y2="341.5449"
         gradientTransform="matrix(1 0 0 -1 -37.5 595.5)"><stop
           offset="0"
           style="stop-color:#E18330"
           id="stop798" /><stop
           offset="1"
           style="stop-color:#7C0023"
           id="stop799" /><a:midPointStop
           offset="0"
           style="stop-color:#E18330"
           id="midPointStop800" /><a:midPointStop
           offset="0.5"
           style="stop-color:#E18330"
           id="midPointStop801" /><a:midPointStop
           offset="1"
           style="stop-color:#7C0023"
           id="midPointStop802" /></linearGradient><path
         id="path966_1_"
         fill="url(#path966_4_)"
         stroke="#000000"
         d="M209,206.2c6.2,12.7,11.7,25.9,9.3,39.6      c-0.8,5.8-7.8,6.5-14,7.9c-11.6,1.4-22.5-2.2-33.4-1.4c2.3,5.8,0,13.7-7,14.4c-17.9,1.4-42-6.5-42.7-25.2      c0-11.5,3.9-23.1,8.5-33.9c3.9-10.8,7.8-20.9,17.9-28.8c5.4-3.6,10.9-7.2,17.1-10.1c0.8,0,3.1,0,3.9,0c9.3,5,19.4,7.2,26.4,15.1      C201.2,191.1,205.1,198.3,209,206.2z" /><linearGradient
         id="path966_5_"
         gradientUnits="userSpaceOnUse"
         x1="242.2954"
         y1="392.1914"
         x2="222.9307"
         y2="380.2309"
         gradientTransform="matrix(1 0 0 -1 -37.5 595.5)"><stop
           offset="0"
           style="stop-color:#E18330"
           id="stop805" /><stop
           offset="1"
           style="stop-color:#7C0023"
           id="stop806" /><a:midPointStop
           offset="0"
           style="stop-color:#E18330"
           id="midPointStop807" /><a:midPointStop
           offset="0.5"
           style="stop-color:#E18330"
           id="midPointStop808" /><a:midPointStop
           offset="1"
           style="stop-color:#7C0023"
           id="midPointStop809" /></linearGradient><path
         id="path966_3_"
         fill="url(#path966_5_)"
         d="M207.3,206.8c6,12.1,11.3,24.8,9,37.9c-0.8,5.5-7.5,6.2-13.5,7.6      c-65.6,7.2-42.6-64.3-34.2-74.2c0.8,0-2.9-7,8.9-4.5c9,4.8,9.6,4.3,16.3,11.8C199.8,192.3,203.6,199.2,207.3,206.8z" /><linearGradient
         id="path966_6_"
         gradientUnits="userSpaceOnUse"
         x1="169.7949"
         y1="401.7529"
         x2="190.326"
         y2="390.8029"
         gradientTransform="matrix(1.1316 -3.426809e-003 3.426817e-003 -1.0788 -62.9225 646.2552)"><stop
           offset="0"
           style="stop-color:#E18330"
           id="stop812" /><stop
           offset="1"
           style="stop-color:#7C0023"
           id="stop813" /><a:midPointStop
           offset="0"
           style="stop-color:#E18330"
           id="midPointStop814" /><a:midPointStop
           offset="0.5"
           style="stop-color:#E18330"
           id="midPointStop815" /><a:midPointStop
           offset="1"
           style="stop-color:#7C0023"
           id="midPointStop816" /></linearGradient><path
         id="path966_2_"
         fill="url(#path966_6_)"
         d="M138.2,190c5.1-7.6,5.7-6.7,12.8-11.7c0.6,0,7,3.9,7.6,3.8      c7.5,9,36.1,105.9-21.4,77.2c-5-1-12.9-5.9-13.8-11.2c-2.7-12.4,2.1-25.8,6.3-37.7C132.3,203.1,133.7,197,138.2,190z" /><linearGradient
         id="path977_2_"
         gradientUnits="userSpaceOnUse"
         x1="212.2993"
         y1="412.042"
         x2="193.009"
         y2="412.042"
         gradientTransform="matrix(1 0 0 -1 -37.5 595.5)"><stop
           offset="0"
           style="stop-color:#E18330"
           id="stop819" /><stop
           offset="1"
           style="stop-color:#7C0023"
           id="stop820" /><a:midPointStop
           offset="0"
           style="stop-color:#E18330"
           id="midPointStop821" /><a:midPointStop
           offset="0.5"
           style="stop-color:#E18330"
           id="midPointStop822" /><a:midPointStop
           offset="1"
           style="stop-color:#7C0023"
           id="midPointStop823" /></linearGradient><path
         id="path977_1_"
         fill="url(#path977_2_)"
         stroke="#000000"
         d="M177.6,199.1c1.7,10.6,2.8,23.2-7.2,28.5      c-10,4.5-18.6-5.2-19.3-15c0-21.7,8.5-47.1-7.8-66.7c-3.6-3.7,2.1-6.8,6.4-7.5c7.2-0.7,16.4,0,19.3,6.7      C176.2,160.9,174.8,180.4,177.6,199.1z" /><path
         id="path836"
         fill="#A67348"
         stroke="#000000"
         d="M190,101.2c-3,2.6-6.8,5.1-10.6,7.4c-0.7,0.4-1.3,1-1.8,1.7      c-0.7-3.5-2.1-6.6-5.6-8.8c-6.4-4-14.2-2.7-21.4-2c-2.1,0.6-5,1.9-5,3.9c0,4.7,0,4.7,0-0.1c0-0.6-1.5-1.3-1.5-1.3      c-8.5,2.7-17.8-1.3-25,2.7c-12.1,6.6-21.4,21.9-15.7,33.8c2.1,3.3,8.5,2.7,12.9,2.7c3.5,0,5-4.6,7.8-3.3      c2.1,0.6,4.3,0.6,6.4,0.1c-0.2,0.2-0.4,0.4-0.6,0.5c11.4,4.6,23.5,7.9,35.6,7.3c9.3-1.3,15.7-10.8,13.6-19.2      c-0.4-1.6-0.6-3.3-0.8-5.1c2.6,2.2,6.9-2.6,9-5.7C190.4,111.7,192.9,106.2,190,101.2z" /><radialGradient
         id="path861_1_"
         cx="173.7017"
         cy="491.2803"
         r="46.2986"
         fx="173.7017"
         fy="491.2803"
         gradientTransform="matrix(1 0 0 -1 -37.5 595.5)"
         gradientUnits="userSpaceOnUse"><stop
           offset="0"
           style="stop-color:#FFFFFF"
           id="stop827" /><stop
           offset="4.136020e-002"
           style="stop-color:#F2F2F2"
           id="stop828" /><stop
           offset="0.2133"
           style="stop-color:#C1C1C1"
           id="stop829" /><stop
           offset="0.3839"
           style="stop-color:#999999"
           id="stop830" /><stop
           offset="0.5503"
           style="stop-color:#7A7A7A"
           id="stop831" /><stop
           offset="0.711"
           style="stop-color:#636363"
           id="stop832" /><stop
           offset="0.8638"
           style="stop-color:#565656"
           id="stop833" /><stop
           offset="1"
           style="stop-color:#515151"
           id="stop834" /><a:midPointStop
           offset="0"
           style="stop-color:#FFFFFF"
           id="midPointStop835" /><a:midPointStop
           offset="0.5"
           style="stop-color:#FFFFFF"
           id="midPointStop836" /><a:midPointStop
           offset="4.136020e-002"
           style="stop-color:#F2F2F2"
           id="midPointStop837" /><a:midPointStop
           offset="0.5"
           style="stop-color:#F2F2F2"
           id="midPointStop838" /><a:midPointStop
           offset="0.2133"
           style="stop-color:#C1C1C1"
           id="midPointStop839" /><a:midPointStop
           offset="0.5"
           style="stop-color:#C1C1C1"
           id="midPointStop840" /><a:midPointStop
           offset="0.3839"
           style="stop-color:#999999"
           id="midPointStop841" /><a:midPointStop
           offset="0.5"
           style="stop-color:#999999"
           id="midPointStop842" /><a:midPointStop
           offset="0.5503"
           style="stop-color:#7A7A7A"
           id="midPointStop843" /><a:midPointStop
           offset="0.5"
           style="stop-color:#7A7A7A"
           id="midPointStop844" /><a:midPointStop
           offset="0.711"
           style="stop-color:#636363"
           id="midPointStop845" /><a:midPointStop
           offset="0.5"
           style="stop-color:#636363"
           id="midPointStop846" /><a:midPointStop
           offset="0.8638"
           style="stop-color:#565656"
           id="midPointStop847" /><a:midPointStop
           offset="0.5"
           style="stop-color:#565656"
           id="midPointStop848" /><a:midPointStop
           offset="1"
           style="stop-color:#515151"
           id="midPointStop849" /></radialGradient><path
         id="path861_3_"
         i:isolated="yes"
         i:knockout="Off"
         opacity="0.59"
         fill="url(#path861_1_)"
         enable-background="new    "
         d="      M140,129.9c-2,6-9.3,9.9-15.7,8c-2.8-1.3-4.3,3.3-7.8,3.3c-4.3,0-10.7,0.6-12.9-2.7c-5.7-11.9,3.6-27.2,15.7-33.8      c7.2-3.9,16.4,0,25-2.7c0,0,1.5,0.6,1.5,1.3C145.7,112.7,142.8,121.3,140,129.9z" /><radialGradient
         id="path987_1_"
         cx="196.6655"
         cy="496.4814"
         r="46.5365"
         fx="196.6655"
         fy="496.4814"
         gradientTransform="matrix(1 0 0 -1 -37.5 595.5)"
         gradientUnits="userSpaceOnUse"><stop
           offset="0"
           style="stop-color:#FF9D56"
           id="stop852" /><stop
           offset="1"
           style="stop-color:#9F0023"
           id="stop853" /><a:midPointStop
           offset="0"
           style="stop-color:#FF9D56"
           id="midPointStop854" /><a:midPointStop
           offset="0.5"
           style="stop-color:#FF9D56"
           id="midPointStop855" /><a:midPointStop
           offset="1"
           style="stop-color:#9F0023"
           id="midPointStop856" /></radialGradient><path
         id="path987_3_"
         fill="url(#path987_1_)"
         d="M179.3,126.6c2.1,8.4-4.3,17.9-13.6,19.2c-12.1,0.6-24.3-2.7-35.6-7.3      c10.7-8.6,15.7-21.9,15.7-35.1c0-2,2.8-3.3,5-3.9c7.2-0.6,15-2,21.4,2C180.7,106.8,177.1,118,179.3,126.6z" /><radialGradient
         id="path938_1_"
         cx="226.3638"
         cy="494.0361"
         r="21.6363"
         fx="226.3638"
         fy="494.0361"
         gradientTransform="matrix(1 0 0 -1 -37.5 595.5)"
         gradientUnits="userSpaceOnUse"><stop
           offset="0"
           style="stop-color:#E18330"
           id="stop859" /><stop
           offset="1"
           style="stop-color:#7C0023"
           id="stop860" /><a:midPointStop
           offset="0"
           style="stop-color:#E18330"
           id="midPointStop861" /><a:midPointStop
           offset="0.5"
           style="stop-color:#E18330"
           id="midPointStop862" /><a:midPointStop
           offset="1"
           style="stop-color:#7C0023"
           id="midPointStop863" /></radialGradient><path
         id="path938_3_"
         fill="url(#path938_1_)"
         stroke="#000000"
         d="M187.2,115.8c-2.3,3.4-7.3,9-9.7,4.9      c-1.9-3.3-1.9-10.2,1.7-12c3.8-2.4,7.5-4.9,10.6-7.4C192.6,106.2,190.1,111.7,187.2,115.8z" /><g
         id="g1011_2_"
         i:knockout="Off"><path
           id="path1012_2_"
           fill="#6D1E1E"
           d="M151,93.1c6.4,0,8.2,5.8,8.9,9.1" /><path
           id="path1013_2_"
           fill="#6D1E1E"
           d="M150,94.9c5.6,0.2,7.9,4.6,8.9,9.1c0-0.1,1.2-1.5,1.3-1.7c0.3-0.4,1-1.3,0.9-1.8       c-1-4.5-3.3-8.9-8.9-9.1C151.2,91.4,150.3,94.9,150,94.9L150,94.9z" /></g><g
         id="g1015_3_"
         i:knockout="Off"><path
           id="path1016_1_"
           fill="#6D1E1E"
           d="M159.8,90.5c4,4.2,2.1,7.3,0.4,11.7" /><path
           id="path1017_3_"
           fill="#6D1E1E"
           d="M158.7,92.2c3.4,3.9,2.1,7.2,0.4,11.4c-0.3,0.7,0.6-0.4,0.6-0.5       c0.5-0.7,1-1.6,1.4-2.4c1.7-4.4,3.2-7.9-0.3-11.9C161,89,158.2,91.6,158.7,92.2L158.7,92.2z" /></g><g
         id="g1019_2_"
         i:knockout="Off"><path
           id="path1020_2_"
           fill="#6D1E1E"
           d="M174.7,89c0.3,2.5-3.8,5.7-5.2,7.9c-2.2,3.3-6.2,3.9-10.8,5.8" /><path
           id="path1021_2_"
           fill="#6D1E1E"
           d="M173.6,90.7c-0.1,1.7-3.5,5.2-4.9,6.4c-2.4,2.1-6.2,2.8-9.1,4c-1,0.5-1.6,3.2-1.9,3.4       c2.6-1.1,5.3-1.8,7.8-3.1c2-1.1,3.1-2.8,4.5-4.5c2.2-2.6,5.7-5.9,5.8-9.4C175.8,87.9,173.7,89.6,173.6,90.7L173.6,90.7z" /></g><g
         id="g1023_1_"
         i:knockout="Off"><path
           id="path1024_1_"
           fill="#6D1E1E"
           d="M165,89.9c3.2,4.2-3.2,8.6-5.3,12.6" /><path
           id="path1025_1_"
           fill="#6D1E1E"
           d="M164,91.7c1.7,2.6,0.4,4.3-1.4,6.4c-1.3,1.6-2.4,3.1-3.4,4.8       c-0.1,0.2-0.6,1.5-0.5,1.3c0.6-0.5,1.1-1.4,1.5-2c2.3-3.9,9.3-9,6-14C166.3,88.5,163.5,91,164,91.7L164,91.7z" /></g><g
         id="g1027_2_"
         i:knockout="Off"><path
           id="path1028_2_"
           fill="#6D1E1E"
           d="M170.1,88.6c0.4,4.2-3.6,11.4-9.6,13" /><path
           id="path1029_2_"
           fill="#6D1E1E"
           d="M169,90.2c0.2,4.5-2.9,8.3-7.4,9.6c-0.6,0.2-1,1.2-1.3,1.7c-0.1,0.2-0.8,1.7-0.9,1.8       c6.3-1.9,12-10.2,11.8-16.3C171.2,87.4,168.9,89.1,169,90.2L169,90.2z" /></g><g
         id="g1031_1_"
         i:knockout="Off"><path
           id="path1032_1_"
           fill="#6D1E1E"
           d="M179,90.2c-0.7,7.3-11.8,10.7-20.7,13" /><path
           id="path1033_1_"
           fill="#6D1E1E"
           d="M177.9,91.8c-0.5,3.1-4.6,4.8-7.3,6.1c-3.6,1.6-7.4,2.7-11.2,3.7       c-1.2,0.3-1.4,3.2-2.1,3.4c9.2-2.4,21.3-6.2,22.9-16.3C180,89.2,178.1,90.7,177.9,91.8L177.9,91.8z" /></g><g
         id="g1035_2_"
         i:knockout="Off"><path
           id="path1036_2_"
           fill="#6D1E1E"
           d="M184,90.7c-0.7,9.1-14.6,9.6-24.2,11.7" /><path
           id="path1037_2_"
           fill="#6D1E1E"
           d="M183,92.2c-0.5,3.7-5.8,5-9.1,5.8c-4.2,1.1-8.7,1.6-13,2.5c-1.1,0.3-1.5,3.3-2.1,3.4       c10.1-2.1,24.9-2.8,26.5-15C185,89.6,183,91.1,183,92.2L183,92.2z" /></g><g
         id="g925_2_"
         i:knockout="Off"><path
           id="ellipse1004_4_"
           fill="#990000"
           d="M119,114.6c3.5-4.1,8.2-5.7,10.6-3.6c2.4,2,1.5,7-1.9,11       c-3.5,4.1-8.2,5.7-10.6,3.6S115.6,118.7,119,114.6z" /><path
           id="ellipse1004_2_"
           d="M120.4,115.8c2.4-2.8,5.7-3.9,7.4-2.5c1.7,1.4,1,4.9-1.4,7.7s-5.7,3.9-7.4,2.5       C117.3,122,118,118.6,120.4,115.8z" /></g><g
         id="g931_2_"
         i:knockout="Off"><g
           id="g932_2_"
           i:knockout="Off"><path
             id="path933_2_"
             fill="#6D1E1E"
             d="M161.6,112.3c3.1,1,5.3,3.3,6.1,5.9c1.7-4.7-0.1-9.5-4-10.9        c-3.9-1.4-8.5,1.2-10.6,5.7C155.5,111.6,158.6,111.3,161.6,112.3z" /></g></g><path
         id="path1000_4_"
         fill="#7E0000"
         d="M160.7,115.8c4.1,1.7,5.6,7.6,3.3,13.3c-2.4,5.7-7.6,8.8-11.8,7.2      c-4.1-1.7-5.6-7.6-3.3-13.3C151.4,117.2,156.5,114,160.7,115.8z" /><radialGradient
         id="path1000_1_"
         cx="-1422.627"
         cy="2015.666"
         r="8.5504"
         fx="-1422.627"
         fy="2015.666"
         gradientTransform="matrix(0.9561 1.0433 1.0598 -1.3406 -628.1212 4316.814)"
         gradientUnits="userSpaceOnUse"><stop
           offset="5.600000e-003"
           style="stop-color:#CACACA"
           id="stop894" /><stop
           offset="0.2698"
           style="stop-color:#D3D3D3"
           id="stop895" /><stop
           offset="0.6909"
           style="stop-color:#EAEAEA"
           id="stop896" /><stop
           offset="1"
           style="stop-color:#FFFFFF"
           id="stop897" /><a:midPointStop
           offset="5.600000e-003"
           style="stop-color:#CACACA"
           id="midPointStop898" /><a:midPointStop
           offset="0.5"
           style="stop-color:#CACACA"
           id="midPointStop899" /><a:midPointStop
           offset="0.2698"
           style="stop-color:#D3D3D3"
           id="midPointStop900" /><a:midPointStop
           offset="0.5"
           style="stop-color:#D3D3D3"
           id="midPointStop901" /><a:midPointStop
           offset="0.6909"
           style="stop-color:#EAEAEA"
           id="midPointStop902" /><a:midPointStop
           offset="0.5"
           style="stop-color:#EAEAEA"
           id="midPointStop903" /><a:midPointStop
           offset="1"
           style="stop-color:#FFFFFF"
           id="midPointStop904" /></radialGradient><path
         id="path1000_2_"
         fill="url(#path1000_1_)"
         d="M159.9,117.9c3.3,1.4,4.4,6.1,2.6,10.7s-6.1,7.1-9.3,5.7      c-3.3-1.4-4.4-6.1-2.6-10.7C152.5,119.1,156.7,116.5,159.9,117.9z" /><circle
         id="circle1001_2_"
         cx="154.6"
         cy="128.1"
         r="3.5" /><path
         id="path1045_2_"
         fill="#8D8D8D"
         stroke="#000000"
         d="M176.6,243.9c0,4.3-3.1,7.7-7,7.7h-7.3c-3.9,0-7-3.4-7-7.7l0,0      c0-4.2,3.1-7.7,7-7.7h7.3C173.5,236.2,176.6,239.7,176.6,243.9L176.6,243.9z" /><path
         id="path1047_2_"
         d="M160.6,244.4c0,2.3-2,4.1-4.4,4.1v-8.2C158.6,240.3,160.6,242.2,160.6,244.4L160.6,244.4z" /><path
         id="path1046_2_"
         fill="#8D8D8D"
         stroke="#000000"
         d="M186,259.1c0,4.2-3.1,7.7-7,7.7h-7.3c-3.9,0-7-3.4-7-7.7l0,0      c0-4.3,3.1-7.7,7-7.7h7.3C182.8,251.4,186,254.8,186,259.1L186,259.1z" /><path
         id="path1054_2_"
         d="M180,259.8c0,2.3,2,4.1,4.4,4.1v-8.2C182,255.7,180,257.5,180,259.8L180,259.8z" /><path
         id="path910"
         fill="#2B0000"
         d="M122.7,131.5c-2.6,1.4-3.7,1.8-8.4,1.8c-4.8,0-7.8-1.6-12.4-0.6c-0.2,11.2,5.7,9.5,16.5,8      c2.3-0.3,5.8-2.7,8.3-4.4C128.3,135.2,126.7,131.3,122.7,131.5z" /><g
         id="g911"
         i:knockout="Off"><path
           id="path1040_1_"
           fill="#D22B2D"
           d="M119.1,136.2c3.2-1.1,4.9-1.3,3.9-0.5c-1.1,0.8-1.7,4.5-1.6,8.2l0.4,6.7       c0.2,3.7-1.6,9-3.9,11.9l-4.7,5.8c-2.4,2.9-4.1,2.3-3.9-1.3l0.1-1.8c0.2-3.7-0.3-4.1-1.1-1c-0.8,3.1-3.1,3-5.1-0.1l-0.8-1.2       c-2-3.1-3-8.5-2.2-12.1l2.4-10c0.8-3.6,2.8-5.8,4.3-4.9c1.6,0.8,3.6,1.7,4.6,1.9C112.5,138,115.9,137.3,119.1,136.2z" /><linearGradient
           id="path1042_2_"
           gradientUnits="userSpaceOnUse"
           x1="-398.3037"
           y1="443.6064"
           x2="-377.09"
           y2="443.6064"
           gradientTransform="matrix(1 0 0 1 498.3398 -290.6797)"><stop
             offset="0"
             style="stop-color:#CA0000"
             id="stop915" /><stop
             offset="0.25"
             style="stop-color:#D90000"
             id="stop916" /><stop
             offset="0.5"
             style="stop-color:#E80000"
             id="stop917" /><stop
             offset="0.75"
             style="stop-color:#FF0000"
             id="stop918" /><stop
             offset="1"
             style="stop-color:#CA0000"
             id="stop919" /><a:midPointStop
             offset="0"
             style="stop-color:#CA0000"
             id="midPointStop920" /><a:midPointStop
             offset="0.5"
             style="stop-color:#CA0000"
             id="midPointStop921" /><a:midPointStop
             offset="0.25"
             style="stop-color:#D90000"
             id="midPointStop922" /><a:midPointStop
             offset="0.5"
             style="stop-color:#D90000"
             id="midPointStop923" /><a:midPointStop
             offset="0.5"
             style="stop-color:#E80000"
             id="midPointStop924" /><a:midPointStop
             offset="0.5"
             style="stop-color:#E80000"
             id="midPointStop925" /><a:midPointStop
             offset="0.75"
             style="stop-color:#FF0000"
             id="midPointStop926" /><a:midPointStop
             offset="0.5"
             style="stop-color:#FF0000"
             id="midPointStop927" /><a:midPointStop
             offset="1"
             style="stop-color:#CA0000"
             id="midPointStop928" /></linearGradient><path
           id="path1042_1_"
           fill="url(#path1042_2_)"
           d="M117.4,136.4c2.9-0.9,4.6-1,3.6-0.3c-1,0.7-1.6,4.3-1.3,8l0.4,5       c0.3,3.7-1,9.2-2.9,12.4l-3.8,6.3c-1.9,3.2-3.5,3.2-3.4,0.1c0-3.1-0.9-4.2-2.1-2.5c-1.2,1.7-3.4,0.5-5-2.8l-1.2-2.6       c-1.5-3.4-2.1-9-1.4-12.6l1.4-6.6c0.7-3.6,2.3-5.7,3.3-4.8c1.1,0.9,3,1.8,4.4,1.9C110.9,138,114.4,137.3,117.4,136.4z" /><linearGradient
           id="path1044_2_"
           gradientUnits="userSpaceOnUse"
           x1="-396.4644"
           y1="449.7656"
           x2="-379.7104"
           y2="449.7656"
           gradientTransform="matrix(1 0 0 1 498.3398 -290.6797)"><stop
             offset="0"
             style="stop-color:#FF00FF"
             id="stop931" /><stop
             offset="0.1323"
             style="stop-color:#EA2AFF"
             id="stop932" /><stop
             offset="0.25"
             style="stop-color:#D94CFF"
             id="stop933" /><stop
             offset="0.5"
             style="stop-color:#E890FF"
             id="stop934" /><stop
             offset="0.75"
             style="stop-color:#FFCFFF"
             id="stop935" /><stop
             offset="1"
             style="stop-color:#FFFFFF"
             id="stop936" /><a:midPointStop
             offset="0"
             style="stop-color:#FF00FF"
             id="midPointStop937" /><a:midPointStop
             offset="0.5"
             style="stop-color:#FF00FF"
             id="midPointStop938" /><a:midPointStop
             offset="0.1323"
             style="stop-color:#EA2AFF"
             id="midPointStop939" /><a:midPointStop
             offset="0.5"
             style="stop-color:#EA2AFF"
             id="midPointStop940" /><a:midPointStop
             offset="0.25"
             style="stop-color:#D94CFF"
             id="midPointStop941" /><a:midPointStop
             offset="0.5"
             style="stop-color:#D94CFF"
             id="midPointStop942" /><a:midPointStop
             offset="0.5"
             style="stop-color:#E890FF"
             id="midPointStop943" /><a:midPointStop
             offset="0.5"
             style="stop-color:#E890FF"
             id="midPointStop944" /><a:midPointStop
             offset="0.75"
             style="stop-color:#FFCFFF"
             id="midPointStop945" /><a:midPointStop
             offset="0.5"
             style="stop-color:#FFCFFF"
             id="midPointStop946" /><a:midPointStop
             offset="1"
             style="stop-color:#FFFFFF"
             id="midPointStop947" /></linearGradient><path
           id="path1044_1_"
           fill="url(#path1044_2_)"
           d="M114.2,152c4,0.4,5.5,3.2,3.7,6.3l-3.8,6.3c-1.9,3.2-3.5,3.2-3.4,0.1       c0-3.1-0.9-4.2-2.1-2.5c-1.2,1.7-3.4,0.5-5-2.9l-1.2-2.6c-1.5-3.4,0.5-5.9,4.3-5.5L114.2,152z" /></g></g><path
       id="path590"
       i:isolated="yes"
       i:knockout="Off"
       opacity="0.5"
       fill="#FFFFFF"
       enable-background="new    "
       d="M286.2,125.8     c-2.9,46.6-51.2,49.8-103.1,49.8c-56.3,0-99.6-8.8-100.9-49.8c-1.3-39.9,45.7-74.2,102-74.2C240.6,51.6,288.7,85.9,286.2,125.8z" /><text
       xml:space="preserve"
       style="font-size:28px;font-style:normal;font-variant:normal;font-weight:bold;font-stretch:condensed;line-height:125%;letter-spacing:0px;word-spacing:0px;writing-mode:lr-tb;fill:#b3b3b3;fill-opacity:1;stroke:none;font-family:Liberation Sans Narrow;-inkscape-font-specification:Liberation Sans Narrow Bold Condensed"
       x="418.78259"
       y="361.11304"
       id="text3192"
       sodipodi:linespacing="125%"><tspan
         sodipodi:role="line"
         id="tspan3194"
         x="418.78259"
         y="361.11304">http://mldonkey.sf.net</tspan></text>
</g></svg>