<?xml version="1.0" encoding="UTF-8" standalone="no"?>
<!DOCTYPE svg PUBLIC "-//W3C//DTD SVG 20010904//EN"
"http://www.w3.org/TR/2001/REC-SVG-20010904/DTD/svg10.dtd">
<!-- Created with Sodipodi ("http://www.sodipodi.com/") -->
<svg
   xmlns:x="http://ns.adobe.com/Extensibility/1.0/"
   xmlns:i="http://ns.adobe.com/AdobeIllustrator/10.0/"
   xmlns:graph="http://ns.adobe.com/Graphs/1.0/"
   xmlns="http://www.w3.org/2000/svg"
   xmlns:xlink="http://www.w3.org/1999/xlink"
   xmlns:a="http://ns.adobe.com/AdobeSVGViewerExtensions/3.0/"
   xml:space="preserve"
   i:viewOrigin="282.5 419.5"
   i:rulerOrigin="0 0"
   i:pageBounds="0 792 612 0"
   width="48"
   height="48"
   viewBox="0 0 48 48"
   overflow="visible"
   enable-background="new 0 0 48 48"
   xmlns:sodipodi="http://sodipodi.sourceforge.net/DTD/sodipodi-0.dtd"
   id="svg602"
   sodipodi:version="0.34"
   sodipodi:docname="C:\msys\home\su_blanc\mldonkey-2.5.12\src\gtk2\rsvg\state_source_fileslisted.svg"><defs
   id="defs653" /><sodipodi:namedview
   id="base" /><g
   id="Layer_x0020_4"
   i:knockout="Off"
   i:layer="yes"
   i:dimmedPercent="50"
   i:rgbTrio="#4F008000FFFF"><path
   id="path605"
   fill="#00007E"
   d="M10.2,2.6C7.3,2.6,5,5,5,8v31.6c0,3,2.3,5.4,5.2,5.4h27.3c2.9,0,5.2-2.4,5.2-5.4V8     c0-3-2.3-5.4-5.2-5.4H10.2z" /><linearGradient
   id="path612_1_"
   gradientUnits="userSpaceOnUse"
   x1="-734.2729"
   y1="317.1367"
   x2="-714.5612"
   y2="282.894"
   gradientTransform="matrix(1 0 0 -1 748.2031 324.2266)"><stop
   offset="0"
   style="stop-color:#F0F0F0"
   id="stop608" /><stop
   offset="1"
   style="stop-color:#D6D6D6"
   id="stop609" /><a:midPointStop
   offset="0"
   style="stop-color:#F0F0F0"
   id="midPointStop610" /><a:midPointStop
   offset="0.5"
   style="stop-color:#F0F0F0"
   id="midPointStop611" /><a:midPointStop
   offset="1"
   style="stop-color:#D6D6D6"
   id="midPointStop612" /></linearGradient><path
   id="path612"
   fill="url(#path612_1_)"
   d="M40.1,39.6c0,1.6-1.3,2.9-2.8,2.9H9.9c-1.6,0-2.8-1.3-2.8-2.9V8     c0-1.6,1.3-2.9,2.8-2.9h27.3C38.8,5.1,40,6.4,40,8L40.1,39.6L40.1,39.6z" /><g
   id="g613"
   i:knockout="Off"><radialGradient
   id="circle620_1_"
   cx="-796.6118"
   cy="267.6006"
   r="6.3714"
   fx="-796.6118"
   fy="267.6006"
   gradientTransform="matrix(0.1947 0 0 -0.2012 164.995 84.411)"
   gradientUnits="userSpaceOnUse"><stop
   offset="0"
   style="stop-color:#F0F0F0"
   id="stop616" /><stop
   offset="1"
   style="stop-color:#474747"
   id="stop617" /><a:midPointStop
   offset="0"
   style="stop-color:#F0F0F0"
   id="midPointStop618" /><a:midPointStop
   offset="0.5"
   style="stop-color:#F0F0F0"
   id="midPointStop619" /><a:midPointStop
   offset="1"
   style="stop-color:#474747"
   id="midPointStop620" /></radialGradient><circle
   id="circle620"
   fill="url(#circle620_1_)"
   cx="9.7"
   cy="30.2"
   r="0.8" /><radialGradient
   id="circle627_1_"
   cx="-796.6118"
   cy="328.1855"
   r="6.3714"
   fx="-796.6118"
   fy="328.1855"
   gradientTransform="matrix(0.1947 0 0 -0.2012 164.995 84.411)"
   gradientUnits="userSpaceOnUse"><stop
   offset="0"
   style="stop-color:#F0F0F0"
   id="stop623" /><stop
   offset="1"
   style="stop-color:#474747"
   id="stop624" /><a:midPointStop
   offset="0"
   style="stop-color:#F0F0F0"
   id="midPointStop625" /><a:midPointStop
   offset="0.5"
   style="stop-color:#F0F0F0"
   id="midPointStop626" /><a:midPointStop
   offset="1"
   style="stop-color:#474747"
   id="midPointStop627" /></radialGradient><circle
   id="circle627"
   fill="url(#circle627_1_)"
   cx="9.7"
   cy="18"
   r="0.8" /></g><rect
   id="polygon628"
   x="12.1"
   y="5.7"
   fill="#FFFFFF"
   width="0.3"
   height="36.8" /><linearGradient
   id="polygon635_1_"
   gradientUnits="userSpaceOnUse"
   x1="-736.084"
   y1="317.4873"
   x2="-736.519"
   y2="283.0168"
   gradientTransform="matrix(1 0 0 -1 748.2031 324.2266)"><stop
   offset="0"
   style="stop-color:#EDEDED"
   id="stop631" /><stop
   offset="1"
   style="stop-color:#CACACA"
   id="stop632" /><a:midPointStop
   offset="0"
   style="stop-color:#EDEDED"
   id="midPointStop633" /><a:midPointStop
   offset="0.5"
   style="stop-color:#EDEDED"
   id="midPointStop634" /><a:midPointStop
   offset="1"
   style="stop-color:#CACACA"
   id="midPointStop635" /></linearGradient><rect
   id="polygon635"
   x="11.7"
   y="5.7"
   fill="url(#polygon635_1_)"
   width="0.4"
   height="36.8" /><path
   id="path636"
   fill="#FFFFFF"
   d="M8.4,9L7.8,41.5C7.3,41,7.1,40,7.1,40V7.8c0,0,0-0.8,0.7-1.8c0.7-1,2-1,2-1h27.9L10.8,6.4     c-1,0-1.6,0.6-1.9,0.9C8.8,7.5,8.4,8.3,8.4,9L8.4,9z" /><path
   id="path637"
   fill="#BEBEBE"
   d="M38.9,38.6l0.6-32.5c0.4,0.5,0.6,1.5,0.6,1.5v32.2c0,0,0,0.8-0.7,1.8c-0.7,1-2,1-2,1H9.5     l26.8-1.4c1.1,0,1.7-0.6,1.9-0.8C38.5,40.1,38.9,39.3,38.9,38.6L38.9,38.6z" /><rect
   id="rect638"
   i:knockout="Off"
   fill="none"
   width="48"
   height="48" /></g><g
   id="Layer_x0020_2"
   i:knockout="Off"
   i:layer="yes"
   i:dimmedPercent="50"
   i:rgbTrio="#4F00FFFF4F00"><g
   id="g640"
   i:knockout="Off"><rect
   id="rect641"
   x="23.4"
   y="19.7"
   fill="#9090FF"
   width="12.7"
   height="3.1" /><rect
   id="rect642"
   x="13.8"
   y="19.7"
   fill="#9090FF"
   width="7.8"
   height="3.1" /><rect
   id="rect643"
   x="29.3"
   y="24.7"
   fill="#9090FF"
   width="5.6"
   height="3.1" /><rect
   id="polygon644"
   x="29"
   y="34.7"
   fill="#9090FF"
   width="7.7"
   height="3.1" /><rect
   id="polygon645"
   x="13.8"
   y="34.7"
   fill="#9090FF"
   width="13.5"
   height="3.1" /><rect
   id="rect646"
   x="13.8"
   y="29.7"
   fill="#9090FF"
   width="8.5"
   height="3.1" /><rect
   id="rect647"
   x="13.8"
   y="24.7"
   fill="#9090FF"
   width="13.9"
   height="3.1" /><rect
   id="rect648"
   x="13.8"
   y="14.7"
   fill="#9090FF"
   width="13.9"
   height="3.1" /><rect
   id="rect649"
   x="13.8"
   y="9.7"
   fill="#9090FF"
   width="17.6"
   height="3.1" /></g></g><g
   id="Layer_x0020_3"
   i:knockout="Off"
   i:layer="yes"
   i:dimmedPercent="50"
   i:rgbTrio="#4F004F00FFFF" /></svg>
