<?xml version="1.0" encoding="UTF-8" standalone="no"?>
<!DOCTYPE svg PUBLIC "-//W3C//DTD SVG 20010904//EN"
"http://www.w3.org/TR/2001/REC-SVG-20010904/DTD/svg10.dtd">
<!-- Created with Sodipodi ("http://www.sodipodi.com/") -->
<svg
   xmlns:x="http://ns.adobe.com/Extensibility/1.0/"
   xmlns:i="http://ns.adobe.com/AdobeIllustrator/10.0/"
   xmlns:graph="http://ns.adobe.com/Graphs/1.0/"
   xmlns="http://www.w3.org/2000/svg"
   xmlns:xlink="http://www.w3.org/1999/xlink"
   xmlns:a="http://ns.adobe.com/AdobeSVGViewerExtensions/3.0/"
   xmlns:sodipodi="http://sodipodi.sourceforge.net/DTD/sodipodi-0.dtd"
   xml:space="preserve"
   i:viewOrigin="114.377 514.8174"
   i:rulerOrigin="0 1"
   i:pageBounds="0 791 612 -1"
   width="51.8"
   height="48.2"
   viewBox="0 0 51.8 48.2"
   overflow="visible"
   enable-background="new 0 0 51.8 48.2"
   id="svg602"
   sodipodi:version="0.34"
   sodipodi:docname="C:\msys\home\su_blanc\mldonkey-2.5.12\src\gtk2\rsvg\state_down.svg"
   sodipodi:docbase="C:\msys\home\su_blanc\mldonkey-2.5.12\src\gtk2\rsvg"><defs
   id="defs655" /><sodipodi:namedview
   id="base" /><g
   id="Layer_2_1_"
   i:knockout="Off"
   i:layer="yes"
   i:dimmedPercent="3"
   i:rgbTrio="#FFFF4F004F00"><polygon
   opacity="0.15"
   fill="none"
   stroke="#000000"
   stroke-width="4"
   stroke-linejoin="round"
   points="49.8,22 37.8,2 25.8,22      32.2,22 32.2,46.2 43.8,46.2 43.8,22 "
   id="polygon606" /><polygon
   opacity="0.3"
   fill="none"
   stroke="#000000"
   stroke-width="2"
   stroke-linejoin="round"
   points="49.8,22 37.8,2 25.8,22      32.2,22 32.2,46.2 43.8,46.2 43.8,22 "
   id="polygon607" /><polygon
   opacity="0.5"
   fill="none"
   stroke="#000000"
   stroke-linejoin="round"
   points="49.8,22 37.8,2 25.8,22 32.2,22 32.2,46.2      43.8,46.2 43.8,22 "
   id="polygon608" /><radialGradient
   id="XMLID_5_"
   cx="28.2192"
   cy="8.2383"
   r="27.7531"
   fx="28.2192"
   fy="8.2383"
   gradientTransform="matrix(0.9231 0 0 1 6.8323 0)"
   gradientUnits="userSpaceOnUse"><stop
   offset="0"
   style="stop-color:#E3E3E3"
   id="stop610" /><stop
   offset="0.3409"
   style="stop-color:#E0E0E0"
   id="stop611" /><stop
   offset="0.6293"
   style="stop-color:#D5D5D5"
   id="stop612" /><stop
   offset="0.8979"
   style="stop-color:#C4C4C4"
   id="stop613" /><stop
   offset="1"
   style="stop-color:#BBBBBB"
   id="stop614" /><a:midPointStop
   offset="0"
   style="stop-color:#E3E3E3"
   id="midPointStop615" /><a:midPointStop
   offset="0.7401"
   style="stop-color:#E3E3E3"
   id="midPointStop616" /><a:midPointStop
   offset="1"
   style="stop-color:#BBBBBB"
   id="midPointStop617" /></radialGradient><polygon
   fill="url(#XMLID_5_)"
   points="49.8,22 37.8,2 25.8,22 32.2,22 32.2,46.2 43.8,46.2 43.8,22 "
   id="polygon618" /><linearGradient
   id="XMLID_6_"
   gradientUnits="userSpaceOnUse"
   x1="31.9702"
   y1="8.8794"
   x2="42.9156"
   y2="20.2404"><stop
   offset="0"
   style="stop-color:#FFFFFF"
   id="stop620" /><stop
   offset="1"
   style="stop-color:#CACACA"
   id="stop621" /><a:midPointStop
   offset="0"
   style="stop-color:#FFFFFF"
   id="midPointStop622" /><a:midPointStop
   offset="0.5"
   style="stop-color:#FFFFFF"
   id="midPointStop623" /><a:midPointStop
   offset="1"
   style="stop-color:#CACACA"
   id="midPointStop624" /></linearGradient><path
   fill="url(#XMLID_6_)"
   d="M37.7,15.2c3.9,0,5.2,2.7,9.7,2.8L37.7,2l-9.5,15.9C33.8,17.8,33.9,15.2,37.7,15.2z"
   id="path625" /><g
   id="g626"><polygon
   opacity="0.15"
   fill="none"
   stroke="#000000"
   stroke-width="4"
   stroke-linejoin="round"
   points="26,26.2 14,46.2       2,26.2 8.4,26.2 8.4,2 20.1,2 20.1,26.2 "
   id="polygon627" /><polygon
   opacity="0.3"
   fill="none"
   stroke="#000000"
   stroke-width="2"
   stroke-linejoin="round"
   points="26,26.2 14,46.2 2,26.2       8.4,26.2 8.4,2 20.1,2 20.1,26.2 "
   id="polygon628" /><polygon
   opacity="0.5"
   fill="none"
   stroke="#000000"
   stroke-linejoin="round"
   points="26,26.2 14,46.2 2,26.2 8.4,26.2 8.4,2       20.1,2 20.1,26.2 "
   id="polygon629" /><g
   id="g630"><radialGradient
   id="XMLID_7_"
   cx="8.4824"
   cy="1.6963"
   r="34.6417"
   fx="8.4824"
   fy="1.6963"
   gradientUnits="userSpaceOnUse"><stop
   offset="0"
   style="stop-color:#00FFFF"
   id="stop632" /><stop
   offset="0.1208"
   style="stop-color:#00FBFD"
   id="stop633" /><stop
   offset="0.2458"
   style="stop-color:#00EEF7"
   id="stop634" /><stop
   offset="0.3727"
   style="stop-color:#00DAEE"
   id="stop635" /><stop
   offset="0.5009"
   style="stop-color:#00BDE1"
   id="stop636" /><stop
   offset="0.6302"
   style="stop-color:#0097D0"
   id="stop637" /><stop
   offset="0.7604"
   style="stop-color:#0069BB"
   id="stop638" /><stop
   offset="0.8889"
   style="stop-color:#0034A3"
   id="stop639" /><stop
   offset="1"
   style="stop-color:#00008B"
   id="stop640" /><a:midPointStop
   offset="0"
   style="stop-color:#00FFFF"
   id="midPointStop641" /><a:midPointStop
   offset="0.7006"
   style="stop-color:#00FFFF"
   id="midPointStop642" /><a:midPointStop
   offset="1"
   style="stop-color:#00008B"
   id="midPointStop643" /></radialGradient><polygon
   fill="url(#XMLID_7_)"
   points="26,26.2 14,46.2 2,26.2 8.4,26.2 8.4,2 20.1,2 20.1,26.2 "
   id="polygon644" /><radialGradient
   id="XMLID_8_"
   cx="-53.5996"
   cy="19.1299"
   r="21.3469"
   fx="-53.5996"
   fy="19.1299"
   gradientTransform="matrix(0.6517 0 0 1.7577 44.0163 -30.6215)"
   gradientUnits="userSpaceOnUse"><stop
   offset="0"
   style="stop-color:#FFFFFF"
   id="stop646" /><stop
   offset="1"
   style="stop-color:#6DC6D4"
   id="stop647" /><a:midPointStop
   offset="0"
   style="stop-color:#FFFFFF"
   id="midPointStop648" /><a:midPointStop
   offset="0.5"
   style="stop-color:#FFFFFF"
   id="midPointStop649" /><a:midPointStop
   offset="1"
   style="stop-color:#6DC6D4"
   id="midPointStop650" /></radialGradient><path
   fill="url(#XMLID_8_)"
   d="M20,11.2l0-9.2H8.4l0.1,16.2C13.4,18.2,14.3,11.2,20,11.2z"
   id="path651" /></g></g></g><g
   id="Layer_1"
   i:knockout="Off"
   i:layer="yes"
   i:dimmedPercent="50"
   i:rgbTrio="#4F008000FFFF"><rect
   x="1.9"
   y="0.1"
   opacity="0.15"
   fill="none"
   width="48"
   height="48"
   id="rect653" /></g></svg>
