<?xml version="1.0" encoding="UTF-8" standalone="no"?>
<!DOCTYPE svg PUBLIC "-//W3C//DTD SVG 20010904//EN"
"http://www.w3.org/TR/2001/REC-SVG-20010904/DTD/svg10.dtd">
<!-- Created with Sodipodi ("http://www.sodipodi.com/") -->
<svg
   xmlns:x="http://ns.adobe.com/Extensibility/1.0/"
   xmlns:i="http://ns.adobe.com/AdobeIllustrator/10.0/"
   xmlns:graph="http://ns.adobe.com/Graphs/1.0/"
   xmlns="http://www.w3.org/2000/svg"
   xmlns:xlink="http://www.w3.org/1999/xlink"
   xmlns:a="http://ns.adobe.com/AdobeSVGViewerExtensions/3.0/"
   xmlns:sodipodi="http://sodipodi.sourceforge.net/DTD/sodipodi-0.dtd"
   xml:space="preserve"
   i:viewOrigin="190.377 514.8174"
   i:rulerOrigin="0 1"
   i:pageBounds="0 791 612 -1"
   width="51.8"
   height="48.2"
   viewBox="0 0 51.8 48.2"
   overflow="visible"
   enable-background="new 0 0 51.8 48.2"
   id="svg602"
   sodipodi:version="0.34"
   sodipodi:docname="C:\msys\home\su_blanc\mldonkey-2.5.12\src\gtk2\rsvg\state_up.svg"
   sodipodi:docbase="C:\msys\home\su_blanc\mldonkey-2.5.12\src\gtk2\rsvg"><defs
   id="defs649" /><sodipodi:namedview
   id="base" /><g
   id="Layer_2_1_"
   i:knockout="Off"
   i:layer="yes"
   i:dimmedPercent="3"
   i:rgbTrio="#FFFF4F004F00"><g
   id="g606"
   i:knockout="Off"><polygon
   id="polygon607"
   i:isolated="yes"
   i:knockout="Off"
   opacity="0.15"
   fill="none"
   stroke="#000000"
   stroke-width="4"
   stroke-linejoin="round"
   enable-background="new    "
   points="      49.8,22 37.8,2 25.8,22 32.2,22 32.2,46.2 43.8,46.2 43.8,22 " /><polygon
   id="polygon608"
   i:isolated="yes"
   i:knockout="Off"
   opacity="0.3"
   fill="none"
   stroke="#000000"
   stroke-width="2"
   stroke-linejoin="round"
   enable-background="new    "
   points="      49.8,22 37.8,2 25.8,22 32.2,22 32.2,46.2 43.8,46.2 43.8,22 " /><polygon
   id="polygon609"
   i:isolated="yes"
   i:knockout="Off"
   opacity="0.5"
   fill="none"
   stroke="#000000"
   stroke-linejoin="round"
   enable-background="new    "
   points="      49.8,22 37.8,2 25.8,22 32.2,22 32.2,46.2 43.8,46.2 43.8,22 " /><g
   id="g610"
   i:knockout="Off"><radialGradient
   id="polygon617_1_"
   cx="-79.8252"
   cy="506.5791"
   r="27.7531"
   fx="-79.8252"
   fy="506.5791"
   gradientTransform="matrix(0.9231 0 0 -1 106.5694 514.8184)"
   gradientUnits="userSpaceOnUse"><stop
   offset="0"
   style="stop-color:#72FF00"
   id="stop612" /><stop
   offset="1"
   style="stop-color:#008B00"
   id="stop613" /><a:midPointStop
   offset="0"
   style="stop-color:#72FF00"
   id="midPointStop614" /><a:midPointStop
   offset="0.5"
   style="stop-color:#72FF00"
   id="midPointStop615" /><a:midPointStop
   offset="1"
   style="stop-color:#008B00"
   id="midPointStop616" /></radialGradient><polygon
   id="polygon617"
   fill="url(#polygon617_1_)"
   points="49.8,22 37.8,2 25.8,22 32.2,22 32.2,46.2 43.8,46.2 43.8,22 " /><linearGradient
   id="path624_1_"
   gradientUnits="userSpaceOnUse"
   x1="-82.4316"
   y1="505.9131"
   x2="-71.4862"
   y2="494.5521"
   gradientTransform="matrix(1 0 0 -1 114.377 514.8184)"><stop
   offset="0"
   style="stop-color:#FFFFFF"
   id="stop619" /><stop
   offset="1"
   style="stop-color:#00FF00"
   id="stop620" /><a:midPointStop
   offset="0"
   style="stop-color:#FFFFFF"
   id="midPointStop621" /><a:midPointStop
   offset="0.5"
   style="stop-color:#FFFFFF"
   id="midPointStop622" /><a:midPointStop
   offset="1"
   style="stop-color:#00FF00"
   id="midPointStop623" /></linearGradient><path
   id="path624"
   fill="url(#path624_1_)"
   d="M37.7,15.2c3.9,0,5.2,2.7,9.7,2.8L37.7,2l-9.5,15.9       C33.8,17.8,33.9,15.2,37.7,15.2z" /></g></g><g
   id="g625"><polygon
   id="polygon626"
   i:isolated="yes"
   i:knockout="Off"
   opacity="0.15"
   fill="none"
   stroke="#000000"
   stroke-width="4"
   stroke-linejoin="round"
   enable-background="new    "
   points="      26,26.2 14,46.2 2,26.2 8.4,26.2 8.4,2 20.1,2 20.1,26.2 " /><polygon
   id="polygon627"
   i:isolated="yes"
   i:knockout="Off"
   opacity="0.3"
   fill="none"
   stroke="#000000"
   stroke-width="2"
   stroke-linejoin="round"
   enable-background="new    "
   points="      26,26.2 14,46.2 2,26.2 8.4,26.2 8.4,2 20.1,2 20.1,26.2 " /><polygon
   id="polygon628"
   i:isolated="yes"
   i:knockout="Off"
   opacity="0.5"
   fill="none"
   stroke="#000000"
   stroke-linejoin="round"
   enable-background="new    "
   points="      26,26.2 14,46.2 2,26.2 8.4,26.2 8.4,2 20.1,2 20.1,26.2 " /><radialGradient
   id="polygon643_1_"
   cx="-106.2539"
   cy="513.251"
   r="45.1843"
   fx="-106.2539"
   fy="513.251"
   gradientTransform="matrix(1 0 0 -1 114.377 514.8184)"
   gradientUnits="userSpaceOnUse"><stop
   offset="0"
   style="stop-color:#FFFFFF"
   id="stop630" /><stop
   offset="0.1795"
   style="stop-color:#F6F6F6"
   id="stop631" /><stop
   offset="0.4665"
   style="stop-color:#DFDFDF"
   id="stop632" /><stop
   offset="0.8231"
   style="stop-color:#B9B9B9"
   id="stop633" /><stop
   offset="1"
   style="stop-color:#A4A4A4"
   id="stop634" /><a:midPointStop
   offset="0"
   style="stop-color:#FFFFFF"
   id="midPointStop635" /><a:midPointStop
   offset="0.6045"
   style="stop-color:#FFFFFF"
   id="midPointStop636" /><a:midPointStop
   offset="1"
   style="stop-color:#A4A4A4"
   id="midPointStop637" /></radialGradient><polygon
   id="polygon643"
   fill="url(#polygon643_1_)"
   points="26,26.2 14,46.2 2,26.2 8.4,26.2 8.4,2 20.1,2 20.1,26.2 " /><radialGradient
   id="path650_1_"
   cx="-127.3589"
   cy="495.6875"
   r="21.3475"
   fx="-127.3589"
   fy="495.6875"
   gradientTransform="matrix(0.6517 0 0 -1.7577 92.0847 874.2738)"
   gradientUnits="userSpaceOnUse"><stop
   offset="0"
   style="stop-color:#FFFFFF"
   id="stop640" /><stop
   offset="1"
   style="stop-color:#CACACA"
   id="stop641" /><a:midPointStop
   offset="0"
   style="stop-color:#FFFFFF"
   id="midPointStop642" /><a:midPointStop
   offset="0.5"
   style="stop-color:#FFFFFF"
   id="midPointStop643" /><a:midPointStop
   offset="1"
   style="stop-color:#CACACA"
   id="midPointStop644" /></radialGradient><path
   id="path650"
   fill="url(#path650_1_)"
   d="M20,11.2V2H8.4l0.1,16.2C13.4,18.2,14.3,11.2,20,11.2z" /></g><rect
   id="rect652"
   x="1.9"
   y="0.1"
   i:knockout="Off"
   fill="none"
   width="48"
   height="48" /></g><g
   id="Layer_1"
   i:knockout="Off"
   i:layer="yes"
   i:dimmedPercent="50"
   i:rgbTrio="#4F008000FFFF" /></svg>
