<?xml version="1.0" encoding="UTF-8" standalone="no"?>
<!DOCTYPE svg PUBLIC "-//W3C//DTD SVG 20010904//EN"
"http://www.w3.org/TR/2001/REC-SVG-20010904/DTD/svg10.dtd">
<!-- Created with Sodipodi ("http://www.sodipodi.com/") -->
<svg
   xmlns:x="http://ns.adobe.com/Extensibility/1.0/"
   xmlns:i="http://ns.adobe.com/AdobeIllustrator/10.0/"
   xmlns:graph="http://ns.adobe.com/Graphs/1.0/"
   xmlns="http://www.w3.org/2000/svg"
   xmlns:xlink="http://www.w3.org/1999/xlink"
   xmlns:a="http://ns.adobe.com/AdobeSVGViewerExtensions/3.0/"
   xml:space="preserve"
   i:viewOrigin="231.4883 371.4033"
   i:rulerOrigin="0 0"
   i:pageBounds="0 792 612 0"
   width="48"
   height="48"
   viewBox="0 0 48 48"
   overflow="visible"
   enable-background="new 0 0 48 48"
   xmlns:sodipodi="http://sodipodi.sourceforge.net/DTD/sodipodi-0.dtd"
   id="svg602"
   sodipodi:version="0.34"
   sodipodi:docname="C:\msys\home\su_blanc\mldonkey-2.5.12\src\gtk2\rsvg\stock_submit_search.svg"><defs
   id="defs721" /><sodipodi:namedview
   id="base" /><g
   id="Layer_x0020_1"
   i:knockout="Off"
   i:layer="yes"
   i:dimmedPercent="50"
   i:rgbTrio="#4F008000FFFF"><circle
   id="path622_6_"
   i:isolated="yes"
   i:knockout="Off"
   opacity="0.1"
   enable-background="new    "
   cx="24"
   cy="24"
   r="24" /><circle
   id="path622_4_"
   i:isolated="yes"
   i:knockout="Off"
   opacity="0.2"
   enable-background="new    "
   cx="24"
   cy="24"
   r="23.5" /><circle
   id="path622_5_"
   i:isolated="yes"
   i:knockout="Off"
   opacity="0.4"
   enable-background="new    "
   cx="24"
   cy="24"
   r="23" /><radialGradient
   id="path622_1_"
   cx="-1476.9839"
   cy="-323.0557"
   r="245.9913"
   fx="-1476.9839"
   fy="-323.0557"
   gradientTransform="matrix(0.1518 0 0 -0.1518 253.9419 -8.5319)"
   gradientUnits="userSpaceOnUse"><stop
   offset="0"
   style="stop-color:#90B2D4"
   id="stop610" /><stop
   offset="2.730000e-002"
   style="stop-color:#86A7CF"
   id="stop611" /><stop
   offset="0.3146"
   style="stop-color:#28459C"
   id="stop612" /><stop
   offset="0.3576"
   style="stop-color:#243B8F"
   id="stop613" /><stop
   offset="0.4842"
   style="stop-color:#1D2570"
   id="stop614" /><stop
   offset="0.5562"
   style="stop-color:#1A1E66"
   id="stop615" /><stop
   offset="0.7238"
   style="stop-color:#1B1F65"
   id="stop616" /><stop
   offset="0.7842"
   style="stop-color:#1E2265"
   id="stop617" /><stop
   offset="0.8272"
   style="stop-color:#262663"
   id="stop618" /><stop
   offset="0.8621"
   style="stop-color:#2E2D61"
   id="stop619" /><stop
   offset="0.8919"
   style="stop-color:#36335D"
   id="stop620" /><stop
   offset="0.9183"
   style="stop-color:#3C3856"
   id="stop621" /><stop
   offset="0.9422"
   style="stop-color:#3D394C"
   id="stop622" /><stop
   offset="0.9641"
   style="stop-color:#35323B"
   id="stop623" /><stop
   offset="0.9837"
   style="stop-color:#201F21"
   id="stop624" /><stop
   offset="1"
   style="stop-color:#000000"
   id="stop625" /><a:midPointStop
   offset="0"
   style="stop-color:#90B2D4"
   id="midPointStop626" /><a:midPointStop
   offset="0.5"
   style="stop-color:#90B2D4"
   id="midPointStop627" /><a:midPointStop
   offset="2.730000e-002"
   style="stop-color:#86A7CF"
   id="midPointStop628" /><a:midPointStop
   offset="0.5"
   style="stop-color:#86A7CF"
   id="midPointStop629" /><a:midPointStop
   offset="0.3146"
   style="stop-color:#28459C"
   id="midPointStop630" /><a:midPointStop
   offset="0.5"
   style="stop-color:#28459C"
   id="midPointStop631" /><a:midPointStop
   offset="0.3576"
   style="stop-color:#243B8F"
   id="midPointStop632" /><a:midPointStop
   offset="0.5"
   style="stop-color:#243B8F"
   id="midPointStop633" /><a:midPointStop
   offset="0.4842"
   style="stop-color:#1D2570"
   id="midPointStop634" /><a:midPointStop
   offset="0.5"
   style="stop-color:#1D2570"
   id="midPointStop635" /><a:midPointStop
   offset="0.5562"
   style="stop-color:#1A1E66"
   id="midPointStop636" /><a:midPointStop
   offset="0.5"
   style="stop-color:#1A1E66"
   id="midPointStop637" /><a:midPointStop
   offset="0.7238"
   style="stop-color:#1B1F65"
   id="midPointStop638" /><a:midPointStop
   offset="0.5"
   style="stop-color:#1B1F65"
   id="midPointStop639" /><a:midPointStop
   offset="0.7842"
   style="stop-color:#1E2265"
   id="midPointStop640" /><a:midPointStop
   offset="0.5"
   style="stop-color:#1E2265"
   id="midPointStop641" /><a:midPointStop
   offset="0.8272"
   style="stop-color:#262663"
   id="midPointStop642" /><a:midPointStop
   offset="0.5"
   style="stop-color:#262663"
   id="midPointStop643" /><a:midPointStop
   offset="0.8621"
   style="stop-color:#2E2D61"
   id="midPointStop644" /><a:midPointStop
   offset="0.5"
   style="stop-color:#2E2D61"
   id="midPointStop645" /><a:midPointStop
   offset="0.8919"
   style="stop-color:#36335D"
   id="midPointStop646" /><a:midPointStop
   offset="0.5"
   style="stop-color:#36335D"
   id="midPointStop647" /><a:midPointStop
   offset="0.9183"
   style="stop-color:#3C3856"
   id="midPointStop648" /><a:midPointStop
   offset="0.5"
   style="stop-color:#3C3856"
   id="midPointStop649" /><a:midPointStop
   offset="0.9422"
   style="stop-color:#3D394C"
   id="midPointStop650" /><a:midPointStop
   offset="0.5"
   style="stop-color:#3D394C"
   id="midPointStop651" /><a:midPointStop
   offset="0.9641"
   style="stop-color:#35323B"
   id="midPointStop652" /><a:midPointStop
   offset="0.5"
   style="stop-color:#35323B"
   id="midPointStop653" /><a:midPointStop
   offset="0.9837"
   style="stop-color:#201F21"
   id="midPointStop654" /><a:midPointStop
   offset="0.5"
   style="stop-color:#201F21"
   id="midPointStop655" /><a:midPointStop
   offset="1"
   style="stop-color:#000000"
   id="midPointStop656" /></radialGradient><circle
   id="path622"
   fill="url(#path622_1_)"
   cx="24"
   cy="24"
   r="22.5" /><path
   i:isolated="yes"
   i:knockout="Off"
   opacity="0.5"
   enable-background="new    "
   d="M17.5,5.9c-0.1,0-0.2,0-0.3,0.1     C17.4,5.9,17.6,5.9,17.5,5.9z M24,7.1l0.1-0.9l-1,0.1l0.1,0.9L24,7.1L24,7.1z M12.7,23.5c-0.2-0.2-0.1-1-0.1-1s-3-1.6-6.3-2.5     c-0.4-0.1-0.2-0.9,0.2-1.3l-0.1-0.9c0-0.5,0.7-2.6,1.4-2.8c0.7-0.2-0.1,1.3-0.1,1.3L7,16.7c0,0,0.9,1,1.1,1     c0.2,0,0.5-0.5,0.5-0.5l-0.9-0.6l0.9-0.4l0.1-0.3h0.1l1.4-2.2c1-0.4,2.2-0.9,2.4-1c0.3-0.1,2.1-1.2,2.5-1.4     c0.3-0.3,1-0.3,1.3-0.3c0.3,0,0.7-0.1,0.7-0.8c0.1-0.7,0.3-0.8,0.5-0.6c0.2,0.2-0.2,0.5,0.3,0.6c0.5,0.1,0.9,0.4,1.2,0.1     c0.2-0.2-0.1-0.5-0.3-0.7h3.7l0.4-1.1L22,8.4l-3.2-0.3V7.7h-0.3c0.3-1.9,2.4-1.6,0.9-2.7c-0.1-0.1-1.4,2.1-1.8,2.1     C17,7,16.2,7,16,7.2c-0.2,0.3,0.5-0.9,1.1-1.3c-1,0.3-4.2,1.4-7.6,5C6.3,14.4,5,19,5,19.2c0,0.3,0.7,0.4,0.7,0.8     c0.1,0.4-1.3,1.6-1.3,2.3c0,0.3-0.3,4.2,0.8,7.4c1.3,3.7,4.1,6.9,4.4,7.1l0.7-0.3c0,0-1.5-2.7-1.6-3c-0.1-0.3,1.7-3.9,2.6-3.8     c0.9,0.1,0.7,0.4,1.2,0.1s0.9-2.9,1.5-3.2c0.6-0.3,1.3-0.6,1.2-1.2C15.2,24.8,12.9,23.6,12.7,23.5L12.7,23.5z M27.2,4.9l-1.8-0.6     l0.3,1L27.2,4.9z M20.4,7.2c0.2,0,4.2-2.6,3.8-2.7c-0.4-0.1-0.5,0-1.5-0.1c-1.1-0.1-2.2,1.5-2.5,1.8C20,6.4,20.1,7.2,20.4,7.2z      M38.8,26.3l0.5-0.7l-0.5-0.2l-0.4,0.5l-0.5,0.7l0.4,0.2L38.8,26.3z M41,28.4l-0.1-1h-0.8L40,28.1L39.2,28L39,27.2L38.6,27     l-0.5,0.5l-0.4-0.1l-0.1,0.4l0.5,0.2v4l1.8,0.4c0,0.1-0.1,0.1-0.1,0.2c-0.1,0.4,0.5,0.6,1,0.4c0.2-0.1,0.7-0.6,1-1.4     c0.5-1.1,0.9-2.6,1-3.1l0.2-0.4l-1.3,0.5L41,28.4L41,28.4z M43.7,21.1l-0.3-0.7c-0.4-2.2-1.3-5.1-3.3-8.1     c-3-4.5-11.2-7.1-11.2-7.1l-0.4,0.5l-0.3-0.4l-0.6-0.2v0.5l0.6,0.5l-0.4,0.2l-1.5,0.1l-3.4,1.8l0.3,1.5l-0.4,0.1l-0.2,0.3     l1.1,1.6l0.1,0.5l-0.9,0.2v1.1l-0.5,0.1l0.1,0.9l-4.4,3l0.1,1.7c0.3,0.4,2.8,3,2.8,3s2.9,0.1,3.5-0.2c0.6-0.4,0.2,0.4,0.4,0.5     c0.2,0.1,0.3,1.5,0.5,1.6c0.2,0.1,0,0.9,0.3,1.1c0.3,0.2,0.3,3.2,0.3,3.2s1.5,2.6,1.5,3.3s-0.1,0.6,1.2,0.5     c1.2-0.1,1.5-0.5,1.7-0.7c0.3-0.2,0.3-0.6,0.5-1c0.3-0.4,0.7-1.8,1.3-2.2c0.6-0.5,2.1-0.9,2.3-1.7c0.1-0.9,0.7-1.5,0.7-1.5     l2.8-2.9l-0.1,0.4l-0.1,1.5l0.8-0.3l-0.1-1.6l-0.3-0.3l0,0c0,0-0.2-0.4-0.5-0.4c-0.3,0-1.8,0.4-2.1,0.3c-0.3-0.1-1.4-3-1.5-3.1     c-0.2-0.1-1.4-2.1-1.4-2.1s2.8,3.4,3.3,4.7c0.3,0.8,1.2,0.1,2-0.8l0.2,0.5l0.5-0.1l-0.1-0.6h0.6v0.9L39,21.7l-0.1,0.8l0.5,0.5     l0.3-0.4l0.8-0.8l1-0.5l0.3,0.5l0.1,0.7l-0.3,0.7l-0.5,0.4l-0.3,1.1v0.5l-0.6-0.4l-0.1-1.2l-0.8,0.1l-0.4,1l0.6,0.9l1.4,0.2     l1.1-1l0.1-2l0.5-0.6c0.3,0.8,0.5,1.7,0.5,2.5c0,0.9,0.4-0.6,0.1-3.3L43.7,21.1L43.7,21.1L43.7,21.1z M27.5,14.9L24,14.8l1.5-1.2     h0.8l1.2,0.8V14.9L27.5,14.9z M31.7,14.5V15h-1.5l0.1,0.4l-0.9,0.1l-0.1,0.3l-0.6-0.1l-1.2-0.2l0.2-0.3l0.2-0.4l0.6-0.7l0.3,0.5     l1-0.1l0.5-0.5l2,0.4L31.7,14.5L31.7,14.5L31.7,14.5z M31.9,13.7l-0.8,0.1L31,13.3l1-0.1l0.1-0.5l0.7,0.7L31.9,13.7L31.9,13.7z      M35.6,32.6L35.1,33l0.1,0.9h0.6v-0.8l0.5-0.7V31L36,30.9L35.6,32.6L35.6,32.6z M31.3,30.8c0,0-0.5,0.1,0.1,0.3     c0.5,0.2,2.6-3,2.6-3l-1.7,1.1L31.3,30.8L31.3,30.8L31.3,30.8z M27.8,42.4L27.4,42l-0.8-0.1l-0.1,0.4l-1-0.1l-0.1-0.5h-0.8     l-0.8,0.5h-1.5l-0.1-0.4l-2.4-0.2L19.4,42l-1-0.2l-0.1-0.9l-0.5-0.1l-0.5,0.9l-1.7-0.1c0.3,0.1,2.9,1.7,6.9,2     c5.3,0.4,7.8-0.9,7.8-0.9l-0.2-0.1L27.8,42.4L27.8,42.4L27.8,42.4z"
   id="path658" /><path
   fill="#FFFFFF"
   d="M16.8,3.9c-0.1,0-0.2,0-0.4,0.1C16.7,4,16.8,3.9,16.8,3.9z M23.9,5.3l0.1-1l-1.1,0.1l0.1,1L23.9,5.3     L23.9,5.3z M11.4,23.5c-0.2-0.2-0.1-1.1-0.1-1.1s-3.3-1.8-7-2.8c-0.4-0.1-0.2-1.1,0.2-1.4l-0.1-1c-0.1-0.5,0.7-2.9,1.6-3.1     c0.8-0.2-0.1,1.4-0.1,1.4L5.1,16c0,0,1,1.1,1.2,1.1c0.2,0,0.6-0.6,0.6-0.6l-1-0.7l1-0.4v-0.3L7.1,15l1.6-2.4     c1.1-0.5,2.5-1,2.6-1.1c0.3-0.1,2.4-1.3,2.7-1.6c0.3-0.3,1.2-0.2,1.5-0.2s0.7-0.1,0.8-0.9c0.1-0.8,0.4-0.9,0.6-0.7     c0.2,0.2-0.2,0.6,0.3,0.7c0.5,0.1,1,0.5,1.3,0.1c0.3-0.3-0.1-0.5-0.3-0.8h4.1l0.4-1.3l-1-0.1l-3.6-0.4V6h-0.3     c0.4-2.1,2.7-1.8,1-3c-0.1-0.1-1.6,2.4-2,2.3c-0.7-0.1-1.6-0.1-1.8,0.1c-0.3,0.3,0.6-1,1.3-1.4c-1.1,0.3-4.7,1.6-8.5,5.6     c-3.6,3.8-5,9-5,9.2c0,0.3,0.7,0.5,0.8,0.9c0.1,0.4-1.4,1.8-1.4,2.5c0,0.3-0.3,4.6,0.9,8.2c1.6,4.2,4.6,7.7,5,7.9l0.7-0.4     c0,0-1.7-3-1.8-3.3c-0.1-0.3,1.9-4.3,2.9-4.2c1,0.1,0.7,0.4,1.3,0.1c0.6-0.3,1-3.2,1.6-3.5c0.7-0.3,1.4-0.6,1.3-1.3     C14.2,25,11.7,23.7,11.4,23.5L11.4,23.5z M27.5,2.9l-2-0.7l0.4,1.1L27.5,2.9z M20,5.5c0.2,0,4.7-2.9,4.2-3     c-0.4-0.1-0.5,0-1.7-0.1c-1.2-0.1-2.4,1.7-2.7,2C19.5,4.6,19.6,5.5,20,5.5z M40.4,26.6l0.6-0.7l-0.6-0.2L40,26.2l-0.5,0.7     l0.4,0.2L40.4,26.6z M42.9,29l-0.1-1.1h-0.9l-0.1,0.8l-0.9-0.1l-0.2-0.9l-0.4-0.3l-0.5,0.7L39.3,28l-0.2,0.4l0.6,0.1v4.4l2,0.5     c0,0.1-0.1,0.1-0.1,0.2c-0.1,0.5,0.6,0.7,1.1,0.5c0.2-0.1,0.8-0.7,1.1-1.6c0.5-1.2,1-2.8,1.1-3.4l0.2-0.5l-1.4,0.5L42.9,29     L42.9,29z M45.9,20.9l-0.4-0.8c-0.4-2.5-1.5-5.7-3.6-9c-3.3-5-12.4-7.8-12.4-7.8L29,3.9l-0.3-0.5L28,3.1v0.6l0.6,0.5l-0.4,0.2     l-1.6,0.1l-3.7,2l0.4,1.6l-0.4,0.1l-0.2,0.3l1.2,1.8l0.1,0.6l-1,0.2v1.2l-0.6,0.1l0.1,0.9l-5,3.8l0.1,1.9     c0.4,0.5,3.2,3.3,3.2,3.3s3.2,0.1,3.9-0.3c0.7-0.4,0.2,0.4,0.4,0.6c0.2,0.2,0.3,1.6,0.5,1.8c0.2,0.1,0,0.9,0.3,1.2     c0.3,0.3,0.3,3.5,0.3,3.5s1.7,2.9,1.7,3.6s-0.1,0.7,1.3,0.6c1.4-0.1,1.6-0.6,1.9-0.8c0.3-0.2,0.3-0.7,0.6-1.1     c0.3-0.4,0.8-2,1.4-2.5s2.4-0.9,2.5-1.9c0.1-0.9,0.8-1.7,0.8-1.7l3.1-3.3l-0.1,0.4l-0.1,1.7l0.9-0.3l0.1-1.7L40,21.7v-0.1     c0,0-0.2-0.4-0.5-0.4s-2,0.4-2.3,0.3c-0.3-0.1-1.5-3.3-1.7-3.4c-0.2-0.1-1.6-2.4-1.6-2.4s3.2,3.8,3.7,5.3     c0.3,0.9,1.4,0.1,2.3-0.8l0.2,0.6l0.6-0.1L40.6,20h0.6v1L41,21.5l-0.1,0.9l0.6,0.5l0.3-0.5l0.9-0.9l1.1-0.5l0.3,0.5l0.1,0.7     L43.9,23l-0.6,0.5L43,24.7v0.6l-0.6-0.2l-0.1-1.3l-0.9,0.1L41,25l0.6,0.9l1.5,0.2l1.2-1.2l0.1-2.2l0.5-0.7     c0.4,0.9,0.6,1.9,0.6,2.7c0,1,0.4-0.7,0.1-3.6L45.9,20.9L45.9,20.9L45.9,20.9z M27.9,14L24,13.9l1.6-1.3h0.9l1.4,0.9V14L27.9,14z      M32.6,13.5v0.6H31l0.1,0.4l-1,0.1L30,14.9l-0.7-0.1L28,14.5l0.2-0.3l0.2-0.4l0.7-0.7l0.3,0.5l1.1-0.1l0.6-0.6l2.2,0.4L32.6,13.5     L32.6,13.5L32.6,13.5z M32.7,12.6l-0.9,0.1l-0.1-0.6l1.1-0.1l0.1-0.6l0.8,0.8L32.7,12.6L32.7,12.6z M36.9,33.6L36.4,34l0.1,1h0.6     v-0.9l0.6-0.7v-1.6l-0.4-0.1L36.9,33.6L36.9,33.6z M32.1,31.6c0,0-0.5,0.1,0.1,0.3c0.6,0.2,2.9-3.3,2.9-3.3l-2,1.3L32.1,31.6     L32.1,31.6L32.1,31.6z M28.2,44.6l-0.4-0.5L26.9,44l-0.1,0.4l-1.1-0.1l-0.1-0.5h-0.9l-0.9,0.5h-1.7L22,43.9l-2.6-0.3L19,44     l-1.1-0.3l-0.1-1l-0.5-0.1l-0.6,1l-1.9-0.1c0.3,0.2,3.2,1.9,7.7,2.2c5.9,0.5,8.7-1,8.7-1L31,44.5L28.2,44.6L28.2,44.6L28.2,44.6z     "
   id="path659" /><circle
   id="path622_2_"
   i:isolated="yes"
   i:knockout="Off"
   opacity="0.23"
   fill="#000092"
   enable-background="new    "
   cx="24"
   cy="24"
   r="22.5" /><ellipse
   id="path622_3_"
   i:isolated="yes"
   i:knockout="Off"
   opacity="0.5"
   fill="#FFFFFF"
   enable-background="new    "
   cx="24"
   cy="13"
   rx="16.2"
   ry="10.6" /></g><g
   id="Layer_2_1_"
   i:layer="yes"
   i:dimmedPercent="3"
   i:rgbTrio="#FFFF4F004F00"><g
   id="g606"
   i:isolated="yes"
   i:knockout="Off"
   enable-background="new    "><g
   id="g666"
   i:knockout="Off"><path
   fill="#1C1B3C"
   d="M28.4,12.8c-8.5,0-15.5,6.7-15.2,15.2c0,8.5,6.7,15.2,15.2,15.2S43.6,36.5,43.6,28       C43.7,19.5,36.9,12.8,28.4,12.8z M28.4,38c-5.5,0-10-4.4-10-10c-0.2-5.5,4.4-10,10-10s10,4.4,10,10S34,38,28.4,38z"
   id="path665" /></g></g><path
   fill="#919191"
   d="M47.1,42.6l-4.8-4.8c-0.7-0.7-2-1.1-3.1-0.7c2-2.4,3.3-5.5,3.3-9.1c0-7.8-6.3-14.2-14.2-14.2     C20.5,13.8,14,20.1,14,28c0,7.8,6.3,14.2,14.2,14.2c3.3,0,6.5-1.3,9.1-3.1c-0.4,1.1-0.2,2.2,0.7,3.1l4.8,4.8     c1.1,1.1,3.1,1.1,4.2,0s1.1-3.1,0-4.3v-0.1H47.1z M28.4,40.4c-6.8,0-12.2-5.5-12.2-12.2c0-6.8,5.5-12.2,12.2-12.2     c6.8,0,12.2,5.5,12.2,12.2C40.6,35.1,35.1,40.4,28.4,40.4z"
   id="path666" /><path
   id="path617"
   i:isolated="yes"
   i:knockout="Off"
   opacity="0.5"
   fill="none"
   stroke="#FFFFFF"
   stroke-width="0.3429"
   stroke-linecap="round"
   enable-background="new    "
   d="     M14.9,27.9c0-7.2,5.9-13.1,13.1-13.1" /><path
   id="path618"
   i:isolated="yes"
   i:knockout="Off"
   opacity="0.5"
   fill="none"
   stroke="#FFFFFF"
   stroke-width="0.3429"
   stroke-linecap="round"
   enable-background="new    "
   d="     M41,29.2c0,6.5-5.2,11.6-11.6,11.6" /><radialGradient
   id="path634_1_"
   cx="-1337.2129"
   cy="373.3184"
   r="8.012"
   fx="-1337.2129"
   fy="373.3184"
   gradientTransform="matrix(2 0 0 -2 2706.9023 780.1025)"
   gradientUnits="userSpaceOnUse"><stop
   offset="0"
   style="stop-color:#FFFFFF"
   id="stop670" /><stop
   offset="0.7303"
   style="stop-color:#3F4A8E"
   id="stop671" /><stop
   offset="0.8388"
   style="stop-color:#3A4A92"
   id="stop672" /><stop
   offset="0.997"
   style="stop-color:#2C499E"
   id="stop673" /><stop
   offset="1"
   style="stop-color:#2C499E"
   id="stop674" /><a:midPointStop
   offset="0"
   style="stop-color:#FFFFFF"
   id="midPointStop675" /><a:midPointStop
   offset="0.5"
   style="stop-color:#FFFFFF"
   id="midPointStop676" /><a:midPointStop
   offset="0.7303"
   style="stop-color:#3F4A8E"
   id="midPointStop677" /><a:midPointStop
   offset="0.5"
   style="stop-color:#3F4A8E"
   id="midPointStop678" /><a:midPointStop
   offset="0.8388"
   style="stop-color:#3A4A92"
   id="midPointStop679" /><a:midPointStop
   offset="0.5"
   style="stop-color:#3A4A92"
   id="midPointStop680" /><a:midPointStop
   offset="0.997"
   style="stop-color:#2C499E"
   id="midPointStop681" /><a:midPointStop
   offset="0.5"
   style="stop-color:#2C499E"
   id="midPointStop682" /><a:midPointStop
   offset="1"
   style="stop-color:#2C499E"
   id="midPointStop683" /></radialGradient><path
   id="path634"
   i:isolated="yes"
   i:knockout="Off"
   opacity="0.47"
   fill="url(#path634_1_)"
   enable-background="new    "
   d="     M38.4,28c0,5.5-4.4,10-10,10s-10-4.4-10-10c-0.2-5.5,4.4-10,10-10S38.4,22.5,38.4,28z" /><linearGradient
   id="path641_1_"
   gradientUnits="userSpaceOnUse"
   x1="-1368.5386"
   y1="356.1982"
   x2="-1360.7245"
   y2="348.384"
   gradientTransform="matrix(1 0 0 -1 1390.957 378.002)"><stop
   offset="0"
   style="stop-color:#FFFFFF"
   id="stop686" /><stop
   offset="1"
   style="stop-color:#A8BDDB"
   id="stop687" /><a:midPointStop
   offset="0"
   style="stop-color:#FFFFFF"
   id="midPointStop688" /><a:midPointStop
   offset="0.5"
   style="stop-color:#FFFFFF"
   id="midPointStop689" /><a:midPointStop
   offset="1"
   style="stop-color:#A8BDDB"
   id="midPointStop690" /></linearGradient><path
   id="path641"
   fill="url(#path641_1_)"
   d="M19.2,28c0-5,4.1-9.2,9.2-9.2C40.8,18.8,19.2,39.1,19.2,28z" /><path
   id="path642"
   i:isolated="yes"
   i:knockout="Off"
   opacity="0.48"
   fill="url(#path641_1_)"
   enable-background="new    "
   d="     M19.2,28c0-5,4.1-9.2,9.2-9.2C40.8,18.8,19.2,39.1,19.2,28z" /><linearGradient
   id="circle642_1_"
   gradientUnits="userSpaceOnUse"
   x1="-765.3901"
   y1="333.5703"
   x2="-769.6335"
   y2="329.327"
   gradientTransform="matrix(1 0 0 -1 807.5566 371.4043)"><stop
   offset="0"
   style="stop-color:#FF0000"
   id="stop694" /><stop
   offset="1"
   style="stop-color:#810000"
   id="stop695" /><a:midPointStop
   offset="0"
   style="stop-color:#FF0000"
   id="midPointStop696" /><a:midPointStop
   offset="0.5"
   style="stop-color:#FF0000"
   id="midPointStop697" /><a:midPointStop
   offset="1"
   style="stop-color:#810000"
   id="midPointStop698" /></linearGradient><circle
   id="circle642"
   fill="url(#circle642_1_)"
   cx="40"
   cy="40"
   r="3" /><linearGradient
   id="circle649_1_"
   gradientUnits="userSpaceOnUse"
   x1="-760.3906"
   y1="328.5693"
   x2="-764.6339"
   y2="324.326"
   gradientTransform="matrix(1 0 0 -1 807.5566 371.4043)"><stop
   offset="0"
   style="stop-color:#FF0000"
   id="stop701" /><stop
   offset="1"
   style="stop-color:#810000"
   id="stop702" /><a:midPointStop
   offset="0"
   style="stop-color:#FF0000"
   id="midPointStop703" /><a:midPointStop
   offset="0.5"
   style="stop-color:#FF0000"
   id="midPointStop704" /><a:midPointStop
   offset="1"
   style="stop-color:#810000"
   id="midPointStop705" /></linearGradient><circle
   id="circle649"
   fill="url(#circle649_1_)"
   cx="45"
   cy="45"
   r="3" /><linearGradient
   id="polygon615_1_"
   gradientUnits="userSpaceOnUse"
   x1="-1346.3169"
   y1="337.6416"
   x2="-1350.5385"
   y2="333.42"
   gradientTransform="matrix(1 0 0 -1 1390.957 378.002)"><stop
   offset="0"
   style="stop-color:#FF3200"
   id="stop708" /><stop
   offset="0.3315"
   style="stop-color:#FFED00"
   id="stop709" /><stop
   offset="1"
   style="stop-color:#FF3000"
   id="stop710" /><a:midPointStop
   offset="0"
   style="stop-color:#FF3200"
   id="midPointStop711" /><a:midPointStop
   offset="0.5"
   style="stop-color:#FF3200"
   id="midPointStop712" /><a:midPointStop
   offset="0.3315"
   style="stop-color:#FFED00"
   id="midPointStop713" /><a:midPointStop
   offset="0.5"
   style="stop-color:#FFED00"
   id="midPointStop714" /><a:midPointStop
   offset="1"
   style="stop-color:#FF3000"
   id="midPointStop715" /></linearGradient><polygon
   id="polygon615"
   fill="url(#polygon615_1_)"
   points="42.3,37.9 38,42.2 42.8,47 47.1,42.7 " /><line
   id="line616"
   i:isolated="yes"
   i:knockout="Off"
   opacity="0.54"
   fill="none"
   stroke="#FFFFFF"
   stroke-width="0.6858"
   stroke-linecap="round"
   enable-background="new    "
   x1="41"
   y1="39.4"
   x2="45.4"
   y2="43.8" /></g><g
   id="Layer_3"
   i:layer="yes"
   i:dimmedPercent="3"
   i:rgbTrio="#4F00FFFF4F00"><rect
   id="rect606"
   i:knockout="Off"
   fill="none"
   width="48"
   height="48" /></g></svg>
