<?xml version="1.0" encoding="UTF-8" standalone="no"?>
<!DOCTYPE svg PUBLIC "-//W3C//DTD SVG 20010904//EN"
"http://www.w3.org/TR/2001/REC-SVG-20010904/DTD/svg10.dtd">
<!-- Created with Sodipodi ("http://www.sodipodi.com/") -->
<svg
   xmlns:x="http://ns.adobe.com/Extensibility/1.0/"
   xmlns:i="http://ns.adobe.com/AdobeIllustrator/10.0/"
   xmlns:graph="http://ns.adobe.com/Graphs/1.0/"
   xmlns="http://www.w3.org/2000/svg"
   xmlns:xlink="http://www.w3.org/1999/xlink"
   xmlns:a="http://ns.adobe.com/AdobeSVGViewerExtensions/3.0/"
   xml:space="preserve"
   i:viewOrigin="269.9033 419.4502"
   i:rulerOrigin="0 0"
   i:pageBounds="0 792 612 0"
   width="48"
   height="48"
   viewBox="0 0 48 48"
   overflow="visible"
   enable-background="new 0 0 48 48"
   xmlns:sodipodi="http://sodipodi.sourceforge.net/DTD/sodipodi-0.dtd"
   id="svg602"
   sodipodi:version="0.34"
   sodipodi:docname="C:\msys\home\su_blanc\mldonkey-2.5.12\src\gtk2\rsvg\stock_password.svg"><defs
   id="defs706" /><sodipodi:namedview
   id="namedview705" /><g
   id="g568"
   i:knockout="Off"
   i:layer="yes"
   i:dimmedPercent="50"
   i:rgbTrio="#4F008000FFFF"
   opacity="0.5"><linearGradient
   id="XMLID_1_"
   gradientUnits="userSpaceOnUse"
   x1="-791.7744"
   y1="-1321.3691"
   x2="-791.7746"
   y2="3005.6885"
   gradientTransform="matrix(0.4146 0 0 -0.4146 352.3199 170.348)"><stop
   offset="0"
   style="stop-color:#616161"
   id="stop607" /><stop
   offset="1"
   style="stop-color:#828282"
   id="stop608" /><a:midPointStop
   offset="0"
   style="stop-color:#616161"
   id="midPointStop609" /><a:midPointStop
   offset="0.5"
   style="stop-color:#616161"
   id="midPointStop610" /><a:midPointStop
   offset="1"
   style="stop-color:#828282"
   id="midPointStop611" /></linearGradient><path
   fill="url(#XMLID_1_)"
   d="M39.1,16.7H38C37.1,8,31.1,1.3,24,1.3S11.1,8,10,16.7H8.9c-1.2,0-2.2,1.1-2.2,2.5v25.6     c0,1.4,1,2.5,2.2,2.5h30.3c1.2,0,2.2-1.1,2.2-2.5V19.2C41.4,17.8,40.3,16.7,39.1,16.7 M24,8.3c3.8,0,6.9,3.6,7.8,8.4H16.2     C17.1,11.9,20.3,8.3,24,8.3z"
   id="path612" /><path
   fill="#616161"
   d="M8.7,19.4c0,10.7,6.8,19.4,15.3,19.4c8.4,0,15.3-8.7,15.3-19.4S32.4,0,24,0S8.7,8.7,8.7,19.4z M17.1,19.4     c0-5.4,3.1-9.9,6.9-9.9s6.9,4.4,6.9,9.9c0,5.4-3.1,9.9-6.9,9.9S17.1,24.8,17.1,19.4z"
   id="path613" /><path
   fill="#949494"
   d="M24,1.3c-7.8,0-14.1,8.1-14.1,18.1c0,10.1,6.3,18.1,14.1,18.1s14.1-8.1,14.1-18.1     C38.1,9.4,31.8,1.3,24,1.3 M24,30.6c-4.4,0-8-5-8-11.1c0-6.1,3.6-11.1,8-11.1s8,5,8,11.1C32,25.6,28.4,30.6,24,30.6z"
   id="path614" /><path
   fill="#B1B1C5"
   d="M10.3,19.4C10.3,29.1,16.4,37,24,37s13.7-7.9,13.7-17.6S31.6,1.8,24,1.8C16.5,1.8,10.3,9.7,10.3,19.4      M15.5,19.4c0-6.5,3.9-11.7,8.5-11.7c4.7,0,8.5,5.3,8.5,11.7c0,6.5-3.9,11.7-8.5,11.7C19.3,31.1,15.5,25.9,15.5,19.4z"
   id="path615" /><linearGradient
   id="XMLID_2_"
   gradientUnits="userSpaceOnUse"
   x1="-791.896"
   y1="323.0771"
   x2="-791.896"
   y2="405.085"
   gradientTransform="matrix(0.4146 0 0 -0.4146 352.3199 170.348)"><stop
   offset="0"
   style="stop-color:#828282"
   id="stop617" /><stop
   offset="1"
   style="stop-color:#DADADA"
   id="stop618" /><a:midPointStop
   offset="0"
   style="stop-color:#828282"
   id="midPointStop619" /><a:midPointStop
   offset="0.5"
   style="stop-color:#828282"
   id="midPointStop620" /><a:midPointStop
   offset="1"
   style="stop-color:#DADADA"
   id="midPointStop621" /></linearGradient><path
   fill="url(#XMLID_2_)"
   d="M10.9,19.4c0,9.3,5.9,17,13.1,17s13.1-7.6,13.1-17s-5.9-17-13.1-17S10.9,10.1,10.9,19.4 M15,19.4     c0-6.8,4.1-12.3,9.1-12.3s9.1,5.5,9.1,12.3c0,6.8-4.1,12.3-9.1,12.3C19,31.7,15,26.2,15,19.4z"
   id="path622" /><path
   fill="#FFFFFF"
   d="M16.4,33.3c2.2,1.9,4.7,3.1,7.6,3.1c2.8,0,5.4-1.1,7.5-3.1C33.6,30.5,35,26.4,35,22     c-0.1-8.5-5-15.5-11-15.5S13.1,13.4,13.1,22C12.9,26.5,14.2,30.5,16.4,33.3 M23.8,7.1c5,0,9.1,5.5,9.1,12.3c0,0.2,0,0.4,0,0.6     s0,0.4,0,0.6c0,4.9-2.1,9.1-5.2,11.1c-1.1,1-2.4,1.6-3.9,1.6s-2.7-0.6-3.9-1.6c-3.1-2-5.2-6.2-5.2-11.1c0-0.2,0-0.4,0-0.6     s0-0.4,0-0.6C14.8,12.6,18.9,7.1,23.8,7.1z"
   id="path623" /><path
   fill="#FFFFFF"
   d="M34.9,20.8C34.9,12.3,30,5.4,24,5.4s-10.9,6.9-10.9,15.5c0,8.5,4.9,15.5,10.9,15.5     C29.9,36.4,34.9,29.5,34.9,20.8 M23.9,32.1c-1.4,0-2.7-0.6-3.9-1.6c-3.1-2-5.2-6.2-5.2-11.1c0-6.8,4.1-12.3,9.1-12.3     S33,12.6,33,19.4c0,4.9-2.1,9.1-5.2,11.1C26.7,31.5,25.4,32.1,23.9,32.1z"
   id="path624" /></g><g
   id="g570"
   i:knockout="Off"
   i:layer="yes"
   i:dimmedPercent="50"
   i:rgbTrio="#4F00FFFF4F00"><g
   id="g626"
   i:knockout="Off"><linearGradient
   id="path578_2_"
   gradientUnits="userSpaceOnUse"
   x1="-791.896"
   y1="-776.8379"
   x2="-791.8961"
   y2="2094.2473"
   gradientTransform="matrix(0.4146 0 0 -0.4146 352.3199 170.348)"><stop
   offset="0"
   style="stop-color:#616161"
   id="stop628" /><stop
   offset="1"
   style="stop-color:#828282"
   id="stop629" /><a:midPointStop
   offset="0"
   style="stop-color:#616161"
   id="midPointStop630" /><a:midPointStop
   offset="0.5"
   style="stop-color:#616161"
   id="midPointStop631" /><a:midPointStop
   offset="1"
   style="stop-color:#828282"
   id="midPointStop632" /></linearGradient><path
   id="path578_1_"
   fill="url(#path578_2_)"
   d="M7.2,16.7c-1.4,0-2.5,1.1-2.5,2.5v25.6c0,1.4,1.1,2.5,2.5,2.5h33.6      c1.4,0,2.5-1.1,2.5-2.5V19.2c0-1.4-1.1-2.5-2.5-2.5H7.2L7.2,16.7z" /><linearGradient
   id="path585_2_"
   gradientUnits="userSpaceOnUse"
   x1="-791.8955"
   y1="-776.8916"
   x2="-791.8956"
   y2="2094.3391"
   gradientTransform="matrix(0.4146 0 0 -0.4146 352.3199 170.348)"><stop
   offset="0"
   style="stop-color:#824F26"
   id="stop635" /><stop
   offset="1"
   style="stop-color:#A87D28"
   id="stop636" /><a:midPointStop
   offset="0"
   style="stop-color:#824F26"
   id="midPointStop637" /><a:midPointStop
   offset="0.5"
   style="stop-color:#824F26"
   id="midPointStop638" /><a:midPointStop
   offset="1"
   style="stop-color:#A87D28"
   id="midPointStop639" /></linearGradient><path
   id="path585_1_"
   fill="url(#path585_2_)"
   d="M7.2,16.1c-1.8,0-3.2,1.4-3.2,3.2v25.6C4,46.6,5.4,48,7.2,48h33.6      c1.8,0,3.2-1.4,3.2-3.2V19.2c0-1.8-1.4-3.2-3.2-3.2L7.2,16.1L7.2,16.1z" /><linearGradient
   id="path592_2_"
   gradientUnits="userSpaceOnUse"
   x1="-791.896"
   y1="-776.8584"
   x2="-791.8961"
   y2="2094.2913"
   gradientTransform="matrix(0.4146 0 0 -0.4146 352.3199 170.348)"><stop
   offset="0"
   style="stop-color:#A87D28"
   id="stop642" /><stop
   offset="1"
   style="stop-color:#D6A84A"
   id="stop643" /><a:midPointStop
   offset="0"
   style="stop-color:#A87D28"
   id="midPointStop644" /><a:midPointStop
   offset="0.5"
   style="stop-color:#A87D28"
   id="midPointStop645" /><a:midPointStop
   offset="1"
   style="stop-color:#D6A84A"
   id="midPointStop646" /></linearGradient><path
   id="path592_1_"
   fill="url(#path592_2_)"
   d="M42.6,44.7c0,1-0.9,1.9-1.9,1.9H7.2c-1,0-1.9-0.9-1.9-1.9V19.2      c0-1,0.9-1.9,1.9-1.9h33.6c1,0,1.9,0.9,1.9,1.9L42.6,44.7L42.6,44.7z" /><linearGradient
   id="path599_2_"
   gradientUnits="userSpaceOnUse"
   x1="-791.895"
   y1="296.417"
   x2="-791.895"
   y2="394.5249"
   gradientTransform="matrix(0.4146 0 0 -0.4146 352.3199 170.348)"><stop
   offset="0"
   style="stop-color:#A87D28"
   id="stop649" /><stop
   offset="1"
   style="stop-color:#D6A84A"
   id="stop650" /><a:midPointStop
   offset="0"
   style="stop-color:#A87D28"
   id="midPointStop651" /><a:midPointStop
   offset="0.5"
   style="stop-color:#A87D28"
   id="midPointStop652" /><a:midPointStop
   offset="1"
   style="stop-color:#D6A84A"
   id="midPointStop653" /></linearGradient><path
   id="path599_1_"
   fill="url(#path599_2_)"
   d="M7.2,17.6c-0.9,0-1.6,0.7-1.6,1.6v25.6c0,0.9,0.7,1.6,1.6,1.6h33.6      c0.9,0,1.6-0.7,1.6-1.6V19.2c0-0.9-0.7-1.6-1.6-1.6H7.2L7.2,17.6z" /><linearGradient
   id="path606_2_"
   gradientUnits="userSpaceOnUse"
   x1="-791.8965"
   y1="296.4248"
   x2="-791.8965"
   y2="394.5269"
   gradientTransform="matrix(0.4146 0 0 -0.4146 352.3199 170.348)"><stop
   offset="0"
   style="stop-color:#FF9200"
   id="stop656" /><stop
   offset="1"
   style="stop-color:#FFF030"
   id="stop657" /><a:midPointStop
   offset="0"
   style="stop-color:#FF9200"
   id="midPointStop658" /><a:midPointStop
   offset="0.5"
   style="stop-color:#FF9200"
   id="midPointStop659" /><a:midPointStop
   offset="1"
   style="stop-color:#FFF030"
   id="midPointStop660" /></linearGradient><path
   id="path606_1_"
   fill="url(#path606_2_)"
   d="M7.2,17.9c-0.7,0-1.3,0.6-1.3,1.3v25.6c0,0.7,0.6,1.3,1.3,1.3h33.6      c0.7,0,1.3-0.6,1.3-1.3V19.2c0-0.7-0.6-1.3-1.3-1.3H7.2L7.2,17.9z" /><path
   id="path607_1_"
   fill="#FFFFFF"
   d="M7.2,17.9c-0.7,0-1.3,0.6-1.3,1.3v25.6c0,0.7,0.6,1.3,1.3,1.3h33.6      c0.7,0,1.3-0.6,1.3-1.3V19.2c0-0.7-0.6-1.3-1.3-1.3H7.2L7.2,17.9z" /><linearGradient
   id="path619_2_"
   gradientUnits="userSpaceOnUse"
   x1="-791.895"
   y1="366.5537"
   x2="-791.895"
   y2="302.5487"
   gradientTransform="matrix(0.4146 0 0 -0.4146 352.3199 170.348)"><stop
   offset="0"
   style="stop-color:#FFC957"
   id="stop664" /><stop
   offset="0.1712"
   style="stop-color:#FFBD2F"
   id="stop665" /><stop
   offset="0.3443"
   style="stop-color:#FFB20D"
   id="stop666" /><stop
   offset="0.4382"
   style="stop-color:#FFAE00"
   id="stop667" /><stop
   offset="1"
   style="stop-color:#FFF030"
   id="stop668" /><a:midPointStop
   offset="0"
   style="stop-color:#FFC957"
   id="midPointStop669" /><a:midPointStop
   offset="0.5"
   style="stop-color:#FFC957"
   id="midPointStop670" /><a:midPointStop
   offset="0.1712"
   style="stop-color:#FFBD2F"
   id="midPointStop671" /><a:midPointStop
   offset="0.5"
   style="stop-color:#FFBD2F"
   id="midPointStop672" /><a:midPointStop
   offset="0.3443"
   style="stop-color:#FFB20D"
   id="midPointStop673" /><a:midPointStop
   offset="0.5"
   style="stop-color:#FFB20D"
   id="midPointStop674" /><a:midPointStop
   offset="0.4382"
   style="stop-color:#FFAE00"
   id="midPointStop675" /><a:midPointStop
   offset="0.5"
   style="stop-color:#FFAE00"
   id="midPointStop676" /><a:midPointStop
   offset="1"
   style="stop-color:#FFF030"
   id="midPointStop677" /></linearGradient><path
   id="path619_1_"
   fill="url(#path619_2_)"
   d="M7.2,18.5c-0.3,0-0.6,0.3-0.6,0.6v25.6c0,0.3,0.3,0.6,0.6,0.6h33.6      c0.3,0,0.6-0.3,0.6-0.6V19.2c0-0.3-0.3-0.6-0.6-0.6H7.2V18.5z" /><linearGradient
   id="path629_2_"
   gradientUnits="userSpaceOnUse"
   x1="-837.5054"
   y1="373.874"
   x2="-790.0388"
   y2="326.4074"
   gradientTransform="matrix(0.4146 0 0 -0.4146 352.3199 170.348)"><stop
   offset="0"
   style="stop-color:#FFFFFF"
   id="stop680" /><stop
   offset="0.3259"
   style="stop-color:#FFEABE"
   id="stop681" /><stop
   offset="0.6409"
   style="stop-color:#FFD886"
   id="stop682" /><stop
   offset="0.8742"
   style="stop-color:#FFCD64"
   id="stop683" /><stop
   offset="1"
   style="stop-color:#FFC957"
   id="stop684" /><a:midPointStop
   offset="0"
   style="stop-color:#FFFFFF"
   id="midPointStop685" /><a:midPointStop
   offset="0.5"
   style="stop-color:#FFFFFF"
   id="midPointStop686" /><a:midPointStop
   offset="0.3259"
   style="stop-color:#FFEABE"
   id="midPointStop687" /><a:midPointStop
   offset="0.5"
   style="stop-color:#FFEABE"
   id="midPointStop688" /><a:midPointStop
   offset="0.6409"
   style="stop-color:#FFD886"
   id="midPointStop689" /><a:midPointStop
   offset="0.5"
   style="stop-color:#FFD886"
   id="midPointStop690" /><a:midPointStop
   offset="0.8742"
   style="stop-color:#FFCD64"
   id="midPointStop691" /><a:midPointStop
   offset="0.5"
   style="stop-color:#FFCD64"
   id="midPointStop692" /><a:midPointStop
   offset="1"
   style="stop-color:#FFC957"
   id="midPointStop693" /></linearGradient><path
   id="path629_1_"
   fill="url(#path629_2_)"
   d="M7.1,37.6c1.4,0.3,3.1,0.6,4.6,0.6c9.8,0,17.8-7.1,17.8-15.8      c0-1.1-0.2-2.2-0.4-3.3c-9.2,0-21.4,0-22,0C7.1,19.8,7.1,30.6,7.1,37.6z" /><linearGradient
   id="path636_2_"
   gradientUnits="userSpaceOnUse"
   x1="-792.0161"
   y1="322.5449"
   x2="-792.0161"
   y2="360.3027"
   gradientTransform="matrix(0.4146 0 0 -0.4146 352.3199 170.348)"><stop
   offset="0"
   style="stop-color:#FF9200"
   id="stop696" /><stop
   offset="1"
   style="stop-color:#FFFFFF"
   id="stop697" /><a:midPointStop
   offset="0"
   style="stop-color:#FF9200"
   id="midPointStop698" /><a:midPointStop
   offset="0.5"
   style="stop-color:#FF9200"
   id="midPointStop699" /><a:midPointStop
   offset="1"
   style="stop-color:#FFFFFF"
   id="midPointStop700" /></linearGradient><path
   id="path636_1_"
   fill="url(#path636_2_)"
   d="M18.6,26.3c0,1.4,0.6,2.8,1.7,3.8c-0.3,1-2.1,6.5-2.1,6.5h11.5      c0,0-1.8-5.5-2.1-6.5c1-1,1.7-2.3,1.7-3.8c0-2.9-2.4-5.3-5.3-5.3S18.6,23.3,18.6,26.3z" /><path
   id="path637_1_"
   fill="#616161"
   d="M20,26.3c0,1.3,0.6,2.6,1.8,3.3l0.2,0.1c0,0-1.7,5.1-1.8,5.7c0.6,0,7.1,0,7.8,0      c-0.2-0.6-1.8-5.7-1.8-5.7l0.2-0.1c1.1-0.7,1.8-1.9,1.8-3.3c0-2.2-1.8-3.9-3.9-3.9C21.8,22.3,20,24,20,26.3z" /></g></g><g
   id="Layer_3"
   i:knockout="Off"
   i:layer="yes"
   i:dimmedPercent="3"
   i:rgbTrio="#4F00FFFF4F00"><rect
   id="rect704"
   i:knockout="Off"
   fill="none"
   width="48"
   height="48" /></g></svg>
