<?xml version="1.0" encoding="UTF-8" standalone="no"?>
<!DOCTYPE svg PUBLIC "-//W3C//DTD SVG 20010904//EN"
"http://www.w3.org/TR/2001/REC-SVG-20010904/DTD/svg10.dtd">
<!-- Created with Sodipodi ("http://www.sodipodi.com/") -->
<svg
   xmlns:x="http://ns.adobe.com/Extensibility/1.0/"
   xmlns:i="http://ns.adobe.com/AdobeIllustrator/10.0/"
   xmlns:graph="http://ns.adobe.com/Graphs/1.0/"
   xmlns="http://www.w3.org/2000/svg"
   xmlns:xlink="http://www.w3.org/1999/xlink"
   xmlns:a="http://ns.adobe.com/AdobeSVGViewerExtensions/3.0/"
   xml:space="preserve"
   i:viewOrigin="148.3477 543.0254"
   i:rulerOrigin="0 0"
   i:pageBounds="0 792 612 0"
   width="48"
   height="48"
   viewBox="0 0 48 48"
   overflow="visible"
   enable-background="new 0 0 48 48"
   xmlns:sodipodi="http://sodipodi.sourceforge.net/DTD/sodipodi-0.dtd"
   id="svg602"
   sodipodi:version="0.34"
   sodipodi:docname="C:\msys\home\su_blanc\mldonkey-2.5.12\src\gtk2\rsvg\stock_add_server.svg"><defs
   id="defs712" /><sodipodi:namedview
   id="base" /><g
   id="Layer_2_1_"
   i:knockout="Off"
   i:layer="yes"
   i:dimmedPercent="3"
   i:rgbTrio="#FFFF4F004F00"><g
   id="g606"
   i:knockout="Off"><polygon
   id="polygon649"
   points="6.4,16.2 6.4,39.8 23.7,46.8 41.6,31.8 41.6,8.2 24.3,1.2 " /><linearGradient
   id="polygon712_1_"
   gradientUnits="userSpaceOnUse"
   x1="-986.7417"
   y1="772.2598"
   x2="-987.8504"
   y2="783.3474"
   gradientTransform="matrix(1 0 0 -1 1011.5879 793.5234)"><stop
   offset="0"
   style="stop-color:#F2F2F2"
   id="stop609" /><stop
   offset="0.3121"
   style="stop-color:#EEEEEE"
   id="stop610" /><stop
   offset="0.6646"
   style="stop-color:#E0E0E0"
   id="stop611" /><stop
   offset="1"
   style="stop-color:#CCCCCC"
   id="stop612" /><a:midPointStop
   offset="0"
   style="stop-color:#F2F2F2"
   id="midPointStop613" /><a:midPointStop
   offset="0.5"
   style="stop-color:#F2F2F2"
   id="midPointStop614" /><a:midPointStop
   offset="0.3121"
   style="stop-color:#EEEEEE"
   id="midPointStop615" /><a:midPointStop
   offset="0.5"
   style="stop-color:#EEEEEE"
   id="midPointStop616" /><a:midPointStop
   offset="0.6646"
   style="stop-color:#E0E0E0"
   id="midPointStop617" /><a:midPointStop
   offset="0.5"
   style="stop-color:#E0E0E0"
   id="midPointStop618" /><a:midPointStop
   offset="1"
   style="stop-color:#CCCCCC"
   id="midPointStop619" /></linearGradient><polygon
   id="polygon712"
   fill="url(#polygon712_1_)"
   points="23.3,23.1 8.4,17.1 11.6,14.4 12.1,14.6 12,14 24.7,3.4 39.7,9.5       " /><linearGradient
   id="polygon722_1_"
   gradientUnits="userSpaceOnUse"
   x1="-988.0488"
   y1="748.7568"
   x2="-995.7054"
   y2="762.5142"
   gradientTransform="matrix(1 0 0 -1 1011.5879 793.5234)"><stop
   offset="0"
   style="stop-color:#E6E6E6"
   id="stop622" /><stop
   offset="0.621"
   style="stop-color:#C7C7C7"
   id="stop623" /><stop
   offset="1"
   style="stop-color:#B3B3B3"
   id="stop624" /><a:midPointStop
   offset="0"
   style="stop-color:#E6E6E6"
   id="midPointStop625" /><a:midPointStop
   offset="0.5"
   style="stop-color:#E6E6E6"
   id="midPointStop626" /><a:midPointStop
   offset="0.621"
   style="stop-color:#C7C7C7"
   id="midPointStop627" /><a:midPointStop
   offset="0.5"
   style="stop-color:#C7C7C7"
   id="midPointStop628" /><a:midPointStop
   offset="1"
   style="stop-color:#B3B3B3"
   id="midPointStop629" /></linearGradient><polygon
   id="polygon722"
   fill="url(#polygon722_1_)"
   points="23.3,44.9 14.6,41.3 14.5,40.9 13.8,41 8.4,38.8 8.4,17.1       13.8,19.2 14.6,19.4 14.6,19.6 23.3,23.1 " /><polygon
   id="polygon723"
   i:isolated="yes"
   i:knockout="Off"
   opacity="0.3"
   enable-background="new    "
   points="14.5,40.9       13.8,40.9 13.8,19.4 14.6,19.4 14.5,19.6 " /><rect
   id="polygon724"
   x="14.5"
   y="19.8"
   i:isolated="yes"
   i:knockout="Off"
   opacity="0.8"
   fill="#FFFFFF"
   enable-background="new    "
   width="0.8"
   height="21.6" /><linearGradient
   id="polygon734_1_"
   gradientUnits="userSpaceOnUse"
   x1="-976.4351"
   y1="763.4619"
   x2="-985.4248"
   y2="770.5035"
   gradientTransform="matrix(1 0 0 -1 1011.5879 793.5234)"><stop
   offset="0"
   style="stop-color:#999999"
   id="stop634" /><stop
   offset="0.6839"
   style="stop-color:#7B7B7B"
   id="stop635" /><stop
   offset="1"
   style="stop-color:#6B6B6B"
   id="stop636" /><a:midPointStop
   offset="0"
   style="stop-color:#999999"
   id="midPointStop637" /><a:midPointStop
   offset="0.5"
   style="stop-color:#999999"
   id="midPointStop638" /><a:midPointStop
   offset="0.6839"
   style="stop-color:#7B7B7B"
   id="midPointStop639" /><a:midPointStop
   offset="0.5"
   style="stop-color:#7B7B7B"
   id="midPointStop640" /><a:midPointStop
   offset="1"
   style="stop-color:#6B6B6B"
   id="midPointStop641" /></linearGradient><polygon
   id="polygon734"
   fill="url(#polygon734_1_)"
   points="39.7,31.1 27,41.8 26.4,41.6 26.4,42.2 23.3,44.9 23.3,23.1       39.7,9.5 " /><polygon
   id="polygon735"
   i:isolated="yes"
   i:knockout="Off"
   opacity="0.8"
   fill="#FFFFFF"
   enable-background="new    "
   points="      12.1,14 26.9,20.2 27.7,19.5 12.6,13.6 " /><rect
   id="polygon736"
   x="26.8"
   y="19.8"
   i:isolated="yes"
   i:knockout="Off"
   opacity="0.6"
   fill="#242424"
   enable-background="new    "
   width="1.1"
   height="21.6" /><polygon
   id="polygon737"
   i:isolated="yes"
   i:knockout="Off"
   opacity="0.84"
   fill="#FFFFFF"
   enable-background="new    "
   points="      8.4,17.1 8.4,17.7 13.8,19.9 13.8,19.4 14.6,19.4 14.5,20.2 23.3,23.7 23.5,23.2 23.9,22.7 8.8,16.7 " /><polygon
   id="polygon738"
   i:isolated="yes"
   i:knockout="Off"
   opacity="0.3"
   enable-background="new    "
   points="12.1,14.6       26.4,20.6 26.4,41.6 26.9,41.8 26.9,20.2 12,14 " /><linearGradient
   id="polygon722_5_"
   gradientUnits="userSpaceOnUse"
   x1="-296.6553"
   y1="78.6074"
   x2="-293.5442"
   y2="78.6074"
   gradientTransform="matrix(1 0 0 1 313.9063 -51.8574)"><stop
   offset="0"
   style="stop-color:#00A200"
   id="stop648" /><stop
   offset="1"
   style="stop-color:#00FF00"
   id="stop649" /><a:midPointStop
   offset="0"
   style="stop-color:#00A200"
   id="midPointStop650" /><a:midPointStop
   offset="0.5"
   style="stop-color:#00A200"
   id="midPointStop651" /><a:midPointStop
   offset="1"
   style="stop-color:#00FF00"
   id="midPointStop652" /></linearGradient><polygon
   id="polygon722_2_"
   fill="url(#polygon722_5_)"
   points="20.3,29 18.6,28.5 18.6,28.4 18.3,28.4 17.3,28.1 17.3,24.5       18.3,24.9 18.6,24.9 18.6,24.9 20.3,25.6 " /><linearGradient
   id="polygon722_6_"
   gradientUnits="userSpaceOnUse"
   x1="-296.6553"
   y1="84.4072"
   x2="-293.5442"
   y2="84.4072"
   gradientTransform="matrix(1 0 0 1 313.9063 -51.8574)"><stop
   offset="5.617829e-003"
   style="stop-color:#FF7700"
   id="stop655" /><stop
   offset="1"
   style="stop-color:#FFDC00"
   id="stop656" /><a:midPointStop
   offset="5.617829e-003"
   style="stop-color:#FF7700"
   id="midPointStop657" /><a:midPointStop
   offset="0.5"
   style="stop-color:#FF7700"
   id="midPointStop658" /><a:midPointStop
   offset="1"
   style="stop-color:#FFDC00"
   id="midPointStop659" /></linearGradient><polygon
   id="polygon722_3_"
   fill="url(#polygon722_6_)"
   points="20.3,34.8 18.6,34.3 18.6,34.2 18.3,34.2 17.3,33.9 17.3,30.3       18.3,30.7 18.6,30.7 18.6,30.7 20.3,31.4 " /><linearGradient
   id="polygon722_7_"
   gradientUnits="userSpaceOnUse"
   x1="-296.6553"
   y1="90.3076"
   x2="-293.5442"
   y2="90.3076"
   gradientTransform="matrix(1 0 0 1 313.9063 -51.8574)"><stop
   offset="0"
   style="stop-color:#A20000"
   id="stop662" /><stop
   offset="1"
   style="stop-color:#FF0000"
   id="stop663" /><a:midPointStop
   offset="0"
   style="stop-color:#A20000"
   id="midPointStop664" /><a:midPointStop
   offset="0.5"
   style="stop-color:#A20000"
   id="midPointStop665" /><a:midPointStop
   offset="1"
   style="stop-color:#FF0000"
   id="midPointStop666" /></linearGradient><polygon
   id="polygon722_4_"
   fill="url(#polygon722_7_)"
   points="20.3,40.6 18.6,40.1 18.6,40 18.3,40.1 17.3,39.7 17.3,36.3       18.3,36.5 18.6,36.5 18.6,36.7 20.3,37.2 " /></g><linearGradient
   id="path173_1_"
   gradientUnits="userSpaceOnUse"
   x1="-113.1978"
   y1="520.75"
   x2="-113.1978"
   y2="495.1494"
   gradientTransform="matrix(1 0 0 -1 148.3477 543.0254)"><stop
   offset="0"
   style="stop-color:#7E0000"
   id="stop669" /><stop
   offset="1"
   style="stop-color:#FF0000"
   id="stop670" /><a:midPointStop
   offset="0"
   style="stop-color:#7E0000"
   id="midPointStop671" /><a:midPointStop
   offset="0.5"
   style="stop-color:#7E0000"
   id="midPointStop672" /><a:midPointStop
   offset="1"
   style="stop-color:#FF0000"
   id="midPointStop673" /></linearGradient><path
   id="path173"
   fill="url(#path173_1_)"
   d="M33,24.6c0,0,0,3.1,0,5.2c-1.5-1.5-3.6-3.7-3.6-3.7c-0.9-0.9-2.3-0.9-3.2,0     c-0.4,0.4-0.7,1-0.7,1.6c0,0.6,0.2,1.2,0.7,1.6c0,0,2.2,2.2,3.6,3.6c-2.1,0-5.2,0-5.2,0c-1.2,0-2.2,1-2.2,2.2     c0,1.2,1,2.2,2.2,2.2c0,0,3.1,0,5.2,0c-1.5,1.5-3.6,3.7-3.6,3.7c-0.4,0.4-0.7,1-0.7,1.6s0.2,1.1,0.7,1.6c0.4,0.4,1,0.7,1.6,0.7     c0.6,0,1.2-0.2,1.6-0.7c0,0,2.2-2.2,3.6-3.6c0,2.1,0,5.2,0,5.2c0,1.2,1,2.2,2.2,2.2c1.2,0,2.2-1,2.2-2.2c0,0,0-3.1,0-5.2     c1.5,1.5,3.6,3.6,3.6,3.6c0.4,0.4,1,0.7,1.6,0.7s1.2-0.2,1.6-0.7c0.4-0.4,0.7-1,0.7-1.6s-0.2-1.2-0.7-1.6c0,0-2.2-2.2-3.7-3.7     c2.1,0,5.2,0,5.2,0c1.2,0,2.2-1,2.2-2.2c0-1.2-1-2.2-2.2-2.2c0,0-3.1,0-5.2,0c1.5-1.5,3.7-3.6,3.7-3.6c0.4-0.4,0.7-1,0.7-1.6     c0-0.6-0.2-1.1-0.7-1.6c-0.9-0.9-2.3-0.9-3.2,0c0,0-2.2,2.2-3.6,3.7c0-2.1,0-5.2,0-5.2c0-1.2-1-2.2-2.2-2.2     C34,22.4,33,23.4,33,24.6z" /><linearGradient
   id="path180_1_"
   gradientUnits="userSpaceOnUse"
   x1="-888.2593"
   y1="-471.0684"
   x2="-760.5953"
   y2="-471.0684"
   gradientTransform="matrix(0.1875 0 0 0.1875 189.783 123.5255)"><stop
   offset="0"
   style="stop-color:#FFFF66"
   id="stop676" /><stop
   offset="1"
   style="stop-color:#FFCC66"
   id="stop677" /><a:midPointStop
   offset="0"
   style="stop-color:#FFFF66"
   id="midPointStop678" /><a:midPointStop
   offset="0.5"
   style="stop-color:#FFFF66"
   id="midPointStop679" /><a:midPointStop
   offset="1"
   style="stop-color:#FFCC66"
   id="midPointStop680" /></linearGradient><path
   id="path180"
   fill="url(#path180_1_)"
   d="M45.8,33.8h-7.2l5.1-5.1c0.5-0.5,0.5-1.4,0-2c-0.6-0.5-1.4-0.5-2,0l-5.1,5.1v-7.2     c0-0.8-0.6-1.4-1.4-1.4c-0.8,0-1.4,0.6-1.4,1.4v7.2l-5.1-5.1c-0.6-0.5-1.4-0.5-2,0c-0.6,0.5-0.5,1.4,0,2l5.1,5.1h-7.2     c-0.8,0-1.4,0.6-1.4,1.4c0,0.8,0.6,1.4,1.4,1.4h7.2l-5.1,5.1c-0.5,0.5-0.5,1.4,0,2c0.5,0.6,1.4,0.6,2,0l5.1-5.1v7.2     c0,0.8,0.6,1.4,1.4,1.4c0.8,0,1.4-0.6,1.4-1.4v-7.2l5.1,5.1c0.6,0.6,1.4,0.6,2,0c0.5-0.5,0.5-1.4,0-2l-5.1-5.1h7.2     c0.8,0,1.4-0.6,1.4-1.4C47.2,34.4,46.5,33.8,45.8,33.8z" /><radialGradient
   id="path181_1_"
   cx="-113.3203"
   cy="507.875"
   r="13"
   fx="-113.3203"
   fy="507.875"
   gradientTransform="matrix(1 0 0 -1 148.3477 543.0254)"
   gradientUnits="userSpaceOnUse"><stop
   offset="5.617829e-003"
   style="stop-color:#FFFF00"
   id="stop683" /><stop
   offset="0.1096"
   style="stop-color:#FFFA00"
   id="stop684" /><stop
   offset="0.2326"
   style="stop-color:#FFEC00"
   id="stop685" /><stop
   offset="0.3652"
   style="stop-color:#FFD400"
   id="stop686" /><stop
   offset="0.5046"
   style="stop-color:#FFB200"
   id="stop687" /><stop
   offset="0.6494"
   style="stop-color:#FF8800"
   id="stop688" /><stop
   offset="0.7987"
   style="stop-color:#FF5300"
   id="stop689" /><stop
   offset="0.9489"
   style="stop-color:#FF1600"
   id="stop690" /><stop
   offset="1"
   style="stop-color:#FF0000"
   id="stop691" /><a:midPointStop
   offset="5.617829e-003"
   style="stop-color:#FFFF00"
   id="midPointStop692" /><a:midPointStop
   offset="0.5"
   style="stop-color:#FFFF00"
   id="midPointStop693" /><a:midPointStop
   offset="0.1096"
   style="stop-color:#FFFA00"
   id="midPointStop694" /><a:midPointStop
   offset="0.5"
   style="stop-color:#FFFA00"
   id="midPointStop695" /><a:midPointStop
   offset="0.2326"
   style="stop-color:#FFEC00"
   id="midPointStop696" /><a:midPointStop
   offset="0.5"
   style="stop-color:#FFEC00"
   id="midPointStop697" /><a:midPointStop
   offset="0.3652"
   style="stop-color:#FFD400"
   id="midPointStop698" /><a:midPointStop
   offset="0.5"
   style="stop-color:#FFD400"
   id="midPointStop699" /><a:midPointStop
   offset="0.5046"
   style="stop-color:#FFB200"
   id="midPointStop700" /><a:midPointStop
   offset="0.5"
   style="stop-color:#FFB200"
   id="midPointStop701" /><a:midPointStop
   offset="0.6494"
   style="stop-color:#FF8800"
   id="midPointStop702" /><a:midPointStop
   offset="0.5"
   style="stop-color:#FF8800"
   id="midPointStop703" /><a:midPointStop
   offset="0.7987"
   style="stop-color:#FF5300"
   id="midPointStop704" /><a:midPointStop
   offset="0.5"
   style="stop-color:#FF5300"
   id="midPointStop705" /><a:midPointStop
   offset="0.9489"
   style="stop-color:#FF1600"
   id="midPointStop706" /><a:midPointStop
   offset="0.5"
   style="stop-color:#FF1600"
   id="midPointStop707" /><a:midPointStop
   offset="1"
   style="stop-color:#FF0000"
   id="midPointStop708" /></radialGradient><path
   id="path181"
   fill="url(#path181_1_)"
   d="M34.3,24.6V33l-5.9-5.9c-0.4-0.4-0.9-0.4-1.3,0c-0.2,0.2-0.3,0.4-0.3,0.6     c0,0.2,0.1,0.5,0.3,0.6l5.9,5.9h-8.4c-0.5,0-0.9,0.4-0.9,0.9s0.4,0.9,0.9,0.9H33l-5.9,6c-0.4,0.4-0.4,0.9,0,1.3     c0.2,0.2,0.4,0.3,0.6,0.3c0.2,0,0.5-0.1,0.6-0.3l5.9-5.9v8.4c0,0.5,0.4,0.9,0.9,0.9s0.9-0.4,0.9-0.9v-8.4l5.9,5.9     c0.2,0.2,0.4,0.3,0.6,0.3s0.5-0.1,0.6-0.3c0.2-0.2,0.3-0.4,0.3-0.6c0-0.2-0.1-0.5-0.3-0.6l-5.9-5.9h8.4c0.5,0,0.9-0.4,0.9-0.9     s-0.4-0.9-0.9-0.9h-8.4l5.9-5.9c0.4-0.4,0.4-0.9,0-1.3c-0.4-0.4-0.9-0.4-1.3,0L36.1,33v-8.4c0-0.5-0.4-0.9-0.9-0.9     S34.3,24.1,34.3,24.6z" /><rect
   id="rect696"
   i:knockout="Off"
   fill="none"
   width="48"
   height="48" /></g></svg>
