<?xml version="1.0" encoding="UTF-8" standalone="no"?>
<!DOCTYPE svg PUBLIC "-//W3C//DTD SVG 20010904//EN"
"http://www.w3.org/TR/2001/REC-SVG-20010904/DTD/svg10.dtd">
<!-- Created with Sodipodi ("http://www.sodipodi.com/") -->
<svg
   xmlns:x="http://ns.adobe.com/Extensibility/1.0/"
   xmlns:i="http://ns.adobe.com/AdobeIllustrator/10.0/"
   xmlns:graph="http://ns.adobe.com/Graphs/1.0/"
   xmlns="http://www.w3.org/2000/svg"
   xmlns:xlink="http://www.w3.org/1999/xlink"
   xmlns:a="http://ns.adobe.com/AdobeSVGViewerExtensions/3.0/"
   xml:space="preserve"
   i:viewOrigin="175.1133 412.6392"
   i:rulerOrigin="0 0"
   i:pageBounds="0 792 612 0"
   width="48"
   height="48"
   viewBox="0 0 48 48"
   overflow="visible"
   enable-background="new 0 0 48 48"
   xmlns:sodipodi="http://sodipodi.sourceforge.net/DTD/sodipodi-0.dtd"
   id="svg602"
   sodipodi:version="0.34"
   sodipodi:docname="C:\msys\home\su_blanc\mldonkey-2.5.24\src\gtk2\rsvg\stock_warning.svg"><defs
   id="defs655" /><sodipodi:namedview
   id="namedview654" /><g
   id="Layer_x0020_1"
   i:knockout="Off"
   i:layer="yes"
   i:dimmedPercent="50"
   i:rgbTrio="#4F008000FFFF"><g
   id="g606"><linearGradient
   id="path612_1_"
   gradientUnits="userSpaceOnUse"
   x1="-407.5605"
   y1="78.811"
   x2="-363.6606"
   y2="78.811"
   gradientTransform="matrix(1 0 0 1 409.6133 -54.8613)"><stop
   offset="0"
   style="stop-color:#FFFF62"
   id="stop608" /><stop
   offset="1"
   style="stop-color:#FFAC00"
   id="stop609" /><a:midPointStop
   offset="0"
   style="stop-color:#FFFF62"
   id="midPointStop610" /><a:midPointStop
   offset="0.5"
   style="stop-color:#FFFF62"
   id="midPointStop611" /><a:midPointStop
   offset="1"
   style="stop-color:#FFAC00"
   id="midPointStop612" /></linearGradient><path
   id="path612"
   fill="url(#path612_1_)"
   d="M23.8,5.1L2.1,42.8l0,0l0,0c0,0,0,0,0.1,0h43.7H46l0,0l0,0L24,5.1      C24,5.1,24,5.1,23.8,5.1C23.9,5.1,23.9,5.1,23.8,5.1L23.8,5.1z" /><path
   id="path613"
   fill="#FFFFFF"
   d="M3.6,43.7c0.1-0.2,0.2-0.3,0.2-0.4C3.9,43.3,3.6,43.7,3.6,43.7z" /><radialGradient
   id="circle614_1_"
   cx="23.7998"
   cy="30.1001"
   r="13.3999"
   fx="23.7998"
   fy="30.1001"
   gradientUnits="userSpaceOnUse"><stop
   offset="0"
   style="stop-color:#FFFFFF"
   id="stop616" /><stop
   offset="0.1762"
   style="stop-color:#FFFEFC"
   id="stop617" /><stop
   offset="0.3082"
   style="stop-color:#FFFBF2"
   id="stop618" /><stop
   offset="0.4259"
   style="stop-color:#FFF6E2"
   id="stop619" /><stop
   offset="0.5353"
   style="stop-color:#FFEECB"
   id="stop620" /><stop
   offset="0.6389"
   style="stop-color:#FFE5AE"
   id="stop621" /><stop
   offset="0.7381"
   style="stop-color:#FFD98A"
   id="stop622" /><stop
   offset="0.834"
   style="stop-color:#FFCB5F"
   id="stop623" /><stop
   offset="0.9247"
   style="stop-color:#FFBB2E"
   id="stop624" /><stop
   offset="1"
   style="stop-color:#FFAC00"
   id="stop625" /><a:midPointStop
   offset="0"
   style="stop-color:#FFFFFF"
   id="midPointStop626" /><a:midPointStop
   offset="0.7627"
   style="stop-color:#FFFFFF"
   id="midPointStop627" /><a:midPointStop
   offset="1"
   style="stop-color:#FFAC00"
   id="midPointStop628" /></radialGradient><circle
   id="circle614"
   i:isolated="yes"
   i:knockout="Off"
   opacity="0.7"
   fill="url(#circle614_1_)"
   enable-background="new    "
   cx="23.8"
   cy="30.1"
   r="13.4" /><linearGradient
   id="XMLID_1_"
   gradientUnits="userSpaceOnUse"
   x1="-409.1079"
   y1="78.8608"
   x2="-362.1169"
   y2="78.8608"
   gradientTransform="matrix(1 0 0 1 409.6133 -54.8613)"><stop
   offset="0"
   style="stop-color:#744426"
   id="stop631" /><stop
   offset="1"
   style="stop-color:#DE972B"
   id="stop632" /><a:midPointStop
   offset="0"
   style="stop-color:#744426"
   id="midPointStop633" /><a:midPointStop
   offset="0.5"
   style="stop-color:#744426"
   id="midPointStop634" /><a:midPointStop
   offset="1"
   style="stop-color:#DE972B"
   id="midPointStop635" /></linearGradient><path
   fill="url(#XMLID_1_)"
   d="M25.6,4.2l21.9,37.7c0.3,0.6,0.3,1.3,0,1.9c-0.3,0.6-1,0.9-1.6,0.9H2.2c-0.7,0-1.3-0.4-1.6-0.9      c-0.3-0.6-0.3-1.3,0-1.9L22.3,4.2c0.3-0.6,1-0.9,1.6-0.9C24.6,3.3,25.2,3.6,25.6,4.2z M23.8,5.1L2.1,42.8l0,0l0,0c0,0,0,0,0.1,0      h43.7H46l0,0l0,0L24,5.1C24,5.1,24,5.1,23.8,5.1C23.9,5.1,23.9,5.1,23.8,5.1L23.8,5.1z"
   id="path636" /><path
   fill="url(#XMLID_1_)"
   d="M25.6,4.2l21.9,37.7c0.3,0.6,0.3,1.3,0,1.9c-0.3,0.6-1,0.9-1.6,0.9H2.2c-0.7,0-1.3-0.4-1.6-0.9      c-0.3-0.6-0.3-1.3,0-1.9L22.3,4.2c0.3-0.6,1-0.9,1.6-0.9C24.6,3.3,25.2,3.6,25.6,4.2z M23.8,5.1L2.1,42.8l0,0l0,0c0,0,0,0,0.1,0      h43.7H46l0,0l0,0L24,5.1C24,5.1,24,5.1,23.8,5.1C23.9,5.1,23.9,5.1,23.8,5.1L23.8,5.1z"
   id="path637" /><linearGradient
   id="path629_1_"
   gradientUnits="userSpaceOnUse"
   x1="-394.9448"
   y1="79.8042"
   x2="-368.987"
   y2="94.1575"
   gradientTransform="matrix(1 0 0 1 409.6133 -54.8613)"><stop
   offset="0"
   style="stop-color:#FFFFE1"
   id="stop639" /><stop
   offset="0.1216"
   style="stop-color:#FFFEDD"
   id="stop640" /><stop
   offset="0.2544"
   style="stop-color:#FFF9CF"
   id="stop641" /><stop
   offset="0.3926"
   style="stop-color:#FFF3BA"
   id="stop642" /><stop
   offset="0.5344"
   style="stop-color:#FFE99B"
   id="stop643" /><stop
   offset="0.679"
   style="stop-color:#FFDC74"
   id="stop644" /><stop
   offset="0.8261"
   style="stop-color:#FFCD43"
   id="stop645" /><stop
   offset="0.9723"
   style="stop-color:#FFBC0B"
   id="stop646" /><stop
   offset="1"
   style="stop-color:#FFB800"
   id="stop647" /><a:midPointStop
   offset="0"
   style="stop-color:#FFFFE1"
   id="midPointStop648" /><a:midPointStop
   offset="0.6893"
   style="stop-color:#FFFFE1"
   id="midPointStop649" /><a:midPointStop
   offset="1"
   style="stop-color:#FFB800"
   id="midPointStop650" /></linearGradient><path
   id="path629"
   opacity="0.5"
   fill="url(#path629_1_)"
   d="M5.1,41.1c0.5,0,1.2,0,2.2,0C15.5,27.9,19,29.6,22.7,29.3      c6-0.5,10-5.6,7-11.1c-3.2-5.6-4.8-7.9-5.8-9.6C21.5,12.7,7.5,37,5.1,41.1z" /><path
   d="M24.2,31h-0.8c-0.1-1.3-0.4-3-0.8-4.8l-0.9-3.8c-0.6-2.3-0.8-3.9-0.8-4.9c0-0.9,0.3-1.6,0.8-2.2      c0.5-0.6,1.2-0.8,2.1-0.8c0.8,0,1.5,0.3,2.1,0.8s0.8,1.3,0.8,2.1c0,0.9-0.3,2.6-0.9,5l-0.9,3.8C24.6,27.5,24.4,29.1,24.2,31      L24.2,31z M23.9,33.5c0.8,0,1.5,0.3,2,0.8c0.6,0.6,0.8,1.2,0.8,2c0,0.8-0.3,1.5-0.8,2s-1.2,0.8-2,0.8c-0.8,0-1.5-0.3-2-0.8      c-0.6-0.6-0.8-1.2-0.8-2c0-0.8,0.3-1.5,0.8-2S23.1,33.5,23.9,33.5L23.9,33.5z"
   id="path652" /><rect
   id="rect631"
   i:knockout="Off"
   fill="none"
   width="48"
   height="48" /></g></g></svg>
