<?xml version="1.0" encoding="UTF-8" standalone="no"?>
<!DOCTYPE svg PUBLIC "-//W3C//DTD SVG 20010904//EN"
"http://www.w3.org/TR/2001/REC-SVG-20010904/DTD/svg10.dtd">
<!-- Created with Sodipodi ("http://www.sodipodi.com/") -->
<svg
   xmlns:x="http://ns.adobe.com/Extensibility/1.0/"
   xmlns:i="http://ns.adobe.com/AdobeIllustrator/10.0/"
   xmlns:graph="http://ns.adobe.com/Graphs/1.0/"
   xmlns="http://www.w3.org/2000/svg"
   xmlns:xlink="http://www.w3.org/1999/xlink"
   xmlns:a="http://ns.adobe.com/AdobeSVGViewerExtensions/3.0/"
   xml:space="preserve"
   i:viewOrigin="212.8545 467.8169"
   i:rulerOrigin="0 0"
   i:pageBounds="0 792 612 0"
   width="48"
   height="48"
   viewBox="0 0 48 48"
   overflow="visible"
   enable-background="new 0 0 48 48"
   xmlns:sodipodi="http://sodipodi.sourceforge.net/DTD/sodipodi-0.dtd"
   id="svg602"
   sodipodi:version="0.34"
   sodipodi:docname="C:\msys\home\su_blanc\mldonkey-2.5.12\src\gtk2\rsvg\stock_shared_directory.svg"><defs
   id="defs679" /><sodipodi:namedview
   id="namedview678" /><g
   id="Layer_1_2_"
   i:knockout="Off"
   i:layer="yes"
   i:dimmedPercent="50"
   i:rgbTrio="#4F008000FFFF"><g
   id="g605"
   i:knockout="Off"><path
   id="path606"
   fill="#FFCD9A"
   d="M41.4,7c-1.6-1.2-3,0-3,0l-2.6,0.9c0,0-0.7-1.3-1.6-1.5l-16.1-5c-2.3-0.7-5.4,5.5-2.3,6.5      l5.6,1.8c0.8,0.4,1.6,0.9,1.2,2.1l-1.4,2.3L2.5,28.5c-3.4,2.7-0.7,7.1,1.5,5.2l0,0l-0.9,0.8c-3.4,2.7-0.4,7.6,4.1,4.6L8,38.4      c-2.6,3.4,1.9,7.2,5.3,3.9l0.7-0.4h0.1c-3.9,3-0.4,7.4,4.1,3.6l12.6-10.1c0,0,9.2-7.3,10.7-9.2c1.5-1.9,1.5-2.5,2.1-5.8l2.1-1.4      C46.8,17,49.9,12.9,41.4,7z" /><path
   id="path607"
   i:isolated="yes"
   i:knockout="Off"
   opacity="0.7"
   fill="#CD9966"
   a:adobe-blending-mode="multiply"
   enable-background="new    "
   d="      M35.5,8.6c0.3,0.2,1.9,2.2,1.5,3.5l-0.2,0.7h0.5c2.6,0.4,6.1,2.8,5.1,6.1l0.6-2.7l0.6,0.2c-0.3-2.7-3.3-3.8-5.9-4.3      c0.2-2.2-1.3-4.6-1.5-4.7L35.5,8.6z" /><path
   id="path608"
   i:isolated="yes"
   i:knockout="Off"
   opacity="0.7"
   fill="#CD9966"
   a:adobe-blending-mode="multiply"
   enable-background="new    "
   d="      M16.1,6.2l8.2,2.2c0.4,4.1,1,5.3,4.7,4.6c3.1-0.5,5.1-0.1,5.1-0.1S31,15,28.7,15.7c-2.3,0.7-4.8,0.2-8.2-0.5      c0.9-2.2,3.5-4.3,2.3-4.9C19.1,8.2,16,7.9,16,7.9L16.1,6.2z" /><path
   id="path609"
   i:isolated="yes"
   i:knockout="Off"
   opacity="0.7"
   fill="#CD9966"
   a:adobe-blending-mode="multiply"
   enable-background="new    "
   d="      M45.9,12c0,2.1-2.1,4.6-3,4.3c-0.4,1.3-0.5,4.8-4.3,8.2c-3.7,3.4-6,5.6-7.7,6.1c-1.6,0.6-2.3,2.8-3.4,4.2      c-1.1,1.4-7.5,6.4-7.5,6.4s-4.3,3.9-5.2,3.6c-0.9-0.3-2.4,0.9-1.4,1.3c1,0.3,3.4,0,8.7-4.3c5.4-4.3,19.3-14.4,20.8-18.3      c1.4-3.7,0.6-3.3,0.6-3.3C45.7,19,48.8,15,45.9,12z" /><path
   id="path610"
   i:isolated="yes"
   i:knockout="Off"
   opacity="0.7"
   fill="#CD9966"
   a:adobe-blending-mode="multiply"
   enable-background="new    "
   d="      M23.5,29.6c0,0,0.9,1.7,0.2,2.5c-0.7,0.8-4.6,2.5-5.2,3.6c-1.7,0.9-3.8,3-4.7,4.2c-0.8,1.2-3.4,1-4.3,0.7      c-0.9-0.3-1.8,1.9-1,2.2c0.9,0.3,3.1,0.6,4.7-0.6l11.1-8.8c0,0,1.5-1.2,2.1-0.4C25.6,32.1,23.5,29.6,23.5,29.6z" /><path
   id="path611"
   i:isolated="yes"
   i:knockout="Off"
   opacity="0.7"
   fill="#CD9966"
   a:adobe-blending-mode="multiply"
   enable-background="new    "
   d="      M17.6,25.6c0,0,0.9,1.7,0.2,2.5c-0.7,0.8-4.6,2.5-5.2,3.6c-1.7,0.9-3.8,3-4.7,4.2c-0.8,1.2-3.4,1-4.3,0.7      c-0.9-0.3-1.8,1.9-1,2.2c0.9,0.3,3.1,0.6,4.7-0.6l11.1-8.8c0,0,1.5-1.2,2.1-0.4C19.7,28,17.6,25.6,17.6,25.6z" /><path
   id="path612"
   i:isolated="yes"
   i:knockout="Off"
   opacity="0.7"
   fill="#CD9966"
   a:adobe-blending-mode="multiply"
   enable-background="new    "
   d="      M16.3,20c0,0,0.9,1.7,0.2,2.5s-4.6,2.5-5.2,3.6c-1.7,0.9-3.8,3-4.7,4.2c-0.8,1.2-3.4,1-4.3,0.7c-0.9-0.3-1.8,1.9-1,2.2      c0.9,0.3,3.1,0.6,4.7-0.6l11.1-8.8c0,0,1.5-1.2,2.1-0.4C18.4,22.3,16.3,20,16.3,20z" /><path
   id="path613"
   i:isolated="yes"
   i:knockout="Off"
   opacity="0.7"
   fill="#CD9966"
   a:adobe-blending-mode="multiply"
   enable-background="new    "
   d="      M22.1,16.8c1.4,0.8,4,3.8,4.6,5c0.6,1.2,4,2.3,3.8,4.4c-0.9-1.7-2.7-1.4-3.9-2.7c-1.5-1.5-2.7-2.6-3.4-3.6      C22.5,19,22.1,16.8,22.1,16.8z" /><path
   id="path614"
   i:isolated="yes"
   i:knockout="Off"
   opacity="0.7"
   fill="#CD9966"
   a:adobe-blending-mode="multiply"
   enable-background="new    "
   d="      M23.8,15.9c1.9,0.6,8,1.9,9.8,0.6C30.7,18.7,25.5,18.9,23.8,15.9z" /><path
   id="path615"
   i:isolated="yes"
   i:knockout="Off"
   opacity="0.7"
   fill="#CD9966"
   a:adobe-blending-mode="multiply"
   enable-background="new    "
   d="      M25.7,25c1.7,1.2,3.3,1.4,3.8,2.2c0.5,0.8,0.2,2.5,0.2,2.5C28.7,28.4,26.2,25.5,25.7,25z" /><path
   id="path616"
   i:isolated="yes"
   i:knockout="Off"
   opacity="0.95"
   fill="#FFFFFF"
   a:adobe-blending-mode="lighten"
   enable-background="new    "
   d="      M15.7,6.3c0-2.3,1.4-2.6,2.2-2.7C18.7,3.4,27,6.5,27,6.5s6.5,1.4,6.9,2.2c0.5,0.8,2.3,0.3,2.7,1.2c-1.4-1.9-3-3.6-5.1-3.8      C29.5,5.6,18,1.7,18,1.7S14,3.5,15.7,6.3z" /><path
   id="path617"
   i:isolated="yes"
   i:knockout="Off"
   opacity="0.95"
   fill="#FFFFFF"
   a:adobe-blending-mode="lighten"
   enable-background="new    "
   d="      M2.3,30.5c0.9-0.3,2.8-1.6,3.5-2.6c0.7-1,1.3-1.6,2.4-2.1c1.1-0.6,4.2-2.5,4.9-3.3c0.7-1,2.5-2.4,2.5-2.4l1.3-0.4l2.5-3.7      L3.2,28.3C3.2,28.3,2.2,29.7,2.3,30.5z" /><path
   id="path618"
   i:isolated="yes"
   i:knockout="Off"
   opacity="0.95"
   fill="#FFFFFF"
   a:adobe-blending-mode="lighten"
   enable-background="new    "
   d="      M3.5,36.2c0.9-0.3,2.8-1.6,3.5-2.6c0.7-0.9,1.3-1.6,2.4-2.1c1.1-0.6,4.2-2.5,4.9-3.3c0.7-1,2.5-2.4,2.5-2.4h1.8L18,23.5      L4.4,33.8C4.4,33.8,3.5,35.2,3.5,36.2z" /><path
   id="path619"
   i:isolated="yes"
   i:knockout="Off"
   opacity="0.95"
   fill="#FFFFFF"
   a:adobe-blending-mode="lighten"
   enable-background="new    "
   d="      M8.4,40.2c0.9-0.3,2.8-1.6,3.5-2.6c0.7-1,1.3-1.6,2.4-2.1c1.1-0.6,4.2-2.5,4.9-3.3c0.7-1,0.7-1.2,0.7-1.2l2.8-1.3L20,27.5      l0.6,1.6L9.3,38C9.2,37.9,8.2,39.2,8.4,40.2z" /><path
   id="path620"
   i:isolated="yes"
   i:knockout="Off"
   opacity="0.95"
   fill="#FFFFFF"
   a:adobe-blending-mode="lighten"
   enable-background="new    "
   d="      M13.7,44.2c0.9-0.2,2.8-1.6,3.5-2.6c0.7-1,1.3-1.6,2.4-2.1c1.1-0.6,4.2-2.5,4.9-3.3c0.7-0.8,0.7-1.2,0.7-1.2l2.8-1.3l-2.7-2.2      l0.6,1.6L14.6,42C14.5,42,13.6,43.2,13.7,44.2z" /><path
   d="M47.3,16.6c0.2-0.7,0.4-1.5,0.3-2.3c-0.1-2.7-2.1-5.2-5.9-7.9c-1.6-1.2-3.1-0.2-3.4,0c-0.1,0-1.9,0.6-2.3,0.7      c-0.3-0.5-0.9-1.2-1.7-1.4l-16.1-5c-1.5-0.5-3.3,1.6-4,3.6c-0.3,1-0.4,1.8-0.2,2.6c0.2,0.6,0.5,1.4,1.5,1.7l5.6,1.8      c0.9,0.4,1.1,0.7,0.9,1.2c-0.2,0.2-1.1,1.9-1.2,2L2.3,28c-0.9,0.6-1.4,1.5-1.7,2.3c-0.3,1-0.2,1.8-0.1,2.5      c0.3,0.9,0.9,1.6,1.6,1.8c-0.9,1-1.2,2.4-0.8,3.5c0.5,2.3,2.9,3.3,5.5,1.7c0,0.1-0.1,0.2,0,0.4c-0.1,1.3,0.5,2.5,1.6,3.3      c0.9,0.5,2.2,0.8,3.6,0.2c-0.1,0.2-0.1,0.4-0.1,0.5c-0.1,1,0.2,2,1,2.5c1,0.8,3.1,1,5.4-1.1l12.8-10c0.4-0.3,9.3-7.4,10.8-9.3      c0.9-1,1.3-1.8,1.6-2.8c0.2-0.7,0.4-1.6,0.6-2.7l1.9-1.5C45.9,19.4,47.1,17.4,47.3,16.6z M45.6,18.2L43.3,20l-0.2,1.2      c-0.2,1.1-0.3,1.9-0.5,2.5c-0.2,0.7-0.6,1.3-1.2,2.1c-1.2,1.5-8.1,7.2-10.6,9.1l-12.9,10c-2,1.7-3.6,1.5-4.5,1      c-0.5-0.4-0.7-0.9-0.6-1.5c0.1-0.6,0.6-1.3,1.3-1.9l0,0c2.5-2,11.5-9,11.5-9l-1.5-1l0.2,0.6l-11.2,8.7c-1.6,1.5-3.3,1.3-4.3,0.6      c-0.8-0.5-1.3-1.3-1.2-2.2c0-0.1,0-0.3,0-0.4c0.1-0.4,0.3-0.6,0.5-0.9c0.7-0.6,1.5-1.2,1.5-1.2l0,0c2.2-1.7,7.9-6.2,9.4-7.3      c0.2-0.2,1.2-0.4,1.2-0.4l-1.3-1.6l-0.1,1l-10.3,8C8.2,37.6,8,37.8,7.8,38L7,38.7c-2.5,1.7-4.4,0.6-4.9-0.9      c0-0.5-0.1-0.9,0.1-1.3c0.1-0.5,0.5-1,1.1-1.4l14.4-10.8l-0.3-2.1L16.5,24L3.9,33.4l0,0c-0.9,0.8-2,0-2.4-1.1      c-0.3-1.2,0.1-2.2,1.2-3l18.8-14.8l1.6-2.6c0.6-1.9-0.7-2.6-1.4-2.8L16,7.2c-0.6-0.2-0.9-0.5-1-1c-0.1-0.6,0.1-1.1,0.2-1.5      c0.5-1.6,1.7-3,2.8-2.7l16.1,5c0.6,0.2,1.2,1,1.3,1.3l0.2,0.3l2.9-1.1l0.1-0.1c0,0,1.3-0.9,2.6,0c3.6,2.4,5.5,4.9,5.6,7      c0,0.5-0.1,1.1-0.2,1.6C46.2,17,45.9,17.6,45.6,18.2z"
   id="path622" /></g><g
   id="g623"
   i:knockout="Off"><path
   id="path624"
   fill="#FFFFFF"
   stroke="#58587C"
   stroke-width="1.5781"
   stroke-miterlimit="2"
   d="M37.5,34.8      c0,2.1-0.4,3.7,3.2,3.7L8.5,38.6c-2.1,0-3.8-1.7-3.8-3.8V13.2c0-2.1,1.7-3.8,3.8-3.8h12.7l2.8,3.7h12.2c1.2,0,1.3,1,1.2,2.4      v19.3H37.5z" /><linearGradient
   id="path631_1_"
   gradientUnits="userSpaceOnUse"
   x1="-391.3281"
   y1="36.7759"
   x2="-418.7272"
   y2="12.8104"
   gradientTransform="matrix(1 0 0 1 425.709 9.765625e-004)"><stop
   offset="0"
   style="stop-color:#F7F7FF"
   id="stop626" /><stop
   offset="1"
   style="stop-color:#E6E6E6"
   id="stop627" /><a:midPointStop
   offset="0"
   style="stop-color:#F7F7FF"
   id="midPointStop628" /><a:midPointStop
   offset="0.5"
   style="stop-color:#F7F7FF"
   id="midPointStop629" /><a:midPointStop
   offset="1"
   style="stop-color:#E6E6E6"
   id="midPointStop630" /></linearGradient><path
   id="path631"
   fill="url(#path631_1_)"
   d="M36.1,33.6c0,1.8-1.5,3.3-3.4,3.3h-23c-1.9,0-3.4-1.5-3.4-3.3V14.9      c0-1.8,1.5-3.3,3.4-3.3h11.5l2.6,3.2h11.1c1.1,0,1.2,0.9,1.1,2.1v16.7H36.1z" /><g
   id="g632"
   i:knockout="Off"><path
   id="path633"
   i:isolated="yes"
   i:knockout="Off"
   opacity="0.7"
   fill="#FFFFFF"
   stroke="#002B92"
   stroke-width="1.5015"
   enable-background="new    "
   d="       M12.4,35.9c0,1.4-1.9,2.7-3.7,2.7l31-0.1c2,0,3.5-1.2,3.5-2.6V21c0-1.4-1.6-2.6-3.5-2.6h-12L25.1,21H13.6       c-1.1,0-1.3,0.7-1.2,1.6V35.9z" /><linearGradient
   id="path647_1_"
   gradientUnits="userSpaceOnUse"
   x1="-406.8525"
   y1="36.9487"
   x2="-375.7974"
   y2="36.9487"
   gradientTransform="matrix(1.0755 0 0 1 446.9702 9.765625e-004)"><stop
   offset="0"
   style="stop-color:#FFFFFF"
   id="stop635" /><stop
   offset="0.1208"
   style="stop-color:#FBFBFE"
   id="stop636" /><stop
   offset="0.2458"
   style="stop-color:#EEEEFA"
   id="stop637" /><stop
   offset="0.3727"
   style="stop-color:#DADAF3"
   id="stop638" /><stop
   offset="0.5009"
   style="stop-color:#BDBDEA"
   id="stop639" /><stop
   offset="0.6302"
   style="stop-color:#9797DE"
   id="stop640" /><stop
   offset="0.7604"
   style="stop-color:#6969CF"
   id="stop641" /><stop
   offset="0.8889"
   style="stop-color:#3434BF"
   id="stop642" /><stop
   offset="1"
   style="stop-color:#0000AE"
   id="stop643" /><a:midPointStop
   offset="0"
   style="stop-color:#FFFFFF"
   id="midPointStop644" /><a:midPointStop
   offset="0.5"
   style="stop-color:#FFFFFF"
   id="midPointStop645" /><a:midPointStop
   offset="0.1208"
   style="stop-color:#FBFBFE"
   id="midPointStop646" /><a:midPointStop
   offset="0.5"
   style="stop-color:#FBFBFE"
   id="midPointStop647" /><a:midPointStop
   offset="0.2458"
   style="stop-color:#EEEEFA"
   id="midPointStop648" /><a:midPointStop
   offset="0.5"
   style="stop-color:#EEEEFA"
   id="midPointStop649" /><a:midPointStop
   offset="0.3727"
   style="stop-color:#DADAF3"
   id="midPointStop650" /><a:midPointStop
   offset="0.5"
   style="stop-color:#DADAF3"
   id="midPointStop651" /><a:midPointStop
   offset="0.5009"
   style="stop-color:#BDBDEA"
   id="midPointStop652" /><a:midPointStop
   offset="0.5"
   style="stop-color:#BDBDEA"
   id="midPointStop653" /><a:midPointStop
   offset="0.6302"
   style="stop-color:#9797DE"
   id="midPointStop654" /><a:midPointStop
   offset="0.5"
   style="stop-color:#9797DE"
   id="midPointStop655" /><a:midPointStop
   offset="0.7604"
   style="stop-color:#6969CF"
   id="midPointStop656" /><a:midPointStop
   offset="0.5"
   style="stop-color:#6969CF"
   id="midPointStop657" /><a:midPointStop
   offset="0.8889"
   style="stop-color:#3434BF"
   id="midPointStop658" /><a:midPointStop
   offset="0.5"
   style="stop-color:#3434BF"
   id="midPointStop659" /><a:midPointStop
   offset="1"
   style="stop-color:#0000AE"
   id="midPointStop660" /></linearGradient><path
   id="path647"
   i:isolated="yes"
   i:knockout="Off"
   opacity="0.4"
   fill="url(#path647_1_)"
   enable-background="new    "
   d="       M13,35.6c0,1.4-1.8,2.7-3.6,2.7l30-0.1c1.9,0,3.4-1.2,3.4-2.6H13z" /><linearGradient
   id="path658_1_"
   gradientUnits="userSpaceOnUse"
   x1="-385.9131"
   y1="16.9478"
   x2="-401.5701"
   y2="27.9377"
   gradientTransform="matrix(1 0 0 1 425.709 9.765625e-004)"><stop
   offset="0"
   style="stop-color:#FFFFFF"
   id="stop663" /><stop
   offset="0.1402"
   style="stop-color:#C3E7FF"
   id="stop664" /><stop
   offset="0.3652"
   style="stop-color:#5BBDFF"
   id="stop665" /><stop
   offset="1"
   style="stop-color:#446CF6"
   id="stop666" /><a:midPointStop
   offset="0"
   style="stop-color:#FFFFFF"
   id="midPointStop667" /><a:midPointStop
   offset="0.5"
   style="stop-color:#FFFFFF"
   id="midPointStop668" /><a:midPointStop
   offset="0.1402"
   style="stop-color:#C3E7FF"
   id="midPointStop669" /><a:midPointStop
   offset="0.5"
   style="stop-color:#C3E7FF"
   id="midPointStop670" /><a:midPointStop
   offset="0.3652"
   style="stop-color:#5BBDFF"
   id="midPointStop671" /><a:midPointStop
   offset="0.5"
   style="stop-color:#5BBDFF"
   id="midPointStop672" /><a:midPointStop
   offset="1"
   style="stop-color:#446CF6"
   id="midPointStop673" /></linearGradient><path
   id="path658"
   i:isolated="yes"
   i:knockout="Off"
   opacity="0.7"
   fill="url(#path658_1_)"
   enable-background="new    "
   d="       M12.4,29.5c2,0,29.1,0,30,0v-8.2c0-1.4-1.5-2.6-3.5-2.6H27.4l-2.6,2.6H13.6c-1.1,0-1.2,0.7-1.1,1.6v6.6H12.4z" /><path
   id="path659"
   i:isolated="yes"
   i:knockout="Off"
   opacity="0.4"
   fill="#FFFFD7"
   enable-background="new    "
   d="M39,18.7       H27.3l-2.6,2.6h-4.1c0.5,3.3,5.2,5.8,10.9,5.8c5.9,0,10.8-2.8,10.9-6.3C42.1,19.6,40.7,18.7,39,18.7z" /><path
   id="path660"
   i:isolated="yes"
   i:knockout="Off"
   opacity="0.7"
   fill="none"
   stroke="#002B92"
   stroke-width="1.5015"
   enable-background="new    "
   d="       M12.4,35.9c0,1.4-1.9,2.7-3.7,2.7l31-0.1c2,0,3.5-1.2,3.5-2.6V21c0-1.4-1.6-2.6-3.5-2.6h-12L25.1,21H13.6       c-1.1,0-1.3,0.7-1.2,1.6V35.9z" /></g></g><rect
   id="rect661"
   i:knockout="Off"
   fill="none"
   width="48"
   height="48" /></g></svg>
