<?xml version="1.0" encoding="UTF-8" standalone="no"?>
<!DOCTYPE svg PUBLIC "-//W3C//DTD SVG 20010904//EN"
"http://www.w3.org/TR/2001/REC-SVG-20010904/DTD/svg10.dtd">
<!-- Created with Sodipodi ("http://www.sodipodi.com/") -->
<svg
   xmlns:x="http://ns.adobe.com/Extensibility/1.0/"
   xmlns:i="http://ns.adobe.com/AdobeIllustrator/10.0/"
   xmlns:graph="http://ns.adobe.com/Graphs/1.0/"
   xmlns="http://www.w3.org/2000/svg"
   xmlns:xlink="http://www.w3.org/1999/xlink"
   xmlns:a="http://ns.adobe.com/AdobeSVGViewerExtensions/3.0/"
   xml:space="preserve"
   i:viewOrigin="282.5 419.5"
   i:rulerOrigin="0 0"
   i:pageBounds="0 792 612 0"
   width="48"
   height="48"
   viewBox="0 0 48 48"
   overflow="visible"
   enable-background="new 0 0 48 48"
   xmlns:sodipodi="http://sodipodi.sourceforge.net/DTD/sodipodi-0.dtd"
   id="svg602"
   sodipodi:version="0.34"
   sodipodi:docname="C:\msys\home\su_blanc\mldonkey-2.5.12\src\gtk2\rsvg\stock_ok.svg"><defs
   id="defs640" /><sodipodi:namedview
   id="namedview639" /><g
   id="Layer_1"
   i:knockout="Off"
   i:layer="yes"
   i:dimmedPercent="50"
   i:rgbTrio="#4F008000FFFF"><g
   id="Layer_1_1_"
   i:knockout="Off"><rect
   id="path551"
   i:knockout="Off"
   fill="none"
   width="48"
   height="48" /></g><path
   id="path552"
   i:isolated="yes"
   i:knockout="Off"
   opacity="0.25"
   enable-background="new    "
   d="M1.6,24.6     c0,12.7,10.3,22.9,22.9,22.9c12.7,0,22.9-10.3,22.9-22.9S37.2,1.6,24.6,1.6S1.6,11.9,1.6,24.6z" /><path
   id="path553"
   fill="#00008D"
   d="M1.1,24c0,12.7,10.3,22.9,22.9,22.9c12.7,0,22.9-10.3,22.9-22.9S36.7,1.1,24,1.1     S1.1,11.3,1.1,24z" /><path
   id="path554"
   fill="#0032A4"
   d="M24,1.4C11.6,1.4,1.4,11.6,1.4,24S11.6,46.6,24,46.6S46.6,36.4,46.6,24S36.4,1.4,24,1.4z" /><radialGradient
   id="path564_1_"
   cx="-401.2207"
   cy="-70.7871"
   r="259.5079"
   fx="-401.2207"
   fy="-70.7871"
   gradientTransform="matrix(0.1875 0 0 0.1875 84.5625 24)"
   gradientUnits="userSpaceOnUse"><stop
   offset="5.600000e-003"
   style="stop-color:#99CCFF"
   id="stop612" /><stop
   offset="0.5843"
   style="stop-color:#3399FF"
   id="stop613" /><stop
   offset="1"
   style="stop-color:#0035ED"
   id="stop614" /><a:midPointStop
   offset="5.600000e-003"
   style="stop-color:#99CCFF"
   id="midPointStop615" /><a:midPointStop
   offset="0.5"
   style="stop-color:#99CCFF"
   id="midPointStop616" /><a:midPointStop
   offset="0.5843"
   style="stop-color:#3399FF"
   id="midPointStop617" /><a:midPointStop
   offset="0.5"
   style="stop-color:#3399FF"
   id="midPointStop618" /><a:midPointStop
   offset="1"
   style="stop-color:#0035ED"
   id="midPointStop619" /></radialGradient><circle
   id="path564"
   fill="url(#path564_1_)"
   cx="24"
   cy="24"
   r="21.4" /><path
   id="path565"
   i:isolated="yes"
   i:knockout="Off"
   opacity="0.7"
   fill="#FFFFFF"
   enable-background="new    "
   d="M3.1,24.8     c0-11.8,9.6-21.4,21.4-21.4c6.9,0,13,3.2,16.9,8.3c-3.9-5.5-10.3-9-17.5-9C12.2,2.6,2.6,12.2,2.6,24c0,5,1.7,9.6,4.5,13.2     C4.6,33.7,3.1,29.4,3.1,24.8z" /><linearGradient
   id="path572_1_"
   gradientUnits="userSpaceOnUse"
   x1="-324.2915"
   y1="-111.7988"
   x2="-324.2915"
   y2="-22.7979"
   gradientTransform="matrix(0.1875 0 0 0.1875 84.5625 24)"><stop
   offset="5.600000e-003"
   style="stop-color:#FFFFFF"
   id="stop623" /><stop
   offset="1"
   style="stop-color:#7ABDFF"
   id="stop624" /><a:midPointStop
   offset="5.600000e-003"
   style="stop-color:#FFFFFF"
   id="midPointStop625" /><a:midPointStop
   offset="0.5"
   style="stop-color:#FFFFFF"
   id="midPointStop626" /><a:midPointStop
   offset="1"
   style="stop-color:#7ABDFF"
   id="midPointStop627" /></linearGradient><path
   id="path572"
   fill="url(#path572_1_)"
   d="M6.5,14.1c4.1,1.9,9.9,3,16.3,3c7.4,0,14-1.5,18.1-3.9c-3.4-5.9-9.7-9.8-17-9.8     C16.4,3.3,9.8,7.7,6.5,14.1z" /><g
   id="g629"><path
   d="M34.8,12.2c-1.2,0.2-2.2,0.7-2.9,1.7c0,0-7.2,10.1-9.8,13.4c-2.2-2.2-6-6-6-6c-0.7-0.7-1.9-1.2-3.1-1.2      c-1.2,0-2.2,0.5-3.1,1.2c-1.7,1.7-1.7,4.3,0,6l9.4,9.4c1,1,2.2,1.2,3.4,1.2c1.2,0,2.4-0.7,3.1-1.7l13-17c1.4-1.9,1.2-4.6-0.7-6      C37,12.5,36,12.2,34.8,12.2z"
   id="path630" /><path
   fill="#FFFFFF"
   d="M35.3,12.7c-1.2,0.2-2.2,0.7-2.9,1.7c0,0-7.2,10.1-9.8,13.4c-2.2-2.2-6-6-6-6c-0.7-0.7-1.9-1.2-3.1-1.2      c-1.2,0-2.2,0.5-3.1,1.2c-1.7,1.7-1.7,4.3,0,6l9.4,9.4c1,1,2.2,1.2,3.4,1.2c1.2,0,2.4-0.7,3.1-1.7l13-17c1.4-1.9,1.2-4.6-0.7-6      C37.4,12.9,36.5,12.7,35.3,12.7z"
   id="path631" /><radialGradient
   id="XMLID_1_"
   cx="-274.373"
   cy="411.6865"
   r="13.3046"
   fx="-274.373"
   fy="411.6865"
   gradientTransform="matrix(2 0 0 -2 565 839)"
   gradientUnits="userSpaceOnUse"><stop
   offset="0"
   style="stop-color:#FFFFFF"
   id="stop633" /><stop
   offset="1"
   style="stop-color:#F0E1BD"
   id="stop634" /><a:midPointStop
   offset="0"
   style="stop-color:#FFFFFF"
   id="midPointStop635" /><a:midPointStop
   offset="0.5"
   style="stop-color:#FFFFFF"
   id="midPointStop636" /><a:midPointStop
   offset="1"
   style="stop-color:#F0E1BD"
   id="midPointStop637" /></radialGradient><path
   fill="url(#XMLID_1_)"
   d="M35,12.5c-1.2,0.2-2.2,0.7-2.9,1.7c0,0-7.2,10.1-9.8,13.4c-2.2-2.4-6.2-6.2-6.2-6.2      c-0.7-0.7-1.9-1.2-3.1-1.2c-1.2,0-2.2,0.5-3.1,1.2c-1.7,1.7-1.7,4.3,0,6l9.4,9.4c1,1,2.2,1.2,3.4,1.2c1.2,0,2.4-0.7,3.1-1.7      l13-17c1.4-1.9,1.2-4.6-0.7-6c-1-0.7-1.9-1-3.1-1L35,12.5z"
   id="path638" /></g></g></svg>
