<?xml version="1.0" encoding="UTF-8" standalone="no"?>
<!DOCTYPE svg PUBLIC "-//W3C//DTD SVG 20010904//EN"
"http://www.w3.org/TR/2001/REC-SVG-20010904/DTD/svg10.dtd">
<!-- Created with Sodipodi ("http://www.sodipodi.com/") -->
<svg
   xmlns:x="http://ns.adobe.com/Extensibility/1.0/"
   xmlns:i="http://ns.adobe.com/AdobeIllustrator/10.0/"
   xmlns:graph="http://ns.adobe.com/Graphs/1.0/"
   xmlns="http://www.w3.org/2000/svg"
   xmlns:xlink="http://www.w3.org/1999/xlink"
   xmlns:a="http://ns.adobe.com/AdobeSVGViewerExtensions/3.0/"
   xml:space="preserve"
   i:viewOrigin="256.7676 426.4468"
   i:rulerOrigin="0 0"
   i:pageBounds="0 792 612 0"
   width="48"
   height="48"
   viewBox="0 0 48 48"
   overflow="visible"
   enable-background="new 0 0 48 48"
   xmlns:sodipodi="http://sodipodi.sourceforge.net/DTD/sodipodi-0.dtd"
   id="svg602"
   sodipodi:version="0.34"
   sodipodi:docname="C:\msys\home\su_blanc\mldonkey-2.5.12\src\gtk2\rsvg\stock_color.svg"><defs
   id="defs630" /><sodipodi:namedview
   id="namedview629" /><g
   id="g704"
   i:knockout="Off"
   i:layer="yes"
   i:dimmedPercent="50"
   i:rgbTrio="#4F008000FFFF"><rect
   id="rect606"
   i:knockout="Off"
   fill="none"
   width="48"
   height="48" /><g
   id="g607"
   i:knockout="Off"><g
   id="path609"
   i:knockout="Off"><path
   id="path610"
   i:isolated="yes"
   i:knockout="Off"
   opacity="0.999"
   fill="#230000"
   enable-background="new    "
   d="M20,38.9       c-0.3-0.4-1.1-1.2-2.6-0.1c-1.2,0.7-1.4,1.9-0.4,4.7c1,2.8,5.7,2.6,5.7,2.6l-0.9-6c0,0-0.3,2.1-0.7,1.1c-1.1,0.9-2-1.2-0.7-1.1       C20.5,39.4,20.4,39.2,20,38.9z" /></g><path
   id="path608"
   fill="#230000"
   d="M21,35.5c-1.1,2.1,0.1,4.6,1.3,10.4c7.7,1,8.5-8.5,8.5-8.5s1.6-0.7,2.9-1.9      C35,34.3,50,10.5,44.9,6.4C41.4,0.2,26.3,25.1,25,28.2c-0.6,1.4-1,4.4-1,4.4C22.3,33.3,21.7,34.3,21,35.5z" /><path
   id="path600"
   fill="#F2962C"
   d="M43.7,7.4c-2.7-2.7-13,14.7-16.4,21.2c4.1,0.9,5.3,2.6,6.2,4.8      C37.2,29.1,47.1,9.2,43.7,7.4z" /><path
   id="path601"
   fill="#8B8B8B"
   d="M26.6,29.4c-0.6-0.1-0.9,1.8-1,3.4c1.7,0.4,3.6,1.3,4,2.9c1.9,0.4,3.3-1.6,3.3-1.6      C32.2,29.7,27.6,29.2,26.6,29.4z" /><linearGradient
   id="path621_1_"
   gradientUnits="userSpaceOnUse"
   x1="-706.4556"
   y1="406.937"
   x2="-699.6169"
   y2="407.6801"
   gradientTransform="matrix(-0.3313 -0.1032 0.2626 -0.8428 -301.7627 290.7978)"><stop
   offset="0"
   style="stop-color:#956D47"
   id="stop614" /><stop
   offset="1"
   style="stop-color:#AB322D"
   id="stop615" /><a:midPointStop
   offset="0"
   style="stop-color:#956D47"
   id="midPointStop616" /><a:midPointStop
   offset="0.5"
   style="stop-color:#956D47"
   id="midPointStop617" /><a:midPointStop
   offset="1"
   style="stop-color:#AB322D"
   id="midPointStop618" /></linearGradient><path
   id="path621"
   fill="url(#path621_1_)"
   d="M43.7,7.4c-2.7-2.7-13,14.7-16.4,21.2c4.1,0.9,5.3,2.6,6.2,4.8      C37.2,29.1,47.1,9.2,43.7,7.4z" /><path
   id="path622"
   fill="#F2D0A8"
   d="M41.7,8.3c2.6-0.6-10.4,21.2-12.1,20.6C26.5,27.9,41.1,8.5,41.7,8.3z" /><path
   id="path623"
   fill="#F2F2F2"
   d="M30.5,30.3l-2,3.7l-1.7-1l1.4-3.5C28.4,29.5,30.5,30.3,30.5,30.3z" /><linearGradient
   id="path624_1_"
   gradientUnits="userSpaceOnUse"
   x1="-707.0391"
   y1="350.9878"
   x2="-713.629"
   y2="370.703"
   gradientTransform="matrix(-0.4936 -0.1538 0.1763 -0.5658 -389.9567 133.702)"><stop
   offset="0"
   style="stop-color:#7E7EBD"
   id="stop623" /><stop
   offset="1"
   style="stop-color:#000000"
   id="stop624" /><a:midPointStop
   offset="0"
   style="stop-color:#7E7EBD"
   id="midPointStop625" /><a:midPointStop
   offset="0.5"
   style="stop-color:#7E7EBD"
   id="midPointStop626" /><a:midPointStop
   offset="1"
   style="stop-color:#000000"
   id="midPointStop627" /></linearGradient><path
   id="path624"
   fill="url(#path624_1_)"
   d="M19.2,44.2c-2-0.3-3-5.1-0.3-3.8c-0.4,1.2,2.4,5.4,3.7-0.3      c-1.4-0.5-1.4-5.4,2.4-6.2c1.8-1,4.4,1.1,4.2,3C29.3,45.2,21.7,45.4,19.2,44.2z" /></g></g></svg>
