<?xml version="1.0" encoding="UTF-8" standalone="no"?>
<!DOCTYPE svg PUBLIC "-//W3C//DTD SVG 20010904//EN"
"http://www.w3.org/TR/2001/REC-SVG-20010904/DTD/svg10.dtd">
<!-- Created with Sodipodi ("http://www.sodipodi.com/") -->
<svg
   xmlns:x="http://ns.adobe.com/Extensibility/1.0/"
   xmlns:i="http://ns.adobe.com/AdobeIllustrator/10.0/"
   xmlns:graph="http://ns.adobe.com/Graphs/1.0/"
   xmlns="http://www.w3.org/2000/svg"
   xmlns:xlink="http://www.w3.org/1999/xlink"
   xmlns:a="http://ns.adobe.com/AdobeSVGViewerExtensions/3.0/"
   xml:space="preserve"
   i:viewOrigin="155.4771 492.9082"
   i:rulerOrigin="0 0"
   i:pageBounds="0 792 612 0"
   width="49"
   height="48"
   viewBox="0 0 49 48"
   overflow="visible"
   enable-background="new 0 0 49 48"
   xmlns:sodipodi="http://sodipodi.sourceforge.net/DTD/sodipodi-0.dtd"
   id="svg602"
   sodipodi:version="0.34"
   sodipodi:docname="C:\msys\home\su_blanc\mldonkey-2.5.12\src\gtk2\rsvg\stock_directory.svg"><defs
   id="defs662" /><sodipodi:namedview
   id="namedview661" /><g
   id="Layer_1_2_"
   i:knockout="Off"
   i:layer="yes"
   i:dimmedPercent="50"
   i:rgbTrio="#4F008000FFFF"><g
   id="g623"
   i:knockout="Off"><path
   id="path624"
   fill="#FFFFFF"
   stroke="#58587C"
   stroke-width="1.9316"
   stroke-miterlimit="2"
   d="M41.1,37.2      c0,2.6-0.5,4.5,3.9,4.5L5.6,41.9C3,41.9,1,39.8,1,37.2V10.8c0-2.6,2-4.7,4.6-4.7h15.5l3.4,4.5h14.9c1.5,0,1.6,1.2,1.5,2.9v23.6      h0.2V37.2z" /><linearGradient
   id="path631_1_"
   gradientUnits="userSpaceOnUse"
   x1="-641.8066"
   y1="14.5757"
   x2="-675.3433"
   y2="-14.7581"
   gradientTransform="matrix(1 0 0 1 679.0801 25.0918)"><stop
   offset="0"
   style="stop-color:#F7F7FF"
   id="stop609" /><stop
   offset="1"
   style="stop-color:#E6E6E6"
   id="stop610" /><a:midPointStop
   offset="0"
   style="stop-color:#F7F7FF"
   id="midPointStop611" /><a:midPointStop
   offset="0.5"
   style="stop-color:#F7F7FF"
   id="midPointStop612" /><a:midPointStop
   offset="1"
   style="stop-color:#E6E6E6"
   id="midPointStop613" /></linearGradient><path
   id="path631"
   fill="url(#path631_1_)"
   d="M39.4,35.8c0,2.2-1.8,4-4.2,4H7.1c-2.3,0-4.2-1.8-4.2-4V12.9c0-2.2,1.8-4,4.2-4      h14.1l3.2,3.9H38c1.3,0,1.5,1.1,1.3,2.6v20.4H39.4z" /><g
   id="g632"
   i:knockout="Off"><path
   id="path633"
   i:isolated="yes"
   i:knockout="Off"
   opacity="0.7"
   fill="#FFFFFF"
   stroke="#002B92"
   stroke-width="1.8378"
   enable-background="new    "
   d="       M10.4,38.6c0,1.7-2.3,3.3-4.5,3.3l37.9-0.1c2.4,0,4.3-1.5,4.3-3.2V20.3c0-1.7-2-3.2-4.3-3.2H29.1l-3.2,3.2h-14       c-1.3,0-1.6,0.9-1.5,2V38.6z" /><linearGradient
   id="path647_1_"
   gradientUnits="userSpaceOnUse"
   x1="-658.7388"
   y1="14.7583"
   x2="-620.7104"
   y2="14.7583"
   gradientTransform="matrix(1.0755 0 0 1 715.1401 25.0918)"><stop
   offset="0"
   style="stop-color:#FFFFFF"
   id="stop618" /><stop
   offset="0.1208"
   style="stop-color:#FBFBFE"
   id="stop619" /><stop
   offset="0.2458"
   style="stop-color:#EEEEFA"
   id="stop620" /><stop
   offset="0.3727"
   style="stop-color:#DADAF3"
   id="stop621" /><stop
   offset="0.5009"
   style="stop-color:#BDBDEA"
   id="stop622" /><stop
   offset="0.6302"
   style="stop-color:#9797DE"
   id="stop623" /><stop
   offset="0.7604"
   style="stop-color:#6969CF"
   id="stop624" /><stop
   offset="0.8889"
   style="stop-color:#3434BF"
   id="stop625" /><stop
   offset="1"
   style="stop-color:#0000AE"
   id="stop626" /><a:midPointStop
   offset="0"
   style="stop-color:#FFFFFF"
   id="midPointStop627" /><a:midPointStop
   offset="0.5"
   style="stop-color:#FFFFFF"
   id="midPointStop628" /><a:midPointStop
   offset="0.1208"
   style="stop-color:#FBFBFE"
   id="midPointStop629" /><a:midPointStop
   offset="0.5"
   style="stop-color:#FBFBFE"
   id="midPointStop630" /><a:midPointStop
   offset="0.2458"
   style="stop-color:#EEEEFA"
   id="midPointStop631" /><a:midPointStop
   offset="0.5"
   style="stop-color:#EEEEFA"
   id="midPointStop632" /><a:midPointStop
   offset="0.3727"
   style="stop-color:#DADAF3"
   id="midPointStop633" /><a:midPointStop
   offset="0.5"
   style="stop-color:#DADAF3"
   id="midPointStop634" /><a:midPointStop
   offset="0.5009"
   style="stop-color:#BDBDEA"
   id="midPointStop635" /><a:midPointStop
   offset="0.5"
   style="stop-color:#BDBDEA"
   id="midPointStop636" /><a:midPointStop
   offset="0.6302"
   style="stop-color:#9797DE"
   id="midPointStop637" /><a:midPointStop
   offset="0.5"
   style="stop-color:#9797DE"
   id="midPointStop638" /><a:midPointStop
   offset="0.7604"
   style="stop-color:#6969CF"
   id="midPointStop639" /><a:midPointStop
   offset="0.5"
   style="stop-color:#6969CF"
   id="midPointStop640" /><a:midPointStop
   offset="0.8889"
   style="stop-color:#3434BF"
   id="midPointStop641" /><a:midPointStop
   offset="0.5"
   style="stop-color:#3434BF"
   id="midPointStop642" /><a:midPointStop
   offset="1"
   style="stop-color:#0000AE"
   id="midPointStop643" /></linearGradient><path
   id="path647"
   i:isolated="yes"
   i:knockout="Off"
   opacity="0.4"
   fill="url(#path647_1_)"
   enable-background="new    "
   d="       M11.1,38.2c0,1.7-2.2,3.3-4.4,3.3l36.7-0.1c2.3,0,4.2-1.5,4.2-3.2H11.1z" /><linearGradient
   id="path658_1_"
   gradientUnits="userSpaceOnUse"
   x1="-635.1934"
   y1="-9.7134"
   x2="-654.358"
   y2="3.7385"
   gradientTransform="matrix(1 0 0 1 679.0801 25.0918)"><stop
   offset="0"
   style="stop-color:#FFFFFF"
   id="stop646" /><stop
   offset="0.1402"
   style="stop-color:#C3E7FF"
   id="stop647" /><stop
   offset="0.3652"
   style="stop-color:#5BBDFF"
   id="stop648" /><stop
   offset="1"
   style="stop-color:#446CF6"
   id="stop649" /><a:midPointStop
   offset="0"
   style="stop-color:#FFFFFF"
   id="midPointStop650" /><a:midPointStop
   offset="0.5"
   style="stop-color:#FFFFFF"
   id="midPointStop651" /><a:midPointStop
   offset="0.1402"
   style="stop-color:#C3E7FF"
   id="midPointStop652" /><a:midPointStop
   offset="0.5"
   style="stop-color:#C3E7FF"
   id="midPointStop653" /><a:midPointStop
   offset="0.3652"
   style="stop-color:#5BBDFF"
   id="midPointStop654" /><a:midPointStop
   offset="0.5"
   style="stop-color:#5BBDFF"
   id="midPointStop655" /><a:midPointStop
   offset="1"
   style="stop-color:#446CF6"
   id="midPointStop656" /></linearGradient><path
   id="path658"
   i:isolated="yes"
   i:knockout="Off"
   opacity="0.7"
   fill="url(#path658_1_)"
   enable-background="new    "
   d="       M10.4,30.7c2.4,0,35.6,0,36.7,0v-10c0-1.7-1.8-3.2-4.3-3.2h-14l-3.2,3.2H11.9c-1.3,0-1.5,0.9-1.3,2v8.1L10.4,30.7L10.4,30.7z" /><path
   id="path659"
   i:isolated="yes"
   i:knockout="Off"
   opacity="0.4"
   fill="#FFFFD7"
   enable-background="new    "
   d="M42.9,17.5       H28.6l-3.2,3.2h-5c0.6,4,6.4,7.1,13.3,7.1c7.2,0,13.2-3.4,13.3-7.7C46.7,18.6,45,17.5,42.9,17.5z" /><path
   id="path660"
   i:isolated="yes"
   i:knockout="Off"
   opacity="0.7"
   fill="none"
   stroke="#002B92"
   stroke-width="1.8378"
   enable-background="new    "
   d="       M10.4,38.6c0,1.7-2.3,3.3-4.5,3.3l37.9-0.1c2.4,0,4.3-1.5,4.3-3.2V20.3c0-1.7-2-3.2-4.3-3.2H29.1l-3.2,3.2h-14       c-1.3,0-1.6,0.9-1.5,2V38.6z" /></g></g><rect
   id="rect660"
   x="0.5"
   i:knockout="Off"
   fill="none"
   width="48"
   height="48" /></g></svg>
