<?xml version="1.0" encoding="UTF-8" standalone="no"?>
<!DOCTYPE svg PUBLIC "-//W3C//DTD SVG 20010904//EN"
"http://www.w3.org/TR/2001/REC-SVG-20010904/DTD/svg10.dtd">
<!-- Created with Sodipodi ("http://www.sodipodi.com/") -->
<svg
   xmlns:x="http://ns.adobe.com/Extensibility/1.0/"
   xmlns:i="http://ns.adobe.com/AdobeIllustrator/10.0/"
   xmlns:graph="http://ns.adobe.com/Graphs/1.0/"
   xmlns="http://www.w3.org/2000/svg"
   xmlns:xlink="http://www.w3.org/1999/xlink"
   xmlns:a="http://ns.adobe.com/AdobeSVGViewerExtensions/3.0/"
   xml:space="preserve"
   i:viewOrigin="252.6553 361.1523"
   i:rulerOrigin="0 0"
   i:pageBounds="0 792 612 0"
   width="48"
   height="48"
   viewBox="0 0 48 48"
   overflow="visible"
   enable-background="new 0 0 48 48"
   xmlns:sodipodi="http://sodipodi.sourceforge.net/DTD/sodipodi-0.dtd"
   id="svg602"
   sodipodi:version="0.34"
   sodipodi:docname="C:\msys\home\su_blanc\mldonkey-2.5.12\src\gtk2\rsvg\stock_extend_search.svg"><defs
   id="defs720" /><sodipodi:namedview
   id="base" /><g
   id="Layer_x0020_1"
   i:knockout="Off"
   i:layer="yes"
   i:dimmedPercent="50"
   i:rgbTrio="#4F008000FFFF"><g
   id="g606"><path
   id="path572_1_"
   i:isolated="yes"
   i:knockout="Off"
   opacity="0.2"
   enable-background="new    "
   d="M22.5,1.8      c-0.5,0.3-0.8,0.8-0.8,1.4v26.5c0,0.6,0.3,1.1,0.8,1.4c0.5,0.3,1.1,0.3,1.6,0l23.1-13.2c0.5-0.3,0.8-0.8,0.8-1.4      s-0.3-1.1-0.8-1.4L24.1,1.8C23.6,1.5,23,1.5,22.5,1.8z" /><path
   id="path573_1_"
   fill="#003300"
   d="M21.4,0.2c-0.5,0.3-0.8,0.8-0.8,1.4v26.5c0,0.6,0.3,1.1,0.8,1.4c0.5,0.3,1.1,0.3,1.6,0      l23.1-13.2c0.5-0.3,0.8-0.8,0.8-1.4s-0.3-1.1-0.8-1.4L23,0.2C22.5-0.1,21.9-0.1,21.4,0.2z" /><linearGradient
   id="path574_2_"
   gradientUnits="userSpaceOnUse"
   x1="33.769"
   y1="1.0928"
   x2="33.769"
   y2="28.9215"><stop
   offset="0"
   style="stop-color:#00FF00"
   id="stop610" /><stop
   offset="9.871679e-002"
   style="stop-color:#00FB00"
   id="stop611" /><stop
   offset="0.189"
   style="stop-color:#00F000"
   id="stop612" /><stop
   offset="0.2759"
   style="stop-color:#00DE00"
   id="stop613" /><stop
   offset="0.3609"
   style="stop-color:#00C400"
   id="stop614" /><stop
   offset="0.4435"
   style="stop-color:#00A200"
   id="stop615" /><stop
   offset="0.5169"
   style="stop-color:#007E00"
   id="stop616" /><stop
   offset="0.5899"
   style="stop-color:#007E00"
   id="stop617" /><stop
   offset="0.6484"
   style="stop-color:#00A300"
   id="stop618" /><stop
   offset="0.7137"
   style="stop-color:#00C400"
   id="stop619" /><stop
   offset="0.7809"
   style="stop-color:#00DE00"
   id="stop620" /><stop
   offset="0.8498"
   style="stop-color:#00F000"
   id="stop621" /><stop
   offset="0.9214"
   style="stop-color:#00FB00"
   id="stop622" /><stop
   offset="1"
   style="stop-color:#00FF00"
   id="stop623" /><a:midPointStop
   offset="0"
   style="stop-color:#00FF00"
   id="midPointStop624" /><a:midPointStop
   offset="0.7253"
   style="stop-color:#00FF00"
   id="midPointStop625" /><a:midPointStop
   offset="0.5169"
   style="stop-color:#007E00"
   id="midPointStop626" /><a:midPointStop
   offset="0.5"
   style="stop-color:#007E00"
   id="midPointStop627" /><a:midPointStop
   offset="0.5899"
   style="stop-color:#007E00"
   id="midPointStop628" /><a:midPointStop
   offset="0.274"
   style="stop-color:#007E00"
   id="midPointStop629" /><a:midPointStop
   offset="1"
   style="stop-color:#00FF00"
   id="midPointStop630" /></linearGradient><polygon
   id="path574_1_"
   fill="url(#path574_2_)"
   points="22.2,1.6 45.3,14.8 22.2,28.1 " /><path
   id="path589_1_"
   i:isolated="yes"
   i:knockout="Off"
   opacity="0.7"
   fill="#FFFFFF"
   enable-background="new    "
   d="      M22.8,2.6c-0.1,0-0.1,0.1-0.1,0.2v16.4c0,0.1,0.1,4.2,0.2,4.2c0.1,0,0.3-17.4,1.2-18.3c0.9-0.9,19.2,9.6,19.2,9.4      c0.1-0.1-3.1-2-3.2-2.1L23,2.6C23,2.5,22.9,2.5,22.8,2.6z" /></g><g
   id="g633"><path
   id="path572"
   i:isolated="yes"
   i:knockout="Off"
   opacity="0.2"
   enable-background="new    "
   d="M1.9,1.8      C1.4,2.1,1.1,2.6,1.1,3.2v26.5c0,0.6,0.3,1.1,0.8,1.4s1.1,0.3,1.6,0l23.1-13.2c0.5-0.3,0.8-0.8,0.8-1.4s-0.3-1.1-0.8-1.4      L3.5,1.8C3,1.5,2.4,1.5,1.9,1.8z" /><path
   id="path573"
   fill="#003300"
   d="M0.8,0.2C0.3,0.5,0,1,0,1.6v26.5c0,0.6,0.3,1.1,0.8,1.4c0.5,0.3,1.1,0.3,1.6,0l23.1-13.2      c0.5-0.3,0.8-0.8,0.8-1.4s-0.3-1.1-0.8-1.4L2.4,0.2C1.9-0.1,1.3-0.1,0.8,0.2z" /><linearGradient
   id="path574_3_"
   gradientUnits="userSpaceOnUse"
   x1="13.1411"
   y1="1.0928"
   x2="13.1411"
   y2="28.9215"><stop
   offset="0"
   style="stop-color:#00FF00"
   id="stop637" /><stop
   offset="9.871679e-002"
   style="stop-color:#00FB00"
   id="stop638" /><stop
   offset="0.189"
   style="stop-color:#00F000"
   id="stop639" /><stop
   offset="0.2759"
   style="stop-color:#00DE00"
   id="stop640" /><stop
   offset="0.3609"
   style="stop-color:#00C400"
   id="stop641" /><stop
   offset="0.4435"
   style="stop-color:#00A200"
   id="stop642" /><stop
   offset="0.5169"
   style="stop-color:#007E00"
   id="stop643" /><stop
   offset="0.5899"
   style="stop-color:#007E00"
   id="stop644" /><stop
   offset="0.6484"
   style="stop-color:#00A300"
   id="stop645" /><stop
   offset="0.7137"
   style="stop-color:#00C400"
   id="stop646" /><stop
   offset="0.7809"
   style="stop-color:#00DE00"
   id="stop647" /><stop
   offset="0.8498"
   style="stop-color:#00F000"
   id="stop648" /><stop
   offset="0.9214"
   style="stop-color:#00FB00"
   id="stop649" /><stop
   offset="1"
   style="stop-color:#00FF00"
   id="stop650" /><a:midPointStop
   offset="0"
   style="stop-color:#00FF00"
   id="midPointStop651" /><a:midPointStop
   offset="0.7253"
   style="stop-color:#00FF00"
   id="midPointStop652" /><a:midPointStop
   offset="0.5169"
   style="stop-color:#007E00"
   id="midPointStop653" /><a:midPointStop
   offset="0.5"
   style="stop-color:#007E00"
   id="midPointStop654" /><a:midPointStop
   offset="0.5899"
   style="stop-color:#007E00"
   id="midPointStop655" /><a:midPointStop
   offset="0.274"
   style="stop-color:#007E00"
   id="midPointStop656" /><a:midPointStop
   offset="1"
   style="stop-color:#00FF00"
   id="midPointStop657" /></linearGradient><polygon
   id="path574"
   fill="url(#path574_3_)"
   points="1.6,1.6 24.7,14.8 1.6,28.1 " /><path
   id="path589"
   i:isolated="yes"
   i:knockout="Off"
   opacity="0.7"
   fill="#FFFFFF"
   enable-background="new    "
   d="M2.2,2.6      c-0.1,0-0.1,0.1-0.1,0.2v16.4c0,0.1,0.1,4.2,0.2,4.2C2.4,23.3,2.6,5.9,3.4,5c0.9-0.9,19.2,9.6,19.2,9.4c0.1-0.1-3.1-2-3.2-2.1      L2.4,2.6C2.3,2.5,2.2,2.5,2.2,2.6z" /></g></g><g
   id="Layer_2_1_"
   i:knockout="Off"
   i:layer="yes"
   i:dimmedPercent="3"
   i:rgbTrio="#FFFF4F004F00"><g
   id="g678"
   i:knockout="Off"><g
   id="g662"
   i:isolated="yes"
   i:knockout="Off"
   enable-background="new    "><g
   id="g666"
   i:knockout="Off"><path
   fill="#1C1B3C"
   d="M17.6,28c0,8.5,6.7,15.2,15.2,15.2S48,36.5,48,28c0.3-8.5-6.7-15.2-15.2-15.2S17.5,19.5,17.6,28z         M22.8,28c0-5.6,4.4-10,10-10c5.6,0,10.2,4.5,10,10c0,5.6-4.5,10-10,10C27.2,38,22.8,33.6,22.8,28z"
   id="path664" /></g></g><path
   fill="#919191"
   d="M14.2,42.6v0.1c-1.1,1.2-1.1,3.2,0,4.3c1.1,1.1,3.1,1.1,4.2,0l4.8-4.8c0.9-0.9,1.1-2,0.7-3.1      c2.6,1.8,5.8,3.1,9.1,3.1c7.9,0,14.2-6.4,14.2-14.2c0-7.9-6.5-14.2-14.3-14.2c-7.9,0-14.2,6.4-14.2,14.2c0,3.6,1.3,6.7,3.3,9.1      c-1.1-0.4-2.4,0-3.1,0.7l-4.8,4.8H14.2z M20.6,28.2C20.6,21.5,26,16,32.8,16C39.5,16,45,21.4,45,28.2c0,6.7-5.4,12.2-12.2,12.2      C26.1,40.4,20.6,35.1,20.6,28.2z"
   id="path665" /><path
   id="path617"
   i:isolated="yes"
   i:knockout="Off"
   opacity="0.5"
   fill="none"
   stroke="#FFFFFF"
   stroke-width="0.3429"
   stroke-linecap="round"
   enable-background="new    "
   d="      M33.2,14.8c7.2,0,13.1,5.9,13.1,13.1" /><path
   id="path618"
   i:isolated="yes"
   i:knockout="Off"
   opacity="0.5"
   fill="none"
   stroke="#FFFFFF"
   stroke-width="0.3429"
   stroke-linecap="round"
   enable-background="new    "
   d="      M31.8,40.8c-6.4,0-11.6-5.1-11.6-11.6" /><radialGradient
   id="path700_1_"
   cx="-1831.9355"
   cy="358.4453"
   r="8.0122"
   fx="-1831.9355"
   fy="358.4453"
   gradientTransform="matrix(-2 0 0 -2 -3635.165 750.3555)"
   gradientUnits="userSpaceOnUse"><stop
   offset="0"
   style="stop-color:#FFFFFF"
   id="stop669" /><stop
   offset="0.7303"
   style="stop-color:#3F4A8E"
   id="stop670" /><stop
   offset="0.8388"
   style="stop-color:#3A4A92"
   id="stop671" /><stop
   offset="0.997"
   style="stop-color:#2C499E"
   id="stop672" /><stop
   offset="1"
   style="stop-color:#2C499E"
   id="stop673" /><a:midPointStop
   offset="0"
   style="stop-color:#FFFFFF"
   id="midPointStop674" /><a:midPointStop
   offset="0.5"
   style="stop-color:#FFFFFF"
   id="midPointStop675" /><a:midPointStop
   offset="0.7303"
   style="stop-color:#3F4A8E"
   id="midPointStop676" /><a:midPointStop
   offset="0.5"
   style="stop-color:#3F4A8E"
   id="midPointStop677" /><a:midPointStop
   offset="0.8388"
   style="stop-color:#3A4A92"
   id="midPointStop678" /><a:midPointStop
   offset="0.5"
   style="stop-color:#3A4A92"
   id="midPointStop679" /><a:midPointStop
   offset="0.997"
   style="stop-color:#2C499E"
   id="midPointStop680" /><a:midPointStop
   offset="0.5"
   style="stop-color:#2C499E"
   id="midPointStop681" /><a:midPointStop
   offset="1"
   style="stop-color:#2C499E"
   id="midPointStop682" /></radialGradient><path
   id="path700"
   i:isolated="yes"
   i:knockout="Off"
   opacity="0.47"
   fill="url(#path700_1_)"
   enable-background="new    "
   d="      M32.8,18c5.6,0,10.2,4.5,10,10c0,5.6-4.4,10-10,10c-5.6,0-10-4.5-10-10S27.2,18,32.8,18z" /><linearGradient
   id="path641_1_"
   gradientUnits="userSpaceOnUse"
   x1="-1871.4009"
   y1="336.1934"
   x2="-1863.5868"
   y2="328.3792"
   gradientTransform="matrix(-1 0 0 -1 -1832.6338 358.0039)"><stop
   offset="0"
   style="stop-color:#FFFFFF"
   id="stop685" /><stop
   offset="1"
   style="stop-color:#A8BDDB"
   id="stop686" /><a:midPointStop
   offset="0"
   style="stop-color:#FFFFFF"
   id="midPointStop687" /><a:midPointStop
   offset="0.5"
   style="stop-color:#FFFFFF"
   id="midPointStop688" /><a:midPointStop
   offset="1"
   style="stop-color:#A8BDDB"
   id="midPointStop689" /></linearGradient><path
   id="path641"
   fill="url(#path641_1_)"
   d="M32.8,18.8c5.1,0,9.2,4.2,9.2,9.2C42,39.1,20.4,18.8,32.8,18.8z" /><path
   id="path642"
   i:isolated="yes"
   i:knockout="Off"
   opacity="0.48"
   fill="url(#path641_1_)"
   enable-background="new    "
   d="      M32.8,18.8c5.1,0,9.2,4.2,9.2,9.2C42,39.1,20.4,18.8,32.8,18.8z" /><linearGradient
   id="circle642_1_"
   gradientUnits="userSpaceOnUse"
   x1="-1268.2529"
   y1="313.5771"
   x2="-1272.4956"
   y2="309.3346"
   gradientTransform="matrix(-1 0 0 -1 -1249.2334 351.4063)"><stop
   offset="0"
   style="stop-color:#FF0000"
   id="stop693" /><stop
   offset="1"
   style="stop-color:#810000"
   id="stop694" /><a:midPointStop
   offset="0"
   style="stop-color:#FF0000"
   id="midPointStop695" /><a:midPointStop
   offset="0.5"
   style="stop-color:#FF0000"
   id="midPointStop696" /><a:midPointStop
   offset="1"
   style="stop-color:#810000"
   id="midPointStop697" /></linearGradient><circle
   id="circle642"
   fill="url(#circle642_1_)"
   cx="21.2"
   cy="40"
   r="3" /><linearGradient
   id="circle649_1_"
   gradientUnits="userSpaceOnUse"
   x1="-1263.2544"
   y1="308.5762"
   x2="-1267.4971"
   y2="304.3335"
   gradientTransform="matrix(-1 0 0 -1 -1249.2334 351.4063)"><stop
   offset="0"
   style="stop-color:#FF0000"
   id="stop700" /><stop
   offset="1"
   style="stop-color:#810000"
   id="stop701" /><a:midPointStop
   offset="0"
   style="stop-color:#FF0000"
   id="midPointStop702" /><a:midPointStop
   offset="0.5"
   style="stop-color:#FF0000"
   id="midPointStop703" /><a:midPointStop
   offset="1"
   style="stop-color:#810000"
   id="midPointStop704" /></linearGradient><circle
   id="circle649"
   fill="url(#circle649_1_)"
   cx="16.2"
   cy="45"
   r="3" /><linearGradient
   id="polygon615_1_"
   gradientUnits="userSpaceOnUse"
   x1="-1849.1797"
   y1="317.6475"
   x2="-1853.4012"
   y2="313.4259"
   gradientTransform="matrix(-1 0 0 -1 -1832.6338 358.0039)"><stop
   offset="0"
   style="stop-color:#FF3200"
   id="stop707" /><stop
   offset="0.3315"
   style="stop-color:#FFED00"
   id="stop708" /><stop
   offset="1"
   style="stop-color:#FF3000"
   id="stop709" /><a:midPointStop
   offset="0"
   style="stop-color:#FF3200"
   id="midPointStop710" /><a:midPointStop
   offset="0.5"
   style="stop-color:#FF3200"
   id="midPointStop711" /><a:midPointStop
   offset="0.3315"
   style="stop-color:#FFED00"
   id="midPointStop712" /><a:midPointStop
   offset="0.5"
   style="stop-color:#FFED00"
   id="midPointStop713" /><a:midPointStop
   offset="1"
   style="stop-color:#FF3000"
   id="midPointStop714" /></linearGradient><polygon
   id="polygon615"
   fill="url(#polygon615_1_)"
   points="14.1,42.7 18.4,47 23.2,42.2 18.9,37.9 " /><line
   id="line616"
   i:isolated="yes"
   i:knockout="Off"
   opacity="0.54"
   fill="none"
   stroke="#FFFFFF"
   stroke-width="0.6858"
   stroke-linecap="round"
   enable-background="new    "
   x1="15.8"
   y1="43.8"
   x2="20.2"
   y2="39.4" /></g></g><g
   id="Layer_3"
   i:knockout="Off"
   i:layer="yes"
   i:dimmedPercent="3"
   i:rgbTrio="#4F00FFFF4F00"><rect
   id="rect606"
   i:knockout="Off"
   fill="none"
   width="48"
   height="48" /></g></svg>
