<?xml version="1.0" encoding="UTF-8" standalone="no"?>
<!DOCTYPE svg PUBLIC "-//W3C//DTD SVG 20010904//EN"
"http://www.w3.org/TR/2001/REC-SVG-20010904/DTD/svg10.dtd">
<!-- Created with Sodipodi ("http://www.sodipodi.com/") -->
<svg
   xmlns:x="http://ns.adobe.com/Extensibility/1.0/"
   xmlns:i="http://ns.adobe.com/AdobeIllustrator/10.0/"
   xmlns:graph="http://ns.adobe.com/Graphs/1.0/"
   xmlns="http://www.w3.org/2000/svg"
   xmlns:xlink="http://www.w3.org/1999/xlink"
   xmlns:a="http://ns.adobe.com/AdobeSVGViewerExtensions/3.0/"
   xml:space="preserve"
   i:viewOrigin="282.5 419.5"
   i:rulerOrigin="0 0"
   i:pageBounds="0 792 612 0"
   width="48"
   height="48"
   viewBox="0 0 48 48"
   overflow="visible"
   enable-background="new 0 0 48 48"
   xmlns:sodipodi="http://sodipodi.sourceforge.net/DTD/sodipodi-0.dtd"
   id="svg602"
   sodipodi:version="0.34"
   sodipodi:docname="C:\msys\home\su_blanc\mldonkey-2.5.12\src\gtk2\rsvg\stock_font.svg"><defs
   id="defs630" /><sodipodi:namedview
   id="namedview629" /><g
   id="Layer_3"
   i:knockout="Off"
   i:layer="yes"
   i:dimmedPercent="50"
   i:rgbTrio="#4F008000FFFF"><path
   id="path605"
   i:isolated="yes"
   i:knockout="Off"
   opacity="0.2"
   enable-background="new    "
   d="M9.2,3.6C7.4,3.6,6,5,6,6.8     v37.5c0,1.8,1.4,3.2,3.2,3.2h33c1.8,0,3.2-1.4,3.2-3.2V6.8c0-1.8-1.4-3.2-3.2-3.2H9.2z" /><linearGradient
   id="path612_1_"
   gradientUnits="userSpaceOnUse"
   x1="-456.7002"
   y1="128.3496"
   x2="-417.2998"
   y2="128.3496"
   gradientTransform="matrix(1 0 0 1 461 -104)"><stop
   offset="0"
   style="stop-color:#A7ABAC"
   id="stop608" /><stop
   offset="1"
   style="stop-color:#85898A"
   id="stop609" /><a:midPointStop
   offset="0"
   style="stop-color:#A7ABAC"
   id="midPointStop610" /><a:midPointStop
   offset="0.5"
   style="stop-color:#A7ABAC"
   id="midPointStop611" /><a:midPointStop
   offset="1"
   style="stop-color:#85898A"
   id="midPointStop612" /></linearGradient><path
   id="path612"
   fill="url(#path612_1_)"
   d="M7.5,2.4c-1.8,0-3.2,1.4-3.2,3.2v37.5c0,1.8,1.4,3.2,3.2,3.2h33     c1.8,0,3.2-1.4,3.2-3.2V5.6c0-1.8-1.4-3.2-3.2-3.2H7.5z" /><path
   id="path613"
   fill="#99CCFF"
   d="M5.3,43.1c0,1.2,1,2.3,2.3,2.3h33c1.2,0,2.3-1,2.3-2.3V5.6c0-1.2-1-2.3-2.3-2.3h-33     c-1.2,0-2.3,1-2.3,2.3V43.1z" /><linearGradient
   id="path620_1_"
   gradientUnits="userSpaceOnUse"
   x1="-445.1426"
   y1="120.207"
   x2="-400.7054"
   y2="164.6443"
   gradientTransform="matrix(1 0 0 1 461 -104)"><stop
   offset="0"
   style="stop-color:#FFFFFF"
   id="stop616" /><stop
   offset="1"
   style="stop-color:#99CCFF"
   id="stop617" /><a:midPointStop
   offset="0"
   style="stop-color:#FFFFFF"
   id="midPointStop618" /><a:midPointStop
   offset="0.5"
   style="stop-color:#FFFFFF"
   id="midPointStop619" /><a:midPointStop
   offset="1"
   style="stop-color:#99CCFF"
   id="midPointStop620" /></linearGradient><path
   id="path620"
   fill="url(#path620_1_)"
   d="M7.5,4.3c-0.7,0-1.3,0.6-1.3,1.3v37.5c0,0.7,0.6,1.3,1.3,1.3h33     c0.7,0,1.3-0.6,1.3-1.3V5.6c0-0.7-0.6-1.3-1.3-1.3H7.5z" /><path
   id="path621"
   i:isolated="yes"
   i:knockout="Off"
   opacity="0.4"
   fill="#FFFFFF"
   enable-background="new    "
   d="M30.6,20.3     c3.5-3.3,7.7-4.9,12.2-5.7v-9c0-1.2-1-2.3-2.3-2.3h-33c-1.2,0-2.3,1-2.3,2.3v26.9C14.5,33.2,23.3,26.7,30.6,20.3z" /><g
   id="g622"
   i:knockout="Off"><path
   id="path623"
   d="M16.1,16.8V20h3.5v1.9h-3.5v7.3c0,1.7,0.5,2.6,1.9,2.6c0.7,0,1.1-0.1,1.4-0.2l0.1,1.9      C19,33.8,18.3,34,17.3,34c-1.2,0-2.1-0.4-2.7-1c-0.7-0.8-1-2-1-3.6V22h-2.1v-2h2.1v-2.5L16.1,16.8z" /></g><g
   id="g624"
   i:knockout="Off"><polygon
   id="polygon625"
   fill="#0066CC"
   points="26.3,34.5 26.3,17.9 20.3,17.9 20.3,14.1 37.5,14.1 37.5,17.9 31.5,17.9       31.5,34.5 " /></g></g><g
   id="Layer_2_1_"
   i:knockout="Off"
   i:layer="yes"
   i:dimmedPercent="50"
   i:rgbTrio="#4F00FFFF4F00"><rect
   id="rect627"
   i:knockout="Off"
   fill="none"
   width="48"
   height="48" /></g></svg>
