<?xml version="1.0" encoding="UTF-8" standalone="no"?>
<!DOCTYPE svg PUBLIC "-//W3C//DTD SVG 20010904//EN"
"http://www.w3.org/TR/2001/REC-SVG-20010904/DTD/svg10.dtd">
<!-- Created with Sodipodi ("http://www.sodipodi.com/") -->
<svg
   xmlns:x="http://ns.adobe.com/Extensibility/1.0/"
   xmlns:i="http://ns.adobe.com/AdobeIllustrator/10.0/"
   xmlns:graph="http://ns.adobe.com/Graphs/1.0/"
   xmlns="http://www.w3.org/2000/svg"
   xmlns:xlink="http://www.w3.org/1999/xlink"
   xmlns:a="http://ns.adobe.com/AdobeSVGViewerExtensions/3.0/"
   xml:space="preserve"
   i:viewOrigin="282.5 419.5"
   i:rulerOrigin="0 0"
   i:pageBounds="0 792 612 0"
   width="48"
   height="48"
   viewBox="0 0 48 48"
   overflow="visible"
   enable-background="new 0 0 48 48"
   xmlns:sodipodi="http://sodipodi.sourceforge.net/DTD/sodipodi-0.dtd"
   id="svg602"
   sodipodi:version="0.34"
   sodipodi:docname="C:\msys\home\su_blanc\mldonkey-2.5.12\src\gtk2\rsvg\stock_directory_open.svg"><defs
   id="defs714" /><sodipodi:namedview
   id="base" /><g
   id="Layer_1"
   i:knockout="Off"
   i:layer="yes"
   i:dimmedPercent="50"
   i:rgbTrio="#4F008000FFFF"><g
   i:knockout="Off"
   id="g605"><linearGradient
   id="XMLID_12_"
   gradientUnits="userSpaceOnUse"
   x1="-219.0518"
   y1="390.0488"
   x2="-221.5431"
   y2="334.09"
   gradientTransform="matrix(1 0 0 -1 244.1514 380.9316)"><stop
   offset="0.382"
   style="stop-color:#DCF0FF"
   id="stop607" /><stop
   offset="0.4435"
   style="stop-color:#C9E6FF"
   id="stop608" /><stop
   offset="0.6311"
   style="stop-color:#92CAFF"
   id="stop609" /><stop
   offset="0.793"
   style="stop-color:#6AB5FF"
   id="stop610" /><stop
   offset="0.9213"
   style="stop-color:#52A9FF"
   id="stop611" /><stop
   offset="1"
   style="stop-color:#49A4FF"
   id="stop612" /><a:midPointStop
   offset="0.382"
   style="stop-color:#DCF0FF"
   id="midPointStop613" /><a:midPointStop
   offset="0.5"
   style="stop-color:#DCF0FF"
   id="midPointStop614" /><a:midPointStop
   offset="0.4435"
   style="stop-color:#C9E6FF"
   id="midPointStop615" /><a:midPointStop
   offset="0.5"
   style="stop-color:#C9E6FF"
   id="midPointStop616" /><a:midPointStop
   offset="0.6311"
   style="stop-color:#92CAFF"
   id="midPointStop617" /><a:midPointStop
   offset="0.5"
   style="stop-color:#92CAFF"
   id="midPointStop618" /><a:midPointStop
   offset="0.793"
   style="stop-color:#6AB5FF"
   id="midPointStop619" /><a:midPointStop
   offset="0.5"
   style="stop-color:#6AB5FF"
   id="midPointStop620" /><a:midPointStop
   offset="0.9213"
   style="stop-color:#52A9FF"
   id="midPointStop621" /><a:midPointStop
   offset="0.5"
   style="stop-color:#52A9FF"
   id="midPointStop622" /><a:midPointStop
   offset="1"
   style="stop-color:#49A4FF"
   id="midPointStop623" /></linearGradient><path
   fill="url(#XMLID_12_)"
   d="M38.6,8c-1-3.5-1.7-6.3-1.8-6.9c-0.2-0.8-0.9-0.9-1.5-0.6c-0.8,0.5-17.6,9.8-17.6,9.8      s-1.3,1-2.7,0.5C13.5,10.4,12.1,8,9.7,9C7.9,9.7,5.6,11,3.5,12.4c-2.7,1.8-0.9,4.1-1,5.5c-0.1,1.3-1.9,2-1.9,2s2.6,6.9,5.7,13.6      c3.2,6.7,8.1,13.8,8.1,13.8c0.1,0.2,0.3,0.5,0.9,0.2c0.8-0.3,30.2-19.9,31.2-20.4c0.2-0.1,0.3-0.2,0.4-0.4      c-0.9-1.6-1.8-3.4-2.7-5.1C41,15,38.5,8.1,38.6,8z"
   id="path624" /><path
   fill="#FFFFFF"
   d="M38.6,8c-1-3.5-1.7-6.3-1.8-6.9c-0.2-0.8-0.9-0.9-1.5-0.6c-0.8,0.5-17.6,9.8-17.6,9.8s-1.3,1-2.7,0.5      C13.5,10.4,12.1,8,9.7,9C7.9,9.7,5.6,11,3.5,12.4c-2.7,1.8-0.9,4.1-1,5.5c-0.1,1.3-1.9,2-1.9,2s2.6,6.9,5.7,13.6      c3.2,6.7,8.1,13.8,8.1,13.8c0.1,0.2,0.3,0.5,0.9,0.2c0.8-0.3,30.2-19.9,31.2-20.4c0.2-0.1,0.3-0.2,0.4-0.4      c-0.9-1.6-1.8-3.4-2.7-5.1C41,15,38.5,8.1,38.6,8z"
   id="path625" /><linearGradient
   id="XMLID_13_"
   gradientUnits="userSpaceOnUse"
   x1="-211.2451"
   y1="354.0244"
   x2="-240.6873"
   y2="365.4039"
   gradientTransform="matrix(1 0 0 -1 244.1514 380.9316)"><stop
   offset="0"
   style="stop-color:#0032A4"
   id="stop627" /><stop
   offset="1"
   style="stop-color:#3995E5"
   id="stop628" /><a:midPointStop
   offset="0"
   style="stop-color:#0032A4"
   id="midPointStop629" /><a:midPointStop
   offset="0.5"
   style="stop-color:#0032A4"
   id="midPointStop630" /><a:midPointStop
   offset="1"
   style="stop-color:#3995E5"
   id="midPointStop631" /></linearGradient><path
   fill="url(#XMLID_13_)"
   d="M35,0.2C34.3,0.7,17.6,9.9,17.4,10c0,0-1.2,0.9-2.4,0.5c-0.4-0.1-0.8-0.5-1.2-0.8      c-1.1-0.8-2.4-1.8-4.2-1.1c-1.8,0.8-4.1,2-6.3,3.5c-2.2,1.4-1.7,3.2-1.4,4.5C2,17.1,2.1,17.6,2,17.9c-0.1,0.8-1.3,1.5-1.7,1.7      L0,19.7L0.1,20c0,0.1,2.6,7,5.8,13.6C9,40.3,14,47.4,14,47.5c0.1,0.2,0.5,0.7,1.3,0.4c0.4-0.2,7.4-4.8,18-11.7      c6.3-4.2,12.9-8.5,13.3-8.7c0.2-0.1,0.4-0.3,0.5-0.5l0.1-0.2l-0.1-0.2c-1-1.8-1.9-3.5-2.6-5.1c-3-6.3-5.5-13-5.6-13.5l0,0l0,0      c-0.7-2.5-1.2-4.5-1.6-5.8L37.1,1c-0.2-0.6-0.5-0.9-0.8-1C35.9-0.1,35.4,0,35,0.2z M35.4,0.9c0.2-0.1,0.4-0.2,0.6-0.1      c0.2,0.1,0.3,0.3,0.3,0.5l0.3,1.1c0.3,1.2,0.9,3.3,1.6,5.8c0,0,0,0,0,0c0.1,0.5,0.5,1.6,1.6,4.4c0.7,1.9,2.2,5.5,4,9.3      c0.7,1.5,1.6,3.1,2.5,4.9c0,0-0.1,0.1-0.1,0.1c-0.5,0.2-6.4,4.2-13.4,8.8c-7.7,5.1-17.3,11.4-17.8,11.7c-0.2,0.1-0.3,0-0.4-0.1      c0-0.1-5-7.1-8.1-13.7C3.9,27.5,1.5,21.6,1,20.1c0.6-0.3,1.7-1,1.8-2.2c0-0.1,0-0.1,0-0.2c0-0.4-0.1-0.9-0.2-1.3      c-0.1-0.5-0.3-1-0.3-1.5c0-0.8,0.3-1.5,1.3-2.2c2.2-1.5,4.5-2.7,6.2-3.4c1.4-0.6,2.4,0.2,3.4,1c0.5,0.4,1,0.7,1.5,0.9      c1.5,0.5,2.9-0.4,3-0.5C18.6,10.2,34.7,1.4,35.4,0.9z"
   id="path632" /><linearGradient
   id="XMLID_14_"
   gradientUnits="userSpaceOnUse"
   x1="-241.8604"
   y1="356.7383"
   x2="-198.7471"
   y2="356.7383"
   gradientTransform="matrix(1 0 0 -1 244.1514 380.9316)"><stop
   offset="1.690000e-002"
   style="stop-color:#FFFFFF"
   id="stop634" /><stop
   offset="0.309"
   style="stop-color:#CFF0FF"
   id="stop635" /><stop
   offset="0.6348"
   style="stop-color:#6DB8FF"
   id="stop636" /><stop
   offset="1"
   style="stop-color:#1E65FF"
   id="stop637" /><a:midPointStop
   offset="1.690000e-002"
   style="stop-color:#FFFFFF"
   id="midPointStop638" /><a:midPointStop
   offset="0.5"
   style="stop-color:#FFFFFF"
   id="midPointStop639" /><a:midPointStop
   offset="0.309"
   style="stop-color:#CFF0FF"
   id="midPointStop640" /><a:midPointStop
   offset="0.5"
   style="stop-color:#CFF0FF"
   id="midPointStop641" /><a:midPointStop
   offset="0.6348"
   style="stop-color:#6DB8FF"
   id="midPointStop642" /><a:midPointStop
   offset="0.5"
   style="stop-color:#6DB8FF"
   id="midPointStop643" /><a:midPointStop
   offset="1"
   style="stop-color:#1E65FF"
   id="midPointStop644" /></linearGradient><path
   fill="url(#XMLID_14_)"
   d="M37.7,9.3C36.8,6,36.2,3.4,36,2.9c-0.2-0.7-0.8-0.9-1.4-0.5c-0.7,0.4-16.4,9.1-16.4,9.1      s-1.2,0.9-2.5,0.4c-1.3-0.4-2.6-2.7-4.8-1.7C9.2,10.9,7,12.1,5,13.4c-2.5,1.6-0.8,3.8-1,5.1c-0.1,1.2-1.8,1.9-1.8,1.9      S4.7,26.8,7.6,33c2.9,6.2,7.6,12.8,7.6,12.8c0.1,0.2,0.3,0.4,0.8,0.2c0.7-0.3,28.1-18.5,29.1-19c0.2-0.1,0.3-0.2,0.4-0.3      c-0.9-1.5-1.7-3.1-2.5-4.7C40,15.8,37.6,9.4,37.7,9.3z"
   id="path645" /></g><linearGradient
   id="XMLID_15_"
   gradientUnits="userSpaceOnUse"
   x1="-229.4048"
   y1="339.9688"
   x2="-229.4048"
   y2="339.9688"
   gradientTransform="matrix(1 0 0 -1 244.1514 380.9316)"><stop
   offset="0"
   style="stop-color:#FFFFFF"
   id="stop647" /><stop
   offset="1"
   style="stop-color:#B1B1C5"
   id="stop648" /><a:midPointStop
   offset="0"
   style="stop-color:#FFFFFF"
   id="midPointStop649" /><a:midPointStop
   offset="0.5"
   style="stop-color:#FFFFFF"
   id="midPointStop650" /><a:midPointStop
   offset="1"
   style="stop-color:#B1B1C5"
   id="midPointStop651" /></linearGradient><path
   fill="url(#XMLID_15_)"
   d="M14.7,41"
   id="path652" /><g
   i:knockout="Off"
   id="g653"><linearGradient
   id="XMLID_16_"
   gradientUnits="userSpaceOnUse"
   x1="-223.0039"
   y1="359.5391"
   x2="-206.0941"
   y2="352.3652"
   gradientTransform="matrix(1 0 0 -1 244.1514 380.9316)"><stop
   offset="0.1461"
   style="stop-color:#6AC5FF"
   id="stop655" /><stop
   offset="0.2539"
   style="stop-color:#61B3FA"
   id="stop656" /><stop
   offset="0.469"
   style="stop-color:#4886EC"
   id="stop657" /><stop
   offset="0.7682"
   style="stop-color:#213DD7"
   id="stop658" /><stop
   offset="1"
   style="stop-color:#0000C5"
   id="stop659" /><a:midPointStop
   offset="0.1461"
   style="stop-color:#6AC5FF"
   id="midPointStop660" /><a:midPointStop
   offset="0.5"
   style="stop-color:#6AC5FF"
   id="midPointStop661" /><a:midPointStop
   offset="0.2539"
   style="stop-color:#61B3FA"
   id="midPointStop662" /><a:midPointStop
   offset="0.5"
   style="stop-color:#61B3FA"
   id="midPointStop663" /><a:midPointStop
   offset="0.469"
   style="stop-color:#4886EC"
   id="midPointStop664" /><a:midPointStop
   offset="0.5"
   style="stop-color:#4886EC"
   id="midPointStop665" /><a:midPointStop
   offset="0.7682"
   style="stop-color:#213DD7"
   id="midPointStop666" /><a:midPointStop
   offset="0.5"
   style="stop-color:#213DD7"
   id="midPointStop667" /><a:midPointStop
   offset="1"
   style="stop-color:#0000C5"
   id="midPointStop668" /></linearGradient><path
   i:isolated="yes"
   i:knockout="Off"
   opacity="0.5"
   fill="url(#XMLID_16_)"
   enable-background="new    "
   d="M15.3,47.4      c0.8-0.3,30.2-19.9,31.2-20.4c0.5-0.3,0.6-0.9,0.6-0.9s-0.4-3.9-0.4-9.7c0-4.8,0.5-9.5,0.8-11.3c-0.1-0.6-0.2-1-0.2-1.4      c-0.1,0-0.2,0-0.2,0c-7,28.1-21.1,10.9-32.4,42.8c-0.1,0.2-0.1,0.5-0.1,0.8C14.7,47.4,14.9,47.5,15.3,47.4z"
   id="path669" /><linearGradient
   id="XMLID_17_"
   gradientUnits="userSpaceOnUse"
   x1="-225.4717"
   y1="357.0938"
   x2="-209.3523"
   y2="354.8252"
   gradientTransform="matrix(1 0 0 -1 244.1514 380.9316)"><stop
   offset="0"
   style="stop-color:#CDF8FF"
   id="stop671" /><stop
   offset="1"
   style="stop-color:#0056FF"
   id="stop672" /><a:midPointStop
   offset="0"
   style="stop-color:#CDF8FF"
   id="midPointStop673" /><a:midPointStop
   offset="0.5"
   style="stop-color:#CDF8FF"
   id="midPointStop674" /><a:midPointStop
   offset="1"
   style="stop-color:#0056FF"
   id="midPointStop675" /></linearGradient><path
   i:isolated="yes"
   i:knockout="Off"
   opacity="0.6"
   fill="url(#XMLID_17_)"
   enable-background="new    "
   d="M14.4,46.9      c0,0,0.1-5.8,0.7-11c0.5-4.5,1.4-7.7,2.1-9c0.7-1.3,6.5-4.5,7.9-5.6c1.4-1.1,1.3-4.4,1.7-5.2c0.4-0.9,1.6-1.4,1.6-1.4      s17-10.1,18.1-10.8c0.5-0.3,1.2-0.2,1.1,0.6c-0.1,0.7-0.9,6.2-0.9,12c0,5.7,0.4,9.7,0.4,9.7s-0.1,0.6-0.6,0.9      c-1,0.5-30.5,20.1-31.2,20.4C14.5,47.7,14.4,46.9,14.4,46.9z"
   id="path676" /><path
   fill="#FFFFFF"
   d="M18.1,27.7c0.7-1.3,6.5-4.5,7.9-5.6c1.4-1.1,1.3-4.4,1.7-5.2c0.4-0.9,1.6-1.4,1.6-1.4s17-10.1,18.1-10.8      c0,0,0.1,0,0.1-0.1c0-0.1,0-0.1,0-0.1c0.1-0.7-0.6-0.9-1.1-0.6c-1.1,0.7-18.1,10.8-18.1,10.8s-1.2,0.6-1.6,1.4      c-0.4,0.9-0.4,4.1-1.7,5.2c-1.4,1.1-7.2,4.4-7.9,5.6c-0.7,1.3-1.6,4.5-2.1,9c-0.5,5.1-0.7,11-0.7,11s0.1,0.7,0.9,0.4      c0,0,0.1,0,0.1-0.1c0-1.4,0.2-6.2,0.7-10.6C16.5,32.2,17.4,29.1,18.1,27.7z"
   id="path677" /><linearGradient
   id="XMLID_18_"
   gradientUnits="userSpaceOnUse"
   x1="-222.2666"
   y1="342.168"
   x2="-197.5331"
   y2="354.0877"
   gradientTransform="matrix(1 0 0 -1 244.1514 380.9316)"><stop
   offset="0"
   style="stop-color:#FFFFFF"
   id="stop679" /><stop
   offset="1"
   style="stop-color:#B1B1C5"
   id="stop680" /><a:midPointStop
   offset="0"
   style="stop-color:#FFFFFF"
   id="midPointStop681" /><a:midPointStop
   offset="0.5"
   style="stop-color:#FFFFFF"
   id="midPointStop682" /><a:midPointStop
   offset="1"
   style="stop-color:#B1B1C5"
   id="midPointStop683" /></linearGradient><path
   fill="url(#XMLID_18_)"
   d="M14.6,42.4c-0.1,2.6-0.2,4.6-0.2,4.6s0.1,0.7,0.9,0.4c0.8-0.3,30.2-19.9,31.2-20.4      c0.5-0.3,0.6-0.9,0.6-0.9s-0.2-1.8-0.3-4.7c-3,1.9-31.3,20.7-32,21C14.7,42.3,14.6,42.4,14.6,42.4z"
   id="path684" /><linearGradient
   id="XMLID_19_"
   gradientUnits="userSpaceOnUse"
   x1="-237.9053"
   y1="333.0635"
   x2="-199.1983"
   y2="354.1655"
   gradientTransform="matrix(1 0 0 -1 244.1514 380.9316)"><stop
   offset="0"
   style="stop-color:#FFFFFF"
   id="stop686" /><stop
   offset="1"
   style="stop-color:#B1B1C5"
   id="stop687" /><a:midPointStop
   offset="0"
   style="stop-color:#FFFFFF"
   id="midPointStop688" /><a:midPointStop
   offset="0.5"
   style="stop-color:#FFFFFF"
   id="midPointStop689" /><a:midPointStop
   offset="1"
   style="stop-color:#B1B1C5"
   id="midPointStop690" /></linearGradient><path
   i:isolated="yes"
   i:knockout="Off"
   fill="url(#XMLID_19_)"
   a:adobe-blending-mode="multiply"
   enable-background="new    "
   d="      M14.6,42.4c-0.1,2.6-0.2,4.6-0.2,4.6s0.1,0.7,0.9,0.4c0.8-0.3,30.2-19.9,31.2-20.4c0.5-0.3,0.6-0.9,0.6-0.9s-0.2-1.8-0.3-4.7      c-3,1.9-31.3,20.7-32,21C14.7,42.3,14.6,42.4,14.6,42.4z"
   id="path691" /><linearGradient
   id="XMLID_20_"
   gradientUnits="userSpaceOnUse"
   x1="-222.1187"
   y1="343.1904"
   x2="-197.4193"
   y2="355.0938"
   gradientTransform="matrix(1 0 0 -1 244.1514 380.9316)"><stop
   offset="0"
   style="stop-color:#FFFFFF"
   id="stop693" /><stop
   offset="1"
   style="stop-color:#B1B1C5"
   id="stop694" /><a:midPointStop
   offset="0"
   style="stop-color:#FFFFFF"
   id="midPointStop695" /><a:midPointStop
   offset="0.5"
   style="stop-color:#FFFFFF"
   id="midPointStop696" /><a:midPointStop
   offset="1"
   style="stop-color:#B1B1C5"
   id="midPointStop697" /></linearGradient><path
   fill="url(#XMLID_20_)"
   d="M14.9,41.7c-0.1,2.6-0.5,3.9-0.5,3.9s0.1,0.7,0.9,0.4c0.8-0.3,30.2-19.9,31.2-20.4      c0.5-0.3,0.6-0.9,0.6-0.9s0.1-1.1,0-4C43.8,23.2,14.9,41.7,14.9,41.7z"
   id="path698" /><linearGradient
   id="XMLID_21_"
   gradientUnits="userSpaceOnUse"
   x1="-206.1514"
   y1="352.6572"
   x2="-223.8603"
   y2="359.5018"
   gradientTransform="matrix(1 0 0 -1 244.1514 380.9316)"><stop
   offset="0"
   style="stop-color:#0032A4"
   id="stop700" /><stop
   offset="1"
   style="stop-color:#3995E5"
   id="stop701" /><a:midPointStop
   offset="0"
   style="stop-color:#0032A4"
   id="midPointStop702" /><a:midPointStop
   offset="0.5"
   style="stop-color:#0032A4"
   id="midPointStop703" /><a:midPointStop
   offset="1"
   style="stop-color:#3995E5"
   id="midPointStop704" /></linearGradient><path
   fill="url(#XMLID_21_)"
   d="M46.3,3.5c-1.1,0.7-17.9,10.7-18.1,10.8c0,0-1.3,0.6-1.7,1.6c-0.2,0.3-0.3,0.9-0.4,1.6      c-0.2,1.2-0.5,2.8-1.2,3.5c-0.5,0.4-1.6,1.1-2.8,1.9c-2.7,1.7-4.7,3-5.1,3.8c-0.7,1.3-1.6,4.4-2.1,9.2C14.2,41,14,46.9,14,46.9      l0,0l0,0c0,0,0.1,0.5,0.5,0.7c0.2,0.1,0.5,0.2,0.9,0c0.4-0.2,7.4-4.7,17.9-11.7c6.4-4.2,12.9-8.5,13.4-8.8      c0.5-0.3,0.7-0.9,0.8-1.2l0,0l0,0c0,0-0.4-4-0.4-9.6c0-5.9,0.8-11.3,0.9-11.9c0.1-0.4,0-0.8-0.4-1C47.2,3.2,46.7,3.3,46.3,3.5z       M15.5,36c0.5-4.7,1.4-7.7,2.1-8.9c0.4-0.7,3-2.4,4.9-3.6c1.3-0.8,2.4-1.5,2.9-2c1-0.9,1.3-2.6,1.5-4c0.1-0.6,0.2-1.1,0.3-1.4      c0.4-0.7,1.4-1.2,1.4-1.2c0.7-0.4,17.1-10.1,18.2-10.8c0.2-0.1,0.4-0.1,0.5-0.1c0,0,0,0.1,0,0.1c0,0,0,0.1,0,0.1      c-0.1,0.6-0.9,6.1-0.9,12.1c0,5.5,0.4,9.4,0.4,9.7c0,0.1-0.1,0.4-0.4,0.5c-0.5,0.2-6.5,4.2-13.4,8.8      C25.2,40.5,15.7,46.8,15.1,47c-0.1,0-0.2,0-0.2,0c0,0-0.1-0.1-0.1-0.2C14.8,46.4,15,40.8,15.5,36z"
   id="path705" /><linearGradient
   id="XMLID_22_"
   gradientUnits="userSpaceOnUse"
   x1="-222.2026"
   y1="380.0664"
   x2="-206.0921"
   y2="377.7992"
   gradientTransform="matrix(1 0 0 -1 244.1514 380.9316)"><stop
   offset="0"
   style="stop-color:#CDF8FF"
   id="stop707" /><stop
   offset="1"
   style="stop-color:#0056FF"
   id="stop708" /><a:midPointStop
   offset="0"
   style="stop-color:#CDF8FF"
   id="midPointStop709" /><a:midPointStop
   offset="0.5"
   style="stop-color:#CDF8FF"
   id="midPointStop710" /><a:midPointStop
   offset="1"
   style="stop-color:#0056FF"
   id="midPointStop711" /></linearGradient><path
   i:isolated="yes"
   i:knockout="Off"
   opacity="0.6"
   fill="url(#XMLID_22_)"
   enable-background="new    "
   d="M47.6,4.4      c0.1-0.4-0.1-0.6-0.3-0.7c0.1,0.4,0.1,0.9,0.2,1.4C47.5,4.8,47.6,4.5,47.6,4.4z"
   id="path712" /></g></g></svg>
