<?xml version="1.0" encoding="UTF-8" standalone="no"?>
<!DOCTYPE svg PUBLIC "-//W3C//DTD SVG 20010904//EN"
"http://www.w3.org/TR/2001/REC-SVG-20010904/DTD/svg10.dtd">
<!-- Created with Sodipodi ("http://www.sodipodi.com/") -->
<svg
   xmlns:x="http://ns.adobe.com/Extensibility/1.0/"
   xmlns:i="http://ns.adobe.com/AdobeIllustrator/10.0/"
   xmlns:graph="http://ns.adobe.com/Graphs/1.0/"
   xmlns="http://www.w3.org/2000/svg"
   xmlns:xlink="http://www.w3.org/1999/xlink"
   xmlns:a="http://ns.adobe.com/AdobeSVGViewerExtensions/3.0/"
   xml:space="preserve"
   i:viewOrigin="233.9307 370.9004"
   i:rulerOrigin="0 0"
   i:pageBounds="0 792 612 0"
   width="48"
   height="48"
   viewBox="0 0 48 48"
   overflow="visible"
   enable-background="new 0 0 48 48"
   xmlns:sodipodi="http://sodipodi.sourceforge.net/DTD/sodipodi-0.dtd"
   id="svg602"
   sodipodi:version="0.34"
   sodipodi:docname="C:\msys\home\su_blanc\mldonkey-2.5.12\src\gtk2\rsvg\stock_subscribe_search.svg"><defs
   id="defs737" /><sodipodi:namedview
   id="namedview736" /><g
   id="Layer_x0020_1"
   i:knockout="Off"
   i:layer="yes"
   i:dimmedPercent="50"
   i:rgbTrio="#4F008000FFFF"><linearGradient
   id="path66_1_"
   gradientUnits="userSpaceOnUse"
   x1="-599.3335"
   y1="231.6279"
   x2="-539.7662"
   y2="183.4486"
   gradientTransform="matrix(0.4642 0 0 -0.4758 284.3046 118.5434)"><stop
   offset="0"
   style="stop-color:#FFFFFF"
   id="stop607" /><stop
   offset="0.178"
   style="stop-color:#FBFBFC"
   id="stop608" /><stop
   offset="0.367"
   style="stop-color:#EEEEF2"
   id="stop609" /><stop
   offset="0.5612"
   style="stop-color:#D9D9E1"
   id="stop610" /><stop
   offset="0.7589"
   style="stop-color:#BBBBC9"
   id="stop611" /><stop
   offset="0.9575"
   style="stop-color:#9595AB"
   id="stop612" /><stop
   offset="1"
   style="stop-color:#8C8CA4"
   id="stop613" /><a:midPointStop
   offset="0"
   style="stop-color:#FFFFFF"
   id="midPointStop614" /><a:midPointStop
   offset="0.5"
   style="stop-color:#FFFFFF"
   id="midPointStop615" /><a:midPointStop
   offset="0.178"
   style="stop-color:#FBFBFC"
   id="midPointStop616" /><a:midPointStop
   offset="0.5"
   style="stop-color:#FBFBFC"
   id="midPointStop617" /><a:midPointStop
   offset="0.367"
   style="stop-color:#EEEEF2"
   id="midPointStop618" /><a:midPointStop
   offset="0.5"
   style="stop-color:#EEEEF2"
   id="midPointStop619" /><a:midPointStop
   offset="0.5612"
   style="stop-color:#D9D9E1"
   id="midPointStop620" /><a:midPointStop
   offset="0.5"
   style="stop-color:#D9D9E1"
   id="midPointStop621" /><a:midPointStop
   offset="0.7589"
   style="stop-color:#BBBBC9"
   id="midPointStop622" /><a:midPointStop
   offset="0.5"
   style="stop-color:#BBBBC9"
   id="midPointStop623" /><a:midPointStop
   offset="0.9575"
   style="stop-color:#9595AB"
   id="midPointStop624" /><a:midPointStop
   offset="0.5"
   style="stop-color:#9595AB"
   id="midPointStop625" /><a:midPointStop
   offset="1"
   style="stop-color:#8C8CA4"
   id="midPointStop626" /></linearGradient><circle
   id="path66"
   fill="url(#path66_1_)"
   cx="19.2"
   cy="19.2"
   r="18.1" /><linearGradient
   id="XMLID_1_"
   gradientUnits="userSpaceOnUse"
   x1="-654.7021"
   y1="273.5156"
   x2="-529.6009"
   y2="176.6629"
   gradientTransform="matrix(0.4642 0 0 -0.4758 284.3046 118.5434)"><stop
   offset="0"
   style="stop-color:#FFFFFF"
   id="stop629" /><stop
   offset="1"
   style="stop-color:#545477"
   id="stop630" /><a:midPointStop
   offset="0"
   style="stop-color:#FFFFFF"
   id="midPointStop631" /><a:midPointStop
   offset="0.5"
   style="stop-color:#FFFFFF"
   id="midPointStop632" /><a:midPointStop
   offset="1"
   style="stop-color:#545477"
   id="midPointStop633" /></linearGradient><path
   fill="url(#XMLID_1_)"
   d="M0,19.2c0,10.6,8.6,19.2,19.2,19.2s19.2-8.6,19.2-19.2C38.4,8.6,29.8,0,19.2,0C8.7,0,0,8.6,0,19.2     z M1.2,19.2c0-9.9,8.1-17.9,18-17.9s18,8,18,17.9c0,9.9-8.1,17.9-18,17.9S1.2,29.1,1.2,19.2z"
   id="path634" /><radialGradient
   id="path75_1_"
   cx="-574.2563"
   cy="186.999"
   r="56.308"
   fx="-574.2563"
   fy="186.999"
   gradientTransform="matrix(0.4741 0 0 -0.4738 290.812 120.1714)"
   gradientUnits="userSpaceOnUse"><stop
   offset="0"
   style="stop-color:#FFFFFF"
   id="stop636" /><stop
   offset="0.2697"
   style="stop-color:#CCF0FF"
   id="stop637" /><stop
   offset="0.8708"
   style="stop-color:#1D6CE9"
   id="stop638" /><a:midPointStop
   offset="0"
   style="stop-color:#FFFFFF"
   id="midPointStop639" /><a:midPointStop
   offset="0.5"
   style="stop-color:#FFFFFF"
   id="midPointStop640" /><a:midPointStop
   offset="0.2697"
   style="stop-color:#CCF0FF"
   id="midPointStop641" /><a:midPointStop
   offset="0.5"
   style="stop-color:#CCF0FF"
   id="midPointStop642" /><a:midPointStop
   offset="0.8708"
   style="stop-color:#1D6CE9"
   id="midPointStop643" /></radialGradient><circle
   id="path75"
   fill="url(#path75_1_)"
   cx="19.2"
   cy="19.2"
   r="14.9" /><linearGradient
   id="XMLID_2_"
   gradientUnits="userSpaceOnUse"
   x1="-639.0879"
   y1="261.4248"
   x2="-537.3498"
   y2="182.6598"
   gradientTransform="matrix(0.4642 0 0 -0.4758 284.3046 118.5434)"><stop
   offset="0"
   style="stop-color:#FFFFFF"
   id="stop646" /><stop
   offset="1"
   style="stop-color:#545477"
   id="stop647" /><a:midPointStop
   offset="0"
   style="stop-color:#FFFFFF"
   id="midPointStop648" /><a:midPointStop
   offset="0.5"
   style="stop-color:#FFFFFF"
   id="midPointStop649" /><a:midPointStop
   offset="1"
   style="stop-color:#545477"
   id="midPointStop650" /></linearGradient><path
   fill="url(#XMLID_2_)"
   d="M3.5,19.2c0,8.7,7,15.7,15.7,15.7s15.7-7,15.7-15.7c0-8.7-7-15.7-15.7-15.7S3.5,10.5,3.5,19.2z      M4.3,19.2C4.3,11,11,4.3,19.2,4.3S34.1,11,34.1,19.2c0,8.2-6.6,14.8-14.9,14.8C11,34,4.3,27.4,4.3,19.2z"
   id="path651" /><radialGradient
   id="path85_1_"
   cx="-576.855"
   cy="243.7061"
   r="68.402"
   fx="-576.855"
   fy="243.7061"
   gradientTransform="matrix(0.4741 0 0 -0.4738 290.812 120.1714)"
   gradientUnits="userSpaceOnUse"><stop
   offset="0"
   style="stop-color:#FFFFFF"
   id="stop653" /><stop
   offset="0.3034"
   style="stop-color:#CCF0FF"
   id="stop654" /><stop
   offset="1"
   style="stop-color:#1D6CE9"
   id="stop655" /><a:midPointStop
   offset="0"
   style="stop-color:#FFFFFF"
   id="midPointStop656" /><a:midPointStop
   offset="0.5"
   style="stop-color:#FFFFFF"
   id="midPointStop657" /><a:midPointStop
   offset="0.3034"
   style="stop-color:#CCF0FF"
   id="midPointStop658" /><a:midPointStop
   offset="0.5"
   style="stop-color:#CCF0FF"
   id="midPointStop659" /><a:midPointStop
   offset="1"
   style="stop-color:#1D6CE9"
   id="midPointStop660" /></radialGradient><path
   id="path85"
   fill="url(#path85_1_)"
   d="M19.2,4.8C11.5,4.8,5.4,11,5.4,18.6c0,1.1,0.2,2.2,0.4,3.3c4.3-2.3,8.3-4.9,13.4-3.4     c5.3,1.4,10-0.6,13.5-3.1C31.1,9.3,25.7,4.8,19.2,4.8z" /><path
   id="path90"
   i:isolated="yes"
   i:knockout="Off"
   opacity="0.15"
   fill="#00009F"
   enable-background="new    "
   d="M21.3,6.3     c3.6,0,6.9,1.3,9.4,3.3C28,6.3,23.9,4.2,19.2,4.2C11,4.2,4.3,10.9,4.3,19.1c0,4.6,2.1,8.8,5.5,11.5c-2.1-2.5-3.4-5.8-3.4-9.4     C6.5,13,13.2,6.3,21.3,6.3z" /><rect
   id="path91"
   x="18.2"
   y="30.8"
   i:isolated="yes"
   i:knockout="Off"
   opacity="0.5"
   fill="#00009F"
   enable-background="new    "
   width="2"
   height="1.9" /><rect
   id="path92"
   x="18.2"
   y="5.8"
   i:isolated="yes"
   i:knockout="Off"
   opacity="0.5"
   fill="#00009F"
   enable-background="new    "
   width="2"
   height="1.9" /><rect
   id="path93"
   x="30.7"
   y="18.2"
   i:isolated="yes"
   i:knockout="Off"
   opacity="0.5"
   fill="#00009F"
   enable-background="new    "
   width="2"
   height="1.9" /><rect
   id="path94"
   x="6"
   y="18.2"
   i:isolated="yes"
   i:knockout="Off"
   opacity="0.5"
   fill="#00009F"
   enable-background="new    "
   width="2"
   height="1.9" /><g
   id="g667"><g
   opacity="0.2"
   id="g668"><rect
   x="18.2"
   y="11.4"
   width="3"
   height="8"
   id="rect669" /><rect
   x="13.9"
   y="18.2"
   transform="matrix(-0.7071 -0.7071 0.7071 -0.7071 8.9343 53.0025)"
   width="3"
   height="13"
   id="rect670" /><circle
   cx="19.7"
   cy="19.9"
   r="2.5"
   id="circle671" /></g><g
   id="g672"><rect
   x="17.2"
   y="11.2"
   width="3"
   height="8"
   id="rect673" /><rect
   x="12.9"
   y="17.9"
   transform="matrix(-0.7071 -0.7071 0.7071 -0.7071 7.404 51.8686)"
   width="3"
   height="13"
   id="rect674" /><circle
   cx="18.7"
   cy="19.7"
   r="2.5"
   id="circle675" /></g><circle
   id="path89"
   fill="#FFFFFF"
   cx="18.7"
   cy="19.6"
   r="1" /></g></g><g
   id="Layer_2_1_"
   i:knockout="Off"
   i:layer="yes"
   i:dimmedPercent="3"
   i:rgbTrio="#FFFF4F004F00"><g
   id="g678"><g
   id="g606"
   i:isolated="yes"
   i:knockout="Off"
   enable-background="new    "><g
   id="g666"
   i:knockout="Off"><path
   fill="#1C1B3C"
   d="M17.6,28c0,8.5,6.7,15.2,15.2,15.2S48,36.5,48,28c0.3-8.5-6.7-15.2-15.2-15.2S17.5,19.5,17.6,28z         M22.8,28c0-5.6,4.4-10,10-10s10.2,4.5,10,10c0,5.6-4.5,10-10,10C27.2,38,22.8,33.6,22.8,28z"
   id="path681" /></g></g><path
   fill="#919191"
   d="M14.2,42.6v0.1c-1.1,1.2-1.1,3.2,0,4.3s3.1,1.1,4.2,0l4.8-4.8c0.9-0.9,1.1-2,0.7-3.1      c2.6,1.8,5.8,3.1,9.1,3.1c7.9,0,14.2-6.4,14.2-14.2c0-7.9-6.5-14.2-14.3-14.2c-7.9,0-14.2,6.4-14.2,14.2c0,3.6,1.3,6.7,3.3,9.1      c-1.1-0.4-2.4,0-3.1,0.7l-4.8,4.8H14.2z M20.6,28.2C20.6,21.5,26,16,32.8,16C39.5,16,45,21.4,45,28.2c0,6.7-5.4,12.2-12.2,12.2      C26.1,40.4,20.6,35.1,20.6,28.2z"
   id="path682" /><path
   id="path617"
   i:isolated="yes"
   i:knockout="Off"
   opacity="0.5"
   fill="none"
   stroke="#FFFFFF"
   stroke-width="0.3429"
   stroke-linecap="round"
   enable-background="new    "
   d="      M33.2,14.8c7.2,0,13.1,5.9,13.1,13.1" /><path
   id="path618"
   i:isolated="yes"
   i:knockout="Off"
   opacity="0.5"
   fill="none"
   stroke="#FFFFFF"
   stroke-width="0.3429"
   stroke-linecap="round"
   enable-background="new    "
   d="      M31.8,40.8c-6.4,0-11.6-5.1-11.6-11.6" /><radialGradient
   id="path634_1_"
   cx="-1569.9224"
   cy="-2.167"
   r="8.012"
   fx="-1569.9224"
   fy="-2.167"
   gradientTransform="matrix(-2 0 0 2 -3111.1299 37.7988)"
   gradientUnits="userSpaceOnUse"><stop
   offset="0"
   style="stop-color:#FFFFFF"
   id="stop686" /><stop
   offset="0.7303"
   style="stop-color:#3F4A8E"
   id="stop687" /><stop
   offset="0.8388"
   style="stop-color:#3A4A92"
   id="stop688" /><stop
   offset="0.997"
   style="stop-color:#2C499E"
   id="stop689" /><stop
   offset="1"
   style="stop-color:#2C499E"
   id="stop690" /><a:midPointStop
   offset="0"
   style="stop-color:#FFFFFF"
   id="midPointStop691" /><a:midPointStop
   offset="0.5"
   style="stop-color:#FFFFFF"
   id="midPointStop692" /><a:midPointStop
   offset="0.7303"
   style="stop-color:#3F4A8E"
   id="midPointStop693" /><a:midPointStop
   offset="0.5"
   style="stop-color:#3F4A8E"
   id="midPointStop694" /><a:midPointStop
   offset="0.8388"
   style="stop-color:#3A4A92"
   id="midPointStop695" /><a:midPointStop
   offset="0.5"
   style="stop-color:#3A4A92"
   id="midPointStop696" /><a:midPointStop
   offset="0.997"
   style="stop-color:#2C499E"
   id="midPointStop697" /><a:midPointStop
   offset="0.5"
   style="stop-color:#2C499E"
   id="midPointStop698" /><a:midPointStop
   offset="1"
   style="stop-color:#2C499E"
   id="midPointStop699" /></radialGradient><path
   id="path700"
   i:isolated="yes"
   i:knockout="Off"
   opacity="0.47"
   fill="url(#path634_1_)"
   enable-background="new    "
   d="      M32.8,18c5.6,0,10.2,4.5,10,10c0,5.6-4.4,10-10,10s-10-4.5-10-10S27.2,18,32.8,18z" /><linearGradient
   id="path641_1_"
   gradientUnits="userSpaceOnUse"
   x1="-1600.0264"
   y1="15.2061"
   x2="-1592.2123"
   y2="23.0203"
   gradientTransform="matrix(-1 0 0 1 -1561.2539 6.5986)"><stop
   offset="0"
   style="stop-color:#FFFFFF"
   id="stop702" /><stop
   offset="1"
   style="stop-color:#A8BDDB"
   id="stop703" /><a:midPointStop
   offset="0"
   style="stop-color:#FFFFFF"
   id="midPointStop704" /><a:midPointStop
   offset="0.5"
   style="stop-color:#FFFFFF"
   id="midPointStop705" /><a:midPointStop
   offset="1"
   style="stop-color:#A8BDDB"
   id="midPointStop706" /></linearGradient><path
   id="path641"
   fill="url(#path641_1_)"
   d="M32.8,18.8c5.1,0,9.2,4.2,9.2,9.2C42,39.1,20.4,18.8,32.8,18.8z" /><path
   id="path642"
   i:isolated="yes"
   i:knockout="Off"
   opacity="0.48"
   fill="url(#path641_1_)"
   enable-background="new    "
   d="      M32.8,18.8c5.1,0,9.2,4.2,9.2,9.2C42,39.1,20.4,18.8,32.8,18.8z" /><linearGradient
   id="circle642_1_"
   gradientUnits="userSpaceOnUse"
   x1="-996.8779"
   y1="37.833"
   x2="-1001.1207"
   y2="42.0757"
   gradientTransform="matrix(-1 0 0 1 -977.8535 9.765625e-004)"><stop
   offset="0"
   style="stop-color:#FF0000"
   id="stop710" /><stop
   offset="1"
   style="stop-color:#810000"
   id="stop711" /><a:midPointStop
   offset="0"
   style="stop-color:#FF0000"
   id="midPointStop712" /><a:midPointStop
   offset="0.5"
   style="stop-color:#FF0000"
   id="midPointStop713" /><a:midPointStop
   offset="1"
   style="stop-color:#810000"
   id="midPointStop714" /></linearGradient><circle
   id="circle642"
   fill="url(#circle642_1_)"
   cx="21.2"
   cy="40"
   r="3" /><linearGradient
   id="circle649_1_"
   gradientUnits="userSpaceOnUse"
   x1="-991.8789"
   y1="42.834"
   x2="-996.1216"
   y2="47.0767"
   gradientTransform="matrix(-1 0 0 1 -977.8535 9.765625e-004)"><stop
   offset="0"
   style="stop-color:#FF0000"
   id="stop717" /><stop
   offset="1"
   style="stop-color:#810000"
   id="stop718" /><a:midPointStop
   offset="0"
   style="stop-color:#FF0000"
   id="midPointStop719" /><a:midPointStop
   offset="0.5"
   style="stop-color:#FF0000"
   id="midPointStop720" /><a:midPointStop
   offset="1"
   style="stop-color:#810000"
   id="midPointStop721" /></linearGradient><circle
   id="circle649"
   fill="url(#circle649_1_)"
   cx="16.2"
   cy="45"
   r="3" /><linearGradient
   id="polygon615_1_"
   gradientUnits="userSpaceOnUse"
   x1="-1577.8047"
   y1="33.7617"
   x2="-1582.0262"
   y2="37.9833"
   gradientTransform="matrix(-1 0 0 1 -1561.2539 6.5986)"><stop
   offset="0"
   style="stop-color:#FF3200"
   id="stop724" /><stop
   offset="0.3315"
   style="stop-color:#FFED00"
   id="stop725" /><stop
   offset="1"
   style="stop-color:#FF3000"
   id="stop726" /><a:midPointStop
   offset="0"
   style="stop-color:#FF3200"
   id="midPointStop727" /><a:midPointStop
   offset="0.5"
   style="stop-color:#FF3200"
   id="midPointStop728" /><a:midPointStop
   offset="0.3315"
   style="stop-color:#FFED00"
   id="midPointStop729" /><a:midPointStop
   offset="0.5"
   style="stop-color:#FFED00"
   id="midPointStop730" /><a:midPointStop
   offset="1"
   style="stop-color:#FF3000"
   id="midPointStop731" /></linearGradient><polygon
   id="polygon615"
   fill="url(#polygon615_1_)"
   points="14.1,42.7 18.4,47 23.2,42.2 18.9,37.9 " /><line
   id="line616"
   i:isolated="yes"
   i:knockout="Off"
   opacity="0.54"
   fill="none"
   stroke="#FFFFFF"
   stroke-width="0.6858"
   stroke-linecap="round"
   enable-background="new    "
   x1="15.8"
   y1="43.8"
   x2="20.2"
   y2="39.4" /></g></g><g
   id="Layer_3"
   i:knockout="Off"
   i:layer="yes"
   i:dimmedPercent="3"
   i:rgbTrio="#4F00FFFF4F00"><rect
   id="rect606"
   i:knockout="Off"
   fill="none"
   width="48"
   height="48" /></g></svg>
