<?xml version="1.0" encoding="UTF-8" standalone="no"?>
<!DOCTYPE svg PUBLIC "-//W3C//DTD SVG 20010904//EN"
"http://www.w3.org/TR/2001/REC-SVG-20010904/DTD/svg10.dtd">
<!-- Created with Sodipodi ("http://www.sodipodi.com/") -->
<svg
   xmlns:x="http://ns.adobe.com/Extensibility/1.0/"
   xmlns:i="http://ns.adobe.com/AdobeIllustrator/10.0/"
   xmlns:graph="http://ns.adobe.com/Graphs/1.0/"
   xmlns="http://www.w3.org/2000/svg"
   xmlns:xlink="http://www.w3.org/1999/xlink"
   xmlns:a="http://ns.adobe.com/AdobeSVGViewerExtensions/3.0/"
   xml:space="preserve"
   i:viewOrigin="150.8442 473.5552"
   i:rulerOrigin="0 0"
   i:pageBounds="0 792 612 0"
   width="49"
   height="48.5"
   viewBox="0 0 49 48.5"
   overflow="visible"
   enable-background="new 0 0 49 48.5"
   xmlns:sodipodi="http://sodipodi.sourceforge.net/DTD/sodipodi-0.dtd"
   id="svg602"
   sodipodi:version="0.34"
   sodipodi:docname="C:\msys\home\su_blanc\mldonkey-2.5.12\src\gtk2\rsvg\type_source_normal.svg"><defs
   id="defs699" /><sodipodi:namedview
   id="namedview698" /><g
   id="g1038"
   i:knockout="Off"
   i:layer="yes"
   i:dimmedPercent="50"
   i:rgbTrio="#4F008000FFFF"><g
   id="g620"
   i:knockout="Off"><linearGradient
   id="path977_2_"
   gradientUnits="userSpaceOnUse"
   x1="-381.4399"
   y1="313.7437"
   x2="-391.7627"
   y2="313.7437"
   gradientTransform="matrix(1 0 0 -1 420.252 351.71)"><stop
   offset="0"
   style="stop-color:#E18330"
   id="stop608" /><stop
   offset="1"
   style="stop-color:#7C0023"
   id="stop609" /><a:midPointStop
   offset="0"
   style="stop-color:#E18330"
   id="midPointStop610" /><a:midPointStop
   offset="0.5"
   style="stop-color:#E18330"
   id="midPointStop611" /><a:midPointStop
   offset="1"
   style="stop-color:#7C0023"
   id="midPointStop612" /></linearGradient><path
   id="path977_1_"
   fill="url(#path977_2_)"
   stroke="#000000"
   stroke-width="0.9995"
   d="M40.1,41.4c0.9,2.3,1.5,5.1-3.9,6.3      c-5.4,1-10-1.1-10.3-3.3c0-4.8,4.6-10.4-4.2-14.7c-1.9-0.8,1.1-1.5,3.4-1.7c3.9-0.2,8.8,0,10.3,1.5      C39.3,32.9,38.6,37.2,40.1,41.4z" /><path
   id="path836"
   fill="#FFFFFF"
   stroke="#000000"
   stroke-width="0.9995"
   d="M47.8,7.7c-1.6,1.4-3.6,2.8-5.7,4      c-0.4,0.2-0.7,0.5-1,0.9c-0.4-1.9-1.1-3.6-3-4.8c-3.4-2.2-7.6-1.5-11.5-1.1c-1,0.4-2.6,1.1-2.6,2.2c0,2.6,0,2.6,0-0.1      c0-0.3-0.8-0.7-0.8-0.7c-4.6,1.5-9.5-0.7-13.4,1.5c-6.5,3.6-11.5,12-8.4,18.5c1.1,1.8,4.6,1.5,6.9,1.5c1.9,0,2.7-2.5,4.2-1.8      c1.1,0.3,2.3,0.3,3.4,0.1c-0.1,0.1-0.2,0.2-0.3,0.3c6.1,2.5,12.6,4.3,19.1,4c5-0.7,8.4-5.9,7.3-10.5c-0.2-0.9-0.3-1.8-0.4-2.8      c1.4,1.2,3.7-1.4,4.8-3.1C48,13.4,49.4,10.4,47.8,7.7z" /><radialGradient
   id="path861_1_"
   cx="-400.1821"
   cy="345.7915"
   r="25.0034"
   fx="-400.1821"
   fy="345.7915"
   gradientTransform="matrix(0.991 0 0 -1.0132 415.7999 359.6766)"
   gradientUnits="userSpaceOnUse"><stop
   offset="0"
   style="stop-color:#FFFFFF"
   id="stop616" /><stop
   offset="4.136020e-002"
   style="stop-color:#F2F2F2"
   id="stop617" /><stop
   offset="0.2133"
   style="stop-color:#C1C1C1"
   id="stop618" /><stop
   offset="0.3839"
   style="stop-color:#999999"
   id="stop619" /><stop
   offset="0.5503"
   style="stop-color:#7A7A7A"
   id="stop620" /><stop
   offset="0.711"
   style="stop-color:#636363"
   id="stop621" /><stop
   offset="0.8638"
   style="stop-color:#565656"
   id="stop622" /><stop
   offset="1"
   style="stop-color:#515151"
   id="stop623" /><a:midPointStop
   offset="0"
   style="stop-color:#FFFFFF"
   id="midPointStop624" /><a:midPointStop
   offset="0.5"
   style="stop-color:#FFFFFF"
   id="midPointStop625" /><a:midPointStop
   offset="4.136020e-002"
   style="stop-color:#F2F2F2"
   id="midPointStop626" /><a:midPointStop
   offset="0.5"
   style="stop-color:#F2F2F2"
   id="midPointStop627" /><a:midPointStop
   offset="0.2133"
   style="stop-color:#C1C1C1"
   id="midPointStop628" /><a:midPointStop
   offset="0.5"
   style="stop-color:#C1C1C1"
   id="midPointStop629" /><a:midPointStop
   offset="0.3839"
   style="stop-color:#999999"
   id="midPointStop630" /><a:midPointStop
   offset="0.5"
   style="stop-color:#999999"
   id="midPointStop631" /><a:midPointStop
   offset="0.5503"
   style="stop-color:#7A7A7A"
   id="midPointStop632" /><a:midPointStop
   offset="0.5"
   style="stop-color:#7A7A7A"
   id="midPointStop633" /><a:midPointStop
   offset="0.711"
   style="stop-color:#636363"
   id="midPointStop634" /><a:midPointStop
   offset="0.5"
   style="stop-color:#636363"
   id="midPointStop635" /><a:midPointStop
   offset="0.8638"
   style="stop-color:#565656"
   id="midPointStop636" /><a:midPointStop
   offset="0.5"
   style="stop-color:#565656"
   id="midPointStop637" /><a:midPointStop
   offset="1"
   style="stop-color:#515151"
   id="midPointStop638" /></radialGradient><path
   id="path861_3_"
   i:isolated="yes"
   i:knockout="Off"
   opacity="0.59"
   fill="url(#path861_1_)"
   enable-background="new    "
   d="      M21,23.4c-1.1,3.3-5,5.4-8.4,4.4c-1.5-0.7-2.3,1.8-4.2,1.8c-2.3,0-5.7,0.3-6.9-1.5c-3.1-6.5,1.9-14.9,8.4-18.5      c3.9-2.1,8.8,0,13.4-1.5c0,0,0.8,0.3,0.8,0.7C24.1,14,22.5,18.7,21,23.4z" /><radialGradient
   id="path987_1_"
   cx="-387.7817"
   cy="348.6021"
   r="25.1289"
   fx="-387.7817"
   fy="348.6021"
   gradientTransform="matrix(0.991 0 0 -1.0132 415.7999 359.6766)"
   gradientUnits="userSpaceOnUse"><stop
   offset="0"
   style="stop-color:#FF9D56"
   id="stop641" /><stop
   offset="1"
   style="stop-color:#9F0023"
   id="stop642" /><a:midPointStop
   offset="0"
   style="stop-color:#FF9D56"
   id="midPointStop643" /><a:midPointStop
   offset="0.5"
   style="stop-color:#FF9D56"
   id="midPointStop644" /><a:midPointStop
   offset="1"
   style="stop-color:#9F0023"
   id="midPointStop645" /></radialGradient><path
   id="path987_3_"
   fill="url(#path987_1_)"
   d="M42.1,21.6c1.1,4.6-2.3,9.8-7.3,10.5c-6.5,0.3-13-1.5-19.1-4      c5.7-4.7,8.4-12,8.4-19.2c0-1.1,1.5-1.8,2.7-2.1c3.9-0.3,8-1.1,11.5,1.1C42.8,10.7,40.9,16.9,42.1,21.6z" /><radialGradient
   id="path938_1_"
   cx="-371.7451"
   cy="347.2808"
   r="11.6838"
   fx="-371.7451"
   fy="347.2808"
   gradientTransform="matrix(0.991 0 0 -1.0132 415.7999 359.6766)"
   gradientUnits="userSpaceOnUse"><stop
   offset="0"
   style="stop-color:#E18330"
   id="stop648" /><stop
   offset="1"
   style="stop-color:#7C0023"
   id="stop649" /><a:midPointStop
   offset="0"
   style="stop-color:#E18330"
   id="midPointStop650" /><a:midPointStop
   offset="0.5"
   style="stop-color:#E18330"
   id="midPointStop651" /><a:midPointStop
   offset="1"
   style="stop-color:#7C0023"
   id="midPointStop652" /></radialGradient><path
   id="path938_3_"
   fill="url(#path938_1_)"
   stroke="#000000"
   stroke-width="0.9995"
   d="M46.3,15.7c-1.2,1.9-3.9,4.9-5.2,2.7      c-1-1.8-1-5.6,0.9-6.6c2-1.3,4-2.7,5.7-4C49.2,10.4,47.9,13.4,46.3,15.7z" /><g
   id="g1011_2_"
   i:knockout="Off"><path
   id="path1012_2_"
   fill="#6D1E1E"
   d="M26.9,3.2c3.4,0,4.4,3.2,4.8,5" /><path
   id="path1013_2_"
   fill="#6D1E1E"
   d="M26.4,4.2c3,0.1,4.2,2.5,4.8,5c0-0.1,0.6-0.8,0.7-0.9c0.2-0.2,0.5-0.7,0.5-1       c-0.5-2.5-1.8-4.9-4.8-5C27,2.3,26.5,4.2,26.4,4.2L26.4,4.2z" /></g><g
   id="g1015_3_"
   i:knockout="Off"><path
   id="path1016_1_"
   fill="#6D1E1E"
   d="M31.6,1.8c2.1,2.3,1.1,4,0.2,6.4" /><path
   id="path1017_3_"
   fill="#6D1E1E"
   d="M31,2.7c1.8,2.1,1.1,3.9,0.2,6.2c-0.2,0.4,0.3-0.2,0.3-0.3c0.3-0.4,0.5-0.9,0.8-1.3       C33.2,5,34,3.1,32.2,0.9C32.3,1,30.8,2.4,31,2.7L31,2.7z" /></g><g
   id="g1019_2_"
   i:knockout="Off"><path
   id="path1020_2_"
   fill="#6D1E1E"
   d="M39.6,1c0.2,1.4-2,3.1-2.8,4.3c-1.2,1.8-3.3,2.1-5.8,3.2" /><path
   id="path1021_2_"
   fill="#6D1E1E"
   d="M39,1.9c0,1-1.8,2.9-2.6,3.5c-1.3,1.1-3.3,1.5-4.9,2.2c-0.5,0.3-0.9,1.7-1,1.9       c1.4-0.6,2.8-1,4.2-1.7c1.1-0.6,1.7-1.5,2.4-2.5c1.2-1.4,3.1-3.2,3.1-5.1C40.2,0.4,39.1,1.3,39,1.9L39,1.9z" /></g><g
   id="g1023_1_"
   i:knockout="Off"><path
   id="path1024_1_"
   fill="#6D1E1E"
   d="M34.4,1.5c1.7,2.3-1.7,4.7-2.8,6.9" /><path
   id="path1025_1_"
   fill="#6D1E1E"
   d="M33.9,2.5c0.9,1.4,0.2,2.4-0.8,3.5c-0.7,0.9-1.3,1.7-1.8,2.6c0,0.1-0.3,0.8-0.3,0.7       c0.3-0.3,0.6-0.8,0.8-1.1c1.2-2.1,5-4.9,3.2-7.7C35.1,0.7,33.6,2.1,33.9,2.5L33.9,2.5z" /></g><g
   id="g1027_2_"
   i:knockout="Off"><path
   id="path1028_2_"
   fill="#6D1E1E"
   d="M37.2,0.8c0.2,2.3-2,6.2-5.2,7.1" /><path
   id="path1029_2_"
   fill="#6D1E1E"
   d="M36.6,1.7c0.1,2.5-1.6,4.5-4,5.3c-0.3,0.1-0.5,0.7-0.7,0.9c-0.1,0.1-0.4,0.9-0.5,1       c3.4-1,6.4-5.6,6.3-8.9C37.7,0.1,36.5,1,36.6,1.7L36.6,1.7z" /></g><g
   id="g1031_1_"
   i:knockout="Off"><path
   id="path1032_1_"
   fill="#6D1E1E"
   d="M41.9,1.7c-0.4,4-6.3,5.9-11.1,7.1" /><path
   id="path1033_1_"
   fill="#6D1E1E"
   d="M41.3,2.5c-0.3,1.7-2.5,2.6-3.9,3.3c-1.9,0.9-4,1.5-6,2c-0.6,0.2-0.7,1.8-1.1,1.9       c4.9-1.3,11.4-3.4,12.3-8.9C42.5,1.1,41.4,1.9,41.3,2.5L41.3,2.5z" /></g><g
   id="g1035_2_"
   i:knockout="Off"><path
   id="path1036_2_"
   fill="#6D1E1E"
   d="M44.6,1.9c-0.4,5-7.8,5.3-13,6.4" /><path
   id="path1037_2_"
   fill="#6D1E1E"
   d="M44.1,2.7c-0.3,2-3.1,2.7-4.9,3.2c-2.2,0.6-4.7,0.9-7,1.4c-0.6,0.2-0.8,1.8-1.1,1.9       C36.5,8,44.4,7.6,45.3,0.9C45.1,1.3,44.1,2.1,44.1,2.7L44.1,2.7z" /></g><g
   id="g925_2_"
   i:knockout="Off"><path
   id="ellipse1004_4_"
   fill="#990000"
   d="M9.8,15c1.9-2.2,4.4-3.1,5.7-2s0.8,3.8-1,6c-1.9,2.2-4.4,3.1-5.7,2       C7.5,19.9,8,17.2,9.8,15z" /><path
   id="ellipse1004_2_"
   d="M10.5,15.7c1.3-1.5,3.1-2.1,4-1.4c0.9,0.8,0.5,2.7-0.8,4.2c-1.3,1.5-3.1,2.1-4,1.4       C8.9,19,9.2,17.2,10.5,15.7z" /></g><g
   id="g931_2_"
   i:knockout="Off"><g
   id="g932_2_"
   i:knockout="Off"><path
   id="path933_2_"
   fill="#6D1E1E"
   d="M32.6,13.7c1.7,0.5,2.8,1.8,3.3,3.2c0.9-2.6-0.1-5.2-2.1-6c-2.1-0.8-4.6,0.7-5.7,3.1        C29.3,13.4,31,13.2,32.6,13.7z" /></g></g><path
   id="path1000_4_"
   fill="#7E0000"
   d="M32.1,15.7c2.2,0.9,3,4.2,1.8,7.3c-1.3,3.1-4.1,4.8-6.3,3.9c-2.2-0.9-3-4.2-1.8-7.3      C27.1,16.4,29.9,14.7,32.1,15.7z" /><radialGradient
   id="path1000_1_"
   cx="-2026.041"
   cy="1918.3657"
   r="4.6171"
   fx="-2026.041"
   fy="1918.3657"
   gradientTransform="matrix(0.9475 1.057 1.0503 -1.3582 -69.61 4770.8325)"
   gradientUnits="userSpaceOnUse"><stop
   offset="5.600000e-003"
   style="stop-color:#CACACA"
   id="stop683" /><stop
   offset="0.2698"
   style="stop-color:#D3D3D3"
   id="stop684" /><stop
   offset="0.6909"
   style="stop-color:#EAEAEA"
   id="stop685" /><stop
   offset="1"
   style="stop-color:#FFFFFF"
   id="stop686" /><a:midPointStop
   offset="5.600000e-003"
   style="stop-color:#CACACA"
   id="midPointStop687" /><a:midPointStop
   offset="0.5"
   style="stop-color:#CACACA"
   id="midPointStop688" /><a:midPointStop
   offset="0.2698"
   style="stop-color:#D3D3D3"
   id="midPointStop689" /><a:midPointStop
   offset="0.5"
   style="stop-color:#D3D3D3"
   id="midPointStop690" /><a:midPointStop
   offset="0.6909"
   style="stop-color:#EAEAEA"
   id="midPointStop691" /><a:midPointStop
   offset="0.5"
   style="stop-color:#EAEAEA"
   id="midPointStop692" /><a:midPointStop
   offset="1"
   style="stop-color:#FFFFFF"
   id="midPointStop693" /></radialGradient><path
   id="path1000_2_"
   fill="url(#path1000_1_)"
   d="M31.7,16.8c1.8,0.8,2.4,3.3,1.4,5.9c-1,2.5-3.3,3.9-5,3.1      c-1.8-0.8-2.4-3.3-1.4-5.9C27.7,17.5,30,16,31.7,16.8z" /><circle
   id="circle1001_2_"
   cx="28.8"
   cy="22.4"
   r="1.9" /><path
   id="path910"
   fill="#2B0000"
   d="M11.8,24.2c-1.4,0.8-2,1-4.5,1c-2.6,0-4.2-0.9-6.6-0.3c-0.1,6.1,3.1,5.2,8.8,4.4      c1.2-0.2,3.1-1.5,4.4-2.4C14.8,26.3,13.9,24.1,11.8,24.2z" /></g><rect
   id="rect711"
   x="0.5"
   i:knockout="Off"
   fill="none"
   width="48"
   height="48" /></g></svg>
