/* XPM */
static char * batterylow_xpm[] = {
"32 32 7 1",
" 	c None",
".	c black",
"X	c #c0c0c0",
"o	c white",
"O	c #808080",
"+	c red",
"@	c green",
"  ..............................",
"  .XXXXXXXXXXXXXXXXXXXXXXXXXXXX.",
"  .oooooooooooooooooooooooooooo.",
"  .oooo..................oooooo.",
"  .oooo.OOOOOOOOOOOOOOOO.Oooooo.",
"...XXXX.O++++.++++.++++o.OOXXXX.",
".o.XXXX.O+++++....+++++o.OOXXXX.",
".X.XXXX.Ooo+..++++..+.+o.OOXXXX.",
".O.XXXX.O..oo+++++++.++o.OOXXXX.",
"...XXXX.O@...oo++++++.+o.OOXXXX.",
"  .OOOO.O@@@@...+++++++o.OOOOOO.",
"  .XXXX.Oooooooooooooooo.OOXXXX.",
"  .OOOO.OOOOOOOOOOOOOOOO.OOOOOO.",
"  .OOOO.oooooooo.ooooooo.OOOOOO.",
"  ......oo.ooooo.oooo.oo........",
"       .ooo.oooooooo.ooo.       ",
"       .oooooo....oooooo.       ",
"........ooooo.oooo.ooooo......  ",
".XXXXXX.oooo.ooXXoO.oooo.OOXX.  ",
".oooooo.oooo.oXXXXO.Oooo.OOoo.  ",
".oooooo.o..o.oX.XXO.O..o.OOoo.  ",
".oooooo.oooo.o.XXOO.OOoo.OOoo.  ",
".XXXXXX.ooooo.OOOO.OOOoo.OOXX...",
".XXXXXX.oooooo....OOOOoo.OOXX.o.",
".XXXXXX.ooo.oooOOOOO.ooo.OOXX.X.",
".XXXXXX.oo.oooooOOOoo.oo.OOXX.O.",
".XXXXXX.oooooooooooooooo.OOXX...",
".OOOOOO..................OOOO.  ",
".XXXXXXXOOOOOOOOOOOOOOOOOOOXX.  ",
".OOOOOOOOOOOOOOOOOOOOOOOOOOOO.  ",
".OOOOOOOOOOOOOOOOOOOOOOOOOOOO.  ",
"..............................  "};
