/* XPM */
static char * fan_xpm[] = {
"32 32 5 1",
" 	m None	c None",
".	m black c black",
"X	m white	c #808080",
"o	m white	c white",
"O	m white	c #c0c0c0",
"                                ",
"                                ",
"                                ",
"                                ",
"                                ",
"       ....          ....       ",
"      .Xooo.        .XXXX.      ",
"      .XOOoo.      .XXXOo.      ",
"      .XXOOOO.    .XXOOOo.      ",
"      .XXOOOO.    .XXOOoo.      ",
"       .XXOOOO.  .XXOOOo.       ",
"        .XXXOO.  .XOOOO.        ",
"         ..XXX....XOO..         ",
"           ....XX....           ",
"             .XOoX.             ",
"             .XXOX.             ",
"           ....XX....           ",
"         ..OOX....XOO..         ",
"        .OOOOX.  .XOOOO.        ",
"       .oOOOXX.  .XXOOOo.       ",
"      .ooOOOX. .. .XOOOoo.      ",
"      .oOOOXX. .. .XXOOOo.      ",
"      .oOXXX. .Xo. .XXXOo.      ",
"      .XXXX. .XXOo. .XXXX.      ",
"       ....  .XOOo.  ....       ",
"             .XOOo.             ",
"            ..XOOo..            ",
"          ..XXOOOOoo..          ",
"         .XXOOOOOOOOoo.         ",
"          ....OOOO....          ",
"             ......             ",
"                                "};
