/* XPM */
static char * fanon_xpm[] = {
"32 32 6 1",
" 	m None	c None",
".	m white	c #00c0c0",
"X	m black c black",
"o	m white	c #808080",
"O	m white	c white",
"+	m white	c #c0c0c0",
"                                ",
"           ..........           ",
"         ...        ...         ",
"        ..   ......   ..        ",
"            ..    ..            ",
"       XXXX    ..    XXXX       ",
"      XoOOOX  .  .  XooooX      ",
"    . Xo++OOX      Xooo+OX .    ",
"   .. Xoo++++X    Xoo+++OX ..   ",
"   .  Xoo++++X    Xoo++OOX  .   ",
"  ..   Xoo++++X  Xoo+++OX   ..  ",
"  .  .  Xooo++X  Xo++++X  .  .  ",
"  . ..   XXoooXXXXo++XX   .. .  ",
"  . .  .   XXXXooXXXX   .  . .  ",
"  . . .      Xo+OoX      . . .  ",
"  . . .      Xoo+oX      . . .  ",
"  . .  .   XXXXooXXXX   .  . .  ",
"  . ..   XX++oXXXXo++XX   .. .  ",
"  .  .  X++++oX  Xo++++X  .  .  ",
"  ..   XO+++ooX  Xoo+++OX   ..  ",
"   .  XOO+++oX XX Xo+++OOX  .   ",
"   .. XO+++ooX XX Xoo+++OX ..   ",
"    . XO+oooX XoOX Xooo+OX .    ",
"      XooooX Xoo+OX XooooX      ",
"       XXXX  Xo++OX  XXXX       ",
"             Xo++OX             ",
"            XXo++OXX            ",
"          XXoo++++OOXX          ",
"         Xoo++++++++OOX         ",
"          XXXX++++XXXX          ",
"             XXXXXX             ",
"                                "};
