/* XPM */
static char * hibernate_xpm[] = {
"96 32 46 1",
" 	c None",
".	c #808080",
"X	c #666666",
"o	c black",
"O	c #999999",
"+	c #cccccc",
"@	c #000080",
"#	c #003333",
"$	c #006666",
"%	c #000033",
"&	c blue",
"*	c white",
"=	c #008080",
"-	c #6666cc",
";	c #ccff66",
":	c #9999ff",
">	c #000066",
",	c #9999cc",
"<	c #669999",
"1	c #666699",
"2	c #666600",
"3	c #eaeaea",
"4	c #c0c0c0",
"5	c #dddddd",
"6	c #222222",
"7	c #cccc99",
"8	c #cccc00",
"9	c #66ffcc",
"0	c #cc9966",
"q	c #000099",
"w	c #0000cc",
"e	c #3333ff",
"r	c #6666ff",
"t	c #009999",
"y	c yellow",
"u	c #663333",
"i	c #333366",
"p	c #fffbf0",
"a	c #66ffff",
"s	c #6699ff",
"d	c #996699",
"f	c #996633",
"g	c #336666",
"h	c #00ccff",
"j	c #ff99cc",
"k	c #333333",
"  .XXXXXXXXXXXXXXXXXXXXXXXXXX.     ooooooooooooooooooooooooooooo  O..........................O  ",
"  X++++++++++++++++++++++++++X     o+++++++++++++++++++++++++++o  .++++++++++++++++++++++++++X  ",
"  X+oooooooooooooooooooooooo+X     o+++@@@@@@@@@@@@@@@@@@@@.+++o  .+#######################$+X  ",
"  X+o%%%%%%%%%%%%%%%%%%%%%%%+X     o+++@&&&&&&&&&&&&&&&&&&&*+++o  .+#=======================+X  ",
"  X+o%%%%%%%%%%-OO++..%%%%%%+X     o+++@&&&&&&&&&&&&&&&&&&&*+++o  .+#=;:====================+X  ",
"  X+o%>%>%>%OOO--O+,XX<O1%>%+X     o+++@&&&&&&&&&&&&&&&&&&&*+++o  .+#==2==3333333333333334==+X  ",
"  X+o>>>>>>555OO66o6677O++>>+X     o+++@&&&&&&&&&&&&&&&&&&&*+++o  .+#=====3444444444444446==+X  ",
"  X+o@8@@@@++O7766o66OO555@@+X     o+++@&&&&&&&&&&&&&&&&&&&*+++o  .+#=90==34@qww&e&eerr:46t=+X  ",
"  X+%@y8@@@o1O<XX,+O--OOOo@@+X     o+++@&&&&&&&&&&&&&&&&&&&*+++o  .+#t=u=t3444444444444446=t+X  ",
"  X+%@yy8@@iooo..++OO-oooi@@+X     o+++@&&&&&&&&&&&&&&&&&&&*+++o  .+#=t=t=34pppp4ppppppp46t=+X  ",
"  X+%@yyy8@.XXiooooooo6ii.@@+X     o+++@&&&&&&&&&&&&&&&&&&&*+++o  .+#tas=t34pdOd4pf424g446tt+X  ",
"  X+%qyy8qqoOOOXXOOX66XX.oqq+X     o+++@&&&&&&&&&&&&&&&&&&&*+++o  .+#ttrtt34pppp4ppppppp46tt+X  ",
"  X+%qy8qqqioooOO++...oooiqq+X     o+++@&&&&&&&&&&&&&&&&&&&*+++o  .+#ttttt34pdOd4p24f42446tt+X  ",
"  X+%w8wwww.XXiooooooo6ii.ww+X     o+++@&&&&&&&&&&&&&&&&&&&*+++o  .+#thjtt34pppp4ppppppp46tt+X  ",
"  X+%wwwwwwoOO.XXOOX66XX.oww+X     o+++@&&&&&&&&&&&&&&&&&&&*+++o  .+#ttrtt34pppp4ppppppp46tt+X  ",
"  X+%&&&&&&oooo.O++..Xoooo&&+X     o++..********************+++o  .+#ttttt3444444444444446tt+X  ",
"  X+%&&&&&&&&&ooooooooo&&&&&+X     oooooooooooooo..++++++++++++o  .+#tastt4666666666666666tt+X  ",
"  X+%&&&&&&&&&&&&&&&&&&&&&&&+X    oooo..........oooooooooooooooo  .+#ttrtttttttttttttttttttt+X  ",
"  X+%&&&&&&&&&&&&&&&&&&&&&&&+X  ooo............++++ooo.o*o*o+o+o  .+$ttttttttttttttttttttttt+X  ",
"  X++++++++++++++++++++++++++X  o****........++++....o........+o  .++++++++++++++++++++++++++X  ",
"  XOOOOOOOOOOOOOOOOOOOOOOOOOOX  o*******oooooo.......o.o*o*o+o+o  .OOOOOOOOOOOOOOOOOOOOOOOOOOX  ",
"  kkkkkX.X.X.X.X.X.X.X.X.kkkki  o.......oooooo*******o........+o  kkkkkX.X.X.X.X.X.X.X.X.kkkki  ",
"  kXXXkkkkkkkkkkkkkkkkkkkkiXii  o....++++........****o.**o*o+o+o  XXXXkkkkkkkkkkkkkkkkkkkkiXiX  ",
"  X+.+.+.+.+.+.+.+.+.+.+.+.+.i  ooo++++............ooo........+o  X+.4.4.4.4.4.4.4.4.4.4.4.4.i  ",
"  X++X+X+X+X+X+X+X+X+X+X+X+X+i  o..ooo..........ooo..o.++++++++o .O+4X4X4X4X4X4X4X4X4X4X4X4X+Oi ",
" .O+X+X+X+X+++++++++X+X+X+X+..i o.+...oooooooooo@....o.++++++++o X++X4X4X4X+++++++++X4X4X4X4.Oi ",
" X+XXXXXXXXXXXXXXXXXXXXXXXXXXOk ooo+..........@@@.+ooo.........o X+XXXXXXXXXXXXXXXXXXXXXXXXXX+k ",
" X++++++++++++++++++++++++++++k o..ooo........@@ooo..o.........o.O++++++++++++++++++++++++++++Ok",
".O+5+5+5+5+5+5+5+5+5+5+5+5+5+5.ko.+...oooooooooo@....oooooooooooX5+5+5+5+5+5+5+5+5+5+5+5+5+5+5+6",
"k55555555555555555555555555555+kooo+..........@@@.+ooo          X5555555555555555555555555555556",
"kXXXXXXXXXXXXXXXXXXXXXXXXXXXXXXo  oooo........@@oooo            XXXXXXXXXXXXXXXXXXXXXXXXXXXXXXX6",
"iooooooooooooooooooooooooooooook     oooooooooooo               X666666666666666666666666666666X"};
