/* XPM */
static char * highvolume_xpm[] = {
"32 32 7 1",
" 	m None	c None",
".	m white	c #c0c0c0",
",	m black	c #c0c0c0",
"X	m black	c black",
"o	m white	c white",
"#	m black	c white",
"O	m black	c #808080",
"                                ",
"                                ",
"                                ",
"                                ",
"                 ,              ",
"               .,.X             ",
"              .,.,X       XX    ",
"            ,.,.,oX     XXXX    ",
"           ,.,.oooX   XXXX      ",
"         .,.,oooo,X XXXX        ",
"        .,.oooo.,.X XX     XXX  ",
"  ,.,.,.,oooo,.,.OX     XXXXXX  ",
"  #oooooooo.,.,OOOX  XXXXXX     ",
"  #oooooo,.,.OOOOOX  XXX        ",
"  ,.,.,.,.,OOOOOOOX             ",
"  OOOOOOOOOOOOOOOOX  XXXXXXXXX  ",
"  OOOOOOOOOOOOOOOOX  XXXXXXXXX  ",
"  OOOOOOOOOOOOOOOOX             ",
"  OOOOOOOOOOOOOOOOX  XXX        ",
"  OOOOOOOOOOOOOOOOX  XXXXXX     ",
"   XXXXXOOOOOOOOOOX     XXXXXX  ",
"        XOOOOOOOOOX XX     XXX  ",
"         XXOOOOOOOX XXXX        ",
"           XOOOOOOX   XXXX      ",
"            XXOOOOX     XXXX    ",
"              XOOOX       XX    ",
"               XXOX             ",
"                 XX             ",
"                                ",
"                                ",
"                                ",
"                                "};
