/* XPM */
static char * lowbulb_xpm[] = {
"32 32 8 1",
" 	c None",
".	c #800000",
"X	c #808080",
"o	c black",
"O	c white",
"+	c red",
"@	c #808000",
"#	c yellow",
"               .X               ",
"         .X    .X     .X        ",
"         .X    .X     .X        ",
"   .      .X   XX    .XX   .X   ",
"    .     XXooooooo  XX   .X    ",
"     .X   oo.......oo    .X     ",
"     XX oo...........oo  X      ",
"       oo...OOOO......oo        ",
"      oo..OOOOOO.......oo   ..X ",
" ..   o...OOOOOO........o  .XXX ",
" XX.Xo...OOOOOO..........o XX   ",
"   XXo...OOOO............o      ",
"    o....OOO..............o     ",
"    o............+........o     ",
"    o...........+++.......o     ",
"...Xo..........+++........o ...X",
"XXXXo.........+++.........o XXXX",
"    o........+++..........o     ",
"    o.........+...........o     ",
"     o...................o+o    ",
"     o...................o.+o   ",
"   .X o.................ooo.+o  ",
" ..XX oo...............ooooo.+o ",
" XXX   oo.............oo..ooo.+o",
"        oo...........oo@+..ooo.o",
"     .X   oo.......oo#O#@+..oooo",
"    .X      ooooooo.+@#O#@+..ooo",
"   .X    .X        o.+@#O#@+..oo",
"   X    .XX    .X   o.+@#O#@+.Xo",
"        .X     .X    o.+@#O#@Xoo",
"        XX     .X     o.+@#OXOo ",
"               XX      ooooooo  "};
