/* XPM */
static char * minusdisabled_xpm[] = {
"16 16 3 1",
" 	c None",
".	c #808080",
"X	c white",
"                ",
"                ",
"                ",
"                ",
"                ",
"                ",
"                ",
"    ........    ",
"    ........X   ",
"     XXXXXXXX   ",
"                ",
"                ",
"                ",
"                ",
"                ",
"                "};
