/* XPM */
static char * plusdisabled_xpm[] = {
"16 16 3 1",
" 	c None",
".	c #808080",
"X	c white",
"                ",
"                ",
"                ",
"                ",
"       ..       ",
"       ..X      ",
"       ..X      ",
"    ........    ",
"    ........X   ",
"     XX..XXXX   ",
"       ..X      ",
"       ..X      ",
"        XX      ",
"                ",
"                ",
"                "};
