/* XPM */
static char * resumeon_xpm[] = {
"32 32 8 1",
" 	m None	c None",
".	m black	c black",
"X	m white	c red",
"o	m white	c #c0c0c0",
"O	m white	c white",
"+	m white	c #808080",
"@	m black	c #c0c000",
"#	m white	c #c00000",
"                 ....           ",
"                 .  .           ",
"                 .  .           ",
"                 . .            ",
"                ......          ",
"                .X.XX.          ",
"                .XXXX.          ",
"                .XXXX.          ",
"          .......XXXX....o      ",
"        ..OOOOOO.XXXX.OOO.      ",
"       .OOOOOOO.........o.+     ",
"      .OOOOOOOOOOOOOOOO.o.+     ",
"      ...............Oo.o.+     ",
"      .@#@#@#@#@#@#@#.o.o.+     ",
"      .#@#@#@#@#@#@#@.o.o.+     ",
"      .@#@#@#@#@#@#@#.ooo.+     ",
"      .#@#@#@#@#@#@#@.ooo.+     ",
"      .@#@#@#@#@#@#@#.ooo.+     ",
"      .#@#@#@#@#@#@#@.ooo.+     ",
"      .@#@#@#@#@#@#@#.ooo.+     ",
"      .#@#@#@#@#@#@#@.ooo.+     ",
"      .@#@#@#@#@#@#@#.ooo.+     ",
"      .#@#@#@#@#@#@#@.ooo.+     ",
"      .@#@#@#@#@#@#@#.ooo.+     ",
"      .#@#@#@#@#@#@#@.ooo.+     ",
"      .@#@#@#@#@#@#@#.ooo.+     ",
"      .#@#@#@#@#@#@#@.ooo.+     ",
"      .@#@#@#@#@#@#@#.ooo.+     ",
"      .#@#@#@#@#@#@#@.o..++     ",
"      .@#@#@#@#@#@#@#..++       ",
"      o...............+         ",
"       o++++++++++++++          "};
