/* XPM */
static char * resumeoff_xpm[] = {
"32 32 9 1",
" 	m None	c None",
".	m black	c red",
",	m white c red",
"X	m black	c black",
"o	m white	c #c0c0c0",
"O	m white	c white",
"+	m white	c #808080",
"@	m black	c #c0c000",
"#	m white	c #c00000",
"            ........            ",
"         ..............         ",
"       .....      X .....       ",
"      ...         X X  ...      ",
"     ...         XXXXXX ...     ",
"    ...          X,X,,X   ..    ",
"   .. ..         X,,,,X    ..   ",
"  ...  ..        X,,,,X    ...  ",
"  ..    .. XXXXXXX,,,,XXXXo ..  ",
" ..      ..OOOOOOX,,,,XOOOX  .. ",
" ..     XO..OOOOXXXXXXXXXoX+ .. ",
" ..    XOOO..OOOOOOOOOOOXoX+ .. ",
"..     XXXXX..XXXXXXXXOoXoX+  ..",
"..     X@#@#@..#@#@#@#XoXoX+  ..",
"..     X#@#@#@..#@#@#@XoXoX+  ..",
"..     X@#@#@#@..#@#@#XoooX+  ..",
"..     X#@#@#@#@..#@#@XoooX+  ..",
"..     X@#@#@#@#@..#@#XoooX+  ..",
"..     X#@#@#@#@#@..#@XoooX+  ..",
"..     X@#@#@#@#@#@..#XoooX+  ..",
" ..    X#@#@#@#@#@#@..XoooX+ .. ",
" ..    X@#@#@#@#@#@#@..oooX+ .. ",
" ..    X#@#@#@#@#@#@#@..ooX+ .. ",
"  ..   X@#@#@#@#@#@#@#X..oX+..  ",
"  ...  X#@#@#@#@#@#@#@Xo..X...  ",
"   ..  X@#@#@#@#@#@#@#Xoo....   ",
"    .. X#@#@#@#@#@#@#@Xooo..    ",
"     ...@#@#@#@#@#@#@#Xo...     ",
"      ...@#@#@#@#@#@#@X...      ",
"       .....@#@#@#@#.....       ",
"         ..............         ",
"            ........            "};
