/* XPM */
static char * speakeroff_xpm[] = {
"32 32 8 1",
" 	m None	c None",
".	m black	c red",
"X	m white	c #c0c0c0",
"x	m black	c #c0c0c0",
"o	m black	c black",
"O	m white	c white",
"#	m black	c white",
"+	m black	c #808080",
"            ........            ",
"         ..............         ",
"       .....        .....       ",
"      ...              ...      ",
"     ...             Xo ...     ",
"    ...            XxXo   ..    ",
"   .....          XxXxo    ..   ",
"  ... ...       xXxXxOo    ...  ",
"  ..   ...     xXxXOOOo     ..  ",
" ..     ...  XxXxOOOOxo      .. ",
" ..      ...XxXOOOOXxXo      .. ",
" ..   xXxX...OOOOxXxX+o      .. ",
"..    #OOOO...OXxXx+++o       ..",
"..    #OOOOO...xX+++++o       ..",
"..    xXxXxXx...++++++o       ..",
"..    ++++++++...+++++o       ..",
"..    +++++++++...++++o       ..",
"..    ++++++++++...+++o       ..",
"..    +++++++++++...++o       ..",
"..    ++++++++++++...+o       ..",
" ..    ooooo+++++++...o      .. ",
" ..         o+++++++...      .. ",
" ..          oo++++++...     .. ",
"  ..           o++++++...   ..  ",
"  ...           oo++++o... ...  ",
"   ..             o+++o .....   ",
"    ..             oo+o  ...    ",
"     ...             oo ...     ",
"      ...              ...      ",
"       .....        .....       ",
"         ..............         ",
"            ........            "};
