/* XPM */
static char * suspend_xpm[] = {
"128 32 15 1",
" 	c None",
".	c black",
"X	c #c0c0c0",
"o	c #808080",
"O	c yellow",
"+	c cyan",
"@	c green",
"#	c #00c0c0",
"$	c blue",
"%	c #0000c0",
"&	c #008080",
"*	c navy",
"=	c #c0c000",
"-	c #c00000",
";	c white",
"    ............XXX.............    ............XXX.............    .............XXX............    .............XXX............",
"    .oooooooooooooooooooooooooo.    .oooooooooooooooooooooooooo.    .oooooooooooooooooooooooooo.    .oooooooooooooooooooooooooo.",
"    .oooooooooooooooooooooooooo.    .ooo....................ooo.    .ooo....................ooo.    .ooo....................ooo.",
"    .ooo....................ooo.    .ooo.OOOOOOOOOOOOOOOOOOXooo.    .ooo.++++++++++++++++++Xooo.    .ooo.@@@@@@@@@@@@@@@@@@Xooo.",
"    .ooo.OOOOOOOOOOOOOOOOOOXooo.    .ooo.OOOOOOOOO#$$$$$%OOXooo.    .ooo.+++++++++&$$$$$*++Xooo.    .ooo.@@@@@@@@@&$$$$$*@@Xooo.",
"    .ooo.OOOOOOOOOOOOOOOOOOXooo.    .ooo.OOOOOOOO#$%%%%%%OOXooo.    .ooo.++++++++&$******++Xooo.    .ooo.@@@@@@@@&$******@@Xooo.",
"    .ooo.OOOOOOOOOOOOOOOOOOXooo.    .ooo.OOOOOOO#$%OOOOOOOOXooo.    .ooo.+++++++&$*++++++++Xooo.    .ooo.@@@@@@@&$*@@@@@@@@Xooo.",
"    .ooo.OOOOOOOOOOOOOOOOOOXooo.    .ooo.OOOOOO#$%OOOOOOOOOXooo.    .ooo.++++++&$*+++++++++Xooo.    .ooo.@@@@@@&$*@@@@@@@@@Xooo.",
"    .ooo.OOOOOOOOOOOOOOOOOOXooo.    .ooo.OOOOOO$%OOOOOOOOOOXooo.    .ooo.++++++$*++++++++++Xooo.    .ooo.@@@@@@$*@@@@@@@@@@Xooo.",
"    .ooo.OOOOOOOOOOOOOOOOOOXooo.    .ooo.OOOOOO$%OOOOOOOOOOXooo.    .ooo.++++++$*++++++++++Xooo.    .ooo.@@@@@@$*@@@@@@@@@@Xooo.",
"    .ooo.OOOOOOOOOOOOOOOOOOXooo.    .ooo.OOOOOO$%OOOOOOOOOOXooo.    .ooo.+++$$$$$$$*+++++++Xooo.    .ooo.@@@@@@$*@@@@@@@@@@Xooo.",
"    .ooo.OOOOOOOOOOOOOOOOOOXooo.    .ooo.OOO$$$$$$$%OOOOOOOXooo.    .ooo.++++$$$$$*++++++++Xooo.    .ooo.@@@$$$$$$$*@@@@@@@Xooo.",
"    .ooo.OOOOOOOOOOOOOOOOOOXooo.    .ooo.OOOO$$$$$%OOOOOOOOXooo.    .ooo.+++++$$$*+++++++++Xooo.    .ooo.@@@@$$$$$*@@@@@@@@Xooo.",
"    .ooo.OOOOOOOOOOOOOOOOOOXooo.    .ooo.OOOOO$$$%OOOOOOOOOXooo.    .ooo.++++++$*++++++++++Xooo.    .ooo.@@@@@$$$*@@@@@@@@@Xooo.",
"    .ooo.OOOOOOOOOOOOOOOOOOXooo.    .ooo.OOOOOO$%OOOOOOOOOOXooo.    .ooo.XXXXXXXXXXXXXXXXXXXooo.    .ooo.@@@@@@$*@@@@@@@@@@Xooo.",
" %%%.ooo.XXXXXX$$$XXXXXXXXXXooo.    .ooo.=-=-=-=....-=-.XXX.ooo.    .oooooooooooooooooooooooooo.    .ooo.XXXXXXXXXXXXXXXXXXXooo.",
"$OOO..oooooooo%OOO.oooooooooooo.    .ooooooo...XX..oooooooooooo.    ............................    .oooooooooooooooooooooooooo.",
" %OOO........%OOO...............    .........XoooX..............  ....oooooooooo.....oooooooooo.    ............................",
"  %OOO..ooo.%OOO..ooooooooooooo.    .oo....XooooooX.=.ooooooooo....ooooooooooooXXXX...oXX.XX.Xo.    .ooooooooooooooooooo...XX...",
"   %OOO..oo%OOO..@@XXX.XX.XX.Xo.    .o...Xoooooooo..oooXX.XX.Xo..;;;;ooooooooXXXXoooo.ooooooooo.   ..........ooooooooo...XoooX..",
"    %OOO..%OOO..o@@oooooooooooo.    ...Xoooooooo....=.ooooooooo..;;;;;;;......ooooooo.oXX.XX.Xo. ...oooooooo....;.;o...XooooooX.",
"    .%OOO.OOO..ooXX.XX.XX.XX.Xo.  ...Xoooooooo..o.o.oooXX.XX.Xo..ooooooo......;;;;;;;.ooooooooo...;;;;ooooXXXo..oo...XoooooooX..",
"    .o%OOOOO..ooooooooooooooooo....Xoooooooo....o.O.=.ooooooooo..ooooXXXXoooooooo;;;;.ooooooooo..ooooo....ooooo....XoooooooX....",
"    .oo%OOO..ooo....ooooooooo.o..;oooooooo..o.o...o.ooooooooo.o....XXXXoooooooooooo...ooooooo.o...oXXXoooo;;;;o..;oooooooX..o.o.",
"    .o%OOOOO..oooooooooooooo.oo..%;ooooo....o.O.o.O.Xooooooo.oo..oo...oooooooooo...oo.oooooo.oo..o..oooooooo.....*;ooooX....o.O.",
"    .%OOO.OOO..;;;;;;;;;;;;;;;;..o%;oo..o.o...o.o...;;;;;;;;;;;..oXooo..........*oooo.o;;;;;;;;..oXX........oXo..o*;oX..o.o...o.",
"    %OOO..%OOO..ooooooooooooooo..%o%....o.O.o.O.ooooooooooooooo....Xoooooooooo***oX...ooooooooo...;;oooooo**o;.;.*o*....o.O...O.",
"   %OOO..oo%OOO..oo.o.o.o.o.o.o. .%o..o...o.o...o.o.o.o.o.o.o.o..oo...oooooooo**...oo.o.o.o.o.o..o..oooooo**..o.o.*o..o...o.o...",
"  %OOO......%OOO...............   .%..O...O.................... .oXooo..........*oooo.......... .oXX........oXo....*..O...O.... ",
" %OOO..      %OOO..                ...o.-...-=-=-=-=-..oo       ...Xoooooooooo***oX...          ..;;oooooo**o;..   ...o. ...    ",
"$OOO..        %OOO.                  .O...............o           ....oooooooo**....             ...oooooo**...      .O.        ",
".....          ....                  ...oooooooooooooo               ............                  ..........        ...        "};
