/* XPM */
static char * tdocked_xpm[] = {
"32 32 7 1",
" 	c None",
".	c black",
"X	c #c0c0c0",
"o	c white",
"O	c #808080",
"+	c #008000",
"@	c green",
"                                ",
"                                ",
"                                ",
"                                ",
"           ....                 ",
"         ..XXXX....             ",
"        .XXXXXXXXXX....         ",
"       .....XXXXXXXXXXX....     ",
"       .X.oo....XXXXXXXXXXX.....",
"       ..ooooooo....XXXXXXXXXX..",
"       .oooooooooooo....XXXXX.O.",
"      .ooooooooooooooooo.....OO.",
"     .oooooooooooooooooo.X.O.OO.",
"    ..ooooooooooooooooo.X..O.OO.",
"    .X....XoooooOOoooo.X.X.O.OO.",
"    ..XXXX....Xoooooo.X.XX.O.OO.",
"   ..o....XXXX....oo.X.XXX.O.OO.",
"  .X.ooooo....XXXX..X.XXX.O.OOO.",
"  ..+++++++ooo....XX.XXX.O.OOOO.",
"  .OO+XXXX@.oooooo..XXX.O.OOOOO.",
"  .XXX+@@@@@...oooo.XX.O.OOOOO. ",
"  .XXX+o@@+++.O.....X.O.OOOOO.  ",
"  .XX+o@@+.....OOOO..O.OOOOO.   ",
"+++++o@@+.XXXXXXXXX...OOOOO.    ",
"+o@@@@@+.XXXXXXX@@@XX.OOOO.     ",
" +o@@@+....XXXXX+++XX.OOO.      ",
"  +o@@@+.  .....XXXXX.OO.       ",
"   .......      ....X.O.        ",
"                    ...         ",
"                                ",
"                                ",
"                                "};
