/* XPM */
static char * thotswap_xpm[] = {
"32 32 6 1",
" 	c black",
".	c None",
"X	c #c0c0c0",
"o	c #808080",
"O	c white",
"+	c cyan",
"                    ............",
"XXXXXXXXXXXXXXXXXXX o...........",
"XXXXXXXXXXXXXXXXXXX o...........",
"                 OX o...........",
"++++++++++++++++oOX o...........",
"++++++++++++++++oOX o...........",
"++++++++++++++++oOX o...........",
"++++++++++++++++oOX o...........",
"++++++++++++++++oOX o...........",
"++++++++++++++++oOX o...........",
"++++++++++++++++oOX o...........",
"++++++++++++++++oOX o...........",
"++++++++++++++++oOX o...........",
"++++++++++++++++oOX o...........",
"++++++++++++++++oOX o...........",
"oooooooooooooooooOX o...........",
"OOOOOOOOOOOOOOOOOOX o...........",
"XXXXXXXXXXXXXXXXXXX o...........",
"XXXXXXXXXXXXXXXXXXX o...........",
"                    o...........",
"XXXXXXXXXXXXXXXXXXX             ",
"OOOOOOOOOOOOOOOOoX  XOOOOOOOoo  ",
"ooooooooooooooooX  XOOOOOOOoo o ",
"OOOOOOOOOOOXXXoX  XOOOOOOOoo o  ",
"ooooooooooXXXoX  XOOOOOOOoo o  .",
"OOOOOOOOXXXXoX o           o  ..",
"ooooooooooooX oo oooooooooo  ...",
"XXXXXXXXXXXX oo             ....",
"            oo  ................",
"ooooooooooo o  .................",
"ooooooooooo   ..................",
"             ..................."};
