/* XPM */
static char * toshiba_xpm[] = {
"32 32 5 1",
" 	c white",
".	m black	c black",
"X	m black	c #808080",
"o	m white	c #c0c0c0",
"O	m black	c red",
"                                ",
"                                ",
"                                ",
"                .               ",
"              .....             ",
"              .....             ",
"              ......     ...    ",
"              ...... ......     ",
"  XXXXXXXXXXXXX...........      ",
"  ooooooooooooo..........X      ",
"  oooOOOoooo.............       ",
"  oOOOOOoo..............        ",
"  oOOOOO.................       ",
"  oOOOOOoooo...............     ",
"  oOOOOOoooooo..............    ",
"  oOOOOOoooooooo.............   ",
"  oooooooooooooo.............   ",
"  oooooooooooooo..............  ",
"  oooooooooooooo......   .....  ",
"  oooooooooooooX.....      ...  ",
"  ooooooooooooo.....        ... ",
"  ooooooooooooo....          .X ",
"  ooooooooooooo....             ",
"  ooooooooooooo..o.             ",
"  ooooooooooooo.oo.             ",
"  oooooooooooo.ooo.             ",
"                                ",
"                                ",
"                                ",
"                                ",
"                                ",
"                                "};
