/* XPM */
static char * tuxtime_xpm[] = {
/* Copyright (C) 1998 Jonathan Buzzard. Licensed under the terms of the GNU library General Public License */
"32 32 10 1",
" 	m None	c None",
".	m black	c black",
"X	m black	c #808080",
"o	m white	c #c0c0c0",
"O	m white	c white",
"x	m black	c white",
"+	m white	c magenta",
"@	m black	c #800080",
"#	m white	c #ffc000",
"$	m black	c blue",
"    ......     X....X           ",
"    .oOoX.    ........          ",
" ............ ........X         ",
".OOOOOOOOOOOO..........         ",
".++O++@++@@@+..........         ",
".xOOO+++@+@+@.OOO.OO...         ",
".++O+++@+@@@+.O.O..O...         ",
".xOOO+++@+@+@.O....O...         ",
".++O++@++@@@+...##......        ",
".xOOO+++@+@+@.#.##.#....        ",
".++O+++@+@@@+..#..##....        ",
".xOOO+++@+@+@...###......       ",
".++O++@++@@@..O....OO....       ",
".$OOO$$$.$.$.OOOOOOOOO....      ",
".$$O$$$.$....OOOOOOOOO....      ",
".$OOO$$$.$...OOOOOOOOOO....     ",
".$$O$$.$$...OOOOOOOOOOO....     ",
".$OOO$$$.$..OOOOOOOOOOOO....    ",
".$$O$$$.$..OOOOOOOOOOOOO....    ",
".$OOO$$$...OOOOOOOOOOOOO.....   ",
".$$O$$.$...OOOOOOOOOOOOOO....   ",
".$OOO$$$...OOOOOOOOOOOOOO....   ",
".$$O$$$....OOOOOOOOOOOOO.....   ",
"..+.+.+.##..OOOOOOOOOOO......   ",
" ......####..OOOOOOOOO.##..##.  ",
" XX.#######...OOOOOOOO.######.  ",
"   .########...OOOOOOOO.######. ",
"    .########.OOOOOOO...#######.",
"    .########.OOOOOO....#######.",
"   .##########..........#####.. ",
"    ...######...........###..   ",
"       ......          ....     "};
