/* XPM */
static char * userpower_xpm[] = {
"32 32 11 1",
" 	m None	c None",
".	m black	c red",
"X	m white	c yellow",
"o	m white	c white",
",	m black c white",
"O	m black	c #808080",
"+	m white	c #c0c0c0",
"-	m black c #c0c0c0",
"@	m black	c black",
"#	m black	c blue",
"$	m black	c #0000c0",
"                  .X.X.X.X.X.X.X",
"                o.o.o.o.o.o.o.o.",
"              .X.X.X.X.X.X.X.X.X",
"             .o.o.o.o.o.o.o.o.o.",
"            .X.XOOOOOOOO.X.X.X.X",
"            o.oOooooooooOOo.o.  ",
"            .X.O+++++++@  OX.X  ",
"            o.O +o+++++@  O.o.  ",
"            .XO @@O++@@  O.X.   ",
"            .O    @+@   O.o.    ",
"            O     @+@   OX.     ",
"                 -+++-@ OO   --O",
"            -----+o++++------ooO",
"           -oooo+o++++++ooooo++O",
"          -o++++++++++++OOOOOO+O",
"          -o+OOO+++++++OOOOOOOOO",
"          -++O@@-+++++OO@@@@@,OO",
"          -++@  OO+++OOO@    OOO",
"          OOO@  @OOOOOO@     @@@",
"                 @OOOO@         ",
"    #      #      @@@@          ",
"   ## #   ###   # $             ",
"   #  # # ### # #  #            ",
"  ## ## #     # ## ##           ",
"  #  #  #  #  #  #  #           ",
" ## ## ##  #  ## ## ##          ",
" ## ## ## ### ## ## ##          ",
"##  #  ## ### ##  #  ##         ",
"## ## ##  ###  ## ## ##         ",
"#  ## ##  ###  ## ## ##         ",
"   ## ##  ###  ## ##            ",
"      ##  ###  ##               "};
