/* XPM */
static char * warning_xpm[] = {
"32 32 6 1",
" 	c None",
".	c #808000",
"X	c yellow",
"o	c #c0c0c0",
"O	c black",
"+	c #808080",
"             ...                ",
"            .XXoO               ",
"           .XXXXoO+             ",
"           .XXXXXO++            ",
"          .XXXXXXoO++           ",
"          .XXXXXXXO++           ",
"         .XXXXXXXXoO++          ",
"         .XXXXXXXXXO++          ",
"        .XXXXXXXXXXoO++         ",
"        .XXXoOOOoXXXO++         ",
"       .XXXXOOOOOXXXoO++        ",
"       .XXXXOOOOOXXXXO++        ",
"      .XXXXXOOOOOXXXXoO++       ",
"      .XXXXXOOOOOXXXXXO++       ",
"     .XXXXXXOOOOOXXXXXoO++      ",
"     .XXXXXX.OOO.XXXXXXO++      ",
"    .XXXXXXXoOOOoXXXXXXoO++     ",
"    .XXXXXXXXOOOXXXXXXXXO++     ",
"   .XXXXXXXXX.O.XXXXXXXXoO++    ",
"   .XXXXXXXXXoOoXXXXXXXXXO++    ",
"  .XXXXXXXXXXXOXXXXXXXXXXoO++   ",
"  .XXXXXXXXXXXXXXXXXXXXXXXO++   ",
" .XXXXXXXXXXXoOOoXXXXXXXXXoO++  ",
" .XXXXXXXXXXXOOOOXXXXXXXXXXO++  ",
".XXXXXXXXXXXXOOOOXXXXXXXXXXoO++ ",
".XXXXXXXXXXXXoOOoXXXXXXXXXXXO++ ",
".XXXXXXXXXXXXXXXXXXXXXXXXXXXO+++",
".XXXXXXXXXXXXXXXXXXXXXXXXXXoO+++",
" .XXXXXXXXXXXXXXXXXXXXXXXXoO++++",
"  .OOOOOOOOOOOOOOOOOOOOOOOO+++++",
"    +++++++++++++++++++++++++++ ",
"     +++++++++++++++++++++++++  "};
