/* XPM */
char * wmtuxtime_xpm[] = {
"128 104 14 1",
" 	c blue",
".	c black",
"X	c #00445a",
"o	c #282828",
"O	c white",
"+	c red",
"@	c #660000",
"#	c #00b0ea",
"$	c #006b8e",
"%	c green",
"&	c yellow",
"*	c #c0c0c0",
"=	c #808080",
"-	c #404040",
"                                                                                                                                ",
"                                                                                                                                ",
"                                                                                                                                ",
"                                                                                                                                ",
"    ........................................................      XoXoXoXoXoXoXoXoXoXoXoXoXoXoXoXoXoXoXoXoXoXoXoXoX   ooooooo   ",
"    .ooooooooooooooooooooooooooooooooooooooooooooooooooooooO      XoXoXoXoXoXoXoXoXoXoXoXoXoXoXoXoXoXoXoXoXoXoXoXoX   oo+++oo   ",
"    .ooooooooooooooooooooooooooooooooooooooooooooooooooooooO      XoXoXoXoXoXoXoXoXoXoXoXoXoXoXoXoXoXoXoXoXoXoXoXoX   o+ooo+o   ",
"    .oo@@@oooooooooooo####oooo####ooooooooo####oooo####ooooO      XoXoXoXoXoXoXoXoXoXoXoXoXoXoXoXoXoXoXoXoXoXoXoXoX   o+ooooo   ",
"    .o@ooo@oooooooooo#oooo#oo#oooo#ooo$#oo#oooo#oo#oooo#oooO      XoXoXoXoXoXoXoXoXoXoXoXoXoXoXoXoXoXoXoXoXoXoXoXoX   o+ooooo   ",
"    .o@oooooooooo#ooo#oooo#oo#oooo#ooo$#oo#oooo#oo#oooo#oooO      XoXoXoXoXoXoXoXoXoXoXoXoXoXoXoXoXoXoXoXoXoXoXoXoX   o+ooooo   ",
"    .o@oooooooooo#ooo#oooo#oo#oooo#ooooooo#oooo#oo#oooo#oooO      XoXoXoXoXoXoXoXoXoXoXoXoXoXoXoXoXoXoXoXoXoXoXoXoX   o+ooo+o   ",
"    .o@oooooooo#####o$XXXX$oo$XXXX$ooooooo$XXXX$oo$XXXX$oooO      ooooooooooooooooooooooooooooooooooooooooooooooooo   oo+++oo   ",
"    .o@ooo@oooooo#ooo#oooo#oo#oooo#ooooooo#oooo#oo#oooo#oooO      +o#o#o#o#o#o#o#o#o#o#o#o#o#o#o#o#o#o#o#o#o#o#o#o%   ooooooo   ",
"    .oo@@@ooooooo#ooo#oooo#oo#oooo#ooo$#oo#oooo#oo#oooo#oooO                                                                    ",
"    .oooooooooooooooo#oooo#oo#oooo#ooo$#oo#oooo#oo#oooo#oooO      %o%o%o%o%o%o%o%o%o%o%o%o%o%o%o%o%o%o%o%o%o%o%o%o%   ooooooo   ",
"    .ooooooooooooooooo####oooo####ooooooooo####oooo####ooooO      %o%o%o%o%o%o%o%o%o%o%o%o%o%o%o%o%o%o%o%o%o%o%o%o%   oo@@@oo   ",
"    .ooooooooooooooooooooooooooooooooooooooooooooooooooooooO      %o%o%o%o%o%o%o%o%o%o%o%o%o%o%o%o%o%o%o%o%o%o%o%o%   o@ooo@o   ",
"    .ooooooooooooooooooooooooooooooooooooooooooooooooooooooO      %o%o%o%o%o%o%o%o%o%o%o%o%o%o%o%o%o%o%o%o%o%o%o%o%   o@ooooo   ",
"    .ooooooooooooooooooooooooooooooooooooooooooooooooooooooO      %o%o%o%o%o%o%o%o%o%o%o%o%o%o%o%o%o%o%o%o%o%o%o%o%   o@ooooo   ",
"    .ooooooooooooooooooooooooooooooooooooooooooooooooooooooO      %o%o%o%o%o%o%o%o%o%o%o%o%o%o%o%o%o%o%o%o%o%o%o%o%   o@ooooo   ",
"    .ooooooooooooooooooooooooooooooooooooooooooooooooooooooO      %o%o%o%o%o%o%o%o%o%o%o%o%o%o%o%o%o%o%o%o%o%o%o%o%   o@ooo@o   ",
"    .oo#o#o#o#o#o#o#o#o#o#o#o#o#o#o#o#o#o#o#o#o#o#o#o#o#oooO      ooooooooooooooooooooooooooooooooooooooooooooooooo   oo@@@oo   ",
"    .oo#o#o#o#o#o#o#o#o#o#o#o#o#o#o#o#o#o#o#o#o#o#o#o#o#oooO      +o#o#o#o#o#o#o#o#o#o#o#o#o#o#o#o#o#o#o#o#o#o#o#o%   ooooooo   ",
"    .oo#o#o#o#o#o#o#o#o#o#o#o#o#o#o#o#o#o#o#o#o#o#o#o#o#oooO                                                                    ",
"    .oo#o#o#o#o#o#o#o#o#o#o#o#o#o#o#o#o#o#o#o#o#o#o#o#o#oooO      &o&o&o&o&o&o&o&o&o&o&o&o&o&o&o&o&o&o&o&o&o&o&o&o&   ******    ",
"    .oo#o#o#o#o#o#o#o#o#o#o#o#o#o#o#o#o#o#o#o#o#o#o#o#o#oooO      &o&o&o&o&o&o&o&o&o&o&o&o&o&o&o&o&o&o&o&o&o&o&o&o&   *.****    ",
"    .oo#o#o#o#o#o#o#o#o#o#o#o#o#o#o#o#o#o#o#o#o#o#o#o#o#oooO      &o&o&o&o&o&o&o&o&o&o&o&o&o&o&o&o&o&o&o&o&o&o&o&o&   *..***    ",
"    .oo#o#o#o#o#o#o#o#o#o#o#o#o#o#o#o#o#o#o#o#o#o#o#o#o#oooO      &o&o&o&o&o&o&o&o&o&o&o&o&o&o&o&o&o&o&o&o&o&o&o&o&   *...**    ",
"    .ooooooooooooooooooooooooooooooooooooooooooooooooooooooO      &o&o&o&o&o&o&o&o&o&o&o&o&o&o&o&o&o&o&o&o&o&o&o&o&   *....*    ",
"    .oo+o#o#o#o#o#o#o#o#o#o#o#o#o#o#o#o#o#o#o#o#o#o#o#o%oooO      &o&o&o&o&o&o&o&o&o&o&o&o&o&o&o&o&o&o&o&o&o&o&o&o&   *...**    ",
"    .ooooooooooooooooooooooooooooooooooooooooooooooooooooooO      &o&o&o&o&o&o&o&o&o&o&o&o&o&o&o&o&o&o&o&o&o&o&o&o&   *..***    ",
"    .ooooooooooooooooooooooooooooooooooooooooooooooooooooooO      ooooooooooooooooooooooooooooooooooooooooooooooooo   *.****    ",
"    .ooooooooooooooooooooooooooooooooooooooooooooooooooooooO      +o#o#o#o#o#o#o#o#o#o#o#o#o#o#o#o#o#o#o#o#o#o#o#o%   ******    ",
"    .ooooooooooooooooooooooooooooooooooooooo############oooO                                                                    ",
"    .oo$oo###ooo###ooo#ooooooooooooooooooooo#oooooooooo#oooO      +o+o+o+o+o+o+o+o+o+o+o+o+o+o+o+o+o+o+o+o+o+o+o+o+   ******    ",
"    .oo#o#ooo#o#ooo#o#o#o#oooooooooooooooooo#oooooooooo#oooO      +o+o+o+o+o+o+o+o+o+o+o+o+o+o+o+o+o+o+o+o+o+o+o+o+   *=****    ",
"    .oo#o#ooo#o#ooo#oo#o#ooooooooooooooooooo#oooooooooo##ooO      +o+o+o+o+o+o+o+o+o+o+o+o+o+o+o+o+o+o+o+o+o+o+o+o+   *==***    ",
"    .oo$o$XXX$o$XXX$ooo#oooooooooooooooooooo#oooooooooo##ooO      +o+o+o+o+o+o+o+o+o+o+o+o+o+o+o+o+o+o+o+o+o+o+o+o+   *===**    ",
"    .oo#o#ooo#o#ooo#oo#o#ooooooooooooooooooo#oooooooooo##ooO      +o+o+o+o+o+o+o+o+o+o+o+o+o+o+o+o+o+o+o+o+o+o+o+o+   *====*    ",
"    .oo#o#ooo#o#ooo#o#o#o#oooooooooooooooooo#oooooooooo#oooO      +o+o+o+o+o+o+o+o+o+o+o+o+o+o+o+o+o+o+o+o+o+o+o+o+   *===**    ",
"    .oo#oo###ooo###ooooo#ooooooooooooooooooo#oooooooooo#oooO      +o+o+o+o+o+o+o+o+o+o+o+o+o+o+o+o+o+o+o+o+o+o+o+o+   *==***    ",
"    .ooooooooooooooooooooooooooooooooooooooo############oooO      ooooooooooooooooooooooooooooooooooooooooooooooooo   *=****    ",
"    .ooooooooooooooooooooooooooooooooooooooooooooooooooooooO      +o#o#o#o#o#o#o#o#o#o#o#o#o#o#o#o#o#o#o#o#o#o#o#o%   ******    ",
"    .ooooooooooooooooooooooooooooooooooooooooooooooooooooooO                                                                    ",
"    OOOOOOOOOOOOOOOOOOOOOOOOOOOOOOOOOOOOOOOOOOOOOOOOOOOOOOOO      ............=............=............=............=          ",
"                                                                  .***********O.***********O.***********O.****oooo***O          ",
"                                                                  .****.******O.*****....**O.****...****O.***o*=o****O          ",
"     ......................................................       .****..*****O.*****=*=.**O.***.*=-.***O.**o*=o***o*O          ",
"     .OOOOOOOOOOOO=OOOOOOOOOOOO=OOOOOOOOOOOO=OOOOOOOOOOOO=O       .****...****O.**...*=.=**O.***.*=-.***O.**o*=o**oo*O          ",
"     .O***********.O***********.O***********.O****oooo***.O       .****....***O.**=*.=.=***O.***.*=-.***O.**o*==oo=o*O          ",
"     .O****.******.O*****....**.O****...****.O***o*=o****.O       .****...****O.***.*.=*=**O.**.......**O.*o*=-===-o*O          ",
"     .O****..*****.O*****=*=.**.O***.*=-.***.O**o*=o***o*.O       .****..*****O.**.*=....**O.*.=..====.*O.o*=-=---o**O          ",
"     .O****...****.O**...*=.=**.O***.*=-.***.O**o*=o**oo*.O       .****.******O.**...******O.**.......**O.*=-=-ooo***O          ",
"     .O****....***.O**=*.=.=***.O***.*=-.***.O**o*==oo=o*.O       .***********O.***********O.***********O.=-=-o******O          ",
"     .O****...****.O***.*.=*=**.O**.......**.O*o*=-===-o*.O       =OOOOOOOOOOOO=OOOOOOOOOOOO=OOOOOOOOOOOO=OOOOOOOOOOOO          ",
"     .O****..*****.O**.*=....**.O*.=..====.*.Oo*=-=---o**.O                                                                     ",
"     .O****.******.O**...******.O**.......**.O*=-=-ooo***.O       OOOOOOOOOOOO=OOOOOOOOOOOO=OOOOOOOOOOOO=OOOOOOOOOOOO=          ",
"     .O***********.O***********.O***********.O=-=-o******.O       O***********.O***********.O***********.O****oooo***.          ",
"     .=............=............=............=............O       O****.******.O*****....**.O****...****.O***o*=o****.          ",
"     OOOOOOOOOOOOOOOOOOOOOOOOOOOOOOOOOOOOOOOOOOOOOOOOOOOOOO       O****..*****.O*****=*=.**.O***.*=-.***.O**o*=o***o*.          ",
"                                                                  O****...****.O**...*=.=**.O***.*=-.***.O**o*=o**oo*.          ",
"                                                                  O****....***.O**=*.=.=***.O***.*=-.***.O**o*==oo=o*.          ",
"                                                                  O****...****.O***.*.=*=**.O**.......**.O*o*=-===-o*.          ",
"                                                                  O****..*****.O**.*=....**.O*.=..====.*.Oo*=-=---o**.          ",
"                                                                  O****.******.O**...******.O**.......**.O*=-=-ooo***.          ",
"                                                                  O***********.O***********.O***********.O=-=-o******.          ",
"                                                                  =............=............=............=............          ",
"                                                                                                                                ",
"                                                                                  oooooooooooooooooooooooooooooooooooooooooooo  ",
"                                                                                  ooooooooXXXXooooXXXXoooooooooXXXXooooXXXXooo  ",
"    oooooooooooooooooooooooooooooooooooooooooooooooooooooooooooooooooooooo        oooooooXooooXooXooooXooo$#ooXooooXooXooooXoo  ",
"    oo###oooXXX$o$###$o$###$o$XXX$o$###$o$###$o$###$o$###$o$###$oo#ooooooo        oooooooXooooXooXooooXooo$#ooXooooXooXooooXoo  ",
"    o#ooo#oXooo#oXooo#oXooo#o#ooo#o#oooXo#oooXoXooo#o#ooo#o#ooo#o#o#o#oooo        oooooooXooooXooXooooXoooooooXooooXooXooooXoo  ",
"    o#ooo#oXooo#oXooo#oXooo#o#ooo#o#oooXo#oooXoXooo#o#ooo#o#ooo#oo#o#ooo#o        o#####o$####$oo$####$ooooooo$####$oo$####$oo  ",
"    o$XXX$ooXXX$o$###$oo###$o$###$o$###$o$###$ooXXX$o$###$o$###$ooo#oooooo        oooooooXooooXooXooooXoooooooXooooXooXooooXoo  ",
"    o#ooo#oXooo#o#oooXoXooo#oXooo#oXooo#o#ooo#oXooo#o#ooo#oXooo#oo#o#ooooo        oooooooXooooXooXooooXooo$#ooXooooXooXooooXoo  ",
"    o#ooo#oXooo#o#oooXoXooo#oXooo#oXooo#o#ooo#oXooo#o#ooo#oXooo#o#o#o#oo#o        oooooooXooooXooXooooXooo$#ooXooooXooXooooXoo  ",
"    oo###oooXXX#o$###$o$###$ooXXX$o$###$o$###$ooXXX$o$###$o$###$oooo#ooooo        ooooooooXXXXooooXXXXoooooooooXXXXooooXXXXooo  ",
"    oooooooooooooooooooooooooooooooooooooooooooooooooooooooooooooooooooooo        oooooooooooooooooooooooooooooooooooooooooooo  ",
"                                                                                                                                ",
"    oooooooooooooooooooooooooooooooooooooooooooooooooooooooooooooooooooooooooooo  oooooooooooooooooooooooooooooooooooooooooooo  ",
"    oo####oooXXXX$o$####$o$####$o$XXXX$o$####$o$####$o$####$o$####$o$####$oooooo  oooooooo####oooo####ooooooooo####oooo####ooo  ",
"    o#oooo#oXoooo#oXoooo#oXoooo#o#oooo#o#ooooXo#ooooXoXoooo#o#oooo#o#oooo#oo$#oo  ooooooo#oooo#oo#oooo#ooo$#oo#oooo#oo#oooo#oo  ",
"    o#oooo#oXoooo#oXoooo#oXoooo#o#oooo#o#ooooXo#ooooXoXoooo#o#oooo#o#oooo#oo$#oo  ooo#ooo#oooo#oo#oooo#ooo$#oo#oooo#oo#oooo#oo  ",
"    o#oooo#oXoooo#oXoooo#oXoooo#o#oooo#o#ooooXo#ooooXoXoooo#o#oooo#o#oooo#oooooo  ooo#ooo#oooo#oo#oooo#ooooooo#oooo#oo#oooo#oo  ",
"    o$XXXX$ooXXXX$o$####$o$####$o$####$o$####$o$####$ooXXXX$o$####$o$####$oooooo  o#####o$XXXX$oo$XXXX$ooooooo$XXXX$oo$XXXX$oo  ",
"    o#oooo#oXoooo#o#ooooXoXoooo#oXoooo#oXoooo#o#oooo#oXoooo#o#oooo#oXoooo#oooooo  ooo#ooo#oooo#oo#oooo#ooooooo#oooo#oo#oooo#oo  ",
"    o#oooo#oXoooo#o#ooooXoXoooo#oXoooo#oXoooo#o#oooo#oXoooo#o#oooo#oXoooo#oo$#oo  ooo#ooo#oooo#oo#oooo#ooo$#oo#oooo#oo#oooo#oo  ",
"    o#oooo#oXoooo#o#ooooXoXoooo#oXoooo#oXoooo#o#oooo#oXoooo#o#oooo#oXoooo#oo$#oo  ooooooo#oooo#oo#oooo#ooo$#oo#oooo#oo#oooo#oo  ",
"    oo####oooXXXX$o$####$o$####$ooXXXX$o$####$o$####$ooXXXX$o$####$o$####$oooooo  oooooooo####oooo####ooooooooo####oooo####ooo  ",
"    oooooooooooooooooooooooooooooooooooooooooooooooooooooooooooooooooooooooooooo  oooooooooooooooooooooooooooooooooooooooooooo  ",
"                                                                                                                                ",
"    ooooooooooooooooooooo   ooooooooooooooo  ooooooooooooooo  ooooooooooooooo  ooooooooooooooo  ooooooooooooooo                 ",
"    oXooXXXoooXXXoooXoooo   ooooooooooooooo  o############oo  o############oo  o############oo  o############oo                 ",
"    oXoXoooXoXoooXoXoXoXo   oooooo#####oooo  o#oooooooooo#oo  o#oooooooooo#oo  o#oooooooooo#oo  o#oooooooooo#oo                 ",
"    oXoXoooXoXoooXooXoXoo   ooooo#oooo###oo  o#oooooooooo#oo  o#ooooXX#ooo#oo  o#ooo$##$ooo#oo  o#ooo###$ooo#oo                 ",
"    oXoXXXXXoXXXXXoooXooo   ooooo#oooo#oooo  o#oooooooooo##o  o#oooXoo#ooo##o  o#oooXoo#ooo##o  o#ooo#oo#ooo##o                 ",
"    oXoXoooXoXoooXooXoXoo   ooo###oooo#oooo  o#oooooooooo##o  o#ooooXX$ooo##o  o#ooo$##$ooo##o  o#ooo###$ooo##o                 ",
"    oXoXoooXoXoooXoXoXoXo   oo#oo#oooo###oo  o#oooooooooo##o  o#oooXoo#ooo##o  o#ooo#ooXooo##o  o#ooo#oo#ooo##o                 ",
"    oXooXXXoooXXXoooooXoo   o#oooo#####oooo  o#oooooooooo#oo  o#ooooXX#ooo#oo  o#ooo$##$ooo#oo  o#ooo###$ooo#oo                 ",
"    ooooooooooooooooooooo   o#ooooooooooooo  o#oooooooooo#oo  o#oooooooooo#oo  o#oooooooooo#oo  o#oooooooooo#oo                 ",
"                            ooooooooooooooo  o############oo  o############oo  o############oo  o############oo                 ",
"                            ooooooooooooooo  ooooooooooooooo  ooooooooooooooo  ooooooooooooooo  ooooooooooooooo                 ",
"                                                                                                                                "};
