/* XPM */
static char * add_to_friends_xpm[] = {
"38 38 7 1",
" 	c None",
".	c #808080",
"+	c #000000",
"@	c #C0C0C0",
"#	c #101010",
"$	c #FFFFFF",
"%	c #E0A008",
"      .++.                 .++++.     ",
"     .++++.                +@+@++     ",
"     +@+@++                +#++$+     ",
"     +#++$+           .++. +%%%@+     ",
"     +%%%@+          .++++.+%%%@+.    ",
"     +%%%@+.         +@+@+++%%$$++    ",
"     +%%$$++         +#++$+.$$$$$+.   ",
"    +.$$$$$+.        +%%%@+$$$$$$.+.  ",
"   .+$$$$$$.+.       +%%%@+.$@$$$$++  ",
"   +$$$@$$$$++       +%%$$++.++.$$++. ",
"   +$$@@$$$$++.     +.$$$$$.++++.$+++ ",
"  +@$$@$$$$$+++    .+$$$$$$+@+@++$+++ ",
"  %@$$@$$$$$+++    +$$$@$$$+#++$+%++% ",
" %%%$$$$$$$%++%    +$$@@$$$+%%%@+%%%%%",
"%%%%%$$$$$@%%%%%  +@$.++.$$+%%%@+.%%%%",
"%%%%%$$$$$+%%%%%  %@.++++.$+%%$$++%%% ",
" %%%%%$$+++%%%%  %%%+@+@+++.$$$$$+.%  ",
"  %%%.+++++.%%  %%%%+#++$++$$$$$$.+.  ",
"                %%%%+%%%@+$$$@$$$$++  ",
"                 %%%+%%%@+.$.++.$$++. ",
"                  %%+%%$$++.++++.$+++ ",
"      ++           +.$$$$$++@+@++$+++ ",
"      ++          .+$$$$$$.+#++$+%++% ",
"      ++          +$$$@$$$$+%%%@+%%%%%",
"      ++          +$$@@$$$$+%%%@+.%%%%",
"      ++         +@$$@$$$$$+%%$$++%%% ",
"      ++    +    %@$$@$$$$+.$$$$$+.%  ",
"      ++    ++  %%%$$$$$$.+$$$$$$.+.  ",
"      ++     ++%%%%%$$$$$+$$$@$$$$++  ",
"      +++++++++++%%%$$$$$+$$@@$$$$++. ",
"      +++++++++++%%%%$$++@$$@$$$$$+++ ",
"             ++  %%%.+++%@$$@$$$$$+++ ",
"            ++         %%%$$$$$$$%++% ",
"            +         %%%%%$$$$$@%%%%%",
"                      %%%%%$$$$$+%%%%%",
"                       %%%%%$$+++%%%% ",
"                        %%%.+++++.%%  ",
"                                      "};
