/* XPM */
static char * h_xpm[] = {
"38 38 843 2",
"  	c None",
". 	c #AA9384",
"+ 	c #BF9D80",
"@ 	c #D3A982",
"# 	c #D09E76",
"$ 	c #C9946C",
"% 	c #ECBB8A",
"& 	c #E1B78C",
"* 	c #DAB895",
"= 	c #AA7657",
"- 	c #D99C6A",
"; 	c #F9C182",
"> 	c #FFDA9E",
", 	c #F3BF8A",
"' 	c #C69E7D",
") 	c #855435",
"! 	c #CF8F5E",
"~ 	c #FFBF7B",
"{ 	c #FFCE8E",
"] 	c #F9D9A6",
"^ 	c #ECC497",
"/ 	c #845241",
"( 	c #B67754",
"_ 	c #E8A06A",
": 	c #FFC989",
"< 	c #FFEAB4",
"[ 	c #F3C28A",
"} 	c #C2A285",
"| 	c #835F49",
"1 	c #684029",
"2 	c #CC8559",
"3 	c #FFC27D",
"4 	c #FFDDA0",
"5 	c #FFF0B8",
"6 	c #EBC395",
"7 	c #6B3D2B",
"8 	c #A16846",
"9 	c #DF9363",
"0 	c #F4B581",
"a 	c #FCD6A6",
"b 	c #FCC587",
"c 	c #BF8F64",
"d 	c #603D26",
"e 	c #54311F",
"f 	c #B77850",
"g 	c #EFC18C",
"h 	c #FFE2B0",
"i 	c #F1BC86",
"j 	c #533324",
"k 	c #885139",
"l 	c #DCA175",
"m 	c #F4D1A3",
"n 	c #F8D6A0",
"o 	c #ECBE90",
"p 	c #70472E",
"q 	c #341D14",
"r 	c #442417",
"s 	c #AB724D",
"t 	c #F2BA7F",
"u 	c #FFDF9F",
"v 	c #FFDE9F",
"w 	c #FFD191",
"x 	c #503327",
"y 	c #85563F",
"z 	c #D5A37B",
"A 	c #F9CB97",
"B 	c #FFD89E",
"C 	c #F0B681",
"D 	c #623B29",
"E 	c #371E14",
"F 	c #391E13",
"G 	c #9E6649",
"H 	c #EFAF78",
"I 	c #FFD097",
"J 	c #FFD499",
"K 	c #FFCF92",
"L 	c #8B5C3F",
"M 	c #D48D62",
"N 	c #F1AC73",
"O 	c #FABC88",
"P 	c #E1A073",
"Q 	c #5A3424",
"R 	c #361D14",
"S 	c #381E13",
"T 	c #895538",
"U 	c #CE8D62",
"V 	c #EEA976",
"W 	c #F1B278",
"X 	c #F8BC8B",
"Y 	c #EFCBA6",
"Z 	c #C7AA8E",
"` 	c #B28869",
" .	c #CD926B",
"..	c #F3B58B",
"+.	c #AC8B77",
"@.	c #A78771",
"#.	c #956B4F",
"$.	c #6A3D29",
"%.	c #9C5D42",
"&.	c #BC7755",
"*.	c #D08761",
"=.	c #9D654B",
"-.	c #412418",
";.	c #2B160A",
">.	c #321C0F",
",.	c #4F2723",
"'.	c #825236",
").	c #9F5F42",
"!.	c #BA7952",
"~.	c #EAAD78",
"{.	c #EAD3A2",
"].	c #BA8864",
"^.	c #A16848",
"/.	c #B36F4E",
"(.	c #EDB27C",
"_.	c #FFDC99",
":.	c #FFD99C",
"<.	c #A38D81",
"[.	c #AC7D5F",
"}.	c #DE9866",
"|.	c #E1AF80",
"1.	c #9A6A4D",
"2.	c #573928",
"3.	c #5F473C",
"4.	c #382018",
"5.	c #532C29",
"6.	c #512D1D",
"7.	c #603528",
"8.	c #4F2624",
"9.	c #2F180F",
"0.	c #492B1C",
"a.	c #7C533C",
"b.	c #543924",
"c.	c #563525",
"d.	c #563425",
"e.	c #965F45",
"f.	c #E6A773",
"g.	c #F5DCA7",
"h.	c #CEB08E",
"i.	c #C0997A",
"j.	c #9B6646",
"k.	c #7E4D33",
"l.	c #A96A4B",
"m.	c #EAB47F",
"n.	c #FFE6A8",
"o.	c #FFEFB5",
"p.	c #AC8870",
"q.	c #BD8157",
"r.	c #DE9464",
"s.	c #F7BC7F",
"t.	c #C3916E",
"u.	c #71422C",
"v.	c #5C3628",
"w.	c #644233",
"x.	c #927468",
"y.	c #2E1A0E",
"z.	c #2E190E",
"A.	c #2D180D",
"B.	c #3D2315",
"C.	c #8E6448",
"D.	c #E4BB8F",
"E.	c #D3AF7E",
"F.	c #C69168",
"G.	c #C1875D",
"H.	c #C78A5F",
"I.	c #F1AE74",
"J.	c #FFE0A6",
"K.	c #E0BF8E",
"L.	c #B0805D",
"M.	c #9A664A",
"N.	c #623A27",
"O.	c #592E26",
"P.	c #A76A50",
"Q.	c #F0BD86",
"R.	c #FFEEB3",
"S.	c #FFEBB1",
"T.	c #D5B994",
"U.	c #A98167",
"V.	c #B37451",
"W.	c #D5895F",
"X.	c #F2B17B",
"Y.	c #D6A176",
"Z.	c #6F4D36",
"`.	c #603826",
" +	c #A97654",
".+	c #B28A6D",
"++	c #2B150B",
"@+	c #281708",
"#+	c #714133",
"$+	c #C78E61",
"%+	c #FCD497",
"&+	c #FFE7A9",
"*+	c #F8D8A0",
"=+	c #F8BF89",
"-+	c #F7B57A",
";+	c #FEC785",
">+	c #FCDA9C",
",+	c #DBAF84",
"'+	c #996542",
")+	c #66402E",
"!+	c #341C12",
"~+	c #381D14",
"{+	c #9A5F45",
"]+	c #ECA972",
"^+	c #FFDFA4",
"/+	c #FFDFA1",
"(+	c #D5B48F",
"_+	c #A9704D",
":+	c #DE9968",
"<+	c #F3C398",
"[+	c #E6B48C",
"}+	c #805F49",
"|+	c #804A3A",
"1+	c #EAAB7D",
"2+	c #DFAF81",
"3+	c #7A4F39",
"4+	c #463327",
"5+	c #4C3528",
"6+	c #422819",
"7+	c #432718",
"8+	c #B67251",
"9+	c #E19464",
"0+	c #F5B37E",
"a+	c #F5C99D",
"b+	c #FFD297",
"c+	c #FECC8A",
"d+	c #FDBC7A",
"e+	c #FCBC7A",
"f+	c #D8A87C",
"g+	c #9A6248",
"h+	c #643C2D",
"i+	c #412518",
"j+	c #291509",
"k+	c #2D190D",
"l+	c #65382C",
"m+	c #B47151",
"n+	c #DD9B6F",
"o+	c #E8B481",
"p+	c #BB977B",
"q+	c #A67355",
"r+	c #D08C5F",
"s+	c #ECA976",
"t+	c #F1B486",
"u+	c #9E6F4D",
"v+	c #A56846",
"w+	c #DFA270",
"x+	c #C69970",
"y+	c #724C36",
"z+	c #593121",
"A+	c #623A2C",
"B+	c #724231",
"C+	c #9F6145",
"D+	c #D08860",
"E+	c #DF9163",
"F+	c #E9A46E",
"G+	c #F5B378",
"H+	c #FAC085",
"I+	c #F5B781",
"J+	c #EDAE76",
"K+	c #E39E6C",
"L+	c #9B6947",
"M+	c #664231",
"N+	c #44291D",
"O+	c #2B180A",
"P+	c #2E190D",
"Q+	c #4E3120",
"R+	c #75513C",
"S+	c #A47358",
"T+	c #B07553",
"U+	c #C38F66",
"V+	c #957C72",
"W+	c #A36E52",
"X+	c #BA7754",
"Y+	c #AE7957",
"Z+	c #784C34",
"`+	c #9F6E4D",
" @	c #BE855D",
".@	c #8A5D43",
"+@	c #553225",
"@@	c #4D3124",
"#@	c #5E3529",
"$@	c #915A3C",
"%@	c #C38662",
"&@	c #CD8C61",
"*@	c #CA855D",
"=@	c #D98F61",
"-@	c #E2966A",
";@	c #E69C6A",
">@	c #E3A670",
",@	c #D39566",
"'@	c #A56E4A",
")@	c #613B2A",
"!@	c #503124",
"~@	c #382217",
"{@	c #2F1A0E",
"]@	c #593A25",
"^@	c #B48056",
"/@	c #E2AE84",
"(@	c #E6BC95",
"_@	c #C79671",
":@	c #91705D",
"<@	c #493325",
"[@	c #47271D",
"}@	c #714531",
"|@	c #804C3B",
"1@	c #5C3627",
"2@	c #4A2920",
"3@	c #4F2A27",
"4@	c #724633",
"5@	c #AE7D57",
"6@	c #D59969",
"7@	c #C9855E",
"8@	c #AC724D",
"9@	c #B1744E",
"0@	c #BD7C54",
"a@	c #C28157",
"b@	c #C2855B",
"c@	c #946A51",
"d@	c #654230",
"e@	c #513027",
"f@	c #542F23",
"g@	c #522D1F",
"h@	c #5E3724",
"i@	c #A8704B",
"j@	c #ECA96F",
"k@	c #F5C495",
"l@	c #F4C898",
"m@	c #C7A587",
"n@	c #372617",
"o@	c #43251C",
"p@	c #48291F",
"q@	c #371D13",
"r@	c #2F1C0F",
"s@	c #603725",
"t@	c #A36B4D",
"u@	c #DC9A6F",
"v@	c #E7A379",
"w@	c #D19769",
"x@	c #B77E54",
"y@	c #A36746",
"z@	c #9C5E42",
"A@	c #8A5636",
"B@	c #814C37",
"C@	c #61372A",
"D@	c #523027",
"E@	c #4D2A20",
"F@	c #542A24",
"G@	c #613428",
"H@	c #8C5838",
"I@	c #C2885A",
"J@	c #E9A76D",
"K@	c #FAB883",
"L@	c #F8C48E",
"M@	c #D4AA86",
"N@	c #3F281B",
"O@	c #2B170B",
"P@	c #2D170D",
"Q@	c #472E21",
"R@	c #895639",
"S@	c #C88559",
"T@	c #E6A271",
"U@	c #E6A475",
"V@	c #E09D70",
"W@	c #C7895E",
"X@	c #B17953",
"Y@	c #936146",
"Z@	c #623927",
"`@	c #562E24",
" #	c #452A22",
".#	c #4E2C27",
"+#	c #482921",
"@#	c #4B2B25",
"##	c #573328",
"$#	c #7D4D32",
"%#	c #945F3F",
"&#	c #B3724D",
"*#	c #D79061",
"=#	c #EAA976",
"-#	c #EAB687",
";#	c #301A10",
">#	c #5F3A24",
",#	c #A36846",
"'#	c #CD8A5D",
")#	c #DC9264",
"!#	c #DB9264",
"~#	c #D59364",
"{#	c #CC8B60",
"]#	c #BD815B",
"^#	c #88644C",
"/#	c #523126",
"(#	c #48271F",
"_#	c #492520",
":#	c #4C2623",
"<#	c #472F25",
"[#	c #492D28",
"}#	c #5F3525",
"|#	c #794837",
"1#	c #A06A49",
"2#	c #D59162",
"3#	c #F3BC8D",
"4#	c #F5C798",
"5#	c #593527",
"6#	c #683A2D",
"7#	c #9B6B4E",
"8#	c #BB7853",
"9#	c #C8825B",
"0#	c #CC875C",
"a#	c #C8885B",
"b#	c #BF845B",
"c#	c #A66D4A",
"d#	c #684532",
"e#	c #4A2921",
"f#	c #492820",
"g#	c #4E2B25",
"h#	c #502E27",
"i#	c #4F2C26",
"j#	c #4C2724",
"k#	c #4E2C26",
"l#	c #5C3828",
"m#	c #955E3F",
"n#	c #C18058",
"o#	c #DE9063",
"p#	c #F1B685",
"q#	c #FDC086",
"r#	c #B18567",
"s#	c #8D604D",
"t#	c #764735",
"u#	c #9B5D41",
"v#	c #A16646",
"w#	c #B77F55",
"x#	c #D18E64",
"y#	c #D09B72",
"z#	c #C69069",
"A#	c #8F5E40",
"B#	c #543227",
"C#	c #543028",
"D#	c #59342B",
"E#	c #55342A",
"F#	c #522F25",
"G#	c #4B2922",
"H#	c #512827",
"I#	c #613C29",
"J#	c #8B593A",
"K#	c #BE7C58",
"L#	c #E3A177",
"M#	c #F7BA91",
"N#	c #BD8D6E",
"O#	c #422A1D",
"P#	c #8B5E4D",
"Q#	c #A76E4B",
"R#	c #AA734E",
"S#	c #D39665",
"T#	c #E7AF7C",
"U#	c #EFB784",
"V#	c #CA9970",
"W#	c #74503A",
"X#	c #40261B",
"Y#	c #4C2A21",
"Z#	c #613928",
"`#	c #814E39",
" $	c #905844",
".$	c #784C38",
"+$	c #684430",
"@$	c #613731",
"#$	c #5C3428",
"$$	c #5E3625",
"%$	c #7A4A32",
"&$	c #A56D4C",
"*$	c #D19668",
"=$	c #F5B689",
"-$	c #D3AB8B",
";$	c #392C20",
">$	c #A06D4C",
",$	c #AB704C",
"'$	c #BE7B55",
")$	c #E6A16C",
"!$	c #E8B486",
"~$	c #E9B280",
"{$	c #A77958",
"]$	c #5F392D",
"^$	c #4B2523",
"/$	c #714134",
"($	c #A5714D",
"_$	c #BC865B",
":$	c #C08B65",
"<$	c #A66A4B",
"[$	c #86563F",
"}$	c #7A4D39",
"|$	c #6B4A3B",
"1$	c #6C4235",
"2$	c #734E39",
"3$	c #975D40",
"4$	c #C6895C",
"5$	c #E9A974",
"6$	c #E6B689",
"7$	c #433324",
"8$	c #100800",
"9$	c #22180F",
"0$	c #413428",
"a$	c #A56D4A",
"b$	c #A76747",
"c$	c #D68A60",
"d$	c #E8A26F",
"e$	c #F3B589",
"f$	c #CC9768",
"g$	c #84573C",
"h$	c #562A25",
"i$	c #6D3933",
"j$	c #CA8B69",
"k$	c #EDC696",
"l$	c #F7D190",
"m$	c #E5B98A",
"n$	c #C59E7F",
"o$	c #B37E5B",
"p$	c #8F5C42",
"q$	c #784537",
"r$	c #875439",
"s$	c #9C5C40",
"t$	c #AE734E",
"u$	c #D99369",
"v$	c #E7AF84",
"w$	c #5D4330",
"x$	c #110901",
"y$	c #160E05",
"z$	c #A2826D",
"A$	c #A4775C",
"B$	c #CB875B",
"C$	c #DE9366",
"D$	c #F5B481",
"E$	c #FEC090",
"F$	c #C08E69",
"G$	c #744538",
"H$	c #69392C",
"I$	c #A96F4D",
"J$	c #FACFA1",
"K$	c #FFEAB7",
"L$	c #FFF3BE",
"M$	c #FFE3A5",
"N$	c #F2CBA1",
"O$	c #E1AE83",
"P$	c #C38B61",
"Q$	c #A86C4D",
"R$	c #85503D",
"S$	c #865638",
"T$	c #995F41",
"U$	c #C4855A",
"V$	c #CF9974",
"W$	c #A68165",
"X$	c #1A1005",
"Y$	c #291E15",
"Z$	c #413329",
"`$	c #A87353",
" %	c #D09169",
".%	c #E29565",
"+%	c #E49B6D",
"@%	c #F6C18F",
"#%	c #F8C596",
"$%	c #C59973",
"%%	c #966043",
"&%	c #A86C49",
"*%	c #E1A981",
"=%	c #FFE8B1",
"-%	c #FFF2BD",
";%	c #FDE0AB",
">%	c #F6C897",
",%	c #E3A674",
"'%	c #CC976C",
")%	c #B9835E",
"!%	c #9D6E50",
"~%	c #9B6A49",
"{%	c #986949",
"]%	c #AC704B",
"^%	c #C2875C",
"/%	c #B48768",
"(%	c #412716",
"_%	c #4C3C31",
":%	c #B17753",
"<%	c #DF9A6C",
"[%	c #ECAD77",
"}%	c #DF9F77",
"|%	c #C6A68A",
"1%	c #B87D5A",
"2%	c #D3926D",
"3%	c #F5BD8C",
"4%	c #F6B280",
"5%	c #EBA270",
"6%	c #F3B888",
"7%	c #F7C396",
"8%	c #E5B58D",
"9%	c #D9996F",
"0%	c #EAB37F",
"a%	c #F9D3A4",
"b%	c #FFEDB1",
"c%	c #FFEEB5",
"d%	c #FFE8AA",
"e%	c #FFD999",
"f%	c #EFBC88",
"g%	c #DA9E6C",
"h%	c #CE9264",
"i%	c #BE865D",
"j%	c #B17350",
"k%	c #A16A48",
"l%	c #985D3E",
"m%	c #A36B47",
"n%	c #BC8862",
"o%	c #6A412A",
"p%	c #1D0F07",
"q%	c #9A6F52",
"r%	c #E89D6B",
"s%	c #FAB988",
"t%	c #F7B889",
"u%	c #E9AA7D",
"v%	c #E9A575",
"w%	c #EAB284",
"x%	c #EEBD92",
"y%	c #F5CD99",
"z%	c #FFDB9B",
"A%	c #FECD95",
"B%	c #F6BD8F",
"C%	c #FABA8D",
"D%	c #FDC994",
"E%	c #FCD09B",
"F%	c #FEE2AA",
"G%	c #FFE8AD",
"H%	c #FFECB0",
"I%	c #FEEAB6",
"J%	c #FEE0AF",
"K%	c #FFDFAC",
"L%	c #FFDFA8",
"M%	c #FFD799",
"N%	c #F4CB9E",
"O%	c #D2AB89",
"P%	c #CC885D",
"Q%	c #C6865D",
"R%	c #B0764F",
"S%	c #9C6E50",
"T%	c #8E6144",
"U%	c #94603F",
"V%	c #D49262",
"W%	c #A9754E",
"X%	c #3B2417",
"Y%	c #120901",
"Z%	c #9D806F",
"`%	c #9D6242",
" &	c #D89065",
".&	c #F0B488",
"+&	c #F5B182",
"@&	c #EAA26E",
"#&	c #E9A06C",
"$&	c #EDA672",
"%&	c #F9C996",
"&&	c #FFDA97",
"*&	c #FFDEA0",
"=&	c #FFD59D",
"-&	c #FDCF9B",
";&	c #FBC393",
">&	c #F8C295",
",&	c #FCCD96",
"'&	c #FDD59C",
")&	c #FEDEA7",
"!&	c #FDD9A7",
"~&	c #FAD9A0",
"{&	c #F7D1A0",
"]&	c #F6C798",
"^&	c #F8C98F",
"/&	c #FDC88E",
"(&	c #FDC287",
"_&	c #F5C294",
":&	c #F3B68B",
"<&	c #D99664",
"[&	c #B78057",
"}&	c #B17A51",
"|&	c #AD754D",
"1&	c #DC9464",
"2&	c #CA8D5E",
"3&	c #48291C",
"4&	c #28170C",
"5&	c #8A766E",
"6&	c #6E4330",
"7&	c #90573D",
"8&	c #BD7B59",
"9&	c #D28F65",
"0&	c #DF9569",
"a&	c #E89F6D",
"b&	c #E69B6A",
"c&	c #F9C696",
"d&	c #FFD398",
"e&	c #FFDBA0",
"f&	c #FFDFA6",
"g&	c #FFDCA2",
"h&	c #FDCB96",
"i&	c #F8BE92",
"j&	c #F7BC92",
"k&	c #F4B98E",
"l&	c #F1B583",
"m&	c #F0B386",
"n&	c #EEBE95",
"o&	c #EDB28B",
"p&	c #EAAD84",
"q&	c #E7AE84",
"r&	c #EFAC84",
"s&	c #EAAA80",
"t&	c #E8A97C",
"u&	c #E5A776",
"v&	c #BC8056",
"w&	c #86593F",
"x&	c #714732",
"y&	c #734732",
"z&	c #915E41",
"A&	c #B27754",
"B&	c #CC865D",
"C&	c #B67D57",
"D&	c #3C261C",
"E&	c #63493C",
"F&	c #59382C",
"G&	c #5B3424",
"H&	c #824E35",
"I&	c #B16F4D",
"J&	c #C88659",
"K&	c #DB8F65",
"L&	c #F6BB8F",
"M&	c #F9C086",
"N&	c #FFC581",
"O&	c #FFC88F",
"P&	c #FBCB8E",
"Q&	c #F7C498",
"R&	c #EFAC83",
"S&	c #EFB07D",
"T&	c #E09F6F",
"U&	c #D69365",
"V&	c #DA9167",
"W&	c #D39D74",
"X&	c #D4966D",
"Y&	c #D4966C",
"Z&	c #D58F68",
"`&	c #C48661",
" *	c #BC7D58",
".*	c #AE7952",
"+*	c #A77550",
"@*	c #68422E",
"#*	c #45291E",
"$*	c #5F3F32",
"%*	c #855538",
"&*	c #A16946",
"**	c #B77652",
"=*	c #734F3C",
"-*	c #3F2218",
";*	c #29180F",
">*	c #392018",
",*	c #3F2217",
"'*	c #6F412B",
")*	c #906245",
"!*	c #BD7F58",
"~*	c #D7956E",
"{*	c #D79167",
"]*	c #D99968",
"^*	c #DD9866",
"/*	c #DC996A",
"(*	c #D9996D",
"_*	c #CB8A60",
":*	c #C28E67",
"<*	c #B87E54",
"[*	c #B3774F",
"}*	c #B97F54",
"|*	c #B88157",
"1*	c #B37C56",
"2*	c #AD7551",
"3*	c #AB6C4C",
"4*	c #804F33",
"5*	c #673C28",
"6*	c #653B27",
"7*	c #573120",
"8*	c #351E14",
"9*	c #2B180B",
"0*	c #4B2D1F",
"a*	c #6F4730",
"b*	c #6B4734",
"c*	c #825336",
"d*	c #93583D",
"e*	c #43261B",
"f*	c #483127",
"g*	c #3D2D22",
"h*	c #42261D",
"i*	c #5F3B2C",
"j*	c #754D3C",
"k*	c #5F4539",
"l*	c #663E2D",
"m*	c #704A31",
"n*	c #744C33",
"o*	c #6A422F",
"p*	c #5C4030",
"q*	c #613930",
"r*	c #6E442B",
"s*	c #6F452B",
"t*	c #6D4429",
"u*	c #6C4328",
"v*	c #65402C",
"w*	c #543724",
"x*	c #432B1F",
"y*	c #472B1D",
"z*	c #391F15",
"A*	c #2F1B0F",
"B*	c #281408",
"C*	c #2A160A",
"D*	c #371D14",
"E*	c #4B2D20",
"F*	c #533627",
"G*	c #613A2A",
"H*	c #563A2E",
"I*	c #45281F",
"J*	c #331B13",
"K*	c #40271D",
"L*	c #423025",
"M*	c #6C5C54",
"N*	c #695B52",
"O*	c #514033",
"P*	c #251407",
"Q*	c #160C02",
"R*	c #190D03",
"S*	c #231209",
"T*	c #381F16",
"U*	c #341D12",
"V*	c #291609",
"W*	c #3A2017",
"X*	c #3D281E",
"Y*	c #43261A",
"Z*	c #391F17",
"`*	c #44261A",
" =	c #2F1A0F",
".=	c #37281C",
"+=	c #1E1107",
"@=	c #1B0E06",
"#=	c #1B0F06",
"$=	c #160B02",
"%=	c #170C03",
"&=	c #2A160E",
"*=	c #2D1A0D",
"==	c #311911",
"-=	c #311B11",
";=	c #1B1109",
">=	c #271708",
",=	c #28150D",
"'=	c #4F3F34",
"                      . + @ #       $ % & *                                 ",
"                    = - ; > , '   ) ! ~ { ] ^                               ",
"                  / ( _ : < [ } | 1 2 3 4 5 6                               ",
"                  7 8 9 0 a b c d e f g 4 h i                               ",
"                  j k l m n o p q r s t u v w                               ",
"                  x y z A B C D E F G H I J K                               ",
"                    L M N O P Q R S T U V W X Y     Z   `  ...              ",
"      +.@.#.        $.%.&.*.=.-.;.>.,.'.).!.~.{.      ].^./.(._.:.          ",
"  <.[.}.|.1.2.3.    4.5.6.7.8.9.0.a.b.c.d.e.f.g.h.  i.j.k.l.m.n.o.          ",
"  p.q.r.s.t.u.v.w.x.    y.z.A.B.C.D.E.F.G.H.I.J.K.L.M.N.O.P.Q.R.S.T.        ",
"  U.V.W.X.Y.Z.`. +.+      ++@+#+$+%+&+*+=+-+;+>+,+'+)+!+~+{+]+^+/+(+        ",
"    _+:+<+[+}+|+1+2+3+4+5+6+7+8+9+0+a+b+c+d+e+f+g+h+i+j+k+l+m+n+o+p+        ",
"    q+r+s+t+u+v+w+x+y+z+A+B+C+D+E+F+G+H+I+J+K+L+M+N+O+P+Q+R+S+T+U+          ",
"    V+W+X+Y+Z+`+ @.@+@@@#@$@%@&@*@=@-@;@>@,@'@)@!@~@{@]@^@/@(@_@            ",
"        :@<@[@}@|@1@2@3@4@5@6@7@8@9@0@a@b@c@d@e@f@g@h@i@j@k@l@m@            ",
"            n@o@p@q@r@s@t@u@v@w@x@y@z@A@B@C@D@E@F@G@H@I@J@K@L@M@            ",
"              N@O@P@Q@R@S@T@U@V@W@X@Y@Z@`@ #.#+#@###$#%#&#*#=#-#            ",
"                ;#;#>#,#'#)#!#~#{#]#^#/#(#_#:#+#<#[#}#|#1#2#3#4#            ",
"                  5#6#7#8#9#0#a#b#c#d#e#f#g#h#i#j#k#l#m#n#o#p#q#r#          ",
"                  s#t#u#v#w#x#y#z#A#B#f#e#C#D#E#F#G#H#I#J#K#L#M#N#O#        ",
"                    P#Q#R#S#T#U#V#W#X#Y#Z#`# $.$+$@$#$$$%$&$*$=$-$;$        ",
"                    >$,$'$)$!$~${$]$^$/$($_$:$<$[$}$|$1$2$3$4$5$6$7$8$9$0$  ",
"                    a$b$c$d$e$f$g$h$i$j$k$l$m$n$o$p$|$q$r$s$t$u$v$w$x$y$    ",
"                  z$A$B$C$D$E$F$G$H$I$J$K$L$M$N$O$P$Q$R$S$T$'@U$V$W$X$Y$Z$  ",
"                  `$ %.%+%@%#%$%%%&%*%=%L$L$-%;%>%,%'%)%!%~%{%]%^%/%(%8$8$_%",
"  :%<%[%}%    |%1%2%3%4%5%6%7%8%9%0%a%b%L$L$c%d%e%f%g%h%i%j%k%l%m%n%o%p%8$  ",
"q%!.r%s%t%u%v%w%x%y%z%A%B%C%D%A%E%F%G%H%I%J%K%L%M%N%O%P%Q%R%S%T%U%V%W%X%Y%  ",
"Z%`% &.&+&@&#&$&%&&&*&=&-&;&>&,&'&)&!&~&{&]&^&/&(&_&:&<&[&}&|&$@i@1&2&3&4&  ",
"5&6&7&8&9&0&a&b&c&d&e&f&g&h&i&j&k&l&m&n&o&p&q&r&s&t&u&v&w&x&y&z&A&B&C&+#D&  ",
"  E&F&G&H&I&J&K&L&M&N&O&P&Q&R&S&T&U&V&W&X&Y&Z&`& *.*+*@*#*+#$*%*&***=*-*;*  ",
"      >*,*'*)*!*~*{*]*^*/*(*_*:*<*[*}*|*1*2*3*4*5*6*7*8*9*0*a*b*c*d*e*f*    ",
"        g*h*i*j*k*l*m*n*o*p*q*r*s*t*u*v*w*x*y*z*A*j+B*C*D*E*F*G*H*I*J*K*    ",
"                              L*M*N*O*P*Q*8$R*S*T*U*j+V*;#W*X*Y*Z*;#`* =    ",
"                                      .=+=8$8$Y%@=#=$=$=%=&=*===-=          ",
"                                          8$8$8$8$8$x$;=8$x$>=,=            ",
"                                                      '=8$                  ",
"                                                                            ",
"                                                                            "};
