/* XPM */
static char * edit_mp3_xpm[] = {
"38 41 318 2",
"  	c None",
". 	c #040204",
"+ 	c #1C1D1B",
"@ 	c #8D8C8A",
"# 	c #ACAAAC",
"$ 	c #9FA3A0",
"% 	c #3C3A3D",
"& 	c #000000",
"* 	c #C4C4C4",
"= 	c #FCFDFC",
"- 	c #747274",
"; 	c #545553",
"> 	c #E4E4E4",
", 	c #DCDCDC",
"' 	c #080808",
") 	c #131313",
"! 	c #8E8E8E",
"~ 	c #C5C5C4",
"{ 	c #7A7A7A",
"] 	c #6C6C6C",
"^ 	c #828282",
"/ 	c #9D9D9C",
"( 	c #A6A6A6",
"_ 	c #ACACAC",
": 	c #AEAEAE",
"< 	c #ADADAD",
"[ 	c #ABABAB",
"} 	c #ADADAC",
"| 	c #B0B0AF",
"1 	c #484848",
"2 	c #616161",
"3 	c #010101",
"4 	c #3A3A3A",
"5 	c #D9D9D9",
"6 	c #DBDBDB",
"7 	c #C7C7C7",
"8 	c #5B5B5A",
"9 	c #747474",
"0 	c #919191",
"a 	c #A4A4A3",
"b 	c #A9A9A9",
"c 	c #ACACAB",
"d 	c #AEAEAD",
"e 	c #A4A4A4",
"f 	c #9A9A9A",
"g 	c #626262",
"h 	c #242424",
"i 	c #959595",
"j 	c #D8D8D8",
"k 	c #DDDDDD",
"l 	c #D5D5D5",
"m 	c #6E6E6E",
"n 	c #6A6A6A",
"o 	c #858585",
"p 	c #9C9C9C",
"q 	c #A3A3A3",
"r 	c #AAAAA9",
"s 	c #B0B0B0",
"t 	c #AFAFAE",
"u 	c #A8A8A8",
"v 	c #737373",
"w 	c #040404",
"x 	c #101010",
"y 	c #9E9E9E",
"z 	c #CECECE",
"A 	c #9E9E9D",
"B 	c #636363",
"C 	c #585858",
"D 	c #7F7F7F",
"E 	c #939393",
"F 	c #9B9B9B",
"G 	c #A3A3A2",
"H 	c #AFAFAF",
"I 	c #B1B1B1",
"J 	c #B3B3B3",
"K 	c #AAAAAA",
"L 	c #525252",
"M 	c #292928",
"N 	c #686867",
"O 	c #575757",
"P 	c #676767",
"Q 	c #757575",
"R 	c #949494",
"S 	c #9F9F9E",
"T 	c #A8A8A7",
"U 	c #B3B3B2",
"V 	c #B5B5B5",
"W 	c #B6B6B5",
"X 	c #B7B7B7",
"Y 	c #7C7C7C",
"Z 	c #070707",
"` 	c #161616",
" .	c #5F5F5F",
"..	c #696969",
"+.	c #727272",
"@.	c #7B7B7B",
"#.	c #909090",
"$.	c #A7A7A6",
"%.	c #B9B9B9",
"&.	c #BBBBBB",
"*.	c #A1A1A0",
"=.	c #7E7E7E",
"-.	c #1D1D1D",
";.	c #282828",
">.	c #8A8A8A",
",.	c #828281",
"'.	c #A5A5A5",
").	c #B8B8B8",
"!.	c #BCBCBC",
"~.	c #BEBEBE",
"{.	c #B6B6B6",
"].	c #4A4A4A",
"^.	c #232323",
"/.	c #020202",
"(.	c #868686",
"_.	c #262626",
":.	c #111111",
"<.	c #A1A1A1",
"[.	c #A5A5A4",
"}.	c #B4B4B3",
"|.	c #B9B9B8",
"1.	c #BFBFBF",
"2.	c #919190",
"3.	c #343433",
"4.	c #656565",
"5.	c #8F8F8E",
"6.	c #1D1914",
"7.	c #4C4235",
"8.	c #B4B4B4",
"9.	c #B2B2B2",
"0.	c #BABABA",
"a.	c #C0C0C0",
"b.	c #787877",
"c.	c #BDBDBC",
"d.	c #2F2F2F",
"e.	c #100E0B",
"f.	c #0A0907",
"g.	c #3F362B",
"h.	c #13110D",
"i.	c #9F896E",
"j.	c #9D886C",
"k.	c #303030",
"l.	c #BEBEBD",
"m.	c #BDBDBD",
"n.	c #646464",
"o.	c #171717",
"p.	c #878787",
"q.	c #C3C3C3",
"r.	c #9D9D9D",
"s.	c #5E5E5D",
"t.	c #1C1C1C",
"u.	c #0D0D0D",
"v.	c #0B0B0B",
"w.	c #2F2820",
"x.	c #55493A",
"y.	c #8E7A62",
"z.	c #B99E7F",
"A.	c #EBCAA1",
"B.	c #DBBC96",
"C.	c #504536",
"D.	c #816E58",
"E.	c #0F0D0A",
"F.	c #6E5E4B",
"G.	c #060606",
"H.	c #C9C9C9",
"I.	c #C8C8C8",
"J.	c #0C0C0C",
"K.	c #2E2E2E",
"L.	c #CCCCCB",
"M.	c #CBCBCA",
"N.	c #CACAC9",
"O.	c #A0A0A0",
"P.	c #535353",
"Q.	c #3B3328",
"R.	c #87745D",
"S.	c #D3B692",
"T.	c #FAD7AC",
"U.	c #F5D3A9",
"V.	c #ECCBA2",
"W.	c #DDBE98",
"X.	c #C7AB88",
"Y.	c #7B6A54",
"Z.	c #383026",
"`.	c #9A8569",
" +	c #947F65",
".+	c #D4D4D4",
"++	c #CFCFCF",
"@+	c #1B1B1B",
"#+	c #2C2C2C",
"$+	c #8E8E8D",
"%+	c #A7A7A7",
"&+	c #C1C1C1",
"*+	c #D2D2D2",
"=+	c #D1D1D1",
"-+	c #D0D0D0",
";+	c #3C3C3C",
">+	c #151515",
",+	c #555555",
"'+	c #A08A6E",
")+	c #E7C6A0",
"!+	c #FBD8AE",
"~+	c #E7C69E",
"{+	c #DABB95",
"]+	c #CBAF8B",
"^+	c #C4A986",
"/+	c #BCA282",
"(+	c #BCA281",
"_+	c #968167",
":+	c #201B16",
"<+	c #1C1813",
"[+	c #605342",
"}+	c #1A1A1A",
"|+	c #838383",
"1+	c #DFDFDF",
"2+	c #C6C6C6",
"3+	c #9F9F9F",
"4+	c #CDCDCD",
"5+	c #D9D9D8",
"6+	c #D8D8D7",
"7+	c #D7D7D7",
"8+	c #D6D6D6",
"9+	c #6F6F6F",
"0+	c #322B22",
"a+	c #EBCBA2",
"b+	c #F1CFA6",
"c+	c #E7C79E",
"d+	c #D8BA94",
"e+	c #B69D7D",
"f+	c #B09879",
"g+	c #998469",
"h+	c #766550",
"i+	c #544839",
"j+	c #1F1B15",
"k+	c #454545",
"l+	c #929292",
"m+	c #DEDEDE",
"n+	c #DFDFDE",
"o+	c #DBDBDA",
"p+	c #494831",
"q+	c #BEBB81",
"r+	c #0C0B08",
"s+	c #CFB28D",
"t+	c #CFB28E",
"u+	c #C1A684",
"v+	c #A99274",
"w+	c #776651",
"x+	c #4E4336",
"y+	c #CCCCCC",
"z+	c #F0F0F0",
"A+	c #ECECEC",
"B+	c #E9E9E9",
"C+	c #E6E6E6",
"D+	c #E3E3E3",
"E+	c #E2E2E1",
"F+	c #E0E0E0",
"G+	c #C7C587",
"H+	c #DAD593",
"I+	c #74644F",
"J+	c #5E5140",
"K+	c #463C30",
"L+	c #3E352A",
"M+	c #26211A",
"N+	c #090909",
"O+	c #717170",
"P+	c #878786",
"Q+	c #F4F4F4",
"R+	c #F1F1F1",
"S+	c #EEEEEE",
"T+	c #EBEBEB",
"U+	c #E7E7E7",
"V+	c #E5E5E5",
"W+	c #E4E4E3",
"X+	c #313131",
"Y+	c #0F0F0F",
"Z+	c #181818",
"`+	c #1B1B1A",
" @	c #393939",
".@	c #CBCBCB",
"+@	c #A0A09F",
"@@	c #F9F9F9",
"#@	c #F6F6F6",
"$@	c #F3F3F3",
"%@	c #F1F1F0",
"&@	c #EDEDED",
"*@	c #EAEAEA",
"=@	c #E8E8E8",
"-@	c #E5E5E4",
";@	c #D4D4D3",
">@	c #D2D2D1",
",@	c #D0D0CF",
"'@	c #FAFAFA",
")@	c #F7F7F7",
"!@	c #F5F5F5",
"~@	c #EFEFEE",
"{@	c #E1E1E0",
"]@	c #DADADA",
"^@	c #FCFCFC",
"/@	c #FBFBFB",
"(@	c #F2F2F2",
"_@	c #E1E1E1",
":@	c #DDDDDC",
"<@	c #383838",
"[@	c #FEFEFE",
"}@	c #FDFDFD",
"|@	c #F8F8F8",
"1@	c #ECECEB",
"2@	c #FFFFFF",
"3@	c #FBFBFA",
"4@	c #E8E8E7",
"5@	c #E6E6E5",
"6@	c #F7F7F6",
"7@	c #969696",
"8@	c #7D7D7D",
"9@	c #F3F3F2",
"0@	c #343434",
"a@	c #8F8F8F",
"b@	c #E2E2E2",
"c@	c #373737",
". . . . . . . . . . . . . . . . . . . . . . . . . . . . . . . . . . . . . . ",
". . . . . . . . . . . . . . . . . . . . . . . . . . . . . . + @ # $ % . . . ",
"& . . . . . . . . . . . . . . . . . . . . . . . . . . . . . * = # * = + . . ",
"& . . . . . . . . . . . $ - % # . . # - . . . # - % $ % . . = ; . + = ; . . ",
"& . . . . . . . . . . . = > = = , = = = - . . = , = = > + . ; + . ; = % . . ",
"& . . . . . . . . . . . = , + - = - . * # . . = = + + = * . . . # = # . . . ",
"& . . . . . . . . . . . = # . ; = . . # # . . = # . . # = . . . . ; = @ . . ",
"& . . . . . . . . . . . = # . ; = . . # # . . = > . . > = . = ; . + = # . . ",
"& . . . . . . . % $ - . = # . ; = . . # # . . = = - - = @ . , * ; @ = - . . ",
"& . . . . . . . ; = # . = # . ; = . . # # . . = * * = # . . ; > = = @ . . . ",
". . . . . . . . . . . . . . . . . . . . . . . = # . . . . . . . . . . . . . ",
". . . . . . . . . . . . . . . . . . . . . . . = # . . . . . . . . . . . . . ",
". . . . . . . . . . . . . . . . . . . . . . . . . . . . . . . . . . .       ",
"' ) ! ~ { ] ^ / ( _ : : < < < < _ [ _ } : | [ 1 2 > , , ,                   ",
"3 4 5 6 7 8 9 0 / a b c _ d : : d _ _ d | e f g h                           ",
"& i j k l m n o i p q r _ d | s | t t s u v w &                             ",
"x y z A B C n D E F G [ H I J J J J K p L M &                               ",
"1 H F N O P Q o R S T H U V W X V T y Y Z         & &                       ",
"`  .....+.{ @.#.f $.H J X %.&.W *.=.-.&       & & & ;.&                     ",
"& 4 D >.,.! >.f '.< U ).!.~.{.o ].^./.    & & & N (.U _.&                   ",
"  :.+.<.S <.[.r : }.|.1.1.X 2.3.& & & & & & 4.@.: |.|.5.&   & & & & 6.7.&   ",
"  /.C 8.9.J J 8.{.0.a.).<.P & & & & & h b.$.c.!.V o L d.Z & e.f.g.h.i.j.&   ",
"    k.!.~.l.m.m.~.m.q n.4 o.& & ^.p.<.* q.m.r.s.t.u.v.w.x.y.z.A.B.C.D.E.F.& ",
"    G.V H.I.7 7 1.b 2 J.& & K.F I L.M.N.* O.P.-.u.Q.R.S.T.U.V.W.X.Y.Z.`. +& ",
"    & 4.&..+++9.2 @+& #+$+%+&+*+=+=+-+< ;+>+,+'+)+!+U.~+{+]+^+/+(+_+:+<+[+& ",
"      }+|+1+2+m ].3+K 4+j 5 5+6+7+8+-+9+J.0+a+b+c+d+X.e+f+g+h+i+j+& & & &   ",
"      & k+4+l+m+++n+1+m+k k , , , o+(.p+q+r+s+t+u+v+ +w+x+0+}+w & &         ",
"        G.y+z+A+B+C+> D+E+F+F+F+1+V J.G+H+E.I+J+K+L+M+N+v.4 O+P+&           ",
"        & @.Q+R+S+T+B+U+C+V+V+W+D+J X+>+Y+N+Z+`+^.@+ @v V .@H.7 +@&         ",
"          t.@@#@$@%@&@A+*@B+=@U+U+C+-@k 2+!.y |+( l ;@>@,@4+.@* #.&         ",
"          & 6 '@)@!@$@R+~@&@A+T+*@=@U+V+D+{@n+, ]@j 8+.+*+,@l+` &           ",
"          & 0.^@/@@@)@!@$@(@z+~@&@T+B+U+V+D+_@1+:@o+j 8+< o.&               ",
"            <@[@}@}@'@|@#@!@$@(@z+S+1@B+U+V+D+_@1+k | o.& & & &             ",
"            & 2@2@[@[@^@3@|@#@Q+(@z+S+A+*@4@5@l q & & & & & & & &           ",
"            & ~.2@2@2@2@}@/@@@6@Q+(@z+S+A+2+7@& & & & & & &                 ",
"            & 8@2@2@2@2@2@}@/@@@)@!@9@O.0@& & & & & &                       ",
"              & 2@2@2@2@2@2@}@/@++a@& & & & & &                             ",
"              & ~.2@2@2@2@b@%+c@& & & & &                                   ",
"                <@2@b@&.8@& & & & &                                         ",
"                & & & & & & &                                               ",
"                  & &                                                       "};
