/* XPM */
static char * extend_search_xpm[] = {
"32 32 366 2",
"  	c None",
". 	c #346DB0",
"+ 	c #4E7BA5",
"@ 	c #7A9686",
"# 	c #739284",
"$ 	c #82967A",
"% 	c #7B8D77",
"& 	c #7D8C69",
"* 	c #6D7E5E",
"= 	c #59634B",
"- 	c #3972AD",
"; 	c #5388BC",
"> 	c #ACB5AD",
", 	c #90A39E",
"' 	c #79969A",
") 	c #8C9C93",
"! 	c #9BA388",
"~ 	c #97A37D",
"{ 	c #849273",
"] 	c #84916A",
"^ 	c #859165",
"/ 	c #778154",
"( 	c #545636",
"_ 	c #4377AE",
": 	c #5283B4",
"< 	c #BCC6BE",
"[ 	c #ECEAC9",
"} 	c #DADEC4",
"| 	c #B3BFBA",
"1 	c #6A8BA3",
"2 	c #8B969A",
"3 	c #A6A292",
"4 	c #B1A991",
"5 	c #939281",
"6 	c #B4A781",
"7 	c #A6A578",
"8 	c #B1A668",
"9 	c #7B7044",
"0 	c #437AB0",
"a 	c #98B3C3",
"b 	c #EAECCA",
"c 	c #FCFCDA",
"d 	c #FCFCEA",
"e 	c #FCFCE5",
"f 	c #FAFAD4",
"g 	c #C2CEC1",
"h 	c #B3C5C2",
"i 	c #8CA2A5",
"j 	c #999F97",
"k 	c #DDCB9A",
"l 	c #EDDB9F",
"m 	c #B1B092",
"n 	c #B8B784",
"o 	c #BAA864",
"p 	c #796F47",
"q 	c #3D72A4",
"r 	c #5E8DB8",
"s 	c #F0F3E7",
"t 	c #FCFCE8",
"u 	c #FCFCDC",
"v 	c #FCFCD9",
"w 	c #FCFCD5",
"x 	c #FBFBD1",
"y 	c #FBFBDC",
"z 	c #EDF0D6",
"A 	c #CED1AD",
"B 	c #F3ECAA",
"C 	c #F9F3AE",
"D 	c #D1C797",
"E 	c #BEB683",
"F 	c #B1A167",
"G 	c #958D61",
"H 	c #3C3928",
"I 	c #487EB4",
"J 	c #A8BBBF",
"K 	c #F6F4CC",
"L 	c #FCFBE0",
"M 	c #FCFCDD",
"N 	c #FBFBDE",
"O 	c #FBFACB",
"P 	c #FCFCE4",
"Q 	c #D9DAB2",
"R 	c #BABD99",
"S 	c #F5F0AC",
"T 	c #D1CD9A",
"U 	c #B0AA85",
"V 	c #A29967",
"W 	c #8D875F",
"X 	c #78765A",
"Y 	c #1A1914",
"Z 	c #3970A6",
"` 	c #4A82B9",
" .	c #94ACB0",
"..	c #C8CE9F",
"+.	c #E5E5B1",
"@.	c #F8F8CB",
"#.	c #FCFCD8",
"$.	c #FCFCE6",
"%.	c #FCFCE2",
"&.	c #FCFCE1",
"*.	c #F0EDB6",
"=.	c #939E90",
"-.	c #E7DB9E",
";.	c #EBE39F",
">.	c #B9B385",
",.	c #797C62",
"'.	c #88825A",
").	c #787758",
"!.	c #36362C",
"~.	c #3F74AB",
"{.	c #4C83B9",
"].	c #6C96B9",
"^.	c #A0B4A6",
"/.	c #A2B5A7",
"(.	c #ADBFA0",
"_.	c #C2D2A4",
":.	c #D8E2AC",
"<.	c #D8DDA9",
"[.	c #ECE7B0",
"}.	c #F5EEB2",
"|.	c #F8ECAE",
"1.	c #EFDCA1",
"2.	c #A6A38C",
"3.	c #CFC999",
"4.	c #ECE4A0",
"5.	c #CDC189",
"6.	c #424F57",
"7.	c #414B4C",
"8.	c #68684D",
"9.	c #4F503F",
"0.	c #000000",
"a.	c #4076AA",
"b.	c #4C82B9",
"c.	c #5289BD",
"d.	c #5B8FBC",
"e.	c #5E8FB8",
"f.	c #7097AB",
"g.	c #96B398",
"h.	c #90B78D",
"i.	c #8DB28A",
"j.	c #A7B88D",
"k.	c #C2BE8D",
"l.	c #D6C192",
"m.	c #CCBB8C",
"n.	c #BCAF87",
"o.	c #9B9D88",
"p.	c #7A877F",
"q.	c #49606B",
"r.	c #263F57",
"s.	c #273C4C",
"t.	c #5B5F49",
"u.	c #4D5243",
"v.	c #4073A8",
"w.	c #4A80B6",
"x.	c #4E84B9",
"y.	c #5288BB",
"z.	c #5487B5",
"A.	c #698EA8",
"B.	c #A5B396",
"C.	c #A2B68C",
"D.	c #A1B38C",
"E.	c #A8B288",
"F.	c #B9B889",
"G.	c #C9BB8C",
"H.	c #CCBC8B",
"I.	c #DEC289",
"J.	c #E5CD8D",
"K.	c #7B877C",
"L.	c #234662",
"M.	c #223E55",
"N.	c #253D4F",
"O.	c #4D534C",
"P.	c #36464B",
"Q.	c #3C6FA4",
"R.	c #467CB2",
"S.	c #4C80B6",
"T.	c #4F83B6",
"U.	c #5182AF",
"V.	c #5D85A7",
"W.	c #ADB3A1",
"X.	c #C5BE94",
"Y.	c #CFBE90",
"Z.	c #C6B888",
"`.	c #BCAF85",
" +	c #AEA684",
".+	c #C6B885",
"++	c #B2A378",
"@+	c #8B8B78",
"#+	c #2D4F69",
"$+	c #204260",
"%+	c #223D53",
"&+	c #233D50",
"*+	c #37474D",
"=+	c #2C424D",
"-+	c #37699C",
";+	c #4475AA",
">+	c #4879AC",
",+	c #4A7AAB",
"'+	c #4C7BA5",
")+	c #517CA1",
"!+	c #ADB5AF",
"~+	c #DFCFA2",
"{+	c #DDC390",
"]+	c #CDBA89",
"^+	c #BDAF81",
"/+	c #B6A77B",
"(+	c #9A8F74",
"_+	c #3E5B71",
":+	c #294E6C",
"<+	c #214562",
"[+	c #213E57",
"}+	c #223C4E",
"|+	c #233D4F",
"1+	c #213849",
"2+	c #316192",
"3+	c #3D6EA2",
"4+	c #4373A5",
"5+	c #4675A4",
"6+	c #47749D",
"7+	c #63859D",
"8+	c #C8C5A9",
"9+	c #E6DBAC",
"0+	c #DEC891",
"a+	c #B9B684",
"b+	c #AEAA7E",
"c+	c #AEA073",
"d+	c #647070",
"e+	c #2A506E",
"f+	c #264967",
"g+	c #21405C",
"h+	c #213C51",
"i+	c #223D50",
"j+	c #1B3141",
"k+	c #285480",
"l+	c #376597",
"m+	c #3D699B",
"n+	c #3E6C9B",
"o+	c #3F6B95",
"p+	c #698194",
"q+	c #CEC59E",
"r+	c #DED39D",
"s+	c #D4C892",
"t+	c #AFAD7E",
"u+	c #9B9F78",
"v+	c #969471",
"w+	c #55676A",
"x+	c #2C4A63",
"y+	c #29435B",
"z+	c #213B51",
"A+	c #213C4E",
"B+	c #223D4E",
"C+	c #223C50",
"D+	c #213C50",
"E+	c #16242F",
"F+	c #1F4166",
"G+	c #305D8D",
"H+	c #366191",
"I+	c #396592",
"J+	c #3B658D",
"K+	c #4C6D8B",
"L+	c #C0BFA1",
"M+	c #ECD89E",
"N+	c #CFC590",
"O+	c #B2AE7D",
"P+	c #8D9370",
"Q+	c #5B6C6E",
"R+	c #405564",
"S+	c #606663",
"T+	c #384857",
"U+	c #203B4E",
"V+	c #213C4F",
"W+	c #1F384A",
"X+	c #0B131A",
"Y+	c #254E7A",
"Z+	c #2A5886",
"`+	c #2F5B87",
" @	c #325C86",
".@	c #365D82",
"+@	c #9FADA5",
"@@	c #F0DDA1",
"#@	c #CDBD89",
"$@	c #ACA378",
"%@	c #677068",
"&@	c #264661",
"*@	c #4D5856",
"=@	c #525B5B",
"-@	c #243F56",
";@	c #213D52",
">@	c #203B4D",
",@	c #172835",
"'@	c #030405",
")@	c #18304C",
"!@	c #264B76",
"~@	c #28517C",
"{@	c #2A517A",
"]@	c #2B5277",
"^@	c #576F7E",
"/@	c #DAC68D",
"(@	c #CBAF83",
"_@	c #76726B",
":@	c #314B63",
"<@	c #214164",
"[@	c #354959",
"}@	c #274156",
"|@	c #213D57",
"1@	c #203D54",
"2@	c #203D4F",
"3@	c #1E3648",
"4@	c #05090C",
"5@	c #1A2F48",
"6@	c #254366",
"7@	c #264667",
"8@	c #244871",
"9@	c #20497E",
"0@	c #254B79",
"a@	c #28476C",
"b@	c #203F66",
"c@	c #1F3F68",
"d@	c #1F3F60",
"e@	c #203F58",
"f@	c #213F57",
"g@	c #203E57",
"h@	c #203E58",
"i@	c #203D55",
"j@	c #1E3749",
"k@	c #0D171D",
"l@	c #1B2C44",
"m@	c #223C5C",
"n@	c #21406B",
"o@	c #1E4170",
"p@	c #1E416E",
"q@	c #1E406B",
"r@	c #1F3F62",
"s@	c #1F3F5F",
"t@	c #213F59",
"u@	c #213F58",
"v@	c #1F3F5A",
"w@	c #203F59",
"x@	c #203F57",
"y@	c #1C3A52",
"z@	c #0C171F",
"A@	c #010203",
"B@	c #0C1825",
"C@	c #1C3554",
"D@	c #1F3C60",
"E@	c #203D61",
"F@	c #1E3D61",
"G@	c #1F3D5D",
"H@	c #203D57",
"I@	c #203E56",
"J@	c #1F3E5A",
"K@	c #1F3F5E",
"L@	c #1E3B52",
"M@	c #142A3B",
"N@	c #050A0E",
"O@	c #060B11",
"P@	c #0F1C2A",
"Q@	c #1A2E47",
"R@	c #1B3654",
"S@	c #1D3B5E",
"T@	c #1E3D5F",
"U@	c #1D3952",
"V@	c #1A3246",
"W@	c #112332",
"X@	c #0A141C",
"Y@	c #020305",
"                                                                ",
"                                                                ",
"                                                                ",
"                                                                ",
"                                                                ",
"                      . + @ # $ % & * =                         ",
"                  - ; > , ' ) ! ~ { ] ^ / (                     ",
"                _ : < [ } | 1 2 3 4 5 6 7 8 9                   ",
"              0 a b c d e f g h i j k l m n o p                 ",
"            q r s t t u v w x y z A B C D E F G H               ",
"            I J K L M w e N O M P Q R S T U V W X Y             ",
"          Z `  ...+.@.#.$.%.#.&.#.*.=.-.;.>.,.'.).!.            ",
"          ~.{.].^./.(._.:.<.[.}.|.1.2.3.4.5.6.7.8.9.0.          ",
"          a.b.c.d.e.f.g.h.i.j.k.l.m.n.o.p.q.r.s.t.u.0.          ",
"          v.w.x.y.z.A.B.C.D.E.F.G.H.I.J.K.L.M.N.O.P.0.          ",
"          Q.R.S.T.U.V.W.X.Y.Z.`. +.+++@+#+$+%+&+*+=+0.0.        ",
"          -+;+>+,+'+)+!+~+{+]+^+/+(+_+:+<+[+&+}+|+1+0.0.        ",
"          2+3+4+5+6+7+8+9+0+a+b+c+d+e+f+g+h+N.i+h+j+0.0.        ",
"          k+l+m+n+o+p+q+r+s+t+u+v+w+x+y+z+A+B+C+D+E+0.0.        ",
"          F+G+H+I+J+K+L+M+N+O+P+Q+R+S+T+U+U+A+V+W+X+0.0.        ",
"            Y+Z+`+ @.@+@@@#@$@%@&@*@=@-@;@>@A+A+,@'@0.          ",
"            )@!@~@{@]@^@/@(@_@:@<@[@}@|@1@2@A+3@4@0.0.          ",
"              5@6@7@8@9@0@a@b@c@d@e@f@g@h@i@j@k@0.0.            ",
"                l@m@n@o@p@q@r@s@t@u@v@w@x@y@z@A@0.0.            ",
"                  B@C@D@E@F@G@H@I@J@K@L@M@N@0.0.0.              ",
"                    O@P@Q@R@S@T@U@V@W@X@Y@0.0.0.                ",
"                        0.0.0.0.0.0.0.0.0.0.0.                  ",
"                          0.0.0.0.0.0.0.0.                      ",
"                                                                ",
"                                                                ",
"                                                                ",
"                                                                "};
