/* XPM */
static char * local_search_xpm[] = {
"32 32 388 2",
"  	c None",
". 	c #584434",
"+ 	c #472A27",
"@ 	c #2B0C09",
"# 	c #220906",
"$ 	c #9E907F",
"% 	c #7A6858",
"& 	c #7B6A5E",
"* 	c #483B31",
"= 	c #150504",
"- 	c #72342D",
"; 	c #531711",
"> 	c #3B0F0B",
", 	c #695E52",
"' 	c #7E6F60",
") 	c #3A2D22",
"! 	c #5D5148",
"~ 	c #998E86",
"{ 	c #2A211A",
"] 	c #2E1310",
"^ 	c #844139",
"/ 	c #5D1C17",
"( 	c #875E51",
"_ 	c #988778",
": 	c #342A20",
"< 	c #33302D",
"[ 	c #807F7B",
"} 	c #70655D",
"| 	c #92887F",
"1 	c #322B26",
"2 	c #7F382E",
"3 	c #725042",
"4 	c #A5988A",
"5 	c #52473D",
"6 	c #3F3C39",
"7 	c #60605E",
"8 	c #8F908F",
"9 	c #888683",
"0 	c #837A72",
"a 	c #8B8077",
"b 	c #221A14",
"c 	c #181310",
"d 	c #9E7867",
"e 	c #968A7D",
"f 	c #38312A",
"g 	c #383533",
"h 	c #787977",
"i 	c #676766",
"j 	c #ACADAC",
"k 	c #AEAEAE",
"l 	c #989795",
"m 	c #665E58",
"n 	c #78695D",
"o 	c #433831",
"p 	c #1B1511",
"q 	c #8C7E6E",
"r 	c #9A8F83",
"s 	c #3A332D",
"t 	c #282725",
"u 	c #8D8D8C",
"v 	c #787978",
"w 	c #727271",
"x 	c #BDBDBD",
"y 	c #BBBBBB",
"z 	c #858583",
"A 	c #6A635D",
"B 	c #6F6155",
"C 	c #372C25",
"D 	c #16100C",
"E 	c #B5A896",
"F 	c #A0988E",
"G 	c #28231E",
"H 	c #302E2B",
"I 	c #929291",
"J 	c #919190",
"K 	c #9F9F9F",
"L 	c #9D9D9D",
"M 	c #CFCFCF",
"N 	c #D0D0D0",
"O 	c #B8B8B8",
"P 	c #939393",
"Q 	c #9B9B99",
"R 	c #5C5752",
"S 	c #59483C",
"T 	c #423429",
"U 	c #1B130F",
"V 	c #CABFAE",
"W 	c #7A7166",
"X 	c #27221D",
"Y 	c #5B5855",
"Z 	c #6F6F6D",
"` 	c #939392",
" .	c #A1A2A0",
"..	c #ACACAC",
"+.	c #D3D3D3",
"@.	c #B7B7B7",
"#.	c #A7A7A7",
"$.	c #BCBCBB",
"%.	c #939391",
"&.	c #514A45",
"*.	c #524236",
"=.	c #463629",
"-.	c #150E0B",
";.	c #D3C9B7",
">.	c #D4CCBE",
",.	c #675E56",
"'.	c #211D19",
").	c #7D7A77",
"!.	c #868786",
"~.	c #838382",
"{.	c #ADADAC",
"].	c #CCCCCC",
"^.	c #C6C6C6",
"/.	c #CDCDCD",
"(.	c #BFBFBF",
"_.	c #C5C5C5",
":.	c #898988",
"<.	c #65625E",
"[.	c #483A30",
"}.	c #574435",
"|.	c #221913",
"1.	c #181411",
"2.	c #E0D5C0",
"3.	c #EAE4D7",
"4.	c #534B43",
"5.	c #251F19",
"6.	c #65625F",
"7.	c #A3A2A1",
"8.	c #858584",
"9.	c #909090",
"0.	c #D9D9D9",
"a.	c #C8C8C8",
"b.	c #CECECE",
"c.	c #D1D1D1",
"d.	c #BEBEBE",
"e.	c #D2D2D2",
"f.	c #B6B6B6",
"g.	c #B0B1B0",
"h.	c #443E39",
"i.	c #3C3026",
"j.	c #574335",
"k.	c #271E16",
"l.	c #141110",
"m.	c #A3988B",
"n.	c #483D35",
"o.	c #4B4541",
"p.	c #3F3D3A",
"q.	c #A9A9A7",
"r.	c #AAAAA9",
"s.	c #C0C0C0",
"t.	c #D4D4D4",
"u.	c #C9C9C9",
"v.	c #C1C1C1",
"w.	c #C2C2C2",
"x.	c #BABABA",
"y.	c #B2B2B2",
"z.	c #BCBCBC",
"A.	c #545454",
"B.	c #3D2F25",
"C.	c #3D2D20",
"D.	c #16110D",
"E.	c #544B44",
"F.	c #88817B",
"G.	c #3B3A39",
"H.	c #1B1B1A",
"I.	c #737473",
"J.	c #DEDEDE",
"K.	c #E1E1E1",
"L.	c #E0E0E0",
"M.	c #DFDFDF",
"N.	c #DDDDDD",
"O.	c #DBDBDB",
"P.	c #D6D6D6",
"Q.	c #D7D7D7",
"R.	c #393939",
"S.	c #1B1B1B",
"T.	c #221E1C",
"U.	c #201A16",
"V.	c #0C0907",
"W.	c #000000",
"X.	c #1A1A1A",
"Y.	c #828282",
"Z.	c #D8D8D8",
"`.	c #CACACA",
" +	c #C3C3C3",
".+	c #888888",
"++	c #2A2A2A",
"@+	c #0C0C0C",
"#+	c #2B2B2B",
"$+	c #7A7A7A",
"%+	c #4C4E4E",
"&+	c #41403F",
"*+	c #464848",
"=+	c #5F5F5F",
"-+	c #737373",
";+	c #262626",
">+	c #101010",
",+	c #3A3A3A",
"'+	c #A1A2A1",
")+	c #9A9A9A",
"!+	c #979797",
"~+	c #999999",
"{+	c #969696",
"]+	c #C7C7C7",
"^+	c #4F504F",
"/+	c #33403E",
"(+	c #393E3D",
"_+	c #5E615F",
":+	c #383936",
"<+	c #6B6B6B",
"[+	c #272727",
"}+	c #121212",
"|+	c #464646",
"1+	c #636363",
"2+	c #1B1C1B",
"3+	c #24211E",
"4+	c #050605",
"5+	c #090C0A",
"6+	c #303531",
"7+	c #9C9C9C",
"8+	c #4E4E4D",
"9+	c #373C3B",
"0+	c #6D6D6C",
"a+	c #9D9D9B",
"b+	c #474746",
"c+	c #898989",
"d+	c #6A6A6A",
"e+	c #2E2E2E",
"f+	c #171717",
"g+	c #5C5C5C",
"h+	c #535353",
"i+	c #B9B9B9",
"j+	c #3F2D2C",
"k+	c #925D58",
"l+	c #A07976",
"m+	c #342D2B",
"n+	c #262927",
"o+	c #8D8E8D",
"p+	c #B0B0B0",
"q+	c #3F4040",
"r+	c #3B4140",
"s+	c #878887",
"t+	c #CBCBCB",
"u+	c #515252",
"v+	c #717171",
"w+	c #585858",
"x+	c #212121",
"y+	c #505050",
"z+	c #251513",
"A+	c #652D28",
"B+	c #BA645D",
"C+	c #684846",
"D+	c #0E0E0E",
"E+	c #8C8C8C",
"F+	c #464645",
"G+	c #464B49",
"H+	c #A9A9A9",
"I+	c #DCDDDD",
"J+	c #555656",
"K+	c #666666",
"L+	c #494949",
"M+	c #191919",
"N+	c #4B4B4B",
"O+	c #B4B4B4",
"P+	c #341B18",
"Q+	c #914038",
"R+	c #9B423B",
"S+	c #4D2522",
"T+	c #0A0B0A",
"U+	c #8A8B8A",
"V+	c #4D4D4C",
"W+	c #515652",
"X+	c #9A9A99",
"Y+	c #A4A5A3",
"Z+	c #454544",
"`+	c #484848",
" @	c #151515",
".@	c #3E3E3E",
"+@	c #A6A6A6",
"@@	c #35211F",
"#@	c #9A453E",
"$@	c #9D473F",
"%@	c #522D29",
"&@	c #080908",
"*@	c #B3B3B3",
"=@	c #948F8A",
"-@	c #807E7A",
";@	c #535352",
">@	c #4E4E4E",
",@	c #181818",
"'@	c #161616",
")@	c #231A19",
"!@	c #713631",
"~@	c #964B45",
"{@	c #4C2E2B",
"]@	c #898A89",
"^@	c #5D5D5D",
"/@	c #3C3C3C",
"(@	c #1E1E1E",
"_@	c #646464",
":@	c #8A8A8A",
"<@	c #322625",
"[@	c #6F3C38",
"}@	c #894D48",
"|@	c #4A302D",
"1@	c #070807",
"2@	c #818181",
"3@	c #AFAFAF",
"4@	c #ABABAB",
"5@	c #A2A2A2",
"6@	c #888887",
"7@	c #6E6E6E",
"8@	c #363834",
"9@	c #2A3223",
"0@	c #12170E",
"a@	c #757C6F",
"b@	c #717C67",
"c@	c #30322A",
"d@	c #4B3632",
"e@	c #694B49",
"f@	c #493634",
"g@	c #12100E",
"h@	c #5D625A",
"i@	c #6B7763",
"j@	c #57694B",
"k@	c #5C6E50",
"l@	c #617256",
"m@	c #506343",
"n@	c #405237",
"o@	c #34452F",
"p@	c #303E2C",
"q@	c #2E3E2C",
"r@	c #2C3D2B",
"s@	c #3A522B",
"t@	c #3F5A2B",
"u@	c #3B592C",
"v@	c #56724A",
"w@	c #466236",
"x@	c #3B542D",
"y@	c #373F26",
"z@	c #332321",
"A@	c #251B19",
"B@	c #0D0B09",
"C@	c #0C130D",
"D@	c #141A13",
"E@	c #1D291B",
"F@	c #2E3F27",
"G@	c #374F2F",
"H@	c #3C5930",
"I@	c #3C572E",
"J@	c #2F442E",
"K@	c #2A372C",
"L@	c #2B3B2C",
"M@	c #2C3B2B",
"N@	c #31422A",
"O@	c #32442C",
"P@	c #456A35",
"Q@	c #446733",
"R@	c #406130",
"S@	c #3F602F",
"T@	c #3D5C2C",
"U@	c #38552B",
"V@	c #364A26",
"W@	c #3A3A24",
"X@	c #2B331B",
"Y@	c #28371B",
"Z@	c #2D4320",
"`@	c #2F4620",
" #	c #385326",
".#	c #3F5C2B",
"+#	c #3B5729",
"@#	c #385027",
"##	c #2D3F26",
"$#	c #2C3D25",
"%#	c #2B3C22",
"&#	c #1E2B18",
"*#	c #324821",
"=#	c #344B23",
"-#	c #2D401E",
";#	c #2B3E1E",
">#	c #375229",
",#	c #334D26",
"'#	c #365025",
")#	c #385226",
"!#	c #354D24",
"~#	c #2A3C1C",
"{#	c #293A1C",
"]#	c #27361B",
"                                                                ",
"                                                                ",
"                                                                ",
"                                .                               ",
"                    + @ #   $ % & *                             ",
"                  = - ; > , ' ) ! ~ {                           ",
"                  ] ^ / ( _ : < [ } | 1                         ",
"                    2 3 4 5 6 7 8 9 0 a b c                     ",
"                    d e f g h i j k l m n o p                   ",
"                  q r s t u v w x y j z A B C D                 ",
"                E F G H I J K L M N O P Q R S T U               ",
"              V W X Y Z `  ...O M +.@.#.$.%.&.*.=.-.            ",
"          ;.>.,.'.).!.~.{.].O ^./.+.O (./._.:.<.[.}.|.1.        ",
"        2.3.4.5.6.7.8.9.+.0._.a.b.c.d.x e.c.f.g.h.i.j.k.l.      ",
"        m.n.o.p.i q.r.s.+.t.u.v.^.w.x.y.z.x @.u.A.< B.C.D.      ",
"        E.F.G.H.I.t.J.K.K.L.M.N.O.P.Q.M e.+./.x R.S.T.U.V.      ",
"            W.X.Y.N.N.Z.P.Z.e.e.c./.`._. +s.v..+++@+W.W.        ",
"              #+$+t.0.+.N `.^.`.`..+%+&+*+=+O -+;+>+            ",
"              ,+-+/.'+)+!+~+{+@.]+^+/+(+_+:+{+<+[+}+            ",
"              |+1+(.2+3+4+5+6+7+^.8+9+0+a+b+c+d+e+f+            ",
"              g+h+i+j+k+l+m+n+o+p+q+r+s+t+u+v+w+[+x+            ",
"                y+@.z+A+B+C+D+E+x.F+G+H+I+J+K+L+S.M+            ",
"                N+O+P+Q+R+S+T+U+f.V+W+X+Y+Z+=+`+f+ @            ",
"                .@+@@@#@$@%@&@!.*@=@-@i ;@L+>@|+,@'@            ",
"                A.9.)@!@~@{@&@]@d.i+f.y.#.!+^@/@(@ @            ",
"                _@:@<@[@}@|@1@2@O+3@4@5@I 6@7@8@9@0@            ",
"                a@b@c@d@e@f@g@h@i@j@k@l@m@n@o@p@q@r@s@t@        ",
"              u@v@w@x@y@z@A@B@C@D@E@F@G@H@I@J@K@L@M@N@O@        ",
"          P@Q@R@S@T@U@V@W@X@Y@Z@`@ #.#+#@###$#%#&#              ",
"                  *#=#-#  ;#>#,#'#)#!#~#{#]#                    ",
"                                                                ",
"                                                                "};
