/* XPM */
static char * recycle2_xpm[] = {
/* width height ncolors cpp [x_hot y_hot] */
"32 32 4 1 26 23",
/* colors */
" 	s none	m none	c none",
".	s iconColor1	m black	c black",
"X	c #7F7FFFFF0000",
"o	c #45458B8B0000",
/* pixels */
"                                ",
"           ............         ",
"         .XXXXXXXX.oooXX.       ",
"         XXXXXXXX.ooXXXXX.      ",
"        .XXXXXXXX.ooXXXXXX  ..  ",
"        .XXXXXXX..XXXXXXXX .o.  ",
"       .XXXXXXXX  .XXXXXXXXX.   ",
"       XXXXXXXX.   XXXXXXXX.    ",
"      .XXXXXXXX.   XXXXXXXX     ",
"        .XXXXX.    .XXXXXX.     ",
"         ..XXX   ..XXXXXXX      ",
" .........  ..            .XX   ",
"  .XXXXXXX.             .XXXX.  ",
"   .XXXXXX.           ..XXXXXX. ",
"   .XXXXXXX.          XXXXXXXXX ",
"   .XXXXXXX.          .XXXXXXXX ",
"  .XXXXXXXXX.          .XXXXXXX.",
"  .XXXXXXX..X.          XXXXXXX.",
"  .XXXXXXX. ..      .   XXXXXXX.",
"   .XXXXX.         .X   .XXXXXX ",
"    XXXXX          .X    .XXXX. ",
"    .XXX........   XX.........  ",
"     .X.ooXXXXXX  .XXXXXXXXXo   ",
"     .X.oXoXXXXX .XXXXXXXXXXo   ",
"      XooXXXXXXX XXXXXXXXXXo.   ",
"      .ooXXXXXXX XXXXXXXXXX.    ",
"       ooXXXXXXX .XXXXXXXXo     ",
"        .XXXXXXX  .XXXXXo.      ",
"         .......   XX....       ",
"                   .X           ",
"                   .X           ",
"                    .           "};
