/* XPM */
static char * save_all_xpm[] = {
"32 32 5 1",
" 	c None",
".	c #000000",
"+	c #999999",
"@	c #E5E5E5",
"#	c #666666",
"                                ",
"            ..................  ",
"            .++.@@@@@@@@@@.++.  ",
"            .++.@@@@@@@@@@.++.  ",
"            .++.@@@@@@@@@@.++.  ",
"            .++.@@@@@@@@@@.++.  ",
"       ..................@.++.  ",
"       .++.@@@@@@@@@@.++.@.++.  ",
"       .++.@@@@@@@@@@.++.@.++.  ",
"       .++.@@@@@@@@@@.++.@.++.  ",
"       .++.@@@@@@@@@@.++...++.  ",
"  ..................@.++.++++.  ",
"  .++.@@@@@@@@@@.++.@.++.++++.  ",
"  .++.@@@@@@@@@@.++.@.++...++.  ",
"  .++.@@@@@@@@@@.++.@.++.@.++.  ",
"  .++.@@@@@@@@@@.++...++.@.++.  ",
"  .++.@@@@@@@@@@.++.++++.@.++.  ",
"  .++.@@@@@@@@@@.++.++++.@.++.  ",
"  .++.@@@@@@@@@@.++...++......  ",
"  .++.@@@@@@@@@@.++.@.++.       ",
"  .++............++.@.++.       ",
"  .++++++++++++++++.@.++.       ",
"  .++++++++++++++++.@.++.       ",
"  .++............++......       ",
"  .++.#######.@@.++.            ",
"  .++.#######.@@.++.            ",
"  .++.#######.@@.++.            ",
"   .+.#######.@@.++.            ",
"    ................            ",
"                                ",
"                                ",
"                                "};
