/* XPM */
static char *magick[] = {
/* columns rows colors chars-per-pixel */
"32 32 13 1",
"  c black",
". c gray15",
"X c #3232323232320000",
"o c gray29",
"O c #5656565656560000",
"+ c gray43",
"@ c gray48",
"# c #8686868686860000",
"$ c #aaaaaaaaaaaa0000",
"% c #b6b6b6b6b6b60000",
"& c #dadadadadada0000",
"* c white",
"= c None",
/* pixels */
"=========  =====================",
"=======  #&o ===================",
"=====oooo.o#*  o================",
"=== o#&o#...@& # o#=============",
"=oo%&&*o.o%o#@ $##o ============",
"o$%&****&%%o@ .@$##Oo===========",
"o%&********o o@@#$#@ ===========",
"o@&******&&##@@@#$#O ===========",
"o@#&*****&&&%%$$##oo ===========",
"o#&%%%&**&&%%%#OOOOo ===========",
"o#&&&&%%%$##@@++++Oo ===========",
"=.o&&**&&%$$##@+++. @===========",
"=o@O+%&&&%$$##@OXXo ============",
"=o$%%##+ooooXXXOOOo ============",
"=o$$$*&&&%%$##@@@@o ============",
"=o$@$&**@&&%$O$$$Xo ============",
"=o$@$&*@$$&%O@@$@.O ============",
"=o$@$&*@$$&%O@@$@.O OOO=========",
"=o$@$&*@$$&%O@@$@.O ooOOO=======",
"=o$@$&*@$$&%O@@$@.O ..ooOO======",
"=o$@$&*@$$&%O@@$@.O ....oOO=====",
"=o$@$&*@$$&%O@@$@.O .....oOO====",
"=o$@$&*@$$&%O@@$@.O .....ooO====",
"=o$@$&*@$$&%O@@$@.O ......oo====",
"=o$@$&*@$$&%O@@$@.O ......oo====",
"=o$@$&*@$$&%O@@$@.O ......oo====",
"=o$$$&*@$$&%O@@$@OO .....oo=====",
"=o$$&&*@$$&%O@@$@@O ....o=======",
"=.@&&***@&&%%O$$@Oo ...=========",
"==. $**&&&&$$$##@  ..===========",
"====. @$$%%$$@ . ..=============",
"======..     ....==============="
};
