/* XPM */
static char * verify_chunks_xpm[] = {
"41 40 685 2",
"  	c None",
". 	c #000000",
"+ 	c #121212",
"@ 	c #050505",
"# 	c #090909",
"$ 	c #040404",
"% 	c #010101",
"& 	c #030303",
"* 	c #020202",
"= 	c #060606",
"- 	c #070707",
"; 	c #0E0E0E",
"> 	c #F4F4F4",
", 	c #FFFFFF",
"' 	c #F5F5F5",
") 	c #F3F3F3",
"! 	c #FEFEFE",
"~ 	c #FAFAFA",
"{ 	c #F7F7F7",
"] 	c #FBFBFB",
"^ 	c #F1F1F1",
"/ 	c #F2F2F2",
"( 	c #F0F0F0",
"_ 	c #FDFDFD",
": 	c #F8F8F8",
"< 	c #F9F9F9",
"[ 	c #D5D5D5",
"} 	c #A9A9A9",
"| 	c #EDEDED",
"1 	c #C2C2C2",
"2 	c #CBCBCB",
"3 	c #B7B7B7",
"4 	c #BCBCBC",
"5 	c #C9C9C9",
"6 	c #C1C1C1",
"7 	c #C5C5C5",
"8 	c #BFBFBF",
"9 	c #C4C4C4",
"0 	c #BEBEBE",
"a 	c #C8C8C8",
"b 	c #BBBBBB",
"c 	c #C3C3C3",
"d 	c #CACACA",
"e 	c #C6C6C6",
"f 	c #C0C0C0",
"g 	c #8E8E8E",
"h 	c #6B6B6B",
"i 	c #AFAFAF",
"j 	c #BABABA",
"k 	c #B8B8B8",
"l 	c #B9B9B9",
"m 	c #BDBDBD",
"n 	c #878787",
"o 	c #808080",
"p 	c #EBEBEB",
"q 	c #DADADA",
"r 	c #B1B1B1",
"s 	c #CECECE",
"t 	c #D0D0D0",
"u 	c #CDCDCD",
"v 	c #C7C7C7",
"w 	c #727272",
"x 	c #7F7F7F",
"y 	c #B2B2B2",
"z 	c #919191",
"A 	c #787878",
"B 	c #747474",
"C 	c #797979",
"D 	c #7C7C7C",
"E 	c #7E7E7E",
"F 	c #ACACAC",
"G 	c #8C8C8C",
"H 	c #848484",
"I 	c #737373",
"J 	c #171717",
"K 	c #7A7A7A",
"L 	c #888888",
"M 	c #767676",
"N 	c #B4B4B4",
"O 	c #E6B2BF",
"P 	c #618989",
"Q 	c #000712",
"R 	c #1C0005",
"S 	c #180001",
"T 	c #937261",
"U 	c #718C85",
"V 	c #76898D",
"W 	c #788281",
"X 	c #0A050B",
"Y 	c #030102",
"Z 	c #160000",
"` 	c #000105",
" .	c #9F767C",
"..	c #A3BDBE",
"+.	c #BDC9C5",
"@.	c #818181",
"#.	c #6B7E8C",
"$.	c #001000",
"%.	c #170F00",
"&.	c #64786C",
"*.	c #886B81",
"=.	c #09FFEF",
"-.	c #EEEDFB",
";.	c #FFE6FA",
">.	c #04FFD4",
",.	c #EAF3FF",
"'.	c #487F86",
").	c #160018",
"!.	c #0A1C0E",
"~.	c #000013",
"{.	c #B48983",
"].	c #A8BDB8",
"^.	c #828282",
"/.	c #B0B0B0",
"(.	c #A1737D",
"_.	c #000300",
":.	c #768171",
"<.	c #94848F",
"[.	c #DCFFFF",
"}.	c #15FEDE",
"|.	c #F8F9FF",
"1.	c #08FFD5",
"2.	c #F5FCFF",
"3.	c #07F3E5",
"4.	c #F0FFFF",
"5.	c #00E9B6",
"6.	c #458489",
"7.	c #0F0000",
"8.	c #7D8791",
"9.	c #828771",
"0.	c #7B7B7B",
"a.	c #000820",
"b.	c #001A0C",
"c.	c #936653",
"d.	c #EFFFF8",
"e.	c #00FFFF",
"f.	c #F7EDFF",
"g.	c #00E4E5",
"h.	c #E0FFFF",
"i.	c #1DEDE0",
"j.	c #FFF3FF",
"k.	c #00FDEE",
"l.	c #E4FFFF",
"m.	c #9386A2",
"n.	c #17031C",
"o.	c #001100",
"p.	c #807F7D",
"q.	c #B3B3B3",
"r.	c #070000",
"s.	c #847C89",
"t.	c #04FFF0",
"u.	c #00FCF5",
"v.	c #FFE9F3",
"w.	c #1AFFFF",
"x.	c #FFFAF6",
"y.	c #00F7F6",
"z.	c #F9FFFF",
"A.	c #EAEAFF",
"B.	c #FFF7E4",
"C.	c #00FFEB",
"D.	c #FFEBFA",
"E.	c #736076",
"F.	c #081116",
"G.	c #8D7D7E",
"H.	c #858585",
"I.	c #838383",
"J.	c #000009",
"K.	c #697698",
"L.	c #F7FEFF",
"M.	c #FFF8FF",
"N.	c #04E6FF",
"O.	c #FCF7E1",
"P.	c #00FCFF",
"Q.	c #0EFCCA",
"R.	c #E0FFE8",
"S.	c #00F3EA",
"T.	c #FBFBDF",
"U.	c #11FFF6",
"V.	c #8D7D80",
"W.	c #00030B",
"X.	c #84777E",
"Y.	c #868686",
"Z.	c #050E09",
"`.	c #956F7C",
" +	c #00FFD5",
".+	c #03FFF9",
"++	c #F2FFFD",
"@+	c #06F8FF",
"#+	c #EAFFF3",
"$+	c #1ADBDA",
"%+	c #DBFFFF",
"&+	c #00F8E8",
"*+	c #FFFFFB",
"=+	c #05FBF6",
"-+	c #FFEDF8",
";+	c #867CA1",
">+	c #000C00",
",+	c #917C81",
"'+	c #7D7D7D",
")+	c #000108",
"!+	c #7E807B",
"~+	c #B2C3B1",
"{+	c #FFEFFF",
"]+	c #06FFFF",
"^+	c #00F6E4",
"/+	c #00FBF4",
"(+	c #FCFFFF",
"_+	c #12FFF6",
":+	c #EFE6FF",
"<+	c #0DFFFE",
"[+	c #FFF5FF",
"}+	c #00FAD3",
"|+	c #80808A",
"1+	c #001206",
"2+	c #8D7A73",
"3+	c #B5B5B5",
"4+	c #8A8A8A",
"5+	c #000B00",
"6+	c #000505",
"7+	c #C1CCD0",
"8+	c #04FFEA",
"9+	c #DFFFFF",
"0+	c #00F2F4",
"a+	c #FFEEFF",
"b+	c #00FCE0",
"c+	c #E2FCFF",
"d+	c #13FFE1",
"e+	c #FFE4FF",
"f+	c #03FFD9",
"g+	c #83799C",
"h+	c #000F04",
"i+	c #000A0D",
"j+	c #978078",
"k+	c #947970",
"l+	c #B0BDC6",
"m+	c #CBB7C0",
"n+	c #6D8746",
"o+	c #FF000E",
"p+	c #C8D3B5",
"q+	c #697B7F",
"r+	c #7E747F",
"s+	c #D8D8D8",
"t+	c #AEAEAE",
"u+	c #060000",
"v+	c #1B0007",
"w+	c #926795",
"x+	c #FFF8F0",
"y+	c #1EFFFF",
"z+	c #FAFFDA",
"A+	c #00F7FF",
"B+	c #FFF1FF",
"C+	c #FFFDFF",
"D+	c #0BFFEA",
"E+	c #DCE8F4",
"F+	c #A399A4",
"G+	c #0A001B",
"H+	c #6F7C62",
"I+	c #8C868A",
"J+	c #6F8A79",
"K+	c #B1CEC9",
"L+	c #F2BCBA",
"M+	c #F11018",
"N+	c #E90611",
"O+	c #796B5E",
"P+	c #A47690",
"Q+	c #7D9690",
"R+	c #000400",
"S+	c #7E786A",
"T+	c #001013",
"U+	c #00FBD7",
"V+	c #FFE9DA",
"W+	c #10FFFF",
"X+	c #FFF3E0",
"Y+	c #00FEE0",
"Z+	c #D9EFFD",
"`+	c #00FFD6",
" @	c #F0FFFB",
".@	c #876D88",
"+@	c #00020B",
"@@	c #260000",
"#@	c #7D98A3",
"$@	c #787870",
"%@	c #CDB5C2",
"&@	c #C6BCB3",
"*@	c #F60016",
"=@	c #F60000",
"-@	c #FF001B",
";@	c #C3C8C1",
">@	c #7E7C87",
",@	c #6D7A70",
"'@	c #D3D3D3",
")@	c #C9C4B1",
"!@	c #000412",
"~@	c #7A9E9E",
"{@	c #6D8AAC",
"]@	c #E3F6DA",
"^@	c #06FFEE",
"/@	c #FFF6FF",
"(@	c #10FFDF",
"_@	c #A67690",
":@	c #718A91",
"<@	c #020300",
"[@	c #94838B",
"}@	c #797A72",
"|@	c #7A8187",
"1@	c #A2CAC2",
"2@	c #7F9169",
"3@	c #FF0008",
"4@	c #EB0200",
"5@	c #847C57",
"6@	c #CEC4CC",
"7@	c #607A79",
"8@	c #988984",
"9@	c #ADADAD",
"0@	c #CFCFCF",
"a@	c #D6D6D6",
"b@	c #0C0203",
"c@	c #150000",
"d@	c #0F0C1F",
"e@	c #1F0000",
"f@	c #000007",
"g@	c #976E90",
"h@	c #55907C",
"i@	c #96748F",
"j@	c #857C97",
"k@	c #200004",
"l@	c #000D09",
"m@	c #220000",
"n@	c #90756E",
"o@	c #488E76",
"p@	c #887571",
"q@	c #DECCDC",
"r@	c #DFACB5",
"s@	c #F80A24",
"t@	c #FA0100",
"u@	c #EE0613",
"v@	c #93E5B4",
"w@	c #CABAC5",
"x@	c #6C817C",
"y@	c #7C7771",
"z@	c #D4D4D4",
"A@	c #D2D2D2",
"B@	c #040700",
"C@	c #6C7A7A",
"D@	c #51826F",
"E@	c #31000B",
"F@	c #0E1618",
"G@	c #001702",
"H@	c #300115",
"I@	c #180003",
"J@	c #0B0017",
"K@	c #7B8E72",
"L@	c #92818B",
"M@	c #5A8A7C",
"N@	c #E5D3BF",
"O@	c #C2A9C6",
"P@	c #A1BEAC",
"Q@	c #A06D58",
"R@	c #F11419",
"S@	c #E60000",
"T@	c #A19676",
"U@	c #D7B3BD",
"V@	c #ACB5B0",
"W@	c #867E7B",
"X@	c #8E7D83",
"Y@	c #120000",
"Z@	c #7B8B98",
"`@	c #729A77",
" #	c #8B869A",
".#	c #9D7776",
"+#	c #637A74",
"@#	c #A68B94",
"##	c #6D6B6C",
"$#	c #539E89",
"%#	c #71886B",
"&#	c #6B8B98",
"*#	c #7C7271",
"=#	c #B5C5BB",
"-#	c #C3C1D9",
";#	c #D8C3B2",
">#	c #A8C7C1",
",#	c #FF0314",
"'#	c #E80E05",
")#	c #EF071F",
"!#	c #D0A6B4",
"~#	c #CDB7CC",
"{#	c #C2B1AA",
"]#	c #A68482",
"^#	c #71898D",
"/#	c #0A0A0A",
"(#	c #85888F",
"_#	c #876E71",
":#	c #797985",
"<#	c #BEC6B7",
"[#	c #C4C8CB",
"}#	c #98C2AE",
"|#	c #CFBCC0",
"1#	c #C2C7C3",
"2#	c #B6BAA9",
"3#	c #EBADC6",
"4#	c #CAC5C2",
"5#	c #AEC5CD",
"6#	c #B2C2CF",
"7#	c #DFA9B9",
"8#	c #CCBAC6",
"9#	c #BCC9B7",
"0#	c #F90000",
"a#	c #FD0601",
"b#	c #8D7656",
"c#	c #CCCEE3",
"d#	c #A9ABC2",
"e#	c #BADBBE",
"f#	c #8C796B",
"g#	c #71838F",
"h#	c #6D8175",
"i#	c #86918B",
"j#	c #ABABAD",
"k#	c #C3C0C7",
"l#	c #C3C6CB",
"m#	c #B4C2C2",
"n#	c #AEC1BD",
"o#	c #B1C6BF",
"p#	c #CFBBF6",
"q#	c #A6B7AF",
"r#	c #B6DACC",
"s#	c #E0ADBC",
"t#	c #BCCDAB",
"u#	c #B3B6BB",
"v#	c #D3B8DB",
"w#	c #8D7C60",
"x#	c #ED0900",
"y#	c #E8021F",
"z#	c #B6C6BC",
"A#	c #ABD4D0",
"B#	c #D5ADB5",
"C#	c #BACDB7",
"D#	c #83827E",
"E#	c #7B818D",
"F#	c #ECECEC",
"G#	c #8F8F8F",
"H#	c #8E8D89",
"I#	c #BDADB0",
"J#	c #DCC7D0",
"K#	c #C8C7CC",
"L#	c #A5C0BB",
"M#	c #A4BFB6",
"N#	c #C4C0BF",
"O#	c #E0BBC2",
"P#	c #BEBCD1",
"Q#	c #C7C2AE",
"R#	c #BFC1B6",
"S#	c #9BCFC3",
"T#	c #C4A5A2",
"U#	c #D6DADB",
"V#	c #BBB9BE",
"W#	c #DD0A1B",
"X#	c #FA0005",
"Y#	c #99775C",
"Z#	c #D7B7CE",
"`#	c #C7BFBD",
" $	c #B8C5B3",
".$	c #6B907F",
"+$	c #90748A",
"@$	c #B6B6B6",
"#$	c #B7B1B1",
"$$	c #C7C9C8",
"%$	c #C8CAC9",
"&$	c #BEB1B8",
"*$	c #CFAEB7",
"=$	c #E9C1C9",
"-$	c #E2C6C5",
";$	c #C3B6AD",
">$	c #B9C2A5",
",$	c #C2D69B",
"'$	c #D6ABA4",
")$	c #C3BACD",
"!$	c #C9D8DB",
"~$	c #BE929F",
"{$	c #689165",
"]$	c #F80F0A",
"^$	c #F50B24",
"/$	c #90D4A5",
"($	c #B9BCC1",
"_$	c #E1AFCC",
":$	c #C6C8C7",
"<$	c #B9BFB3",
"[$	c #67927F",
"}$	c #967085",
"|$	c #111111",
"1$	c #9DC8B7",
"2$	c #B4C9C2",
"3$	c #B9C4C0",
"4$	c #ADC4BC",
"5$	c #B2D2C3",
"6$	c #CDC6BE",
"7$	c #D57988",
"8$	c #C92347",
"9$	c #FF041F",
"0$	c #D80000",
"a$	c #D7CBA5",
"b$	c #D6C7DC",
"c$	c #A8BDCE",
"d$	c #E6C7C4",
"e$	c #FF0D20",
"f$	c #EA0000",
"g$	c #AE6964",
"h$	c #E0CECA",
"i$	c #A7C7C6",
"j$	c #BEC5CF",
"k$	c #CFBBC4",
"l$	c #BEBFB9",
"m$	c #7F847E",
"n$	c #857B83",
"o$	c #F6F6F6",
"p$	c #101010",
"q$	c #0B0B0B",
"r$	c #8B8B8B",
"s$	c #ECB3C4",
"t$	c #DCB8C4",
"u$	c #C5B6BB",
"v$	c #BAB1B4",
"w$	c #C5B9B9",
"x$	c #CFCCC3",
"y$	c #C0DAC1",
"z$	c #A8DCB6",
"A$	c #FC0319",
"B$	c #FB0004",
"C$	c #FD0016",
"D$	c #B3B5B4",
"E$	c #94BAC7",
"F$	c #B8D4AC",
"G$	c #FB0000",
"H$	c #FF0801",
"I$	c #97BEA9",
"J$	c #F6AEC6",
"K$	c #A6CDC8",
"L$	c #ACD5D1",
"M$	c #CAAEBC",
"N$	c #C3C3C1",
"O$	c #8C797D",
"P$	c #7C8582",
"Q$	c #0D0D0D",
"R$	c #898989",
"S$	c #CCCCCC",
"T$	c #B9B9B7",
"U$	c #C6BABE",
"V$	c #CDC2C6",
"W$	c #BCCFCB",
"X$	c #A0D3C0",
"Y$	c #9CC6B2",
"Z$	c #BCAFA9",
"`$	c #E1A0A8",
" %	c #AFC49B",
".%	c #FF0E25",
"+%	c #FD0006",
"@%	c #B8CBAB",
"#%	c #ABC4C9",
"$%	c #809C62",
"%%	c #E40000",
"&%	c #BDD6D2",
"*%	c #B7B2B8",
"=%	c #BCC8C8",
"-%	c #C2CACC",
";%	c #BAB3BA",
">%	c #C3C4C6",
",%	c #827C7E",
"'%	c #868281",
")%	c #777777",
"!%	c #BCC7BF",
"~%	c #B6C1BB",
"{%	c #B7BBBC",
"]%	c #C2BBC2",
"^%	c #CEBEC8",
"/%	c #CEC2C6",
"(%	c #C7C7C5",
"_%	c #C2CEC4",
":%	c #B3BCC3",
"<%	c #CFC7A2",
"[%	c #FF001D",
"}%	c #C2B8B6",
"|%	c #F30008",
"1%	c #FF0D05",
"2%	c #888773",
"3%	c #D0C8D5",
"4%	c #9DBEB7",
"5%	c #D0C0C1",
"6%	c #CDBABE",
"7%	c #B5C4C1",
"8%	c #BBC0C4",
"9%	c #788180",
"0%	c #8C7D80",
"a%	c #757575",
"b%	c #C0C1BB",
"c%	c #CABEC0",
"d%	c #D0BBC4",
"e%	c #C7BAC4",
"f%	c #BABFC3",
"g%	c #B5C3C3",
"h%	c #BABEBF",
"i%	c #BFB6B9",
"j%	c #ADCAE8",
"k%	c #DAB4AB",
"l%	c #EB0E00",
"m%	c #EC0307",
"n%	c #DEBDB4",
"o%	c #FD030D",
"p%	c #DC0300",
"q%	c #C2BFC8",
"r%	c #B9BDC8",
"s%	c #C0BABE",
"t%	c #D7BDBE",
"u%	c #C0B7B2",
"v%	c #C0CFCC",
"w%	c #B2BCBE",
"x%	c #7E7D82",
"y%	c #867D7E",
"z%	c #CAC0B7",
"A%	c #C3BCDB",
"B%	c #C0C7B7",
"C%	c #EA0A08",
"D%	c #F80000",
"E%	c #FA0500",
"F%	c #FD0000",
"G%	c #CCC1C5",
"H%	c #ADBAB1",
"I%	c #BDD1DA",
"J%	c #C2A2A5",
"K%	c #FF0624",
"L%	c #FF0100",
"M%	c #E10500",
"N%	c #FF0821",
"O%	c #A8C6BC",
"P%	c #EFEFEF",
"Q%	c #ABABAB",
"R%	c #ACC2C0",
"S%	c #D3C8CC",
"T%	c #BCD3CD",
"U%	c #BBB59B",
"V%	c #FF090F",
"W%	c #FF000A",
"X%	c #A7A78F",
"Y%	c #C5C0C4",
"Z%	c #EAEAEA",
"`%	c #C1C3D0",
" &	c #BDBEB0",
".&	c #C8ADC0",
"+&	c #BCB3B6",
"@&	c #EB000D",
"#&	c #FF0329",
"$&	c #9FD3C7",
"%&	c #C5CBCB",
"&&	c #ADB4BE",
"*&	c #CACDBC",
"=&	c #B2C5CB",
"-&	c #C4D5DC",
";&	c #B9CB9B",
">&	c #B5C4A3",
",&	c #C0A9C3",
"'&	c #C6ACB7",
")&	c #929292",
"!&	c #6E6E6E",
"~&	c #838D8C",
"{&	c #9C7C81",
"]&	c #877080",
"^&	c #837181",
"/&	c #8E7A73",
"(&	c #8B8D80",
"_&	c #837B86",
":&	c #9E7C8A",
"<&	c #A26F74",
"[&	c #498579",
"}&	c #80888A",
"|&	c #6E9787",
"1&	c #548981",
"2&	c #866F77",
"3&	c #85907F",
"4&	c #727E7C",
"5&	c #0C0C0C",
"6&	c #040100",
"7&	c #00151B",
"8&	c #1C0000",
"9&	c #090E24",
"0&	c #070004",
"a&	c #120800",
"b&	c #000B02",
". + . @ # . . $ % % % % % % % % & * * & % . . . & . & . . = . . @ % . . . . - . . ",
"; > , , ' ) , , ! ! ! ! ! ! ! ! , ~ , { , ' , ! , , , , , , , , { ] ! , , , , ^ . ",
". , , / , , , ( ! ! ! ! ! ! ! ! _ ] , ~ , ] , , : , _ , , : < ! ! , , < < ] [ } . ",
"& , | 1 2 3 4 5 1 1 1 1 1 1 1 1 6 7 8 9 0 7 0 4 0 a b c d 4 6 a c e f c 7 7 g h . ",
"& , , 8 i 1 c f 8 8 8 8 8 8 8 8 6 8 f j c c c k f 6 l 4 6 4 8 1 f m k e e 7 n o . ",
"# p , 0 3 q 2 r 1 1 1 1 1 1 1 1 7 8 s i d j t c c j u v 0 a 6 m d c b e m l w x . ",
"- > , 2 4 3 0 e f f f f f f f f 8 6 y z A B C D E A m 4 F t v 6 0 1 4 9 0 a D G . ",
". , > c a b v 9 6 6 6 6 6 6 6 6 j 2 H I * J . # * = K L o f 0 4 l v 6 f l 2 M E . ",
". , , f 8 1 6 8 f 6 l 9 1 N 0 f O P Q R S T U V W X Y Z `  ...+.1 4 5 e m f o @.. ",
". , , f 8 1 6 8 1 c k f f 4 a c #.$.%.&.*.=.-.;.>.,.'.).!.~.{.].0 l 6 0 b 6 ^.@.. ",
". , , f 8 1 6 8 f c b 8 f c 5 /.(._.:.<.[.}.|.1.2.3.4.5.6.7.8.9.c 7 9 8 0 6 o 0.. ",
". , , f 8 1 6 8 b 1 f 9 6 9 0 g a.b.c.d.e.f.g.h.i.j.k.l.m.n.o.p.q.v e 6 6 0 @.0.. ",
". , , f 8 1 6 8 m 6 6 9 m c l D r.s.t.u.v.w.x.y.z.A.B.C.D.E.F.G.G l 0 m 6 4 H.I.. ",
". , , f 8 1 6 8 9 f 0 6 k c f @.J.K.L.M.N.O.P.z.Q.R.S.T.U.V.W.X.D b f 8 c l Y.I.. ",
". , , f 8 1 6 8 e 4 m 9 k c c H.Z.`. +.+++@+#+$+%+&+*+=+-+;+>+,+@.v c f e l H '+. ",
". , , f 8 1 6 8 1 k 0 2 4 1 8 x )+!+~+{+]+^+/+(+_+:+<+[+}+|+1+2+'+9 j k 7 j Y.'+. ",
". , , f 8 1 6 8 3+s b 1 v 4 k 4+5+6+7+8+9+0+a+b+c+d+e+f+g+h+i+j+k+l+m+n+o+p+q+r+. ",
". , , f 8 1 6 8 1 1 6 j k j s+t+u+v+w+x+y+z+A+M.B+C+D+E+F+G+H+I+J+K+L+M+N+O+P+Q+. ",
". , , f 8 1 6 8 a b m 2 2 f j e R+S+T+U+V+W+X+Y+Z+`+ @.@+@@@#@$@%@&@*@=@-@;@>@,@. ",
". , , f 8 1 6 8 N 4 '@8 l 6 0 . )@!@5+~@{@]@^@/@(@_@:@<@<@[@}@|@1@2@3@4@5@6@7@8@. ",
". , , f 8 1 6 8 j 1 v 9@y 0@. a@b@c@d@e@f@g@h@i@j@k@l@m@n@o@p@q@r@s@t@u@v@w@x@y@. ",
". , , f 8 1 6 8 2 N 3 f z@. A@. 5+B@C@D@E@F@G@H@I@J@K@L@M@N@O@P@Q@R@S@T@U@V@W@X@. ",
". , , f 8 1 6 8 0 8 m A@. c $ ; Y@Z@`@ #.#+#@###$#%#&#*#=#-#;#>#,#'#)#!#~#{#]#^#. ",
". , , f 8 1 6 8 1 8 1 . l /#. . (#_#:#<#[#}#|#1#2#3#4#5#6#7#8#9#0#a#b#c#d#e#f#g#. ",
". , , y v j 8 8 3 s . d & . . Y.h#i#j#k#l#m#n#o#p#q#r#s#t#u#v#w#x#y#z#A#B#C#D#E#. ",
"% _ F#s 0 1 e v z@. 1 . . . G#0.H#I#J#K#L#M#N#O#P#Q#R#S#T#U#V#W#X#Y#0 Z#`# $.$+$. ",
"- ~ , @$1 j l b . 0 /#. . g K x #$$$%$&$*$=$-$;$>$,$'$)$!$~${$]$^$/$($_$:$<$[$}$. ",
". , , c f e b /#9 # . |$w '+4+N 1$2$3$4$5$6$7$8$9$0$a$b$c$d$e$f$g$h$i$j$k$l$m$n$. ",
"$ , o$a 3 1 p$. q$. - w r$x 3+t s$t$u$v$w$x$y$z$A$B$C$D$E$F$G$H$I$J$K$L$M$N$O$P$. ",
"$ , , y 8 k . Q$q$% 0.R$@.S$c q.T$U$V$W$X$Y$Z$`$ %.%+%@%#%$%%%C$&%*%=%-%;%>%,%'%. ",
". , , f d c A@. . )%L D b @$4 6 !%~%{%]%^%/%(%_%:%<%0#[%}%|%1%2%3%4%5%6%7%8%9%0%. ",
"$ , ] k 2 N 0 c D 4+a%5 4 1 b 7 b%c%d%e%f%g%h%i%j%k%l%m%n%o%p%q%r%s%t%u%v%w%x%y%. ",
". _ _ m 2 k m 6 f f f f f f f f f f f f f f f f z%A%B%C%D%E%F%G%b f 7 m 6 f M ^.. ",
"* , _ z@i 5 f c 8 8 8 8 8 8 8 8 8 8 8 8 8 8 8 8 H%I%J%K%L%M%N%O%m 8 6 b f 1 x R$. ",
"* P%, Q%5 f 3 v f f f f f f f f f f f f f f f f R%S%T%U%V%W%X%Y%0 f f 8 6 f o ^.. ",
"= , Z%A@a N 5 3+1 1 1 1 1 1 1 1 1 1 1 1 1 1 1 1 `% &.&+&@&#&$&%&f 1 1 e 6 b x )%. ",
". | , v } 2 d m 0 0 0 0 0 0 0 0 0 0 0 0 0 0 0 0 &&*&=&-&;&>&,&'&8 f b c b l z L . ",
"q$, , )%)&G#!&^.@.@.@.@.@.@.@.@.@.@.@.@.@.@.@.@.~&{&]&^&/&(&_&:&H.H 0.H.D H.)%a%. ",
". < M a%L w H.Y.o o o o o o o o o o o o o o o o <&[&}&|&1&2&3&4&@.^.C n C H.Y.H.. ",
". @ . * . . 5&. . . . . . . . . . . . . . . . . 6&7&7.8&9&0&a&b&. * . ; . . . . . "};
