/* XPM */
static const char * icon_user_xpm[] = {
"16 16 202 2",
"  	c None",
". 	c #B9DBDB",
"+ 	c #D5E7AC",
"@ 	c #EFEA5D",
"# 	c #F0ED15",
"$ 	c #F7E614",
"% 	c #E3D74F",
"& 	c #D4D4AA",
"* 	c #B8DBE0",
"= 	c #9CCFD1",
"- 	c #C2DFBF",
"; 	c #F6EEB2",
"> 	c #FAF4C7",
", 	c #F7F4B5",
"' 	c #E9E861",
") 	c #FAF5C8",
"! 	c #F3F0C7",
"~ 	c #C4D4C3",
"{ 	c #9CC9D0",
"] 	c #CDDBB2",
"^ 	c #F0F3D4",
"/ 	c #FEFDFA",
"( 	c #FFFFFF",
"_ 	c #FEFEFE",
": 	c #EEEDE9",
"< 	c #FFFFFD",
"[ 	c #F0EEDE",
"} 	c #C1CAB5",
"| 	c #99C5CB",
"1 	c #D2CE8D",
"2 	c #E8E2A2",
"3 	c #FDFDF9",
"4 	c #FBFBFB",
"5 	c #FAF9FC",
"6 	c #CDC5A4",
"7 	c #A1B69F",
"8 	c #AECDCD",
"9 	c #D4C358",
"0 	c #E6E5CB",
"a 	c #DDDEDD",
"b 	c #8D908C",
"c 	c #FAFAFA",
"d 	c #D9DDE2",
"e 	c #D6D9DE",
"f 	c #FDFDFD",
"g 	c #9C9E9C",
"h 	c #D5D4D5",
"i 	c #F9F9FD",
"j 	c #C4C4C0",
"k 	c #9B8F4D",
"l 	c #A2C3CB",
"m 	c #B7C493",
"n 	c #D1B63E",
"o 	c #E1E2DF",
"p 	c #EFF0F0",
"q 	c #CFD0CF",
"r 	c #E5E5E3",
"s 	c #A19D78",
"t 	c #A4A078",
"u 	c #E7E6E3",
"v 	c #DCDDDD",
"w 	c #ECEDEE",
"x 	c #EFEDF0",
"y 	c #BABABC",
"z 	c #8B7C30",
"A 	c #A3AC8A",
"B 	c #B6AA4C",
"C 	c #CBAE23",
"D 	c #C9C7A6",
"E 	c #ECEDEC",
"F 	c #EAEAEA",
"G 	c #D1D0CD",
"H 	c #999464",
"I 	c #C0B915",
"J 	c #D9CF15",
"K 	c #ABA964",
"L 	c #D4D4CA",
"M 	c #E2E3E2",
"N 	c #CBCCCF",
"O 	c #919086",
"P 	c #8E7A1A",
"Q 	c #9F8D3C",
"R 	c #AB971B",
"S 	c #D2B104",
"T 	c #BFAA31",
"U 	c #B1A76A",
"V 	c #A49965",
"W 	c #948336",
"X 	c #C2B201",
"Y 	c #F8EF01",
"Z 	c #FFF501",
"` 	c #D5CC01",
" .	c #A1932D",
"..	c #968F5B",
"+.	c #8A8356",
"@.	c #857720",
"#.	c #9C8401",
"$.	c #8B7B1D",
"%.	c #9F8D1B",
"&.	c #CAA700",
"*.	c #DFB900",
"=.	c #D6B500",
"-.	c #D2B900",
";.	c #E9D000",
">.	c #FEE100",
",.	c #EFCC00",
"'.	c #B59601",
").	c #AC9100",
"!.	c #998200",
"~.	c #7F731C",
"{.	c #938A3D",
"].	c #A98B00",
"^.	c #BFA000",
"/.	c #B59900",
"(.	c #A08B01",
"_.	c #8F7C00",
":.	c #8B6F01",
"<.	c #816D01",
"[.	c #8D7700",
"}.	c #8F7700",
"|.	c #9A8001",
"1.	c #9E8300",
"2.	c #867101",
"3.	c #86803D",
"4.	c #9BA996",
"5.	c #887202",
"6.	c #8D7001",
"7.	c #372B00",
"8.	c #161200",
"9.	c #251F01",
"0.	c #292001",
"a.	c #261A02",
"b.	c #1F0E09",
"c.	c #1E0D04",
"d.	c #210F00",
"e.	c #170A00",
"f.	c #2D2401",
"g.	c #715D01",
"h.	c #705D00",
"i.	c #8D9D90",
"j.	c #9ABDCC",
"k.	c #6E6725",
"l.	c #786401",
"m.	c #877100",
"n.	c #9F8300",
"o.	c #A99201",
"p.	c #B49500",
"q.	c #956401",
"r.	c #BF0F01",
"s.	c #C10100",
"t.	c #F20200",
"u.	c #DD0901",
"v.	c #6B3502",
"w.	c #625200",
"x.	c #60571B",
"y.	c #97BAC9",
"z.	c #7D8778",
"A.	c #615518",
"B.	c #745F01",
"C.	c #866D00",
"D.	c #8F7B01",
"E.	c #977E00",
"F.	c #805502",
"G.	c #D60200",
"H.	c #F50200",
"I.	c #DA0601",
"J.	c #5F2A02",
"K.	c #554A11",
"L.	c #7C9490",
"M.	c #727A78",
"N.	c #4D3E15",
"O.	c #554301",
"P.	c #655502",
"Q.	c #695701",
"R.	c #5B4002",
"S.	c #9A1001",
"T.	c #EF0200",
"U.	c #F80200",
"V.	c #B00400",
"W.	c #3B2312",
"X.	c #4B6756",
"Y.	c #68A5AE",
"Z.	c #83AFC5",
"`.	c #73868C",
" +	c #3E3E32",
".+	c #2A2303",
"++	c #322603",
"@+	c #2E2203",
"#+	c #381302",
"$+	c #740601",
"%+	c #820502",
"&+	c #502829",
"*+	c #61818E",
"=+	c #5F9EAD",
"-+	c #3E8D9B",
";+	c #607C8E",
">+	c #3B444B",
",+	c #262522",
"'+	c #252421",
")+	c #3F424B",
"!+	c #6D7C90",
"~+	c #8FAFC8",
"        . + @ # $ % & *         ",
"    = - ; > , ' ' , ) ! ~ {     ",
"    ] ^ / ( _ : : _ ( < [ } |   ",
"  1 2 3 ( 4 ( ( ( ( 4 ( 5 6 7   ",
"8 9 0 ( a b c d e f g h i j k l ",
"m n o ( p q r s t u v w x y z A ",
"B C D E F G H I J K L M N O P Q ",
"R S T U V W X Y Z `  ...+.@.#.$.",
"%.&.*.=.-.;.>.>.>.>.,.&.'.).!.~.",
"{.].^./.(._.:.<.<.<.[.}.|.1.2.3.",
"4.5.6.7.8.9.0.a.b.c.d.e.f.g.h.i.",
"j.k.l.m.n.o.p.q.r.s.t.u.v.w.x.y.",
"  z.A.B.C.D.E.F.r.G.H.I.J.K.L.  ",
"    M.N.O.P.Q.R.S.T.U.V.W.X.Y.  ",
"    Z.`. +.+++@+#+$+%+&+*+=+    ",
"        -+;+>+,+'+)+!+~+        "};
