/* XPM */
static const char * offline_xpm[] = {
"19 20 289 2",
"  	c None",
". 	c #977148",
"+ 	c #97634D",
"@ 	c #A4624F",
"# 	c #A8604B",
"$ 	c #9C5943",
"% 	c #8C5632",
"& 	c #8C6643",
"* 	c #A4695A",
"= 	c #CB664F",
"- 	c #DC5639",
"; 	c #E04B2B",
"> 	c #DF4425",
", 	c #D84023",
"' 	c #CE3F26",
") 	c #B53C27",
"! 	c #84321B",
"~ 	c #7F4508",
"{ 	c #876150",
"] 	c #C36B55",
"^ 	c #E55332",
"/ 	c #E03E1A",
"( 	c #DA3816",
"_ 	c #D53617",
": 	c #D23416",
"< 	c #D03215",
"[ 	c #CF2F14",
"} 	c #D02E13",
"| 	c #CC2D15",
"1 	c #9D2312",
"2 	c #652A04",
"3 	c #7C5B53",
"4 	c #CC6951",
"5 	c #E64520",
"6 	c #DB3A17",
"7 	c #D83B1A",
"8 	c #D5391A",
"9 	c #D23619",
"0 	c #D03317",
"a 	c #CD3116",
"b 	c #CA2F15",
"c 	c #C72C14",
"d 	c #C62912",
"e 	c #CA2712",
"f 	c #9D1D0D",
"g 	c #642502",
"h 	c #74534B",
"i 	c #BF6A56",
"j 	c #E5441F",
"k 	c #DB3C19",
"l 	c #D83B1B",
"m 	c #D33618",
"n 	c #D03417",
"o 	c #CA2E15",
"p 	c #C52912",
"q 	c #C22611",
"r 	c #C02410",
"s 	c #C3220F",
"t 	c #861609",
"u 	c #060100",
"v 	c #9E6C60",
"w 	c #E34B2A",
"x 	c #DB3B18",
"y 	c #D23618",
"z 	c #C72B14",
"A 	c #C42912",
"B 	c #BF2410",
"C 	c #BC210F",
"D 	c #BB1F0E",
"E 	c #B51B0C",
"F 	c #3B0803",
"G 	c #C45E48",
"H 	c #E03B17",
"I 	c #D93817",
"J 	c #D43110",
"K 	c #D22E10",
"L 	c #CF2C0E",
"M 	c #CC290D",
"N 	c #C9260C",
"O 	c #C6240B",
"P 	c #C3210A",
"Q 	c #C01E08",
"R 	c #BE1B07",
"S 	c #BB1906",
"T 	c #B81705",
"U 	c #B61B0C",
"V 	c #BA1A0C",
"W 	c #811207",
"X 	c #855D53",
"Y 	c #D74728",
"Z 	c #D93816",
"` 	c #C84126",
" .	c #CA513A",
"..	c #C94E38",
"+.	c #C64B36",
"@.	c #C44A35",
"#.	c #C24734",
"$.	c #BF4433",
"%.	c #BD4232",
"&.	c #BA4030",
"*.	c #B83E30",
"=.	c #B63C2F",
"-.	c #B43A2D",
";.	c #B21A0D",
">.	c #B4160A",
",.	c #A01207",
"'.	c #7A560F",
").	c #975B4E",
"!.	c #DB3D1D",
"~.	c #D32C0B",
"{.	c #CE8476",
"].	c #F0F7F8",
"^.	c #F1F1F1",
"/.	c #EFEFEF",
"(.	c #EEEEEE",
"_.	c #EDEDED",
":.	c #EBECEC",
"<.	c #EAEAEA",
"[.	c #E9E9E9",
"}.	c #E8E8E8",
"|.	c #E7E9E9",
"1.	c #E7E2E2",
"2.	c #B9352B",
"3.	c #AE0E02",
"4.	c #A91007",
"5.	c #6B400B",
"6.	c #A04E3D",
"7.	c #DC3818",
"8.	c #D02909",
"9.	c #D4897B",
"0.	c #F9FFFF",
"a.	c #F9FBFB",
"b.	c #F7F9F9",
"c.	c #F6F8F8",
"d.	c #F5F6F6",
"e.	c #F4F5F5",
"f.	c #F2F4F4",
"g.	c #F1F3F3",
"h.	c #F0F2F2",
"i.	c #EFF2F3",
"j.	c #F0EFEF",
"k.	c #BD423A",
"l.	c #AA0900",
"m.	c #AA0E06",
"n.	c #652E03",
"o.	c #984231",
"p.	c #D83314",
"q.	c #CC2608",
"r.	c #D28B7F",
"s.	c #F6FFFF",
"t.	c #F6FEFF",
"u.	c #F5FDFE",
"v.	c #F4FCFD",
"w.	c #F3FCFC",
"x.	c #F2FBFB",
"y.	c #F1F9FA",
"z.	c #F0F8F9",
"A.	c #EFF7F8",
"B.	c #EEF9FA",
"C.	c #F1F7F7",
"D.	c #BB4038",
"E.	c #A70600",
"F.	c #9F0A04",
"G.	c #5D2701",
"H.	c #83382A",
"I.	c #CF3013",
"J.	c #CB290E",
"K.	c #D16857",
"L.	c #E6B7AF",
"M.	c #E6B4AD",
"N.	c #E5B3AC",
"O.	c #E4B1AB",
"P.	c #E2AEA8",
"Q.	c #E0ABA6",
"R.	c #DFAAA5",
"S.	c #DDA8A4",
"T.	c #DBA5A1",
"U.	c #DBA5A2",
"V.	c #D59692",
"W.	c #AE211A",
"X.	c #A50802",
"Y.	c #8C0602",
"Z.	c #572801",
"`.	c #54251D",
" +	c #C42D14",
".+	c #CB2E15",
"++	c #C72810",
"@+	c #C4250F",
"#+	c #C12510",
"$+	c #BF220F",
"%+	c #BC1F0D",
"&+	c #B91C0B",
"*+	c #B6190A",
"=+	c #B31608",
"-+	c #B01307",
";+	c #AD1005",
">+	c #AA0D04",
",+	c #A60700",
"'+	c #A50902",
")+	c #A20904",
"!+	c #710301",
"~+	c #552E01",
"{+	c #A22612",
"]+	c #CD2C13",
"^+	c #C42711",
"/+	c #C0230E",
"(+	c #BD200D",
"_+	c #BB1E0C",
":+	c #B81B0A",
"<+	c #B5180A",
"[+	c #B21608",
"}+	c #AF1307",
"|+	c #AD1106",
"1+	c #AA0E05",
"2+	c #A70C04",
"3+	c #A40A03",
"4+	c #A40804",
"5+	c #960502",
"6+	c #4E0700",
"7+	c #5A3301",
"8+	c #5D1A0F",
"9+	c #C32711",
"0+	c #C32611",
"a+	c #BE2310",
"b+	c #BB200F",
"c+	c #B81D0D",
"d+	c #B3180B",
"e+	c #B0150A",
"f+	c #AD1309",
"g+	c #AA1007",
"h+	c #A70D06",
"i+	c #A50B05",
"j+	c #A30904",
"k+	c #9F0502",
"l+	c #7A0100",
"m+	c #321300",
"n+	c #593101",
"o+	c #0D0403",
"p+	c #891B0C",
"q+	c #C42310",
"r+	c #BC200E",
"s+	c #B0160A",
"t+	c #AD1308",
"u+	c #A80E06",
"v+	c #A30804",
"w+	c #A00602",
"x+	c #890200",
"y+	c #3D0500",
"z+	c #382100",
"A+	c #1D0E0C",
"B+	c #90180B",
"C+	c #BE1E0D",
"D+	c #B91B0C",
"E+	c #A10602",
"F+	c #440300",
"G+	c #281800",
"H+	c #442700",
"I+	c #34251B",
"J+	c #781408",
"K+	c #AE170A",
"L+	c #B61609",
"M+	c #B21309",
"N+	c #AD1007",
"O+	c #AB0E06",
"P+	c #A90B05",
"Q+	c #A60803",
"R+	c #9A0501",
"S+	c #760100",
"T+	c #3B0500",
"U+	c #271901",
"V+	c #402700",
"W+	c #3F3920",
"X+	c #421807",
"Y+	c #720F05",
"Z+	c #930D05",
"`+	c #9D0C05",
" @	c #9A0903",
".@	c #8A0602",
"+@	c #700301",
"@@	c #470500",
"#@	c #2A1000",
"$@	c #342200",
"%@	c #483E0A",
"&@	c #3A2804",
"*@	c #371D03",
"=@	c #361A02",
"-@	c #341B01",
";@	c #342101",
">@	c #412C01",
"            . + @ # $ %               ",
"        & * = - ; > , ' ) ! ~         ",
"      { ] ^ / ( _ : < [ } | 1 2       ",
"    3 4 5 6 7 8 9 0 a b c d e f g     ",
"  h i j k l 8 m n a o c p q r s t u   ",
"  v w x l 8 y 0 a o z A q B C D E F   ",
"  G H I J K L M N O P Q R S T U V W   ",
"X Y Z `  ...+.@.#.$.%.&.*.=.-.;.>.,.'.",
").!.~.{.].^./.(._.:.<.[.}.|.1.2.3.4.5.",
"6.7.8.9.0.a.b.c.d.e.f.g.h.i.j.k.l.m.n.",
"o.p.q.r.s.t.u.v.w.x.y.z.A.B.C.D.E.F.G.",
"H.I.J.K.L.M.N.O.P.Q.R.S.T.U.V.W.X.Y.Z.",
"`. +.+++@+#+$+%+&+*+=+-+;+>+,+'+)+!+~+",
"  {+]+^+/+(+_+:+<+[+}+|+1+2+3+4+5+6+7+",
"  8+9+0+a+b+c+E d+e+f+g+h+i+j+k+l+m+n+",
"  o+p+q+r+c+U d+s+t+g+u+i+v+w+x+y+z+  ",
"    A+B+C+D+d+e+t+g+h+i+4+E+x+F+G+H+  ",
"      I+J+K+L+M+N+O+P+Q+R+S+T+U+V+    ",
"        W+X+Y+Z+`+ @.@+@@@#@$@        ",
"            %@&@*@=@-@;@>@            "};
