/* XPM */
static const char * online_xpm[] = {
"19 20 276 2",
"  	c None",
". 	c #479770",
"+ 	c #4C976F",
"@ 	c #4FA474",
"# 	c #4AA774",
"$ 	c #439C6B",
"% 	c #318C5D",
"& 	c #438C67",
"* 	c #5AA47A",
"= 	c #4ECA85",
"- 	c #38DC7F",
"; 	c #2ADF79",
"> 	c #25DF75",
", 	c #23D771",
"' 	c #26CE6E",
") 	c #27B563",
"! 	c #1B8449",
"~ 	c #077F44",
"{ 	c #4F8769",
"] 	c #54C285",
"^ 	c #31E580",
"/ 	c #1ADF70",
"( 	c #15D96B",
"_ 	c #17D569",
": 	c #15D167",
"< 	c #14CF65",
"[ 	c #13CF63",
"} 	c #14CC62",
"| 	c #119D4C",
"1 	c #046432",
"2 	c #537B64",
"3 	c #51CC86",
"4 	c #1FE676",
"5 	c #17DA6C",
"6 	c #19D76C",
"7 	c #19D56A",
"8 	c #19D168",
"9 	c #17CF66",
"0 	c #15CD64",
"a 	c #14C962",
"b 	c #13C760",
"c 	c #12C65E",
"d 	c #11C95F",
"e 	c #0C9D49",
"f 	c #026330",
"g 	c #4B735C",
"h 	c #56BF83",
"i 	c #1EE575",
"j 	c #19DA6D",
"k 	c #1AD76C",
"l 	c #17D268",
"m 	c #12C55D",
"n 	c #11C15B",
"o 	c #10BF5A",
"p 	c #0EC25A",
"q 	c #08863D",
"r 	c #609E7B",
"s 	c #29E27A",
"t 	c #18D168",
"u 	c #13C75F",
"v 	c #11C45D",
"w 	c #0FBF59",
"x 	c #0EBC57",
"y 	c #0DBA56",
"z 	c #0CB552",
"A 	c #023B1A",
"B 	c #47C47D",
"C 	c #16DF6E",
"D 	c #16D86B",
"E 	c #0FD464",
"F 	c #0FD163",
"G 	c #0DCF61",
"H 	c #0CCC5E",
"I 	c #0BC85C",
"J 	c #0BC65A",
"K 	c #0AC258",
"L 	c #07BF55",
"M 	c #07BE53",
"N 	c #06BA51",
"O 	c #05B74F",
"P 	c #0BB652",
"Q 	c #0CB953",
"R 	c #068039",
"S 	c #538568",
"T 	c #27D774",
"U 	c #15D86A",
"V 	c #25C76C",
"W 	c #3AC978",
"X 	c #37C876",
"Y 	c #35C673",
"Z 	c #35C472",
"` 	c #34C170",
" .	c #33BF6E",
"..	c #31BD6C",
"+.	c #2FB96A",
"@.	c #30B768",
"#.	c #2EB667",
"$.	c #2DB465",
"%.	c #0CB151",
"&.	c #0AB44F",
"*.	c #069F45",
"=.	c #0F7A49",
"-.	c #4D976D",
";.	c #1DDA6F",
">.	c #0AD261",
",.	c #76CE9B",
"'.	c #F1F7EF",
").	c #F0F0F0",
"!.	c #EFEFEF",
"~.	c #EEEEEE",
"{.	c #EDEDED",
"].	c #EBECEB",
"^.	c #E9E9E9",
"/.	c #E8E8E8",
"(.	c #E7E7E7",
"_.	c #E7E8E6",
":.	c #E1E7E3",
"<.	c #2AB865",
"[.	c #01AE48",
"}.	c #06A849",
"|.	c #0B6B3C",
"1.	c #3C9F67",
"2.	c #18DC6C",
"3.	c #08CF5E",
"4.	c #7BD4A1",
"5.	c #FAFFF9",
"6.	c #F9FAF8",
"7.	c #F7F8F6",
"8.	c #F6F7F5",
"9.	c #F5F6F5",
"0.	c #F4F5F4",
"a.	c #F2F4F2",
"b.	c #F1F2F0",
"c.	c #F0F1EF",
"d.	c #EFF2EE",
"e.	c #39BD6F",
"f.	c #00A945",
"g.	c #05A948",
"h.	c #036433",
"i.	c #30975D",
"j.	c #13D768",
"k.	c #07CC5C",
"l.	c #7FD1A2",
"m.	c #F8FFF6",
"n.	c #F7FEF5",
"o.	c #F6FDF4",
"p.	c #F5FCF3",
"q.	c #F4FAF1",
"r.	c #F3F9F0",
"s.	c #F2F8EF",
"t.	c #F1F7EE",
"u.	c #F0F9ED",
"v.	c #F2F7F1",
"w.	c #37BA6D",
"x.	c #00A743",
"y.	c #039F42",
"z.	c #005C2D",
"A.	c #298250",
"B.	c #12CF63",
"C.	c #0ECA5E",
"D.	c #56D08B",
"E.	c #AFE6C6",
"F.	c #ADE6C5",
"G.	c #ACE5C4",
"H.	c #ABE4C2",
"I.	c #A7E1C0",
"J.	c #A6DFBE",
"K.	c #A5DFBD",
"L.	c #A4DDBB",
"M.	c #A0DAB8",
"N.	c #A1DAB9",
"O.	c #92D5AD",
"P.	c #1AAE56",
"Q.	c #01A543",
"R.	c #018C39",
"S.	c #00572B",
"T.	c #1C5334",
"U.	c #14C45F",
"V.	c #14CA62",
"W.	c #10C75D",
"X.	c #0FC45B",
"Y.	c #0FC05A",
"Z.	c #0FBF58",
"`.	c #0DBC56",
" +	c #0AB853",
".+	c #0AB651",
"++	c #07B24E",
"@+	c #07AF4C",
"#+	c #05AD49",
"$+	c #04A947",
"%+	c #00A643",
"&+	c #01A544",
"*+	c #03A143",
"=+	c #01702D",
"-+	c #00542C",
";+	c #12A14F",
">+	c #12CD62",
",+	c #11C45C",
"'+	c #0DBF59",
")+	c #0DBD56",
"!+	c #0CBA55",
"~+	c #0AB752",
"{+	c #09B550",
"]+	c #07B14E",
"^+	c #05AD4A",
"/+	c #03A746",
"(+	c #03A444",
"_+	c #04A444",
":+	c #01963D",
"<+	c #004E20",
"[+	c #005A2F",
"}+	c #0E5C30",
"|+	c #11C25C",
"1+	c #10BE59",
"2+	c #0EBA56",
"3+	c #0CB754",
"4+	c #0AB250",
"5+	c #09AF4E",
"6+	c #09AD4C",
"7+	c #06A949",
"8+	c #05A747",
"9+	c #04A545",
"0+	c #03A244",
"a+	c #019F40",
"b+	c #007A30",
"c+	c #003117",
"d+	c #01582E",
"e+	c #020C07",
"f+	c #0B8840",
"g+	c #0EBC56",
"h+	c #07AD4B",
"i+	c #03A243",
"j+	c #019F41",
"k+	c #008836",
"l+	c #003D19",
"m+	c #00371D",
"n+	c #0C1C13",
"o+	c #0A8F42",
"p+	c #0CBE56",
"q+	c #0BB853",
"r+	c #02A041",
"s+	c #00431B",
"t+	c #002715",
"u+	c #004323",
"v+	c #1A3327",
"w+	c #077736",
"x+	c #0AAE4D",
"y+	c #09B650",
"z+	c #09B14E",
"A+	c #07AD4A",
"B+	c #05AA49",
"C+	c #05A847",
"D+	c #03A644",
"E+	c #00993E",
"F+	c #00762E",
"G+	c #003B18",
"H+	c #012715",
"I+	c #003F21",
"J+	c #1F3F31",
"K+	c #074222",
"L+	c #057232",
"M+	c #05923E",
"N+	c #049D42",
"O+	c #029940",
"P+	c #018938",
"Q+	c #006F2D",
"R+	c #00471D",
"S+	c #002914",
"T+	c #00331C",
"U+	c #09472E",
"V+	c #043921",
"W+	c #03371D",
"X+	c #02351B",
"Y+	c #01331A",
"Z+	c #01331C",
"`+	c #004023",
"            . + @ # $ %               ",
"        & * = - ; > , ' ) ! ~         ",
"      { ] ^ / ( _ : < [ [ } | 1       ",
"    2 3 4 5 6 7 8 9 0 a b c d e f     ",
"  g h i j k 7 l 9 0 a b m n o p q     ",
"  r s 5 k 7 t 9 0 a u v n w x y z A   ",
"  B C D E F G H I J K L M N O P Q R   ",
"S T U V W X Y Z `  ...+.@.#.$.%.&.*.=.",
"-.;.>.,.'.).!.~.{.].^./.(._.:.<.[.}.|.",
"1.2.3.4.5.6.7.8.9.0.a.b.c.d.!.e.f.g.h.",
"i.j.k.l.m.m.n.o.p.q.r.s.t.u.v.w.x.y.z.",
"A.B.C.D.E.F.G.H.I.J.K.L.M.N.O.P.Q.R.S.",
"T.U.V.W.X.Y.Z.`. +.+++@+#+$+%+&+*+=+-+",
"  ;+>+,+'+)+!+~+{+]+@+^+g./+(+_+:+<+[+",
"  }+|+|+1+2+3+z 4+5+6+7+8+9+0+a+b+c+d+",
"  e+f+X.g+3+P 4+5+h+7+8+9+i+j+k+l+m+  ",
"    n+o+p+q+4+5+h+7+8+9+_+r+k+s+t+u+  ",
"      v+w+x+y+z+A+B+C+D+E+F+G+H+I+    ",
"        J+K+L+M+N+O+P+Q+R+S+T+        ",
"            U+V+W+X+Y+Z+`+            "};
