/* XPM */
static char*arrowd[]={
"15 8 5 1",
"c c #000080",
". c #c0c0ff",
"b c #0000c0",
"a c #303030",
"# c None",
"...............",
"#abbbbbbbbbbca#",
"##abbbbbbbbca##",
"###abbbbbbca###",
"####abbbbca####",
"#####abbca#####",
"######aca######",
"#######a#######"};
