/* XPM */
static char*arrowl[]={
"8 15 5 1",
"# c #c0c0ff",
"a c #000000",
"c c #0000c0",
"b c #0000ff",
". c None",
".......#",
"......#a",
".....#ba",
"....#bca",
"...#bcca",
"..#bccca",
".#bcccca",
"#bccccca",
".#ccccca",
"..#cccca",
"...#ccca",
"....#cca",
".....#ca",
"......#a",
".......#"};
