/* XPM */
static char * book2_xpm[] = {
"32 32 14 1",
" 	c None",
".	c #000000",
"+	c #FFFBF0",
"@	c #C0C0C0",
"#	c #AAAAAA",
"$	c #EAE7E0",
"%	c #D5D3D0",
"&	c #959595",
"*	c #CAC9C8",
"=	c #DFDDD8",
"-	c #F4F1E8",
";	c #966200",
">	c #808080",
",	c #A0A0A0",
"      .                         ",
"      ...                       ",
"  .   .++..                     ",
"  ... .++++..                   ",
"  .@#..++++$%.                  ",
"...@#&.++++$%@..................",
".@.@#&.++++$%@.@*%=$-++++++++.;.",
".@.@#&.++++$%@.@*%=$-++++++++.;.",
".@.@#&.++++$%@.@*%=$-++++++++.;.",
".@.@#&.++++$%@.@*%=$-++++++++.;.",
".@.@#&.++++$%@.@*%=$-++++++++.;.",
".@.@#&.++++$%@.@*%=$-++++++++.;.",
".@.@#&.++++$%@.@*%=$-....++++.;.",
".@.@#&.++++$%@.@*%=$-+.++++++.;.",
".@.@#&.++++$%@.@*%=$-+.++++++.;.",
".@.@#&.++++$%@.@*%=$-+.++++++.;.",
".@.@#&.++++$%@.@*%=$-+.++++++.;.",
".@.@#&.++++$%@.@*%=$-+.++++++.;.",
".@.@#&.++++$%@.@*%=$-+.++++++.;.",
".@.@#&.++++$%@.@*%=$-+.++++++.;.",
".@.@#&.++++$%@.@*%=$-+.++++++.;.",
".@.@#&.++++$%@.@*%=$-....++++.;.",
".@.@#&.++++$%@.@*%=$-++++++++.;.",
".@.@#&.++++$%@.@*%=$-++++++++.;.",
".@.@#&.++++$%@.@*%=$-++++++++.;.",
".@.@#&.++++$%@.@*%=$-++++++++.;.",
".@.@#&>..++$%@.@*%=$-++++++++.;.",
".@...&>>>..$%@.@*%=$-++++++++.;.",
".@,>>..>>>>..@.@*%=$-++++++++.;.",
".@,>>>>....,>.................;.",
"................................",
"................................"};
