/* XPM */
static char *debug02[] = {
/* width height num_colors chars_per_pixel */
"    32    32      223            2",
/* colors */
".. c #000000",
".# c #808080",
".a c #777777",
".b c #6e6e6e",
".c c #666666",
".d c #7d7d7d",
".e c #7c7c7c",
".f c #737373",
".g c #6b6b6b",
".h c #636363",
".i c #5a5a5a",
".j c #525252",
".k c #4a4a4a",
".l c #7b7b7b",
".m c #7a7a7a",
".n c #f9f9ff",
".o c #f8f8ff",
".p c #f0f0ff",
".q c #e9e9ff",
".r c #e2e2ff",
".s c #585858",
".t c #505050",
".u c #484848",
".v c #404040",
".w c #383838",
".x c #f7f7ff",
".y c #f6f6ff",
".z c #f5f5ff",
".A c #eeeeff",
".B c #e7e7ff",
".C c #e0e0ff",
".D c #d9d9ff",
".E c #d2d2ff",
".F c #cbcbff",
".G c #3e3e3e",
".H c #363636",
".I c #2e2e2e",
".J c #797979",
".K c #f3f3ff",
".L c #f2f2ff",
".M c #ebebff",
".N c #dedeff",
".O c #d7d7ff",
".P c #d0d0ff",
".Q c #cacaff",
".R c #343434",
".S c #2d2d2d",
".T c #252525",
".U c #f4f4ff",
".V c #efefff",
".W c #d5d5ff",
".X c #ceceff",
".Y c #c1c1ff",
".Z c #bbbbff",
".0 c #b4b4ff",
".1 c #242424",
".2 c #1d1d1d",
".3 c #ececff",
".4 c #e5e5ff",
".5 c #dfdfff",
".6 c #ccccff",
".7 c #c0c0ff",
".8 c #b9b9ff",
".9 c #b3b3ff",
"#. c #adadff",
"## c #1c1c1c",
"#a c #151515",
"#b c #f1f1ff",
"#c c #ededff",
"#d c #dcdcff",
"#e c #d6d6ff",
"#f c #c4c4ff",
"#g c #b8b8ff",
"#h c #b2b2ff",
"#i c #acacff",
"#j c #1b1b1b",
"#k c #141414",
"#l c #0d0d0d",
"#m c #eaeaff",
"#n c #e8e8ff",
"#o c #d3d3ff",
"#p c #cdcdff",
"#q c #c8c8ff",
"#r c #c2c2ff",
"#s c #b6b6ff",
"#t c #b0b0ff",
"#u c #ababff",
"#v c #a5a5ff",
"#w c #131313",
"#x c #00ff00",
"#y c #007f40",
"#z c #000080",
"#A c #d1d1ff",
"#B c #c6c6ff",
"#C c #b5b5ff",
"#D c #afafff",
"#E c #aaaaff",
"#F c #a4a4ff",
"#G c #9e9eff",
"#H c #0c0c0c",
"#I c #060606",
"#J c #ff0000",
"#K c #007346",
"#L c #c9c9ff",
"#M c #aeaeff",
"#N c #a9a9ff",
"#O c #a3a3ff",
"#P c #e3e3ff",
"#Q c #005d50",
"#R c #002e68",
"#S c #c7c7ff",
"#T c #bcbcff",
"#U c #b7b7ff",
"#V c #a8a8ff",
"#W c #a2a2ff",
"#X c #9d9dff",
"#Y c #0b0b0b",
"#Z c #050505",
"#0 c #00bc21",
"#1 c #00bf20",
"#2 c #007943",
"#3 c #b1b1ff",
"#4 c #a7a7ff",
"#5 c #9898ff",
"#6 c #e6e6ff",
"#7 c #00b923",
"#8 c #003f60",
"#9 c #bebeff",
"a. c #a6a6ff",
"a# c #a1a1ff",
"aa c #9c9cff",
"ab c #9797ff",
"ac c #00bd20",
"ad c #007c41",
"ae c #00455c",
"af c #003e60",
"ag c #a0a0ff",
"ah c #9b9bff",
"ai c #003d61",
"aj c #9f9fff",
"ak c #9696ff",
"al c #040404",
"am c #007743",
"an c #003b61",
"ao c #00bb21",
"ap c #007544",
"aq c #003a62",
"ar c #00ba22",
"as c #e4e4ff",
"at c #003963",
"au c #9a9aff",
"av c #00de10",
"aw c #00654c",
"ax c #003266",
"ay c #00a12e",
"az c #787878",
"aA c #00be20",
"aB c #008a39",
"aC c #002b69",
"aD c #090909",
"aE c #007345",
"aF c #00495a",
"aG c #009d30",
"aH c #00246d",
"aI c #005c50",
"aJ c #001d70",
"aK c #007d40",
"aL c #747474",
"aM c #001774",
"aN c #babaff",
"aO c #707070",
"aP c #dbdbff",
"aQ c #d8d8ff",
"aR c #121212",
"aS c #d4d4ff",
"aT c #6f6f6f",
"aU c #c5c5ff",
"aV c #161616",
"aW c #111111",
"aX c #bfbfbf",
"aY c #676767",
"aZ c #e1e1ff",
"a0 c #cfcfff",
"a1 c #1e1e1e",
"a2 c #1a1a1a",
"a3 c #e4e4e4",
"a4 c #b2b2b2",
"a5 c #5e5e5e",
"a6 c #dadaff",
"a7 c #232323",
"a8 c #cacaca",
"a9 c #a5a5a5",
"b. c #966200",
"b# c #626262",
"ba c #565656",
"bb c #515151",
"bc c #c3c3ff",
"bd c #bfbfff",
"be c #2f2f2f",
"bf c #2b2b2b",
"bg c #272727",
"bh c #222222",
"bi c #ffffff",
"bj c #e1e1e1",
"bk c #c4c4c4",
"bl c #a26a00",
"bm c #794e00",
"bn c #503200",
"bo c #595959",
"bp c #555555",
"bq c #4c4c4c",
"br c #444444",
"bs c #3b3b3b",
"bt c #373737",
"bu c #333333",
"bv c #2a2a2a",
"bw c #262626",
"bx c #dfdfdf",
"by c #bf7e00",
"bz c #dc9200",
"bA c #b97a00",
"bB c #734a00",
"bC c NONE",
/* pixels */
"bCbCbCbCbCbCbCbCbCbCbCbC.#.#.#.#.#.a.b.cbCbCbCbCbCbCbCbCbCbCbCbC",
"bCbCbCbCbCbCbCbCbC.d.d.d.e.e.e.e.e.f.g.h.i.j.kbCbCbCbCbCbCbCbCbC",
"bCbCbCbCbCbCbC.e.l.l.m.m.n.o.o.o.o.p.q.r.s.t.u.v.wbCbCbCbCbCbCbC",
"bCbCbCbCbCbC.l.m.m.n.o.x.x.y.z.z.z.A.B.C.D.E.F.G.H.IbCbCbCbCbCbC",
"bCbCbCbCbC.l.m.J...x.y.z.#.K.L.L.L.M.#.N.O.P.Q...R.S.TbCbCbCbCbC",
"bCbCbCbC.l.m.o.x.y...U.#.L.#.p.V.V.#.r.#.W.X...Y.Z.0.1.2bCbCbCbC",
"bCbCbC.l.m.o.x.y.U...L.#.V.A.#.3.#.4.5.#.E.6...7.8.9#.###abCbCbC",
"bCbC.e.m.J.x.y.U..#b.p.A#c.M.#.q.#.r#d#e.P.Q#f..#g#h#i#j#k#lbCbC",
"bCbC.e.m.o.y.U.L...V#c.M#m#n.......5.D#o#p#q#r..#s#t#u#v#w#lbCbC",
"bC.d.l.n.x.z.K#b..#c.M.q.B..#x#y#z..#e#A.F#B.7..#C#D#E#F#G#H#IbC",
"bC.d.l.o.y.U.L.p#c...q.B..#J..#K..#J...X#L#f...8.9#M#N#O#G#H#IbC",
"bC.d.m.o.z.K#b.A.3#m...4#P..#Q#R#z..#A.6#S..#T#U#h#.#V#W#X#Y#ZbC",
".#.d.n.x.U.L.V#c#m#n.4....#0#1#2#z#0.......7.Z#s#3#i#4#W#X#5#Z..",
".#.e.n.y.U#b.A.M.q#6..#1#y..#7#y#z..#y#8..#9.8.0#D#Ea.a#aaab#Z..",
".#.e.n.y.K.p#c#m.B..#xacad..ae#K#z..adaf#z..#U#h#M#N#vagahab#Z..",
".#.e.o.z.L.V.3.q.4..#x#0..ai..#K..#0..ai#z..#C#3#i#V#Fajahakal..",
".#.e.o.z.L.V.3.q....#x..aman..#R..aoam..#z....#3#i#V#Fajahakal..",
".#.e.o.z.L.V.....4..#x..apaq#z..#xarap..#z..#C....#V#Oajahakal..",
".#.e.o.z#b...M#nas..#x..#Kat#z..#x#7#K..#z...0#t#u..#Oajauakal..",
".#.e.o.z#b...M#nas..av..awax#z..avayaw..#z...0#t#u..#Oajauakal..",
"bC.eaz.z...A.M.Bas..aAaB..aC#z..aAaB..aC#z...9#D#u#4..#GauaDalbC",
"bC.eaz.U...A#m.B...C..aEaF..#z..aG..aFaH..#U..#D#Ea...#GauaDalbC",
"bC.eaz..#b.A#m.B...C..aIanaJ#z..aKaIanaJ..#U..#D#Ea.#W....aDalbC",
"bCbCazaL#b#c#m#6...5#d..#RaM#z..#Qae#R..aN#s..#M#Ea.#W#G#laDbCbC",
"bCbCazaLaO#c.q#6.r..aPaQ.......Q......#9aN..#h#M#Ea.#WaR#laDbCbC",
"bCbCbCaLaO#c.q#6.r.5..aQaS#A#p.Q.Q#B#r#9..#s#h#M#Ea.#WaR#lbCbCbC",
"bCbCbCbCaT.g.q.4.r.NaP..#o.P.6#L#LaU.Y...8#C#3#.#N#vaVaWaX..bCbC",
"bCbCbCbCbC.gaY.haZ.N..#e#oa0.F#q#q#f.7#T...0#t#ia1a2aVa3a4.#..bC",
"bCbCbCbCbCbCaY.ha5..a6#e#oa0.F#q#q#f.7#T#g....a7a1a2a3a8a9..b...",
"bCbCbCbCbCbCbCb#a5.ibabb.E.X.Q#S#Sbcbd.Zbebfbgbha1bibjbk..blbmbn",
"bCbCbCbCbCbCbCbCbCbobpbbbq.ubr.v.vbsbtbu.IbvbwbCbC..bx..byblbmbn",
"bCbCbCbCbCbCbCbCbCbCbCbCbq.ubr.v.vbsbtbubCbCbCbCbCbC..bzbAb.bBbn"
};
