/* XPM */
static char *email[] = {
/* width height num_colors chars_per_pixel */
"    32    32      106            2",
/* colors */
".. c #000000",
".# c #99d7fa",
".a c #a5dcfc",
".b c #b1e2ff",
".c c #006296",
".d c #abdffd",
".e c #20a0e2",
".f c #84cef6",
".g c #f6f6f6",
".h c #82cdf5",
".i c #86cff6",
".j c #0092dc",
".k c #ffffff",
".l c #76c7f2",
".m c #81ccf5",
".n c #8bd1f7",
".o c #c0c0c0",
".p c #dfdfdf",
".q c #fcfcfc",
".r c #77c7f3",
".s c #87cff6",
".t c #98d6f9",
".u c #a9defd",
".v c #eeeeee",
".w c #84cdf5",
".x c #9ad7fa",
".y c #fff5e6",
".z c #eaeaea",
".A c #ececec",
".B c #7ecaf4",
".C c #93d4f9",
".D c #9fdafb",
".E c #fff2de",
".F c #fff3e1",
".G c #fff4e4",
".H c #75c7f3",
".I c #808080",
".J c #99d7f9",
".K c #fff0d7",
".L c #fff1da",
".M c #fff2dd",
".N c #fff3e0",
".O c #fff5e5",
".P c #e8e8e8",
".Q c #f0f0f0",
".R c #58baed",
".S c #69c2f0",
".T c #008000",
".U c #ffedd1",
".V c #ffeed4",
".W c #ffefd6",
".X c #fff0d9",
".Y c #fff2df",
".Z c #fff5e7",
".0 c #ebebeb",
".1 c #f5f5f5",
".2 c #ffebc9",
".3 c #ffeccc",
".4 c #ffedcf",
".5 c #ffeed2",
".6 c #ffefd4",
".7 c #e9e9e9",
".8 c #efefef",
".9 c #9ad8fa",
"#. c #ffe9c6",
"## c #ffeac8",
"#a c #ffebcb",
"#b c #ffecce",
"#c c #ffeed3",
"#d c #fdfdfd",
"#e c #ffeac7",
"#f c #ffebca",
"#g c #ffeccd",
"#h c #ffedd0",
"#i c #ffefd5",
"#j c #fff0d8",
"#k c #fff1db",
"#l c #fff4e3",
"#m c #f7f7f7",
"#n c #ffeac9",
"#o c #ffebcc",
"#p c #ffeccf",
"#q c #ffefd7",
"#r c #fff0da",
"#s c #fff1dd",
"#t c #fff3e2",
"#u c #fff4e5",
"#v c #f2f2f2",
"#w c #fafafa",
"#x c #fbfbfb",
"#y c #fff1dc",
"#z c #000080",
"#A c #f1f1f1",
"#B c #0000ff",
"#C c #fff4e2",
"#D c #fff6e8",
"#E c #ffe9c7",
"#F c #ffedd2",
"#G c #ffeed5",
"#H c #ededed",
"#I c #e5e5e5",
"#J c #ff0000",
"#K c #fff5e8",
"#L c #ffeaca",
"#M c #ffebcd",
"#N c None",
/* pixels */
"#N#N#N#N#N#N#N#N#N#N#N....#N#N#N#N#N#N#N#N#N#N#N#N#N#N#N#N#N#N#N",
"#N#N#N#N#N#N#N#N#N#N#N...#....#N#N#N#N#N#N#N#N#N#N#N#N#N#N#N#N#N",
"#N#N#N#N#N#N#N#N#N#N...a.a.b.c....#N#N#N#N#N#N#N#N#N#N#N#N#N#N#N",
"#N#N#N#N#N#N#N#N#N#N...b.b.c...c.d....#N#N#N#N#N#N#N#N#N#N#N#N#N",
"#N#N#N#N#N#N#N#N#N...e.f.c...g...c.h.i....#N#N#N#N#N#N#N#N#N#N#N",
"#N#N#N#N#N#N#N#N#N...j.c...k.k.k...c.l.m.n....#N#N#N#N#N#N#N#N#N",
"#N#N#N#N#N#N#N#N...j.c...o.p.o.o.q...c.r.s.t.u....#N#N#N#N#N#N#N",
"#N#N#N#N#N#N#N#N...c...o.o.o.....o.v...c.w.x.b.b.b....#N#N#N#N#N",
"#N#N#N#N#N#N#N...c...o.o.....y...o.z.A...c.B.C.C.#.D.a....#N#N#N",
"#N#N#N#N#N#N#N.....o.....E.F.G.y...o.z.v...c.H.H.m.I.J.a.b..#N#N",
"#N#N#N#N#N#N...o.....K.L.M.N...O...o.P.A.Q...c.R.S.T.T.I.b..#N#N",
"#N#N#N#N#N#N.....U.V.W.X...Y...G.Z...o.0.Q.1...c.I.T.T.d..#N#N#N",
"#N#N#N#N.....2.3.4.5.6.K...M.N...O...o.7.8.g.q...c.d.I.9..#N#N#N",
"#N#N#N#N..#.###a#b.U#c.W.X...Y...G.Z...o.8.g#d#d...c.d..#N#N#N#N",
"#N#N#N#N#N..#e#f#g#h.5#i#j#k.E.N#l.y...o.8#m.k.k.k...c..#N#N#N#N",
"#N#N#N#N#N..#.#n#o#p.U.V#q#r#s.Y#t#u.Z...o#m.k.k.k.k..#N#N#N#N#N",
"#N#N#N#N#N#N..#e#f#g.4.5#i#j#k.M.N#l.y...o#v#w#w#x.q#d..#N#N#N#N",
"#N#N#N#N#N#N..#.#n#o#b.U.V..#r#y.Y#t.G.Z...o.1.1#m#z#x#d..#N#N#N",
"#N#N#N#N#N#N#N..###a#g..#c...X#k.E.F#l.y...o#A#A#z#B#z.q.k..#N#N",
"#N#N#N#N#N#N#N..#e#f.3...5#i...L.M.N#C.O#D...o.A.Q#z#m#x..#N#N#N",
"#N#N#N#N#N#N#N#N..###f#g..#c..#j#k.E.N#l.y...o.P.A.Q.1..#N#N#N#N",
"#N#N#N#N#N#N#N#N..#E#n#o..#F#G..#r#s.Y#t#u.Z...o.P#H..#N#N#N#N#N",
"#N#N#N#N#N#N#N#N#N..###a#g..#c..#j#k.E.N#l.y...o#I..#N#N#N#N#N#N",
"#N#N#N#N#N#N#N#N#N..#.#n#o..#F.V#q#r#y.Y.I.G.Z....#N#N#N#N#N#N#N",
"#N#N#N#N#N#N#N#N#N#N..###a#b..#c.W.X.I#J#J#l.y..#N#N#N#N#N#N#N#N",
"#N#N#N#N#N#N#N#N#N#N..#E#n#o...U.V#q#r#J#J.I#u#K..#N#N#N#N#N#N#N",
"#N#N#N#N#N#N#N#N#N#N#N..###a#b#h#c.W.X.I.E.F.G....#N#N#N#N#N#N#N",
"#N#N#N#N#N#N#N#N#N#N#N..#E#L#M#p#F#G#q#r#s....#N#N#N#N#N#N#N#N#N",
"#N#N#N#N#N#N#N#N#N#N#N#N..###a#g#h#c.W....#N#N#N#N#N#N#N#N#N#N#N",
"#N#N#N#N#N#N#N#N#N#N#N#N..#E#L#o#p....#N#N#N#N#N#N#N#N#N#N#N#N#N",
"#N#N#N#N#N#N#N#N#N#N#N#N#N..#n....#N#N#N#N#N#N#N#N#N#N#N#N#N#N#N",
"#N#N#N#N#N#N#N#N#N#N#N#N#N....#N#N#N#N#N#N#N#N#N#N#N#N#N#N#N#N#N"
};
