/* XPM */
static char *note05[] = {
/* width height num_colors chars_per_pixel */
"    32    32       71            2",
/* colors */
".. c #000000",
".# c #808080",
".a c #ffd4d4",
".b c #ffb1b1",
".c c #c0c0c0",
".d c #ff8e8e",
".e c #008000",
".f c #ffffff",
".g c #ffc66b",
".h c #ffaa25",
".i c #fefefe",
".j c #fdfdfd",
".k c #fcfcfc",
".l c #b97a00",
".m c #0000ff",
".n c #fbfbfb",
".o c #fafafa",
".p c #f9f9f9",
".q c #f8f8f8",
".r c #f7f7f7",
".s c #f5f5f5",
".t c #f6f6f6",
".u c #e7e7e7",
".v c #e4e4e4",
".w c #e1e1e1",
".x c #e9e9e9",
".y c #e6e6e6",
".z c #e2e2e2",
".A c #dfdfdf",
".B c #dcdcdc",
".C c #f4f4f4",
".D c #e3e3e3",
".E c #d9d9d9",
".F c #f3f3f3",
".G c #ffc7a0",
".H c #eaeaea",
".I c #e0e0e0",
".J c #d6d6d6",
".K c #f2f2f2",
".L c #876b60",
".M c #d3d3d3",
".N c #f1f1f1",
".O c #f0f0f0",
".P c #efefef",
".Q c #eeeeee",
".R c #a0a0a4",
".S c #ededed",
".T c #ececec",
".U c #ebebeb",
".V c #dedede",
".W c #dbdbdb",
".X c #d8d8d8",
".Y c #d5d5d5",
".Z c #d0d0d0",
".0 c #cdcdcd",
".1 c #cacaca",
".2 c #c8c8c8",
".3 c #e5e5e5",
".4 c #d2d2d2",
".5 c #c7c7c7",
".6 c #c5c5c5",
".7 c #dadada",
".8 c #d7d7d7",
".9 c #d4d4d4",
"#. c #cfcfcf",
"## c #cccccc",
"#a c #c4c4c4",
"#b c #c2c2c2",
"#c c #e8e8e8",
"#d c #d1d1d1",
"#e c None",
/* pixels */
"#e#e#e#e#e#e#e#e#e#e#e#e#e#e#e#e#e#e#e#e#e#e#e#e#e#e#e#e#e#e#e#e",
"#e#e#e#e#e#e#e#e#e#e#e#e#e#e#e#e#e#e#e#e#e#e#e#e#e#e#e#e#e#e#e#e",
"#e#e#e#e#e#e#e#e#e#e#e#e#e#e#e#e#e#e#e#e#e#e#e#e#e#e#e#e.#.##e#e",
"#e#e#e#e#e#e#e#e#e#e#e#e#e#e#e#e#e#e#e#e#e#e#e#e#e#e#e.#.a.b..#e",
"#e#e#e#e#e#e#e#e#e#e#e#e#e#e#e#e#e#e#e#e#e#e#e#e#e#e.#.c...d..#e",
"#e#e#e#e#e#e#e#e#e#e#e#e#e#e#e#e#e#e#e#e#e#e#e#e#e.#.e.#.#..#e#e",
"#e#e#e#e#e#e#e#e#e#e#e#e#e#e#e#e#e#e#e#e#e#e#e#e.#.c.#.e..#e#e#e",
".#.#.#.#.#.#.#.#.#.#.#.#.#.#.#.#.#.#.#.#.##e#e.#...#.#..#e#e#e#e",
".#.f.f.f.f.f.f.f.f.f.f.f.f.f.f.f.f.f.f.f..#e.#.g.h....#e#e#e#e#e",
".#.i.i.i.i.i.i.i.i.i.f.i.i.i.j.j.j.k.k.k...#.g.h.l..#e#e#e#e#e#e",
".#.j.j.m.m.m.m.i.i.i.f.i.j.j.k.n.n.o.p.p.#.g.h.l..#e#e#e#e#e#e#e",
".#.k.k.k.j.j.j.i.i.i.f.i.j.k.n.o.p.q.r.#.g.h.l..#e#e#e#e#e#e#e#e",
".#.n.n.n.k.k.j.j.i.i.f.j.k.n.p.q.r.s.#.g.h.l..#e#e#e#e#e#e#e#e#e",
".#.o.o.n.n.k.k.j.j.i.f.j.n.o.q.t.s.#.g.h.l..#e#e#e#e#e#e#e#e#e#e",
".#.o.o.m.m.m.m.m.m.m.m.m.m.m.m.m.#.g.h.l..#e#e#e#e#e#e#e#e#e#e#e",
".#.p.p.o.n.n.k.j.j.i.f.k.o.q.s.#.g.h.l....#e#e#e#e#e#e#e#e#e#e#e",
".#.q.q.p.o.n.n.k.j.i.f.k.p.r.#.g.h.l...u..#e#e#e#e#e#e#e#e#e#e#e",
".#.r.r.m.m.m.m.m.m.m.m.m.m.#.g.h.l...u.v..#e#e#e#e#e#e#e#e#e#e#e",
".#.t.r.q.p.o.n.k.j.i.f.n.#.g.h.l...u.v.w..#e#e#e#e#e#e#e#e#e#e#e",
".#.t.r.q.p.o.n.k.j.i.f.#.g.h.l...x.y.z.A..#e#e#e#e#e#e#e#e#e#e#e",
".#.s.s.m.m.m.m.m.m.m.#.g.h.l...m.m.m.A.B..#e#e#e#e#e#e#e#e#e#e#e",
".#.C.C.C.s.s.s.t.t.#.g.h.l...x.y.D.A.B.E..#e#e#e#e#e#e#e#e#e#e#e",
".#.F.F.F.F.F.F.F.#.G.h.l...H.y.D.I.B.E.J..#e#e#e#e#e#e#e#e#e#e#e",
".#.F.K.m.m.m.m.m.L.G.G...m.m.m.m.m.m.J.M..#e#e#e#e#e#e#e#e#e#e#e",
".#.K.N.O.O.P.Q.#.G.L...R.R.R.R.R.R.R.R.R...#.#.#.#.#.#.#.#.#.##e",
".#.N.O.P.Q.S.T.....R.R.R.R.R.R.R.R.R.R.R...#.#.#.#.#.#.#.#.#.#.#",
".#.O.Q.m.m.m...R.R.R.R.R.R.R.R.R.R.R.R.R...#.#.#.#.#.#.#.#.#.##e",
".#.O.Q.T.U.x.u.y.v.z.w.V.W.X.Y.M.Z.0.1.2..#e#e#e#e#e#e#e#e#e#e#e",
".#.P.S.U.x.u.3.D.w.A.V.W.X.Y.4.Z.0.1.5.6..#e#e#e#e#e#e#e#e#e#e#e",
".#.Q.U.x.u.3.z.I.V.B.7.8.9.4#.##.1.5#a#b..#e#e#e#e#e#e#e#e#e#e#e",
".#.Q.U#c.y.D.w.V.B.E.8.9#d#.##.1.5.6#b.c..#e#e#e#e#e#e#e#e#e#e#e",
"..........................................#e#e#e#e#e#e#e#e#e#e#e"
};
