/* XPM */
static char *magick[] = {
/* columns rows colors chars-per-pixel */
"20 20 27 1",
"  c Gray0",
". c #000100",
"X c #626f5a",
"o c #6a7861",
"O c #6b7962",
"+ c #6c7a63",
"@ c #6d7b64",
"# c #7a8a6f",
"$ c #7f8f74",
"% c #839279",
"& c #a6b19e",
"* c #b7c0b1",
"= c #b8c1b2",
"- c #b9c2b3",
"; c #c7cec3",
": c #c8cfc4",
"> c #c9d0c5",
", c #ccd3c8",
"< c #cfd7cf",
"1 c #d2d7ce",
"2 c #d3d8cf",
"3 c #d4d9d0",
"4 c #d8ddd4",
"5 c #e0e4dd",
"6 c None",
"7 c #eff1ee",
"8 c Gray100",
/* pixels */
"66666666666666666666",
"66666666666666666666",
"66666666666666666666",
"66666666666666666666",
"666666666 66   66666",
"66666666 8 6 < 66666",
"6666666 85%  > 66666",
"666666 883-$ ; 66666",
"66666 881,:*$: 66666",
"6666 781:::>-# 66666",
"666 882::>:::-+ 6666",
"66 888>::>:;;;&X 666",
"6   88::::;;;;@   66",
"666 88>:;;;;;;+ 6666",
"666 88    ;;;;+ 6666",
"666 88 ;; ;;;:+ 6666",
"666 88 :: :::;o 6666",
"666 84 ,, ::;;o 6666",
"666 >@ ++ ++oo+ 6666",
"666             6666"
};
