/* XPM */
static char *hotlist[] = {
/* width height num_colors chars_per_pixel */
"    32    32      241            2",
/* colors */
".. c #000000",
".# c #ffaa25",
".a c #ffb92b",
".b c #ffb128",
".c c #ffbe2d",
".d c #ffc65f",
".e c #ffc630",
".f c #ffbd2c",
".g c #ffd937",
".h c #ffba48",
".i c #ffc12e",
".j c #ffc42f",
".k c #ffd436",
".l c #ffd033",
".m c #ffc931",
".n c #ffce33",
".o c #ffff48",
".p c #ffdd39",
".q c #ffed40",
".r c #ffe03a",
".s c #ffcb31",
".t c #ffcc32",
".u c #ffffbc",
".v c #fffa84",
".w c #ffdc39",
".x c #ffff81",
".y c #ffff9a",
".z c #fffa8e",
".A c #ffef41",
".B c #ffe63d",
".C c #ffc32f",
".D c #fff142",
".E c #ffffba",
".F c #ffe77c",
".G c #ffeb73",
".H c #ffe93e",
".I c #ffffb0",
".J c #ffff97",
".K c #ffe73d",
".L c #fffc8e",
".M c #ffffab",
".N c #ffd636",
".O c #ffd234",
".P c #ffe566",
".Q c #fff063",
".R c #ffff8e",
".S c #ffd97a",
".T c #ffda38",
".U c #fffc9f",
".V c #ffff84",
".W c #ffff8c",
".X c #ffffd4",
".Y c #fff5b3",
".Z c #fffaad",
".0 c #ffdb62",
".1 c #ffe968",
".2 c #ffec82",
".3 c #fff499",
".4 c #ffe667",
".5 c #fffeaf",
".6 c #ffff7b",
".7 c #ffff9d",
".8 c #fff744",
".9 c #fffc51",
"#. c #fff4a0",
"## c #ffff99",
"#a c #fff9c6",
"#b c #fff8c4",
"#c c #fffccd",
"#d c #ffc944",
"#e c #ffea63",
"#f c #fffdcf",
"#g c #ffefae",
"#h c #ffe868",
"#i c #ffff5e",
"#j c #ffffc7",
"#k c #ffffaf",
"#l c #ffea76",
"#m c #ffe466",
"#n c #fff6c0",
"#o c #ffd46a",
"#p c #ffdd81",
"#q c #fffaca",
"#r c #fff3b8",
"#s c #ffd020",
"#t c #ffde56",
"#u c #ffd322",
"#v c #ffd423",
"#w c #ffed68",
"#x c #ffe43c",
"#y c #ffe99f",
"#z c #ffe491",
"#A c #ffbf35",
"#B c #ffeaa3",
"#C c #fffdd1",
"#D c #fff5bf",
"#E c #fff3b5",
"#F c #ffd14b",
"#G c #ffbf12",
"#H c #ffcd1e",
"#I c #ffcf1e",
"#J c #ffe089",
"#K c #ffeaa2",
"#L c #ffc94e",
"#M c #ffcf5d",
"#N c #ffedaa",
"#O c #ffc81a",
"#P c #ffd625",
"#Q c #ffce1e",
"#R c #ffdf3a",
"#S c #ffeeab",
"#T c #ffe79b",
"#U c #aa893d",
"#V c #ffe09d",
"#W c #ffce45",
"#X c #ffe896",
"#Y c #ffe330",
"#Z c #d1bf2b",
"#0 c #ffe088",
"#1 c #ffd976",
"#2 c #fdebb0",
"#3 c #8f8f82",
"#4 c #f6f6f6",
"#5 c #ffffff",
"#6 c #dfdfdf",
"#7 c #fbe79d",
"#8 c #84817b",
"#9 c #4c452e",
"a. c #ffe89d",
"a# c #ffeca5",
"aa c #fff8c3",
"ab c #ffe594",
"ac c #f5f5d7",
"ad c #c07c5f",
"ae c #fdecbb",
"af c #817996",
"ag c #ffd773",
"ah c #d7d7d7",
"ai c #f8e49a",
"aj c #fff174",
"ak c #b9b29b",
"al c #fce2af",
"am c #feeec9",
"an c #fefefe",
"ao c #fff8e1",
"ap c #fde4b1",
"aq c #fcf6df",
"ar c #ffd265",
"as c #fae0ad",
"at c #515151",
"au c #888277",
"av c #808080",
"aw c #9f8a60",
"ax c #191919",
"ay c #fafafa",
"az c #a6452e",
"aA c #fce3b0",
"aB c #000080",
"aC c #f8f8f8",
"aD c #979797",
"aE c #9a9a9a",
"aF c #fbfbfb",
"aG c #fcfcfc",
"aH c #fdfdfd",
"aI c #f9f9f9",
"aJ c #f7f7f7",
"aK c #f5f5f5",
"aL c #f3f3f3",
"aM c #181818",
"aN c #800000",
"aO c #f1f1f1",
"aP c #949494",
"aQ c #999999",
"aR c #f4f4f4",
"aS c #efefef",
"aT c #ececec",
"aU c #171717",
"aV c #ededed",
"aW c #eaeaea",
"aX c #8f8f8f",
"aY c #f0f0f0",
"aZ c #e7e7e7",
"a0 c #161616",
"a1 c #eeeeee",
"a2 c #ebebeb",
"a3 c #e9e9e9",
"a4 c #e6e6e6",
"a5 c #e3e3e3",
"a6 c #8a8a8a",
"a7 c #e8e8e8",
"a8 c #e5e5e5",
"a9 c #e2e2e2",
"b. c #e0e0e0",
"b# c #dddddd",
"ba c #151515",
"bb c #f2f2f2",
"bc c #8b1818",
"bd c #c69595",
"be c #d1d1e2",
"bf c #9c9cc9",
"bg c #6565af",
"bh c #2d2d94",
"bi c #040482",
"bj c #2c2c93",
"bk c #6060aa",
"bl c #9393c0",
"bm c #c3c3d4",
"bn c #dedede",
"bo c #dbdbdb",
"bp c #d9d9d9",
"bq c #848484",
"br c #040404",
"bs c #d6d6d6",
"bt c #d3d3d3",
"bu c #141414",
"bv c #4c4c4c",
"bw c #545454",
"bx c #d4d4d4",
"by c #d1d1d1",
"bz c #cfcfcf",
"bA c #cdcdcd",
"bB c #cecece",
"bC c #cccccc",
"bD c #cacaca",
"bE c #c8c8c8",
"bF c #c6c6c6",
"bG c #e4e4e4",
"bH c #e1e1e1",
"bI c #d8d8d8",
"bJ c #d5d5d5",
"bK c #d2d2d2",
"bL c #c9c9c9",
"bM c #c7c7c7",
"bN c #c5c5c5",
"bO c #474747",
"bP c #dcdcdc",
"bQ c #c2c2c2",
"bR c #c0c0c0",
"bS c #494949",
"bT c #393939",
"bU c None",
/* pixels */
"bU.#.abUbUbUbU.#.bbUbUbUbUbUbUbU.c.#bUbUbU.#bUbUbUbU.dbUbUbUbUbU",
"bUbUbUbU.#bUbUbU.c.e.fbUbUbUbUbU.g.bbU.ebUbUbUbUbUbU.hbUbUbUbUbU",
"bUbU.ibU.j.kbUbUbU.#.a.lbUbUbUbU.m.c.b.kbUbU.kbUbUbU.#.abUbUbUbU",
"bUbU.n.obU.kbUbUbUbU.k.p.qbUbU.k.r.s.tbUbU.u.vbUbUbU.s.k.kbUbUbU",
"bUbU.w.x.y.z.AbUbU.w.A.o.B.nbU.C.i.m.ibU.D.E.F.ibUbU.w.G.b.ibUbU",
"bU.g.H.I.y.E.JbU.K.L.M.N.o.O.k.k.w.P.w.Q.o.R.t.wbUbU.H.S.g.bbUbU",
"bU.T.U.V.W.X.Y.X.Z.X.X.0.1.t.k.2.3.X.4.5.6.7.t.rbU.K.8.I.9.sbUbU",
"bU.c#.###a.X.X#b#a#c.X.X.X#d#e#f.X.X#g.X#h.I.KbU#i.c#j#k#l.mbUbU",
"bU#m.X.X#n.X.X#o#p#q.X#a.X.X#q#r.X#f.X.X#g#s#t#u#v#v#w#w.k#xbUbU",
"bU#n.X#y#y#z#z#A#B.X#C#r.X.X.X#D.X#q.X.X.X#E.X#F#G#H#I.j.kbUbUbU",
"bU#r.X.X#J#K#L#M#a#c.X#N.X#r.X#r.X#o.X#r.X#o.X#o#O#P#Q#RbUbUbUbU",
"bUbU#n.X#J#a#S#g#r#a.X#T.X#n.X#n.X#J#o#U#L#V#L#W#X#Y#ZbUbUbUbUbU",
"bUbU#r.X#J#0#1.X#n#a.X#r.X#r.X#o#1.X#2#3#4#5#5#6#7#X#8bUbUbUbUbU",
"bUbU#9#1.X#1#r.X#oa.a##r.Xaa#Lab#n.X#J.X#8#5#5ac#X#X#8bUbUbUbUbU",
"bUbU..#r.X#oad.Xaeaf.Xag#L#L#r.X#o#L#r.X#oahahaiaj#8bUbUbUbUbUbU",
"bUbUbUak#Lal#r.X#o#r.X#oamanao#Lapaqar#LasatauavawbUbUbUbUbUbUbU",
"bUbUbUaxayayaz#LaAaq#LapaBaB#5aBaBaBaBaC#4aDbUbUbUbUbUbUbUbUbUbU",
"bUbUbUbUaEayayaFaFaGaGaHaHan#5#5aHaFaIaJaKaLaMbUbUbUbUbUbUbUbUbU",
"bUbUbUbUaMaIaIaNaNaFaGaBaBaB#5#5aGaBaBaBaLaOaPbUbUbUbUbUbUbUbUbU",
"bUbUbUbUbUaQaIaIayaFaGaGaHan#5#5aGaIaJaRaOaSaTaUbUbUbUbUbUbUbUbU",
"bUbUbUbUbUaMaCaIaNaNaFaGaBaBaBaBaBaBaBaBaBaVaWaXbUbUbUbUbUbUbUbU",
"bUbUbUbUbUbUaQaIayayaFaGaHan#5#5aGaI#4aLaYaVaWaZa0bUbUbUbUbUbUbU",
"bUbUbUbUbUbUaM#4aJaNaNaCaIaBaBaBaBaBaBa1a2a3a4a5a6bUbUbUbUbUbUbU",
"bUbUbUbUbUbUbUaDaRaKaKaKaKaK#4#4aLaYaVa2a7a8a9b.b#babUbUbUbUbUbU",
"bUbUbUbUbUbUbUaMbbbcbdaOaObebfbgbhbibjbkblbmbnbobpbqbUbUbUbUbUbU",
"bUbU..................aUbr......................bsbtbubUbUbUbUbU",
"bUbv#5#5#5#5#5#5#5#5#5#5#5#5#5#5#5#5#5#5#5bwavbxbybzbA..bUbUbUbU",
"..ayayaFaFaGaGaHaHan#5#5aHaFaIaJ#4aRbbaYaPavbtbybBbCbD..bUbUbUbU",
"..#4aJaCaIayaFaGaHan#5#5aFaJaRaYaVa3a4a9a0avbzbCbDbEbF..bUbUbUbU",
"..bbaOaYaSa1a1aVaTa2a2a2aZbGbHbnbobIbJbKavavavbLbMbNav..bUbUbUbU",
"bUbOa2a7a4a5bHbnbPbpahahbxbybzbCbDbMbNbQbRbSavavavavbTbUbUbUbUbU",
"bUbU................................................bUbUbUbUbUbU"
};
