/* XPM */
static char*ignore_xpm[]={
"10 10 3 1",
". c #000000",
"# c None",
"a c #c00000",
"...####...",
".aa.##.aa.",
".aaa..aaa.",
"#.aaaaaa.#",
"##.aaaa.##",
"##.aaaa.##",
"#.aaaaaa.#",
".aaa..aaa.",
".aa.##.aa.",
"...####..."};
