/* XPM */
static char *gnome-info[] = {
/* width height num_colors chars_per_pixel */
"    48    48      189            2",
/* colors */
".. c #040204",
".# c #8c8254",
".a c #d4c274",
".b c #f4e28c",
".c c #44423c",
".d c #b4a25c",
".e c #e4e2e4",
".f c #c4c2c4",
".g c #6c664c",
".h c #24221c",
".i c #e4d27c",
".j c #c4ae64",
".k c #f4e6ac",
".l c #9c9264",
".m c #ecd684",
".n c #54524c",
".o c #7c7254",
".p c #a4a2a4",
".q c #fcf2d4",
".r c #34322c",
".s c #ecda9c",
".t c #b4b2a4",
".u c #14120c",
".v c #f4eaa4",
".w c #ecde8c",
".x c #f4f2f4",
".y c #3c3a34",
".z c #84827c",
".A c #dcca7c",
".B c #d4d2d4",
".C c #ccba6c",
".D c #fceaac",
".E c #949284",
".F c #f4e29c",
".G c #6c6a64",
".H c #5c5a4c",
".I c #ece6bc",
".J c #b4b2b4",
".K c #1c1a14",
".L c #9c9a84",
".M c #d4c68c",
".N c #f4eacc",
".O c #2c2a24",
".P c #dcd2a4",
".Q c #c4b674",
".R c #f4da94",
".S c #b4aa94",
".T c #3c3624",
".U c #fcfaec",
".V c #8c8a8c",
".W c #7c7a7c",
".X c #bcbaac",
".Y c #0c0a04",
".Z c #fce694",
".0 c #4c463c",
".1 c #cccac4",
".2 c #e4d28c",
".3 c #ecda94",
".4 c #fcf2e4",
".5 c #f4eec4",
".6 c #f4de84",
".7 c #443e34",
".8 c #4c4a4c",
".9 c #dcdadc",
"#. c #949294",
"## c #645e5c",
"#a c #241e14",
"#b c #9c8a5c",
"#c c #dcc674",
"#d c #f4e68c",
"#e c #bcaa64",
"#f c #c4ae74",
"#g c #f4eaac",
"#h c #ecda84",
"#i c #54564c",
"#j c #7c7a64",
"#k c #34362c",
"#l c #3c3e34",
"#m c #e4ce7c",
"#n c #74766c",
"#o c #f4e69c",
"#p c #746e64",
"#q c #5c5a5c",
"#r c #f4e6bc",
"#s c #1c1e14",
"#t c #fceecc",
"#u c #acaaa4",
"#v c #bcbabc",
"#w c #948a64",
"#x c #aca274",
"#y c #242624",
"#z c #fcf6dc",
"#A c #141614",
"#B c #fcea9c",
"#C c #fcf6ec",
"#D c #848684",
"#E c #dcce8c",
"#F c #4c4e44",
"#G c #dcd6c4",
"#H c #ccbe74",
"#I c #6c6e6c",
"#J c #9c9a9c",
"#K c #f4eedc",
"#L c #2c2e2c",
"#M c #fcfafc",
"#N c #8c8e84",
"#O c #0c0e0c",
"#P c #cccecc",
"#Q c #646664",
"#R c #fceebc",
"#S c #f4de94",
"#T c #f4eabc",
"#U c #acaeac",
"#V c #040604",
"#W c #948654",
"#X c #d4c27c",
"#Y c #f4e294",
"#Z c #444244",
"#0 c #eceeec",
"#1 c #c4c6c4",
"#2 c #ac9a5c",
"#3 c #b4aa7c",
"#4 c #bcb694",
"#5 c #ccb66c",
"#6 c #c4b26c",
"#7 c #7c765c",
"#8 c #f4eed4",
"#9 c #fcf2c4",
"a. c #a4a6a4",
"a# c #ecde9c",
"aa c #f4f6f4",
"ab c #d4d6d4",
"ac c #b4b6b4",
"ad c #7c7e7c",
"ae c #e4d68c",
"af c #fcf6e4",
"ag c #4c4e4c",
"ah c #dcdedc",
"ai c #949694",
"aj c #c4b274",
"ak c #5c5e5c",
"al c #bcbebc",
"am c #9c9e9c",
"an c #fcfefc",
"ao c #6c6654",
"ap c #242224",
"aq c #e4d284",
"ar c #f4e6b4",
"as c #ecd68c",
"at c #545254",
"au c #fcf2dc",
"av c #343234",
"aw c #fceeb4",
"ax c #141214",
"ay c #ecde94",
"az c #3c3a3c",
"aA c #848284",
"aB c #dcca84",
"aC c #4c4a44",
"aD c #ccba74",
"aE c #fceab4",
"aF c #94928c",
"aG c #747274",
"aH c #f4e2a4",
"aI c #6c6a6c",
"aJ c #5c5a54",
"aK c #1c1a1c",
"aL c #d4c694",
"aM c #2c2a2c",
"aN c #bcbab4",
"aO c #0c0a0c",
"aP c #cccacc",
"aQ c #646264",
"aR c #f4de8c",
"aS c #dcc67c",
"aT c #f4e694",
"aU c #444644",
"aV c #f4eab4",
"aW c #ecda8c",
"aX c #545654",
"aY c #343634",
"aZ c #3c3e3c",
"a0 c #747674",
"a1 c #f4e6a4",
"a2 c #1c1e1c",
"a3 c #acaaac",
"a4 c #fceaa4",
"a5 c #8c8e8c",
"a6 c #f4eac4",
/* pixels */
"..........................................#V#VaO#VaOaOaOaOaOaOaOaO#VaO#V#V#V....................",
"......................................#V#V#VaOaOaO#O#O#O#O#O#O#O#O#O#OaOaOaO#V..................",
"....................................#V#VaO#O#O.uaxax#A#AaK#AaK#A#Aaxax#O#OaOaO#V#V#V............",
"................................#V#VaO#O#Oaxax#A#A#AaKaKa2aKa2aKaKa2aK#Aaxax#O#OaO#V............",
"..............................#V#VaO#Oaxax#AaKapapap#y#yaMaMaMaM.O#yapa2aK#A#Aax#OaO#V#V........",
"............................#VaO#O#Oax#AaKa2#yaM#LaYaZ#ZaUaCaUaU#Zaz#L#yapa2aK#A#O.u#O#V#V......",
"..........................#V#VaO#Oax#Aa2#yaMaY.cag#qaQaQ#Q#QaIaQakaXaCaz#L#yapaKaK#A#OaOaO#V....",
"..........................aO#O#OaxaKapaMazaUaXaIa0ad#D.V.V.V#Dad.WaG#QaX.0aYaM#ya2aK#A#OaO#V#V..",
"........................#V#O.uaxaKa2avaUat#Q.W.Vai.pa3#U#U#Ua3a.am#.#D.W#QaX#Z#L#ya2aKax#O#O#V..",
"......................#VaO#O#A#A#yaYaU#q#I.Vam#U#v.faPaP.B#PaP#1alaca3#J.Va0ak.0av#ya2#Aax#OaO#V",
"....................#V#V#OaxaKa2av.8aka0aFa.#vaPabahab#v#v#vab.e.9.B#1aca.aiadaQ.8aY#ya2aKaxaOaO",
"....................#V#O#OaxaK#L#Zaka0#.#U.fab.B#.aUax#LaY.7.haMak.Jab.Bal.JaiadaQ.8avapaKax#OaO",
"..................#VaO#Oax#A#aaYat#Ia5a3.fabacaM#p#EaR.F#Y#Yas.M#3#baJa..B.f#U#..WakaU#La2#A#A#O",
"..................#VaO#OaxaKaMaZ##aAam#vab#Ja2.X.R#Ya1#ga4aT.Z.F.s#m#Xapad.B.fa3a5#IaXazaMaKax#O",
"..................#VaO#O#Aa2avag#Ia5.JaP.Ja2#G#haW.D#9af.qa4.v.ZaTayaq.PaX.Vab#vamaA#Q.8av.h#Aax",
"................#VaO#O#Aa2apazaX.Wamal.BaU.taH.6ar#zaa#C.Uaa.q#B#d.Z.3#maLavac#P#Ua5aGaXaz#ya2ax",
"..................aO#O#Aa2#yaZaQaAa3.f.pat.saRa1#taf#K.Uafafaf.5.ZaT#YasaD.Lat.9#v#J.Wak#Z.OaKax",
"................#VaO#O.Ka2aMaZ#Q.Va3aPad.E.m#Ya4aaafafaf#K#zaa#t#o.Z.b.baS.Q#y.f#1.p#D#QaUaMa2#A",
"................#VaOaxaxa2aM.7#Qa5#U#Pak#4.m.Z#T#zafafaa.qaa.qaV#o.ZaT.b.i.j##aiaPa3.V#Q.8#La2#A",
"..............#V#V#O#OaKa2aMaZaIa5.J#P###4.maT#R#Kafaaafauau.5a6a1.ZaT#Yaq#6#naG#P#Ua5aI.8#La2aK",
"................aOaO#OaKa2aMaZaQ.Va3#1ak.S.6#S#R#C.Uafaaafaaa6aE#o#o#o#S.m.C.o.V#P.J.V#QaU#La2aK",
"..............#V#V#O#OaKa2#yaZak#Da..f.W.zaWaT#gafafaaaf#CawaV.Na1aT#Y.b#m#6.gaiaP#U.V#QaUaMap#A",
"................aOaOax#Aa2aMaz#qad.p#va.aUas.R.vau.U#8af.5awar.I#YaT#Y.w#c#2#s#v#1a.#D##aZaMaK#A",
"................#VaOax#AaKapaZaXaGa5.JaPaI.E.6#o.q#Caf.4#Ra1#gaHaT#YaW#m#H#7ag.Balamad#qazapa2#A",
"................#V#V#O#AaK#yaz.8#Q#Da..falaZasa4#8.U#K#K.k#oaHa##Y.2.AaS#e.0#J#P.JaiaGagaY#yaK#A",
"................#VaO#Oaxa2#yavaC#q.Wai.JaP#y#SaVauau#Ka6a1#Yay.3ae.A#c#6#W#k.B.fa.aAaQaUavapaKax",
"..................#V#OaxaKap#LaZat#Q#D.p#U.7.6aVaua6a6.ka##S.waB.a#H#5.laZaiaP#UaiaGaX.7#La2aK#O",
"................#V#VaO.u#Aa2#yaY.8#qaGa5.V.0.m#r#Ta#aH.F.waq#c.Qaj#x#jaOa0aPac#J.zaQagaY#ya2aK#O",
"..................#VaOaOaxaKa2#L#ZagaQ.Wak.u#kak.H#x.2.iaS.A#e.#.T#OaUa.aPacam#DaIataZava2aKax#O",
"..................#V#V#O#O#Aa2apav#ZaX#Q#kam.t#0.9.G.K#w#f.d#2.cakal#1.f.Jam.V#IaX#Zavapa2#A#O#O",
"....................#VaO#OaxaKa2aMaY#ZaX#V.KaX#N.Baa.1aXaC#7ao#y.Jalaca3ai#D#I#qaUaYaMa2aKax#OaO",
"......................aOaOax#AaKa2aMaY#L.h#1#u#l.u#N.f.W#q#Oav#.#Ua.#Ja5ad#IaXaUazaMa2aK#A#OaOaO",
"......................#V#V#Oax#Aa2ap.Oax.nab#M#C#P#LaC#Ia0#Oa5aiaF#D.WaG##at#ZavaMa2aK#AaxaO#V#V",
"........................#VaO#Oax#AaKa2..#V.raiahan.t#I.n.cava0aG#IaIakataUazaMaMa2aK#Aax#OaO#V#V",
"..........................#VaO#Oax#AaO..aN#UaC.u#.#.#IaI#AaU#qaXat.8#Zazav#Lapa2aK#AaxaOaO#V#V..",
"..........................#VaOaO#Oax..#n#1#0.xac.naUad#I#V#Z#Z#ZaZaY#L#L#yapa2aK#A#O#OaO#V......",
"..............................#V#O#O.....c.r.t#0#PaI#Z#iaKav#L#LaMaM#ya2a2aK#Aax#O#OaO#V#V......",
"..............................#V#VaO#V..#Aax#LaM.p#IaI..#Aapapapapa2aKaK#A#Aax#O#OaO#V..........",
"..................................#V#V....#O.ha2.y#Qa0..#AaKaK#A#AaK#Aaxax#O#OaOaO#V............",
"..................................#V#Vax.Y#A#AaO.rav.r#V#Aax#Aaxaxax#O#OaOaOaO#V................",
"......................................#F...u.K#O#O..aO#O#O#O#O#O#OaOaOaO#V#V#V..................",
"................................................#V#V#VaOaOaOaOaOaO#V#V#V........................",
"..................................................#V#V#V#V#V#V#V#V#V............................",
"................................................................................................",
"................................................................................................",
"................................................................................................",
"................................................................................................",
"................................................................................................"
};
