/* XPM */
static char *search[] = {
/* width height num_colors chars_per_pixel */
"    32    32      127            2",
/* colors */
".. c #000000",
".# c #8eabff",
".a c #00ffff",
".b c #00eff7",
".c c #00bede",
".d c #00bcde",
".e c #00a3d1",
".f c #0087c3",
".g c #0063b1",
".h c #ffe46b",
".i c #ffe26b",
".j c #ffe06b",
".k c #ffdf6b",
".l c #ffdd6b",
".m c #ffdc6b",
".n c #ffda6b",
".o c #ffd86b",
".p c #ffd76b",
".q c #00abd5",
".r c #001f8f",
".s c #000080",
".t c #ffd46b",
".u c #ffd36b",
".v c #ffd26b",
".w c #ffd16b",
".x c #ffd06b",
".y c #ffdb6b",
".z c #ffd96b",
".A c #ffd56b",
".B c #009acc",
".C c #002a95",
".D c #000b85",
".E c #000884",
".F c #000482",
".G c #ffc96b",
".H c #ffca6b",
".I c #ffcb6b",
".J c #ffcc6b",
".K c #ffcd6b",
".L c #ffce6b",
".M c #0062b1",
".N c #000096",
".O c #000c86",
".P c #000683",
".Q c #004fa7",
".R c #ffe48e",
".S c #001389",
".T c #ffc86b",
".U c #fffd8e",
".V c #fffc8e",
".W c #fffb8e",
".X c #fffa8e",
".Y c #fff88e",
".Z c #fff78e",
".0 c #fff68e",
".1 c #fff58e",
".2 c #fff38e",
".3 c #003d9e",
".4 c #ffef8e",
".5 c #ffed8e",
".6 c #ffc66b",
".7 c #fff98e",
".8 c #fff48e",
".9 c #fff28e",
"#. c #fff18e",
"## c #fff08e",
"#a c #ffee8e",
"#b c #ffea8e",
"#c c #ffe98e",
"#d c #ffe88e",
"#e c #ffe78e",
"#f c #ffe68e",
"#g c #ffe58e",
"#h c #c0c0c0",
"#i c #ffe08e",
"#j c #ffdf8e",
"#k c #ffeb8e",
"#l c #ffe38e",
"#m c #ffe28e",
"#n c #ffde8e",
"#o c #ffdd8e",
"#p c #ffec8e",
"#q c #ffe18e",
"#r c #ffdc8e",
"#s c #ffdb8e",
"#t c #000a85",
"#u c #ffda8e",
"#v c #ffd78e",
"#w c #ffd88e",
"#x c #ffd98e",
"#y c #00cfe7",
"#z c #00b7db",
"#A c #00a0d0",
"#B c #0088c4",
"#C c #0071b8",
"#D c #000582",
"#E c #ffd58e",
"#F c #ffd68e",
"#G c #00b9dc",
"#H c #009fcf",
"#I c #0084c2",
"#J c #006ab5",
"#K c #005dae",
"#L c #0050a8",
"#M c #0043a1",
"#N c #00a9d4",
"#O c #008cc5",
"#P c #006fb7",
"#Q c #0052a8",
"#R c #00359a",
"#S c #003298",
"#T c #003097",
"#U c #002e96",
"#V c #007fbf",
"#W c #005faf",
"#X c #003f9f",
"#Y c #001088",
"#Z c #00188c",
"#0 c #002190",
"#1 c #ffd48e",
"#2 c #0054aa",
"#3 c #00158a",
"#4 c #001087",
"#5 c #00168a",
"#6 c #000281",
"#7 c #000883",
"#8 c NONE",
/* pixels */
"#8#8#8#8#8#8#8#8#8#8#8#8#8#8#8#8#8#8#8#8#8#8#8#8#8#8#8#8#8#8#8#8",
"#8#8#8#8#8#8#8#8#8#8#8.#.#.##8#8#8#8#8#8#8#8#8#8#8#8#8#8#8#8#8#8",
"#8#8#8#8#8#8#8#8#8#8#8.#.a.a.##8#8#8#8#8#8#8#8#8#8#8#8#8#8#8#8#8",
"#8#8#8#8#8#8#8#8#8#8#8.#.b.a.c.#.#......................#8#8#8#8",
"#8#8#8#8#8#8#8#8#8#8#8#8.#.d.e.f.g.#.#.h.i.j.k.l.m.n.o.p..#8#8#8",
"#8#8#8...................#.q.f.f.r.s.s.#.#.t.u.u.v.v.w.w.x..#8#8",
"#8#8...i.k.l.y.z.p.A.v.x.#.B.f.f.C.s.D.E.F.#.#.G.H.H.I.I.J.K..#8",
"#8#8...i.k.l.y.z.p.A.v.x.L.#.M.N.N.N.N.s.s.O.P.#.#.H.I.I.J.K..#8",
"#8#8...t...................#.Q.N.....R.N.N.N.N.S.s.#.T.T.T.G..#8",
"#8#8.....U.V.W.X.Y.Z.0.1.2.#.3.N.4.5...........N.N.s.N.....6..#8",
"#8#8...V.X.7.Y.0.1.8.9#.###a.#.s.N#b#c#d#e#f#g.R#h.s.N#i#j....#8",
"#8#8...7.Z.0.1.2.9#..4#a.5#k.#.s.N#e#f#g.R#l#m#m#h.s.N#n#o#o..#8",
"#8#8...0.8.2#.##.4.5#p#b#c#d#f.#.s.N#m#m#q#i#i#j#h.s.N#o#r#r..#8",
"#8#8...8.9#..4#a#p#k#c#d#f#g#l.#.E.N#i#j#j#j#n#h.s.N#o#r#r#r..#8",
"#8#8..#..4#a#p#k#c#d#f#g#l#m#i.#.P.N#o#o#o#r#h.s.N#s#s#s#s#s..#8",
"#8#8..#a#p#b#c#e#f.R#l#q#i#n#o#s.##t.N#u#u#u#h.N#u#u#u#u#u#u..#8",
"#8#8..#k#c#e#f.R#l#q#i.#.#.#.#.#.#.E.N#v#v#v#v#w#w#w#w#w#w#x..#8",
"#8#8..#c#e#g.R#m#i#j.##y#z#A#A#B#C#D.N#E#E#E#F#F#v#v#v#w#w#x..#8",
"#8#8..#c#e#g.R#m#i.##G#H#I#J#J#K#L#M.F.N#E#E#F#F#v#v#v#w#w#x..#8",
"#8#8..#f.R#l#q#i.##N#O#P#Q#R#R#S#T#U.s.N#E#E#E#F#F#F#v#v#v#w..#8",
"#8#8..#l#q#i#j#n.##V#W#X.r.s.D.E#Y#Z#0.N#1#E#E#E#E#F#F#F#F#v..#8",
"#8#8..#q#i#j#n#o.##2#X.C#3.s.s#D.D#4#5.N#1#E#E#E#E#F#F#F#F#v..#8",
"#8#8..#n#o#r#s#u#u.N.r#3#t.s.s#6#D#7.N#1#1#1#1#E#E#E#E#E#E#F..#8",
"#8#8..#s#u#x#x#w#w#v.N.s.s.s.s.s.s.N#1#1#1#1#1#1#1#1#1#1#1#E..#8",
"#8#8..#x#w#w#v#v#v#F#F.N.N.N.N.N.N#1#1#1#1#1#1#1#1#1#1#1#1#E..#8",
"#8#8..#F#E#E#E#E#E#E#1#1#1#1#1#1#1#1#1#1#1#1#1#1#1#1#1#1#1#1..#8",
"#8#8..#1#1#1#1#1#1#1#1#1#1#1#1#1#1#1#1#1#1#1#1#1#1#1#1#1#1#1..#8",
"#8#8..........................................................#8",
"#8#8#8#8#8#8#8#8#8#8#8#8#8#8#8#8#8#8#8#8#8#8#8#8#8#8#8#8#8#8#8#8",
"#8#8#8#8#8#8#8#8#8#8#8#8#8#8#8#8#8#8#8#8#8#8#8#8#8#8#8#8#8#8#8#8",
"#8#8#8#8#8#8#8#8#8#8#8#8#8#8#8#8#8#8#8#8#8#8#8#8#8#8#8#8#8#8#8#8",
"#8#8#8#8#8#8#8#8#8#8#8#8#8#8#8#8#8#8#8#8#8#8#8#8#8#8#8#8#8#8#8#8"
};
