/* XPM */
static char *server[] = {
/* width height num_colors chars_per_pixel */
"    32    32      198            2",
/* colors */
".. c #000000",
".# c #808080",
".a c #b0b0b0",
".b c #ababab",
".c c #a6a6a6",
".d c #a2a2a2",
".e c #9d9d9d",
".f c #989898",
".g c #949494",
".h c #929292",
".i c #919191",
".j c #909090",
".k c #8e8e8e",
".l c #8d8d8d",
".m c #8c8c8c",
".n c #040404",
".o c #787878",
".p c #757575",
".q c #737373",
".r c #717171",
".s c #6f6f6f",
".t c #6d6d6d",
".u c #6b6b6b",
".v c #6a6a6a",
".w c #696969",
".x c #686868",
".y c #676767",
".z c #7a7a7a",
".A c #626262",
".B c #aeaeae",
".C c #00ff00",
".D c #fffbf0",
".E c #000080",
".F c #1700e7",
".G c #2f00cf",
".H c #4600b7",
".I c #5e00a0",
".J c #750088",
".K c #8d0071",
".L c #a40059",
".M c #b8b7b7",
".N c #98989b",
".O c #919193",
".P c #8a8a8b",
".Q c #888888",
".R c #868686",
".S c #777777",
".T c #a8a8a8",
".U c #fbf7ec",
".V c #0000ff",
".W c #a0a0a4",
".X c #a0005d",
".Y c #5e0042",
".Z c #b7b6b6",
".0 c #9c9c9c",
".1 c #f7f3e9",
".2 c #4d00b0",
".3 c #57004e",
".4 c #be003f",
".5 c #b6b5b5",
".6 c #a5a5a5",
".7 c #747474",
".8 c #a3a3a3",
".9 c #f3efe6",
"#. c #2000bf",
"## c #850079",
"#a c #440075",
"#b c #be0040",
"#c c #5c0045",
"#d c #c60037",
"#e c #660031",
"#f c #b5b4b4",
"#g c #727272",
"#h c #efebe3",
"#i c #83007a",
"#j c #430077",
"#k c #bf003e",
"#l c #6b0028",
"#m c #dc0021",
"#n c #6a0028",
"#o c #d80025",
"#p c #b4b3b3",
"#q c #a0a0a0",
"#r c #ebe7e0",
"#s c #40007f",
"#t c #bf003f",
"#u c #6a002a",
"#v c #ff0000",
"#w c #7a000b",
"#x c #ee0010",
"#y c #6f0021",
"#z c #b3b2b2",
"#A c #707070",
"#B c #e7e4dd",
"#C c #b1004b",
"#D c #60003f",
"#E c #e50019",
"#F c #800000",
"#G c #f80006",
"#H c #770010",
"#I c #ea0013",
"#J c #b2b1b2",
"#K c #909093",
"#L c #9a9a9a",
"#M c #e3e0d9",
"#N c #d80026",
"#O c #750015",
"#P c #7d0005",
"#Q c #f40009",
"#R c #b1b0b1",
"#S c #dfdcd6",
"#T c #750014",
"#U c #f2000c",
"#V c #fb0003",
"#W c #7c0005",
"#X c #b0afb0",
"#Y c #959595",
"#Z c #6c6c6c",
"#0 c #dbd8d3",
"#1 c #afaeaf",
"#2 c #d7d4d0",
"#3 c #aeadae",
"#4 c #d3d0cd",
"#5 c #c0bebd",
"#6 c #b6b5b6",
"#7 c #adacae",
"#8 c #a4a4a7",
"#9 c #a5a5a8",
"a. c #a7a7a9",
"a# c #a9a8aa",
"aa c #abaaab",
"ab c #adacad",
"ac c #ffff00",
"ad c #cfcdca",
"ae c #a2a2a5",
"af c #a7a6a9",
"ag c #a9a8ab",
"ah c #acabad",
"ai c #828284",
"aj c #757576",
"ak c #717172",
"al c #6e6e6e",
"am c #cccccc",
"an c #d2d0cc",
"ao c #cbc9c6",
"ap c #b9b8b8",
"aq c #a8a8aa",
"ar c #a6a6a8",
"as c #abaaac",
"at c #8b8b8b",
"au c #c7c5c3",
"av c #afaeb0",
"aw c #a7a7aa",
"ax c #a2a1a5",
"ay c #a4a3a6",
"az c #a6a5a8",
"aA c #a8a7a9",
"aB c #aaa9ab",
"aC c #c0c0c0",
"aD c #898989",
"aE c #c3c1c0",
"aF c #b5b3b4",
"aG c #aeadaf",
"aH c #a1a1a5",
"aI c #a3a3a6",
"aJ c #a5a4a7",
"aK c #a7a6a8",
"aL c #666666",
"aM c #bfbebd",
"aN c #b2b2b3",
"aO c #acacae",
"aP c #a6a6a9",
"aQ c #a3a2a6",
"aR c #a8a7aa",
"aS c #878787",
"aT c #656565",
"aU c #bbbaba",
"aV c #b0afb1",
"aW c #aaaaac",
"aX c #a2a2a6",
"aY c #a4a3a7",
"aZ c #a5a4a8",
"a0 c #b7b6b7",
"a1 c #adadaf",
"a2 c #848484",
"a3 c #646464",
"a4 c #b3b2b3",
"a5 c #abaaad",
"a6 c #838383",
"a7 c #636363",
"a8 c #afafb0",
"a9 c #a9a9ab",
"b. c #828282",
"b# c #ababad",
"ba c #a1a0a4",
"bb c #818181",
"bc c #a3a3a7",
"bd c None",
/* pixels */
"bdbdbdbdbdbdbdbdbdbdbdbdbd.#.#.#.#.#.#.#.#.#.#.#.#.#.#.#bdbdbdbd",
"bdbdbdbdbdbdbdbdbdbdbdbd.#.a.b.c.d.e.f.g.g.h.i.j.k.l.m.nbdbdbdbd",
"bdbdbdbdbdbdbdbdbdbdbdbd.#.o.p.q.r.s.t.u.u.v.w.w.x.y.y.nbdbdbdbd",
"bdbdbdbdbdbdbdbdbdbdbdbd.#.a.b.c.d.e.f.g.g.z.i.z.z.l.z.nbdbdbdbd",
"bdbdbd.#.#.#.#.#.#.#.#.#.A.A.A.A.A.A.A.A.B.o.C.o.o.C.o.nbdbdbdbd",
"bdbd.#.D.E.F.G.H.I.J.K.L.E.M.N.O.P.Q.R.n.b.S.T.S.S.T.S.nbdbdbdbd",
"bdbd.#.U.E.V.W.W.W.W.X.Y.E.Z.0.N.P.P.R.n.T.p.C.p.p.C.p.nbdbdbdbd",
"bdbd.#.1.E.2.W.W.W.W.3.4.E.5.N.O.P.Q.R.n.6.7.8.7.7.8.7.nbdbdbdbd",
"bdbd.#.9.E#.###a#b#c#d#e.E#f.0.N.P.P.R.n.8#g.C#g#g.C#g.nbdbdbdbd",
"bdbd.##h.E#i#j#k#l#m#n#o.E#p.N.O.P.Q.R.n#q.r.e.r.r.e.r.nbdbdbdbd",
"bdbd.##r.E#s#t#u#v#w#x#y.E#z.N.O.P.Q.R.n.e#A.C#A#A.C#A.nbdbdbdbd",
"bdbd.##B.E#C#D#E#F#G#H#I.E#J#K.N.P.P.R.n#L.s.f.s.s.f.s.nbdbdbdbd",
"bdbd.##M.E#D#N#O#v#P#Q#H.E#R.N.O.P.Q.R.n.f.t.C.t.t.C.t.nbdbdbdbd",
"bdbd.##S.E#o#T#U#F#V#W#Q.E#X.N.O.P.Q.R.n#Y#Z.h#Z#Z.h#Z.nbdbdbdbd",
"bdbd.##0.E#F#U#F#v#F#V#F.E#1.N.O.P.Q.R.n.h.v.C.v.v.C.v.nbdbdbdbd",
"bdbd.##2.E.E.E.E.E.E.E.E.E#3.N.O.P.Q.R.n.j.w.j.w.w.j.w.nbdbdbdbd",
"bdbd.##4.A#5#6#7#8#9a.a#aaab.N.O.P.Q.R.n.k.wac.w.wac.w.nbdbdbdbd",
"bdbd.#ad.A.C.C.C.Wae#8afagah#Kaiajakal.n.l.x.l.x.x.l.x.nbdbdbdbd",
"bdbd.#ad.A.C.C.C.Wae#8afagah.0amaman.0.n.m.xac.x.xac.x.nbdbdbdbd",
"bdbd.#ao.Aap#Raq.Wae#8araqas#Kaiajakal.nat.yat.y.yat.y.nbdbdbdbd",
"bdbd.#au.A.Zavaw.WaxayazaAaB.0aCaman.0.naD.yaD.y.yaD.y.nbdbdbdbd",
"bdbd.#aE.AaFaGaf.WaHaIaJaKa##Kaiajakal.n.QaL.QaLaL.QaL.nbdbdbdbd",
"bdbd.#aM.AaNaOaP.WaHaQ#8azaR.0amaman.0.naSaTaSaTaTaSaT.nbdbdbdbd",
"bdbd.#aU.AaVaW#9.WaHaXaYaZaf#Kaiajakal...RaT.RaTaT.RaT.nbdbdbdbd",
"bdbd.#a0.Aa1..............az.0amaman.0.na2a3a2a3a3a2a3.nbdbdbdbd",
"bdbd.#a4.Aa5aw.#.#.#.#.#ayaJ#Kaiajakal.na6a7a6a7a7a6a7.nbdbdbdbd",
"bdbd.#a8.Aa9araI.W.WaHaxaQaY.0aCaman.0.nb.a7b.a7a7b.a7.nbdbdbdbd",
"bdbd.#b#.AaP#8ae.W.WbaaHaxaQ#Kaiajakal.nbb.Abb.A.Abb.A.nbdbdbdbd",
"bdbd.#aw.A#8aXaH.W.W.Wbabaax.0amaman.0.n.#.A.#.A.A.#.A.nbdbdbdbd",
"bdbd.#bc.AaHaH.W.W.W.W.W.Wba#Kaiajakal.n.n.n.n.n.n.n.n.nbdbdbdbd",
"bdbd.#.W.A.W.W.W.W.W.W.W.W.W.0amaman.0.nbdbdbdbdbdbdbdbdbdbdbdbd",
"bdbd.n.n.n.n.n.n.n.n.n.n.n.n.n.n.n.n.n.nbdbdbdbdbdbdbdbdbdbdbdbd"
};
