/* XPM */
static char * speedgray_xpm[] = {
"10 10 25 1",
" 	c None",
".	c #333333",
"+	c #424242",
"@	c #6C6C6C",
"#	c #858585",
"$	c #7F7F7F",
"%	c #616161",
"&	c #3F3F3F",
"*	c #8D8D8D",
"=	c #909090",
"-	c #7A7A7A",
";	c #717171",
">	c #3C3C3C",
",	c #989898",
"'	c #878787",
")	c #7D7D7D",
"!	c #747474",
"~	c #585858",
"{	c #696969",
"]	c #777777",
"^	c #6F6F6F",
"/	c #676767",
"(	c #6A6A6A",
"_	c #565656",
":	c #656565",
"   ....   ",
" .+@#$%&. ",
" +*=*#-;> ",
".@=,=')!~.",
".#*=*#-;{.",
".$#'#$]^/.",
".%-)-];(_.",
" &;!;^(:> ",
" .>~{/_>. ",
"   ....   "};
