/* XPM */
static char * speedyellow_xpm[] = {
"10 10 27 1",
" 	c None",
".	c #000000",
"+	c #282700",
"@	c #909000",
"#	c #CCCB00",
"$	c #BFBE00",
"%	c #777600",
"&	c #1E1D00",
"*	c #DFDE00",
"=	c #E8E800",
"-	c #B7B600",
";	c #A1A000",
">	c #1B1A00",
",	c #FFFF00",
"'	c #D1D100",
")	c #BBBA00",
"!	c #A4A300",
"~	c #616000",
"{	c #8B8900",
"]	c #ADAC00",
"^	c #999800",
"/	c #858300",
"(	c #9F9D00",
"_	c #8D8C00",
":	c #575500",
"<	c #7F7D00",
"[	c #181800",
"   ....   ",
" .+@#$%&. ",
" +*=*#-;> ",
".@=,=')!~.",
".#*=*#-;{.",
".$#'#$]^/.",
".%-)-](_:.",
" &;!;^_<[ ",
" .>~{/:[. ",
"   ....   "};
