/* XPM */
static char * speedred_xpm[] = {
"10 10 19 1",
" 	c None",
".	c #000000",
"+	c #240000",
"@	c #850000",
"#	c #BB0000",
"$	c #A90000",
"%	c #640000",
"&	c #180000",
"*	c #D40000",
"=	c #E00000",
"-	c #9F0000",
";	c #820000",
">	c #FF0000",
",	c #C20000",
"'	c #A40000",
")	c #860000",
"!	c #570000",
"~	c #7F0000",
"{	c #920000",
"   ....   ",
" .+@#$%&. ",
" +*=*#-;& ",
".@=>=,')!.",
".#*=*#-;~.",
".$#,#${~~.",
".%-'-{~~!.",
" &;);~~~& ",
" .&!~~!&. ",
"   ....   "};
