/* XPM */
static char *statistic[] = {
/* width height num_colors chars_per_pixel */
"    32    32      141            2",
/* colors */
".. c None",
".# c #000080",
".a c #ffffff",
".b c #fefefe",
".c c #800000",
".d c #fdfdfd",
".e c #fcfcfc",
".f c #fbfbfb",
".g c #fafafa",
".h c #f9f9f9",
".i c #f8f8f8",
".j c #f9f9fa",
".k c #f8f8f9",
".l c #f7f7f8",
".m c #f6f6f7",
".n c #f5f5f6",
".o c #f4f4f5",
".p c #f6f6f6",
".q c #f5f5f5",
".r c #f4f4f4",
".s c #f3f3f3",
".t c #f2f2f2",
".u c #f1f1f1",
".v c #f1f1f2",
".w c #f0f0f0",
".x c #eeeeef",
".y c #ededee",
".z c #f2f2f3",
".A c #efeff0",
".B c #ebebec",
".C c #eaeaeb",
".D c #fafafb",
".E c #f7f7f7",
".F c #efefef",
".G c #ededed",
".H c #ebebeb",
".I c #e9e9e9",
".J c #e7e7e8",
".K c #fbfbfc",
".L c #ececed",
".M c #eaeaea",
".N c #e5e5e6",
".O c #e3e3e4",
".P c #fcfcfd",
".Q c #e2e2e3",
".R c #e0e0e1",
".S c #f3f3f4",
".T c #e7e7e9",
".U c #e4e4e6",
".V c #e1e1e3",
".W c #dedee0",
".X c #dcdcde",
".Y c #ececec",
".Z c #e8e8e9",
".0 c #dfdfe0",
".1 c #dcdcdd",
".2 c #d9d9da",
".3 c #e6e6e7",
".4 c #dfdfe1",
".5 c #d8d8da",
".6 c #d5d5d7",
".7 c #fdfdfe",
".8 c #e4e4e5",
".9 c #e1e1e2",
"#. c #ddddde",
"## c #d9d9db",
"#a c #d2d2d4",
"#b c #dbdbdc",
"#c c #d7d7d8",
"#d c #d3d3d4",
"#e c #cfcfd1",
"#f c #dadadc",
"#g c #d6d6d8",
"#h c #ceced0",
"#i c #cbcbcd",
"#j c #f0f0f1",
"#k c #eeeeee",
"#l c #d3d3d5",
"#m c #c8c8ca",
"#n c #cbcbce",
"#o c #c7c7ca",
"#p c #c4c4c7",
"#q c #e5e5e7",
"#r c #d7d7d9",
"#s c #cfcfd2",
"#t c #ccccce",
"#u c #c8c8cb",
"#v c #c1c1c4",
"#w c #e9e9ea",
"#x c #c5c5c7",
"#y c #bebec0",
"#z c #dddddf",
"#A c #c1c1c3",
"#B c #bababd",
"#C c #dadadb",
"#D c #b7b7ba",
"#E c #d5d5d6",
"#F c #b4b4b7",
"#G c #d8d8d9",
"#H c #d1d1d2",
"#I c #cacacc",
"#J c #c4c4c6",
"#K c #bdbdc0",
"#L c #b6b6ba",
"#M c #b0b0b4",
"#N c #d4d4d5",
"#O c #cdcdce",
"#P c #c7c7c8",
"#Q c #c0c0c2",
"#R c #bababc",
"#S c #b6b6b9",
"#T c #b3b3b6",
"#U c #adadb0",
"#V c #e3e3e5",
"#W c #d1d1d3",
"#X c #c2c2c5",
"#Y c #bcbcbf",
"#Z c #b0b0b3",
"#0 c #aaaaad",
"#1 c #d2d2d3",
"#2 c #cdcdcf",
"#3 c #bebec1",
"#4 c #b8b8bb",
"#5 c #b2b2b5",
"#6 c #acacaf",
"#7 c #a6a6aa",
"#8 c #e0e0e2",
"#9 c #dededf",
"a. c #c9c9cb",
"a# c #c7c7c9",
"aa c #bbbbbd",
"ab c #b5b5b8",
"ac c #afafb2",
"ad c #a9a9ac",
"ae c #a3a3a7",
"af c #c3c3c5",
"ag c #bdbdbf",
"ah c #b1b1b4",
"ai c #ababaf",
"aj c #a5a5a9",
"ak c #a0a0a4",
/* pixels */
"...#.#...#.#.#.#.#.#.#.#.#.#.#.#.#.#.#.#.#.#.#.#.#.#.#.#.#.#.#.#",
".........#.a.a.a.a.a.a.a.a.a.a.a.a.a.a.a.a.a.a.a.a.a.a.a.a.a.a.#",
".........#.b.b.b.b.b.b.c.b.b.b.b.b.a.a.b.b.b.d.d.d.e.e.e.f.f.f.#",
".........#.d.d.d.d.d.d.c.b.b.b.b.b.a.a.b.d.d.e.e.f.g.g.h.h.i.i.#",
".........#.e.e.e.e.d.d.c.d.b.b.c.b.a.a.b.d.c.f.g.j.k.l.m.n.o.o.#",
".........#.f.f.f.e.e.e.c.d.d.b.c.b.a.a.d.e.c.g.h.i.p.q.r.s.t.u.#",
"...#.#...#.g.g.g.f.f.e.c.e.c.d.c.b.a.a.d.e.c.h.c.p.o.s.v.w.x.y.#",
".........#.h.h.g.g.f.f.c.e.c.d.c.b.a.a.d.f.c.i.c.o.z.u.A.y.B.C.#",
".........#.k.k.j.j.D.D.c.e.c.d.c.b.a.a.d.f.c.E.c.s.u.F.G.H.I.J.#",
".........#.l.l.k.h.j.g.c.K.c.d.c.b.a.a.e.g.c.n.c.u.x.L.M.J.N.O.#",
".........#.m.m.l.k.h.j.c.f.c.P.c.b.a.a.e.j.c.o.c.A.L.C.J.N.Q.R.#",
".........#.n.n.m.l.k.h.c.D.c.e.c.b.a.a.e.h.c.S.c.y.C.T.U.V.W.X.#",
".........#.o.o.n.m.l.k.c.g.c.e.c.b.a.a.c.i.c.t.c.Y.Z.N.Q.0.1.2.#",
"...#.#...#.S.r.q.p.E.i.c.g.c.e.c.b.a.a.c.i.c.u.c.C.3.O.4.1.5.6.#",
".........#.z.S.o.n.m.l.c.j.c.K.c.7.a.a.c.E.c.w.c.Z.8.9#.##.6#a.#",
".........#.z.S.o.n.m.l.c.j.c.K.c.7.a.a.c.E.c.F.c.J.O.0#b#c#d#e.#",
".........#.v.v.z.S.r.o.c.p.c.l.c.h.g.g.c.t.c.C.c.Q.c#f#g#a#h#i.#",
".........##j#j.u.v.t.z.c.s.c.r.c.q.p.p.c#k.c.3.c.0.c#c#l#e#i#m.#",
".........#.A.A.A.A.w.w.c#j.c.u.c.u.t.t.c.M.c.Q.c#b.c#l#e#n#o#p.#",
".........#.x.y.y.y.y.y.c.y.c.y.c.y.y.y.c#q.c.W.c#r.c#s#t#u.c#v.#",
"...#.#...#.y.L.L.L.B.B.c.C.c.C.c#w#w#w.c.V.c#f.c#l.c#t#m#x.c#y.#",
".........#.L.B.C.C#w#w.c.J.c.3.c.N.c.N.c#z.c#g.c#e.c#m#p#A.c#B.#",
".........#.L.B.C#w.Z.J.c.N.c.O.c.9.c.9.c#C.c#d.c#t.c#x#v#y.c#D.#",
".........#.B#w.Z.J.c.8.c.Q.c.0.c#..c.1.c#E.c#h.c#m.c#A#y#B.c#F.#",
".........#.C.Z.J.N.c.Q.c.0.c.1.c.2.c#G.c#H.c#I.c#J.c#K#B#L.c#M.#",
".........##w.J.N.O.c.R.c.1.c.2.c#E.c#N.c#O.c#P.c#Q.c#R#S#T.c#U.#",
"...#.#...#.Z#q#V.V.c#z.c##.c.6.c#W.c#e.c#u.c#X.c#Y.c#S#T#Z.c#0.#",
".........#.J.8.Q.R.c#b.c#g.c#1.c#2.c#i.c#p.c#3.c#4.c#5.c#6.c#7.#",
".........#.3.O#8#9.c.2.c#l.c#h.ca..ca#.c#A.caa.cab.cac.cad.cae.#",
".........#.3.O.c#..c#c.c#W.c#i.c#x.caf.cag.c#D.cah.cai.caj.cak.#",
".........#.#.#.#.#.#.#.#.#.#.#.#.#.#.#.#.#.#.#.#.#.#.#.#.#.#.#.#",
"................................................................"
};
