/* XPM */
static char *transfer[] = {
/* width height num_colors chars_per_pixel */
"    32    32       24            1",
/* colors */
". c #000000",
"# c None",
"a c #000080",
"b c #808000",
"c c #c0c0c0",
"d c #808080",
"e c #0000ff",
"f c #00ff00",
"g c #ffff00",
"h c #ffffff",
"i c #fffbf0",
"j c #a0a0a4",
"k c #0000dc",
"l c #0000b9",
"m c #000096",
"n c #f2f2f2",
"o c #e6e6e6",
"p c #dadada",
"q c #cecece",
"r c #c2c2c2",
"s c #b6b6b6",
"t c #aaaaaa",
"u c #9e9e9e",
"v c #929292",
/* pixels */
"###############ddddddddddddddd##",
"##############diinnoooooppppd.##",
"#############dnnnooooopppppdd.##",
"#############dnaaaaaaaaaaaqdd.##",
"#############doaekkkkkkklaqdd.##",
"#############doakhkkkklllardd.##",
"#############dpakhlllllllacdd.##",
"#############dpakklllllllacdd.##",
"#############dpalllllllmmasdd.##",
"#############dqallllmmmmmasdd.##",
"#############dqaaaaaaaaaaatdd.##",
"####dddddddddddddddssssstttdd.##",
"###diinnoooooppppd.ssstfftjd.dd#",
"##dnnnooooopppppdd..........ddd.",
"##dnaaaaaaaaaaaqdd.dddddddddddd.",
"##doaekkkkkkklaqdd.oooospspspdd.",
"##doakhkkkklllardd.pppptqtqtqdd.",
"##dpakhlllllllacdd.dqqqjrjcjcdd.",
"##dpakklllllllacdd.cccsusujutdd.",
"##dpalllllllmmasdd.ssttvtvjvjd.#",
"##dqallllmmmmmasdd............##",
"##dqaaaaaaaaaaatdd.######.d#####",
"##drrccsssssstttdd.######.d#####",
"##dcccssssstfftjd.dd#####.d#####",
"##d..............ddd.####.d#####",
"#ddddddddddddddddddd.###ddd#####",
"diiinnnnoooospspspdd...dbbb.....",
"dooooopppppptqtqtqdd.dd.hgb.dddd",
"dpdddddddqqqjrjcjcdd.###...#####",
"dqqqqrrrcccsusujutdd.###########",
"dcffssssssttvtvjvjd.############",
"#..................#############"
};
