/* XPM */
static char *user_on[] = {
/* width height num_colors chars_per_pixel */
"    16    16       35            1",
/* colors */
". c #047a04",
"# c #9cce9c",
"a c #0cb20c",
"b c #04a204",
"c c #d4f2d4",
"d c #3cd23c",
"e c #bce6bc",
"f c #248e24",
"g c #1cca14",
"h c #c4f6c4",
"i c #048e04",
"j c #24a224",
"k c #34de2c",
"l c #acd6ac",
"m c #14be14",
"n c #04aa04",
"o c #a4cea4",
"p c #1cb21c",
"q c #0c9204",
"r c #3ce634",
"s c #ccfacc",
"t c #047e04",
"u c #0cb60c",
"v c #04a604",
"w c #fcfefc",
"x c #4cda44",
"y c #b4eeb4",
"z c #2c922c",
"A c #1cca1c",
"B c #049204",
"C c #3ce234",
"D c #04ae04",
"E c #a4d2a4",
"F c #ccf6cc",
". c None",
/* pixels */
"w...............",
"Fx..............",
"skAd............",
"FrumAd..........",
"sCanDmgd........",
"hravnvDmAd......",
"hrannnnvDmgd....",
"hkavnvnnnnDmAd..",
"hrannnnvnvnbBqje",
"hrannvnnnvitf#..",
"hrannnnbi.f#....",
"hkavnbi.z#......",
"hravi.fE........",
"hkB.zo..........",
"hpzE............",
"cl.............."
};
