/* XPM */
static char *add_to_friends[]={
"32 32 180 2",
"Qt c None",
"aC c #000000",
".# c #020204",
".s c #060204",
".2 c #060604",
".r c #0a0204",
".1 c #0a0604",
"#u c #0a0a04",
"#e c #0a0a0c",
".f c #0e0604",
".H c #0e0a04",
"#F c #0e0e0c",
".A c #120604",
".3 c #121214",
"ad c #16120c",
"#p c #161614",
".a c #1a0a04",
".0 c #1a0e04",
"#. c #1a1a14",
"#g c #1a1a1c",
".d c #1e0e04",
"#y c #1e1a14",
"#f c #1e1e1c",
".e c #220e04",
".U c #221204",
"#E c #221e1c",
"#7 c #222224",
"#G c #262214",
".c c #2a1204",
"#o c #2a1604",
".5 c #2e1604",
"aN c #2e261c",
"#h c #2e2a24",
"#D c #322a24",
"aJ c #323234",
".b c #361604",
"aM c #36261c",
"#6 c #362a1c",
"#1 c #36322c",
"aT c #363634",
".g c #3a1a04",
"#Q c #3a2e24",
".4 c #3a3a3c",
"aD c #3e3224",
"#x c #3e362c",
".t c #421a04",
"#A c #423a2c",
".9 c #4a260c",
"#t c #4a3e34",
".Z c #4e2e14",
"#v c #4e3a2c",
".T c #524234",
".S c #5a3e24",
"#X c #5a4234",
"#3 c #5e3a24",
".R c #5e3e24",
"#C c #5e4e3c",
"aQ c #5e523c",
".Q c #62320c",
"ap c #626264",
".Y c #66360c",
"#J c #664224",
"#Y c #66563c",
".q c #6a2e04",
".8 c #6a360c",
"am c #6e5a44",
"aX c #6e5a4c",
".I c #723204",
".P c #723e14",
"#w c #72563c",
"aE c #725e4c",
"av c #727274",
".z c #763604",
"#n c #76563c",
"#Z c #76624c",
"au c #767674",
".h c #7a3604",
".G c #7a3a04",
"aw c #7e664c",
"as c #7e6654",
"aS c #7e6e54",
"ab c #826e54",
"#2 c #827254",
".F c #8a4204",
".p c #8e3e04",
".i c #8e4204",
"at c #8e765c",
"#K c #8e7a5c",
"#N c #8e7e5c",
"#i c #925e34",
"ar c #927e64",
".u c #9a4604",
".j c #9e4604",
"#L c #9e8e6c",
".E c #a64a04",
".D c #a64e04",
".N c #a65204",
"## c #a68a64",
"#m c #a68e6c",
"aR c #a68e74",
"aU c #a69274",
"a. c #aa3a04",
".O c #aa4e04",
".C c #aa5204",
".M c #aa5604",
"#I c #aa8e64",
"aW c #aa926c",
"#S c #aa966c",
".o c #ae4e04",
".B c #ae5204",
"#R c #ae966c",
"al c #ae9674",
"aP c #ae9a7c",
"aK c #ae9a84",
".w c #b25204",
".x c #b25604",
".X c #b2560c",
"aj c #b29a74",
"aG c #b29a7c",
"a# c #b64e0c",
".k c #b65204",
".L c #b6560c",
".n c #ba5204",
".v c #ba5604",
".K c #ba5a04",
".W c #ba621c",
"an c #ba9e7c",
".m c #be5604",
".J c #be5a04",
"aF c #bea284",
"#M c #bea684",
"ax c #beaa84",
".y c #c25604",
".l c #c25a04",
".V c #c25e0c",
"#d c #c27a34",
"ak c #c2c2c4",
".6 c #c66e24",
"#j c #c69254",
".7 c #ce8644",
"#k c #ce9a5c",
"aL c #cfac7f",
"ai c #cfb07f",
"aq c #d1a76c",
"ac c #d7b182",
"#r c #dba663",
"ag c #dbad6b",
"#s c #dcaf6d",
"#q c #dcb674",
"#W c #dfb274",
"ae c #dfb67c",
"aB c #dfba84",
"aH c #e0b684",
"ay c #e0ba84",
"aI c #e0bb84",
"aa c #e3b683",
"#z c #e3ba83",
"aV c #e3ba84",
"af c #e3be8b",
"#9 c #e3be8c",
"#l c #e7b683",
"#a c #e7be8b",
"aA c #e7c183",
"az c #e7c18b",
"ao c #e7c192",
"#8 c #e7c592",
"#c c #ebbe8b",
"#V c #ebc592",
"aO c #ebc59a",
"#H c #ebc99a",
"ah c #ebcd9a",
"#T c #efc18b",
"#0 c #efc59a",
"#5 c #efc99a",
"#O c #efcd9a",
"#P c #efcda1",
"#B c #efd0a1",
"#U c #f2cda1",
"#b c #f2d0a1",
"#4 c #f2d4a1",
"QtQtQtQtQtQtQtQtQtQtQtQtQtQtQtQtQtQtQtQtQtQtQtQtQtQtQtQtQtQtQtQt",
"QtQtQtQtQtQtQtQtQtQtQtQt.#.a.b.c.d.d.e.a.f.f.#QtQtQtQtQtQtQtQtQt",
"QtQtQtQtQtQtQtQtQt.e.c.b.g.h.i.j.k.l.m.n.o.p.q.rQtQtQtQtQtQtQtQt",
"QtQtQtQtQtQtQt.s.t.u.m.l.l.v.k.w.w.k.x.w.n.y.j.z.AQtQtQtQtQtQtQt",
"QtQtQtQtQtQt.s.t.w.y.y.m.m.v.w.B.C.D.w.v.k.m.E.F.G.HQtQtQtQtQtQt",
"QtQtQtQtQtQt.s.I.y.J.J.m.K.L.M.N.N.C.o.o.O.i.P.Q.R.S.TQtQtQtQtQt",
"QtQtQtQtQtQtQt.U.j.y.V.V.W.K.X.N.D.O.D.F.Y.Z.0.#.1.2.#.3.4QtQtQt",
"QtQtQtQtQtQtQtQt.5.u.u.6.7.6.u.m.D.F.8.9.0.#.#.#.#.#.#.#.s#.QtQt",
"QtQtQtQtQtQtQtQtQt.H###a#b#c#d.u.P.9.U.#.#.#.##e#f#g#h#e.#.#.#Qt",
"QtQtQtQtQtQtQtQtQt.##i#j#k#l#m#n#o.f.#.#.#.##p#g.3.3#f#p.2.#.#.#",
"QtQtQtQtQtQtQtQtQt.##q#b#b#r#s#t.#.#.#.#.#.#.2.2.#.##u#p.3.#.#.#",
"QtQtQtQtQtQtQtQtQt.##v#w#l#b#b#x#u.#.#.#.#.#.#.#.#.#.#.3.3.2.#.#",
"QtQtQtQtQtQtQtQtQt#y#z#A#B#b#b#C#x#D#E#F#G#E#p.#.#.#.#.#.2.3.#.#",
"QtQtQtQtQtQtQtQt#D#q#H#B#b#b#B#I#J#E#K#L#M#K#x#p.#.#.#.#.#.#.#.#",
"QtQtQtQtQtQtQt#p#N#b#b#O#b#b#P#c#d#Q#R#b#b#z#N#h.#.#.2#F#u.#.#.#",
"QtQtQtQtQtQtQt.2#b#b#S#T#U#b#b#V#W#X#Y#Z#b#0#V#..##1#2#N#K.1.#.#",
"QtQtQtQtQtQtQtQt.##3#J#k#T#b#4#5#s#6#z#A#b#O#b.##7#N#8#8#9#K.2.#",
"QtQtQtQtQtQtQtQt.#a.a#.W#d#b#5aaabac#O#5#b#4#bad#A#M#V#Y#8#L#u.#",
"QtQtQtQtQtQtQtQt.#ae#4#b#b#baf#2ag#5#O#H#O#bahai#z#O#A#K#baj.2.#",
"QtQtQtQtQtQtQtQtak#R#b#b#baaalaman#b#b#Z#O#b#b#U#b#Pao#a#b#K.#.#",
"QtQtQtQtQtQtQtQtQtapaa#baqarasat#C#v#Kaf#b#5#B#b#b#b#B#b#K#..#.#",
"QtQtQtQtQtQtQtQtQtQtauapapavawaxar#Cay#b#b#b#K#b#4#b#b#5az#y.#.#",
"QtQtQtQtQtQtQtQtQtQtQtQtQtQtavaAaBam#A#A#Z#K#B#b#b#U#O#P#V#L.s.#",
"QtQtQtQtaCaCQtQtQtQtQtQtQtQtap#H#H#SaDayaf#O#b#P#Vao#b#O#P#NaE.#",
"QtQtQtQtaCaCQtQtQtQtQtQtQtapaf#P#5aF#C#6aGaHaIac#L#L#b#O#H#2#C.#",
"QtQtQtQtaCaCQtQtQtQtQtQtaJaK#O#O#HaLawaMaN#7#7#ZalaO#b#5aFaw#Z.#",
"QtaCaCaCaCaCaCaCaCQtQt.#aPaf#Vaa#SabaQ.#.s.s.#.#aH#U#Oaz#Law#C.#",
"QtaCaCaCaCaCaCaCaCQtQt.#aRabaSaE#Y.#.#.#Qt.#.#aG#5ahay#Nab#C.#Qt",
"QtQtQtQtaCaCQtQtQtQtQt.#.#.#.#.saTaT#g.#.#aU#MafaVaW#K#C.#.#QtQt",
"QtQtQtQtaCaCQtQtQtQtQtQtQtQtQtQtQtQtQtQt.##S#2#2aXaQ.#.#QtQtQtQt",
"QtQtQtQtaCaCQtQtQtQtQtQtQtQtQtQtQtQtQtQt.#.#.#.#.s.#QtQtQtQtQtQt",
"QtQtQtQtQtQtQtQtQtQtQtQtQtQtQtQtQtQtQtQtQtQtQtQtQtQtQtQtQtQtQtQt"};
