/* XPM */
static char * add_to_friends_xpm[] = {
"16 16 137 2",
"  	c None",
". 	c #0E0604",
"+ 	c #301404",
"@ 	c #1E0E04",
"# 	c #1E0C04",
"$ 	c #552504",
"% 	c #783604",
"& 	c #8C4004",
"* 	c #A54B04",
"= 	c #B85404",
"- 	c #B75404",
"; 	c #AE4D04",
"> 	c #622B04",
", 	c #BD5604",
"' 	c #BF5704",
") 	c #BA5706",
"! 	c #AC5304",
"~ 	c #A85104",
"{ 	c #B25104",
"] 	c #AB4E04",
"^ 	c #813F0A",
"/ 	c #503014",
"( 	c #8A3E04",
"_ 	c #B95C10",
": 	c #C26C22",
"< 	c #AC5106",
"[ 	c #A04B04",
"} 	c #793B08",
"| 	c #341D0A",
"1 	c #080504",
"2 	c #050404",
"3 	c #060608",
"4 	c #1E1D1C",
"5 	c #080604",
"6 	c #B98E5E",
"7 	c #E4B883",
"8 	c #9E6938",
"9 	c #3D200A",
"0 	c #0A0604",
"a 	c #020204",
"b 	c #0F0F10",
"c 	c #171718",
"d 	c #1B1A18",
"e 	c #030304",
"f 	c #A4865F",
"g 	c #EABF8A",
"h 	c #967D5C",
"i 	c #040404",
"j 	c #0D0D0C",
"k 	c #0B0B0C",
"l 	c #645339",
"m 	c #C0A37A",
"n 	c #F1D0A1",
"o 	c #BA9F78",
"p 	c #3E3024",
"q 	c #574D3C",
"r 	c #655844",
"s 	c #1B1916",
"t 	c #070708",
"u 	c #0E0E0C",
"v 	c #D9BC90",
"w 	c #DEBD8C",
"x 	c #F2CFA1",
"y 	c #EEC898",
"z 	c #8D6740",
"A 	c #9F8865",
"B 	c #70624A",
"C 	c #0F0E0E",
"D 	c #494130",
"E 	c #29231A",
"F 	c #431E0C",
"G 	c #A9632A",
"H 	c #E5B780",
"I 	c #EDC796",
"J 	c #9B7E58",
"K 	c #C1A279",
"L 	c #F1D09F",
"M 	c #7F6D54",
"N 	c #6C604C",
"O 	c #C8A97C",
"P 	c #BEA37A",
"Q 	c #050504",
"R 	c #94846C",
"S 	c #F2D1A1",
"T 	c #EECA9A",
"U 	c #A08866",
"V 	c #DEB988",
"W 	c #D0B288",
"X 	c #F0CE9E",
"Y 	c #E8C697",
"Z 	c #EDC998",
"` 	c #A88D69",
" .	c #C9AD84",
"..	c #AB987F",
"+.	c #8E7E6A",
"@.	c #927B60",
"#.	c #675542",
"$.	c #D1B083",
"%.	c #F1CE9F",
"&.	c #D8BA90",
"*.	c #F0CE9F",
"=.	c #6B5C44",
"-.	c #000000",
";.	c #AA987D",
">.	c #B89D74",
",.	c #685840",
"'.	c #B69A73",
").	c #F0CFA1",
"!.	c #EEC99A",
"~.	c #C2A87F",
"{.	c #1F1916",
"].	c #6B655F",
"^.	c #ECC998",
"/.	c #DAB88E",
"(.	c #524130",
"_.	c #786650",
":.	c #947C5E",
"<.	c #B59E7A",
"[.	c #AA9170",
"}.	c #362D24",
"|.	c #AE9574",
"1.	c #B0926D",
"2.	c #655740",
"3.	c #191612",
"4.	c #050204",
"5.	c #2E2822",
"6.	c #EBC696",
"7.	c #D1B281",
"8.	c #7F6C52",
"9.	c #211B17",
"0.	c #040204",
"a.	c #363634",
"b.	c #0E0E10",
"c.	c #554B3A",
"d.	c #A9926E",
"e.	c #967E5E",
"f.	c #3C3328",
"            . + @ # .           ",
"        $ % & * = - ; >         ",
"      + , ' ) ! ~ { ] ^ /       ",
"        ( _ : < [ } | 1 2 3 4   ",
"        5 6 7 8 9 0 a b c d e a ",
"        a f g h i a a i a j k a ",
"        l m n o p q r s a a t a ",
"      u v w x y z A y B C D E a ",
"        F G H I J K L M N O P Q ",
"        R S T U V W X Y Z `  .e ",
"          ..+.@.#.$.%.&.S *.=.a ",
"    -.        ;.>.,.'.).!.X ~.{.",
"    -.      ].^./.(._.:.<.X [.}.",
"-.-.-.-.-.a |.1.2.3.4.5.6.7.8.9.",
"    -.      a 0.a.b.c.d.e.f.a   ",
"    -.              a a 0.      "};
