/* XPM */
static char * cancel_xpm[] = {
"16 16 99 2",
"  	c None",
". 	c #632722",
"+ 	c #622621",
"@ 	c #612520",
"# 	c #60241F",
"$ 	c #5F231E",
"% 	c #5E221D",
"& 	c #3E1613",
"* 	c #A4554F",
"= 	c #F8D0CC",
"- 	c #F0C4BE",
"; 	c #EEC1BC",
"> 	c #EABEB9",
", 	c #E8BBB6",
"' 	c #CD9891",
") 	c #843730",
"! 	c #150100",
"~ 	c #A55650",
"{ 	c #F6D1CE",
"] 	c #D97A74",
"^ 	c #D87670",
"/ 	c #D4736C",
"( 	c #D16E66",
"_ 	c #CC675E",
": 	c #C85E55",
"< 	c #B21D17",
"[ 	c #750300",
"} 	c #D87A72",
"| 	c #E59590",
"1 	c #DF7670",
"2 	c #DB766F",
"3 	c #D46E66",
"4 	c #CE625A",
"5 	c #D37A72",
"6 	c #BC1F12",
"7 	c #B10601",
"8 	c #6E0300",
"9 	c #0C0000",
"0 	c #E1827B",
"a 	c #FFFFFF",
"b 	c #F7DCDA",
"c 	c #E07B76",
"d 	c #D8746E",
"e 	c #DA8B86",
"f 	c #F7F7F6",
"g 	c #E8C2BD",
"h 	c #B80701",
"i 	c #9E0400",
"j 	c #4F0200",
"k 	c #000000",
"l 	c #D8756F",
"m 	c #DF7671",
"n 	c #F6DBDA",
"o 	c #E2948F",
"p 	c #FBFBFA",
"q 	c #CD6459",
"r 	c #B80601",
"s 	c #A40400",
"t 	c #550200",
"u 	c #DB7670",
"v 	c #FEFEFE",
"w 	c #F9F9F8",
"x 	c #D48078",
"y 	c #C0382A",
"z 	c #560200",
"A 	c #D46D66",
"B 	c #D9746E",
"C 	c #ECD1CE",
"D 	c #C65348",
"E 	c #BE2D1F",
"F 	c #DB8C88",
"G 	c #ECD1CF",
"H 	c #F5F5F4",
"I 	c #E8C8C4",
"J 	c #B90E06",
"K 	c #DBACA6",
"L 	c #C6554B",
"M 	c #D47A71",
"N 	c #C65448",
"O 	c #F4F4F3",
"P 	c #E5B8B6",
"Q 	c #A20400",
"R 	c #540200",
"S 	c #924A40",
"T 	c #B1160F",
"U 	c #BB170C",
"V 	c #E6BAB8",
"W 	c #CD6358",
"X 	c #BD261A",
"Y 	c #C7423E",
"Z 	c #AF0501",
"` 	c #7D0200",
" .	c #360100",
"..	c #7F0300",
"+.	c #380100",
"@.	c #740300",
"#.	c #A40500",
"$.	c #150000",
"%.	c #500200",
"                                ",
"          . + @ # $ % &         ",
"        * = - ; > , ' ) !       ",
"      ~ { ] ^ / ( _ : < [ !     ",
"    * { } | 1 2 3 4 5 6 7 8 9   ",
"  . = 0 | a b c d e f g h i j k ",
"  + - l m b a n o p f q r s t k ",
"  @ ; / u c n a v w x y r s z k ",
"  # > ( A B o v p C D E r s z k ",
"  $ , _ 4 F p w G H I J r s z k ",
"  % K L M f f x N I O P r Q R k ",
"  & S T U V W y X J P Y Z `  .  ",
"    ! [ 7 h h r r r r Z ..+.    ",
"      ! @.i s s s #.Q ` +.      ",
"        $.%.t z z z R  .        ",
"          k k k k k k           "};
