/* XPM */
static char *cancel[]={
"32 32 219 2",
"Qt c None",
".# c #000000",
"#U c #250100",
"a. c #3f0100",
".9 c #3f0200",
".S c #400200",
"#9 c #580200",
"bx c #590200",
".B c #5e2a21",
"#T c #610200",
"bu c #620200",
"bs c #630200",
"ah c #660200",
"by c #670200",
"ao c #6b0200",
"aw c #6c0200",
"bw c #7a0200",
".R c #7b0301",
"#o c #7c0300",
"#8 c #7d0200",
".8 c #7d0300",
"br c #830300",
".A c #886158",
"ag c #8b0300",
"bc c #8f0300",
"an c #900300",
"bn c #930300",
"bt c #940300",
"bq c #950300",
"bp c #980401",
"bj c #9a7268",
"#G c #9c0400",
"#n c #9d0400",
".7 c #9d0401",
"bo c #9e3c34",
".Q c #b04e44",
".P c #b14f45",
"#7 c #b80601",
"#F c #b80701",
"bv c #b90601",
"#E c #b90701",
"#m c #b90702",
"#l c #b90902",
".m c #bb4239",
".6 c #bb6158",
".l c #bc4339",
"#D c #bd2717",
"#S c #bd2719",
".k c #bd443a",
".j c #bd453b",
".i c #bf463c",
".h c #c0473d",
"aU c #c13f36",
"bm c #c14238",
".g c #c1483e",
"a5 c #c24036",
"bi c #c24237",
".f c #c24940",
"#C c #c3443a",
"bl c #c3473c",
".e c #c34a41",
"bf c #c4433a",
"aK c #c4463c",
"bk c #c44a3f",
"aF c #c44a40",
"av c #c44b41",
".d c #c44b42",
"be c #c4726a",
"a0 c #c54b40",
"#k c #c54b41",
"bh c #c54c40",
".c c #c54c43",
".O c #c5736a",
".b c #c64d43",
"aT c #c65146",
"bg c #c65246",
".a c #c74e44",
"aJ c #c7554b",
"aZ c #c7564b",
"aE c #c7574c",
".n c #c84f46",
"#B c #c85548",
"aS c #c85a50",
".C c #c95047",
"b# c #c95648",
"bb c #c95d52",
".5 c #c97069",
".T c #ca5147",
"#j c #ca574c",
"ba c #ca5a4d",
"#Q c #ca5a4f",
"aI c #ca5e52",
"aR c #ca6058",
"a8 c #ca6059",
"a6 c #cb5d54",
".4 c #cb716a",
".z c #cbbcb6",
"#A c #cc5d54",
".3 c #cc726b",
"#i c #cd5f55",
".2 c #cd736d",
"a1 c #ce5f54",
"#P c #ce6158",
"#4 c #ce635c",
"a2 c #cf635a",
"#z c #cf635c",
"a7 c #cf6963",
".1 c #cf746f",
"#h c #d1655a",
"aV c #d1655b",
"ad c #d1655f",
"#O c #d1685f",
"a3 c #d16860",
"#y c #d16961",
"a4 c #d16963",
"#3 c #d16a63",
"#a c #d17169",
"aL c #d1766f",
"#g c #d26860",
"aM c #d26861",
"#q c #d27269",
".0 c #d27771",
"al c #d36962",
"#f c #d46c65",
"aW c #d46c67",
"#N c #d46d66",
"aN c #d46e66",
"#x c #d46e67",
".Z c #d47973",
"aG c #d56c65",
"aX c #d57069",
"#2 c #d5706a",
".Y c #d57974",
".X c #d67a75",
"as c #d76c66",
"ax c #d76f68",
"#e c #d76f69",
"aY c #d7726d",
"ac c #d7736d",
"#w c #d8726b",
"#M c #d8726c",
".V c #d88e87",
"ap c #d9706a",
"#d c #d9716a",
"a# c #da706a",
"ai c #da726a",
"#c c #da726b",
"ay c #da756f",
"#1 c #da7670",
"aj c #db6f69",
"#b c #db706a",
"#v c #db756f",
"#L c #db7670",
"b. c #db9189",
"#s c #dc6f6a",
"#r c #dc746d",
"#X c #dc746e",
"ab c #dc7973",
".N c #dc928a",
"bd c #dcccc7",
"## c #dd9088",
"#p c #dd9089",
".M c #dd938c",
"#I c #de716b",
"#u c #de7670",
"aq c #de7671",
"aO c #de7973",
"aP c #de7a75",
"ak c #de7b75",
"#Y c #df726c",
"#H c #df766f",
"#t c #df7671",
"#K c #df7973",
"#0 c #df7a76",
".L c #df958d",
"az c #e07974",
".W c #e07b75",
".K c #e0968f",
"ar c #e27b76",
"#J c #e27c76",
"#W c #e27d76",
"aa c #e2807b",
"aH c #e2817c",
".J c #e29890",
"#Z c #e3807a",
"aA c #e3817b",
".I c #e49a92",
".H c #e59b93",
".G c #e69c94",
".F c #e79d95",
"#V c #e99f97",
".y c #f2e2e0",
".x c #f3e3e1",
".w c #f4e4e2",
"a9 c #f4f4f3",
".v c #f5e6e4",
"af c #f5f5f4",
".u c #f6e7e5",
"#6 c #f6f6f5",
"#R c #f7f7f6",
".t c #f8e9e7",
"#5 c #f8f8f7",
"aD c #f8f8f8",
".s c #f9eae8",
"au c #f9f9f8",
".r c #faebe9",
"ae c #fafaf9",
".q c #fbecea",
"aC c #fbfbfa",
".p c #fcedeb",
"at c #fcfcfb",
"am c #fdfdfc",
"aQ c #fefefd",
".o c #ffb5af",
".D c #ffb6b0",
".U c #ffb7b2",
"#. c #ffb8b2",
"aB c #fffffe",
".E c #ffffff",
"QtQtQtQtQtQtQtQtQtQtQtQtQtQtQtQtQtQtQtQtQtQtQtQtQtQtQtQtQtQtQtQt",
"QtQtQtQtQtQtQtQtQtQtQtQtQtQtQtQtQtQtQtQtQtQtQtQtQtQtQtQtQtQtQtQt",
"QtQtQtQtQtQtQtQtQtQt.#.#.#.#.#.#.#.#.#.#.#.#.#QtQtQtQtQtQtQtQtQt",
"QtQtQtQtQtQtQtQtQt.#.a.b.c.d.e.f.g.h.i.j.k.l.m.#QtQtQtQtQtQtQtQt",
"QtQtQtQtQtQtQtQt.#.n.o.p.q.r.s.t.u.v.w.x.y.z.A.B.#QtQtQtQtQtQtQt",
"QtQtQtQtQtQtQt.#.C.D.E.F.G.H.I.J.K.L.M.N.O.P.Q.R.S.#QtQtQtQtQtQt",
"QtQtQtQtQtQt.#.T.U.E.V.W.X.Y.Z.0.0.1.2.3.4.5.6.7.8.9.#QtQtQtQtQt",
"QtQtQtQtQt.#.T#..E###a#b#c#d#e#f#g#h#i#j#k#k#l#m#n#o.9.#QtQtQtQt",
"QtQtQtQt.#.C.U.E#p#q#r#s#t#u#v#w#x#y#z#A#B#C#D#E#F#G#o.9.#QtQtQt",
"QtQtQt.#.n.D.E###q#H#I.E#I#J#K#L#M#N#O#P#Q#R#S#D#F#F#G#T#U.#QtQt",
"QtQt.#.a.o.E#V#W#X#I.E.E.E#Y#Z#0#1#2#3#4#5#R#6#D#F#F#7#8#9a..#Qt",
"QtQt.#.b.p.F.Wa##s.E.E.E.E.E#Iaaabacadae#5#6#6af#F#F#7agaha..#Qt",
"QtQt.#.c.q.G.Xai#t#I.E.E.E.E.Eajakalamae#5#6af#D#F#7#7anaoa..#Qt",
"QtQt.#.d.r.H.Yapaqar#Y.E.E.E.E.Eas.Eatau#R#6av#D#F#7#7anawa..#Qt",
"QtQt.#.e.s.I.ZaxayazaA#I.E.E.E.E.EaBaCaD#RaEaF#D#7#7#7anawa..#Qt",
"QtQt.#.f.t.J.0aG#w#L#0aHaj.E.E.E.Eamae#5aIaJaK#D#7#7#7anawa..#Qt",
"QtQt.#.g.u.KaLaMaN#M#1aOaPas.E.EaQaC#5aRaSaTaU#D#7#7#7anawa..#Qt",
"QtQt.#.h.v.L.1aV#yaWaXaYal.EaBamaCau#R#6aZa0#D#D#7#7#7anawa..#Qt",
"QtQt.#.i.w.M.2a1a2a3a4adamataCae#5#R#6afafa5#D#7#7#7#7anawa..#Qt",
"QtQt.#.j.x.N.3#ja6#Pa7aeaeauaD#5a8#6afafafa9#7#F#7#7#7anawa..#Qt",
"QtQt.#.k.yb..4#kb#ba#5#5#5#R#RbbaSaZafafa9a9a9#7#7#7#7bcaoa..#Qt",
"QtQt.#.lbdbe.5#Dbf#R#R#6#6#6aEaJbgbhbia9a9a9a9a9#7#7#7agaha..#Qt",
"QtQt.#.mbj.Q.m#l#D#S#6#6afaFbkblbm#D#D#7a9a9a9#7#7#7bn#8#9a..#Qt",
"QtQtQt.#.Bbobp#E#E#E#Eaf#D#D#D#D#D#7#7#7#7a9#7#7#7bqbr#Ta..#QtQt",
"QtQtQtQt.#.S.8#n#F#F#F#F#F#F#7#7#7#7#7#7#7#7#7#7bqbrbsa..#QtQtQt",
"QtQtQtQtQt.#.9#o#G#F#F#F#7#F#7#7#7#7#7#7#7#7#7btbrbua..#QtQtQtQt",
"QtQtQtQtQtQt.#.9#o#G#7#7#7#7bv#7#7#7#7#F#7#7bnbrbsa..#QtQtQtQtQt",
"QtQtQtQtQtQtQt.#.9bw#8agbcanananananananbcag#8#Ta..#QtQtQtQtQtQt",
"QtQtQtQtQtQtQtQt.#a.bxbyaoawawawawawawawaobybxa..#QtQtQtQtQtQtQt",
"QtQtQtQtQtQtQtQtQt.#a.a.a.a.a.a.a.a.a.a.a.a.a..#QtQtQtQtQtQtQtQt",
"QtQtQtQtQtQtQtQtQtQt.#.#.#.#.#.#.#.#.#.#.#.#.#QtQtQtQtQtQtQtQtQt",
"QtQtQtQtQtQtQtQtQtQtQtQtQtQtQtQtQtQtQtQtQtQtQtQtQtQtQtQtQtQtQtQt"};
