/* XPM */
static char * connect_more_xpm[] = {
"16 16 52 1",
" 	c None",
".	c #000000",
"+	c #403F40",
"@	c #DFDEDF",
"#	c #434243",
"$	c #E4E4E4",
"%	c #A2A0A2",
"&	c #B7B7B7",
"*	c #E6E5E6",
"=	c #6E6B6E",
"-	c #DEDEDE",
";	c #404040",
">	c #D8D7D8",
",	c #525152",
"'	c #9A989D",
")	c #313031",
"!	c #9A989A",
"~	c #D1D0D1",
"{	c #4B4A4B",
"]	c #606060",
"^	c #D3D3D4",
"/	c #E0DFE0",
"(	c #353431",
"_	c #8C8A8C",
":	c #373637",
"<	c #2D2C2D",
"[	c #878688",
"}	c #D6D6D7",
"|	c #E0E0E0",
"1	c #4E4D4E",
"2	c #1E1E1E",
"3	c #5C5B5C",
"4	c #8A888A",
"5	c #DFDFDF",
"6	c #D2D2D2",
"7	c #4D4C4D",
"8	c #504F50",
"9	c #C3C2C3",
"0	c #D7D6D8",
"a	c #D0CED0",
"b	c #E6E6E6",
"c	c #888688",
"d	c #616061",
"e	c #7D7C7E",
"f	c #E3E2E3",
"g	c #6D6B6D",
"h	c #040404",
"i	c #232323",
"j	c #5A595A",
"k	c #E6E4E6",
"l	c #6C6A6C",
"m	c #949294",
"                ",
"   .          +@",
"   .         #$%",
" .....  &&  #*= ",
"   .   &--&+*=  ",
"   .  ;>---&,   ",
"     &')>---&   ",
"    &--!)>--~{  ",
"   ]^--/!(>~_:  ",
"   <[}-|/!)_1   ",
"   234}5-671    ",
"    89[0a_:     ",
"   #bcde41      ",
"  +fghij8       ",
" #kl   .        ",
" @m             "};
