/* XPM */
static char * disconnect_xpm[] = {
"16 16 48 1",
" 	c None",
".	c #D5D500",
"+	c #DADA00",
"@	c #656500",
"#	c #B7B7B7",
"$	c #9A989D",
"%	c #A2A200",
"&	c #DEDEDE",
"*	c #9A989A",
"=	c #747400",
"-	c #606060",
";	c #D3D3D4",
">	c #E0DFE0",
",	c #888800",
"'	c #2D2C2D",
")	c #878688",
"!	c #D6D6D7",
"~	c #E0E0E0",
"{	c #4E4E00",
"]	c #1E1E1E",
"^	c #5C5B5C",
"/	c #8A888A",
"(	c #DFDFDF",
"_	c #D2D2D2",
":	c #4D4C4D",
"<	c #504F50",
"[	c #C3C2C3",
"}	c #D7D6D8",
"|	c #D0CED0",
"1	c #8C8A8C",
"2	c #373637",
"3	c #434243",
"4	c #E6E6E6",
"5	c #888688",
"6	c #616061",
"7	c #7D7C7E",
"8	c #4E4D4E",
"9	c #403F40",
"0	c #E3E2E3",
"a	c #6D6B6D",
"b	c #040404",
"c	c #232323",
"d	c #5A595A",
"e	c #E6E4E6",
"f	c #6C6A6C",
"g	c #000000",
"h	c #DFDEDF",
"i	c #949294",
"                ",
"                ",
"                ",
"                ",
"         .      ",
"        +@      ",
"     #$%@       ",
"    #&&*   +=   ",
"   -;&&>*,+@    ",
"   ')!&~>*{     ",
"   ]^/!(&_:     ",
"    <[)}|12     ",
"   34567/8      ",
"  90abcd<       ",
" 3ef   g        ",
" hi             "};
