/* XPM */
static char *disconnect[]={
"32 32 66 2",
"Qt c None",
".g c #000000",
".m c #000001",
".j c #00000d",
".G c #010101",
".1 c #040404",
".2 c #050505",
".9 c #060606",
"## c #070607",
".U c #080808",
".V c #0a0a0a",
".6 c #0b0a0b",
".4 c #0c0b0c",
".5 c #0e0e0e",
".t c #111100",
".8 c #141314",
".X c #444444",
".f c #464600",
".u c #5a595a",
".C c #5b5a5b",
".Z c #5d5c5d",
".B c #626162",
".R c #636263",
".Y c #686768",
".J c #696969",
".W c #6a676a",
".H c #807d80",
".M c #817f81",
".o c #838183",
".T c #868486",
".D c #8b898b",
".S c #9b989b",
".d c #a3a300",
".P c #a5a2a5",
".L c #a9a6a9",
".A c #b1afb1",
".p c #bdbbc0",
".N c #bfbdbf",
".i c #c4c1c4",
".O c #c8c6c8",
".Q c #cac8ca",
".3 c #cecbce",
".a c #d2d200",
".0 c #d5d3d5",
"#. c #d9d7d9",
".7 c #dbdadb",
".z c #dcdcdd",
".I c #dddbdd",
".F c #dddcdd",
".n c #dddddd",
".l c #dedede",
".r c #dedfde",
".K c #dfdedf",
".q c #dfdfdf",
".y c #e0dde0",
".w c #e0e0e0",
".E c #e0e1e0",
".v c #e1e1e1",
".c c #e2e200",
".s c #e4e2e4",
".e c #e4e400",
".k c #e5e500",
".x c #e6e3e6",
".# c #fdfd00",
".b c #ffff00",
".h c #ffffff",
"QtQtQtQtQtQtQtQtQtQtQtQtQtQtQtQtQtQtQtQtQtQtQtQtQtQtQtQtQtQtQtQt",
"QtQtQtQtQtQtQtQtQtQtQtQtQtQtQtQtQtQtQtQtQtQtQtQtQtQtQtQtQtQtQtQt",
"QtQtQtQtQtQtQtQtQtQtQtQtQtQtQtQtQtQtQtQtQtQtQtQtQtQtQtQtQtQtQtQt",
"QtQtQtQtQtQtQtQtQtQtQtQtQtQtQtQtQtQtQtQtQtQtQtQtQtQtQtQtQtQtQtQt",
"QtQtQtQtQtQtQtQtQtQtQtQtQtQtQtQtQtQtQtQtQtQtQtQtQtQtQtQtQtQtQtQt",
"QtQtQtQtQtQtQtQtQtQtQtQtQtQtQtQtQtQtQtQtQtQtQtQtQtQtQtQtQtQtQtQt",
"QtQtQtQtQtQtQtQtQtQtQtQtQtQtQtQtQtQtQtQtQtQtQtQtQtQtQtQtQtQtQtQt",
"QtQtQtQtQtQtQtQtQtQtQtQtQtQtQtQtQtQtQtQtQtQtQtQtQtQtQtQtQtQtQtQt",
"QtQtQtQtQtQtQtQtQtQtQtQtQtQtQtQtQtQt.#.aQtQtQtQtQtQtQtQtQtQtQtQt",
"QtQtQtQtQtQtQtQtQtQtQtQtQtQtQtQtQt.b.c.dQtQtQtQtQtQtQtQtQtQtQtQt",
"QtQtQtQtQtQtQtQtQtQtQtQtQtQtQtQt.b.e.d.fQtQtQtQtQtQtQtQtQtQtQtQt",
"QtQtQtQtQtQtQtQtQtQtQt.g.gQtQt.b.e.d.fQtQtQtQtQtQtQtQtQtQtQtQtQt",
"QtQtQtQtQtQtQtQtQtQt.g.h.i.j.b.k.d.fQtQtQtQtQtQtQtQtQtQtQtQtQtQt",
"QtQtQtQtQtQtQtQtQt.g.h.l.l.i.g.d.fQtQtQtQtQtQt.#.cQtQtQtQtQtQtQt",
"QtQtQtQtQtQtQtQt.g.h.l.l.l.l.i.gQtQtQtQtQtQt.b.c.dQtQtQtQtQtQtQt",
"QtQtQtQtQtQtQt.g.h.l.l.l.l.l.l.i.mQtQtQtQt.b.c.d.fQtQtQtQtQtQtQt",
"QtQtQtQtQtQt.g.h.lQtQt.n.l.l.l.l.i.mQtQt.b.c.d.fQtQtQtQtQtQtQtQt",
"QtQtQtQtQtQt.g.o.p.q.q.l.l.r.s.l.l.i.t.b.c.d.fQtQtQtQtQtQtQtQtQt",
"QtQtQtQtQtQt.g.u.o.p.n.v.l.n.w.s.x.l.i.g.d.fQtQtQtQtQtQtQtQtQtQt",
"QtQtQtQtQtQt.g.u.u.o.p.l.q.l.l.l.y.l.l.i.gQtQtQtQtQtQtQtQtQtQtQt",
"QtQtQtQtQtQt.g.u.u.u.o.p.w.q.l.l.l.l.z.l.A.gQtQtQtQtQtQtQtQtQtQt",
"QtQtQtQtQtQtQt.g.u.B.C.D.p.l.v.l.E.F.l.A.o.gQtQtQtQtQtQtQtQtQtQt",
"QtQtQtQtQtQtQtQt.G.H.I.J.o.p.K.v.F.l.L.M.o.gQtQtQtQtQtQtQtQtQtQt",
"QtQtQtQtQtQtQtQt.g.N.h.O.u.o.p.l.l.P.o.o.u.gQtQtQtQtQtQtQtQtQtQt",
"QtQtQtQtQtQtQt.g.N.h.Q.L.R.C.o.p.S.T.o.u.UQtQtQtQtQtQtQtQtQtQtQt",
"QtQtQtQtQtQt.V.N.h.I.W.X.Y.Z.u.u.o.o.u.gQtQtQtQtQtQtQtQtQtQtQtQt",
"QtQtQtQtQt.g.N.h.0.W.1.2.G.u.u.u.o.u.gQtQtQtQtQtQtQtQtQtQtQtQtQt",
"QtQtQtQt.g.N.h.3.W.4QtQtQt.5.u.u.u.6QtQtQtQtQtQtQtQtQtQtQtQtQtQt",
"QtQtQt.1.N.h.7.W.8QtQtQtQtQt.g.g.gQtQtQtQtQtQtQtQtQtQtQtQtQtQtQt",
"QtQt.9.N.h#..W.gQtQtQtQtQtQtQtQtQtQtQtQtQtQtQtQtQtQtQtQtQtQtQtQt",
"Qt.g.N.h.N.W##QtQtQtQtQtQtQtQtQtQtQtQtQtQtQtQtQtQtQtQtQtQtQtQtQt",
"QtQtQtQtQtQtQtQtQtQtQtQtQtQtQtQtQtQtQtQtQtQtQtQtQtQtQtQtQtQtQtQt"};
