/* XPM */
static char *display_all_servers[]={
"32 32 104 2",
"Qt c None",
".n c #000000",
"#w c #024f57",
"#v c #025d65",
"#q c #035961",
"#m c #05646c",
"#i c #056a73",
"#p c #05717b",
".K c #07646d",
"#u c #086971",
"#c c #096f77",
".U c #0c7079",
"#l c #167e87",
".J c #17676f",
"#t c #1e7a81",
"#o c #21838b",
".7 c #236970",
"#h c #25868f",
".I c #276a70",
"#b c #2c8a93",
".# c #2e2e2e",
".T c #2f8c94",
".4 c #316c71",
"#s c #31848b",
"#k c #358f97",
".H c #376d71",
"#n c #3b939a",
".1 c #3f6f72",
"#r c #408c93",
"#g c #45989f",
".G c #467073",
".8 c #489197",
".0 c #4c7174",
".9 c #4c9399",
"#z c #4e4e4e",
"#a c #4e9da4",
"#D c #525252",
".S c #529fa6",
".D c #557275",
".N c #597375",
"#K c #5c5c5c",
"#C c #5d5d5d",
".m c #616161",
".E c #627577",
"#f c #64a9af",
"#B c #686868",
".F c #687677",
"#A c #6c6c6c",
"#j c #6cadb3",
".y c #707070",
".5 c #71b0b6",
".R c #74b2b8",
"#y c #808080",
"#e c #82babf",
"#x c #878787",
"#J c #8c8c8c",
".2 c #92c2c7",
".Q c #96c5c9",
"#I c #979797",
"#d c #9cc8cc",
".k c #a0a0a0",
".j c #a5a5a5",
"#F c #aaaaaa",
".i c #acacac",
".Y c #b1d4d7",
".h c #b5b5b5",
".P c #b9d8db",
".g c #bdbdbd",
"#L c #bdbebd",
"#H c #bdbebe",
"#G c #bebdbd",
".f c #c3c3c3",
".V c #c5c5c5",
".M c #c7c7c7",
".C c #c8c7c8",
".e c #c8c8c8",
"## c #cbcbcb",
".B c #cdcdcd",
".X c #cde3e5",
".d c #cfcfcf",
"#. c #d1d1d0",
".c c #d5d5d5",
".l c #d9d9d9",
".b c #dbdbda",
".O c #dbebed",
".A c #dddddd",
".6 c #e1e1e1",
".z c #e4e4e4",
"#E c #e5e5e5",
".3 c #e7e7e7",
".x c #e9e9e9",
".L c #ebeaeb",
".w c #ededed",
".v c #efefef",
".Z c #f1f1f1",
".u c #f3f1f1",
".a c #f3f3f3",
".t c #f5f5f5",
".W c #f6f5f5",
".s c #f7f7f7",
".r c #f9f9f9",
".q c #fbfbfb",
".p c #fcfcfc",
".o c #ffffff",
"QtQtQtQtQtQtQtQtQt.#.#.#.#.#.#.#.#.#.#.#.#.#.#.#QtQtQtQtQtQtQtQt",
"QtQtQtQtQtQtQtQt.#.a.b.c.d.e.f.g.h.i.j.k.k.k.l.m.nQtQtQtQtQtQtQt",
"QtQtQtQtQtQtQt.#.o.o.o.o.o.p.q.r.s.t.u.v.w.x.y.m.nQtQtQtQtQtQtQt",
"QtQtQtQtQtQtQt.#.o.o.o.o.q.s.u.w.x.z.A.c.B.C.y.m.nQtQtQtQtQtQtQt",
"QtQtQtQtQtQtQt.#.o.o.D.E.F.E.D.G.H.I.J.K.L.M.y.m.nQtQtQtQtQtQtQt",
"QtQtQtQtQtQtQt.#.o.p.N.O.o.O.P.Q.R.S.T.U.x.V.y.m.nQtQtQtQtQtQtQt",
"QtQtQtQtQtQtQt.#.p.W.D.X.O.X.Y.#.#.#.#.#.#.#.#.#.#.#.#.#.#.#QtQt",
"QtQtQtQtQtQtQt.#.q.Z.0.Y.P.Y.#.a.b.c.d.e.f.g.h.i.j.k.k.k.l.m.nQt",
"QtQtQtQtQtQtQt.#.r.w.1.2.Q.#.o.o.o.o.o.p.q.r.s.t.u.v.w.x.y.m.nQt",
"QtQtQtQtQtQtQt.#.W.3.4.5.R.#.o.o.o.o.q.s.u.w.x.z.A.c.B.C.y.m.nQt",
"QtQtQtQtQtQtQt.#.a.6.7.8.9.#.o.o.D.E.F.E.D.G.H.I.J.K.L.M.y.m.nQt",
"QtQtQtQtQtQtQt.#.Z.l.v.v.w.#.o.p.N.O.o.O.P.Q.R.S.T.U.x.V.y.m.nQt",
"QtQtQtQtQtQtQt.#.w#..d.B##.#.p.W.D.X.O.X.Y.2.5#a#b#c.x.f.y.m.nQt",
"QtQtQt.#.#.#.#.#.#.#.#.#.#.#.#.#.#.#.P.Y#d#e#f#g#h#i.x.f.y.m.nQt",
"QtQt.#.a.b.c.d.e.f.g.h.i.j.k.k.k.l.m.n.2#e#j.S#k#l#m.3.f.y.m.nQt",
"Qt.#.o.o.o.o.o.p.q.r.s.t.u.v.w.x.y.m.n.5#f.S#n#o#p#q.3.f.y.m.nQt",
"Qt.#.o.o.o.o.q.s.u.w.x.z.A.c.B.C.y.m.n.8#r#s#t#u#v#w.3.f.y.m.nQt",
"Qt.#.o.o.D.E.F.E.D.G.H.I.J.K.L.M.y.m.n.L.L.x.x.3.3.3.f.f.y#x.l.#",
"Qt.#.o.p.N.O.o.O.P.Q.R.S.T.U.x.V.y.m.n.e.M.V.f.f.f.f.f.f#y.x#z.n",
"Qt.#.p.W.D.X.O.X.Y.2.5#a#b#c.x.f.y.m.n#A#A#A#A#B#C#D#z#z.t.y#z.n",
"Qt.#.q.Z.0.Y.P.Y#d#e#f#g#h#i.x.f.y.m.n#E#E#E#E#E#E#E#E#E#F.y#z.n",
"Qt.#.r.w.1.2.Q.2#e#j.S#k#l#m.3.f.y.m.n.g#G.g#H#z#z#z#z#H#I.y#z.n",
"Qt.#.W.3.4.5.R.5#f.S#n#o#p#q.3.f.y.m.n.k.k.k.k.l.l.l.l.k#y.y.nQt",
"Qt.#.a.6.7.8.9.8#r#s#t#u#v#w.3.f.y.m.n#J#J#J#J#J#J#J#J#J.y.nQtQt",
"Qt.#.Z.l.v.v.w.L.L.x.x.3.3.3.f.f.y#x.l.#.#.#.#.#.#.#.#.#.#QtQtQt",
"Qt.#.w#..d.B##.e.M.V.f.f.f.f.f.f#y.x#z.nQtQtQtQtQtQtQtQtQtQtQtQt",
".#.t#y#y#z#K#B#A#A#A#A#B#C#D#z#z.t.y#z.nQtQtQtQtQtQtQtQtQtQtQtQt",
".#.v#E#E#E#E#E#E#E#E#E#E#E#E#E#E#F.y#z.nQtQtQtQtQtQtQtQtQtQtQtQt",
".#.z.g.g#L#L.g.g#G.g#H#z#z#z#z#H#I.y#z.nQtQtQtQtQtQtQtQtQtQtQtQt",
".#.l.k.k.k.k.k.k.k.k.k.l.l.l.l.k#y.y.nQtQtQtQtQtQtQtQtQtQtQtQtQt",
".##.#J#J#J#J#J#J#J#J#J#J#J#J#J#J.y.nQtQtQtQtQtQtQtQtQtQtQtQtQtQt",
"Qt.#.#.#.#.#.#.#.#.#.#.#.#.#.#.#.#QtQtQtQtQtQtQtQtQtQtQtQtQtQtQt"};
