/* XPM */
static char * display_all_servers_xpm[] = {
"16 16 115 2",
"  	c None",
". 	c #707070",
"+ 	c #838383",
"@ 	c #7D7D7D",
"# 	c #777777",
"$ 	c #6F6F6F",
"% 	c #686868",
"& 	c #676767",
"* 	c #666666",
"= 	c #2E2E2E",
"- 	c #FFFFFF",
"; 	c #FBFBFB",
"> 	c #F5F4F4",
", 	c #EEEEEE",
"' 	c #E5E4E4",
") 	c #DBDADB",
"! 	c #000000",
"~ 	c #FEFEFE",
"{ 	c #7B9194",
"] 	c #A9B5B6",
"^ 	c #7AA0A3",
"/ 	c #498A90",
"( 	c #16727A",
"_ 	c #D8D8D8",
": 	c #F8F7F7",
"< 	c #88A6A9",
"[ 	c #C4DEE1",
"} 	c #80898A",
"| 	c #F1F0F0",
"1 	c #5D9398",
"2 	c #5A7577",
"3 	c #E8E8E8",
"4 	c #92B6B9",
"5 	c #657778",
"6 	c #868686",
"7 	c #7E7E7E",
"8 	c #555555",
"9 	c #949393",
"0 	c #606C6E",
"a 	c #98C6CA",
"b 	c #5AA4AA",
"c 	c #187A83",
"d 	c #D6D6D6",
"e 	c #C8C8C8",
"f 	c #ECECEB",
"g 	c #E4E4E4",
"h 	c #DDDDDD",
"i 	c #D3D3D3",
"j 	c #CAC9C9",
"k 	c #C6C6C6",
"l 	c #415C5F",
"m 	c #69ACB2",
"n 	c #399198",
"o 	c #096B74",
"p 	c #D5D5D5",
"q 	c #ADB9BA",
"r 	c #AFB7B8",
"s 	c #9FB0B2",
"t 	c #8BA9AC",
"u 	c #749FA4",
"v 	c #D2D1D2",
"w 	c #4D5F60",
"x 	c #91B9BC",
"y 	c #7EADB0",
"z 	c #749EA2",
"A 	c #CCCCCC",
"B 	c #727272",
"C 	c #585858",
"D 	c #96ADAF",
"E 	c #E0EEF0",
"F 	c #A4CDD0",
"G 	c #61A8AE",
"H 	c #1C7D86",
"I 	c #4D4D4D",
"J 	c #999999",
"K 	c #969696",
"L 	c #8D8D8D",
"M 	c #888888",
"N 	c #B4B4B4",
"O 	c #272727",
"P 	c #F4F4F4",
"Q 	c #749EA1",
"R 	c #83BABF",
"S 	c #4C9CA3",
"T 	c #11747D",
"U 	c #D1D1D1",
"V 	c #B5B6B6",
"W 	c #9A9A9A",
"X 	c #ECECEC",
"Y 	c #43868C",
"Z 	c #5EA2A8",
"` 	c #4A969D",
" .	c #207E86",
"..	c #035E66",
"+.	c #4B4B4B",
"@.	c #A4A4A4",
"#.	c #B2B2B2",
"$.	c #E2E2E2",
"%.	c #DEDEDE",
"&.	c #C3C3C3",
"*.	c #989898",
"=.	c #909090",
"-.	c #9D9D9D",
";.	c #A8A8A8",
">.	c #9E9E9E",
",.	c #A0A0A0",
"'.	c #AEAEAE",
").	c #AEAFAE",
"!.	c #AFAEAE",
"~.	c #A1A1A1",
"{.	c #949494",
"].	c #1A1A1A",
"^.	c #646464",
"/.	c #5D5D5D",
"(.	c #353535",
"        . + @ # $ % & *         ",
"      = - - ; > , ' ) % !       ",
"      = ~ { ] ^ / ( _ % !       ",
"      = : < [ } + @ # $ % & *   ",
"      = | 1 2 - - ; > , ' ) % ! ",
"      = 3 4 5 ~ { ] ^ / ( _ % ! ",
"    = = 6 7 8 9 0 [ a b c d % ! ",
"  e f g h i j k + l m n o p % ! ",
"= - q r s t u v % w x y z A B C ",
"= ; D E F G H d % I J K L M N O ",
"= P Q F R S T d % % U V W V M O ",
"= X Y Z `  ...p % +.K @.#.@.C   ",
"= $.%.) _ d p &.*.8 = = = =     ",
"=.#.-.;.;.;.>.W ,.O             ",
"6 '.).'.!.~.{.~.7 ].            ",
"^./././././././.(.              "};
