/* XPM */
static char *download[]={
"32 32 204 2",
"Qt c None",
".T c #000000",
"#u c #00008e",
"#X c #0000b0",
"#N c #0000d0",
"#D c #0101d0",
"#j c #03038e",
"#M c #0303e1",
".7 c #06068e",
"#t c #0606d0",
"#C c #0808e1",
".S c #09098e",
"#L c #0909d0",
"#i c #0a0ad0",
"#T c #0b0b0b",
"#K c #0d0db0",
"#s c #0d0de1",
".F c #1010b0",
".6 c #1010d0",
"#B c #1111ff",
"#h c #1313e1",
".R c #1414d0",
".E c #1515b0",
"ad c #161616",
"#A c #1616e1",
"#r c #1717ff",
"aq c #181818",
".5 c #1818e1",
".D c #1b1bb0",
"#z c #1b1bd0",
"#y c #1d1db0",
".Q c #1d1de1",
"#g c #1d1dff",
".C c #1f1fb0",
"#q c #1f1fff",
".4 c #2323ff",
".P c #2424e1",
"#f c #2525ff",
".B c #2626b0",
"#p c #2727ff",
"#o c #2929e1",
".O c #2a2ae1",
".3 c #2a2aff",
"#m c #2b2bb0",
"aC c #2c2c2c",
"#n c #2c2cd0",
"#e c #2c2cff",
"ar c #303030",
".2 c #3232ff",
".A c #3333d0",
".s c #3434b0",
"#d c #3434ff",
".N c #3838ff",
"## c #3a3ab0",
".1 c #3a3aff",
"#b c #3c3ce1",
"#c c #3c3cff",
".l c #3d3db0",
"#a c #3e3ed0",
".z c #3e3ee1",
".M c #4040ff",
".0 c #4242ff",
".g c #4747b0",
".L c #4848ff",
".V c #4949b0",
".r c #4a4ae1",
".Z c #4a4aff",
".y c #4e4eff",
".X c #4f4fe1",
".W c #5050d0",
".K c #5050ff",
".d c #5151b0",
".Y c #5252ff",
".I c #5454e1",
".m c #5555b0",
".x c #5555ff",
".t c #5656b0",
".k c #5656e1",
".# c #5757b0",
".J c #5757ff",
".u c #5959d0",
".v c #5959e1",
".H c #5b5be1",
".q c #5b5bff",
".w c #5d5dff",
".G c #6161d0",
".f c #6262e1",
".p c #6363ff",
".n c #6565e1",
".j c #6969ff",
".o c #6b6bff",
".c c #6e6ee1",
"bh c #6f6f6f",
".a c #7070e1",
".i c #7171ff",
"#U c #767476",
"b. c #767676",
"bj c #777777",
".e c #7777ff",
".h c #7979ff",
"#8 c #7c7a7c",
"#H c #7e7c7e",
"a5 c #7e7e7e",
".b c #7f7fff",
"aY c #868686",
"bi c #878787",
"bg c #8a8a8a",
"aQ c #8d8d8d",
"bf c #8e8e8e",
"be c #919191",
"aI c #959595",
"a9 c #999999",
"#2 c #9a989a",
"bd c #9a9a9a",
"a8 c #9b9b9b",
"#G c #9c9a9c",
"aw c #9d9d9d",
"aj c #9e9b9e",
"#O c #9e9c9e",
"#E c #9f9e9f",
"#v c #a19fa1",
"#F c #a2a0a2",
"a4 c #a2a2a2",
"a3 c #a5a5a5",
"an c #a6a3a6",
"#I c #a6a4a6",
"ap c #a7a4a7",
"as c #a8a5a8",
"a2 c #a8a8a8",
"#6 c #a9a9a9",
"#Y c #abaaab",
"ai c #acabac",
"bc c #acacac",
"ak c #adabad",
"aX c #aeaeae",
"ae c #b0afb0",
"aW c #b1b1b1",
"bb c #b3b3b3",
"aV c #b4b4b4",
"ba c #b5b5b5",
"aP c #b7b7b7",
"aO c #bbbbbb",
"aN c #bdbdbd",
"#k c #bfbdbf",
".8 c #bfbebf",
"aU c #bfbfbf",
"a7 c #c0c0c0",
"#J c #c1bfc1",
"aH c #c2c2c2",
"a1 c #c4c4c4",
"#x c #c5c3c5",
"#l c #c7c5c7",
"aG c #c7c7c7",
"a# c #c8c6c8",
"aF c #c8c8c8",
"#. c #c9c7c9",
"ag c #cac8ca",
"aM c #cacaca",
".U c #cbc9cb",
"a0 c #cbcbcb",
"#1 c #ccc9cc",
"al c #cccacc",
"ah c #cccbcc",
"aT c #cccccc",
"ac c #ceccce",
"aB c #cecece",
"#5 c #cfcecf",
"#Q c #d0ced0",
"#W c #d1d0d1",
"aS c #d1d1d1",
"af c #d3d2d3",
"aA c #d3d3d3",
"b# c #d4d4d4",
"#9 c #d5d4d5",
"az c #d5d5d5",
"#7 c #d6d3d6",
"#R c #d6d4d6",
"#V c #d6d5d6",
"#3 c #d6d6d6",
"ao c #d7d6d7",
"a. c #d7d7d7",
"#4 c #d8d7d8",
"a6 c #d8d8d8",
"#S c #d9d6d9",
"#P c #dad8da",
"#Z c #dbdadb",
"aa c #dddbdd",
"aZ c #dddddd",
"aL c #dfdfdf",
"ab c #e1dfe1",
"aK c #e1e1e1",
"am c #e2dfe2",
"#0 c #e2e0e2",
"aR c #e2e2e2",
"#w c #e5e3e5",
".9 c #e6e5e6",
"aJ c #e6e6e6",
"av c #eaeaea",
"aD c #ebebeb",
"aE c #ececec",
"au c #ededed",
"at c #f0f0f0",
"ay c #f8f8f8",
"ax c #f9f9f9",
"QtQtQtQtQtQtQtQtQtQtQtQt.#.a.b.b.b.a.#QtQtQtQtQtQtQtQtQtQtQtQtQt",
"QtQtQtQtQtQtQtQtQtQtQtQt.#.a.b.b.b.a.#QtQtQtQtQtQtQtQtQtQtQtQtQt",
"QtQtQtQtQtQtQtQtQtQtQtQt.#.a.b.b.b.a.#QtQtQtQtQtQtQtQtQtQtQtQtQt",
"QtQtQtQtQtQtQtQtQtQtQtQt.#.a.b.b.b.c.dQtQtQtQtQtQtQtQtQtQtQtQtQt",
"QtQtQtQtQtQtQtQtQtQtQtQt.#.a.b.b.e.f.gQtQtQtQtQtQtQtQtQtQtQtQtQt",
"QtQtQtQtQtQtQtQtQtQtQtQt.#.a.h.i.j.k.lQtQtQtQtQtQtQtQtQtQtQtQtQt",
"QtQtQtQtQtQtQtQtQtQtQtQt.m.n.o.p.q.r.sQtQtQtQtQtQtQtQtQtQtQtQtQt",
"QtQtQtQtQtQtQt.#.#.#.t.d.u.v.w.x.y.z.A.B.C.D.E.FQtQtQtQtQtQtQtQt",
"QtQtQtQtQtQtQtQt.#.G.f.H.I.J.K.L.M.N.O.P.Q.R.SQtQtQtQtQtQtQtQtQt",
"QtQtQtQtQtQt.T.U.U.V.W.X.Y.Z.0.1.2.3.4.5.6.7.8.9.TQtQtQtQtQtQtQt",
"QtQtQtQtQtQt.T.U.U#.###a#b#c#d#e#f#g#h#i#j#k.9.9.TQtQtQtQtQtQtQt",
"QtQtQtQtQt.T#l.U.U.U#l#m#n#o#p#q#r#s#t#u#v.9.9.9#w.TQtQtQtQtQtQt",
"QtQtQtQtQt.T.U.U.U.U.U#x#y#z#A#B#C#D#u#E.U.9.9.9.9.TQtQtQtQtQtQt",
"QtQtQtQt.T#F#G#H#I.U.U.U#J#K#L#M#N#u#O.U.U.9#P#Q#R#S.TQtQtQtQtQt",
"QtQtQtQt#T#U#U#U#J#V#V#V#V#W#X#N#u#Y#V#V#V#Z#0#1#1#1.TQtQtQtQtQt",
"QtQtQt.T#U#U#U#2.U#3#4#4#4#4#5#u#6#4#4#4#4#4#w#7#1#1#1.TQtQtQtQt",
"QtQtQt.T#U#U#8.8#9a.#4#4#4#4#4a##4#4#4#4#4#4aaabac#1#1adQtQtQtQt",
"QtQt.T#U#U#Uae.U#4afagah#4#4#4#4#4#4#4ahagaf#4#w#P#1#1#1adQtQtQt",
"QtQt.T#U#U#Uahahaiajajah#4#4#3ak#3#4#4ahajajakalam#1#1#1#TQtQtQt",
"Qt.T#U#U#U#U#Uajajajajah#4#3anajan#3#4ahajajajaj#1#1#1#1#1.TQtQt",
"Qt.T#U#U#U#Uajajajajajahaoapajajajapaoahajajajajaj#1#1#1#1.TQtQt",
".T.Taqaraq.T.T.Tajajajahasajajajajajasahajajajaraq.T.T.T.T.T.TQt",
".Tatatatatatat.TajajajajajajajajajajajajajajajaqauauauavavawadQt",
".Tataxaxayayay.Tajajajajajajajajajajajajajajaj.TazazaAaBaBawaCQt",
".TaDauauaEaEaE.Tajajajajajajajajajajajajajajaj.TaFaFaGaHaHaIaCQt",
".TaJaKaKaLaLaLQt.T.T.T.T.T.T.T.T.T.T.T.T.T.T.TaMaNaNaOaPaPaQaCQt",
".TaRa.a.#3#3#3aSaTaTaTaTaTaTaTaTaTaTaTaTaTaTaTaUaVaVaWaXaXaYadQt",
".TaZa0a0aMaMaMa1aUaUaUaUaUaUaUaUaUaUaUaUaUaUaUaWa2a2a3a4a4a5.TQt",
".Ta6a7a7aNaNaNaPaWaWaWaWaWaWaWaWaWaWaWaWaWaWaWa3a8a8a9aIaIb.adQt",
".Tb#bababbbbbbbca3a3a3a3a3a3a3a3a3a3a3a3a3a3a3bdbebebfbgbgbhaCQt",
".TbibibibibibiaYa5a5a5a5a5a5a5a5a5a5a5a5a5a5a5bjbhbhbhbhbhbhadQt",
"Qt.T.T.T.T.T.T.T.T.T.T.T.T.T.T.T.T.T.T.T.T.T.T.T.T.T.T.T.T.TQtQt"};
