/* XPM */
static char * extend_search_xpm[] = {
"16 16 147 2",
"  	c None",
". 	c #000000",
"+ 	c #454545",
"@ 	c #474747",
"# 	c #4A4A4A",
"$ 	c #404040",
"% 	c #1C1C1B",
"& 	c #989C9C",
"* 	c #CAD6D6",
"= 	c #D8E9ED",
"- 	c #D1E9EC",
"; 	c #CEE4E6",
"> 	c #ABB2B2",
", 	c #282828",
"' 	c #A5ABAA",
") 	c #E6F4F6",
"! 	c #E4F8FA",
"~ 	c #CFF3F6",
"{ 	c #BEEBF2",
"] 	c #A8DFE8",
"^ 	c #BCE9EE",
"/ 	c #BCCACC",
"( 	c #101010",
"_ 	c #545454",
": 	c #E3F0F2",
"< 	c #EDFCFB",
"[ 	c #EEFCFB",
"} 	c #CFF0F4",
"| 	c #B4E7EF",
"1 	c #97D9E2",
"2 	c #84CED8",
"3 	c #B8EAF0",
"4 	c #686B6B",
"5 	c #9AA0A0",
"6 	c #E0F6F8",
"7 	c #DCF5F6",
"8 	c #DBF3F6",
"9 	c #C6EAF0",
"0 	c #A6E4EC",
"a 	c #8AD6E1",
"b 	c #6BC4D0",
"c 	c #85D2DD",
"d 	c #9CACB0",
"e 	c #0A0A0A",
"f 	c #BEC2C4",
"g 	c #D8F2F5",
"h 	c #C2EBF2",
"i 	c #BBEAF0",
"j 	c #AAE4EB",
"k 	c #8FDCE6",
"l 	c #74D0DB",
"m 	c #56B8C4",
"n 	c #7CCBD3",
"o 	c #C4DCDE",
"p 	c #9EA4A4",
"q 	c #C7E9EE",
"r 	c #A6E0E8",
"s 	c #A0E1EA",
"t 	c #8EDAE3",
"u 	c #74D2DE",
"v 	c #53C1CD",
"w 	c #48ABB4",
"x 	c #74C7D0",
"y 	c #9CB2B6",
"z 	c #565757",
"A 	c #C4E9EE",
"B 	c #8CD3DD",
"C 	c #82D2DC",
"D 	c #6FCAD7",
"E 	c #56C0CC",
"F 	c #44A9B3",
"G 	c #4BAAB3",
"H 	c #A5E3E9",
"I 	c #5A5D5E",
"J 	c #191919",
"K 	c #AEB8BA",
"L 	c #B4E4EA",
"M 	c #80CED6",
"N 	c #5DB9C3",
"O 	c #4CAAB4",
"P 	c #5AB3BD",
"Q 	c #8BD6DE",
"R 	c #BACBCD",
"S 	c #2C2C2C",
"T 	c #44595E",
"U 	c #939B9B",
"V 	c #B6D9DD",
"W 	c #A3DEE6",
"X 	c #90D6E0",
"Y 	c #B8E0E7",
"Z 	c #9CA8A8",
"` 	c #292928",
" .	c #28D0CE",
"..	c #4B4B4B",
"+.	c #C9EA7C",
"@.	c #9AC12C",
"#.	c #355F30",
"$.	c #363636",
"%.	c #565656",
"&.	c #5E5E5E",
"*.	c #373737",
"=.	c #424242",
"-.	c #043C3D",
";.	c #366060",
">.	c #959594",
",.	c #4E4E4E",
"'.	c #E0E828",
").	c #C8EF45",
"!.	c #B6F592",
"~.	c #5AB444",
"{.	c #108750",
"].	c #088258",
"^.	c #3D7649",
"/.	c #2C3934",
"(.	c #111111",
"_.	c #4D4D4D",
":.	c #519720",
"<.	c #77BA32",
"[.	c #61AB3C",
"}.	c #3FB47E",
"|.	c #3BA6B0",
"1.	c #1E8582",
"2.	c #27798F",
"3.	c #324240",
"4.	c #414140",
"5.	c #959695",
"6.	c #44ACC4",
"7.	c #30A04A",
"8.	c #18A042",
"9.	c #187E63",
"0.	c #4CD2FF",
"a.	c #31ACDC",
"b.	c #0E78A3",
"c.	c #39423E",
"d.	c #1CAAA3",
"e.	c #088154",
"f.	c #32ACC9",
"g.	c #30B1E8",
"h.	c #128EC2",
"i.	c #075A83",
"j.	c #434443",
"k.	c #3D3D3E",
"l.	c #0B453A",
"m.	c #1E81A0",
"n.	c #0C79AC",
"o.	c #075E89",
"p.	c #050506",
"      . + @ # $ .               ",
"    % & * = - ; > ,             ",
"  % ' ) ! ~ { ] ^ / (           ",
"  _ : < [ } | 1 2 3 4           ",
". 5 6 7 8 9 0 a b c d e         ",
". f g h i j k l m n o e         ",
". p q r s t u v w x y e         ",
"  z A B C D E F G H I           ",
"  J K L M N O P Q R S           ",
"    T U V W X Y Z `  ...        ",
"  +.@.#.$.%.&.*.=.-.;.>.,.      ",
"'.).!.~.{.].^./.    (.=.>._.    ",
":.<.[.}.|.1.2.3.      (.4.5._.  ",
"6.7.8.9.0.a.b.c.        (.=.5...",
"  d.e.f.g.h.i.            (.j.k.",
"    l.m.n.o.                p.  "};
