/* XPM */
static char * get_format_xpm[] = {
"16 16 183 2",
"  	c None",
". 	c #8F826E",
"+ 	c #AAA39A",
"@ 	c #A6A098",
"# 	c #A29D96",
"$ 	c #9E9A94",
"% 	c #999590",
"& 	c #8C8984",
"* 	c #787774",
"= 	c #727272",
"- 	c #8B7E6C",
"; 	c #E4E4E4",
"> 	c #FFFFFF",
", 	c #FEFEFE",
"' 	c #F5F5F5",
") 	c #C9C8C8",
"! 	c #959595",
"~ 	c #2D2D2D",
"{ 	c #877A68",
"] 	c #88A88E",
"^ 	c #A7CAA7",
"/ 	c #9ABB9B",
"( 	c #94AF95",
"_ 	c #FAFAFA",
": 	c #F8F8F8",
"< 	c #AFAFAF",
"[ 	c #C6C6C6",
"} 	c #497B4B",
"| 	c #407642",
"1 	c #78A26E",
"2 	c #77A16D",
"3 	c #4E8549",
"4 	c #36772E",
"5 	c #B9C8B8",
"6 	c #909090",
"7 	c #F7F7F7",
"8 	c #515151",
"9 	c #4D9947",
"0 	c #365A24",
"a 	c #A3A3A3",
"b 	c #B8B8B8",
"c 	c #C9C9C9",
"d 	c #A0AB9C",
"e 	c #52A941",
"f 	c #2F651F",
"g 	c #D7D7D7",
"h 	c #858584",
"i 	c #6E6E6B",
"j 	c #72706C",
"k 	c #6B6968",
"l 	c #3E853C",
"m 	c #305A28",
"n 	c #5D7355",
"o 	c #DEDEDE",
"p 	c #F4F4F4",
"q 	c #E2E6E3",
"r 	c #3E9933",
"s 	c #205E10",
"t 	c #B5B5B5",
"u 	c #E1E1E1",
"v 	c #DCDBD9",
"w 	c #BFBCB6",
"x 	c #8C8881",
"y 	c #3D3B37",
"z 	c #2E801B",
"A 	c #3E902B",
"B 	c #778D6F",
"C 	c #F3F3F3",
"D 	c #7DA881",
"E 	c #57B144",
"F 	c #466440",
"G 	c #ACABAA",
"H 	c #E4E1DD",
"I 	c #D6D2CC",
"J 	c #D2CDC6",
"K 	c #AEA89E",
"L 	c #312F2B",
"M 	c #3C522F",
"N 	c #5A7253",
"O 	c #ACACAC",
"P 	c #779A7D",
"Q 	c #6EBD60",
"R 	c #256812",
"S 	c #8B8F88",
"T 	c #B1AEAA",
"U 	c #D0CCC6",
"V 	c #C8C2B8",
"W 	c #C3BDB3",
"X 	c #BCB3A2",
"Y 	c #645D51",
"Z 	c #C2C2C2",
"` 	c #7EA182",
" .	c #72C465",
"..	c #226311",
"+.	c #757E70",
"@.	c #BAB7B3",
"#.	c #B2AEA7",
"$.	c #D1CEC7",
"%.	c #B6AEA2",
"&.	c #CAC4BA",
"*.	c #C8BCA7",
"=.	c #686056",
"-.	c #E0E0E0",
";.	c #449341",
">.	c #2A7920",
",.	c #778175",
"'.	c #B9B6B2",
").	c #E1DCD3",
"!.	c #DED7CB",
"~.	c #D0CBC2",
"{.	c #DCD0BE",
"].	c #CBC4B8",
"^.	c #CCBCA4",
"/.	c #645E54",
"(.	c #588356",
"_.	c #364E31",
":.	c #ACAAA6",
"<.	c #CAC6BE",
"[.	c #CBC4B9",
"}.	c #F2E8D7",
"|.	c #E2DACF",
"1.	c #EEDEC6",
"2.	c #DDD4C4",
"3.	c #D0BEA0",
"4.	c #605A50",
"5.	c #C3D1C3",
"6.	c #76937E",
"7.	c #CEC9C1",
"8.	c #CDC7BE",
"9.	c #BAB3A8",
"0.	c #DED5C4",
"a.	c #EDDEC5",
"b.	c #EAD9BE",
"c.	c #E8D4B6",
"d.	c #D1BC9A",
"e.	c #5C564E",
"f.	c #E2E1E0",
"g.	c #5EAA5E",
"h.	c #469441",
"i.	c #748465",
"j.	c #EAE0CE",
"k.	c #A3998A",
"l.	c #A29684",
"m.	c #D8C8AD",
"n.	c #E8D4B5",
"o.	c #E6CFAC",
"p.	c #D1B893",
"q.	c #57534C",
"r.	c #E0DEDB",
"s.	c #B6BEAE",
"t.	c #5F7150",
"u.	c #B2AA9C",
"v.	c #E1D4C0",
"w.	c #C7B8A3",
"x.	c #CCC3B4",
"y.	c #B5A895",
"z.	c #EAD7BA",
"A.	c #E4CAA4",
"B.	c #D0B38A",
"C.	c #534F48",
"D.	c #DFDCD8",
"E.	c #ECE5D8",
"F.	c #D3CABB",
"G.	c #D1C6B5",
"H.	c #E7D6C0",
"I.	c #EAD8BC",
"J.	c #EBDAC0",
"K.	c #EAD7BB",
"L.	c #E3CAA4",
"M.	c #E2C7A0",
"N.	c #CFB286",
"O.	c #4F4C46",
"P.	c #7C7871",
"Q.	c #7C766D",
"R.	c #797266",
"S.	c #787063",
"T.	c #7A7061",
"U.	c #7A6E5E",
"V.	c #796D5A",
"W.	c #786A56",
"X.	c #786953",
"Y.	c #77674F",
"Z.	c #6E5E46",
"    . + @ # $ % & * =           ",
"    - ; > > > , ' ) ! ~         ",
"    { ] ^ / ( _ , : < [ ~       ",
"    } | 1 2 3 4 5 : 6 7 [ 8     ",
"  9 0 a b c d e f g h i j k     ",
"  l m n o p q r s t u v w x y   ",
"    z A B C D E F G H I J K L   ",
"    M N O P Q R S T U V W X L   ",
"    Y Z `  ...+.@.#.$.%.&.*.L   ",
"    =.-.;.>.,.'.).!.~.{.].^.L   ",
"    /.; (._.:.<.[.}.|.1.2.3.L   ",
"    4.; 5.6.7.8.9.0.a.b.c.d.L   ",
"    e.f.g.h.i.j.k.l.m.n.o.p.L   ",
"    q.r.s.t.u.v.w.x.y.z.A.B.L   ",
"    C.D.E.F.G.H.I.J.K.L.M.N.L   ",
"    O.P.Q.R.S.T.U.V.W.X.Y.Z.L   "};
