/* XPM */
static char *local_search[]={
"32 32 291 2",
"Qt c None",
".a c #000000",
"bv c #010101",
"bm c #040404",
"bq c #060606",
"br c #06afb1",
"#l c #080808",
"#M c #090909",
"#X c #0a0a0a",
"cD c #0a0a0b",
"bh c #0ae1df",
"#z c #0c0c0c",
"a7 c #0cfdfa",
"cv c #0d0d0c",
"cq c #121213",
".h c #131313",
"ap c #161616",
"bS c #1b1b1b",
"bI c #212121",
"bT c #262626",
"a1 c #282828",
"ch c #292929",
"b2 c #2a2929",
"aT c #2e2e2d",
".b c #2f2f2f",
".1 c #30302f",
"b9 c #303030",
"a8 c #312928",
"bz c #333333",
"cF c #343232",
"ci c #343434",
"cG c #353130",
"cE c #353535",
"b. c #373736",
"b0 c #39302f",
"ca c #3a3a3a",
"c. c #3d3d3c",
"ax c #3e9ea6",
"b1 c #3f0602",
"bJ c #404041",
"aQ c #419fa7",
"cn c #424243",
"aI c #42a2aa",
"aP c #43a4ad",
"a. c #44a5ae",
"aH c #44a7b0",
"ak c #44abb3",
"a9 c #464646",
"aw c #46aab3",
"bR c #494949",
"bL c #4a4a4a",
"cu c #4a4a4b",
"aO c #4aaab3",
"aj c #4ab6c2",
".q c #4b4b4a",
"al c #4ba5b1",
"#n c #4c4c4b",
"bH c #4c4c4c",
"#9 c #4cb7be",
"aG c #4db8c0",
"cB c #4e1d0b",
"aX c #4eaab6",
"#2 c #4eb2ba",
"#8 c #4ec2ce",
"av c #4ec6d2",
"#y c #505050",
"bn c #515151",
"ay c #52aeb6",
"a# c #52b2ba",
"ai c #52c2ce",
"bs c #535352",
"bj c #545454",
".i c #545552",
"bK c #555554",
"bw c #555555",
"c# c #555653",
"aW c #56aeb8",
"#S c #56b6c2",
"#1 c #56bac8",
"ao c #575757",
"a0 c #585858",
"#3 c #5ab6be",
"aJ c #5abac6",
".c c #5d5d5d",
"am c #5eb6c0",
"#I c #5ebeca",
"aF c #5ebece",
"bA c #606060",
"cy c #612900",
"bQ c #616161",
"#T c #62bec6",
"#0 c #62cad6",
"ah c #62ceda",
"bB c #636363",
"bG c #646464",
".g c #666666",
"au c #66cad8",
"bY c #692608",
"bx c #696969",
"#J c #6ac2cc",
"#H c #6ac2d2",
"aE c #6ac6d2",
"ce c #6b2401",
"bM c #6d6d6d",
"#u c #6ec6ce",
"bl c #727272",
"#v c #72c6d2",
"#t c #76cad6",
"#R c #76ced6",
"at c #76cede",
"#Z c #76d2df",
"cr c #794410",
".C c #797979",
"az c #7acad6",
"#G c #7ad2e2",
"co c #7c4713",
"#h c #7ecad6",
"aN c #7eced6",
"as c #7ed6de",
"a6 c #7f7f80",
".d c #818181",
"#. c #82ced6",
"#Q c #82d6e2",
"aB c #848484",
"#m c #858585",
"#s c #86d2dc",
"aa c #86d6de",
"#Y c #86dae2",
"cj c #87592b",
".# c #878787",
"b# c #898989",
"ag c #8adae2",
"bg c #8b8b8b",
"bt c #8c8c8c",
".f c #8e8e8e",
"#i c #8ed6df",
"#F c #8edae5",
"#P c #8edee6",
"aL c #929292",
"ar c #92d2dc",
".9 c #92d6de",
"bX c #946b43",
"aV c #96d6de",
"#4 c #96dae2",
"#K c #96dee8",
"b8 c #979797",
"bo c #989898",
".e c #9a9a9a",
".X c #9ad6e2",
".Y c #9adae2",
"af c #9adee6",
"#g c #9adeea",
"bU c #9d9d9d",
"cA c #9e3f00",
".8 c #9edae2",
"#U c #9edee6",
"cw c #9f9f9f",
".j c #9fa0a0",
"b3 c #a2a2a2",
".W c #a2dee6",
"#w c #a2e2ee",
"cg c #a5a5a5",
"ac c #a6a6a6",
"#E c #a6e2ea",
"#r c #a6e6ee",
"bd c #a7dfe7",
"cm c #a8a8a8",
".p c #a9a9a9",
"#f c #aae6ee",
"ct c #ae4900",
"ba c #aeb7b9",
"ae c #aedee6",
".7 c #aee6ee",
"cz c #af4600",
"ab c #b1e6ee",
"bF c #b2b2b2",
".r c #b2b8b9",
".L c #b2e2ea",
".K c #b2e6ee",
"#q c #b2eaf0",
".P c #b3b7b8",
"aq c #b3b8b8",
"a2 c #b4b9ba",
".D c #b4bab9",
"aM c #b5babc",
"bN c #b8b8b8",
"aU c #bac1c2",
"#e c #bae6ee",
"#O c #baeaee",
"#L c #bce6ee",
"by c #bdbdbd",
"bc c #bde4eb",
"#V c #bdedf1",
"#7 c #bee6ec",
".V c #beeaf2",
"aY c #beedf1",
"aD c #beeef2",
".J c #beeef6",
"cl c #bf5500",
"bk c #c0c0c0",
"#a c #c1c1c1",
"bp c #c2c2c2",
"#p c #c2eaf2",
".M c #c2eef3",
"aR c #c2f1f7",
"#j c #c2f2f8",
"#W c #c3c3c3",
"an c #c4e6ec",
"ad c #c6d4d4",
"be c #c6e2e8",
"#d c #c6eef2",
"#o c #c8d0d0",
".o c #c9d5d5",
"bb c #c9e0e0",
"#D c #caeaf0",
".I c #caeef2",
".U c #caf2f6",
".k c #cbd7d7",
".n c #cbd8d9",
"#x c #cce2e8",
".l c #cedade",
".T c #cef2f2",
"bW c #d0bbb2",
"aC c #d0e9ed",
".m c #d1e1e5",
".N c #d1eef2",
".z c #d2eef2",
".y c #d2f2f6",
".x c #d2f6f8",
"#5 c #d3d3d3",
"cd c #d46300",
".B c #d4dada",
"cs c #d5782c",
"cC c #d5d3d3",
"#A c #d5e2e5",
".Z c #d5f1f5",
"#k c #d6e2e4",
".6 c #d6f2f6",
"a4 c #d6f9f9",
"cx c #d7d7d7",
"aA c #d7e3e5",
"a3 c #d7f3f4",
".s c #d8e4e4",
"#6 c #d8e4e5",
"bf c #d9e4e6",
".2 c #d9e5e4",
".E c #d9e5e5",
"aK c #d9f9f9",
"#B c #daf2f2",
"#C c #daf2f6",
".w c #daf6fa",
"bZ c #dbdbdb",
"cp c #dd9358",
"bV c #dddddd",
".O c #deebec",
".t c #deeeee",
".u c #def2f2",
".H c #def6f9",
"ck c #dfa473",
"b6 c #dfbba0",
"b4 c #dfdfdf",
"## c #dff9fa",
"bi c #e0e0e0",
"cb c #e1e1e1",
"#N c #e1e9ed",
"b7 c #e2e2e2",
".0 c #e2eff0",
".S c #e2f6fa",
"cc c #e3c5ae",
"cf c #e3e1e1",
"a5 c #e3eeee",
".A c #e4fbfb",
"bE c #e6e6e6",
"aZ c #e6eff0",
".v c #e6f2f6",
"aS c #e6f4f6",
".F c #e6f6fa",
".G c #e6fafa",
"bu c #e8e8e8",
".3 c #eaf6fa",
".Q c #eafafa",
".5 c #eafefe",
"#b c #eefafa",
".R c #eefafe",
".4 c #eefefa",
"b5 c #f0ded2",
"bC c #f0f0f0",
"bP c #f7f7f7",
"bO c #f8f8f8",
"bD c #f9f9f9",
"#c c #ffffff",
"QtQtQtQtQtQtQtQt.#.a.a.a.a.a.a.#QtQtQtQtQtQtQtQtQtQtQtQtQtQtQtQt",
"QtQtQtQtQtQt.a.a.b.c.d.e.e.f.g.h.a.aQtQtQtQtQtQtQtQtQtQtQtQtQtQt",
"QtQtQtQtQt.a.i.d.j.k.l.m.m.l.n.o.p.q.aQtQtQtQtQtQtQtQtQtQtQtQtQt",
"QtQtQtQt.a.i.r.s.t.u.v.w.x.y.z.x.A.B.C.aQtQtQtQtQtQtQtQtQtQtQtQt",
"QtQtQt.a.i.D.E.F.G.H.x.y.I.J.K.L.M.N.O.c.aQtQtQtQtQtQtQtQtQtQtQt",
"QtQt.a.i.P.E.Q.R.Q.S.T.U.V.K.W.X.Y.M.Z.0.1.aQtQtQtQtQtQtQtQtQtQt",
"QtQt.a.d.2.3.4.5.4.G.6.I.V.7.8.9#..9.K###a.aQtQtQtQtQtQtQtQtQtQt",
"Qt.#.b.j.t.3#b#b#c.G.6#d#e#f#g.9#h#h#i#j#k#l#mQtQtQtQtQtQtQtQtQt",
"Qt.a#n#o.v.H.S.G.S.u.z#p#q#r.Y#s#t#u#v#w#x#y#zQtQtQtQtQtQtQtQtQt",
"Qt.a.d#A.Q.x.T#B#C.y#D#e#E#g#F#G#H#I#J#K#L.e#MQtQtQtQtQtQtQtQtQt",
"Qt.a.e#N.G.z#p.I#d.V#O#E#g#P#Q#R#I#S#T#U#V#W#XQtQtQtQtQtQtQtQtQt",
"Qt.a.e#N.H#D.V.V#O.7#f#U#F#Y#Z#0#1#2#3#4#V#5#XQtQtQtQtQtQtQtQtQt",
"Qt.a.f#6.t#7.L#q#f#E.Y#F#Q#Z#0#8#9a.a#aaabac#XQtQtQtQtQtQtQtQtQt",
"Qt.a.qad.yae.Xafaf#Kag#Y#Zahaiajakalam#ganao#MQtQtQtQtQtQtQtQtQt",
"Qt.#apaq.zaear#sagagasatauavajawaxayaz#qaA.aaBQtQtQtQtQtQtQtQtQt",
"QtQt.a.faCaDaf#h#h#taEaF#1aGaHaxaIaJ#PaKaL.aQtQtQtQtQtQtQtQtQtQt",
"QtQt.a.qaM.zaD.9aN#uaJa#aOaPaQay#S#FaRaSaTaBQtQtQtQtQtQtQtQtQtQt",
"QtQtQt.a.CaU.zaeaVaN#JamaWaXam#tagaYaZa0.a.aQtQtQtQtQtQtQtQtQtQt",
"QtQtQta1.a.Ca2a3.J.W#4#saz#t#i.Ka4a5a0.aa6a7.aQtQtQtQtQtQtQtQtQt",
"QtQtQta8a9.ab.b#babbbc.K#fbdbebfbgaT.a.qbhbhbi.aQtQtQtQtQtQtQtQt",
"QtQtQtbjbkbl.a.abmbnbobp#5acao.a.aaBbqbrbrbsbtbubvQtQtQtQtQtQtQt",
"QtQtbwbkblbxbybu#m.a.a.a.a.a.aaBQtQtQt.abz.qbsbtbu.aQtQtQtQtQtQt",
"QtbAbkblbBbybCbDbDbEbFbGbH.dbIQtQtQtQtQt.abzbJbKbtbu.aQtQtQtQtQt",
"bLbkbMbBbNbCbObObObPbCbFbQbR.dbSQtQtQtQtQt.abzbJbsbtbu.aQtQtQtQt",
"Qta1bTbUbVbDbWbXbYbWbDbZbgb0b1QtQtQtQtQtQtQt.abzbJbsbtbu.aQtQtQt",
"QtQtb2b3b4bDbXb5b6bYbDb7b8b9QtQtQtQtQtQtQtQtQt.abzc.c#btbu.aQtQt",
"QtQtca.pcbbDbXcccdcebDcfcgchQtQtQtQtQtQtQtQtQtQt.acic.c#btbu.aQt",
"QtQtca.pcbbDcjckclcebDcfcmchQtQtQtQtQtQtQtQtQtQtQt.acicnc#btbi.a",
"QtQtca.pcbbDcocpclcebDcf.pchQtQtQtQtQtQtQtQtQtQtQtQt.acicnc#btcq",
"QtQtca.pcbbDcrcsctcebDcfcmchQtQtQtQtQtQtQtQtQtQtQtQtQt.acicncucv",
"QtQtcacw#5cxcyczcAcBcxcCcwchQtQtQtQtQtQtQtQtQtQtQtQtQtQt.acDcDQt",
"QtQtQtcacEcFchchchchcGcEcha1QtQtQtQtQtQtQtQtQtQtQtQtQtQtQtQtQtQt"};
