/* XPM */
static char * pause_resume_xpm[] = {
"16 16 45 1",
" 	c None",
".	c #131313",
"+	c #2C2C2C",
"@	c #171717",
"#	c #1F1F1F",
"$	c #242424",
"%	c #181818",
"&	c #1A1A1A",
"*	c #B9B9B9",
"=	c #626262",
"-	c #E3E3E3",
";	c #606060",
">	c #545454",
",	c #A2A2A2",
"'	c #BDBDBD",
")	c #555555",
"!	c #7A7A7A",
"~	c #868686",
"{	c #7B7B7B",
"]	c #676767",
"^	c #808080",
"/	c #6F6F6F",
"(	c #7F7F7F",
"_	c #646464",
":	c #B0B0B0",
"<	c #7D7D7D",
"[	c #5F5F5F",
"}	c #616161",
"|	c #828282",
"1	c #575757",
"2	c #8A8A8A",
"3	c #727272",
"4	c #7C7C7C",
"5	c #535353",
"6	c #D0D0D0",
"7	c #5C5C5C",
"8	c #8C8C8C",
"9	c #B3B3B3",
"0	c #949494",
"a	c #151515",
"b	c #3F3F3F",
"c	c #212121",
"d	c #909090",
"e	c #8D8D8D",
"f	c #8E8E8E",
"                ",
"                ",
"                ",
" .+@ #$  %&$*   ",
" =-;>,') !~{]   ",
" =-;>,') !~^/(  ",
" =-;>,') !~^(_: ",
" =-;>,') !~^^<[ ",
" =-}|,') !~^^^1 ",
" =-}2,') !~^^3! ",
" =-}2,') !~^4=  ",
" 567_89> {08_9  ",
" a+b c+7 )def   ",
"                ",
"                ",
"                "};
