/* XPM */
static char * pause_resume_xpm[] = {
"32 32 96 2",
"  	c None",
". 	c #000000",
"+ 	c #202020",
"@ 	c #CBCBCB",
"# 	c #060606",
"$ 	c #2C2C2C",
"% 	c #494949",
"& 	c #454545",
"* 	c #282828",
"= 	c #1D1D1D",
"- 	c #1E1E1E",
"; 	c #474747",
"> 	c #313131",
", 	c #151515",
"' 	c #111111",
") 	c #393939",
"! 	c #969696",
"~ 	c #121212",
"{ 	c #8F8F8F",
"] 	c #EBEBEB",
"^ 	c #DBDBDB",
"/ 	c #7F7F7F",
"( 	c #414141",
"_ 	c #808080",
": 	c #5F5F5F",
"< 	c #E4E4E4",
"[ 	c #DEDEDE",
"} 	c #9C9C9C",
"| 	c #363636",
"1 	c #7D7D7D",
"2 	c #353535",
"3 	c #B5B5B5",
"4 	c #8C8C8C",
"5 	c #707070",
"6 	c #2A2A2A",
"7 	c #BBBBBB",
"8 	c #7B7B7B",
"9 	c #616161",
"0 	c #505050",
"a 	c #868686",
"b 	c #727272",
"c 	c #232323",
"d 	c #B0B0B0",
"e 	c #7C7C7C",
"f 	c #676767",
"g 	c #565656",
"h 	c #BCBCBC",
"i 	c #D8D8D8",
"j 	c #525252",
"k 	c #797979",
"l 	c #C2C2C2",
"m 	c #757575",
"n 	c #979797",
"o 	c #7E7E7E",
"p 	c #6D6D6D",
"q 	c #434343",
"r 	c #424242",
"s 	c #919191",
"t 	c #5B5B5B",
"u 	c #2D2D2D",
"v 	c #9A9A9A",
"w 	c #787878",
"x 	c #F5F5F5",
"y 	c #F1F1F1",
"z 	c #8B8B8B",
"A 	c #8D8D8D",
"B 	c #4F4F4F",
"C 	c #EAEAEA",
"D 	c #F3F3F3",
"E 	c #ACACAC",
"F 	c #383838",
"G 	c #0D0D0D",
"H 	c #636363",
"I 	c #ADADAD",
"J 	c #AEAEAE",
"K 	c #656565",
"L 	c #3F3F3F",
"M 	c #A4A4A4",
"N 	c #AFAFAF",
"O 	c #323232",
"P 	c #B9B9B9",
"Q 	c #A5A5A5",
"R 	c #9D9D9D",
"S 	c #949494",
"T 	c #646464",
"U 	c #222222",
"V 	c #DCDCDC",
"W 	c #C1C1C1",
"X 	c #3B3B3B",
"Y 	c #464646",
"Z 	c #575757",
"` 	c #585858",
" .	c #6A6A6A",
"..	c #3A3A3A",
"+.	c #626262",
"@.	c #3D3D3D",
"                                                                ",
"                                                                ",
"                                                                ",
"                                                                ",
"                                                                ",
"                                                                ",
"      . . . .       . . . .         . . . . . + @               ",
"    # $ % & * =     - ; & > ,       ' ) $ * * ) !               ",
"    ~ { ] ^ / ( _   : < [ } | 1     2 3 4 _ _ 5 6 7             ",
"    ~ { ] ^ / ( _   : < [ } | 1     2 3 4 _ _ 8 : 9 @           ",
"    ~ { ] ^ / ( _   : < [ } | 1     2 3 4 _ _ _ 8 0 a           ",
"    ~ { ] ^ / ( _   : < [ } | 1     2 3 4 _ _ _ _ b c d         ",
"    ~ { ] ^ / ( _   : < [ } | 1     2 3 4 _ _ _ _ e f g h i     ",
"    ~ { ] ^ / ( _   : < [ } | 1     2 3 4 _ _ _ _ _ _ j k l     ",
"    ~ { ] ^ / ( _   : < [ } | 1     2 3 4 _ _ _ _ _ _ m | n     ",
"    ~ { ] ^ / ( _   : < [ } | 1     2 3 4 _ _ _ _ _ _ o p q     ",
"    ~ { ] ^ / r s t : < [ } | 1     2 3 4 _ _ _ _ _ _ _ e u     ",
"    ~ { ] ^ / q v k : < [ } | 1     2 3 4 _ _ _ _ _ _ o p q     ",
"    ~ { ] ^ / q v k : < [ } | 1     2 3 4 _ _ _ _ _ _ m | n     ",
"    ~ { ] ^ / q v k : < [ } | 1     2 3 4 _ _ _ _ _ _ j w l     ",
"    ~ { ] ^ / q v k : < [ } | 1     2 3 4 _ _ _ _ e f g h       ",
"    ~ { ] ^ / q v k : < [ } | 1     2 3 4 _ _ _ _ b c d         ",
"    ~ { x y z r A B : C D E F 1     2 3 4 _ _ _ 8 0 a           ",
"    G H I J K L _   ( M N 1 O 1     2 P Q R R S T 9 @           ",
"    . . . . . ) _   . . . . U 1     2 l V V V W X 7             ",
"      Y Z ` `  ._   ..g ` ` +./     ' @.& & & j }               ",
"        _ _ _ _       _ _ _ _       . . . . . + @               ",
"                                                                ",
"                                                                ",
"                                                                ",
"                                                                ",
"                                                                "};
