/* XPM */
static char *preview[]={
"32 32 496 2",
"Qt c None",
"cy c #000000",
"b8 c #005788",
"bP c #006495",
".S c #010103",
"bw c #014b7b",
".a c #020204",
"bL c #02577f",
"br c #02658d",
"aC c #03679d",
"cp c #055480",
"bd c #055687",
"bM c #056494",
"dC c #06b2bc",
"dh c #06e6ec",
"bs c #0778ae",
"aV c #086395",
"bO c #0a5d8d",
"c2 c #0a8484",
"#L c #0a86c3",
"cV c #0afefc",
"a9 c #0b6d8e",
"av c #0b85c8",
"c3 c #0c7d7e",
"cK c #108f9a",
"c1 c #109d9b",
"b. c #117bb3",
"bt c #1186ba",
"eN c #121418",
"#5 c #1286be",
"aP c #138eca",
"cJ c #15807f",
"b7 c #17648b",
"b5 c #178c91",
"cI c #179e9e",
"co c #1b7c98",
"dK c #1c1c1d",
"bq c #1da8a8",
"dd c #1e2264",
"cH c #1ea6a6",
"dU c #202220",
"b6 c #205f74",
"ba c #209bd1",
"ak c #217aac",
"bv c #217ca9",
"a6 c #21935e",
"dD c #222226",
"ct c #222e22",
"e. c #265e94",
"bb c #2690c5",
"bK c #26aca9",
"b# c #289dd1",
"#9 c #292826",
"a7 c #29a596",
"a8 c #29aaa6",
"cG c #29b1af",
"cO c #2a3e2a",
"c9 c #2a6044",
"aO c #2a8e63",
"bE c #2b8d6b",
"cn c #2b9b9b",
"bN c #2c81aa",
"bu c #2c91bc",
"aT c #2c98cb",
"a0 c #2d2e2d",
"c0 c #2db3b5",
"fh c #2e3430",
"dc c #2e548c",
"bc c #2e8db8",
"aS c #2ea3d8",
"cm c #2fadad",
"e9 c #313131",
"c4 c #31989a",
"d1 c #323235",
"dy c #323664",
"dS c #324a84",
"cl c #32bab7",
".M c #343437",
"aQ c #34a3da",
".N c #353537",
"dO c #35735f",
"cF c #35b6b2",
"bS c #363638",
"du c #367955",
".L c #373739",
"d7 c #377561",
"eY c #383437",
"eD c #38393d",
"aw c #38afe5",
"d0 c #3a3939",
"c8 c #3a4a3a",
"aj c #3aacda",
"aG c #3b3a3a",
"fN c #3b3c40",
"aU c #3b9cc4",
"af c #3bb1dd",
"fG c #3c3c3c",
"dY c #3e3d3d",
"dE c #3e3e4e",
"cU c #3e3e5c",
"cT c #3e4a6c",
"ds c #3e6c53",
"bp c #3ec2c2",
".4 c #3f3e3e",
"dB c #3f3f3f",
"aB c #3f9dc7",
"dZ c #414142",
"fT c #424242",
"#A c #424243",
"ei c #424c4d",
".# c #434343",
"cq c #4490b4",
".b c #454545",
"aN c #45ab6e",
"cE c #45bab4",
"fQ c #46454f",
"cR c #467e83",
".f c #474747",
"#T c #484648",
".l c #484848",
"#K c #4878a4",
"d9 c #48b2b0",
"aR c #49b5e2",
".u c #4a4a4a",
"fJ c #4a4a4c",
"cw c #4a888d",
"b9 c #4aa8cf",
"#W c #4aac5f",
"b4 c #4ab8b9",
"de c #4b4b4b",
".F c #4c4c4c",
"d# c #4c736c",
"bn c #4cb7ae",
"cA c #4e4c4d",
".T c #4e4e4e",
".O c #4e4e50",
"cP c #4e9255",
"d. c #4e9e56",
"ci c #4ec1b7",
"bU c #4f4f4f",
".6 c #505050",
"eo c #50ab56",
"bD c #50b55e",
"bh c #515151",
"eM c #515152",
"dv c #517b73",
"#i c #525252",
"e# c #525a7c",
"ep c #527c74",
"er c #52a29c",
"di c #535051",
".W c #535253",
"aF c #535353",
"bm c #53a88e",
"dR c #53b0b5",
"ch c #53c2ba",
"dJ c #545152",
"#y c #545454",
"eJ c #549270",
"dA c #555555",
"et c #55575b",
"a5 c #55b05c",
"#Q c #565656",
"bV c #565657",
"ac c #568a47",
"b3 c #56ccc5",
"aA c #57b6e1",
"ae c #584164",
"dt c #58c156",
"ck c #59c9c2",
"c# c #5a544d",
"#k c #5a5a5b",
"al c #5a8fb2",
"bY c #5abcb0",
"cW c #5b595c",
"bJ c #5bcbc0",
"e8 c #5c5d5e",
"es c #5d6269",
"bk c #5ebf69",
"eO c #5f5f5f",
"#2 c #60b7d8",
"ab c #60ce82",
"fF c #625c64",
"eL c #626261",
"#B c #626470",
"c5 c #63c6c6",
"#1 c #644966",
"dX c #64615d",
".K c #646466",
"#J c #654160",
"dT c #656570",
"#M c #657f6b",
"az c #66c1e7",
"fr c #676767",
"bl c #67b76f",
"cS c #69c4d2",
"#g c #6a6a6d",
"dx c #6abbc1",
"fq c #6e6d6c",
"e4 c #6e8e84",
"d6 c #6ec96c",
"#x c #6f6e6d",
"au c #6fc667",
"dr c #717272",
"fK c #72523c",
"fM c #727374",
"cD c #72cbc7",
"cZ c #73cfc7",
"db c #75c4c9",
"dQ c #75c5bf",
"ax c #75c9ec",
"e7 c #767379",
"dF c #767d7d",
"#6 c #767e82",
"bR c #778486",
"bF c #77cbc3",
"cj c #77d1c9",
"dN c #77d275",
"cQ c #788487",
"#4 c #79d0f4",
"an c #7b7161",
"cL c #7b9bac",
"aE c #7c8483",
"bZ c #7ccfc8",
"a3 c #7dcb7d",
".X c #7e7d7c",
"fO c #7e7e7e",
"fp c #7e8284",
"dM c #7eb47c",
"#R c #7f7f7f",
"bo c #7fd8d3",
"dL c #806c61",
"#z c #808080",
"dP c #80908c",
"d5 c #80c07e",
"#j c #818181",
"#P c #837c75",
"#l c #838283",
".7 c #838383",
"aq c #83c57c",
"aJ c #83ca7f",
"cs c #847e7e",
".U c #848484",
"dz c #858585",
".G c #868686",
"a4 c #86cb84",
".v c #878787",
"dI c #879c9a",
"cc c #888888",
"dG c #889d9a",
".J c #898888",
".m c #898989",
"fE c #898a8c",
".g c #8a8a8a",
"ad c #8b4e28",
"aZ c #8b8b8b",
".c c #8c8c8c",
"cg c #8cd3c4",
"fS c #8d8e89",
"bB c #918e93",
"fD c #929295",
"eq c #929e9c",
"aX c #949fa4",
"a# c #94cd89",
"bi c #959b98",
"fL c #96959c",
"d8 c #96a5a9",
"dH c #98b0ab",
"aa c #98d893",
"by c #99a3a5",
"b0 c #99dcd7",
"ao c #9a9e99",
"bf c #9aafb4",
"ay c #9adcf3",
"be c #9bc7d7",
"bG c #9bdcd9",
"fR c #9c9c9f",
"dw c #9cd7da",
"d2 c #9e6f32",
"aM c #9edda5",
"#X c #9f3930",
"d3 c #9f583a",
"bx c #9fc7d8",
"c7 c #a19a9d",
".3 c #a1a1a0",
"fy c #a28880",
"bg c #a28a6f",
"eZ c #a2a39f",
"bX c #a2dab0",
"dm c #a2dfda",
"aL c #a2e0b1",
"#u c #a49191",
"eP c #a4a29e",
"aY c #a58d71",
"cN c #a59d9e",
"eK c #a6a4a4",
"a1 c #a6ada4",
"aK c #a6dca1",
"cu c #a79986",
"eE c #a7a5a7",
"dj c #a7acb9",
"ai c #a7e0f3",
"bI c #a7e2dc",
"aH c #a8b3a6",
"bT c #a99a88",
"bz c #a99b88",
"f. c #a9a7a2",
"cv c #aa9b89",
"fo c #aaaaa5",
"da c #aadbdd",
"ag c #aae1f5",
"dn c #aae4e0",
"ej c #ab9460",
"en c #acd4a2",
"#3 c #ace9f8",
".Y c #adaeaf",
"dV c #aeaaa4",
"eh c #afa79b",
"dW c #afaaa3",
"aW c #afd0e2",
"ce c #b0b0af",
"bA c #b19779",
".2 c #b1aba9",
"ec c #b1ada7",
"eb c #b1ada8",
"e6 c #b2b4a8",
"eg c #b3aca1",
"ev c #b3afab",
"e5 c #b4b5b5",
"ed c #b5b0a8",
"ew c #b6b1ac",
"ea c #b7b4af",
"bQ c #b7e1ef",
"eQ c #b8b4b0",
"fn c #b8baba",
"dq c #b8ccce",
"b2 c #b8e4e1",
"eu c #b9b6b3",
"el c #ba7863",
"ca c #baaa95",
"#8 c #babab8",
"ar c #badbb5",
"ef c #bbb4aa",
"ee c #bbb5ac",
"do c #bbece6",
".P c #beb9b2",
"aD c #bee1ed",
"ex c #bfbab3",
"a2 c #c0e3bb",
"eC c #c1b7ab",
"dg c #c1c1c1",
"fC c #c1c2c5",
"#U c #c3c2c4",
"eG c #c46d5b",
"cC c #c4e3dc",
"ek c #c6792a",
".1 c #c6a5a5",
"fi c #c6c2a4",
"#V c #c6daba",
"eR c #c8c3bc",
"f# c #c8c4bf",
"cr c #c8cedc",
"dl c #c8e6e1",
"cY c #c8e6e6",
"eB c #c9c0b4",
"e1 c #ca7e64",
"bj c #cae3c6",
"aI c #cae4c5",
"ey c #cbc4bb",
".9 c #cccacc",
"d4 c #cdbdab",
"fs c #cdc9c2",
"c6 c #cddfdc",
"#S c #cececf",
"cM c #ced5d6",
"dp c #cee6e6",
"cb c #cfb18e",
"cx c #d0b18e",
"#h c #d0b89b",
"fm c #d0d4d2",
".Z c #d2b6b6",
"#f c #d2d4d5",
"c. c #d2dae0",
"cB c #d4d5d3",
"at c #d4f2d1",
"bW c #d5dfd3",
"cX c #d6d7d7",
"e3 c #d7d6d4",
"eF c #d89e5c",
"eA c #d8cfc3",
"ez c #d8d1c6",
"eI c #d9ddd2",
".5 c #dac1a4",
"eS c #dad4cc",
"dk c #dae0e0",
"b1 c #daf1ef",
"bC c #dbeed4",
"bH c #dbf0ef",
"ah c #dbf1fa",
"fH c #ddd8d2",
"fk c #dea68c",
"a. c #deeadc",
"ap c #deefda",
"fa c #dfdad2",
"cd c #dfdedf",
"#t c #e04242",
"#Y c #e04e4c",
"eX c #e0d4c6",
"cf c #e0eee5",
"as c #e1f2e8",
"#s c #e31d23",
".e c #e3dacf",
".d c #e4dcd3",
"#O c #e4ddab",
"fP c #e4ddd4",
".i c #e4ded5",
".h c #e4e0d9",
".R c #e5ccae",
"eW c #e5dacc",
".o c #e5e1da",
"am c #e5e3cf",
"fg c #e6ccad",
".n c #e6e3dd",
"ff c #e7ceb0",
"eT c #e7dfd4",
".x c #e7e4e0",
"fB c #e7e7e4",
".0 c #e8c0c0",
".E c #e8cfb5",
"fw c #e8d4b9",
".w c #e8e5e3",
".I c #e8e7e5",
"fx c #e9d1b4",
".H c #e9e9e8",
"#I c #ea2c31",
"fz c #ea8e34",
".t c #ead0b5",
"#w c #eae7cd",
".V c #eaeaea",
".k c #ebd7ba",
"fI c #ebd7bc",
"#0 c #ec323a",
"eV c #eee3d6",
"#m c #eee9e8",
"eU c #efe5d9",
"fb c #efe8de",
"em c #efeff1",
"fA c #f0eae0",
"e2 c #f0f6ec",
"ft c #f1eae1",
"fl c #f1f2f5",
"#. c #f2dade",
"#7 c #f2e1b5",
".Q c #f3e8d9",
"fj c #f49c55",
"fe c #f4eadb",
"e0 c #f5a86a",
"fd c #f5ecdf",
"fc c #f5ede1",
".D c #f6ecdf",
".s c #f6ede0",
"#C c #f7e5e2",
"fv c #f7eee2",
".C c #f7eee3",
".r c #f7efe4",
"fu c #f7efe5",
"#v c #f8e8b5",
"#e c #f8e9da",
".j c #f8f0e5",
".B c #f8f0e6",
".q c #f8f1e7",
"eH c #f8f8fa",
"#r c #f93f3c",
".A c #f9f2ea",
".p c #f9f3eb",
"#E c #fa7277",
"#q c #fa7979",
"#H c #fa7a7c",
".z c #faf4ed",
"#Z c #fb7478",
".y c #fbf6f0",
"cz c #fbfbfa",
"#G c #fcb5b4",
"#N c #fdde86",
"#p c #fea2a1",
"df c #fefefe",
"#F c #ff8686",
"#c c #ff9f9f",
"#b c #ffa2a2",
"#o c #ffa4a2",
"#a c #ffbbbd",
"#d c #ffbcb4",
"#D c #ffbfc6",
"## c #ffd4d4",
"#n c #ffd4d8",
".8 c #ffffff",
"QtQtQtQtQtQtQtQtQtQtQtQtQtQtQtQtQtQtQtQt.#.aQtQtQtQtQtQtQtQtQtQt",
"QtQtQtQtQtQtQtQtQtQtQtQtQtQtQtQtQtQt.b.c.d.e.aQtQtQtQtQtQtQtQtQt",
"QtQtQtQtQtQtQtQtQtQtQtQtQtQtQtQt.f.g.h.i.j.k.aQtQtQtQtQtQtQtQtQt",
"QtQtQtQtQtQtQtQtQtQtQtQtQtQt.l.m.n.o.p.q.r.s.t.aQtQtQtQtQtQtQtQt",
"QtQtQtQtQtQtQtQtQtQtQtQt.u.v.w.x.y.z.A.B.C.D.E.aQtQtQtQtQtQtQtQt",
"QtQtQtQtQtQtQtQtQtQt.F.G.H.I.J.K.L.M.N.O.u.P.Q.R.SQtQtQtQtQtQtQt",
"QtQtQtQtQtQtQtQt.T.U.V.V.W.W.X.Y.Z.0.1.2.3.4.u.5.SQtQtQtQtQtQtQt",
"QtQtQtQtQtQt.6.7.V.V.8.K.W.9#.###a#b#c#d#e#f#g.O#h.SQtQtQtQtQtQt",
"QtQtQtQt#i#j.V.V.8.8#k#l#m#n#o#p#q#r#s#t#u#v#w#x.O.SQtQtQtQtQtQt",
"QtQt#y#z.V.V.8.8.8#A#B#C#D#E#F#G#H#I#J#K#L#M#N#O#g#P.SQtQtQtQtQt",
"#Q#R.V.V.8.8.8.8#S#T#U#V#W#X#Y#Z#0#1#2#3#4#5#6#7#8#9.SQtQtQtQtQt",
"#Q.V.8.8.8.8.8.8.O#ga.a#aaabacadaeafagahaiajakalam.uan.SQtQtQtQt",
"Qt.c.V.8.8.8.8.8.WaoapaqarasatauavawaxayazaAaBaCaDaE#T.SQtQtQtQt",
"QtaF.V.8.8.8.8.8aGaHaIaJaKaLaMaNaOaPaQaRaSaTaUaVaWaX#AaY.SQtQtQt",
"QtQtaZ.V.8.8.8.8a0a1a2a3a4a5a6a7a8a9b.b#babbbcbdbebf#Abg.SQtQtQt",
"QtQtbh.V.8.8.8.8a0bibjbkblbmbnbobpbqbrbsbtbubvbwbxby#AbzbA.SQtQt",
"QtQtQt.m.V.8.8.8.WbBbCbDbEbFbGbHbIbJbKbLbMbNbObPbQbRbSbTbA.SQtQt",
"QtQtQtbU.V.8.8.8bV#gbWbXbYbZb0b1b2b3b4b5b6b7b8b9c..Wc#bTcacb.SQt",
"QtQtQtQtcc.V.8.8cd.OcecfcgchcicjckclcmcncocpcqcrcsctcucvcwcxcyQt",
"QtQtQtQt.T.V.8.8czaGcAcBcCcDcEcFcGcHcIcJcKcLcMcNcOcPcQcRcScTcU.a",
"QtQtQtQtQt.v.V.8.acV#AcWcXcYcZc0c1c2c3c4c5c6c7c8c9d.d#dadbdcdd.a",
"QtQtQtQtQtde.Vdf.adgdhbSdidjdkdldmdndodpdqdrctdsdtdudvdwdxdcdy.a",
"QtQtQtQtQtQtdz.adgdAdBdCdDdE#kdFdGdHdIdJ.4dKdLdMdNdOdPdQdRdSdT.a",
"QtQtQtQtQtQt.adgdAdBdU.adVdWdXdYdZd0.Nd1d2d3d4d5d6d7d8d9e.e#dT.a",
"QtQtQtQtQt.adgdAdB.aeaebecedeeefegeheiejekelemeneoepeqerdSeset.a",
"QtQtQtQt.adgdAdB.aeuevewexeyezeAeBeCeDeEeFeGeHeIeJdPeKdSeseLeM.a",
"QtQtQt.adgdAdBeNeOePeQeReSeTeUeVeWeXeYeZe0e1e2e3e4e5e6.Ge7dTe8.a",
"QtQt.adgdAdB.aQte9f.f#fafbfcfdfefffgfhfifjfkflfmfnfnfoeKfpfqes.a",
"Qt.adgdAdB.aQtQtQtfrfsftfufvfwfxcycy.afyfzfAfBfmfCfCe5e6fDfEfF.a",
".adgdAdB.aQtQtQtQtfGfH.qfI.kcycyQtQt.afJfKfLfofofofDfMfqe8eMfN.a",
".adAdB.aQtQtQtQtQtQtfOfPcycyQtQtQtQt.afQdTeZe5e5fofRfSe7eMfNfJ.a",
"Qt.a.aQtQtQtQtQtQtQtfTcyQtQtQtQtQtQtQt.a.a.a.a.a.a.a.a.a.a.a.aQt"};
