/* XPM */
static char * preview_xpm[] = {
"16 16 165 2",
"  	c None",
". 	c #686868",
"+ 	c #837F7A",
"@ 	c #A7A5A2",
"# 	c #EEE8E0",
"$ 	c #F4E9D9",
"% 	c #4F473F",
"& 	c #696969",
"* 	c #A8A8A8",
"= 	c #AFADAC",
"- 	c #989593",
"; 	c #9D9996",
"> 	c #BDB7B0",
", 	c #B0A190",
"' 	c #6A6A6A",
") 	c #AAAAAA",
"! 	c #CECECE",
"~ 	c #717071",
"{ 	c #C7B6B7",
"] 	c #EEB5B5",
"^ 	c #DDABA8",
"/ 	c #AAA7A3",
"( 	c #77716B",
"_ 	c #463E36",
": 	c #F4F4F4",
"< 	c #D0D0D0",
"[ 	c #8E898C",
"} 	c #FABCBF",
"| 	c #FEA09F",
"1 	c #F65858",
"2 	c #9C465A",
"3 	c #83A09D",
"4 	c #CEC49B",
"5 	c #4F4D4D",
"6 	c #858585",
"7 	c #FFFFFF",
"8 	c #747375",
"9 	c #BFD5B9",
"0 	c #78A369",
"a 	c #AF664D",
"b 	c #795B78",
"c 	c #A4DCF0",
"d 	c #5BB8E0",
"e 	c #799AA5",
"f 	c #84847E",
"g 	c #2A2622",
"h 	c #707070",
"i 	c #747773",
"j 	c #ACD8A6",
"k 	c #B9E2BC",
"l 	c #8AD093",
"m 	c #2094B6",
"n 	c #63BFE7",
"o 	c #46ACDB",
"p 	c #2181AF",
"q 	c #9FB5BE",
"r 	c #4C4640",
"s 	c #ACACAC",
"t 	c #656966",
"u 	c #99D49A",
"v 	c #65B677",
"w 	c #45B29D",
"x 	c #24A0A8",
"y 	c #107DB0",
"z 	c #2190C3",
"A 	c #156A99",
"B 	c #9BB8C2",
"C 	c #746A5F",
"D 	c #3C332A",
"E 	c #6C6C6C",
"F 	c #69686A",
"G 	c #A8D7AD",
"H 	c #5EB9AA",
"I 	c #BAE6E4",
"J 	c #84D7D0",
"K 	c #22929C",
"L 	c #1A6A8F",
"M 	c #15709E",
"N 	c #95A4AA",
"O 	c #787065",
"P 	c #8F7D68",
"Q 	c #999899",
"R 	c #ACB0AD",
"S 	c #85D1C8",
"T 	c #50C0BA",
"U 	c #34B6B4",
"V 	c #229A99",
"W 	c #2B7E98",
"X 	c #A0B4C1",
"Y 	c #485F48",
"Z 	c #848E86",
"` 	c #709296",
" .	c #151520",
"..	c #347171",
"+.	c #366E71",
"@.	c #A6AEB2",
"#.	c #90D2CF",
"$.	c #5AB9B6",
"%.	c #72BAB9",
"&.	c #96B9B8",
"*.	c #4F6053",
"=.	c #428E51",
"-.	c #79A8A6",
";.	c #4F8AA8",
">.	c #151734",
",.	c #525254",
"'.	c #1A4548",
").	c #6F6D6F",
"!.	c #5C5D5C",
"~.	c #677270",
"{.	c #505556",
"].	c #664832",
"^.	c #93A782",
"/.	c #54A168",
"(.	c #75ABA9",
"_.	c #3F6C92",
":.	c #34343A",
"<.	c #424243",
"[.	c #3F3E3E",
"}.	c #B4B0AC",
"|.	c #BCB7AF",
"1.	c #CAC2B8",
"2.	c #BBB2A7",
"3.	c #737064",
"4.	c #C77F51",
"5.	c #DBE6D8",
"6.	c #5E9272",
"7.	c #6F8C98",
"8.	c #545C6E",
"9.	c #2A2B2D",
"0.	c #1C1C1E",
"a.	c #777674",
"b.	c #CAC5BF",
"c.	c #E9E2D8",
"d.	c #F2E8DA",
"e.	c #E4D2BC",
"f.	c #74736A",
"g.	c #E49A6C",
"h.	c #E2E4E2",
"i.	c #A4AEAB",
"j.	c #A2A29E",
"k.	c #727276",
"l.	c #2F3134",
"m.	c #161618",
"n.	c #525252",
"o.	c #E5DFD7",
"p.	c #F1E3CF",
"q.	c #74695B",
"r.	c #000000",
"s.	c #3C3635",
"t.	c #B8987B",
"u.	c #C3C4C0",
"v.	c #B0B0B1",
"w.	c #92928F",
"x.	c #727274",
"y.	c #28272B",
"z.	c #1E1E1F",
"A.	c #696765",
"B.	c #19181D",
"C.	c #434346",
"D.	c #5B5C5C",
"E.	c #525253",
"F.	c #424142",
"G.	c #242426",
"H.	c #1A1A1C",
"                  . +           ",
"              . @ # $ %         ",
"          & * = - ; > ,         ",
"      ' ) ! ~ { ] ^ / ( _       ",
"  ' ) : < [ } | 1 2 3 4 5       ",
"6 : 7 7 8 9 0 a b c d e f g     ",
"h : 7 7 i j k l m n o p q r     ",
"  s 7 7 t u v w x y z A B C D   ",
"  E : 7 F G H I J K L M N O P   ",
"    ) 7 Q R S T U V W X Y Z `  .",
"    & : ..+.@.#.$.%.&.*.=.-.;.>.",
"      ,.' '.).!.~.{.].^./.(._.:.",
"    <.' [.}.|.1.2.3.4.5.6.7.8.9.",
"  <.' 0.a.b.c.d.e.f.g.h.i.j.k.l.",
"<.' m.  n.o.p.q.r.s.t.u.v.w.x.y.",
"z.m.      A.r.    B.C.D.E.F.G.H."};
