/* XPM */
static char * refres_xpm[] = {
"16 16 97 2",
"  	c None",
". 	c #225E37",
"+ 	c #5D916F",
"@ 	c #608C6E",
"# 	c #1B6E37",
"$ 	c #102A1A",
"% 	c #205C35",
"& 	c #77A386",
"* 	c #ACE3BE",
"= 	c #50AE70",
"- 	c #0C7030",
"; 	c #063216",
"> 	c #04220E",
", 	c #021408",
"' 	c #010C05",
") 	c #07441D",
"! 	c #97C1A4",
"~ 	c #8DD6A5",
"{ 	c #2C9C53",
"] 	c #063D1A",
"^ 	c #000000",
"/ 	c #010B04",
"( 	c #407754",
"_ 	c #B2E5C2",
": 	c #29A553",
"< 	c #0A4E22",
"[ 	c #90B69C",
"} 	c #5EC882",
"| 	c #16873E",
"1 	c #02170A",
"2 	c #042E15",
"3 	c #063C1A",
"4 	c #07431D",
"5 	c #92BA9F",
"6 	c #35B360",
"7 	c #108439",
"8 	c #021308",
"9 	c #053317",
"0 	c #1A1A1A",
"a 	c #020F06",
"b 	c #5BA174",
"c 	c #9EDCB2",
"d 	c #81D09A",
"e 	c #15AC4A",
"f 	c #40AD66",
"g 	c #8ED6A6",
"h 	c #62A479",
"i 	c #3A3A3A",
"j 	c #5C5C5C",
"k 	c #121212",
"l 	c #0C6E2F",
"m 	c #22B858",
"n 	c #1DB04F",
"o 	c #3ABE5D",
"p 	c #0C6C2E",
"q 	c #9C9C9C",
"r 	c #727272",
"s 	c #545454",
"t 	c #28AE50",
"u 	c #9E9E9E",
"v 	c #606060",
"w 	c #343434",
"x 	c #676767",
"y 	c #565656",
"z 	c #111111",
"A 	c #0A5826",
"B 	c #929292",
"C 	c #636363",
"D 	c #373737",
"E 	c #242424",
"F 	c #363636",
"G 	c #4F4F4F",
"H 	c #030303",
"I 	c #7B7B7B",
"J 	c #313131",
"K 	c #3B3B3B",
"L 	c #020202",
"M 	c #333333",
"N 	c #959595",
"O 	c #3F3F3F",
"P 	c #717171",
"Q 	c #818181",
"R 	c #4C4C4C",
"S 	c #191919",
"T 	c #010101",
"U 	c #696969",
"V 	c #999999",
"W 	c #444444",
"X 	c #464646",
"Y 	c #666666",
"Z 	c #989898",
"` 	c #767676",
" .	c #5D5D5D",
"..	c #3D3D3D",
"+.	c #0D0D0D",
"@.	c #252525",
"#.	c #1E1E1E",
"            . + @ # $           ",
"        % & * = - ; > , '       ",
"      ) ! ~ { ] ^       ' /     ",
"      ( _ : <             ^     ",
"    ) [ } | 1                   ",
"2 3 4 5 6 7 8 ) 9     0         ",
"a b c d e f g h 1   i j k       ",
"  1 l m n o p 1   i q r s k     ",
"    1 p t p 1   i u v w x y z   ",
"      1 A 1   i B C D E F C G z ",
"        ^     ^ ^ H I J K L ^ ^ ",
"                  M N D O L     ",
"    ^             P Q R S       ",
"    T T       M U V W W ^       ",
"      k 0 X Y Z `  ...+.        ",
"          z @.w D #.            "};
