/* XPM */
static char * remove_all_friends_xpm[] = {
"16 16 38 1",
" 	c None",
".	c #292929",
"+	c #414141",
"@	c #5A5A5A",
"#	c #565656",
"$	c #444444",
"%	c #7D7D7D",
"&	c #313131",
"*	c #252525",
"=	c #6E6E6E",
"-	c #BCBCBC",
";	c #D2D2D2",
">	c #595959",
",	c #626262",
"'	c #5C5C5C",
")	c #464646",
"!	c #7A7A7A",
"~	c #FFFFFF",
"{	c #DEDEDE",
"]	c #8F8F8F",
"^	c #505050",
"/	c #000000",
"(	c #4A4A4A",
"_	c #4E4E4E",
":	c #9B9B9B",
"<	c #717171",
"[	c #2E2E2E",
"}	c #3D3D3D",
"|	c #777777",
"1	c #4D4D4D",
"2	c #383838",
"3	c #656565",
"4	c #262626",
"5	c #2F2F2F",
"6	c #3E3E3E",
"7	c #1C1C1C",
"8	c #131313",
"9	c #191919",
"    .+          ",
"  @#$$%&*       ",
"@=-;>,')!$      ",
",-~~{]^!!=/     ",
",!-{-!!=,(/     ",
"_=::!!!<=[}     ",
"(=||,,^12*      ",
"(!:-!!=!3*      ",
"(!!-!!,!^*(     ",
"(!!-!!,!^*2((   ",
"(!!-!!,!^*44+(  ",
"(!!-!!,!^*445(  ",
"(!!-!!,!^*444(  ",
"(!!-!!,!=*446   ",
" )-{!!=!^74     ",
"  8^}})79       "};
