/* XPM */
static char * save_xpm[] = {
"16 16 80 1",
" 	c None",
".	c #414141",
"+	c #929292",
"@	c #8B8B8B",
"#	c #1B3232",
"$	c #A2A2A2",
"%	c #B4BEBE",
"&	c #D2E4E4",
"*	c #AEBABA",
"=	c #FEFEFE",
"-	c #C6DDDD",
";	c #8C8C8C",
">	c #9D9D9D",
",	c #ABBABA",
"'	c #FFFFFF",
")	c #BAD5D5",
"!	c #FCFCFC",
"~	c #BED8D8",
"{	c #D3E4E4",
"]	c #818181",
"^	c #ACACAC",
"/	c #909090",
"(	c #CFCFCF",
"_	c #B3D1D1",
":	c #B5D2D2",
"<	c #B2D0D0",
"[	c #777777",
"}	c #9F9F9F",
"|	c #888888",
"1	c #848484",
"2	c #AECECE",
"3	c #B0CFCF",
"4	c #A8CACA",
"5	c #151515",
"6	c #6D6D6D",
"7	c #7E7E7E",
"8	c #D1D1D1",
"9	c #8D8D8D",
"0	c #787878",
"a	c #A4C8C8",
"b	c #808080",
"c	c #969696",
"d	c #2F2F2F",
"e	c #000000",
"f	c #979797",
"g	c #7B7B7B",
"h	c #BDBDBD",
"i	c #676767",
"j	c #B4B4B4",
"k	c #7A7A7A",
"l	c #9EC4C4",
"m	c #7D7D7D",
"n	c #1C1C1C",
"o	c #353535",
"p	c #F5F5F5",
"q	c #EEEEEE",
"r	c #767676",
"s	c #6E6E6E",
"t	c #616161",
"u	c #B7B7B7",
"v	c #828282",
"w	c #959595",
"x	c #C3C3C3",
"y	c #D4D4D4",
"z	c #5C5C5C",
"A	c #5E5E5E",
"B	c #CECECE",
"C	c #BCBCBC",
"D	c #717171",
"E	c #898989",
"F	c #4A4A4A",
"G	c #6F6F6F",
"H	c #666666",
"I	c #757575",
"J	c #535353",
"K	c #5A5A5A",
"L	c #858585",
"M	c #515151",
"N	c #3D3D3D",
"O	c #2A2A2A",
"        .       ",
"       +@#      ",
"      +$%&#     ",
"     +$*=-&#    ",
"    ;>,')!~{#   ",
"   ]^/(_':!<{#  ",
"  [}|>1(2'3!4{5 ",
" 6+78790(4'a'bcd",
"efghijk76(l'm;;n",
" op09qqrstukv;n ",
"  wxyyykzAA[;n  ",
"   wBCDEEFG;n   ",
"    wHIIJG;n    ",
"     KLMG;n     ",
"      N@;n      ",
"       On       "};
