/* XPM */
static char * save_all_xpm[] = {
"16 16 74 1",
" 	c None",
".	c #2C2C2C",
"+	c #3F3F3F",
"@	c #454545",
"#	c #848484",
"$	c #858585",
"%	c #323C3C",
"&	c #525252",
"*	c #7A7A7A",
"=	c #838383",
"-	c #868686",
";	c #E4ECEC",
">	c #E7EEEE",
",	c #333D3D",
"'	c #515151",
")	c #787878",
"!	c #828282",
"~	c #686868",
"{	c #CADADA",
"]	c #E6EDED",
"^	c #353F3F",
"/	c #4B4B4B",
"(	c #7F7F7F",
"_	c #727272",
":	c #929292",
"<	c #818181",
"[	c #161616",
"}	c #4C4C4C",
"|	c #808080",
"1	c #444444",
"2	c #9D9D9D",
"3	c #6D6D6D",
"4	c #7E7E7E",
"5	c #7D7D7D",
"6	c #878787",
"7	c #000000",
"8	c #323232",
"9	c #9B9B9B",
"0	c #2D2D2D",
"a	c #BBBBBB",
"b	c #8E8E8E",
"c	c #E2E2E2",
"d	c #737373",
"e	c #696969",
"f	c #797979",
"g	c #262626",
"h	c #707070",
"i	c #9A9A9A",
"j	c #B6B6B6",
"k	c #6B6B6B",
"l	c #CACACA",
"m	c #C4C4C4",
"n	c #7C7C7C",
"o	c #595959",
"p	c #5B5B5B",
"q	c #252525",
"r	c #494949",
"s	c #8F8F8F",
"t	c #9C9C9C",
"u	c #919191",
"v	c #545454",
"w	c #646464",
"x	c #555555",
"y	c #232323",
"z	c #464646",
"A	c #585858",
"B	c #626262",
"C	c #3D3D3D",
"D	c #222222",
"E	c #303030",
"F	c #5D5D5D",
"G	c #4D4D4D",
"H	c #333333",
"I	c #212121",
"                ",
"                ",
"          .     ",
"      .+@#$%    ",
"     #&*=-;>,   ",
"    =')!~;;{]^  ",
"   !/(_-:<;;{;[ ",
"  _}|1)2345;;!67",
" 1)890abcdef56g ",
" [ahijklmnop!q  ",
"  rlstuvw)x!y   ",
"   zwA'BC'#D    ",
"    E'FGFHI     ",
"     HI         ",
"                ",
"                "};
