/* XPM */
static char * save_as_xpm[] = {
"16 16 61 1",
" 	c None",
".	c #0E517D",
"+	c #003050",
"@	c #001C2E",
"#	c #00375D",
"$	c #000000",
"%	c #00426C",
"&	c #2E658A",
"*	c #0A5E99",
"=	c #0A588C",
"-	c #001B2F",
";	c #003F68",
">	c #2070A9",
",	c #3C7DA8",
"'	c #001C2F",
")	c #246D9E",
"!	c #001D32",
"~	c #0A3553",
"{	c #3F3F3F",
"]	c #565656",
"^	c #00385B",
"/	c #3E3E3E",
"(	c #8A8A8A",
"_	c #D0D0D0",
":	c #8D9C9C",
"<	c #1A3E57",
"[	c #3B3B3B",
"}	c #888888",
"|	c #B5BDBD",
"1	c #E4ECEC",
"2	c #353535",
"3	c #A7A7A7",
"4	c #808080",
"5	c #CADADA",
"6	c #2F2F2F",
"7	c #979797",
"8	c #777777",
"9	c #727272",
"0	c #323232",
"a	c #9B9B9B",
"b	c #ADADAD",
"c	c #686868",
"d	c #636363",
"e	c #5F5F5F",
"f	c #9A9A9A",
"g	c #B6B6B6",
"h	c #DADADA",
"i	c #929292",
"j	c #595959",
"k	c #575757",
"l	c #6E6E6E",
"m	c #5D5D5D",
"n	c #9C9C9C",
"o	c #919191",
"p	c #616161",
"q	c #6C6C6C",
"r	c #5C5C5C",
"s	c #515151",
"t	c #626262",
"u	c #666666",
"v	c #4D4D4D",
"  .+@#$         ",
" %&  .*$        ",
"  =- ;>$        ",
"   $ ,'         ",
"    )!          ",
"    ~    {]     ",
"    ^   /(_:    ",
"    <  [}|11:   ",
"      234_511:  ",
"     64789_51_] ",
"     0a8bcd_|8e ",
"      fghijklm  ",
"       no9pqr   ",
"        stur    ",
"         vm     ",
"                "};
