/* XPM */
static char *save_as[]={
"32 32 97 2",
"Qt c None",
".a c #000000",
".# c #00385b",
".d c #003e66",
".j c #00406a",
".f c #004572",
".c c #00528c",
".m c #00538e",
".p c #005896",
".o c #005a99",
".b c #2982c0",
".h c #2a82bf",
".k c #408fc7",
".i c #418fc6",
".t c #424242",
".g c #4f97ca",
"#u c #535353",
"#n c #585858",
"#C c #5a5a5a",
"#p c #5c5c5c",
"#o c #5e5e5e",
"#h c #606060",
".4 c #626262",
"#E c #636363",
"#a c #666666",
".l c #66a7d1",
"#q c #676767",
"#g c #686868",
"#w c #6a6a6a",
"## c #6b6b6b",
".e c #6baad2",
"#s c #6e6e6e",
".Z c #6f6f6f",
".1 c #707070",
"#B c #727272",
".7 c #737373",
".0 c #747474",
"#z c #767676",
".8 c #797979",
".W c #7a7a7a",
".U c #7f7f7f",
".R c #808080",
".X c #818181",
".2 c #838383",
".q c #848484",
".P c #858585",
".6 c #898989",
".V c #8b8b8b",
".n c #8bbbdc",
".K c #8c8c8c",
".E c #8d8d8d",
".s c #909090",
".G c #919191",
".B c #929292",
".N c #939393",
".y c #959595",
".L c #95b3b3",
".w c #95b4b4",
".Q c #969696",
".O c #979797",
"#y c #989898",
".M c #999999",
".C c #9ab8b8",
"#A c #9b9b9b",
"#v c #9c9c9c",
"#r c #9d9d9d",
".H c #9e9e9e",
"#D c #9f9f9f",
".z c #9fbdbd",
"#i c #a1a1a1",
".J c #a2a2a2",
".I c #a3a3a3",
"#c c #a4a4a4",
".3 c #a6a6a6",
"#t c #aaaaaa",
".F c #adadad",
".D c #b0b0b0",
"#m c #b4b4b4",
".T c #b8b8b8",
"#k c #b9b9b9",
".x c #bababa",
".r c #bebebe",
".A c #c0c0c0",
".u c #c2c2c2",
"#d c #cbcbcb",
".S c #cccccc",
".Y c #cecece",
"#l c #d2d2d2",
"#x c #d3d3d3",
".5 c #d4d4d4",
".9 c #d7d7d7",
"#j c #dbdbdb",
"#f c #dedede",
"#e c #e3e3e3",
"#b c #ebebeb",
"#. c #ececec",
".v c #ffffff",
"QtQtQtQtQt.#.#.#.#.#.#.aQtQtQtQtQtQtQtQtQtQtQtQtQtQtQtQtQtQtQtQt",
"QtQtQtQt.#.b.c.a.a.a.c.c.a.aQtQtQtQtQtQtQtQtQtQtQtQtQtQtQtQtQtQt",
"QtQtQt.d.e.c.aQtQtQt.#.b.c.c.aQtQtQtQtQtQtQtQtQtQtQtQtQtQtQtQtQt",
"QtQtQt.f.g.aQtQtQtQtQt.#.b.c.aQtQtQtQtQtQtQtQtQtQtQtQtQtQtQtQtQt",
"QtQtQt.#.h.c.aQtQtQtQt.d.i.c.aQtQtQtQtQtQtQtQtQtQtQtQtQtQtQtQtQt",
"QtQtQtQt.#.c.c.aQtQtQt.j.k.c.aQtQtQtQtQtQtQtQtQtQtQtQtQtQtQtQtQt",
"QtQtQtQtQt.a.a.aQtQt.#.l.m.aQtQtQtQtQtQtQtQtQtQtQtQtQtQtQtQtQtQt",
"QtQtQtQtQtQtQtQtQt.#.n.o.aQtQtQtQtQtQtQtQtQtQtQtQtQtQtQtQtQtQtQt",
"QtQtQtQtQtQtQtQt.#.l.p.aQtQtQtQtQtQtQtQtQtQtQtQtQtQtQtQtQtQtQtQt",
"QtQtQtQtQtQtQt.#.b.c.aQtQtQtQtQtQtQtQtQt.aQtQtQtQtQtQtQtQtQtQtQt",
"QtQtQtQtQtQtQt.#.b.c.aQtQtQtQtQtQtQtQt.a.q.aQtQtQtQtQtQtQtQtQtQt",
"QtQtQtQtQtQtQtQt.a.aQtQtQtQtQtQtQtQt.a.r.s.t.aQtQtQtQtQtQtQtQtQt",
"QtQtQtQtQtQtQtQtQtQtQtQtQtQtQtQtQt.a.u.s.t.v.w.aQtQtQtQtQtQtQtQt",
"QtQtQtQtQtQtQtQt.#.#QtQtQtQtQtQt.a.x.y.t.v.v.v.z.aQtQtQtQtQtQtQt",
"QtQtQtQtQtQtQt.#.l.c.aQtQtQtQt.a.A.B.t.v.v.w.v.v.C.aQtQtQtQtQtQt",
"QtQtQtQtQtQtQtQt.a.aQtQtQtQt.a.D.E.t.v.w.v.v.w.v.v.C.aQtQtQtQtQt",
"QtQtQtQtQtQtQtQtQtQtQtQtQt.a.F.F.G.t.v.v.w.v.v.w.v.v.z.aQtQtQtQt",
"QtQtQtQtQtQtQtQtQtQtQtQt.a.H.I.H.J.K.t.v.v.w.v.v.w.v.v.L.aQtQtQt",
"QtQtQtQtQtQtQtQtQtQtQt.a.M.N.O.t.P.Q.R.t.v.v.w.v.v.w.v.v.t.aQtQt",
"QtQtQtQtQtQtQtQtQtQt.a.E.s.t.S.T.t.U.V.W.t.v.v.w.v.v.v.t.X.N.aQt",
"QtQtQtQtQtQtQtQtQtQt.a.q.t.Y.X.Z.D.t.0.U.1.t.v.v.w.v.t.2.3.4.aQt",
"QtQtQtQtQtQtQtQtQtQt.a.t.5.6.7.8.9#..t##.0#a.t.v.v.t.7.I.7.aQtQt",
"QtQtQtQtQtQtQtQtQtQtQt.a#b#c.X#d#e#e#f.t.4#g#h.t.t.1#i#a.aQtQtQt",
"QtQtQtQtQtQtQtQtQtQtQtQt.a#j#k#l#l#l#m.7.t#n#o#p#q#r#s.aQtQtQtQt",
"QtQtQtQtQtQtQtQtQtQtQtQtQt.a#j.u.A#t.t.6.6.t#u#h#v#w.aQtQtQtQtQt",
"QtQtQtQtQtQtQtQtQtQtQtQtQtQt.a#x#y.t.U.U#z.t#h#A#w.aQtQtQtQtQtQt",
"QtQtQtQtQtQtQtQtQtQtQtQtQtQtQt.a.t#B#B#s.t#C#r.Z.aQtQtQtQtQtQtQt",
"QtQtQtQtQtQtQtQtQtQtQtQtQtQtQtQt.a.G#g.t.4#v#a.aQtQtQtQtQtQtQtQt",
"QtQtQtQtQtQtQtQtQtQtQtQtQtQtQtQtQt.a.t#n#D.7.aQtQtQtQtQtQtQtQtQt",
"QtQtQtQtQtQtQtQtQtQtQtQtQtQtQtQtQtQt.a.M#E.aQtQtQtQtQtQtQtQtQtQt",
"QtQtQtQtQtQtQtQtQtQtQtQtQtQtQtQtQtQtQt.a.aQtQtQtQtQtQtQtQtQtQtQt",
"QtQtQtQtQtQtQtQtQtQtQtQtQtQtQtQtQtQtQtQtQtQtQtQtQtQtQtQtQtQtQtQt"};
