/* XPM */
static char *save[]={
"32 32 110 2",
"Qt c None",
".# c #000000",
"#O c #0f0f0f",
"#R c #111111",
"#P c #191919",
"#Q c #1f1f1f",
"#m c #368686",
".c c #404040",
"#c c #424242",
"#f c #428d8d",
".9 c #448e8e",
".U c #4a9292",
".8 c #4e9494",
".d c #519696",
"#K c #535353",
".2 c #539797",
"#i c #555555",
".L c #579a9a",
".S c #589a9a",
"#J c #595959",
"#I c #5a5a5a",
"#H c #5b5b5b",
".T c #5e9e9e",
"#F c #606060",
"#E c #616161",
".J c #61a0a0",
"#D c #626262",
"#C c #636363",
".K c #63a1a1",
".A c #65a2a2",
"#r c #666666",
"#A c #676767",
".b c #686868",
"#y c #696969",
".z c #69a5a5",
"#x c #6a6a6a",
"#w c #6b6b6b",
"#u c #6e6e6e",
".t c #6ea8a8",
"#N c #707070",
"#t c #717171",
"#s c #727272",
"#d c #737373",
".u c #73abab",
"#o c #747474",
"#n c #757575",
"#l c #797979",
".w c #79aeae",
"#k c #7a7a7a",
"#h c #7b7b7b",
"#g c #7c7c7c",
".o c #7cb0b0",
".l c #7fb2b2",
"#e c #818181",
"#. c #828282",
"#q c #838383",
"#M c #848484",
".q c #84b5b5",
"#v c #868686",
"#b c #878787",
".3 c #898989",
".7 c #8a8a8a",
"#a c #8d8d8d",
".5 c #8e8e8e",
".k c #8ebbbb",
".4 c #8f8f8f",
".1 c #909090",
".0 c #919191",
".Z c #929292",
".g c #92bdbd",
".6 c #939393",
".X c #949494",
".W c #959595",
".V c #969696",
".R c #989898",
".Q c #999999",
".P c #9a9a9a",
".O c #9b9b9b",
".N c #9c9c9c",
".M c #9d9d9d",
"#z c #9f9f9f",
".I c #a0a0a0",
".H c #a1a1a1",
".G c #a2a2a2",
".F c #a3a3a3",
".E c #a4a4a4",
".D c #a8a8a8",
".C c #a9a9a9",
".B c #aaaaaa",
".y c #b0b0b0",
".x c #b1b1b1",
"#L c #b6b6b6",
".s c #b7b7b7",
".r c #b8b8b8",
".n c #bebebe",
".m c #bfbfbf",
"#j c #c1c1c1",
".a c #c2c2c2",
"## c #c3c3c3",
"#G c #cecece",
"#B c #d9d9d9",
".Y c #e6e6e6",
"#p c #f7f7f7",
".i c #f9f9f9",
".v c #fafafa",
".p c #fbfbfb",
".j c #fcfcfc",
".h c #fdfdfd",
".e c #fefefe",
".f c #ffffff",
"QtQtQtQtQtQtQtQtQtQtQtQtQtQtQtQt.#QtQtQtQtQtQtQtQtQtQtQtQtQtQtQt",
"QtQtQtQtQtQtQtQtQtQtQtQtQtQtQt.#.a.#QtQtQtQtQtQtQtQtQtQtQtQtQtQt",
"QtQtQtQtQtQtQtQtQtQtQtQtQtQt.#.a.b.a.#QtQtQtQtQtQtQtQtQtQtQtQtQt",
"QtQtQtQtQtQtQtQtQtQtQtQtQt.#.a.a.a.c.d.#QtQtQtQtQtQtQtQtQtQtQtQt",
"QtQtQtQtQtQtQtQtQtQtQtQt.#.a.a.a.c.e.e.d.#QtQtQtQtQtQtQtQtQtQtQt",
"QtQtQtQtQtQtQtQtQtQtQt.#.a.a.a.c.f.g.e.h.d.#QtQtQtQtQtQtQtQtQtQt",
"QtQtQtQtQtQtQtQtQtQt.#.a.a.a.c.i.j.f.k.e.e.d.#QtQtQtQtQtQtQtQtQt",
"QtQtQtQtQtQtQtQtQt.#.a.a.a.c.e.l.e.e.f.k.e.h.d.#QtQtQtQtQtQtQtQt",
"QtQtQtQtQtQtQtQt.#.m.n.n.c.f.f.f.o.p.p.f.q.e.e.d.#QtQtQtQtQtQtQt",
"QtQtQtQtQtQtQt.#.r.s.s.c.f.t.f.f.f.u.v.e.f.w.e.e.d.#QtQtQtQtQtQt",
"QtQtQtQtQtQt.#.x.y.y.y.c.f.f.z.f.f.f.t.e.h.f.A.f.h.d.#QtQtQtQtQt",
"QtQtQtQtQt.#.B.B.C.C.C.D.c.f.f.A.f.f.f.z.i.h.f.A.f.e.d.#QtQtQtQt",
"QtQtQtQt.#.E.F.G.G.G.H.H.I.c.f.f.J.f.f.f.K.e.e.f.L.f.h.d.#QtQtQt",
"QtQtQt.#.M.N.N.O.P.c.P.Q.Q.R.c.f.f.S.f.f.f.T.v.p.f.U.f.f.c.#QtQt",
"QtQt.#.V.W.W.X.c.Y.Y.c.Z.0.0.1.c.f.e.2.f.f.f.d.p.f.f.f.c.3.3.#Qt",
"Qt.#.4.5.5.5.c.Y.Y.6.Y.c.7.3.3.3.c.f.f.8.f.f.f.9.f.f.c#.#.###a.#",
"Qt.##b#b#b.c.Y.Y#c#d.4.Y.c#.#.#e#e.c.f.f#f.f.f.f.f.c#g#h###a#i.#",
"Qt.##j#a.c.Y.Y#c#d#d#d.Y.Y.c#h#k#l#l.c.f.f#m.f.f.c#n#o###a#i.#Qt",
"Qt.##i.c#p#p#c#q#q#r#p#p#p#p.c#d#s#t#t.c.f.f.f.c#u#u###a#i.#QtQt",
"QtQt.#.c.f.Y.V#v#r.Y.Y.Y.Y.Y.Y.c#w#x#x#y.c#z.c#A#A###a#i.#QtQtQt",
"QtQtQt.#.B.f#B#r#B#B#B#B#B#B#B.c.c#C#D#D#D#E#F#F###a#i.#QtQtQtQt",
"QtQtQtQt.#.B.f#G#G#G#G#G#G#G.c.5.5.c#H#H#I#J#J###a#i.#QtQtQtQtQt",
"QtQtQtQtQt.#.B.f#j#j#j#j#j.c.5.5.5.5.c#K#K#K###a#i.#QtQtQtQtQtQt",
"QtQtQtQtQtQt.#.B.f#L#L#L.c#M#M#M#M#M.c#K#K###a#i.#QtQtQtQtQtQtQt",
"QtQtQtQtQtQtQt.#.B.f.C.c#k#k#k#k#k.c#K#K###a#i.#QtQtQtQtQtQtQtQt",
"QtQtQtQtQtQtQtQt.#.B.c#N#N#N#N#N.c#K#K###a#i.#QtQtQtQtQtQtQtQtQt",
"QtQtQtQtQtQtQtQtQt.#.c###N#N#N.c#K#K###a#i.#QtQtQtQtQtQtQtQtQtQt",
"QtQtQtQtQtQtQtQtQtQt#O#i###N.c#K#K###a#i.#QtQtQtQtQtQtQtQtQtQtQt",
"QtQtQtQtQtQtQtQtQtQtQt#P#i.c#K#K###a#i.#QtQtQtQtQtQtQtQtQtQtQtQt",
"QtQtQtQtQtQtQtQtQtQtQtQt#Q.c#####a#i.#QtQtQtQtQtQtQtQtQtQtQtQtQt",
"QtQtQtQtQtQtQtQtQtQtQtQtQt#R#i#i#i.#QtQtQtQtQtQtQtQtQtQtQtQtQtQt",
"QtQtQtQtQtQtQtQtQtQtQtQtQtQt.#.#.#QtQtQtQtQtQtQtQtQtQtQtQtQtQtQt"};
