/* XPM */
static char * search_xpm[] = {
"16 16 108 2",
"  	c None",
". 	c #3D3D3D",
"+ 	c #383838",
"@ 	c #4D4D4D",
"# 	c #333333",
"$ 	c #565857",
"% 	c #B6BDBD",
"& 	c #D7E5E7",
"* 	c #D4ECEF",
"= 	c #CFE4E8",
"- 	c #CADCDC",
"; 	c #666867",
"> 	c #575857",
", 	c #D4E0DF",
"' 	c #E9F9FB",
") 	c #D8F5F7",
"! 	c #C9EFF4",
"~ 	c #B1E6EE",
"{ 	c #AAE0E8",
"] 	c #D2EEF2",
"^ 	c #5C5F5F",
"/ 	c #ECF9FA",
"( 	c #F1FDFC",
"_ 	c #DEF6F8",
": 	c #C2EBF1",
"< 	c #A4E1EA",
"[ 	c #89D1DA",
"} 	c #94D7E0",
"| 	c #CEE4E6",
"1 	c #2F2F2F",
"2 	c #DBE8E9",
"3 	c #DFF5F7",
"4 	c #D3EFF2",
"5 	c #B5E7EE",
"6 	c #9ADEE8",
"7 	c #78CCDA",
"8 	c #6AC3CE",
"9 	c #B0E2EB",
"0 	c #404040",
"a 	c #E2F0F3",
"b 	c #C7EBF2",
"c 	c #C2ECF1",
"d 	c #B4E8EF",
"e 	c #9BDEE8",
"f 	c #83D8E2",
"g 	c #63C4D0",
"h 	c #58B7C0",
"i 	c #ACE4EA",
"j 	c #6A6A6A",
"k 	c #363636",
"l 	c #D4E6E7",
"m 	c #AEDFE8",
"n 	c #A4E3EA",
"o 	c #98DDE6",
"p 	c #83D7E2",
"q 	c #63CBD7",
"r 	c #4AB6C0",
"s 	c #50ACB6",
"t 	c #A5E0E8",
"u 	c #444444",
"v 	c #343434",
"w 	c #B9C7C9",
"x 	c #A6DFE6",
"y 	c #83D0DA",
"z 	c #7AD0DA",
"A 	c #64C4D3",
"B 	c #4AB7C1",
"C 	c #41A2AA",
"D 	c #6DC4CE",
"E 	c #BDD6D8",
"F 	c #2C2C2C",
"G 	c #5E6060",
"H 	c #C7E3E6",
"I 	c #95D6DE",
"J 	c #6CC4CE",
"K 	c #54B0B9",
"L 	c #4CA9B2",
"M 	c #6AC2CC",
"N 	c #BDEAEF",
"O 	c #5B5E5F",
"P 	c #424242",
"Q 	c #595A5A",
"R 	c #B3C8CB",
"S 	c #B0DFE5",
"T 	c #97DAE4",
"U 	c #9CD8E1",
"V 	c #BBD4D6",
"W 	c #5A5D5D",
"X 	c #356B6A",
"Y 	c #3EB0AE",
"Z 	c #2E2E2E",
"` 	c #3A3A3A",
" .	c #656565",
"..	c #3F3F3F",
"+.	c #454545",
"@.	c #106465",
"#.	c #5F5F5E",
"$.	c #979797",
"%.	c #2A2A2A",
"&.	c #5D5D5D",
"*.	c #5C5C5B",
"=.	c #292929",
"-.	c #5E5E5D",
";.	c #959595",
">.	c #2A2A2B",
",.	c #5B5C5B",
"'.	c #101010",
").	c #0A0A0B",
"      . + @ . #                 ",
"    $ % & * = - ;               ",
"  > , ' ) ! ~ { ] ^             ",
". % / ( _ : < [ } | 1           ",
"# 2 ) 3 4 5 6 7 8 9 0           ",
"@ a b c d e f g h i j           ",
"k l m n o p q r s t u           ",
"v w x y z A B C D E F           ",
"  G H I J K L M N O P           ",
"    Q R S T U V W X Y           ",
"      Z `  ...F +.@.#.$.        ",
"                    %.&.$.      ",
"                      %.*.$.    ",
"                        =.-.;.  ",
"                          >.,.'.",
"                            ).  "};
