/* XPM */
static char *search[]={
"32 32 221 2",
"Qt c None",
".a c #000000",
"bp c #010101",
"bg c #040404",
"bk c #060606",
"bl c #06afb1",
"#l c #080808",
"#M c #090909",
"#X c #0a0a0a",
"bA c #0a0a0b",
"be c #0ae1df",
"#z c #0c0c0c",
"a6 c #0cfdfa",
"bz c #0d0d0c",
"bx c #121213",
".h c #131313",
"ap c #161616",
"aT c #2e2e2d",
".b c #2f2f2f",
".1 c #30302f",
"bq c #333333",
"bv c #343434",
"a7 c #373736",
"bt c #3d3d3c",
"ax c #3e9ea6",
"br c #404041",
"aQ c #419fa7",
"bw c #424243",
"aI c #42a2aa",
"aP c #43a4ad",
"a. c #44a5ae",
"aH c #44a7b0",
"ak c #44abb3",
"aw c #46aab3",
"by c #4a4a4b",
"aO c #4aaab3",
"aj c #4ab6c2",
".q c #4b4b4a",
"al c #4ba5b1",
"#n c #4c4c4b",
"#9 c #4cb7be",
"aG c #4db8c0",
"aX c #4eaab6",
"#2 c #4eb2ba",
"#8 c #4ec2ce",
"av c #4ec6d2",
"#y c #505050",
"bh c #515151",
"ay c #52aeb6",
"a# c #52b2ba",
"ai c #52c2ce",
"bm c #535352",
".i c #545552",
"bs c #555554",
"bu c #555653",
"aW c #56aeb8",
"#S c #56b6c2",
"#1 c #56bac8",
"ao c #575757",
"a0 c #585858",
"#3 c #5ab6be",
"aJ c #5abac6",
".c c #5d5d5d",
"am c #5eb6c0",
"#I c #5ebeca",
"aF c #5ebece",
"#T c #62bec6",
"#0 c #62cad6",
"ah c #62ceda",
".g c #666666",
"au c #66cad8",
"#J c #6ac2cc",
"#H c #6ac2d2",
"aE c #6ac6d2",
"#u c #6ec6ce",
"#v c #72c6d2",
"#t c #76cad6",
"#R c #76ced6",
"at c #76cede",
"#Z c #76d2df",
".C c #797979",
"az c #7acad6",
"#G c #7ad2e2",
"#h c #7ecad6",
"aN c #7eced6",
"as c #7ed6de",
"a5 c #7f7f80",
".d c #818181",
"#. c #82ced6",
"#Q c #82d6e2",
"aB c #848484",
"#m c #858585",
"#s c #86d2dc",
"aa c #86d6de",
"#Y c #86dae2",
".# c #878787",
"a8 c #898989",
"ag c #8adae2",
"bd c #8b8b8b",
"bn c #8c8c8c",
".f c #8e8e8e",
"#i c #8ed6df",
"#F c #8edae5",
"#P c #8edee6",
"aL c #929292",
"ar c #92d2dc",
".9 c #92d6de",
"aV c #96d6de",
"#4 c #96dae2",
"#K c #96dee8",
"bi c #989898",
".e c #9a9a9a",
".X c #9ad6e2",
".Y c #9adae2",
"af c #9adee6",
"#g c #9adeea",
".8 c #9edae2",
"#U c #9edee6",
".j c #9fa0a0",
".W c #a2dee6",
"#w c #a2e2ee",
"ac c #a6a6a6",
"#E c #a6e2ea",
"#r c #a6e6ee",
"ba c #a7dfe7",
".p c #a9a9a9",
"#f c #aae6ee",
"a9 c #aeb7b9",
"ae c #aedee6",
".7 c #aee6ee",
"ab c #b1e6ee",
".r c #b2b8b9",
".L c #b2e2ea",
".K c #b2e6ee",
"#q c #b2eaf0",
".P c #b3b7b8",
"aq c #b3b8b8",
"a1 c #b4b9ba",
".D c #b4bab9",
"aM c #b5babc",
"aU c #bac1c2",
"#e c #bae6ee",
"#O c #baeaee",
"#L c #bce6ee",
"b# c #bde4eb",
"#V c #bdedf1",
"#7 c #bee6ec",
".V c #beeaf2",
"aY c #beedf1",
"aD c #beeef2",
".J c #beeef6",
"#a c #c1c1c1",
"bj c #c2c2c2",
"#p c #c2eaf2",
".M c #c2eef3",
"aR c #c2f1f7",
"#j c #c2f2f8",
"#W c #c3c3c3",
"an c #c4e6ec",
"ad c #c6d4d4",
"bb c #c6e2e8",
"#d c #c6eef2",
"#o c #c8d0d0",
".o c #c9d5d5",
"b. c #c9e0e0",
"#D c #caeaf0",
".I c #caeef2",
".U c #caf2f6",
".k c #cbd7d7",
".n c #cbd8d9",
"#x c #cce2e8",
".l c #cedade",
".T c #cef2f2",
"aC c #d0e9ed",
".m c #d1e1e5",
".N c #d1eef2",
".z c #d2eef2",
".y c #d2f2f6",
".x c #d2f6f8",
"#5 c #d3d3d3",
".B c #d4dada",
"#A c #d5e2e5",
".Z c #d5f1f5",
"#k c #d6e2e4",
".6 c #d6f2f6",
"a3 c #d6f9f9",
"aA c #d7e3e5",
"a2 c #d7f3f4",
".s c #d8e4e4",
"#6 c #d8e4e5",
"bc c #d9e4e6",
".2 c #d9e5e4",
".E c #d9e5e5",
"aK c #d9f9f9",
"#B c #daf2f2",
"#C c #daf2f6",
".w c #daf6fa",
".O c #deebec",
".t c #deeeee",
".u c #def2f2",
".H c #def6f9",
"## c #dff9fa",
"bf c #e0e0e0",
"#N c #e1e9ed",
".0 c #e2eff0",
".S c #e2f6fa",
"a4 c #e3eeee",
".A c #e4fbfb",
"aZ c #e6eff0",
".v c #e6f2f6",
"aS c #e6f4f6",
".F c #e6f6fa",
".G c #e6fafa",
"bo c #e8e8e8",
".3 c #eaf6fa",
".Q c #eafafa",
".5 c #eafefe",
"#b c #eefafa",
".R c #eefafe",
".4 c #eefefa",
"#c c #ffffff",
"QtQtQtQtQtQtQt.#.a.a.a.a.a.a.#QtQtQtQtQtQtQtQtQtQtQtQtQtQtQtQtQt",
"QtQtQtQtQt.a.a.b.c.d.e.e.f.g.h.a.aQtQtQtQtQtQtQtQtQtQtQtQtQtQtQt",
"QtQtQtQt.a.i.d.j.k.l.m.m.l.n.o.p.q.aQtQtQtQtQtQtQtQtQtQtQtQtQtQt",
"QtQtQt.a.i.r.s.t.u.v.w.x.y.z.x.A.B.C.aQtQtQtQtQtQtQtQtQtQtQtQtQt",
"QtQt.a.i.D.E.F.G.H.x.y.I.J.K.L.M.N.O.c.aQtQtQtQtQtQtQtQtQtQtQtQt",
"Qt.a.i.P.E.Q.R.Q.S.T.U.V.K.W.X.Y.M.Z.0.1.aQtQtQtQtQtQtQtQtQtQtQt",
"Qt.a.d.2.3.4.5.4.G.6.I.V.7.8.9#..9.K###a.aQtQtQtQtQtQtQtQtQtQtQt",
".#.b.j.t.3#b#b#c.G.6#d#e#f#g.9#h#h#i#j#k#l#mQtQtQtQtQtQtQtQtQtQt",
".a#n#o.v.H.S.G.S.u.z#p#q#r.Y#s#t#u#v#w#x#y#zQtQtQtQtQtQtQtQtQtQt",
".a.d#A.Q.x.T#B#C.y#D#e#E#g#F#G#H#I#J#K#L.e#MQtQtQtQtQtQtQtQtQtQt",
".a.e#N.G.z#p.I#d.V#O#E#g#P#Q#R#I#S#T#U#V#W#XQtQtQtQtQtQtQtQtQtQt",
".a.e#N.H#D.V.V#O.7#f#U#F#Y#Z#0#1#2#3#4#V#5#XQtQtQtQtQtQtQtQtQtQt",
".a.f#6.t#7.L#q#f#E.Y#F#Q#Z#0#8#9a.a#aaabac#XQtQtQtQtQtQtQtQtQtQt",
".a.qad.yae.Xafaf#Kag#Y#Zahaiajakalam#ganao#MQtQtQtQtQtQtQtQtQtQt",
".#apaq.zaear#sagagasatauavajawaxayaz#qaA.aaBQtQtQtQtQtQtQtQtQtQt",
"Qt.a.faCaDaf#h#h#taEaF#1aGaHaxaIaJ#PaKaL.aQtQtQtQtQtQtQtQtQtQtQt",
"Qt.a.qaM.zaD.9aN#uaJa#aOaPaQay#S#FaRaSaTaBQtQtQtQtQtQtQtQtQtQtQt",
"QtQt.a.CaU.zaeaVaN#JamaWaXam#tagaYaZa0.a.aQtQtQtQtQtQtQtQtQtQtQt",
"QtQtQt.a.Ca1a2.J.W#4#saz#t#i.Ka3a4a0.aa5a6.aQtQtQtQtQtQtQtQtQtQt",
"QtQtQtQt.aa7a8a9b.b#.K#fbabbbcbdaT.a.qbebebf.aQtQtQtQtQtQtQtQtQt",
"QtQtQtQtQt.a.abgbhbibj#5acao.a.aaBbkblblbmbnbobpQtQtQtQtQtQtQtQt",
"QtQtQtQtQtQtQt#m.a.a.a.a.a.aaBQtQtQt.abq.qbmbnbo.aQtQtQtQtQtQtQt",
"QtQtQtQtQtQtQtQtQtQtQtQtQtQtQtQtQtQtQt.abqbrbsbnbo.aQtQtQtQtQtQt",
"QtQtQtQtQtQtQtQtQtQtQtQtQtQtQtQtQtQtQtQt.abqbrbmbnbo.aQtQtQtQtQt",
"QtQtQtQtQtQtQtQtQtQtQtQtQtQtQtQtQtQtQtQtQt.abqbrbmbnbo.aQtQtQtQt",
"QtQtQtQtQtQtQtQtQtQtQtQtQtQtQtQtQtQtQtQtQtQt.abqbtbubnbo.aQtQtQt",
"QtQtQtQtQtQtQtQtQtQtQtQtQtQtQtQtQtQtQtQtQtQtQt.abvbtbubnbo.aQtQt",
"QtQtQtQtQtQtQtQtQtQtQtQtQtQtQtQtQtQtQtQtQtQtQtQt.abvbwbubnbf.aQt",
"QtQtQtQtQtQtQtQtQtQtQtQtQtQtQtQtQtQtQtQtQtQtQtQtQt.abvbwbubnbxQt",
"QtQtQtQtQtQtQtQtQtQtQtQtQtQtQtQtQtQtQtQtQtQtQtQtQtQt.abvbwbybzQt",
"QtQtQtQtQtQtQtQtQtQtQtQtQtQtQtQtQtQtQtQtQtQtQtQtQtQtQt.abAbAQtQt",
"QtQtQtQtQtQtQtQtQtQtQtQtQtQtQtQtQtQtQtQtQtQtQtQtQtQtQtQtQtQtQtQt"};
