/* XPM */
static char * trash_xpm[] = {
"16 16 102 2",
"  	c None",
". 	c #000000",
"+ 	c #4A4A4A",
"@ 	c #646464",
"# 	c #353535",
"$ 	c #585858",
"% 	c #C2C2C2",
"& 	c #8C8C8C",
"* 	c #6F6F6F",
"= 	c #616161",
"- 	c #484848",
"; 	c #787878",
"> 	c #464646",
", 	c #323232",
"' 	c #4F4F4F",
") 	c #B1B1B1",
"! 	c #CACACA",
"~ 	c #E3E3E3",
"{ 	c #BABABA",
"] 	c #717171",
"^ 	c #8E8E8E",
"/ 	c #2F2F2F",
"( 	c #898989",
"_ 	c #979797",
": 	c #6B6B6B",
"< 	c #E7E7E7",
"[ 	c #F1F1F1",
"} 	c #CECECE",
"| 	c #AFAFAF",
"1 	c #838383",
"2 	c #6D6D6D",
"3 	c #8A8A8A",
"4 	c #A6A6A6",
"5 	c #959595",
"6 	c #3A3A3A",
"7 	c #393939",
"8 	c #A0A0A0",
"9 	c #DFDFDF",
"0 	c #CFCFCF",
"a 	c #C0C0C0",
"b 	c #B2B2B2",
"c 	c #A4A4A4",
"d 	c #969696",
"e 	c #686868",
"f 	c #494949",
"g 	c #161616",
"h 	c #B9B9B9",
"i 	c #999999",
"j 	c #808080",
"k 	c #757575",
"l 	c #6A6A6A",
"m 	c #606060",
"n 	c #565656",
"o 	c #444444",
"p 	c #CBCBCB",
"q 	c #929292",
"r 	c #5D5D5D",
"s 	c #3C3C3C",
"t 	c #B6B6B6",
"u 	c #C1C1C1",
"v 	c #A7A7A7",
"w 	c #6C6C6C",
"x 	c #848484",
"y 	c #535353",
"z 	c #434343",
"A 	c #B7B7B7",
"B 	c #C4C4C4",
"C 	c #9C9C9C",
"D 	c #AAAAAA",
"E 	c #7A7A7A",
"F 	c #868686",
"G 	c #5E5E5E",
"H 	c #B3B3B3",
"I 	c #B8B8B8",
"J 	c #A9A9A9",
"K 	c #7F7F7F",
"L 	c #636363",
"M 	c #545454",
"N 	c #BBBBBB",
"O 	c #BEBEBE",
"P 	c #ACACAC",
"Q 	c #858585",
"R 	c #818181",
"S 	c #4C4C4C",
"T 	c #BCBCBC",
"U 	c #AEAEAE",
"V 	c #A2A2A2",
"W 	c #7E7E7E",
"X 	c #525252",
"Y 	c #B4B4B4",
"Z 	c #8B8B8B",
"` 	c #7C7C7C",
" .	c #6E6E6E",
"..	c #D3D3D3",
"+.	c #C3C3C3",
"@.	c #949494",
"#.	c #626262",
"$.	c #D0D0D0",
"%.	c #D9D9D9",
"&.	c #727272",
"*.	c #333333",
"=.	c #373737",
"          . . + @ .             ",
"      # $ % & * = - ; > ,       ",
"    ' ) ! ~ { ] ^ / ( ( _ -     ",
"    : < [ < } | 1 2 3 4 5 6     ",
"    7 8 ! 9 0 a b c d e f g     ",
"    . h i ( j k l m n + o .     ",
"    . a b < ! p i q l r s .     ",
"    . t 4 u 3 v w x y n z .     ",
"    . A | B C D E F G n > .     ",
"    . H I % c J K x L M + .     ",
"    . | N O P 4 Q R e y S .     ",
"    . P T { U V ( W w X S .     ",
"    . 4 Y t P 8 Z `  .' - .     ",
"    . ..p +.@.Q ( j = r - .     ",
"      #.W $.%.+.^ q &.*.=.      ",
"          E . . . . =           "};
