/* XPM */
static char * verify_chunks_xpm[] = {
"16 16 73 1",
" 	c None",
".	c #3F553F",
"+	c #8EBF8E",
"@	c #BEFFBE",
"#	c #5FBF5F",
"$	c #002B00",
"%	c #005500",
"&	c #00FF00",
"*	c #5FFF5F",
"=	c #8EFF8E",
"-	c #00A000",
";	c #004000",
">	c #000000",
",	c #00E000",
"'	c #008000",
")	c #104010",
"!	c #8EBFBF",
"~	c #5F8080",
"{	c #00C000",
"]	c #BEFFFF",
"^	c #006060",
"/	c #006000",
"(	c #00BFBF",
"_	c #30FFFF",
":	c #8EFFFF",
"<	c #30DFDF",
"[	c #008080",
"}	c #407030",
"|	c #007070",
"1	c #00EFEF",
"2	c #00FFFF",
"3	c #00DFDF",
"4	c #404030",
"5	c #FFFFBE",
"6	c #80805F",
"7	c #003030",
"8	c #00C0C0",
"9	c #00D0D0",
"0	c #40A090",
"a	c #808030",
"b	c #555500",
"c	c #FFFF8E",
"d	c #A0A000",
"e	c #00A0A0",
"f	c #707000",
"g	c #EFEF60",
"h	c #E0E030",
"i	c #FFFF00",
"j	c #FFFF30",
"k	c #FFFF5F",
"l	c #808000",
"m	c #555540",
"n	c #B0B000",
"o	c #FFFFD0",
"p	c #FFFF60",
"q	c #606010",
"r	c #D0D000",
"s	c #EFEF00",
"t	c #009090",
"u	c #002B2B",
"v	c #555555",
"w	c #FFFFB0",
"x	c #959500",
"y	c #606000",
"z	c #C0C000",
"A	c #E1E1E1",
"B	c #414141",
"C	c #808060",
"D	c #7D7D7D",
"E	c #404000",
"F	c #909000",
"G	c #101010",
"H	c #505000",
"                ",
"   .+.          ",
"  .@@@#$        ",
" %&*@=-;        ",
">,&&&-') !~>    ",
">{{,-'')!]]]^   ",
">{{{''/(_:]<[>  ",
">{{};'|1223[[>  ",
" >45567899[^0a  ",
" bc55cd^8e[[fgh ",
"biijkdl^8e[mnogp",
"qrsidll7teuvwnx ",
"yzzdlly  >vABC  ",
"qzzdly   BDB    ",
"EFzdy   BDG     ",
"  EH    DG      "};
