/* XPM */
static char *verify_chunks[]={
"32 32 21 1",
". c None",
"# c #000000",
"p c #000040",
"c c #008000",
"h c #008080",
"e c #00c000",
"j c #00c0c0",
"b c #00ff00",
"g c #00ffff",
"s c #303030",
"f c #400040",
"m c #808000",
"r c #808080",
"a c #beffbe",
"d c #beffff",
"n c #c0c000",
"q c #c3c3c3",
"l c #ffff00",
"i c #ffffbe",
"k c #ffffc0",
"o c #ffffff",
"................................",
"........#.......................",
".......#a##.....................",
"......#aaaa##...................",
".....#aaaaaaa##.................",
"....#aaaaaaaabc#................",
"...#bbaaaaaabcc#................",
"..#bbbbbaaabccc#...#............",
".#bbbbbbbbbcccc#..#d##..........",
".#eebbbbbbcccccf.#dddd##........",
".#eeeebbbccccccf#ddddddd##......",
".#eeeeeeccccccc#ddddddddgh#.....",
".#eeeeeecccccc#ggddddddghh#.....",
".#eeeeeeccccc#gggggdddghhh#.....",
".#eeeee#cccc#ggggggggghhhh#.....",
".#eeee#i##cc#jjgggggghhhhh#.....",
"..####iiii###jjjjggghhhhhh#k....",
"....#iiiiiii##jjjjjhhhh#kh#l.#k.",
"...#iiiiiiiilm#jjjjhhhhh#lnlnl..",
"..#lliiiiiilmm#jjjjhhhhh#nkkkn..",
".#llllliiilmmm#jjjjhhh#kllkokllk",
"#lllllllllmmmm#jjjjhhh#.#nkkkn..",
"#nnllllllmmmmm#jjjjhh#.#olnlnl..",
"pnnnnlllmmmmmm###jjh#.#oko#l.#k.",
"#nnnnnnmmmmmmm#..###.#o.q##k....",
"#nnnnnnmmmmmm#......#o.q#.......",
"pnnnnnnmmmmm#......#qrq#........",
"#nnnnnnmmmm#......#qrs#.........",
"#nnnnnnmmm#......#qrs#..........",
".##nnnnmm#......#qrs#...........",
"...##nnm#.......qrs#............",
".....###........rs#............."};
