/* XPM */
static char * view_users_xpm[] = {
"16 16 137 2",
"  	c None",
". 	c #281004",
"+ 	c #241004",
"@ 	c #200E04",
"# 	c #140804",
"$ 	c #080404",
"% 	c #240E04",
"& 	c #692F04",
"* 	c #7D3904",
"= 	c #9E4804",
"- 	c #AE4F04",
"; 	c #BA5604",
"> 	c #B55104",
", 	c #964204",
"' 	c #311504",
") 	c #060204",
"! 	c #8A3D04",
"~ 	c #C05804",
"{ 	c #BD5704",
"] 	c #B35506",
"^ 	c #A95204",
"/ 	c #AC5004",
"( 	c #B25104",
"_ 	c #994808",
": 	c #713B0E",
"< 	c #3E2E1F",
"[ 	c #4F2504",
"} 	c #AE5006",
"| 	c #C46D24",
"1 	c #B3590E",
"2 	c #AC5104",
"3 	c #914506",
"4 	c #552B08",
"5 	c #1B1008",
"6 	c #040304",
"7 	c #030304",
"8 	c #151416",
"9 	c #523D28",
"0 	c #DBAE77",
"a 	c #CE9F6C",
"b 	c #6B3C16",
"c 	c #1F1006",
"d 	c #020204",
"e 	c #070708",
"f 	c #151516",
"g 	c #1E1D1C",
"h 	c #0A0A0A",
"i 	c #4C3D2A",
"j 	c #CFAB80",
"k 	c #E7BD84",
"l 	c #25201A",
"m 	c #040404",
"n 	c #131314",
"o 	c #B29569",
"p 	c #C4AA84",
"q 	c #F1D0A1",
"r 	c #6B553C",
"s 	c #41382E",
"t 	c #645944",
"u 	c #41392E",
"v 	c #060608",
"w 	c #675A45",
"x 	c #E0C294",
"y 	c #F0CB9A",
"z 	c #F1CFA1",
"A 	c #DEAC71",
"B 	c #6A5740",
"C 	c #D3B48C",
"D 	c #D3B083",
"E 	c #131210",
"F 	c #302B22",
"G 	c #4D4432",
"H 	c #894116",
"I 	c #CE8E4E",
"J 	c #F1CF9F",
"K 	c #CCA778",
"L 	c #B8986F",
"M 	c #C5A982",
"N 	c #F1D09F",
"O 	c #1F1C18",
"P 	c #C8AC81",
"Q 	c #C6A87B",
"R 	c #4F4634",
"S 	c #626264",
"T 	c #DCBC8A",
"U 	c #F2D0A1",
"V 	c #DAB689",
"W 	c #A18660",
"X 	c #F0CE9E",
"Y 	c #D0B186",
"Z 	c #F0CF9F",
"` 	c #E6C291",
" .	c #C2A57E",
"..	c #D6B68A",
"+.	c #524736",
"@.	c #948574",
"#.	c #A28F75",
"$.	c #806F5E",
"%.	c #8F7B60",
"&.	c #866F52",
"*.	c #EECC9C",
"=.	c #D8B98E",
"-.	c #F2D1A1",
";.	c #D6B588",
">.	c #0F0E0C",
",.	c #6A6A6C",
"'.	c #E7C38F",
").	c #665740",
"!.	c #9F8562",
"~.	c #D8BA8E",
"{.	c #F0CC9D",
"].	c #EECB9C",
"^.	c #695B46",
"/.	c #B8A283",
"(.	c #9A8063",
"_.	c #534434",
":.	c #816D54",
"<.	c #A68E6C",
"[.	c #DBBD92",
"}.	c #E2C094",
"|.	c #75624A",
"1.	c #564B3E",
"2.	c #B49871",
"3.	c #99805E",
"4.	c #393126",
"5.	c #030204",
"6.	c #A18768",
"7.	c #EBC896",
"8.	c #A58F6A",
"9.	c #4F4132",
"0.	c #1E1C1C",
"a.	c #282828",
"b.	c #A4906E",
"c.	c #AE916C",
"d.	c #665842",
"e.	c #211B17",
"f.	c #040204",
"          . + @ # $             ",
"    % & * = - ; > , '           ",
"  ) ! ~ { ] ^ / ( _ : <         ",
"    [ } | 1 2 3 4 5 6 7 8       ",
"      9 0 a b c d e f g h d     ",
"      i j k l d d 7 7 m n 7 d   ",
"      o p q r s t u e d 7 v d   ",
"    w x y z A B C D E F G 6 d   ",
"    d H I J K L M N O P Q R d   ",
"    S T U V W X Y Z `  ...+.d   ",
"      @.#.$.%.&.*.=.-.q ;.>.d   ",
"          ,.'.).!.~.{.].].^.d   ",
"          /.].(._.:.<.[.}.|.d   ",
"        1.2.3.4.5.5.6.7.8.9.    ",
"        d d 0.a.d b.c.d.e.      ",
"                  d f.          "};
