/* XPM */
static char *edonkey[] = {
/* width height num_colors chars_per_pixel */
"    32    32      153            2",
/* colors */
".. c #1c2a14",
".# c #649654",
".a c #746244",
".b c #3c6234",
".c c #d4d2d4",
".d c #947e4c",
".e c #bc9654",
".f c #548244",
".g c #4c4e34",
".h c #5c6644",
".i c #a47e3c",
".j c #b4b6b4",
".k c #8c723c",
".l c #344a2c",
".m c #4c7244",
".n c #a49e94",
".o c #cca24c",
".p c #645634",
".q c #a48a54",
".r c #4c6244",
".s c #7c827c",
".t c #34562c",
".u c #548a44",
".v c #6ca65c",
".w c #e4eae4",
".x c #5c6e44",
".y c #747264",
".z c #cc9a44",
".A c #4c5a3c",
".B c #445a3c",
".C c #2c3a24",
".D c #a4864c",
".E c #94968c",
".F c #8c928c",
".G c #9c7a3c",
".H c #4c7a3c",
".I c #4c6a3c",
".J c #6c9e54",
".K c #446a34",
".L c #dcdedc",
".M c #c4c2c4",
".N c #8c7a54",
".O c #d4aa5c",
".P c #b48a44",
".Q c #649254",
".R c #9c8654",
".S c #5c5234",
".T c #5c6a4c",
".U c #94763c",
".V c #a4aaa4",
".W c #7c7a54",
".X c #d4a24c",
".Y c #645e54",
".Z c #8c867c",
".0 c #5c924c",
".1 c #74ae64",
".2 c #f4f6f4",
".3 c #d49e4c",
".4 c #7c6a44",
".5 c #9c968c",
".6 c #546e44",
".7 c #446234",
".8 c #9c7e44",
".9 c #c49644",
"#. c #4c4e44",
"## c #ac823c",
"#a c #8c724c",
"#b c #3c5234",
"#c c #84724c",
"#d c #848a84",
"#e c #74a65c",
"#f c #64765c",
"#g c #5c563c",
"#h c #3c4234",
"#i c #547a44",
"#j c #3c5a2c",
"#k c #6c9a5c",
"#l c #7c663c",
"#m c #dcdadc",
"#n c #5c7e4c",
"#o c #bcb6b4",
"#p c #3c4e34",
"#q c #4c763c",
"#r c #a4a2a4",
"#s c #6c5a3c",
"#t c #ac8e54",
"#u c #7c7264",
"#v c #cc9e44",
"#w c #545654",
"#x c #343a2c",
"#y c #948e7c",
"#z c #6ca25c",
"#A c #e4e6e4",
"#B c #5c864c",
"#C c #cccacc",
"#D c #b49254",
"#E c #d4a654",
"#F c none",
"#G c #7c6e54",
"#H c #9c9a8c",
"#I c #5c8e4c",
"#J c #74aa64",
"#K c #649a54",
"#L c #746644",
"#M c #3c6634",
"#N c #d4d6d4",
"#O c #947e54",
"#P c #54824c",
"#Q c #f4f2f4",
"#R c #b4aeac",
"#S c #bc9244",
"#T c #fcfafc",
"#U c #64625c",
"#V c #8c968c",
"#W c #ac8644",
"#X c #3c5e34",
"#Y c #545a3c",
"#Z c #5c6a5c",
"#0 c #9c7e54",
"#1 c #4c523c",
"#2 c #a4a29c",
"#3 c #645a3c",
"#4 c #746e4c",
"#5 c #7c6e4c",
"#6 c #24361c",
"#7 c #bcbabc",
"#8 c #949284",
"#9 c #344e2c",
"a. c #345a2c",
"a# c #c4c6c4",
"aa c #c49a44",
"ab c #8c764c",
"ac c #343e2c",
"ad c #cca254",
"ae c #949694",
"af c #4c7a44",
"ag c #6c9e5c",
"ah c #446a3c",
"ai c #54864c",
"aj c #d4a254",
"ak c #847a74",
"al c #9c9694",
"am c #546e4c",
"an c #44623c",
"ao c #5c8a54",
"ap c #74a664",
"aq c #647664",
"ar c #3c5a34",
"as c #a48244",
"at c #4c7644",
"au c #84827c",
"av c #cc9e4c",
"aw c #4c6e44",
/* pixels */
"#F#F#F#F#F#F#F#F#F#F#F#F#F#F#F#F#F#F#F#F#F#F#F#F#F#F#F#F#F#F#F#F",
"#F#F#F#F#F#F#F#F#F#F#F#F#F#F#F#F#F#F#F#F#F#F#F#F#F#F#F#F#F#F#F#F",
"#F#F#F#F#F#F#F#F#F#F#F#F#F#F#F#F#F#F#F#F#F#F#F#F#F#F#F#F#F#F#F#F",
"#F#F#F#F#F#F#F#F#F#F#F#F#F#F#F#F#F#F#F#F#F#F#F#F#F#F#F#F#F#F#F#F",
"#F#F#F#F#F#F#F#F#F#F#F#F#F#F#F#F#F#F#F#F#F#F#F#F#F#F#F#F#F#F#F#F",
"#F#F#F#F#F#F#F#F#F#F#F#F#F#F#F#F#F#F#F#F#F#F#F#F#F#F#F#F#F#F#F#F",
"#F#F#F#F#F#F#F#F#F#F#F#F#F#F#F#F#F#F#F#F#F#F#F#F#F#F#F#F#F#F#F#F",
"#F#F#F#F#F#F#F#F#F#F#F#F.2.c#o.n.5.5#R#C#T#F#F#F#F#F#F#F#F#F#F#F",
"#F#F#F#F#F#F#F#F#F#F#F.L.Z#l.8#W.P.P.8#laka##F#F#F#F#F#F#F#F#F#F",
"#F#F#F#F#F#F#F#F#F#Tal#sas.e#t.R.N.d.q#Das.p#2.2#F#F#F#F#F#F#F#F",
"#F#F#F#F#F#F#F#N#r#d#x.g.h.T#xah#iaw.C.r.x#Y#h.s#r#7#F#F#F#F#F#F",
"#F#F#7#w#6.lanat.Q#Kag#z.J.t#I#J#J#J.##b#k#e#z#z.#.fawar.C#x#d.w",
"#F#F#A.j#Uaqaw.m#qafaf#iah#j.##e#J#J#J#B#X.u#P.faf#iaham#Z.F#C#T",
"#F#F#F#F#F#F#N#u.a#a#a#G#6.H.u.0#e#J#J#Jar#1#5#5#Lau#C#A#F#F#F#F",
"#F#F#F#F#F#F#Fauaa.Xad#cat.#.0.0#zap#J#Jao#4#E.X#S#G#F#F#F#F#F#F",
"#F#F#F#F#F#F.L#G.3.3.D.A#e#J#J.1#J.1.1#J#ear.R.3av#l#F#F#F#F#F#F",
"#F#F#F#F#F#F.L#O.o#v.dac#9#Xah.Iaw.I.I.7.t#x#0avav#a#F#F#F#F#F#F",
"#F#F#F#F#F#F#m#O.3#vaj#g.ta.#ja.a.#j#M#qai.h.O#v.3ab#F#F#F#F#F#F",
"#F#F#F#F#F#F.L#c.X.3av.S.K.H.u.u.u.u.0#K.#.T#E.3#v.4#F#F#F#F#F#F",
"#F#F#F#F#F#F.2ak.z#vad#gaf.0#Kag.Jag#z#z#K.T#E#v.9.a#F#F#F#F#F#F",
"#F#F#F#F#F#F#Fae##.X.X#c.H.#.vap.vap#e#J.Q.W.X#v.i#8#F#F#F#F#F#F",
"#F#F#F#F#F#F#F#A#3.9av#t.b#K.v#J#J#J#J#J#nab#v.3.4a##F#F#F#F#F#F",
"#F#F#F#F#F#F#F#F.5.U.3.e#p.##z#J#J#J#J.1.6asav.i.5.2#F#F#F#F#F#F",
"#F#F#F#F#F#F#F#F#T#H.i.X#4.l#I#z#J#J.#.7#3ad.G.y#T#F#F#F#F#F#F#F",
"#F#F#F#F#F#F#F#F#F.2#y.k#5...m#z#J#z#P#6#3.G#u#m#F#F#F#F#F#F#F#F",
"#F#F#F#F#F#F#F#F#F#F.2.M.Y#.#b#n.#.#.B#.#U#2#Q#F#F#F#F#F#F#F#F#F",
"#F#F#F#F#F#F#F#F#F#F#F#F.L.jae#V#f#V.E.V.L#F#F#F#F#F#F#F#F#F#F#F",
"#F#F#F#F#F#F#F#F#F#F#F#F#F#F#F#F#F#F#F#F#F#F#F#F#F#F#F#F#F#F#F#F",
"#F#F#F#F#F#F#F#F#F#F#F#F#F#F#F#F#F#F#F#F#F#F#F#F#F#F#F#F#F#F#F#F",
"#F#F#F#F#F#F#F#F#F#F#F#F#F#F#F#F#F#F#F#F#F#F#F#F#F#F#F#F#F#F#F#F",
"#F#F#F#F#F#F#F#F#F#F#F#F#F#F#F#F#F#F#F#F#F#F#F#F#F#F#F#F#F#F#F#F",
"#F#F#F#F#F#F#F#F#F#F#F#F#F#F#F#F#F#F#F#F#F#F#F#F#F#F#F#F#F#F#F#F"
};
