<?xml version="1.0" encoding="UTF-8" standalone="no"?>
<!DOCTYPE svg PUBLIC "-//W3C//DTD SVG 20010904//EN"
"http://www.w3.org/TR/2001/REC-SVG-20010904/DTD/svg10.dtd">
<!-- Created with Sodipodi ("http://www.sodipodi.com/") -->
<svg
   xmlns:x="http://ns.adobe.com/Extensibility/1.0/"
   xmlns:i="http://ns.adobe.com/AdobeIllustrator/10.0/"
   xmlns:graph="http://ns.adobe.com/Graphs/1.0/"
   xmlns="http://www.w3.org/2000/svg"
   xmlns:xlink="http://www.w3.org/1999/xlink"
   xmlns:a="http://ns.adobe.com/AdobeSVGViewerExtensions/3.0/"
   xml:space="preserve"
   i:viewOrigin="168.9849 427.752"
   i:rulerOrigin="0 0"
   i:pageBounds="0 792 612 0"
   width="48.9"
   height="48.7"
   viewBox="0 0 48.9 48.7"
   overflow="visible"
   enable-background="new 0 0 48.9 48.7"
   xmlns:sodipodi="http://sodipodi.sourceforge.net/DTD/sodipodi-0.dtd"
   id="svg602"
   sodipodi:version="0.34"
   sodipodi:docname="C:\msys\home\su_blanc\mldonkey-2.5.12\src\gtk2\rsvg\emoticons\emoticon_sick.svg"><defs
   id="defs791" /><sodipodi:namedview
   id="namedview790" /><g
   id="Layer_1"
   i:knockout="Off"
   i:layer="yes"
   i:dimmedPercent="50"
   i:rgbTrio="#4F008000FFFF"><g
   id="g606"><rect
   id="rect662"
   x="0.9"
   y="0.7"
   i:knockout="Off"
   fill="none"
   width="48"
   height="48" /><path
   id="path597_5_"
   i:isolated="yes"
   i:knockout="Off"
   opacity="0.15"
   fill="none"
   stroke="#474000"
   stroke-width="1.8818"
   enable-background="new    "
   d="      M0.9,20.2c0-10.7,8-19.3,17.8-19.3c9.8,0,18.4,8.1,18.4,18.7c0,10.7-8.6,19.9-18.4,19.9C8.9,39.5,0.9,30.9,0.9,20.2z" /><path
   id="path597_4_"
   i:isolated="yes"
   i:knockout="Off"
   opacity="0.2"
   fill="none"
   stroke="#474000"
   stroke-width="0.9409"
   enable-background="new    "
   d="      M0.9,20.2c0-10.7,8-19.3,17.8-19.3c9.8,0,18.4,8.1,18.4,18.7c0,10.7-8.6,19.9-18.4,19.9C8.9,39.5,0.9,30.9,0.9,20.2z" /><path
   id="path597_3_"
   i:isolated="yes"
   i:knockout="Off"
   opacity="0.3"
   fill="none"
   stroke="#474000"
   stroke-width="0.4704"
   enable-background="new    "
   d="      M0.9,20.2c0-10.7,8-19.3,17.8-19.3c9.8,0,18.4,8.1,18.4,18.7c0,10.7-8.6,19.9-18.4,19.9C8.9,39.5,0.9,30.9,0.9,20.2z" /><radialGradient
   id="path700_1_"
   cx="-848.5737"
   cy="428.4922"
   r="6.368980e-002"
   fx="-848.5737"
   fy="428.4922"
   gradientTransform="matrix(310.7065 0 0 -144.1183 263677.7813 61796.2813)"
   gradientUnits="userSpaceOnUse"><stop
   offset="0"
   style="stop-color:#261700"
   id="stop612" /><stop
   offset="1"
   style="stop-color:#D2D2D2"
   id="stop613" /><a:midPointStop
   offset="0"
   style="stop-color:#261700"
   id="midPointStop614" /><a:midPointStop
   offset="0.5"
   style="stop-color:#261700"
   id="midPointStop615" /><a:midPointStop
   offset="1"
   style="stop-color:#D2D2D2"
   id="midPointStop616" /></radialGradient><path
   id="path700"
   i:isolated="yes"
   i:knockout="Off"
   opacity="0.3"
   fill="url(#path700_1_)"
   enable-background="new    "
   d="      M33.2,31.8c6.5,4.5,6,10.6-1.9,14.3c-7.9,3.7-19.5,3.1-25.9-1.5c-5.5-3.8-5.7-9.1-0.5-13.1c3.4,4.7,6.2,6.3,14,7.3      C25.4,38.7,29.6,35.8,33.2,31.8z" /><radialGradient
   id="path577_1_"
   cx="-807.5"
   cy="384.9805"
   r="41.5567"
   fx="-807.5"
   fy="384.9805"
   gradientTransform="matrix(298.9032 0 0 -316.3969 253662.0938 135241.1094)"
   gradientUnits="userSpaceOnUse"><stop
   offset="0"
   style="stop-color:#FF6F00"
   id="stop619" /><stop
   offset="1"
   style="stop-color:#FFFF00"
   id="stop620" /><a:midPointStop
   offset="0"
   style="stop-color:#FF6F00"
   id="midPointStop621" /><a:midPointStop
   offset="0.5"
   style="stop-color:#FF6F00"
   id="midPointStop622" /><a:midPointStop
   offset="1"
   style="stop-color:#FFFF00"
   id="midPointStop623" /></radialGradient><circle
   id="path577"
   fill="url(#path577_1_)"
   cx="19.2"
   cy="20.4"
   r="17.8" /><linearGradient
   id="path597_1_"
   gradientUnits="userSpaceOnUse"
   x1="-848.5684"
   y1="427.4336"
   x2="-848.5697"
   y2="427.3149"
   gradientTransform="matrix(303.6933 0 0 -316.3967 257723.75 135241.1094)"><stop
   offset="0"
   style="stop-color:#FF6500"
   id="stop626" /><stop
   offset="1"
   style="stop-color:#FFFF00"
   id="stop627" /><a:midPointStop
   offset="0"
   style="stop-color:#FF6500"
   id="midPointStop628" /><a:midPointStop
   offset="0.5"
   style="stop-color:#FF6500"
   id="midPointStop629" /><a:midPointStop
   offset="1"
   style="stop-color:#FFFF00"
   id="midPointStop630" /></linearGradient><path
   id="path597"
   i:isolated="yes"
   i:knockout="Off"
   opacity="0.75"
   fill="url(#path597_1_)"
   enable-background="new    "
   d="      M0.9,20.2c0-10.7,8-19.3,17.8-19.3c9.9,0,18.4,8,18.4,18.7c0,10.7-8.6,19.9-18.4,19.9C8.9,39.5,0.9,30.9,0.9,20.2z" /><linearGradient
   id="path597_7_"
   gradientUnits="userSpaceOnUse"
   x1="-848.5684"
   y1="427.4336"
   x2="-848.5697"
   y2="427.3149"
   gradientTransform="matrix(303.6933 0 0 -316.3967 257723.75 135241.1094)"><stop
   offset="0"
   style="stop-color:#00FF00"
   id="stop633" /><stop
   offset="1"
   style="stop-color:#FFFF00"
   id="stop634" /><a:midPointStop
   offset="0"
   style="stop-color:#00FF00"
   id="midPointStop635" /><a:midPointStop
   offset="0.5"
   style="stop-color:#00FF00"
   id="midPointStop636" /><a:midPointStop
   offset="1"
   style="stop-color:#FFFF00"
   id="midPointStop637" /></linearGradient><path
   id="path597_6_"
   i:isolated="yes"
   i:knockout="Off"
   opacity="0.4"
   fill="url(#path597_7_)"
   enable-background="new    "
   d="      M0.9,20.2c0-10.7,8-19.3,17.8-19.3c9.9,0,18.4,8,18.4,18.7c0,10.7-8.6,19.9-18.4,19.9C8.9,39.5,0.9,30.9,0.9,20.2z" /><radialGradient
   id="path597_8_"
   cx="-660.9912"
   cy="1.0059"
   r="20.2352"
   fx="-660.9912"
   fy="1.0059"
   gradientTransform="matrix(1 0 0 1 679.7031 -1.757813e-002)"
   gradientUnits="userSpaceOnUse"><stop
   offset="0"
   style="stop-color:#FFFFFF"
   id="stop640" /><stop
   offset="0.1046"
   style="stop-color:#FFFEFA"
   id="stop641" /><stop
   offset="0.2282"
   style="stop-color:#FFFBEC"
   id="stop642" /><stop
   offset="0.3616"
   style="stop-color:#FFF7D4"
   id="stop643" /><stop
   offset="0.5018"
   style="stop-color:#FFF1B2"
   id="stop644" /><stop
   offset="0.6474"
   style="stop-color:#FFE988"
   id="stop645" /><stop
   offset="0.7976"
   style="stop-color:#FFDF53"
   id="stop646" /><stop
   offset="0.9487"
   style="stop-color:#FFD316"
   id="stop647" /><stop
   offset="1"
   style="stop-color:#FFCF00"
   id="stop648" /><a:midPointStop
   offset="0"
   style="stop-color:#FFFFFF"
   id="midPointStop649" /><a:midPointStop
   offset="0.5"
   style="stop-color:#FFFFFF"
   id="midPointStop650" /><a:midPointStop
   offset="0.1046"
   style="stop-color:#FFFEFA"
   id="midPointStop651" /><a:midPointStop
   offset="0.5"
   style="stop-color:#FFFEFA"
   id="midPointStop652" /><a:midPointStop
   offset="0.2282"
   style="stop-color:#FFFBEC"
   id="midPointStop653" /><a:midPointStop
   offset="0.5"
   style="stop-color:#FFFBEC"
   id="midPointStop654" /><a:midPointStop
   offset="0.3616"
   style="stop-color:#FFF7D4"
   id="midPointStop655" /><a:midPointStop
   offset="0.5"
   style="stop-color:#FFF7D4"
   id="midPointStop656" /><a:midPointStop
   offset="0.5018"
   style="stop-color:#FFF1B2"
   id="midPointStop657" /><a:midPointStop
   offset="0.5"
   style="stop-color:#FFF1B2"
   id="midPointStop658" /><a:midPointStop
   offset="0.6474"
   style="stop-color:#FFE988"
   id="midPointStop659" /><a:midPointStop
   offset="0.5"
   style="stop-color:#FFE988"
   id="midPointStop660" /><a:midPointStop
   offset="0.7976"
   style="stop-color:#FFDF53"
   id="midPointStop661" /><a:midPointStop
   offset="0.5"
   style="stop-color:#FFDF53"
   id="midPointStop662" /><a:midPointStop
   offset="0.9487"
   style="stop-color:#FFD316"
   id="midPointStop663" /><a:midPointStop
   offset="0.5"
   style="stop-color:#FFD316"
   id="midPointStop664" /><a:midPointStop
   offset="1"
   style="stop-color:#FFCF00"
   id="midPointStop665" /></radialGradient><path
   id="path597_2_"
   i:isolated="yes"
   i:knockout="Off"
   opacity="0.75"
   fill="url(#path597_8_)"
   enable-background="new    "
   d="      M7.5,7.8c0-3.8,5-6.9,11.1-6.9C24.7,0.9,30,3.8,30,7.6C30,11.4,7.5,11.6,7.5,7.8z" /><g
   id="g660"
   i:knockout="Off"><g
   id="path643"
   i:knockout="Off"><path
   id="path662"
   i:isolated="yes"
   i:knockout="Off"
   opacity="3.320000e-002"
   fill="none"
   stroke="#000000"
   stroke-width="1.2734"
   stroke-linecap="round"
   enable-background="new    "
   d="        M28.1,31.8C24.6,27.5,13,27.6,9,31.6" /></g><path
   id="path639"
   fill="none"
   stroke="#795000"
   stroke-width="1.215"
   stroke-linecap="round"
   d="M28.1,31.8       C24.6,27.6,13,27.7,9,31.6" /><g
   id="path640"
   i:knockout="Off"><path
   id="path665"
   i:isolated="yes"
   i:knockout="Off"
   opacity="3.320000e-002"
   fill="none"
   stroke="#000000"
   stroke-width="2.2015"
   stroke-linecap="round"
   enable-background="new    "
   d="        M28.2,31.8c-3.5-4.3-15.1-4.2-19.1-0.2" /></g><g
   id="path641"
   i:knockout="Off"><path
   id="path667"
   i:isolated="yes"
   i:knockout="Off"
   opacity="3.320000e-002"
   fill="none"
   stroke="#000000"
   stroke-width="1.7121"
   stroke-linecap="round"
   enable-background="new    "
   d="        M28.2,31.9c-3.5-4.3-15.1-4.2-19.1-0.2" /></g><g
   id="path642"
   i:knockout="Off"><path
   id="path669"
   i:isolated="yes"
   i:knockout="Off"
   opacity="3.320000e-002"
   fill="none"
   stroke="#000000"
   stroke-width="2.906"
   stroke-linecap="round"
   enable-background="new    "
   d="        M28.2,31.8c-3.5-4.3-15.1-4.2-19.1-0.2" /></g></g><g
   id="g670"
   i:knockout="Off"><radialGradient
   id="path630_1_"
   cx="-334.7788"
   cy="0.3691"
   r="0.1196"
   fx="-334.7788"
   fy="0.3691"
   gradientTransform="matrix(-47.8028 0 0 65.5878 -15976.1621 -5.69)"
   gradientUnits="userSpaceOnUse"><stop
   offset="0"
   style="stop-color:#DEE2E7"
   id="stop679" /><stop
   offset="1"
   style="stop-color:#FFFFFF"
   id="stop680" /><a:midPointStop
   offset="0"
   style="stop-color:#DEE2E7"
   id="midPointStop681" /><a:midPointStop
   offset="0.5"
   style="stop-color:#DEE2E7"
   id="midPointStop682" /><a:midPointStop
   offset="1"
   style="stop-color:#FFFFFF"
   id="midPointStop683" /></radialGradient><path
   id="path630"
   fill="url(#path630_1_)"
   stroke="#7C5202"
   stroke-width="0.9"
   d="M24.3,17.3c0-3.3,1.9-5.9,4.3-5.9       c2.4,0,4.3,2.6,4.3,5.9l0,0c0,3.3-1.9,5.9-4.3,5.9C26.2,23.2,24.3,20.5,24.3,17.3L24.3,17.3z" /><g
   id="path631"
   i:knockout="Off"><path
   id="path679"
   i:isolated="yes"
   i:knockout="Off"
   opacity="3.790000e-002"
   fill="none"
   stroke="#000000"
   stroke-width="0.675"
   enable-background="new    "
   d="        M23.6,17.2c0-3.6,2.2-6.5,5-6.5c2.8,0,5,2.9,5,6.5l0,0c0,3.6-2.2,6.5-5,6.5C25.9,23.7,23.6,20.8,23.6,17.2L23.6,17.2z" /></g><g
   id="path632"
   i:knockout="Off"><path
   id="path681"
   i:isolated="yes"
   i:knockout="Off"
   opacity="1.420000e-002"
   fill="none"
   stroke="#000000"
   stroke-width="2.3472"
   enable-background="new    "
   d="        M23.6,17.2c0-3.6,2.2-6.5,5-6.5c2.8,0,5,2.9,5,6.5l0,0c0,3.6-2.2,6.5-5,6.5C25.9,23.7,23.6,20.8,23.6,17.2L23.6,17.2z" /></g><g
   id="path633"
   i:knockout="Off"><path
   id="path683"
   i:isolated="yes"
   i:knockout="Off"
   opacity="1.420000e-002"
   fill="none"
   stroke="#000000"
   stroke-width="1.4832"
   enable-background="new    "
   d="        M23.6,17.2c0-3.6,2.2-6.5,5-6.5c2.8,0,5,2.9,5,6.5l0,0c0,3.6-2.2,6.5-5,6.5C25.9,23.7,23.6,20.8,23.6,17.2L23.6,17.2z" /></g><g
   id="path634"
   i:knockout="Off"><path
   id="path685"
   i:isolated="yes"
   i:knockout="Off"
   opacity="1.420000e-002"
   fill="none"
   stroke="#000000"
   stroke-width="0.5109"
   enable-background="new    "
   d="        M23.6,17.2c0-3.6,2.2-6.5,5-6.5c2.8,0,5,2.9,5,6.5l0,0c0,3.6-2.2,6.5-5,6.5C25.9,23.7,23.6,20.8,23.6,17.2L23.6,17.2z" /></g><g
   id="path635"
   i:knockout="Off"><path
   id="path687"
   i:isolated="yes"
   i:knockout="Off"
   opacity="0.1517"
   fill="none"
   stroke="#000000"
   stroke-width="0.2568"
   enable-background="new    "
   d="        M23.8,17.2c0-3.5,2.1-6.4,4.8-6.4c2.7,0,4.8,2.9,4.8,6.4l0,0c0,3.5-2.1,6.4-4.8,6.4C26,23.6,23.8,20.8,23.8,17.2L23.8,17.2z" /></g><radialGradient
   id="path637_1_"
   cx="-329.9697"
   cy="-0.9717"
   r="0.1114"
   fx="-329.9697"
   fy="-0.9717"
   gradientTransform="matrix(-19.9085 0 0 20.9347 -6540.6074 40.5836)"
   gradientUnits="userSpaceOnUse"><stop
   offset="0"
   style="stop-color:#000082"
   id="stop696" /><stop
   offset="1"
   style="stop-color:#000000"
   id="stop697" /><a:midPointStop
   offset="0"
   style="stop-color:#000082"
   id="midPointStop698" /><a:midPointStop
   offset="0.5"
   style="stop-color:#000082"
   id="midPointStop699" /><a:midPointStop
   offset="1"
   style="stop-color:#000000"
   id="midPointStop700" /></radialGradient><path
   id="path637"
   fill="url(#path637_1_)"
   d="M26.1,21.2c0-1,0.8-1.9,1.8-1.9s1.8,0.8,1.8,1.9l0,0c0,1-0.8,1.9-1.8,1.9       S26.1,22.3,26.1,21.2L26.1,21.2z" /></g><g
   id="g695"
   i:knockout="Off"><radialGradient
   id="path650_1_"
   cx="-339.6582"
   cy="0.3691"
   r="0.1202"
   fx="-339.6582"
   fy="0.3691"
   gradientTransform="matrix(47.8028 0 0 65.5878 16247.1309 -5.69)"
   gradientUnits="userSpaceOnUse"><stop
   offset="0"
   style="stop-color:#DEE2E7"
   id="stop704" /><stop
   offset="1"
   style="stop-color:#FFFFFF"
   id="stop705" /><a:midPointStop
   offset="0"
   style="stop-color:#DEE2E7"
   id="midPointStop706" /><a:midPointStop
   offset="0.5"
   style="stop-color:#DEE2E7"
   id="midPointStop707" /><a:midPointStop
   offset="1"
   style="stop-color:#FFFFFF"
   id="midPointStop708" /></radialGradient><path
   id="path650"
   fill="url(#path650_1_)"
   stroke="#7C3902"
   stroke-width="0.9"
   d="M13.4,17.3c0-3.3-1.9-5.9-4.3-5.9       c-2.4,0-4.3,2.6-4.3,5.9l0,0c0,3.3,1.9,5.9,4.3,5.9C11.5,23.2,13.4,20.5,13.4,17.3L13.4,17.3z" /><g
   id="path651"
   i:knockout="Off"><path
   id="path704"
   i:isolated="yes"
   i:knockout="Off"
   opacity="3.790000e-002"
   fill="none"
   stroke="#000000"
   stroke-width="0.675"
   enable-background="new    "
   d="        M14.1,17.2c0-3.6-2.2-6.5-5-6.5c-2.8,0-5,2.9-5,6.5l0,0c0,3.6,2.2,6.5,5,6.5C11.8,23.7,14.1,20.8,14.1,17.2L14.1,17.2z" /></g><g
   id="path652"
   i:knockout="Off"><path
   id="path706"
   i:isolated="yes"
   i:knockout="Off"
   opacity="1.420000e-002"
   fill="none"
   stroke="#000000"
   stroke-width="2.3472"
   enable-background="new    "
   d="        M14.1,17.2c0-3.6-2.2-6.5-5-6.5c-2.8,0-5,2.9-5,6.5l0,0c0,3.6,2.2,6.5,5,6.5C11.8,23.7,14.1,20.8,14.1,17.2L14.1,17.2z" /></g><g
   id="path653"
   i:knockout="Off"><path
   id="path708"
   i:isolated="yes"
   i:knockout="Off"
   opacity="1.420000e-002"
   fill="none"
   stroke="#000000"
   stroke-width="1.4832"
   enable-background="new    "
   d="        M14.1,17.2c0-3.6-2.2-6.5-5-6.5c-2.8,0-5,2.9-5,6.5l0,0c0,3.6,2.2,6.5,5,6.5C11.8,23.7,14.1,20.8,14.1,17.2L14.1,17.2z" /></g><g
   id="path654"
   i:knockout="Off"><path
   id="path710"
   i:isolated="yes"
   i:knockout="Off"
   opacity="1.420000e-002"
   fill="none"
   stroke="#000000"
   stroke-width="0.5109"
   enable-background="new    "
   d="        M14.1,17.2c0-3.6-2.2-6.5-5-6.5c-2.8,0-5,2.9-5,6.5l0,0c0,3.6,2.2,6.5,5,6.5C11.8,23.7,14.1,20.8,14.1,17.2L14.1,17.2z" /></g><g
   id="path655"
   i:knockout="Off"><path
   id="path712"
   i:isolated="yes"
   i:knockout="Off"
   opacity="0.1517"
   fill="none"
   stroke="#000000"
   stroke-width="0.2568"
   enable-background="new    "
   d="        M13.9,17.2c0-3.5-2.1-6.4-4.8-6.4c-2.7,0-4.8,2.9-4.8,6.4l0,0c0,3.5,2.1,6.4,4.8,6.4C11.7,23.6,13.9,20.8,13.9,17.2L13.9,17.2        z" /></g><radialGradient
   id="path656_1_"
   cx="-341.6802"
   cy="-0.9717"
   r="0.1113"
   fx="-341.6802"
   fy="-0.9717"
   gradientTransform="matrix(19.9085 0 0 20.9347 6811.5752 40.5836)"
   gradientUnits="userSpaceOnUse"><stop
   offset="0"
   style="stop-color:#000082"
   id="stop721" /><stop
   offset="1"
   style="stop-color:#000000"
   id="stop722" /><a:midPointStop
   offset="0"
   style="stop-color:#000082"
   id="midPointStop723" /><a:midPointStop
   offset="0.5"
   style="stop-color:#000082"
   id="midPointStop724" /><a:midPointStop
   offset="1"
   style="stop-color:#000000"
   id="midPointStop725" /></radialGradient><path
   id="path656"
   fill="url(#path656_1_)"
   d="M11.6,21.2c0-1-0.8-1.9-1.8-1.9S8,20.1,8,21.2l0,0c0,1,0.8,1.9,1.8,1.9       S11.6,22.3,11.6,21.2L11.6,21.2z" /></g><g
   id="g727"><g
   id="path674"
   nodetypes="cccccccc"><linearGradient
   id="XMLID_1_"
   gradientUnits="userSpaceOnUse"
   x1="-170.3604"
   y1="427.8701"
   x2="-170.289"
   y2="427.8699"
   gradientTransform="matrix(171.3486 0 0 -217.4325 29238.4395 93051.0938)"><stop
   offset="0"
   style="stop-color:#7D7AFF"
   id="stop730" /><stop
   offset="1"
   style="stop-color:#A7CAFF"
   id="stop731" /><a:midPointStop
   offset="0"
   style="stop-color:#7D7AFF"
   id="midPointStop732" /><a:midPointStop
   offset="0.5"
   style="stop-color:#7D7AFF"
   id="midPointStop733" /><a:midPointStop
   offset="1"
   style="stop-color:#A7CAFF"
   id="midPointStop734" /></linearGradient><path
   i:knockout="Off"
   fill="url(#XMLID_1_)"
   d="M42.9,7.7c-0.7,1-17,22.4-17.3,22.8c0.8,0.6,1.2,1,1.9,1.6L44.8,9.3        c0,0,1.5,0,2.3-1c0.8-1.4,0.5-2.5-0.7-3.5c-1.1-0.9-2.6-0.9-3.4,0C42.5,5.7,42.9,7.5,42.9,7.7z"
   id="path735" /><path
   i:knockout="Off"
   opacity="0.5355"
   fill="none"
   stroke="#0A0000"
   stroke-width="0.3437"
   d="M42.9,7.7        c-0.7,1-17,22.4-17.3,22.8c0.8,0.6,1.2,1,1.9,1.6L44.8,9.3c0,0,1.5,0,2.3-1c0.8-1.4,0.5-2.5-0.7-3.5c-1.1-0.9-2.6-0.9-3.4,0        C42.5,5.7,42.9,7.5,42.9,7.7z"
   id="path736" /></g><g
   id="path638"
   nodetypes="cccccccc"><linearGradient
   id="XMLID_2_"
   gradientUnits="userSpaceOnUse"
   x1="-170.3618"
   y1="427.873"
   x2="-170.2905"
   y2="427.8729"
   gradientTransform="matrix(171.3485 0 0 -217.4326 29238.457 93051.0938)"><stop
   offset="0"
   style="stop-color:#FFFFFF"
   id="stop739" /><stop
   offset="1"
   style="stop-color:#FFFFFF"
   id="stop740" /><a:midPointStop
   offset="0"
   style="stop-color:#FFFFFF"
   id="midPointStop741" /><a:midPointStop
   offset="0.5"
   style="stop-color:#FFFFFF"
   id="midPointStop742" /><a:midPointStop
   offset="1"
   style="stop-color:#FFFFFF"
   id="midPointStop743" /></linearGradient><path
   i:knockout="Off"
   fill="url(#XMLID_2_)"
   d="M42.9,7.7c-0.7,1-17,22.4-17.3,22.8c0.8,0.6,1.2,1,1.9,1.6L44.8,9.3        c0,0,1.5,0,2.3-1c0.8-1.4,0.5-2.5-0.7-3.5c-1.1-0.9-2.6-0.9-3.4,0C42.5,5.7,42.9,7.5,42.9,7.7z"
   id="path744" /><path
   i:knockout="Off"
   opacity="4.000000e-002"
   fill="none"
   stroke="#000000"
   stroke-width="0.8134"
   d="M42.9,7.7        c-0.7,1-17,22.4-17.3,22.8c0.8,0.6,1.2,1,1.9,1.6L44.8,9.3c0,0,1.5,0,2.3-1c0.8-1.4,0.5-2.5-0.7-3.5c-1.1-0.9-2.6-0.9-3.4,0        C42.5,5.7,42.9,7.5,42.9,7.7z"
   id="path745" /></g><g
   id="path644"
   nodetypes="cccccccc"><linearGradient
   id="XMLID_3_"
   gradientUnits="userSpaceOnUse"
   x1="-170.5029"
   y1="427.9199"
   x2="-170.4315"
   y2="427.9197"
   gradientTransform="matrix(157.8016 0 0 -200.9074 26952.752 85990.4844)"><stop
   offset="0"
   style="stop-color:#FF0000"
   id="stop748" /><stop
   offset="1"
   style="stop-color:#F51500"
   id="stop749" /><a:midPointStop
   offset="0"
   style="stop-color:#FF0000"
   id="midPointStop750" /><a:midPointStop
   offset="0.5"
   style="stop-color:#FF0000"
   id="midPointStop751" /><a:midPointStop
   offset="1"
   style="stop-color:#F51500"
   id="midPointStop752" /></linearGradient><path
   i:knockout="Off"
   fill="url(#XMLID_3_)"
   d="M43.4,7.9c-0.7,1-17,22.4-17.3,22.8c0.1,0.1,0.2,0.2,0.3,0.2L43.6,8.2        c0,0,1.4,0.7,2.2-0.3c0.7-1,0.7-1.7,0-2.3c-0.9-0.8-1.6-0.6-2.3,0.3C42.9,6.8,43.4,7.8,43.4,7.9z"
   id="path753" /><path
   i:knockout="Off"
   opacity="0.1611"
   fill="none"
   stroke="#000000"
   stroke-width="2.238464e-002"
   d="M43.4,7.9        c-0.7,1-17,22.4-17.3,22.8c0.1,0.1,0.2,0.2,0.3,0.2L43.6,8.2c0,0,1.4,0.7,2.2-0.3c0.7-1,0.7-1.7,0-2.3        c-0.9-0.8-1.6-0.6-2.3,0.3C42.9,6.8,43.4,7.8,43.4,7.9z"
   id="path754" /></g><g
   id="path649"
   nodetypes="cc"><path
   i:knockout="Off"
   opacity="0.4408"
   fill="none"
   stroke="#FF0000"
   stroke-width="0.2635"
   stroke-linecap="round"
   stroke-linejoin="round"
   d="        M34.5,21.3c0.4,0.3,0.5,0.5,0.5,0.5"
   id="path756" /></g><g
   id="path657"
   nodetypes="cc"><path
   i:knockout="Off"
   opacity="0.4408"
   fill="none"
   stroke="#FF0000"
   stroke-width="0.2635"
   stroke-linecap="round"
   stroke-linejoin="round"
   d="        M35.6,19.4c0.2,0.1,0.5,0.5,0.7,0.7"
   id="path758" /></g><g
   id="path658"
   nodetypes="cc"><path
   i:knockout="Off"
   opacity="0.4408"
   fill="none"
   stroke="#FF0000"
   stroke-width="0.2635"
   stroke-linecap="round"
   stroke-linejoin="round"
   d="        M32.1,24.4c0.3,0.3,0.5,0.5,0.5,0.5"
   id="path760" /></g><g
   id="path659"
   nodetypes="cc"><path
   i:knockout="Off"
   opacity="0.4408"
   fill="none"
   stroke="#FF0000"
   stroke-width="0.2635"
   stroke-linecap="round"
   stroke-linejoin="round"
   d="        M33.2,22.5c0.2,0.1,0.5,0.5,0.7,0.7"
   id="path762" /></g><g
   id="path660"
   nodetypes="cc"><path
   i:knockout="Off"
   opacity="0.4408"
   fill="none"
   stroke="#FF0000"
   stroke-width="0.2635"
   stroke-linecap="round"
   stroke-linejoin="round"
   d="        M29.6,27.8c0.4,0.3,0.5,0.5,0.5,0.5"
   id="path764" /></g><g
   id="path661"
   nodetypes="cc"><path
   i:knockout="Off"
   opacity="0.4408"
   fill="none"
   stroke="#FF0000"
   stroke-width="0.2635"
   stroke-linecap="round"
   stroke-linejoin="round"
   d="        M30.7,25.9c0.2,0.1,0.5,0.5,0.7,0.7"
   id="path766" /></g><g
   id="path662_1_"
   nodetypes="cc"><path
   i:knockout="Off"
   opacity="0.4408"
   fill="none"
   stroke="#FF0000"
   stroke-width="0.2635"
   stroke-linecap="round"
   stroke-linejoin="round"
   d="        M27.2,31c0.3,0.3,0.5,0.5,0.5,0.5"
   id="path768" /></g><g
   id="path663"
   nodetypes="cc"><path
   i:knockout="Off"
   opacity="0.4408"
   fill="none"
   stroke="#FF0000"
   stroke-width="0.2635"
   stroke-linecap="round"
   stroke-linejoin="round"
   d="        M28.3,29.1c0.2,0.1,0.5,0.5,0.7,0.7"
   id="path770" /></g><g
   id="path666"
   nodetypes="cc"><path
   i:knockout="Off"
   opacity="0.4408"
   fill="none"
   stroke="#FF0000"
   stroke-width="0.2635"
   stroke-linecap="round"
   stroke-linejoin="round"
   d="        M41.8,11.5c0.3,0.3,0.5,0.5,0.5,0.5"
   id="path772" /></g><g
   id="path667_1_"
   nodetypes="cc"><path
   i:knockout="Off"
   opacity="0.4408"
   fill="none"
   stroke="#FF0000"
   stroke-width="0.2635"
   stroke-linecap="round"
   stroke-linejoin="round"
   d="        M42.9,9.6c0.2,0.1,0.5,0.5,0.7,0.7"
   id="path774" /></g><g
   id="path668"
   nodetypes="cc"><path
   i:knockout="Off"
   opacity="0.4408"
   fill="none"
   stroke="#FF0000"
   stroke-width="0.2635"
   stroke-linecap="round"
   stroke-linejoin="round"
   d="        M39.3,14.9c0.4,0.3,0.5,0.5,0.5,0.5"
   id="path776" /></g><g
   id="path669_1_"
   nodetypes="cc"><path
   i:knockout="Off"
   opacity="0.4408"
   fill="none"
   stroke="#FF0000"
   stroke-width="0.2635"
   stroke-linecap="round"
   stroke-linejoin="round"
   d="        M40.4,13c0.2,0.1,0.5,0.5,0.7,0.7"
   id="path778" /></g><g
   id="path670"
   nodetypes="cc"><path
   i:knockout="Off"
   opacity="0.4408"
   fill="none"
   stroke="#FF0000"
   stroke-width="0.2635"
   stroke-linecap="round"
   stroke-linejoin="round"
   d="        M36.9,18.1c0.3,0.3,0.5,0.5,0.5,0.5"
   id="path780" /></g><g
   id="path671"
   nodetypes="cc"><path
   i:knockout="Off"
   opacity="0.4408"
   fill="none"
   stroke="#FF0000"
   stroke-width="0.2635"
   stroke-linecap="round"
   stroke-linejoin="round"
   d="        M38,16.2c0.2,0.1,0.5,0.5,0.7,0.7"
   id="path782" /></g><linearGradient
   id="path679_2_"
   gradientUnits="userSpaceOnUse"
   x1="-169.7075"
   y1="427.3701"
   x2="-169.7016"
   y2="427.2852"
   gradientTransform="matrix(171.3485 0 0 -217.4326 29115.332 92934.5938)"><stop
   offset="0"
   style="stop-color:#FFFFFF"
   id="stop784" /><stop
   offset="1"
   style="stop-color:#FFFFFF"
   id="stop785" /><a:midPointStop
   offset="0"
   style="stop-color:#FFFFFF"
   id="midPointStop786" /><a:midPointStop
   offset="0.5"
   style="stop-color:#FFFFFF"
   id="midPointStop787" /><a:midPointStop
   offset="1"
   style="stop-color:#FFFFFF"
   id="midPointStop788" /></linearGradient><path
   id="path679_1_"
   nodetypes="cccccccc"
   opacity="0.25"
   fill="url(#path679_2_)"
   stroke="#000000"
   stroke-width="0.4573"
   d="       M42.9,7.7c-0.7,1-17,22.4-17.3,22.8c0.8,0.6,1.2,1,1.9,1.6L44.8,9.3c0,0,1.5,0,2.3-1c0.8-1.4,0.5-2.5-0.7-3.5       c-1.1-0.9-2.6-0.9-3.4,0C42.5,5.7,42.9,7.5,42.9,7.7z" /></g></g></g></svg>
