<?xml version="1.0" encoding="UTF-8" standalone="no"?>
<!DOCTYPE svg PUBLIC "-//W3C//DTD SVG 20010904//EN"
"http://www.w3.org/TR/2001/REC-SVG-20010904/DTD/svg10.dtd">
<!-- Created with Sodipodi ("http://www.sodipodi.com/") -->
<svg
   xmlns:x="http://ns.adobe.com/Extensibility/1.0/"
   xmlns:i="http://ns.adobe.com/AdobeIllustrator/10.0/"
   xmlns:graph="http://ns.adobe.com/Graphs/1.0/"
   xmlns="http://www.w3.org/2000/svg"
   xmlns:xlink="http://www.w3.org/1999/xlink"
   xmlns:a="http://ns.adobe.com/AdobeSVGViewerExtensions/3.0/"
   xml:space="preserve"
   i:viewOrigin="220 446.5649"
   i:rulerOrigin="0 0"
   i:pageBounds="0 792 612 0"
   width="48"
   height="49"
   viewBox="0 0 48 49"
   overflow="visible"
   enable-background="new 0 0 48 49"
   xmlns:sodipodi="http://sodipodi.sourceforge.net/DTD/sodipodi-0.dtd"
   id="svg602"
   sodipodi:version="0.34"
   sodipodi:docname="C:\msys\home\su_blanc\mldonkey-2.5.12\src\gtk2\rsvg\emoticons\emoticon_girl.svg"><defs
   id="defs664" /><sodipodi:namedview
   id="namedview663" /><g
   id="Layer_1"
   i:layer="yes"
   i:dimmedPercent="50"
   i:rgbTrio="#4F008000FFFF"><g
   id="g606"><g
   id="g607"><radialGradient
   id="path700_1_"
   cx="-219.7617"
   cy="449.3667"
   r="5.666903e-002"
   fx="-219.7617"
   fy="449.3667"
   gradientTransform="matrix(242.9707 0 0 -56.9884 53418.5469 25653.6055)"
   gradientUnits="userSpaceOnUse"><stop
   offset="0"
   style="stop-color:#261700"
   id="stop609" /><stop
   offset="1"
   style="stop-color:#FFFFFF"
   id="stop610" /><a:midPointStop
   offset="0"
   style="stop-color:#261700"
   id="midPointStop611" /><a:midPointStop
   offset="0.5"
   style="stop-color:#261700"
   id="midPointStop612" /><a:midPointStop
   offset="1"
   style="stop-color:#FFFFFF"
   id="midPointStop613" /></radialGradient><path
   id="path700"
   nodetypes="cccccc"
   fill="url(#path700_1_)"
   d="M34.9,41.4c6.1,1.5,7.6,3.1,0.7,5.4       C28.7,49,18.2,49.6,12.2,48c-5.1-1.3-5.7-3-1.3-5.2c3.7,1.2,6.1,1.8,13.1,1.6C29.8,43.9,31.5,43.1,34.9,41.4z" /><path
   id="path651_2_"
   nodetypes="ccccc"
   opacity="0.1"
   fill="none"
   stroke="#000000"
   stroke-width="4"
   d="M19.4,23.3       C17.5,29.8,10.6,36,10.8,43c7.1,2.3,17.8,2.5,24-1.5c0.1-6.7-3.5-12.9-5.9-19C26.6,23.7,22,24.5,19.4,23.3z" /><path
   id="path651_3_"
   nodetypes="ccccc"
   opacity="0.15"
   fill="none"
   stroke="#000000"
   stroke-width="2"
   d="M19.4,23.3       C17.5,29.8,10.6,36,10.8,43c7.1,2.3,17.8,2.5,24-1.5c0.1-6.7-3.5-12.9-5.9-19C26.6,23.7,22,24.5,19.4,23.3z" /><path
   id="path651_4_"
   nodetypes="ccccc"
   opacity="0.2"
   fill="none"
   stroke="#000000"
   d="M19.4,23.3       C17.5,29.8,10.6,36,10.8,43c7.1,2.3,17.8,2.5,24-1.5c0.1-6.7-3.5-12.9-5.9-19C26.6,23.7,22,24.5,19.4,23.3z" /><g
   id="path658"
   nodetypes="ccscc"><path
   i:knockout="Off"
   opacity="4.000000e-002"
   fill="none"
   stroke="#000000"
   stroke-width="1.0823"
   stroke-linejoin="round"
   d="        M25.3,7.2c-7.4,1.6-6,18.9-12.8,18.7c-3.4-17,1.6-23,8.7-24.6c5.6-1.2,14.9,4.2,12.7,14.1C29.7,14.9,34.7,4.6,25.3,7.2"
   id="path619" /></g><g
   id="path657"
   nodetypes="ccscc"><path
   i:knockout="Off"
   opacity="4.000000e-002"
   fill="none"
   stroke="#000000"
   stroke-width="1.3144"
   stroke-linejoin="round"
   d="        M25.3,7.2c-7.4,1.6-6,18.9-12.8,18.7c-3.4-17,1.6-23,8.7-24.6c5.6-1.2,14.9,4.2,12.7,14.1C29.7,14.9,34.7,4.6,25.3,7.2"
   id="path621" /></g><g
   id="path656"
   nodetypes="ccscc"><path
   i:knockout="Off"
   opacity="4.000000e-002"
   fill="none"
   stroke="#000000"
   stroke-width="1.7784"
   stroke-linejoin="round"
   d="        M25.3,7.2c-7.4,1.6-6,18.9-12.8,18.7c-3.4-17,1.6-23,8.7-24.6c5.6-1.2,14.9,4.2,12.7,14.1C29.7,14.9,34.7,4.6,25.3,7.2"
   id="path623" /></g><g
   id="path655"
   nodetypes="ccscc"><path
   i:knockout="Off"
   opacity="4.000000e-002"
   fill="none"
   stroke="#000000"
   stroke-width="2.3254"
   stroke-linejoin="round"
   d="        M25.3,7.2c-7.4,1.6-6,18.9-12.8,18.7c-3.4-17,1.6-23,8.7-24.6c5.6-1.2,14.9,4.2,12.7,14.1C29.7,14.9,34.7,4.6,25.3,7.2"
   id="path625" /></g><linearGradient
   id="path648_1_"
   gradientUnits="userSpaceOnUse"
   x1="-219.8706"
   y1="446.7554"
   x2="-219.7715"
   y2="446.7236"
   gradientTransform="matrix(181.3358 0 0 -166.9923 39880.9063 74634.3828)"><stop
   offset="0"
   style="stop-color:#FF3AAF"
   id="stop627" /><stop
   offset="1"
   style="stop-color:#E7BAE7"
   id="stop628" /><a:midPointStop
   offset="0"
   style="stop-color:#FF3AAF"
   id="midPointStop629" /><a:midPointStop
   offset="0.5"
   style="stop-color:#FF3AAF"
   id="midPointStop630" /><a:midPointStop
   offset="1"
   style="stop-color:#E7BAE7"
   id="midPointStop631" /></linearGradient><path
   id="path648"
   nodetypes="ccccc"
   fill="url(#path648_1_)"
   d="M19.4,23.2c-1.9,6.5-8.7,12.7-8.6,19.7       c7.1,2.3,17.8,2.5,24-1.5c0.1-6.7-3.5-12.9-5.9-19C26.6,23.6,21.9,24.5,19.4,23.2z" /><linearGradient
   id="path651_1_"
   gradientUnits="userSpaceOnUse"
   x1="-219.7275"
   y1="446.7534"
   x2="-219.8424"
   y2="446.7189"
   gradientTransform="matrix(181.3356 0 0 -166.9923 39880.8008 74634.3828)"><stop
   offset="0"
   style="stop-color:#FF3AAF"
   id="stop634" /><stop
   offset="1"
   style="stop-color:#E7BAE7"
   id="stop635" /><a:midPointStop
   offset="0"
   style="stop-color:#FF3AAF"
   id="midPointStop636" /><a:midPointStop
   offset="0.5"
   style="stop-color:#FF3AAF"
   id="midPointStop637" /><a:midPointStop
   offset="1"
   style="stop-color:#E7BAE7"
   id="midPointStop638" /></linearGradient><path
   id="path651"
   nodetypes="ccccc"
   fill="url(#path651_1_)"
   stroke="#000000"
   stroke-width="0.1326"
   d="M19.4,23.2       c-1.9,6.5-8.8,12.7-8.6,19.7c7.1,2.3,17.8,2.5,24-1.5c0.1-6.7-3.5-12.9-5.9-19C26.6,23.6,22,24.5,19.4,23.2z" /><linearGradient
   id="path636_1_"
   gradientUnits="userSpaceOnUse"
   x1="-219.8413"
   y1="445.8403"
   x2="-219.8417"
   y2="445.9193"
   gradientTransform="matrix(161.2655 0 0 -170.8616 35476.9023 76205.7813)"><stop
   offset="0"
   style="stop-color:#EB852F"
   id="stop641" /><stop
   offset="1"
   style="stop-color:#FFFF00"
   id="stop642" /><a:midPointStop
   offset="0"
   style="stop-color:#EB852F"
   id="midPointStop643" /><a:midPointStop
   offset="0.5"
   style="stop-color:#EB852F"
   id="midPointStop644" /><a:midPointStop
   offset="1"
   style="stop-color:#FFFF00"
   id="midPointStop645" /></linearGradient><path
   id="path636"
   nodetypes="ccccc"
   fill="url(#path636_1_)"
   d="M13,14c0-6.2,4.8-11.2,10.7-11.2       c5.9,0,11,4.7,11,10.8c0,6.2-5.1,11.5-11,11.5C17.8,25.2,13,20.2,13,14z" /><linearGradient
   id="path653_1_"
   gradientUnits="userSpaceOnUse"
   x1="-219.8511"
   y1="446.0142"
   x2="-219.7654"
   y2="445.8345"
   gradientTransform="matrix(172.2966 0 0 -186.6928 37896.8242 83271.9922)"><stop
   offset="0"
   style="stop-color:#CCA277"
   id="stop648" /><stop
   offset="1"
   style="stop-color:#E7E700"
   id="stop649" /><a:midPointStop
   offset="0"
   style="stop-color:#CCA277"
   id="midPointStop650" /><a:midPointStop
   offset="0.5"
   style="stop-color:#CCA277"
   id="midPointStop651" /><a:midPointStop
   offset="1"
   style="stop-color:#E7E700"
   id="midPointStop652" /></linearGradient><path
   id="path653"
   nodetypes="ccscc"
   fill="url(#path653_1_)"
   d="M25.3,7.2c-7.4,1.6-6,18.9-12.8,18.7       c-3.4-17,1.6-23,8.7-24.6c5.6-1.2,14.9,4.2,12.7,14.1C29.7,14.9,34.7,4.6,25.3,7.2" /><radialGradient
   id="path587_1_"
   cx="-220.1045"
   cy="444.6948"
   r="0.1622"
   fx="-220.1045"
   fy="444.6948"
   gradientTransform="matrix(91.706 0 0 -52.0368 20208.1445 23142.2129)"
   gradientUnits="userSpaceOnUse"><stop
   offset="0"
   style="stop-color:#FFFFFF"
   id="stop655" /><stop
   offset="1"
   style="stop-color:#F5FFFF"
   id="stop656" /><a:midPointStop
   offset="0"
   style="stop-color:#FFFFFF"
   id="midPointStop657" /><a:midPointStop
   offset="0.5"
   style="stop-color:#FFFFFF"
   id="midPointStop658" /><a:midPointStop
   offset="1"
   style="stop-color:#F5FFFF"
   id="midPointStop659" /></radialGradient><path
   id="path587"
   nodetypes="ccccc"
   opacity="0.4"
   fill="url(#path587_1_)"
   d="M22.9,8.1C17.6,8,16.5,5.5,17,4.3       c0.6-1.3,2.3-3.1,5.7-3.2c3.3-0.1,5.4,1.4,6.2,3C29.4,5.2,28.1,8,22.9,8.1z" /><path
   id="path652"
   nodetypes="cc"
   fill="none"
   stroke="#FF0000"
   stroke-width="2.4034"
   stroke-linecap="round"
   stroke-dasharray="2.4034 4.8067"
   stroke-dashoffset="2.163"
   d="       M24.2,26.4c1.3,9-3.4,13.2-1.4,18.5" /></g><rect
   y="1"
   i:knockout="Off"
   fill="none"
   width="48"
   height="48"
   id="rect662" /></g></g></svg>
