<?xml version="1.0" encoding="UTF-8" standalone="no"?>
<!DOCTYPE svg PUBLIC "-//W3C//DTD SVG 20010904//EN"
"http://www.w3.org/TR/2001/REC-SVG-20010904/DTD/svg10.dtd">
<!-- Created with Sodipodi ("http://www.sodipodi.com/") -->
<svg
   xmlns:x="http://ns.adobe.com/Extensibility/1.0/"
   xmlns:i="http://ns.adobe.com/AdobeIllustrator/10.0/"
   xmlns:graph="http://ns.adobe.com/Graphs/1.0/"
   xmlns="http://www.w3.org/2000/svg"
   xmlns:xlink="http://www.w3.org/1999/xlink"
   xmlns:a="http://ns.adobe.com/AdobeSVGViewerExtensions/3.0/"
   xml:space="preserve"
   i:viewOrigin="154.6675 497.6973"
   i:rulerOrigin="0 0"
   i:pageBounds="0 792 612 0"
   width="53.2"
   height="48"
   viewBox="0 0 53.2 48"
   overflow="visible"
   enable-background="new 0 0 53.2 48"
   xmlns:sodipodi="http://sodipodi.sourceforge.net/DTD/sodipodi-0.dtd"
   id="svg602"
   sodipodi:version="0.34"
   sodipodi:docname="C:\msys\home\su_blanc\mldonkey-2.5.12\src\gtk2\rsvg\emoticons\emoticon_ulove.svg"><defs
   id="defs698" /><sodipodi:namedview
   id="namedview697" /><g
   id="Layer_1"
   i:layer="yes"
   i:dimmedPercent="50"
   i:rgbTrio="#4F008000FFFF"><g
   id="g606"><g
   id="path603"
   nodetypes="cccc"><polyline
   i:knockout="Off"
   opacity="4.270000e-002"
   fill="none"
   stroke="#001212"
   stroke-width="3.47"
   stroke-linecap="round"
   stroke-linejoin="round"
   points="       20.5,45 26.3,27.5 19.2,22.7 19.7,10.9 "
   id="polyline608" /></g><g
   id="path602"
   nodetypes="cccc"><polyline
   i:knockout="Off"
   opacity="4.270000e-002"
   fill="none"
   stroke="#001212"
   stroke-width="3.94"
   stroke-linecap="round"
   stroke-linejoin="round"
   points="       20.5,45 26.3,27.5 19.2,22.7 19.7,10.9 "
   id="polyline610" /></g><g
   id="path591"
   nodetypes="csscssc"><path
   i:knockout="Off"
   opacity="3.000000e-002"
   fill="none"
   stroke="#000000"
   stroke-width="3.68"
   stroke-linejoin="round"
   d="       M19.9,11.7c2-4,6.1-6,10.8-5.7c5,0.3,10.6,6.5,9.3,13.7c-1.3,7-8,19.7-19.4,25c-1.4-7-10.2-11.1-15.1-15.9       C0.9,24,2.5,16.1,5.3,12.9C8.1,9.9,14.8,7.4,19.9,11.7z"
   id="path612" /></g><g
   id="path604"
   nodetypes="cccc"><polyline
   i:knockout="Off"
   opacity="4.270000e-002"
   fill="none"
   stroke="#001212"
   stroke-width="3.04"
   stroke-linecap="round"
   stroke-linejoin="round"
   points="       20.5,45 26.3,27.5 19.2,22.7 19.7,10.9 "
   id="polyline614" /></g><g
   id="path595"
   nodetypes="csscssc"><path
   i:knockout="Off"
   opacity="3.000000e-002"
   fill="none"
   stroke="#000000"
   stroke-width="5.27"
   stroke-linejoin="round"
   d="       M19.9,11.7c2-4,6.1-6,10.8-5.7c5,0.3,10.6,6.5,9.3,13.7c-1.3,7-8,19.7-19.4,25c-1.4-7-10.2-11.1-15.1-15.9       C0.9,24,2.5,16.1,5.3,12.9C8.1,9.9,14.8,7.4,19.9,11.7z"
   id="path616" /></g><linearGradient
   id="path596_1_"
   gradientUnits="userSpaceOnUse"
   x1="-154.3125"
   y1="497.3994"
   x2="-154.2926"
   y2="497.3186"
   gradientTransform="matrix(470.1057 0 0 -483.0744 72562.6953 240293.875)"><stop
   offset="0"
   style="stop-color:#FF0000"
   id="stop618" /><stop
   offset="1"
   style="stop-color:#C50000"
   id="stop619" /><a:midPointStop
   offset="0"
   style="stop-color:#FF0000"
   id="midPointStop620" /><a:midPointStop
   offset="0.5"
   style="stop-color:#FF0000"
   id="midPointStop621" /><a:midPointStop
   offset="1"
   style="stop-color:#C50000"
   id="midPointStop622" /></linearGradient><path
   id="path596"
   nodetypes="csscssc"
   fill="url(#path596_1_)"
   stroke="#C90000"
   stroke-width="1.55"
   d="M19.9,11.7      c2-4,6.1-6,10.8-5.7c5,0.3,10.6,6.5,9.3,13.7c-1.3,7-8,19.7-19.4,25c-1.4-7-10.2-11.1-15.1-15.9C0.9,24,2.5,16.1,5.3,12.9      C8.1,9.9,14.8,7.4,19.9,11.7z" /><radialGradient
   id="path597_1_"
   cx="14.7822"
   cy="11.792"
   r="13.0348"
   fx="14.7822"
   fy="11.792"
   gradientUnits="userSpaceOnUse"><stop
   offset="0"
   style="stop-color:#FFFFFF"
   id="stop625" /><stop
   offset="1"
   style="stop-color:#FF1E00"
   id="stop626" /><a:midPointStop
   offset="0"
   style="stop-color:#FFFFFF"
   id="midPointStop627" /><a:midPointStop
   offset="0.5"
   style="stop-color:#FFFFFF"
   id="midPointStop628" /><a:midPointStop
   offset="1"
   style="stop-color:#FF1E00"
   id="midPointStop629" /></radialGradient><path
   id="path597"
   nodetypes="cscscsc"
   opacity="0.5"
   fill="url(#path597_1_)"
   d="M19.9,11.7c2-4,6.1-6,10.8-5.7      c5,0.3,10.6,6.5,9.3,13.7c-5-3.4-11-3.3-19-1.6c-7.2,1.5-12.8,5.4-15.5,10.7C0.9,24,2.5,16.1,5.3,12.9      C8.1,9.9,14.8,7.4,19.9,11.7z" /><path
   id="path600"
   nodetypes="ccccccccc"
   fill="#FFFFFF"
   d="M19.9,10l-0.5,12.7l7,4.9l-5.7,17.1l-0.2,0.9l16.7-4.7      c0,0,18.7-29.2-4.9-38.4L19.1,4.3L19.9,10z" /><g
   id="path578"
   nodetypes="csscssc"><linearGradient
   id="XMLID_1_"
   gradientUnits="userSpaceOnUse"
   x1="-155.2134"
   y1="497.8154"
   x2="-155.1934"
   y2="497.7343"
   gradientTransform="matrix(300.9082 0 0 -483.0743 46745.9805 240512.6094)"><stop
   offset="0"
   style="stop-color:#FF0000"
   id="stop634" /><stop
   offset="1"
   style="stop-color:#C50000"
   id="stop635" /><a:midPointStop
   offset="0"
   style="stop-color:#FF0000"
   id="midPointStop636" /><a:midPointStop
   offset="0.5"
   style="stop-color:#FF0000"
   id="midPointStop637" /><a:midPointStop
   offset="1"
   style="stop-color:#C50000"
   id="midPointStop638" /></linearGradient><path
   i:knockout="Off"
   fill="url(#XMLID_1_)"
   d="M30.2,10.3c2-4,6.1-6,10.8-5.7c5,0.3,10.6,6.5,9.3,13.7c-1.3,7-8,19.7-19.4,25       c-1.4-7-2.1-14.4-3.5-21C26.4,15.3,27.7,22,27,18C26.6,14,25.1,6,30.2,10.3z"
   id="path639" /><path
   i:knockout="Off"
   opacity="3.000000e-002"
   fill="none"
   stroke="#000000"
   stroke-width="4.67"
   stroke-linejoin="round"
   d="       M30.2,10.3c2-4,6.1-6,10.8-5.7c5,0.3,10.6,6.5,9.3,13.7c-1.3,7-8,19.7-19.4,25c-1.4-7-2.1-14.4-3.5-21C26.4,15.3,27.7,22,27,18       C26.6,14,25.1,6,30.2,10.3z"
   id="path640" /></g><g
   id="path577"
   nodetypes="csscssc"><path
   i:knockout="Off"
   opacity="3.000000e-002"
   fill="none"
   stroke="#000000"
   stroke-width="5.27"
   stroke-linejoin="round"
   d="       M30.2,10.3c2-4,6.1-6,10.8-5.7c5,0.3,10.6,6.5,9.3,13.7c-1.3,7-8,19.7-19.4,25c-1.4-7-2.6-17-3.7-23.7c-0.6-5.2,0.5-5.8,3.3-9       C33.2,7.4,25.1,6,30.2,10.3z"
   id="path642" /></g><linearGradient
   id="path564_1_"
   gradientUnits="userSpaceOnUse"
   x1="-155.0317"
   y1="497.3682"
   x2="-155.0118"
   y2="497.2871"
   gradientTransform="matrix(303.3149 0 0 -483.0743 47060.8594 240276.8594)"><stop
   offset="0"
   style="stop-color:#FF1E00"
   id="stop644" /><stop
   offset="1"
   style="stop-color:#C50000"
   id="stop645" /><a:midPointStop
   offset="0"
   style="stop-color:#FF1E00"
   id="midPointStop646" /><a:midPointStop
   offset="0.5"
   style="stop-color:#FF1E00"
   id="midPointStop647" /><a:midPointStop
   offset="1"
   style="stop-color:#C50000"
   id="midPointStop648" /></linearGradient><path
   id="path564"
   nodetypes="csscssc"
   fill="url(#path564_1_)"
   stroke="#C90000"
   stroke-width="1.55"
   d="M30.2,10.3      c2-4,6.1-6,10.8-5.7c5,0.3,10.6,6.5,9.3,13.7c-1.3,7-8,19.7-19.4,25c-1.4-7-3-13.1-3.5-19.9c-0.1-5.2-2.8-2.6,0-5.8      C30.3,14.5,25.1,6,30.2,10.3z" /><radialGradient
   id="path570_1_"
   cx="-155.0361"
   cy="497.0352"
   r="3.974342e-002"
   fx="-155.0361"
   fy="497.0352"
   gradientTransform="matrix(299.5481 0 0 -230.4812 46481.9102 114561.9844)"
   gradientUnits="userSpaceOnUse"><stop
   offset="0"
   style="stop-color:#FFFFFF"
   id="stop651" /><stop
   offset="0.23"
   style="stop-color:#FFFCFC"
   id="stop652" /><stop
   offset="0.3664"
   style="stop-color:#FFF4F4"
   id="stop653" /><stop
   offset="0.4783"
   style="stop-color:#FFE6E6"
   id="stop654" /><stop
   offset="0.5771"
   style="stop-color:#FFD2D2"
   id="stop655" /><stop
   offset="0.6672"
   style="stop-color:#FFB8B8"
   id="stop656" /><stop
   offset="0.7509"
   style="stop-color:#FF9797"
   id="stop657" /><stop
   offset="0.8298"
   style="stop-color:#FF7171"
   id="stop658" /><stop
   offset="0.9048"
   style="stop-color:#FF4545"
   id="stop659" /><stop
   offset="0.9742"
   style="stop-color:#FF1414"
   id="stop660" /><stop
   offset="1"
   style="stop-color:#FF0000"
   id="stop661" /><a:midPointStop
   offset="0"
   style="stop-color:#FFFFFF"
   id="midPointStop662" /><a:midPointStop
   offset="0.8023"
   style="stop-color:#FFFFFF"
   id="midPointStop663" /><a:midPointStop
   offset="1"
   style="stop-color:#FF0000"
   id="midPointStop664" /></radialGradient><path
   id="path570"
   nodetypes="cscscsc"
   opacity="0.31"
   fill="url(#path570_1_)"
   d="M30.2,10.3c2-4,6.1-6,10.8-5.7      c5,0.3,10.6,6.5,9.3,13.7c-5-3.4-11-3.3-19-1.6c-7.2,1.5-1.1,1-3.9,6.3c-0.3-6-2.3-2.8,0.6-6.1C30.8,13.9,25.1,6,30.2,10.3z" /><linearGradient
   id="path575_1_"
   gradientUnits="userSpaceOnUse"
   x1="38.4907"
   y1="4.6777"
   x2="35.5307"
   y2="41.398"><stop
   offset="0"
   style="stop-color:#FFFFFF"
   id="stop667" /><stop
   offset="1"
   style="stop-color:#FF790A"
   id="stop668" /><a:midPointStop
   offset="0"
   style="stop-color:#FFFFFF"
   id="midPointStop669" /><a:midPointStop
   offset="0.5"
   style="stop-color:#FFFFFF"
   id="midPointStop670" /><a:midPointStop
   offset="1"
   style="stop-color:#FF790A"
   id="midPointStop671" /></linearGradient><path
   id="path575"
   nodetypes="csscssc"
   opacity="0.15"
   fill="url(#path575_1_)"
   d="M30.2,10.3c2-4,6.1-6,10.8-5.7      c5,0.3,10.6,6.5,9.3,13.7c-1.3,7-8,19.7-19.4,25c-1.4-7,1.4-14.7-3.5-19.4c-4.7-4.7-3.6-4.7-0.8-8C29.4,12.9,25.1,6,30.2,10.3z" /><path
   id="path599"
   nodetypes="ccccccccccc"
   fill="#FFFFFF"
   d="M30.1,7.4l-0.5,12.7l7,4.9l-6.2,18.5l-0.2,1.1l-5.1-2.3      c2.9-9.7,3.2-9.4-4.4-27.3c5.1-10.8-0.9-5,1.4-6c2.6-0.1,3,1.6,2.4-0.4l1.8-2.4L30.1,7.4z" /><g
   id="path601"
   nodetypes="cccc"><polyline
   i:knockout="Off"
   opacity="0.939"
   fill="none"
   stroke="#BF1212"
   stroke-width="0.8"
   stroke-linecap="round"
   stroke-linejoin="round"
   points="       20.5,45 26.3,27.5 19.2,22.7 19.7,10.9 "
   id="polyline675" /></g><g
   id="path605"
   nodetypes="cccc"><polyline
   i:knockout="Off"
   opacity="4.270000e-002"
   fill="none"
   stroke="#001212"
   stroke-width="3.04"
   stroke-linecap="round"
   stroke-linejoin="round"
   points="       29.6,43.4 35.4,25.9 28.3,21.1 28.8,9.2 "
   id="polyline677" /></g><g
   id="path606"
   nodetypes="cccc"><polyline
   i:knockout="Off"
   opacity="4.270000e-002"
   fill="none"
   stroke="#001212"
   stroke-width="1.7"
   stroke-linecap="round"
   stroke-linejoin="round"
   points="       30,42.9 35.9,25.4 28.8,20.6 29.3,8.8 "
   id="polyline679" /></g><g
   id="path607"
   nodetypes="cccc"><polyline
   i:knockout="Off"
   opacity="4.270000e-002"
   fill="none"
   stroke="#001212"
   stroke-width="0.8"
   stroke-linecap="round"
   stroke-linejoin="round"
   points="       21.1,44.6 27,27 19.9,22.3 20.4,10.4 "
   id="polyline681" /></g><g
   id="path608"
   nodetypes="cccc"><polyline
   i:knockout="Off"
   opacity="4.270000e-002"
   fill="none"
   stroke="#001212"
   stroke-width="8.000000e-002"
   stroke-linecap="round"
   stroke-linejoin="round"
   points="       30.7,42.5 36.5,24.9 29.5,20.2 29.9,8.3 "
   id="polyline683" /></g><g
   id="path609"
   nodetypes="cccc"><polyline
   i:knockout="Off"
   opacity="4.270000e-002"
   fill="none"
   stroke="#001212"
   stroke-width="8.000000e-002"
   stroke-linecap="round"
   stroke-linejoin="round"
   points="       21,45 26.9,27.5 19.8,22.7 20.3,10.9 "
   id="polyline685" /></g><g
   id="path610"
   nodetypes="cccc"><polyline
   i:knockout="Off"
   opacity="4.270000e-002"
   fill="none"
   stroke="#001212"
   stroke-width="8.000000e-002"
   stroke-linecap="round"
   stroke-linejoin="round"
   points="       30.7,42.5 36.5,24.9 29.5,20.2 29.9,8.3 "
   id="polyline687" /></g><g
   id="path611"
   nodetypes="cccc"><polyline
   i:knockout="Off"
   opacity="4.270000e-002"
   fill="none"
   stroke="#001212"
   stroke-width="1.7"
   stroke-linecap="round"
   stroke-linejoin="round"
   points="       21.4,44.5 27.3,26.9 20.2,22.2 20.7,10.3 "
   id="polyline689" /></g><g
   id="g690"
   nodetypes="cccc"><polyline
   i:knockout="Off"
   opacity="4.270000e-002"
   fill="none"
   stroke="#001212"
   stroke-width="3.04"
   stroke-linecap="round"
   stroke-linejoin="round"
   points="       22.5,44 28.3,26.5 21.2,21.7 21.7,9.8 "
   id="polyline691" /></g><g
   id="path613"
   nodetypes="cccc"><polyline
   i:knockout="Off"
   opacity="4.270000e-002"
   fill="none"
   stroke="#001212"
   stroke-width="1.7"
   stroke-linecap="round"
   stroke-linejoin="round"
   points="       21.4,44.5 27.3,26.9 20.2,22.2 20.7,10.3 "
   id="polyline693" /></g><g
   id="path590"
   nodetypes="cccc"><polyline
   i:knockout="Off"
   opacity="0.939"
   fill="none"
   stroke="#BF1212"
   stroke-width="0.8"
   stroke-linecap="round"
   stroke-linejoin="round"
   points="       30.9,43.6 36.8,25.2 29.7,20.4 30,9.5 "
   id="polyline695" /></g></g><rect
   x="2.6"
   i:knockout="Off"
   fill="none"
   width="48"
   height="48"
   id="rect696" /></g></svg>
