<?xml version="1.0" encoding="UTF-8" standalone="no"?>
<!DOCTYPE svg PUBLIC "-//W3C//DTD SVG 20010904//EN"
"http://www.w3.org/TR/2001/REC-SVG-20010904/DTD/svg10.dtd">
<!-- Created with Sodipodi ("http://www.sodipodi.com/") -->
<svg
   xmlns:x="http://ns.adobe.com/Extensibility/1.0/"
   xmlns:i="http://ns.adobe.com/AdobeIllustrator/10.0/"
   xmlns:graph="http://ns.adobe.com/Graphs/1.0/"
   xmlns="http://www.w3.org/2000/svg"
   xmlns:xlink="http://www.w3.org/1999/xlink"
   xmlns:a="http://ns.adobe.com/AdobeSVGViewerExtensions/3.0/"
   xml:space="preserve"
   i:viewOrigin="244.4067 412.9736"
   i:rulerOrigin="0 0"
   i:pageBounds="0 792 612 0"
   width="48"
   height="50.8"
   viewBox="0 0 48 50.8"
   overflow="visible"
   enable-background="new 0 0 48 50.8"
   xmlns:sodipodi="http://sodipodi.sourceforge.net/DTD/sodipodi-0.dtd"
   id="svg602"
   sodipodi:version="0.34"
   sodipodi:docname="C:\msys\home\su_blanc\mldonkey-2.5.12\src\gtk2\rsvg\emoticons\emoticon_bowl.svg"><defs
   id="defs717" /><sodipodi:namedview
   id="namedview716" /><g
   id="Layer_1"
   i:knockout="Off"
   i:layer="yes"
   i:dimmedPercent="50"
   i:rgbTrio="#4F008000FFFF"><g
   id="g607"><g
   id="path647"
   i:knockout="Off"><path
   id="path607"
   i:isolated="yes"
   i:knockout="Off"
   opacity="3.790000e-002"
   enable-background="new    "
   d="M18.2,23.9       c-2.7-0.4-6.2-0.4-8.2,1.2c-3.1,2.5-7.5,7.6-7,11c0.7,4,6.3,9.1,10.6,11.2c4.3,2.1,11.1,3.2,15.3,1.7c3.6-1.3,6-6.5,8.1-10.2       c1.6-2.9,4.8-8.1,2.9-9.6C35.6,25.7,25.4,24.8,18.2,23.9z" /></g><g
   id="path646"
   i:knockout="Off"><path
   id="path609"
   i:isolated="yes"
   i:knockout="Off"
   opacity="3.790000e-002"
   enable-background="new    "
   d="M19.6,26.3       c-2.2-0.3-5-0.3-6.6,1c-2.5,2-6.1,6.2-5.6,9c0.5,3.3,5.1,7.4,8.6,9.2c3.5,1.8,8.9,2.6,12.3,1.4c2.9-1.1,4.8-5.3,6.5-8.3       c1.3-2.4,3.9-6.6,2.3-7.9C33.5,27.8,25.4,27.1,19.6,26.3z" /></g><g
   id="path645"
   i:knockout="Off"><path
   id="path611"
   i:isolated="yes"
   i:knockout="Off"
   opacity="3.790000e-002"
   enable-background="new    "
   d="M21,25.5       c-2-0.3-4.6-0.3-6.1,1c-2.3,2-5.6,6-5.2,8.7c0.5,3.2,4.7,7.2,7.9,8.9c3.2,1.7,8.2,2.5,11.3,1.3c2.6-1,4.5-5.1,6-8.1       c1.2-2.3,3.6-6.4,2.1-7.6C33.9,27,26.4,26.3,21,25.5z" /></g><g
   id="path644"
   i:knockout="Off"><path
   id="path613"
   i:isolated="yes"
   i:knockout="Off"
   opacity="3.790000e-002"
   enable-background="new    "
   d="M20,25.6       c-2.6-0.3-6-0.3-7.9,1.1c-3,2.3-7.2,7-6.7,10.1c0.6,3.7,6.1,8.4,10.2,10.3c4.2,2,10.6,3,14.7,1.5c3.4-1.2,5.8-6,7.8-9.4       c1.5-2.7,4.6-7.5,2.8-8.9C36.7,27.2,27,26.4,20,25.6z" /></g><g
   id="path643"
   i:knockout="Off"><path
   id="path615"
   i:isolated="yes"
   i:knockout="Off"
   opacity="3.790000e-002"
   enable-background="new    "
   d="M18.8,24.9       c-2.7-0.4-6.2-0.4-8.2,1.2c-3.1,2.5-7.5,7.6-7,11c0.7,4,6.3,9.1,10.6,11.2c4.3,2.1,11.1,3.2,15.3,1.7c3.6-1.3,6-6.5,8.1-10.2       c1.6-2.9,4.8-8.1,2.9-9.6C36.2,26.7,26.1,25.9,18.8,24.9z" /></g><g
   id="path637"
   i:knockout="Off"><path
   id="path617"
   i:isolated="yes"
   i:knockout="Off"
   opacity="3.000000e-002"
   fill="none"
   stroke="#4E4242"
   stroke-width="1.4736"
   stroke-linejoin="round"
   enable-background="new    "
   d="       M29.3,35.5c-2.4,0.3-5.7-1-8.1-2.4c-2.2-1.3-4.1-3.6-5.6-5.7c-1.5-2.1-2.6-4.5-3.3-6.9c-0.5-1.8-0.7-4-0.4-5.8       c0.3-1.9,1.1-4,2.3-5.4c1.6-1.9,3.9-3.8,6.2-4.8c2.9-1.2,6.3-1.7,9.4-1.6c2.9,0.1,6.1,0.7,8.6,1.9c2.2,1.1,4.4,3.1,5.6,5.2       c1,1.8,1.3,4.3,1,6.5c-0.3,3.1-1.4,6.2-2.6,9.1c-0.9,2-2.2,3.8-3.7,5.4c-1.5,1.9-3.9,3.2-6.2,4C31.5,35.4,30.5,35.4,29.3,35.5" /></g><g
   id="path636"
   i:knockout="Off"><path
   id="path619"
   i:isolated="yes"
   i:knockout="Off"
   opacity="3.000000e-002"
   fill="none"
   stroke="#4E4242"
   stroke-width="1.8011"
   stroke-linejoin="round"
   enable-background="new    "
   d="       M29.3,35.5c-2.4,0.3-5.7-1-8.1-2.4c-2.2-1.3-4.1-3.6-5.6-5.7c-1.5-2.1-2.6-4.5-3.3-6.9c-0.5-1.8-0.7-4-0.4-5.8       c0.3-1.9,1.1-4,2.3-5.4c1.6-1.9,3.9-3.8,6.2-4.8c2.9-1.2,6.3-1.7,9.4-1.6c2.9,0.1,6.1,0.7,8.6,1.9c2.2,1.1,4.4,3.1,5.6,5.2       c1,1.8,1.3,4.3,1,6.5c-0.3,3.1-1.4,6.2-2.6,9.1c-0.9,2-2.2,3.8-3.7,5.4c-1.5,1.9-3.9,3.2-6.2,4C31.5,35.4,30.5,35.4,29.3,35.5" /></g><g
   id="path634"
   i:knockout="Off"><path
   id="path621"
   i:isolated="yes"
   i:knockout="Off"
   opacity="3.000000e-002"
   fill="none"
   stroke="#4E4242"
   stroke-width="2.1286"
   stroke-linejoin="round"
   enable-background="new    "
   d="       M29.3,35.5c-2.4,0.3-5.7-1-8.1-2.4c-2.2-1.3-4.1-3.6-5.6-5.7c-1.5-2.1-2.6-4.5-3.3-6.9c-0.5-1.8-0.7-4-0.4-5.8       c0.3-1.9,1.1-4,2.3-5.4c1.6-1.9,3.9-3.8,6.2-4.8c2.9-1.2,6.3-1.7,9.4-1.6c2.9,0.1,6.1,0.7,8.6,1.9c2.2,1.1,4.4,3.1,5.6,5.2       c1,1.8,1.3,4.3,1,6.5c-0.3,3.1-1.4,6.2-2.6,9.1c-0.9,2-2.2,3.8-3.7,5.4c-1.5,1.9-3.9,3.2-6.2,4C31.5,35.4,30.5,35.4,29.3,35.5" /></g><g
   id="path633"
   i:knockout="Off"><path
   id="path623"
   i:isolated="yes"
   i:knockout="Off"
   opacity="3.000000e-002"
   fill="none"
   stroke="#4E4242"
   stroke-width="2.4561"
   stroke-linejoin="round"
   enable-background="new    "
   d="       M29.3,35.5c-2.4,0.3-5.7-1-8.1-2.4c-2.2-1.3-4.1-3.6-5.6-5.7c-1.5-2.1-2.6-4.5-3.3-6.9c-0.5-1.8-0.7-4-0.4-5.8       c0.3-1.9,1.1-4,2.3-5.4c1.6-1.9,3.9-3.8,6.2-4.8c2.9-1.2,6.3-1.7,9.4-1.6c2.9,0.1,6.1,0.7,8.6,1.9c2.2,1.1,4.4,3.1,5.6,5.2       c1,1.8,1.3,4.3,1,6.5c-0.3,3.1-1.4,6.2-2.6,9.1c-0.9,2-2.2,3.8-3.7,5.4c-1.5,1.9-3.9,3.2-6.2,4C31.5,35.4,30.5,35.4,29.3,35.5" /></g><g
   id="path632"
   i:knockout="Off"><path
   id="path625"
   i:isolated="yes"
   i:knockout="Off"
   opacity="3.000000e-002"
   fill="none"
   stroke="#4E4242"
   stroke-width="2.6198"
   stroke-linejoin="round"
   enable-background="new    "
   d="       M29.3,35.5c-2.4,0.3-5.7-1-8.1-2.4c-2.2-1.3-4.1-3.6-5.6-5.7c-1.5-2.1-2.6-4.5-3.3-6.9c-0.5-1.8-0.7-4-0.4-5.8       c0.3-1.9,1.1-4,2.3-5.4c1.6-1.9,3.9-3.8,6.2-4.8c2.9-1.2,6.3-1.7,9.4-1.6c2.9,0.1,6.1,0.7,8.6,1.9c2.2,1.1,4.4,3.1,5.6,5.2       c1,1.8,1.3,4.3,1,6.5c-0.3,3.1-1.4,6.2-2.6,9.1c-0.9,2-2.2,3.8-3.7,5.4c-1.5,1.9-3.9,3.2-6.2,4C31.5,35.4,30.5,35.4,29.3,35.5" /></g><g
   id="path631"
   i:knockout="Off"><path
   id="path627"
   i:isolated="yes"
   i:knockout="Off"
   opacity="3.000000e-002"
   fill="none"
   stroke="#4E4242"
   stroke-width="2.7835"
   stroke-linejoin="round"
   enable-background="new    "
   d="       M29.3,35.5c-2.4,0.3-5.7-1-8.1-2.4c-2.2-1.3-4.1-3.6-5.6-5.7c-1.5-2.1-2.6-4.5-3.3-6.9c-0.5-1.8-0.7-4-0.4-5.8       c0.3-1.9,1.1-4,2.3-5.4c1.6-1.9,3.9-3.8,6.2-4.8c2.9-1.2,6.3-1.7,9.4-1.6c2.9,0.1,6.1,0.7,8.6,1.9c2.2,1.1,4.4,3.1,5.6,5.2       c1,1.8,1.3,4.3,1,6.5c-0.3,3.1-1.4,6.2-2.6,9.1c-0.9,2-2.2,3.8-3.7,5.4c-1.5,1.9-3.9,3.2-6.2,4C31.5,35.4,30.5,35.4,29.3,35.5" /></g><g
   id="path630"
   i:knockout="Off"><path
   id="path629"
   i:isolated="yes"
   i:knockout="Off"
   opacity="3.000000e-002"
   fill="none"
   stroke="#4E4242"
   stroke-width="2.9473"
   stroke-linejoin="round"
   enable-background="new    "
   d="       M29.3,35.5c-2.4,0.3-5.7-1-8.1-2.4c-2.2-1.3-4.1-3.6-5.6-5.7c-1.5-2.1-2.6-4.5-3.3-6.9c-0.5-1.8-0.7-4-0.4-5.8       c0.3-1.9,1.1-4,2.3-5.4c1.6-1.9,3.9-3.8,6.2-4.8c2.9-1.2,6.3-1.7,9.4-1.6c2.9,0.1,6.1,0.7,8.6,1.9c2.2,1.1,4.4,3.1,5.6,5.2       c1,1.8,1.3,4.3,1,6.5c-0.3,3.1-1.4,6.2-2.6,9.1c-0.9,2-2.2,3.8-3.7,5.4c-1.5,1.9-3.9,3.2-6.2,4C31.5,35.4,30.5,35.4,29.3,35.5" /></g><g
   id="g630"
   i:knockout="Off"><path
   id="path635"
   i:isolated="yes"
   i:knockout="Off"
   opacity="3.000000e-002"
   fill="none"
   stroke="#4E4242"
   stroke-width="3.111"
   stroke-linejoin="round"
   enable-background="new    "
   d="       M29.3,35.5c-2.4,0.3-5.7-1-8.1-2.4c-2.2-1.3-4.1-3.6-5.6-5.7c-1.5-2.1-2.6-4.5-3.3-6.9c-0.5-1.8-0.7-4-0.4-5.8       c0.3-1.9,1.1-4,2.3-5.4c1.6-1.9,3.9-3.8,6.2-4.8c2.9-1.2,6.3-1.7,9.4-1.6c2.9,0.1,6.1,0.7,8.6,1.9c2.2,1.1,4.4,3.1,5.6,5.2       c1,1.8,1.3,4.3,1,6.5c-0.3,3.1-1.4,6.2-2.6,9.1c-0.9,2-2.2,3.8-3.7,5.4c-1.5,1.9-3.9,3.2-6.2,4C31.5,35.4,30.5,35.4,29.3,35.5" /></g><g
   id="path628"
   i:knockout="Off"><path
   id="path638"
   i:isolated="yes"
   i:knockout="Off"
   opacity="3.000000e-002"
   fill="none"
   stroke="#4E4242"
   stroke-width="3.2748"
   stroke-linejoin="round"
   enable-background="new    "
   d="       M29.3,35.5c-2.4,0.3-5.7-1-8.1-2.4c-2.2-1.3-4.1-3.6-5.6-5.7c-1.5-2.1-2.6-4.5-3.3-6.9c-0.5-1.8-0.7-4-0.4-5.8       c0.3-1.9,1.1-4,2.3-5.4c1.6-1.9,3.9-3.8,6.2-4.8c2.9-1.2,6.3-1.7,9.4-1.6c2.9,0.1,6.1,0.7,8.6,1.9c2.2,1.1,4.4,3.1,5.6,5.2       c1,1.8,1.3,4.3,1,6.5c-0.3,3.1-1.4,6.2-2.6,9.1c-0.9,2-2.2,3.8-3.7,5.4c-1.5,1.9-3.9,3.2-6.2,4C31.5,35.4,30.5,35.4,29.3,35.5" /></g><g
   id="g639"
   i:knockout="Off"><path
   id="path640"
   i:isolated="yes"
   i:knockout="Off"
   opacity="3.000000e-002"
   fill="none"
   stroke="#4E4242"
   stroke-width="4.0934"
   stroke-linejoin="round"
   enable-background="new    "
   d="       M29.3,35.5c-2.4,0.3-5.7-1-8.1-2.4c-2.2-1.3-4.1-3.6-5.6-5.7c-1.5-2.1-2.6-4.5-3.3-6.9c-0.5-1.8-0.7-4-0.4-5.8       c0.3-1.9,1.1-4,2.3-5.4c1.6-1.9,3.9-3.8,6.2-4.8c2.9-1.2,6.3-1.7,9.4-1.6c2.9,0.1,6.1,0.7,8.6,1.9c2.2,1.1,4.4,3.1,5.6,5.2       c1,1.8,1.3,4.3,1,6.5c-0.3,3.1-1.4,6.2-2.6,9.1c-0.9,2-2.2,3.8-3.7,5.4c-1.5,1.9-3.9,3.2-6.2,4C31.5,35.4,30.5,35.4,29.3,35.5" /></g><g
   id="path626"
   i:knockout="Off"><path
   id="path642"
   i:isolated="yes"
   i:knockout="Off"
   opacity="3.000000e-002"
   fill="none"
   stroke="#4E4242"
   stroke-width="4.9121"
   stroke-linejoin="round"
   enable-background="new    "
   d="       M29.3,35.5c-2.4,0.3-5.7-1-8.1-2.4c-2.2-1.3-4.1-3.6-5.6-5.7c-1.5-2.1-2.6-4.5-3.3-6.9c-0.5-1.8-0.7-4-0.4-5.8       c0.3-1.9,1.1-4,2.3-5.4c1.6-1.9,3.9-3.8,6.2-4.8c2.9-1.2,6.3-1.7,9.4-1.6c2.9,0.1,6.1,0.7,8.6,1.9c2.2,1.1,4.4,3.1,5.6,5.2       c1,1.8,1.3,4.3,1,6.5c-0.3,3.1-1.4,6.2-2.6,9.1c-0.9,2-2.2,3.8-3.7,5.4c-1.5,1.9-3.9,3.2-6.2,4C31.5,35.4,30.5,35.4,29.3,35.5" /></g><g
   id="g643"
   i:knockout="Off"><path
   id="path648"
   i:isolated="yes"
   i:knockout="Off"
   opacity="3.000000e-002"
   fill="none"
   stroke="#4E4242"
   stroke-width="5.7308"
   stroke-linejoin="round"
   enable-background="new    "
   d="       M29.3,35.5c-2.4,0.3-5.7-1-8.1-2.4c-2.2-1.3-4.1-3.6-5.6-5.7c-1.5-2.1-2.6-4.5-3.3-6.9c-0.5-1.8-0.7-4-0.4-5.8       c0.3-1.9,1.1-4,2.3-5.4c1.6-1.9,3.9-3.8,6.2-4.8c2.9-1.2,6.3-1.7,9.4-1.6c2.9,0.1,6.1,0.7,8.6,1.9c2.2,1.1,4.4,3.1,5.6,5.2       c1,1.8,1.3,4.3,1,6.5c-0.3,3.1-1.4,6.2-2.6,9.1c-0.9,2-2.2,3.8-3.7,5.4c-1.5,1.9-3.9,3.2-6.2,4C31.5,35.4,30.5,35.4,29.3,35.5" /></g><linearGradient
   id="path655_1_"
   gradientUnits="userSpaceOnUse"
   x1="-379.2051"
   y1="-135.1841"
   x2="-379.0742"
   y2="-135.1841"
   gradientTransform="matrix(254.103 0 0 183.1892 96368.8359 24779.1523)"><stop
   offset="0"
   style="stop-color:#EDEAE3"
   id="stop643" /><stop
   offset="1"
   style="stop-color:#B5B2AA"
   id="stop644" /><a:midPointStop
   offset="0"
   style="stop-color:#EDEAE3"
   id="midPointStop645" /><a:midPointStop
   offset="0.5"
   style="stop-color:#EDEAE3"
   id="midPointStop646" /><a:midPointStop
   offset="1"
   style="stop-color:#B5B2AA"
   id="midPointStop647" /></linearGradient><path
   id="path655"
   fill="url(#path655_1_)"
   d="M44.9,14.8c-1.4,9-10.5,11.7-16.8,12c-8.9,0.5-15.8-4.6-16.3-9.8      C11,9.6,18.6,2.9,28.3,2.9C41.1,2.8,45.6,10.4,44.9,14.8z" /><linearGradient
   id="path597_1_"
   gradientUnits="userSpaceOnUse"
   x1="-379.0747"
   y1="-135.5537"
   x2="-379.1541"
   y2="-135.5558"
   gradientTransform="matrix(255.5962 0 0 166.8831 96934.9922 22646.2305)"><stop
   offset="0"
   style="stop-color:#EDEAE3"
   id="stop650" /><stop
   offset="1"
   style="stop-color:#B5B2AA"
   id="stop651" /><a:midPointStop
   offset="0"
   style="stop-color:#EDEAE3"
   id="midPointStop652" /><a:midPointStop
   offset="0.5"
   style="stop-color:#EDEAE3"
   id="midPointStop653" /><a:midPointStop
   offset="1"
   style="stop-color:#B5B2AA"
   id="midPointStop654" /></linearGradient><path
   id="path597"
   fill="url(#path597_1_)"
   d="M45,13.7c0.9,4.9-3.7,21.2-15.3,21.8c-12.1,0.7-18.2-14.2-18.1-18.9      C13.7,30.8,43.9,30.3,45,13.7z" /><radialGradient
   id="path669_1_"
   cx="-378.8208"
   cy="-135.1938"
   r="6.542969e-002"
   fx="-378.8208"
   fy="-135.1938"
   gradientTransform="matrix(89.8545 0 0 141.4218 34057.3086 19135.7344)"
   gradientUnits="userSpaceOnUse"><stop
   offset="0"
   style="stop-color:#FFFFFF"
   id="stop657" /><stop
   offset="1"
   style="stop-color:#ECFBFB"
   id="stop658" /><a:midPointStop
   offset="0"
   style="stop-color:#FFFFFF"
   id="midPointStop659" /><a:midPointStop
   offset="0.5"
   style="stop-color:#FFFFFF"
   id="midPointStop660" /><a:midPointStop
   offset="1"
   style="stop-color:#ECFBFB"
   id="midPointStop661" /></radialGradient><path
   id="path669"
   fill="url(#path669_1_)"
   d="M19.1,7.1c-6.4,2.4-8.4,16.4,5.3,18.5C8.4,24,10.9,9.9,19.1,7.1z" /><radialGradient
   id="path676_1_"
   cx="-380.4868"
   cy="-135.1406"
   r="6.567428e-002"
   fx="-380.4868"
   fy="-135.1406"
   gradientTransform="matrix(81.1539 0 0 157.3318 30916.9688 21276.5234)"
   gradientUnits="userSpaceOnUse"><stop
   offset="0"
   style="stop-color:#FFFFFF"
   id="stop664" /><stop
   offset="1"
   style="stop-color:#ECFBFB"
   id="stop665" /><a:midPointStop
   offset="0"
   style="stop-color:#FFFFFF"
   id="midPointStop666" /><a:midPointStop
   offset="0.5"
   style="stop-color:#FFFFFF"
   id="midPointStop667" /><a:midPointStop
   offset="1"
   style="stop-color:#ECFBFB"
   id="midPointStop668" /></radialGradient><path
   id="path676"
   fill="url(#path676_1_)"
   d="M35.4,4.3c6.7,2.6,15.4,14.3-1.7,20.6C50.7,19.5,44.3,7.1,35.4,4.3z" /><radialGradient
   id="path651_1_"
   cx="-382.4624"
   cy="-134.1787"
   r="0.12"
   fx="-382.4624"
   fy="-134.1787"
   gradientTransform="matrix(36.9857 0 0 47.0892 14183.6934 6327.5166)"
   gradientUnits="userSpaceOnUse"><stop
   offset="0"
   style="stop-color:#FFFFFF"
   id="stop671" /><stop
   offset="1"
   style="stop-color:#ECFBFB"
   id="stop672" /><a:midPointStop
   offset="0"
   style="stop-color:#FFFFFF"
   id="midPointStop673" /><a:midPointStop
   offset="0.5"
   style="stop-color:#FFFFFF"
   id="midPointStop674" /><a:midPointStop
   offset="1"
   style="stop-color:#ECFBFB"
   id="midPointStop675" /></radialGradient><path
   id="path651"
   fill="url(#path651_1_)"
   d="M41.7,14.6c-2.1-2.7-2.4-3-4.7-4.9c0.6-0.5,2.2,1.2,2.4,0.8      c0.1-0.4-1.3-1.9-1-2.1C39.1,8.2,42.5,14.1,41.7,14.6z" /><radialGradient
   id="path639_1_"
   cx="-379.2095"
   cy="-135.1792"
   r="0.1084"
   fx="-379.2095"
   fy="-135.1792"
   gradientTransform="matrix(201.771 0 0 163.2772 76536.0859 22082.918)"
   gradientUnits="userSpaceOnUse"><stop
   offset="0"
   style="stop-color:#9F9F9F"
   id="stop678" /><stop
   offset="0.3091"
   style="stop-color:#6A6A6A"
   id="stop679" /><stop
   offset="0.7817"
   style="stop-color:#1E1E1E"
   id="stop680" /><stop
   offset="1"
   style="stop-color:#000000"
   id="stop681" /><a:midPointStop
   offset="0"
   style="stop-color:#9F9F9F"
   id="midPointStop682" /><a:midPointStop
   offset="0.5"
   style="stop-color:#9F9F9F"
   id="midPointStop683" /><a:midPointStop
   offset="0.3091"
   style="stop-color:#6A6A6A"
   id="midPointStop684" /><a:midPointStop
   offset="0.5"
   style="stop-color:#6A6A6A"
   id="midPointStop685" /><a:midPointStop
   offset="0.7817"
   style="stop-color:#1E1E1E"
   id="midPointStop686" /><a:midPointStop
   offset="0.5"
   style="stop-color:#1E1E1E"
   id="midPointStop687" /><a:midPointStop
   offset="1"
   style="stop-color:#000000"
   id="midPointStop688" /></radialGradient><path
   id="path639"
   i:isolated="yes"
   i:knockout="Off"
   opacity="0.3"
   fill="url(#path639_1_)"
   enable-background="new    "
   d="      M41.1,20.5c-4.3,6.1-24.3,8.1-26.4-2.5C26.3-4.3,41.2,3,41.1,20.5z" /><radialGradient
   id="path649_1_"
   cx="-379.3599"
   cy="-135.376"
   r="0.2534"
   fx="-379.3599"
   fy="-135.376"
   gradientTransform="matrix(122.692 0 0 56.5346 46571.2734 7683.4658)"
   gradientUnits="userSpaceOnUse"><stop
   offset="0"
   style="stop-color:#000000"
   id="stop691" /><stop
   offset="1"
   style="stop-color:#000001"
   id="stop692" /><a:midPointStop
   offset="0"
   style="stop-color:#000000"
   id="midPointStop693" /><a:midPointStop
   offset="0.5"
   style="stop-color:#000000"
   id="midPointStop694" /><a:midPointStop
   offset="1"
   style="stop-color:#000001"
   id="midPointStop695" /></radialGradient><path
   id="path649"
   i:isolated="yes"
   i:knockout="Off"
   opacity="0.4"
   fill="url(#path649_1_)"
   enable-background="new    "
   d="      M35.4,24.1c-1.3,0.7-4.4,1.2-7.6,1.2c-3.2,0.1-6.4-0.2-7.9-1.1c-1-3.8,3.6-6.4,8.2-6.3C32.8,18,37.4,20.8,35.4,24.1z" /><radialGradient
   id="path650_1_"
   cx="-379.5649"
   cy="-135.5605"
   r="6.542969e-002"
   fx="-379.5649"
   fy="-135.5605"
   gradientTransform="matrix(32.3352 0 0 50.2699 12296.3145 6836.4102)"
   gradientUnits="userSpaceOnUse"><stop
   offset="0"
   style="stop-color:#FFFFFF"
   id="stop698" /><stop
   offset="1"
   style="stop-color:#ECFBFB"
   id="stop699" /><a:midPointStop
   offset="0"
   style="stop-color:#FFFFFF"
   id="midPointStop700" /><a:midPointStop
   offset="0.5"
   style="stop-color:#FFFFFF"
   id="midPointStop701" /><a:midPointStop
   offset="1"
   style="stop-color:#ECFBFB"
   id="midPointStop702" /></radialGradient><path
   id="path650"
   fill="url(#path650_1_)"
   d="M25.1,18.5c-3.2,1.2-3.5,5.1-1.9,6.6c-0.3,0-0.9,0-2-0.4      C20.3,22.5,21,19.9,25.1,18.5z" /><g
   id="path624"
   i:knockout="Off"><path
   id="path708"
   i:isolated="yes"
   i:knockout="Off"
   opacity="0.872"
   fill="none"
   stroke="#4E4242"
   stroke-width="0.4257"
   stroke-linejoin="round"
   enable-background="new    "
   d="       M29.3,35.5c-2.4,0.3-5.7-1-8.1-2.4c-2.2-1.3-4.1-3.6-5.6-5.7c-1.5-2.1-2.6-4.5-3.3-6.9c-0.5-1.8-0.7-4-0.4-5.8       c0.3-1.9,1.1-4,2.3-5.4c1.6-1.9,3.9-3.8,6.2-4.8c2.9-1.2,6.3-1.7,9.4-1.6c2.9,0.1,6.1,0.7,8.6,1.9c2.2,1.1,4.4,3.1,5.6,5.2       c1,1.8,1.3,4.3,1,6.5c-0.3,3.1-1.4,6.2-2.6,9.1c-0.9,2-2.2,3.8-3.7,5.4c-1.5,1.9-3.9,3.2-6.2,4C31.5,35.4,30.5,35.4,29.3,35.5" /></g><g
   id="g709"
   i:knockout="Off"><path
   id="path710"
   i:isolated="yes"
   i:knockout="Off"
   opacity="0.19"
   fill="none"
   stroke="#244242"
   stroke-width="1.4736"
   stroke-linejoin="round"
   enable-background="new    "
   d="       M29.3,35.5c-2.4,0.3-5.7-1-8.1-2.4c-2.2-1.3-4.1-3.6-5.6-5.7c-1.5-2.1-2.6-4.5-3.3-6.9c-0.5-1.8-0.7-4-0.4-5.8       c0.3-1.9,1.1-4,2.3-5.4c1.6-1.9,3.9-3.8,6.2-4.8c2.9-1.2,6.3-1.7,9.4-1.6c2.9,0.1,6.1,0.7,8.6,1.9c2.2,1.1,4.4,3.1,5.6,5.2       c1,1.8,1.3,4.3,1,6.5c-0.3,3.1-1.4,6.2-2.6,9.1c-0.9,2-2.2,3.8-3.7,5.4c-1.5,1.9-3.9,3.2-6.2,4C31.5,35.4,30.5,35.4,29.3,35.5" /></g><linearGradient
   id="path641_1_"
   gradientUnits="userSpaceOnUse"
   x1="-379.2046"
   y1="-135.5537"
   x2="-379.0737"
   y2="-135.5537"
   gradientTransform="matrix(255.5952 0 0 166.8837 96934.5547 22646.3438)"><stop
   offset="0"
   style="stop-color:#585858"
   id="stop709" /><stop
   offset="1"
   style="stop-color:#FFFFFF"
   id="stop710" /><a:midPointStop
   offset="0"
   style="stop-color:#585858"
   id="midPointStop711" /><a:midPointStop
   offset="0.5"
   style="stop-color:#585858"
   id="midPointStop712" /><a:midPointStop
   offset="1"
   style="stop-color:#FFFFFF"
   id="midPointStop713" /></linearGradient><path
   id="path641"
   fill="url(#path641_1_)"
   d="M45,13.7c0.9,4.9-3.7,21.2-15.3,21.8c-12.1,0.7-18.2-14.2-18.1-18.9      C13.7,30.8,43.9,30.3,45,13.7z" /></g><rect
   y="2.8"
   i:knockout="Off"
   fill="none"
   width="48"
   height="48"
   id="rect715" /></g></svg>
