<?xml version="1.0" encoding="UTF-8" standalone="no"?>
<!DOCTYPE svg PUBLIC "-//W3C//DTD SVG 20010904//EN"
"http://www.w3.org/TR/2001/REC-SVG-20010904/DTD/svg10.dtd">
<!-- Created with Sodipodi ("http://www.sodipodi.com/") -->
<svg
   xmlns:x="http://ns.adobe.com/Extensibility/1.0/"
   xmlns:i="http://ns.adobe.com/AdobeIllustrator/10.0/"
   xmlns:graph="http://ns.adobe.com/Graphs/1.0/"
   xmlns="http://www.w3.org/2000/svg"
   xmlns:xlink="http://www.w3.org/1999/xlink"
   xmlns:a="http://ns.adobe.com/AdobeSVGViewerExtensions/3.0/"
   xml:space="preserve"
   i:viewOrigin="193.9556 492.311"
   i:rulerOrigin="0 0"
   i:pageBounds="0 792 612 0"
   width="48"
   height="49.9"
   viewBox="0 0 48 49.9"
   overflow="visible"
   enable-background="new 0 0 48 49.9"
   xmlns:sodipodi="http://sodipodi.sourceforge.net/DTD/sodipodi-0.dtd"
   id="svg602"
   sodipodi:version="0.34"
   sodipodi:docname="C:\msys\home\su_blanc\mldonkey-2.5.12\src\gtk2\rsvg\emoticons\emoticon_clock.svg"><defs
   id="defs645" /><sodipodi:namedview
   id="namedview644" /><g
   id="Layer_1"
   i:layer="yes"
   i:dimmedPercent="50"
   i:rgbTrio="#4F008000FFFF"><g
   id="g606"><g
   id="g607"><g
   nodetypes="cccccssss"
   id="g608"><g
   i:knockout="Off"
   opacity="3.790000e-002"
   id="g609"><path
   i:knockout="Off"
   fill="none"
   stroke="#000000"
   stroke-width="3.8698"
   stroke-linejoin="round"
   d="M35.7,19.7         C31.7,3.6,32.4,19.7,35.7,19.7z M7.1,33.4C20.9,33.5,10.5,46.6,7.1,33.4z M44.3,23.7c0,9.8-7.8,21.5-20.6,21.6         c-9.9-0.1-20.9-8.4-21-21.7C2.5,10.5,12.4,2.1,23.9,2.1C34.4,1.9,44.3,11.4,44.3,23.7z"
   id="path610" /></g></g><g
   nodetypes="cssssccccc"
   id="g611"><g
   i:knockout="Off"
   opacity="3.790000e-002"
   id="g612"><path
   i:knockout="Off"
   fill="none"
   stroke="#000000"
   stroke-width="4.1601"
   stroke-linejoin="round"
   d="M44.3,23.7         c0,9.8-7.8,21.5-20.6,21.6c-9.9-0.1-20.9-8.4-21-21.7C2.5,10.5,12.4,2.1,23.9,2.1C34.4,1.9,44.3,11.4,44.3,23.7z M35.8,27         C33,41.5,31.4,27.1,35.8,27z M33.8,19c5.6-0.3-1.4,0.7,1.9,0.7C31.7,3.6,35.8,5.1,33.8,19z"
   id="path613" /></g></g><g
   nodetypes="csssscccc"
   id="g614"><g
   i:knockout="Off"
   opacity="3.790000e-002"
   id="g615"><path
   i:knockout="Off"
   fill="none"
   stroke="#000000"
   stroke-width="3.3216"
   stroke-linejoin="round"
   d="M44.3,23.7         c0,9.8-7.8,21.5-20.6,21.6c-9.9-0.1-20.9-8.4-21-21.7C2.5,10.5,12.4,2.1,23.9,2.1C34.4,1.9,44.3,11.4,44.3,23.7z M35.8,26.9         C33,41.4,31.4,26.9,35.8,26.9z M11,19.7C16.6,19.4,13.1,5.7,11,19.7z"
   id="path616" /></g></g><radialGradient
   id="path700_1_"
   cx="23.9995"
   cy="39.939"
   r="17.3597"
   fx="23.9995"
   fy="39.939"
   gradientUnits="userSpaceOnUse"><stop
   offset="0"
   style="stop-color:#000000"
   id="stop618" /><stop
   offset="1"
   style="stop-color:#FFFFFF"
   id="stop619" /><a:midPointStop
   offset="0"
   style="stop-color:#000000"
   id="midPointStop620" /><a:midPointStop
   offset="0.5"
   style="stop-color:#000000"
   id="midPointStop621" /><a:midPointStop
   offset="1"
   style="stop-color:#FFFFFF"
   id="midPointStop622" /></radialGradient><path
   id="path700"
   nodetypes="cccccc"
   opacity="0.4"
   fill="url(#path700_1_)"
   d="M6,30.3c-8,5-4.8,9.6,4.2,17       c3.6,3.4,25.3,3.4,33.3-1.7c6.7-4.3,1.1-5.5-4.7-12.6c-4.8,3.8-9.8,6.5-19,6C12.1,37.2,10.5,36.1,6,30.3z" /><linearGradient
   id="path652_1_"
   gradientUnits="userSpaceOnUse"
   x1="-193.7397"
   y1="491.9067"
   x2="-193.7438"
   y2="491.9926"
   gradientTransform="matrix(281.6937 0 0 -291.5229 54598.6406 143437.9531)"><stop
   offset="0"
   style="stop-color:#FFFFFF"
   id="stop625" /><stop
   offset="1"
   style="stop-color:#8F8F97"
   id="stop626" /><a:midPointStop
   offset="0"
   style="stop-color:#FFFFFF"
   id="midPointStop627" /><a:midPointStop
   offset="0.5"
   style="stop-color:#FFFFFF"
   id="midPointStop628" /><a:midPointStop
   offset="1"
   style="stop-color:#8F8F97"
   id="midPointStop629" /></linearGradient><path
   id="path652"
   type="arc"
   cx="334.9968"
   cy="604.8538"
   rx="72.32886"
   ry="70.63696"
   fill="url(#path652_1_)"
   d="       M41.2,23.2C41.2,12.9,33,4.5,23,4.5c-10,0-18.1,8.4-18.1,18.8l0,0C4.9,33.6,13,42,23,42C33,42,41.2,33.6,41.2,23.2z" /><path
   id="path721"
   type="arc"
   cx="152.6942"
   cy="648.4205"
   rx="8.036530"
   ry="7.190582"
   fill="#070702"
   d="       M25.5,36.5c0-0.9-0.7-1.7-1.6-1.7c-0.9,0-1.6,0.8-1.6,1.7c0,0,0,0,0,0c0,0.9,0.7,1.7,1.6,1.7C24.8,38.2,25.5,37.4,25.5,36.5       C25.5,36.5,25.5,36.5,25.5,36.5z" /><radialGradient
   id="XMLID_1_"
   cx="-193.7134"
   cy="491.8843"
   r="6.026502e-002"
   fx="-193.7134"
   fy="491.8843"
   gradientTransform="matrix(323.4454 0 0 -335.7283 62679.0938 165182.3906)"
   gradientUnits="userSpaceOnUse"><stop
   offset="0"
   style="stop-color:#FFDF00"
   id="stop633" /><stop
   offset="1"
   style="stop-color:#FFAA0A"
   id="stop634" /><a:midPointStop
   offset="0"
   style="stop-color:#FFDF00"
   id="midPointStop635" /><a:midPointStop
   offset="0.5"
   style="stop-color:#FFDF00"
   id="midPointStop636" /><a:midPointStop
   offset="1"
   style="stop-color:#FFAA0A"
   id="midPointStop637" /></radialGradient><path
   nodetypes="csssscsscsssscsc"
   fill="url(#XMLID_1_)"
   stroke="#868A68"
   stroke-width="0.695"
   d="M8.6,23.4       c0.3,11.3,8.6,16,15.2,16.1c10.4,0,14.9-8.9,14.9-15.9c0-7-6-16.3-15.5-15.8C12.5,8.3,8.5,16.8,8.6,23.4z M22.6,24       c-2.3-2.2,3.1-12,4-12.8C32.2,6,25.8,26.9,22.6,24z M44.3,23.7c0,9.8-7.8,21.5-20.6,21.6c-9.9-0.1-20.9-8.4-21-21.7       C2.5,10.5,12.4,2.1,23.9,2.1C34.4,1.9,44.3,11.4,44.3,23.7z M28.4,37.6c2.6-0.4-3-13.9-5.5-13.3C20.4,24.9,24.3,36.3,28.4,37.6       z"
   id="path638" /><path
   id="path720"
   type="arc"
   cx="152.6942"
   cy="648.4205"
   rx="8.036530"
   ry="7.190582"
   fill="#070702"
   d="       M25.2,10.6c0-0.9-0.8-1.7-1.7-1.7c-1,0-1.7,0.8-1.7,1.7c0,0,0,0,0,0c0,0.9,0.8,1.7,1.7,1.7C24.4,12.3,25.2,11.5,25.2,10.6       C25.2,10.6,25.2,10.6,25.2,10.6z" /><path
   id="path659"
   nodetypes="ccccc"
   i:knockout="Off"
   opacity="0.6"
   fill="#FFFFFF"
   d="M23.9,21       c14.9-0.3,14-6.5,12.6-11.1c-2-4.7-5.1-7.6-12.5-7.8c-7.8,0-12.2,2.8-14.4,8.7C8.2,14.9,9.3,20.7,23.9,21z" /><path
   id="path722"
   type="arc"
   cx="152.6942"
   cy="648.4205"
   rx="8.036530"
   ry="7.190582"
   fill="#070702"
   d="       M12.9,23.3c0-0.9-0.7-1.7-1.6-1.7c-0.9,0-1.6,0.8-1.6,1.7c0,0,0,0,0,0c0,0.9,0.7,1.7,1.6,1.7S12.9,24.3,12.9,23.3       C12.9,23.3,12.9,23.3,12.9,23.3z" /><path
   id="path723"
   type="arc"
   cx="152.6942"
   cy="648.4205"
   rx="8.036530"
   ry="7.190582"
   fill="#070702"
   d="       M37.9,23c0-0.9-0.7-1.7-1.6-1.7c-0.9,0-1.6,0.8-1.6,1.7c0,0,0,0,0,0c0,0.9,0.7,1.7,1.6,1.7C37.2,24.7,37.9,23.9,37.9,23       C37.9,23,37.9,23,37.9,23z" /></g><rect
   y="1.9"
   opacity="0.4"
   fill="none"
   width="48"
   height="48"
   id="rect643" /></g></g></svg>
