<?xml version="1.0" encoding="UTF-8" standalone="no"?>
<!DOCTYPE svg PUBLIC "-//W3C//DTD SVG 20010904//EN"
"http://www.w3.org/TR/2001/REC-SVG-20010904/DTD/svg10.dtd">
<!-- Created with Sodipodi ("http://www.sodipodi.com/") -->
<svg
   xmlns:x="http://ns.adobe.com/Extensibility/1.0/"
   xmlns:i="http://ns.adobe.com/AdobeIllustrator/10.0/"
   xmlns:graph="http://ns.adobe.com/Graphs/1.0/"
   xmlns="http://www.w3.org/2000/svg"
   xmlns:xlink="http://www.w3.org/1999/xlink"
   xmlns:a="http://ns.adobe.com/AdobeSVGViewerExtensions/3.0/"
   xml:space="preserve"
   i:viewOrigin="194.5498 446.0366"
   i:rulerOrigin="0 0"
   i:pageBounds="0 792 612 0"
   width="51.4"
   height="50.4"
   viewBox="0 0 51.4 50.4"
   overflow="visible"
   enable-background="new 0 0 51.4 50.4"
   xmlns:sodipodi="http://sodipodi.sourceforge.net/DTD/sodipodi-0.dtd"
   id="svg602"
   sodipodi:version="0.34"
   sodipodi:docname="C:\msys\home\su_blanc\mldonkey-2.5.12\src\gtk2\rsvg\emoticons\emoticon_storm.svg"><defs
   id="defs829" /><sodipodi:namedview
   id="base" /><g
   id="Layer_1"
   i:knockout="Off"
   i:layer="yes"
   i:dimmedPercent="50"
   i:rgbTrio="#4F008000FFFF"><g
   id="g606"
   i:knockout="Off"><g
   id="g607"
   i:knockout="Off"><g
   id="path647"
   i:knockout="Off"><path
   id="path609"
   i:isolated="yes"
   i:knockout="Off"
   opacity="3.000000e-002"
   fill="none"
   stroke="#000000"
   stroke-width="2.281"
   stroke-linejoin="round"
   enable-background="new    "
   d="        M22.3,32.9c-1.3,0-2.5-1-3.3-1.9c-0.8-0.9-1.4-1.6-1.6-3.5c-1.4,0.7-3.7,0.4-5-0.3c-1.4-0.8-2.8-2.6-3-4.4        c-3.7,0.9-8.4-3-7.1-7.8c0.9-3.5,5.7-5.9,8.5-4.3c1.4-2.6,4.8-4.2,7.4-4.4c2.6-0.2,6.8,1,8.4,3.3c0.8-4.8,5.6-7.8,10.6-7.5        c7.3,0.7,10.2,7.8,8.5,13c2.6,1,4,5,3.6,7c-0.5,2.2-2.5,5.7-6.7,5.6c0,5.1-4,9.3-7.1,10.2C30.7,39.5,26.3,38.8,22.3,32.9z" /></g><g
   id="path646"
   i:knockout="Off"><path
   id="path611"
   i:isolated="yes"
   i:knockout="Off"
   opacity="3.000000e-002"
   fill="none"
   stroke="#000000"
   stroke-width="2.6766"
   stroke-linejoin="round"
   enable-background="new    "
   d="        M22.3,32.9c-1.3,0-2.5-1-3.3-1.9c-0.8-0.9-1.4-1.6-1.6-3.5c-1.4,0.7-3.7,0.4-5-0.3c-1.4-0.8-2.8-2.6-3-4.4        c-3.7,0.9-8.4-3-7.1-7.8c0.9-3.5,5.7-5.9,8.5-4.3c1.4-2.6,4.8-4.2,7.4-4.4c2.6-0.2,6.8,1,8.4,3.3c0.8-4.8,5.6-7.8,10.6-7.5        c7.3,0.7,10.2,7.8,8.5,13c2.6,1,4,5,3.6,7c-0.5,2.2-2.5,5.7-6.7,5.6c0,5.1-4,9.3-7.1,10.2C30.7,39.5,26.3,38.8,22.3,32.9z" /></g><g
   id="path645"
   i:knockout="Off"><path
   id="path613"
   i:isolated="yes"
   i:knockout="Off"
   opacity="3.000000e-002"
   fill="none"
   stroke="#000000"
   stroke-width="3.1538"
   stroke-linejoin="round"
   enable-background="new    "
   d="        M22.3,32.9c-1.3,0-2.5-1-3.3-1.9c-0.8-0.9-1.4-1.6-1.6-3.5c-1.4,0.7-3.7,0.4-5-0.3c-1.4-0.8-2.8-2.6-3-4.4        c-3.7,0.9-8.4-3-7.1-7.8c0.9-3.5,5.7-5.9,8.5-4.3c1.4-2.6,4.8-4.2,7.4-4.4c2.6-0.2,6.8,1,8.4,3.3c0.8-4.8,5.6-7.8,10.6-7.5        c7.3,0.7,10.2,7.8,8.5,13c2.6,1,4,5,3.6,7c-0.5,2.2-2.5,5.7-6.7,5.6c0,5.1-4,9.3-7.1,10.2C30.7,39.5,26.3,38.8,22.3,32.9z" /></g><g
   id="path644"
   i:knockout="Off"><path
   id="path615"
   i:isolated="yes"
   i:knockout="Off"
   opacity="3.000000e-002"
   fill="none"
   stroke="#000000"
   stroke-width="3.4913"
   stroke-linejoin="round"
   enable-background="new    "
   d="        M22.3,32.9c-1.3,0-2.5-1-3.3-1.9c-0.8-0.9-1.4-1.6-1.6-3.5c-1.4,0.7-3.7,0.4-5-0.3c-1.4-0.8-2.8-2.6-3-4.4        c-3.7,0.9-8.4-3-7.1-7.8c0.9-3.5,5.7-5.9,8.5-4.3c1.4-2.6,4.8-4.2,7.4-4.4c2.6-0.2,6.8,1,8.4,3.3c0.8-4.8,5.6-7.8,10.6-7.5        c7.3,0.7,10.2,7.8,8.5,13c2.6,1,4,5,3.6,7c-0.5,2.2-2.5,5.7-6.7,5.6c0,5.1-4,9.3-7.1,10.2C30.7,39.5,26.3,38.8,22.3,32.9z" /></g><g
   id="path643"
   i:knockout="Off"><path
   id="path617"
   i:isolated="yes"
   i:knockout="Off"
   opacity="3.000000e-002"
   fill="none"
   stroke="#000000"
   stroke-width="4.1313"
   stroke-linejoin="round"
   enable-background="new    "
   d="        M22.3,32.9c-1.3,0-2.5-1-3.3-1.9c-0.8-0.9-1.4-1.6-1.6-3.5c-1.4,0.7-3.7,0.4-5-0.3c-1.4-0.8-2.8-2.6-3-4.4        c-3.7,0.9-8.4-3-7.1-7.8c0.9-3.5,5.7-5.9,8.5-4.3c1.4-2.6,4.8-4.2,7.4-4.4c2.6-0.2,6.8,1,8.4,3.3c0.8-4.8,5.6-7.8,10.6-7.5        c7.3,0.7,10.2,7.8,8.5,13c2.6,1,4,5,3.6,7c-0.5,2.2-2.5,5.7-6.7,5.6c0,5.1-4,9.3-7.1,10.2C30.7,39.5,26.3,38.8,22.3,32.9z" /></g><g
   id="path674"
   i:knockout="Off"><path
   id="path619"
   i:isolated="yes"
   i:knockout="Off"
   opacity="3.320000e-002"
   fill="none"
   stroke="#000000"
   stroke-width="0.6695"
   stroke-linejoin="round"
   enable-background="new    "
   d="        M22.9,31.7c2.1,0.2,4.2,0.7,5.6,1.3c-1.6,2-4.1,4-6.4,5.9c1.5,0.1,3,0.1,4.7,0.1c-2.6,3.2-5.8,7-9.8,9.9        c1.8-2.7,3.3-5.1,4.4-8.2c-1.2,0.1-2.8,0-4.3,0C19.7,38,21.6,34.5,22.9,31.7z" /></g><g
   id="path675"
   i:knockout="Off"><path
   id="path621"
   i:isolated="yes"
   i:knockout="Off"
   opacity="3.320000e-002"
   fill="none"
   stroke="#000000"
   stroke-width="1.1169"
   stroke-linejoin="round"
   enable-background="new    "
   d="        M22.9,31.7c2.1,0.2,4.2,0.7,5.6,1.3c-1.6,2-4.1,4-6.4,5.9c1.5,0.1,3,0.1,4.7,0.1c-2.6,3.2-5.8,7-9.8,9.9        c1.8-2.7,3.3-5.1,4.4-8.2c-1.2,0.1-2.8,0-4.3,0C19.7,38,21.6,34.5,22.9,31.7z" /></g><g
   id="path676"
   i:knockout="Off"><path
   id="path623"
   i:isolated="yes"
   i:knockout="Off"
   opacity="3.320000e-002"
   fill="none"
   stroke="#000000"
   stroke-width="1.6224"
   stroke-linejoin="round"
   enable-background="new    "
   d="        M22.9,31.7c2.1,0.2,4.2,0.7,5.6,1.3c-1.6,2-4.1,4-6.4,5.9c1.5,0.1,3,0.1,4.7,0.1c-2.6,3.2-5.8,7-9.8,9.9        c1.8-2.7,3.3-5.1,4.4-8.2c-1.2,0.1-2.8,0-4.3,0C19.7,38,21.6,34.5,22.9,31.7z" /></g><g
   id="path677"
   i:knockout="Off"><path
   id="path625"
   i:isolated="yes"
   i:knockout="Off"
   opacity="3.320000e-002"
   fill="none"
   stroke="#000000"
   stroke-width="2.2189"
   stroke-linejoin="round"
   enable-background="new    "
   d="        M22.9,31.7c2.1,0.2,4.2,0.7,5.6,1.3c-1.6,2-4.1,4-6.4,5.9c1.5,0.1,3,0.1,4.7,0.1c-2.6,3.2-5.8,7-9.8,9.9        c1.8-2.7,3.3-5.1,4.4-8.2c-1.2,0.1-2.8,0-4.3,0C19.7,38,21.6,34.5,22.9,31.7z" /></g><g
   id="path678"
   i:knockout="Off"><path
   id="path627"
   i:isolated="yes"
   i:knockout="Off"
   opacity="3.320000e-002"
   fill="none"
   stroke="#000000"
   stroke-width="3.0724"
   stroke-linejoin="round"
   enable-background="new    "
   d="        M22.9,31.7c2.1,0.2,4.2,0.7,5.6,1.3c-1.6,2-4.1,4-6.4,5.9c1.5,0.1,3,0.1,4.7,0.1c-2.6,3.2-5.8,7-9.8,9.9        c1.8-2.7,3.3-5.1,4.4-8.2c-1.2,0.1-2.8,0-4.3,0C19.7,38,21.6,34.5,22.9,31.7z" /></g><g
   id="path679"
   i:knockout="Off"><linearGradient
   id="path635_1_"
   gradientUnits="userSpaceOnUse"
   x1="-389.5132"
   y1="-0.1421"
   x2="-389.5132"
   y2="-5.926514e-002"
   gradientTransform="matrix(124.0231 0 0 184.3998 48331.4648 52.2718)"><stop
   offset="0"
   style="stop-color:#FF6F00"
   id="stop630" /><stop
   offset="1"
   style="stop-color:#FFFF00"
   id="stop631" /><a:midPointStop
   offset="0"
   style="stop-color:#FF6F00"
   id="midPointStop632" /><a:midPointStop
   offset="0.5"
   style="stop-color:#FF6F00"
   id="midPointStop633" /><a:midPointStop
   offset="1"
   style="stop-color:#FFFF00"
   id="midPointStop634" /></linearGradient><path
   id="path635"
   fill="url(#path635_1_)"
   d="M22.9,31.7c2.1,0.2,4.2,0.7,5.6,1.3c-1.6,2-4.1,4-6.4,5.9        c1.5,0.1,3,0.1,4.7,0.1c-2.6,3.2-5.8,7-9.8,9.9c1.8-2.7,3.3-5.1,4.4-8.2c-1.2,0.1-2.8,0-4.3,0C19.7,38,21.6,34.5,22.9,31.7z" /><path
   id="path636"
   i:isolated="yes"
   i:knockout="Off"
   opacity="0.7156"
   fill="none"
   stroke="#460000"
   stroke-width="0.4126"
   enable-background="new    "
   d="        M22.9,31.7c2.1,0.2,4.2,0.7,5.6,1.3c-1.6,2-4.1,4-6.4,5.9c1.5,0.1,3,0.1,4.7,0.1c-2.6,3.2-5.8,7-9.8,9.9        c1.8-2.7,3.3-5.1,4.4-8.2c-1.2,0.1-2.8,0-4.3,0C19.7,38,21.6,34.5,22.9,31.7z" /></g><radialGradient
   id="path680_1_"
   cx="-389.1538"
   cy="-0.8911"
   r="9.600848e-002"
   fx="-389.1538"
   fy="-0.8911"
   gradientTransform="matrix(92.8209 0 0 96.3397 36143.2852 121.7451)"
   gradientUnits="userSpaceOnUse"><stop
   offset="0"
   style="stop-color:#FFFFFF"
   id="stop638" /><stop
   offset="1"
   style="stop-color:#F5FFFF"
   id="stop639" /><a:midPointStop
   offset="0"
   style="stop-color:#FFFFFF"
   id="midPointStop640" /><a:midPointStop
   offset="0.5"
   style="stop-color:#FFFFFF"
   id="midPointStop641" /><a:midPointStop
   offset="1"
   style="stop-color:#F5FFFF"
   id="midPointStop642" /></radialGradient><path
   id="path680"
   i:isolated="yes"
   i:knockout="Off"
   opacity="0.6"
   fill="url(#path680_1_)"
   enable-background="new    "
   d="       M22.9,31.7c1,0,2.8,0.5,2.9,0.4c-1.6,2-7.4,8.8-8.6,8.6C19.7,38,21.6,34.5,22.9,31.7z" /><radialGradient
   id="path681_1_"
   cx="-388.6577"
   cy="-2.0083"
   r="9.605922e-002"
   fx="-388.6577"
   fy="-2.0083"
   gradientTransform="matrix(54.0696 0 0 80.7929 21034.9688 205.9523)"
   gradientUnits="userSpaceOnUse"><stop
   offset="0"
   style="stop-color:#FFFFFF"
   id="stop645" /><stop
   offset="1"
   style="stop-color:#F5FFFF"
   id="stop646" /><a:midPointStop
   offset="0"
   style="stop-color:#FFFFFF"
   id="midPointStop647" /><a:midPointStop
   offset="0.5"
   style="stop-color:#FFFFFF"
   id="midPointStop648" /><a:midPointStop
   offset="1"
   style="stop-color:#F5FFFF"
   id="midPointStop649" /></radialGradient><path
   id="path681"
   i:isolated="yes"
   i:knockout="Off"
   opacity="0.6"
   fill="url(#path681_1_)"
   enable-background="new    "
   d="       M21.8,40.2c0,0,0.7,0.4,1.1,1c-1.3,1.9-4.1,6.6-5,6.5C19.8,45.2,20.7,42.8,21.8,40.2z" /><g
   id="path673"
   i:knockout="Off"><path
   id="path652"
   i:isolated="yes"
   i:knockout="Off"
   opacity="3.320000e-002"
   fill="none"
   stroke="#000000"
   stroke-width="0.7254"
   stroke-linejoin="round"
   enable-background="new    "
   d="        M9.5,26.2c2,0.1,4,0.6,5.4,1.3c-1.8,2.5-4.3,5-6.8,7.5c1.4,0,3,0,4.6-0.2c-2.8,4-6.3,8.8-10.4,12.4c2-3.3,3.7-6.3,5-10        c-1.2,0.1-2.7,0.1-4.2,0.1C5.9,34,8,29.7,9.5,26.2z" /></g><g
   id="path672"
   i:knockout="Off"><path
   id="path654"
   i:isolated="yes"
   i:knockout="Off"
   opacity="3.320000e-002"
   fill="none"
   stroke="#000000"
   stroke-width="1.2102"
   stroke-linejoin="round"
   enable-background="new    "
   d="        M9.5,26.2c2,0.1,4,0.6,5.4,1.3c-1.8,2.5-4.3,5-6.8,7.5c1.4,0,3,0,4.6-0.2c-2.8,4-6.3,8.8-10.4,12.4c2-3.3,3.7-6.3,5-10        c-1.2,0.1-2.7,0.1-4.2,0.1C5.9,34,8,29.7,9.5,26.2z" /></g><g
   id="path671"
   i:knockout="Off"><path
   id="path656"
   i:isolated="yes"
   i:knockout="Off"
   opacity="3.320000e-002"
   fill="none"
   stroke="#000000"
   stroke-width="1.7579"
   stroke-linejoin="round"
   enable-background="new    "
   d="        M9.5,26.2c2,0.1,4,0.6,5.4,1.3c-1.8,2.5-4.3,5-6.8,7.5c1.4,0,3,0,4.6-0.2c-2.8,4-6.3,8.8-10.4,12.4c2-3.3,3.7-6.3,5-10        c-1.2,0.1-2.7,0.1-4.2,0.1C5.9,34,8,29.7,9.5,26.2z" /></g><g
   id="path670"
   i:knockout="Off"><path
   id="path658"
   i:isolated="yes"
   i:knockout="Off"
   opacity="3.320000e-002"
   fill="none"
   stroke="#000000"
   stroke-width="2.4043"
   stroke-linejoin="round"
   enable-background="new    "
   d="        M9.5,26.2c2,0.1,4,0.6,5.4,1.3c-1.8,2.5-4.3,5-6.8,7.5c1.4,0,3,0,4.6-0.2c-2.8,4-6.3,8.8-10.4,12.4c2-3.3,3.7-6.3,5-10        c-1.2,0.1-2.7,0.1-4.2,0.1C5.9,34,8,29.7,9.5,26.2z" /></g><g
   id="path669"
   i:knockout="Off"><path
   id="path660"
   i:isolated="yes"
   i:knockout="Off"
   opacity="3.320000e-002"
   fill="none"
   stroke="#000000"
   stroke-width="3.3291"
   stroke-linejoin="round"
   enable-background="new    "
   d="        M9.5,26.2c2,0.1,4,0.6,5.4,1.3c-1.8,2.5-4.3,5-6.8,7.5c1.4,0,3,0,4.6-0.2c-2.8,4-6.3,8.8-10.4,12.4c2-3.3,3.7-6.3,5-10        c-1.2,0.1-2.7,0.1-4.2,0.1C5.9,34,8,29.7,9.5,26.2z" /></g><g
   id="path562"
   i:knockout="Off"><linearGradient
   id="path668_1_"
   gradientUnits="userSpaceOnUse"
   x1="-388.4302"
   y1="0.1206"
   x2="-388.4302"
   y2="0.2025"
   gradientTransform="matrix(135.5807 0 0 225.3177 52672.1875 -6.4182)"><stop
   offset="0"
   style="stop-color:#FF6F00"
   id="stop663" /><stop
   offset="1"
   style="stop-color:#FFFF00"
   id="stop664" /><a:midPointStop
   offset="0"
   style="stop-color:#FF6F00"
   id="midPointStop665" /><a:midPointStop
   offset="0.5"
   style="stop-color:#FF6F00"
   id="midPointStop666" /><a:midPointStop
   offset="1"
   style="stop-color:#FFFF00"
   id="midPointStop667" /></linearGradient><path
   id="path668"
   fill="url(#path668_1_)"
   d="M9.5,26.2c2,0.1,4,0.6,5.4,1.3c-1.8,2.5-4.3,5-6.8,7.5c1.4,0,3,0,4.6-0.2        c-2.8,4-6.3,8.8-10.4,12.4c2-3.3,3.7-6.3,5-10c-1.2,0.1-2.7,0.1-4.2,0.1C5.9,34,8,29.7,9.5,26.2z" /><path
   id="path682"
   i:isolated="yes"
   i:knockout="Off"
   opacity="0.782"
   fill="none"
   stroke="#510000"
   stroke-width="0.4471"
   enable-background="new    "
   d="        M9.5,26.2c2,0.1,4,0.6,5.4,1.3c-1.8,2.5-4.3,5-6.8,7.5c1.4,0,3,0,4.6-0.2c-2.8,4-6.3,8.8-10.4,12.4c2-3.3,3.7-6.3,5-10        c-1.2,0.1-2.7,0.1-4.2,0.1C5.9,34,8,29.7,9.5,26.2z" /></g><radialGradient
   id="path662_1_"
   cx="-387.771"
   cy="-0.2642"
   r="9.591094e-002"
   fx="-387.771"
   fy="-0.2642"
   gradientTransform="matrix(98.4707 0 0 119.1429 38192.0234 62.6985)"
   gradientUnits="userSpaceOnUse"><stop
   offset="0"
   style="stop-color:#FFFFFF"
   id="stop671" /><stop
   offset="1"
   style="stop-color:#F5FFFF"
   id="stop672" /><a:midPointStop
   offset="0"
   style="stop-color:#FFFFFF"
   id="midPointStop673" /><a:midPointStop
   offset="0.5"
   style="stop-color:#FFFFFF"
   id="midPointStop674" /><a:midPointStop
   offset="1"
   style="stop-color:#F5FFFF"
   id="midPointStop675" /></radialGradient><path
   id="path662"
   i:isolated="yes"
   i:knockout="Off"
   opacity="0.6"
   fill="url(#path662_1_)"
   enable-background="new    "
   d="       M9.5,26.2c1-0.1,2.7,0.5,2.8,0.3c-1.8,2.5-7.9,11-9.2,10.7C5.9,33.9,8,29.7,9.5,26.2z" /><radialGradient
   id="path696_1_"
   cx="-387.0215"
   cy="-1.2798"
   r="9.490760e-002"
   fx="-387.0215"
   fy="-1.2798"
   gradientTransform="matrix(68.328 0 0 108.3678 26449.8281 180.499)"
   gradientUnits="userSpaceOnUse"><stop
   offset="0"
   style="stop-color:#FFFFFF"
   id="stop678" /><stop
   offset="1"
   style="stop-color:#F5FFFF"
   id="stop679" /><a:midPointStop
   offset="0"
   style="stop-color:#FFFFFF"
   id="midPointStop680" /><a:midPointStop
   offset="0.5"
   style="stop-color:#FFFFFF"
   id="midPointStop681" /><a:midPointStop
   offset="1"
   style="stop-color:#F5FFFF"
   id="midPointStop682" /></radialGradient><path
   id="path696"
   i:isolated="yes"
   i:knockout="Off"
   opacity="0.6"
   fill="url(#path696_1_)"
   enable-background="new    "
   d="       M7.4,37.2c0-0.1,0.8,0.4,1.1,1.3c-1.7,2.5-5.3,8.9-6.4,8.8C4.7,43.8,5.9,40.6,7.4,37.2z" /><linearGradient
   id="path639_1_"
   gradientUnits="userSpaceOnUse"
   x1="-388.8843"
   y1="0.5762"
   x2="-388.8261"
   y2="0.5061"
   gradientTransform="matrix(508.2638 0 0 393.1809 197667.0938 -192.5941)"><stop
   offset="0"
   style="stop-color:#000000"
   id="stop685" /><stop
   offset="1"
   style="stop-color:#FFFFFF"
   id="stop686" /><a:midPointStop
   offset="0"
   style="stop-color:#000000"
   id="midPointStop687" /><a:midPointStop
   offset="0.5"
   style="stop-color:#000000"
   id="midPointStop688" /><a:midPointStop
   offset="1"
   style="stop-color:#FFFFFF"
   id="midPointStop689" /></linearGradient><path
   id="path639"
   fill="url(#path639_1_)"
   stroke="#000000"
   stroke-width="0.8379"
   stroke-linejoin="round"
   d="M22.3,32.9       c-1.3,0-2.5-1-3.3-1.9c-0.8-0.9-1.4-1.6-1.6-3.5c-1.4,0.7-3.7,0.4-5-0.3c-1.4-0.8-2.8-2.6-3-4.4c-3.7,0.9-8.4-3-7.1-7.8       c0.9-3.5,5.7-5.9,8.5-4.3c1.4-2.6,4.8-4.2,7.4-4.4c2.6-0.2,6.8,1,8.4,3.3c0.8-4.8,5.6-7.8,10.6-7.5c7.3,0.7,10.2,7.8,8.5,13       c2.6,1,4,5,3.6,7c-0.5,2.2-2.5,5.7-6.7,5.6c0,5.1-4,9.3-7.1,10.2C30.7,39.5,26.3,38.8,22.3,32.9z" /><g
   id="path648"
   i:knockout="Off"><path
   id="path705"
   i:isolated="yes"
   i:knockout="Off"
   opacity="0.3649"
   fill="#FFFFFF"
   enable-background="new    "
   d="        M22.3,32.9c-1.3,0-2.5-1-3.3-1.9c-0.8-0.9-1.4-1.6-1.6-3.5c-1.4,0.7-3.7,0.4-5-0.3c-1.4-0.8-2.8-2.6-3-4.4        c-3.7,0.9-8.4-3-7.1-7.8c0.9-3.5,5.7-5.9,8.5-4.3c1.4-2.6,4.8-4.2,7.4-4.4c2.6-0.2,6.8,1,8.4,3.3c0.8-4.8,5.6-7.8,10.6-7.5        c7.3,0.7,10.2,7.8,8.5,13c2.6,1,4,5,3.6,7c-0.5,2.2-2.5,5.7-6.7,5.6c0,5.1-4,9.3-7.1,10.2C30.7,39.5,26.3,38.8,22.3,32.9z" /><path
   id="path706"
   fill="none"
   stroke="#746B69"
   stroke-width="0.8379"
   stroke-linejoin="round"
   d="M22.3,32.9        c-1.3,0-2.5-1-3.3-1.9c-0.8-0.9-1.4-1.6-1.6-3.5c-1.4,0.7-3.7,0.4-5-0.3c-1.4-0.8-2.8-2.6-3-4.4c-3.7,0.9-8.4-3-7.1-7.8        c0.9-3.5,5.7-5.9,8.5-4.3c1.4-2.6,4.8-4.2,7.4-4.4c2.6-0.2,6.8,1,8.4,3.3c0.8-4.8,5.6-7.8,10.6-7.5c7.3,0.7,10.2,7.8,8.5,13        c2.6,1,4,5,3.6,7c-0.5,2.2-2.5,5.7-6.7,5.6c0,5.1-4,9.3-7.1,10.2C30.7,39.5,26.3,38.8,22.3,32.9z" /></g><linearGradient
   id="path692_1_"
   gradientUnits="userSpaceOnUse"
   x1="-390.4683"
   y1="0.8223"
   x2="-390.2394"
   y2="0.4508"
   gradientTransform="matrix(151.9369 0 0 145.9553 59346.4922 -63.5277)"><stop
   offset="0"
   style="stop-color:#000000"
   id="stop695" /><stop
   offset="1.794052e-002"
   style="stop-color:#080808"
   id="stop696" /><stop
   offset="0.1802"
   style="stop-color:#484848"
   id="stop697" /><stop
   offset="0.3401"
   style="stop-color:#808080"
   id="stop698" /><stop
   offset="0.4938"
   style="stop-color:#ADADAD"
   id="stop699" /><stop
   offset="0.64"
   style="stop-color:#D1D1D1"
   id="stop700" /><stop
   offset="0.7768"
   style="stop-color:#EAEAEA"
   id="stop701" /><stop
   offset="0.9006"
   style="stop-color:#FAFAFA"
   id="stop702" /><stop
   offset="1"
   style="stop-color:#FFFFFF"
   id="stop703" /><a:midPointStop
   offset="0"
   style="stop-color:#000000"
   id="midPointStop704" /><a:midPointStop
   offset="0.5"
   style="stop-color:#000000"
   id="midPointStop705" /><a:midPointStop
   offset="1.794052e-002"
   style="stop-color:#080808"
   id="midPointStop706" /><a:midPointStop
   offset="0.5"
   style="stop-color:#080808"
   id="midPointStop707" /><a:midPointStop
   offset="0.1802"
   style="stop-color:#484848"
   id="midPointStop708" /><a:midPointStop
   offset="0.5"
   style="stop-color:#484848"
   id="midPointStop709" /><a:midPointStop
   offset="0.3401"
   style="stop-color:#808080"
   id="midPointStop710" /><a:midPointStop
   offset="0.5"
   style="stop-color:#808080"
   id="midPointStop711" /><a:midPointStop
   offset="0.4938"
   style="stop-color:#ADADAD"
   id="midPointStop712" /><a:midPointStop
   offset="0.5"
   style="stop-color:#ADADAD"
   id="midPointStop713" /><a:midPointStop
   offset="0.64"
   style="stop-color:#D1D1D1"
   id="midPointStop714" /><a:midPointStop
   offset="0.5"
   style="stop-color:#D1D1D1"
   id="midPointStop715" /><a:midPointStop
   offset="0.7768"
   style="stop-color:#EAEAEA"
   id="midPointStop716" /><a:midPointStop
   offset="0.5"
   style="stop-color:#EAEAEA"
   id="midPointStop717" /><a:midPointStop
   offset="0.9006"
   style="stop-color:#FAFAFA"
   id="midPointStop718" /><a:midPointStop
   offset="0.5"
   style="stop-color:#FAFAFA"
   id="midPointStop719" /><a:midPointStop
   offset="1"
   style="stop-color:#FFFFFF"
   id="midPointStop720" /></linearGradient><circle
   id="path692"
   fill="url(#path692_1_)"
   cx="42.5"
   cy="21.2"
   r="7.1" /><linearGradient
   id="path691_1_"
   gradientUnits="userSpaceOnUse"
   x1="-389.6851"
   y1="1.1523"
   x2="-389.5097"
   y2="0.8677"
   gradientTransform="matrix(215.112 0 0 216.7229 83835.4453 -194.0167)"><stop
   offset="0"
   style="stop-color:#000000"
   id="stop723" /><stop
   offset="1"
   style="stop-color:#FFFFFF"
   id="stop724" /><a:midPointStop
   offset="0"
   style="stop-color:#000000"
   id="midPointStop725" /><a:midPointStop
   offset="0.5"
   style="stop-color:#000000"
   id="midPointStop726" /><a:midPointStop
   offset="1"
   style="stop-color:#FFFFFF"
   id="midPointStop727" /></linearGradient><circle
   id="path691"
   fill="url(#path691_1_)"
   cx="36.2"
   cy="12.3"
   r="10" /><linearGradient
   id="path686_1_"
   gradientUnits="userSpaceOnUse"
   x1="-389.3672"
   y1="0.4126"
   x2="-389.2257"
   y2="0.183"
   gradientTransform="matrix(243.4524 0 0 233.868 94807.5625 -43.1698)"><stop
   offset="0"
   style="stop-color:#000000"
   id="stop730" /><stop
   offset="8.552679e-002"
   style="stop-color:#080808"
   id="stop731" /><stop
   offset="0.2191"
   style="stop-color:#1E1E1E"
   id="stop732" /><stop
   offset="0.3841"
   style="stop-color:#434343"
   id="stop733" /><stop
   offset="0.574"
   style="stop-color:#757575"
   id="stop734" /><stop
   offset="0.7852"
   style="stop-color:#B6B6B6"
   id="stop735" /><stop
   offset="1"
   style="stop-color:#FFFFFF"
   id="stop736" /><a:midPointStop
   offset="0"
   style="stop-color:#000000"
   id="midPointStop737" /><a:midPointStop
   offset="0.5"
   style="stop-color:#000000"
   id="midPointStop738" /><a:midPointStop
   offset="8.552679e-002"
   style="stop-color:#080808"
   id="midPointStop739" /><a:midPointStop
   offset="0.5"
   style="stop-color:#080808"
   id="midPointStop740" /><a:midPointStop
   offset="0.2191"
   style="stop-color:#1E1E1E"
   id="midPointStop741" /><a:midPointStop
   offset="0.5"
   style="stop-color:#1E1E1E"
   id="midPointStop742" /><a:midPointStop
   offset="0.3841"
   style="stop-color:#434343"
   id="midPointStop743" /><a:midPointStop
   offset="0.5"
   style="stop-color:#434343"
   id="midPointStop744" /><a:midPointStop
   offset="0.574"
   style="stop-color:#757575"
   id="midPointStop745" /><a:midPointStop
   offset="0.5"
   style="stop-color:#757575"
   id="midPointStop746" /><a:midPointStop
   offset="0.7852"
   style="stop-color:#B6B6B6"
   id="midPointStop747" /><a:midPointStop
   offset="0.5"
   style="stop-color:#B6B6B6"
   id="midPointStop748" /><a:midPointStop
   offset="1"
   style="stop-color:#FFFFFF"
   id="midPointStop749" /></linearGradient><circle
   id="path686"
   fill="url(#path686_1_)"
   cx="31.8"
   cy="27.5"
   r="10.9" /><linearGradient
   id="path688_1_"
   gradientUnits="userSpaceOnUse"
   x1="-388.6646"
   y1="0.6362"
   x2="-388.4829"
   y2="0.3416"
   gradientTransform="matrix(128.591 0 0 111.2992 49983.2422 -32.9248)"><stop
   offset="0"
   style="stop-color:#000000"
   id="stop752" /><stop
   offset="1"
   style="stop-color:#FFFFFF"
   id="stop753" /><a:midPointStop
   offset="0"
   style="stop-color:#000000"
   id="midPointStop754" /><a:midPointStop
   offset="0.5"
   style="stop-color:#000000"
   id="midPointStop755" /><a:midPointStop
   offset="1"
   style="stop-color:#FFFFFF"
   id="midPointStop756" /></linearGradient><path
   id="path688"
   fill="url(#path688_1_)"
   d="M21.2,22.6c0-3-2.6-5.4-5.8-5.4c-3.2,0-5.8,2.4-5.8,5.3l0,0c0,3,2.6,5.4,5.8,5.4       C18.6,28,21.2,25.6,21.2,22.6L21.2,22.6z" /><linearGradient
   id="path689_1_"
   gradientUnits="userSpaceOnUse"
   x1="-388.2227"
   y1="1.0977"
   x2="-387.9774"
   y2="0.6996"
   gradientTransform="matrix(140.3718 0 0 134.9724 54489.1133 -107.8726)"><stop
   offset="0"
   style="stop-color:#000000"
   id="stop759" /><stop
   offset="0.1669"
   style="stop-color:#424242"
   id="stop760" /><stop
   offset="0.3324"
   style="stop-color:#7C7C7C"
   id="stop761" /><stop
   offset="0.4905"
   style="stop-color:#ABABAB"
   id="stop762" /><stop
   offset="0.64"
   style="stop-color:#CFCFCF"
   id="stop763" /><stop
   offset="0.7788"
   style="stop-color:#EAEAEA"
   id="stop764" /><stop
   offset="0.9029"
   style="stop-color:#F9F9F9"
   id="stop765" /><stop
   offset="1"
   style="stop-color:#FFFFFF"
   id="stop766" /><a:midPointStop
   offset="0"
   style="stop-color:#000000"
   id="midPointStop767" /><a:midPointStop
   offset="0.5"
   style="stop-color:#000000"
   id="midPointStop768" /><a:midPointStop
   offset="0.1669"
   style="stop-color:#424242"
   id="midPointStop769" /><a:midPointStop
   offset="0.5"
   style="stop-color:#424242"
   id="midPointStop770" /><a:midPointStop
   offset="0.3324"
   style="stop-color:#7C7C7C"
   id="midPointStop771" /><a:midPointStop
   offset="0.5"
   style="stop-color:#7C7C7C"
   id="midPointStop772" /><a:midPointStop
   offset="0.4905"
   style="stop-color:#ABABAB"
   id="midPointStop773" /><a:midPointStop
   offset="0.5"
   style="stop-color:#ABABAB"
   id="midPointStop774" /><a:midPointStop
   offset="0.64"
   style="stop-color:#CFCFCF"
   id="midPointStop775" /><a:midPointStop
   offset="0.5"
   style="stop-color:#CFCFCF"
   id="midPointStop776" /><a:midPointStop
   offset="0.7788"
   style="stop-color:#EAEAEA"
   id="midPointStop777" /><a:midPointStop
   offset="0.5"
   style="stop-color:#EAEAEA"
   id="midPointStop778" /><a:midPointStop
   offset="0.9029"
   style="stop-color:#F9F9F9"
   id="midPointStop779" /><a:midPointStop
   offset="0.5"
   style="stop-color:#F9F9F9"
   id="midPointStop780" /><a:midPointStop
   offset="1"
   style="stop-color:#FFFFFF"
   id="midPointStop781" /></linearGradient><path
   id="path689"
   fill="url(#path689_1_)"
   d="M15,16.7c0-3.5-2.9-6.4-6.4-6.4s-6.4,2.9-6.4,6.4l0,0c0,3.5,2.9,6.4,6.4,6.4       C12.2,23.1,15,20.2,15,16.7L15,16.7z" /><linearGradient
   id="path685_1_"
   gradientUnits="userSpaceOnUse"
   x1="-389.2598"
   y1="0.3789"
   x2="-389.0247"
   y2="-2.685582e-003"
   gradientTransform="matrix(146.4748 0 0 140.7083 57025.8281 -3.7397)"><stop
   offset="0"
   style="stop-color:#000000"
   id="stop784" /><stop
   offset="0.2175"
   style="stop-color:#3D3D3D"
   id="stop785" /><stop
   offset="0.6048"
   style="stop-color:#A4A4A4"
   id="stop786" /><stop
   offset="0.8739"
   style="stop-color:#E6E6E6"
   id="stop787" /><stop
   offset="1"
   style="stop-color:#FFFFFF"
   id="stop788" /><a:midPointStop
   offset="0"
   style="stop-color:#000000"
   id="midPointStop789" /><a:midPointStop
   offset="0.5"
   style="stop-color:#000000"
   id="midPointStop790" /><a:midPointStop
   offset="0.2175"
   style="stop-color:#3D3D3D"
   id="midPointStop791" /><a:midPointStop
   offset="0.5"
   style="stop-color:#3D3D3D"
   id="midPointStop792" /><a:midPointStop
   offset="0.6048"
   style="stop-color:#A4A4A4"
   id="midPointStop793" /><a:midPointStop
   offset="0.5"
   style="stop-color:#A4A4A4"
   id="midPointStop794" /><a:midPointStop
   offset="0.8739"
   style="stop-color:#E6E6E6"
   id="midPointStop795" /><a:midPointStop
   offset="0.5"
   style="stop-color:#E6E6E6"
   id="midPointStop796" /><a:midPointStop
   offset="1"
   style="stop-color:#FFFFFF"
   id="midPointStop797" /></linearGradient><path
   id="path685"
   fill="url(#path685_1_)"
   d="M30.6,26.7c0-3.7-3-6.7-6.7-6.7c-3.7,0-6.7,3-6.7,6.7l0,0c0,3.7,3,6.7,6.7,6.7       C27.6,33.3,30.6,30.3,30.6,26.7z" /><linearGradient
   id="path687_1_"
   gradientUnits="userSpaceOnUse"
   x1="-388.8779"
   y1="0.9688"
   x2="-388.7135"
   y2="0.7019"
   gradientTransform="matrix(209.2932 0 0 201.0536 81390.1406 -150.0618)"><stop
   offset="0"
   style="stop-color:#000000"
   id="stop800" /><stop
   offset="0.1014"
   style="stop-color:#2F2F2F"
   id="stop801" /><stop
   offset="0.2339"
   style="stop-color:#656565"
   id="stop802" /><stop
   offset="0.3677"
   style="stop-color:#949494"
   id="stop803" /><stop
   offset="0.5"
   style="stop-color:#BBBBBB"
   id="stop804" /><stop
   offset="0.6303"
   style="stop-color:#D9D9D9"
   id="stop805" /><stop
   offset="0.7583"
   style="stop-color:#EEEEEE"
   id="stop806" /><stop
   offset="0.8828"
   style="stop-color:#FBFBFB"
   id="stop807" /><stop
   offset="1"
   style="stop-color:#FFFFFF"
   id="stop808" /><a:midPointStop
   offset="0"
   style="stop-color:#000000"
   id="midPointStop809" /><a:midPointStop
   offset="0.5"
   style="stop-color:#000000"
   id="midPointStop810" /><a:midPointStop
   offset="0.1014"
   style="stop-color:#2F2F2F"
   id="midPointStop811" /><a:midPointStop
   offset="0.5"
   style="stop-color:#2F2F2F"
   id="midPointStop812" /><a:midPointStop
   offset="0.2339"
   style="stop-color:#656565"
   id="midPointStop813" /><a:midPointStop
   offset="0.5"
   style="stop-color:#656565"
   id="midPointStop814" /><a:midPointStop
   offset="0.3677"
   style="stop-color:#949494"
   id="midPointStop815" /><a:midPointStop
   offset="0.5"
   style="stop-color:#949494"
   id="midPointStop816" /><a:midPointStop
   offset="0.5"
   style="stop-color:#BBBBBB"
   id="midPointStop817" /><a:midPointStop
   offset="0.5"
   style="stop-color:#BBBBBB"
   id="midPointStop818" /><a:midPointStop
   offset="0.6303"
   style="stop-color:#D9D9D9"
   id="midPointStop819" /><a:midPointStop
   offset="0.5"
   style="stop-color:#D9D9D9"
   id="midPointStop820" /><a:midPointStop
   offset="0.7583"
   style="stop-color:#EEEEEE"
   id="midPointStop821" /><a:midPointStop
   offset="0.5"
   style="stop-color:#EEEEEE"
   id="midPointStop822" /><a:midPointStop
   offset="0.8828"
   style="stop-color:#FBFBFB"
   id="midPointStop823" /><a:midPointStop
   offset="0.5"
   style="stop-color:#FBFBFB"
   id="midPointStop824" /><a:midPointStop
   offset="1"
   style="stop-color:#FFFFFF"
   id="midPointStop825" /></linearGradient><circle
   id="path687"
   fill="url(#path687_1_)"
   cx="19.2"
   cy="15.6"
   r="9.7" /></g><rect
   id="rect784"
   x="1.8"
   y="1.5"
   i:knockout="Off"
   fill="none"
   width="48"
   height="48" /></g></g></svg>
