<?xml version="1.0" encoding="UTF-8" standalone="no"?>
<!DOCTYPE svg PUBLIC "-//W3C//DTD SVG 20010904//EN"
"http://www.w3.org/TR/2001/REC-SVG-20010904/DTD/svg10.dtd">
<!-- Created with Sodipodi ("http://www.sodipodi.com/") -->
<svg
   xmlns:x="http://ns.adobe.com/Extensibility/1.0/"
   xmlns:i="http://ns.adobe.com/AdobeIllustrator/10.0/"
   xmlns:graph="http://ns.adobe.com/Graphs/1.0/"
   xmlns="http://www.w3.org/2000/svg"
   xmlns:xlink="http://www.w3.org/1999/xlink"
   xmlns:a="http://ns.adobe.com/AdobeSVGViewerExtensions/3.0/"
   xml:space="preserve"
   i:viewOrigin="169.9258 427.7109"
   i:rulerOrigin="0 0"
   i:pageBounds="0 792 612 0"
   width="48"
   height="48.7"
   viewBox="0 0 48 48.7"
   overflow="visible"
   enable-background="new 0 0 48 48.7"
   xmlns:sodipodi="http://sodipodi.sourceforge.net/DTD/sodipodi-0.dtd"
   id="svg602"
   sodipodi:version="0.34"
   sodipodi:docname="C:\msys\home\su_blanc\mldonkey-2.5.12\src\gtk2\rsvg\emoticons\emoticon_secret.svg"><defs
   id="defs835" /><sodipodi:namedview
   id="base" /><g
   id="Layer_1"
   i:knockout="Off"
   i:layer="yes"
   i:dimmedPercent="50"
   i:rgbTrio="#4F008000FFFF"><g
   id="g606"><path
   id="path597_5_"
   i:isolated="yes"
   i:knockout="Off"
   opacity="0.15"
   fill="none"
   stroke="#474000"
   stroke-width="1.8818"
   enable-background="new    "
   d="      M5.6,20.2c0-10.7,8-19.3,17.8-19.3c9.8,0,18.4,8.1,18.4,18.7c0,10.7-8.6,19.9-18.4,19.9C13.6,39.5,5.6,30.9,5.6,20.2z" /><path
   id="path597_4_"
   i:isolated="yes"
   i:knockout="Off"
   opacity="0.2"
   fill="none"
   stroke="#474000"
   stroke-width="0.9409"
   enable-background="new    "
   d="      M5.6,20.2c0-10.7,8-19.3,17.8-19.3c9.8,0,18.4,8.1,18.4,18.7c0,10.7-8.6,19.9-18.4,19.9C13.6,39.5,5.6,30.9,5.6,20.2z" /><path
   id="path597_3_"
   i:isolated="yes"
   i:knockout="Off"
   opacity="0.3"
   fill="none"
   stroke="#474000"
   stroke-width="0.4704"
   enable-background="new    "
   d="      M5.6,20.2c0-10.7,8-19.3,17.8-19.3c9.8,0,18.4,8.1,18.4,18.7c0,10.7-8.6,19.9-18.4,19.9C13.6,39.5,5.6,30.9,5.6,20.2z" /><radialGradient
   id="path700_1_"
   cx="-679.5713"
   cy="-0.7402"
   r="6.388162e-002"
   fx="-679.5713"
   fy="-0.7402"
   gradientTransform="matrix(310.7065 0 0 144.1183 211172.2188 149.3426)"
   gradientUnits="userSpaceOnUse"><stop
   offset="0"
   style="stop-color:#261700"
   id="stop611" /><stop
   offset="1"
   style="stop-color:#D2D2D2"
   id="stop612" /><a:midPointStop
   offset="0"
   style="stop-color:#261700"
   id="midPointStop613" /><a:midPointStop
   offset="0.5"
   style="stop-color:#261700"
   id="midPointStop614" /><a:midPointStop
   offset="1"
   style="stop-color:#D2D2D2"
   id="midPointStop615" /></radialGradient><path
   id="path700"
   i:isolated="yes"
   i:knockout="Off"
   opacity="0.3"
   fill="url(#path700_1_)"
   enable-background="new    "
   d="      M37.9,31.8c6.5,4.5,6,10.6-1.9,14.3c-7.9,3.7-19.5,3.1-25.9-1.5c-5.5-3.8-5.7-9.1-0.5-13.1c3.4,4.7,6.2,6.3,14,7.3      C30.1,38.7,34.3,35.8,37.9,31.8z" /><radialGradient
   id="path577_1_"
   cx="-638.4961"
   cy="42.7715"
   r="41.5567"
   fx="-638.4961"
   fy="42.7715"
   gradientTransform="matrix(298.9032 0 0 316.3969 203151.1563 -98.4275)"
   gradientUnits="userSpaceOnUse"><stop
   offset="0"
   style="stop-color:#FF6F00"
   id="stop618" /><stop
   offset="1"
   style="stop-color:#FFFF00"
   id="stop619" /><a:midPointStop
   offset="0"
   style="stop-color:#FF6F00"
   id="midPointStop620" /><a:midPointStop
   offset="0.5"
   style="stop-color:#FF6F00"
   id="midPointStop621" /><a:midPointStop
   offset="1"
   style="stop-color:#FFFF00"
   id="midPointStop622" /></radialGradient><circle
   id="path577"
   fill="url(#path577_1_)"
   cx="23.9"
   cy="20.4"
   r="17.8" /><linearGradient
   id="path597_1_"
   gradientUnits="userSpaceOnUse"
   x1="-679.5654"
   y1="0.3184"
   x2="-679.5668"
   y2="0.4371"
   gradientTransform="matrix(303.6933 0 0 316.3967 206403.3125 -98.1642)"><stop
   offset="0"
   style="stop-color:#FF6500"
   id="stop625" /><stop
   offset="1"
   style="stop-color:#FFFF00"
   id="stop626" /><a:midPointStop
   offset="0"
   style="stop-color:#FF6500"
   id="midPointStop627" /><a:midPointStop
   offset="0.5"
   style="stop-color:#FF6500"
   id="midPointStop628" /><a:midPointStop
   offset="1"
   style="stop-color:#FFFF00"
   id="midPointStop629" /></linearGradient><path
   id="path597"
   i:isolated="yes"
   i:knockout="Off"
   opacity="0.75"
   fill="url(#path597_1_)"
   enable-background="new    "
   d="      M5.6,20.2c0-10.7,8-19.3,17.8-19.3c9.9,0,18.4,8,18.4,18.7c0,10.7-8.6,19.9-18.4,19.9C13.6,39.5,5.6,30.9,5.6,20.2z" /><radialGradient
   id="path597_6_"
   cx="-486.4063"
   cy="426.7461"
   r="20.2352"
   fx="-486.4063"
   fy="426.7461"
   gradientTransform="matrix(1 0 0 -1 509.7773 427.6934)"
   gradientUnits="userSpaceOnUse"><stop
   offset="0"
   style="stop-color:#FFFFFF"
   id="stop632" /><stop
   offset="0.1046"
   style="stop-color:#FFFEFA"
   id="stop633" /><stop
   offset="0.2282"
   style="stop-color:#FFFBEC"
   id="stop634" /><stop
   offset="0.3616"
   style="stop-color:#FFF7D4"
   id="stop635" /><stop
   offset="0.5018"
   style="stop-color:#FFF1B2"
   id="stop636" /><stop
   offset="0.6474"
   style="stop-color:#FFE988"
   id="stop637" /><stop
   offset="0.7976"
   style="stop-color:#FFDF53"
   id="stop638" /><stop
   offset="0.9487"
   style="stop-color:#FFD316"
   id="stop639" /><stop
   offset="1"
   style="stop-color:#FFCF00"
   id="stop640" /><a:midPointStop
   offset="0"
   style="stop-color:#FFFFFF"
   id="midPointStop641" /><a:midPointStop
   offset="0.5"
   style="stop-color:#FFFFFF"
   id="midPointStop642" /><a:midPointStop
   offset="0.1046"
   style="stop-color:#FFFEFA"
   id="midPointStop643" /><a:midPointStop
   offset="0.5"
   style="stop-color:#FFFEFA"
   id="midPointStop644" /><a:midPointStop
   offset="0.2282"
   style="stop-color:#FFFBEC"
   id="midPointStop645" /><a:midPointStop
   offset="0.5"
   style="stop-color:#FFFBEC"
   id="midPointStop646" /><a:midPointStop
   offset="0.3616"
   style="stop-color:#FFF7D4"
   id="midPointStop647" /><a:midPointStop
   offset="0.5"
   style="stop-color:#FFF7D4"
   id="midPointStop648" /><a:midPointStop
   offset="0.5018"
   style="stop-color:#FFF1B2"
   id="midPointStop649" /><a:midPointStop
   offset="0.5"
   style="stop-color:#FFF1B2"
   id="midPointStop650" /><a:midPointStop
   offset="0.6474"
   style="stop-color:#FFE988"
   id="midPointStop651" /><a:midPointStop
   offset="0.5"
   style="stop-color:#FFE988"
   id="midPointStop652" /><a:midPointStop
   offset="0.7976"
   style="stop-color:#FFDF53"
   id="midPointStop653" /><a:midPointStop
   offset="0.5"
   style="stop-color:#FFDF53"
   id="midPointStop654" /><a:midPointStop
   offset="0.9487"
   style="stop-color:#FFD316"
   id="midPointStop655" /><a:midPointStop
   offset="0.5"
   style="stop-color:#FFD316"
   id="midPointStop656" /><a:midPointStop
   offset="1"
   style="stop-color:#FFCF00"
   id="midPointStop657" /></radialGradient><path
   id="path597_2_"
   i:isolated="yes"
   i:knockout="Off"
   opacity="0.75"
   fill="url(#path597_6_)"
   enable-background="new    "
   d="      M12.2,7.8c0-3.8,5-6.9,11.1-6.9c6.1,0,11.4,2.9,11.4,6.7C34.7,11.4,12.2,11.6,12.2,7.8z" /><rect
   id="rect662"
   y="0.7"
   i:knockout="Off"
   fill="none"
   width="48"
   height="48" /><g
   id="g660"><radialGradient
   id="path630_1_"
   cx="-166.8315"
   cy="426.9336"
   r="0.1161"
   fx="-166.8315"
   fy="426.9336"
   gradientTransform="matrix(-47.451 -5.7882 8.871 -72.7235 -11671.3232 30102.8555)"
   gradientUnits="userSpaceOnUse"><stop
   offset="0"
   style="stop-color:#DEE2E7"
   id="stop662" /><stop
   offset="1"
   style="stop-color:#FFFFFF"
   id="stop663" /><a:midPointStop
   offset="0"
   style="stop-color:#DEE2E7"
   id="midPointStop664" /><a:midPointStop
   offset="0.5"
   style="stop-color:#DEE2E7"
   id="midPointStop665" /><a:midPointStop
   offset="1"
   style="stop-color:#FFFFFF"
   id="midPointStop666" /></radialGradient><path
   id="path630"
   type="arc"
   cx="50.24698"
   cy="478.4100"
   rx="24.52531"
   ry="34.99345"
   fill="url(#path630_1_)"
   stroke="#7C5202"
   stroke-width="0.7116"
   d="       M29.6,18.6c0.4-3.5,2.6-6,4.9-5.8c2.3,0.3,3.8,3.3,3.3,6.8c0,0,0,0,0,0c-0.4,3.5-2.6,6-4.9,5.8C30.7,25.1,29.2,22,29.6,18.6       C29.6,18.6,29.6,18.6,29.6,18.6z" /><g
   id="path631"
   type="arc"
   cx="50.09747"
   cy="476.7646"
   rx="28.86212"
   ry="41.42389"><path
   i:knockout="Off"
   opacity="3.790000e-002"
   fill="none"
   stroke="#000000"
   stroke-width="0.6469"
   d="M29,18.4        c0.5-3.8,3-6.7,5.6-6.3c2.6,0.3,4.4,3.7,3.9,7.5c0,0,0,0,0,0c-0.5,3.8-3,6.7-5.6,6.3C30.3,25.6,28.5,22.3,29,18.4        C29,18.4,29,18.4,29,18.4z"
   id="path669" /></g><g
   id="path632"
   type="arc"
   cx="50.09747"
   cy="476.7646"
   rx="28.86212"
   ry="41.42389"><path
   i:knockout="Off"
   opacity="1.420000e-002"
   fill="none"
   stroke="#000000"
   stroke-width="2.2494"
   d="M29,18.5        c0.5-3.8,3-6.6,5.6-6.3c2.6,0.3,4.4,3.7,3.9,7.5c0,0,0,0,0,0c-0.5,3.8-3,6.6-5.6,6.3C30.3,25.6,28.5,22.3,29,18.5        C29,18.5,29,18.5,29,18.5z"
   id="path671" /></g><g
   id="path633"
   type="arc"
   cx="50.09747"
   cy="476.7646"
   rx="28.86212"
   ry="41.42389"><path
   i:knockout="Off"
   opacity="1.420000e-002"
   fill="none"
   stroke="#000000"
   stroke-width="1.4214"
   d="M29,18.5        c0.5-3.8,3-6.6,5.6-6.3c2.6,0.3,4.4,3.7,3.9,7.5c0,0,0,0,0,0c-0.5,3.8-3,6.6-5.6,6.3C30.3,25.6,28.5,22.3,29,18.5        C29,18.5,29,18.5,29,18.5z"
   id="path673" /></g><g
   id="path634"
   type="arc"
   cx="50.09747"
   cy="476.7646"
   rx="28.86212"
   ry="41.42389"><path
   i:knockout="Off"
   opacity="1.420000e-002"
   fill="none"
   stroke="#000000"
   stroke-width="0.4896"
   d="M29,18.5        c0.5-3.8,3-6.6,5.6-6.3c2.6,0.3,4.4,3.7,3.9,7.5c0,0,0,0,0,0c-0.5,3.8-3,6.6-5.6,6.3C30.3,25.6,28.5,22.3,29,18.5        C29,18.5,29,18.5,29,18.5z"
   id="path675" /></g><g
   id="path635"
   type="arc"
   cx="50.09747"
   cy="476.7646"
   rx="28.86212"
   ry="41.42389"><path
   i:knockout="Off"
   opacity="0.1517"
   fill="none"
   stroke="#000000"
   stroke-width="0.2461"
   d="M29.2,18.5        c0.5-3.7,2.9-6.5,5.4-6.2c2.5,0.3,4.2,3.6,3.7,7.3c0,0,0,0,0,0c-0.5,3.7-2.9,6.5-5.4,6.2C30.4,25.5,28.7,22.2,29.2,18.5        C29.2,18.5,29.2,18.5,29.2,18.5z"
   id="path677" /></g><radialGradient
   id="path637_1_"
   cx="-163.4639"
   cy="426.3994"
   r="0.1072"
   fx="-163.4639"
   fy="426.3994"
   gradientTransform="matrix(-19.7621 -2.4106 2.8315 -23.2123 -4403.8906 9521.4111)"
   gradientUnits="userSpaceOnUse"><stop
   offset="0"
   style="stop-color:#000082"
   id="stop679" /><stop
   offset="1"
   style="stop-color:#000000"
   id="stop680" /><a:midPointStop
   offset="0"
   style="stop-color:#000082"
   id="midPointStop681" /><a:midPointStop
   offset="0.5"
   style="stop-color:#000082"
   id="midPointStop682" /><a:midPointStop
   offset="1"
   style="stop-color:#000000"
   id="midPointStop683" /></radialGradient><path
   id="path637"
   type="arc"
   cx="61.64901"
   cy="495.8291"
   rx="10.46870"
   ry="10.89169"
   fill="url(#path637_1_)"
   d="       M31.3,18.5c0.1-1.1,1-1.9,1.9-1.8c0.9,0.1,1.6,1.1,1.5,2.2c0,0,0,0,0,0c-0.1,1.1-1,1.9-1.9,1.8C31.9,20.6,31.2,19.6,31.3,18.5       L31.3,18.5z" /><radialGradient
   id="path650_1_"
   cx="-169.8882"
   cy="426.8271"
   r="0.1152"
   fx="-169.8882"
   fy="426.8271"
   gradientTransform="matrix(38.305 5.0995 7.1611 -64.0713 3464.1833 28230.5605)"
   gradientUnits="userSpaceOnUse"><stop
   offset="0"
   style="stop-color:#DEE2E7"
   id="stop686" /><stop
   offset="1"
   style="stop-color:#FFFFFF"
   id="stop687" /><a:midPointStop
   offset="0"
   style="stop-color:#DEE2E7"
   id="midPointStop688" /><a:midPointStop
   offset="0.5"
   style="stop-color:#DEE2E7"
   id="midPointStop689" /><a:midPointStop
   offset="1"
   style="stop-color:#FFFFFF"
   id="midPointStop690" /></radialGradient><path
   id="path650"
   type="arc"
   cx="50.24698"
   cy="478.4100"
   rx="24.52531"
   ry="34.99345"
   fill="url(#path650_1_)"
   stroke="#7C3902"
   stroke-width="0.7116"
   d="       M15.6,15.9c0.3-3.1-0.9-5.7-2.7-6c-1.8-0.2-3.6,2-3.9,5.1c0,0,0,0,0,0c-0.3,3.1,0.9,5.7,2.7,6C13.5,21.3,15.2,19,15.6,15.9       C15.6,16,15.6,15.9,15.6,15.9z" /><g
   id="path651"
   type="arc"
   cx="50.09747"
   cy="476.7646"
   rx="28.86212"
   ry="41.42389"><path
   i:knockout="Off"
   opacity="3.790000e-002"
   fill="none"
   stroke="#000000"
   stroke-width="0.6469"
   d="M16.1,16        c0.4-3.4-1-6.3-3.1-6.6c-2.1-0.3-4.1,2.2-4.5,5.6c0,0,0,0,0,0c-0.4,3.4,1,6.3,3.1,6.6C13.7,21.8,15.7,19.3,16.1,16        C16.1,16,16.1,16,16.1,16z"
   id="path693" /></g><g
   id="path652"
   type="arc"
   cx="50.09747"
   cy="476.7646"
   rx="28.86212"
   ry="41.42389"><path
   i:knockout="Off"
   opacity="1.420000e-002"
   fill="none"
   stroke="#000000"
   stroke-width="2.2494"
   d="M16.1,16        c0.4-3.4-1-6.3-3.1-6.6c-2.1-0.3-4.1,2.2-4.5,5.6c0,0,0,0,0,0c-0.4,3.4,1,6.3,3.1,6.6C13.7,21.8,15.7,19.3,16.1,16        C16.1,16,16.1,16,16.1,16z"
   id="path695" /></g><g
   id="path653"
   type="arc"
   cx="50.09747"
   cy="476.7646"
   rx="28.86212"
   ry="41.42389"><path
   i:knockout="Off"
   opacity="1.420000e-002"
   fill="none"
   stroke="#000000"
   stroke-width="1.4214"
   d="M16.1,16        c0.4-3.4-1-6.3-3.1-6.6c-2.1-0.3-4.1,2.2-4.5,5.6c0,0,0,0,0,0c-0.4,3.4,1,6.3,3.1,6.6C13.7,21.8,15.7,19.3,16.1,16        C16.1,16,16.1,16,16.1,16z"
   id="path697" /></g><g
   id="path654"
   type="arc"
   cx="50.09747"
   cy="476.7646"
   rx="28.86212"
   ry="41.42389"><path
   i:knockout="Off"
   opacity="1.420000e-002"
   fill="none"
   stroke="#000000"
   stroke-width="0.4896"
   d="M16.1,16        c0.4-3.4-1-6.3-3.1-6.6c-2.1-0.3-4.1,2.2-4.5,5.6c0,0,0,0,0,0c-0.4,3.4,1,6.3,3.1,6.6C13.7,21.8,15.7,19.3,16.1,16        C16.1,16,16.1,16,16.1,16z"
   id="path699" /></g><g
   id="path655"
   type="arc"
   cx="50.09747"
   cy="476.7646"
   rx="28.86212"
   ry="41.42389"><path
   i:knockout="Off"
   opacity="0.1517"
   fill="none"
   stroke="#000000"
   stroke-width="0.2461"
   d="M15.9,16c0.4-3.3-1-6.2-3-6.5        c-2-0.3-4,2.2-4.4,5.5c0,0,0,0,0,0c-0.4,3.3,1,6.2,3,6.5C13.6,21.7,15.6,19.3,15.9,16C15.9,16,15.9,16,15.9,16z"
   id="path701" /></g><radialGradient
   id="path656_1_"
   cx="-170.8022"
   cy="426.0635"
   r="0.1067"
   fx="-170.8022"
   fy="426.0635"
   gradientTransform="matrix(15.953 2.1238 2.2857 -20.4506 1763.4426 9090.3271)"
   gradientUnits="userSpaceOnUse"><stop
   offset="0"
   style="stop-color:#000082"
   id="stop703" /><stop
   offset="1"
   style="stop-color:#000000"
   id="stop704" /><a:midPointStop
   offset="0"
   style="stop-color:#000082"
   id="midPointStop705" /><a:midPointStop
   offset="0.5"
   style="stop-color:#000082"
   id="midPointStop706" /><a:midPointStop
   offset="1"
   style="stop-color:#000000"
   id="midPointStop707" /></radialGradient><path
   id="path656"
   type="arc"
   cx="61.64901"
   cy="495.8291"
   rx="10.46870"
   ry="10.89169"
   fill="url(#path656_1_)"
   d="       M14.3,15.5c0.1-1-0.4-1.8-1.2-1.9c-0.8-0.1-1.5,0.6-1.6,1.6v0c-0.1,1,0.4,1.8,1.2,1.9C13.4,17.2,14.1,16.5,14.3,15.5       C14.3,15.5,14.3,15.5,14.3,15.5z" /></g><g
   id="g709"><g
   id="g710"
   nodetypes="ccccccccccccccccc"><path
   i:knockout="Off"
   opacity="8.060000e-002"
   fill="none"
   stroke="#000000"
   stroke-width="1.0731"
   d="M3.4,37.5        c-0.2,5,3.6,7.9,6.7,8.7c5.2,1.4,8.2-0.6,10.6-3.5c1.7-0.7,2.9-1.7,3.7-3.3c0.6-1.2,1-2.5,0.5-3.6c-0.5-1.2-1.9-1.5-3.3-1.1        c0.8-2.9,0.9-5.5,0.8-8.3c-0.1-1.7-0.8-3.8-1.9-4.1c-1.2-0.2-2.2,1-2.6,2.3c-0.7,1.5-1,2.8-1.4,4.8c-0.8-0.3-1.3-0.4-2-0.1        c-0.5,0.2-1,0.7-1.2,1.3c-0.5-0.8-1-1.6-1.9-1.9c-1.1-0.2-2.4,0.6-3.1,2.1c-0.4-0.8-0.9-1.2-1.8-1.6c-0.9-0.2-2.2,0.6-2.8,1.6        C2.7,32,2,35.4,3.4,37.5z"
   id="path711" /></g><g
   id="g712"
   nodetypes="ccccccccccccccccc"><path
   i:knockout="Off"
   opacity="8.060000e-002"
   fill="none"
   stroke="#000000"
   stroke-width="1.6573"
   d="M3.5,37.6        c-0.2,5,3.6,7.9,6.7,8.7c5.2,1.4,8.2-0.6,10.6-3.5c1.7-0.7,2.9-1.7,3.7-3.3c0.6-1.2,1-2.5,0.5-3.6c-0.5-1.2-1.9-1.5-3.3-1.1        c0.8-2.9,0.9-5.5,0.8-8.3c-0.1-1.7-0.8-3.8-1.9-4.1c-1.2-0.2-2.2,1-2.6,2.3c-0.7,1.5-1,2.8-1.4,4.8c-0.8-0.3-1.3-0.4-2-0.1        c-0.5,0.2-1,0.7-1.2,1.3c-0.5-0.8-1-1.6-1.9-1.9c-1.1-0.2-2.4,0.6-3.1,2.1c-0.4-0.8-0.9-1.2-1.8-1.6c-0.9-0.2-2.2,0.6-2.8,1.6        C2.8,32.1,2.1,35.5,3.5,37.6z"
   id="path713" /></g><path
   id="path672"
   nodetypes="ccccccccccccccccc"
   fill="#FFFFFF"
   d="M3.4,37.5c-0.2,5,3.6,7.9,6.7,8.7       c5.2,1.4,8.2-0.6,10.6-3.5c1.7-0.7,2.9-1.7,3.7-3.3c0.6-1.2,1-2.5,0.5-3.6c-0.5-1.2-1.9-1.5-3.3-1.1c0.8-2.9,0.9-5.5,0.8-8.3       c-0.1-1.7-0.8-3.8-1.9-4.1c-1.2-0.2-2.2,1-2.6,2.3c-0.7,1.5-1,2.8-1.4,4.8c-0.8-0.3-1.3-0.4-2-0.1c-0.5,0.2-1,0.7-1.2,1.3       c-0.5-0.8-1-1.6-1.9-1.9c-1.1-0.2-2.4,0.6-3.1,2.1c-0.4-0.8-0.9-1.2-1.8-1.6c-0.9-0.2-2.2,0.6-2.8,1.6C2.7,32,2,35.4,3.4,37.5z       " /><g
   id="path649"
   type="arc"
   cx="186.1092"
   cy="677.1830"
   rx="46.52730"
   ry="47.79620"><radialGradient
   id="XMLID_1_"
   cx="-178.0757"
   cy="433.7793"
   r="7.519531e-002"
   fx="-178.0757"
   fy="433.7793"
   gradientTransform="matrix(26.2094 3.8964 3.2374 -29.477 3282.5325 13511.5791)"
   gradientUnits="userSpaceOnUse"><stop
   offset="0"
   style="stop-color:#6E6D6D"
   id="stop717" /><stop
   offset="1"
   style="stop-color:#000000"
   id="stop718" /><a:midPointStop
   offset="0"
   style="stop-color:#6E6D6D"
   id="midPointStop719" /><a:midPointStop
   offset="0.5"
   style="stop-color:#6E6D6D"
   id="midPointStop720" /><a:midPointStop
   offset="1"
   style="stop-color:#000000"
   id="midPointStop721" /></radialGradient><path
   i:knockout="Off"
   fill="url(#XMLID_1_)"
   d="M21.6,31.6c0.1-1.2-0.6-2.3-1.7-2.5c-1.1-0.2-2.1,0.7-2.2,1.9l0,0        c-0.1,1.2,0.6,2.3,1.7,2.5C20.4,33.7,21.4,32.8,21.6,31.6L21.6,31.6z"
   id="path722" /><path
   i:knockout="Off"
   opacity="5.000000e-002"
   fill="none"
   stroke="#000000"
   stroke-width="3.075"
   d="M21.6,31.6        c0.1-1.2-0.6-2.3-1.7-2.5c-1.1-0.2-2.1,0.7-2.2,1.9l0,0c-0.1,1.2,0.6,2.3,1.7,2.5C20.4,33.7,21.4,32.8,21.6,31.6L21.6,31.6z"
   id="path723" /></g><g
   id="path647"
   type="arc"
   cx="186.1092"
   cy="677.1830"
   rx="46.52730"
   ry="47.79620"><path
   i:knockout="Off"
   fill="url(#XMLID_1_)"
   d="M21.6,31.6c0.1-1.2-0.6-2.3-1.7-2.5c-1.1-0.2-2.1,0.7-2.2,1.9l0,0        c-0.1,1.2,0.6,2.3,1.7,2.5C20.4,33.7,21.4,32.8,21.6,31.6L21.6,31.6z"
   id="path725" /><path
   i:knockout="Off"
   opacity="5.000000e-002"
   fill="none"
   stroke="#000000"
   stroke-width="4.0313"
   d="M21.6,31.6        c0.1-1.2-0.6-2.3-1.7-2.5c-1.1-0.2-2.1,0.7-2.2,1.9l0,0c-0.1,1.2,0.6,2.3,1.7,2.5C20.4,33.7,21.4,32.8,21.6,31.6L21.6,31.6z"
   id="path726" /></g><g
   id="path662"
   type="arc"
   cx="186.1092"
   cy="677.1830"
   rx="46.52730"
   ry="47.79620"><path
   i:knockout="Off"
   fill="url(#XMLID_1_)"
   d="M21.6,31.6c0.1-1.2-0.6-2.3-1.7-2.5c-1.1-0.2-2.1,0.7-2.2,1.9l0,0        c-0.1,1.2,0.6,2.3,1.7,2.5C20.4,33.7,21.4,32.8,21.6,31.6L21.6,31.6z"
   id="path728" /><path
   i:knockout="Off"
   opacity="5.000000e-002"
   fill="none"
   stroke="#000000"
   stroke-width="1.9313"
   d="M21.6,31.6        c0.1-1.2-0.6-2.3-1.7-2.5c-1.1-0.2-2.1,0.7-2.2,1.9l0,0c-0.1,1.2,0.6,2.3,1.7,2.5C20.4,33.7,21.4,32.8,21.6,31.6L21.6,31.6z"
   id="path729" /></g><g
   id="path663"
   type="arc"
   cx="186.1092"
   cy="677.1830"
   rx="46.52730"
   ry="47.79620"><path
   i:knockout="Off"
   fill="url(#XMLID_1_)"
   d="M21.6,31.6c0.1-1.2-0.6-2.3-1.7-2.5c-1.1-0.2-2.1,0.7-2.2,1.9l0,0        c-0.1,1.2,0.6,2.3,1.7,2.5C20.4,33.7,21.4,32.8,21.6,31.6L21.6,31.6z"
   id="path731" /><path
   i:knockout="Off"
   opacity="5.000000e-002"
   fill="none"
   stroke="#000000"
   stroke-width="2.1938"
   d="M21.6,31.6        c0.1-1.2-0.6-2.3-1.7-2.5c-1.1-0.2-2.1,0.7-2.2,1.9l0,0c-0.1,1.2,0.6,2.3,1.7,2.5C20.4,33.7,21.4,32.8,21.6,31.6L21.6,31.6z"
   id="path732" /></g><g
   id="path664"
   type="arc"
   cx="186.1092"
   cy="677.1830"
   rx="46.52730"
   ry="47.79620"><path
   i:knockout="Off"
   fill="url(#XMLID_1_)"
   d="M21.6,31.6c0.1-1.2-0.6-2.3-1.7-2.5c-1.1-0.2-2.1,0.7-2.2,1.9l0,0        c-0.1,1.2,0.6,2.3,1.7,2.5C20.4,33.7,21.4,32.8,21.6,31.6L21.6,31.6z"
   id="path734" /><path
   i:knockout="Off"
   opacity="5.000000e-002"
   fill="none"
   stroke="#000000"
   stroke-width="5.4"
   d="M21.6,31.6        c0.1-1.2-0.6-2.3-1.7-2.5c-1.1-0.2-2.1,0.7-2.2,1.9l0,0c-0.1,1.2,0.6,2.3,1.7,2.5C20.4,33.7,21.4,32.8,21.6,31.6L21.6,31.6z"
   id="path735" /></g><g
   id="path640"
   type="arc"
   cx="186.1092"
   cy="677.1830"
   rx="46.52730"
   ry="47.79620"><path
   i:knockout="Off"
   fill="url(#XMLID_1_)"
   d="M21.6,31.6c0.1-1.2-0.6-2.3-1.7-2.5c-1.1-0.2-2.1,0.7-2.2,1.9l0,0        c-0.1,1.2,0.6,2.3,1.7,2.5C20.4,33.7,21.4,32.8,21.6,31.6L21.6,31.6z"
   id="path737" /><path
   i:knockout="Off"
   opacity="0.9451"
   fill="none"
   stroke="#561900"
   stroke-width="1.05"
   d="M21.6,31.6        c0.1-1.2-0.6-2.3-1.7-2.5c-1.1-0.2-2.1,0.7-2.2,1.9l0,0c-0.1,1.2,0.6,2.3,1.7,2.5C20.4,33.7,21.4,32.8,21.6,31.6L21.6,31.6z"
   id="path738" /></g><radialGradient
   id="path648_1_"
   cx="-169.7695"
   cy="428.457"
   r="0.1427"
   fx="-169.7695"
   fy="428.457"
   gradientTransform="matrix(120.9869 17.9864 11.5953 -105.5783 15584.3721 48330.3711)"
   gradientUnits="userSpaceOnUse"><stop
   offset="0"
   style="stop-color:#FF6F00"
   id="stop740" /><stop
   offset="1"
   style="stop-color:#FFFF00"
   id="stop741" /><a:midPointStop
   offset="0"
   style="stop-color:#FF6F00"
   id="midPointStop742" /><a:midPointStop
   offset="0.5"
   style="stop-color:#FF6F00"
   id="midPointStop743" /><a:midPointStop
   offset="1"
   style="stop-color:#FFFF00"
   id="midPointStop744" /></radialGradient><path
   id="path648"
   type="arc"
   cx="381.0391"
   cy="1027.239"
   rx="108.2701"
   ry="74.17401"
   fill="url(#path648_1_)"
   d="       M21.5,40c0.5-4.4-3.2-8.5-8.2-9.3s-9.5,2.2-9.9,6.6c0,0,0,0,0,0c-0.5,4.4,3.2,8.5,8.2,9.3C16.6,47.3,21,44.4,21.5,40       C21.5,40,21.5,40,21.5,40z" /><radialGradient
   id="path689_1_"
   cx="-169.6807"
   cy="428.4766"
   r="0.1035"
   fx="-169.6807"
   fy="428.4766"
   gradientTransform="matrix(119.4855 0 0 -111.5589 20286.6953 47838.2188)"
   gradientUnits="userSpaceOnUse"><stop
   offset="0"
   style="stop-color:#FFFFFF"
   id="stop747" /><stop
   offset="1"
   style="stop-color:#F5FFFF"
   id="stop748" /><a:midPointStop
   offset="0"
   style="stop-color:#FFFFFF"
   id="midPointStop749" /><a:midPointStop
   offset="0.5"
   style="stop-color:#FFFFFF"
   id="midPointStop750" /><a:midPointStop
   offset="1"
   style="stop-color:#F5FFFF"
   id="midPointStop751" /></radialGradient><path
   id="path689"
   nodetypes="ccccc"
   opacity="0.4"
   fill="url(#path689_1_)"
   d="M12.9,47.1c-7.7-0.2-9.6-5.9-8.9-8.9       c0.9-3.1,3.9-7.7,8.9-7.9c4.9-0.2,7.6,3.8,8.7,7.5C22.4,40.5,20.5,46.9,12.9,47.1z" /><g
   id="path660"
   type="arc"
   cx="305.9678"
   cy="963.8319"
   rx="32.00250"
   ry="52.63962"><radialGradient
   id="XMLID_7_"
   cx="-173.7764"
   cy="429.2764"
   r="8.017632e-002"
   fx="-173.7764"
   fy="429.2764"
   gradientTransform="matrix(53.1496 7.9014 9.4433 -85.983 5201.7876 38313.4492)"
   gradientUnits="userSpaceOnUse"><stop
   offset="0"
   style="stop-color:#FF6F00"
   id="stop755" /><stop
   offset="1"
   style="stop-color:#FFFF00"
   id="stop756" /><a:midPointStop
   offset="0"
   style="stop-color:#FF6F00"
   id="midPointStop757" /><a:midPointStop
   offset="0.5"
   style="stop-color:#FF6F00"
   id="midPointStop758" /><a:midPointStop
   offset="1"
   style="stop-color:#FFFF00"
   id="midPointStop759" /></radialGradient><path
   i:knockout="Off"
   fill="url(#XMLID_7_)"
   d="M22.4,31.1c0.5-4.7-0.4-8.6-2.1-8.9c-1.7-0.3-3.5,3.3-4,8s0.4,8.6,2.1,8.9        S21.9,35.7,22.4,31.1L22.4,31.1z"
   id="path760" /><path
   i:knockout="Off"
   opacity="0.1943"
   fill="none"
   stroke="#000000"
   stroke-width="0.6848"
   d="M22.4,31.1        c0.5-4.7-0.4-8.6-2.1-8.9c-1.7-0.3-3.5,3.3-4,8s0.4,8.6,2.1,8.9S21.9,35.7,22.4,31.1L22.4,31.1z"
   id="path761" /></g><g
   id="path658"
   type="arc"
   cx="305.9678"
   cy="963.8319"
   rx="32.00250"
   ry="52.63962"><radialGradient
   id="XMLID_8_"
   cx="-174.4106"
   cy="430.4268"
   r="7.470863e-002"
   fx="-174.4106"
   fy="430.4268"
   gradientTransform="matrix(40.7095 6.052 7.233 -65.8579 4002.0693 29436.2422)"
   gradientUnits="userSpaceOnUse"><stop
   offset="0"
   style="stop-color:#FF6F00"
   id="stop764" /><stop
   offset="1"
   style="stop-color:#FFFF00"
   id="stop765" /><a:midPointStop
   offset="0"
   style="stop-color:#FF6F00"
   id="midPointStop766" /><a:midPointStop
   offset="0.5"
   style="stop-color:#FF6F00"
   id="midPointStop767" /><a:midPointStop
   offset="1"
   style="stop-color:#FFFF00"
   id="midPointStop768" /></radialGradient><path
   i:knockout="Off"
   fill="url(#XMLID_8_)"
   d="M18.1,34.3c0.3-2.7-0.8-5.1-2.5-5.4c-1.7-0.3-3.3,1.8-3.6,4.5        c-0.3,2.7,0.8,5.1,2.5,5.4C16.2,39.1,17.8,37.1,18.1,34.3L18.1,34.3z"
   id="path769" /><path
   i:knockout="Off"
   opacity="0.1943"
   fill="none"
   stroke="#000000"
   stroke-width="0.894"
   d="M18.1,34.3        c0.3-2.7-0.8-5.1-2.5-5.4c-1.7-0.3-3.3,1.8-3.6,4.5c-0.3,2.7,0.8,5.1,2.5,5.4C16.2,39.1,17.8,37.1,18.1,34.3L18.1,34.3z"
   id="path770" /></g><g
   id="path657"
   type="arc"
   cx="305.9678"
   cy="963.8319"
   rx="32.00250"
   ry="52.63962"><radialGradient
   id="XMLID_9_"
   cx="-173.7949"
   cy="430.4502"
   r="7.495157e-002"
   fx="-173.7949"
   fy="430.4502"
   gradientTransform="matrix(40.7095 6.052 7.233 -65.8579 3972.1006 29434.3672)"
   gradientUnits="userSpaceOnUse"><stop
   offset="0"
   style="stop-color:#FF6F00"
   id="stop773" /><stop
   offset="1"
   style="stop-color:#FFFF00"
   id="stop774" /><a:midPointStop
   offset="0"
   style="stop-color:#FF6F00"
   id="midPointStop775" /><a:midPointStop
   offset="0.5"
   style="stop-color:#FF6F00"
   id="midPointStop776" /><a:midPointStop
   offset="1"
   style="stop-color:#FFFF00"
   id="midPointStop777" /></radialGradient><path
   i:knockout="Off"
   fill="url(#XMLID_9_)"
   d="M13.6,34c0.3-2.7-0.8-5.1-2.5-5.4c-1.7-0.3-3.3,1.8-3.6,4.5        c-0.3,2.7,0.8,5.1,2.5,5.4C11.7,38.8,13.3,36.8,13.6,34L13.6,34z"
   id="path778" /><path
   i:knockout="Off"
   opacity="0.1943"
   fill="none"
   stroke="#000000"
   stroke-width="0.894"
   d="M13.6,34        c0.3-2.7-0.8-5.1-2.5-5.4c-1.7-0.3-3.3,1.8-3.6,4.5c-0.3,2.7,0.8,5.1,2.5,5.4C11.7,38.8,13.3,36.8,13.6,34L13.6,34z"
   id="path779" /></g><g
   id="path646"
   type="arc"
   cx="305.9678"
   cy="963.8319"
   rx="32.00250"
   ry="52.63962"><radialGradient
   id="XMLID_10_"
   cx="-173.1279"
   cy="430.5498"
   r="7.519531e-002"
   fx="-173.1279"
   fy="430.5498"
   gradientTransform="matrix(40.7095 6.052 7.233 -65.8579 3939.3506 29436.8047)"
   gradientUnits="userSpaceOnUse"><stop
   offset="0"
   style="stop-color:#FF6F00"
   id="stop782" /><stop
   offset="1"
   style="stop-color:#FFFF00"
   id="stop783" /><a:midPointStop
   offset="0"
   style="stop-color:#FF6F00"
   id="midPointStop784" /><a:midPointStop
   offset="0.5"
   style="stop-color:#FF6F00"
   id="midPointStop785" /><a:midPointStop
   offset="1"
   style="stop-color:#FFFF00"
   id="midPointStop786" /></radialGradient><path
   i:knockout="Off"
   fill="url(#XMLID_10_)"
   d="M8.7,34.4C9,31.7,7.9,29.3,6.2,29c-1.7-0.3-3.3,1.8-3.6,4.5        c-0.3,2.7,0.8,5.1,2.5,5.4C6.8,39.2,8.4,37.1,8.7,34.4L8.7,34.4z"
   id="path787" /><path
   i:knockout="Off"
   opacity="0.1943"
   fill="none"
   stroke="#000000"
   stroke-width="0.894"
   d="M8.7,34.4        C9,31.7,7.9,29.3,6.2,29c-1.7-0.3-3.3,1.8-3.6,4.5c-0.3,2.7,0.8,5.1,2.5,5.4C6.8,39.2,8.4,37.1,8.7,34.4L8.7,34.4z"
   id="path788" /></g><g
   id="path661"
   type="arc"
   cx="305.9678"
   cy="963.8319"
   rx="32.00250"
   ry="52.63962"><radialGradient
   id="XMLID_11_"
   cx="-175.8628"
   cy="430.6602"
   r="8.107822e-002"
   fx="-175.8628"
   fy="430.6602"
   gradientTransform="matrix(40.7095 6.052 7.2331 -65.8579 4065.1973 29465.832)"
   gradientUnits="userSpaceOnUse"><stop
   offset="0"
   style="stop-color:#FF6F00"
   id="stop791" /><stop
   offset="1"
   style="stop-color:#FFFF00"
   id="stop792" /><a:midPointStop
   offset="0"
   style="stop-color:#FF6F00"
   id="midPointStop793" /><a:midPointStop
   offset="0.5"
   style="stop-color:#FF6F00"
   id="midPointStop794" /><a:midPointStop
   offset="1"
   style="stop-color:#FFFF00"
   id="midPointStop795" /></radialGradient><path
   i:knockout="Off"
   fill="url(#XMLID_11_)"
   d="M23.5,40.7c1.8-2,2.2-4.6,0.9-5.7c-1.3-1.1-3.8-0.4-5.6,1.7        c-1.8,2-2.2,4.6-0.9,5.7S21.7,42.7,23.5,40.7L23.5,40.7z"
   id="path796" /><path
   i:knockout="Off"
   opacity="0.1943"
   fill="none"
   stroke="#000000"
   stroke-width="0.894"
   d="M23.5,40.7        c1.8-2,2.2-4.6,0.9-5.7c-1.3-1.1-3.8-0.4-5.6,1.7c-1.8,2-2.2,4.6-0.9,5.7S21.7,42.7,23.5,40.7L23.5,40.7z"
   id="path797" /></g><path
   id="path670"
   nodetypes="ccccccccccccccccc"
   fill="none"
   stroke="#645440"
   stroke-width="0.4888"
   stroke-linecap="round"
   stroke-linejoin="round"
   d="       M3.4,37.7c-0.2,5,3.6,7.9,6.7,8.7c5.2,1.4,8.2-0.6,10.6-3.5c1.7-0.7,2.9-1.7,3.7-3.3c0.6-1.2,1-2.5,0.5-3.6       c-0.5-1.2-1.9-1.5-3.3-1.1c0.8-2.9,0.9-5.5,0.8-8.3c-0.1-1.7-0.8-3.8-1.9-4.1c-1.2-0.2-2.2,1-2.6,2.3c-0.7,1.5-1,2.8-1.4,4.8       c-0.8-0.3-1.3-0.4-2-0.1c-0.5,0.2-1,0.7-1.2,1.3c-0.5-0.8-1-1.6-1.9-1.9c-1.1-0.2-2.4,0.6-3.1,2.1c-0.4-0.8-0.9-1.2-1.8-1.6       c-0.9-0.2-2.2,0.6-2.8,1.6C2.7,32.2,2.1,35.6,3.4,37.7z" /><radialGradient
   id="path679_1_"
   cx="-169.061"
   cy="432.0498"
   r="0.1036"
   fx="-169.061"
   fy="432.0498"
   gradientTransform="matrix(26.1688 0 0 -20.0384 4429.7852 8688.5439)"
   gradientUnits="userSpaceOnUse"><stop
   offset="0"
   style="stop-color:#FFFFFF"
   id="stop800" /><stop
   offset="1"
   style="stop-color:#F5FFFF"
   id="stop801" /><a:midPointStop
   offset="0"
   style="stop-color:#FFFFFF"
   id="midPointStop802" /><a:midPointStop
   offset="0.5"
   style="stop-color:#FFFFFF"
   id="midPointStop803" /><a:midPointStop
   offset="1"
   style="stop-color:#F5FFFF"
   id="midPointStop804" /></radialGradient><path
   id="path679"
   nodetypes="ccccc"
   opacity="0.6"
   fill="url(#path679_1_)"
   d="M5.9,32.5c-1.7,0-2.1-1.1-1.9-1.6       c0.2-0.6,0.8-1.4,1.9-1.4c1.1,0,1.7,0.7,1.9,1.4C8,31.4,7.5,32.5,5.9,32.5z" /><radialGradient
   id="path681_1_"
   cx="-170.1567"
   cy="432.1777"
   r="0.1035"
   fx="-170.1567"
   fy="432.1777"
   gradientTransform="matrix(25.2716 0 0 -18.842 4310.8296 8173.2695)"
   gradientUnits="userSpaceOnUse"><stop
   offset="0"
   style="stop-color:#FFFFFF"
   id="stop807" /><stop
   offset="1"
   style="stop-color:#F5FFFF"
   id="stop808" /><a:midPointStop
   offset="0"
   style="stop-color:#FFFFFF"
   id="midPointStop809" /><a:midPointStop
   offset="0.5"
   style="stop-color:#FFFFFF"
   id="midPointStop810" /><a:midPointStop
   offset="1"
   style="stop-color:#F5FFFF"
   id="midPointStop811" /></radialGradient><path
   id="path681"
   nodetypes="ccccc"
   opacity="0.6"
   fill="url(#path681_1_)"
   d="M10.8,31.8c-1.6,0-2-1-1.9-1.5       c0.2-0.5,0.8-1.3,1.9-1.3c1,0,1.6,0.6,1.9,1.3C12.8,30.7,12.4,31.8,10.8,31.8z" /><radialGradient
   id="path683_1_"
   cx="-171.188"
   cy="432.0488"
   r="0.1038"
   fx="-171.188"
   fy="432.0488"
   gradientTransform="matrix(24.9724 0 0 -19.7393 4290.1855 8558.8389)"
   gradientUnits="userSpaceOnUse"><stop
   offset="0"
   style="stop-color:#FFFFFF"
   id="stop814" /><stop
   offset="1"
   style="stop-color:#F5FFFF"
   id="stop815" /><a:midPointStop
   offset="0"
   style="stop-color:#FFFFFF"
   id="midPointStop816" /><a:midPointStop
   offset="0.5"
   style="stop-color:#FFFFFF"
   id="midPointStop817" /><a:midPointStop
   offset="1"
   style="stop-color:#F5FFFF"
   id="midPointStop818" /></radialGradient><path
   id="path683"
   nodetypes="ccccc"
   opacity="0.6"
   fill="url(#path683_1_)"
   d="M15.3,32.2c-1.6,0-2-1-1.9-1.6       c0.2-0.6,0.8-1.4,1.9-1.4c1,0,1.6,0.7,1.8,1.3C17.3,31.1,16.9,32.2,15.3,32.2z" /><radialGradient
   id="path685_1_"
   cx="-171.6289"
   cy="431.8555"
   r="0.1034"
   fx="-171.6289"
   fy="431.8555"
   gradientTransform="matrix(37.3964 0 0 -28.179 6440.3066 12205.9268)"
   gradientUnits="userSpaceOnUse"><stop
   offset="0"
   style="stop-color:#FFFFFF"
   id="stop821" /><stop
   offset="1"
   style="stop-color:#F5FFFF"
   id="stop822" /><a:midPointStop
   offset="0"
   style="stop-color:#FFFFFF"
   id="midPointStop823" /><a:midPointStop
   offset="0.5"
   style="stop-color:#FFFFFF"
   id="midPointStop824" /><a:midPointStop
   offset="1"
   style="stop-color:#F5FFFF"
   id="midPointStop825" /></radialGradient><path
   id="path685"
   nodetypes="ccccc"
   opacity="0.5"
   fill="url(#path685_1_)"
   d="M22.7,38.9c-2.4,0.7-3.4-0.4-3.4-1.1       c0-0.8,0.6-2.1,2.2-2.7c1.5-0.5,2.6,0.1,3.2,0.9C25.1,36.4,25,38.1,22.7,38.9z" /><radialGradient
   id="path687_1_"
   cx="-173.5049"
   cy="431.1328"
   r="0.1039"
   fx="-173.5049"
   fy="431.1328"
   gradientTransform="matrix(17.4951 0 0 -14.0566 3055.4934 6083.7261)"
   gradientUnits="userSpaceOnUse"><stop
   offset="0"
   style="stop-color:#FFFFFF"
   id="stop828" /><stop
   offset="1"
   style="stop-color:#F5FFFF"
   id="stop829" /><a:midPointStop
   offset="0"
   style="stop-color:#FFFFFF"
   id="midPointStop830" /><a:midPointStop
   offset="0.5"
   style="stop-color:#FFFFFF"
   id="midPointStop831" /><a:midPointStop
   offset="1"
   style="stop-color:#F5FFFF"
   id="midPointStop832" /></radialGradient><path
   id="path687"
   nodetypes="ccccc"
   opacity="0.7"
   fill="url(#path687_1_)"
   d="M20.2,24.7c-1.1,0-1.4-0.7-1.3-1.1       c0.1-0.4,0.6-1,1.3-1c0.7,0,1.1,0.5,1.3,1C21.6,23.9,21.3,24.7,20.2,24.7z" /></g></g></g></svg>
