<?xml version="1.0" encoding="UTF-8" standalone="no"?>
<!DOCTYPE svg PUBLIC "-//W3C//DTD SVG 20010904//EN"
"http://www.w3.org/TR/2001/REC-SVG-20010904/DTD/svg10.dtd">
<!-- Created with Sodipodi ("http://www.sodipodi.com/") -->
<svg
   xmlns:x="http://ns.adobe.com/Extensibility/1.0/"
   xmlns:i="http://ns.adobe.com/AdobeIllustrator/10.0/"
   xmlns:graph="http://ns.adobe.com/Graphs/1.0/"
   xmlns="http://www.w3.org/2000/svg"
   xmlns:xlink="http://www.w3.org/1999/xlink"
   xmlns:a="http://ns.adobe.com/AdobeSVGViewerExtensions/3.0/"
   xml:space="preserve"
   i:viewOrigin="201.4639 455.4814"
   i:rulerOrigin="0 0"
   i:pageBounds="0 792 612 0"
   width="49.2"
   height="48"
   viewBox="0 0 49.2 48"
   overflow="visible"
   enable-background="new 0 0 49.2 48"
   xmlns:sodipodi="http://sodipodi.sourceforge.net/DTD/sodipodi-0.dtd"
   id="svg602"
   sodipodi:version="0.34"
   sodipodi:docname="C:\msys\home\su_blanc\mldonkey-2.5.12\src\gtk2\rsvg\emoticons\emoticon_bat.svg"><defs
   id="defs667" /><sodipodi:namedview
   id="namedview666" /><g
   id="Layer_1"
   i:layer="yes"
   i:dimmedPercent="50"
   i:rgbTrio="#4F008000FFFF"><g
   id="g606"><g
   id="g607"><radialGradient
   id="path633_1_"
   cx="-201.1196"
   cy="455.8086"
   r="8.433717e-002"
   fx="-201.1497"
   fy="455.8874"
   gradientTransform="matrix(522.8659 0 0 -191.6858 105183.0469 87415.1719)"
   gradientUnits="userSpaceOnUse"><stop
   offset="0"
   style="stop-color:#000000"
   id="stop609" /><stop
   offset="1"
   style="stop-color:#FFFFFF"
   id="stop610" /><a:midPointStop
   offset="0"
   style="stop-color:#000000"
   id="midPointStop611" /><a:midPointStop
   offset="0.5"
   style="stop-color:#000000"
   id="midPointStop612" /><a:midPointStop
   offset="1"
   style="stop-color:#FFFFFF"
   id="midPointStop613" /></radialGradient><path
   id="path633"
   nodetypes="csssss"
   opacity="0.2"
   fill="url(#path633_1_)"
   d="M24.4,43.3C8.8,43.2,2.1,39.5,2.1,37       c-0.2-4.2,12.5-10.1,12.7-10.2c0.1-0.1,16.5,0.1,19.8,0.1c0.2,0,12.7,4.4,12.5,9.8C47.2,39.2,41.7,43.4,24.4,43.3z" /><linearGradient
   id="path649_1_"
   gradientUnits="userSpaceOnUse"
   x1="-8086.4639"
   y1="-8131.5186"
   x2="-8087.1929"
   y2="-8130.834"><stop
   offset="0"
   style="stop-color:#000082"
   id="stop616" /><stop
   offset="1"
   style="stop-color:#000000"
   id="stop617" /><a:midPointStop
   offset="0"
   style="stop-color:#000082"
   id="midPointStop618" /><a:midPointStop
   offset="0.5"
   style="stop-color:#000082"
   id="midPointStop619" /><a:midPointStop
   offset="1"
   style="stop-color:#000000"
   id="midPointStop620" /></linearGradient><path
   id="path649"
   nodetypes="ccccsscccccccccccc"
   fill="none"
   stroke="url(#path649_1_)"
   stroke-width="1.9001"
   stroke-linejoin="round"
   d="       M12.3,10.6C12.5,10.4,1,23.9,1,23.9l8.7,12.8l5-7.3l4.8,9.6c0.2,0.4,3.7-7.3,5.6-7.1c2.1,0,5,7.3,5,7.3l4.6-9.8l4.5,8.8       c0,0,8.9-12.5,9-12.5c0.1,0-10.9-14.7-10.9-14.7l-8.6,8.6l0.1-14.6L26.8,10l-3.6-0.1l-2-5l0.1,14.4L12.3,10.6z" /><linearGradient
   id="path649_3_"
   gradientUnits="userSpaceOnUse"
   x1="0.8647"
   y1="21.8696"
   x2="48.1455"
   y2="21.8696"><stop
   offset="0"
   style="stop-color:#FFFFFF"
   id="stop623" /><stop
   offset="0.3685"
   style="stop-color:#969696"
   id="stop624" /><stop
   offset="0.6768"
   style="stop-color:#454545"
   id="stop625" /><stop
   offset="0.8935"
   style="stop-color:#131313"
   id="stop626" /><stop
   offset="1"
   style="stop-color:#000000"
   id="stop627" /><a:midPointStop
   offset="0"
   style="stop-color:#FFFFFF"
   id="midPointStop628" /><a:midPointStop
   offset="0.452"
   style="stop-color:#FFFFFF"
   id="midPointStop629" /><a:midPointStop
   offset="1"
   style="stop-color:#000000"
   id="midPointStop630" /></linearGradient><path
   id="path649_2_"
   nodetypes="ccccsscccccccccccc"
   fill="url(#path649_3_)"
   d="M12.3,10.4       c0.1-0.1-11.4,13.3-11.4,13.3l8.7,12.8l5-7.3l4.8,9.6c0.2,0.4,3.7-7.3,5.6-7.2c2.1,0,5,7.3,5,7.3l4.6-9.8l4.5,8.8       c0,0,8.9-12.5,9-12.5c0.1,0-10.9-14.7-10.9-14.7l-8.6,8.6l0.1-14.6l-2.1,5.1l-3.6-0.1l-2-5l0.1,14.4L12.3,10.4z" /><linearGradient
   id="path654_1_"
   gradientUnits="userSpaceOnUse"
   x1="20.7876"
   y1="31.9756"
   x2="33.2649"
   y2="9.1575"><stop
   offset="0"
   style="stop-color:#FFFFFF"
   id="stop633" /><stop
   offset="9.126375e-002"
   style="stop-color:#F9F9F9"
   id="stop634" /><stop
   offset="0.2172"
   style="stop-color:#E7E7E7"
   id="stop635" /><stop
   offset="0.3633"
   style="stop-color:#CACACA"
   id="stop636" /><stop
   offset="0.5246"
   style="stop-color:#A1A1A1"
   id="stop637" /><stop
   offset="0.6984"
   style="stop-color:#6D6D6D"
   id="stop638" /><stop
   offset="0.8798"
   style="stop-color:#2E2E2E"
   id="stop639" /><stop
   offset="1"
   style="stop-color:#000000"
   id="stop640" /><a:midPointStop
   offset="0"
   style="stop-color:#FFFFFF"
   id="midPointStop641" /><a:midPointStop
   offset="0.6384"
   style="stop-color:#FFFFFF"
   id="midPointStop642" /><a:midPointStop
   offset="1"
   style="stop-color:#000000"
   id="midPointStop643" /></linearGradient><path
   id="path654"
   nodetypes="ccsccccccccc"
   opacity="0.7"
   fill="url(#path654_1_)"
   d="M12.3,10.5       c0.1-0.1-7.8,8.9-10.3,11.6c2.5,0.3,11.3,7.9,22.4,3.1c11.8-5.3,22.6,1.3,24.2,0.1c-1-0.9-11.2-14.5-11.2-14.5l-8.6,8.5       l0.1-14.4l-2.1,5l-3.6-0.1l-2-4.9l0.1,14.2L12.3,10.5z" /><radialGradient
   id="path655_1_"
   cx="-202.4126"
   cy="453.3379"
   r="7.098413e-002"
   fx="-202.4126"
   fy="453.3379"
   gradientTransform="matrix(40.9161 0.8011 1.1069 -44.1805 7802.0806 20202.7031)"
   gradientUnits="userSpaceOnUse"><stop
   offset="0"
   style="stop-color:#FFFFFF"
   id="stop646" /><stop
   offset="1"
   style="stop-color:#000000"
   id="stop647" /><a:midPointStop
   offset="0"
   style="stop-color:#FFFFFF"
   id="midPointStop648" /><a:midPointStop
   offset="0.5"
   style="stop-color:#FFFFFF"
   id="midPointStop649" /><a:midPointStop
   offset="1"
   style="stop-color:#000000"
   id="midPointStop650" /></radialGradient><radialGradient
   id="path655_2_"
   cx="-200.0303"
   cy="454.8027"
   r="0.3673"
   fx="-200.0303"
   fy="454.8027"
   gradientUnits="userSpaceOnUse"><stop
   offset="0"
   style="stop-color:#A6002F"
   id="stop652" /><stop
   offset="1"
   style="stop-color:#220000"
   id="stop653" /><a:midPointStop
   offset="0"
   style="stop-color:#A6002F"
   id="midPointStop654" /><a:midPointStop
   offset="0.5"
   style="stop-color:#A6002F"
   id="midPointStop655" /><a:midPointStop
   offset="1"
   style="stop-color:#220000"
   id="midPointStop656" /></radialGradient><path
   id="path655"
   type="arc"
   cx="-84.59517"
   cy="547.3290"
   rx="28.76236"
   ry="31.30020"
   fill="url(#path655_1_)"
   stroke="url(#path655_2_)"
   stroke-width="8.624881e-002"
   d="       M24.5,12.5c0-1.1-0.7-1.9-1.7-1.9c-1,0-1.8,0.8-1.8,1.9c0,0,0,0,0,0c0,1.1,0.7,1.9,1.7,1.9C23.6,14.4,24.4,13.6,24.5,12.5       C24.5,12.5,24.5,12.5,24.5,12.5z" /><radialGradient
   id="path660_1_"
   cx="-203.645"
   cy="453.3545"
   r="7.136638e-002"
   fx="-203.645"
   fy="453.3545"
   gradientTransform="matrix(40.9161 0.8011 1.1069 -44.1805 7857.2368 20204.5781)"
   gradientUnits="userSpaceOnUse"><stop
   offset="0"
   style="stop-color:#FFFFFF"
   id="stop659" /><stop
   offset="1"
   style="stop-color:#000000"
   id="stop660" /><a:midPointStop
   offset="0"
   style="stop-color:#FFFFFF"
   id="midPointStop661" /><a:midPointStop
   offset="0.5"
   style="stop-color:#FFFFFF"
   id="midPointStop662" /><a:midPointStop
   offset="1"
   style="stop-color:#000000"
   id="midPointStop663" /></radialGradient><path
   id="path660"
   type="arc"
   cx="-84.59517"
   cy="547.3290"
   rx="28.76236"
   ry="31.30020"
   fill="url(#path660_1_)"
   stroke="url(#path655_2_)"
   stroke-width="8.624881e-002"
   d="       M29.2,12.7c0-1.1-0.7-1.9-1.7-1.9c-1,0-1.8,0.8-1.8,1.9c0,0,0,0,0,0c0,1.1,0.7,1.9,1.7,1.9C28.4,14.6,29.2,13.7,29.2,12.7       C29.2,12.7,29.2,12.7,29.2,12.7z" /></g><rect
   x="0.7"
   i:knockout="Off"
   fill="none"
   width="48"
   height="48"
   id="rect665" /></g></g></svg>
