<?xml version="1.0" encoding="UTF-8" standalone="no"?>
<!DOCTYPE svg PUBLIC "-//W3C//DTD SVG 20010904//EN"
"http://www.w3.org/TR/2001/REC-SVG-20010904/DTD/svg10.dtd">
<!-- Created with Sodipodi ("http://www.sodipodi.com/") -->
<svg
   xmlns:x="http://ns.adobe.com/Extensibility/1.0/"
   xmlns:i="http://ns.adobe.com/AdobeIllustrator/10.0/"
   xmlns:graph="http://ns.adobe.com/Graphs/1.0/"
   xmlns="http://www.w3.org/2000/svg"
   xmlns:xlink="http://www.w3.org/1999/xlink"
   xmlns:a="http://ns.adobe.com/AdobeSVGViewerExtensions/3.0/"
   xml:space="preserve"
   i:viewOrigin="166.2808 462.6094"
   i:rulerOrigin="0 0"
   i:pageBounds="0 792 612 0"
   width="48"
   height="48"
   viewBox="0 0 48 48"
   overflow="visible"
   enable-background="new 0 0 48 48"
   xmlns:sodipodi="http://sodipodi.sourceforge.net/DTD/sodipodi-0.dtd"
   id="svg602"
   sodipodi:version="0.34"
   sodipodi:docname="C:\msys\home\su_blanc\mldonkey-2.5.12\src\gtk2\rsvg\emoticons\emoticon_beer.svg"><defs
   id="defs729" /><sodipodi:namedview
   id="base" /><g
   id="Layer_1"
   i:knockout="Off"
   i:layer="yes"
   i:dimmedPercent="50"
   i:rgbTrio="#4F008000FFFF"><g
   id="g606"><g
   id="path830"
   i:knockout="Off"><linearGradient
   id="path615_1_"
   gradientUnits="userSpaceOnUse"
   x1="-332.5059"
   y1="-15.6953"
   x2="-332.4219"
   y2="-15.6953"
   gradientTransform="matrix(142.3644 0 0 74.4379 47348.8086 1200.2842)"><stop
   offset="0"
   style="stop-color:#EBBA2F"
   id="stop609" /><stop
   offset="1"
   style="stop-color:#FFFF00"
   id="stop610" /><a:midPointStop
   offset="0"
   style="stop-color:#EBBA2F"
   id="midPointStop611" /><a:midPointStop
   offset="0.5"
   style="stop-color:#EBBA2F"
   id="midPointStop612" /><a:midPointStop
   offset="1"
   style="stop-color:#FFFF00"
   id="midPointStop613" /></linearGradient><path
   id="path615"
   i:isolated="yes"
   i:knockout="Off"
   opacity="4.270000e-002"
   fill="url(#path615_1_)"
   enable-background="new    "
   d="       M28.4,35.1c1.6,0.2,4.8-1.1,7.1-2c1.5-0.6,3.9-1.6,4.1-2.4c0.2-0.7-1.8-2-3-1.9c-2.6,0.3-6.5,1.9-8.4,3.4       C27.3,32.9,27.5,35,28.4,35.1z" /></g><g
   id="path829"
   i:knockout="Off"><path
   id="path617"
   i:isolated="yes"
   i:knockout="Off"
   opacity="4.270000e-002"
   enable-background="new    "
   d="M18.9,37       c3.4,1.6,11.1-0.4,16.3-1.6c3.5-0.8,9.2-2.5,10-4.7c0.7-1.9-3-7.5-5.7-7.8c-5.8-0.6-15,1.8-19.8,5.1       C17.7,29.4,17.1,36.2,18.9,37z" /></g><g
   id="path828"
   i:knockout="Off"><path
   id="path619"
   i:isolated="yes"
   i:knockout="Off"
   opacity="4.270000e-002"
   enable-background="new    "
   d="M21.3,35.7       c2.9,1.3,9.5-0.3,13.9-1.3c3-0.7,7.9-2,8.6-3.8c0.6-1.5-2.6-6-4.9-6.2c-5-0.5-12.8,1.4-17,4.1C20.3,29.6,19.8,35,21.3,35.7z" /></g><g
   id="path826"
   i:knockout="Off"><path
   id="path621"
   i:isolated="yes"
   i:knockout="Off"
   opacity="4.270000e-002"
   enable-background="new    "
   d="M19.7,37.8       c3.6,1.6,11.8-0.4,17.4-1.7c3.8-0.9,9.9-2.5,10.7-4.8c0.7-2-3.2-7.7-6.1-8c-6.2-0.6-16,1.9-21.2,5.3C18.4,30,17.8,37,19.7,37.8       z" /></g><path
   id="path821"
   i:isolated="yes"
   i:knockout="Off"
   opacity="0.3"
   fill="none"
   stroke="#000000"
   stroke-width="2.0265"
   stroke-linejoin="round"
   enable-background="new    "
   d="      M25.7,14.7c0.6-0.8,0.7-1.3,1.4-1.8c0.8-0.7,2.2-0.8,3.3-0.5c0.5,0.2,0.5,0.7,0.7,2.1c0.2,1,0.7,4.1,0.7,5.4      c0.1,2.1-0.2,3.1-0.7,4.5c-0.2,0.7-0.7,1.4-1.4,1.7c-0.6,0.3-1.5,0.2-2.2,0.1c-0.2,0-2-0.5-2-0.5c0-0.3,0-0.6-0.1-0.9      c0-3.1-0.1-6.3-0.1-9.4C25.5,15.1,25.5,14.8,25.7,14.7z" /><path
   id="path817"
   i:isolated="yes"
   i:knockout="Off"
   opacity="0.4"
   fill="none"
   stroke="#000000"
   stroke-width="1.68"
   enable-background="new    "
   d="      M25.4,35.9c0.9-0.4,0.7-2.8-0.2-3.4c0.3-0.5,0.4-2.4,0.4-2.7c4,0.1,7.2-2,7.2-2c1.1-0.5,1.6-2.3,1.6-7.1      c0.1-3.6-0.2-9.2-2.4-10.9c-1.1-0.5-5.6-0.5-6.6,1.1c-0.3,0-0.2-0.8-0.1-1.2c0.3-1.6,0.7-2.7-0.2-5c-0.1-0.4-0.9-0.3-1.4-0.3      c-1.2,0.1-2.6,0.2-3.9,0.1c-3.4-0.2-6-1.2-9.4-1.2C9.3,3.2,7.2,4,6.1,4.5C4.8,5.2,3.5,6.1,2.5,7.2C2,7.6,1.7,8.3,1.7,9      c0,0.9,0.4,2.2,0.9,2.8c0.5,0.5,1.4,0.9,2.2,0.7c0.6,6.2-0.6,19.4-0.1,20.1c-1,0.4-0.9,2.8-0.1,3.3c2.4,1.5,6.6,2.4,9.9,2.4      C18.2,38.3,21.9,37.2,25.4,35.9z" /><radialGradient
   id="path700_1_"
   cx="-332.1553"
   cy="-1.0498"
   r="3.593370e-002"
   fx="-332.1545"
   fy="-1.0555"
   gradientTransform="matrix(366.4239 0 0 133.5708 121723.8281 178.9695)"
   gradientUnits="userSpaceOnUse"><stop
   offset="0"
   style="stop-color:#261700"
   id="stop624" /><stop
   offset="1"
   style="stop-color:#FFFFFF"
   id="stop625" /><a:midPointStop
   offset="0"
   style="stop-color:#261700"
   id="midPointStop626" /><a:midPointStop
   offset="0.5"
   style="stop-color:#261700"
   id="midPointStop627" /><a:midPointStop
   offset="1"
   style="stop-color:#FFFFFF"
   id="midPointStop628" /></radialGradient><path
   id="path700"
   i:isolated="yes"
   i:knockout="Off"
   opacity="0.25"
   fill="url(#path700_1_)"
   enable-background="new    "
   d="      M28.9,34.1c4.6,3.2,0.4,6.5-5.3,9.1C18,45.9,9.4,44.9,4.8,41.6c-3.9-2.7-6.8-5.3-3.1-8.1c2.4,3.4,7.7,4.6,12.9,4.6      C19.5,37.6,26.2,36.9,28.9,34.1z" /><g
   id="path645"
   i:knockout="Off"
   opacity="0.4"><radialGradient
   id="path638_1_"
   cx="-332.1953"
   cy="-3.6621"
   r="0.1055"
   fx="-332.1953"
   fy="-3.6621"
   gradientTransform="matrix(109.0142 0 0 235.5801 36226.8242 972.8152)"
   gradientUnits="userSpaceOnUse"><stop
   offset="0"
   style="stop-color:#DEE2E7"
   id="stop632" /><stop
   offset="1"
   style="stop-color:#FFFFFF"
   id="stop633" /><a:midPointStop
   offset="0"
   style="stop-color:#DEE2E7"
   id="midPointStop634" /><a:midPointStop
   offset="0.5"
   style="stop-color:#DEE2E7"
   id="midPointStop635" /><a:midPointStop
   offset="1"
   style="stop-color:#FFFFFF"
   id="midPointStop636" /></radialGradient><path
   id="path638"
   fill="url(#path638_1_)"
   d="M25.5,25.8c-0.6,1.5-0.4,2.6,0,3.7c0.1,0.4,5.1-0.2,7.3-2c2.5-2,1-12.8-0.2-16.3       c-0.2-0.5-0.6-1.2-1-1.3c-1.9-0.3-5.1-0.1-6.1,1.1c-0.7,0.9-0.5,2.6-0.1,3.6c0.1,0.4,1-1.8,1.8-2.1c1.2-0.5,3.2-1.1,3.6,0.1       c1,3.1,1.8,9,0.3,12.2c-1.1,2.4-3.1,1.6-4,1.5C26.8,26.3,25.7,25.5,25.5,25.8z" /><path
   id="path639"
   i:isolated="yes"
   i:knockout="Off"
   opacity="0.1611"
   fill="none"
   stroke="#000000"
   stroke-width="0.4683"
   enable-background="new    "
   d="       M25.5,25.8c-0.6,1.5-0.4,2.6,0,3.7c0.1,0.4,5.1-0.2,7.3-2c2.5-2,1-12.8-0.2-16.3c-0.2-0.5-0.6-1.2-1-1.3       c-1.9-0.3-5.1-0.1-6.1,1.1c-0.7,0.9-0.5,2.6-0.1,3.6c0.1,0.4,1-1.8,1.8-2.1c1.2-0.5,3.2-1.1,3.6,0.1c1,3.1,1.8,9,0.3,12.2       c-1.1,2.4-3.1,1.6-4,1.5C26.8,26.3,25.7,25.5,25.5,25.8z" /></g><linearGradient
   id="path646_1_"
   gradientUnits="userSpaceOnUse"
   x1="-332.1929"
   y1="0.4341"
   x2="-332.149"
   y2="0.4335"
   gradientTransform="matrix(249.847 0 0 292.1136 83008.1875 -104.5149)"><stop
   offset="0"
   style="stop-color:#FF6F00"
   id="stop640" /><stop
   offset="1"
   style="stop-color:#FFFF00"
   id="stop641" /><a:midPointStop
   offset="0"
   style="stop-color:#FF6F00"
   id="midPointStop642" /><a:midPointStop
   offset="0.5"
   style="stop-color:#FF6F00"
   id="midPointStop643" /><a:midPointStop
   offset="1"
   style="stop-color:#FFFF00"
   id="midPointStop644" /></linearGradient><path
   id="path646"
   fill="url(#path646_1_)"
   d="M25.2,32.6C19,35,10.7,34.7,4.9,32.5c-1-0.2,0.6-6.5-0.1-20      c0.8-0.1,1.8-0.8,2.7-1.4c5.3,0,10.6,0,15.9-0.4c0.6-0.1,1.5-0.5,2-1C25.4,19.6,25.9,31.9,25.2,32.6z" /><radialGradient
   id="path647_1_"
   cx="-332.1157"
   cy="1.7676"
   r="4.896372e-002"
   fx="-332.1157"
   fy="1.7676"
   gradientTransform="matrix(285.2248 0 0 108.9027 94740.1016 -180.8603)"
   gradientUnits="userSpaceOnUse"><stop
   offset="0"
   style="stop-color:#AB9780"
   id="stop647" /><stop
   offset="1"
   style="stop-color:#E3DCDC"
   id="stop648" /><a:midPointStop
   offset="0"
   style="stop-color:#AB9780"
   id="midPointStop649" /><a:midPointStop
   offset="0.5"
   style="stop-color:#AB9780"
   id="midPointStop650" /><a:midPointStop
   offset="1"
   style="stop-color:#E3DCDC"
   id="midPointStop651" /></radialGradient><path
   id="path647"
   fill="url(#path647_1_)"
   d="M25.4,9.7c0.4-1.5,0.4-3.9-0.2-5c-0.5-0.8-2.3-0.1-3.9-0.2      c-6-0.2-9.8-2.5-14.6-0.1c-0.5,0.2-5,2.2-4.9,4.7c0.1,2.6,1.4,3.1,2.7,3.4c1.2,0.3,2.6-1.4,3.4-1.4c3.8,0.3,10,0.3,15.1-0.3      C23.6,10.7,25.3,10.2,25.4,9.7z" /><radialGradient
   id="path587_1_"
   cx="-331.9375"
   cy="2.6699"
   r="5.763725e-002"
   fx="-331.9375"
   fy="2.6699"
   gradientTransform="matrix(154.4034 0 0 69.429 51262.5664 -179.5048)"
   gradientUnits="userSpaceOnUse"><stop
   offset="0"
   style="stop-color:#FFFFFF"
   id="stop654" /><stop
   offset="1"
   style="stop-color:#F5FFFF"
   id="stop655" /><a:midPointStop
   offset="0"
   style="stop-color:#FFFFFF"
   id="midPointStop656" /><a:midPointStop
   offset="0.5"
   style="stop-color:#FFFFFF"
   id="midPointStop657" /><a:midPointStop
   offset="1"
   style="stop-color:#F5FFFF"
   id="midPointStop658" /></radialGradient><path
   id="path587"
   i:isolated="yes"
   i:knockout="Off"
   opacity="0.6"
   fill="url(#path587_1_)"
   enable-background="new    "
   d="      M10.9,9.3c-5.6,0.1-7-1.8-6.6-2.9c0.6-1.1,2.7-2.8,6.4-3c3.5-0.2,5.6,1.1,6.4,2.4C17.6,6.8,16.4,9,10.9,9.3z" /><g
   id="path788"
   i:knockout="Off"><path
   id="path662"
   i:isolated="yes"
   i:knockout="Off"
   opacity="0.9194"
   fill="#FFFFFF"
   enable-background="new    "
   d="       M5.5,13.7C6.1,14.2,7,14,7.7,13.6c-0.3,3.2-0.3,6.6-0.4,9.6C6.7,23.8,6,23,5.5,21.9C5.6,19.7,5.6,16.5,5.5,13.7z" /></g><linearGradient
   id="path790_1_"
   gradientUnits="userSpaceOnUse"
   x1="-343.4111"
   y1="-1.1416"
   x2="-343.3271"
   y2="-1.1416"
   gradientTransform="matrix(12.5588 0 0 49.4991 4337.9624 84.1313)"><stop
   offset="0"
   style="stop-color:#000000"
   id="stop663" /><stop
   offset="1"
   style="stop-color:#070000"
   id="stop664" /><a:midPointStop
   offset="0"
   style="stop-color:#000000"
   id="midPointStop665" /><a:midPointStop
   offset="0.5"
   style="stop-color:#000000"
   id="midPointStop666" /><a:midPointStop
   offset="1"
   style="stop-color:#070000"
   id="midPointStop667" /></linearGradient><path
   id="path790"
   fill="url(#path790_1_)"
   d="M25.7,25.7c-0.5,0.4-0.5,1.2-0.6,2c0,0-0.1,0.7,0.4,1.8c0.5,0.9,0.3-1.1,0.3-1.5      C26,27.3,26.6,25,25.7,25.7z" /><linearGradient
   id="path791_1_"
   gradientUnits="userSpaceOnUse"
   x1="-341.8223"
   y1="2.2412"
   x2="-341.7383"
   y2="2.2412"
   gradientTransform="matrix(14.4714 0 0 48.1289 4971.5806 -95.2938)"><stop
   offset="0"
   style="stop-color:#000000"
   id="stop670" /><stop
   offset="1"
   style="stop-color:#070000"
   id="stop671" /><a:midPointStop
   offset="0"
   style="stop-color:#000000"
   id="midPointStop672" /><a:midPointStop
   offset="0.5"
   style="stop-color:#000000"
   id="midPointStop673" /><a:midPointStop
   offset="1"
   style="stop-color:#070000"
   id="midPointStop674" /></linearGradient><path
   id="path791"
   opacity="0.5"
   fill="url(#path791_1_)"
   d="M25.8,10.6c-0.5,0.4-0.9,1.3-0.9,2.1c0,0-0.1,0.6,0.4,1.7      c0.4,0.8,0.1-0.9,0.1-1.3C25.5,12.4,26.7,10,25.8,10.6z" /><linearGradient
   id="path792_1_"
   gradientUnits="userSpaceOnUse"
   x1="-337.9761"
   y1="3.3667"
   x2="-338.0023"
   y2="3.4709"
   gradientTransform="matrix(31.7537 0 0 28.3231 10762.4102 -84.3447)"><stop
   offset="0"
   style="stop-color:#000000"
   id="stop677" /><stop
   offset="1"
   style="stop-color:#070000"
   id="stop678" /><a:midPointStop
   offset="0"
   style="stop-color:#000000"
   id="midPointStop679" /><a:midPointStop
   offset="0.5"
   style="stop-color:#000000"
   id="midPointStop680" /><a:midPointStop
   offset="1"
   style="stop-color:#070000"
   id="midPointStop681" /></linearGradient><path
   id="path792"
   opacity="0.5"
   fill="url(#path792_1_)"
   d="M31.2,13.5c0-0.7-0.6-1.2-0.9-1.3c-0.5-0.3-0.3-0.1-1.5-0.3      c-1-0.1,1.6-0.7,2-0.5C31.3,11.9,31.2,14.7,31.2,13.5z" /><linearGradient
   id="path800_1_"
   gradientUnits="userSpaceOnUse"
   x1="-334.127"
   y1="2.5122"
   x2="-334.1338"
   y2="2.2588"
   gradientTransform="matrix(83.655 0 0 42.6338 27980.0391 -90.7723)"><stop
   offset="0"
   style="stop-color:#261700"
   id="stop684" /><stop
   offset="1"
   style="stop-color:#5A4F1F"
   id="stop685" /><a:midPointStop
   offset="0"
   style="stop-color:#261700"
   id="midPointStop686" /><a:midPointStop
   offset="0.5"
   style="stop-color:#261700"
   id="midPointStop687" /><a:midPointStop
   offset="1"
   style="stop-color:#5A4F1F"
   id="midPointStop688" /></linearGradient><path
   id="path800"
   opacity="0.5"
   fill="url(#path800_1_)"
   d="M25.1,12.4c1.5-0.9,4.9-1.9,6.4-1.4c0.8,0.3,0.5,3.2,0.2,3.1      c-1-0.2-0.4-1.6-1.1-1.9c-0.9-0.4-2.4-0.1-3.4,0.3c-0.7,0.3-1.2,2-1.6,2C25.3,14.5,24.6,12.7,25.1,12.4z" /><linearGradient
   id="path802_1_"
   gradientUnits="userSpaceOnUse"
   x1="-333.8594"
   y1="-1.1519"
   x2="-333.8865"
   y2="-1.2021"
   gradientTransform="matrix(102.452 0 0 48.9568 34235.625 85.0459)"><stop
   offset="0"
   style="stop-color:#261700"
   id="stop691" /><stop
   offset="1"
   style="stop-color:#5A4F1F"
   id="stop692" /><a:midPointStop
   offset="0"
   style="stop-color:#261700"
   id="midPointStop693" /><a:midPointStop
   offset="0.5"
   style="stop-color:#261700"
   id="midPointStop694" /><a:midPointStop
   offset="1"
   style="stop-color:#5A4F1F"
   id="midPointStop695" /></linearGradient><path
   id="path802"
   opacity="0.5"
   fill="url(#path802_1_)"
   d="M33.1,27.3c-1.3,1.1-5.4,2.6-6.9,2.4c-0.8-0.1-1.1-2.1-0.8-2.1      c1,0,0.9,0.2,1.6,0.4c0.9,0.2,2.2,0.1,3.1-0.5c0.6-0.4,3.3-1.9,3.7-1.9C34.1,25.6,33.5,27,33.1,27.3z" /><g
   id="path818"
   i:knockout="Off"><path
   id="path699"
   i:isolated="yes"
   i:knockout="Off"
   opacity="3.000000e-002"
   fill="none"
   stroke="#000000"
   stroke-width="0.945"
   enable-background="new    "
   d="       M25.4,35.9c0.9-0.4,0.7-2.8-0.2-3.4c0.3-0.5,0.4-2.4,0.4-2.7c4,0.1,7.2-2,7.2-2c1.1-0.5,1.6-2.3,1.6-7.1       c0.1-3.6-0.2-9.2-2.4-10.9c-1.1-0.5-5.6-0.5-6.6,1.1c-0.3,0-0.2-0.8-0.1-1.2c0.3-1.6,0.7-2.7-0.2-5c-0.1-0.4-0.9-0.3-1.4-0.3       c-1.2,0.1-2.6,0.2-3.9,0.1c-3.4-0.2-6-1.2-9.4-1.2C9.3,3.2,7.2,4,6.1,4.5C4.8,5.2,3.5,6.1,2.5,7.2C2,7.6,1.7,8.3,1.7,9       c0,0.9,0.4,2.2,0.9,2.8c0.5,0.5,1.4,0.9,2.2,0.7c0.6,6.2-0.6,19.4-0.1,20.1c-1,0.4-0.9,2.8-0.1,3.3c2.4,1.5,6.6,2.4,9.9,2.4       C18.2,38.3,21.9,37.2,25.4,35.9z" /></g><linearGradient
   id="path644_1_"
   gradientUnits="userSpaceOnUse"
   x1="-332.2124"
   y1="-1.9717"
   x2="-332.1954"
   y2="-1.9704"
   gradientTransform="matrix(261.2641 0 0 65.878 86798.7109 165.1383)"><stop
   offset="0"
   style="stop-color:#000000"
   id="stop700" /><stop
   offset="1"
   style="stop-color:#070000"
   id="stop701" /><a:midPointStop
   offset="0"
   style="stop-color:#000000"
   id="midPointStop702" /><a:midPointStop
   offset="0.5"
   style="stop-color:#000000"
   id="midPointStop703" /><a:midPointStop
   offset="1"
   style="stop-color:#070000"
   id="midPointStop704" /></linearGradient><path
   id="path644"
   i:isolated="yes"
   i:knockout="Off"
   opacity="0.4"
   fill="url(#path644_1_)"
   enable-background="new    "
   d="      M4.7,36.2C9.1,39,19,39,25.3,36.2c0.7-0.5,1.1-3.1,0-3.4C19,35.1,10.4,35,4.8,32.6C3.7,32.7,3.9,35.8,4.7,36.2z" /><linearGradient
   id="path759_1_"
   gradientUnits="userSpaceOnUse"
   x1="-332.1172"
   y1="-1.96"
   x2="-332.1486"
   y2="-1.9698"
   gradientTransform="matrix(261.2641 0 0 65.8783 86799.4609 165.1183)"><stop
   offset="0"
   style="stop-color:#000000"
   id="stop707" /><stop
   offset="1"
   style="stop-color:#070000"
   id="stop708" /><a:midPointStop
   offset="0"
   style="stop-color:#000000"
   id="midPointStop709" /><a:midPointStop
   offset="0.5"
   style="stop-color:#000000"
   id="midPointStop710" /><a:midPointStop
   offset="1"
   style="stop-color:#070000"
   id="midPointStop711" /></linearGradient><path
   id="path759"
   i:isolated="yes"
   i:knockout="Off"
   opacity="0.15"
   fill="url(#path759_1_)"
   enable-background="new    "
   d="      M4.8,36.1c5.2,2.3,14.1,2.6,20.6-0.1c0.7-0.5,1.1-3.1,0-3.4c-6.3,2.3-14.9,2.2-20.5-0.2C3.8,32.5,3.9,35.6,4.8,36.1z" /><radialGradient
   id="path752_1_"
   cx="-332.1685"
   cy="-3.9854"
   r="8.342230e-002"
   fx="-332.1685"
   fy="-3.9854"
   gradientTransform="matrix(156.1983 0 0 37.629 51892.4883 184.9105)"
   gradientUnits="userSpaceOnUse"><stop
   offset="0"
   style="stop-color:#EB852F"
   id="stop714" /><stop
   offset="1"
   style="stop-color:#FFFF00"
   id="stop715" /><a:midPointStop
   offset="0"
   style="stop-color:#EB852F"
   id="midPointStop716" /><a:midPointStop
   offset="0.5"
   style="stop-color:#EB852F"
   id="midPointStop717" /><a:midPointStop
   offset="1"
   style="stop-color:#FFFF00"
   id="midPointStop718" /></radialGradient><path
   id="path752"
   i:isolated="yes"
   i:knockout="Off"
   opacity="0.9"
   fill="url(#path752_1_)"
   enable-background="new    "
   d="      M7.4,35.8c3,1.4,8.3,1.9,12.3,0.7c0.4-0.2,0.8-1.6,0.1-1.8c-3.9,1-9,0.8-12.2-0.7C6.9,34.1,6.9,35.6,7.4,35.8z" /><linearGradient
   id="path772_1_"
   gradientUnits="userSpaceOnUse"
   x1="-331.5327"
   y1="0.4932"
   x2="-331.3793"
   y2="0.4951"
   gradientTransform="matrix(42.0685 0 0 408.573 13956.7461 -181.0118)"><stop
   offset="0"
   style="stop-color:#FFFFFF"
   id="stop721" /><stop
   offset="1"
   style="stop-color:#F5FFFF"
   id="stop722" /><a:midPointStop
   offset="0"
   style="stop-color:#FFFFFF"
   id="midPointStop723" /><a:midPointStop
   offset="0.5"
   style="stop-color:#FFFFFF"
   id="midPointStop724" /><a:midPointStop
   offset="1"
   style="stop-color:#F5FFFF"
   id="midPointStop725" /></linearGradient><path
   id="path772"
   i:isolated="yes"
   i:knockout="Off"
   opacity="0.6"
   fill="url(#path772_1_)"
   enable-background="new    "
   d="      M10.6,10.8c0.8,7.4-0.2,15.4-0.2,22.9c0,0.3-0.6,0.5-0.6,0.8c-0.2,1-0.4,2.4,0.1,3.1c0.6,0,1.8,0,2.1,0c0.4-0.7-0.2-2.1-0.1-3.3      c0-0.3-0.1-0.5-0.1-0.8c-0.1-7.6,0.7-15.2,0.4-22.9c-0.5-2.3-1.2-5.1,0.1-7.3c-0.9-0.1-0.9,0.1-1.8-0.1      C8.2,5.8,8.1,8.3,10.6,10.8z" /><rect
   id="rect728"
   x="0"
   i:knockout="Off"
   fill="none"
   width="48"
   height="48" /></g></g></svg>
