<?xml version="1.0" encoding="UTF-8" standalone="no"?>
<!DOCTYPE svg PUBLIC "-//W3C//DTD SVG 20010904//EN"
"http://www.w3.org/TR/2001/REC-SVG-20010904/DTD/svg10.dtd">
<!-- Created with Sodipodi ("http://www.sodipodi.com/") -->
<svg
   xmlns:x="http://ns.adobe.com/Extensibility/1.0/"
   xmlns:i="http://ns.adobe.com/AdobeIllustrator/10.0/"
   xmlns:graph="http://ns.adobe.com/Graphs/1.0/"
   xmlns="http://www.w3.org/2000/svg"
   xmlns:xlink="http://www.w3.org/1999/xlink"
   xmlns:a="http://ns.adobe.com/AdobeSVGViewerExtensions/3.0/"
   xml:space="preserve"
   i:viewOrigin="169.6299 427.6699"
   i:rulerOrigin="0 0"
   i:pageBounds="0 792 612 0"
   width="48"
   height="48.7"
   viewBox="0 0 48 48.7"
   overflow="visible"
   enable-background="new 0 0 48 48.7"
   xmlns:sodipodi="http://sodipodi.sourceforge.net/DTD/sodipodi-0.dtd"
   id="svg602"
   sodipodi:version="0.34"
   sodipodi:docname="C:\msys\home\su_blanc\mldonkey-2.5.12\src\gtk2\rsvg\emoticons\emoticon_baringteeth.svg"><defs
   id="defs770" /><sodipodi:namedview
   id="namedview769" /><g
   id="Layer_1"
   i:knockout="Off"
   i:layer="yes"
   i:dimmedPercent="50"
   i:rgbTrio="#4F008000FFFF"><g
   id="g606"
   i:knockout="Off"><path
   id="path597_5_"
   i:isolated="yes"
   i:knockout="Off"
   opacity="0.15"
   fill="none"
   stroke="#474000"
   stroke-width="1.8818"
   enable-background="new    "
   d="      M5.9,20.2c0-10.7,8-19.3,17.8-19.3c9.8,0,18.4,8.1,18.4,18.7c0,10.7-8.6,19.9-18.4,19.9C13.9,39.5,5.9,30.9,5.9,20.2z" /><path
   id="path597_4_"
   i:isolated="yes"
   i:knockout="Off"
   opacity="0.2"
   fill="none"
   stroke="#474000"
   stroke-width="0.9409"
   enable-background="new    "
   d="      M5.9,20.2c0-10.7,8-19.3,17.8-19.3c9.8,0,18.4,8.1,18.4,18.7c0,10.7-8.6,19.9-18.4,19.9C13.9,39.5,5.9,30.9,5.9,20.2z" /><path
   id="path597_3_"
   i:isolated="yes"
   i:knockout="Off"
   opacity="0.3"
   fill="none"
   stroke="#474000"
   stroke-width="0.4704"
   enable-background="new    "
   d="      M5.9,20.2c0-10.7,8-19.3,17.8-19.3c9.8,0,18.4,8.1,18.4,18.7c0,10.7-8.6,19.9-18.4,19.9C13.9,39.5,5.9,30.9,5.9,20.2z" /><radialGradient
   id="path700_1_"
   cx="-509.0557"
   cy="428.4512"
   r="6.424040e-002"
   fx="-509.0557"
   fy="428.4512"
   gradientTransform="matrix(310.7065 0 0 -144.1183 158191.5781 61790.25)"
   gradientUnits="userSpaceOnUse"><stop
   offset="0"
   style="stop-color:#261700"
   id="stop611" /><stop
   offset="1"
   style="stop-color:#D2D2D2"
   id="stop612" /><a:midPointStop
   offset="0"
   style="stop-color:#261700"
   id="midPointStop613" /><a:midPointStop
   offset="0.5"
   style="stop-color:#261700"
   id="midPointStop614" /><a:midPointStop
   offset="1"
   style="stop-color:#D2D2D2"
   id="midPointStop615" /></radialGradient><path
   id="path700"
   i:isolated="yes"
   i:knockout="Off"
   opacity="0.3"
   fill="url(#path700_1_)"
   enable-background="new    "
   d="      M37.8,31.8c6.5,4.5,6,10.6-1.9,14.3C28,49.8,16.4,49.2,10,44.6c-5.5-3.8-5.7-9.1-0.5-13.1c3.4,4.7,6.2,6.3,14,7.3      C30,38.7,34.2,35.8,37.8,31.8z" /><radialGradient
   id="path577_1_"
   cx="-468.1479"
   cy="384.9395"
   r="41.4742"
   fx="-468.1479"
   fy="384.9395"
   gradientTransform="matrix(298.9032 0 0 -316.3969 152183.5156 135227.8281)"
   gradientUnits="userSpaceOnUse"><stop
   offset="0"
   style="stop-color:#FF6F00"
   id="stop618" /><stop
   offset="1"
   style="stop-color:#FFFF00"
   id="stop619" /><a:midPointStop
   offset="0"
   style="stop-color:#FF6F00"
   id="midPointStop620" /><a:midPointStop
   offset="0.5"
   style="stop-color:#FF6F00"
   id="midPointStop621" /><a:midPointStop
   offset="1"
   style="stop-color:#FFFF00"
   id="midPointStop622" /></radialGradient><circle
   id="path577"
   fill="url(#path577_1_)"
   cx="24"
   cy="20.4"
   r="17.8" /><linearGradient
   id="path597_1_"
   gradientUnits="userSpaceOnUse"
   x1="-509.0479"
   y1="427.3926"
   x2="-509.0493"
   y2="427.2739"
   gradientTransform="matrix(303.6933 0 0 -316.3967 154618.7344 135228.0781)"><stop
   offset="0"
   style="stop-color:#FF6500"
   id="stop625" /><stop
   offset="1"
   style="stop-color:#FFFF00"
   id="stop626" /><a:midPointStop
   offset="0"
   style="stop-color:#FF6500"
   id="midPointStop627" /><a:midPointStop
   offset="0.5"
   style="stop-color:#FF6500"
   id="midPointStop628" /><a:midPointStop
   offset="1"
   style="stop-color:#FFFF00"
   id="midPointStop629" /></linearGradient><path
   id="path597"
   i:isolated="yes"
   i:knockout="Off"
   opacity="0.75"
   fill="url(#path597_1_)"
   enable-background="new    "
   d="      M5.9,20.2c0-10.7,8-19.3,17.8-19.3c9.9,0,18.4,8,18.4,18.7c0,10.7-8.6,19.9-18.4,19.9C13.9,39.5,5.9,30.9,5.9,20.2z" /><radialGradient
   id="path597_6_"
   cx="-315.6348"
   cy="0.9648"
   r="20.2352"
   fx="-315.6348"
   fy="0.9648"
   gradientTransform="matrix(1 0 0 1 339.5557 -5.859375e-002)"
   gradientUnits="userSpaceOnUse"><stop
   offset="0"
   style="stop-color:#FFFFFF"
   id="stop632" /><stop
   offset="0.1046"
   style="stop-color:#FFFEFA"
   id="stop633" /><stop
   offset="0.2282"
   style="stop-color:#FFFBEC"
   id="stop634" /><stop
   offset="0.3616"
   style="stop-color:#FFF7D4"
   id="stop635" /><stop
   offset="0.5018"
   style="stop-color:#FFF1B2"
   id="stop636" /><stop
   offset="0.6474"
   style="stop-color:#FFE988"
   id="stop637" /><stop
   offset="0.7976"
   style="stop-color:#FFDF53"
   id="stop638" /><stop
   offset="0.9487"
   style="stop-color:#FFD316"
   id="stop639" /><stop
   offset="1"
   style="stop-color:#FFCF00"
   id="stop640" /><a:midPointStop
   offset="0"
   style="stop-color:#FFFFFF"
   id="midPointStop641" /><a:midPointStop
   offset="0.5"
   style="stop-color:#FFFFFF"
   id="midPointStop642" /><a:midPointStop
   offset="0.1046"
   style="stop-color:#FFFEFA"
   id="midPointStop643" /><a:midPointStop
   offset="0.5"
   style="stop-color:#FFFEFA"
   id="midPointStop644" /><a:midPointStop
   offset="0.2282"
   style="stop-color:#FFFBEC"
   id="midPointStop645" /><a:midPointStop
   offset="0.5"
   style="stop-color:#FFFBEC"
   id="midPointStop646" /><a:midPointStop
   offset="0.3616"
   style="stop-color:#FFF7D4"
   id="midPointStop647" /><a:midPointStop
   offset="0.5"
   style="stop-color:#FFF7D4"
   id="midPointStop648" /><a:midPointStop
   offset="0.5018"
   style="stop-color:#FFF1B2"
   id="midPointStop649" /><a:midPointStop
   offset="0.5"
   style="stop-color:#FFF1B2"
   id="midPointStop650" /><a:midPointStop
   offset="0.6474"
   style="stop-color:#FFE988"
   id="midPointStop651" /><a:midPointStop
   offset="0.5"
   style="stop-color:#FFE988"
   id="midPointStop652" /><a:midPointStop
   offset="0.7976"
   style="stop-color:#FFDF53"
   id="midPointStop653" /><a:midPointStop
   offset="0.5"
   style="stop-color:#FFDF53"
   id="midPointStop654" /><a:midPointStop
   offset="0.9487"
   style="stop-color:#FFD316"
   id="midPointStop655" /><a:midPointStop
   offset="0.5"
   style="stop-color:#FFD316"
   id="midPointStop656" /><a:midPointStop
   offset="1"
   style="stop-color:#FFCF00"
   id="midPointStop657" /></radialGradient><path
   id="path597_2_"
   i:isolated="yes"
   i:knockout="Off"
   opacity="0.75"
   fill="url(#path597_6_)"
   enable-background="new    "
   d="      M12.8,7.8c0-3.8,5-6.9,11.1-6.9s11.4,2.9,11.4,6.7C35.3,11.4,12.8,11.6,12.8,7.8z" /><rect
   id="rect662"
   y="0.7"
   i:knockout="Off"
   fill="none"
   width="48"
   height="48" /><g
   id="g660"
   i:knockout="Off"><g
   id="path661"
   i:knockout="Off"><linearGradient
   id="path668_1_"
   gradientUnits="userSpaceOnUse"
   x1="-340.0542"
   y1="-2.6777"
   x2="-340.0542"
   y2="-2.7425"
   gradientTransform="matrix(164.9603 0 0 65.4581 56119.6328 230.4714)"><stop
   offset="0"
   style="stop-color:#BFBFBF"
   id="stop663" /><stop
   offset="1"
   style="stop-color:#FFFFFF"
   id="stop664" /><a:midPointStop
   offset="0"
   style="stop-color:#BFBFBF"
   id="midPointStop665" /><a:midPointStop
   offset="0.5"
   style="stop-color:#BFBFBF"
   id="midPointStop666" /><a:midPointStop
   offset="1"
   style="stop-color:#FFFFFF"
   id="midPointStop667" /></linearGradient><path
   id="path668"
   fill="url(#path668_1_)"
   d="M12.8,29.5c4.9,9.8,16.7,9.8,22.8,0C27.3,27.1,20.3,27.3,12.8,29.5z" /><path
   id="path669"
   i:isolated="yes"
   i:knockout="Off"
   opacity="7.000000e-002"
   fill="none"
   stroke="#000000"
   stroke-width="2.4682"
   stroke-linejoin="round"
   enable-background="new    "
   d="        M12.8,29.5c4.9,9.8,16.7,9.8,22.8,0C27.3,27.1,20.3,27.3,12.8,29.5z" /></g><g
   id="path660"
   i:knockout="Off"><path
   id="path671"
   fill="url(#path668_1_)"
   d="M12.8,29.5c4.9,9.8,16.7,9.8,22.8,0C27.3,27.1,20.3,27.3,12.8,29.5z" /><path
   id="path672"
   i:isolated="yes"
   i:knockout="Off"
   opacity="1.900000e-002"
   fill="none"
   stroke="#000000"
   stroke-width="3.01"
   stroke-linejoin="round"
   enable-background="new    "
   d="        M12.8,29.5c4.9,9.8,16.7,9.8,22.8,0C27.3,27.1,20.3,27.3,12.8,29.5z" /></g><g
   id="path658"
   i:knockout="Off"><path
   id="path674"
   fill="url(#path668_1_)"
   d="M12.8,29.5c4.9,9.8,16.7,9.8,22.8,0C27.3,27.1,20.3,27.3,12.8,29.5z" /><path
   id="path675"
   i:isolated="yes"
   i:knockout="Off"
   opacity="1.900000e-002"
   fill="none"
   stroke="#000000"
   stroke-width="4.1137"
   stroke-linejoin="round"
   enable-background="new    "
   d="        M12.8,29.5c4.9,9.8,16.7,9.8,22.8,0C27.3,27.1,20.3,27.3,12.8,29.5z" /></g><g
   id="path659"
   i:knockout="Off"><path
   id="path677"
   fill="url(#path668_1_)"
   d="M12.8,29.5c4.9,9.8,16.7,9.8,22.8,0C27.3,27.1,20.3,27.3,12.8,29.5z" /><path
   id="path678"
   i:isolated="yes"
   i:knockout="Off"
   opacity="1.900000e-002"
   fill="none"
   stroke="#000000"
   stroke-width="2.8696"
   stroke-linejoin="round"
   enable-background="new    "
   d="        M12.8,29.5c4.9,9.8,16.7,9.8,22.8,0C27.3,27.1,20.3,27.3,12.8,29.5z" /></g><g
   id="path657"
   i:knockout="Off"><path
   id="path680"
   fill="url(#path668_1_)"
   d="M12.8,29.5c4.9,9.8,16.7,9.8,22.8,0C27.3,27.1,20.3,27.3,12.8,29.5z" /><path
   id="path681"
   i:isolated="yes"
   i:knockout="Off"
   opacity="1.900000e-002"
   fill="none"
   stroke="#000000"
   stroke-width="5.2977"
   stroke-linejoin="round"
   enable-background="new    "
   d="        M12.8,29.5c4.9,9.8,16.7,9.8,22.8,0C27.3,27.1,20.3,27.3,12.8,29.5z" /></g><linearGradient
   id="path648_1_"
   gradientUnits="userSpaceOnUse"
   x1="-339.4492"
   y1="-0.3008"
   x2="-339.436"
   y2="-0.3008"
   gradientTransform="matrix(164.9603 0 0 72.2257 56020.0078 54.1251)"><stop
   offset="0"
   style="stop-color:#BFBFBF"
   id="stop683" /><stop
   offset="1"
   style="stop-color:#FFFFFF"
   id="stop684" /><a:midPointStop
   offset="0"
   style="stop-color:#BFBFBF"
   id="midPointStop685" /><a:midPointStop
   offset="0.5"
   style="stop-color:#BFBFBF"
   id="midPointStop686" /><a:midPointStop
   offset="1"
   style="stop-color:#FFFFFF"
   id="midPointStop687" /></linearGradient><path
   id="path648"
   fill="url(#path648_1_)"
   stroke="#700000"
   stroke-width="1.0118"
   stroke-linejoin="round"
   d="M12.8,29.3       c4.9,10.8,16.7,10.8,22.8,0C27.3,26.7,20.3,26.9,12.8,29.3z" /><g
   id="path642"
   i:knockout="Off"><path
   id="path690"
   i:isolated="yes"
   i:knockout="Off"
   opacity="0.4787"
   fill="none"
   stroke="#000000"
   stroke-width="1.0368"
   stroke-linecap="round"
   stroke-dasharray="4.1472 1.0368"
   stroke-dashoffset="5.495"
   enable-background="new    "
   d="        M13.4,30.6c3.4,0.4,4.6,2,10.6,2c5.7,0,6.7-1.5,10.3-2c0.2,0,0.2-0.2,0.3-0.3" /></g><radialGradient
   id="path650_1_"
   cx="-339.2939"
   cy="1.876"
   r="9.295132e-002"
   fx="-339.2939"
   fy="1.876"
   gradientTransform="matrix(49.5421 23.6888 -19.6726 42.3182 16861.4219 7975.0977)"
   gradientUnits="userSpaceOnUse"><stop
   offset="0"
   style="stop-color:#DEE2E7"
   id="stop692" /><stop
   offset="1"
   style="stop-color:#FFFFFF"
   id="stop693" /><a:midPointStop
   offset="0"
   style="stop-color:#DEE2E7"
   id="midPointStop694" /><a:midPointStop
   offset="0.5"
   style="stop-color:#DEE2E7"
   id="midPointStop695" /><a:midPointStop
   offset="1"
   style="stop-color:#FFFFFF"
   id="midPointStop696" /></radialGradient><path
   id="path650"
   fill="url(#path650_1_)"
   stroke="#7C3902"
   stroke-width="0.5702"
   d="M17.9,17.5c0.8-1.6-0.2-3.7-2.1-4.6       c-1.9-0.9-4-0.3-4.8,1.3l0,0c-0.8,1.6,0.2,3.7,2.1,4.6C15,19.7,17.1,19.1,17.9,17.5L17.9,17.5z" /><g
   id="path651"
   i:knockout="Off"><path
   id="path699"
   i:isolated="yes"
   i:knockout="Off"
   opacity="3.790000e-002"
   fill="none"
   stroke="#000000"
   stroke-width="0.5184"
   enable-background="new    "
   d="        M18.5,17.7c0.8-1.8-0.3-4.1-2.5-5.1s-4.6-0.5-5.5,1.3l0,0C9.7,15.7,10.8,18,13,19C15.2,20.1,17.6,19.5,18.5,17.7L18.5,17.7z" /></g><g
   id="path652"
   i:knockout="Off"><path
   id="path701"
   i:isolated="yes"
   i:knockout="Off"
   opacity="1.420000e-002"
   fill="none"
   stroke="#000000"
   stroke-width="1.8026"
   enable-background="new    "
   d="        M18.4,17.7c0.8-1.8-0.3-4.1-2.5-5.1c-2.2-1-4.6-0.5-5.5,1.3l0,0c-0.8,1.8,0.3,4.1,2.5,5.1C15.2,20.1,17.6,19.5,18.4,17.7        L18.4,17.7z" /></g><g
   id="path653"
   i:knockout="Off"><path
   id="path703"
   i:isolated="yes"
   i:knockout="Off"
   opacity="1.420000e-002"
   fill="none"
   stroke="#000000"
   stroke-width="1.1391"
   enable-background="new    "
   d="        M18.4,17.7c0.8-1.8-0.3-4.1-2.5-5.1c-2.2-1-4.6-0.5-5.5,1.3l0,0c-0.8,1.8,0.3,4.1,2.5,5.1C15.2,20.1,17.6,19.5,18.4,17.7        L18.4,17.7z" /></g><g
   id="path654"
   i:knockout="Off"><path
   id="path705"
   i:isolated="yes"
   i:knockout="Off"
   opacity="1.420000e-002"
   fill="none"
   stroke="#000000"
   stroke-width="0.3924"
   enable-background="new    "
   d="        M18.4,17.7c0.8-1.8-0.3-4.1-2.5-5.1c-2.2-1-4.6-0.5-5.5,1.3l0,0c-0.8,1.8,0.3,4.1,2.5,5.1C15.2,20.1,17.6,19.5,18.4,17.7        L18.4,17.7z" /></g><g
   id="path655"
   i:knockout="Off"><path
   id="path707"
   i:isolated="yes"
   i:knockout="Off"
   opacity="0.1517"
   fill="none"
   stroke="#000000"
   stroke-width="0.1972"
   enable-background="new    "
   d="        M18.3,17.7c0.8-1.7-0.2-4-2.4-5c-2.1-1-4.5-0.4-5.3,1.3l0,0c-0.8,1.7,0.2,4,2.4,5S17.5,19.4,18.3,17.7L18.3,17.7z" /></g><radialGradient
   id="path656_1_"
   cx="-340.3354"
   cy="2.9521"
   r="8.568335e-002"
   fx="-340.3354"
   fy="2.9521"
   gradientTransform="matrix(20.6329 9.8658 -10.2514 22.0519 7067.2979 3307.9934)"
   gradientUnits="userSpaceOnUse"><stop
   offset="0"
   style="stop-color:#000082"
   id="stop709" /><stop
   offset="1"
   style="stop-color:#000000"
   id="stop710" /><a:midPointStop
   offset="0"
   style="stop-color:#000082"
   id="midPointStop711" /><a:midPointStop
   offset="0.5"
   style="stop-color:#000082"
   id="midPointStop712" /><a:midPointStop
   offset="1"
   style="stop-color:#000000"
   id="midPointStop713" /></radialGradient><path
   id="path656"
   fill="url(#path656_1_)"
   d="M16.5,17.2c0.4-0.8,0.1-1.8-0.7-2.2c-0.8-0.4-1.7,0-2.1,0.8l0,0       c-0.4,0.8-0.1,1.8,0.7,2.2C15.1,18.4,16.1,18,16.5,17.2L16.5,17.2z" /><radialGradient
   id="path722_1_"
   cx="-335.5527"
   cy="-0.1748"
   r="9.154664e-002"
   fx="-335.5527"
   fy="-0.1748"
   gradientTransform="matrix(-49.5421 23.6888 19.6726 42.3182 -16587.7422 7972.9102)"
   gradientUnits="userSpaceOnUse"><stop
   offset="0"
   style="stop-color:#DEE2E7"
   id="stop716" /><stop
   offset="1"
   style="stop-color:#FFFFFF"
   id="stop717" /><a:midPointStop
   offset="0"
   style="stop-color:#DEE2E7"
   id="midPointStop718" /><a:midPointStop
   offset="0.5"
   style="stop-color:#DEE2E7"
   id="midPointStop719" /><a:midPointStop
   offset="1"
   style="stop-color:#FFFFFF"
   id="midPointStop720" /></radialGradient><path
   id="path722"
   fill="url(#path722_1_)"
   stroke="#7C3902"
   stroke-width="0.5702"
   d="M30.1,17.2c-0.8-1.6,0.2-3.7,2.1-4.6       c1.9-0.9,4-0.3,4.8,1.3l0,0c0.8,1.6-0.2,3.7-2.1,4.6S30.9,18.8,30.1,17.2L30.1,17.2z" /><g
   id="path649"
   i:knockout="Off"><path
   id="path723"
   i:isolated="yes"
   i:knockout="Off"
   opacity="3.790000e-002"
   fill="none"
   stroke="#000000"
   stroke-width="0.5184"
   enable-background="new    "
   d="        M29.5,17.4c-0.8-1.8,0.3-4.1,2.5-5.1s4.6-0.5,5.5,1.3l0,0c0.8,1.8-0.3,4.1-2.5,5.1C32.8,19.8,30.4,19.2,29.5,17.4L29.5,17.4z" /></g><g
   id="path724"
   i:knockout="Off"><path
   id="path725"
   i:isolated="yes"
   i:knockout="Off"
   opacity="1.420000e-002"
   fill="none"
   stroke="#000000"
   stroke-width="1.8026"
   enable-background="new    "
   d="        M29.6,17.4c-0.8-1.8,0.3-4.1,2.5-5.1c2.2-1,4.6-0.5,5.5,1.3l0,0c0.8,1.8-0.3,4.1-2.5,5.1C32.8,19.8,30.4,19.2,29.6,17.4        L29.6,17.4z" /></g><g
   id="g726"
   i:knockout="Off"><path
   id="path727"
   i:isolated="yes"
   i:knockout="Off"
   opacity="1.420000e-002"
   fill="none"
   stroke="#000000"
   stroke-width="1.1391"
   enable-background="new    "
   d="        M29.6,17.4c-0.8-1.8,0.3-4.1,2.5-5.1c2.2-1,4.6-0.5,5.5,1.3l0,0c0.8,1.8-0.3,4.1-2.5,5.1C32.8,19.8,30.4,19.2,29.6,17.4        L29.6,17.4z" /></g><g
   id="path726"
   i:knockout="Off"><path
   id="path729"
   i:isolated="yes"
   i:knockout="Off"
   opacity="1.420000e-002"
   fill="none"
   stroke="#000000"
   stroke-width="0.3924"
   enable-background="new    "
   d="        M29.6,17.4c-0.8-1.8,0.3-4.1,2.5-5.1c2.2-1,4.6-0.5,5.5,1.3l0,0c0.8,1.8-0.3,4.1-2.5,5.1C32.8,19.8,30.4,19.2,29.6,17.4        L29.6,17.4z" /></g><g
   id="g730"
   i:knockout="Off"><path
   id="path731"
   i:isolated="yes"
   i:knockout="Off"
   opacity="0.1517"
   fill="none"
   stroke="#000000"
   stroke-width="0.1972"
   enable-background="new    "
   d="        M29.7,17.4c-0.8-1.7,0.2-4,2.4-5c2.1-1,4.5-0.4,5.3,1.3l0,0c0.8,1.7-0.2,4-2.4,5C32.9,19.7,30.5,19.1,29.7,17.4L29.7,17.4z" /></g><radialGradient
   id="path728_1_"
   cx="-331.3491"
   cy="-0.9814"
   r="8.599602e-002"
   fx="-331.3491"
   fy="-0.9814"
   gradientTransform="matrix(-20.6329 9.8658 10.2514 22.0519 -6793.5576 3305.7903)"
   gradientUnits="userSpaceOnUse"><stop
   offset="0"
   style="stop-color:#000082"
   id="stop733" /><stop
   offset="1"
   style="stop-color:#000000"
   id="stop734" /><a:midPointStop
   offset="0"
   style="stop-color:#000082"
   id="midPointStop735" /><a:midPointStop
   offset="0.5"
   style="stop-color:#000082"
   id="midPointStop736" /><a:midPointStop
   offset="1"
   style="stop-color:#000000"
   id="midPointStop737" /></radialGradient><path
   id="path728"
   fill="url(#path728_1_)"
   d="M31.5,16.9c-0.4-0.8-0.1-1.8,0.7-2.2c0.8-0.4,1.7,0,2.1,0.8l0,0       c0.4,0.8,0.1,1.8-0.7,2.2C32.9,18.1,31.9,17.7,31.5,16.9L31.5,16.9z" /><g
   id="path644"
   i:knockout="Off"><polygon
   id="polygon740"
   fill="#474000"
   points="13,9.4 18.8,12.9 18.5,11.4 " /><polygon
   id="polygon741"
   i:isolated="yes"
   i:knockout="Off"
   opacity="0.7725"
   fill="none"
   stroke="#2A0000"
   stroke-width="0.7212"
   stroke-linecap="round"
   stroke-linejoin="round"
   enable-background="new    "
   points="        13,9.4 18.8,12.9 18.5,11.4 " /></g><g
   id="path663"
   i:knockout="Off"><g
   id="polygon743"><polygon
   i:knockout="Off"
   opacity="0"
   fill="#474000"
   points="13,9.4 18.8,12.9 18.5,11.4 "
   id="polygon744" /></g><polygon
   id="polygon745"
   i:isolated="yes"
   i:knockout="Off"
   opacity="9.950000e-002"
   fill="none"
   stroke="#2A0000"
   stroke-width="1.4066"
   stroke-linecap="round"
   stroke-linejoin="round"
   enable-background="new    "
   points="        13,9.4 18.8,12.9 18.5,11.4 " /></g><g
   id="path665"
   i:knockout="Off"><g
   id="polygon746"><polygon
   i:knockout="Off"
   opacity="0"
   fill="#474000"
   points="13,9.4 18.8,12.9 18.5,11.4 "
   id="polygon748" /></g><polygon
   id="polygon747"
   i:isolated="yes"
   i:knockout="Off"
   opacity="9.950000e-002"
   fill="none"
   stroke="#2A0000"
   stroke-width="1.1361"
   stroke-linecap="round"
   stroke-linejoin="round"
   enable-background="new    "
   points="        13,9.4 18.8,12.9 18.5,11.4 " /></g><g
   id="path667"
   i:knockout="Off"><g
   id="polygon749"><polygon
   i:knockout="Off"
   opacity="0"
   fill="#474000"
   points="13,9.4 18.8,12.9 18.5,11.4 "
   id="polygon752" /></g><polygon
   id="polygon750"
   i:isolated="yes"
   i:knockout="Off"
   opacity="9.950000e-002"
   fill="none"
   stroke="#2A0000"
   stroke-width="1.8034"
   stroke-linecap="round"
   stroke-linejoin="round"
   enable-background="new    "
   points="        13,9.4 18.8,12.9 18.5,11.4 " /></g><g
   id="path670"
   i:knockout="Off"><polygon
   id="polygon755"
   fill="#474000"
   points="34.3,9.4 28.5,12.9 28.8,11.4 " /><polygon
   id="polygon753"
   i:isolated="yes"
   i:knockout="Off"
   opacity="0.7725"
   fill="none"
   stroke="#2A0000"
   stroke-width="0.7212"
   stroke-linecap="round"
   stroke-linejoin="round"
   enable-background="new    "
   points="        34.3,9.4 28.5,12.9 28.8,11.4 " /></g><g
   id="g754"
   i:knockout="Off"><g
   id="g758"><polygon
   i:knockout="Off"
   opacity="0"
   fill="#474000"
   points="34.3,9.4 28.5,12.9 28.8,11.4 "
   id="polygon759" /></g><polygon
   id="polygon756"
   i:isolated="yes"
   i:knockout="Off"
   opacity="9.950000e-002"
   fill="none"
   stroke="#2A0000"
   stroke-width="1.4066"
   stroke-linecap="round"
   stroke-linejoin="round"
   enable-background="new    "
   points="        34.3,9.4 28.5,12.9 28.8,11.4 " /></g><g
   id="g757"
   i:knockout="Off"><g
   id="polygon758"><polygon
   i:knockout="Off"
   opacity="0"
   fill="#474000"
   points="34.3,9.4 28.5,12.9 28.8,11.4 "
   id="polygon763" /></g><polygon
   id="polygon764"
   i:isolated="yes"
   i:knockout="Off"
   opacity="9.950000e-002"
   fill="none"
   stroke="#2A0000"
   stroke-width="1.1361"
   stroke-linecap="round"
   stroke-linejoin="round"
   enable-background="new    "
   points="        34.3,9.4 28.5,12.9 28.8,11.4 " /></g><g
   id="path673"
   i:knockout="Off"><g
   id="polygon761"><polygon
   i:knockout="Off"
   opacity="0"
   fill="#474000"
   points="34.3,9.4 28.5,12.9 28.8,11.4 "
   id="polygon767" /></g><polygon
   id="polygon762"
   i:isolated="yes"
   i:knockout="Off"
   opacity="9.950000e-002"
   fill="none"
   stroke="#2A0000"
   stroke-width="1.8034"
   stroke-linecap="round"
   stroke-linejoin="round"
   enable-background="new    "
   points="        34.3,9.4 28.5,12.9 28.8,11.4 " /></g></g></g></g></svg>
