<?xml version="1.0" encoding="UTF-8" standalone="no"?>
<!DOCTYPE svg PUBLIC "-//W3C//DTD SVG 20010904//EN"
"http://www.w3.org/TR/2001/REC-SVG-20010904/DTD/svg10.dtd">
<!-- Created with Sodipodi ("http://www.sodipodi.com/") -->
<svg
   xmlns:x="http://ns.adobe.com/Extensibility/1.0/"
   xmlns:i="http://ns.adobe.com/AdobeIllustrator/10.0/"
   xmlns:graph="http://ns.adobe.com/Graphs/1.0/"
   xmlns="http://www.w3.org/2000/svg"
   xmlns:xlink="http://www.w3.org/1999/xlink"
   xmlns:a="http://ns.adobe.com/AdobeSVGViewerExtensions/3.0/"
   xml:space="preserve"
   i:viewOrigin="332 371.1377"
   i:rulerOrigin="0 0"
   i:pageBounds="0 792 612 0"
   width="48"
   height="50.3"
   viewBox="0 0 48 50.3"
   overflow="visible"
   enable-background="new 0 0 48 50.3"
   xmlns:sodipodi="http://sodipodi.sourceforge.net/DTD/sodipodi-0.dtd"
   id="svg602"
   sodipodi:version="0.34"
   sodipodi:docname="C:\msys\home\su_blanc\mldonkey-2.5.12\src\gtk2\rsvg\emoticons\emoticon_present.svg"><defs
   id="defs744" /><sodipodi:namedview
   id="namedview743" /><g
   id="Layer_1"
   i:layer="yes"
   i:dimmedPercent="50"
   i:rgbTrio="#4F008000FFFF"><g
   id="g606"><g
   id="g607"><g
   id="path609"
   nodetypes="ccccccc"><polygon
   i:knockout="Off"
   opacity="9.950000e-002"
   fill="#FFE0C2"
   points="6.1,36.5 17.1,46.3 41.1,39.9 41.1,13.9 30.5,4.1         6.3,10.9 "
   id="polygon609" /><polygon
   i:knockout="Off"
   opacity="3.000000e-002"
   fill="none"
   stroke="#280000"
   stroke-width="2.4503"
   stroke-linecap="round"
   stroke-linejoin="round"
   points="        6.1,36.5 17.1,46.3 41.1,39.9 41.1,13.9 30.5,4.1 6.3,10.9 "
   id="polygon610" /></g><g
   id="path636"
   nodetypes="ccccccc"><polygon
   i:knockout="Off"
   opacity="2.000000e-002"
   fill="none"
   stroke="#280000"
   stroke-width="2.6162"
   stroke-linecap="round"
   stroke-linejoin="round"
   points="        6,38.6 17.2,48.9 41.8,42.1 41.9,14.8 31,4.4 6.2,11.6 "
   id="polygon612" /></g><g
   id="path612"
   nodetypes="ccccccc"><polygon
   i:knockout="Off"
   opacity="9.950000e-002"
   fill="#FFE0C2"
   points="6.1,36.5 17.1,46.3 41.1,39.9 41.1,13.9 30.5,4.1         6.3,10.9 "
   id="polygon614" /><polygon
   i:knockout="Off"
   opacity="3.000000e-002"
   fill="none"
   stroke="#280000"
   stroke-width="1.6706"
   stroke-linecap="round"
   stroke-linejoin="round"
   points="        6.1,36.5 17.1,46.3 41.1,39.9 41.1,13.9 30.5,4.1 6.3,10.9 "
   id="polygon615" /></g><g
   id="path611"
   nodetypes="ccccccc"><polygon
   i:knockout="Off"
   opacity="9.950000e-002"
   fill="#FFE0C2"
   points="6.1,36.5 17.1,46.3 41.1,39.9 41.1,13.9 30.5,4.1         6.3,10.9 "
   id="polygon617" /><polygon
   i:knockout="Off"
   opacity="3.000000e-002"
   fill="none"
   stroke="#280000"
   stroke-width="2.0048"
   stroke-linecap="round"
   stroke-linejoin="round"
   points="        6.1,36.5 17.1,46.3 41.1,39.9 41.1,13.9 30.5,4.1 6.3,10.9 "
   id="polygon618" /></g><g
   id="path610"
   nodetypes="ccccccc"><polygon
   i:knockout="Off"
   opacity="9.950000e-002"
   fill="#FFE0C2"
   points="6.1,36.5 17.1,46.3 41.1,39.9 41.1,13.9 30.5,4.1         6.3,10.9 "
   id="polygon620" /><polygon
   i:knockout="Off"
   opacity="3.000000e-002"
   fill="none"
   stroke="#280000"
   stroke-width="2.2275"
   stroke-linecap="round"
   stroke-linejoin="round"
   points="        6.1,36.5 17.1,46.3 41.1,39.9 41.1,13.9 30.5,4.1 6.3,10.9 "
   id="polygon621" /></g><g
   id="path608"
   nodetypes="ccccccc"><polygon
   i:knockout="Off"
   opacity="9.950000e-002"
   fill="#FFE0C2"
   points="6.1,36.5 17.1,46.3 41.1,39.9 41.1,13.9 30.5,4.1         6.3,10.9 "
   id="polygon623" /><polygon
   i:knockout="Off"
   opacity="3.000000e-002"
   fill="none"
   stroke="#280000"
   stroke-width="2.7844"
   stroke-linecap="round"
   stroke-linejoin="round"
   points="        6.1,36.5 17.1,46.3 41.1,39.9 41.1,13.9 30.5,4.1 6.3,10.9 "
   id="polygon624" /></g><g
   id="path607"
   nodetypes="ccccccc"><polygon
   i:knockout="Off"
   opacity="9.950000e-002"
   fill="#FFE0C2"
   points="6.1,36.5 17.1,46.3 41.1,39.9 41.1,13.9 30.5,4.1         6.3,10.9 "
   id="polygon626" /><polygon
   i:knockout="Off"
   opacity="3.000000e-002"
   fill="none"
   stroke="#280000"
   stroke-width="3.3413"
   stroke-linecap="round"
   stroke-linejoin="round"
   points="        6.1,36.5 17.1,46.3 41.1,39.9 41.1,13.9 30.5,4.1 6.3,10.9 "
   id="polygon627" /></g><g
   id="path606"
   nodetypes="ccccccc"><polygon
   i:knockout="Off"
   opacity="9.950000e-002"
   fill="#FFE0C2"
   points="6.1,38 17.4,48.3 42,41.5 42,14.2 31.1,3.8 6.3,11         "
   id="polygon629" /><polygon
   i:knockout="Off"
   opacity="3.000000e-002"
   fill="none"
   stroke="#280000"
   stroke-width="4.0524"
   stroke-linecap="round"
   stroke-linejoin="round"
   points="        6.1,38 17.4,48.3 42,41.5 42,14.2 31.1,3.8 6.3,11 "
   id="polygon630" /></g><g
   id="path676"
   nodetypes="ccccccc"><polygon
   i:knockout="Off"
   opacity="9.950000e-002"
   fill="#FFE0C2"
   points="6,36.4 17,46.2 41,39.8 41.1,13.8 30.4,3.9         6.3,10.8 "
   id="polygon632" /><polygon
   i:knockout="Off"
   fill="none"
   stroke="#810000"
   stroke-width="1.0826"
   stroke-linecap="round"
   stroke-linejoin="round"
   points="        6,36.4 17,46.2 41,39.8 41.1,13.8 30.4,3.9 6.3,10.8 "
   id="polygon633" /></g><linearGradient
   id="path594_1_"
   gradientUnits="userSpaceOnUse"
   x1="-331.5352"
   y1="369.0947"
   x2="-331.5185"
   y2="369.0886"
   gradientTransform="matrix(269.7917 0 0 -89.8186 89464.0391 33167.3594)"><stop
   offset="0"
   style="stop-color:#000000"
   id="stop635" /><stop
   offset="1"
   style="stop-color:#FFFFFF"
   id="stop636" /><a:midPointStop
   offset="0"
   style="stop-color:#000000"
   id="midPointStop637" /><a:midPointStop
   offset="0.5"
   style="stop-color:#000000"
   id="midPointStop638" /><a:midPointStop
   offset="1"
   style="stop-color:#FFFFFF"
   id="midPointStop639" /></linearGradient><polygon
   id="path594"
   nodetypes="ccccc"
   fill="url(#path594_1_)"
   points="40.7,13.7 23.3,12.4 16.8,20.4 40.9,14.3        " /><linearGradient
   id="path673_1_"
   gradientUnits="userSpaceOnUse"
   x1="-331.644"
   y1="370.6123"
   x2="-331.4872"
   y2="370.6082"
   gradientTransform="matrix(264.7603 0 0 -322.0199 87802.3828 119373.25)"><stop
   offset="0"
   style="stop-color:#FF6F00"
   id="stop642" /><stop
   offset="1"
   style="stop-color:#FFFF00"
   id="stop643" /><a:midPointStop
   offset="0"
   style="stop-color:#FF6F00"
   id="midPointStop644" /><a:midPointStop
   offset="0.5"
   style="stop-color:#FF6F00"
   id="midPointStop645" /><a:midPointStop
   offset="1"
   style="stop-color:#FFFF00"
   id="midPointStop646" /></linearGradient><polygon
   id="path673"
   nodetypes="ccccc"
   fill="url(#path673_1_)"
   points="17.6,21.2 40,14.8 39.9,39.1 17.7,45 " /><linearGradient
   id="path1082_1_"
   gradientUnits="userSpaceOnUse"
   x1="-331.0972"
   y1="368.1328"
   x2="-331.0939"
   y2="368.161"
   gradientTransform="matrix(267.3208 0 0 -92.2088 88525.7734 33957.3203)"><stop
   offset="0"
   style="stop-color:#000000"
   id="stop649" /><stop
   offset="1"
   style="stop-color:#FFFFFF"
   id="stop650" /><a:midPointStop
   offset="0"
   style="stop-color:#000000"
   id="midPointStop651" /><a:midPointStop
   offset="0.5"
   style="stop-color:#000000"
   id="midPointStop652" /><a:midPointStop
   offset="1"
   style="stop-color:#FFFFFF"
   id="midPointStop653" /></linearGradient><polygon
   id="path1082"
   nodetypes="ccccc"
   opacity="0.2"
   fill="url(#path1082_1_)"
   points="6.5,11.2 23.9,12 30.1,3.7        6.3,10.7 " /><linearGradient
   id="path674_1_"
   gradientUnits="userSpaceOnUse"
   x1="-331.0806"
   y1="370.1768"
   x2="-330.8971"
   y2="370.172"
   gradientTransform="matrix(227.0758 0 0 -269.8628 75176.3906 99909.0938)"><stop
   offset="0"
   style="stop-color:#FF6F00"
   id="stop656" /><stop
   offset="1"
   style="stop-color:#FFFF00"
   id="stop657" /><a:midPointStop
   offset="0"
   style="stop-color:#FF6F00"
   id="midPointStop658" /><a:midPointStop
   offset="0.5"
   style="stop-color:#FF6F00"
   id="midPointStop659" /><a:midPointStop
   offset="1"
   style="stop-color:#FFFF00"
   id="midPointStop660" /></linearGradient><polygon
   id="path674"
   nodetypes="ccccc"
   fill="url(#path674_1_)"
   points="7.4,11.6 17.2,20.4 39.7,14.3 30,5.3 " /><linearGradient
   id="path675_1_"
   gradientUnits="userSpaceOnUse"
   x1="-330.8179"
   y1="370.2422"
   x2="-330.5907"
   y2="370.2363"
   gradientTransform="matrix(179.35 0 0 -221.3565 59328.25 81983.5625)"><stop
   offset="0"
   style="stop-color:#FF6F00"
   id="stop663" /><stop
   offset="1"
   style="stop-color:#FFFF00"
   id="stop664" /><a:midPointStop
   offset="0"
   style="stop-color:#FF6F00"
   id="midPointStop665" /><a:midPointStop
   offset="0.5"
   style="stop-color:#FF6F00"
   id="midPointStop666" /><a:midPointStop
   offset="1"
   style="stop-color:#FFFF00"
   id="midPointStop667" /></linearGradient><polygon
   id="path675"
   nodetypes="ccccc"
   fill="url(#path675_1_)"
   points="7.2,12.2 16.7,21.2 16.7,44.9 7.1,36.1 " /><linearGradient
   id="path1077_1_"
   gradientUnits="userSpaceOnUse"
   x1="-331.3477"
   y1="370.4922"
   x2="-331.2026"
   y2="370.5241"
   gradientTransform="matrix(294.8137 0 0 -384.0615 97699.3438 142319.7969)"><stop
   offset="0"
   style="stop-color:#FF6F00"
   id="stop670" /><stop
   offset="1"
   style="stop-color:#FFFF00"
   id="stop671" /><a:midPointStop
   offset="0"
   style="stop-color:#FF6F00"
   id="midPointStop672" /><a:midPointStop
   offset="0.5"
   style="stop-color:#FF6F00"
   id="midPointStop673" /><a:midPointStop
   offset="1"
   style="stop-color:#FFFF00"
   id="midPointStop674" /></linearGradient><polygon
   id="path1077"
   nodetypes="ccccccccc"
   fill="url(#path1077_1_)"
   stroke="#890000"
   stroke-width="0.4232"
   points="       11.8,42 11.9,16.4 12.3,16 36.7,9.1 35.3,7.7 10.9,14.8 10.5,15.3 10.4,40.6 " /><g
   id="path631"
   nodetypes="cssssssssss"><path
   i:knockout="Off"
   opacity="6.000000e-002"
   fill="none"
   stroke="#410000"
   stroke-width="2.7431"
   stroke-linecap="round"
   stroke-linejoin="round"
   d="        M22.4,11.4c-3-0.6-3.7-1.6-5.1-3.8c-0.9-1.4-1.1-2.6-0.3-3.8c1.1-1.5,4.7-3.2,6.4-1.8c1.4,1.2,2.1,4.5,1.1,7.1l-0.7,1.9        c-0.1,0.4-1.5-0.3-0.5-2.6c1-2.3,0.2-4.5-1-5.7c-1.6-1.5-5-0.5-6.1,1c-0.8,1.1-0.9,2.8-0.4,3.9c1.3,3.1,2.8,4.8,7,4.8"
   id="path677" /></g><g
   id="path632"
   nodetypes="ccssssssccssssssc"><path
   i:knockout="Off"
   opacity="6.000000e-002"
   fill="none"
   stroke="#410000"
   stroke-width="2.7431"
   stroke-linecap="round"
   stroke-linejoin="round"
   d="        M11.2,12.4c0.1-0.7,0.1-1.3,0-1.8c2.8,0.4,7.1,1.8,9.9,1.1c3-0.6,5.5-2,6.8-4.2C28.8,6.1,29,5,28.2,3.7        c-1.1-1.5-4.7-3.2-6.4-1.8c-1.4,1.2-1.6,3.2-1.2,5.9c0.2,2.1,1.3,5.2,3.9,5c3.1-0.2,7.3,0,9.9-1.7c-0.5-0.8-0.7-1-0.9-1.4        c-2.2,1.5-5.6,1.7-8.2,2c-2.1,0.2-3-1.9-3.3-3.7c-0.5-2.4-0.3-4.2,0.9-5.4c1.6-1.5,5-0.5,6.1,1c0.8,1.1,0.9,2.8,0.4,3.9        c-1.3,3.1-5.1,5.8-9.2,5.7C18.7,13.2,14.3,12.6,11.2,12.4"
   id="path679" /></g><g
   id="path633"
   nodetypes="cssssssssss"><path
   i:knockout="Off"
   opacity="6.000000e-002"
   fill="none"
   stroke="#410000"
   stroke-width="2.7431"
   stroke-linecap="round"
   stroke-linejoin="round"
   d="        M22.4,11.4c-3-0.6-3.7-1.6-5.1-3.8c-0.9-1.4-1.1-2.6-0.3-3.8c1.1-1.5,4.7-3.2,6.4-1.8c1.4,1.2,2.1,4.5,1.1,7.1l-0.7,1.9        c-0.1,0.4-1.5-0.3-0.5-2.6c1-2.3,0.2-4.5-1-5.7c-1.6-1.5-5-0.5-6.1,1c-0.8,1.1-0.9,2.8-0.4,3.9c1.3,3.1,2.8,4.8,7,4.8"
   id="path681" /></g><g
   id="path634"
   nodetypes="ccssssssccssssssc"><path
   i:knockout="Off"
   opacity="6.000000e-002"
   fill="none"
   stroke="#410000"
   stroke-width="2.7431"
   stroke-linecap="round"
   stroke-linejoin="round"
   d="        M11.2,12.4c0.1-0.7,0.1-1.3,0-1.8c2.8,0.4,7.1,1.8,9.9,1.1c3-0.6,5.5-2,6.8-4.2C28.8,6.1,29,5,28.2,3.7        c-1.1-1.5-4.7-3.2-6.4-1.8c-1.4,1.2-1.6,3.2-1.2,5.9c0.2,2.1,1.3,5.2,3.9,5c3.1-0.2,7.3,0,9.9-1.7c-0.5-0.8-0.7-1-0.9-1.4        c-2.2,1.5-5.6,1.7-8.2,2c-2.1,0.2-3-1.9-3.3-3.7c-0.5-2.4-0.3-4.2,0.9-5.4c1.6-1.5,5-0.5,6.1,1c0.8,1.1,0.9,2.8,0.4,3.9        c-1.3,3.1-5.1,5.8-9.2,5.7C18.7,13.2,14.3,12.6,11.2,12.4"
   id="path683" /></g><linearGradient
   id="path1078_1_"
   gradientUnits="userSpaceOnUse"
   x1="-331.271"
   y1="370.5039"
   x2="-331.0039"
   y2="370.5415"
   gradientTransform="matrix(177.3209 0 0 -405.9364 58753.8984 150429.5625)"><stop
   offset="0"
   style="stop-color:#FF6F00"
   id="stop685" /><stop
   offset="1"
   style="stop-color:#FFFF00"
   id="stop686" /><a:midPointStop
   offset="0"
   style="stop-color:#FF6F00"
   id="midPointStop687" /><a:midPointStop
   offset="0.5"
   style="stop-color:#FF6F00"
   id="midPointStop688" /><a:midPointStop
   offset="1"
   style="stop-color:#FFFF00"
   id="midPointStop689" /></linearGradient><polygon
   id="path1078"
   nodetypes="ccccccccc"
   fill="url(#path1078_1_)"
   stroke="#970000"
   stroke-width="0.4121"
   points="       29.8,43.1 29.8,17.7 29.2,16.9 16,7.5 18,6.9 31,16.5 31.6,17.3 31.8,42.6 " /><g
   id="path627"
   nodetypes="cssssssssss"><path
   i:knockout="Off"
   opacity="6.000000e-002"
   fill="none"
   stroke="#410000"
   stroke-width="1.6516"
   d="M22.4,11.4        c-3-0.6-3.7-1.6-5.1-3.8c-0.9-1.4-1.1-2.6-0.3-3.8c1.1-1.5,4.7-3.2,6.4-1.8c1.4,1.2,2.1,4.5,1.1,7.1l-0.7,1.9        c-0.1,0.4-1.5-0.3-0.5-2.6c1-2.3,0.2-4.5-1-5.7c-1.6-1.5-5-0.5-6.1,1c-0.8,1.1-0.9,2.8-0.4,3.9c1.3,3.1,2.8,4.8,7,4.8"
   id="path692" /></g><g
   id="path628"
   nodetypes="ccssssssccssssssc"><path
   i:knockout="Off"
   opacity="6.000000e-002"
   fill="none"
   stroke="#410000"
   stroke-width="1.6516"
   d="M11.2,12.4        c0.1-0.7,0.1-1.3,0-1.8c2.8,0.4,7.1,1.8,9.9,1.1c3-0.6,5.5-2,6.8-4.2C28.8,6.1,29,5,28.2,3.7c-1.1-1.5-4.7-3.2-6.4-1.8        c-1.4,1.2-1.6,3.2-1.2,5.9c0.2,2.1,1.3,5.2,3.9,5c3.1-0.2,7.3,0,9.9-1.7c-0.5-0.8-0.7-1-0.9-1.4c-2.2,1.5-5.6,1.7-8.2,2        c-2.1,0.2-3-1.9-3.3-3.7c-0.5-2.4-0.3-4.2,0.9-5.4c1.6-1.5,5-0.5,6.1,1c0.8,1.1,0.9,2.8,0.4,3.9c-1.3,3.1-5.1,5.8-9.2,5.7        C18.7,13.2,14.3,12.6,11.2,12.4"
   id="path694" /></g><g
   id="path629"
   nodetypes="cssssssssss"><path
   i:knockout="Off"
   opacity="6.000000e-002"
   fill="none"
   stroke="#410000"
   stroke-width="1.6516"
   d="M22.4,11.4        c-3-0.6-3.7-1.6-5.1-3.8c-0.9-1.4-1.1-2.6-0.3-3.8c1.1-1.5,4.7-3.2,6.4-1.8c1.4,1.2,2.1,4.5,1.1,7.1l-0.7,1.9        c-0.1,0.4-1.5-0.3-0.5-2.6c1-2.3,0.2-4.5-1-5.7c-1.6-1.5-5-0.5-6.1,1c-0.8,1.1-0.9,2.8-0.4,3.9c1.3,3.1,2.8,4.8,7,4.8"
   id="path696" /></g><g
   id="path630"
   nodetypes="ccssssssccssssssc"><path
   i:knockout="Off"
   opacity="6.000000e-002"
   fill="none"
   stroke="#410000"
   stroke-width="1.6516"
   d="M11.2,12.4        c0.1-0.7,0.1-1.3,0-1.8c2.8,0.4,7.1,1.8,9.9,1.1c3-0.6,5.5-2,6.8-4.2C28.8,6.1,29,5,28.2,3.7c-1.1-1.5-4.7-3.2-6.4-1.8        c-1.4,1.2-1.6,3.2-1.2,5.9c0.2,2.1,1.3,5.2,3.9,5c3.1-0.2,7.3,0,9.9-1.7c-0.5-0.8-0.7-1-0.9-1.4c-2.2,1.5-5.6,1.7-8.2,2        c-2.1,0.2-3-1.9-3.3-3.7c-0.5-2.4-0.3-4.2,0.9-5.4c1.6-1.5,5-0.5,6.1,1c0.8,1.1,0.9,2.8,0.4,3.9c-1.3,3.1-5.1,5.8-9.2,5.7        C18.7,13.2,14.3,12.6,11.2,12.4"
   id="path698" /></g><linearGradient
   id="path605_1_"
   gradientUnits="userSpaceOnUse"
   x1="-331.3604"
   y1="368.917"
   x2="-331.3759"
   y2="368.5984"
   gradientTransform="matrix(366.4365 0 0 -120.4893 121447.4141 44454.1094)"><stop
   offset="0"
   style="stop-color:#FFFFFF"
   id="stop700" /><stop
   offset="1"
   style="stop-color:#FFFFFF"
   id="stop701" /><a:midPointStop
   offset="0"
   style="stop-color:#FFFFFF"
   id="midPointStop702" /><a:midPointStop
   offset="0.5"
   style="stop-color:#FFFFFF"
   id="midPointStop703" /><a:midPointStop
   offset="1"
   style="stop-color:#FFFFFF"
   id="midPointStop704" /></linearGradient><path
   id="path605"
   nodetypes="csssscs"
   opacity="0.2"
   fill="url(#path605_1_)"
   d="M7.7,10.1c-0.8,0.2,6.6,4.1,10,4.4       c4.1,0.4,8.6-2.3,12.8-2.4c2.7-0.1,5.5,1.8,8.1,2c0.6,0,2.1-0.8,1.6-1.2l-9.8-9L7.7,10.1z" /><linearGradient
   id="path599_1_"
   gradientUnits="userSpaceOnUse"
   x1="-330.6772"
   y1="368.6777"
   x2="-330.6083"
   y2="368.7556"
   gradientTransform="matrix(106.0337 0 0 -121.675 35081.6563 44867.8164)"><stop
   offset="0"
   style="stop-color:#FF6F00"
   id="stop707" /><stop
   offset="1"
   style="stop-color:#FFFF00"
   id="stop708" /><a:midPointStop
   offset="0"
   style="stop-color:#FF6F00"
   id="midPointStop709" /><a:midPointStop
   offset="0.5"
   style="stop-color:#FF6F00"
   id="midPointStop710" /><a:midPointStop
   offset="1"
   style="stop-color:#FFFF00"
   id="midPointStop711" /></linearGradient><path
   id="path599"
   nodetypes="cssssssssss"
   fill="url(#path599_1_)"
   stroke="#A00000"
   stroke-width="0.5266"
   d="       M22.4,11.4c-3-0.6-3.7-1.6-5.1-3.8c-0.9-1.4-1.1-2.6-0.3-3.8c1.1-1.5,4.7-3.2,6.4-1.8c1.4,1.2,2.1,4.5,1.1,7.1l-0.7,1.9       c-0.1,0.4-1.5-0.3-0.5-2.6c1-2.3,0.2-4.5-1-5.7c-1.6-1.5-5-0.5-6.1,1c-0.8,1.1-0.9,2.8-0.4,3.9c1.3,3.1,2.8,4.8,7,4.8" /><linearGradient
   id="path597_1_"
   gradientUnits="userSpaceOnUse"
   x1="-331.2686"
   y1="368.8623"
   x2="-331.1997"
   y2="368.9401"
   gradientTransform="matrix(260.8709 0 0 -132.7356 86439.2734 48971.7617)"><stop
   offset="0"
   style="stop-color:#FF6F00"
   id="stop714" /><stop
   offset="1"
   style="stop-color:#FFFF00"
   id="stop715" /><a:midPointStop
   offset="0"
   style="stop-color:#FF6F00"
   id="midPointStop716" /><a:midPointStop
   offset="0.5"
   style="stop-color:#FF6F00"
   id="midPointStop717" /><a:midPointStop
   offset="1"
   style="stop-color:#FFFF00"
   id="midPointStop718" /></linearGradient><path
   id="path597"
   nodetypes="ccssssssccssssssc"
   fill="url(#path597_1_)"
   stroke="#A00000"
   stroke-width="0.5266"
   d="       M11.2,12.4c0.1-0.7,0.1-1.3,0-1.8c2.8,0.4,7.1,1.8,9.9,1.1c3-0.6,5.5-2,6.8-4.2C28.8,6.1,29,5,28.2,3.7       c-1.1-1.5-4.7-3.2-6.4-1.8c-1.4,1.2-1.6,3.2-1.2,5.9c0.2,2.1,1.3,5.2,3.9,5c3.1-0.2,7.3,0,9.9-1.7c-0.5-0.8-0.7-1-0.9-1.4       c-2.2,1.5-5.6,1.7-8.2,2c-2.1,0.2-3-1.9-3.3-3.7c-0.5-2.4-0.3-4.2,0.9-5.4c1.6-1.5,5-0.5,6.1,1c0.8,1.1,0.9,2.8,0.4,3.9       c-1.3,3.1-5.1,5.8-9.2,5.7C18.7,13.2,14.3,12.6,11.2,12.4" /><g
   id="path600"
   nodetypes="ccccccc"
   opacity="0.2"><radialGradient
   id="XMLID_1_"
   cx="-331.4277"
   cy="370.5059"
   r="8.603027e-002"
   fx="-331.4277"
   fy="370.5059"
   gradientTransform="matrix(393.1364 0 0 -474.1998 130342.4063 175735.1406)"
   gradientUnits="userSpaceOnUse"><stop
   offset="0"
   style="stop-color:#FFFFFF"
   id="stop722" /><stop
   offset="1"
   style="stop-color:#FFFFFF"
   id="stop723" /><a:midPointStop
   offset="0"
   style="stop-color:#FFFFFF"
   id="midPointStop724" /><a:midPointStop
   offset="0.5"
   style="stop-color:#FFFFFF"
   id="midPointStop725" /><a:midPointStop
   offset="1"
   style="stop-color:#FFFFFF"
   id="midPointStop726" /></radialGradient><polygon
   i:knockout="Off"
   opacity="9.950000e-002"
   fill="url(#XMLID_1_)"
   points="6.2,36.3 17.2,46.1 41.1,39.7 41.2,13.7         30.6,3.8 6.4,10.7 "
   id="polygon727" /></g><radialGradient
   id="path615_1_"
   cx="-331.0796"
   cy="367.3389"
   r="0.1195"
   fx="-331.0796"
   fy="367.3389"
   gradientTransform="matrix(159.2362 0 0 -81.022 52745.0313 29779.9531)"
   gradientUnits="userSpaceOnUse"><stop
   offset="0"
   style="stop-color:#FFFFFF"
   id="stop729" /><stop
   offset="1"
   style="stop-color:#FFFFFF"
   id="stop730" /><a:midPointStop
   offset="0"
   style="stop-color:#FFFFFF"
   id="midPointStop731" /><a:midPointStop
   offset="0.5"
   style="stop-color:#FFFFFF"
   id="midPointStop732" /><a:midPointStop
   offset="1"
   style="stop-color:#FFFFFF"
   id="midPointStop733" /></radialGradient><path
   id="path615"
   nodetypes="cssssssssss"
   opacity="0.2"
   fill="url(#path615_1_)"
   d="M22.4,11.4       c-3-0.6-3.7-1.6-5.1-3.8c-0.9-1.4-1.1-2.6-0.3-3.8c1.1-1.5,4.7-3.2,6.4-1.8c1.4,1.2,2.1,4.5,1.1,7.1l-0.7,1.9       c-0.1,0.4-1.5-0.3-0.5-2.6c1-2.3,0.2-4.5-1-5.7c-1.6-1.5-5-0.5-6.1,1c-0.8,1.1-0.9,2.8-0.4,3.9c1.3,3.1,2.8,4.8,7,4.8" /><linearGradient
   id="path635_1_"
   gradientUnits="userSpaceOnUse"
   x1="-331.6396"
   y1="368.6123"
   x2="-331.6306"
   y2="368.6566"
   gradientTransform="matrix(199.9321 0 0 -110.0739 66336.3047 40589.6445)"><stop
   offset="0"
   style="stop-color:#000000"
   id="stop736" /><stop
   offset="1"
   style="stop-color:#FFFFFF"
   id="stop737" /><a:midPointStop
   offset="0"
   style="stop-color:#000000"
   id="midPointStop738" /><a:midPointStop
   offset="0.5"
   style="stop-color:#000000"
   id="midPointStop739" /><a:midPointStop
   offset="1"
   style="stop-color:#FFFFFF"
   id="midPointStop740" /></linearGradient><polygon
   id="path635"
   nodetypes="ccccc"
   opacity="0.2"
   fill="url(#path635_1_)"
   points="30.1,3.9 22.7,12 40.5,13.7        30.4,3.9 " /></g><rect
   y="1.1"
   i:knockout="Off"
   fill="none"
   width="48"
   height="48"
   id="rect742" /></g></g></svg>
