<?xml version="1.0" encoding="UTF-8" standalone="no"?>
<!DOCTYPE svg PUBLIC "-//W3C//DTD SVG 20010904//EN"
"http://www.w3.org/TR/2001/REC-SVG-20010904/DTD/svg10.dtd">
<!-- Created with Sodipodi ("http://www.sodipodi.com/") -->
<svg
   xmlns:x="http://ns.adobe.com/Extensibility/1.0/"
   xmlns:i="http://ns.adobe.com/AdobeIllustrator/10.0/"
   xmlns:graph="http://ns.adobe.com/Graphs/1.0/"
   xmlns="http://www.w3.org/2000/svg"
   xmlns:xlink="http://www.w3.org/1999/xlink"
   xmlns:a="http://ns.adobe.com/AdobeSVGViewerExtensions/3.0/"
   xml:space="preserve"
   i:viewOrigin="170.4116 428.063"
   i:rulerOrigin="0 0"
   i:pageBounds="0 792 612 0"
   width="48.4"
   height="48.6"
   viewBox="0 0 48.4 48.6"
   overflow="visible"
   enable-background="new 0 0 48.4 48.6"
   xmlns:sodipodi="http://sodipodi.sourceforge.net/DTD/sodipodi-0.dtd"
   id="svg602"
   sodipodi:version="0.34"
   sodipodi:docname="C:\msys\home\su_blanc\mldonkey-2.5.12\src\gtk2\rsvg\emoticons\emoticon_cry.svg"><defs
   id="defs703" /><sodipodi:namedview
   id="base" /><g
   id="Layer_1"
   i:knockout="Off"
   i:layer="yes"
   i:dimmedPercent="50"
   i:rgbTrio="#4F008000FFFF"><g
   id="g606"><linearGradient
   id="path680_1_"
   gradientUnits="userSpaceOnUse"
   x1="-170.4111"
   y1="429.8198"
   x2="-170.4421"
   y2="429.947"
   gradientTransform="matrix(383.246 0 0 -129.0557 65342.3906 55518.1563)"><stop
   offset="0"
   style="stop-color:#0000FF"
   id="stop608" /><stop
   offset="1"
   style="stop-color:#00FFFF"
   id="stop609" /><a:midPointStop
   offset="0"
   style="stop-color:#0000FF"
   id="midPointStop610" /><a:midPointStop
   offset="0.5"
   style="stop-color:#0000FF"
   id="midPointStop611" /><a:midPointStop
   offset="1"
   style="stop-color:#00FFFF"
   id="midPointStop612" /></linearGradient><path
   id="path680"
   fill="url(#path680_1_)"
   stroke="#0000D9"
   stroke-width="0.7075"
   d="M20.8,37.4C7.8,33.7,4.7,34.6,1.1,37.6      c-3.6,2.9,5.7,3.2,10.2,3.9s9,1.1,6.1,3.1c-2.9,2,1.4,5,8.4,3.2c7-1.7,12.2-3.1,11.8-6.7c-0.4-3.6,0.3-6.2,5.8-6.4      c5.6-0.2,6.7-4.5-0.4-5.1C36,29,26.6,32.2,26.6,34.8C26.6,37.4,23.8,38.3,20.8,37.4z" /><path
   id="path597_5_"
   i:isolated="yes"
   i:knockout="Off"
   opacity="0.15"
   fill="none"
   stroke="#474000"
   stroke-width="2.9824"
   enable-background="new    "
   d="      M5.2,20.7C5.2,10,13.2,1.5,22.9,1.5s18.3,8.1,18.3,18.6c0,10.6-8.5,19.8-18.3,19.8S5.2,31.3,5.2,20.7z" /><path
   id="path597_4_"
   i:isolated="yes"
   i:knockout="Off"
   opacity="0.2"
   fill="none"
   stroke="#474000"
   stroke-width="1.9883"
   enable-background="new    "
   d="      M5.2,20.7C5.2,10,13.2,1.5,22.9,1.5s18.3,8.1,18.3,18.6c0,10.6-8.5,19.8-18.3,19.8S5.2,31.3,5.2,20.7z" /><path
   id="path597_3_"
   i:isolated="yes"
   i:knockout="Off"
   opacity="0.3"
   fill="none"
   stroke="#474000"
   stroke-width="0.9941"
   enable-background="new    "
   d="      M5.2,20.7C5.2,10,13.2,1.5,22.9,1.5s18.3,8.1,18.3,18.6c0,10.6-8.5,19.8-18.3,19.8S5.2,31.3,5.2,20.7z" /><radialGradient
   id="path577_1_"
   cx="-299.1304"
   cy="43.1646"
   r="41.5569"
   fx="-299.1304"
   fy="43.1646"
   gradientTransform="matrix(296.9188 0 0 314.7926 101038.4297 -221.171)"
   gradientUnits="userSpaceOnUse"><stop
   offset="0"
   style="stop-color:#FF6F00"
   id="stop618" /><stop
   offset="1"
   style="stop-color:#FFFF00"
   id="stop619" /><a:midPointStop
   offset="0"
   style="stop-color:#FF6F00"
   id="midPointStop620" /><a:midPointStop
   offset="0.5"
   style="stop-color:#FF6F00"
   id="midPointStop621" /><a:midPointStop
   offset="1"
   style="stop-color:#FFFF00"
   id="midPointStop622" /></radialGradient><circle
   id="path577"
   fill="url(#path577_1_)"
   cx="23.4"
   cy="20.9"
   r="17.7" /><linearGradient
   id="path597_1_"
   gradientUnits="userSpaceOnUse"
   x1="-340.1997"
   y1="0.7124"
   x2="-340.2011"
   y2="0.8302"
   gradientTransform="matrix(303.6933 0 0 316.3967 103339.8594 -222.1999)"><stop
   offset="0"
   style="stop-color:#FF6500"
   id="stop625" /><stop
   offset="1"
   style="stop-color:#FFFF00"
   id="stop626" /><a:midPointStop
   offset="0"
   style="stop-color:#FF6500"
   id="midPointStop627" /><a:midPointStop
   offset="0.5"
   style="stop-color:#FF6500"
   id="midPointStop628" /><a:midPointStop
   offset="1"
   style="stop-color:#FFFF00"
   id="midPointStop629" /></linearGradient><path
   id="path597"
   i:isolated="yes"
   i:knockout="Off"
   opacity="0.75"
   fill="url(#path597_1_)"
   enable-background="new    "
   d="      M5.2,20.7C5.2,10,13.2,1.5,22.9,1.5c9.8,0,18.3,8,18.3,18.6c0,10.6-8.5,19.8-18.3,19.8S5.2,31.3,5.2,20.7z" /><radialGradient
   id="path597_6_"
   cx="-147.0405"
   cy="427.1401"
   r="20.2352"
   fx="-147.0405"
   fy="427.1401"
   gradientTransform="matrix(0.9934 0 0 -0.9949 168.959 426.389)"
   gradientUnits="userSpaceOnUse"><stop
   offset="0"
   style="stop-color:#FFFFFF"
   id="stop632" /><stop
   offset="0.1046"
   style="stop-color:#FFFEFA"
   id="stop633" /><stop
   offset="0.2282"
   style="stop-color:#FFFBEC"
   id="stop634" /><stop
   offset="0.3616"
   style="stop-color:#FFF7D4"
   id="stop635" /><stop
   offset="0.5018"
   style="stop-color:#FFF1B2"
   id="stop636" /><stop
   offset="0.6474"
   style="stop-color:#FFE988"
   id="stop637" /><stop
   offset="0.7976"
   style="stop-color:#FFDF53"
   id="stop638" /><stop
   offset="0.9487"
   style="stop-color:#FFD316"
   id="stop639" /><stop
   offset="1"
   style="stop-color:#FFCF00"
   id="stop640" /><a:midPointStop
   offset="0"
   style="stop-color:#FFFFFF"
   id="midPointStop641" /><a:midPointStop
   offset="0.5"
   style="stop-color:#FFFFFF"
   id="midPointStop642" /><a:midPointStop
   offset="0.1046"
   style="stop-color:#FFFEFA"
   id="midPointStop643" /><a:midPointStop
   offset="0.5"
   style="stop-color:#FFFEFA"
   id="midPointStop644" /><a:midPointStop
   offset="0.2282"
   style="stop-color:#FFFBEC"
   id="midPointStop645" /><a:midPointStop
   offset="0.5"
   style="stop-color:#FFFBEC"
   id="midPointStop646" /><a:midPointStop
   offset="0.3616"
   style="stop-color:#FFF7D4"
   id="midPointStop647" /><a:midPointStop
   offset="0.5"
   style="stop-color:#FFF7D4"
   id="midPointStop648" /><a:midPointStop
   offset="0.5018"
   style="stop-color:#FFF1B2"
   id="midPointStop649" /><a:midPointStop
   offset="0.5"
   style="stop-color:#FFF1B2"
   id="midPointStop650" /><a:midPointStop
   offset="0.6474"
   style="stop-color:#FFE988"
   id="midPointStop651" /><a:midPointStop
   offset="0.5"
   style="stop-color:#FFE988"
   id="midPointStop652" /><a:midPointStop
   offset="0.7976"
   style="stop-color:#FFDF53"
   id="midPointStop653" /><a:midPointStop
   offset="0.5"
   style="stop-color:#FFDF53"
   id="midPointStop654" /><a:midPointStop
   offset="0.9487"
   style="stop-color:#FFD316"
   id="midPointStop655" /><a:midPointStop
   offset="0.5"
   style="stop-color:#FFD316"
   id="midPointStop656" /><a:midPointStop
   offset="1"
   style="stop-color:#FFCF00"
   id="midPointStop657" /></radialGradient><path
   id="path597_2_"
   i:isolated="yes"
   i:knockout="Off"
   opacity="0.75"
   fill="url(#path597_6_)"
   enable-background="new    "
   d="      M11.8,8.4c0-3.8,5-6.9,11-6.9c6.1,0,11.3,2.9,11.3,6.7S11.8,12.1,11.8,8.4z" /><radialGradient
   id="path652_1_"
   cx="-170.3862"
   cy="428.5581"
   r="0.1446"
   fx="-170.3862"
   fy="428.5581"
   gradientTransform="matrix(29.036 0 0 -34.6601 4953.1377 14875)"
   gradientUnits="userSpaceOnUse"><stop
   offset="0"
   style="stop-color:#000082"
   id="stop660" /><stop
   offset="1"
   style="stop-color:#00FFFF"
   id="stop661" /><a:midPointStop
   offset="0"
   style="stop-color:#000082"
   id="midPointStop662" /><a:midPointStop
   offset="0.5"
   style="stop-color:#000082"
   id="midPointStop663" /><a:midPointStop
   offset="1"
   style="stop-color:#00FFFF"
   id="midPointStop664" /></radialGradient><linearGradient
   id="path652_2_"
   gradientUnits="userSpaceOnUse"
   x1="-170.4272"
   y1="427.8599"
   x2="-169.4114"
   y2="427.1567"><stop
   offset="0"
   style="stop-color:#000082"
   id="stop666" /><stop
   offset="1"
   style="stop-color:#00FFFF"
   id="stop667" /><a:midPointStop
   offset="0"
   style="stop-color:#000082"
   id="midPointStop668" /><a:midPointStop
   offset="0.5"
   style="stop-color:#000082"
   id="midPointStop669" /><a:midPointStop
   offset="1"
   style="stop-color:#00FFFF"
   id="midPointStop670" /></linearGradient><path
   id="path652"
   nodetypes="ccccc"
   fill="url(#path652_1_)"
   stroke="url(#path652_2_)"
   stroke-width="0.5639"
   stroke-linejoin="round"
   d="      M8.5,17.4c-2,2.5-3.1,1.8-4.1,3.2c-0.4,0.7,0,1.5,0.8,1.8c1,0.3,2,0,2.6-0.8C8.4,20.4,7.2,20.2,8.5,17.4z" /><radialGradient
   id="path655_1_"
   cx="-169.3511"
   cy="429.3589"
   r="0.1447"
   fx="-169.3511"
   fy="429.3589"
   gradientTransform="matrix(44.1419 0 0 -63.7912 7478.9487 27425.2852)"
   gradientUnits="userSpaceOnUse"><stop
   offset="0"
   style="stop-color:#000082"
   id="stop673" /><stop
   offset="1"
   style="stop-color:#00FFFF"
   id="stop674" /><a:midPointStop
   offset="0"
   style="stop-color:#000082"
   id="midPointStop675" /><a:midPointStop
   offset="0.5"
   style="stop-color:#000082"
   id="midPointStop676" /><a:midPointStop
   offset="1"
   style="stop-color:#00FFFF"
   id="midPointStop677" /></radialGradient><path
   id="path655"
   nodetypes="ccccc"
   fill="url(#path655_1_)"
   stroke="url(#path652_2_)"
   stroke-width="0.9663"
   stroke-linejoin="round"
   d="      M6.6,29.2c-2.2,4.9-4.5,4.4-5.4,7c-0.3,1.3,0.7,2.3,2.3,2.4c1.9-0.1,3.4-0.9,4-2.4C8,33.9,5.7,34.1,6.6,29.2z" /><radialGradient
   id="path657_1_"
   cx="-176.1416"
   cy="428.6108"
   r="0.1447"
   fx="-176.1416"
   fy="428.6108"
   gradientTransform="matrix(32.1863 0 0 -36.2784 5707.1089 15571.0684)"
   gradientUnits="userSpaceOnUse"><stop
   offset="0"
   style="stop-color:#000082"
   id="stop680" /><stop
   offset="1"
   style="stop-color:#00FFFF"
   id="stop681" /><a:midPointStop
   offset="0"
   style="stop-color:#000082"
   id="midPointStop682" /><a:midPointStop
   offset="0.5"
   style="stop-color:#000082"
   id="midPointStop683" /><a:midPointStop
   offset="1"
   style="stop-color:#00FFFF"
   id="midPointStop684" /></radialGradient><path
   id="path657"
   nodetypes="ccccc"
   fill="url(#path657_1_)"
   stroke="url(#path652_2_)"
   stroke-width="0.6074"
   stroke-linejoin="round"
   d="      M36,17.9c2.3,2.6,3.5,1.9,4.5,3.4c0.4,0.8,0,1.5-0.9,1.8c-1.1,0.3-2.2,0-2.8-0.8C36.1,21,37.5,20.8,36,17.9z" /><radialGradient
   id="path658_1_"
   cx="-174.8481"
   cy="429.3882"
   r="0.1442"
   fx="-174.8481"
   fy="429.3882"
   gradientTransform="matrix(48.9312 0 0 -66.7695 8597.5684 28707.3496)"
   gradientUnits="userSpaceOnUse"><stop
   offset="0"
   style="stop-color:#000082"
   id="stop687" /><stop
   offset="1"
   style="stop-color:#00FFFF"
   id="stop688" /><a:midPointStop
   offset="0"
   style="stop-color:#000082"
   id="midPointStop689" /><a:midPointStop
   offset="0.5"
   style="stop-color:#000082"
   id="midPointStop690" /><a:midPointStop
   offset="1"
   style="stop-color:#00FFFF"
   id="midPointStop691" /></radialGradient><path
   id="path658"
   nodetypes="ccccc"
   fill="url(#path658_1_)"
   stroke="url(#path652_2_)"
   stroke-width="1.0408"
   stroke-linejoin="round"
   d="      M40.5,30.3c2.5,5.1,5,4.6,6,7.3c0.3,1.4-0.8,2.4-2.6,2.5c-2.1-0.1-3.8-0.9-4.5-2.5C38.9,35.1,41.5,35.4,40.5,30.3z" /><path
   id="path702"
   nodetypes="ccccc"
   opacity="0.15"
   fill="none"
   stroke="#000000"
   stroke-width="0.9941"
   d="      M26.8,14.6c-0.3-0.4-0.9-0.1-0.3,0.4c4.5,2.9,7.7,3.4,9.1,0.4c0.3-1-0.7-1.5-1.1-0.8C33.1,16.8,31.3,17.2,26.8,14.6z" /><path
   id="path703"
   nodetypes="ccccc"
   fill="#5D1A00"
   d="M26.8,14.6c-0.3-0.4-0.9-0.1-0.3,0.4c4.5,2.9,7.7,3.4,9.1,0.4      c0.3-1-0.7-1.5-1.1-0.8C33.1,16.8,31.3,17.2,26.8,14.6z" /><path
   id="path704"
   nodetypes="ccccc"
   opacity="0.3"
   fill="none"
   stroke="#000000"
   stroke-width="1.9883"
   d="M26.8,14.6      c-0.3-0.4-0.9-0.1-0.3,0.4c4.5,2.9,7.7,3.4,9.1,0.4c0.3-1-0.7-1.5-1.1-0.8C33.1,16.8,31.3,17.2,26.8,14.6z" /><path
   id="path921"
   nodetypes="ccccc"
   opacity="0.15"
   fill="none"
   stroke="#000000"
   stroke-width="0.9941"
   d="      M18.6,14.6c0.3-0.4,0.9-0.1,0.3,0.4c-4.5,2.9-7.7,3.4-9.1,0.4c-0.3-1,0.7-1.5,1.1-0.8C12.4,16.8,14.1,17.2,18.6,14.6z" /><path
   id="path922"
   nodetypes="ccccc"
   fill="#5D1A00"
   d="M18.6,14.6c0.3-0.4,0.9-0.1,0.3,0.4c-4.5,2.9-7.7,3.4-9.1,0.4      c-0.3-1,0.7-1.5,1.1-0.8C12.4,16.8,14.1,17.2,18.6,14.6z" /><path
   id="path923"
   nodetypes="ccccc"
   opacity="0.2"
   fill="none"
   stroke="#000000"
   stroke-width="1.9883"
   d="M18.6,14.6      c0.3-0.4,0.9-0.1,0.3,0.4c-4.5,2.9-7.7,3.4-9.1,0.4c-0.3-1,0.7-1.5,1.1-0.8C12.4,16.8,14.1,17.2,18.6,14.6z" /><path
   id="path753"
   nodetypes="cc"
   opacity="0.3"
   fill="none"
   stroke="#001B00"
   stroke-width="2.9824"
   stroke-linecap="round"
   stroke-linejoin="round"
   d="      M15.8,32.1c-0.6-1.8,12.9-1.5,12.7,0.1" /><path
   id="path924"
   nodetypes="cc"
   fill="none"
   stroke="#751B00"
   stroke-width="1.9883"
   stroke-linecap="round"
   stroke-linejoin="round"
   d="      M15.8,32.1c-0.6-1.8,12.9-1.5,12.7,0.1" /><rect
   id="rect662"
   x="0.7"
   y="0.3"
   i:knockout="Off"
   fill="none"
   width="47.7"
   height="47.8" /></g></g></svg>
