<?xml version="1.0" encoding="UTF-8" standalone="no"?>
<!DOCTYPE svg PUBLIC "-//W3C//DTD SVG 20010904//EN"
"http://www.w3.org/TR/2001/REC-SVG-20010904/DTD/svg10.dtd">
<!-- Created with Sodipodi ("http://www.sodipodi.com/") -->
<svg
   xmlns:x="http://ns.adobe.com/Extensibility/1.0/"
   xmlns:i="http://ns.adobe.com/AdobeIllustrator/10.0/"
   xmlns:graph="http://ns.adobe.com/Graphs/1.0/"
   xmlns="http://www.w3.org/2000/svg"
   xmlns:xlink="http://www.w3.org/1999/xlink"
   xmlns:a="http://ns.adobe.com/AdobeSVGViewerExtensions/3.0/"
   xml:space="preserve"
   i:viewOrigin="189.5 453.3125"
   i:rulerOrigin="0 0"
   i:pageBounds="0 792 612 0"
   width="48"
   height="50.1"
   viewBox="0 0 48 50.1"
   overflow="visible"
   enable-background="new 0 0 48 50.1"
   xmlns:sodipodi="http://sodipodi.sourceforge.net/DTD/sodipodi-0.dtd"
   id="svg602"
   sodipodi:version="0.34"
   sodipodi:docname="C:\msys\home\su_blanc\mldonkey-2.5.12\src\gtk2\rsvg\emoticons\emoticon_cup.svg"><defs
   id="defs787" /><sodipodi:namedview
   id="namedview786" /><g
   id="Layer_1"
   i:layer="yes"
   i:dimmedPercent="50"
   i:rgbTrio="#4F008000FFFF"><g
   id="g606"><radialGradient
   id="path630_1_"
   cx="-189.2036"
   cy="453.3135"
   r="6.410480e-002"
   fx="-189.2036"
   fy="453.3135"
   gradientTransform="matrix(480.6302 0 0 -290.6096 90956.2031 131768.2344)"
   gradientUnits="userSpaceOnUse"><stop
   offset="0"
   style="stop-color:#000000"
   id="stop608" /><stop
   offset="1"
   style="stop-color:#000001"
   id="stop609" /><a:midPointStop
   offset="0"
   style="stop-color:#000000"
   id="midPointStop610" /><a:midPointStop
   offset="0.5"
   style="stop-color:#000000"
   id="midPointStop611" /><a:midPointStop
   offset="1"
   style="stop-color:#000001"
   id="midPointStop612" /></radialGradient><path
   id="path630"
   nodetypes="ccsc"
   opacity="5.000000e-002"
   fill="url(#path630_1_)"
   d="M44.9,22.4      C35.2,42.4,15.5,43,4.3,24c-4.9,4.5-5.8,17.1,12.3,24.4C36.2,56.4,52.2,29.4,44.9,22.4z" /><radialGradient
   id="path650_1_"
   cx="-189.2109"
   cy="453.8467"
   r="7.474609e-002"
   fx="-189.2109"
   fy="453.8467"
   gradientTransform="matrix(363.8889 0 0 -140.0303 68874.3047 63581.4531)"
   gradientUnits="userSpaceOnUse"><stop
   offset="0"
   style="stop-color:#000000"
   id="stop615" /><stop
   offset="1"
   style="stop-color:#000001"
   id="stop616" /><a:midPointStop
   offset="0"
   style="stop-color:#000000"
   id="midPointStop617" /><a:midPointStop
   offset="0.5"
   style="stop-color:#000000"
   id="midPointStop618" /><a:midPointStop
   offset="1"
   style="stop-color:#000001"
   id="midPointStop619" /></radialGradient><path
   id="path650"
   nodetypes="ccsc"
   opacity="0.1"
   fill="url(#path650_1_)"
   d="M38.2,29.3c-7.4,9.6-22.3,9.9-30.7,0.8      c-3.7,2.2-4.4,8.2,9.3,11.8C31.5,45.7,43.7,32.7,38.2,29.3z" /><radialGradient
   id="path648_1_"
   cx="-189.2847"
   cy="453.6904"
   r="6.370666e-002"
   fx="-189.2847"
   fy="453.6904"
   gradientTransform="matrix(355.4296 0 0 -168.7927 67298.2734 76613.0391)"
   gradientUnits="userSpaceOnUse"><stop
   offset="0"
   style="stop-color:#000000"
   id="stop622" /><stop
   offset="1"
   style="stop-color:#000001"
   id="stop623" /><a:midPointStop
   offset="0"
   style="stop-color:#000000"
   id="midPointStop624" /><a:midPointStop
   offset="0.5"
   style="stop-color:#000000"
   id="midPointStop625" /><a:midPointStop
   offset="1"
   style="stop-color:#000001"
   id="midPointStop626" /></radialGradient><path
   id="path648"
   nodetypes="ccsc"
   opacity="0.15"
   fill="url(#path648_1_)"
   d="M40,28.7c-7.2,11.6-21.8,11.9-30,0.9      c-3.6,2.6-4.3,9.9,9.1,14.2C33.5,48.4,45.3,32.7,40,28.7z" /><g
   id="path627"
   nodetypes="cscsc"><path
   i:knockout="Off"
   opacity="3.320000e-002"
   fill="none"
   stroke="#40210A"
   stroke-width="3.2839"
   d="M11.8,11.9       C-0.6,25.7,12.2,37.7,25,37.8c14.5,0,25.2-17.7,10.9-27.1C35.3,5,30,2.2,24.2,2.3S12.8,5.3,11.8,11.9z"
   id="path629" /></g><g
   id="g630"
   nodetypes="cscsc"><path
   i:knockout="Off"
   opacity="3.320000e-002"
   fill="none"
   stroke="#40210A"
   stroke-width="2.0554"
   d="M11.8,11.9       C-0.6,25.7,12.2,37.7,25,37.8c14.5,0,25.2-17.7,10.9-27.1C35.3,5,30,2.2,24.2,2.3S12.8,5.3,11.8,11.9z"
   id="path631" /></g><g
   id="path628"
   nodetypes="cscsc"><path
   i:knockout="Off"
   opacity="3.320000e-002"
   fill="none"
   stroke="#40210A"
   stroke-width="2.646"
   d="M11.8,11.9       C-0.6,25.7,12.2,37.7,25,37.8c14.5,0,25.2-17.7,10.9-27.1C35.3,5,30,2.2,24.2,2.3S12.8,5.3,11.8,11.9z"
   id="path633" /></g><g
   id="path626"
   nodetypes="cscsc"><path
   i:knockout="Off"
   opacity="3.320000e-002"
   fill="none"
   stroke="#40210A"
   stroke-width="3.2839"
   d="M11.8,11.9       C-0.6,25.7,12.2,37.7,25,37.8c14.5,0,25.2-17.7,10.9-27.1C35.3,5,30,2.2,24.2,2.3S12.8,5.3,11.8,11.9z"
   id="path635" /></g><g
   id="path625"
   nodetypes="cscsc"><path
   i:knockout="Off"
   opacity="3.320000e-002"
   fill="none"
   stroke="#40210A"
   stroke-width="3.5438"
   d="M11.8,11.9       C-0.6,25.7,12.2,37.7,25,37.8c14.5,0,25.2-17.7,10.9-27.1C35.3,5,30,2.2,24.2,2.3S12.8,5.3,11.8,11.9z"
   id="path637" /></g><g
   id="path624"
   nodetypes="cscsc"><path
   i:knockout="Off"
   opacity="3.320000e-002"
   fill="none"
   stroke="#40210A"
   stroke-width="4.2052"
   d="M11.8,11.9       C-0.6,25.7,12.2,37.7,25,37.8c14.5,0,25.2-17.7,10.9-27.1C35.3,5,30,2.2,24.2,2.3S12.8,5.3,11.8,11.9z"
   id="path639" /></g><g
   id="path623"
   nodetypes="cscsc"><path
   i:knockout="Off"
   opacity="3.320000e-002"
   fill="none"
   stroke="#40210A"
   stroke-width="4.5596"
   d="M11.8,11.9       C-0.6,25.7,12.2,37.7,25,37.8c14.5,0,25.2-17.7,10.9-27.1C35.3,5,30,2.2,24.2,2.3S12.8,5.3,11.8,11.9z"
   id="path641" /></g><linearGradient
   id="path607_1_"
   gradientUnits="userSpaceOnUse"
   x1="-190.6396"
   y1="453.1416"
   x2="-190.6669"
   y2="453.0885"
   gradientTransform="matrix(83.9234 0 0 -112.4407 16029.3164 50973.8828)"><stop
   offset="0"
   style="stop-color:#D9D1B4"
   id="stop643" /><stop
   offset="1"
   style="stop-color:#B2B5A5"
   id="stop644" /><a:midPointStop
   offset="0"
   style="stop-color:#D9D1B4"
   id="midPointStop645" /><a:midPointStop
   offset="0.5"
   style="stop-color:#D9D1B4"
   id="midPointStop646" /><a:midPointStop
   offset="1"
   style="stop-color:#B2B5A5"
   id="midPointStop647" /></linearGradient><path
   id="path607"
   nodetypes="csscss"
   fill="url(#path607_1_)"
   d="M29.9,19.9c1.2,1.2,3.1,6.9,2.9,8.1      c-0.2,1.9-3,2.7-4.1,2.4c-1.5-0.5-2.7-2.9-3.8-4.5c0.2-0.8,0.6-3.9,1.1-4.7C26.6,19.9,29.5,19.6,29.9,19.9z" /><linearGradient
   id="path581_1_"
   gradientUnits="userSpaceOnUse"
   x1="-189.2236"
   y1="452.9082"
   x2="-189.3172"
   y2="452.906"
   gradientTransform="matrix(369.8173 0 0 -279.168 70019.9688 126461.7969)"><stop
   offset="0"
   style="stop-color:#D7D7C2"
   id="stop650" /><stop
   offset="1"
   style="stop-color:#DDE2DF"
   id="stop651" /><a:midPointStop
   offset="0"
   style="stop-color:#D7D7C2"
   id="midPointStop652" /><a:midPointStop
   offset="0.5"
   style="stop-color:#D7D7C2"
   id="midPointStop653" /><a:midPointStop
   offset="1"
   style="stop-color:#DDE2DF"
   id="midPointStop654" /></linearGradient><path
   id="path581"
   nodetypes="csccssssc"
   fill="url(#path581_1_)"
   d="M11.7,12.3c-13.1,17.2,6.2,25.1,12.6,25.2      c15.5,0.1,24.5-16.7,11.8-26.4c0.2,2.3-3.3,8.7-5.4,10.6c1,2.5,2.5,5.2,1.7,7c-0.4,1-2.8,2-3.9,1.6c-1.4-0.5-3-4.2-3.7-4.2      c-3.3,0-3.4-1.1-5.2-2.3C16.1,21.6,11.8,14.3,11.7,12.3z" /><linearGradient
   id="path621_1_"
   gradientUnits="userSpaceOnUse"
   x1="-189.4092"
   y1="452.2656"
   x2="-189.3149"
   y2="452.2656"
   gradientTransform="matrix(254.103 0 0 -183.1892 48141.3945 82861.0313)"><stop
   offset="0"
   style="stop-color:#D9D1B4"
   id="stop657" /><stop
   offset="1"
   style="stop-color:#B2B5A5"
   id="stop658" /><a:midPointStop
   offset="0"
   style="stop-color:#D9D1B4"
   id="midPointStop659" /><a:midPointStop
   offset="0.5"
   style="stop-color:#D9D1B4"
   id="midPointStop660" /><a:midPointStop
   offset="1"
   style="stop-color:#B2B5A5"
   id="midPointStop661" /></linearGradient><path
   id="path621"
   nodetypes="cssss"
   fill="url(#path621_1_)"
   d="M35.9,11c-1,6.5-7.6,8.4-12.2,8.6      c-6.4,0.3-11.4-3.3-11.8-7.1c-0.5-5.3,5-10.2,12-10.2C33.1,2.4,36.4,7.8,35.9,11z" /><g
   id="path579"
   nodetypes="css"><path
   i:knockout="Off"
   opacity="0.5735"
   fill="none"
   stroke="#A6945C"
   stroke-width="1.0395"
   d="M36.2,11.1       c13.7,12,0,26.6-10.7,26.2C12.9,37-0.1,26.6,11.8,12.5"
   id="path664" /></g><g
   id="path567"
   nodetypes="cssss"><linearGradient
   id="XMLID_1_"
   gradientUnits="userSpaceOnUse"
   x1="-193.3989"
   y1="455.6377"
   x2="-193.1913"
   y2="455.665"
   gradientTransform="matrix(32.3605 0 0 -82.8579 6285.875 37778.8398)"><stop
   offset="0"
   style="stop-color:#FFFFFF"
   id="stop667" /><stop
   offset="1"
   style="stop-color:#FFFFFF"
   id="stop668" /><a:midPointStop
   offset="0"
   style="stop-color:#FFFFFF"
   id="midPointStop669" /><a:midPointStop
   offset="0.5"
   style="stop-color:#FFFFFF"
   id="midPointStop670" /><a:midPointStop
   offset="1"
   style="stop-color:#FFFFFF"
   id="midPointStop671" /></linearGradient><path
   i:knockout="Off"
   opacity="0.5071"
   fill="url(#XMLID_1_)"
   d="M25.8,25.1c0.1-1.1,0.1-3.7,0.4-3.2c0.7,1,2.9,6.2,2.6,7.6       c-0.3,1.1-2-2.2-2.9-3.4C25.8,25.7,25.8,25.4,25.8,25.1z"
   id="path672" /><linearGradient
   id="XMLID_2_"
   gradientUnits="userSpaceOnUse"
   x1="-187.6372"
   y1="452.6797"
   x2="-190.6765"
   y2="452.9375"><stop
   offset="0"
   style="stop-color:#660000"
   id="stop674" /><stop
   offset="1"
   style="stop-color:#FFFFFF"
   id="stop675" /><a:midPointStop
   offset="0"
   style="stop-color:#660000"
   id="midPointStop676" /><a:midPointStop
   offset="0.5"
   style="stop-color:#660000"
   id="midPointStop677" /><a:midPointStop
   offset="1"
   style="stop-color:#FFFFFF"
   id="midPointStop678" /></linearGradient><path
   i:knockout="Off"
   opacity="0.2464"
   fill="none"
   stroke="url(#XMLID_2_)"
   stroke-width="0.6178"
   d="M25.8,25.1       c0.1-1.1,0.1-3.7,0.4-3.2c0.7,1,2.9,6.2,2.6,7.6c-0.3,1.1-2-2.2-2.9-3.4C25.8,25.7,25.8,25.4,25.8,25.1z"
   id="path679" /></g><g
   id="path566"
   nodetypes="cssss"><path
   i:knockout="Off"
   opacity="0.1564"
   fill="none"
   stroke="#641500"
   stroke-width="1.4648"
   d="M25.8,25.1       c0.1-1.1,0.1-3.7,0.4-3.2c0.7,1,2.9,6.2,2.6,7.6c-0.3,1.1-2-2.2-2.9-3.4C25.8,25.7,25.8,25.4,25.8,25.1z"
   id="path681" /></g><g
   id="path563"
   nodetypes="cscsc"><path
   i:knockout="Off"
   opacity="0.9336"
   fill="none"
   stroke="#575A0A"
   stroke-width="0.4607"
   d="M11.8,11.9       C-0.6,25.7,12.2,37.7,25,37.8c14.5,0,25.2-17.7,10.9-27.1C35.3,5,30,2.2,24.2,2.3S12.8,5.3,11.8,11.9z"
   id="path683" /></g><g
   id="path565"
   nodetypes="cssss"><path
   i:knockout="Off"
   opacity="0.2464"
   fill="none"
   stroke="#641500"
   stroke-width="0.8654"
   d="M25.8,25.1       c0.1-1.1,0.1-3.7,0.4-3.2c0.7,1,2.9,6.2,2.6,7.6c-0.3,1.1-2-2.2-2.9-3.4C25.8,25.7,25.8,25.4,25.8,25.1z"
   id="path685" /></g><g
   id="path580"
   nodetypes="css"><path
   i:knockout="Off"
   opacity="0.5735"
   fill="none"
   stroke="#A18D54"
   stroke-width="0.1772"
   stroke-linecap="round"
   d="       M36.2,11.1c14.2,11.5,0,26.8-10.6,26.4C13,37.2-0.1,26.6,11.8,12.5"
   id="path687" /></g><linearGradient
   id="path586_1_"
   gradientUnits="userSpaceOnUse"
   x1="-188.9199"
   y1="452.9219"
   x2="-188.9952"
   y2="452.961"
   gradientTransform="matrix(127.0988 0 0 -159.8858 24029.5176 72444.5234)"><stop
   offset="0"
   style="stop-color:#FFFFFF"
   id="stop689" /><stop
   offset="1"
   style="stop-color:#FFFFFF"
   id="stop690" /><a:midPointStop
   offset="0"
   style="stop-color:#FFFFFF"
   id="midPointStop691" /><a:midPointStop
   offset="0.5"
   style="stop-color:#FFFFFF"
   id="midPointStop692" /><a:midPointStop
   offset="1"
   style="stop-color:#FFFFFF"
   id="midPointStop693" /></linearGradient><path
   id="path586"
   nodetypes="ccccccccc"
   fill="url(#path586_1_)"
   d="M19.6,23.4c0.1,1.5,0.4,3.8-0.8,4.7      c-1.9,0.6-4.8-2.6-5.3-1.9c-0.6,0.2,1.1,3,0.2,3.9c-1.1,0.2-2.8-3-3.7-2.5c-0.6,0.2,0.5,3.1,0.2,3.8c-3.1-4.3-3.7-11-0.1-15.1      c2.6,0.5,4.4,2.2,6,4C17.1,21.6,18.2,22.5,19.6,23.4z" /><radialGradient
   id="path591_1_"
   cx="-189.2554"
   cy="452.8701"
   r="3.570020e-002"
   fx="-189.2554"
   fy="452.8701"
   gradientTransform="matrix(369.5546 0 0 -279.168 69969.8281 126461.7969)"
   gradientUnits="userSpaceOnUse"><stop
   offset="0"
   style="stop-color:#FFFFFF"
   id="stop696" /><stop
   offset="1"
   style="stop-color:#FFFFFF"
   id="stop697" /><a:midPointStop
   offset="0"
   style="stop-color:#FFFFFF"
   id="midPointStop698" /><a:midPointStop
   offset="0.5"
   style="stop-color:#FFFFFF"
   id="midPointStop699" /><a:midPointStop
   offset="1"
   style="stop-color:#FFFFFF"
   id="midPointStop700" /></radialGradient><path
   id="path591"
   nodetypes="csccssssc"
   fill="url(#path591_1_)"
   d="M11.7,12.3c-13.1,17.2,5.9,25.1,12.4,25.2      c15.5,0.1,24.8-16.7,12.1-26.4c0.2,2.3-3.3,8.7-5.4,10.6c1,2.5,2.5,5.2,1.7,7c-0.4,1-2.8,2-3.9,1.6c-1.4-0.5-3-4.2-3.7-4.2      c-3.3,0-3.4-1.1-5.2-2.3C16.1,21.6,11.8,14.3,11.7,12.3z" /><g
   id="path594"
   nodetypes="cc"><path
   i:knockout="Off"
   opacity="0.7109"
   fill="none"
   stroke="#71653C"
   stroke-width="0.8977"
   d="M20,24.4       c1,1.7,3.5,2.2,5.1,1.9"
   id="path703" /></g><g
   id="path595"
   nodetypes="cc"><path
   i:knockout="Off"
   opacity="0.7109"
   fill="none"
   stroke="#71653C"
   stroke-width="0.3426"
   stroke-linecap="round"
   d="       M20,24.4c1,1.7,3.4,2.3,5.1,2.1"
   id="path705" /></g><g
   id="path596"
   nodetypes="cc"><path
   i:knockout="Off"
   opacity="0.3649"
   fill="none"
   stroke="#75623A"
   stroke-width="1.3348"
   stroke-linecap="round"
   d="       M20,24.4c1,1.7,3.3,2.1,4.9,1.9"
   id="path707" /></g><linearGradient
   id="path597_1_"
   gradientUnits="userSpaceOnUse"
   x1="-189.3115"
   y1="452.6377"
   x2="-189.3689"
   y2="452.6392"
   gradientTransform="matrix(259.133 0 0 -160.1619 49092.875 72513.875)"><stop
   offset="0"
   style="stop-color:#D9D1B4"
   id="stop709" /><stop
   offset="1"
   style="stop-color:#B2B5A5"
   id="stop710" /><a:midPointStop
   offset="0"
   style="stop-color:#D9D1B4"
   id="midPointStop711" /><a:midPointStop
   offset="0.5"
   style="stop-color:#D9D1B4"
   id="midPointStop712" /><a:midPointStop
   offset="1"
   style="stop-color:#B2B5A5"
   id="midPointStop713" /></linearGradient><path
   id="path597"
   nodetypes="cssssscc"
   fill="url(#path597_1_)"
   d="M36.1,11c0.6,2-3.2,8.4-5,10.6      c-0.4,0.4-0.7-1.7-1.4-1.8c-1.1-0.1-3,0.4-3.8,1.2c-0.8,0.8-0.2,4.7-1.1,5c-2.7,0.6-4.3-1.8-5.2-2.4c-3.4-2.4-6.8-6.9-7.8-11.3      C14,22.2,33.3,22.4,36.1,11z" /><radialGradient
   id="path601_1_"
   cx="-188.0176"
   cy="453.2773"
   r="8.641007e-002"
   fx="-188.0176"
   fy="453.2773"
   gradientTransform="matrix(39.8924 0 0 -57.5219 7509.522 26095.3047)"
   gradientUnits="userSpaceOnUse"><stop
   offset="0"
   style="stop-color:#FFFFFF"
   id="stop716" /><stop
   offset="1"
   style="stop-color:#ECFBFB"
   id="stop717" /><a:midPointStop
   offset="0"
   style="stop-color:#FFFFFF"
   id="midPointStop718" /><a:midPointStop
   offset="0.5"
   style="stop-color:#FFFFFF"
   id="midPointStop719" /><a:midPointStop
   offset="1"
   style="stop-color:#ECFBFB"
   id="midPointStop720" /></radialGradient><path
   id="path601"
   nodetypes="ccssc"
   fill="url(#path601_1_)"
   d="M8.9,21.4c1.1,2.4,1.3,2.7,3.1,4.6      c-1.1,0.4-2.1-1.3-2.6-1c-0.4,0.3,0.5,1.7,0,1.8C8.4,26.9,7.6,21.7,8.9,21.4z" /><radialGradient
   id="path608_1_"
   cx="-193.5835"
   cy="453.2119"
   r="8.850723e-002"
   fx="-193.5835"
   fy="453.2119"
   gradientTransform="matrix(33.5391 0 0 -52.2734 6523.9692 23713.6914)"
   gradientUnits="userSpaceOnUse"><stop
   offset="0"
   style="stop-color:#FFFFFF"
   id="stop723" /><stop
   offset="1"
   style="stop-color:#FFFFFF"
   id="stop724" /><a:midPointStop
   offset="0"
   style="stop-color:#FFFFFF"
   id="midPointStop725" /><a:midPointStop
   offset="0.5"
   style="stop-color:#FFFFFF"
   id="midPointStop726" /><a:midPointStop
   offset="1"
   style="stop-color:#FFFFFF"
   id="midPointStop727" /></radialGradient><path
   id="path608"
   nodetypes="csss"
   fill="url(#path608_1_)"
   d="M30.2,21.2c0.7,0.7,2,4.6,1.8,4.9      c-0.2,0.3-2.7-2-3.1-3.1C28.7,22.4,29.9,20.9,30.2,21.2z" /><radialGradient
   id="path613_1_"
   cx="-195.8755"
   cy="453.7061"
   r="8.906771e-002"
   fx="-195.8755"
   fy="453.7061"
   gradientTransform="matrix(17.4659 0 0 -45.5058 3448.4812 20671.2441)"
   gradientUnits="userSpaceOnUse"><stop
   offset="0"
   style="stop-color:#FFFFFF"
   id="stop730" /><stop
   offset="1"
   style="stop-color:#FFFFFF"
   id="stop731" /><a:midPointStop
   offset="0"
   style="stop-color:#FFFFFF"
   id="midPointStop732" /><a:midPointStop
   offset="0.5"
   style="stop-color:#FFFFFF"
   id="midPointStop733" /><a:midPointStop
   offset="1"
   style="stop-color:#FFFFFF"
   id="midPointStop734" /></radialGradient><path
   id="path613"
   nodetypes="csss"
   fill="url(#path613_1_)"
   d="M26.8,23.6c0.4,0.6,1,4,0.9,4.2      c-0.1,0.2-1.4-1.8-1.6-2.7C26,24.6,26.6,23.3,26.8,23.6z" /><linearGradient
   id="path614_1_"
   gradientUnits="userSpaceOnUse"
   x1="-189.5044"
   y1="452.1211"
   x2="-189.4097"
   y2="452.1211"
   gradientTransform="matrix(199.7799 0 0 -121.934 37873.4922 55141.5898)"><stop
   offset="0"
   style="stop-color:#4F4A06"
   id="stop737" /><stop
   offset="1"
   style="stop-color:#575401"
   id="stop738" /><a:midPointStop
   offset="0"
   style="stop-color:#4F4A06"
   id="midPointStop739" /><a:midPointStop
   offset="0.5"
   style="stop-color:#4F4A06"
   id="midPointStop740" /><a:midPointStop
   offset="1"
   style="stop-color:#575401"
   id="midPointStop741" /></linearGradient><path
   id="path614"
   nodetypes="csss"
   fill="url(#path614_1_)"
   d="M24,7c5.6-0.1,10.4,3.9,9,6.8      C30.5,19.5,19.5,20.2,15,15C12.6,12.3,17.6,7,24,7z" /><linearGradient
   id="path619_1_"
   gradientUnits="userSpaceOnUse"
   x1="-189.5698"
   y1="452.0303"
   x2="-189.7597"
   y2="452.0837"
   gradientTransform="matrix(71.8194 0 0 -103.8746 13637.7852 46968.375)"><stop
   offset="0"
   style="stop-color:#FFFFFF"
   id="stop744" /><stop
   offset="1"
   style="stop-color:#FFFFFF"
   id="stop745" /><a:midPointStop
   offset="0"
   style="stop-color:#FFFFFF"
   id="midPointStop746" /><a:midPointStop
   offset="0.5"
   style="stop-color:#FFFFFF"
   id="midPointStop747" /><a:midPointStop
   offset="1"
   style="stop-color:#FFFFFF"
   id="midPointStop748" /></linearGradient><path
   id="path619"
   nodetypes="cccc"
   fill="url(#path619_1_)"
   d="M20.3,18c-1.8-0.5-3.3-1.1-4.7-2.5      c0-4.4,3.6-6,6.8-7.3C20.3,10,16.9,14.1,20.3,18z" /><radialGradient
   id="path635_1_"
   cx="-189.2744"
   cy="452.1758"
   r="4.760805e-002"
   fx="-189.2744"
   fy="452.1758"
   gradientTransform="matrix(89.8544 0 0 -141.4218 17023.9785 63959.5938)"
   gradientUnits="userSpaceOnUse"><stop
   offset="0"
   style="stop-color:#FFFFFF"
   id="stop751" /><stop
   offset="1"
   style="stop-color:#ECFBFB"
   id="stop752" /><a:midPointStop
   offset="0"
   style="stop-color:#FFFFFF"
   id="midPointStop753" /><a:midPointStop
   offset="0.5"
   style="stop-color:#FFFFFF"
   id="midPointStop754" /><a:midPointStop
   offset="1"
   style="stop-color:#ECFBFB"
   id="midPointStop755" /></radialGradient><path
   id="path756"
   nodetypes="ccc"
   fill="url(#path635_1_)"
   d="M17.3,5.4c-3.5,2.6-5.8,11.4,3.8,13.4      C9.6,17.6,11.3,7.4,17.3,5.4z" /><radialGradient
   id="path638_1_"
   cx="-191.0493"
   cy="452.1641"
   r="4.711977e-002"
   fx="-191.0493"
   fy="452.1641"
   gradientTransform="matrix(81.1539 0 0 -157.3318 15536.042 71150.6016)"
   gradientUnits="userSpaceOnUse"><stop
   offset="0"
   style="stop-color:#FFFFFF"
   id="stop758" /><stop
   offset="1"
   style="stop-color:#ECFBFB"
   id="stop759" /><a:midPointStop
   offset="0"
   style="stop-color:#FFFFFF"
   id="midPointStop760" /><a:midPointStop
   offset="0.5"
   style="stop-color:#FFFFFF"
   id="midPointStop761" /><a:midPointStop
   offset="1"
   style="stop-color:#ECFBFB"
   id="midPointStop762" /></radialGradient><path
   id="path638"
   nodetypes="ccc"
   fill="url(#path638_1_)"
   d="M29.1,3.4c4.2,2.4,10.9,10-1.3,14.9      C40.1,14.4,35.4,5.4,29.1,3.4z" /><radialGradient
   id="path639_1_"
   cx="-189.5171"
   cy="451.2188"
   r="0.1842"
   fx="-189.5171"
   fy="451.2188"
   gradientTransform="matrix(187.4035 0 0 -86.4692 35539.3398 39034.0469)"
   gradientUnits="userSpaceOnUse"><stop
   offset="0"
   style="stop-color:#000000"
   id="stop765" /><stop
   offset="1"
   style="stop-color:#000001"
   id="stop766" /><a:midPointStop
   offset="0"
   style="stop-color:#000000"
   id="midPointStop767" /><a:midPointStop
   offset="0.5"
   style="stop-color:#000000"
   id="midPointStop768" /><a:midPointStop
   offset="1"
   style="stop-color:#000001"
   id="midPointStop769" /></radialGradient><path
   id="path770"
   nodetypes="ccc"
   opacity="0.41"
   fill="url(#path639_1_)"
   d="M33.1,12.2c-0.3-3.5-9.6-8.9-17.7-1.5      C21.9-1,33.3,4.8,33.1,12.2z" /><radialGradient
   id="path649_1_"
   cx="-189.2085"
   cy="453.5947"
   r="7.489264e-002"
   fx="-189.2085"
   fy="453.5947"
   gradientTransform="matrix(418.8757 0 0 -202.6307 79278.1016 91939.5938)"
   gradientUnits="userSpaceOnUse"><stop
   offset="0"
   style="stop-color:#000000"
   id="stop772" /><stop
   offset="1"
   style="stop-color:#000001"
   id="stop773" /><a:midPointStop
   offset="0"
   style="stop-color:#000000"
   id="midPointStop774" /><a:midPointStop
   offset="0.5"
   style="stop-color:#000000"
   id="midPointStop775" /><a:midPointStop
   offset="1"
   style="stop-color:#000001"
   id="midPointStop776" /></radialGradient><path
   id="path649"
   nodetypes="ccsc"
   opacity="0.3"
   fill="url(#path649_1_)"
   d="M41.6,27.5C33.1,41.4,16,41.8,6.3,28.6      c-4.3,3.1-5,11.9,10.7,17C34,51.2,48,32.4,41.6,27.5z" /><radialGradient
   id="path651_1_"
   cx="-193.9961"
   cy="449.6699"
   r="8.595297e-002"
   fx="-193.9961"
   fy="449.6699"
   gradientTransform="matrix(32.5311 0 0 -31.7565 6341.2056 14289.7402)"
   gradientUnits="userSpaceOnUse"><stop
   offset="0"
   style="stop-color:#FFFFFF"
   id="stop779" /><stop
   offset="1"
   style="stop-color:#ECFBFB"
   id="stop780" /><a:midPointStop
   offset="0"
   style="stop-color:#FFFFFF"
   id="midPointStop781" /><a:midPointStop
   offset="0.5"
   style="stop-color:#FFFFFF"
   id="midPointStop782" /><a:midPointStop
   offset="1"
   style="stop-color:#ECFBFB"
   id="midPointStop783" /></radialGradient><path
   id="path651"
   nodetypes="ccssc"
   fill="url(#path651_1_)"
   d="M32.6,12.5c-1.3-1-1.5-1.1-3-1.4      c0.4-0.7,1.4-0.1,1.5-0.5c0.1-0.3-0.8-0.8-0.6-1.1C31,9.1,33.1,11.8,32.6,12.5z" /></g><rect
   y="2.1"
   fill="none"
   width="48"
   height="48"
   id="rect785" /></g></svg>
