<?xml version="1.0" encoding="UTF-8" standalone="no"?>
<!DOCTYPE svg PUBLIC "-//W3C//DTD SVG 20010904//EN"
"http://www.w3.org/TR/2001/REC-SVG-20010904/DTD/svg10.dtd">
<!-- Created with Sodipodi ("http://www.sodipodi.com/") -->
<svg
   xmlns:x="http://ns.adobe.com/Extensibility/1.0/"
   xmlns:i="http://ns.adobe.com/AdobeIllustrator/10.0/"
   xmlns:graph="http://ns.adobe.com/Graphs/1.0/"
   xmlns="http://www.w3.org/2000/svg"
   xmlns:xlink="http://www.w3.org/1999/xlink"
   xmlns:a="http://ns.adobe.com/AdobeSVGViewerExtensions/3.0/"
   xml:space="preserve"
   i:viewOrigin="243.667 438.335"
   i:rulerOrigin="0 0"
   i:pageBounds="0 792 612 0"
   width="48"
   height="48"
   viewBox="0 0 48 48"
   overflow="visible"
   enable-background="new 0 0 48 48"
   xmlns:sodipodi="http://sodipodi.sourceforge.net/DTD/sodipodi-0.dtd"
   id="svg602"
   sodipodi:version="0.34"
   sodipodi:docname="C:\msys\home\su_blanc\mldonkey-2.5.12\src\gtk2\rsvg\emoticons\emoticon_cake.svg"><defs
   id="defs760" /><sodipodi:namedview
   id="namedview759" /><g
   id="Layer_1"
   i:layer="yes"
   i:dimmedPercent="50"
   i:rgbTrio="#4F008000FFFF"><g
   id="g606"><g
   id="g607"><g
   id="path761"
   nodetypes="ccccc"><path
   i:knockout="Off"
   opacity="3.320000e-002"
   fill="none"
   stroke="#000000"
   stroke-width="1.1871"
   d="M6.6,21.3        c0,4.5,0,8.9,0.1,13.3c0,7.8,33.6,7.4,33.5-0.2c0-4.4-0.1-8.7,0-13.1C40.2,13.7,6.9,13.9,6.6,21.3z"
   id="path609" /></g><g
   id="path760"
   nodetypes="ccccc"><path
   i:knockout="Off"
   opacity="3.320000e-002"
   fill="none"
   stroke="#000000"
   stroke-width="1.4018"
   d="M6.6,21.3        c0,4.5,0,8.9,0.1,13.3c0,7.8,33.6,7.4,33.5-0.2c0-4.4-0.1-8.7,0-13.1C40.2,13.7,6.9,13.9,6.6,21.3z"
   id="path611" /></g><g
   id="path759"
   nodetypes="ccccc"><path
   i:knockout="Off"
   opacity="3.320000e-002"
   fill="none"
   stroke="#000000"
   stroke-width="1.667"
   d="M6.6,21.3        c0,4.5,0,8.9,0.1,13.3c0,7.8,33.6,7.4,33.5-0.2c0-4.4-0.1-8.7,0-13.1C40.2,13.7,6.9,13.9,6.6,21.3z"
   id="path613" /></g><g
   id="path758"
   nodetypes="ccccc"><path
   i:knockout="Off"
   opacity="3.320000e-002"
   fill="none"
   stroke="#000000"
   stroke-width="2.0584"
   d="M6.6,21.3        c0,4.5,0,8.9,0.1,13.3c0,7.8,33.6,7.4,33.5-0.2c0-4.4-0.1-8.7,0-13.1C40.2,13.7,6.9,13.9,6.6,21.3z"
   id="path615" /></g><g
   id="path756"
   nodetypes="ccccc"><path
   i:knockout="Off"
   opacity="3.320000e-002"
   fill="none"
   stroke="#000000"
   stroke-width="3.4602"
   d="M6.6,21.3        c0,4.5,0,8.9,0.1,13.3c0,7.8,33.6,7.4,33.5-0.2c0-4.4-0.1-8.7,0-13.1C40.2,13.7,6.9,13.9,6.6,21.3z"
   id="path617" /></g><g
   id="path755"
   nodetypes="ccccc"><path
   i:knockout="Off"
   opacity="3.320000e-002"
   fill="none"
   stroke="#000000"
   stroke-width="5.2343"
   d="M6.6,21.3        c0,4.5,0,8.9,0.1,13.3c0,7.8,33.6,7.4,33.5-0.2c0-4.4-0.1-8.7,0-13.1C40.2,13.7,6.9,13.9,6.6,21.3z"
   id="path619" /></g><radialGradient
   id="path700_1_"
   cx="-243.2168"
   cy="439.0986"
   r="2.318829e-002"
   fx="-243.2168"
   fy="439.0986"
   gradientTransform="matrix(795.709 0 0 -250.6028 193552.6875 110079.9453)"
   gradientUnits="userSpaceOnUse"><stop
   offset="0"
   style="stop-color:#261700"
   id="stop621" /><stop
   offset="1"
   style="stop-color:#FFFFFF"
   id="stop622" /><a:midPointStop
   offset="0"
   style="stop-color:#261700"
   id="midPointStop623" /><a:midPointStop
   offset="0.5"
   style="stop-color:#261700"
   id="midPointStop624" /><a:midPointStop
   offset="1"
   style="stop-color:#FFFFFF"
   id="midPointStop625" /></radialGradient><path
   id="path700"
   nodetypes="cccccc"
   opacity="0.4"
   fill="url(#path700_1_)"
   d="M40.2,34.4C48.1,38,47.5,43,37.9,46       s-22.5,2.8-30.4-0.8c-6.7-3-6.9-6.9-0.6-10.1c4.1,3.7,7,4.6,16.4,5.4C31.5,40.3,37.6,38.3,40.2,34.4z" /><linearGradient
   id="path647_1_"
   gradientUnits="userSpaceOnUse"
   x1="-243.1953"
   y1="438.0957"
   x2="-243.2282"
   y2="438.0957"
   gradientTransform="matrix(614.9016 0 0 -406.0133 149574.7656 177904.1563)"><stop
   offset="0"
   style="stop-color:#FF6F00"
   id="stop628" /><stop
   offset="1"
   style="stop-color:#FFFF00"
   id="stop629" /><a:midPointStop
   offset="0"
   style="stop-color:#FF6F00"
   id="midPointStop630" /><a:midPointStop
   offset="0.5"
   style="stop-color:#FF6F00"
   id="midPointStop631" /><a:midPointStop
   offset="1"
   style="stop-color:#FFFF00"
   id="midPointStop632" /></linearGradient><path
   id="path647"
   nodetypes="ccccc"
   fill="url(#path647_1_)"
   d="M6.6,22.2c0,4.2,0,8.4,0.1,12.6       c0,7.3,33.6,7,33.5-0.2c0-4.1-0.1-8.3,0-12.4C40.1,29.3,6.7,29.2,6.6,22.2z" /><linearGradient
   id="path638_1_"
   gradientUnits="userSpaceOnUse"
   x1="-243.1929"
   y1="437.4795"
   x2="-243.2172"
   y2="437.4918"
   gradientTransform="matrix(614.16 0 0 -241.9418 149394.2188 105868.25)"><stop
   offset="0"
   style="stop-color:#FF6F00"
   id="stop635" /><stop
   offset="1"
   style="stop-color:#FFFF00"
   id="stop636" /><a:midPointStop
   offset="0"
   style="stop-color:#FF6F00"
   id="midPointStop637" /><a:midPointStop
   offset="0.5"
   style="stop-color:#FF6F00"
   id="midPointStop638" /><a:midPointStop
   offset="1"
   style="stop-color:#FFFF00"
   id="midPointStop639" /></linearGradient><path
   id="path638"
   type="arc"
   cx="545.6380"
   cy="523.6432"
   rx="307.0800"
   ry="120.9709"
   fill="url(#path638_1_)"
   stroke="#9C969E"
   stroke-width="0.9993"
   d="       M40.1,21.3c0-3.6-7.5-6.6-16.7-6.6c-9.2,0-16.7,2.9-16.7,6.6l0,0c0,3.6,7.5,6.6,16.7,6.6C32.6,27.9,40.1,25,40.1,21.3z" /><g
   id="path657"
   nodetypes="ccccc"><path
   i:knockout="Off"
   opacity="0.5498"
   fill="none"
   stroke="#000000"
   stroke-width="0.7703"
   d="M6.6,21.3        c0,4.5,0,8.9,0.1,13.3c0,7.8,33.6,7.4,33.5-0.2c0-4.4-0.1-8.7,0-13.1C40.2,13.7,6.9,13.9,6.6,21.3z"
   id="path642" /></g><path
   id="path664"
   type="arc"
   cx="545.6380"
   cy="523.6432"
   rx="307.0800"
   ry="120.9709"
   i:knockout="Off"
   fill="none"
   stroke="#FF00FF"
   stroke-width="2.723"
   stroke-linecap="round"
   stroke-dasharray="3.9051 7.8101"
   d="       M32.9,21.7c0-1.9-4.2-3.5-9.5-3.5c-5.2,0-9.5,1.5-9.5,3.5l0,0c0,1.9,4.2,3.5,9.5,3.5C28.7,25.1,32.9,23.6,32.9,21.7z" /><g
   id="path757"
   nodetypes="ccccc"><path
   i:knockout="Off"
   opacity="3.320000e-002"
   fill="none"
   stroke="#000000"
   stroke-width="2.2794"
   d="M6.6,21.3        c0,4.5,0,8.9,0.1,13.3c0,7.8,33.6,7.4,33.5-0.2c0-4.4-0.1-8.7,0-13.1C40.2,13.7,6.9,13.9,6.6,21.3z"
   id="path645" /></g><path
   fill="none"
   stroke="#FF00FF"
   stroke-width="2.7513"
   stroke-linecap="round"
   stroke-dasharray="3.2676 3.2676"
   d="       M8.9,29.6c0,0,9.6,3.4,15.9,3.3c5.6-0.1,14.2-4.2,14.2-4.1"
   id="path646" /><g
   id="g647"><radialGradient
   id="path764_3_"
   cx="-243.4082"
   cy="434.833"
   r="2.734375e-002"
   fx="-243.4082"
   fy="434.833"
   gradientTransform="matrix(101.5323 0 0 -158.9048 24729.9844 69101.3438)"
   gradientUnits="userSpaceOnUse"><stop
   offset="0"
   style="stop-color:#FF0000"
   id="stop649" /><stop
   offset="0.2866"
   style="stop-color:#FF5800"
   id="stop650" /><stop
   offset="0.5426"
   style="stop-color:#FFA000"
   id="stop651" /><stop
   offset="0.7538"
   style="stop-color:#FFD300"
   id="stop652" /><stop
   offset="0.9123"
   style="stop-color:#FFF300"
   id="stop653" /><stop
   offset="1"
   style="stop-color:#FFFF00"
   id="stop654" /><a:midPointStop
   offset="0"
   style="stop-color:#FF0000"
   id="midPointStop655" /><a:midPointStop
   offset="0.4237"
   style="stop-color:#FF0000"
   id="midPointStop656" /><a:midPointStop
   offset="1"
   style="stop-color:#FFFF00"
   id="midPointStop657" /></radialGradient><linearGradient
   id="path764_4_"
   gradientUnits="userSpaceOnUse"
   x1="-8128.667"
   y1="-8148.665"
   x2="-8127.667"
   y2="-8148.665"><stop
   offset="0"
   style="stop-color:#FFFFFF"
   id="stop659" /><stop
   offset="1"
   style="stop-color:#F5FFFF"
   id="stop660" /><a:midPointStop
   offset="0"
   style="stop-color:#FFFFFF"
   id="midPointStop661" /><a:midPointStop
   offset="0.5"
   style="stop-color:#FFFFFF"
   id="midPointStop662" /><a:midPointStop
   offset="1"
   style="stop-color:#F5FFFF"
   id="midPointStop663" /></linearGradient><path
   id="path764"
   nodetypes="cssss"
   fill="url(#path764_3_)"
   stroke="url(#path764_4_)"
   stroke-width="6.984232e-002"
   d="        M16.3,7.9c-1.6,0-1.8,1.2-2.1,0.6C12.3,5.6,14.4,0,16,0c1.6,0,4.2,4.4,2.3,8.5C18,9.1,17.9,8,16.3,7.9z" /><g
   id="path768"
   nodetypes="csss"><path
   i:knockout="Off"
   opacity="0.4692"
   fill="#0000FF"
   d="M15.4,8.8c-0.2-1.2,0.5-4.2,0.8-4.1c0.3,0,1.1,3,0.9,4.1         C17,9,15.4,9,15.4,8.8z"
   id="path666" /><path
   i:knockout="Off"
   fill="none"
   stroke="#000000"
   stroke-width="7.876743e-002"
   d="M15.4,8.8c-0.2-1.2,0.5-4.2,0.8-4.1         c0.3,0,1.1,3,0.9,4.1C17,9,15.4,9,15.4,8.8z"
   id="path667" /></g><linearGradient
   id="XMLID_1_"
   gradientUnits="userSpaceOnUse"
   x1="15.0786"
   y1="15.8135"
   x2="17.3286"
   y2="15.8135"><stop
   offset="0"
   style="stop-color:#FF0000"
   id="stop669" /><stop
   offset="2.494368e-002"
   style="stop-color:#FF0A07"
   id="stop670" /><stop
   offset="6.777885e-002"
   style="stop-color:#FF261A"
   id="stop671" /><stop
   offset="0.1233"
   style="stop-color:#FF5338"
   id="stop672" /><stop
   offset="0.1895"
   style="stop-color:#FF9162"
   id="stop673" /><stop
   offset="0.2637"
   style="stop-color:#FFDF96"
   id="stop674" /><stop
   offset="0.2921"
   style="stop-color:#FFFFAC"
   id="stop675" /><stop
   offset="0.3335"
   style="stop-color:#FFDD95"
   id="stop676" /><stop
   offset="0.4038"
   style="stop-color:#FFAA73"
   id="stop677" /><stop
   offset="0.4774"
   style="stop-color:#FF7C54"
   id="stop678" /><stop
   offset="0.5528"
   style="stop-color:#FF563A"
   id="stop679" /><stop
   offset="0.6304"
   style="stop-color:#FF3725"
   id="stop680" /><stop
   offset="0.7111"
   style="stop-color:#FF1F15"
   id="stop681" /><stop
   offset="0.796"
   style="stop-color:#FF0D09"
   id="stop682" /><stop
   offset="0.888"
   style="stop-color:#FF0302"
   id="stop683" /><stop
   offset="1"
   style="stop-color:#FF0000"
   id="stop684" /><a:midPointStop
   offset="0"
   style="stop-color:#FF0000"
   id="midPointStop685" /><a:midPointStop
   offset="0.5882"
   style="stop-color:#FF0000"
   id="midPointStop686" /><a:midPointStop
   offset="0.2921"
   style="stop-color:#FFFFAC"
   id="midPointStop687" /><a:midPointStop
   offset="0.254"
   style="stop-color:#FFFFAC"
   id="midPointStop688" /><a:midPointStop
   offset="1"
   style="stop-color:#FF0000"
   id="midPointStop689" /></linearGradient><rect
   x="14.8"
   y="8.6"
   fill="url(#XMLID_1_)"
   width="2.8"
   height="14.5"
   id="rect690" /><radialGradient
   id="path764_5_"
   cx="-243.3389"
   cy="434.8086"
   r="2.710071e-002"
   fx="-243.3389"
   fy="434.8086"
   gradientTransform="matrix(101.5323 0 0 -165.0159 24729.9844 71756.6641)"
   gradientUnits="userSpaceOnUse"><stop
   offset="0"
   style="stop-color:#FF0000"
   id="stop692" /><stop
   offset="0.2866"
   style="stop-color:#FF5800"
   id="stop693" /><stop
   offset="0.5426"
   style="stop-color:#FFA000"
   id="stop694" /><stop
   offset="0.7538"
   style="stop-color:#FFD300"
   id="stop695" /><stop
   offset="0.9123"
   style="stop-color:#FFF300"
   id="stop696" /><stop
   offset="1"
   style="stop-color:#FFFF00"
   id="stop697" /><a:midPointStop
   offset="0"
   style="stop-color:#FF0000"
   id="midPointStop698" /><a:midPointStop
   offset="0.4237"
   style="stop-color:#FF0000"
   id="midPointStop699" /><a:midPointStop
   offset="1"
   style="stop-color:#FFFF00"
   id="midPointStop700" /></radialGradient><path
   id="path764_1_"
   nodetypes="cssss"
   fill="url(#path764_5_)"
   stroke="url(#path764_4_)"
   stroke-width="7.117261e-002"
   d="        M23.3,10.2c-1.6,0-1.8,1.2-2.1,0.6c-1.8-3,0.3-8.9,1.9-8.8c1.6,0,4.2,4.6,2.3,8.8C25,11.4,24.9,10.2,23.3,10.2z" /><g
   id="path768_1_"
   nodetypes="csss"><path
   i:knockout="Off"
   opacity="0.4692"
   fill="#0000FF"
   d="M22.4,11c-0.2-1.2,0.5-4.2,0.8-4.1c0.3,0,1.1,3,0.9,4.1         C24,11.2,22.4,11.3,22.4,11z"
   id="path703" /><path
   i:knockout="Off"
   fill="none"
   stroke="#000000"
   stroke-width="7.876743e-002"
   d="M22.4,11c-0.2-1.2,0.5-4.2,0.8-4.1         c0.3,0,1.1,3,0.9,4.1C24,11.2,22.4,11.3,22.4,11z"
   id="path704" /></g><linearGradient
   id="XMLID_2_"
   gradientUnits="userSpaceOnUse"
   x1="22.0786"
   y1="18.0605"
   x2="24.3286"
   y2="18.0605"><stop
   offset="0"
   style="stop-color:#FF0000"
   id="stop706" /><stop
   offset="0.1073"
   style="stop-color:#FF3D29"
   id="stop707" /><stop
   offset="0.2609"
   style="stop-color:#FF8F61"
   id="stop708" /><stop
   offset="0.3871"
   style="stop-color:#FFCC89"
   id="stop709" /><stop
   offset="0.4794"
   style="stop-color:#FFF1A2"
   id="stop710" /><stop
   offset="0.5281"
   style="stop-color:#FFFFAC"
   id="stop711" /><stop
   offset="1"
   style="stop-color:#FF0000"
   id="stop712" /><a:midPointStop
   offset="0"
   style="stop-color:#FF0000"
   id="midPointStop713" /><a:midPointStop
   offset="0.435"
   style="stop-color:#FF0000"
   id="midPointStop714" /><a:midPointStop
   offset="0.5281"
   style="stop-color:#FFFFAC"
   id="midPointStop715" /><a:midPointStop
   offset="0.5"
   style="stop-color:#FFFFAC"
   id="midPointStop716" /><a:midPointStop
   offset="1"
   style="stop-color:#FF0000"
   id="midPointStop717" /></linearGradient><rect
   x="21.8"
   y="10.8"
   fill="url(#XMLID_2_)"
   width="2.8"
   height="14.5"
   id="rect718" /><radialGradient
   id="path764_7_"
   cx="-243.248"
   cy="434.833"
   r="2.734375e-002"
   fx="-243.248"
   fy="434.833"
   gradientTransform="matrix(101.5323 0 0 -158.9048 24729.9844 69101.3438)"
   gradientUnits="userSpaceOnUse"><stop
   offset="0"
   style="stop-color:#FF0000"
   id="stop720" /><stop
   offset="0.2866"
   style="stop-color:#FF5800"
   id="stop721" /><stop
   offset="0.5426"
   style="stop-color:#FFA000"
   id="stop722" /><stop
   offset="0.7538"
   style="stop-color:#FFD300"
   id="stop723" /><stop
   offset="0.9123"
   style="stop-color:#FFF300"
   id="stop724" /><stop
   offset="1"
   style="stop-color:#FFFF00"
   id="stop725" /><a:midPointStop
   offset="0"
   style="stop-color:#FF0000"
   id="midPointStop726" /><a:midPointStop
   offset="0.4237"
   style="stop-color:#FF0000"
   id="midPointStop727" /><a:midPointStop
   offset="1"
   style="stop-color:#FFFF00"
   id="midPointStop728" /></radialGradient><path
   id="path764_2_"
   nodetypes="cssss"
   fill="url(#path764_7_)"
   stroke="url(#path764_4_)"
   stroke-width="6.984232e-002"
   d="        M32.5,7.9c-1.6,0-1.8,1.2-2.1,0.6C28.6,5.6,30.7,0,32.3,0c1.6,0,4.2,4.4,2.3,8.5C34.3,9.1,34.2,8,32.5,7.9z" /><g
   id="path768_2_"
   nodetypes="csss"><path
   i:knockout="Off"
   opacity="0.4692"
   fill="#0000FF"
   d="M31.6,8.8c-0.2-1.2,0.5-4.2,0.8-4.1c0.3,0,1.1,3,0.9,4.1         C33.3,9,31.7,9,31.6,8.8z"
   id="path731" /><path
   i:knockout="Off"
   fill="none"
   stroke="#000000"
   stroke-width="7.876743e-002"
   d="M31.6,8.8c-0.2-1.2,0.5-4.2,0.8-4.1         c0.3,0,1.1,3,0.9,4.1C33.3,9,31.7,9,31.6,8.8z"
   id="path732" /></g><linearGradient
   id="XMLID_3_"
   gradientUnits="userSpaceOnUse"
   x1="31.3286"
   y1="15.8135"
   x2="33.5786"
   y2="15.8135"><stop
   offset="0"
   style="stop-color:#FF0000"
   id="stop734" /><stop
   offset="5.381949e-002"
   style="stop-color:#FF0503"
   id="stop735" /><stop
   offset="0.1191"
   style="stop-color:#FF140D"
   id="stop736" /><stop
   offset="0.1904"
   style="stop-color:#FF2D1E"
   id="stop737" /><stop
   offset="0.266"
   style="stop-color:#FF4F35"
   id="stop738" /><stop
   offset="0.345"
   style="stop-color:#FF7B53"
   id="stop739" /><stop
   offset="0.4268"
   style="stop-color:#FFB177"
   id="stop740" /><stop
   offset="0.5094"
   style="stop-color:#FFF0A2"
   id="stop741" /><stop
   offset="0.5281"
   style="stop-color:#FFFFAC"
   id="stop742" /><stop
   offset="0.5327"
   style="stop-color:#FFFAA9"
   id="stop743" /><stop
   offset="0.5887"
   style="stop-color:#FFC082"
   id="stop744" /><stop
   offset="0.6462"
   style="stop-color:#FF8D5F"
   id="stop745" /><stop
   offset="0.7039"
   style="stop-color:#FF6242"
   id="stop746" /><stop
   offset="0.7618"
   style="stop-color:#FF3E2A"
   id="stop747" /><stop
   offset="0.8201"
   style="stop-color:#FF2318"
   id="stop748" /><stop
   offset="0.8788"
   style="stop-color:#FF0F0A"
   id="stop749" /><stop
   offset="0.9384"
   style="stop-color:#FF0403"
   id="stop750" /><stop
   offset="1"
   style="stop-color:#FF0000"
   id="stop751" /><a:midPointStop
   offset="0"
   style="stop-color:#FF0000"
   id="midPointStop752" /><a:midPointStop
   offset="0.6667"
   style="stop-color:#FF0000"
   id="midPointStop753" /><a:midPointStop
   offset="0.5281"
   style="stop-color:#FFFFAC"
   id="midPointStop754" /><a:midPointStop
   offset="0.2857"
   style="stop-color:#FFFFAC"
   id="midPointStop755" /><a:midPointStop
   offset="1"
   style="stop-color:#FF0000"
   id="midPointStop756" /></linearGradient><rect
   x="31.1"
   y="8.6"
   fill="url(#XMLID_3_)"
   width="2.8"
   height="14.5"
   id="rect757" /></g></g><rect
   y="0"
   i:knockout="Off"
   fill="none"
   width="48"
   height="48"
   id="rect758" /></g></g></svg>
