<?xml version="1.0" encoding="UTF-8" standalone="no"?>
<!DOCTYPE svg PUBLIC "-//W3C//DTD SVG 20010904//EN"
"http://www.w3.org/TR/2001/REC-SVG-20010904/DTD/svg10.dtd">
<!-- Created with Sodipodi ("http://www.sodipodi.com/") -->
<svg
   xmlns:x="http://ns.adobe.com/Extensibility/1.0/"
   xmlns:i="http://ns.adobe.com/AdobeIllustrator/10.0/"
   xmlns:graph="http://ns.adobe.com/Graphs/1.0/"
   xmlns="http://www.w3.org/2000/svg"
   xmlns:xlink="http://www.w3.org/1999/xlink"
   xmlns:a="http://ns.adobe.com/AdobeSVGViewerExtensions/3.0/"
   xml:space="preserve"
   i:viewOrigin="169.9258 427.6699"
   i:rulerOrigin="0 0"
   i:pageBounds="0 792 612 0"
   width="48"
   height="48.7"
   viewBox="0 0 48 48.7"
   overflow="visible"
   enable-background="new 0 0 48 48.7"
   xmlns:sodipodi="http://sodipodi.sourceforge.net/DTD/sodipodi-0.dtd"
   id="svg602"
   sodipodi:version="0.34"
   sodipodi:docname="C:\msys\home\su_blanc\mldonkey-2.5.12\src\gtk2\rsvg\emoticons\emoticon_embarrassed.svg"><defs
   id="defs708" /><sodipodi:namedview
   id="namedview707" /><g
   id="Layer_1"
   i:knockout="Off"
   i:layer="yes"
   i:dimmedPercent="50"
   i:rgbTrio="#4F008000FFFF"><g
   id="g606"><path
   id="path597_5_"
   i:isolated="yes"
   i:knockout="Off"
   opacity="0.15"
   fill="none"
   stroke="#474000"
   stroke-width="1.8818"
   enable-background="new    "
   d="      M5.6,20.2c0-10.7,8-19.3,17.8-19.3c9.8,0,18.4,8.1,18.4,18.7c0,10.7-8.6,19.9-18.4,19.9C13.6,39.5,5.6,30.9,5.6,20.2z" /><path
   id="path597_4_"
   i:isolated="yes"
   i:knockout="Off"
   opacity="0.2"
   fill="none"
   stroke="#474000"
   stroke-width="0.9409"
   enable-background="new    "
   d="      M5.6,20.2c0-10.7,8-19.3,17.8-19.3c9.8,0,18.4,8.1,18.4,18.7c0,10.7-8.6,19.9-18.4,19.9C13.6,39.5,5.6,30.9,5.6,20.2z" /><path
   id="path597_3_"
   i:isolated="yes"
   i:knockout="Off"
   opacity="0.3"
   fill="none"
   stroke="#474000"
   stroke-width="0.4704"
   enable-background="new    "
   d="      M5.6,20.2c0-10.7,8-19.3,17.8-19.3c9.8,0,18.4,8.1,18.4,18.7c0,10.7-8.6,19.9-18.4,19.9C13.6,39.5,5.6,30.9,5.6,20.2z" /><radialGradient
   id="path700_1_"
   cx="-509.6455"
   cy="428.4512"
   r="6.388162e-002"
   fx="-509.6455"
   fy="428.4512"
   gradientTransform="matrix(310.7065 0 0 -144.1183 158375.2188 61790.25)"
   gradientUnits="userSpaceOnUse"><stop
   offset="0"
   style="stop-color:#261700"
   id="stop611" /><stop
   offset="1"
   style="stop-color:#D2D2D2"
   id="stop612" /><a:midPointStop
   offset="0"
   style="stop-color:#261700"
   id="midPointStop613" /><a:midPointStop
   offset="0.5"
   style="stop-color:#261700"
   id="midPointStop614" /><a:midPointStop
   offset="1"
   style="stop-color:#D2D2D2"
   id="midPointStop615" /></radialGradient><path
   id="path700"
   i:isolated="yes"
   i:knockout="Off"
   opacity="0.3"
   fill="url(#path700_1_)"
   enable-background="new    "
   d="      M37.9,31.8c6.5,4.5,6,10.6-1.9,14.3c-7.9,3.7-19.5,3.1-25.9-1.5c-5.5-3.8-5.7-9.1-0.5-13.1c3.4,4.7,6.2,6.3,14,7.3      C30.1,38.7,34.3,35.8,37.9,31.8z" /><radialGradient
   id="path577_1_"
   cx="-468.5703"
   cy="384.9395"
   r="41.5567"
   fx="-468.5703"
   fy="384.9395"
   gradientTransform="matrix(298.9032 0 0 -316.3969 152359.9063 135227.8281)"
   gradientUnits="userSpaceOnUse"><stop
   offset="0"
   style="stop-color:#FF6F00"
   id="stop618" /><stop
   offset="1"
   style="stop-color:#FFFF00"
   id="stop619" /><a:midPointStop
   offset="0"
   style="stop-color:#FF6F00"
   id="midPointStop620" /><a:midPointStop
   offset="0.5"
   style="stop-color:#FF6F00"
   id="midPointStop621" /><a:midPointStop
   offset="1"
   style="stop-color:#FFFF00"
   id="midPointStop622" /></radialGradient><circle
   id="path577"
   fill="url(#path577_1_)"
   cx="23.9"
   cy="20.4"
   r="17.8" /><linearGradient
   id="path597_1_"
   gradientUnits="userSpaceOnUse"
   x1="-509.6392"
   y1="427.3926"
   x2="-509.6406"
   y2="427.2739"
   gradientTransform="matrix(303.6933 0 0 -316.3967 154798.0625 135228.0781)"><stop
   offset="0"
   style="stop-color:#FF6500"
   id="stop625" /><stop
   offset="1"
   style="stop-color:#FFFF00"
   id="stop626" /><a:midPointStop
   offset="0"
   style="stop-color:#FF6500"
   id="midPointStop627" /><a:midPointStop
   offset="0.5"
   style="stop-color:#FF6500"
   id="midPointStop628" /><a:midPointStop
   offset="1"
   style="stop-color:#FFFF00"
   id="midPointStop629" /></linearGradient><path
   id="path597"
   i:isolated="yes"
   i:knockout="Off"
   opacity="0.75"
   fill="url(#path597_1_)"
   enable-background="new    "
   d="      M5.6,20.2c0-10.7,8-19.3,17.8-19.3c9.9,0,18.4,8,18.4,18.7c0,10.7-8.6,19.9-18.4,19.9C13.6,39.5,5.6,30.9,5.6,20.2z" /><radialGradient
   id="path597_6_"
   cx="-316.4805"
   cy="0.9648"
   r="20.2352"
   fx="-316.4805"
   fy="0.9648"
   gradientTransform="matrix(1 0 0 1 339.8516 -5.859375e-002)"
   gradientUnits="userSpaceOnUse"><stop
   offset="0"
   style="stop-color:#FFFFFF"
   id="stop632" /><stop
   offset="0.1046"
   style="stop-color:#FFFEFA"
   id="stop633" /><stop
   offset="0.2282"
   style="stop-color:#FFFBEC"
   id="stop634" /><stop
   offset="0.3616"
   style="stop-color:#FFF7D4"
   id="stop635" /><stop
   offset="0.5018"
   style="stop-color:#FFF1B2"
   id="stop636" /><stop
   offset="0.6474"
   style="stop-color:#FFE988"
   id="stop637" /><stop
   offset="0.7976"
   style="stop-color:#FFDF53"
   id="stop638" /><stop
   offset="0.9487"
   style="stop-color:#FFD316"
   id="stop639" /><stop
   offset="1"
   style="stop-color:#FFCF00"
   id="stop640" /><a:midPointStop
   offset="0"
   style="stop-color:#FFFFFF"
   id="midPointStop641" /><a:midPointStop
   offset="0.5"
   style="stop-color:#FFFFFF"
   id="midPointStop642" /><a:midPointStop
   offset="0.1046"
   style="stop-color:#FFFEFA"
   id="midPointStop643" /><a:midPointStop
   offset="0.5"
   style="stop-color:#FFFEFA"
   id="midPointStop644" /><a:midPointStop
   offset="0.2282"
   style="stop-color:#FFFBEC"
   id="midPointStop645" /><a:midPointStop
   offset="0.5"
   style="stop-color:#FFFBEC"
   id="midPointStop646" /><a:midPointStop
   offset="0.3616"
   style="stop-color:#FFF7D4"
   id="midPointStop647" /><a:midPointStop
   offset="0.5"
   style="stop-color:#FFF7D4"
   id="midPointStop648" /><a:midPointStop
   offset="0.5018"
   style="stop-color:#FFF1B2"
   id="midPointStop649" /><a:midPointStop
   offset="0.5"
   style="stop-color:#FFF1B2"
   id="midPointStop650" /><a:midPointStop
   offset="0.6474"
   style="stop-color:#FFE988"
   id="midPointStop651" /><a:midPointStop
   offset="0.5"
   style="stop-color:#FFE988"
   id="midPointStop652" /><a:midPointStop
   offset="0.7976"
   style="stop-color:#FFDF53"
   id="midPointStop653" /><a:midPointStop
   offset="0.5"
   style="stop-color:#FFDF53"
   id="midPointStop654" /><a:midPointStop
   offset="0.9487"
   style="stop-color:#FFD316"
   id="midPointStop655" /><a:midPointStop
   offset="0.5"
   style="stop-color:#FFD316"
   id="midPointStop656" /><a:midPointStop
   offset="1"
   style="stop-color:#FFCF00"
   id="midPointStop657" /></radialGradient><path
   id="path597_2_"
   i:isolated="yes"
   i:knockout="Off"
   opacity="0.75"
   fill="url(#path597_6_)"
   enable-background="new    "
   d="      M12.2,7.8c0-3.8,5-6.9,11.1-6.9c6.1,0,11.4,2.9,11.4,6.7C34.7,11.4,12.2,11.6,12.2,7.8z" /><g
   id="g659"><radialGradient
   id="path630_1_"
   cx="-165.916"
   cy="427.0801"
   r="9.652288e-002"
   fx="-165.916"
   fy="427.0801"
   gradientTransform="matrix(-47.8028 0 0 -62.518 -7899.9922 26716.9082)"
   gradientUnits="userSpaceOnUse"><stop
   offset="0"
   style="stop-color:#DEE2E7"
   id="stop661" /><stop
   offset="1"
   style="stop-color:#FFFFFF"
   id="stop662" /><a:midPointStop
   offset="0"
   style="stop-color:#DEE2E7"
   id="midPointStop663" /><a:midPointStop
   offset="0.5"
   style="stop-color:#DEE2E7"
   id="midPointStop664" /><a:midPointStop
   offset="1"
   style="stop-color:#FFFFFF"
   id="midPointStop665" /></radialGradient><path
   id="path630"
   type="arc"
   cx="50.24698"
   cy="478.4100"
   rx="24.52531"
   ry="34.99345"
   fill="url(#path630_1_)"
   stroke="#7C5202"
   d="       M28.8,15.7c0-2.5,1.5-4.5,3.4-4.5s3.4,2,3.4,4.5c0,0,0,0,0,0c0,2.5-1.5,4.5-3.4,4.5C30.4,20.2,28.8,18.2,28.8,15.7       C28.8,15.7,28.8,15.7,28.8,15.7z" /><radialGradient
   id="path637_1_"
   cx="-161.2163"
   cy="427.3496"
   r="8.930810e-002"
   fx="-161.2163"
   fy="427.3496"
   gradientTransform="matrix(-19.9085 0 0 -19.9548 -3177.3074 8543.873)"
   gradientUnits="userSpaceOnUse"><stop
   offset="0"
   style="stop-color:#000082"
   id="stop668" /><stop
   offset="1"
   style="stop-color:#000000"
   id="stop669" /><a:midPointStop
   offset="0"
   style="stop-color:#000082"
   id="midPointStop670" /><a:midPointStop
   offset="0.5"
   style="stop-color:#000082"
   id="midPointStop671" /><a:midPointStop
   offset="1"
   style="stop-color:#000000"
   id="midPointStop672" /></radialGradient><path
   id="path637"
   type="arc"
   cx="61.64901"
   cy="495.8291"
   rx="10.46870"
   ry="10.89169"
   fill="url(#path637_1_)"
   d="       M30.4,17c0-0.8,0.6-1.4,1.4-1.4s1.4,0.6,1.4,1.4c0,0,0,0,0,0c0,0.8-0.6,1.4-1.4,1.4C31,18.4,30.4,17.8,30.4,17       C30.4,17,30.4,17,30.4,17z" /></g><g
   id="g674"><radialGradient
   id="path650_1_"
   cx="-170.5229"
   cy="427.0908"
   r="9.648944e-002"
   fx="-170.5229"
   fy="427.0908"
   gradientTransform="matrix(47.8028 0 0 -62.518 8167.3906 26716.9082)"
   gradientUnits="userSpaceOnUse"><stop
   offset="0"
   style="stop-color:#DEE2E7"
   id="stop676" /><stop
   offset="1"
   style="stop-color:#FFFFFF"
   id="stop677" /><a:midPointStop
   offset="0"
   style="stop-color:#DEE2E7"
   id="midPointStop678" /><a:midPointStop
   offset="0.5"
   style="stop-color:#DEE2E7"
   id="midPointStop679" /><a:midPointStop
   offset="1"
   style="stop-color:#FFFFFF"
   id="midPointStop680" /></radialGradient><path
   id="path650"
   type="arc"
   cx="50.24698"
   cy="478.4100"
   rx="24.52531"
   ry="34.99345"
   fill="url(#path650_1_)"
   stroke="#7C3902"
   d="       M18.2,15.1c0-2.5-1.5-4.5-3.4-4.5c-1.9,0-3.4,2-3.4,4.5c0,0,0,0,0,0c0,2.5,1.5,4.5,3.4,4.5C16.7,19.6,18.2,17.5,18.2,15.1       C18.2,15.1,18.2,15.1,18.2,15.1z" /><radialGradient
   id="path656_1_"
   cx="-172.3555"
   cy="427.3828"
   r="8.919349e-002"
   fx="-172.3555"
   fy="427.3828"
   gradientTransform="matrix(19.9085 0 0 -19.9548 3446.3933 8543.873)"
   gradientUnits="userSpaceOnUse"><stop
   offset="0"
   style="stop-color:#000082"
   id="stop683" /><stop
   offset="1"
   style="stop-color:#000000"
   id="stop684" /><a:midPointStop
   offset="0"
   style="stop-color:#000082"
   id="midPointStop685" /><a:midPointStop
   offset="0.5"
   style="stop-color:#000082"
   id="midPointStop686" /><a:midPointStop
   offset="1"
   style="stop-color:#000000"
   id="midPointStop687" /></radialGradient><path
   id="path656"
   type="arc"
   cx="61.64901"
   cy="495.8291"
   rx="10.46870"
   ry="10.89169"
   fill="url(#path656_1_)"
   d="       M17,16.3c0-0.8-0.6-1.4-1.4-1.4s-1.4,0.6-1.4,1.4c0,0,0,0,0,0c0,0.8,0.6,1.4,1.4,1.4C16.3,17.7,17,17.1,17,16.3       C17,16.3,17,16.3,17,16.3z" /></g><radialGradient
   id="path767_1_"
   cx="-171.4233"
   cy="427.4717"
   r="5.761719e-002"
   fx="-171.4233"
   fy="427.4717"
   gradientTransform="matrix(106.5898 0 0 -113.3574 18305.7988 48483.6094)"
   gradientUnits="userSpaceOnUse"><stop
   offset="0"
   style="stop-color:#B8002F"
   id="stop690" /><stop
   offset="1"
   style="stop-color:#FFA200"
   id="stop691" /><a:midPointStop
   offset="0"
   style="stop-color:#B8002F"
   id="midPointStop692" /><a:midPointStop
   offset="0.5"
   style="stop-color:#B8002F"
   id="midPointStop693" /><a:midPointStop
   offset="1"
   style="stop-color:#FFA200"
   id="midPointStop694" /></radialGradient><circle
   id="path767"
   type="arc"
   cx="33.8"
   cy="26.5"
   rx="53.29488"
   ry="56.67867"
   opacity="0.7"
   fill="url(#path767_1_)"
   r="6.1" /><rect
   id="rect662"
   y="0.7"
   i:knockout="Off"
   fill="none"
   width="48"
   height="48" /><radialGradient
   id="path767_3_"
   cx="-171.6201"
   cy="427.4775"
   r="5.761719e-002"
   fx="-171.6201"
   fy="427.4775"
   gradientTransform="matrix(106.5898 0 0 -113.3574 18305.7988 48483.6094)"
   gradientUnits="userSpaceOnUse"><stop
   offset="0"
   style="stop-color:#B8002F"
   id="stop698" /><stop
   offset="1"
   style="stop-color:#FFA200"
   id="stop699" /><a:midPointStop
   offset="0"
   style="stop-color:#B8002F"
   id="midPointStop700" /><a:midPointStop
   offset="0.5"
   style="stop-color:#B8002F"
   id="midPointStop701" /><a:midPointStop
   offset="1"
   style="stop-color:#FFA200"
   id="midPointStop702" /></radialGradient><circle
   id="path767_2_"
   type="arc"
   cx="12.8"
   cy="25.9"
   rx="53.29488"
   ry="56.67867"
   opacity="0.7"
   fill="url(#path767_3_)"
   r="6.1" /><g
   id="g704"><path
   id="path643"
   nodetypes="cs"
   opacity="0.2"
   fill="none"
   stroke="#000000"
   stroke-width="3"
   stroke-linecap="round"
   d="       M16.1,29.6c2.9,6.3,12.5,6.1,15.8,0.2" /><path
   id="path639"
   nodetypes="cs"
   fill="none"
   stroke="#795000"
   stroke-linecap="round"
   d="M16.1,29.6       c2.9,6.1,12.5,6,15.8,0.2" /></g></g></g></svg>
