<?xml version="1.0" encoding="UTF-8" standalone="no"?>
<!DOCTYPE svg PUBLIC "-//W3C//DTD SVG 20010904//EN"
"http://www.w3.org/TR/2001/REC-SVG-20010904/DTD/svg10.dtd">
<!-- Created with Sodipodi ("http://www.sodipodi.com/") -->
<svg
   xmlns:x="http://ns.adobe.com/Extensibility/1.0/"
   xmlns:i="http://ns.adobe.com/AdobeIllustrator/10.0/"
   xmlns:graph="http://ns.adobe.com/Graphs/1.0/"
   xmlns="http://www.w3.org/2000/svg"
   xmlns:xlink="http://www.w3.org/1999/xlink"
   xmlns:a="http://ns.adobe.com/AdobeSVGViewerExtensions/3.0/"
   xml:space="preserve"
   i:viewOrigin="109.52 486.5254"
   i:rulerOrigin="0 0"
   i:pageBounds="0 792 612 0"
   width="48"
   height="48.5"
   viewBox="0 0 48 48.5"
   overflow="visible"
   enable-background="new 0 0 48 48.5"
   xmlns:sodipodi="http://sodipodi.sourceforge.net/DTD/sodipodi-0.dtd"
   id="svg602"
   sodipodi:version="0.34"
   sodipodi:docname="C:\msys\home\su_blanc\mldonkey-2.5.12\src\gtk2\rsvg\emoticons\emoticon_cat.svg"><defs
   id="defs722" /><sodipodi:namedview
   id="namedview721" /><g
   id="Layer_1"
   i:layer="yes"
   i:dimmedPercent="50"
   i:rgbTrio="#4F008000FFFF"><g
   id="g606"><g
   id="g607"><g
   id="path564"
   nodetypes="cccccccss"><linearGradient
   id="XMLID_1_"
   gradientUnits="userSpaceOnUse"
   x1="-109.5591"
   y1="486.3594"
   x2="-109.5594"
   y2="486.4167"
   gradientTransform="matrix(401.0489 0 0 -354.9566 43962.8555 172692.8125)"><stop
   offset="0"
   style="stop-color:#FFBA00"
   id="stop610" /><stop
   offset="1"
   style="stop-color:#FFFF00"
   id="stop611" /><a:midPointStop
   offset="0"
   style="stop-color:#FFBA00"
   id="midPointStop612" /><a:midPointStop
   offset="0.5"
   style="stop-color:#FFBA00"
   id="midPointStop613" /><a:midPointStop
   offset="1"
   style="stop-color:#FFFF00"
   id="midPointStop614" /></linearGradient><path
   i:knockout="Off"
   fill="url(#XMLID_1_)"
   d="M9.3,34.2c-6.5-3.5-8.7-16.6-2.4-21.8c-2.9-4.2-2.6-8-3.8-12        c4,0,7.9,2.4,9.5,5c6.9-3.8,15.9-4.1,22,0.4c2.9-2.6,6.4-4.2,10.5-5c-1.3,4.2-1.1,10-4,12.5c5.8,4.4,2.6,18-4.2,21        C27.2,38.6,17.5,38.9,9.3,34.2z"
   id="path615" /><path
   i:knockout="Off"
   opacity="0.4645"
   fill="none"
   stroke="#5A1A1D"
   stroke-width="0.9971"
   stroke-linejoin="round"
   d="        M9.3,34.2c-6.5-3.5-8.7-16.6-2.4-21.8c-2.9-4.2-2.6-8-3.8-12c4,0,7.9,2.4,9.5,5c6.9-3.8,15.9-4.1,22,0.4        c2.9-2.6,6.4-4.2,10.5-5c-1.3,4.2-1.1,10-4,12.5c5.8,4.4,2.6,18-4.2,21C27.2,38.6,17.5,38.9,9.3,34.2z"
   id="path616" /></g><radialGradient
   id="path700_1_"
   cx="-109.4453"
   cy="487.1504"
   r="4.491713e-002"
   fx="-109.4453"
   fy="487.1504"
   gradientTransform="matrix(409.2627 0 0 -174.5831 44814.543 85087.0625)"
   gradientUnits="userSpaceOnUse"><stop
   offset="0"
   style="stop-color:#261700"
   id="stop618" /><stop
   offset="1"
   style="stop-color:#FFFFFF"
   id="stop619" /><a:midPointStop
   offset="0"
   style="stop-color:#261700"
   id="midPointStop620" /><a:midPointStop
   offset="0.5"
   style="stop-color:#261700"
   id="midPointStop621" /><a:midPointStop
   offset="1"
   style="stop-color:#FFFFFF"
   id="midPointStop622" /></radialGradient><path
   id="path700"
   nodetypes="cccccc"
   opacity="0.4"
   fill="url(#path700_1_)"
   d="M40.2,30.5c7.6,4.9,7,11.4-2.2,15.4       c-9.2,4-22.8,3.3-30.4-1.6C1.2,40.1,0.9,34.5,7,30.2c3.9,5.1,7.3,6.8,16.4,7.9C31,38,35.9,34.7,40.2,30.5z" /><linearGradient
   id="path597_1_"
   gradientUnits="userSpaceOnUse"
   x1="-109.46"
   y1="486.1641"
   x2="-109.4612"
   y2="486.0634"
   gradientTransform="matrix(378.629 0 0 -333.0405 41468.5781 161915.9375)"><stop
   offset="0"
   style="stop-color:#EB852F"
   id="stop625" /><stop
   offset="1"
   style="stop-color:#FFFF00"
   id="stop626" /><a:midPointStop
   offset="0"
   style="stop-color:#EB852F"
   id="midPointStop627" /><a:midPointStop
   offset="0.5"
   style="stop-color:#EB852F"
   id="midPointStop628" /><a:midPointStop
   offset="1"
   style="stop-color:#FFFF00"
   id="midPointStop629" /></linearGradient><path
   id="path597"
   nodetypes="ccccc"
   fill="url(#path597_1_)"
   d="M3.7,18.8c0.9-4.2,6.7-16.4,19.1-16.3       c11.1,0.2,18.5,7.6,20.8,15.7c1.9,12.3-10.4,18.7-21.2,18.7C11.5,36.8,2.5,30.6,3.7,18.8z" /><radialGradient
   id="path587_1_"
   cx="-110.0488"
   cy="484.8984"
   r="7.249364e-002"
   fx="-110.0488"
   fy="484.8984"
   gradientTransform="matrix(160.9175 0 0 -72.8419 17731.2441 35327.0938)"
   gradientUnits="userSpaceOnUse"><stop
   offset="0"
   style="stop-color:#FFFFFF"
   id="stop632" /><stop
   offset="1"
   style="stop-color:#F5FFFF"
   id="stop633" /><a:midPointStop
   offset="0"
   style="stop-color:#FFFFFF"
   id="midPointStop634" /><a:midPointStop
   offset="0.5"
   style="stop-color:#FFFFFF"
   id="midPointStop635" /><a:midPointStop
   offset="1"
   style="stop-color:#F5FFFF"
   id="midPointStop636" /></radialGradient><path
   id="path587"
   nodetypes="ccccc"
   opacity="0.4"
   fill="url(#path587_1_)"
   d="M23.2,10.6c-7.3-0.1-9-2.7-8.3-4       c0.8-1.4,3.6-3.5,8.3-3.6c4.6-0.1,7.1,1.7,8.2,3.4C32.1,7.6,30.3,10.5,23.2,10.6z" /><radialGradient
   id="path630_1_"
   cx="-104.9448"
   cy="486.123"
   r="7.068524e-002"
   fx="-104.9448"
   fy="486.123"
   gradientTransform="matrix(-58.7614 0 0 -73.9179 -6135.8896 35951.5781)"
   gradientUnits="userSpaceOnUse"><stop
   offset="0"
   style="stop-color:#DEE2E7"
   id="stop639" /><stop
   offset="1"
   style="stop-color:#FFFFFF"
   id="stop640" /><a:midPointStop
   offset="0"
   style="stop-color:#DEE2E7"
   id="midPointStop641" /><a:midPointStop
   offset="0.5"
   style="stop-color:#DEE2E7"
   id="midPointStop642" /><a:midPointStop
   offset="1"
   style="stop-color:#FFFFFF"
   id="midPointStop643" /></radialGradient><path
   id="path630"
   type="arc"
   cx="50.24698"
   cy="478.4100"
   rx="24.52531"
   ry="34.99345"
   fill="url(#path630_1_)"
   stroke="#7C5202"
   stroke-width="0.4315"
   d="       M28.6,17.4c0-2.1,1.4-3.9,3.1-3.9c1.7,0,3.1,1.7,3.1,3.9c0,0,0,0,0,0c0,2.1-1.4,3.9-3.1,3.9C30,21.2,28.6,19.5,28.6,17.4       C28.6,17.4,28.6,17.4,28.6,17.4z" /><g
   id="path631"
   type="arc"
   cx="50.09747"
   cy="476.7646"
   rx="28.86212"
   ry="41.42389"><path
   i:knockout="Off"
   opacity="3.790000e-002"
   fill="none"
   stroke="#000000"
   stroke-width="0.3922"
   d="M28.2,17.3        c0-2.4,1.6-4.3,3.6-4.3c2,0,3.6,1.9,3.6,4.3c0,0,0,0,0,0c0,2.4-1.6,4.3-3.6,4.3C29.7,21.6,28.2,19.7,28.2,17.3        C28.2,17.3,28.2,17.3,28.2,17.3z"
   id="path646" /></g><g
   id="path632"
   type="arc"
   cx="50.09747"
   cy="476.7646"
   rx="28.86212"
   ry="41.42389"><path
   i:knockout="Off"
   opacity="1.420000e-002"
   fill="none"
   stroke="#000000"
   stroke-width="1.364"
   d="M28.2,17.4        c0-2.3,1.6-4.2,3.6-4.2c2,0,3.6,1.9,3.6,4.2c0,0,0,0,0,0c0,2.3-1.6,4.2-3.6,4.2C29.7,21.6,28.2,19.7,28.2,17.4        C28.2,17.4,28.2,17.4,28.2,17.4z"
   id="path648" /></g><g
   id="path633"
   type="arc"
   cx="50.09747"
   cy="476.7646"
   rx="28.86212"
   ry="41.42389"><path
   i:knockout="Off"
   opacity="1.420000e-002"
   fill="none"
   stroke="#000000"
   stroke-width="0.8619"
   d="M28.2,17.4        c0-2.3,1.6-4.2,3.6-4.2c2,0,3.6,1.9,3.6,4.2c0,0,0,0,0,0c0,2.3-1.6,4.2-3.6,4.2C29.7,21.6,28.2,19.7,28.2,17.4        C28.2,17.4,28.2,17.4,28.2,17.4z"
   id="path650" /></g><g
   id="path634"
   type="arc"
   cx="50.09747"
   cy="476.7646"
   rx="28.86212"
   ry="41.42389"><path
   i:knockout="Off"
   opacity="1.420000e-002"
   fill="none"
   stroke="#000000"
   stroke-width="0.2969"
   d="M28.2,17.4        c0-2.3,1.6-4.2,3.6-4.2c2,0,3.6,1.9,3.6,4.2c0,0,0,0,0,0c0,2.3-1.6,4.2-3.6,4.2C29.7,21.6,28.2,19.7,28.2,17.4        C28.2,17.4,28.2,17.4,28.2,17.4z"
   id="path652" /></g><g
   id="path635"
   type="arc"
   cx="50.09747"
   cy="476.7646"
   rx="28.86212"
   ry="41.42389"><path
   i:knockout="Off"
   opacity="0.1517"
   fill="none"
   stroke="#000000"
   stroke-width="0.1492"
   d="M28.3,17.4        c0-2.3,1.5-4.2,3.4-4.2c1.9,0,3.4,1.9,3.4,4.2c0,0,0,0,0,0c0,2.3-1.5,4.2-3.4,4.2C29.8,21.5,28.3,19.7,28.3,17.4        C28.3,17.4,28.3,17.4,28.3,17.4z"
   id="path654" /></g><radialGradient
   id="path637_1_"
   cx="-99.4771"
   cy="486.9873"
   r="6.471253e-002"
   fx="-99.4771"
   fy="486.9873"
   gradientTransform="matrix(-24.4725 0 0 -23.5935 -2402.8103 11508.0371)"
   gradientUnits="userSpaceOnUse"><stop
   offset="0"
   style="stop-color:#000082"
   id="stop656" /><stop
   offset="1"
   style="stop-color:#000000"
   id="stop657" /><a:midPointStop
   offset="0"
   style="stop-color:#000082"
   id="midPointStop658" /><a:midPointStop
   offset="0.5"
   style="stop-color:#000082"
   id="midPointStop659" /><a:midPointStop
   offset="1"
   style="stop-color:#000000"
   id="midPointStop660" /></radialGradient><path
   id="path637"
   type="arc"
   cx="61.64901"
   cy="495.8291"
   rx="10.46870"
   ry="10.89169"
   fill="url(#path637_1_)"
   d="       M29.9,19c0-0.7,0.6-1.2,1.3-1.2c0.7,0,1.3,0.6,1.3,1.2c0,0,0,0,0,0c0,0.7-0.6,1.2-1.3,1.2C30.5,20.2,29.9,19.7,29.9,19L29.9,19       z" /><radialGradient
   id="path650_1_"
   cx="-110.6177"
   cy="486.123"
   r="7.091639e-002"
   fx="-110.6177"
   fy="486.123"
   gradientTransform="matrix(58.7614 0 0 -73.9179 6515.8496 35951.5781)"
   gradientUnits="userSpaceOnUse"><stop
   offset="0"
   style="stop-color:#DEE2E7"
   id="stop663" /><stop
   offset="1"
   style="stop-color:#FFFFFF"
   id="stop664" /><a:midPointStop
   offset="0"
   style="stop-color:#DEE2E7"
   id="midPointStop665" /><a:midPointStop
   offset="0.5"
   style="stop-color:#DEE2E7"
   id="midPointStop666" /><a:midPointStop
   offset="1"
   style="stop-color:#FFFFFF"
   id="midPointStop667" /></radialGradient><path
   id="path668"
   type="arc"
   cx="50.24698"
   cy="478.4100"
   rx="24.52531"
   ry="34.99345"
   fill="url(#path650_1_)"
   stroke="#7C3902"
   stroke-width="0.4315"
   d="       M18,17.4c0-2.1-1.4-3.9-3.1-3.9c-1.7,0-3.1,1.7-3.1,3.9c0,0,0,0,0,0c0,2.1,1.4,3.9,3.1,3.9C16.6,21.2,18,19.5,18,17.4       C18,17.4,18,17.4,18,17.4z" /><g
   id="path651"
   type="arc"
   cx="50.09747"
   cy="476.7646"
   rx="28.86212"
   ry="41.42389"><path
   i:knockout="Off"
   opacity="3.790000e-002"
   fill="none"
   stroke="#000000"
   stroke-width="0.3922"
   d="M18.5,17.3        c0-2.4-1.6-4.3-3.6-4.3c-2,0-3.6,1.9-3.6,4.3c0,0,0,0,0,0c0,2.4,1.6,4.3,3.6,4.3C16.9,21.6,18.5,19.7,18.5,17.3        C18.5,17.3,18.5,17.3,18.5,17.3z"
   id="path670" /></g><g
   id="g671"
   type="arc"
   cx="50.09747"
   cy="476.7646"
   rx="28.86212"
   ry="41.42389"><path
   i:knockout="Off"
   opacity="1.420000e-002"
   fill="none"
   stroke="#000000"
   stroke-width="1.364"
   d="M18.5,17.4        c0-2.3-1.6-4.2-3.6-4.2c-2,0-3.6,1.9-3.6,4.2c0,0,0,0,0,0c0,2.3,1.6,4.2,3.6,4.2C16.9,21.6,18.5,19.7,18.5,17.4        C18.5,17.4,18.5,17.4,18.5,17.4z"
   id="path672" /></g><g
   id="path653"
   type="arc"
   cx="50.09747"
   cy="476.7646"
   rx="28.86212"
   ry="41.42389"><path
   i:knockout="Off"
   opacity="1.420000e-002"
   fill="none"
   stroke="#000000"
   stroke-width="0.8619"
   d="M18.5,17.4        c0-2.3-1.6-4.2-3.6-4.2c-2,0-3.6,1.9-3.6,4.2c0,0,0,0,0,0c0,2.3,1.6,4.2,3.6,4.2C16.9,21.6,18.5,19.7,18.5,17.4        C18.5,17.4,18.5,17.4,18.5,17.4z"
   id="path674" /></g><g
   id="g675"
   type="arc"
   cx="50.09747"
   cy="476.7646"
   rx="28.86212"
   ry="41.42389"><path
   i:knockout="Off"
   opacity="1.420000e-002"
   fill="none"
   stroke="#000000"
   stroke-width="0.2969"
   d="M18.5,17.4        c0-2.3-1.6-4.2-3.6-4.2c-2,0-3.6,1.9-3.6,4.2c0,0,0,0,0,0c0,2.3,1.6,4.2,3.6,4.2C16.9,21.6,18.5,19.7,18.5,17.4        C18.5,17.4,18.5,17.4,18.5,17.4z"
   id="path676" /></g><g
   id="path655"
   type="arc"
   cx="50.09747"
   cy="476.7646"
   rx="28.86212"
   ry="41.42389"><path
   i:knockout="Off"
   opacity="0.1517"
   fill="none"
   stroke="#000000"
   stroke-width="0.1492"
   d="M18.3,17.4        c0-2.3-1.5-4.2-3.4-4.2c-1.9,0-3.4,1.9-3.4,4.2c0,0,0,0,0,0c0,2.3,1.5,4.2,3.4,4.2C16.8,21.5,18.3,19.7,18.3,17.4        C18.3,17.4,18.3,17.4,18.3,17.4z"
   id="path678" /></g><radialGradient
   id="path656_1_"
   cx="-113.0981"
   cy="486.9873"
   r="6.475408e-002"
   fx="-113.0981"
   fy="486.9873"
   gradientTransform="matrix(24.4725 0 0 -23.5935 2782.7859 11508.0371)"
   gradientUnits="userSpaceOnUse"><stop
   offset="0"
   style="stop-color:#000082"
   id="stop680" /><stop
   offset="1"
   style="stop-color:#000000"
   id="stop681" /><a:midPointStop
   offset="0"
   style="stop-color:#000082"
   id="midPointStop682" /><a:midPointStop
   offset="0.5"
   style="stop-color:#000082"
   id="midPointStop683" /><a:midPointStop
   offset="1"
   style="stop-color:#000000"
   id="midPointStop684" /></radialGradient><path
   id="path656"
   type="arc"
   cx="61.64901"
   cy="495.8291"
   rx="10.46870"
   ry="10.89169"
   fill="url(#path656_1_)"
   d="       M16.7,19c0-0.7-0.6-1.2-1.3-1.2c-0.7,0-1.3,0.6-1.3,1.2c0,0,0,0,0,0c0,0.7,0.6,1.2,1.3,1.2C16.2,20.2,16.7,19.7,16.7,19       L16.7,19z" /><linearGradient
   id="path737_1_"
   gradientUnits="userSpaceOnUse"
   x1="-109.4688"
   y1="485.0801"
   x2="-109.6454"
   y2="485.027"
   gradientTransform="matrix(40.2202 0 0 -79.9116 4412.7334 38768.3438)"><stop
   offset="0"
   style="stop-color:#261700"
   id="stop687" /><stop
   offset="1"
   style="stop-color:#5A4F1F"
   id="stop688" /><a:midPointStop
   offset="0"
   style="stop-color:#261700"
   id="midPointStop689" /><a:midPointStop
   offset="0.5"
   style="stop-color:#261700"
   id="midPointStop690" /><a:midPointStop
   offset="1"
   style="stop-color:#5A4F1F"
   id="midPointStop691" /></linearGradient><path
   id="path737"
   nodetypes="ccccc"
   opacity="0.8"
   fill="url(#path737_1_)"
   d="M5.8,3.5c2.1,1.8,2.6,4,2.7,6.9       l-1.4,1C5.2,9.6,4.8,6,4.3,3.1C4.8,3.3,5.3,3.4,5.8,3.5z" /><g
   id="path744"
   nodetypes="cc"
   opacity="0.75"><path
   i:knockout="Off"
   opacity="0.8815"
   fill="none"
   stroke="#62361B"
   stroke-width="0.8353"
   stroke-linecap="round"
   d="        M5.9,3.8c1.6,2.1,2.3,4.3,2.3,6.5"
   id="path694" /></g><linearGradient
   id="path748_1_"
   gradientUnits="userSpaceOnUse"
   x1="-116.9517"
   y1="485.2275"
   x2="-117.1291"
   y2="485.1743"
   gradientTransform="matrix(40.2203 0 0 -79.9115 4748.9312 38782.0781)"><stop
   offset="0"
   style="stop-color:#261700"
   id="stop696" /><stop
   offset="1"
   style="stop-color:#5A4F1F"
   id="stop697" /><a:midPointStop
   offset="0"
   style="stop-color:#261700"
   id="midPointStop698" /><a:midPointStop
   offset="0.5"
   style="stop-color:#261700"
   id="midPointStop699" /><a:midPointStop
   offset="1"
   style="stop-color:#5A4F1F"
   id="midPointStop700" /></linearGradient><path
   id="path748"
   nodetypes="ccccc"
   opacity="0.8"
   fill="url(#path748_1_)"
   d="M42.1,5c-2.1,1.8-2.6,4-2.7,6.9l1.4,1       c1.9-1.9,2.3-5.5,2.9-8.4C43.1,4.7,42.6,4.8,42.1,5z" /><g
   id="path749"
   nodetypes="cc"
   opacity="0.6"><path
   i:knockout="Off"
   opacity="0.8815"
   fill="none"
   stroke="#62361B"
   stroke-width="0.8353"
   stroke-linecap="round"
   d="        M42,5.2c-1.6,2.1-2.3,4.3-2.3,6.5"
   id="path703" /></g><path
   id="path571"
   nodetypes="cccc"
   stroke="#000000"
   stroke-width="0.3196"
   d="M20.4,23.7c1.6-1,3.8-1,5.4-0.1       c1,0.9-1.3,3.5-2.8,3.6C21.6,27,19.6,24.6,20.4,23.7z" /><path
   id="path573"
   nodetypes="ccc"
   fill="none"
   stroke="#000000"
   stroke-width="1.1379"
   stroke-linecap="round"
   stroke-linejoin="round"
   d="       M23.1,30.4c0.2,1,1.4,1.7,3.1,1.7c1.3-0.2,2.2-1.1,3-1.7" /><line
   id="path574"
   nodetypes="cc"
   fill="none"
   stroke="#000000"
   stroke-width="1.1379"
   stroke-linecap="round"
   stroke-linejoin="round"
   x1="23"
   y1="30.4"
   x2="23"
   y2="27.5" /><path
   id="path575"
   nodetypes="ccc"
   fill="none"
   stroke="#000000"
   stroke-width="1.1379"
   stroke-linecap="round"
   stroke-linejoin="round"
   d="       M23,30.3c-0.2,1-1.4,1.7-3.1,1.7c-1.3-0.2-2.2-1.1-3-1.7" /><g
   id="path757"><path
   i:knockout="Off"
   opacity="0.6351"
   fill="none"
   stroke="#000000"
   stroke-width="0.4194"
   stroke-linecap="round"
   d="        M16.2,24.8c-8.3-0.3-8.6,2.3-8.6,2.3"
   id="path709" /></g><g
   id="path657"><path
   i:knockout="Off"
   opacity="0.6351"
   fill="none"
   stroke="#000000"
   stroke-width="0.4194"
   stroke-linecap="round"
   d="        M16.3,25.7c-7.3,1.1-7.2,3.2-7.2,3.2"
   id="path711" /></g><g
   id="path658"><path
   i:knockout="Off"
   opacity="0.6351"
   fill="none"
   stroke="#000000"
   stroke-width="0.4194"
   stroke-linecap="round"
   d="        M17,26.9c-5.4,2.5-4.9,3.9-4.9,3.9"
   id="path713" /></g><g
   id="path659"><path
   i:knockout="Off"
   opacity="0.6351"
   fill="none"
   stroke="#000000"
   stroke-width="0.4194"
   stroke-linecap="round"
   d="        M30.1,25c8.3-0.3,8.6,2.3,8.6,2.3"
   id="path715" /></g><g
   id="path660"><path
   i:knockout="Off"
   opacity="0.6351"
   fill="none"
   stroke="#000000"
   stroke-width="0.4194"
   stroke-linecap="round"
   d="        M30,25.9c7.3,1.1,7.2,3.2,7.2,3.2"
   id="path717" /></g><g
   id="path661"><path
   i:knockout="Off"
   opacity="0.6351"
   fill="none"
   stroke="#000000"
   stroke-width="0.4194"
   stroke-linecap="round"
   d="        M29.3,27.1c5.4,2.5,4.9,3.9,4.9,3.9"
   id="path719" /></g></g><rect
   y="0.5"
   fill="none"
   width="48"
   height="48"
   id="rect720" /></g></g></svg>
