<?xml version="1.0" encoding="UTF-8" standalone="no"?>
<!DOCTYPE svg PUBLIC "-//W3C//DTD SVG 20010904//EN"
"http://www.w3.org/TR/2001/REC-SVG-20010904/DTD/svg10.dtd">
<!-- Created with Sodipodi ("http://www.sodipodi.com/") -->
<svg
   xmlns:x="http://ns.adobe.com/Extensibility/1.0/"
   xmlns:i="http://ns.adobe.com/AdobeIllustrator/10.0/"
   xmlns:graph="http://ns.adobe.com/Graphs/1.0/"
   xmlns="http://www.w3.org/2000/svg"
   xmlns:xlink="http://www.w3.org/1999/xlink"
   xmlns:a="http://ns.adobe.com/AdobeSVGViewerExtensions/3.0/"
   xml:space="preserve"
   i:viewOrigin="169.9258 427.7852"
   i:rulerOrigin="0 0"
   i:pageBounds="0 792 612 0"
   width="48"
   height="48.7"
   viewBox="0 0 48 48.7"
   overflow="visible"
   enable-background="new 0 0 48 48.7"
   xmlns:sodipodi="http://sodipodi.sourceforge.net/DTD/sodipodi-0.dtd"
   id="svg602"
   sodipodi:version="0.34"
   sodipodi:docname="C:\msys\home\su_blanc\mldonkey-2.5.12\src\gtk2\rsvg\emoticons\emoticon_wink.svg"><defs
   id="defs700" /><sodipodi:namedview
   id="base" /><g
   id="Layer_1"
   i:knockout="Off"
   i:layer="yes"
   i:dimmedPercent="50"
   i:rgbTrio="#4F008000FFFF"><path
   id="path597_5_"
   i:isolated="yes"
   i:knockout="Off"
   opacity="0.15"
   fill="none"
   stroke="#474000"
   stroke-width="1.8815"
   enable-background="new    "
   d="     M5.6,20.2c0-10.7,8-19.3,17.8-19.3c9.8,0,18.4,8.1,18.4,18.7c0,10.7-8.6,19.9-18.4,19.9C13.6,39.5,5.6,30.9,5.6,20.2z" /><path
   id="path597_4_"
   i:isolated="yes"
   i:knockout="Off"
   opacity="0.2"
   fill="none"
   stroke="#474000"
   stroke-width="0.9407"
   enable-background="new    "
   d="     M5.6,20.2c0-10.7,8-19.3,17.8-19.3c9.8,0,18.4,8.1,18.4,18.7c0,10.7-8.6,19.9-18.4,19.9C13.6,39.5,5.6,30.9,5.6,20.2z" /><path
   id="path597_3_"
   i:isolated="yes"
   i:knockout="Off"
   opacity="0.3"
   fill="none"
   stroke="#474000"
   stroke-width="0.4703"
   enable-background="new    "
   d="     M5.6,20.2c0-10.7,8-19.3,17.8-19.3c9.8,0,18.4,8.1,18.4,18.7c0,10.7-8.6,19.9-18.4,19.9C13.6,39.5,5.6,30.9,5.6,20.2z" /><radialGradient
   id="path700_1_"
   cx="-1019.4219"
   cy="-0.7065"
   r="6.351693e-002"
   fx="-1019.4219"
   fy="-0.7065"
   gradientTransform="matrix(310.7065 0 0 144.0699 316766.1875 144.5546)"
   gradientUnits="userSpaceOnUse"><stop
   offset="0"
   style="stop-color:#261700"
   id="stop610" /><stop
   offset="1"
   style="stop-color:#D2D2D2"
   id="stop611" /><a:midPointStop
   offset="0"
   style="stop-color:#261700"
   id="midPointStop612" /><a:midPointStop
   offset="0.5"
   style="stop-color:#261700"
   id="midPointStop613" /><a:midPointStop
   offset="1"
   style="stop-color:#D2D2D2"
   id="midPointStop614" /></radialGradient><path
   id="path700"
   i:isolated="yes"
   i:knockout="Off"
   opacity="0.3"
   fill="url(#path700_1_)"
   enable-background="new    "
   d="     M37.9,31.8c6.5,4.5,6,10.6-1.9,14.3s-19.5,3.1-25.9-1.5c-5.5-3.8-5.7-9.1-0.5-13.1c3.4,4.7,6.2,6.3,14,7.3     C30.1,38.7,34.3,35.8,37.9,31.8z" /><radialGradient
   id="path577_1_"
   cx="-978.3477"
   cy="42.9893"
   r="41.6502"
   fx="-978.3477"
   fy="42.9893"
   gradientTransform="matrix(298.9032 0 0 316.2907 304733.6563 -108.8552)"
   gradientUnits="userSpaceOnUse"><stop
   offset="0"
   style="stop-color:#FF6F00"
   id="stop617" /><stop
   offset="1"
   style="stop-color:#FFFF00"
   id="stop618" /><a:midPointStop
   offset="0"
   style="stop-color:#FF6F00"
   id="midPointStop619" /><a:midPointStop
   offset="0.5"
   style="stop-color:#FF6F00"
   id="midPointStop620" /><a:midPointStop
   offset="1"
   style="stop-color:#FFFF00"
   id="midPointStop621" /></radialGradient><circle
   id="path577"
   fill="url(#path577_1_)"
   cx="23.9"
   cy="20.4"
   r="17.8" /><linearGradient
   id="path597_1_"
   gradientUnits="userSpaceOnUse"
   x1="-1019.4165"
   y1="0.3521"
   x2="-1019.4179"
   y2="0.4703"
   gradientTransform="matrix(303.6933 0 0 316.3967 309613.7813 -108.5726)"><stop
   offset="0"
   style="stop-color:#FF6500"
   id="stop624" /><stop
   offset="1"
   style="stop-color:#FFFF00"
   id="stop625" /><a:midPointStop
   offset="0"
   style="stop-color:#FF6500"
   id="midPointStop626" /><a:midPointStop
   offset="0.5"
   style="stop-color:#FF6500"
   id="midPointStop627" /><a:midPointStop
   offset="1"
   style="stop-color:#FFFF00"
   id="midPointStop628" /></linearGradient><path
   id="path597"
   i:isolated="yes"
   i:knockout="Off"
   opacity="0.75"
   fill="url(#path597_1_)"
   enable-background="new    "
   d="     M5.6,20.2c0-10.7,8-19.3,17.8-19.3c9.9,0,18.4,8,18.4,18.7s-8.6,19.9-18.4,19.9C13.6,39.5,5.6,30.9,5.6,20.2z" /><radialGradient
   id="path597_6_"
   cx="-819.4443"
   cy="429.3438"
   r="20.2352"
   fx="-819.4443"
   fy="429.3438"
   gradientTransform="matrix(0.8032 0.5955 0.5957 -0.8029 435.6294 836.6303)"
   gradientUnits="userSpaceOnUse"><stop
   offset="0"
   style="stop-color:#FFFFFF"
   id="stop631" /><stop
   offset="0.1046"
   style="stop-color:#FFFEFA"
   id="stop632" /><stop
   offset="0.2282"
   style="stop-color:#FFFBEC"
   id="stop633" /><stop
   offset="0.3616"
   style="stop-color:#FFF7D4"
   id="stop634" /><stop
   offset="0.5018"
   style="stop-color:#FFF1B2"
   id="stop635" /><stop
   offset="0.6474"
   style="stop-color:#FFE988"
   id="stop636" /><stop
   offset="0.7976"
   style="stop-color:#FFDF53"
   id="stop637" /><stop
   offset="0.9487"
   style="stop-color:#FFD316"
   id="stop638" /><stop
   offset="1"
   style="stop-color:#FFCF00"
   id="stop639" /><a:midPointStop
   offset="0"
   style="stop-color:#FFFFFF"
   id="midPointStop640" /><a:midPointStop
   offset="0.5"
   style="stop-color:#FFFFFF"
   id="midPointStop641" /><a:midPointStop
   offset="0.1046"
   style="stop-color:#FFFEFA"
   id="midPointStop642" /><a:midPointStop
   offset="0.5"
   style="stop-color:#FFFEFA"
   id="midPointStop643" /><a:midPointStop
   offset="0.2282"
   style="stop-color:#FFFBEC"
   id="midPointStop644" /><a:midPointStop
   offset="0.5"
   style="stop-color:#FFFBEC"
   id="midPointStop645" /><a:midPointStop
   offset="0.3616"
   style="stop-color:#FFF7D4"
   id="midPointStop646" /><a:midPointStop
   offset="0.5"
   style="stop-color:#FFF7D4"
   id="midPointStop647" /><a:midPointStop
   offset="0.5018"
   style="stop-color:#FFF1B2"
   id="midPointStop648" /><a:midPointStop
   offset="0.5"
   style="stop-color:#FFF1B2"
   id="midPointStop649" /><a:midPointStop
   offset="0.6474"
   style="stop-color:#FFE988"
   id="midPointStop650" /><a:midPointStop
   offset="0.5"
   style="stop-color:#FFE988"
   id="midPointStop651" /><a:midPointStop
   offset="0.7976"
   style="stop-color:#FFDF53"
   id="midPointStop652" /><a:midPointStop
   offset="0.5"
   style="stop-color:#FFDF53"
   id="midPointStop653" /><a:midPointStop
   offset="0.9487"
   style="stop-color:#FFD316"
   id="midPointStop654" /><a:midPointStop
   offset="0.5"
   style="stop-color:#FFD316"
   id="midPointStop655" /><a:midPointStop
   offset="1"
   style="stop-color:#FFCF00"
   id="midPointStop656" /></radialGradient><path
   id="path597_2_"
   i:isolated="yes"
   i:knockout="Off"
   opacity="0.75"
   fill="url(#path597_6_)"
   enable-background="new    "
   d="     M20.2,2.7c2.3-3.1,8.1-2.6,13,1.1c4.9,3.6,7.4,9.1,5.2,12.2C36.1,19,17.9,5.8,20.2,2.7z" /><rect
   id="rect662"
   y="0.7"
   i:knockout="Off"
   fill="none"
   width="48"
   height="48" /><radialGradient
   id="path607_1_"
   cx="-169.9292"
   cy="426.9414"
   r="0.1009"
   fx="-169.9292"
   fy="426.9414"
   gradientTransform="matrix(37.6178 18.3801 22.7937 -63.7936 -3323.146 30372.1953)"
   gradientUnits="userSpaceOnUse"><stop
   offset="0"
   style="stop-color:#DEE2E7"
   id="stop660" /><stop
   offset="1"
   style="stop-color:#FFFFFF"
   id="stop661" /><a:midPointStop
   offset="0"
   style="stop-color:#DEE2E7"
   id="midPointStop662" /><a:midPointStop
   offset="0.5"
   style="stop-color:#DEE2E7"
   id="midPointStop663" /><a:midPointStop
   offset="1"
   style="stop-color:#FFFFFF"
   id="midPointStop664" /></radialGradient><path
   id="path607"
   type="arc"
   cx="50.24698"
   cy="478.4100"
   rx="24.52531"
   ry="34.99345"
   fill="url(#path607_1_)"
   stroke="#754000"
   stroke-width="0.6186"
   d="     M18.4,12.7c0.9-2.6,0.4-5.4-1.1-6.2c-1.6-0.8-3.6,0.8-4.5,3.4c0,0,0,0,0,0c-0.9,2.6-0.4,5.4,1.1,6.2     C15.5,16.8,17.5,15.3,18.4,12.7C18.4,12.7,18.4,12.7,18.4,12.7z" /><g
   id="path612"
   type="arc"
   cx="50.09747"
   cy="476.7646"
   rx="28.86212"
   ry="41.42389"><path
   i:knockout="Off"
   opacity="3.790000e-002"
   fill="none"
   stroke="#000000"
   stroke-width="0.5624"
   d="M18.9,12.8      c1-2.9,0.4-6-1.4-6.9c-1.8-0.9-4.1,0.8-5.2,3.7c0,0,0,0,0,0c-1,2.9-0.4,6,1.4,6.9C15.6,17.4,17.9,15.8,18.9,12.8      C18.9,12.8,18.9,12.8,18.9,12.8z"
   id="path667" /></g><g
   id="path613"
   type="arc"
   cx="50.09747"
   cy="476.7646"
   rx="28.86212"
   ry="41.42389"><path
   i:knockout="Off"
   opacity="1.420000e-002"
   fill="none"
   stroke="#000000"
   stroke-width="1.9557"
   d="M18.9,12.9      c1-2.9,0.4-6-1.4-6.9c-1.8-0.9-4.1,0.8-5.1,3.7c0,0,0,0,0,0c-1,2.9-0.4,6,1.4,6.9S17.9,15.8,18.9,12.9      C18.9,12.9,18.9,12.9,18.9,12.9z"
   id="path669" /></g><g
   id="path614"
   type="arc"
   cx="50.09747"
   cy="476.7646"
   rx="28.86212"
   ry="41.42389"><path
   i:knockout="Off"
   opacity="1.420000e-002"
   fill="none"
   stroke="#000000"
   stroke-width="1.2358"
   d="M18.9,12.9      c1-2.9,0.4-6-1.4-6.9c-1.8-0.9-4.1,0.8-5.1,3.7c0,0,0,0,0,0c-1,2.9-0.4,6,1.4,6.9S17.9,15.8,18.9,12.9      C18.9,12.9,18.9,12.9,18.9,12.9z"
   id="path671" /></g><g
   id="path615"
   type="arc"
   cx="50.09747"
   cy="476.7646"
   rx="28.86212"
   ry="41.42389"><path
   i:knockout="Off"
   opacity="1.420000e-002"
   fill="none"
   stroke="#000000"
   stroke-width="0.4257"
   d="M18.9,12.9      c1-2.9,0.4-6-1.4-6.9c-1.8-0.9-4.1,0.8-5.1,3.7c0,0,0,0,0,0c-1,2.9-0.4,6,1.4,6.9S17.9,15.8,18.9,12.9      C18.9,12.9,18.9,12.9,18.9,12.9z"
   id="path673" /></g><g
   id="path616"
   type="arc"
   cx="50.09747"
   cy="476.7646"
   rx="28.86212"
   ry="41.42389"><path
   i:knockout="Off"
   opacity="0.1517"
   fill="none"
   stroke="#000000"
   stroke-width="0.214"
   d="M18.8,12.8      c1-2.9,0.4-5.9-1.3-6.7c-1.7-0.9-4,0.8-5,3.6c0,0,0,0,0,0c-1,2.9-0.4,5.9,1.3,6.7C15.5,17.3,17.7,15.7,18.8,12.8      C18.8,12.8,18.8,12.8,18.8,12.8z"
   id="path675" /></g><path
   id="path629"
   nodetypes="cscscscsc"
   fill="#5D1A00"
   d="M12.3,25c-0.1-0.4-0.4-0.7-0.6-0.7s-0.5,0.2-0.5,0.7     c1,4,2.6,7.2,5.1,9.3c1.8,1.4,5.1,2.8,9.3,3.1c1.2-0.1,1.2-0.2,1.5-1.3c0.2-0.6,0.4-2.5-1.2-1.6c-1,0.4-4.1-0.1-5.5-0.4     C17.3,33.2,13.3,29.3,12.3,25z" /><radialGradient
   id="path624_1_"
   cx="-171.0278"
   cy="426.3457"
   r="9.315042e-002"
   fx="-171.0278"
   fy="426.3457"
   gradientTransform="matrix(15.6667 7.6548 7.2754 -20.362 -406.1075 10001.2803)"
   gradientUnits="userSpaceOnUse"><stop
   offset="0"
   style="stop-color:#000082"
   id="stop678" /><stop
   offset="1"
   style="stop-color:#000000"
   id="stop679" /><a:midPointStop
   offset="0"
   style="stop-color:#000082"
   id="midPointStop680" /><a:midPointStop
   offset="0.5"
   style="stop-color:#000082"
   id="midPointStop681" /><a:midPointStop
   offset="1"
   style="stop-color:#000000"
   id="midPointStop682" /></radialGradient><path
   id="path624"
   type="arc"
   cx="61.64901"
   cy="495.8291"
   rx="10.46870"
   ry="10.89169"
   fill="url(#path624_1_)"
   d="     M17.6,12.4c0.3-0.8,0-1.8-0.6-2.1c-0.6-0.3-1.4,0.1-1.7,1c0,0,0,0,0,0c-0.3,0.8,0,1.8,0.6,2.1C16.5,13.7,17.3,13.3,17.6,12.4     C17.6,12.4,17.6,12.4,17.6,12.4z" /><g
   id="path702"
   nodetypes="ccccc"><path
   i:knockout="Off"
   opacity="0.3697"
   fill="none"
   stroke="#000000"
   stroke-width="1.0214"
   d="M26,20.5      c-0.3-0.4-0.9-0.1-0.3,0.4c4.6,3,7.9,3.5,9.4,0.4c0.3-1-0.8-1.6-1.1-0.8C32.5,22.7,30.7,23.1,26,20.5z"
   id="path685" /></g><path
   id="path703"
   nodetypes="ccccc"
   fill="#5D1A00"
   d="M26,20.5c-0.3-0.4-0.9-0.1-0.3,0.4c4.6,3,7.9,3.5,9.4,0.4     c0.3-1-0.8-1.6-1.1-0.8C32.5,22.7,30.7,23.1,26,20.5z" /><g
   id="path705"
   nodetypes="cscscscsc"><path
   i:knockout="Off"
   opacity="4.000000e-002"
   fill="none"
   stroke="#020000"
   stroke-width="1.4273"
   d="M12.3,25      c-0.1-0.4-0.4-0.7-0.6-0.7s-0.5,0.2-0.5,0.7c1,4,2.6,7.2,5.1,9.3c1.8,1.4,5.1,2.8,9.3,3.1c1.2-0.1,1.2-0.2,1.5-1.3      c0.2-0.6,0.4-2.5-1.2-1.6c-1,0.4-4.1-0.1-5.5-0.4C17.3,33.2,13.3,29.3,12.3,25z"
   id="path688" /></g><g
   id="g689"
   nodetypes="cscscscsc"><path
   i:knockout="Off"
   opacity="4.000000e-002"
   fill="none"
   stroke="#000000"
   stroke-width="1.9804"
   d="M12.3,25      c-0.1-0.4-0.4-0.7-0.6-0.7s-0.5,0.2-0.5,0.7c1,4,2.6,7.2,5.1,9.3c1.8,1.4,5.1,2.8,9.3,3.1c1.2-0.1,1.2-0.2,1.5-1.3      c0.2-0.6,0.4-2.5-1.2-1.6c-1,0.4-4.1-0.1-5.5-0.4C17.3,33.2,13.3,29.3,12.3,25z"
   id="path690" /></g><g
   id="path686"
   nodetypes="cscscscsc"><path
   i:knockout="Off"
   opacity="4.000000e-002"
   fill="none"
   stroke="#000000"
   stroke-width="1.9804"
   d="M12.3,25      c-0.1-0.4-0.4-0.7-0.6-0.7s-0.5,0.2-0.5,0.7c1,4,2.6,7.2,5.1,9.3c1.8,1.4,5.1,2.8,9.3,3.1c1.2-0.1,1.2-0.2,1.5-1.3      c0.2-0.6,0.4-2.5-1.2-1.6c-1,0.4-4.1-0.1-5.5-0.4C17.3,33.2,13.3,29.3,12.3,25z"
   id="path692" /></g><g
   id="path704"
   nodetypes="ccccc"><path
   i:knockout="Off"
   opacity="0.3697"
   fill="none"
   stroke="#000000"
   stroke-width="0.3316"
   d="M26,20.5      c-0.3-0.4-0.9-0.1-0.3,0.4c4.6,3,7.9,3.5,9.4,0.4c0.3-1-0.8-1.6-1.1-0.8C32.5,22.7,30.7,23.1,26,20.5z"
   id="path694" /></g><g
   id="path687"
   nodetypes="cscscscsc"><path
   i:knockout="Off"
   opacity="4.000000e-002"
   fill="none"
   stroke="#000000"
   stroke-width="0.6066"
   d="M12.3,25      c-0.1-0.4-0.4-0.7-0.6-0.7s-0.5,0.2-0.5,0.7c1,4,2.6,7.2,5.1,9.3c1.8,1.4,5.1,2.8,9.3,3.1c1.2-0.1,1.2-0.2,1.5-1.3      c0.2-0.6,0.4-2.5-1.2-1.6c-1,0.4-4.1-0.1-5.5-0.4C17.3,33.2,13.3,29.3,12.3,25z"
   id="path696" /></g><g
   id="g697"
   nodetypes="cscscscsc"><path
   i:knockout="Off"
   opacity="4.000000e-002"
   fill="none"
   stroke="#000000"
   stroke-width="0.6066"
   d="M12.3,25      c-0.1-0.4-0.4-0.7-0.6-0.7s-0.5,0.2-0.5,0.7c1,4,2.6,7.2,5.1,9.3c1.8,1.4,5.1,2.8,9.3,3.1c1.2-0.1,1.2-0.2,1.5-1.3      c0.2-0.6,0.4-2.5-1.2-1.6c-1,0.4-4.1-0.1-5.5-0.4C17.3,33.2,13.3,29.3,12.3,25z"
   id="path698" /></g></g></svg>
