<?xml version="1.0" encoding="UTF-8" standalone="no"?>
<!DOCTYPE svg PUBLIC "-//W3C//DTD SVG 20010904//EN"
"http://www.w3.org/TR/2001/REC-SVG-20010904/DTD/svg10.dtd">
<!-- Created with Sodipodi ("http://www.sodipodi.com/") -->
<svg
   xmlns:x="http://ns.adobe.com/Extensibility/1.0/"
   xmlns:i="http://ns.adobe.com/AdobeIllustrator/10.0/"
   xmlns:graph="http://ns.adobe.com/Graphs/1.0/"
   xmlns="http://www.w3.org/2000/svg"
   xmlns:xlink="http://www.w3.org/1999/xlink"
   xmlns:a="http://ns.adobe.com/AdobeSVGViewerExtensions/3.0/"
   xml:space="preserve"
   i:viewOrigin="168.9849 427.4814"
   i:rulerOrigin="0 0"
   i:pageBounds="0 792 612 0"
   width="48.9"
   height="48.6"
   viewBox="0 0 48.9 48.6"
   overflow="visible"
   enable-background="new 0 0 48.9 48.6"
   xmlns:sodipodi="http://sodipodi.sourceforge.net/DTD/sodipodi-0.dtd"
   id="svg602"
   sodipodi:version="0.34"
   sodipodi:docname="C:\msys\home\su_blanc\mldonkey-2.5.12\src\gtk2\rsvg\emoticons\emoticon_dunno.svg"><defs
   id="defs733" /><sodipodi:namedview
   id="namedview732" /><g
   id="Layer_1"
   i:knockout="Off"
   i:layer="yes"
   i:dimmedPercent="50"
   i:rgbTrio="#4F008000FFFF"><g
   id="g606"><rect
   id="rect662"
   x="0.9"
   y="0.6"
   i:knockout="Off"
   fill="none"
   width="48"
   height="48" /><g
   id="g632"
   i:knockout="Off"><path
   d="M43.4,18.8h-6.1v-7.3h1.8c1.3,0,2.3-0.3,3-0.8c0.7-0.5,1-1.3,1-2.3c0-0.8-0.3-1.5-0.8-2s-1.2-0.8-1.9-0.8       c-0.8,0-1.5,0.2-1.9,0.7c-0.5,0.4-0.7,1.1-0.8,1.9h-6V8.1c0-2.3,0.8-4.1,2.4-5.5s3.8-2,6.5-2c2.5,0,4.5,0.7,6,2.2       c1.5,1.4,2.3,3.3,2.3,5.7c0,2-0.5,3.6-1.6,4.8c-1,1.2-2.4,1.9-4.1,1.9L43.4,18.8z M36.6,24.6c0-1,0.3-1.8,1-2.5       c0.7-0.7,1.5-1,2.5-1s1.9,0.3,2.5,1s1,1.5,1,2.5s-0.3,1.9-1,2.5c-0.7,0.7-1.5,1-2.5,1s-1.8-0.3-2.5-1       C36.9,26.4,36.6,25.6,36.6,24.6z"
   id="path609" /></g><g
   id="g610"><path
   id="path597_5_"
   i:isolated="yes"
   i:knockout="Off"
   opacity="0.15"
   fill="none"
   stroke="#474000"
   stroke-width="1.8818"
   enable-background="new    "
   d="       M0.9,20.2c0-10.7,8-19.3,17.8-19.3c9.8,0,18.4,8.1,18.4,18.7c0,10.7-8.6,19.9-18.4,19.9C8.9,39.5,0.9,30.9,0.9,20.2z" /><path
   id="path597_4_"
   i:isolated="yes"
   i:knockout="Off"
   opacity="0.2"
   fill="none"
   stroke="#474000"
   stroke-width="0.9409"
   enable-background="new    "
   d="       M0.9,20.2c0-10.7,8-19.3,17.8-19.3c9.8,0,18.4,8.1,18.4,18.7c0,10.7-8.6,19.9-18.4,19.9C8.9,39.5,0.9,30.9,0.9,20.2z" /><path
   id="path597_3_"
   i:isolated="yes"
   i:knockout="Off"
   opacity="0.3"
   fill="none"
   stroke="#474000"
   stroke-width="0.4704"
   enable-background="new    "
   d="       M0.9,20.2c0-10.7,8-19.3,17.8-19.3c9.8,0,18.4,8.1,18.4,18.7c0,10.7-8.6,19.9-18.4,19.9C8.9,39.5,0.9,30.9,0.9,20.2z" /><radialGradient
   id="path700_1_"
   cx="-508.7231"
   cy="428.2617"
   r="6.354500e-002"
   fx="-508.7231"
   fy="428.2617"
   gradientTransform="matrix(310.7065 0 0 -144.1183 158083.8125 61762.9023)"
   gradientUnits="userSpaceOnUse"><stop
   offset="0"
   style="stop-color:#261700"
   id="stop615" /><stop
   offset="1"
   style="stop-color:#D2D2D2"
   id="stop616" /><a:midPointStop
   offset="0"
   style="stop-color:#261700"
   id="midPointStop617" /><a:midPointStop
   offset="0.5"
   style="stop-color:#261700"
   id="midPointStop618" /><a:midPointStop
   offset="1"
   style="stop-color:#D2D2D2"
   id="midPointStop619" /></radialGradient><path
   id="path700"
   i:isolated="yes"
   i:knockout="Off"
   opacity="0.3"
   fill="url(#path700_1_)"
   enable-background="new    "
   d="       M33.2,31.8c6.5,4.5,6,10.6-1.9,14.3c-7.9,3.7-19.5,3.1-25.9-1.5c-5.5-3.8-5.7-9.1-0.5-13.1c3.4,4.7,6.2,6.3,14,7.3       C25.4,38.7,29.6,35.8,33.2,31.8z" /><radialGradient
   id="path577_1_"
   cx="-467.6484"
   cy="384.3809"
   r="41.7445"
   fx="-467.6484"
   fy="384.3809"
   gradientTransform="matrix(298.9032 0 0 -316.3969 152079.5938 135168.0156)"
   gradientUnits="userSpaceOnUse"><stop
   offset="0"
   style="stop-color:#FF6F00"
   id="stop622" /><stop
   offset="1"
   style="stop-color:#FFFF00"
   id="stop623" /><a:midPointStop
   offset="0"
   style="stop-color:#FF6F00"
   id="midPointStop624" /><a:midPointStop
   offset="0.5"
   style="stop-color:#FF6F00"
   id="midPointStop625" /><a:midPointStop
   offset="1"
   style="stop-color:#FFFF00"
   id="midPointStop626" /></radialGradient><circle
   id="path577"
   fill="url(#path577_1_)"
   cx="19.2"
   cy="20.4"
   r="17.8" /><linearGradient
   id="path597_1_"
   gradientUnits="userSpaceOnUse"
   x1="-508.7168"
   y1="427.2041"
   x2="-508.7182"
   y2="427.0854"
   gradientTransform="matrix(303.6933 0 0 -316.3967 154513.25 135168.25)"><stop
   offset="0"
   style="stop-color:#FF6500"
   id="stop629" /><stop
   offset="1"
   style="stop-color:#FFFF00"
   id="stop630" /><a:midPointStop
   offset="0"
   style="stop-color:#FF6500"
   id="midPointStop631" /><a:midPointStop
   offset="0.5"
   style="stop-color:#FF6500"
   id="midPointStop632" /><a:midPointStop
   offset="1"
   style="stop-color:#FFFF00"
   id="midPointStop633" /></linearGradient><path
   id="path597"
   i:isolated="yes"
   i:knockout="Off"
   opacity="0.75"
   fill="url(#path597_1_)"
   enable-background="new    "
   d="       M0.9,20.2c0-10.7,8-19.3,17.8-19.3c9.9,0,18.4,8,18.4,18.7c0,10.7-8.6,19.9-18.4,19.9C8.9,39.5,0.9,30.9,0.9,20.2z" /><radialGradient
   id="path597_6_"
   cx="-321.1396"
   cy="0.9648"
   r="20.2352"
   fx="-321.1396"
   fy="0.9648"
   gradientTransform="matrix(1 0 0 1 339.8516 -5.859375e-002)"
   gradientUnits="userSpaceOnUse"><stop
   offset="0"
   style="stop-color:#FFFFFF"
   id="stop636" /><stop
   offset="0.1046"
   style="stop-color:#FFFEFA"
   id="stop637" /><stop
   offset="0.2282"
   style="stop-color:#FFFBEC"
   id="stop638" /><stop
   offset="0.3616"
   style="stop-color:#FFF7D4"
   id="stop639" /><stop
   offset="0.5018"
   style="stop-color:#FFF1B2"
   id="stop640" /><stop
   offset="0.6474"
   style="stop-color:#FFE988"
   id="stop641" /><stop
   offset="0.7976"
   style="stop-color:#FFDF53"
   id="stop642" /><stop
   offset="0.9487"
   style="stop-color:#FFD316"
   id="stop643" /><stop
   offset="1"
   style="stop-color:#FFCF00"
   id="stop644" /><a:midPointStop
   offset="0"
   style="stop-color:#FFFFFF"
   id="midPointStop645" /><a:midPointStop
   offset="0.5"
   style="stop-color:#FFFFFF"
   id="midPointStop646" /><a:midPointStop
   offset="0.1046"
   style="stop-color:#FFFEFA"
   id="midPointStop647" /><a:midPointStop
   offset="0.5"
   style="stop-color:#FFFEFA"
   id="midPointStop648" /><a:midPointStop
   offset="0.2282"
   style="stop-color:#FFFBEC"
   id="midPointStop649" /><a:midPointStop
   offset="0.5"
   style="stop-color:#FFFBEC"
   id="midPointStop650" /><a:midPointStop
   offset="0.3616"
   style="stop-color:#FFF7D4"
   id="midPointStop651" /><a:midPointStop
   offset="0.5"
   style="stop-color:#FFF7D4"
   id="midPointStop652" /><a:midPointStop
   offset="0.5018"
   style="stop-color:#FFF1B2"
   id="midPointStop653" /><a:midPointStop
   offset="0.5"
   style="stop-color:#FFF1B2"
   id="midPointStop654" /><a:midPointStop
   offset="0.6474"
   style="stop-color:#FFE988"
   id="midPointStop655" /><a:midPointStop
   offset="0.5"
   style="stop-color:#FFE988"
   id="midPointStop656" /><a:midPointStop
   offset="0.7976"
   style="stop-color:#FFDF53"
   id="midPointStop657" /><a:midPointStop
   offset="0.5"
   style="stop-color:#FFDF53"
   id="midPointStop658" /><a:midPointStop
   offset="0.9487"
   style="stop-color:#FFD316"
   id="midPointStop659" /><a:midPointStop
   offset="0.5"
   style="stop-color:#FFD316"
   id="midPointStop660" /><a:midPointStop
   offset="1"
   style="stop-color:#FFCF00"
   id="midPointStop661" /></radialGradient><path
   id="path597_2_"
   i:isolated="yes"
   i:knockout="Off"
   opacity="0.75"
   fill="url(#path597_6_)"
   enable-background="new    "
   d="       M7.5,7.8c0-3.8,5-6.9,11.1-6.9C24.7,0.9,30,3.8,30,7.6C30,11.4,7.5,11.6,7.5,7.8z" /><g
   id="g663"><radialGradient
   id="path630_1_"
   cx="-165.1914"
   cy="426.8174"
   r="0.1204"
   fx="-165.1914"
   fy="426.8174"
   gradientTransform="matrix(-47.8028 0 0 -62.518 -7868.8853 26702.375)"
   gradientUnits="userSpaceOnUse"><stop
   offset="0"
   style="stop-color:#DEE2E7"
   id="stop665" /><stop
   offset="1"
   style="stop-color:#FFFFFF"
   id="stop666" /><a:midPointStop
   offset="0"
   style="stop-color:#DEE2E7"
   id="midPointStop667" /><a:midPointStop
   offset="0.5"
   style="stop-color:#DEE2E7"
   id="midPointStop668" /><a:midPointStop
   offset="1"
   style="stop-color:#FFFFFF"
   id="midPointStop669" /></radialGradient><path
   id="path630"
   type="arc"
   cx="50.24698"
   cy="478.4100"
   rx="24.52531"
   ry="34.99345"
   fill="url(#path630_1_)"
   stroke="#7C5202"
   stroke-width="0.7425"
   d="        M24.7,17.4c0-3.1,1.9-5.6,4.3-5.6c2.4,0,4.3,2.5,4.3,5.6c0,0,0,0,0,0c0,3.1-1.9,5.6-4.3,5.6C26.6,23,24.7,20.5,24.7,17.4        C24.7,17.4,24.7,17.4,24.7,17.4z" /><g
   id="path631"
   type="arc"
   cx="50.09747"
   cy="476.7646"
   rx="28.86212"
   ry="41.42389"><path
   i:knockout="Off"
   opacity="3.790000e-002"
   fill="none"
   stroke="#000000"
   stroke-width="0.675"
   d="M24,17.4         c0-3.4,2.2-6.2,5-6.2c2.8,0,5,2.8,5,6.2v0c0,3.4-2.2,6.2-5,6.2C26.3,23.6,24,20.8,24,17.4C24,17.4,24,17.4,24,17.4z"
   id="path672" /></g><g
   id="path632"
   type="arc"
   cx="50.09747"
   cy="476.7646"
   rx="28.86212"
   ry="41.42389"><path
   i:knockout="Off"
   opacity="1.420000e-002"
   fill="none"
   stroke="#000000"
   stroke-width="2.3472"
   d="M24,17.4         c0-3.4,2.2-6.2,5-6.2c2.8,0,5,2.8,5,6.2c0,0,0,0,0,0c0,3.4-2.2,6.2-5,6.2C26.3,23.6,24,20.8,24,17.4L24,17.4z"
   id="path674" /></g><g
   id="path633_1_"
   type="arc"
   cx="50.09747"
   cy="476.7646"
   rx="28.86212"
   ry="41.42389"><path
   i:knockout="Off"
   opacity="1.420000e-002"
   fill="none"
   stroke="#000000"
   stroke-width="1.4832"
   d="M24,17.4         c0-3.4,2.2-6.2,5-6.2c2.8,0,5,2.8,5,6.2c0,0,0,0,0,0c0,3.4-2.2,6.2-5,6.2C26.3,23.6,24,20.8,24,17.4L24,17.4z"
   id="path676" /></g><g
   id="path634"
   type="arc"
   cx="50.09747"
   cy="476.7646"
   rx="28.86212"
   ry="41.42389"><path
   i:knockout="Off"
   opacity="1.420000e-002"
   fill="none"
   stroke="#000000"
   stroke-width="0.5109"
   d="M24,17.4         c0-3.4,2.2-6.2,5-6.2c2.8,0,5,2.8,5,6.2c0,0,0,0,0,0c0,3.4-2.2,6.2-5,6.2C26.3,23.6,24,20.8,24,17.4L24,17.4z"
   id="path678" /></g><g
   id="path635"
   type="arc"
   cx="50.09747"
   cy="476.7646"
   rx="28.86212"
   ry="41.42389"><path
   i:knockout="Off"
   opacity="0.1517"
   fill="none"
   stroke="#000000"
   stroke-width="0.2568"
   d="M24.2,17.4         c0-3.4,2.1-6.1,4.8-6.1c2.7,0,4.8,2.7,4.8,6.1c0,0,0,0,0,0c0,3.4-2.1,6.1-4.8,6.1C26.4,23.5,24.2,20.8,24.2,17.4         C24.2,17.4,24.2,17.4,24.2,17.4z"
   id="path680" /></g><radialGradient
   id="path637_1_"
   cx="-161.0161"
   cy="425.8652"
   r="0.1116"
   fx="-161.0161"
   fy="425.8652"
   gradientTransform="matrix(-21.5661 0 0 -19.9548 -3441.5073 8511.3926)"
   gradientUnits="userSpaceOnUse"><stop
   offset="0"
   style="stop-color:#000082"
   id="stop682" /><stop
   offset="1"
   style="stop-color:#000000"
   id="stop683" /><a:midPointStop
   offset="0"
   style="stop-color:#000082"
   id="midPointStop684" /><a:midPointStop
   offset="0.5"
   style="stop-color:#000082"
   id="midPointStop685" /><a:midPointStop
   offset="1"
   style="stop-color:#000000"
   id="midPointStop686" /></radialGradient><path
   id="path637"
   type="arc"
   cx="61.64901"
   cy="495.8291"
   rx="10.46870"
   ry="10.89169"
   fill="url(#path637_1_)"
   d="        M28.3,14.3c0-1,0.9-1.8,1.9-1.8c1.1,0,1.9,0.8,1.9,1.8c0,0,0,0,0,0c0,1-0.9,1.8-1.9,1.8C29.2,16.1,28.3,15.3,28.3,14.3        C28.3,14.3,28.3,14.3,28.3,14.3z" /><radialGradient
   id="path650_1_"
   cx="-169.3994"
   cy="426.8174"
   r="0.1202"
   fx="-169.3994"
   fy="426.8174"
   gradientTransform="matrix(47.8028 0 0 -62.518 8108.5718 26702.375)"
   gradientUnits="userSpaceOnUse"><stop
   offset="0"
   style="stop-color:#DEE2E7"
   id="stop689" /><stop
   offset="1"
   style="stop-color:#FFFFFF"
   id="stop690" /><a:midPointStop
   offset="0"
   style="stop-color:#DEE2E7"
   id="midPointStop691" /><a:midPointStop
   offset="0.5"
   style="stop-color:#DEE2E7"
   id="midPointStop692" /><a:midPointStop
   offset="1"
   style="stop-color:#FFFFFF"
   id="midPointStop693" /></radialGradient><path
   id="path650"
   type="arc"
   cx="50.24698"
   cy="478.4100"
   rx="24.52531"
   ry="34.99345"
   fill="url(#path650_1_)"
   stroke="#7C3902"
   stroke-width="0.7425"
   d="        M13.8,17.4c0-3.1-1.9-5.6-4.3-5.6c-2.4,0-4.3,2.5-4.3,5.6c0,0,0,0,0,0c0,3.1,1.9,5.6,4.3,5.6C11.9,23,13.8,20.5,13.8,17.4        C13.8,17.4,13.8,17.4,13.8,17.4z" /><g
   id="path651"
   type="arc"
   cx="50.09747"
   cy="476.7646"
   rx="28.86212"
   ry="41.42389"><path
   i:knockout="Off"
   opacity="3.790000e-002"
   fill="none"
   stroke="#000000"
   stroke-width="0.675"
   d="M14.5,17.4         c0-3.4-2.2-6.2-5-6.2c-2.8,0-5,2.8-5,6.2v0c0,3.4,2.2,6.2,5,6.2C12.3,23.6,14.5,20.8,14.5,17.4         C14.5,17.4,14.5,17.4,14.5,17.4z"
   id="path696" /></g><g
   id="path652"
   type="arc"
   cx="50.09747"
   cy="476.7646"
   rx="28.86212"
   ry="41.42389"><path
   i:knockout="Off"
   opacity="1.420000e-002"
   fill="none"
   stroke="#000000"
   stroke-width="2.3472"
   d="M14.5,17.4         c0-3.4-2.2-6.2-5-6.2c-2.8,0-5,2.8-5,6.2c0,0,0,0,0,0c0,3.4,2.2,6.2,5,6.2C12.3,23.6,14.5,20.8,14.5,17.4L14.5,17.4z"
   id="path698" /></g><g
   id="path653"
   type="arc"
   cx="50.09747"
   cy="476.7646"
   rx="28.86212"
   ry="41.42389"><path
   i:knockout="Off"
   opacity="1.420000e-002"
   fill="none"
   stroke="#000000"
   stroke-width="1.4832"
   d="M14.5,17.4         c0-3.4-2.2-6.2-5-6.2c-2.8,0-5,2.8-5,6.2c0,0,0,0,0,0c0,3.4,2.2,6.2,5,6.2C12.3,23.6,14.5,20.8,14.5,17.4L14.5,17.4z"
   id="path701" /></g><g
   id="path654"
   type="arc"
   cx="50.09747"
   cy="476.7646"
   rx="28.86212"
   ry="41.42389"><path
   i:knockout="Off"
   opacity="1.420000e-002"
   fill="none"
   stroke="#000000"
   stroke-width="0.5109"
   d="M14.5,17.4         c0-3.4-2.2-6.2-5-6.2c-2.8,0-5,2.8-5,6.2c0,0,0,0,0,0c0,3.4,2.2,6.2,5,6.2C12.3,23.6,14.5,20.8,14.5,17.4L14.5,17.4z"
   id="path703" /></g><g
   id="path655"
   type="arc"
   cx="50.09747"
   cy="476.7646"
   rx="28.86212"
   ry="41.42389"><path
   i:knockout="Off"
   opacity="0.1517"
   fill="none"
   stroke="#000000"
   stroke-width="0.2568"
   d="M14.3,17.4         c0-3.4-2.1-6.1-4.8-6.1c-2.7,0-4.8,2.7-4.8,6.1c0,0,0,0,0,0c0,3.4,2.1,6.1,4.8,6.1C12.1,23.5,14.3,20.8,14.3,17.4         C14.3,17.4,14.3,17.4,14.3,17.4z"
   id="path705" /></g><radialGradient
   id="path656_1_"
   cx="-170.7954"
   cy="425.8652"
   r="0.1113"
   fx="-170.7954"
   fy="425.8652"
   gradientTransform="matrix(21.5661 0 0 -19.9548 3693.0845 8511.3926)"
   gradientUnits="userSpaceOnUse"><stop
   offset="0"
   style="stop-color:#000082"
   id="stop707" /><stop
   offset="1"
   style="stop-color:#000000"
   id="stop708" /><a:midPointStop
   offset="0"
   style="stop-color:#000082"
   id="midPointStop709" /><a:midPointStop
   offset="0.5"
   style="stop-color:#000082"
   id="midPointStop710" /><a:midPointStop
   offset="1"
   style="stop-color:#000000"
   id="midPointStop711" /></radialGradient><path
   id="path656"
   type="arc"
   cx="61.64901"
   cy="495.8291"
   rx="10.46870"
   ry="10.89169"
   fill="url(#path656_1_)"
   d="        M12.3,14.3c0-1-0.9-1.8-1.9-1.8c-1.1,0-1.9,0.8-1.9,1.8c0,0,0,0,0,0c0,1,0.9,1.8,1.9,1.8C11.5,16.1,12.3,15.3,12.3,14.3        C12.3,14.3,12.3,14.3,12.3,14.3z" /><g
   id="path746"
   nodetypes="cc"><path
   i:knockout="Off"
   opacity="4.270000e-002"
   fill="none"
   stroke="#001B00"
   stroke-width="3.6"
   stroke-linecap="round"
   stroke-linejoin="round"
   d="         M11.4,33.5c-0.7-2.2,16-1.8,15.7,0.1"
   id="path714" /></g><g
   id="path747"
   nodetypes="cc"><path
   i:knockout="Off"
   opacity="4.270000e-002"
   fill="none"
   stroke="#001B00"
   stroke-width="3.6"
   stroke-linecap="round"
   stroke-linejoin="round"
   d="         M11.4,33.5c-0.7-2.2,16-1.8,15.7,0.1"
   id="path716" /></g><path
   id="path924"
   nodetypes="cc"
   fill="none"
   stroke="#751B00"
   stroke-width="1.575"
   stroke-linecap="round"
   stroke-linejoin="round"
   d="        M11.4,33.5c-0.7-2.2,16-1.8,15.7,0.1" /><g
   id="path748"
   nodetypes="cc"><path
   i:knockout="Off"
   opacity="4.270000e-002"
   fill="none"
   stroke="#001B00"
   stroke-width="2.925"
   stroke-linecap="round"
   stroke-linejoin="round"
   d="         M11.4,33.5c-0.7-2.2,16-1.8,15.7,0.1"
   id="path719" /></g><g
   id="path750"
   nodetypes="cc"><path
   i:knockout="Off"
   opacity="4.270000e-002"
   fill="none"
   stroke="#001B00"
   stroke-width="2.1375"
   stroke-linecap="round"
   stroke-linejoin="round"
   d="         M11.4,33.5c-0.7-2.2,16-1.8,15.7,0.1"
   id="path721" /></g><g
   id="path751"
   nodetypes="cc"><path
   i:knockout="Off"
   opacity="4.270000e-002"
   fill="none"
   stroke="#001B00"
   stroke-width="2.1375"
   stroke-linecap="round"
   stroke-linejoin="round"
   d="         M11.4,33.5c-0.7-2.2,16-1.8,15.7,0.1"
   id="path723" /></g><g
   id="path749"
   nodetypes="cc"><path
   i:knockout="Off"
   opacity="4.270000e-002"
   fill="none"
   stroke="#001B00"
   stroke-width="2.925"
   stroke-linecap="round"
   stroke-linejoin="round"
   d="         M11.4,33.5c-0.7-2.2,16-1.8,15.7,0.1"
   id="path725" /></g><g
   id="path925"
   nodetypes="cc"><path
   i:knockout="Off"
   opacity="3.790000e-002"
   fill="none"
   stroke="#001B00"
   stroke-width="1.575"
   stroke-linecap="round"
   stroke-linejoin="round"
   d="         M11.4,33.5c-0.7-2.2,16-1.8,15.7,0.1"
   id="path727" /></g><g
   id="path752"
   nodetypes="cc"><path
   i:knockout="Off"
   opacity="4.270000e-002"
   fill="none"
   stroke="#001B00"
   stroke-width="1.8675"
   stroke-linecap="round"
   stroke-linejoin="round"
   d="         M11.4,33.5c-0.7-2.2,16-1.8,15.7,0.1"
   id="path729" /></g><g
   id="path753"
   nodetypes="cc"><path
   i:knockout="Off"
   opacity="4.270000e-002"
   fill="none"
   stroke="#001B00"
   stroke-width="1.8675"
   stroke-linecap="round"
   stroke-linejoin="round"
   d="         M11.4,33.5c-0.7-2.2,16-1.8,15.7,0.1"
   id="path731" /></g></g></g></g></g></svg>
