<?xml version="1.0" encoding="UTF-8" standalone="no"?>
<!DOCTYPE svg PUBLIC "-//W3C//DTD SVG 20010904//EN"
"http://www.w3.org/TR/2001/REC-SVG-20010904/DTD/svg10.dtd">
<!-- Created with Sodipodi ("http://www.sodipodi.com/") -->
<svg
   xmlns:x="http://ns.adobe.com/Extensibility/1.0/"
   xmlns:i="http://ns.adobe.com/AdobeIllustrator/10.0/"
   xmlns:graph="http://ns.adobe.com/Graphs/1.0/"
   xmlns="http://www.w3.org/2000/svg"
   xmlns:xlink="http://www.w3.org/1999/xlink"
   xmlns:a="http://ns.adobe.com/AdobeSVGViewerExtensions/3.0/"
   xml:space="preserve"
   i:viewOrigin="178.0464 458"
   i:rulerOrigin="0 0"
   i:pageBounds="0 792 612 0"
   width="51.6"
   height="48"
   viewBox="0 0 51.6 48"
   overflow="visible"
   enable-background="new 0 0 51.6 48"
   xmlns:sodipodi="http://sodipodi.sourceforge.net/DTD/sodipodi-0.dtd"
   id="svg602"
   sodipodi:version="0.34"
   sodipodi:docname="C:\msys\home\su_blanc\mldonkey-2.5.12\src\gtk2\rsvg\emoticons\emoticon_plate.svg"><defs
   id="defs734" /><sodipodi:namedview
   id="namedview733" /><g
   id="Layer_1"
   i:layer="yes"
   i:dimmedPercent="50"
   i:rgbTrio="#4F008000FFFF"><g
   id="g606"><g
   id="g607"><radialGradient
   id="path676_1_"
   cx="-177.6909"
   cy="457.7109"
   r="1.323195e-002"
   fx="-177.6909"
   fy="457.7109"
   gradientTransform="matrix(268.2633 0 0 -162.467 47685.1758 74386.6719)"
   gradientUnits="userSpaceOnUse"><stop
   offset="0"
   style="stop-color:#FFFFFF"
   id="stop609" /><stop
   offset="1"
   style="stop-color:#F5FFFF"
   id="stop610" /><a:midPointStop
   offset="0"
   style="stop-color:#FFFFFF"
   id="midPointStop611" /><a:midPointStop
   offset="0.5"
   style="stop-color:#FFFFFF"
   id="midPointStop612" /><a:midPointStop
   offset="1"
   style="stop-color:#F5FFFF"
   id="midPointStop613" /></radialGradient><path
   id="path676"
   nodetypes="cccccccsc"
   fill="url(#path676_1_)"
   d="M32.9,14.5c-1.1,1.6-2.8,2.9-6.2,4.1       C9.5,18.7,2.7,25.9,9.9,29c-6-5.6,7.3-7.2,16.2-7.8c-5.7,1.9-5,6.5-10.5,9.6c0.3,0.1,0.7,0.2,1,0.3c0,0.7-0.1,1.2-1.1,1.8       C9.8,31.9-2.7,26.6,3.8,20.2C9.2,14.9,23.4,13.3,32.9,14.5z" /><g
   id="path677"
   type="arc"
   cx="407.6579"
   cy="618.0854"
   rx="207.8666"
   ry="106.4756"
   start="0"
   end="6.281494"><path
   i:knockout="Off"
   opacity="2.840000e-002"
   fill="none"
   stroke="#000000"
   stroke-width="3.7835"
   d="M49.6,24        c0,5.5-10.6,9.9-23.8,9.9c-13.1,0-23.8-4.4-23.8-9.9c0-5.5,10.6-9.9,23.8-9.9C38.9,14.1,49.5,18.5,49.6,24H25.8H49.6z"
   id="path616" /></g><g
   id="path680"
   type="arc"
   cx="407.6579"
   cy="618.0854"
   rx="207.8666"
   ry="106.4756"
   start="0"
   end="6.281494"><path
   i:knockout="Off"
   opacity="2.840000e-002"
   fill="none"
   stroke="#000000"
   stroke-width="1.4805"
   d="M49.6,24        c0,5.5-10.6,9.9-23.8,9.9c-13.1,0-23.8-4.4-23.8-9.9c0-5.5,10.6-9.9,23.8-9.9C38.9,14.1,49.5,18.5,49.6,24H25.8H49.6z"
   id="path618" /></g><g
   id="path679"
   type="arc"
   cx="407.6579"
   cy="618.0854"
   rx="207.8666"
   ry="106.4756"
   start="0"
   end="6.281494"><path
   i:knockout="Off"
   opacity="2.840000e-002"
   fill="none"
   stroke="#000000"
   stroke-width="2.303"
   d="M49.6,24        c0,5.5-10.6,9.9-23.8,9.9c-13.1,0-23.8-4.4-23.8-9.9c0-5.5,10.6-9.9,23.8-9.9C38.9,14.1,49.5,18.5,49.6,24H25.8H49.6z"
   id="path620" /></g><g
   id="path678"
   type="arc"
   cx="407.6579"
   cy="618.0854"
   rx="207.8666"
   ry="106.4756"
   start="0"
   end="6.281494"><path
   i:knockout="Off"
   opacity="2.840000e-002"
   fill="none"
   stroke="#000000"
   stroke-width="2.7965"
   d="M49.6,24        c0,5.5-10.6,9.9-23.8,9.9c-13.1,0-23.8-4.4-23.8-9.9c0-5.5,10.6-9.9,23.8-9.9C38.9,14.1,49.5,18.5,49.6,24H25.8H49.6z"
   id="path622" /></g><g
   id="path675"
   type="arc"
   cx="407.6579"
   cy="618.0854"
   rx="207.8666"
   ry="106.4756"
   start="0"
   end="6.281494"><path
   i:knockout="Off"
   opacity="2.840000e-002"
   fill="none"
   stroke="#000000"
   stroke-width="4.1125"
   d="M49.6,24        c0,5.5-10.6,9.9-23.8,9.9c-13.1,0-23.8-4.4-23.8-9.9c0-5.5,10.6-9.9,23.8-9.9C38.9,14.1,49.5,18.5,49.6,24H25.8H49.6z"
   id="path624" /></g><g
   id="path681"
   type="arc"
   cx="407.6579"
   cy="618.0854"
   rx="207.8666"
   ry="106.4756"
   start="0"
   end="6.281494"><path
   i:knockout="Off"
   opacity="2.840000e-002"
   fill="none"
   stroke="#000000"
   stroke-width="0.4384"
   d="M49.6,24        c0,5.5-10.6,9.9-23.8,9.9c-13.1,0-23.8-4.4-23.8-9.9c0-5.5,10.6-9.9,23.8-9.9C38.9,14.1,49.5,18.5,49.6,24H25.8H49.6z"
   id="path626" /></g><path
   id="path654"
   type="arc"
   cx="407.6579"
   cy="618.0854"
   rx="207.8666"
   ry="106.4756"
   start="0"
   end="6.281494"
   fill="#808080"
   d="       M49.6,24c0,5.5-10.6,9.9-23.8,9.9c-13.1,0-23.8-4.4-23.8-9.9c0-5.5,10.6-9.9,23.8-9.9C38.9,14.1,49.5,18.5,49.6,24H25.8H49.6z" /><radialGradient
   id="path748_1_"
   cx="-177.7729"
   cy="457.8887"
   r="0.1949"
   fx="-177.7729"
   fy="457.8887"
   gradientTransform="matrix(379.3273 0 0 -125.4059 67478.8203 57447.3828)"
   gradientUnits="userSpaceOnUse"><stop
   offset="0"
   style="stop-color:#9C9C9C"
   id="stop629" /><stop
   offset="1"
   style="stop-color:#B3B5B3"
   id="stop630" /><a:midPointStop
   offset="0"
   style="stop-color:#9C9C9C"
   id="midPointStop631" /><a:midPointStop
   offset="0.5"
   style="stop-color:#9C9C9C"
   id="midPointStop632" /><a:midPointStop
   offset="1"
   style="stop-color:#B3B5B3"
   id="midPointStop633" /></radialGradient><path
   id="path748"
   type="arc"
   cx="403.1716"
   cy="597.7473"
   rx="204.5767"
   ry="76.56671"
   fill="url(#path748_1_)"
   d="       M47.9,25.3c0-4-9.8-7.2-21.9-7.2S4.2,21.4,4.2,25.3S14,32.6,26,32.6S47.9,29.3,47.9,25.3L47.9,25.3z" /><radialGradient
   id="path632_1_"
   cx="-177.8447"
   cy="458.1084"
   r="0.1032"
   fx="-177.8447"
   fy="458.1084"
   gradientTransform="matrix(302.1267 0 0 -94.5324 53770.625 43332.4805)"
   gradientUnits="userSpaceOnUse"><stop
   offset="0"
   style="stop-color:#E6E2E7"
   id="stop636" /><stop
   offset="1"
   style="stop-color:#A8A6A8"
   id="stop637" /><a:midPointStop
   offset="0"
   style="stop-color:#E6E2E7"
   id="midPointStop638" /><a:midPointStop
   offset="0.5"
   style="stop-color:#E6E2E7"
   id="midPointStop639" /><a:midPointStop
   offset="1"
   style="stop-color:#A8A6A8"
   id="midPointStop640" /></radialGradient><path
   id="path632"
   nodetypes="cssscc"
   fill="url(#path632_1_)"
   d="M10.5,29.4c-0.7-0.4-2.1-1.9-2-2.6       C8.3,22.6,20.3,21,26.3,21c5.7,0,17,1.3,17,5.7c0.1,0.5-0.7,1.7-1.4,2.2C33.9,32.2,20.6,33.3,10.5,29.4z" /><linearGradient
   id="path663_1_"
   gradientUnits="userSpaceOnUse"
   x1="-177.3213"
   y1="457.7285"
   x2="-177.0705"
   y2="457.7357"
   gradientTransform="matrix(110.7692 0 0 -134.417 19643.7402 61549.6445)"><stop
   offset="0"
   style="stop-color:#FFFFFF"
   id="stop643" /><stop
   offset="1"
   style="stop-color:#F5FFFF"
   id="stop644" /><a:midPointStop
   offset="0"
   style="stop-color:#FFFFFF"
   id="midPointStop645" /><a:midPointStop
   offset="0.5"
   style="stop-color:#FFFFFF"
   id="midPointStop646" /><a:midPointStop
   offset="1"
   style="stop-color:#F5FFFF"
   id="midPointStop647" /></linearGradient><path
   id="path663"
   nodetypes="ccc"
   fill="url(#path663_1_)"
   d="M14.7,15.3c-14.9,3.1-16.6,11.8-6,15.5       C-2.1,25.4,2.4,18.3,14.7,15.3z" /><g
   id="path665"
   nodetypes="cssscc"><path
   i:knockout="Off"
   opacity="0.1232"
   fill="none"
   stroke="#000000"
   stroke-width="0.1046"
   d="M10.5,29.4        c-0.7-0.4-2.1-1.9-2-2.6C8.3,22.6,20.3,21,26.3,21c5.7,0,17,1.3,17,5.7c0.1,0.5-0.7,1.7-1.4,2.2        C33.9,32.2,20.6,33.3,10.5,29.4z"
   id="path650" /></g><g
   id="path674"
   nodetypes="cssscc"><path
   i:knockout="Off"
   opacity="0.1564"
   fill="none"
   stroke="#000000"
   stroke-width="0.2876"
   stroke-linejoin="round"
   d="        M10.5,29.4c-0.7-0.4-2.1-1.9-2-2.6C8.3,22.6,20.3,21,26.3,21c5.7,0,17,1.3,17,5.7c0.1,0.5-0.7,1.7-1.4,2.2        C33.9,32.2,20.6,33.3,10.5,29.4z"
   id="path652" /></g><radialGradient
   id="path755_1_"
   cx="-177.7983"
   cy="457.7305"
   r="5.761719e-002"
   fx="-177.7983"
   fy="457.7305"
   gradientTransform="matrix(408.1856 0 0 -169.923 72600.1953 77803.1484)"
   gradientUnits="userSpaceOnUse"><stop
   offset="0"
   style="stop-color:#E6E2E7"
   id="stop654" /><stop
   offset="1"
   style="stop-color:#A8A6A8"
   id="stop655" /><a:midPointStop
   offset="0"
   style="stop-color:#E6E2E7"
   id="midPointStop656" /><a:midPointStop
   offset="0.5"
   style="stop-color:#E6E2E7"
   id="midPointStop657" /><a:midPointStop
   offset="1"
   style="stop-color:#A8A6A8"
   id="midPointStop658" /></radialGradient><path
   id="path755"
   nodetypes="csssccssscc"
   fill="url(#path755_1_)"
   d="M26.3,33.9c-10.9,0.2-24-3.8-24-10.3       c0-5.8,13.3-9.4,24-9.3c9.3,0.1,22.9,3.2,23.1,9.3C49.5,31,33.6,33.8,26.3,33.9c0-0.4,0-1.5,0-2.1c6-0.1,19.2-2.1,19.4-6.4       c0.1-4.5-12.9-6.8-19.4-6.8c-6.7,0-20.3,1.9-20.2,6.7c0,4.7,13.9,6.8,20.2,6.5C26.3,32.1,26.3,33.4,26.3,33.9z" /><linearGradient
   id="path655_1_"
   gradientUnits="userSpaceOnUse"
   x1="-177.8193"
   y1="458.1934"
   x2="-177.5685"
   y2="458.2006"
   gradientTransform="matrix(90.1952 0 0 -84.0493 16048.2695 38537.6641)"><stop
   offset="0"
   style="stop-color:#FFFFFF"
   id="stop661" /><stop
   offset="1"
   style="stop-color:#F5FFFF"
   id="stop662" /><a:midPointStop
   offset="0"
   style="stop-color:#FFFFFF"
   id="midPointStop663" /><a:midPointStop
   offset="0.5"
   style="stop-color:#FFFFFF"
   id="midPointStop664" /><a:midPointStop
   offset="1"
   style="stop-color:#F5FFFF"
   id="midPointStop665" /></linearGradient><path
   id="path655"
   nodetypes="cccc"
   opacity="0.4"
   fill="url(#path655_1_)"
   d="M12.3,30c-6.2-3.2-0.1-6.6,7.9-8.2       c-6.8,2-10.5,5.6-0.6,9.7C17.1,31.2,14.7,30.4,12.3,30z" /><linearGradient
   id="path661_1_"
   gradientUnits="userSpaceOnUse"
   x1="-177.3105"
   y1="458.0488"
   x2="-177.0598"
   y2="458.056"
   gradientTransform="matrix(71.1876 0 0 -79.3967 12627.9336 36392.4922)"><stop
   offset="0"
   style="stop-color:#FFFFFF"
   id="stop668" /><stop
   offset="1"
   style="stop-color:#F5FFFF"
   id="stop669" /><a:midPointStop
   offset="0"
   style="stop-color:#FFFFFF"
   id="midPointStop670" /><a:midPointStop
   offset="0.5"
   style="stop-color:#FFFFFF"
   id="midPointStop671" /><a:midPointStop
   offset="1"
   style="stop-color:#F5FFFF"
   id="midPointStop672" /></linearGradient><path
   id="path661"
   nodetypes="ccc"
   fill="url(#path661_1_)"
   d="M13.8,20.1C5,22.4,2.7,26.2,9.9,29.3       C3.3,26.2,5.8,22.3,13.8,20.1z" /><linearGradient
   id="path664_1_"
   gradientUnits="userSpaceOnUse"
   x1="-177.3804"
   y1="457.752"
   x2="-177.1296"
   y2="457.7592"
   gradientTransform="matrix(106.7606 0 0 -137.2873 18940.4141 62867.3477)"><stop
   offset="0"
   style="stop-color:#FFFFFF"
   id="stop675" /><stop
   offset="1"
   style="stop-color:#F5FFFF"
   id="stop676" /><a:midPointStop
   offset="0"
   style="stop-color:#FFFFFF"
   id="midPointStop677" /><a:midPointStop
   offset="0.5"
   style="stop-color:#FFFFFF"
   id="midPointStop678" /><a:midPointStop
   offset="1"
   style="stop-color:#F5FFFF"
   id="midPointStop679" /></linearGradient><path
   id="path664"
   nodetypes="cccc"
   opacity="0.5"
   fill="url(#path664_1_)"
   d="M5.7,29.1c-6.3-5-0.3-11.5,9.7-13.4       C5.2,19.4,3.2,26.5,10.7,31.4C9.3,31,6.9,29.9,5.7,29.1z" /><linearGradient
   id="path662_1_"
   gradientUnits="userSpaceOnUse"
   x1="-180.7705"
   y1="458.0566"
   x2="-180.52"
   y2="458.0638"
   gradientTransform="matrix(71.0343 0 0 -78.3518 12878.5156 35914.2891)"><stop
   offset="0"
   style="stop-color:#FFFFFF"
   id="stop682" /><stop
   offset="1"
   style="stop-color:#F5FFFF"
   id="stop683" /><a:midPointStop
   offset="0"
   style="stop-color:#FFFFFF"
   id="midPointStop684" /><a:midPointStop
   offset="0.5"
   style="stop-color:#FFFFFF"
   id="midPointStop685" /><a:midPointStop
   offset="1"
   style="stop-color:#F5FFFF"
   id="midPointStop686" /></linearGradient><path
   id="path662"
   nodetypes="ccc"
   fill="url(#path662_1_)"
   d="M37.6,20.2c9.1,2.2,11.1,6.5,3.6,9       C48,26.5,46.3,22.4,37.6,20.2z" /><linearGradient
   id="path666_1_"
   gradientUnits="userSpaceOnUse"
   x1="-177.9814"
   y1="457.751"
   x2="-177.7303"
   y2="457.7582"
   gradientTransform="matrix(247.9855 0 0 -25.2284 44147.082 11568.1543)"><stop
   offset="0"
   style="stop-color:#FFFFFF"
   id="stop689" /><stop
   offset="1"
   style="stop-color:#F5FFFF"
   id="stop690" /><a:midPointStop
   offset="0"
   style="stop-color:#FFFFFF"
   id="midPointStop691" /><a:midPointStop
   offset="0.5"
   style="stop-color:#FFFFFF"
   id="midPointStop692" /><a:midPointStop
   offset="1"
   style="stop-color:#F5FFFF"
   id="midPointStop693" /></linearGradient><path
   id="path666"
   nodetypes="ccc"
   fill="url(#path666_1_)"
   d="M38.9,20.6c-9.7-3-16.8-3.2-28.6,0.7       C21.5,17.7,29.1,18,38.9,20.6z" /><linearGradient
   id="path667_1_"
   gradientUnits="userSpaceOnUse"
   x1="-177.9497"
   y1="456.5029"
   x2="-177.6993"
   y2="456.5101"
   gradientTransform="matrix(283.8761 0 0 -25.7561 50524.6055 11773.3535)"><stop
   offset="0"
   style="stop-color:#FFFFFF"
   id="stop696" /><stop
   offset="1"
   style="stop-color:#F5FFFF"
   id="stop697" /><a:midPointStop
   offset="0"
   style="stop-color:#FFFFFF"
   id="midPointStop698" /><a:midPointStop
   offset="0.5"
   style="stop-color:#FFFFFF"
   id="midPointStop699" /><a:midPointStop
   offset="1"
   style="stop-color:#F5FFFF"
   id="midPointStop700" /></linearGradient><path
   id="path667"
   nodetypes="ccc"
   fill="url(#path667_1_)"
   d="M41.6,16.6c-9.7-3-20.9-3.7-32.7,0.5       C20.4,13.7,31.6,14.3,41.6,16.6z" /><radialGradient
   id="path656_1_"
   cx="-177.6914"
   cy="457.7363"
   r="6.983010e-002"
   fx="-177.6914"
   fy="457.7363"
   gradientTransform="matrix(268.2633 0 0 -162.467 47685.1758 74386.6719)"
   gradientUnits="userSpaceOnUse"><stop
   offset="0"
   style="stop-color:#FFFFFF"
   id="stop703" /><stop
   offset="1"
   style="stop-color:#F5FFFF"
   id="stop704" /><a:midPointStop
   offset="0"
   style="stop-color:#FFFFFF"
   id="midPointStop705" /><a:midPointStop
   offset="0.5"
   style="stop-color:#FFFFFF"
   id="midPointStop706" /><a:midPointStop
   offset="1"
   style="stop-color:#F5FFFF"
   id="midPointStop707" /></radialGradient><path
   id="path656"
   nodetypes="cccccccsc"
   opacity="0.2"
   fill="url(#path656_1_)"
   d="M32.9,14.5       c-1.1,1.6-2.8,2.9-6.2,4.1C9.5,18.7,2.7,25.9,9.9,29c-6-5.6,7.9-7.5,16.8-8c-5.7,1.9-5.6,6.8-11,9.8c0.3,0.1,0.7,0.2,1,0.3       c0,0.7-0.1,1.2-1.1,1.8C9.8,31.9-2.7,26.6,3.8,20.2C9.2,14.9,23.4,13.3,32.9,14.5z" /><linearGradient
   id="path657_1_"
   gradientUnits="userSpaceOnUse"
   x1="-184.4077"
   y1="458.4717"
   x2="-184.1573"
   y2="458.4789"
   gradientTransform="matrix(30.2501 0 0 -59.797 5615.8491 27441.8359)"><stop
   offset="0"
   style="stop-color:#FFFFFF"
   id="stop710" /><stop
   offset="1"
   style="stop-color:#F5FFFF"
   id="stop711" /><a:midPointStop
   offset="0"
   style="stop-color:#FFFFFF"
   id="midPointStop712" /><a:midPointStop
   offset="0.5"
   style="stop-color:#FFFFFF"
   id="midPointStop713" /><a:midPointStop
   offset="1"
   style="stop-color:#F5FFFF"
   id="midPointStop714" /></linearGradient><path
   id="path657"
   nodetypes="cccc"
   opacity="0.7"
   fill="url(#path657_1_)"
   d="M39.9,29.5c2.2-2.7,0.8-5.1-2.4-6.4       c2.8,1.3,3.8,3.6,0.6,6.9C38.7,29.9,39.3,29.8,39.9,29.5z" /><path
   id="path658"
   nodetypes="cccc"
   opacity="0.7"
   fill="url(#path655_1_)"
   d="M12.3,30c-6.2-3.2-0.1-6.6,7.9-8.2       c-6.8,2-10.5,5.6-0.6,9.7C17.1,31.2,14.7,30.4,12.3,30z" /><linearGradient
   id="path660_1_"
   gradientUnits="userSpaceOnUse"
   x1="-176.8696"
   y1="457.8525"
   x2="-176.619"
   y2="457.8597"
   gradientTransform="matrix(54.0166 0 0 -103.9787 9558.0664 47631.0313)"><stop
   offset="0"
   style="stop-color:#FFFFFF"
   id="stop718" /><stop
   offset="1"
   style="stop-color:#F5FFFF"
   id="stop719" /><a:midPointStop
   offset="0"
   style="stop-color:#FFFFFF"
   id="midPointStop720" /><a:midPointStop
   offset="0.5"
   style="stop-color:#FFFFFF"
   id="midPointStop721" /><a:midPointStop
   offset="1"
   style="stop-color:#F5FFFF"
   id="midPointStop722" /></linearGradient><path
   id="path660"
   nodetypes="ccc"
   fill="url(#path660_1_)"
   d="M10.4,17.8c-4.9,2.7-9.9,7.2-2.5,12       C2.5,25.7,6.3,19.8,10.4,17.8z" /><path
   id="path673"
   nodetypes="cccccccsc"
   opacity="0.3"
   fill="url(#path656_1_)"
   d="M32.9,14.5       c-1.1,1.6-2.8,2.9-6.2,4.1C9.5,18.7,2.7,25.9,9.9,29c-6-5.6,7.9-7.5,16.8-8c-5.7,1.9-5.6,6.8-11,9.8c0.3,0.1,0.7,0.2,1,0.3       c0,0.7-0.1,1.2-1.1,1.8C9.8,31.9-2.7,26.6,3.8,20.2C9.2,14.9,23.4,13.3,32.9,14.5z" /><linearGradient
   id="path659_1_"
   gradientUnits="userSpaceOnUse"
   x1="-177.9946"
   y1="457.8057"
   x2="-177.9043"
   y2="458.1888"
   gradientTransform="matrix(240.6632 0 0 -41.0154 42863.0664 18800.3438)"><stop
   offset="0"
   style="stop-color:#5D4F4C"
   id="stop726" /><stop
   offset="1"
   style="stop-color:#EDEEEE"
   id="stop727" /><a:midPointStop
   offset="0"
   style="stop-color:#5D4F4C"
   id="midPointStop728" /><a:midPointStop
   offset="0.5"
   style="stop-color:#5D4F4C"
   id="midPointStop729" /><a:midPointStop
   offset="1"
   style="stop-color:#EDEEEE"
   id="midPointStop730" /></linearGradient><path
   id="path659"
   nodetypes="ccc"
   fill="url(#path659_1_)"
   d="M12.6,23c7.1-5.3,19.7-6.7,27.7,0.2       C34.1,20.8,23.2,19.4,12.6,23z" /></g><rect
   x="1.8"
   i:knockout="Off"
   fill="none"
   width="48"
   height="48"
   id="rect732" /></g></g></svg>
