<?xml version="1.0" encoding="UTF-8" standalone="no"?>
<!DOCTYPE svg PUBLIC "-//W3C//DTD SVG 20010904//EN"
"http://www.w3.org/TR/2001/REC-SVG-20010904/DTD/svg10.dtd">
<!-- Created with Sodipodi ("http://www.sodipodi.com/") -->
<svg
   xmlns:x="http://ns.adobe.com/Extensibility/1.0/"
   xmlns:i="http://ns.adobe.com/AdobeIllustrator/10.0/"
   xmlns:graph="http://ns.adobe.com/Graphs/1.0/"
   xmlns="http://www.w3.org/2000/svg"
   xmlns:xlink="http://www.w3.org/1999/xlink"
   xmlns:a="http://ns.adobe.com/AdobeSVGViewerExtensions/3.0/"
   xml:space="preserve"
   i:viewOrigin="169.9258 427.834"
   i:rulerOrigin="0 0"
   i:pageBounds="0 792 612 0"
   width="48"
   height="48.7"
   viewBox="0 0 48 48.7"
   overflow="visible"
   enable-background="new 0 0 48 48.7"
   xmlns:sodipodi="http://sodipodi.sourceforge.net/DTD/sodipodi-0.dtd"
   id="svg602"
   sodipodi:version="0.34"
   sodipodi:docname="C:\msys\home\su_blanc\mldonkey-2.5.12\src\gtk2\rsvg\emoticons\emoticon_tongue.svg"><defs
   id="defs742" /><sodipodi:namedview
   id="namedview741" /><g
   id="Layer_1"
   i:knockout="Off"
   i:layer="yes"
   i:dimmedPercent="50"
   i:rgbTrio="#4F008000FFFF"><path
   id="path597_5_"
   i:isolated="yes"
   i:knockout="Off"
   opacity="0.15"
   fill="none"
   stroke="#474000"
   stroke-width="1.8818"
   enable-background="new    "
   d="     M5.6,20.2c0-10.7,8-19.3,17.8-19.3c9.8,0,18.4,8.1,18.4,18.7c0,10.7-8.6,19.9-18.4,19.9C13.6,39.5,5.6,30.9,5.6,20.2z" /><path
   id="path597_4_"
   i:isolated="yes"
   i:knockout="Off"
   opacity="0.2"
   fill="none"
   stroke="#474000"
   stroke-width="0.9409"
   enable-background="new    "
   d="     M5.6,20.2c0-10.7,8-19.3,17.8-19.3c9.8,0,18.4,8.1,18.4,18.7c0,10.7-8.6,19.9-18.4,19.9C13.6,39.5,5.6,30.9,5.6,20.2z" /><path
   id="path597_3_"
   i:isolated="yes"
   i:knockout="Off"
   opacity="0.3"
   fill="none"
   stroke="#474000"
   stroke-width="0.4704"
   enable-background="new    "
   d="     M5.6,20.2c0-10.7,8-19.3,17.8-19.3c9.8,0,18.4,8.1,18.4,18.7c0,10.7-8.6,19.9-18.4,19.9C13.6,39.5,5.6,30.9,5.6,20.2z" /><radialGradient
   id="path700_1_"
   cx="-1189.3481"
   cy="428.5332"
   r="6.368929e-002"
   fx="-1189.3481"
   fy="428.5332"
   gradientTransform="matrix(310.7065 0 0 -144.1183 369563.1875 61802.1875)"
   gradientUnits="userSpaceOnUse"><stop
   offset="0"
   style="stop-color:#261700"
   id="stop610" /><stop
   offset="1"
   style="stop-color:#D2D2D2"
   id="stop611" /><a:midPointStop
   offset="0"
   style="stop-color:#261700"
   id="midPointStop612" /><a:midPointStop
   offset="0.5"
   style="stop-color:#261700"
   id="midPointStop613" /><a:midPointStop
   offset="1"
   style="stop-color:#D2D2D2"
   id="midPointStop614" /></radialGradient><path
   id="path700"
   i:isolated="yes"
   i:knockout="Off"
   opacity="0.3"
   fill="url(#path700_1_)"
   enable-background="new    "
   d="     M37.9,31.8c6.5,4.5,6,10.6-1.9,14.3c-7.9,3.7-19.5,3.1-25.9-1.5c-5.5-3.8-5.7-9.1-0.5-13.1c3.4,4.7,6.2,6.3,14,7.3     C30.1,38.7,34.3,35.8,37.9,31.8z" /><radialGradient
   id="path577_1_"
   cx="-1148.2734"
   cy="385.0215"
   r="41.5567"
   fx="-1148.2734"
   fy="385.0215"
   gradientTransform="matrix(298.9032 0 0 -316.3969 355525.0313 135254.1563)"
   gradientUnits="userSpaceOnUse"><stop
   offset="0"
   style="stop-color:#FF6F00"
   id="stop617" /><stop
   offset="1"
   style="stop-color:#FFFF00"
   id="stop618" /><a:midPointStop
   offset="0"
   style="stop-color:#FF6F00"
   id="midPointStop619" /><a:midPointStop
   offset="0.5"
   style="stop-color:#FF6F00"
   id="midPointStop620" /><a:midPointStop
   offset="1"
   style="stop-color:#FFFF00"
   id="midPointStop621" /></radialGradient><circle
   id="path577"
   fill="url(#path577_1_)"
   cx="23.9"
   cy="20.4"
   r="17.8" /><linearGradient
   id="path597_1_"
   gradientUnits="userSpaceOnUse"
   x1="-1189.3423"
   y1="427.4736"
   x2="-1189.3438"
   y2="427.355"
   gradientTransform="matrix(303.6933 0 0 -316.3967 361219.0313 135254.1406)"><stop
   offset="0"
   style="stop-color:#FF6500"
   id="stop624" /><stop
   offset="1"
   style="stop-color:#FFFF00"
   id="stop625" /><a:midPointStop
   offset="0"
   style="stop-color:#FF6500"
   id="midPointStop626" /><a:midPointStop
   offset="0.5"
   style="stop-color:#FF6500"
   id="midPointStop627" /><a:midPointStop
   offset="1"
   style="stop-color:#FFFF00"
   id="midPointStop628" /></linearGradient><path
   id="path597"
   i:isolated="yes"
   i:knockout="Off"
   opacity="0.75"
   fill="url(#path597_1_)"
   enable-background="new    "
   d="     M5.6,20.2c0-10.7,8-19.3,17.8-19.3c9.9,0,18.4,8,18.4,18.7c0,10.7-8.6,19.9-18.4,19.9C13.6,39.5,5.6,30.9,5.6,20.2z" /><radialGradient
   id="path597_6_"
   cx="-996.1836"
   cy="1.0469"
   r="20.2352"
   fx="-996.1836"
   fy="1.0469"
   gradientTransform="matrix(1 0 0 1 1019.5547 2.343750e-002)"
   gradientUnits="userSpaceOnUse"><stop
   offset="0"
   style="stop-color:#FFFFFF"
   id="stop631" /><stop
   offset="0.1046"
   style="stop-color:#FFFEFA"
   id="stop632" /><stop
   offset="0.2282"
   style="stop-color:#FFFBEC"
   id="stop633" /><stop
   offset="0.3616"
   style="stop-color:#FFF7D4"
   id="stop634" /><stop
   offset="0.5018"
   style="stop-color:#FFF1B2"
   id="stop635" /><stop
   offset="0.6474"
   style="stop-color:#FFE988"
   id="stop636" /><stop
   offset="0.7976"
   style="stop-color:#FFDF53"
   id="stop637" /><stop
   offset="0.9487"
   style="stop-color:#FFD316"
   id="stop638" /><stop
   offset="1"
   style="stop-color:#FFCF00"
   id="stop639" /><a:midPointStop
   offset="0"
   style="stop-color:#FFFFFF"
   id="midPointStop640" /><a:midPointStop
   offset="0.5"
   style="stop-color:#FFFFFF"
   id="midPointStop641" /><a:midPointStop
   offset="0.1046"
   style="stop-color:#FFFEFA"
   id="midPointStop642" /><a:midPointStop
   offset="0.5"
   style="stop-color:#FFFEFA"
   id="midPointStop643" /><a:midPointStop
   offset="0.2282"
   style="stop-color:#FFFBEC"
   id="midPointStop644" /><a:midPointStop
   offset="0.5"
   style="stop-color:#FFFBEC"
   id="midPointStop645" /><a:midPointStop
   offset="0.3616"
   style="stop-color:#FFF7D4"
   id="midPointStop646" /><a:midPointStop
   offset="0.5"
   style="stop-color:#FFF7D4"
   id="midPointStop647" /><a:midPointStop
   offset="0.5018"
   style="stop-color:#FFF1B2"
   id="midPointStop648" /><a:midPointStop
   offset="0.5"
   style="stop-color:#FFF1B2"
   id="midPointStop649" /><a:midPointStop
   offset="0.6474"
   style="stop-color:#FFE988"
   id="midPointStop650" /><a:midPointStop
   offset="0.5"
   style="stop-color:#FFE988"
   id="midPointStop651" /><a:midPointStop
   offset="0.7976"
   style="stop-color:#FFDF53"
   id="midPointStop652" /><a:midPointStop
   offset="0.5"
   style="stop-color:#FFDF53"
   id="midPointStop653" /><a:midPointStop
   offset="0.9487"
   style="stop-color:#FFD316"
   id="midPointStop654" /><a:midPointStop
   offset="0.5"
   style="stop-color:#FFD316"
   id="midPointStop655" /><a:midPointStop
   offset="1"
   style="stop-color:#FFCF00"
   id="midPointStop656" /></radialGradient><path
   id="path597_2_"
   i:isolated="yes"
   i:knockout="Off"
   opacity="0.75"
   fill="url(#path597_6_)"
   enable-background="new    "
   d="     M12.2,7.8c0-3.8,5-6.9,11.1-6.9c6.1,0,11.4,2.9,11.4,6.7C34.7,11.4,12.2,11.6,12.2,7.8z" /><rect
   id="rect662"
   y="0.7"
   i:knockout="Off"
   fill="none"
   width="48"
   height="48" /><g
   id="g659"
   i:knockout="Off"><g
   id="path643"
   i:knockout="Off"><path
   id="path661"
   i:isolated="yes"
   i:knockout="Off"
   opacity="3.320000e-002"
   fill="none"
   stroke="#000000"
   stroke-width="2.345"
   stroke-linecap="round"
   enable-background="new    "
   d="       M14.9,31.5c9.6,7.6,24.2,1.3,24.5-9.7" /></g><linearGradient
   id="path645_1_"
   gradientUnits="userSpaceOnUse"
   x1="-345.6235"
   y1="-3.582"
   x2="-345.7269"
   y2="-3.9212"
   gradientTransform="matrix(30.2455 0 0 27.1625 10490.3213 132.4182)"><stop
   offset="0"
   style="stop-color:#FFFFFF"
   id="stop663" /><stop
   offset="1"
   style="stop-color:#F5FFFF"
   id="stop664" /><a:midPointStop
   offset="0"
   style="stop-color:#FFFFFF"
   id="midPointStop665" /><a:midPointStop
   offset="0.5"
   style="stop-color:#FFFFFF"
   id="midPointStop666" /><a:midPointStop
   offset="1"
   style="stop-color:#F5FFFF"
   id="midPointStop667" /></linearGradient><path
   id="path645"
   fill="url(#path645_1_)"
   d="M33.4,32.4c-0.6,1.1,1.1,2.2,2.1,2.8c1.1,0.6,2.4,1,3.5,0.2      c0.9-0.9-0.2-2-0.8-2.4c-0.6-0.4-4.3-2.6-4.3-2.6v1.1l-0.3,0.6L33.4,32.4z" /><g
   id="path647"
   i:knockout="Off"><radialGradient
   id="path676_1_"
   cx="-342.1548"
   cy="-2.1514"
   r="0.1523"
   fx="-342.1548"
   fy="-2.1514"
   gradientTransform="matrix(85.0605 0 0 83.8074 29150.6602 250.8544)"
   gradientUnits="userSpaceOnUse"><stop
   offset="0"
   style="stop-color:#FFFFFF"
   id="stop671" /><stop
   offset="1"
   style="stop-color:#F5FFFF"
   id="stop672" /><a:midPointStop
   offset="0"
   style="stop-color:#FFFFFF"
   id="midPointStop673" /><a:midPointStop
   offset="0.5"
   style="stop-color:#FFFFFF"
   id="midPointStop674" /><a:midPointStop
   offset="1"
   style="stop-color:#F5FFFF"
   id="midPointStop675" /></radialGradient><path
   id="path676"
   fill="url(#path676_1_)"
   d="M25.9,34.9c1.7,2.7,3.6,5.5,5.3,8c1.7,2.1,4.6,3.7,6.2,2.9       c0.8-0.5,0.8-1.6,1.5-1.8c1-0.5,1.5,0.1,2.9-0.6c1.4-0.7,1.5-4.4-0.2-7.3c-1.6-2.6-2.7-5-4.2-7C35.6,33.3,29.1,34.9,25.9,34.9z       " /><path
   id="path677"
   i:isolated="yes"
   i:knockout="Off"
   opacity="0.6493"
   fill="none"
   stroke="#CE0000"
   stroke-width="0.611"
   enable-background="new    "
   d="       M25.9,34.9c1.7,2.7,3.6,5.5,5.3,8c1.7,2.1,4.6,3.7,6.2,2.9c0.8-0.5,0.8-1.6,1.5-1.8c1-0.5,1.5,0.1,2.9-0.6       c1.4-0.7,1.5-4.4-0.2-7.3c-1.6-2.6-2.7-5-4.2-7C35.6,33.3,29.1,34.9,25.9,34.9z" /></g><linearGradient
   id="path638_1_"
   gradientUnits="userSpaceOnUse"
   x1="-341.5264"
   y1="-0.957"
   x2="-341.4692"
   y2="-1.024"
   gradientTransform="matrix(85.0602 0 0 83.8077 29080.5137 123.0943)"><stop
   offset="0"
   style="stop-color:#FF0000"
   id="stop679" /><stop
   offset="1"
   style="stop-color:#CF0000"
   id="stop680" /><a:midPointStop
   offset="0"
   style="stop-color:#FF0000"
   id="midPointStop681" /><a:midPointStop
   offset="0.5"
   style="stop-color:#FF0000"
   id="midPointStop682" /><a:midPointStop
   offset="1"
   style="stop-color:#CF0000"
   id="midPointStop683" /></linearGradient><path
   id="path638"
   fill="url(#path638_1_)"
   stroke="#000000"
   stroke-width="0.1612"
   d="M25.5,34.7c1.7,2.7,3.6,5.5,5.3,8      c1.7,2.1,4.6,3.7,6.2,2.9c0.8-0.5,0.8-1.6,1.5-1.8c1-0.5,1.5,0.1,2.9-0.6s1.5-4.4-0.2-7.3c-1.6-2.6-2.7-5-4.2-7      C35.2,33.1,28.7,34.7,25.5,34.7z" /><path
   id="path639"
   fill="none"
   stroke="#795000"
   stroke-width="1.1711"
   stroke-linecap="round"
   d="M14.9,31.5      c9.5,7.4,24,1.1,24.5-9.7" /><g
   id="path640"
   i:knockout="Off"><path
   id="path687"
   i:isolated="yes"
   i:knockout="Off"
   opacity="3.320000e-002"
   fill="none"
   stroke="#000000"
   stroke-width="4.0542"
   stroke-linecap="round"
   enable-background="new    "
   d="       M14.7,31.6c9.6,7.6,24.2,1.3,24.5-9.7" /></g><g
   id="path641"
   i:knockout="Off"><path
   id="path689"
   i:isolated="yes"
   i:knockout="Off"
   opacity="3.320000e-002"
   fill="none"
   stroke="#000000"
   stroke-width="3.153"
   stroke-linecap="round"
   enable-background="new    "
   d="       M14.6,31.3c9.6,7.6,24.2,1.3,24.5-9.7" /></g><g
   id="path642"
   i:knockout="Off"><path
   id="path691"
   i:isolated="yes"
   i:knockout="Off"
   opacity="3.320000e-002"
   fill="none"
   stroke="#000000"
   stroke-width="5.3515"
   stroke-linecap="round"
   enable-background="new    "
   d="       M14.7,31.5c9.6,7.6,24.2,1.3,24.5-9.7" /></g></g><g
   id="g692"
   i:knockout="Off"><radialGradient
   id="path630_1_"
   cx="-334.9556"
   cy="0.248"
   r="0.1336"
   fx="-334.9556"
   fy="0.248"
   gradientTransform="matrix(-42.8545 7.3081 11.3939 64.5643 -14325.4424 2446.8237)"
   gradientUnits="userSpaceOnUse"><stop
   offset="0"
   style="stop-color:#DEE2E7"
   id="stop694" /><stop
   offset="1"
   style="stop-color:#FFFFFF"
   id="stop695" /><a:midPointStop
   offset="0"
   style="stop-color:#DEE2E7"
   id="midPointStop696" /><a:midPointStop
   offset="0.5"
   style="stop-color:#DEE2E7"
   id="midPointStop697" /><a:midPointStop
   offset="1"
   style="stop-color:#FFFFFF"
   id="midPointStop698" /></radialGradient><path
   id="path630"
   fill="url(#path630_1_)"
   stroke="#7C5202"
   stroke-width="0.825"
   d="M28.4,13.9c-0.6-3.6,0.8-6.8,3.1-7.2      c2.4-0.4,4.8,2.2,5.4,5.7l0,0c0.6,3.6-0.8,6.8-3.1,7.2C31.4,20,29,17.4,28.4,13.9L28.4,13.9z" /><g
   id="path631"
   i:knockout="Off"><path
   id="path701"
   i:isolated="yes"
   i:knockout="Off"
   opacity="3.790000e-002"
   fill="none"
   stroke="#000000"
   stroke-width="0.75"
   enable-background="new    "
   d="       M27.7,13.9c-0.7-3.9,1-7.5,3.7-8c2.7-0.5,5.5,2.3,6.2,6.3l0,0c0.7,3.9-1,7.5-3.7,8C31.2,20.7,28.4,17.9,27.7,13.9L27.7,13.9z" /></g><g
   id="path632"
   i:knockout="Off"><path
   id="path703"
   i:isolated="yes"
   i:knockout="Off"
   opacity="1.420000e-002"
   fill="none"
   stroke="#000000"
   stroke-width="2.608"
   enable-background="new    "
   d="       M27.7,14c-0.7-4,1-7.5,3.7-8c2.7-0.5,5.5,2.3,6.2,6.2l0,0c0.7,3.9-1,7.5-3.7,7.9C31.2,20.7,28.4,17.9,27.7,14L27.7,14z" /></g><g
   id="path633"
   i:knockout="Off"><path
   id="path705"
   i:isolated="yes"
   i:knockout="Off"
   opacity="1.420000e-002"
   fill="none"
   stroke="#000000"
   stroke-width="1.648"
   enable-background="new    "
   d="       M27.7,14c-0.7-4,1-7.5,3.7-8c2.7-0.5,5.5,2.3,6.2,6.2l0,0c0.7,3.9-1,7.5-3.7,7.9C31.2,20.7,28.4,17.9,27.7,14L27.7,14z" /></g><g
   id="path634"
   i:knockout="Off"><path
   id="path707"
   i:isolated="yes"
   i:knockout="Off"
   opacity="1.420000e-002"
   fill="none"
   stroke="#000000"
   stroke-width="0.5676"
   enable-background="new    "
   d="       M27.7,14c-0.7-4,1-7.5,3.7-8c2.7-0.5,5.5,2.3,6.2,6.2l0,0c0.7,3.9-1,7.5-3.7,7.9C31.2,20.7,28.4,17.9,27.7,14L27.7,14z" /></g><g
   id="path635"
   i:knockout="Off"><path
   id="path709"
   i:isolated="yes"
   i:knockout="Off"
   opacity="0.1517"
   fill="none"
   stroke="#000000"
   stroke-width="0.2853"
   enable-background="new    "
   d="       M27.9,13.9c-0.7-3.9,0.9-7.3,3.5-7.8s5.3,2.3,6,6.2l0,0c0.7,3.9-0.9,7.3-3.5,7.8C31.3,20.5,28.6,17.8,27.9,13.9L27.9,13.9z" /></g><radialGradient
   id="path637_1_"
   cx="-329.0703"
   cy="-1.0313"
   r="0.1235"
   fx="-329.0703"
   fy="-1.0313"
   gradientTransform="matrix(-17.8477 3.0436 3.6367 20.6079 -5836.4575 1037.6046)"
   gradientUnits="userSpaceOnUse"><stop
   offset="0"
   style="stop-color:#000082"
   id="stop711" /><stop
   offset="1"
   style="stop-color:#000000"
   id="stop712" /><a:midPointStop
   offset="0"
   style="stop-color:#000082"
   id="midPointStop713" /><a:midPointStop
   offset="0.5"
   style="stop-color:#000082"
   id="midPointStop714" /><a:midPointStop
   offset="1"
   style="stop-color:#000000"
   id="midPointStop715" /></radialGradient><path
   id="path637"
   fill="url(#path637_1_)"
   d="M30.6,16.3c-0.2-1.1,0.4-2.2,1.4-2.4c1-0.2,1.9,0.6,2.1,1.8l0,0      c0.2,1.1-0.4,2.2-1.4,2.4C31.8,18.2,30.8,17.4,30.6,16.3L30.6,16.3z" /><radialGradient
   id="path650_1_"
   cx="-341.3135"
   cy="0.1689"
   r="0.1342"
   fx="-341.3135"
   fy="0.1689"
   gradientTransform="matrix(47.0993 -8.1707 12.5225 72.1844 16092.3809 -2780.0249)"
   gradientUnits="userSpaceOnUse"><stop
   offset="0"
   style="stop-color:#DEE2E7"
   id="stop718" /><stop
   offset="1"
   style="stop-color:#FFFFFF"
   id="stop719" /><a:midPointStop
   offset="0"
   style="stop-color:#DEE2E7"
   id="midPointStop720" /><a:midPointStop
   offset="0.5"
   style="stop-color:#DEE2E7"
   id="midPointStop721" /><a:midPointStop
   offset="1"
   style="stop-color:#FFFFFF"
   id="midPointStop722" /></radialGradient><path
   id="path650"
   fill="url(#path650_1_)"
   stroke="#7C3902"
   stroke-width="0.825"
   d="M21.9,18.3c-0.7-4-3.4-6.9-6-6.4      s-4.2,4-3.5,8l0,0c0.7,4,3.4,6.9,6,6.4C21,25.9,22.6,22.3,21.9,18.3L21.9,18.3z" /><g
   id="path651"
   i:knockout="Off"><path
   id="path725"
   i:isolated="yes"
   i:knockout="Off"
   opacity="3.790000e-002"
   fill="none"
   stroke="#000000"
   stroke-width="0.75"
   enable-background="new    "
   d="       M22.6,18.1c-0.8-4.4-3.8-7.5-6.8-7S11,15.6,11.7,20l0,0c0.8,4.4,3.8,7.5,6.8,7S23.4,22.5,22.6,18.1L22.6,18.1z" /></g><g
   id="path652"
   i:knockout="Off"><path
   id="path727"
   i:isolated="yes"
   i:knockout="Off"
   opacity="1.420000e-002"
   fill="none"
   stroke="#000000"
   stroke-width="2.608"
   enable-background="new    "
   d="       M22.6,18.2c-0.8-4.4-3.8-7.5-6.8-7s-4.8,4.5-4.1,8.9l0,0c0.8,4.4,3.8,7.5,6.8,7C21.5,26.5,23.4,22.5,22.6,18.2L22.6,18.2z" /></g><g
   id="path653"
   i:knockout="Off"><path
   id="path729"
   i:isolated="yes"
   i:knockout="Off"
   opacity="1.420000e-002"
   fill="none"
   stroke="#000000"
   stroke-width="1.648"
   enable-background="new    "
   d="       M22.6,18.2c-0.8-4.4-3.8-7.5-6.8-7s-4.8,4.5-4.1,8.9l0,0c0.8,4.4,3.8,7.5,6.8,7C21.5,26.5,23.4,22.5,22.6,18.2L22.6,18.2z" /></g><g
   id="path654"
   i:knockout="Off"><path
   id="path731"
   i:isolated="yes"
   i:knockout="Off"
   opacity="1.420000e-002"
   fill="none"
   stroke="#000000"
   stroke-width="0.5676"
   enable-background="new    "
   d="       M22.6,18.2c-0.8-4.4-3.8-7.5-6.8-7s-4.8,4.5-4.1,8.9l0,0c0.8,4.4,3.8,7.5,6.8,7C21.5,26.5,23.4,22.5,22.6,18.2L22.6,18.2z" /></g><g
   id="path655"
   i:knockout="Off"><path
   id="path733"
   i:isolated="yes"
   i:knockout="Off"
   opacity="0.1517"
   fill="none"
   stroke="#000000"
   stroke-width="0.2853"
   enable-background="new    "
   d="       M22.4,18.2c-0.7-4.3-3.7-7.4-6.6-6.9c-2.9,0.5-4.7,4.4-3.9,8.7l0,0c0.7,4.3,3.7,7.4,6.6,6.9S23.1,22.5,22.4,18.2L22.4,18.2z" /></g><radialGradient
   id="path656_1_"
   cx="-344.3364"
   cy="-1.2832"
   r="0.1235"
   fx="-344.3364"
   fy="-1.2832"
   gradientTransform="matrix(19.6156 -3.4029 3.997 23.0402 6777.0303 -1121.149)"
   gradientUnits="userSpaceOnUse"><stop
   offset="0"
   style="stop-color:#000082"
   id="stop735" /><stop
   offset="1"
   style="stop-color:#000000"
   id="stop736" /><a:midPointStop
   offset="0"
   style="stop-color:#000082"
   id="midPointStop737" /><a:midPointStop
   offset="0.5"
   style="stop-color:#000082"
   id="midPointStop738" /><a:midPointStop
   offset="1"
   style="stop-color:#000000"
   id="midPointStop739" /></radialGradient><path
   id="path656"
   fill="url(#path656_1_)"
   d="M20.5,21.7c-0.2-1.3-1.3-2.2-2.4-2c-1.1,0.2-1.8,1.4-1.6,2.6l0,0      c0.2,1.3,1.3,2.2,2.4,2C20,24.1,20.7,22.9,20.5,21.7L20.5,21.7z" /></g></g></svg>
