<?xml version="1.0" encoding="UTF-8" standalone="no"?>
<!DOCTYPE svg PUBLIC "-//W3C//DTD SVG 20010904//EN"
"http://www.w3.org/TR/2001/REC-SVG-20010904/DTD/svg10.dtd">
<!-- Created with Sodipodi ("http://www.sodipodi.com/") -->
<svg
   xmlns:x="http://ns.adobe.com/Extensibility/1.0/"
   xmlns:i="http://ns.adobe.com/AdobeIllustrator/10.0/"
   xmlns:graph="http://ns.adobe.com/Graphs/1.0/"
   xmlns="http://www.w3.org/2000/svg"
   xmlns:xlink="http://www.w3.org/1999/xlink"
   xmlns:a="http://ns.adobe.com/AdobeSVGViewerExtensions/3.0/"
   xml:space="preserve"
   i:viewOrigin="278.5488 414.6406"
   i:rulerOrigin="0 0"
   i:pageBounds="0 792 612 0"
   width="48"
   height="48"
   viewBox="0 0 48 48"
   overflow="visible"
   enable-background="new 0 0 48 48"
   xmlns:sodipodi="http://sodipodi.sourceforge.net/DTD/sodipodi-0.dtd"
   id="svg602"
   sodipodi:version="0.34"
   sodipodi:docname="C:\msys\home\su_blanc\mldonkey-2.5.12\src\gtk2\rsvg\emoticons\emoticon_dude_hug.svg"><defs
   id="defs700" /><sodipodi:namedview
   id="namedview699" /><g
   id="Layer_1"
   i:layer="yes"
   i:dimmedPercent="50"
   i:rgbTrio="#4F008000FFFF"><g
   id="g606"><g
   id="g607"><radialGradient
   id="path700_1_"
   cx="-278.0591"
   cy="416.6768"
   r="5.118328e-002"
   fx="-278.0591"
   fy="416.6768"
   gradientTransform="matrix(242.9707 0 0 -67.308 67582.8984 28089.1133)"
   gradientUnits="userSpaceOnUse"><stop
   offset="0"
   style="stop-color:#8C92AF"
   id="stop609" /><stop
   offset="1"
   style="stop-color:#E7E7E7"
   id="stop610" /><a:midPointStop
   offset="0"
   style="stop-color:#8C92AF"
   id="midPointStop611" /><a:midPointStop
   offset="0.5"
   style="stop-color:#8C92AF"
   id="midPointStop612" /><a:midPointStop
   offset="1"
   style="stop-color:#E7E7E7"
   id="midPointStop613" /></radialGradient><path
   id="path700"
   nodetypes="cccccc"
   opacity="0.6"
   fill="url(#path700_1_)"
   d="M33.5,39.7c5.5,1.7,6.9,3.3,0.6,5.7       c-6.2,2.4-15.7,3.1-21.2,1.4c-4.6-1.4-5.2-3.2-1.2-5.6c3.3,1.2,5.5,1.9,11.8,1.7C29,42.4,30.5,41.6,33.5,39.7z" /><path
   id="path647_3_"
   nodetypes="ccccscccsscc"
   opacity="0.1"
   fill="none"
   stroke="#000000"
   stroke-width="3"
   d="       M19.4,20.2c-0.2,0.9,0,0.8-0.3,1.6c-2.1,0.2-15.9,5.9-8.6,12.4c1.1,1.2,2.9-1.2,0.7-2.7c-2.2-1.7,5-4.3,4.5-3.5       c-1.7,3.5-4.2,9.3-4.1,13.1c6.5,2.4,16.1,2.7,21.8-1.6c0-3.6-1.4-10.3-2.9-13.8c1.5,0.2,5.7-0.5,6.8,3.9       c0.2,1.3,2.4,1.5,2.3-0.5c-0.5-7.7-10-8.5-11-8.6c-0.3-0.8-0.2-0.5-0.5-1.3" /><path
   id="path647_4_"
   nodetypes="ccccscccsscc"
   opacity="0.15"
   fill="none"
   stroke="#000000"
   stroke-width="2"
   d="       M19.4,20.2c-0.2,0.9,0,0.8-0.3,1.6c-2.1,0.2-15.9,5.9-8.6,12.4c1.1,1.2,2.9-1.2,0.7-2.7c-2.2-1.7,5-4.3,4.5-3.5       c-1.7,3.5-4.2,9.3-4.1,13.1c6.5,2.4,16.1,2.7,21.8-1.6c0-3.6-1.4-10.3-2.9-13.8c1.5,0.2,5.7-0.5,6.8,3.9       c0.2,1.3,2.4,1.5,2.3-0.5c-0.5-7.7-10-8.5-11-8.6c-0.3-0.8-0.2-0.5-0.5-1.3" /><path
   id="path647_2_"
   nodetypes="ccccscccsscc"
   opacity="0.2"
   fill="none"
   stroke="#000000"
   d="M19.4,20.2       c-0.2,0.9,0,0.8-0.3,1.6c-2.1,0.2-15.9,5.9-8.6,12.4c1.1,1.2,2.9-1.2,0.7-2.7c-2.2-1.7,5-4.3,4.5-3.5       c-1.7,3.5-4.2,9.3-4.1,13.1c6.5,2.4,16.1,2.7,21.8-1.6c0-3.6-1.4-10.3-2.9-13.8c1.5,0.2,5.7-0.5,6.8,3.9       c0.2,1.3,2.4,1.5,2.3-0.5c-0.5-7.7-10-8.5-11-8.6c-0.3-0.8-0.2-0.5-0.5-1.3" /><linearGradient
   id="path641_1_"
   gradientUnits="userSpaceOnUse"
   x1="-277.9951"
   y1="414.5684"
   x2="-278.1032"
   y2="414.527"
   gradientTransform="matrix(260.0263 0 0 -197.2322 72328.3984 81791.9063)"><stop
   offset="0"
   style="stop-color:#8C92AF"
   id="stop619" /><stop
   offset="1"
   style="stop-color:#E7E7E7"
   id="stop620" /><a:midPointStop
   offset="0"
   style="stop-color:#8C92AF"
   id="midPointStop621" /><a:midPointStop
   offset="0.5"
   style="stop-color:#8C92AF"
   id="midPointStop622" /><a:midPointStop
   offset="1"
   style="stop-color:#E7E7E7"
   id="midPointStop623" /></linearGradient><path
   id="path641"
   nodetypes="ccccscccssccc"
   fill="url(#path641_1_)"
   d="M19.5,20.3c-0.2,0.9,0,0.8-0.3,1.6       c-2.1,0.2-15.9,5.9-8.6,12.4c1.1,1.2,2.9-1.2,0.7-2.7c-2.2-1.7,5-4.3,4.5-3.5c-1.7,3.5-4.2,9.3-4.1,13.1       c6.5,2.4,16.1,2.7,21.8-1.6c0-3.6-1.4-10.3-2.9-13.8c1.5,0.2,5.7-0.5,6.8,3.9c0.2,1.3,2.4,1.5,2.3-0.5c-0.5-7.7-10-8.5-11-8.6       c-0.3-0.8-0.2-0.5-0.5-1.3C26.1,20.6,21.8,21.6,19.5,20.3z" /><linearGradient
   id="path648_1_"
   gradientUnits="userSpaceOnUse"
   x1="-278.127"
   y1="414.5596"
   x2="-278.037"
   y2="414.5308"
   gradientTransform="matrix(260.0266 0 0 -197.232 72328.3906 81791.7734)"><stop
   offset="0"
   style="stop-color:#8C92AF"
   id="stop626" /><stop
   offset="1"
   style="stop-color:#E7E7E7"
   id="stop627" /><a:midPointStop
   offset="0"
   style="stop-color:#8C92AF"
   id="midPointStop628" /><a:midPointStop
   offset="0.5"
   style="stop-color:#8C92AF"
   id="midPointStop629" /><a:midPointStop
   offset="1"
   style="stop-color:#E7E7E7"
   id="midPointStop630" /></linearGradient><path
   id="path648"
   nodetypes="ccccscccssccc"
   fill="url(#path648_1_)"
   stroke="#000000"
   stroke-width="0.5"
   d="       M19.5,20.3c-0.2,0.9,0,0.8-0.3,1.6c-2.1,0.2-15.9,5.9-8.6,12.4c1.1,1.2,2.9-1.2,0.7-2.7c-2.2-1.7,5-4.3,4.5-3.5       c-1.7,3.5-4.2,9.3-4.1,13.1c6.5,2.4,16.1,2.7,21.8-1.6c0-3.6-1.4-10.3-2.9-13.8c1.5,0.2,5.7-0.5,6.8,3.9       c0.2,1.3,2.4,1.5,2.3-0.5c-0.5-7.7-10-8.5-11-8.6c-0.3-0.8-0.2-0.5-0.5-1.3C26.1,20.6,21.8,21.6,19.5,20.3z" /><radialGradient
   id="path577_1_"
   cx="-236.0918"
   cy="370.623"
   r="42.3286"
   fx="-236.0918"
   fy="370.623"
   gradientTransform="matrix(159.0767 0 0 -170.8617 44248.4063 70701.2188)"
   gradientUnits="userSpaceOnUse"><stop
   offset="0"
   style="stop-color:#FF6F00"
   id="stop633" /><stop
   offset="1"
   style="stop-color:#FFFF00"
   id="stop634" /><a:midPointStop
   offset="0"
   style="stop-color:#FF6F00"
   id="midPointStop635" /><a:midPointStop
   offset="0.5"
   style="stop-color:#FF6F00"
   id="midPointStop636" /><a:midPointStop
   offset="1"
   style="stop-color:#FFFF00"
   id="midPointStop637" /></radialGradient><circle
   id="path577"
   fill="url(#path577_1_)"
   cx="22.9"
   cy="10.7"
   r="9.7" /><linearGradient
   id="path636_1_"
   gradientUnits="userSpaceOnUse"
   x1="-278.0161"
   y1="413.6514"
   x2="-278.0164"
   y2="413.7227"
   gradientTransform="matrix(161.2655 0 0 -170.8616 44857.5078 70701.0938)"><stop
   offset="0"
   style="stop-color:#EB852F"
   id="stop640" /><stop
   offset="1"
   style="stop-color:#FFFF00"
   id="stop641" /><a:midPointStop
   offset="0"
   style="stop-color:#EB852F"
   id="midPointStop642" /><a:midPointStop
   offset="0.5"
   style="stop-color:#EB852F"
   id="midPointStop643" /><a:midPointStop
   offset="1"
   style="stop-color:#FFFF00"
   id="midPointStop644" /></linearGradient><path
   id="path636"
   nodetypes="ccccc"
   opacity="0.7"
   fill="url(#path636_1_)"
   d="M13.1,10.7c0-5.6,4.3-10.1,9.7-10.1       s10,4.2,10,9.8s-4.6,10.4-10,10.4S13.1,16.3,13.1,10.7z" /><linearGradient
   id="path653_1_"
   gradientUnits="userSpaceOnUse"
   x1="-278.0405"
   y1="412.8867"
   x2="-277.9634"
   y2="412.7249"
   gradientTransform="matrix(161.4472 0 0 -85.2899 44905.7109 35216.9141)"><stop
   offset="0"
   style="stop-color:#000000"
   id="stop647" /><stop
   offset="1"
   style="stop-color:#E7E7E7"
   id="stop648" /><a:midPointStop
   offset="0"
   style="stop-color:#000000"
   id="midPointStop649" /><a:midPointStop
   offset="0.5"
   style="stop-color:#000000"
   id="midPointStop650" /><a:midPointStop
   offset="1"
   style="stop-color:#E7E7E7"
   id="midPointStop651" /></linearGradient><linearGradient
   id="path653_2_"
   gradientUnits="userSpaceOnUse"
   x1="-278.3203"
   y1="414.3047"
   x2="-277.5375"
   y2="413.9375"><stop
   offset="0"
   style="stop-color:#8C92AF"
   id="stop653" /><stop
   offset="1"
   style="stop-color:#E7E7E7"
   id="stop654" /><a:midPointStop
   offset="0"
   style="stop-color:#8C92AF"
   id="midPointStop655" /><a:midPointStop
   offset="0.5"
   style="stop-color:#8C92AF"
   id="midPointStop656" /><a:midPointStop
   offset="1"
   style="stop-color:#E7E7E7"
   id="midPointStop657" /></linearGradient><path
   id="path653"
   nodetypes="cccc"
   fill="url(#path653_1_)"
   stroke="url(#path653_2_)"
   stroke-width="6.433176e-002"
   d="       M24.9,5.7c-2.7,0.8-5.9,5-12.1,4.8C13.2-1.1,28.4-3.7,32.2,7.1C30.1,8.6,26.7,6.1,24.9,5.7" /><radialGradient
   id="path587_1_"
   cx="-277.9888"
   cy="411.8213"
   r="0.1489"
   fx="-277.9888"
   fy="411.8213"
   gradientTransform="matrix(91.706 0 0 -52.0368 25516.1836 21430.9258)"
   gradientUnits="userSpaceOnUse"><stop
   offset="0"
   style="stop-color:#FFFFFF"
   id="stop660" /><stop
   offset="1"
   style="stop-color:#F5FFFF"
   id="stop661" /><a:midPointStop
   offset="0"
   style="stop-color:#FFFFFF"
   id="midPointStop662" /><a:midPointStop
   offset="0.5"
   style="stop-color:#FFFFFF"
   id="midPointStop663" /><a:midPointStop
   offset="1"
   style="stop-color:#F5FFFF"
   id="midPointStop664" /></radialGradient><path
   id="path587"
   nodetypes="ccccc"
   opacity="0.4"
   fill="url(#path587_1_)"
   d="M22.7,6.8c-4.8-0.1-5.8-2.3-5.3-3.4       c0.5-1.2,2.1-2.8,5.2-2.9c3-0.1,4.9,1.3,5.6,2.7C28.6,4.2,27.4,6.7,22.7,6.8z" /><g
   id="path629"
   nodetypes="ccccccc"><linearGradient
   id="XMLID_1_"
   gradientUnits="userSpaceOnUse"
   x1="-278.2554"
   y1="416.4385"
   x2="-277.6824"
   y2="416.4563"
   gradientTransform="matrix(34.898 0 0 -152.3408 9732.1855 63471.582)"><stop
   offset="0"
   style="stop-color:#EB2F2F"
   id="stop668" /><stop
   offset="1"
   style="stop-color:#FFFF00"
   id="stop669" /><a:midPointStop
   offset="0"
   style="stop-color:#EB2F2F"
   id="midPointStop670" /><a:midPointStop
   offset="0.5"
   style="stop-color:#EB2F2F"
   id="midPointStop671" /><a:midPointStop
   offset="1"
   style="stop-color:#FFFF00"
   id="midPointStop672" /></linearGradient><path
   i:knockout="Off"
   fill="url(#XMLID_1_)"
   d="M22.9,21.9c0.2,0.6,0.5,1.1,0.7,1.7c-0.8,6.7-1.3,9.7-2,16.4        c1.8-1.4,3.3-1.1,4.2-2.3c0-6.8-0.6-7.4-1.4-14.1c0.1-0.6,0.3-1.2,0.4-1.9C24.1,21.8,23.5,21.9,22.9,21.9z"
   id="path673" /><path
   i:knockout="Off"
   opacity="0.7393"
   fill="none"
   stroke="#000000"
   stroke-width="4.328004e-002"
   d="M22.9,21.9        c0.2,0.6,0.5,1.1,0.7,1.7c-0.8,6.7-1.3,9.7-2,16.4c1.8-1.4,3.3-1.1,4.2-2.3c0-6.8-0.6-7.4-1.4-14.1c0.1-0.6,0.3-1.2,0.4-1.9        C24.1,21.8,23.5,21.9,22.9,21.9z"
   id="path674" /></g><g
   id="path627"
   nodetypes="ccccccc"
   opacity="0.2"><linearGradient
   id="XMLID_2_"
   gradientUnits="userSpaceOnUse"
   x1="-278.0469"
   y1="416.3682"
   x2="-278.1429"
   y2="416.41"
   gradientTransform="matrix(34.8981 0 0 -152.3409 9732.2158 63471.5859)"><stop
   offset="0"
   style="stop-color:#EB2F2F"
   id="stop677" /><stop
   offset="1"
   style="stop-color:#FFFF00"
   id="stop678" /><a:midPointStop
   offset="0"
   style="stop-color:#EB2F2F"
   id="midPointStop679" /><a:midPointStop
   offset="0.5"
   style="stop-color:#EB2F2F"
   id="midPointStop680" /><a:midPointStop
   offset="1"
   style="stop-color:#FFFF00"
   id="midPointStop681" /></linearGradient><path
   i:knockout="Off"
   fill="url(#XMLID_2_)"
   d="M22.9,21.9c0.2,0.6,0.5,1.1,0.7,1.7c-0.8,6.7-1.3,9.7-2,16.4        c1.8-1.4,3.3-1.1,4.2-2.3c0-6.8-0.6-7.4-1.4-14.1c0.1-0.6,0.3-1.2,0.4-1.9C24.1,21.8,23.5,21.9,22.9,21.9z"
   id="path682" /><path
   i:knockout="Off"
   opacity="0.1469"
   fill="none"
   stroke="#460000"
   stroke-width="0.2236"
   stroke-linecap="round"
   stroke-linejoin="round"
   d="        M22.9,21.9c0.2,0.6,0.5,1.1,0.7,1.7c-0.8,6.7-1.3,9.7-2,16.4c1.8-1.4,3.3-1.1,4.2-2.3c0-6.8-0.6-7.4-1.4-14.1        c0.1-0.6,0.3-1.2,0.4-1.9C24.1,21.8,23.5,21.9,22.9,21.9z"
   id="path683" /></g><linearGradient
   id="path634_1_"
   gradientUnits="userSpaceOnUse"
   x1="-277.6592"
   y1="415.8525"
   x2="-277.2905"
   y2="415.9568"
   gradientTransform="matrix(15.6602 0 0 -65.8411 4369.7432 27417.3633)"><stop
   offset="0"
   style="stop-color:#FFFFFF"
   id="stop685" /><stop
   offset="1"
   style="stop-color:#F5FFFF"
   id="stop686" /><a:midPointStop
   offset="0"
   style="stop-color:#FFFFFF"
   id="midPointStop687" /><a:midPointStop
   offset="0.5"
   style="stop-color:#FFFFFF"
   id="midPointStop688" /><a:midPointStop
   offset="1"
   style="stop-color:#F5FFFF"
   id="midPointStop689" /></linearGradient><path
   id="path634"
   nodetypes="cccc"
   opacity="0.8"
   fill="url(#path634_1_)"
   d="M22.5,32.2c-0.8,6.7-0.2,1-1,7.7       c1-0.8,1.3-0.7,1.9-1C23.5,32.1,22.4,31.6,22.5,32.2z" /><linearGradient
   id="path637_1_"
   gradientUnits="userSpaceOnUse"
   x1="-278.2158"
   y1="414.8623"
   x2="-278.2131"
   y2="414.8079"
   gradientTransform="matrix(15.3753 0 0 -30.7957 4301.5527 12799.5801)"><stop
   offset="0"
   style="stop-color:#000000"
   id="stop692" /><stop
   offset="1"
   style="stop-color:#000000"
   id="stop693" /><a:midPointStop
   offset="0"
   style="stop-color:#000000"
   id="midPointStop694" /><a:midPointStop
   offset="0.5"
   style="stop-color:#000000"
   id="midPointStop695" /><a:midPointStop
   offset="1"
   style="stop-color:#000000"
   id="midPointStop696" /></linearGradient><path
   id="path637"
   nodetypes="ccccc"
   fill="url(#path637_1_)"
   d="M22.9,21.9c0.2,0.6,0.5,1.1,0.7,1.7       c-0.3,2.4,1.1,2.4,0.8,0c0.1-0.6,0.3-1.2,0.4-1.9C24.1,21.8,23.5,21.9,22.9,21.9z" /></g><rect
   opacity="0.1"
   fill="none"
   width="48"
   height="48"
   id="rect698" /></g></g></svg>
