<?xml version="1.0" encoding="UTF-8" standalone="no"?>
<!DOCTYPE svg PUBLIC "-//W3C//DTD SVG 20010904//EN"
"http://www.w3.org/TR/2001/REC-SVG-20010904/DTD/svg10.dtd">
<!-- Created with Sodipodi ("http://www.sodipodi.com/") -->
<svg
   xmlns:x="http://ns.adobe.com/Extensibility/1.0/"
   xmlns:i="http://ns.adobe.com/AdobeIllustrator/10.0/"
   xmlns:graph="http://ns.adobe.com/Graphs/1.0/"
   xmlns="http://www.w3.org/2000/svg"
   xmlns:xlink="http://www.w3.org/1999/xlink"
   xmlns:a="http://ns.adobe.com/AdobeSVGViewerExtensions/3.0/"
   xml:space="preserve"
   i:viewOrigin="169.1011 436.2402"
   i:rulerOrigin="0 0"
   i:pageBounds="0 792 612 0"
   width="50.8"
   height="48"
   viewBox="0 0 50.8 48"
   overflow="visible"
   enable-background="new 0 0 50.8 48"
   xmlns:sodipodi="http://sodipodi.sourceforge.net/DTD/sodipodi-0.dtd"
   id="svg602"
   sodipodi:version="0.34"
   sodipodi:docname="C:\msys\home\su_blanc\mldonkey-2.5.12\src\gtk2\rsvg\emoticons\emoticon_airplane.svg"><defs
   id="defs695" /><sodipodi:namedview
   id="namedview694" /><g
   id="Layer_1"
   i:layer="yes"
   i:dimmedPercent="50"
   i:rgbTrio="#4F008000FFFF"><g
   id="g606"><g
   id="g607"><g
   id="path607"
   nodetypes="ccccccccccccccccc"><path
   i:knockout="Off"
   opacity="5.210000e-002"
   fill="none"
   stroke="#000000"
   stroke-width="1.3693"
   stroke-linecap="round"
   stroke-linejoin="round"
   d="        M1.6,30.6c0.1,2.9,11.1,5,15.2,5c4.1,1.7,14.4,5.5,18.1,5.9c2,0.2,9.1,0,9-1.1c0-1.2-13.1-5.6-16.9-8.3        c2.7-2,10.5-4.3,16.3-14.1c1,0.2,4.9,1.8,5.9,1.3c0.7-0.8-2.5-4-4.2-5c0.5-3.5,0.5-7.2-0.5-9.8c-2.6,4-1.1,5.3-3.2,7.6        c-2.5-0.6-5.9-3.2-6.6-2.4c-0.4,0.7,1.4,3.3,2.4,5.1c-5.5-0.2-13.3-0.3-19.6,1C14.9,12,14.3,2.5,12.7,3        c-1.4,0-5.5,11.6-4.6,16.7c-0.5,2-1.4,3.2-2,5.2C4.6,26.8,1.2,28,1.6,30.6z"
   id="path609" /></g><g
   id="path606"
   nodetypes="ccccccccccccccccc"><path
   i:knockout="Off"
   opacity="5.210000e-002"
   fill="none"
   stroke="#000000"
   stroke-width="1.7972"
   stroke-linecap="round"
   stroke-linejoin="round"
   d="        M1.6,30.6c0.1,2.9,11.1,5,15.2,5c4.1,1.7,14.4,5.5,18.1,5.9c2,0.2,9.1,0,9-1.1c0-1.2-13.1-5.6-16.9-8.3        c2.7-2,10.5-4.3,16.3-14.1c1,0.2,4.9,1.8,5.9,1.3c0.7-0.8-2.5-4-4.2-5c0.5-3.5,0.5-7.2-0.5-9.8c-2.6,4-1.1,5.3-3.2,7.6        c-2.5-0.6-5.9-3.2-6.6-2.4c-0.4,0.7,1.4,3.3,2.4,5.1c-5.5-0.2-13.3-0.3-19.6,1C14.9,12,14.3,2.5,12.7,3        c-1.4,0-5.5,11.6-4.6,16.7c-0.5,2-1.4,3.2-2,5.2C4.6,26.8,1.2,28,1.6,30.6z"
   id="path611" /></g><g
   id="path605"
   nodetypes="ccccccccccccccccc"><path
   i:knockout="Off"
   opacity="5.210000e-002"
   fill="none"
   stroke="#000000"
   stroke-width="2.4676"
   stroke-linecap="round"
   stroke-linejoin="round"
   d="        M1.6,30.6c0.1,2.9,11.1,5,15.2,5c4.1,1.7,14.4,5.5,18.1,5.9c2,0.2,9.1,0,9-1.1c0-1.2-13.1-5.6-16.9-8.3        c2.7-2,10.5-4.3,16.3-14.1c1,0.2,4.9,1.8,5.9,1.3c0.7-0.8-2.5-4-4.2-5c0.5-3.5,0.5-7.2-0.5-9.8c-2.6,4-1.1,5.3-3.2,7.6        c-2.5-0.6-5.9-3.2-6.6-2.4c-0.4,0.7,1.4,3.3,2.4,5.1c-5.5-0.2-13.3-0.3-19.6,1C14.9,12,14.3,2.5,12.7,3        c-1.4,0-5.5,11.6-4.6,16.7c-0.5,2-1.4,3.2-2,5.2C4.6,26.8,1.2,28,1.6,30.6z"
   id="path613" /></g><g
   id="path604"
   nodetypes="ccccccccccccccccc"><path
   i:knockout="Off"
   opacity="5.210000e-002"
   fill="none"
   stroke="#000000"
   stroke-width="3.0809"
   stroke-linecap="round"
   stroke-linejoin="round"
   d="        M1.6,30.6c0.1,2.9,11.1,5,15.2,5c4.1,1.7,14.4,5.5,18.1,5.9c2,0.2,9.1,0,9-1.1c0-1.2-13.1-5.6-16.9-8.3        c2.7-2,10.5-4.3,16.3-14.1c1,0.2,4.9,1.8,5.9,1.3c0.7-0.8-2.5-4-4.2-5c0.5-3.5,0.5-7.2-0.5-9.8c-2.6,4-1.1,5.3-3.2,7.6        c-2.5-0.6-5.9-3.2-6.6-2.4c-0.4,0.7,1.4,3.3,2.4,5.1c-5.5-0.2-13.3-0.3-19.6,1C14.9,12,14.3,2.5,12.7,3        c-1.4,0-5.5,11.6-4.6,16.7c-0.5,2-1.4,3.2-2,5.2C4.6,26.8,1.2,28,1.6,30.6z"
   id="path615" /></g><g
   id="path600"
   nodetypes="ccccc"><linearGradient
   id="XMLID_1_"
   gradientUnits="userSpaceOnUse"
   x1="-170.0127"
   y1="441.8975"
   x2="-169.9551"
   y2="441.8033"
   gradientTransform="matrix(73.4445 0 0 -66.776 12510.8613 29545.1602)"><stop
   offset="0"
   style="stop-color:#FF6500"
   id="stop618" /><stop
   offset="1"
   style="stop-color:#FFFF00"
   id="stop619" /><a:midPointStop
   offset="0"
   style="stop-color:#FF6500"
   id="midPointStop620" /><a:midPointStop
   offset="0.5"
   style="stop-color:#FF6500"
   id="midPointStop621" /><a:midPointStop
   offset="1"
   style="stop-color:#FFFF00"
   id="midPointStop622" /></linearGradient><path
   i:knockout="Off"
   fill="url(#XMLID_1_)"
   d="M23.2,37.7c3.4-0.6,5.7-0.4,7.6,0.6c1.2,0.6,1,2.8,0.2,3.2        c-1.8,1.4-3.1,2.6-6.7,3.5C23.9,42.6,23.5,40.1,23.2,37.7z"
   id="path623" /><path
   i:knockout="Off"
   opacity="0.6682"
   fill="none"
   stroke="#000000"
   stroke-width="0.4624"
   d="M23.2,37.7        c3.4-0.6,5.7-0.4,7.6,0.6c1.2,0.6,1,2.8,0.2,3.2c-1.8,1.4-3.1,2.6-6.7,3.5C23.9,42.6,23.5,40.1,23.2,37.7z"
   id="path624" /></g><g
   id="path595"
   type="arc"
   cx="152.2723"
   cy="885.7086"
   rx="33.83829"
   ry="34.68423"><radialGradient
   id="XMLID_2_"
   cx="-165.8115"
   cy="441.8057"
   r="4.832353e-002"
   fx="-165.8115"
   fy="441.8057"
   gradientTransform="matrix(42.169 -32.3176 -30.9829 -52.6378 20703.0176 17938.1621)"
   gradientUnits="userSpaceOnUse"><stop
   offset="0"
   style="stop-color:#FF6500"
   id="stop627" /><stop
   offset="1"
   style="stop-color:#FFFF00"
   id="stop628" /><a:midPointStop
   offset="0"
   style="stop-color:#FF6500"
   id="midPointStop629" /><a:midPointStop
   offset="0.5"
   style="stop-color:#FF6500"
   id="midPointStop630" /><a:midPointStop
   offset="1"
   style="stop-color:#FFFF00"
   id="midPointStop631" /></radialGradient><circle
   i:knockout="Off"
   fill="url(#XMLID_2_)"
   cx="23.3"
   cy="41.5"
   r="3"
   id="circle632" /><circle
   i:knockout="Off"
   opacity="0.6682"
   fill="none"
   stroke="#000000"
   stroke-width="0.5583"
   cx="23.3"
   cy="41.5"
   r="3"
   id="circle633" /></g><g
   id="path601"
   nodetypes="ccccc"><linearGradient
   id="XMLID_3_"
   gradientUnits="userSpaceOnUse"
   x1="-168.4756"
   y1="438.998"
   x2="-168.4249"
   y2="438.9152"
   gradientTransform="matrix(79.2952 0 0 -61.9039 13369.9316 27186.4824)"><stop
   offset="0"
   style="stop-color:#FF6500"
   id="stop636" /><stop
   offset="1"
   style="stop-color:#FFFF00"
   id="stop637" /><a:midPointStop
   offset="0"
   style="stop-color:#FF6500"
   id="midPointStop638" /><a:midPointStop
   offset="0.5"
   style="stop-color:#FF6500"
   id="midPointStop639" /><a:midPointStop
   offset="1"
   style="stop-color:#FFFF00"
   id="midPointStop640" /></linearGradient><path
   i:knockout="Off"
   fill="url(#XMLID_3_)"
   d="M8.3,11.9c3.4-1.1,5.9-1.4,7.9-0.9c1.3,0.3,1.4,2.2,0.6,2.7        c-1.7,1.5-2.8,2.8-6.5,4.2C9.7,15.9,9,13.9,8.3,11.9z"
   id="path641" /><path
   i:knockout="Off"
   opacity="0.6682"
   fill="none"
   stroke="#000000"
   stroke-width="0.4389"
   d="M8.3,11.9        c3.4-1.1,5.9-1.4,7.9-0.9c1.3,0.3,1.4,2.2,0.6,2.7c-1.7,1.5-2.8,2.8-6.5,4.2C9.7,15.9,9,13.9,8.3,11.9z"
   id="path642" /></g><g
   id="path602"
   type="arc"
   cx="152.2723"
   cy="885.7086"
   rx="33.83829"
   ry="34.68423"><radialGradient
   id="XMLID_4_"
   cx="-165.3003"
   cy="438.0205"
   r="5.991960e-002"
   fx="-165.3003"
   fy="438.0205"
   gradientTransform="matrix(39.6973 -34.9927 -39.1046 -38.6031 23699.2773 11139.9717)"
   gradientUnits="userSpaceOnUse"><stop
   offset="0"
   style="stop-color:#FF6500"
   id="stop645" /><stop
   offset="1"
   style="stop-color:#FFFF00"
   id="stop646" /><a:midPointStop
   offset="0"
   style="stop-color:#FF6500"
   id="midPointStop647" /><a:midPointStop
   offset="0.5"
   style="stop-color:#FF6500"
   id="midPointStop648" /><a:midPointStop
   offset="1"
   style="stop-color:#FFFF00"
   id="midPointStop649" /></radialGradient><circle
   i:knockout="Off"
   fill="url(#XMLID_4_)"
   cx="9"
   cy="15"
   r="3"
   id="circle650" /><circle
   i:knockout="Off"
   opacity="0.6682"
   fill="none"
   stroke="#000000"
   stroke-width="0.5583"
   cx="9"
   cy="15"
   r="3"
   id="circle651" /></g><path
   id="path563"
   nodetypes="ccccccccccccccccc"
   opacity="0.4"
   fill="#FFFF00"
   stroke="#000000"
   stroke-width="0.9984"
   stroke-linecap="round"
   stroke-linejoin="round"
   d="       M1.6,30.6c0.1,2.9,11.1,5,15.2,5c4.1,1.7,14.4,5.5,18.1,5.9c2,0.2,9.1,0,9-1.1c0-1.2-13.1-5.6-16.9-8.3       c2.7-2,10.5-4.3,16.3-14.1c1,0.2,4.9,1.8,5.9,1.3c0.7-0.8-2.5-4-4.2-5c0.5-3.5,0.2-7.5-0.5-9.8c-1.8,1.4-1.1,5.3-3.2,7.6       c-2.5-0.6-5.9-3.2-6.6-2.4c-0.4,0.7,0.9,3.2,2,5c-5.5-0.2-12.8-0.1-19.1,1.1C14.9,12,14.3,2.5,12.7,3c-1.4,0-5.5,11.6-4.6,16.7       c-0.5,2-1.4,3.2-2,5.2C4.6,26.8,1.2,28,1.6,30.6z" /><linearGradient
   id="path574_1_"
   gradientUnits="userSpaceOnUse"
   x1="-2.8818"
   y1="22.9341"
   x2="49.6071"
   y2="21.6789"><stop
   offset="0"
   style="stop-color:#FFCD00"
   id="stop654" /><stop
   offset="0.3455"
   style="stop-color:#FFAF00"
   id="stop655" /><stop
   offset="1"
   style="stop-color:#FF6D00"
   id="stop656" /><a:midPointStop
   offset="0"
   style="stop-color:#FFCD00"
   id="midPointStop657" /><a:midPointStop
   offset="0.5311"
   style="stop-color:#FFCD00"
   id="midPointStop658" /><a:midPointStop
   offset="1"
   style="stop-color:#FF6D00"
   id="midPointStop659" /></linearGradient><path
   id="path574"
   nodetypes="ccccccccccccccccc"
   fill="url(#path574_1_)"
   stroke="#797C92"
   stroke-width="0.9984"
   stroke-linecap="round"
   stroke-linejoin="round"
   d="       M1.6,30.6c0.1,2.9,11.1,5,15.2,5c4.1,1.7,14.4,5.5,18.1,5.9c2,0.2,9.1,0,9-1.1c0-1.2-13.1-5.6-16.9-8.3       c2.7-2,10.5-4.3,16.3-14.1c1,0.2,4.9,1.8,5.9,1.3c0.7-0.8-2.5-4-4.2-5c0.5-3.5,0.5-7.2-0.5-9.8c-2.6,4-1.1,5.3-3.2,7.6       c-2.5-0.6-5.9-3.2-6.6-2.4c-0.4,0.7,1.4,3.3,2.4,5.1c-5.5-0.2-13.3-0.3-19.6,1C14.9,12,14.3,2.5,12.7,3       c-1.4,0-5.5,11.6-4.6,16.7c-0.5,2-1.4,3.2-2,5.2C4.6,26.8,1.2,28,1.6,30.6z" /><g
   id="path590"><radialGradient
   id="XMLID_5_"
   cx="-167.9312"
   cy="441.4756"
   r="9.553048e-002"
   fx="-167.9312"
   fy="441.4756"
   gradientTransform="matrix(54.1411 0 0 -45.6816 9100.4297 20187.5352)"
   gradientUnits="userSpaceOnUse"><stop
   offset="0"
   style="stop-color:#FFFFFF"
   id="stop663" /><stop
   offset="1"
   style="stop-color:#000052"
   id="stop664" /><a:midPointStop
   offset="0"
   style="stop-color:#FFFFFF"
   id="midPointStop665" /><a:midPointStop
   offset="0.5"
   style="stop-color:#FFFFFF"
   id="midPointStop666" /><a:midPointStop
   offset="1"
   style="stop-color:#000052"
   id="midPointStop667" /></radialGradient><path
   i:knockout="Off"
   opacity="0.7062"
   fill="url(#XMLID_5_)"
   d="M8.5,19.7c2.5,1.3,4.2,3,4.2,3l-0.9,2.2H6.5L8.5,19.7z"
   id="path668" /><path
   i:knockout="Off"
   fill="none"
   stroke="#000000"
   stroke-width="0.1141"
   d="M8.5,19.7c2.5,1.3,4.2,3,4.2,3l-0.9,2.2H6.5        L8.5,19.7z"
   id="path669" /></g><g
   id="path608"
   nodetypes="ccccc"><linearGradient
   id="XMLID_6_"
   gradientUnits="userSpaceOnUse"
   x1="-169.1709"
   y1="438.4482"
   x2="-169.1462"
   y2="438.4039"
   gradientTransform="matrix(204.5767 0 0 -100.4939 34635.1172 44082.8203)"><stop
   offset="0"
   style="stop-color:#FFCD00"
   id="stop672" /><stop
   offset="7.408679e-003"
   style="stop-color:#FFCA00"
   id="stop673" /><stop
   offset="9.774035e-002"
   style="stop-color:#FFAD00"
   id="stop674" /><stop
   offset="0.1976"
   style="stop-color:#FF9600"
   id="stop675" /><stop
   offset="0.312"
   style="stop-color:#FF8400"
   id="stop676" /><stop
   offset="0.4474"
   style="stop-color:#FF7700"
   id="stop677" /><stop
   offset="0.6245"
   style="stop-color:#FF6F00"
   id="stop678" /><stop
   offset="1"
   style="stop-color:#FF6D00"
   id="stop679" /><a:midPointStop
   offset="0"
   style="stop-color:#FFCD00"
   id="midPointStop680" /><a:midPointStop
   offset="0.1638"
   style="stop-color:#FFCD00"
   id="midPointStop681" /><a:midPointStop
   offset="1"
   style="stop-color:#FF6D00"
   id="midPointStop682" /></linearGradient><path
   i:knockout="Off"
   opacity="0.9953"
   fill="url(#XMLID_6_)"
   d="M17.4,26.7c0.2,0.8,0.5,1.8,0.7,2.6        c8.2-1,19.1-6.1,22.7-10.4c-0.2-0.4-0.5-0.7-0.7-1.1C36.1,21,25.6,25.3,17.4,26.7z"
   id="path683" /></g><radialGradient
   id="path584_1_"
   cx="-167.3823"
   cy="436.835"
   r="2.918193e-002"
   fx="-167.3823"
   fy="436.835"
   gradientTransform="matrix(41.5034 0 0 -63.1053 6950.4326 27594.8438)"
   gradientUnits="userSpaceOnUse"><stop
   offset="0"
   style="stop-color:#FFFFFF"
   id="stop685" /><stop
   offset="1"
   style="stop-color:#DF0000"
   id="stop686" /><a:midPointStop
   offset="0"
   style="stop-color:#FFFFFF"
   id="midPointStop687" /><a:midPointStop
   offset="0.5"
   style="stop-color:#FFFFFF"
   id="midPointStop688" /><a:midPointStop
   offset="1"
   style="stop-color:#DF0000"
   id="midPointStop689" /></radialGradient><path
   id="path584"
   nodetypes="cccc"
   fill="url(#path584_1_)"
   d="M2,30.4C1.9,28,3.9,27.1,5.5,26c2,3.7,1.3,5,0.1,7       C4.3,33,2.5,32.4,2,30.4z" /><path
   id="path582"
   nodetypes="cccccc"
   i:knockout="Off"
   fill="none"
   stroke="#797C92"
   stroke-width="0.9129"
   stroke-linecap="round"
   stroke-linejoin="round"
   d="       M24.4,30.7c-3.1,1.5-4.7,1.7-10.1,3c3.3,2.6,10.3,4.9,15.2,6.3c1.7,0.5,3.5,1.1,5.3,1.3c2.2,0.5,7.4,0.8,8.9-1       C38.5,37.2,29.8,34,24.4,30.7z" /><path
   id="path583"
   nodetypes="cccc"
   fill="none"
   stroke="#797C92"
   stroke-width="1.084"
   stroke-linecap="round"
   stroke-linejoin="round"
   d="       M12.8,3c-2,0.1-5.5,12.3-4.8,17c0.4-1.5,4.6-3.4,9.6-4.3C15.3,12.6,14.1,3.1,12.8,3z" /></g><rect
   x="1.4"
   i:knockout="Off"
   fill="none"
   width="48"
   height="48"
   id="rect693" /></g></g></svg>
