<?xml version="1.0" encoding="UTF-8" standalone="no"?>
<!DOCTYPE svg PUBLIC "-//W3C//DTD SVG 20010904//EN"
"http://www.w3.org/TR/2001/REC-SVG-20010904/DTD/svg10.dtd">
<!-- Created with Sodipodi ("http://www.sodipodi.com/") -->
<svg
   xmlns:x="http://ns.adobe.com/Extensibility/1.0/"
   xmlns:i="http://ns.adobe.com/AdobeIllustrator/10.0/"
   xmlns:graph="http://ns.adobe.com/Graphs/1.0/"
   xmlns="http://www.w3.org/2000/svg"
   xmlns:xlink="http://www.w3.org/1999/xlink"
   xmlns:a="http://ns.adobe.com/AdobeSVGViewerExtensions/3.0/"
   xml:space="preserve"
   i:viewOrigin="176.0962 469.8525"
   i:rulerOrigin="0 0"
   i:pageBounds="0 792 612 0"
   width="52.8"
   height="53.2"
   viewBox="0 0 52.8 53.2"
   overflow="visible"
   enable-background="new 0 0 52.8 53.2"
   xmlns:sodipodi="http://sodipodi.sourceforge.net/DTD/sodipodi-0.dtd"
   id="svg602"
   sodipodi:version="0.34"
   sodipodi:docname="C:\msys\home\su_blanc\mldonkey-2.5.12\src\gtk2\rsvg\emoticons\emoticon_film.svg"><defs
   id="defs652" /><sodipodi:namedview
   id="namedview651" /><g
   id="Layer_1"
   i:layer="yes"
   i:dimmedPercent="50"
   i:rgbTrio="#4F008000FFFF"><g
   id="g606"><g
   id="g607"><g
   id="rect584"><path
   i:knockout="Off"
   opacity="4.270000e-002"
   fill="none"
   stroke="#000000"
   stroke-width="5.4161"
   d="M37.3,3.7l11.7,11.5        c1.3,1.3,1.4,3.5,0.1,4.8L20.3,49.5c-1.3,1.4-3.5,1.4-4.8,0.1L3.7,38.1c-1.4-1.3-1.4-3.5-0.1-4.8L32.5,3.7        C33.8,2.4,36,2.4,37.3,3.7z"
   id="path609" /></g><g
   id="rect583"><path
   i:knockout="Off"
   opacity="4.270000e-002"
   fill="none"
   stroke="#000000"
   stroke-width="3.7749"
   d="M37.3,3.7l11.7,11.5        c1.3,1.3,1.4,3.5,0.1,4.8L20.3,49.5c-1.3,1.4-3.5,1.4-4.8,0.1L3.7,38.1c-1.4-1.3-1.4-3.5-0.1-4.8L32.5,3.7        C33.8,2.4,36,2.4,37.3,3.7z"
   id="path611" /></g><g
   id="rect582"><path
   i:knockout="Off"
   opacity="4.270000e-002"
   fill="none"
   stroke="#000000"
   stroke-width="2.1336"
   d="M37.3,3.7l11.7,11.5        c1.3,1.3,1.4,3.5,0.1,4.8L20.3,49.5c-1.3,1.4-3.5,1.4-4.8,0.1L3.7,38.1c-1.4-1.3-1.4-3.5-0.1-4.8L32.5,3.7        C33.8,2.4,36,2.4,37.3,3.7z"
   id="path613" /></g><g
   id="rect581"><path
   i:knockout="Off"
   opacity="4.270000e-002"
   fill="none"
   stroke="#000000"
   stroke-width="2.4619"
   d="M37.3,3.7l11.7,11.5        c1.3,1.3,1.4,3.5,0.1,4.8L20.3,49.5c-1.3,1.4-3.5,1.4-4.8,0.1L3.7,38.1c-1.4-1.3-1.4-3.5-0.1-4.8L32.5,3.7        C33.8,2.4,36,2.4,37.3,3.7z"
   id="path615" /></g><g
   id="rect580"><path
   i:knockout="Off"
   opacity="4.270000e-002"
   fill="none"
   stroke="#000000"
   stroke-width="2.9542"
   d="M37.3,3.7l11.7,11.5        c1.3,1.3,1.4,3.5,0.1,4.8L20.3,49.5c-1.3,1.4-3.5,1.4-4.8,0.1L3.7,38.1c-1.4-1.3-1.4-3.5-0.1-4.8L32.5,3.7        C33.8,2.4,36,2.4,37.3,3.7z"
   id="path617" /></g><g
   id="rect579"><path
   i:knockout="Off"
   opacity="4.270000e-002"
   fill="none"
   stroke="#000000"
   stroke-width="3.2825"
   d="M37.3,3.7l11.7,11.5        c1.3,1.3,1.4,3.5,0.1,4.8L20.3,49.5c-1.3,1.4-3.5,1.4-4.8,0.1L3.7,38.1c-1.4-1.3-1.4-3.5-0.1-4.8L32.5,3.7        C33.8,2.4,36,2.4,37.3,3.7z"
   id="path619" /></g><g
   id="rect578"><path
   i:knockout="Off"
   opacity="4.270000e-002"
   fill="none"
   stroke="#000000"
   stroke-width="4.1031"
   d="M37.3,3.7l11.7,11.5        c1.3,1.3,1.4,3.5,0.1,4.8L20.3,49.5c-1.3,1.4-3.5,1.4-4.8,0.1L3.7,38.1c-1.4-1.3-1.4-3.5-0.1-4.8L32.5,3.7        C33.8,2.4,36,2.4,37.3,3.7z"
   id="path621" /></g><g
   id="rect577"><path
   i:knockout="Off"
   opacity="4.270000e-002"
   fill="none"
   stroke="#000000"
   stroke-width="4.9238"
   d="M37.3,3.7l11.7,11.5        c1.3,1.3,1.4,3.5,0.1,4.8L20.3,49.5c-1.3,1.4-3.5,1.4-4.8,0.1L3.7,38.1c-1.4-1.3-1.4-3.5-0.1-4.8L32.5,3.7        C33.8,2.4,36,2.4,37.3,3.7z"
   id="path623" /></g><path
   id="rect562"
   fill="#15150F"
   d="M37.3,3.7l11.7,11.5c1.3,1.3,1.4,3.5,0.1,4.8L20.3,49.5c-1.3,1.4-3.5,1.4-4.8,0.1       L3.7,38.1c-1.4-1.3-1.4-3.5-0.1-4.8L32.5,3.7C33.8,2.4,36,2.4,37.3,3.7z" /><path
   id="rect563"
   fill="#E6E6E6"
   d="M35.8,8.4l8.9,8.6c0.9,0.9,0.9,2.4,0,3.3l-4.9,4.9c-0.9,0.9-2.4,0.9-3.3,0l-8.9-8.6       c-0.9-0.9-0.9-2.4,0-3.3l4.9-4.9C33.4,7.6,34.9,7.5,35.8,8.4z" /><path
   id="rect564"
   fill="#E6E6E6"
   d="M26.4,18.1l8.9,8.6c0.9,0.9,0.9,2.4,0,3.3l-4.9,4.9c-0.9,0.9-2.4,0.9-3.3,0l-8.9-8.6       c-0.9-0.9-0.9-2.4,0-3.3l4.9-4.9C24,17.3,25.5,17.2,26.4,18.1z" /><path
   id="rect565"
   fill="#E6E6E6"
   d="M17.1,27.6l8.9,8.6c0.9,0.9,0.9,2.4,0,3.3l-4.9,4.9c-0.9,0.9-2.4,0.9-3.3,0l-8.9-8.6       C8,35,8,33.5,8.9,32.6l4.9-4.9C14.7,26.7,16.1,26.7,17.1,27.6z" /><linearGradient
   id="path573_1_"
   gradientUnits="userSpaceOnUse"
   x1="-176.353"
   y1="469.2227"
   x2="-176.1711"
   y2="469.0559"
   gradientTransform="matrix(227.2163 0 0 -175.2238 40090.043 82225.4297)"><stop
   offset="0"
   style="stop-color:#FFFFFF"
   id="stop629" /><stop
   offset="1"
   style="stop-color:#FFFFFF"
   id="stop630" /><a:midPointStop
   offset="0"
   style="stop-color:#FFFFFF"
   id="midPointStop631" /><a:midPointStop
   offset="0.5"
   style="stop-color:#FFFFFF"
   id="midPointStop632" /><a:midPointStop
   offset="1"
   style="stop-color:#FFFFFF"
   id="midPointStop633" /></linearGradient><path
   id="path573"
   nodetypes="csscsssss"
   opacity="0.45"
   fill="url(#path573_1_)"
   d="M42.8,25.4       c-2,2.3-3.5-1.1-8.5-2.2c-5.1-1-4.3,0.8-9-0.1c-2.9-0.5-6.2-2-5.7-5c2.9-2.9,9.1-9.3,13.7-14c0.7-0.8,2.2-1.3,2.9-0.5       c4,3.8,8.7,8.4,12.5,12.4c1,1,0.8,2.4-0.2,3.4C46.9,21.2,44.3,23.9,42.8,25.4z" /><radialGradient
   id="rect567_1_"
   cx="-176.1392"
   cy="469.1826"
   r="0.1073"
   fx="-176.1392"
   fy="469.1826"
   gradientTransform="matrix(126.6105 123.7748 255.9129 -261.7758 -97750.6172 144673.7813)"
   gradientUnits="userSpaceOnUse"><stop
   offset="0"
   style="stop-color:#FFFFFF"
   id="stop636" /><stop
   offset="1"
   style="stop-color:#FFFFFF"
   id="stop637" /><a:midPointStop
   offset="0"
   style="stop-color:#FFFFFF"
   id="midPointStop638" /><a:midPointStop
   offset="0.5"
   style="stop-color:#FFFFFF"
   id="midPointStop639" /><a:midPointStop
   offset="1"
   style="stop-color:#FFFFFF"
   id="midPointStop640" /></radialGradient><path
   id="rect567"
   opacity="0.2"
   fill="url(#rect567_1_)"
   d="M37.3,3.7l11.7,11.5c1.3,1.3,1.4,3.5,0.1,4.8L20.3,49.5       c-1.3,1.4-3.5,1.4-4.8,0.1L3.7,38.1c-1.4-1.3-1.4-3.5-0.1-4.8L32.5,3.7C33.8,2.4,36,2.4,37.3,3.7z" /><path
   id="rect576"
   fill="none"
   stroke="#000000"
   stroke-width="1.0668"
   d="M37.3,3.7l11.7,11.5c1.3,1.3,1.4,3.5,0.1,4.8       L20.3,49.5c-1.3,1.4-3.5,1.4-4.8,0.1L3.7,38.1c-1.4-1.3-1.4-3.5-0.1-4.8L32.5,3.7C33.8,2.4,36,2.4,37.3,3.7z" /><linearGradient
   id="path585_1_"
   gradientUnits="userSpaceOnUse"
   x1="-176.354"
   y1="469.1748"
   x2="-176.2227"
   y2="469.1748"
   gradientTransform="matrix(227.2163 0 0 -175.2238 40090.043 82225.4297)"><stop
   offset="0"
   style="stop-color:#FFFFFF"
   id="stop644" /><stop
   offset="1"
   style="stop-color:#FFFFFF"
   id="stop645" /><a:midPointStop
   offset="0"
   style="stop-color:#FFFFFF"
   id="midPointStop646" /><a:midPointStop
   offset="0.5"
   style="stop-color:#FFFFFF"
   id="midPointStop647" /><a:midPointStop
   offset="1"
   style="stop-color:#FFFFFF"
   id="midPointStop648" /></linearGradient><path
   id="path585"
   nodetypes="csscsssss"
   opacity="0.35"
   fill="url(#path585_1_)"
   d="M42.8,25.4       c-2,2.3-3.5-1.1-8.5-2.2c-5.1-1-4.3,0.8-9-0.1c-2.9-0.5-6.2-2-5.7-5c2.9-2.9,9.1-9.3,13.7-14c0.7-0.8,2.2-1.3,2.9-0.5       c4,3.8,8.7,8.4,12.5,12.4c1,1,0.8,2.4-0.2,3.4C46.9,21.2,44.3,23.9,42.8,25.4z" /></g><rect
   x="2.4"
   y="2.6"
   opacity="0.25"
   fill="none"
   width="48"
   height="48"
   id="rect650" /></g></g></svg>
