<?xml version="1.0" encoding="UTF-8" standalone="no"?>
<!DOCTYPE svg PUBLIC "-//W3C//DTD SVG 20010904//EN"
"http://www.w3.org/TR/2001/REC-SVG-20010904/DTD/svg10.dtd">
<!-- Created with Sodipodi ("http://www.sodipodi.com/") -->
<svg
   xmlns:x="http://ns.adobe.com/Extensibility/1.0/"
   xmlns:i="http://ns.adobe.com/AdobeIllustrator/10.0/"
   xmlns:graph="http://ns.adobe.com/Graphs/1.0/"
   xmlns="http://www.w3.org/2000/svg"
   xmlns:xlink="http://www.w3.org/1999/xlink"
   xmlns:a="http://ns.adobe.com/AdobeSVGViewerExtensions/3.0/"
   xml:space="preserve"
   i:viewOrigin="185 468.8169"
   i:rulerOrigin="0 0"
   i:pageBounds="0 792 612 0"
   width="48"
   height="48.6"
   viewBox="0 0 48 48.6"
   overflow="visible"
   enable-background="new 0 0 48 48.6"
   xmlns:sodipodi="http://sodipodi.sourceforge.net/DTD/sodipodi-0.dtd"
   id="svg602"
   sodipodi:version="0.34"
   sodipodi:docname="C:\msys\home\su_blanc\mldonkey-2.5.12\src\gtk2\rsvg\emoticons\emoticon_dog.svg"><defs
   id="defs652" /><sodipodi:namedview
   id="namedview651" /><g
   id="Layer_1"
   i:layer="yes"
   i:dimmedPercent="50"
   i:rgbTrio="#4F008000FFFF"><g
   id="g606"><g
   id="g607"><linearGradient
   id="path566_1_"
   gradientUnits="userSpaceOnUse"
   x1="53.2388"
   y1="32.0693"
   x2="13.8393"
   y2="20.6023"><stop
   offset="5.617829e-003"
   style="stop-color:#B31E00"
   id="stop609" /><stop
   offset="1"
   style="stop-color:#E36500"
   id="stop610" /><a:midPointStop
   offset="5.617829e-003"
   style="stop-color:#B31E00"
   id="midPointStop611" /><a:midPointStop
   offset="0.5"
   style="stop-color:#B31E00"
   id="midPointStop612" /><a:midPointStop
   offset="1"
   style="stop-color:#E36500"
   id="midPointStop613" /></linearGradient><path
   id="path566"
   nodetypes="ccccccccccccccc"
   i:knockout="Off"
   fill="url(#path566_1_)"
   stroke="#A00000"
   stroke-width="0.6976"
   stroke-linejoin="round"
   d="       M22.6,40.8C5.8,43.7,3.1,33.4,1.1,32.7c-0.7-0.3-0.3-2.3,0.2-2.8c4.6-3.2,12.9-7.7,13.4-8.9c0.3-1.3-0.1-2.7,0.2-3.4       c0.4-0.6,8-5,8.9-6.5c0.6-0.8,0.6-4.9,0.3-6.2c-0.1-1.1-0.6-3.4-1-4.6C24,1,25.7,4.4,26.5,5c0.4-0.6-0.1-4.1,0.3-4.7       c0.7,1.5,1.7,2.8,2.5,4.3c2.1,2.7,5.8,7.6,6.9,9.9c3.2,2.9,8.8,8.7,11.2,12.9C47.8,36,33.9,51,24.8,47.8       c-1.2-3.4-0.5-3-2.3-6.6" /><path
   id="path568"
   nodetypes="ccccc"
   stroke="#000000"
   stroke-width="0.4699"
   d="M1.6,29.4c-0.9,0.6-1.2,2.9-0.6,3.8       c0.6,0.8,2.3,0.6,3,0c1.2-0.5,1.6-5.6,0.2-5C3.4,28.6,2.5,29,1.6,29.4z" /><radialGradient
   id="path569_1_"
   cx="-194.5078"
   cy="471.2729"
   r="0.2612"
   fx="-194.5078"
   fy="471.2729"
   gradientTransform="matrix(7.862 0 0 -12.7085 1545.6914 6009.0903)"
   gradientUnits="userSpaceOnUse"><stop
   offset="0"
   style="stop-color:#000000"
   id="stop617" /><stop
   offset="1"
   style="stop-color:#FFFFFF"
   id="stop618" /><a:midPointStop
   offset="0"
   style="stop-color:#000000"
   id="midPointStop619" /><a:midPointStop
   offset="0.5"
   style="stop-color:#000000"
   id="midPointStop620" /><a:midPointStop
   offset="1"
   style="stop-color:#FFFFFF"
   id="midPointStop621" /></radialGradient><path
   id="path569"
   nodetypes="cccc"
   fill="url(#path569_1_)"
   d="M15.1,17.9c0,2.2-0.1,3.4,0,3.7       c0.7-0.1,2.3-0.3,2.3-1.6C17.3,18.9,15.8,18.1,15.1,17.9z" /><linearGradient
   id="path582_1_"
   gradientUnits="userSpaceOnUse"
   x1="-195.269"
   y1="468.4604"
   x2="-194.5021"
   y2="468.4146"
   gradientTransform="matrix(10.4365 0 0 -24.586 2061.2576 11522.4121)"><stop
   offset="0"
   style="stop-color:#000000"
   id="stop624" /><stop
   offset="1"
   style="stop-color:#FFFFFF"
   id="stop625" /><a:midPointStop
   offset="0"
   style="stop-color:#000000"
   id="midPointStop626" /><a:midPointStop
   offset="0.5"
   style="stop-color:#000000"
   id="midPointStop627" /><a:midPointStop
   offset="1"
   style="stop-color:#FFFFFF"
   id="midPointStop628" /></linearGradient><path
   id="path582"
   nodetypes="cccc"
   fill="url(#path582_1_)"
   d="M26.9,1.7C28,3.6,29.7,7.5,29.7,8       c-0.1,0.7-2.8,1.3-3,0.8C26.4,8.3,27.1,4.4,26.9,1.7z" /><linearGradient
   id="path588_1_"
   gradientUnits="userSpaceOnUse"
   x1="-196.9219"
   y1="468.4302"
   x2="-196.1536"
   y2="468.3842"
   gradientTransform="matrix(8.3663 0 0 -18.9276 1668.6724 8870.6836)"><stop
   offset="0"
   style="stop-color:#000000"
   id="stop631" /><stop
   offset="1"
   style="stop-color:#FFFFFF"
   id="stop632" /><a:midPointStop
   offset="0"
   style="stop-color:#000000"
   id="midPointStop633" /><a:midPointStop
   offset="0.5"
   style="stop-color:#000000"
   id="midPointStop634" /><a:midPointStop
   offset="1"
   style="stop-color:#FFFFFF"
   id="midPointStop635" /></linearGradient><path
   id="path588"
   fill="url(#path588_1_)"
   d="M23.8,2c1.1,1.5,2.4,3.8,2.5,4.2c0,0.5-1.5,1.6-1.6,1.4       C24.4,7.3,24.8,5.3,23.8,2z" /><radialGradient
   id="path598_1_"
   cx="-186.396"
   cy="470.3071"
   r="0.1472"
   fx="-186.396"
   fy="470.3071"
   gradientTransform="matrix(33.8779 0 0 -28.4145 6324.8364 13391.1953)"
   gradientUnits="userSpaceOnUse"><stop
   offset="0"
   style="stop-color:#FFFFFF"
   id="stop638" /><stop
   offset="0.1385"
   style="stop-color:#F3DFCA"
   id="stop639" /><stop
   offset="0.3132"
   style="stop-color:#E5BA8D"
   id="stop640" /><stop
   offset="0.4814"
   style="stop-color:#DA9C5B"
   id="stop641" /><stop
   offset="0.6384"
   style="stop-color:#D18433"
   id="stop642" /><stop
   offset="0.7819"
   style="stop-color:#CA7317"
   id="stop643" /><stop
   offset="0.907"
   style="stop-color:#C66906"
   id="stop644" /><stop
   offset="1"
   style="stop-color:#C56500"
   id="stop645" /><a:midPointStop
   offset="0"
   style="stop-color:#FFFFFF"
   id="midPointStop646" /><a:midPointStop
   offset="0.3559"
   style="stop-color:#FFFFFF"
   id="midPointStop647" /><a:midPointStop
   offset="1"
   style="stop-color:#C56500"
   id="midPointStop648" /></radialGradient><path
   id="path598"
   nodetypes="ccccc"
   opacity="0.4"
   fill="url(#path598_1_)"
   d="M9.3,24.7c1.7-0.7,3.7-2.3,5.3-0.1       c1.2,2.1,0.5,5.2-3.7,6.9c-4.3,1.2-5.7-1.1-5.7-3.2C5.2,26,7.6,25.1,9.3,24.7z" /></g><rect
   y="0.3"
   i:knockout="Off"
   fill="none"
   width="48"
   height="48"
   id="rect650" /></g></g></svg>
