<?xml version="1.0" encoding="UTF-8" standalone="no"?>
<!DOCTYPE svg PUBLIC "-//W3C//DTD SVG 20010904//EN"
"http://www.w3.org/TR/2001/REC-SVG-20010904/DTD/svg10.dtd">
<!-- Created with Sodipodi ("http://www.sodipodi.com/") -->
<svg
   xmlns:x="http://ns.adobe.com/Extensibility/1.0/"
   xmlns:i="http://ns.adobe.com/AdobeIllustrator/10.0/"
   xmlns:graph="http://ns.adobe.com/Graphs/1.0/"
   xmlns="http://www.w3.org/2000/svg"
   xmlns:xlink="http://www.w3.org/1999/xlink"
   xmlns:a="http://ns.adobe.com/AdobeSVGViewerExtensions/3.0/"
   xml:space="preserve"
   i:viewOrigin="204.0645 462.9922"
   i:rulerOrigin="0 0"
   i:pageBounds="0 792 612 0"
   width="48"
   height="53.8"
   viewBox="0 0 48 53.8"
   overflow="visible"
   enable-background="new 0 0 48 53.8"
   xmlns:sodipodi="http://sodipodi.sourceforge.net/DTD/sodipodi-0.dtd"
   id="svg602"
   sodipodi:version="0.34"
   sodipodi:docname="C:\msys\home\su_blanc\mldonkey-2.5.12\src\gtk2\rsvg\emoticons\emoticon_lightning.svg"><defs
   id="defs675" /><sodipodi:namedview
   id="namedview674" /><g
   id="Layer_1"
   i:layer="yes"
   i:dimmedPercent="50"
   i:rgbTrio="#4F008000FFFF"><g
   id="g606"><g
   id="path674"
   nodetypes="cccccccc"><path
   i:knockout="Off"
   opacity="3.320000e-002"
   fill="none"
   stroke="#000000"
   stroke-width="1.0525"
   stroke-linejoin="round"
   d="       M32.9,3.3c2.8,0.1,5.7,0.9,7.8,1.9c-2,3.8-5.1,7.6-8.1,11.3c2,0,4.1,0,6.4-0.3c-3.2,6.1-7.2,13.3-12.3,18.8       c2.2-5.1,4-9.5,5.2-15.2c-1.6,0.3-3.8,0.2-5.8,0.3C29.2,15.1,31.5,8.6,32.9,3.3z"
   id="path608" /></g><g
   id="path675"
   nodetypes="cccccccc"><path
   i:knockout="Off"
   opacity="3.320000e-002"
   fill="none"
   stroke="#000000"
   stroke-width="1.7559"
   stroke-linejoin="round"
   d="       M32.9,3.3c2.8,0.1,5.7,0.9,7.8,1.9c-2,3.8-5.1,7.6-8.1,11.3c2,0,4.1,0,6.4-0.3c-3.2,6.1-7.2,13.3-12.3,18.8       c2.2-5.1,4-9.5,5.2-15.2c-1.6,0.3-3.8,0.2-5.8,0.3C29.2,15.1,31.5,8.6,32.9,3.3z"
   id="path610" /></g><g
   id="path676"
   nodetypes="cccccccc"><path
   i:knockout="Off"
   opacity="3.320000e-002"
   fill="none"
   stroke="#000000"
   stroke-width="2.5504"
   stroke-linejoin="round"
   d="       M32.9,3.3c2.8,0.1,5.7,0.9,7.8,1.9c-2,3.8-5.1,7.6-8.1,11.3c2,0,4.1,0,6.4-0.3c-3.2,6.1-7.2,13.3-12.3,18.8       c2.2-5.1,4-9.5,5.2-15.2c-1.6,0.3-3.8,0.2-5.8,0.3C29.2,15.1,31.5,8.6,32.9,3.3z"
   id="path612" /></g><g
   id="path677"
   nodetypes="cccccccc"><path
   i:knockout="Off"
   opacity="3.320000e-002"
   fill="none"
   stroke="#000000"
   stroke-width="3.4883"
   stroke-linejoin="round"
   d="       M32.9,3.3c2.8,0.1,5.7,0.9,7.8,1.9c-2,3.8-5.1,7.6-8.1,11.3c2,0,4.1,0,6.4-0.3c-3.2,6.1-7.2,13.3-12.3,18.8       c2.2-5.1,4-9.5,5.2-15.2c-1.6,0.3-3.8,0.2-5.8,0.3C29.2,15.1,31.5,8.6,32.9,3.3z"
   id="path614" /></g><g
   id="path678"
   nodetypes="cccccccc"><path
   i:knockout="Off"
   opacity="3.320000e-002"
   fill="none"
   stroke="#000000"
   stroke-width="4.8299"
   stroke-linejoin="round"
   d="       M32.9,3.3c2.8,0.1,5.7,0.9,7.8,1.9c-2,3.8-5.1,7.6-8.1,11.3c2,0,4.1,0,6.4-0.3c-3.2,6.1-7.2,13.3-12.3,18.8       c2.2-5.1,4-9.5,5.2-15.2c-1.6,0.3-3.8,0.2-5.8,0.3C29.2,15.1,31.5,8.6,32.9,3.3z"
   id="path616" /></g><g
   id="path679"
   nodetypes="cccccccc"><linearGradient
   id="XMLID_1_"
   gradientUnits="userSpaceOnUse"
   x1="-205.8242"
   y1="462.6758"
   x2="-205.8242"
   y2="462.5516"
   gradientTransform="matrix(103.8936 0 0 -225.1939 21417.1543 104202.6719)"><stop
   offset="0"
   style="stop-color:#FF6F00"
   id="stop619" /><stop
   offset="1"
   style="stop-color:#FFFF00"
   id="stop620" /><a:midPointStop
   offset="0"
   style="stop-color:#FF6F00"
   id="midPointStop621" /><a:midPointStop
   offset="0.5"
   style="stop-color:#FF6F00"
   id="midPointStop622" /><a:midPointStop
   offset="1"
   style="stop-color:#FFFF00"
   id="midPointStop623" /></linearGradient><path
   i:knockout="Off"
   fill="url(#XMLID_1_)"
   d="M32.9,3.3c2.8,0.1,5.7,0.9,7.8,1.9c-2,3.8-5.1,7.6-8.1,11.3c2,0,4.1,0,6.4-0.3       c-3.2,6.1-7.2,13.3-12.3,18.8c2.2-5.1,4-9.5,5.2-15.2c-1.6,0.3-3.8,0.2-5.8,0.3C29.2,15.1,31.5,8.6,32.9,3.3z"
   id="path624" /><path
   i:knockout="Off"
   opacity="0.7156"
   fill="none"
   stroke="#460000"
   stroke-width="0.6487"
   d="M32.9,3.3       c2.8,0.1,5.7,0.9,7.8,1.9c-2,3.8-5.1,7.6-8.1,11.3c2,0,4.1,0,6.4-0.3c-3.2,6.1-7.2,13.3-12.3,18.8c2.2-5.1,4-9.5,5.2-15.2       c-1.6,0.3-3.8,0.2-5.8,0.3C29.2,15.1,31.5,8.6,32.9,3.3z"
   id="path625" /></g><radialGradient
   id="path680_1_"
   cx="-205.2012"
   cy="462.0586"
   r="0.1457"
   fx="-205.2012"
   fy="462.0586"
   gradientTransform="matrix(77.0069 0 0 -119.0872 15833.6885 55036.3008)"
   gradientUnits="userSpaceOnUse"><stop
   offset="0"
   style="stop-color:#FFFFFF"
   id="stop627" /><stop
   offset="1"
   style="stop-color:#F5FFFF"
   id="stop628" /><a:midPointStop
   offset="0"
   style="stop-color:#FFFFFF"
   id="midPointStop629" /><a:midPointStop
   offset="0.5"
   style="stop-color:#FFFFFF"
   id="midPointStop630" /><a:midPointStop
   offset="1"
   style="stop-color:#F5FFFF"
   id="midPointStop631" /></radialGradient><path
   id="path680"
   nodetypes="cccc"
   opacity="0.7"
   fill="url(#path680_1_)"
   d="M32.9,3.3c1.3-0.1,3.8,0.7,4,0.5      c-2,3.8-9.1,16.6-10.8,16.2C29.3,15,31.5,8.6,32.9,3.3z" /><radialGradient
   id="path681_1_"
   cx="-205.8335"
   cy="462.9072"
   r="0.1461"
   fx="-205.8335"
   fy="462.9072"
   gradientTransform="matrix(51.7653 0 0 -108.3145 10685.2568 50166.5313)"
   gradientUnits="userSpaceOnUse"><stop
   offset="0"
   style="stop-color:#FFFFFF"
   id="stop634" /><stop
   offset="1"
   style="stop-color:#F5FFFF"
   id="stop635" /><a:midPointStop
   offset="0"
   style="stop-color:#FFFFFF"
   id="midPointStop636" /><a:midPointStop
   offset="0.5"
   style="stop-color:#FFFFFF"
   id="midPointStop637" /><a:midPointStop
   offset="1"
   style="stop-color:#F5FFFF"
   id="midPointStop638" /></radialGradient><path
   id="path681"
   nodetypes="cccc"
   opacity="0.7"
   fill="url(#path681_1_)"
   d="M31.9,19.9c0-0.1,1.1,0.6,1.8,2      c-1.8,3.9-5.8,13.5-7.3,13.2C29.3,30,30.5,25.1,31.9,19.9z" /><g
   id="path673"
   nodetypes="cccccccc"><path
   i:knockout="Off"
   opacity="3.320000e-002"
   fill="none"
   stroke="#000000"
   stroke-width="1.4219"
   stroke-linejoin="round"
   d="       M17.5,3.3c3.5,0,7,1,9.5,2.3c-2.7,5.8-6.8,11.6-10.8,17.2c2.5-0.1,5.1-0.3,7.9-0.8c-4.4,9.2-9.8,20.1-16.5,28.6       c3.1-7.6,5.5-14.4,7.4-22.8c-2.1,0.6-4.7,0.6-7.2,0.9C12.1,20.9,15.4,11.1,17.5,3.3z"
   id="path641" /></g><g
   id="path672"
   nodetypes="cccccccc"><path
   i:knockout="Off"
   opacity="3.320000e-002"
   fill="none"
   stroke="#000000"
   stroke-width="2.3722"
   stroke-linejoin="round"
   d="       M17.5,3.3c3.5,0,7,1,9.5,2.3c-2.7,5.8-6.8,11.6-10.8,17.2c2.5-0.1,5.1-0.3,7.9-0.8c-4.4,9.2-9.8,20.1-16.5,28.6       c3.1-7.6,5.5-14.4,7.4-22.8c-2.1,0.6-4.7,0.6-7.2,0.9C12.1,20.9,15.4,11.1,17.5,3.3z"
   id="path643" /></g><g
   id="path671"
   nodetypes="cccccccc"><path
   i:knockout="Off"
   opacity="3.320000e-002"
   fill="none"
   stroke="#000000"
   stroke-width="3.4456"
   stroke-linejoin="round"
   d="       M17.5,3.3c3.5,0,7,1,9.5,2.3c-2.7,5.8-6.8,11.6-10.8,17.2c2.5-0.1,5.1-0.3,7.9-0.8c-4.4,9.2-9.8,20.1-16.5,28.6       c3.1-7.6,5.5-14.4,7.4-22.8c-2.1,0.6-4.7,0.6-7.2,0.9C12.1,20.9,15.4,11.1,17.5,3.3z"
   id="path645" /></g><g
   id="path670"
   nodetypes="cccccccc"><path
   i:knockout="Off"
   opacity="3.320000e-002"
   fill="none"
   stroke="#000000"
   stroke-width="4.7127"
   stroke-linejoin="round"
   d="       M17.5,3.3c3.5,0,7,1,9.5,2.3c-2.7,5.8-6.8,11.6-10.8,17.2c2.5-0.1,5.1-0.3,7.9-0.8c-4.4,9.2-9.8,20.1-16.5,28.6       c3.1-7.6,5.5-14.4,7.4-22.8c-2.1,0.6-4.7,0.6-7.2,0.9C12.1,20.9,15.4,11.1,17.5,3.3z"
   id="path647" /></g><g
   id="path669"
   nodetypes="cccccccc"><path
   i:knockout="Off"
   opacity="3.320000e-002"
   fill="none"
   stroke="#000000"
   stroke-width="6.5252"
   stroke-linejoin="round"
   d="       M17.5,3.3c3.5,0,7,1,9.5,2.3c-2.7,5.8-6.8,11.6-10.8,17.2c2.5-0.1,5.1-0.3,7.9-0.8c-4.4,9.2-9.8,20.1-16.5,28.6       c3.1-7.6,5.5-14.4,7.4-22.8c-2.1,0.6-4.7,0.6-7.2,0.9C12.1,20.9,15.4,11.1,17.5,3.3z"
   id="path649" /></g><g
   id="path562"
   nodetypes="cccccccc"><linearGradient
   id="XMLID_2_"
   gradientUnits="userSpaceOnUse"
   x1="-204.5566"
   y1="462.7764"
   x2="-204.5566"
   y2="462.6522"
   gradientTransform="matrix(137.5928 0 0 -335.9719 28162.7441 155491.4688)"><stop
   offset="0"
   style="stop-color:#FF6F00"
   id="stop652" /><stop
   offset="1"
   style="stop-color:#FFFF00"
   id="stop653" /><a:midPointStop
   offset="0"
   style="stop-color:#FF6F00"
   id="midPointStop654" /><a:midPointStop
   offset="0.5"
   style="stop-color:#FF6F00"
   id="midPointStop655" /><a:midPointStop
   offset="1"
   style="stop-color:#FFFF00"
   id="midPointStop656" /></linearGradient><path
   i:knockout="Off"
   fill="url(#XMLID_2_)"
   d="M17.5,3.3c3.5,0,7,1,9.5,2.3c-2.7,5.8-6.8,11.6-10.8,17.2       c2.5-0.1,5.1-0.3,7.9-0.8c-4.4,9.2-9.8,20.1-16.5,28.6c3.1-7.6,5.5-14.4,7.4-22.8c-2.1,0.6-4.7,0.6-7.2,0.9       C12.1,20.9,15.4,11.1,17.5,3.3z"
   id="path657" /><path
   i:knockout="Off"
   opacity="0.782"
   fill="none"
   stroke="#510000"
   stroke-width="0.8764"
   d="M17.5,3.3c3.5,0,7,1,9.5,2.3       c-2.7,5.8-6.8,11.6-10.8,17.2c2.5-0.1,5.1-0.3,7.9-0.8c-4.4,9.2-9.8,20.1-16.5,28.6c3.1-7.6,5.5-14.4,7.4-22.8       c-2.1,0.6-4.7,0.6-7.2,0.9C12.1,20.9,15.4,11.1,17.5,3.3z"
   id="path658" /></g><radialGradient
   id="path662_1_"
   cx="-203.8198"
   cy="462.3477"
   r="0.1457"
   fx="-203.8198"
   fy="462.3477"
   gradientTransform="matrix(102.9999 0 0 -179.5178 21008.834 83014.5469)"
   gradientUnits="userSpaceOnUse"><stop
   offset="0"
   style="stop-color:#FFFFFF"
   id="stop660" /><stop
   offset="1"
   style="stop-color:#F5FFFF"
   id="stop661" /><a:midPointStop
   offset="0"
   style="stop-color:#FFFFFF"
   id="midPointStop662" /><a:midPointStop
   offset="0.5"
   style="stop-color:#FFFFFF"
   id="midPointStop663" /><a:midPointStop
   offset="1"
   style="stop-color:#F5FFFF"
   id="midPointStop664" /></radialGradient><path
   id="path662"
   nodetypes="cccc"
   opacity="0.7"
   fill="url(#path662_1_)"
   d="M17.5,3.3C19.1,3,22.1,4,22.4,3.7      C19.7,9.5,10.1,28.8,7.9,28.5C12.2,20.7,15.4,11.1,17.5,3.3z" /><radialGradient
   id="path668_1_"
   cx="-203.6909"
   cy="463.2109"
   r="0.1457"
   fx="-203.6909"
   fy="463.2109"
   gradientTransform="matrix(70.3449 0 0 -162.7324 14341.0723 75417.8984)"
   gradientUnits="userSpaceOnUse"><stop
   offset="0"
   style="stop-color:#FFFFFF"
   id="stop667" /><stop
   offset="1"
   style="stop-color:#F5FFFF"
   id="stop668" /><a:midPointStop
   offset="0"
   style="stop-color:#FFFFFF"
   id="midPointStop669" /><a:midPointStop
   offset="0.5"
   style="stop-color:#FFFFFF"
   id="midPointStop670" /><a:midPointStop
   offset="1"
   style="stop-color:#F5FFFF"
   id="midPointStop671" /></radialGradient><path
   id="path668"
   nodetypes="cccc"
   opacity="0.7"
   fill="url(#path668_1_)"
   d="M15.1,27.8c0-0.1,1.3,0.9,2.1,2.8      C14.7,36.5,9.2,51,7.3,50.7C11.3,42.9,13,35.7,15.1,27.8z" /></g><rect
   y="3"
   opacity="0.7"
   fill="none"
   width="48"
   height="48"
   id="rect673" /></g></svg>
