<?xml version="1.0" encoding="UTF-8" standalone="no"?>
<!DOCTYPE svg PUBLIC "-//W3C//DTD SVG 20010904//EN"
"http://www.w3.org/TR/2001/REC-SVG-20010904/DTD/svg10.dtd">
<!-- Created with Sodipodi ("http://www.sodipodi.com/") -->
<svg
   xmlns:x="http://ns.adobe.com/Extensibility/1.0/"
   xmlns:i="http://ns.adobe.com/AdobeIllustrator/10.0/"
   xmlns:graph="http://ns.adobe.com/Graphs/1.0/"
   xmlns="http://www.w3.org/2000/svg"
   xmlns:xlink="http://www.w3.org/1999/xlink"
   xmlns:a="http://ns.adobe.com/AdobeSVGViewerExtensions/3.0/"
   xml:space="preserve"
   i:viewOrigin="169.9258 427.7109"
   i:rulerOrigin="0 0"
   i:pageBounds="0 792 612 0"
   width="48"
   height="48.7"
   viewBox="0 0 48 48.7"
   overflow="visible"
   enable-background="new 0 0 48 48.7"
   xmlns:sodipodi="http://sodipodi.sourceforge.net/DTD/sodipodi-0.dtd"
   id="svg602"
   sodipodi:version="0.34"
   sodipodi:docname="C:\msys\home\su_blanc\mldonkey-2.5.12\src\gtk2\rsvg\emoticons\emoticon_sshh.svg"><defs
   id="defs737" /><sodipodi:namedview
   id="base" /><g
   id="Layer_1"
   i:knockout="Off"
   i:layer="yes"
   i:dimmedPercent="50"
   i:rgbTrio="#4F008000FFFF"><g
   id="g606"><path
   id="path597_5_"
   i:isolated="yes"
   i:knockout="Off"
   opacity="0.15"
   fill="none"
   stroke="#474000"
   stroke-width="1.8818"
   enable-background="new    "
   d="      M5.6,20.2c0-10.7,8-19.3,17.8-19.3c9.8,0,18.4,8.1,18.4,18.7c0,10.7-8.6,19.9-18.4,19.9C13.6,39.5,5.6,30.9,5.6,20.2z" /><path
   id="path597_4_"
   i:isolated="yes"
   i:knockout="Off"
   opacity="0.2"
   fill="none"
   stroke="#474000"
   stroke-width="0.9409"
   enable-background="new    "
   d="      M5.6,20.2c0-10.7,8-19.3,17.8-19.3c9.8,0,18.4,8.1,18.4,18.7c0,10.7-8.6,19.9-18.4,19.9C13.6,39.5,5.6,30.9,5.6,20.2z" /><path
   id="path597_3_"
   i:isolated="yes"
   i:knockout="Off"
   opacity="0.3"
   fill="none"
   stroke="#474000"
   stroke-width="0.4704"
   enable-background="new    "
   d="      M5.6,20.2c0-10.7,8-19.3,17.8-19.3c9.8,0,18.4,8.1,18.4,18.7c0,10.7-8.6,19.9-18.4,19.9C13.6,39.5,5.6,30.9,5.6,20.2z" /><radialGradient
   id="path700_1_"
   cx="-679.5713"
   cy="-0.7402"
   r="6.388162e-002"
   fx="-679.5713"
   fy="-0.7402"
   gradientTransform="matrix(310.7065 0 0 144.1183 211172.2188 149.3426)"
   gradientUnits="userSpaceOnUse"><stop
   offset="0"
   style="stop-color:#261700"
   id="stop611" /><stop
   offset="1"
   style="stop-color:#D2D2D2"
   id="stop612" /><a:midPointStop
   offset="0"
   style="stop-color:#261700"
   id="midPointStop613" /><a:midPointStop
   offset="0.5"
   style="stop-color:#261700"
   id="midPointStop614" /><a:midPointStop
   offset="1"
   style="stop-color:#D2D2D2"
   id="midPointStop615" /></radialGradient><path
   id="path700"
   i:isolated="yes"
   i:knockout="Off"
   opacity="0.3"
   fill="url(#path700_1_)"
   enable-background="new    "
   d="      M37.9,31.8c6.5,4.5,6,10.6-1.9,14.3c-7.9,3.7-19.5,3.1-25.9-1.5c-5.5-3.8-5.7-9.1-0.5-13.1c3.4,4.7,6.2,6.3,14,7.3      C30.1,38.7,34.3,35.8,37.9,31.8z" /><radialGradient
   id="path577_1_"
   cx="-638.4961"
   cy="42.7715"
   r="41.5567"
   fx="-638.4961"
   fy="42.7715"
   gradientTransform="matrix(298.9032 0 0 316.3969 203151.1563 -98.4275)"
   gradientUnits="userSpaceOnUse"><stop
   offset="0"
   style="stop-color:#FF6F00"
   id="stop618" /><stop
   offset="1"
   style="stop-color:#FFFF00"
   id="stop619" /><a:midPointStop
   offset="0"
   style="stop-color:#FF6F00"
   id="midPointStop620" /><a:midPointStop
   offset="0.5"
   style="stop-color:#FF6F00"
   id="midPointStop621" /><a:midPointStop
   offset="1"
   style="stop-color:#FFFF00"
   id="midPointStop622" /></radialGradient><circle
   id="path577"
   fill="url(#path577_1_)"
   cx="23.9"
   cy="20.4"
   r="17.8" /><linearGradient
   id="path597_1_"
   gradientUnits="userSpaceOnUse"
   x1="-679.5654"
   y1="0.3184"
   x2="-679.5668"
   y2="0.4371"
   gradientTransform="matrix(303.6933 0 0 316.3967 206403.3125 -98.1642)"><stop
   offset="0"
   style="stop-color:#FF6500"
   id="stop625" /><stop
   offset="1"
   style="stop-color:#FFFF00"
   id="stop626" /><a:midPointStop
   offset="0"
   style="stop-color:#FF6500"
   id="midPointStop627" /><a:midPointStop
   offset="0.5"
   style="stop-color:#FF6500"
   id="midPointStop628" /><a:midPointStop
   offset="1"
   style="stop-color:#FFFF00"
   id="midPointStop629" /></linearGradient><path
   id="path597"
   i:isolated="yes"
   i:knockout="Off"
   opacity="0.75"
   fill="url(#path597_1_)"
   enable-background="new    "
   d="      M5.6,20.2c0-10.7,8-19.3,17.8-19.3c9.9,0,18.4,8,18.4,18.7c0,10.7-8.6,19.9-18.4,19.9C13.6,39.5,5.6,30.9,5.6,20.2z" /><radialGradient
   id="path597_6_"
   cx="-486.4063"
   cy="426.7461"
   r="20.2352"
   fx="-486.4063"
   fy="426.7461"
   gradientTransform="matrix(1 0 0 -1 509.7773 427.6934)"
   gradientUnits="userSpaceOnUse"><stop
   offset="0"
   style="stop-color:#FFFFFF"
   id="stop632" /><stop
   offset="0.1046"
   style="stop-color:#FFFEFA"
   id="stop633" /><stop
   offset="0.2282"
   style="stop-color:#FFFBEC"
   id="stop634" /><stop
   offset="0.3616"
   style="stop-color:#FFF7D4"
   id="stop635" /><stop
   offset="0.5018"
   style="stop-color:#FFF1B2"
   id="stop636" /><stop
   offset="0.6474"
   style="stop-color:#FFE988"
   id="stop637" /><stop
   offset="0.7976"
   style="stop-color:#FFDF53"
   id="stop638" /><stop
   offset="0.9487"
   style="stop-color:#FFD316"
   id="stop639" /><stop
   offset="1"
   style="stop-color:#FFCF00"
   id="stop640" /><a:midPointStop
   offset="0"
   style="stop-color:#FFFFFF"
   id="midPointStop641" /><a:midPointStop
   offset="0.5"
   style="stop-color:#FFFFFF"
   id="midPointStop642" /><a:midPointStop
   offset="0.1046"
   style="stop-color:#FFFEFA"
   id="midPointStop643" /><a:midPointStop
   offset="0.5"
   style="stop-color:#FFFEFA"
   id="midPointStop644" /><a:midPointStop
   offset="0.2282"
   style="stop-color:#FFFBEC"
   id="midPointStop645" /><a:midPointStop
   offset="0.5"
   style="stop-color:#FFFBEC"
   id="midPointStop646" /><a:midPointStop
   offset="0.3616"
   style="stop-color:#FFF7D4"
   id="midPointStop647" /><a:midPointStop
   offset="0.5"
   style="stop-color:#FFF7D4"
   id="midPointStop648" /><a:midPointStop
   offset="0.5018"
   style="stop-color:#FFF1B2"
   id="midPointStop649" /><a:midPointStop
   offset="0.5"
   style="stop-color:#FFF1B2"
   id="midPointStop650" /><a:midPointStop
   offset="0.6474"
   style="stop-color:#FFE988"
   id="midPointStop651" /><a:midPointStop
   offset="0.5"
   style="stop-color:#FFE988"
   id="midPointStop652" /><a:midPointStop
   offset="0.7976"
   style="stop-color:#FFDF53"
   id="midPointStop653" /><a:midPointStop
   offset="0.5"
   style="stop-color:#FFDF53"
   id="midPointStop654" /><a:midPointStop
   offset="0.9487"
   style="stop-color:#FFD316"
   id="midPointStop655" /><a:midPointStop
   offset="0.5"
   style="stop-color:#FFD316"
   id="midPointStop656" /><a:midPointStop
   offset="1"
   style="stop-color:#FFCF00"
   id="midPointStop657" /></radialGradient><path
   id="path597_2_"
   i:isolated="yes"
   i:knockout="Off"
   opacity="0.75"
   fill="url(#path597_6_)"
   enable-background="new    "
   d="      M12.2,7.8c0-3.8,5-6.9,11.1-6.9c6.1,0,11.4,2.9,11.4,6.7C34.7,11.4,12.2,11.6,12.2,7.8z" /><rect
   id="rect662"
   y="0.7"
   i:knockout="Off"
   fill="none"
   width="48"
   height="48" /><g
   id="g660"><g
   id="g661"><radialGradient
   id="path630_1_"
   cx="-165.9014"
   cy="427.2197"
   r="0.1342"
   fx="-165.9014"
   fy="427.2197"
   gradientTransform="matrix(-47.8028 0 0 -73.2626 -7898.3047 31318.1973)"
   gradientUnits="userSpaceOnUse"><stop
   offset="0"
   style="stop-color:#DEE2E7"
   id="stop663" /><stop
   offset="1"
   style="stop-color:#FFFFFF"
   id="stop664" /><a:midPointStop
   offset="0"
   style="stop-color:#DEE2E7"
   id="midPointStop665" /><a:midPointStop
   offset="0.5"
   style="stop-color:#DEE2E7"
   id="midPointStop666" /><a:midPointStop
   offset="1"
   style="stop-color:#FFFFFF"
   id="midPointStop667" /></radialGradient><path
   id="path630"
   type="arc"
   cx="50.24698"
   cy="478.4100"
   rx="24.52531"
   ry="34.99345"
   fill="url(#path630_1_)"
   stroke="#7C5202"
   stroke-width="0.825"
   d="        M28.7,17.4c0-4,2.1-7.3,4.8-7.3c2.6,0,4.8,3.3,4.8,7.3c0,0,0,0,0,0c0,4-2.1,7.3-4.8,7.3C30.8,24.7,28.7,21.4,28.7,17.4        C28.7,17.4,28.7,17.4,28.7,17.4z" /><g
   id="path631"
   type="arc"
   cx="50.09747"
   cy="476.7646"
   rx="28.86212"
   ry="41.42389"><path
   i:knockout="Off"
   opacity="3.790000e-002"
   fill="none"
   stroke="#000000"
   stroke-width="0.75"
   d="M27.9,17.3         c0-4.5,2.5-8.1,5.5-8.1c3.1,0,5.5,3.6,5.5,8.1c0,0,0,0,0,0c0,4.5-2.5,8.1-5.5,8.1C30.4,25.4,27.9,21.8,27.9,17.3         C27.9,17.3,27.9,17.3,27.9,17.3z"
   id="path670" /></g><g
   id="path632"
   type="arc"
   cx="50.09747"
   cy="476.7646"
   rx="28.86212"
   ry="41.42389"><path
   i:knockout="Off"
   opacity="1.420000e-002"
   fill="none"
   stroke="#000000"
   stroke-width="2.608"
   d="M27.9,17.3         c0-4.4,2.5-8,5.5-8c3.1,0,5.5,3.6,5.5,8c0,0,0,0,0,0c0,4.4-2.5,8-5.5,8C30.4,25.4,27.9,21.8,27.9,17.3         C27.9,17.3,27.9,17.3,27.9,17.3z"
   id="path672" /></g><g
   id="path633"
   type="arc"
   cx="50.09747"
   cy="476.7646"
   rx="28.86212"
   ry="41.42389"><path
   i:knockout="Off"
   opacity="1.420000e-002"
   fill="none"
   stroke="#000000"
   stroke-width="1.648"
   d="M27.9,17.3         c0-4.4,2.5-8,5.5-8c3.1,0,5.5,3.6,5.5,8c0,0,0,0,0,0c0,4.4-2.5,8-5.5,8C30.4,25.4,27.9,21.8,27.9,17.3         C27.9,17.3,27.9,17.3,27.9,17.3z"
   id="path674" /></g><g
   id="path634"
   type="arc"
   cx="50.09747"
   cy="476.7646"
   rx="28.86212"
   ry="41.42389"><path
   i:knockout="Off"
   opacity="1.420000e-002"
   fill="none"
   stroke="#000000"
   stroke-width="0.5676"
   d="M27.9,17.3         c0-4.4,2.5-8,5.5-8c3.1,0,5.5,3.6,5.5,8c0,0,0,0,0,0c0,4.4-2.5,8-5.5,8C30.4,25.4,27.9,21.8,27.9,17.3         C27.9,17.3,27.9,17.3,27.9,17.3z"
   id="path676" /></g><g
   id="path635"
   type="arc"
   cx="50.09747"
   cy="476.7646"
   rx="28.86212"
   ry="41.42389"><path
   i:knockout="Off"
   opacity="0.1517"
   fill="none"
   stroke="#000000"
   stroke-width="0.2853"
   d="M28.2,17.3         c0-4.4,2.4-7.9,5.3-7.9s5.3,3.5,5.3,7.9c0,0,0,0,0,0c0,4.4-2.4,7.9-5.3,7.9C30.5,25.3,28.2,21.7,28.2,17.3         C28.2,17.3,28.2,17.3,28.2,17.3z"
   id="path678" /></g><radialGradient
   id="path637_1_"
   cx="-161.2275"
   cy="427.3115"
   r="0.1236"
   fx="-161.2275"
   fy="427.3115"
   gradientTransform="matrix(-19.9085 0 0 -23.3843 -3176.4636 10008.1807)"
   gradientUnits="userSpaceOnUse"><stop
   offset="0"
   style="stop-color:#000082"
   id="stop680" /><stop
   offset="1"
   style="stop-color:#000000"
   id="stop681" /><a:midPointStop
   offset="0"
   style="stop-color:#000082"
   id="midPointStop682" /><a:midPointStop
   offset="0.5"
   style="stop-color:#000082"
   id="midPointStop683" /><a:midPointStop
   offset="1"
   style="stop-color:#000000"
   id="midPointStop684" /></radialGradient><path
   id="path637"
   type="arc"
   cx="61.64901"
   cy="495.8291"
   rx="10.46870"
   ry="10.89169"
   fill="url(#path637_1_)"
   d="        M30.6,17.1c0-1.3,0.9-2.3,2-2.3c1.1,0,2,1,2,2.3c0,0,0,0,0,0c0,1.3-0.9,2.3-2,2.3S30.6,18.4,30.6,17.1        C30.6,17.1,30.6,17.1,30.6,17.1z" /></g><radialGradient
   id="path650_1_"
   cx="-170.5845"
   cy="427.2197"
   r="0.1342"
   fx="-170.5845"
   fy="427.2197"
   gradientTransform="matrix(47.8028 0 0 -73.2626 8169.1094 31318.1973)"
   gradientUnits="userSpaceOnUse"><stop
   offset="0"
   style="stop-color:#DEE2E7"
   id="stop687" /><stop
   offset="1"
   style="stop-color:#FFFFFF"
   id="stop688" /><a:midPointStop
   offset="0"
   style="stop-color:#DEE2E7"
   id="midPointStop689" /><a:midPointStop
   offset="0.5"
   style="stop-color:#DEE2E7"
   id="midPointStop690" /><a:midPointStop
   offset="1"
   style="stop-color:#FFFFFF"
   id="midPointStop691" /></radialGradient><path
   id="path650"
   type="arc"
   cx="50.24698"
   cy="478.4100"
   rx="24.52531"
   ry="34.99345"
   fill="url(#path650_1_)"
   stroke="#7C3902"
   stroke-width="0.825"
   d="       M18.1,17.4c0-4-2.1-7.3-4.8-7.3c-2.6,0-4.8,3.3-4.8,7.3c0,0,0,0,0,0c0,4,2.1,7.3,4.8,7.3C16,24.7,18.1,21.4,18.1,17.4       C18.1,17.4,18.1,17.4,18.1,17.4z" /><g
   id="path651"
   type="arc"
   cx="50.09747"
   cy="476.7646"
   rx="28.86212"
   ry="41.42389"><path
   i:knockout="Off"
   opacity="3.790000e-002"
   fill="none"
   stroke="#000000"
   stroke-width="0.75"
   d="M18.9,17.3        c0-4.5-2.5-8.1-5.5-8.1c-3.1,0-5.5,3.6-5.5,8.1c0,0,0,0,0,0c0,4.5,2.5,8.1,5.5,8.1C16.4,25.4,18.9,21.8,18.9,17.3        C18.9,17.3,18.9,17.3,18.9,17.3z"
   id="path694" /></g><g
   id="path652"
   type="arc"
   cx="50.09747"
   cy="476.7646"
   rx="28.86212"
   ry="41.42389"><path
   i:knockout="Off"
   opacity="1.420000e-002"
   fill="none"
   stroke="#000000"
   stroke-width="2.608"
   d="M18.9,17.3        c0-4.4-2.5-8-5.5-8c-3.1,0-5.5,3.6-5.5,8c0,0,0,0,0,0c0,4.4,2.5,8,5.5,8C16.4,25.4,18.9,21.8,18.9,17.3        C18.9,17.3,18.9,17.3,18.9,17.3z"
   id="path696" /></g><g
   id="path653"
   type="arc"
   cx="50.09747"
   cy="476.7646"
   rx="28.86212"
   ry="41.42389"><path
   i:knockout="Off"
   opacity="1.420000e-002"
   fill="none"
   stroke="#000000"
   stroke-width="1.648"
   d="M18.9,17.3        c0-4.4-2.5-8-5.5-8c-3.1,0-5.5,3.6-5.5,8c0,0,0,0,0,0c0,4.4,2.5,8,5.5,8C16.4,25.4,18.9,21.8,18.9,17.3        C18.9,17.3,18.9,17.3,18.9,17.3z"
   id="path698" /></g><g
   id="path654"
   type="arc"
   cx="50.09747"
   cy="476.7646"
   rx="28.86212"
   ry="41.42389"><path
   i:knockout="Off"
   opacity="1.420000e-002"
   fill="none"
   stroke="#000000"
   stroke-width="0.5676"
   d="M18.9,17.3        c0-4.4-2.5-8-5.5-8c-3.1,0-5.5,3.6-5.5,8c0,0,0,0,0,0c0,4.4,2.5,8,5.5,8C16.4,25.4,18.9,21.8,18.9,17.3        C18.9,17.3,18.9,17.3,18.9,17.3z"
   id="path701" /></g><g
   id="path655"
   type="arc"
   cx="50.09747"
   cy="476.7646"
   rx="28.86212"
   ry="41.42389"><path
   i:knockout="Off"
   opacity="0.1517"
   fill="none"
   stroke="#000000"
   stroke-width="0.2853"
   d="M18.6,17.3        c0-4.4-2.4-7.9-5.3-7.9C10.4,9.4,8,13,8,17.3c0,0,0,0,0,0c0,4.4,2.4,7.9,5.3,7.9C16.2,25.3,18.6,21.7,18.6,17.3        C18.6,17.3,18.6,17.3,18.6,17.3z"
   id="path703" /></g><radialGradient
   id="path656_1_"
   cx="-172.478"
   cy="427.3115"
   r="0.1237"
   fx="-172.478"
   fy="427.3115"
   gradientTransform="matrix(19.9085 0 0 -23.3843 3447.2371 10008.1807)"
   gradientUnits="userSpaceOnUse"><stop
   offset="0"
   style="stop-color:#000082"
   id="stop705" /><stop
   offset="1"
   style="stop-color:#000000"
   id="stop706" /><a:midPointStop
   offset="0"
   style="stop-color:#000082"
   id="midPointStop707" /><a:midPointStop
   offset="0.5"
   style="stop-color:#000082"
   id="midPointStop708" /><a:midPointStop
   offset="1"
   style="stop-color:#000000"
   id="midPointStop709" /></radialGradient><path
   id="path656"
   type="arc"
   cx="61.64901"
   cy="495.8291"
   rx="10.46870"
   ry="10.89169"
   fill="url(#path656_1_)"
   d="       M16.2,17.1c0-1.3-0.9-2.3-2-2.3c-1.1,0-2,1-2,2.3c0,0,0,0,0,0c0,1.3,0.9,2.3,2,2.3S16.2,18.4,16.2,17.1       C16.2,17.1,16.2,17.1,16.2,17.1z" /></g><g
   id="g711"><g
   id="path649"
   type="arc"
   cx="186.1092"
   cy="677.1830"
   rx="46.52730"
   ry="47.79620"><radialGradient
   id="XMLID_1_"
   cx="-177.5088"
   cy="436.9746"
   r="0.1274"
   fx="-177.5088"
   fy="436.9746"
   gradientTransform="matrix(25.3785 0 0 -24.5325 4529.9766 10750.4746)"
   gradientUnits="userSpaceOnUse"><stop
   offset="0"
   style="stop-color:#6E6D6D"
   id="stop714" /><stop
   offset="1"
   style="stop-color:#000000"
   id="stop715" /><a:midPointStop
   offset="0"
   style="stop-color:#6E6D6D"
   id="midPointStop716" /><a:midPointStop
   offset="0.5"
   style="stop-color:#6E6D6D"
   id="midPointStop717" /><a:midPointStop
   offset="1"
   style="stop-color:#000000"
   id="midPointStop718" /></radialGradient><path
   i:knockout="Off"
   fill="url(#XMLID_1_)"
   d="M28.3,30.4c0-1.7-1.4-3.1-3.2-3.1c-1.8,0-3.2,1.4-3.2,3.1l0,0        c0,1.7,1.4,3.1,3.2,3.1C26.9,33.5,28.3,32.1,28.3,30.4L28.3,30.4z"
   id="path719" /><path
   i:knockout="Off"
   opacity="5.000000e-002"
   fill="none"
   stroke="#000000"
   stroke-width="5.2306"
   d="M28.3,30.4        c0-1.7-1.4-3.1-3.2-3.1c-1.8,0-3.2,1.4-3.2,3.1l0,0c0,1.7,1.4,3.1,3.2,3.1C26.9,33.5,28.3,32.1,28.3,30.4L28.3,30.4z"
   id="path720" /></g><g
   id="path647"
   type="arc"
   cx="186.1092"
   cy="677.1830"
   rx="46.52730"
   ry="47.79620"><path
   i:knockout="Off"
   fill="url(#XMLID_1_)"
   d="M28.3,30.4c0-1.7-1.4-3.1-3.2-3.1c-1.8,0-3.2,1.4-3.2,3.1l0,0        c0,1.7,1.4,3.1,3.2,3.1C26.9,33.5,28.3,32.1,28.3,30.4L28.3,30.4z"
   id="path722" /><path
   i:knockout="Off"
   opacity="5.000000e-002"
   fill="none"
   stroke="#000000"
   stroke-width="6.8572"
   d="M28.3,30.4        c0-1.7-1.4-3.1-3.2-3.1c-1.8,0-3.2,1.4-3.2,3.1l0,0c0,1.7,1.4,3.1,3.2,3.1C26.9,33.5,28.3,32.1,28.3,30.4L28.3,30.4z"
   id="path723" /></g><g
   id="path662"
   type="arc"
   cx="186.1092"
   cy="677.1830"
   rx="46.52730"
   ry="47.79620"><path
   i:knockout="Off"
   fill="url(#XMLID_1_)"
   d="M28.3,30.4c0-1.7-1.4-3.1-3.2-3.1c-1.8,0-3.2,1.4-3.2,3.1l0,0        c0,1.7,1.4,3.1,3.2,3.1C26.9,33.5,28.3,32.1,28.3,30.4L28.3,30.4z"
   id="path725" /><path
   i:knockout="Off"
   opacity="5.000000e-002"
   fill="none"
   stroke="#000000"
   stroke-width="3.2851"
   d="M28.3,30.4        c0-1.7-1.4-3.1-3.2-3.1c-1.8,0-3.2,1.4-3.2,3.1l0,0c0,1.7,1.4,3.1,3.2,3.1C26.9,33.5,28.3,32.1,28.3,30.4L28.3,30.4z"
   id="path726" /></g><g
   id="path663"
   type="arc"
   cx="186.1092"
   cy="677.1830"
   rx="46.52730"
   ry="47.79620"><path
   i:knockout="Off"
   fill="url(#XMLID_1_)"
   d="M28.3,30.4c0-1.7-1.4-3.1-3.2-3.1c-1.8,0-3.2,1.4-3.2,3.1l0,0        c0,1.7,1.4,3.1,3.2,3.1C26.9,33.5,28.3,32.1,28.3,30.4L28.3,30.4z"
   id="path728" /><path
   i:knockout="Off"
   opacity="5.000000e-002"
   fill="none"
   stroke="#000000"
   stroke-width="3.7316"
   d="M28.3,30.4        c0-1.7-1.4-3.1-3.2-3.1c-1.8,0-3.2,1.4-3.2,3.1l0,0c0,1.7,1.4,3.1,3.2,3.1C26.9,33.5,28.3,32.1,28.3,30.4L28.3,30.4z"
   id="path729" /></g><g
   id="path664"
   type="arc"
   cx="186.1092"
   cy="677.1830"
   rx="46.52730"
   ry="47.79620"><path
   i:knockout="Off"
   fill="url(#XMLID_1_)"
   d="M28.3,30.4c0-1.7-1.4-3.1-3.2-3.1c-1.8,0-3.2,1.4-3.2,3.1l0,0        c0,1.7,1.4,3.1,3.2,3.1C26.9,33.5,28.3,32.1,28.3,30.4L28.3,30.4z"
   id="path731" /><path
   i:knockout="Off"
   opacity="5.000000e-002"
   fill="none"
   stroke="#000000"
   stroke-width="9.1854"
   d="M28.3,30.4        c0-1.7-1.4-3.1-3.2-3.1c-1.8,0-3.2,1.4-3.2,3.1l0,0c0,1.7,1.4,3.1,3.2,3.1C26.9,33.5,28.3,32.1,28.3,30.4L28.3,30.4z"
   id="path732" /></g><g
   id="path640"
   type="arc"
   cx="186.1092"
   cy="677.1830"
   rx="46.52730"
   ry="47.79620"><path
   i:knockout="Off"
   fill="url(#XMLID_1_)"
   d="M28.3,30.4c0-1.7-1.4-3.1-3.2-3.1s-3.2,1.4-3.2,3.1l0,0        c0,1.7,1.4,3.1,3.2,3.1S28.3,32.1,28.3,30.4L28.3,30.4z"
   id="path734" /><path
   i:knockout="Off"
   opacity="0.9451"
   fill="none"
   stroke="#561900"
   stroke-width="1.786"
   d="M28.3,30.4        c0-1.7-1.4-3.1-3.2-3.1s-3.2,1.4-3.2,3.1l0,0c0,1.7,1.4,3.1,3.2,3.1S28.3,32.1,28.3,30.4L28.3,30.4z"
   id="path735" /></g></g></g></g></svg>
