<?xml version="1.0" encoding="UTF-8" standalone="no"?>
<!DOCTYPE svg PUBLIC "-//W3C//DTD SVG 20010904//EN"
"http://www.w3.org/TR/2001/REC-SVG-20010904/DTD/svg10.dtd">
<!-- Created with Sodipodi ("http://www.sodipodi.com/") -->
<svg
   xmlns:x="http://ns.adobe.com/Extensibility/1.0/"
   xmlns:i="http://ns.adobe.com/AdobeIllustrator/10.0/"
   xmlns:graph="http://ns.adobe.com/Graphs/1.0/"
   xmlns="http://www.w3.org/2000/svg"
   xmlns:xlink="http://www.w3.org/1999/xlink"
   xmlns:a="http://ns.adobe.com/AdobeSVGViewerExtensions/3.0/"
   xml:space="preserve"
   i:viewOrigin="181.3242 457.1792"
   i:rulerOrigin="0 0"
   i:pageBounds="0 792 612 0"
   width="48.1"
   height="48.1"
   viewBox="0 0 48.1 48.1"
   overflow="visible"
   enable-background="new 0 0 48.1 48.1"
   xmlns:sodipodi="http://sodipodi.sourceforge.net/DTD/sodipodi-0.dtd"
   id="svg602"
   sodipodi:version="0.34"
   sodipodi:docname="C:\msys\home\su_blanc\mldonkey-2.5.12\src\gtk2\rsvg\emoticons\emoticon_envelope.svg"><defs
   id="defs701" /><sodipodi:namedview
   id="namedview700" /><g
   id="Layer_1"
   i:layer="yes"
   i:dimmedPercent="50"
   i:rgbTrio="#4F008000FFFF"><g
   id="g606"><g
   id="path599"><polygon
   i:knockout="Off"
   opacity="4.270000e-002"
   fill="none"
   stroke="#000000"
   stroke-width="0.8383"
   stroke-linejoin="round"
   points="       12.8,29.4 46,34.5 33.9,45.9 2,39.6 "
   id="polygon608" /></g><g
   id="path598"><polygon
   i:knockout="Off"
   opacity="4.270000e-002"
   fill="none"
   stroke="#000000"
   stroke-width="2.4425"
   stroke-linejoin="round"
   points="       12.8,29.4 46,34.5 33.9,45.9 2,39.6 "
   id="polygon610" /></g><g
   id="path597"><polygon
   i:knockout="Off"
   opacity="4.270000e-002"
   fill="none"
   stroke="#000000"
   stroke-width="1.0288"
   stroke-linejoin="round"
   points="       12.8,2 46,15.6 33.9,45.9 2,29.2 "
   id="polygon612" /></g><g
   id="path596"><polygon
   i:knockout="Off"
   opacity="4.270000e-002"
   fill="none"
   stroke="#000000"
   stroke-width="1.5685"
   stroke-linejoin="round"
   points="       12.8,2 46,15.6 33.9,45.9 2,29.2 "
   id="polygon614" /></g><g
   id="path595"><polygon
   i:knockout="Off"
   opacity="4.270000e-002"
   fill="none"
   stroke="#000000"
   stroke-width="2.537"
   stroke-linejoin="round"
   points="       12.8,2 46,15.6 33.9,45.9 2,29.2 "
   id="polygon616" /></g><g
   id="path594"><polygon
   i:knockout="Off"
   opacity="4.270000e-002"
   fill="none"
   stroke="#000000"
   stroke-width="2.9974"
   stroke-linejoin="round"
   points="       12.8,2 46,15.6 33.9,45.9 2,29.2 "
   id="polygon618" /></g><g
   id="path593"><polygon
   i:knockout="Off"
   opacity="4.270000e-002"
   fill="none"
   stroke="#000000"
   stroke-width="3.3467"
   stroke-linejoin="round"
   points="       12.8,2 46,15.6 33.9,45.9 2,29.2 "
   id="polygon620" /></g><g
   id="path592"><polygon
   i:knockout="Off"
   opacity="4.270000e-002"
   fill="none"
   stroke="#000000"
   stroke-width="3.9817"
   stroke-linejoin="round"
   points="       12.8,2 46,15.6 33.9,45.9 2,29.2 "
   id="polygon622" /></g><g
   id="path587"
   opacity="0.35"><linearGradient
   id="XMLID_1_"
   gradientUnits="userSpaceOnUse"
   x1="-181.3428"
   y1="459.7407"
   x2="-181.4408"
   y2="459.6419"
   gradientTransform="matrix(346.6713 0 0 -138.9535 62863.2344 63931.1953)"><stop
   offset="0"
   style="stop-color:#8C8D87"
   id="stop625" /><stop
   offset="1"
   style="stop-color:#FFFFFF"
   id="stop626" /><a:midPointStop
   offset="0"
   style="stop-color:#8C8D87"
   id="midPointStop627" /><a:midPointStop
   offset="0.5"
   style="stop-color:#8C8D87"
   id="midPointStop628" /><a:midPointStop
   offset="1"
   style="stop-color:#FFFFFF"
   id="midPointStop629" /></linearGradient><polygon
   i:knockout="Off"
   fill="url(#XMLID_1_)"
   points="13,28.9 46.1,34.4 34.1,46.6 2.1,39.9 "
   id="polygon630" /><polygon
   i:knockout="Off"
   opacity="4.270000e-002"
   fill="none"
   stroke="#000000"
   stroke-width="0.5318"
   stroke-linejoin="round"
   points="       13,28.9 46.1,34.4 34.1,46.6 2.1,39.9 "
   id="polygon631" /></g><linearGradient
   id="path566_1_"
   gradientUnits="userSpaceOnUse"
   x1="-181.064"
   y1="456.8423"
   x2="-181.1612"
   y2="456.7443"
   gradientTransform="matrix(346.6713 0 0 -345.7833 62811.7344 157973.7031)"><stop
   offset="0"
   style="stop-color:#8C8D87"
   id="stop633" /><stop
   offset="1"
   style="stop-color:#FFFFFF"
   id="stop634" /><a:midPointStop
   offset="0"
   style="stop-color:#8C8D87"
   id="midPointStop635" /><a:midPointStop
   offset="0.5"
   style="stop-color:#8C8D87"
   id="midPointStop636" /><a:midPointStop
   offset="1"
   style="stop-color:#FFFFFF"
   id="midPointStop637" /></linearGradient><polygon
   id="path566"
   fill="url(#path566_1_)"
   stroke="#000000"
   stroke-width="0.8383"
   stroke-linejoin="round"
   points="12.8,2       46,15.6 33.9,45.9 2,29.2 " /><radialGradient
   id="path606_1_"
   cx="-181.0972"
   cy="456.7339"
   r="6.696224e-002"
   fx="-181.0972"
   fy="456.7339"
   gradientTransform="matrix(369.6523 0 0 -375.8356 66968.3438 171698.8281)"
   gradientUnits="userSpaceOnUse"><stop
   offset="0"
   style="stop-color:#FFFFFF"
   id="stop640" /><stop
   offset="1"
   style="stop-color:#FFFFFF"
   id="stop641" /><a:midPointStop
   offset="0"
   style="stop-color:#FFFFFF"
   id="midPointStop642" /><a:midPointStop
   offset="0.5"
   style="stop-color:#FFFFFF"
   id="midPointStop643" /><a:midPointStop
   offset="1"
   style="stop-color:#FFFFFF"
   id="midPointStop644" /></radialGradient><polygon
   id="path606"
   opacity="0.18"
   fill="url(#path606_1_)"
   points="12.2,0.2 47.6,15 34.7,47.9 0.6,29.8 " /><linearGradient
   id="path584_1_"
   gradientUnits="userSpaceOnUse"
   x1="-181.0054"
   y1="457.3882"
   x2="-181.0529"
   y2="457.3634"
   gradientTransform="matrix(250.6259 0 0 -165.938 45396.6953 75930.7031)"><stop
   offset="0"
   style="stop-color:#54523D"
   id="stop647" /><stop
   offset="1"
   style="stop-color:#FFFFFF"
   id="stop648" /><a:midPointStop
   offset="0"
   style="stop-color:#54523D"
   id="midPointStop649" /><a:midPointStop
   offset="0.5"
   style="stop-color:#54523D"
   id="midPointStop650" /><a:midPointStop
   offset="1"
   style="stop-color:#FFFFFF"
   id="midPointStop651" /></linearGradient><path
   id="path584"
   nodetypes="cccc"
   opacity="0.4"
   fill="url(#path584_1_)"
   d="M2,29.2c6.8-0.9,13.5-2.6,20-4.5      C25.6,32,29.4,39,33.9,45.8C23.3,40.2,12.6,34.7,2,29.2z" /><linearGradient
   id="path582_1_"
   gradientUnits="userSpaceOnUse"
   x1="-181.0889"
   y1="457.4292"
   x2="-181.0759"
   y2="457.3945"
   gradientTransform="matrix(250.6259 0 0 -165.938 45396.6953 75930.7031)"><stop
   offset="0"
   style="stop-color:#54523D"
   id="stop654" /><stop
   offset="1"
   style="stop-color:#FFFFFF"
   id="stop655" /><a:midPointStop
   offset="0"
   style="stop-color:#54523D"
   id="midPointStop656" /><a:midPointStop
   offset="0.5"
   style="stop-color:#54523D"
   id="midPointStop657" /><a:midPointStop
   offset="1"
   style="stop-color:#FFFFFF"
   id="midPointStop658" /></linearGradient><path
   id="path582"
   nodetypes="cccc"
   opacity="0.4"
   fill="url(#path582_1_)"
   d="M2,29.2c6.8-0.9,13.5-2.6,20-4.5      C25.6,32,29.4,39,33.9,45.8C23.3,40.2,12.6,34.7,2,29.2z" /><linearGradient
   id="path586_1_"
   gradientUnits="userSpaceOnUse"
   x1="13.1187"
   y1="13.3589"
   x2="46.0679"
   y2="13.3589"><stop
   offset="0"
   style="stop-color:#FFFFFF"
   id="stop661" /><stop
   offset="0.1527"
   style="stop-color:#D5E3F5"
   id="stop662" /><stop
   offset="0.3582"
   style="stop-color:#A3C2E8"
   id="stop663" /><stop
   offset="0.5525"
   style="stop-color:#7CA8DF"
   id="stop664" /><stop
   offset="0.7299"
   style="stop-color:#6095D8"
   id="stop665" /><stop
   offset="0.8848"
   style="stop-color:#4F8AD3"
   id="stop666" /><stop
   offset="1"
   style="stop-color:#4986D2"
   id="stop667" /><a:midPointStop
   offset="0"
   style="stop-color:#FFFFFF"
   id="midPointStop668" /><a:midPointStop
   offset="0.3559"
   style="stop-color:#FFFFFF"
   id="midPointStop669" /><a:midPointStop
   offset="1"
   style="stop-color:#4986D2"
   id="midPointStop670" /></linearGradient><path
   id="path586"
   nodetypes="cccc"
   fill="url(#path586_1_)"
   stroke="#474129"
   stroke-width="0.4128"
   stroke-linejoin="round"
   d="      M13.1,2.1c2.4,7.4,5.5,15.2,8.9,22.5c8.2-2.5,16.3-5.6,24.1-9C35.1,11,24,6.7,13.1,2.1z" /><path
   id="path567"
   nodetypes="ccccc"
   i:knockout="Off"
   fill="none"
   stroke="#494951"
   stroke-width="0.254"
   d="      M12.8,1.9c5,14.9,12,30,21,43.8C23.2,40.1,12.6,34.8,2,29.2c13.2-1.7,33.9-8.4,44-13.6C37.8,12.6,15.3,2.8,12.8,1.9z" /><linearGradient
   id="path579_1_"
   gradientUnits="userSpaceOnUse"
   x1="-181.3345"
   y1="456.4331"
   x2="-181.3558"
   y2="456.4738"
   gradientTransform="matrix(261.4037 0 0 -178.5561 47436.6914 81520.7813)"><stop
   offset="0"
   style="stop-color:#54523D"
   id="stop674" /><stop
   offset="1"
   style="stop-color:#FFFFFF"
   id="stop675" /><a:midPointStop
   offset="0"
   style="stop-color:#54523D"
   id="midPointStop676" /><a:midPointStop
   offset="0.5"
   style="stop-color:#54523D"
   id="midPointStop677" /><a:midPointStop
   offset="1"
   style="stop-color:#FFFFFF"
   id="midPointStop678" /></linearGradient><path
   id="path579"
   nodetypes="cccc"
   opacity="0.2"
   fill="url(#path579_1_)"
   d="M12.9,2c2.6,7.5,5.6,15.6,9.1,22.7      c8.3-2.5,16.4-5.4,24.1-9.1C34.9,11.3,24,6.5,12.9,2z" /><linearGradient
   id="path580_1_"
   gradientUnits="userSpaceOnUse"
   x1="-181.417"
   y1="456.4741"
   x2="-181.3816"
   y2="456.4871"
   gradientTransform="matrix(261.4037 0 0 -178.1523 47436.6914 81336.1719)"><stop
   offset="0"
   style="stop-color:#54523D"
   id="stop681" /><stop
   offset="1"
   style="stop-color:#FFFFFF"
   id="stop682" /><a:midPointStop
   offset="0"
   style="stop-color:#54523D"
   id="midPointStop683" /><a:midPointStop
   offset="0.5"
   style="stop-color:#54523D"
   id="midPointStop684" /><a:midPointStop
   offset="1"
   style="stop-color:#FFFFFF"
   id="midPointStop685" /></linearGradient><path
   id="path580"
   nodetypes="cccc"
   opacity="0.2"
   fill="url(#path580_1_)"
   d="M12.9,2c2.6,7.5,5.6,15.5,9.1,22.6      c8.4-2.2,16.4-5.3,24.1-9.1C34.9,11.3,24,6.5,12.9,2z" /><linearGradient
   id="path600_1_"
   gradientUnits="userSpaceOnUse"
   x1="8.7939"
   y1="12.1558"
   x2="46.2358"
   y2="12.1558"><stop
   offset="0"
   style="stop-color:#FFFFFF"
   id="stop688" /><stop
   offset="0.1216"
   style="stop-color:#FAFBFE"
   id="stop689" /><stop
   offset="0.273"
   style="stop-color:#EAF1FA"
   id="stop690" /><stop
   offset="0.4402"
   style="stop-color:#D1E0F4"
   id="stop691" /><stop
   offset="0.6188"
   style="stop-color:#AEC9EB"
   id="stop692" /><stop
   offset="0.8065"
   style="stop-color:#80ABE0"
   id="stop693" /><stop
   offset="1"
   style="stop-color:#4986D2"
   id="stop694" /><a:midPointStop
   offset="0"
   style="stop-color:#FFFFFF"
   id="midPointStop695" /><a:midPointStop
   offset="0.661"
   style="stop-color:#FFFFFF"
   id="midPointStop696" /><a:midPointStop
   offset="1"
   style="stop-color:#4986D2"
   id="midPointStop697" /></linearGradient><path
   id="path600"
   nodetypes="cssssccs"
   opacity="0.4"
   fill="url(#path600_1_)"
   d="M44.5,19.4      c-0.7,1.5-4.2,3.6-8.3,3.1c-5.2-0.9-7.9-7-11.9-7c-4-0.2-6.3,3.3-10.4,3.4C11.1,19.1,8,14.3,9,11.7l3.8-10l33.5,13.9L44.5,19.4z      " /></g><rect
   x="0.1"
   y="0.1"
   i:knockout="Off"
   fill="none"
   width="48"
   height="48"
   id="rect699" /></g></svg>
