<?xml version="1.0" encoding="UTF-8" standalone="no"?>
<!DOCTYPE svg PUBLIC "-//W3C//DTD SVG 20010904//EN"
"http://www.w3.org/TR/2001/REC-SVG-20010904/DTD/svg10.dtd">
<!-- Created with Sodipodi ("http://www.sodipodi.com/") -->
<svg
   xmlns:x="http://ns.adobe.com/Extensibility/1.0/"
   xmlns:i="http://ns.adobe.com/AdobeIllustrator/10.0/"
   xmlns:graph="http://ns.adobe.com/Graphs/1.0/"
   xmlns="http://www.w3.org/2000/svg"
   xmlns:xlink="http://www.w3.org/1999/xlink"
   xmlns:a="http://ns.adobe.com/AdobeSVGViewerExtensions/3.0/"
   xml:space="preserve"
   i:viewOrigin="190.6309 634.5063"
   i:rulerOrigin="0 0"
   i:pageBounds="0 792 612 0"
   width="52.7"
   height="54"
   viewBox="0 0 52.7 54"
   overflow="visible"
   enable-background="new 0 0 52.7 54"
   xmlns:sodipodi="http://sodipodi.sourceforge.net/DTD/sodipodi-0.dtd"
   id="svg602"
   sodipodi:version="0.34"
   sodipodi:docname="C:\msys\home\su_blanc\mldonkey-2.5.12\src\gtk2\rsvg\emoticons\emoticon_love.svg"><defs
   id="defs647" /><sodipodi:namedview
   id="namedview646" /><g
   id="Layer_1"
   i:layer="yes"
   i:dimmedPercent="50"
   i:rgbTrio="#4F008000FFFF"><g
   id="g606"><g
   id="path582"
   nodetypes="csscssc"><path
   i:knockout="Off"
   opacity="3.000000e-002"
   fill="none"
   stroke="#000000"
   stroke-width="4.5262"
   stroke-linejoin="round"
   d="       M24.5,10.3c2.5-4.9,7.5-7.4,13.2-7.1c6.1,0.4,13.1,8,11.5,16.8c-1.5,8.6-9.8,24.2-23.8,30.7c-1.7-8.7-12.6-13.7-18.6-19.5       c-5.8-5.7-3.8-15.5-0.3-19.4C9.9,8.1,18.2,5,24.5,10.3z"
   id="path608" /></g><g
   id="path577"
   nodetypes="csscssc"><path
   i:knockout="Off"
   opacity="3.000000e-002"
   fill="none"
   stroke="#000000"
   stroke-width="6.4818"
   stroke-linejoin="round"
   d="       M24.5,10.3c2.5-4.9,7.5-7.4,13.2-7.1c6.1,0.4,13.1,8,11.5,16.8c-1.5,8.6-9.8,24.2-23.8,30.7c-1.7-8.7-12.6-13.7-18.6-19.5       c-5.8-5.7-3.8-15.5-0.3-19.4C9.9,8.1,18.2,5,24.5,10.3z"
   id="path610" /></g><linearGradient
   id="path564_1_"
   gradientUnits="userSpaceOnUse"
   x1="-190.3262"
   y1="634.4771"
   x2="-190.3019"
   y2="634.3784"
   gradientTransform="matrix(470.1058 0 0 -483.0744 89497.5625 306511.375)"><stop
   offset="0"
   style="stop-color:#FF0000"
   id="stop612" /><stop
   offset="1"
   style="stop-color:#C50000"
   id="stop613" /><a:midPointStop
   offset="0"
   style="stop-color:#FF0000"
   id="midPointStop614" /><a:midPointStop
   offset="0.5"
   style="stop-color:#FF0000"
   id="midPointStop615" /><a:midPointStop
   offset="1"
   style="stop-color:#C50000"
   id="midPointStop616" /></linearGradient><path
   id="path564"
   nodetypes="csscssc"
   fill="url(#path564_1_)"
   stroke="#C90000"
   stroke-width="1.9064"
   d="M24.5,10.3      c2.5-4.9,7.5-7.4,13.2-7.1c6.1,0.4,13.1,8,11.5,16.8c-1.5,8.6-9.8,24.2-23.8,30.7c-1.7-8.7-12.6-13.7-18.6-19.5      c-5.8-5.7-3.8-15.5-0.3-19.4C9.9,8.1,18.2,5,24.5,10.3z" /><radialGradient
   id="path575_1_"
   cx="39.8984"
   cy="4.5234"
   r="28.2983"
   fx="39.8984"
   fy="4.5234"
   gradientUnits="userSpaceOnUse"><stop
   offset="0"
   style="stop-color:#FFFFFF"
   id="stop619" /><stop
   offset="0.4617"
   style="stop-color:#FF8383"
   id="stop620" /><stop
   offset="0.8337"
   style="stop-color:#FF2525"
   id="stop621" /><stop
   offset="1"
   style="stop-color:#FF0000"
   id="stop622" /><a:midPointStop
   offset="0"
   style="stop-color:#FFFFFF"
   id="midPointStop623" /><a:midPointStop
   offset="0.4746"
   style="stop-color:#FFFFFF"
   id="midPointStop624" /><a:midPointStop
   offset="1"
   style="stop-color:#FF0000"
   id="midPointStop625" /></radialGradient><path
   id="path575"
   nodetypes="csscssc"
   opacity="0.5"
   fill="url(#path575_1_)"
   d="M24.5,10.3c2.5-4.9,7.5-7.4,13.2-7.1      c6.1,0.4,13.1,8,11.5,16.8c-1.5,8.6-9.8,24.2-23.8,30.7c-1.7-8.7-12.6-13.7-18.6-19.5c-5.8-5.7-3.8-15.5-0.3-19.4      C9.9,8.1,18.2,5,24.5,10.3z" /><radialGradient
   id="path570_1_"
   cx="-190.2866"
   cy="634.4683"
   r="7.972657e-002"
   fx="-190.2866"
   fy="634.4683"
   gradientTransform="matrix(470.1058 0 0 -284.6221 89497.5625 180592.0469)"
   gradientUnits="userSpaceOnUse"><stop
   offset="0"
   style="stop-color:#FFFFFF"
   id="stop628" /><stop
   offset="3.241991e-002"
   style="stop-color:#FFF6F6"
   id="stop629" /><stop
   offset="0.2677"
   style="stop-color:#FFBCBC"
   id="stop630" /><stop
   offset="0.4688"
   style="stop-color:#FF9292"
   id="stop631" /><stop
   offset="0.6257"
   style="stop-color:#FF7878"
   id="stop632" /><stop
   offset="0.7191"
   style="stop-color:#FF6E6E"
   id="stop633" /><stop
   offset="0.7832"
   style="stop-color:#FF5252"
   id="stop634" /><stop
   offset="0.8876"
   style="stop-color:#FF1D1D"
   id="stop635" /><stop
   offset="1"
   style="stop-color:#FF0000"
   id="stop636" /><a:midPointStop
   offset="0"
   style="stop-color:#FFFFFF"
   id="midPointStop637" /><a:midPointStop
   offset="0.4068"
   style="stop-color:#FFFFFF"
   id="midPointStop638" /><a:midPointStop
   offset="0.7191"
   style="stop-color:#FF6E6E"
   id="midPointStop639" /><a:midPointStop
   offset="0.5333"
   style="stop-color:#FF6E6E"
   id="midPointStop640" /><a:midPointStop
   offset="0.8876"
   style="stop-color:#FF1D1D"
   id="midPointStop641" /><a:midPointStop
   offset="0.5"
   style="stop-color:#FF1D1D"
   id="midPointStop642" /><a:midPointStop
   offset="1"
   style="stop-color:#FF0000"
   id="midPointStop643" /></radialGradient><path
   id="path570"
   nodetypes="cscscsc"
   opacity="0.58"
   fill="url(#path570_1_)"
   d="M24.5,10.3      c2.5-4.9,7.5-7.4,13.2-7.1c6.1,0.4,13.1,8,11.5,16.8c-6.2-4.2-13.5-4-23.3-1.9C17.1,20,10.2,24.8,6.9,31.2      c-5.8-5.7-3.8-15.5-0.3-19.4C9.9,8.1,18.2,5,24.5,10.3z" /></g><rect
   x="2.4"
   y="3"
   i:knockout="Off"
   fill="none"
   width="48"
   height="48"
   id="rect645" /></g></svg>
