<?xml version="1.0" encoding="UTF-8" standalone="no"?>
<!DOCTYPE svg PUBLIC "-//W3C//DTD SVG 20010904//EN"
"http://www.w3.org/TR/2001/REC-SVG-20010904/DTD/svg10.dtd">
<!-- Created with Sodipodi ("http://www.sodipodi.com/") -->
<svg
   xmlns:x="http://ns.adobe.com/Extensibility/1.0/"
   xmlns:i="http://ns.adobe.com/AdobeIllustrator/10.0/"
   xmlns:graph="http://ns.adobe.com/Graphs/1.0/"
   xmlns="http://www.w3.org/2000/svg"
   xmlns:xlink="http://www.w3.org/1999/xlink"
   xmlns:a="http://ns.adobe.com/AdobeSVGViewerExtensions/3.0/"
   xml:space="preserve"
   i:viewOrigin="288.0298 415.1992"
   i:rulerOrigin="0 0"
   i:pageBounds="0 792 612 0"
   width="37.7"
   height="38.1"
   viewBox="0 0 37.7 38.1"
   overflow="visible"
   enable-background="new 0 0 37.7 38.1"
   xmlns:sodipodi="http://sodipodi.sourceforge.net/DTD/sodipodi-0.dtd"
   id="svg602"
   sodipodi:version="0.34"
   sodipodi:docname="C:\msys\home\su_blanc\mldonkey-2.5.12\src\gtk2\rsvg\menu_searches.svg"><defs
   id="defs662" /><sodipodi:namedview
   id="base" /><g
   id="Layer_x0020_1"
   i:knockout="Off"
   i:layer="yes"
   i:dimmedPercent="50"
   i:rgbTrio="#4F008000FFFF"><g
   id="g606"
   i:isolated="yes"
   i:knockout="Off"
   enable-background="new    "><g
   id="g607"
   i:knockout="Off"><path
   fill="#1C1B3C"
   d="M16.5,0C7.3,0-0.3,7.3,0,16.5C0,25.7,7.3,33,16.5,33C25.7,33,33,25.7,33,16.5S25.7,0,16.5,0z        M16.5,27.3c-6,0-10.8-4.8-10.8-10.8c-0.2-6,4.8-10.8,10.8-10.8c6,0,10.8,4.8,10.8,10.8S22.5,27.3,16.5,27.3z"
   id="path608" /></g></g><path
   fill="#919191"
   d="M36.7,32.3l-5.2-5.2c-0.8-0.8-2.2-1.2-3.4-0.8c2.2-2.6,3.6-6,3.6-9.8c0-8.4-6.8-15.4-15.4-15.4     C7.9,1.1,0.9,7.9,0.9,16.5c0,8.4,6.8,15.4,15.4,15.4c3.6,0,7-1.4,9.8-3.4c-0.4,1.2-0.2,2.4,0.8,3.4l5.2,5.2     c1.2,1.2,3.4,1.2,4.6,0c1.2-1.2,1.2-3.4,0-4.6V32.3z M16.5,29.9c-7.4,0-13.2-6-13.2-13.2c0-7.4,6-13.2,13.2-13.2     c7.4,0,13.2,6,13.2,13.2C29.7,24.1,23.7,29.9,16.5,29.9z"
   id="path609" /><path
   id="path617"
   i:isolated="yes"
   i:knockout="Off"
   opacity="0.5"
   fill="none"
   stroke="#FFFFFF"
   stroke-width="0.3711"
   stroke-linecap="round"
   enable-background="new    "
   d="     M1.9,16.3c0-7.8,6.4-14.2,14.2-14.2" /><path
   id="path618"
   i:isolated="yes"
   i:knockout="Off"
   opacity="0.5"
   fill="none"
   stroke="#FFFFFF"
   stroke-width="0.3711"
   stroke-linecap="round"
   enable-background="new    "
   d="     M30.1,17.7c0,7-5.6,12.6-12.6,12.6" /><radialGradient
   id="path634_1_"
   cx="-851.7539"
   cy="400.7637"
   r="8.6705"
   fx="-851.7539"
   fy="400.7637"
   gradientTransform="matrix(2 0 0 -2 1724.4077 823.8984)"
   gradientUnits="userSpaceOnUse"><stop
   offset="0"
   style="stop-color:#FFFFFF"
   id="stop613" /><stop
   offset="0.7303"
   style="stop-color:#3F4A8E"
   id="stop614" /><stop
   offset="0.8388"
   style="stop-color:#3A4A92"
   id="stop615" /><stop
   offset="0.997"
   style="stop-color:#2C499E"
   id="stop616" /><stop
   offset="1"
   style="stop-color:#2C499E"
   id="stop617" /><a:midPointStop
   offset="0"
   style="stop-color:#FFFFFF"
   id="midPointStop618" /><a:midPointStop
   offset="0.5"
   style="stop-color:#FFFFFF"
   id="midPointStop619" /><a:midPointStop
   offset="0.7303"
   style="stop-color:#3F4A8E"
   id="midPointStop620" /><a:midPointStop
   offset="0.5"
   style="stop-color:#3F4A8E"
   id="midPointStop621" /><a:midPointStop
   offset="0.8388"
   style="stop-color:#3A4A92"
   id="midPointStop622" /><a:midPointStop
   offset="0.5"
   style="stop-color:#3A4A92"
   id="midPointStop623" /><a:midPointStop
   offset="0.997"
   style="stop-color:#2C499E"
   id="midPointStop624" /><a:midPointStop
   offset="0.5"
   style="stop-color:#2C499E"
   id="midPointStop625" /><a:midPointStop
   offset="1"
   style="stop-color:#2C499E"
   id="midPointStop626" /></radialGradient><path
   id="path634"
   i:isolated="yes"
   i:knockout="Off"
   opacity="0.47"
   fill="url(#path634_1_)"
   enable-background="new    "
   d="     M27.3,16.5c0,6-4.8,10.8-10.8,10.8c-6,0-10.8-4.8-10.8-10.8c-0.2-6,4.8-10.8,10.8-10.8C22.5,5.7,27.3,10.5,27.3,16.5z" /><linearGradient
   id="path641_1_"
   gradientUnits="userSpaceOnUse"
   x1="-861.439"
   y1="412.0361"
   x2="-852.9818"
   y2="403.5788"
   gradientTransform="matrix(1 0 0 -1 871.4395 421.7988)"><stop
   offset="0"
   style="stop-color:#FFFFFF"
   id="stop629" /><stop
   offset="1"
   style="stop-color:#A8BDDB"
   id="stop630" /><a:midPointStop
   offset="0"
   style="stop-color:#FFFFFF"
   id="midPointStop631" /><a:midPointStop
   offset="0.5"
   style="stop-color:#FFFFFF"
   id="midPointStop632" /><a:midPointStop
   offset="1"
   style="stop-color:#A8BDDB"
   id="midPointStop633" /></linearGradient><path
   id="path641"
   fill="url(#path641_1_)"
   d="M6.5,16.5c0-5.4,4.4-10,10-10C29.9,6.5,6.5,28.5,6.5,16.5z" /><path
   id="path642"
   i:isolated="yes"
   i:knockout="Off"
   opacity="0.48"
   fill="url(#path641_1_)"
   enable-background="new    "
   d="     M6.5,16.5c0-5.4,4.4-10,10-10C29.9,6.5,6.5,28.5,6.5,16.5z" /><linearGradient
   id="circle642_1_"
   gradientUnits="userSpaceOnUse"
   x1="-256.6909"
   y1="388.1387"
   x2="-261.2866"
   y2="383.543"
   gradientTransform="matrix(1 0 0 -1 288.0386 415.1992)"><stop
   offset="0"
   style="stop-color:#FF0000"
   id="stop637" /><stop
   offset="1"
   style="stop-color:#810000"
   id="stop638" /><a:midPointStop
   offset="0"
   style="stop-color:#FF0000"
   id="midPointStop639" /><a:midPointStop
   offset="0.5"
   style="stop-color:#FF0000"
   id="midPointStop640" /><a:midPointStop
   offset="1"
   style="stop-color:#810000"
   id="midPointStop641" /></linearGradient><circle
   id="circle642"
   fill="url(#circle642_1_)"
   cx="29"
   cy="29.4"
   r="3.3" /><linearGradient
   id="circle649_1_"
   gradientUnits="userSpaceOnUse"
   x1="-251.2905"
   y1="382.7383"
   x2="-255.8862"
   y2="378.1426"
   gradientTransform="matrix(1 0 0 -1 288.0386 415.1992)"><stop
   offset="0"
   style="stop-color:#FF0000"
   id="stop644" /><stop
   offset="1"
   style="stop-color:#810000"
   id="stop645" /><a:midPointStop
   offset="0"
   style="stop-color:#FF0000"
   id="midPointStop646" /><a:midPointStop
   offset="0.5"
   style="stop-color:#FF0000"
   id="midPointStop647" /><a:midPointStop
   offset="1"
   style="stop-color:#810000"
   id="midPointStop648" /></linearGradient><circle
   id="circle649"
   fill="url(#circle649_1_)"
   cx="34.4"
   cy="34.8"
   r="3.3" /><linearGradient
   id="polygon615_1_"
   gradientUnits="userSpaceOnUse"
   x1="-837.3696"
   y1="391.959"
   x2="-841.9387"
   y2="387.3899"
   gradientTransform="matrix(1 0 0 -1 871.4395 421.7988)"><stop
   offset="0"
   style="stop-color:#FF3200"
   id="stop651" /><stop
   offset="0.3315"
   style="stop-color:#FFED00"
   id="stop652" /><stop
   offset="1"
   style="stop-color:#FF3000"
   id="stop653" /><a:midPointStop
   offset="0"
   style="stop-color:#FF3200"
   id="midPointStop654" /><a:midPointStop
   offset="0.5"
   style="stop-color:#FF3200"
   id="midPointStop655" /><a:midPointStop
   offset="0.3315"
   style="stop-color:#FFED00"
   id="midPointStop656" /><a:midPointStop
   offset="0.5"
   style="stop-color:#FFED00"
   id="midPointStop657" /><a:midPointStop
   offset="1"
   style="stop-color:#FF3000"
   id="midPointStop658" /></linearGradient><polygon
   id="polygon615"
   fill="url(#polygon615_1_)"
   points="31.5,27.2 26.9,31.8 32.1,37 36.7,32.4 " /><line
   id="line616"
   i:isolated="yes"
   i:knockout="Off"
   opacity="0.54"
   fill="none"
   stroke="#FFFFFF"
   stroke-width="0.7422"
   stroke-linecap="round"
   enable-background="new    "
   x1="30.1"
   y1="28.8"
   x2="34.9"
   y2="33.6" /></g></svg>
