<?xml version="1.0" encoding="UTF-8" standalone="no"?>
<!DOCTYPE svg PUBLIC "-//W3C//DTD SVG 20010904//EN"
"http://www.w3.org/TR/2001/REC-SVG-20010904/DTD/svg10.dtd">
<!-- Created with Sodipodi ("http://www.sodipodi.com/") -->
<svg
   xmlns:x="http://ns.adobe.com/Extensibility/1.0/"
   xmlns:i="http://ns.adobe.com/AdobeIllustrator/10.0/"
   xmlns:graph="http://ns.adobe.com/Graphs/1.0/"
   xmlns="http://www.w3.org/2000/svg"
   xmlns:xlink="http://www.w3.org/1999/xlink"
   xmlns:a="http://ns.adobe.com/AdobeSVGViewerExtensions/3.0/"
   xml:space="preserve"
   i:viewOrigin="254.7554 417.3457"
   i:rulerOrigin="0 1"
   i:pageBounds="0 791 612 -1"
   width="48.3"
   height="37.4"
   viewBox="0 0 48.3 37.4"
   overflow="visible"
   enable-background="new 0 0 48.3 37.4"
   xmlns:sodipodi="http://sodipodi.sourceforge.net/DTD/sodipodi-0.dtd"
   id="svg602"
   sodipodi:version="0.34"
   sodipodi:docname="C:\msys\home\su_blanc\mldonkey-2.5.12\src\gtk2\rsvg\menu_search_imdb.svg"><defs
   id="defs631" /><sodipodi:namedview
   id="base" /><g
   id="Layer_1"
   i:layer="yes"
   i:dimmedPercent="50"
   i:rgbTrio="#4F008000FFFF"><radialGradient
   id="XMLID_2_"
   cx="16.3984"
   cy="10.7207"
   r="33.9042"
   fx="16.3984"
   fy="10.7207"
   gradientTransform="matrix(1 0 0 1.44 0 -8.237)"
   gradientUnits="userSpaceOnUse"><stop
   offset="0"
   style="stop-color:#FFFF46"
   id="stop606" /><stop
   offset="0.3719"
   style="stop-color:#EDD83A"
   id="stop607" /><stop
   offset="0.6573"
   style="stop-color:#E1BF33"
   id="stop608" /><stop
   offset="0.771"
   style="stop-color:#DABA32"
   id="stop609" /><stop
   offset="0.9302"
   style="stop-color:#C8AA2F"
   id="stop610" /><stop
   offset="1"
   style="stop-color:#BEA22D"
   id="stop611" /><a:midPointStop
   offset="0"
   style="stop-color:#FFFF46"
   id="midPointStop612" /><a:midPointStop
   offset="0.4633"
   style="stop-color:#FFFF46"
   id="midPointStop613" /><a:midPointStop
   offset="0.6573"
   style="stop-color:#E1BF33"
   id="midPointStop614" /><a:midPointStop
   offset="0.6341"
   style="stop-color:#E1BF33"
   id="midPointStop615" /><a:midPointStop
   offset="1"
   style="stop-color:#BEA22D"
   id="midPointStop616" /></radialGradient><path
   i:knockout="Off"
   fill="url(#XMLID_2_)"
   d="M45.2,0H2.5C1.2,3.7,2.8,6.6,0,8.1v20.5c3,1.6,1.5,4.8,2.8,8.8h42.1     c1.4-4.2,0.3-7.4,3.4-9V8.3C45.3,6.8,46.6,3.8,45.2,0z"
   id="path617" /><g
   id="g618"><path
   i:knockout="Off"
   fill="none"
   stroke="#FFFFFF"
   stroke-width="1.2"
   d="M45.9,20.4c0,7.6-4.3,13.8-9.6,13.8H11.7      c-5.3,0-9.6-6.2-9.6-13.8v-3.3c0-7.6,4.3-13.8,9.6-13.8h24.7c5.3,0,9.6,6.2,9.6,13.8V20.4z"
   id="path619" /><g
   i:knockout="Off"
   id="g620"><path
   i:knockout="Off"
   fill="#FFFFFF"
   d="M9.1,7.7v20.5H5.4V7.7H9.1z"
   id="path621" /><path
   i:knockout="Off"
   fill="#FFFFFF"
   d="M22,7.7v20.5h-3.3l0-13.8l-1.3,13.8h-2.3l-1.4-13.5l0,13.5h-3.3V7.7h4.8       c0.1,1.2,0.3,2.7,0.4,4.3l0.5,5.2l0.9-9.6H22z"
   id="path622" /><path
   i:knockout="Off"
   fill="#FFFFFF"
   d="M23.5,7.7h2.8c1.8,0,3,0.1,3.6,0.4c0.6,0.2,1.1,0.6,1.4,1.2c0.3,0.5,0.5,1.1,0.6,1.8       c0.1,0.7,0.1,2,0.1,3.9v7.2c0,1.8-0.1,3.1-0.2,3.7c-0.1,0.6-0.3,1.1-0.6,1.5c-0.3,0.3-0.7,0.6-1.1,0.7c-0.4,0.1-1.1,0.2-2,0.2       h-4.6V7.7z M27.2,11.2v13.5c0.5,0,0.9-0.2,1-0.5c0.1-0.3,0.2-1.1,0.2-2.5v-7.9c0-0.9,0-1.5-0.1-1.8c0-0.3-0.1-0.5-0.3-0.6       C27.8,11.3,27.6,11.2,27.2,11.2z"
   id="path623" /><path
   i:knockout="Off"
   fill="#FFFFFF"
   d="M36.9,7.7v4.8c0.3-0.5,0.6-0.9,1-1.1s0.8-0.4,1.2-0.4c0.5,0,0.9,0.1,1.3,0.3       c0.4,0.2,0.6,0.5,0.8,0.9c0.2,0.4,0.3,0.8,0.3,1.2c0,0.4,0.1,1.2,0.1,2.4v7.6c0,1.2-0.1,2.2-0.2,2.8c-0.1,0.6-0.4,1.1-0.8,1.6       c-0.4,0.4-0.9,0.7-1.5,0.7c-0.4,0-0.8-0.1-1.2-0.4c-0.4-0.3-0.7-0.7-1-1.2l-0.2,1.3h-3.3V7.7H36.9z M37.9,16.2       c0-0.9,0-1.4-0.1-1.7c-0.1-0.3-0.2-0.4-0.4-0.4c-0.2,0-0.4,0.1-0.4,0.3c-0.1,0.2-0.1,0.8-0.1,1.8v7.3c0,0.9,0,1.5,0.1,1.7       c0.1,0.3,0.2,0.4,0.4,0.4c0.2,0,0.4-0.1,0.4-0.4s0.1-0.9,0.1-1.9V16.2z"
   id="path624" /></g><g
   i:knockout="Off"
   id="g625"><path
   i:knockout="Off"
   d="M9.7,8.4v20.5H6.1V8.4H9.7z"
   id="path626" /><path
   i:knockout="Off"
   d="M22.6,8.4v20.5h-3.3l0-13.8l-1.3,13.8h-2.3l-1.4-13.5l0,13.5h-3.3V8.4H16c0.1,1.2,0.3,2.7,0.4,4.3       L17,18l0.9-9.6H22.6z"
   id="path627" /><path
   i:knockout="Off"
   d="M24.1,8.4h2.8c1.8,0,3,0.1,3.6,0.4c0.6,0.2,1.1,0.6,1.4,1.2c0.3,0.5,0.5,1.1,0.6,1.8       c0.1,0.7,0.1,2,0.1,3.9v7.2c0,1.8-0.1,3.1-0.2,3.7s-0.3,1.1-0.6,1.5c-0.3,0.3-0.7,0.6-1.1,0.7c-0.4,0.1-1.1,0.2-2,0.2h-4.6V8.4       z M27.8,12v13.5c0.5,0,0.9-0.2,1-0.5c0.1-0.3,0.2-1.1,0.2-2.5v-7.9c0-0.9,0-1.5-0.1-1.8c0-0.3-0.1-0.5-0.3-0.6       C28.5,12,28.2,12,27.8,12z"
   id="path628" /><path
   i:knockout="Off"
   d="M37.5,8.4v4.8c0.3-0.5,0.6-0.9,1-1.1c0.4-0.2,0.8-0.4,1.2-0.4c0.5,0,0.9,0.1,1.3,0.3       c0.4,0.2,0.6,0.5,0.8,0.9s0.3,0.8,0.3,1.2c0,0.4,0.1,1.2,0.1,2.4v7.6c0,1.2-0.1,2.2-0.2,2.8c-0.1,0.6-0.4,1.1-0.8,1.6       c-0.4,0.4-0.9,0.7-1.5,0.7c-0.4,0-0.8-0.1-1.2-0.4c-0.4-0.3-0.7-0.7-1-1.2l-0.2,1.3H34V8.4H37.5z M38.6,16.9       c0-0.9,0-1.4-0.1-1.7c-0.1-0.3-0.2-0.4-0.4-0.4c-0.2,0-0.4,0.1-0.4,0.3c-0.1,0.2-0.1,0.8-0.1,1.8v7.3c0,0.9,0,1.5,0.1,1.7       c0.1,0.3,0.2,0.4,0.4,0.4c0.2,0,0.4-0.1,0.4-0.4c0.1-0.3,0.1-0.9,0.1-1.9V16.9z"
   id="path629" /></g></g></g></svg>
