<?xml version="1.0" encoding="UTF-8" standalone="no"?>
<!DOCTYPE svg PUBLIC "-//W3C//DTD SVG 20010904//EN"
"http://www.w3.org/TR/2001/REC-SVG-20010904/DTD/svg10.dtd">
<!-- Created with Sodipodi ("http://www.sodipodi.com/") -->
<svg
   xmlns:x="http://ns.adobe.com/Extensibility/1.0/"
   xmlns:i="http://ns.adobe.com/AdobeIllustrator/10.0/"
   xmlns:graph="http://ns.adobe.com/Graphs/1.0/"
   xmlns="http://www.w3.org/2000/svg"
   xmlns:xlink="http://www.w3.org/1999/xlink"
   xmlns:a="http://ns.adobe.com/AdobeSVGViewerExtensions/3.0/"
   xml:space="preserve"
   i:viewOrigin="282.5 419.5"
   i:rulerOrigin="0 0"
   i:pageBounds="0 792 612 0"
   width="48"
   height="48"
   viewBox="0 0 48 48"
   overflow="visible"
   enable-background="new 0 0 48 48"
   xmlns:sodipodi="http://sodipodi.sourceforge.net/DTD/sodipodi-0.dtd"
   id="svg602"
   sodipodi:version="0.34"
   sodipodi:docname="C:\msys\home\su_blanc\mldonkey-2.5.12\src\gtk2\rsvg\menu_interfaces.svg"><defs
   id="defs709" /><sodipodi:namedview
   id="namedview708" /><g
   id="Layer_1_2_"
   i:knockout="Off"
   i:layer="yes"
   i:dimmedPercent="50"
   i:rgbTrio="#4F008000FFFF"><path
   id="path604"
   i:knockout="Off"
   fill="none"
   d="M13,39.7c1.7,0.2,3.6-1.1,4.5-3.1c-0.1-1.5-1-2.7-2.3-2.8     c-1.5-0.2-3.3,0.8-4.3,2.5C10.7,38.1,11.5,39.5,13,39.7z" /><g
   id="g605"
   i:knockout="Off"><linearGradient
   id="path609_1_"
   gradientUnits="userSpaceOnUse"
   x1="-223.0498"
   y1="332.7578"
   x2="-223.0498"
   y2="345.0589"
   gradientTransform="matrix(1 0 0 -1 247.0498 382.0273)"><stop
   offset="0"
   style="stop-color:#9E9E9E"
   id="stop609" /><stop
   offset="1"
   style="stop-color:#616161"
   id="stop610" /><a:midPointStop
   offset="0"
   style="stop-color:#9E9E9E"
   id="midPointStop611" /><a:midPointStop
   offset="0.5"
   style="stop-color:#9E9E9E"
   id="midPointStop612" /><a:midPointStop
   offset="1"
   style="stop-color:#616161"
   id="midPointStop613" /></linearGradient><ellipse
   id="path609"
   fill="url(#path609_1_)"
   cx="24"
   cy="41.6"
   rx="16.4"
   ry="6.4" /><linearGradient
   id="path616_1_"
   gradientUnits="userSpaceOnUse"
   x1="-223.0444"
   y1="341.8613"
   x2="-223.0444"
   y2="333.751"
   gradientTransform="matrix(1 0 0 -1 247.0498 382.0273)"><stop
   offset="0"
   style="stop-color:#FFFFFF"
   id="stop616" /><stop
   offset="1"
   style="stop-color:#CFCFCF"
   id="stop617" /><a:midPointStop
   offset="0"
   style="stop-color:#FFFFFF"
   id="midPointStop618" /><a:midPointStop
   offset="0.5"
   style="stop-color:#FFFFFF"
   id="midPointStop619" /><a:midPointStop
   offset="1"
   style="stop-color:#CFCFCF"
   id="midPointStop620" /></linearGradient><ellipse
   id="path616"
   fill="url(#path616_1_)"
   cx="24"
   cy="41.4"
   rx="15.9"
   ry="5.5" /><linearGradient
   id="path620_1_"
   gradientUnits="userSpaceOnUse"
   x1="-228.9253"
   y1="347.3594"
   x2="-217.4131"
   y2="334.6863"
   gradientTransform="matrix(1 0 0 -1 247.0498 382.0273)"><stop
   offset="3.370000e-002"
   style="stop-color:#FFFFFF"
   id="stop623" /><stop
   offset="1"
   style="stop-color:#878787"
   id="stop624" /><a:midPointStop
   offset="3.370000e-002"
   style="stop-color:#FFFFFF"
   id="midPointStop625" /><a:midPointStop
   offset="0.5"
   style="stop-color:#FFFFFF"
   id="midPointStop626" /><a:midPointStop
   offset="1"
   style="stop-color:#878787"
   id="midPointStop627" /></linearGradient><ellipse
   id="path620"
   i:isolated="yes"
   i:knockout="Off"
   opacity="0.5"
   fill="url(#path620_1_)"
   a:adobe-blending-mode="multiply"
   enable-background="new    "
   cx="23.6"
   cy="40.7"
   rx="9.6"
   ry="2.1" /><linearGradient
   id="path624_1_"
   gradientUnits="userSpaceOnUse"
   x1="-223.4072"
   y1="339.3828"
   x2="-223.4072"
   y2="351.6195"
   gradientTransform="matrix(1 0 0 -1 247.0498 382.0273)"><stop
   offset="0"
   style="stop-color:#9E9E9E"
   id="stop630" /><stop
   offset="1"
   style="stop-color:#616161"
   id="stop631" /><a:midPointStop
   offset="0"
   style="stop-color:#9E9E9E"
   id="midPointStop632" /><a:midPointStop
   offset="0.5"
   style="stop-color:#9E9E9E"
   id="midPointStop633" /><a:midPointStop
   offset="1"
   style="stop-color:#616161"
   id="midPointStop634" /></linearGradient><ellipse
   id="path624"
   fill="url(#path624_1_)"
   cx="23.6"
   cy="35"
   rx="9.6"
   ry="6.4" /><linearGradient
   id="path628_1_"
   gradientUnits="userSpaceOnUse"
   x1="-223.4067"
   y1="341.3955"
   x2="-223.4067"
   y2="347.13"
   gradientTransform="matrix(1 0 0 -1 247.0498 382.0273)"><stop
   offset="0"
   style="stop-color:#FFFFFF"
   id="stop637" /><stop
   offset="1"
   style="stop-color:#CFCFCF"
   id="stop638" /><a:midPointStop
   offset="0"
   style="stop-color:#FFFFFF"
   id="midPointStop639" /><a:midPointStop
   offset="0.5"
   style="stop-color:#FFFFFF"
   id="midPointStop640" /><a:midPointStop
   offset="1"
   style="stop-color:#CFCFCF"
   id="midPointStop641" /></linearGradient><ellipse
   id="path628"
   fill="url(#path628_1_)"
   cx="23.6"
   cy="35.2"
   rx="9"
   ry="6" /><linearGradient
   id="path632_1_"
   gradientUnits="userSpaceOnUse"
   x1="-229.625"
   y1="353.5801"
   x2="-216.5495"
   y2="339.1863"
   gradientTransform="matrix(1 0 0 -1 247.0498 382.0273)"><stop
   offset="3.370000e-002"
   style="stop-color:#FFFFFF"
   id="stop644" /><stop
   offset="1"
   style="stop-color:#878787"
   id="stop645" /><a:midPointStop
   offset="3.370000e-002"
   style="stop-color:#FFFFFF"
   id="midPointStop646" /><a:midPointStop
   offset="0.5"
   style="stop-color:#FFFFFF"
   id="midPointStop647" /><a:midPointStop
   offset="1"
   style="stop-color:#878787"
   id="midPointStop648" /></linearGradient><rect
   id="path632"
   x="14.1"
   y="34"
   i:isolated="yes"
   i:knockout="Off"
   opacity="0.5"
   fill="url(#path632_1_)"
   a:adobe-blending-mode="multiply"
   enable-background="new    "
   width="19.2"
   height="2.7" /><g
   id="g633"
   i:knockout="Off"><linearGradient
   id="XMLID_1_"
   gradientUnits="userSpaceOnUse"
   x1="-223.0498"
   y1="343.0488"
   x2="-223.0498"
   y2="376.9317"
   gradientTransform="matrix(1 0 0 -1 247.0498 382.0273)"><stop
   offset="0"
   style="stop-color:#9E9E9E"
   id="stop652" /><stop
   offset="1"
   style="stop-color:#616161"
   id="stop653" /><a:midPointStop
   offset="0"
   style="stop-color:#9E9E9E"
   id="midPointStop654" /><a:midPointStop
   offset="0.5"
   style="stop-color:#9E9E9E"
   id="midPointStop655" /><a:midPointStop
   offset="1"
   style="stop-color:#616161"
   id="midPointStop656" /></linearGradient><path
   fill="url(#XMLID_1_)"
   d="M4.6,0C2.1,0,0,1.9,0,4.3v26.9c0,2.4,2.1,4.3,4.6,4.3h38.8c2.5,0,4.6-1.9,4.6-4.3V4.3       C48,1.9,45.9,0,43.4,0H4.6 M1.1,31.2V4.3C1.1,2.5,2.7,1,4.6,1h38.8c1.9,0,3.5,1.5,3.5,3.3v26.9c0,1.8-1.6,3.3-3.5,3.3H4.6       C2.7,34.5,1.1,33,1.1,31.2z"
   id="path657" /><linearGradient
   id="path641_1_"
   gradientUnits="userSpaceOnUse"
   x1="-223.417"
   y1="354.8467"
   x2="-221.7686"
   y2="397.1964"
   gradientTransform="matrix(1 0 0 -1 247.0498 382.0273)"><stop
   offset="3.370000e-002"
   style="stop-color:#FFFFFF"
   id="stop659" /><stop
   offset="1"
   style="stop-color:#B2B2B2"
   id="stop660" /><a:midPointStop
   offset="3.370000e-002"
   style="stop-color:#FFFFFF"
   id="midPointStop661" /><a:midPointStop
   offset="0.5"
   style="stop-color:#FFFFFF"
   id="midPointStop662" /><a:midPointStop
   offset="1"
   style="stop-color:#B2B2B2"
   id="midPointStop663" /></linearGradient><path
   id="path641"
   fill="url(#path641_1_)"
   d="M47.5,31.2c0,2.1-1.8,3.8-4.1,3.8H4.6c-2.2,0-4.1-1.7-4.1-3.8V4.3       c0-2.1,1.8-3.8,4.1-3.8h38.8c2.2,0,4.1,1.7,4.1,3.8V31.2z" /><linearGradient
   id="path645_1_"
   gradientUnits="userSpaceOnUse"
   x1="-229.4312"
   y1="370.668"
   x2="-199.0093"
   y2="340.2462"
   gradientTransform="matrix(1 0 0 -1 247.0498 382.0273)"><stop
   offset="3.370000e-002"
   style="stop-color:#FFFFFF"
   id="stop666" /><stop
   offset="1"
   style="stop-color:#B2B2B2"
   id="stop667" /><a:midPointStop
   offset="3.370000e-002"
   style="stop-color:#FFFFFF"
   id="midPointStop668" /><a:midPointStop
   offset="0.5"
   style="stop-color:#FFFFFF"
   id="midPointStop669" /><a:midPointStop
   offset="1"
   style="stop-color:#B2B2B2"
   id="midPointStop670" /></linearGradient><path
   id="path645"
   fill="url(#path645_1_)"
   d="M47,30.9c0,2-1.8,3.7-3.9,3.7H4.9C2.7,34.6,1,33,1,30.9V4.6c0-2,1.8-3.7,3.9-3.7       h38.2c2.2,0,3.9,1.6,3.9,3.7V30.9z" /><linearGradient
   id="path649_1_"
   gradientUnits="userSpaceOnUse"
   x1="-246.3892"
   y1="391.7979"
   x2="-246.3892"
   y2="360.0119"
   gradientTransform="matrix(1 0 0 -1 247.0498 382.0273)"><stop
   offset="0"
   style="stop-color:#FFFFFF"
   id="stop673" /><stop
   offset="1"
   style="stop-color:#FFFFFF"
   id="stop674" /><a:midPointStop
   offset="0"
   style="stop-color:#FFFFFF"
   id="midPointStop675" /><a:midPointStop
   offset="0.5"
   style="stop-color:#FFFFFF"
   id="midPointStop676" /><a:midPointStop
   offset="1"
   style="stop-color:#FFFFFF"
   id="midPointStop677" /></linearGradient><path
   id="path649"
   i:isolated="yes"
   i:knockout="Off"
   fill="url(#path649_1_)"
   a:adobe-blending-mode="screen"
   enable-background="new    "
   d="       M0.3,23.1c0,1.4,0.2,2.8,0.6,4.1c0,0,0.1,0,0.1,0v-16C0.6,12.7,0.3,21.6,0.3,23.1z" /><linearGradient
   id="path653_1_"
   gradientUnits="userSpaceOnUse"
   x1="-222.9194"
   y1="382.0156"
   x2="-222.9194"
   y2="358.9029"
   gradientTransform="matrix(1 0 0 -1 247.0498 382.0273)"><stop
   offset="0"
   style="stop-color:#FFFFFF"
   id="stop680" /><stop
   offset="1"
   style="stop-color:#FFFFFF"
   id="stop681" /><a:midPointStop
   offset="0"
   style="stop-color:#FFFFFF"
   id="midPointStop682" /><a:midPointStop
   offset="0.5"
   style="stop-color:#FFFFFF"
   id="midPointStop683" /><a:midPointStop
   offset="1"
   style="stop-color:#FFFFFF"
   id="midPointStop684" /></linearGradient><path
   id="path653"
   i:isolated="yes"
   i:knockout="Off"
   fill="url(#path653_1_)"
   a:adobe-blending-mode="screen"
   enable-background="new    "
   d="       M42.8,1.2H5.5c-2.1,0-3.8,1.6-3.8,3.5v22.2c2.8,0.5,12.9,2.1,20.2-7C30.6,9,43.4,10.3,46.6,9.5V4.8C46.6,2.8,44.9,1.2,42.8,1.2       z" /><radialGradient
   id="path660_1_"
   cx="-296.2476"
   cy="324.0088"
   r="61.6085"
   fx="-296.2476"
   fy="324.0088"
   gradientTransform="matrix(0.4194 0 0 -0.3904 146.835 163.7798)"
   gradientUnits="userSpaceOnUse"><stop
   offset="0"
   style="stop-color:#85CAFF"
   id="stop687" /><stop
   offset="1"
   style="stop-color:#003DA9"
   id="stop688" /><a:midPointStop
   offset="0"
   style="stop-color:#85CAFF"
   id="midPointStop689" /><a:midPointStop
   offset="0.5"
   style="stop-color:#85CAFF"
   id="midPointStop690" /><a:midPointStop
   offset="1"
   style="stop-color:#003DA9"
   id="midPointStop691" /></radialGradient><rect
   id="path660"
   x="4.7"
   y="4.7"
   fill="url(#path660_1_)"
   width="38.5"
   height="26.2" /><linearGradient
   id="path667_1_"
   gradientUnits="userSpaceOnUse"
   x1="-223.0776"
   y1="358.5859"
   x2="-223.0776"
   y2="393.1217"
   gradientTransform="matrix(1 0 0 -1 247.0498 382.0273)"><stop
   offset="0"
   style="stop-color:#CCCCCC"
   id="stop694" /><stop
   offset="1"
   style="stop-color:#616161"
   id="stop695" /><a:midPointStop
   offset="0"
   style="stop-color:#CCCCCC"
   id="midPointStop696" /><a:midPointStop
   offset="0.5"
   style="stop-color:#CCCCCC"
   id="midPointStop697" /><a:midPointStop
   offset="1"
   style="stop-color:#616161"
   id="midPointStop698" /></linearGradient><polygon
   id="path667"
   fill="url(#path667_1_)"
   points="43.3,4.6 4.7,4.6 4.7,30.8 5.3,30.8 5.3,5.2 43.3,5.2 43.3,4.6 " /><polygon
   id="path668"
   fill="#FFFFFF"
   points="42.7,4.6 42.7,30.2 4.7,30.2 4.7,30.8 42.7,30.8 42.7,30.8 43.3,30.8 43.3,4.6        " /><radialGradient
   id="path675_1_"
   cx="-299.231"
   cy="404.1299"
   r="67.632"
   fx="-299.231"
   fy="404.1299"
   gradientTransform="matrix(0.4224 0 0 -0.3598 149.5823 148.6862)"
   gradientUnits="userSpaceOnUse"><stop
   offset="0"
   style="stop-color:#85CAFF"
   id="stop702" /><stop
   offset="1"
   style="stop-color:#003DA9"
   id="stop703" /><a:midPointStop
   offset="0"
   style="stop-color:#85CAFF"
   id="midPointStop704" /><a:midPointStop
   offset="0.5"
   style="stop-color:#85CAFF"
   id="midPointStop705" /><a:midPointStop
   offset="1"
   style="stop-color:#003DA9"
   id="midPointStop706" /></radialGradient><path
   id="path675"
   fill="url(#path675_1_)"
   d="M5.8,10.1c0,5.4,8.2,9.7,18.2,9.7c10.1,0,18.3-4.4,18.3-9.7       c0-1.8-0.9-3.5-2.5-4.9H8.3C6.7,6.6,5.8,8.3,5.8,10.1z" /></g></g></g></svg>
