<?xml version="1.0" encoding="UTF-8" standalone="no"?>
<!DOCTYPE svg PUBLIC "-//W3C//DTD SVG 20010904//EN"
"http://www.w3.org/TR/2001/REC-SVG-20010904/DTD/svg10.dtd">
<!-- Created with Sodipodi ("http://www.sodipodi.com/") -->
<svg
   xmlns:x="http://ns.adobe.com/Extensibility/1.0/"
   xmlns:i="http://ns.adobe.com/AdobeIllustrator/10.0/"
   xmlns:graph="http://ns.adobe.com/Graphs/1.0/"
   xmlns="http://www.w3.org/2000/svg"
   xmlns:xlink="http://www.w3.org/1999/xlink"
   xmlns:a="http://ns.adobe.com/AdobeSVGViewerExtensions/3.0/"
   xml:space="preserve"
   i:viewOrigin="199.9229 458.8887"
   i:rulerOrigin="0 1"
   i:pageBounds="0 791 612 -1"
   width="48"
   height="48"
   viewBox="0 0 48 48"
   overflow="visible"
   enable-background="new 0 0 48 48"
   xmlns:sodipodi="http://sodipodi.sourceforge.net/DTD/sodipodi-0.dtd"
   id="svg602"
   sodipodi:version="0.34"
   sodipodi:docname="C:\msys\home\su_blanc\mldonkey-2.5.12\src\gtk2\rsvg\menu_core_disconnect.svg"><defs
   id="defs634" /><sodipodi:namedview
   id="base" /><g
   id="Layer_1"
   i:knockout="Off"
   i:layer="yes"
   i:dimmedPercent="50"
   i:rgbTrio="#4F008000FFFF"><g
   id="g606"><rect
   id="rect606"
   i:knockout="Off"
   fill="none"
   width="48"
   height="48" /><circle
   id="circle608"
   fill="#FF7C00"
   cx="22.7"
   cy="26.8"
   r="20.3" /><rect
   id="rect609"
   x="29.8"
   y="7.4"
   transform="matrix(0.7741 0.6331 -0.6331 0.7741 15.1516 -19.1691)"
   fill="#FF7C00"
   width="9.2"
   height="8.5" /><linearGradient
   id="path624_1_"
   gradientUnits="userSpaceOnUse"
   x1="-188.1724"
   y1="448.0654"
   x2="-179.4988"
   y2="435.376"
   gradientTransform="matrix(1 0 0 -1 199.9229 458.8887)"><stop
   offset="0"
   style="stop-color:#FFFFFF"
   id="stop611" /><stop
   offset="1"
   style="stop-color:#FF7C00"
   id="stop612" /><a:midPointStop
   offset="0"
   style="stop-color:#FFFFFF"
   id="midPointStop613" /><a:midPointStop
   offset="0.5"
   style="stop-color:#FFFFFF"
   id="midPointStop614" /><a:midPointStop
   offset="1"
   style="stop-color:#FF7C00"
   id="midPointStop615" /></linearGradient><path
   id="path624"
   fill="url(#path624_1_)"
   d="M28.8,11.1c2.8,4.4-0.1,11.5-6.6,15.6C15.9,31,8.4,30.9,5.6,26.5      C2.9,22.1,5.7,15,12.2,10.9C18.6,6.5,26.1,6.7,28.8,11.1z" /><linearGradient
   id="path631_1_"
   gradientUnits="userSpaceOnUse"
   x1="-352.251"
   y1="59.3457"
   x2="-360.1256"
   y2="49.0963"
   gradientTransform="matrix(1.0733 9.580456e-002 9.580457e-002 1.1252 409.5186 12.6388)"><stop
   offset="0"
   style="stop-color:#FFFF00"
   id="stop618" /><stop
   offset="1"
   style="stop-color:#FF7C00"
   id="stop619" /><a:midPointStop
   offset="0"
   style="stop-color:#FFFF00"
   id="midPointStop620" /><a:midPointStop
   offset="0.5"
   style="stop-color:#FFFF00"
   id="midPointStop621" /><a:midPointStop
   offset="1"
   style="stop-color:#FF7C00"
   id="midPointStop622" /></linearGradient><path
   id="path631"
   fill="url(#path631_1_)"
   d="M15.9,41.2c4.1,4.9,12.1,5.2,18.2,0.5c6.1-4.6,7.9-12.5,4.2-17.7L15.9,41.2z" /><linearGradient
   id="polygon638_1_"
   gradientUnits="userSpaceOnUse"
   x1="-410.7065"
   y1="-34.8281"
   x2="-406.9568"
   y2="-31.9534"
   gradientTransform="matrix(0.7815 -0.2756 -0.2756 0.893 342.9366 -74.4549)"><stop
   offset="0"
   style="stop-color:#FFFFFF"
   id="stop625" /><stop
   offset="0.4326"
   style="stop-color:#FF7C00"
   id="stop626" /><a:midPointStop
   offset="0"
   style="stop-color:#FFFFFF"
   id="midPointStop627" /><a:midPointStop
   offset="0.5"
   style="stop-color:#FFFFFF"
   id="midPointStop628" /><a:midPointStop
   offset="0.4326"
   style="stop-color:#FF7C00"
   id="midPointStop629" /></linearGradient><polygon
   id="polygon638"
   fill="url(#polygon638_1_)"
   points="34,13 30,9.7 33.5,5.4 37.5,8.7 " /><ellipse
   id="ellipse639"
   transform="matrix(-0.7837 -0.6211 0.6211 -0.7837 61.7127 37.5123)"
   fill="#FFFFFF"
   stroke="#FF7C00"
   stroke-width="0.7198"
   cx="37.4"
   cy="8"
   rx="4.4"
   ry="2.3" /><path
   id="path640"
   fill="none"
   stroke="#FFCA00"
   stroke-width="2.25"
   stroke-linecap="round"
   d="M44.2,1.7      C46,3,46.1,5.4,43.4,5.6c-1.1,0.1-2.3-0.5-3.4-0.3c-1,0.3-1.6,1.1-2.2,1.9" /></g></g></svg>
