<?xml version="1.0" encoding="UTF-8" standalone="no"?>
<!DOCTYPE svg PUBLIC "-//W3C//DTD SVG 20010904//EN"
"http://www.w3.org/TR/2001/REC-SVG-20010904/DTD/svg10.dtd">
<!-- Created with Sodipodi ("http://www.sodipodi.com/") -->
<svg
   xmlns:x="http://ns.adobe.com/Extensibility/1.0/"
   xmlns:i="http://ns.adobe.com/AdobeIllustrator/10.0/"
   xmlns:graph="http://ns.adobe.com/Graphs/1.0/"
   xmlns="http://www.w3.org/2000/svg"
   xmlns:xlink="http://www.w3.org/1999/xlink"
   xmlns:a="http://ns.adobe.com/AdobeSVGViewerExtensions/3.0/"
   xml:space="preserve"
   i:viewOrigin="282.5 419.4995"
   i:rulerOrigin="0 0"
   i:pageBounds="0 792 612 0"
   width="48"
   height="48"
   viewBox="0 0 48 48"
   overflow="visible"
   enable-background="new 0 0 48 48"
   xmlns:sodipodi="http://sodipodi.sourceforge.net/DTD/sodipodi-0.dtd"
   id="svg602"
   sodipodi:version="0.34"
   sodipodi:docname="C:\msys\home\su_blanc\mldonkey-2.5.12\src\gtk2\rsvg\menu_mlchat.svg"><defs
   id="defs727" /><sodipodi:namedview
   id="base" /><g
   id="Layer_1_2_"
   i:knockout="Off"
   i:layer="yes"
   i:dimmedPercent="50"
   i:rgbTrio="#4F008000FFFF"><polygon
   fill="#FFFFFF"
   points="40.6,32.5 34.4,35.6 35.3,37.8 41.9,34.5 "
   id="polygon605" /><g
   i:knockout="Off"
   id="g606"><linearGradient
   id="XMLID_9_"
   gradientUnits="userSpaceOnUse"
   x1="-212.4727"
   y1="353.1108"
   x2="-252.6512"
   y2="387.9236"
   gradientTransform="matrix(1 0 0 -1 245.1592 380.5811)"><stop
   offset="0"
   style="stop-color:#0032A4"
   id="stop608" /><stop
   offset="1"
   style="stop-color:#3995E5"
   id="stop609" /><a:midPointStop
   offset="0"
   style="stop-color:#0032A4"
   id="midPointStop610" /><a:midPointStop
   offset="0.5"
   style="stop-color:#0032A4"
   id="midPointStop611" /><a:midPointStop
   offset="1"
   style="stop-color:#3995E5"
   id="midPointStop612" /></linearGradient><path
   fill="url(#XMLID_9_)"
   d="M24,0C10.8,0,0,7.1,0,15.8C0,22,5.4,27.6,13.8,30.2c-0.5,1.1-3.2,7.8-3.2,7.8c0,0.1,0,0.2,0,0.2      c0,0.2,0.1,0.4,0.2,0.5c0.2,0.2,0.5,0.2,0.8,0.1c0,0,11.7-6.9,12-7.1c0.2,0,0.4,0,0.4,0c13.2,0,24-7.1,24-15.8      C48,7.1,37.2,0,24,0z M24,30.7c-0.2,0-0.4,0-0.5,0l-11.8,7l3.4-8.2C7,27.2,1.3,22,1.3,16C1.3,7.8,11.5,1.2,24,1.2      c12.5,0,22.7,6.6,22.7,14.8C46.7,24.1,36.5,30.7,24,30.7z"
   id="path613" /><radialGradient
   id="XMLID_10_"
   cx="-733.9282"
   cy="332.0093"
   r="152.4193"
   fx="-733.9282"
   fy="332.0093"
   gradientTransform="matrix(0.3913 0 0 -0.3814 309.7274 160.0153)"
   gradientUnits="userSpaceOnUse"><stop
   offset="5.600000e-003"
   style="stop-color:#FFFFFF"
   id="stop615" /><stop
   offset="0.4438"
   style="stop-color:#A9E6FF"
   id="stop616" /><stop
   offset="1"
   style="stop-color:#034CFE"
   id="stop617" /><a:midPointStop
   offset="5.600000e-003"
   style="stop-color:#FFFFFF"
   id="midPointStop618" /><a:midPointStop
   offset="0.5"
   style="stop-color:#FFFFFF"
   id="midPointStop619" /><a:midPointStop
   offset="0.4438"
   style="stop-color:#A9E6FF"
   id="midPointStop620" /><a:midPointStop
   offset="0.5"
   style="stop-color:#A9E6FF"
   id="midPointStop621" /><a:midPointStop
   offset="1"
   style="stop-color:#034CFE"
   id="midPointStop622" /></radialGradient><path
   fill="url(#XMLID_10_)"
   d="M24,0.9c-12.7,0-23,6.7-23,15c0,6.2,5.7,11.5,13.9,13.8L11.5,38l12-7.1c0.2,0,0.4,0,0.6,0      c12.7,0,23-6.7,23-15C47,7.6,36.7,0.9,24,0.9z"
   id="path623" /><radialGradient
   id="XMLID_11_"
   cx="-733.7383"
   cy="338.0591"
   r="144.2432"
   fx="-733.7383"
   fy="338.0591"
   gradientTransform="matrix(0.3913 0 0 -0.3814 309.7274 160.0153)"
   gradientUnits="userSpaceOnUse"><stop
   offset="5.600000e-003"
   style="stop-color:#FFFFFF"
   id="stop625" /><stop
   offset="0.2584"
   style="stop-color:#A9E6FF"
   id="stop626" /><stop
   offset="1"
   style="stop-color:#034CFE"
   id="stop627" /><a:midPointStop
   offset="5.600000e-003"
   style="stop-color:#FFFFFF"
   id="midPointStop628" /><a:midPointStop
   offset="0.5"
   style="stop-color:#FFFFFF"
   id="midPointStop629" /><a:midPointStop
   offset="0.2584"
   style="stop-color:#A9E6FF"
   id="midPointStop630" /><a:midPointStop
   offset="0.5"
   style="stop-color:#A9E6FF"
   id="midPointStop631" /><a:midPointStop
   offset="1"
   style="stop-color:#034CFE"
   id="midPointStop632" /></radialGradient><path
   fill="url(#XMLID_11_)"
   d="M24,2.1C12,2.1,2.2,8.3,2.2,15.9c0,5.5,5.1,10.4,13,12.6c0.3,0.1,0.6,0.3,0.7,0.6      c0.1,0.2,0.1,0.3,0.1,0.5c0,0.1,0,0.3-0.1,0.4c0,0-1.1,2.7-2.1,5.1c3.4-2,8.9-5.3,8.9-5.3c0.2-0.1,0.4-0.2,0.6-0.2l0.5,0      c12,0,21.8-6.2,21.8-13.8S36,2.1,24,2.1z"
   id="path633" /><linearGradient
   id="XMLID_12_"
   gradientUnits="userSpaceOnUse"
   x1="-307.5845"
   y1="378.5103"
   x2="-307.5845"
   y2="358.8861"
   gradientTransform="matrix(1 0 0 -1 330.7627 380.5811)"><stop
   offset="5.747130e-002"
   style="stop-color:#FFFFFF"
   id="stop635" /><stop
   offset="1"
   style="stop-color:#FFFFFF"
   id="stop636" /><a:midPointStop
   offset="5.747130e-002"
   style="stop-color:#FFFFFF"
   id="midPointStop637" /><a:midPointStop
   offset="0.5"
   style="stop-color:#FFFFFF"
   id="midPointStop638" /><a:midPointStop
   offset="1"
   style="stop-color:#FFFFFF"
   id="midPointStop639" /></linearGradient><path
   i:isolated="yes"
   i:knockout="Off"
   fill="url(#XMLID_12_)"
   a:adobe-blending-mode="screen"
   enable-background="new    "
   d="      M24.9,17.2c7.6-4.1,14.8-6,19.2-6.8c-3.2-5.2-11-8.9-20.1-8.9C12,1.6,2.3,7.9,2.3,15.6c0,2.1,0.7,4.1,1.9,5.8      C8.7,21.9,16.7,21.7,24.9,17.2z"
   id="path640" /></g><g
   i:knockout="Off"
   id="g641"><linearGradient
   id="XMLID_13_"
   gradientUnits="userSpaceOnUse"
   x1="-205.1274"
   y1="359.146"
   x2="-205.4577"
   y2="325.0212"
   gradientTransform="matrix(0.9999 -1.380000e-002 -1.380000e-002 -0.9999 241.558 384.1864)"><stop
   offset="0"
   style="stop-color:#FFA700"
   id="stop643" /><stop
   offset="0.691"
   style="stop-color:#FFFF00"
   id="stop644" /><stop
   offset="0.792"
   style="stop-color:#FFFC00"
   id="stop645" /><stop
   offset="0.8546"
   style="stop-color:#FFF400"
   id="stop646" /><stop
   offset="0.9067"
   style="stop-color:#FFE500"
   id="stop647" /><stop
   offset="0.953"
   style="stop-color:#FFD100"
   id="stop648" /><stop
   offset="0.9952"
   style="stop-color:#FFB700"
   id="stop649" /><stop
   offset="1"
   style="stop-color:#FFB300"
   id="stop650" /><a:midPointStop
   offset="0"
   style="stop-color:#FFA700"
   id="midPointStop651" /><a:midPointStop
   offset="0.5"
   style="stop-color:#FFA700"
   id="midPointStop652" /><a:midPointStop
   offset="0.691"
   style="stop-color:#FFFF00"
   id="midPointStop653" /><a:midPointStop
   offset="0.5"
   style="stop-color:#FFFF00"
   id="midPointStop654" /><a:midPointStop
   offset="0.792"
   style="stop-color:#FFFC00"
   id="midPointStop655" /><a:midPointStop
   offset="0.5"
   style="stop-color:#FFFC00"
   id="midPointStop656" /><a:midPointStop
   offset="0.8546"
   style="stop-color:#FFF400"
   id="midPointStop657" /><a:midPointStop
   offset="0.5"
   style="stop-color:#FFF400"
   id="midPointStop658" /><a:midPointStop
   offset="0.9067"
   style="stop-color:#FFE500"
   id="midPointStop659" /><a:midPointStop
   offset="0.5"
   style="stop-color:#FFE500"
   id="midPointStop660" /><a:midPointStop
   offset="0.953"
   style="stop-color:#FFD100"
   id="midPointStop661" /><a:midPointStop
   offset="0.5"
   style="stop-color:#FFD100"
   id="midPointStop662" /><a:midPointStop
   offset="0.9952"
   style="stop-color:#FFB700"
   id="midPointStop663" /><a:midPointStop
   offset="0.5"
   style="stop-color:#FFB700"
   id="midPointStop664" /><a:midPointStop
   offset="1"
   style="stop-color:#FFB300"
   id="midPointStop665" /></linearGradient><path
   fill="url(#XMLID_13_)"
   d="M39.9,36.5c-1.5-1.4-4.5-3.1-4.5-3.1c0.1,0,2.9-0.1,4.3-0.3c2.1-0.3,4.4-1.7,4.4-1.7L42.3,26      c0,0-3.5,1-5.7,1.2c-0.9,0.1-2.2-1-2.9-1.7c-1.1-1.2-2.6-1.3-3.9-0.2c-0.6,0.5-2.4,2.6-2.9,5c-0.2,0.9-0.3,1.9-0.3,2.8      c0,1.2,0.2,2.2,0.3,2.7c-0.5,0.7-2.1,2.5-3.9,3.6c-1.2,0.7-5.2,1.7-5.2,1.7l3.1,6.2c0,0,3.4-0.6,6.3-2.7c1.2-0.9,3-2.4,5.4-4.9      c0.6,0.2,2,1.1,3.5,2.5c1.5,1.5,3.5,4.4,3.5,4.4c0,0,5.8-3.5,5.8-3.5S42.7,39.2,39.9,36.5z"
   id="path666" /><path
   d="M29.3,24.7c-0.6,0.5-2.6,2.8-3.2,5.4c-0.2,0.9-0.3,1.9-0.3,3c0,1,0.1,1.9,0.2,2.5c-0.6,0.7-2,2.3-3.5,3.1      c-0.9,0.6-3.9,1.3-5,1.6c-0.2,0.1-0.4,0.2-0.5,0.4c0,0.1-0.1,0.2-0.1,0.3c0,0.1,0,0.2,0.1,0.3l3.1,6.2c0.1,0.3,0.5,0.5,0.8,0.4      c0.1,0,3.7-0.7,6.6-2.8c1.1-0.8,2.9-2.3,5.1-4.5c0.6,0.3,1.7,1,2.8,2.1c1.5,1.4,3.4,4.3,3.4,4.3c0.2,0.3,0.5,0.4,0.9,0.3      c0.1,0,0.1,0,5.9-3.6c0.2-0.1,0.3-0.3,0.3-0.5c0-0.1,0-0.1,0-0.2c0-0.1,0-0.3-0.1-0.4c-0.1-0.2-2.7-4-5.5-6.7      c-0.7-0.7-1.7-1.4-2.6-2c0.7,0,1.4-0.1,1.9-0.2c2.3-0.3,4.6-1.7,4.7-1.8c0.2-0.1,0.4-0.4,0.3-0.6c0-0.1,0-0.1,0-0.2L43,25.8      c-0.1-0.4-0.5-0.6-0.9-0.5c0,0-3.5,1-5.6,1.2c-0.4,0-1.5-0.7-2.2-1.5C32.9,23.6,30.9,23.4,29.3,24.7z M23.4,40      c1.8-1.1,3.4-3,4.1-3.7c0.1-0.1,0.2-0.3,0.2-0.5c0,0,0-0.1,0-0.1c-0.1-0.5-0.2-1.5-0.3-2.6c0-1,0.1-1.8,0.2-2.6      c0.5-2.3,2.2-4.3,2.7-4.6c1-0.8,2-0.7,2.9,0.2c0.1,0.1,1.9,2.1,3.5,2c1.7-0.1,4-0.7,5.2-1c0.3,0.9,1.1,3.4,1.3,4.2      c-0.7,0.4-2.2,1.1-3.6,1.3c-1.3,0.2-3.9,0.3-4.2,0.3c-0.3,0-0.6,0.2-0.7,0.6c0,0.1,0,0.1,0,0.2c0,0.3,0.1,0.5,0.4,0.6      c0.1,0.1,3,1.6,4.4,3c2,2,4,4.6,4.8,5.8c-1.6,1-3.5,2.2-4.5,2.8c-0.7-0.9-2.1-2.8-3.2-3.9c-1.5-1.5-3-2.3-3.7-2.6      c-0.3-0.1-0.6-0.1-0.8,0.2c-2.3,2.4-4.1,3.9-5.3,4.8c-2,1.5-4.4,2.2-5.4,2.4c-0.4-0.7-1.9-3.8-2.4-4.9      C20.2,41.2,22.5,40.6,23.4,40z"
   id="path667" /><linearGradient
   id="XMLID_14_"
   gradientUnits="userSpaceOnUse"
   x1="-205.2573"
   y1="361.7974"
   x2="-205.2573"
   y2="343.3758"
   gradientTransform="matrix(0.9999 -1.380000e-002 -1.380000e-002 -0.9999 241.558 384.1864)"><stop
   offset="5.600000e-003"
   style="stop-color:#FFFFFF"
   id="stop669" /><stop
   offset="0.1471"
   style="stop-color:#FFFAE1"
   id="stop670" /><stop
   offset="0.4562"
   style="stop-color:#FFEE94"
   id="stop671" /><stop
   offset="0.9069"
   style="stop-color:#FFDB1A"
   id="stop672" /><stop
   offset="1"
   style="stop-color:#FFD700"
   id="stop673" /><a:midPointStop
   offset="5.600000e-003"
   style="stop-color:#FFFFFF"
   id="midPointStop674" /><a:midPointStop
   offset="0.5"
   style="stop-color:#FFFFFF"
   id="midPointStop675" /><a:midPointStop
   offset="0.1471"
   style="stop-color:#FFFAE1"
   id="midPointStop676" /><a:midPointStop
   offset="0.5"
   style="stop-color:#FFFAE1"
   id="midPointStop677" /><a:midPointStop
   offset="0.4562"
   style="stop-color:#FFEE94"
   id="midPointStop678" /><a:midPointStop
   offset="0.5"
   style="stop-color:#FFEE94"
   id="midPointStop679" /><a:midPointStop
   offset="0.9069"
   style="stop-color:#FFDB1A"
   id="midPointStop680" /><a:midPointStop
   offset="0.5"
   style="stop-color:#FFDB1A"
   id="midPointStop681" /><a:midPointStop
   offset="1"
   style="stop-color:#FFD700"
   id="midPointStop682" /></linearGradient><path
   fill="url(#XMLID_14_)"
   d="M34.6,34.7c-0.5-0.3-0.8-0.8-0.8-1.3c0-0.1,0-0.3,0-0.4c0.2-0.7,0.8-1.2,1.5-1.2      c0.3,0,2.8-0.1,4.1-0.3c1-0.1,2-0.6,2.7-0.9c-0.3-1-0.5-1.7-0.9-2.8c-1.3,0.3-3.1,0.7-4.6,0.9c-1.9,0.1-3.8-1.8-4.2-2.2      c-0.6-0.7-1.3-0.4-1.7-0.1c-0.4,0.3-2,2.2-2.4,4.2c-0.2,0.7-0.2,1.5-0.2,2.4c0,1.1,0.2,2,0.2,2.5c0,0.1,0,0.2,0,0.3      c0,0.4-0.1,0.7-0.3,1c-0.6,0.8-2.4,2.8-4.3,3.9c-0.8,0.5-2.4,1-3.8,1.4c0.7,1.3,1.2,2.4,1.7,3.4c1.1-0.3,2.9-1,4.4-2.1      c1.1-0.8,2.9-2.3,5.2-4.7c0.5-0.5,1.2-0.6,1.8-0.4c0.7,0.3,2.3,1.2,4,2.8c1,0.9,2.1,2.4,2.9,3.4c0.8-0.5,2-1.2,3.1-1.9      c-1-1.3-2.6-3.4-4.2-5C37.8,36.5,35.6,35.2,34.6,34.7z"
   id="path683" /><linearGradient
   id="XMLID_15_"
   gradientUnits="userSpaceOnUse"
   x1="-201.3325"
   y1="371.9438"
   x2="-201.3325"
   y2="361.9052"
   gradientTransform="matrix(0.9999 -1.380000e-002 -1.380000e-002 -0.9999 241.558 384.1864)"><stop
   offset="0"
   style="stop-color:#FFA700"
   id="stop685" /><stop
   offset="0.691"
   style="stop-color:#FFFF00"
   id="stop686" /><stop
   offset="0.792"
   style="stop-color:#FFFC00"
   id="stop687" /><stop
   offset="0.8546"
   style="stop-color:#FFF400"
   id="stop688" /><stop
   offset="0.9067"
   style="stop-color:#FFE500"
   id="stop689" /><stop
   offset="0.953"
   style="stop-color:#FFD100"
   id="stop690" /><stop
   offset="0.9952"
   style="stop-color:#FFB700"
   id="stop691" /><stop
   offset="1"
   style="stop-color:#FFB300"
   id="stop692" /><a:midPointStop
   offset="0"
   style="stop-color:#FFA700"
   id="midPointStop693" /><a:midPointStop
   offset="0.5"
   style="stop-color:#FFA700"
   id="midPointStop694" /><a:midPointStop
   offset="0.691"
   style="stop-color:#FFFF00"
   id="midPointStop695" /><a:midPointStop
   offset="0.5"
   style="stop-color:#FFFF00"
   id="midPointStop696" /><a:midPointStop
   offset="0.792"
   style="stop-color:#FFFC00"
   id="midPointStop697" /><a:midPointStop
   offset="0.5"
   style="stop-color:#FFFC00"
   id="midPointStop698" /><a:midPointStop
   offset="0.8546"
   style="stop-color:#FFF400"
   id="midPointStop699" /><a:midPointStop
   offset="0.5"
   style="stop-color:#FFF400"
   id="midPointStop700" /><a:midPointStop
   offset="0.9067"
   style="stop-color:#FFE500"
   id="midPointStop701" /><a:midPointStop
   offset="0.5"
   style="stop-color:#FFE500"
   id="midPointStop702" /><a:midPointStop
   offset="0.953"
   style="stop-color:#FFD100"
   id="midPointStop703" /><a:midPointStop
   offset="0.5"
   style="stop-color:#FFD100"
   id="midPointStop704" /><a:midPointStop
   offset="0.9952"
   style="stop-color:#FFB700"
   id="midPointStop705" /><a:midPointStop
   offset="0.5"
   style="stop-color:#FFB700"
   id="midPointStop706" /><a:midPointStop
   offset="1"
   style="stop-color:#FFB300"
   id="midPointStop707" /></linearGradient><path
   fill="url(#XMLID_15_)"
   d="M35.1,12c-3.2,0-5.8,2.6-5.8,5.8c0,3.1,2.7,5.7,5.9,5.6c3.2,0,5.8-2.6,5.8-5.8      C41,14.5,38.3,11.9,35.1,12z"
   id="path708" /><path
   d="M28.6,17.8c0,3.5,3,6.4,6.7,6.3c3.6,0,6.6-3,6.5-6.5c-0.1-3.5-3-6.4-6.7-6.3C31.4,11.3,28.5,14.2,28.6,17.8z M30,17.8      c0-2.7,2.2-5,5-5c2.8,0,5.1,2.2,5.2,4.9c0,2.7-2.2,5-5,5.1C32.4,22.7,30.1,20.5,30,17.8z"
   id="path709" /><linearGradient
   id="XMLID_16_"
   gradientUnits="userSpaceOnUse"
   x1="-201.3677"
   y1="373.7534"
   x2="-201.3677"
   y2="368.4451"
   gradientTransform="matrix(0.9999 -1.380000e-002 -1.380000e-002 -0.9999 241.558 384.1864)"><stop
   offset="5.600000e-003"
   style="stop-color:#FFFFFF"
   id="stop711" /><stop
   offset="0.1471"
   style="stop-color:#FFFAE1"
   id="stop712" /><stop
   offset="0.4562"
   style="stop-color:#FFEE94"
   id="stop713" /><stop
   offset="0.9069"
   style="stop-color:#FFDB1A"
   id="stop714" /><stop
   offset="1"
   style="stop-color:#FFD700"
   id="stop715" /><a:midPointStop
   offset="5.600000e-003"
   style="stop-color:#FFFFFF"
   id="midPointStop716" /><a:midPointStop
   offset="0.5"
   style="stop-color:#FFFFFF"
   id="midPointStop717" /><a:midPointStop
   offset="0.1471"
   style="stop-color:#FFFAE1"
   id="midPointStop718" /><a:midPointStop
   offset="0.5"
   style="stop-color:#FFFAE1"
   id="midPointStop719" /><a:midPointStop
   offset="0.4562"
   style="stop-color:#FFEE94"
   id="midPointStop720" /><a:midPointStop
   offset="0.5"
   style="stop-color:#FFEE94"
   id="midPointStop721" /><a:midPointStop
   offset="0.9069"
   style="stop-color:#FFDB1A"
   id="midPointStop722" /><a:midPointStop
   offset="0.5"
   style="stop-color:#FFDB1A"
   id="midPointStop723" /><a:midPointStop
   offset="1"
   style="stop-color:#FFD700"
   id="midPointStop724" /></linearGradient><path
   fill="url(#XMLID_16_)"
   d="M35.3,17.9c1.8-1.3,3.4-1.8,4.1-1.9c-0.7-1.5-2.3-2.6-4.2-2.6c-2.5,0-4.5,2-4.5,4.5      c0,0.4,0.1,0.8,0.2,1.1C31.7,19.2,33.5,19.3,35.3,17.9z"
   id="path725" /></g></g></svg>
