<?xml version="1.0" encoding="UTF-8" standalone="no"?>
<!DOCTYPE svg PUBLIC "-//W3C//DTD SVG 20010904//EN"
"http://www.w3.org/TR/2001/REC-SVG-20010904/DTD/svg10.dtd">
<!-- Created with Sodipodi ("http://www.sodipodi.com/") -->
<svg
   xmlns:x="http://ns.adobe.com/Extensibility/1.0/"
   xmlns:i="http://ns.adobe.com/AdobeIllustrator/10.0/"
   xmlns:graph="http://ns.adobe.com/Graphs/1.0/"
   xmlns="http://www.w3.org/2000/svg"
   xmlns:xlink="http://www.w3.org/1999/xlink"
   xmlns:a="http://ns.adobe.com/AdobeSVGViewerExtensions/3.0/"
   xml:space="preserve"
   i:viewOrigin="282.5 419.9932"
   i:rulerOrigin="0 0"
   i:pageBounds="0 792 612 0"
   width="48"
   height="48.9"
   viewBox="0 0 48 48.9"
   overflow="visible"
   enable-background="new 0 0 48 48.9"
   xmlns:sodipodi="http://sodipodi.sourceforge.net/DTD/sodipodi-0.dtd"
   id="svg602"
   sodipodi:version="0.34"
   sodipodi:docname="C:\msys\home\su_blanc\mldonkey-2.5.12\src\gtk2\rsvg\menu_uploads.svg"><defs
   id="defs779" /><sodipodi:namedview
   id="base" /><g
   id="g633"
   i:knockout="Off"
   i:layer="yes"
   i:dimmedPercent="50"
   i:rgbTrio="#4F008000FFFF"><g
   id="path710"
   i:knockout="Off"><circle
   id="circle607"
   i:isolated="yes"
   i:knockout="Off"
   opacity="0.4"
   enable-background="new    "
   cx="24"
   cy="24"
   r="22" /></g><g
   id="path701"
   i:knockout="Off"><circle
   id="circle609"
   i:isolated="yes"
   i:knockout="Off"
   opacity="0.1026"
   fill="#000004"
   enable-background="new    "
   cx="24"
   cy="24"
   r="24" /></g><g
   id="path709"
   i:knockout="Off"><circle
   id="circle611"
   i:isolated="yes"
   i:knockout="Off"
   opacity="0.1966"
   fill="#000004"
   enable-background="new    "
   cx="24"
   cy="24"
   r="23" /></g><radialGradient
   id="path622_1_"
   cx="-623.1245"
   cy="70.9209"
   r="188.3673"
   fx="-623.1245"
   fy="70.9209"
   gradientTransform="matrix(0.1103 0 0 -0.1103 93.4851 46.3344)"
   gradientUnits="userSpaceOnUse"><stop
   offset="0"
   style="stop-color:#63FF00"
   id="stop613" /><stop
   offset="1"
   style="stop-color:#3AAB3A"
   id="stop614" /><a:midPointStop
   offset="0"
   style="stop-color:#63FF00"
   id="midPointStop615" /><a:midPointStop
   offset="0.5"
   style="stop-color:#63FF00"
   id="midPointStop616" /><a:midPointStop
   offset="1"
   style="stop-color:#3AAB3A"
   id="midPointStop617" /></radialGradient><circle
   id="path622"
   fill="url(#path622_1_)"
   cx="24"
   cy="24"
   r="21.2" /><g
   id="path805"
   i:knockout="Off"><radialGradient
   id="ellipse626_1_"
   cx="1931.2363"
   cy="-2968.4219"
   r="176.791"
   fx="1931.2363"
   fy="-2968.4219"
   gradientTransform="matrix(0.1103 0 0 -0.1103 -189.0154 -324.6733)"
   gradientUnits="userSpaceOnUse"><stop
   offset="0"
   style="stop-color:#FFFFFF"
   id="stop621" /><stop
   offset="0.2391"
   style="stop-color:#FDFFFD"
   id="stop622" /><stop
   offset="0.3759"
   style="stop-color:#F7FEF4"
   id="stop623" /><stop
   offset="0.487"
   style="stop-color:#ECFCE6"
   id="stop624" /><stop
   offset="0.5841"
   style="stop-color:#DEFAD3"
   id="stop625" /><stop
   offset="0.6723"
   style="stop-color:#CAF7B9"
   id="stop626" /><stop
   offset="0.754"
   style="stop-color:#B2F399"
   id="stop627" /><stop
   offset="0.8306"
   style="stop-color:#96EF73"
   id="stop628" /><stop
   offset="0.9032"
   style="stop-color:#75E948"
   id="stop629" /><stop
   offset="0.9703"
   style="stop-color:#51E418"
   id="stop630" /><stop
   offset="1"
   style="stop-color:#3FE100"
   id="stop631" /><a:midPointStop
   offset="0"
   style="stop-color:#FFFFFF"
   id="midPointStop632" /><a:midPointStop
   offset="0.5"
   style="stop-color:#FFFFFF"
   id="midPointStop633" /><a:midPointStop
   offset="0.2391"
   style="stop-color:#FDFFFD"
   id="midPointStop634" /><a:midPointStop
   offset="0.5"
   style="stop-color:#FDFFFD"
   id="midPointStop635" /><a:midPointStop
   offset="0.3759"
   style="stop-color:#F7FEF4"
   id="midPointStop636" /><a:midPointStop
   offset="0.5"
   style="stop-color:#F7FEF4"
   id="midPointStop637" /><a:midPointStop
   offset="0.487"
   style="stop-color:#ECFCE6"
   id="midPointStop638" /><a:midPointStop
   offset="0.5"
   style="stop-color:#ECFCE6"
   id="midPointStop639" /><a:midPointStop
   offset="0.5841"
   style="stop-color:#DEFAD3"
   id="midPointStop640" /><a:midPointStop
   offset="0.5"
   style="stop-color:#DEFAD3"
   id="midPointStop641" /><a:midPointStop
   offset="0.6723"
   style="stop-color:#CAF7B9"
   id="midPointStop642" /><a:midPointStop
   offset="0.5"
   style="stop-color:#CAF7B9"
   id="midPointStop643" /><a:midPointStop
   offset="0.754"
   style="stop-color:#B2F399"
   id="midPointStop644" /><a:midPointStop
   offset="0.5"
   style="stop-color:#B2F399"
   id="midPointStop645" /><a:midPointStop
   offset="0.8306"
   style="stop-color:#96EF73"
   id="midPointStop646" /><a:midPointStop
   offset="0.5"
   style="stop-color:#96EF73"
   id="midPointStop647" /><a:midPointStop
   offset="0.9032"
   style="stop-color:#75E948"
   id="midPointStop648" /><a:midPointStop
   offset="0.5"
   style="stop-color:#75E948"
   id="midPointStop649" /><a:midPointStop
   offset="0.9703"
   style="stop-color:#51E418"
   id="midPointStop650" /><a:midPointStop
   offset="0.5"
   style="stop-color:#51E418"
   id="midPointStop651" /><a:midPointStop
   offset="1"
   style="stop-color:#3FE100"
   id="midPointStop652" /></radialGradient><ellipse
   id="ellipse626"
   i:isolated="yes"
   i:knockout="Off"
   opacity="0.65"
   fill="url(#ellipse626_1_)"
   enable-background="new    "
   cx="24.3"
   cy="12.7"
   rx="15.1"
   ry="9.7" /></g><ellipse
   id="path634"
   i:knockout="Off"
   transform="matrix(-0.8333 0.5528 -0.5528 -0.8333 59.0604 31.7234)"
   fill="none"
   cx="24.7"
   cy="24.8"
   rx="20.5"
   ry="11.9" /><g
   id="g635"
   i:knockout="Off"><path
   id="path636"
   fill="#FFFFFF"
   d="M34.4,9.7c-0.3,0-0.7,0-1,0c0.2,0,0.3,0,0.5,0C34.1,9.7,34.2,9.7,34.4,9.7L34.4,9.7z" /><polygon
   id="path637"
   fill="#FFFFFF"
   points="32.4,9.7 32.2,9.7 32.1,9.7 " /><path
   id="path638"
   fill="#FFFFFF"
   d="M30.6,9.8c0.3,0,0.6-0.1,0.9-0.1C31.3,9.7,31,9.8,30.6,9.8z" /><path
   id="path639"
   fill="#FFFFFF"
   d="M32,9.7C31.9,9.7,31.9,9.7,32,9.7L32,9.7h-0.5C31.7,9.7,31.9,9.7,32,9.7L32,9.7z" /><path
   id="path640"
   fill="#FFFFFF"
   d="M32,9.7c0.1,0,0.3,0,0.3,0S32.2,9.7,32,9.7z" /><path
   id="path641"
   fill="#FFFFFF"
   d="M31.6,9.8c-0.2,0-0.1,0-0.5,0c-0.8,0.1-1.5,0.2-2.3,0.4c-0.3,0.1-0.9,0.2-1.3,0.3      c-0.8,0.2-2.9,1-1.6,0.5c1.8-0.6,3-0.9,4.7-1.1c1.4-0.2,2.7-0.3,4.1-0.1c0.4,0,0.8,0.1,1.1,0.2c-0.5-0.1-1-0.2-1.5-0.2      C33.6,9.7,32.7,9.7,31.6,9.8L31.6,9.8z" /><path
   id="path642"
   fill="#FFFFFF"
   d="M41.2,12.7c-0.1-0.1-0.4-0.4-0.4-0.4c-0.6-0.6-1.3-1.1-2-1.5c0.1,0.1,0.2,0.1,0.3,0.2      c0.4,0.2,0.5,0.3,0.1,0c0.8,0.5,1.6,1.1,2.2,1.9C41.4,12.9,41.4,12.9,41.2,12.7L41.2,12.7z" /><polygon
   id="path643"
   fill="#FFFFFF"
   points="41.3,13.2 41.9,13.2 41.9,13.2 " /><path
   id="path644"
   fill="#FFFFFF"
   d="M26.9,10.6c-2.3,0.7-4.4,1.6-6.3,2.7c-0.1,0.1-0.2,0.2-0.4,0.3c-0.2,0.1-0.3,0.2-0.5,0.3      c-0.3,0.2-0.6,0.3-0.8,0.5l-0.3,0.2l0,0c-0.2,0.1-0.1,0.1,0,0s0.2-0.1,0.3-0.2c-0.1,0-0.2,0.1-0.3,0.2s-0.3,0.2-0.4,0.3      c-0.2,0.2-0.5,0.3-0.8,0.5c0.3-0.2,0.5-0.4,0.8-0.5c0.2-0.1,0.3-0.2,0.5-0.3l0.1-0.1c-0.6,0.4-1.2,0.8-1.8,1.2      c-0.1,0.1-0.3,0.2-0.4,0.3c-0.4,0.3-0.8,0.6-1.1,0.8L15.1,17h0.1l-0.1,0.1c-0.4,0.4-0.8,0.7-1.3,1.1c-0.3,0.3-0.5,0.5-0.8,0.8      c0,0-0.2,0.2-0.3,0.3c-0.1,0.1-0.2,0.3-0.4,0.5c0.2-0.2,0.4-0.4,0.6-0.6c0.3-0.3,0.6-0.6,0.9-0.9c-0.3,0.3-0.6,0.6-0.9,0.9      c-0.2,0.2-0.4,0.4-0.6,0.6c-0.4,0.4-0.8,0.9-1.2,1.3c0.4-0.5,0.8-0.9,1.2-1.3c0.2-0.2,0.3-0.3,0.4-0.5C12.8,19.2,13,19,13,19      c0.3-0.3,0.5-0.5,0.8-0.8c-0.8,0.7-1.6,1.5-2.3,2.4c-2.4,2.7-4.3,5.8-5,9.2c-0.3,1.7-0.3,3.6,0.4,5.2c0.7,1.7,2.1,3,3.8,3.8      c3.8,1.7,7.9,1.2,11.6,0.2c3.7-1,7-2.8,10-4.9c3-2.1,5.7-4.7,7.9-7.9c0.8-1.2,1.9-3.1,2.5-5.1c0.6-2,0.6-4.2,0.2-5.6      c-0.6-1.9-1.1-2.1-1-2.1c0,0.1,0.3,0.5,0.3,0.6c0.5,1.1,0.8,2.1,0.8,3.4c0,1.3-0.2,3-1.1,5.2c0.6-1.5,0.4-0.9-0.1,0.3      c-0.5,1.3-1.7,3.2-2.6,4.4c-2.7,3.5-7.6,7.7-12.7,9.9c-1.2,0.6-2.6,1.1-4.2,1.5c-4,1.1-8.4,1.5-12.1-0.5c-1.8-1-3.1-2.8-3.5-4.8      c-0.4-2.1,0-4.3,0.8-6.3c0.9-2.2,2-3.9,3.2-5.5c0.9-1.1,2-2.3,2.8-3.1c1.4-1.3,2.6-2.3,3.9-3.2c-1.4,1-2.4,1.8-3.8,3.1      c-0.9,0.9,0.6-0.6,1.3-1.2c0.3-0.2,0.7-0.6,1-0.8c0.6-0.5,1.2-0.9,1.9-1.4c0.3-0.2,0.3-0.2,0.4-0.3c1-0.6,1.7-1.1,2.4-1.5      c0.5-0.3,0.9-0.5,1.4-0.7c0.3-0.1,0.6-0.3,0.9-0.4c0.2-0.1,0.4-0.2,0.6-0.3c-0.2,0.1-0.2,0.1-0.3,0.1c0.3-0.1,0.7-0.3,1-0.4      c-0.3,0.1-0.7,0.3-1,0.4c0.1,0,0.1,0,0.3-0.1c1.4-0.6,3-1.2,4.6-1.6l0,0c-0.9,0.2-1.8,0.5-2.7,0.8c0.4-0.1,0.4-0.1-0.1,0.1      l-0.4,0.1c0.8-0.3,1.6-0.6,2.4-0.8c0,0,0.3-0.1,0.5-0.1c0.3-0.1,0.2-0.1,0.3-0.1l0.5-0.1C28.1,10.3,26.9,10.6,26.9,10.6      L26.9,10.6z" /><path
   id="path645"
   fill="#FFFFFF"
   d="M18.1,14.8c0.1-0.1,0.2-0.2,0.4-0.3c-0.5,0.3-1,0.7-1.5,1C17.2,15.4,17.6,15.1,18.1,14.8z" /></g></g><g
   id="g646"
   i:knockout="Off"
   i:layer="yes"
   i:dimmedPercent="50"
   i:rgbTrio="#4F00FFFF4F00"><ellipse
   id="path647"
   i:knockout="Off"
   fill="none"
   cx="26"
   cy="24.3"
   rx="3.7"
   ry="20.1" /><g
   id="g648"
   i:knockout="Off"><path
   id="path649"
   fill="#FFFFFF"
   d="M29.6,17.4l-0.1-0.8V17C29.6,17.1,29.6,17.2,29.6,17.4L29.6,17.4z" /><polygon
   id="path650"
   fill="#FFFFFF"
   points="29.5,15.8 29.5,15.6 29.5,15.5 " /><path
   id="path651"
   fill="#FFFFFF"
   d="M29.3,14.3c0,0.3,0.1,0.5,0.1,0.7C29.4,14.8,29.4,14.6,29.3,14.3z" /><path
   id="path652"
   fill="#FFFFFF"
   d="M29.4,15.5C29.4,15.4,29.4,15.3,29.4,15.5L29.4,15.5v-0.4C29.4,15.2,29.4,15.3,29.4,15.5      L29.4,15.5z" /><path
   id="path653"
   fill="#FFFFFF"
   d="M29.4,15.5c0,0.1,0,0.2,0,0.3C29.5,15.7,29.4,15.6,29.4,15.5z" /><path
   id="path654"
   fill="#FFFFFF"
   d="M29.3,15.1c0-0.1,0-0.1,0-0.4c-0.1-0.7-0.2-1.3-0.2-1.9c0-0.3-0.1-0.8-0.1-1      c-0.1-0.7-0.5-2.4-0.3-1.4c0.3,1.5,0.4,2.5,0.6,3.9c0.1,1.1,0.2,2.2,0.3,3.4c0,0.3,0,0.6,0.1,0.9c0-0.4,0-0.8-0.1-1.3      C29.5,16.7,29.4,16,29.3,15.1L29.3,15.1z" /><path
   id="path655"
   fill="#FFFFFF"
   d="M29.8,23.6c0-0.1,0-0.4,0-0.4c0-0.7,0-1.3,0-2v0.3c0,0.4,0,0.4,0,0.1c0,0.8,0,1.6,0,2.3      C29.8,23.8,29.8,23.8,29.8,23.6z" /><polygon
   id="path656"
   fill="#FFFFFF"
   points="29.6,24.1 30.1,24.1 30.1,24.1 " /><path
   id="path657"
   fill="#FFFFFF"
   d="M28.9,11.2c-0.3-1.9-0.7-3.7-1.4-5.4c-0.1-0.1-0.1-0.2-0.2-0.4c-0.1-0.1-0.1-0.3-0.2-0.4      c-0.1-0.2-0.3-0.4-0.5-0.6c-0.1-0.1-0.1-0.1-0.2-0.2l0,0c-0.1-0.1-0.1,0,0,0c0.1,0.1,0.2,0.1,0.2,0.2c0,0-0.1-0.1-0.2-0.2      c-0.1-0.1-0.2-0.1-0.4-0.1s-0.5,0.1-0.7,0.3c0.2-0.2,0.5-0.3,0.7-0.3s0.3,0.1,0.4,0.1l0.1,0.1c-0.5-0.5-1.2,0-1.5,0.5      c0,0.1-0.1,0.2-0.1,0.3c-0.2,0.4-0.4,0.8-0.5,1l-0.1,0.3V6.3v0.1c-0.1,0.4-0.3,0.9-0.4,1.3c-0.1,0.3-0.1,0.6-0.2,0.9      c0,0-0.1,0.2-0.1,0.3s-0.1,0.3-0.1,0.5c0.1-0.2,0.1-0.5,0.2-0.7c0.1-0.3,0.1-0.7,0.2-1c-0.1,0.3-0.2,0.7-0.2,1      c0,0.2-0.1,0.4-0.2,0.7c-0.1,0.4-0.2,1-0.3,1.4c0.1-0.5,0.2-1,0.3-1.4c0-0.2,0.1-0.4,0.1-0.5s0.1-0.3,0.1-0.3      c0.1-0.3,0.1-0.6,0.2-0.9c-0.2,0.9-0.4,1.7-0.6,2.6c-1,5.8-1.1,11.2-1,17.3c0.1,3.3,0.3,6.5,0.8,9.5c0.2,1.5,0.5,3,1,4.5      c0.2,0.7,0.5,1.4,0.9,2.1c0.2,0.3,0.5,0.6,0.9,0.8c0.4,0.1,0.8-0.2,1.1-0.5c0.9-1.2,1.3-2.7,1.6-4.2c0.3-1.5,0.6-3,0.8-4.5      c0.3-2.4,0.6-6.8,0.6-9.2c0-3.1-0.1-1.5-0.1-1.3c-0.1,1.9-0.1,3.4-0.4,7.3c0.2-2.6,0,2-0.5,4.4c-0.3,1.8-0.7,4-1.5,6.1      c-0.2,0.5-0.5,1.1-0.8,1.4c-0.4,0.4-0.9,0.3-1.3-0.2c-0.7-0.9-1-2-1.3-3.1c-0.3-1.1-0.5-2.2-0.7-3.5c-0.9-6.8-1.1-13.3-0.6-20.5      c0.1-1.9,0.3-3.6,0.5-5.2c0.2-1.2,0.4-2.4,0.7-3.3c0.4-1.4,0.7-2.8,1.5-3.6c-0.9,1-1.1,2.1-1.5,3.6c-0.2,1,0.1-0.7,0.3-1.4      c0.1-0.3,0.3-0.7,0.4-1c0.3-0.6,0.5-1.1,1.1-1.5c0.2-0.1,0.2,0,0.4,0c0.8,0.2,1.1,1.1,1.4,1.6c0.2,0.4,0.3,0.8,0.4,1.2      c0,0.1,0,0.4,0.1,0.6c0,0.2,0.1,0.3,0.1,0.5c0-0.1,0-0.2,0-0.2c0.1,0.2,0.1,0.6,0.2,0.8c-0.1-0.2-0.1-0.6-0.2-0.8      c0,0,0,0.1,0,0.2c0.3,1.2,0.6,2.6,0.8,3.9l0,0c-0.1-0.8-0.2-1.5-0.4-2.3c0.1,0.3,0,0.3,0-0.1V9.4c0.1,0.7,0.3,1.3,0.4,2      c0,0,0,0.3,0.1,0.4c0,0.2,0,0.2,0,0.3l0.1,0.5C29,12.2,28.9,11.2,28.9,11.2L28.9,11.2z" /><path
   id="path658"
   fill="#FFFFFF"
   d="M26,4.1c0.1,0,0.2,0,0.4,0.1c-0.5-0.3-1,0.1-1.3,0.5C25.3,4.6,25.6,4.2,26,4.1L26,4.1z" /></g></g><g
   id="g659"
   i:knockout="Off"
   i:layer="yes"
   i:dimmedPercent="50"
   i:rgbTrio="#4F004F00FFFF"><path
   id="path660"
   i:knockout="Off"
   fill="none"
   d="M23.6,23.6c6,9,10.5,16.6,10,17c-0.5,0.4-5.9-6.7-11.9-15.7     c-6-9-10.5-16.6-10-17C12.3,7.6,17.6,14.6,23.6,23.6L23.6,23.6z" /><g
   id="g661"
   i:knockout="Off"><path
   id="path662"
   fill="#FFFFFF"
   d="M20,18.2l-0.5-0.6l0.2,0.3C19.8,18,19.9,18.1,20,18.2z" /><polygon
   id="path663"
   fill="#FFFFFF"
   points="19.1,17 19,16.8 18.9,16.8 " /><path
   id="path664"
   fill="#FFFFFF"
   d="M18.3,15.8c0.1,0.2,0.3,0.4,0.4,0.6C18.6,16.3,18.5,16.1,18.3,15.8z" /><path
   id="path665"
   fill="#FFFFFF"
   d="M18.9,16.7C18.9,16.7,18.9,16.6,18.9,16.7L18.9,16.7l-0.2-0.3      C18.8,16.5,18.9,16.6,18.9,16.7L18.9,16.7z" /><path
   id="path666"
   fill="#FFFFFF"
   d="M18.9,16.7c0,0.1,0.1,0.2,0.1,0.2S19,16.8,18.9,16.7z" /><path
   id="path667"
   fill="#FFFFFF"
   d="M18.6,16.5c-0.1-0.1,0-0.1-0.2-0.3c-0.4-0.5-0.7-1-1.1-1.4c-0.2-0.2-0.4-0.6-0.6-0.8      c-0.4-0.5-1.4-1.8-0.8-1c0.9,1.2,1.4,1.9,2.2,3c0.6,0.9,1.2,1.7,1.9,2.6c0.2,0.2,0.3,0.5,0.5,0.7c-0.2-0.3-0.4-0.6-0.7-1      C19.6,17.8,19.2,17.2,18.6,16.5L18.6,16.5z" /><path
   id="path668"
   fill="#FFFFFF"
   d="M23.3,23c-0.1-0.1-0.2-0.3-0.2-0.3c-0.3-0.5-0.7-1.1-1.1-1.6l0.1,0.2      c0.2,0.3,0.2,0.3,0.1,0.1c0.4,0.6,0.8,1.2,1.2,1.8C23.4,23.2,23.4,23.2,23.3,23L23.3,23z" /><polygon
   id="path669"
   fill="#FFFFFF"
   points="23.3,23.4 23.7,23.4 23.7,23.4 " /><path
   id="path670"
   fill="#FFFFFF"
   d="M16.6,13.5c-1.1-1.5-2.1-2.8-3.2-4.1c-0.1-0.1-0.2-0.2-0.3-0.3l-0.3-0.3      c-0.2-0.2-0.3-0.4-0.5-0.5c-0.1-0.1-0.1-0.1-0.2-0.2l0,0C12,8,12,8,12.1,8.1s0.1,0.1,0.2,0.2c0,0-0.1-0.1-0.2-0.2      s-0.2-0.2-0.4-0.2c-0.1,0.2,0,0.4,0.1,0.7c-0.1-0.2-0.2-0.5-0.1-0.7c0.2,0,0.3,0.1,0.4,0.2l0.1,0.1C12.1,8.1,12,8,11.8,7.9      c-0.2-0.1-0.2,0.2-0.2,0.3C11.7,8.5,11.9,8.7,12,9c0.1,0.1,0.1,0.2,0.1,0.3c0.2,0.4,0.4,0.7,0.5,1l0.1,0.3v-0.1v0.1      c0.2,0.4,0.4,0.7,0.6,1.1l0.4,0.7c0,0,0.1,0.2,0.1,0.3c0.1,0.1,0.2,0.2,0.2,0.4c-0.1-0.2-0.2-0.4-0.3-0.6      c-0.1-0.3-0.3-0.5-0.5-0.8c0.1,0.3,0.4,0.6,0.5,0.8c0.1,0.2,0.2,0.4,0.3,0.6c0.2,0.3,0.5,0.8,0.7,1.2c-0.3-0.4-0.5-0.8-0.7-1.2      c-0.1-0.2-0.2-0.3-0.2-0.4c0-0.1-0.1-0.3-0.1-0.3l-0.4-0.7c0.4,0.7,0.8,1.5,1.3,2.2c2.8,4.7,5.6,9,8.8,13.7      c1.7,2.6,3.4,5,5.2,7.4c0.9,1.2,1.7,2.3,2.6,3.4c0.4,0.5,0.9,1.1,1.4,1.6c0.2,0.3,0.5,0.5,0.8,0.7c0.1,0.1,0.3,0.1,0.4-0.1      c0-0.1,0-0.2,0-0.3c0-0.2-0.1-0.3-0.2-0.5c-1.2-2.6-2.6-4.9-4.1-7.5c-1.2-1.9-3.4-5.5-4.6-7.3c-1.7-2.4-0.9-1.1-0.8-1      c0.9,1.5,1.7,2.7,3.6,5.8c-1.3-2.1,1.1,1.5,2.2,3.5c0.8,1.5,1.9,3.2,2.9,5.1c0.2,0.5,0.5,1,0.7,1.5c0.1,0.2,0.1,0.7,0.2,0.5      c-0.2-0.1-0.4-0.3-0.6-0.5c-0.8-0.8-1.4-1.6-2.1-2.5c-0.6-0.8-1.3-1.7-2.1-2.7c-3.8-5.3-7.2-10.2-10.9-16      c-1-1.5-1.8-2.9-2.6-4.2c-0.6-0.9-1.2-2-1.6-2.8c-0.7-1.2-1.3-2.3-1.8-3.4c0.5,1.2,1,2,1.7,3.3c0.5,0.8-0.4-0.6-0.7-1.1      c-0.1-0.2-0.3-0.6-0.4-0.9c-0.3-0.5-0.5-1-0.7-1.6c-0.1-0.3,0-0.2,0-0.2c0.7,0.4,1.1,1,1.5,1.4c0.3,0.3,0.5,0.6,0.7,0.9      c0.1,0.2,0.3,0.4,0.4,0.6l0.3,0.4c-0.1-0.1-0.1-0.1-0.1-0.2c0.1,0.2,0.3,0.4,0.5,0.6c-0.1-0.2-0.3-0.4-0.5-0.6      c0,0,0,0.1,0.1,0.2c0.7,0.9,1.5,2,2.3,3l0,0c-0.4-0.6-0.9-1.2-1.3-1.8c0.2,0.3,0.2,0.2-0.1-0.1L15.5,12      C15.9,12.5,16.3,13,16.6,13.5c0,0,0.2,0.2,0.3,0.3C17,14,17,14,17,14l0.3,0.3C17.1,14.3,16.6,13.5,16.6,13.5L16.6,13.5z" /><path
   id="path671"
   fill="#FFFFFF"
   d="M11.7,7.9C11.8,7.9,11.9,8,12,8C11.9,8,11.8,7.9,11.7,7.9c-0.1,0.1,0,0.2,0,0.4      c0.1,0.2,0.2,0.4,0.2,0.7C11.9,8.7,11.6,8.3,11.7,7.9z" /></g></g><g
   id="g672"
   i:knockout="Off"
   i:layer="yes"
   i:dimmedPercent="50"
   i:rgbTrio="#FFFFFFFF4F00"><g
   id="g673"
   i:knockout="Off"><g
   id="path674"
   i:knockout="Off"><g
   id="circle668"
   i:knockout="Off"><g
   id="circle679"><circle
   i:knockout="Off"
   opacity="0"
   fill="#FFFFFF"
   cx="28.5"
   cy="10.8"
   r="1.3"
   id="circle697" /></g></g></g><circle
   id="path675"
   i:isolated="yes"
   i:knockout="Off"
   opacity="0.1667"
   fill="#FFFFFF"
   enable-background="new    "
   cx="28.5"
   cy="10.8"
   r="1.2" /><circle
   id="path676"
   i:isolated="yes"
   i:knockout="Off"
   opacity="0.3333"
   fill="#FFFFFF"
   enable-background="new    "
   cx="28.5"
   cy="10.8"
   r="1" /><circle
   id="path677"
   i:isolated="yes"
   i:knockout="Off"
   opacity="0.5"
   fill="#FFFFFF"
   enable-background="new    "
   cx="28.5"
   cy="10.8"
   r="0.9" /><circle
   id="path678"
   i:isolated="yes"
   i:knockout="Off"
   opacity="0.6667"
   fill="#FFFFFF"
   enable-background="new    "
   cx="28.5"
   cy="10.8"
   r="0.8" /><circle
   id="path679"
   i:isolated="yes"
   i:knockout="Off"
   opacity="0.8333"
   fill="#FFFFFF"
   enable-background="new    "
   cx="28.5"
   cy="10.8"
   r="0.6" /><circle
   id="path680"
   fill="#FFFFFF"
   cx="28.5"
   cy="10.8"
   r="0.5" /></g></g><g
   id="g681"
   i:knockout="Off"
   i:layer="yes"
   i:dimmedPercent="50"
   i:rgbTrio="#FFFF4F00FFFF"><g
   id="g682"
   i:knockout="Off"><g
   id="path683"
   i:knockout="Off"><g
   id="circle678"
   i:knockout="Off"><g
   id="circle690"><circle
   i:knockout="Off"
   opacity="0"
   fill="#FFFFFF"
   cx="23.2"
   cy="12.2"
   r="1.7"
   id="circle709" /></g></g></g><circle
   id="path684"
   i:isolated="yes"
   i:knockout="Off"
   opacity="0.1667"
   fill="#FFFFFF"
   enable-background="new    "
   cx="23.2"
   cy="12.2"
   r="1.5" /><circle
   id="path685"
   i:isolated="yes"
   i:knockout="Off"
   opacity="0.3333"
   fill="#FFFFFF"
   enable-background="new    "
   cx="23.2"
   cy="12.2"
   r="1.3" /><circle
   id="path686"
   i:isolated="yes"
   i:knockout="Off"
   opacity="0.5"
   fill="#FFFFFF"
   enable-background="new    "
   cx="23.2"
   cy="12.2"
   r="1.2" /><circle
   id="path687"
   i:isolated="yes"
   i:knockout="Off"
   opacity="0.6667"
   fill="#FFFFFF"
   enable-background="new    "
   cx="23.2"
   cy="12.2"
   r="1" /><circle
   id="path688"
   i:isolated="yes"
   i:knockout="Off"
   opacity="0.8333"
   fill="#FFFFFF"
   enable-background="new    "
   cx="23.2"
   cy="12.2"
   r="0.8" /><circle
   id="path689"
   fill="#FFFFFF"
   cx="23.2"
   cy="12.2"
   r="0.6" /></g></g><g
   id="g690"
   i:knockout="Off"
   i:layer="yes"
   i:dimmedPercent="50"
   i:rgbTrio="#4F00FFFFFFFF"><g
   id="g691"
   i:knockout="Off"><g
   id="path692"
   i:knockout="Off"><g
   id="circle688"
   i:knockout="Off"><g
   id="circle701"><circle
   i:knockout="Off"
   opacity="0"
   fill="#FFFFFF"
   cx="16.1"
   cy="16.2"
   r="2.4"
   id="circle721" /></g></g></g><circle
   id="path693"
   i:isolated="yes"
   i:knockout="Off"
   opacity="0.1667"
   fill="#FFFFFF"
   enable-background="new    "
   cx="16.1"
   cy="16.2"
   r="2.2" /><circle
   id="path694"
   i:isolated="yes"
   i:knockout="Off"
   opacity="0.3333"
   fill="#FFFFFF"
   enable-background="new    "
   cx="16.1"
   cy="16.2"
   r="1.9" /><circle
   id="path695"
   i:isolated="yes"
   i:knockout="Off"
   opacity="0.5"
   fill="#FFFFFF"
   enable-background="new    "
   cx="16.1"
   cy="16.2"
   r="1.6" /><circle
   id="path696"
   i:isolated="yes"
   i:knockout="Off"
   opacity="0.6667"
   fill="#FFFFFF"
   enable-background="new    "
   cx="16.1"
   cy="16.2"
   r="1.4" /><circle
   id="path697"
   i:isolated="yes"
   i:knockout="Off"
   opacity="0.8333"
   fill="#FFFFFF"
   enable-background="new    "
   cx="16.1"
   cy="16.2"
   r="1.1" /><circle
   id="path698"
   fill="#FFFFFF"
   cx="16.1"
   cy="16.2"
   r="0.8" /></g><g
   id="path699"
   i:knockout="Off"><g
   id="circle696"
   i:knockout="Off"><g
   id="circle710"><circle
   i:knockout="Off"
   opacity="0"
   fill="#FFFFFF"
   cx="23.2"
   cy="38.5"
   r="2.2"
   id="circle731" /></g></g></g></g><g
   id="g700"
   i:knockout="Off"
   i:layer="yes"
   i:dimmedPercent="50"
   i:rgbTrio="#800080008000"><g
   id="g701"
   i:knockout="Off"><g
   id="path702"
   i:knockout="Off"><g
   id="circle700"
   i:knockout="Off"><g
   id="circle715"><circle
   i:knockout="Off"
   opacity="0"
   fill="#FFFFFF"
   cx="30.3"
   cy="34.8"
   r="3.7"
   id="circle737" /></g></g></g><circle
   id="path703"
   i:isolated="yes"
   i:knockout="Off"
   opacity="0.1667"
   fill="#FFFFFF"
   enable-background="new    "
   cx="30.3"
   cy="34.8"
   r="3.3" /><circle
   id="path704"
   i:isolated="yes"
   i:knockout="Off"
   opacity="0.3333"
   fill="#FFFFFF"
   enable-background="new    "
   cx="30.3"
   cy="34.8"
   r="2.8" /><circle
   id="path705"
   i:isolated="yes"
   i:knockout="Off"
   opacity="0.5"
   fill="#FFFFFF"
   enable-background="new    "
   cx="30.3"
   cy="34.8"
   r="2.3" /><circle
   id="path706"
   i:isolated="yes"
   i:knockout="Off"
   opacity="0.6667"
   fill="#FFFFFF"
   enable-background="new    "
   cx="30.3"
   cy="34.8"
   r="1.9" /><circle
   id="path707"
   i:isolated="yes"
   i:knockout="Off"
   opacity="0.8333"
   fill="#FFFFFF"
   enable-background="new    "
   cx="30.3"
   cy="34.8"
   r="1.4" /><circle
   id="path708"
   fill="#FFFFFF"
   cx="30.3"
   cy="34.8"
   r="1" /></g></g><g
   id="g709"
   i:knockout="Off"
   i:layer="yes"
   i:dimmedPercent="50"
   i:rgbTrio="#000000000000"><g
   id="g710"
   i:knockout="Off"><g
   id="path711"
   i:knockout="Off"><g
   id="g725"
   i:knockout="Off"><g
   id="circle726"><circle
   i:knockout="Off"
   opacity="0"
   fill="#FFFFFF"
   cx="22.3"
   cy="26.1"
   r="2.4"
   id="circle749" /></g></g></g><circle
   id="path712"
   i:isolated="yes"
   i:knockout="Off"
   opacity="0.1667"
   fill="#FFFFFF"
   enable-background="new    "
   cx="22.3"
   cy="26.1"
   r="2.2" /><circle
   id="path713"
   i:isolated="yes"
   i:knockout="Off"
   opacity="0.3333"
   fill="#FFFFFF"
   enable-background="new    "
   cx="22.3"
   cy="26.1"
   r="2" /><circle
   id="path714"
   i:isolated="yes"
   i:knockout="Off"
   opacity="0.5"
   fill="#FFFFFF"
   enable-background="new    "
   cx="22.3"
   cy="26.1"
   r="1.8" /><circle
   id="path715"
   i:isolated="yes"
   i:knockout="Off"
   opacity="0.6667"
   fill="#FFFFFF"
   enable-background="new    "
   cx="22.3"
   cy="26.1"
   r="1.5" /><circle
   id="path716"
   i:isolated="yes"
   i:knockout="Off"
   opacity="0.8333"
   fill="#FFFFFF"
   enable-background="new    "
   cx="22.3"
   cy="26.1"
   r="1.3" /><circle
   id="path717"
   fill="#FFFFFF"
   cx="22.3"
   cy="26.1"
   r="1.1" /></g></g><g
   id="Layer_2_1_"
   i:knockout="Off"
   i:layer="yes"
   i:dimmedPercent="50"
   i:rgbTrio="#FFFF4F004F00"><rect
   id="path550"
   x="18.9"
   y="20.7"
   i:knockout="Off"
   fill="none"
   width="28.2"
   height="28.2" /><path
   id="path552"
   i:isolated="yes"
   i:knockout="Off"
   opacity="0.2"
   enable-background="new    "
   d="M1.3,31.4l8.1-10.6     c0.2-0.2,0.5-0.4,0.8-0.4c0.3,0,0.6,0.1,0.8,0.4l8,10.6c0.2,0.3,0.3,0.7,0.1,1c-0.2,0.3-0.5,0.6-0.9,0.6c0,0-2.8,0-3.2,0     c0,1.2,0.3,2.9,1.4,4.6c2,3.3,5.8,5.6,11.3,6.8c0.5,0.1,0.8,0.6,0.8,1.1c-0.1,0.5-0.5,0.9-1,0.9c-8.3,0-14.6-2.2-18.5-6.4     c-2.5-2.7-3.3-5.5-3.6-7C5.1,33,2,33,2,33c-0.4,0-0.7-0.2-0.9-0.6C0.9,32,1.1,31.7,1.3,31.4z" /><path
   id="path553"
   fill="#3A3333"
   d="M0.8,32l8.1-10.6C9,21.2,9.3,21,9.6,21c0.3,0,0.6,0.1,0.8,0.4L18.5,32     c0.2,0.3,0.3,0.7,0.1,1c-0.2,0.3-0.5,0.6-0.9,0.6c0,0-2.8,0-3.2,0c0,1.2,0.3,2.8,1.4,4.6c2,3.3,5.8,5.6,11.3,6.8     c0.5,0.1,0.8,0.6,0.8,1.1c-0.1,0.5-0.5,0.9-1,0.9c-8.3,0-14.6-2.2-18.5-6.4c-2.5-2.7-3.3-5.5-3.6-7c-0.3,0-3.4,0-3.4,0     c-0.4,0-0.7-0.2-0.9-0.6C0.5,32.7,0.5,32.3,0.8,32z" /><path
   id="path554"
   fill="#3A3333"
   d="M0.9,32.1L9,21.5c0.1-0.2,0.4-0.3,0.6-0.3c0.2,0,0.5,0.1,0.6,0.3l8.1,10.6     c0.2,0.2,0.2,0.5,0.1,0.8c-0.1,0.3-0.4,0.4-0.7,0.4c0,0-3,0-3.4,0c0,1.1,0.2,3,1.4,5c2,3.4,5.9,5.7,11.4,6.9     c0.4,0.1,0.6,0.4,0.6,0.8s-0.4,0.7-0.8,0.7c-8.3,0-14.4-2.1-18.3-6.3c-2.5-2.7-3.3-5.5-3.6-7.1c-0.3,0-3.5,0-3.5,0     c-0.3,0-0.6-0.2-0.7-0.4C0.7,32.6,0.8,32.3,0.9,32.1z" /><path
   id="path555"
   fill="#583333"
   d="M1.1,32.2l8.1-10.6c0.1-0.1,0.3-0.2,0.4-0.2s0.3,0.1,0.4,0.2l8.1,10.6     c0.1,0.2,0.1,0.4,0.1,0.6c-0.1,0.2-0.3,0.3-0.5,0.3c0,0-2.8,0-3.6,0c0,1,0.2,3.1,1.5,5.3c2,3.4,5.9,5.8,11.6,7     c0.3,0.1,0.5,0.3,0.4,0.6c0,0.3-0.3,0.5-0.5,0.5c-8.2,0-14.3-2.1-18.1-6.3c-2.6-2.8-3.3-5.8-3.6-7.2c-0.8,0-3.7,0-3.7,0     c-0.2,0-0.4-0.1-0.5-0.3C1,32.6,1,32.4,1.1,32.2z" /><linearGradient
   id="path562_1_"
   gradientUnits="userSpaceOnUse"
   x1="-829.6367"
   y1="293.8975"
   x2="-612.0483"
   y2="293.8975"
   gradientTransform="matrix(2.026450e-017 0.1103 -0.1103 2.026450e-017 46.7173 113.5085)"><stop
   offset="0"
   style="stop-color:#FFCC66"
   id="stop764" /><stop
   offset="1"
   style="stop-color:#FF9900"
   id="stop765" /><a:midPointStop
   offset="0"
   style="stop-color:#FFCC66"
   id="midPointStop766" /><a:midPointStop
   offset="0.5"
   style="stop-color:#FFCC66"
   id="midPointStop767" /><a:midPointStop
   offset="1"
   style="stop-color:#FF9900"
   id="midPointStop768" /></linearGradient><path
   id="path562"
   fill="url(#path562_1_)"
   d="M5.8,32.6H1.6l8-10.6l8.1,10.6h-4.2C13.4,34,13.2,43,27,46     C7.8,46,5.9,34.3,5.8,32.6z" /><path
   fill="#FFFF99"
   d="M9.4,22.3l7.4,10.2h0.9L9.6,22L9.4,22.3z M25.4,46c0.5,0,1.1,0,1.6,0c-13.8-3-13.6-12-13.5-13.4h-0.7     C12.7,34,12.5,43,25.4,46z"
   id="path770" /><linearGradient
   id="path795_1_"
   gradientUnits="userSpaceOnUse"
   x1="-273"
   y1="397.5"
   x2="-273"
   y2="383.5"
   gradientTransform="matrix(1 0 0 -1 282.5 419.9941)"><stop
   offset="0"
   style="stop-color:#FFFFFF"
   id="stop772" /><stop
   offset="1"
   style="stop-color:#FFCC66"
   id="stop773" /><a:midPointStop
   offset="0"
   style="stop-color:#FFFFFF"
   id="midPointStop774" /><a:midPointStop
   offset="0.5"
   style="stop-color:#FFFFFF"
   id="midPointStop775" /><a:midPointStop
   offset="1"
   style="stop-color:#FFCC66"
   id="midPointStop776" /></linearGradient><path
   id="path795"
   fill="url(#path795_1_)"
   d="M5.9,32.5V32c0,0-2.5,0-3.7,0c1.1-1.4,6.6-8.8,7.3-9.7c0.5,0.9,6.2,8.5,7.3,9.9     c-1.2,0-3.7,0-3.7,0S13,33.9,13,34.5C12.9,37.1,6,33.4,5.9,32.5L5.9,32.5L5.9,32.5L5.9,32.5z" /></g></svg>
