<?xml version="1.0" encoding="UTF-8" standalone="no"?>
<!DOCTYPE svg PUBLIC "-//W3C//DTD SVG 20010904//EN"
"http://www.w3.org/TR/2001/REC-SVG-20010904/DTD/svg10.dtd">
<!-- Created with Sodipodi ("http://www.sodipodi.com/") -->
<svg
   xmlns:x="http://ns.adobe.com/Extensibility/1.0/"
   xmlns:i="http://ns.adobe.com/AdobeIllustrator/10.0/"
   xmlns:graph="http://ns.adobe.com/Graphs/1.0/"
   xmlns="http://www.w3.org/2000/svg"
   xmlns:xlink="http://www.w3.org/1999/xlink"
   xmlns:a="http://ns.adobe.com/AdobeSVGViewerExtensions/3.0/"
   xml:space="preserve"
   i:viewOrigin="281.5 420.5"
   i:rulerOrigin="0 0"
   i:pageBounds="0 792 612 0"
   width="48"
   height="48"
   viewBox="0 0 48 48"
   overflow="visible"
   enable-background="new 0 0 48 48"
   xmlns:sodipodi="http://sodipodi.sourceforge.net/DTD/sodipodi-0.dtd"
   id="svg602"
   sodipodi:version="0.34"
   sodipodi:docname="C:\msys\home\su_blanc\mldonkey-2.5.12\src\gtk2\rsvg\menu_im.svg"><defs
   id="defs663" /><sodipodi:namedview
   id="base" /><g
   id="Layer_3"
   i:knockout="Off"
   i:layer="yes"
   i:dimmedPercent="50"
   i:rgbTrio="#4F00FFFF4F00"><rect
   id="path550"
   i:knockout="Off"
   fill="none"
   width="48"
   height="48" /><path
   id="path553"
   fill="#8D0000"
   d="M3.4,34.6c0,0,4.8-2.5,7.9-9.3l8.3,3.6C19.6,28.8,17.4,34.6,3.4,34.6z" /><ellipse
   id="path554"
   fill="#8D0000"
   cx="20.8"
   cy="18.6"
   rx="20.1"
   ry="14.3" /><linearGradient
   id="path567_1_"
   gradientUnits="userSpaceOnUse"
   x1="-260.6499"
   y1="415.75"
   x2="-260.6499"
   y2="380.5"
   gradientTransform="matrix(1 0 0 -1 281.5 420.5)"><stop
   offset="0"
   style="stop-color:#FFFF00"
   id="stop610" /><stop
   offset="0.6539"
   style="stop-color:#FF9C00"
   id="stop611" /><stop
   offset="1"
   style="stop-color:#FF6D00"
   id="stop612" /><a:midPointStop
   offset="0"
   style="stop-color:#FFFF00"
   id="midPointStop613" /><a:midPointStop
   offset="0.5"
   style="stop-color:#FFFF00"
   id="midPointStop614" /><a:midPointStop
   offset="0.6539"
   style="stop-color:#FF9C00"
   id="midPointStop615" /><a:midPointStop
   offset="0.5"
   style="stop-color:#FF9C00"
   id="midPointStop616" /><a:midPointStop
   offset="1"
   style="stop-color:#FF6D00"
   id="midPointStop617" /></linearGradient><path
   id="path567"
   fill="url(#path567_1_)"
   d="M20.8,5.1c-10.6,0-19.3,6.1-19.3,13.5c0,4.5,3.2,8.6,8.2,11     C8.4,31.4,7,32.8,6,33.7c4.5-0.3,7.5-1.2,9.4-2.1c1.7,0.4,3.6,0.6,5.5,0.6c10.6,0,19.3-6.1,19.3-13.5     C40.1,11.2,31.4,5.1,20.8,5.1z" /><linearGradient
   id="path574_1_"
   gradientUnits="userSpaceOnUse"
   x1="-790.9678"
   y1="403.0313"
   x2="-790.9678"
   y2="362.8643"
   gradientTransform="matrix(0.4688 0 0 -0.4688 391.3557 191.6404)"><stop
   offset="0"
   style="stop-color:#FFFFFF"
   id="stop620" /><stop
   offset="1"
   style="stop-color:#FFD400"
   id="stop621" /><a:midPointStop
   offset="0"
   style="stop-color:#FFFFFF"
   id="midPointStop622" /><a:midPointStop
   offset="0.5"
   style="stop-color:#FFFFFF"
   id="midPointStop623" /><a:midPointStop
   offset="1"
   style="stop-color:#FFD400"
   id="midPointStop624" /></linearGradient><path
   id="path574"
   fill="url(#path574_1_)"
   d="M4.9,13.2c6.4,3.6,13.7,4.5,21.1,2.5c1.5-0.4,3.1-0.9,4.6-1.4     c1.8-0.6,3.7-1.2,5.6-1.7c-3-3.9-8.9-6.3-15.4-6.3C13.9,6.3,7.6,9,4.9,13.2z" /><path
   id="path575"
   fill="#A43200"
   d="M15.9,30.8c0,6.3,6.9,11.4,15.5,11.4c1.2,0,2.4-0.1,3.6-0.3c1.8,0.8,4.1,1.3,6.8,1.5     l5.5,0.3l-4.2-3.5c-0.3-0.2-0.7-0.6-1.1-1c3.1-2.1,4.9-5.1,4.9-8.2c0-6.3-6.9-11.4-15.5-11.4C22.8,19.5,15.9,24.6,15.9,30.8z" /><linearGradient
   id="path588_1_"
   gradientUnits="userSpaceOnUse"
   x1="-768.0366"
   y1="313.3711"
   x2="-768.0366"
   y2="375.2255"
   gradientTransform="matrix(0.4688 0 0 -0.4688 391.3557 191.6404)"><stop
   offset="0"
   style="stop-color:#FF6D00"
   id="stop628" /><stop
   offset="6.085050e-002"
   style="stop-color:#FF8100"
   id="stop629" /><stop
   offset="0.1979"
   style="stop-color:#FFA700"
   id="stop630" /><stop
   offset="0.3404"
   style="stop-color:#FFC700"
   id="stop631" /><stop
   offset="0.4874"
   style="stop-color:#FFE000"
   id="stop632" /><stop
   offset="0.6411"
   style="stop-color:#FFF100"
   id="stop633" /><stop
   offset="0.8057"
   style="stop-color:#FFFC00"
   id="stop634" /><stop
   offset="1"
   style="stop-color:#FFFF00"
   id="stop635" /><a:midPointStop
   offset="0"
   style="stop-color:#FF6D00"
   id="midPointStop636" /><a:midPointStop
   offset="0.5"
   style="stop-color:#FF6D00"
   id="midPointStop637" /><a:midPointStop
   offset="6.085050e-002"
   style="stop-color:#FF8100"
   id="midPointStop638" /><a:midPointStop
   offset="0.5"
   style="stop-color:#FF8100"
   id="midPointStop639" /><a:midPointStop
   offset="0.1979"
   style="stop-color:#FFA700"
   id="midPointStop640" /><a:midPointStop
   offset="0.5"
   style="stop-color:#FFA700"
   id="midPointStop641" /><a:midPointStop
   offset="0.3404"
   style="stop-color:#FFC700"
   id="midPointStop642" /><a:midPointStop
   offset="0.5"
   style="stop-color:#FFC700"
   id="midPointStop643" /><a:midPointStop
   offset="0.4874"
   style="stop-color:#FFE000"
   id="midPointStop644" /><a:midPointStop
   offset="0.5"
   style="stop-color:#FFE000"
   id="midPointStop645" /><a:midPointStop
   offset="0.6411"
   style="stop-color:#FFF100"
   id="midPointStop646" /><a:midPointStop
   offset="0.5"
   style="stop-color:#FFF100"
   id="midPointStop647" /><a:midPointStop
   offset="0.8057"
   style="stop-color:#FFFC00"
   id="midPointStop648" /><a:midPointStop
   offset="0.5"
   style="stop-color:#FFFC00"
   id="midPointStop649" /><a:midPointStop
   offset="1"
   style="stop-color:#FFFF00"
   id="midPointStop650" /></linearGradient><path
   id="path588"
   fill="url(#path588_1_)"
   d="M16.8,30.8c0,5.8,6.5,10.5,14.6,10.5c1.3,0,2.5-0.1,3.7-0.4c1.8,0.8,4,1.3,6.7,1.5     l2.7,0.2l-2.1-1.8c-0.5-0.4-1.2-1-1.9-1.9c3.3-2,5.3-4.9,5.3-8.1c0-5.8-6.5-10.5-14.6-10.5C23.3,20.4,16.8,25.1,16.8,30.8z" /><linearGradient
   id="path595_1_"
   gradientUnits="userSpaceOnUse"
   x1="-574.3643"
   y1="366.2373"
   x2="-574.3643"
   y2="343.2821"
   gradientTransform="matrix(-0.4688 0 0 -0.4688 -237.7619 191.6404)"><stop
   offset="0"
   style="stop-color:#FFFFFF"
   id="stop653" /><stop
   offset="1"
   style="stop-color:#FFED00"
   id="stop654" /><a:midPointStop
   offset="0"
   style="stop-color:#FFFFFF"
   id="midPointStop655" /><a:midPointStop
   offset="0.5"
   style="stop-color:#FFFFFF"
   id="midPointStop656" /><a:midPointStop
   offset="1"
   style="stop-color:#FFED00"
   id="midPointStop657" /></linearGradient><path
   id="path595"
   fill="url(#path595_1_)"
   d="M31.4,21.6c5.5,0,10.2,1.9,12,4.6c-4.8,2.3-10.3,2.9-15.8,1.7     c-2.7-0.6-5.3-1.5-8-2C21.5,23.3,26.1,21.6,31.4,21.6z" /><path
   id="path597"
   fill="#FFFFFF"
   d="M25.1,33.8c-0.8,0-1.4-0.6-1.4-1.5c0-0.9,0.6-1.5,1.4-1.5s1.4,0.6,1.4,1.5     C26.5,33.2,26,33.8,25.1,33.8L25.1,33.8L25.1,33.8z" /><path
   id="path598"
   fill="#FFFFFF"
   d="M32.4,33.8c-0.8,0-1.4-0.6-1.4-1.5c0-0.9,0.6-1.5,1.4-1.5c0.8,0,1.4,0.6,1.4,1.5     C33.9,33.2,33.3,33.8,32.4,33.8L32.4,33.8L32.4,33.8z" /><path
   id="path599"
   fill="#FFFFFF"
   d="M39.7,33.8c-0.8,0-1.4-0.6-1.4-1.5c0-0.9,0.6-1.5,1.4-1.5s1.4,0.6,1.4,1.5     C41.2,33.2,40.6,33.8,39.7,33.8L39.7,33.8L39.7,33.8z" /></g></svg>
