<?xml version="1.0" encoding="UTF-8" standalone="no"?>
<!DOCTYPE svg PUBLIC "-//W3C//DTD SVG 20010904//EN"
"http://www.w3.org/TR/2001/REC-SVG-20010904/DTD/svg10.dtd">
<!-- Created with Sodipodi ("http://www.sodipodi.com/") -->
<svg
   xmlns:x="http://ns.adobe.com/Extensibility/1.0/"
   xmlns:i="http://ns.adobe.com/AdobeIllustrator/10.0/"
   xmlns:graph="http://ns.adobe.com/Graphs/1.0/"
   xmlns="http://www.w3.org/2000/svg"
   xmlns:xlink="http://www.w3.org/1999/xlink"
   xmlns:a="http://ns.adobe.com/AdobeSVGViewerExtensions/3.0/"
   xml:space="preserve"
   i:viewOrigin="281.9346 420.0386"
   i:rulerOrigin="0 0"
   i:pageBounds="0 792 612 0"
   width="48"
   height="48"
   viewBox="0 0 48 48"
   overflow="visible"
   enable-background="new 0 0 48 48"
   xmlns:sodipodi="http://sodipodi.sourceforge.net/DTD/sodipodi-0.dtd"
   id="svg602"
   sodipodi:version="0.34"
   sodipodi:docname="C:\msys\home\su_blanc\mldonkey-2.5.12\src\gtk2\rsvg\menu_search_complex.svg"><defs
   id="defs775" /><sodipodi:namedview
   id="namedview774" /><g
   id="g1907"
   i:knockout="Off"
   i:layer="yes"
   i:dimmedPercent="50"
   i:rgbTrio="#4F008000FFFF"><g
   id="g408"
   i:knockout="Off"><path
   id="path409"
   i:isolated="yes"
   i:knockout="Off"
   opacity="0.2"
   enable-background="new    "
   d="M47.5,23.4l-22-21.7      c-0.2-0.2-0.6-0.4-0.9-0.4c-0.3,0-0.7,0.1-0.9,0.4l-22,21.7c-0.2,0.2-0.4,0.6-0.4,0.9c0,0.3,0.1,0.7,0.4,0.9l22,21.7      c0.5,0.5,1.3,0.5,1.8,0l22-21.7c0.2-0.2,0.4-0.6,0.4-0.9C47.9,24,47.7,23.7,47.5,23.4z" /><linearGradient
   id="path413_1_"
   gradientUnits="userSpaceOnUse"
   x1="-807.271"
   y1="394.9233"
   x2="-784.3541"
   y2="362.9662"
   gradientTransform="matrix(0.3328 0 0 -0.328 282.0838 138.865)"><stop
   offset="0"
   style="stop-color:#FFFFFF"
   id="stop609" /><stop
   offset="1"
   style="stop-color:#4B4B73"
   id="stop610" /><a:midPointStop
   offset="0"
   style="stop-color:#FFFFFF"
   id="midPointStop611" /><a:midPointStop
   offset="0.5"
   style="stop-color:#FFFFFF"
   id="midPointStop612" /><a:midPointStop
   offset="1"
   style="stop-color:#4B4B73"
   id="midPointStop613" /></linearGradient><path
   id="path413"
   fill="url(#path413_1_)"
   d="M23.9,0.7c-0.3,0-0.7,0.1-0.9,0.4L1,22.8c-0.2,0.2-0.4,0.6-0.4,0.9      c0,0.3,0.1,0.7,0.4,0.9l22,21.7c0.5,0.5,1.3,0.5,1.8,0l22-21.7c0.2-0.2,0.4-0.6,0.4-0.9c0-0.3-0.2-0.7-0.4-0.9l-22-21.7      C24.5,0.8,24.2,0.7,23.9,0.7z" /><rect
   id="path414"
   x="8.4"
   y="8.2"
   transform="matrix(0.7122 -0.702 0.702 0.7122 -9.7513 23.548)"
   fill="#FFFFFF"
   width="30.9"
   height="30.9" /><linearGradient
   id="path418_1_"
   gradientUnits="userSpaceOnUse"
   x1="-778.7783"
   y1="356.1548"
   x2="-749.7548"
   y2="304.5494"
   gradientTransform="matrix(0.3328 0 0 -0.328 282.0838 138.865)"><stop
   offset="0"
   style="stop-color:#BFBFBF"
   id="stop617" /><stop
   offset="1"
   style="stop-color:#7084CC"
   id="stop618" /><a:midPointStop
   offset="0"
   style="stop-color:#BFBFBF"
   id="midPointStop619" /><a:midPointStop
   offset="0.5"
   style="stop-color:#BFBFBF"
   id="midPointStop620" /><a:midPointStop
   offset="1"
   style="stop-color:#7084CC"
   id="midPointStop621" /></linearGradient><path
   id="path418"
   i:isolated="yes"
   i:knockout="Off"
   opacity="0.4"
   fill="url(#path418_1_)"
   enable-background="new    "
   d="      M3.7,23.7C5.3,25.2,22.3,42,23.9,43.6C25.5,42,42.4,25.2,44,23.7C42.4,22.1,25.5,5.3,23.9,3.8C22.3,5.3,5.3,22.1,3.7,23.7z" /></g><path
   id="path419"
   i:isolated="yes"
   i:knockout="Off"
   opacity="0.2"
   enable-background="new    "
   d="M4,20.4     c0.4,0.5,0.6,0.8,0.8,1.2c0.2,0.5,0.6,1.2,1.4,2c1.5,1.6,3.1,1.4,3.8,0.9l0,0l0,0c0,0,0.9-0.8,2.1-1.9c1.8,2,8.4,9.3,12.4,15.2     c1.5,2.3,4.2,3,6.7,3.7L33,42l0.4,0.1c2.5,0.9,4.8,1.9,8.6,4.5l1.1,0.7l1.5-2.1l-0.8-0.9c-2-2.1-2.9-4.6-3.8-7.1     c-0.9-2.4-1.7-4.7-3.5-6.4l0,0l0,0C32.8,27.6,22,18.5,19.3,16.2c0.4-0.3,0.6-0.5,0.8-0.6c0.3-0.2,1.1-0.9,0.8-2.1     c-0.1-0.6-0.5-1.1-1.1-1.8c-0.6-0.7-1.5-1-2.2-1.3c-0.3-0.1-0.9-0.3-1-0.5C15.8,9,11.7,4.7,9.2,2.2h-9v14.4     C1.8,18.3,3.4,19.9,4,20.4z" /><g
   id="g440"
   i:knockout="Off"><g
   id="g441"
   i:knockout="Off"><linearGradient
   id="path454_1_"
   gradientUnits="userSpaceOnUse"
   x1="-775.9868"
   y1="314.2866"
   x2="-744.1246"
   y2="338.3332"
   gradientTransform="matrix(0.3328 0 0 -0.328 282.0838 138.865)"><stop
   offset="0"
   style="stop-color:#993300"
   id="stop627" /><stop
   offset="0.2926"
   style="stop-color:#FFB800"
   id="stop628" /><stop
   offset="0.5957"
   style="stop-color:#FFFFE1"
   id="stop629" /><stop
   offset="0.6583"
   style="stop-color:#FFFEDE"
   id="stop630" /><stop
   offset="0.7132"
   style="stop-color:#FFFBD3"
   id="stop631" /><stop
   offset="0.7652"
   style="stop-color:#FFF5C1"
   id="stop632" /><stop
   offset="0.8154"
   style="stop-color:#FFEDA7"
   id="stop633" /><stop
   offset="0.8644"
   style="stop-color:#FFE387"
   id="stop634" /><stop
   offset="0.9125"
   style="stop-color:#FFD65F"
   id="stop635" /><stop
   offset="0.9588"
   style="stop-color:#FFC730"
   id="stop636" /><stop
   offset="1"
   style="stop-color:#FFB800"
   id="stop637" /><a:midPointStop
   offset="0"
   style="stop-color:#993300"
   id="midPointStop638" /><a:midPointStop
   offset="0.5"
   style="stop-color:#993300"
   id="midPointStop639" /><a:midPointStop
   offset="0.2926"
   style="stop-color:#FFB800"
   id="midPointStop640" /><a:midPointStop
   offset="0.5"
   style="stop-color:#FFB800"
   id="midPointStop641" /><a:midPointStop
   offset="0.5957"
   style="stop-color:#FFFFE1"
   id="midPointStop642" /><a:midPointStop
   offset="0.5"
   style="stop-color:#FFFFE1"
   id="midPointStop643" /><a:midPointStop
   offset="0.6583"
   style="stop-color:#FFFEDE"
   id="midPointStop644" /><a:midPointStop
   offset="0.5"
   style="stop-color:#FFFEDE"
   id="midPointStop645" /><a:midPointStop
   offset="0.7132"
   style="stop-color:#FFFBD3"
   id="midPointStop646" /><a:midPointStop
   offset="0.5"
   style="stop-color:#FFFBD3"
   id="midPointStop647" /><a:midPointStop
   offset="0.7652"
   style="stop-color:#FFF5C1"
   id="midPointStop648" /><a:midPointStop
   offset="0.5"
   style="stop-color:#FFF5C1"
   id="midPointStop649" /><a:midPointStop
   offset="0.8154"
   style="stop-color:#FFEDA7"
   id="midPointStop650" /><a:midPointStop
   offset="0.5"
   style="stop-color:#FFEDA7"
   id="midPointStop651" /><a:midPointStop
   offset="0.8644"
   style="stop-color:#FFE387"
   id="midPointStop652" /><a:midPointStop
   offset="0.5"
   style="stop-color:#FFE387"
   id="midPointStop653" /><a:midPointStop
   offset="0.9125"
   style="stop-color:#FFD65F"
   id="midPointStop654" /><a:midPointStop
   offset="0.5"
   style="stop-color:#FFD65F"
   id="midPointStop655" /><a:midPointStop
   offset="0.9588"
   style="stop-color:#FFC730"
   id="midPointStop656" /><a:midPointStop
   offset="0.5"
   style="stop-color:#FFC730"
   id="midPointStop657" /><a:midPointStop
   offset="1"
   style="stop-color:#FFB800"
   id="midPointStop658" /></linearGradient><path
   id="path454"
   fill="url(#path454_1_)"
   d="M17.4,19.7c1,1.5,6.9,10.8,8.6,15.6c0.9,2.7,4.2,2.9,7,4.1       c2.5,1,4.6,2.1,7.7,4.7c0.5-0.5,0,0,0.5-0.5c-3.1-4.4-1.2-10.4-3.6-13.5C34.4,26.4,24,15,24,15S24.1,14.9,17.4,19.7L17.4,19.7z       " /><g
   id="g455"
   i:knockout="Off"><linearGradient
   id="XMLID_1_"
   gradientUnits="userSpaceOnUse"
   x1="-807.1221"
   y1="380.7241"
   x2="-710.2529"
   y2="282.8958"
   gradientTransform="matrix(0.3328 0 0 -0.328 282.0838 138.865)"><stop
   offset="0"
   style="stop-color:#8E5100"
   id="stop662" /><stop
   offset="0.2948"
   style="stop-color:#8C5000"
   id="stop663" /><stop
   offset="0.4581"
   style="stop-color:#844B00"
   id="stop664" /><stop
   offset="0.5893"
   style="stop-color:#764300"
   id="stop665" /><stop
   offset="0.7033"
   style="stop-color:#623800"
   id="stop666" /><stop
   offset="0.8063"
   style="stop-color:#492A00"
   id="stop667" /><stop
   offset="0.9013"
   style="stop-color:#2A1800"
   id="stop668" /><stop
   offset="0.9885"
   style="stop-color:#050300"
   id="stop669" /><stop
   offset="1"
   style="stop-color:#000000"
   id="stop670" /><a:midPointStop
   offset="0"
   style="stop-color:#8E5100"
   id="midPointStop671" /><a:midPointStop
   offset="0.5"
   style="stop-color:#8E5100"
   id="midPointStop672" /><a:midPointStop
   offset="0.2948"
   style="stop-color:#8C5000"
   id="midPointStop673" /><a:midPointStop
   offset="0.5"
   style="stop-color:#8C5000"
   id="midPointStop674" /><a:midPointStop
   offset="0.4581"
   style="stop-color:#844B00"
   id="midPointStop675" /><a:midPointStop
   offset="0.5"
   style="stop-color:#844B00"
   id="midPointStop676" /><a:midPointStop
   offset="0.5893"
   style="stop-color:#764300"
   id="midPointStop677" /><a:midPointStop
   offset="0.5"
   style="stop-color:#764300"
   id="midPointStop678" /><a:midPointStop
   offset="0.7033"
   style="stop-color:#623800"
   id="midPointStop679" /><a:midPointStop
   offset="0.5"
   style="stop-color:#623800"
   id="midPointStop680" /><a:midPointStop
   offset="0.8063"
   style="stop-color:#492A00"
   id="midPointStop681" /><a:midPointStop
   offset="0.5"
   style="stop-color:#492A00"
   id="midPointStop682" /><a:midPointStop
   offset="0.9013"
   style="stop-color:#2A1800"
   id="midPointStop683" /><a:midPointStop
   offset="0.5"
   style="stop-color:#2A1800"
   id="midPointStop684" /><a:midPointStop
   offset="0.9885"
   style="stop-color:#050300"
   id="midPointStop685" /><a:midPointStop
   offset="0.5"
   style="stop-color:#050300"
   id="midPointStop686" /><a:midPointStop
   offset="1"
   style="stop-color:#000000"
   id="midPointStop687" /></linearGradient><path
   fill="url(#XMLID_1_)"
   d="M42.4,42.8c-1.5-2.1-1.7-4.6-1.9-7.1c-0.2-2.4-0.4-4.7-1.7-6.4l0,0l0,0        c-3.2-3.7-13.6-15-13.7-15.1l-0.8-0.8l-0.9,0.7l-7.7,5.5l0.7,1c0.1,0.1,5.8,8.9,8.6,15.7c0.9,2.3,3.3,3,5.7,3.7l1.6,0.5        l0.3,0.1c2.2,0.9,4.3,1.9,7.4,4.5l0.9,0.7l2.1-2.1L42.4,42.8L42.4,42.8z M33,39.4c-2.9-1.2-6.1-1.3-7-4.1        c-1.8-4.8-7.7-14.1-8.6-15.6c6.7-4.8,6.7-4.8,6.7-4.8S34.5,26.3,37.7,30c2.3,3.1,0.5,9.1,3.6,13.5l-0.1,0.1        c-0.5-0.8-2.4-3.6-9-13L31.6,31l9,13C37.6,41.4,35.5,40.4,33,39.4z"
   id="path688" /><linearGradient
   id="path470_1_"
   gradientUnits="userSpaceOnUse"
   x1="-776.4253"
   y1="341.1118"
   x2="-743.9314"
   y2="280.033"
   gradientTransform="matrix(0.3328 0 0 -0.328 282.0838 138.865)"><stop
   offset="2.660000e-002"
   style="stop-color:#FFFFFF"
   id="stop690" /><stop
   offset="1"
   style="stop-color:#FFB800"
   id="stop691" /><a:midPointStop
   offset="2.660000e-002"
   style="stop-color:#FFFFFF"
   id="midPointStop692" /><a:midPointStop
   offset="0.5"
   style="stop-color:#FFFFFF"
   id="midPointStop693" /><a:midPointStop
   offset="1"
   style="stop-color:#FFB800"
   id="midPointStop694" /></linearGradient><path
   id="path470"
   fill="url(#path470_1_)"
   d="M28.7,36.6c-2.7-2.7-1.3-5.6-9-18.6l-2.4,1.7c0,0,5.9,8.9,8.7,15.9        c0.9,2.1,3.8,2.6,6.6,3.6c0.1,0,0.2,0.1,0.2,0.1C31.8,38.4,30.4,38.3,28.7,36.6z" /><radialGradient
   id="path474_1_"
   cx="-756.3472"
   cy="330.894"
   r="9.7128"
   fx="-756.3472"
   fy="330.894"
   gradientTransform="matrix(0.3328 0 0 -0.328 282.0838 138.865)"
   gradientUnits="userSpaceOnUse"><stop
   offset="0.4681"
   style="stop-color:#000000"
   id="stop697" /><stop
   offset="1"
   style="stop-color:#8E5100"
   id="stop698" /><a:midPointStop
   offset="0.4681"
   style="stop-color:#000000"
   id="midPointStop699" /><a:midPointStop
   offset="0.5"
   style="stop-color:#000000"
   id="midPointStop700" /><a:midPointStop
   offset="1"
   style="stop-color:#8E5100"
   id="midPointStop701" /></radialGradient><circle
   id="path474"
   fill="url(#path474_1_)"
   cx="31.9"
   cy="30.9"
   r="1.4" /></g></g><linearGradient
   id="path478_1_"
   gradientUnits="userSpaceOnUse"
   x1="-795.2505"
   y1="354.939"
   x2="-772.9763"
   y2="371.7496"
   gradientTransform="matrix(0.3328 0 0 -0.328 282.0838 138.865)"><stop
   offset="0"
   style="stop-color:#FFAE00"
   id="stop704" /><stop
   offset="1"
   style="stop-color:#4C1C00"
   id="stop705" /><a:midPointStop
   offset="0"
   style="stop-color:#FFAE00"
   id="midPointStop706" /><a:midPointStop
   offset="0.5"
   style="stop-color:#FFAE00"
   id="midPointStop707" /><a:midPointStop
   offset="1"
   style="stop-color:#4C1C00"
   id="midPointStop708" /></linearGradient><path
   id="path478"
   i:isolated="yes"
   i:knockout="Off"
   opacity="0.75"
   fill="url(#path478_1_)"
   enable-background="new    "
   d="      M17.4,19.7c0.3,0.4,0.9,1.4,1.8,2.8c0.8-2.7,7.7-2,7.2-5.1c-1.4-1.5-2.3-2.5-2.3-2.5S24.1,14.9,17.4,19.7L17.4,19.7z" /></g><linearGradient
   id="path482_1_"
   gradientUnits="userSpaceOnUse"
   x1="-949.5093"
   y1="512.6167"
   x2="-802.3976"
   y2="388.9802"
   gradientTransform="matrix(0.3328 0 0 -0.328 282.0838 138.865)"><stop
   offset="0"
   style="stop-color:#FFFFFF"
   id="stop711" /><stop
   offset="1"
   style="stop-color:#000000"
   id="stop712" /><a:midPointStop
   offset="0"
   style="stop-color:#FFFFFF"
   id="midPointStop713" /><a:midPointStop
   offset="0.5"
   style="stop-color:#FFFFFF"
   id="midPointStop714" /><a:midPointStop
   offset="1"
   style="stop-color:#000000"
   id="midPointStop715" /></linearGradient><path
   id="path482"
   fill="url(#path482_1_)"
   d="M9.2,18.6c0.3,0.5,0.4,0.8,0.5,1.2c0.1,0.5,0.2,1.2,0.9,2c1.1,1.6,2.8,1.4,3.6,0.9     l0,0l0,0c0.1-0.1,11.1-8,12.5-8.9c0.3-0.2,1.4-0.9,1.4-2.1c0-0.6-0.2-1.1-0.6-1.8c-0.4-0.7-1.2-1-1.9-1.3     c-0.3-0.1-0.8-0.3-0.9-0.5c-0.6-0.9-3.4-5-5.2-7.5h-1.3c1.7,2.4,5,7.2,5.6,8.1c0.5,0.8,2.3,0.9,2.8,1.7c0.8,1.2,0.5,1.9-0.5,2.5     c-1.3,0.9-12.5,8.9-12.5,8.9s-1.2,0.8-2.2-0.6c-1-1.4-0.4-1.9-1.3-3.2s-6-8-6-8L0.2,5.7v1.5c1.7,1.9,3.1,3.4,3.1,3.4     C3.5,11,8.4,17.4,9.2,18.6L9.2,18.6z" /><linearGradient
   id="path486_1_"
   gradientUnits="userSpaceOnUse"
   x1="-830.5791"
   y1="386.1216"
   x2="-814.581"
   y2="397.9463"
   gradientTransform="matrix(0.3328 0 0 -0.328 282.0838 138.865)"><stop
   offset="0"
   style="stop-color:#FFFFFF"
   id="stop718" /><stop
   offset="1"
   style="stop-color:#000000"
   id="stop719" /><a:midPointStop
   offset="0"
   style="stop-color:#FFFFFF"
   id="midPointStop720" /><a:midPointStop
   offset="0.5"
   style="stop-color:#FFFFFF"
   id="midPointStop721" /><a:midPointStop
   offset="1"
   style="stop-color:#000000"
   id="midPointStop722" /></linearGradient><path
   id="path486"
   fill="url(#path486_1_)"
   d="M10,18.1c0.9,1.3,0.3,1.8,1.3,3.2c1,1.4,2.2,0.6,2.2,0.6s11.2-8,12.5-8.9     c0.9-0.6,1.2-1.3,0.5-2.5c-0.5-0.8-2.3-0.9-2.8-1.7c-0.6-0.9-3.9-5.7-5.6-8.1h-0.8c1.5,2.2,5.2,7.5,5.8,8.5     c0.1,0.1,0.1,0.2,0.2,0.3c-1.7,1.2,0,0-1.7,1.2C20.2,8.5,15,1,14.7,0.6H0.2v5.1L4.1,10C4.1,10,9.2,16.8,10,18.1L10,18.1z" /><linearGradient
   id="path498_1_"
   gradientUnits="userSpaceOnUse"
   x1="-793.625"
   y1="406.1011"
   x2="-779.7682"
   y2="414.5807"
   gradientTransform="matrix(0.3328 0 0 -0.328 282.0838 138.865)"><stop
   offset="0"
   style="stop-color:#FFFFFF"
   id="stop725" /><stop
   offset="1"
   style="stop-color:#000000"
   id="stop726" /><a:midPointStop
   offset="0"
   style="stop-color:#FFFFFF"
   id="midPointStop727" /><a:midPointStop
   offset="0.5"
   style="stop-color:#FFFFFF"
   id="midPointStop728" /><a:midPointStop
   offset="1"
   style="stop-color:#000000"
   id="midPointStop729" /></linearGradient><path
   id="path498"
   fill="url(#path498_1_)"
   d="M23.3,9.4c-0.1-0.1-0.2-0.2-0.2-0.3c-0.6-1-4.3-6.2-5.8-8.5h-2.6     c0.3,0.4,5.5,7.8,6.9,9.9C23.3,9.4,21.6,10.6,23.3,9.4z" /><linearGradient
   id="path1293_1_"
   gradientUnits="userSpaceOnUse"
   x1="-816.2583"
   y1="358.5981"
   x2="-766.3732"
   y2="394.5342"
   gradientTransform="matrix(0.3328 0 0 -0.328 282.0838 138.865)"><stop
   offset="0"
   style="stop-color:#993300"
   id="stop732" /><stop
   offset="0.2926"
   style="stop-color:#FFB800"
   id="stop733" /><stop
   offset="0.5957"
   style="stop-color:#FFFFE1"
   id="stop734" /><stop
   offset="0.6583"
   style="stop-color:#FFFEDE"
   id="stop735" /><stop
   offset="0.7132"
   style="stop-color:#FFFBD3"
   id="stop736" /><stop
   offset="0.7652"
   style="stop-color:#FFF5C1"
   id="stop737" /><stop
   offset="0.8154"
   style="stop-color:#FFEDA7"
   id="stop738" /><stop
   offset="0.8644"
   style="stop-color:#FFE387"
   id="stop739" /><stop
   offset="0.9125"
   style="stop-color:#FFD65F"
   id="stop740" /><stop
   offset="0.9588"
   style="stop-color:#FFC730"
   id="stop741" /><stop
   offset="1"
   style="stop-color:#FFB800"
   id="stop742" /><a:midPointStop
   offset="0"
   style="stop-color:#993300"
   id="midPointStop743" /><a:midPointStop
   offset="0.5"
   style="stop-color:#993300"
   id="midPointStop744" /><a:midPointStop
   offset="0.2926"
   style="stop-color:#FFB800"
   id="midPointStop745" /><a:midPointStop
   offset="0.5"
   style="stop-color:#FFB800"
   id="midPointStop746" /><a:midPointStop
   offset="0.5957"
   style="stop-color:#FFFFE1"
   id="midPointStop747" /><a:midPointStop
   offset="0.5"
   style="stop-color:#FFFFE1"
   id="midPointStop748" /><a:midPointStop
   offset="0.6583"
   style="stop-color:#FFFEDE"
   id="midPointStop749" /><a:midPointStop
   offset="0.5"
   style="stop-color:#FFFEDE"
   id="midPointStop750" /><a:midPointStop
   offset="0.7132"
   style="stop-color:#FFFBD3"
   id="midPointStop751" /><a:midPointStop
   offset="0.5"
   style="stop-color:#FFFBD3"
   id="midPointStop752" /><a:midPointStop
   offset="0.7652"
   style="stop-color:#FFF5C1"
   id="midPointStop753" /><a:midPointStop
   offset="0.5"
   style="stop-color:#FFF5C1"
   id="midPointStop754" /><a:midPointStop
   offset="0.8154"
   style="stop-color:#FFEDA7"
   id="midPointStop755" /><a:midPointStop
   offset="0.5"
   style="stop-color:#FFEDA7"
   id="midPointStop756" /><a:midPointStop
   offset="0.8644"
   style="stop-color:#FFE387"
   id="midPointStop757" /><a:midPointStop
   offset="0.5"
   style="stop-color:#FFE387"
   id="midPointStop758" /><a:midPointStop
   offset="0.9125"
   style="stop-color:#FFD65F"
   id="midPointStop759" /><a:midPointStop
   offset="0.5"
   style="stop-color:#FFD65F"
   id="midPointStop760" /><a:midPointStop
   offset="0.9588"
   style="stop-color:#FFC730"
   id="midPointStop761" /><a:midPointStop
   offset="0.5"
   style="stop-color:#FFC730"
   id="midPointStop762" /><a:midPointStop
   offset="1"
   style="stop-color:#FFB800"
   id="midPointStop763" /></linearGradient><path
   id="path1293"
   fill="url(#path1293_1_)"
   d="M10.6,19.3C10.6,19.4,10.6,19.4,10.6,19.3c0.1,0.6,0.2,1.1,0.7,1.9     c0.3,0.4,0.5,0.6,0.8,0.7c0.1,0.1,14.7-10.6,14.7-10.6c-0.1-0.3-0.2-0.5-0.4-0.9c-0.3-0.5-1-0.7-1.6-1c0,0-0.1,0-0.1-0.1     c0,0,0,0-0.1,0C24.6,9.4,10.6,19.3,10.6,19.3L10.6,19.3z" /><linearGradient
   id="path1297_1_"
   gradientUnits="userSpaceOnUse"
   x1="-811.8105"
   y1="361.4546"
   x2="-817.9476"
   y2="356.3959"
   gradientTransform="matrix(0.3328 0 0 -0.328 282.0838 138.865)"><stop
   offset="0"
   style="stop-color:#FFFFE1"
   id="stop766" /><stop
   offset="1"
   style="stop-color:#FFB800"
   id="stop767" /><a:midPointStop
   offset="0"
   style="stop-color:#FFFFE1"
   id="midPointStop768" /><a:midPointStop
   offset="0.5"
   style="stop-color:#FFFFE1"
   id="midPointStop769" /><a:midPointStop
   offset="1"
   style="stop-color:#FFB800"
   id="midPointStop770" /></linearGradient><path
   id="path1297"
   fill="url(#path1297_1_)"
   d="M13.3,17.4c-1.6,1.1-2.7,1.9-2.7,1.9v0.1c0.1,0.5,0.2,1,0.7,1.8     c0.3,0.4,0.5,0.6,0.8,0.7c0,0,1-0.7,2.5-1.7C13.3,19,13.3,18.2,13.3,17.4z" /></g><g
   id="Layer_2_1_"
   i:knockout="Off"
   i:layer="yes"
   i:dimmedPercent="3"
   i:rgbTrio="#FFFF4F004F00"><rect
   id="path407"
   i:knockout="Off"
   fill="none"
   width="48"
   height="48" /></g></svg>
