<?xml version="1.0" encoding="UTF-8" standalone="no"?>
<!DOCTYPE svg PUBLIC "-//W3C//DTD SVG 20010904//EN"
"http://www.w3.org/TR/2001/REC-SVG-20010904/DTD/svg10.dtd">
<!-- Created with Sodipodi ("http://www.sodipodi.com/") -->
<svg
   xmlns:x="http://ns.adobe.com/Extensibility/1.0/"
   xmlns:i="http://ns.adobe.com/AdobeIllustrator/10.0/"
   xmlns:graph="http://ns.adobe.com/Graphs/1.0/"
   xmlns="http://www.w3.org/2000/svg"
   xmlns:xlink="http://www.w3.org/1999/xlink"
   xmlns:a="http://ns.adobe.com/AdobeSVGViewerExtensions/3.0/"
   xml:space="preserve"
   i:viewOrigin="282.9219 419.0313"
   i:rulerOrigin="0 0"
   i:pageBounds="0 792 612 0"
   width="48"
   height="48"
   viewBox="0 0 48 48"
   overflow="visible"
   enable-background="new 0 0 48 48"
   xmlns:sodipodi="http://sodipodi.sourceforge.net/DTD/sodipodi-0.dtd"
   id="svg602"
   sodipodi:version="0.34"
   sodipodi:docname="C:\msys\home\su_blanc\mldonkey-2.5.12\src\gtk2\rsvg\mime_source.svg"><defs
   id="defs711" /><sodipodi:namedview
   id="base" /><g
   id="Layer_x5F_1"
   i:knockout="Off"
   i:layer="yes"
   i:dimmedPercent="3"
   i:rgbTrio="#4F008000FFFF"><g
   id="g620"
   i:knockout="Off"><path
   id="path155"
   i:isolated="yes"
   i:knockout="Off"
   opacity="0.2"
   enable-background="new    "
   d="M10.1,1.6      c-1.8,0-3.3,1.5-3.3,3.3v39.4c0,1.8,1.5,3.3,3.3,3.3h34.6c1.8,0,3.3-1.5,3.3-3.3V4.9c0-1.8-1.5-3.3-3.3-3.3H10.1z" /><linearGradient
   id="path162_1_"
   gradientUnits="userSpaceOnUse"
   x1="-1668.9204"
   y1="127.3018"
   x2="-1448.4204"
   y2="127.3018"
   gradientTransform="matrix(0.1875 0 0 0.1875 317.8652 -0.4688)"><stop
   offset="0"
   style="stop-color:#A7ABAC"
   id="stop609" /><stop
   offset="1"
   style="stop-color:#85898A"
   id="stop610" /><a:midPointStop
   offset="0"
   style="stop-color:#A7ABAC"
   id="midPointStop611" /><a:midPointStop
   offset="0.5"
   style="stop-color:#A7ABAC"
   id="midPointStop612" /><a:midPointStop
   offset="1"
   style="stop-color:#85898A"
   id="midPointStop613" /></linearGradient><path
   id="path162"
   fill="url(#path162_1_)"
   d="M8.3,0.4C6.5,0.4,5,1.9,5,3.7v39.4c0,1.8,1.5,3.3,3.3,3.3H43      c1.8,0,3.3-1.5,3.3-3.3V3.7c0-1.8-1.5-3.3-3.3-3.3H8.3z" /><path
   id="path163"
   fill="#99CCFF"
   d="M5.9,43.1c0,1.3,1.1,2.4,2.4,2.4H43c1.3,0,2.4-1.1,2.4-2.4V3.7c0-1.3-1.1-2.4-2.4-2.4H8.3      C7,1.3,5.9,2.4,5.9,3.7V43.1z" /><linearGradient
   id="path170_1_"
   gradientUnits="userSpaceOnUse"
   x1="-1604.2227"
   y1="81.5586"
   x2="-1355.3735"
   y2="330.4078"
   gradientTransform="matrix(0.1875 0 0 0.1875 317.8652 -0.4688)"><stop
   offset="0"
   style="stop-color:#FFFFFF"
   id="stop617" /><stop
   offset="1"
   style="stop-color:#99CCFF"
   id="stop618" /><a:midPointStop
   offset="0"
   style="stop-color:#FFFFFF"
   id="midPointStop619" /><a:midPointStop
   offset="0.5"
   style="stop-color:#FFFFFF"
   id="midPointStop620" /><a:midPointStop
   offset="1"
   style="stop-color:#99CCFF"
   id="midPointStop621" /></linearGradient><path
   id="path170"
   fill="url(#path170_1_)"
   d="M8.3,2.3C7.5,2.3,6.9,3,6.9,3.7v39.4c0,0.8,0.6,1.4,1.4,1.4H43      c0.8,0,1.4-0.6,1.4-1.4V3.7c0-0.8-0.6-1.4-1.4-1.4H8.3z" /><path
   id="path171"
   i:isolated="yes"
   i:knockout="Off"
   opacity="0.4"
   fill="#FFFFFF"
   enable-background="new    "
   d="M32.5,19.1      c3.7-3.4,8.1-5.1,12.8-6V3.7c0-1.3-1.1-2.4-2.4-2.4H8.3C7,1.3,5.9,2.4,5.9,3.7v28.2C15.7,32.7,24.9,25.9,32.5,19.1z" /></g></g><g
   id="Layer_x5F_2"
   i:knockout="Off"
   i:layer="yes"
   i:dimmedPercent="3"
   i:rgbTrio="#4F004F00FFFF"><g
   id="g625"
   i:knockout="Off"><path
   id="path172"
   i:isolated="yes"
   i:knockout="Off"
   opacity="0.3"
   fill="#999999"
   enable-background="new    "
   d="M3.9,5.7      c-1.7,0-3.1,1.1-3.1,2.5v31.1c0,1.4,1.4,2.5,3.1,2.5h37.8c1.7,0,3.1-1.1,3.1-2.5v-31c0-1.4-1.4-2.5-3.1-2.5L3.9,5.7L3.9,5.7z" /><linearGradient
   id="path179_1_"
   gradientUnits="userSpaceOnUse"
   x1="-732.3838"
   y1="186.3955"
   x2="-732.3838"
   y2="393.8739"
   gradientTransform="matrix(0.1875 0 0 -0.1875 158.7217 78.0996)"><stop
   offset="0"
   style="stop-color:#6A5B97"
   id="stop628" /><stop
   offset="1"
   style="stop-color:#6D7BB0"
   id="stop629" /><a:midPointStop
   offset="0"
   style="stop-color:#6A5B97"
   id="midPointStop630" /><a:midPointStop
   offset="0.5"
   style="stop-color:#6A5B97"
   id="midPointStop631" /><a:midPointStop
   offset="1"
   style="stop-color:#6D7BB0"
   id="midPointStop632" /></linearGradient><path
   id="path179"
   fill="url(#path179_1_)"
   d="M42.8,38.2c0,1.1-1.1,2-2.5,2H2.5c-1.4,0-2.5-0.9-2.5-2v-31c0-1.1,1.1-2,2.5-2      h37.8c1.4,0,2.5,0.9,2.5,2V38.2L42.8,38.2z" /><linearGradient
   id="path186_1_"
   gradientUnits="userSpaceOnUse"
   x1="-841.1812"
   y1="295.1973"
   x2="-624.0016"
   y2="295.1973"
   gradientTransform="matrix(0.1875 0 0 -0.1875 158.7217 78.0996)"><stop
   offset="0"
   style="stop-color:#EFEDF5"
   id="stop635" /><stop
   offset="1"
   style="stop-color:#99ACD2"
   id="stop636" /><a:midPointStop
   offset="0"
   style="stop-color:#EFEDF5"
   id="midPointStop637" /><a:midPointStop
   offset="0.5"
   style="stop-color:#EFEDF5"
   id="midPointStop638" /><a:midPointStop
   offset="1"
   style="stop-color:#99ACD2"
   id="midPointStop639" /></linearGradient><path
   id="path186"
   fill="url(#path186_1_)"
   d="M2.5,6C1.7,6,1,6.5,1,7.2v31.1c0,0.7,0.7,1.2,1.5,1.2h37.8c0.8,0,1.5-0.5,1.5-1.2      V7.2c0-0.7-0.7-1.2-1.5-1.2H2.5L2.5,6z" /><path
   id="path187"
   i:isolated="yes"
   i:knockout="Off"
   opacity="0.64"
   fill="#FFFFFF"
   enable-background="new    "
   d="M3.1,25.4      c1.4,0.1,2.8,0.2,4.2,0.2c16.8,0,30.3-7.5,30.3-16.8c0-0.4,0-0.7-0.1-1.1c-7.7,0-33.4,0-34.5,0C3.1,8.2,3.1,17.4,3.1,25.4z" /></g></g><g
   id="Layer_x5F_3"
   i:knockout="Off"
   i:layer="yes"
   i:dimmedPercent="3"
   i:rgbTrio="#4F00FFFF4F00"><g
   id="g643"><path
   d="M41,22.4L22.4,3.8c-0.4-0.4-1-0.6-1.5-0.6c-0.6,0-1.1,0.2-1.5,0.6L0.6,22.4c-0.4,0.4-0.6,1-0.6,1.5s0.2,1.1,0.6,1.5      l18.6,18.6c0.9,0.9,2.2,0.9,3.1,0L41,25.5C41.8,24.6,41.8,23.2,41,22.4L41,22.4z"
   id="path644" /><linearGradient
   id="XMLID_1_"
   gradientUnits="userSpaceOnUse"
   x1="-166.9238"
   y1="319.2344"
   x2="-156.9261"
   y2="275.4275"
   gradientTransform="matrix(1 0 0 -1 183.2031 323.2891)"><stop
   offset="0"
   style="stop-color:#184375"
   id="stop646" /><stop
   offset="1"
   style="stop-color:#C8BDDC"
   id="stop647" /><a:midPointStop
   offset="0"
   style="stop-color:#184375"
   id="midPointStop648" /><a:midPointStop
   offset="0.5"
   style="stop-color:#184375"
   id="midPointStop649" /><a:midPointStop
   offset="1"
   style="stop-color:#C8BDDC"
   id="midPointStop650" /></linearGradient><polygon
   fill="url(#XMLID_1_)"
   points="20.8,42.6 2.2,23.9 20.8,5.3 39.5,23.9 "
   id="polygon651" /><g
   i:knockout="Off"
   id="g652"><g
   i:knockout="Off"
   id="g653"><g
   id="g654"><linearGradient
   id="XMLID_2_"
   gradientUnits="userSpaceOnUse"
   x1="-16.3887"
   y1="102.3262"
   x2="-12.0061"
   y2="92.5614"
   gradientTransform="matrix(1 0 0 -1 0 47.0625)"><stop
   offset="0"
   style="stop-color:#184375"
   id="stop656" /><stop
   offset="1"
   style="stop-color:#C8BDDC"
   id="stop657" /><a:midPointStop
   offset="0"
   style="stop-color:#184375"
   id="midPointStop658" /><a:midPointStop
   offset="0.5"
   style="stop-color:#184375"
   id="midPointStop659" /><a:midPointStop
   offset="1"
   style="stop-color:#C8BDDC"
   id="midPointStop660" /></linearGradient><path
   i:knockout="Off"
   opacity="0"
   fill="url(#XMLID_2_)"
   d="M21.6,6.1L2.9,24.7l10.8,10.6c13.9,0,2.4-18,19-18L21.6,6.1z"
   id="path661" /></g><linearGradient
   id="XMLID_3_"
   gradientUnits="userSpaceOnUse"
   x1="-166.3413"
   y1="304.1523"
   x2="-161.9991"
   y2="294.4776"
   gradientTransform="matrix(1 0 0 -1 183.2031 323.2891)"><stop
   offset="0"
   style="stop-color:#184375"
   id="stop663" /><stop
   offset="1"
   style="stop-color:#C8BDDC"
   id="stop664" /><a:midPointStop
   offset="0"
   style="stop-color:#184375"
   id="midPointStop665" /><a:midPointStop
   offset="0.5"
   style="stop-color:#184375"
   id="midPointStop666" /><a:midPointStop
   offset="1"
   style="stop-color:#C8BDDC"
   id="midPointStop667" /></linearGradient><path
   i:isolated="yes"
   i:knockout="Off"
   opacity="0.1667"
   fill="url(#XMLID_3_)"
   enable-background="new    "
   d="M21.4,6        L2.8,24.6l10.7,10.5c13.9,0,2.3-18.1,18.9-18.1L21.4,6L21.4,6z"
   id="path668" /><linearGradient
   id="XMLID_4_"
   gradientUnits="userSpaceOnUse"
   x1="-166.5693"
   y1="304.3418"
   x2="-162.2674"
   y2="294.7568"
   gradientTransform="matrix(1 0 0 -1 183.2031 323.2891)"><stop
   offset="0"
   style="stop-color:#184375"
   id="stop670" /><stop
   offset="1"
   style="stop-color:#C8BDDC"
   id="stop671" /><a:midPointStop
   offset="0"
   style="stop-color:#184375"
   id="midPointStop672" /><a:midPointStop
   offset="0.5"
   style="stop-color:#184375"
   id="midPointStop673" /><a:midPointStop
   offset="1"
   style="stop-color:#C8BDDC"
   id="midPointStop674" /></linearGradient><path
   i:isolated="yes"
   i:knockout="Off"
   opacity="0.3333"
   fill="url(#XMLID_4_)"
   enable-background="new    "
   d="M21.3,5.8        L2.7,24.5l10.5,10.3c13.9,0,2.2-18.2,18.9-18.2L21.3,5.8L21.3,5.8z"
   id="path675" /><linearGradient
   id="XMLID_5_"
   gradientUnits="userSpaceOnUse"
   x1="-166.7954"
   y1="304.5303"
   x2="-162.5341"
   y2="295.0357"
   gradientTransform="matrix(1 0 0 -1 183.2031 323.2891)"><stop
   offset="0"
   style="stop-color:#184375"
   id="stop677" /><stop
   offset="1"
   style="stop-color:#C8BDDC"
   id="stop678" /><a:midPointStop
   offset="0"
   style="stop-color:#184375"
   id="midPointStop679" /><a:midPointStop
   offset="0.5"
   style="stop-color:#184375"
   id="midPointStop680" /><a:midPointStop
   offset="1"
   style="stop-color:#C8BDDC"
   id="midPointStop681" /></linearGradient><path
   i:isolated="yes"
   i:knockout="Off"
   opacity="0.5"
   fill="url(#XMLID_5_)"
   enable-background="new    "
   d="M21.2,5.7        L2.5,24.3l10.3,10.1c13.9,0,2.2-18.3,18.8-18.3L21.2,5.7z"
   id="path682" /><linearGradient
   id="XMLID_6_"
   gradientUnits="userSpaceOnUse"
   x1="-167.0225"
   y1="304.7178"
   x2="-162.8013"
   y2="295.3127"
   gradientTransform="matrix(1 0 0 -1 183.2031 323.2891)"><stop
   offset="0"
   style="stop-color:#184375"
   id="stop684" /><stop
   offset="1"
   style="stop-color:#C8BDDC"
   id="stop685" /><a:midPointStop
   offset="0"
   style="stop-color:#184375"
   id="midPointStop686" /><a:midPointStop
   offset="0.5"
   style="stop-color:#184375"
   id="midPointStop687" /><a:midPointStop
   offset="1"
   style="stop-color:#C8BDDC"
   id="midPointStop688" /></linearGradient><path
   i:isolated="yes"
   i:knockout="Off"
   opacity="0.6667"
   fill="url(#XMLID_6_)"
   enable-background="new    "
   d="M21,5.6        L2.4,24.2l10.1,10c13.9,0,2.1-18.4,18.7-18.4L21,5.6L21,5.6z"
   id="path689" /><linearGradient
   id="XMLID_7_"
   gradientUnits="userSpaceOnUse"
   x1="-167.2485"
   y1="304.9063"
   x2="-163.0681"
   y2="295.5919"
   gradientTransform="matrix(1 0 0 -1 183.2031 323.2891)"><stop
   offset="0"
   style="stop-color:#184375"
   id="stop691" /><stop
   offset="1"
   style="stop-color:#C8BDDC"
   id="stop692" /><a:midPointStop
   offset="0"
   style="stop-color:#184375"
   id="midPointStop693" /><a:midPointStop
   offset="0.5"
   style="stop-color:#184375"
   id="midPointStop694" /><a:midPointStop
   offset="1"
   style="stop-color:#C8BDDC"
   id="midPointStop695" /></linearGradient><path
   i:isolated="yes"
   i:knockout="Off"
   opacity="0.8333"
   fill="url(#XMLID_7_)"
   enable-background="new    "
   d="M20.9,5.5        L2.3,24.1l9.9,9.8c13.9,0,2-18.5,18.7-18.5L20.9,5.5L20.9,5.5z"
   id="path696" /><linearGradient
   id="XMLID_8_"
   gradientUnits="userSpaceOnUse"
   x1="-167.4746"
   y1="305.0957"
   x2="-163.3344"
   y2="295.871"
   gradientTransform="matrix(1 0 0 -1 183.2031 323.2891)"><stop
   offset="0"
   style="stop-color:#184375"
   id="stop698" /><stop
   offset="1"
   style="stop-color:#C8BDDC"
   id="stop699" /><a:midPointStop
   offset="0"
   style="stop-color:#184375"
   id="midPointStop700" /><a:midPointStop
   offset="0.5"
   style="stop-color:#184375"
   id="midPointStop701" /><a:midPointStop
   offset="1"
   style="stop-color:#C8BDDC"
   id="midPointStop702" /></linearGradient><path
   fill="url(#XMLID_8_)"
   d="M20.8,5.3L2.2,24l9.7,9.7c13.9,0,2-18.6,18.6-18.6L20.8,5.3L20.8,5.3z"
   id="path703" /></g></g><polygon
   i:isolated="yes"
   i:knockout="Off"
   opacity="0.72"
   fill="#FFFFFF"
   enable-background="new    "
   points="39.5,23.9       20.8,5.3 2.2,23.9 2.9,24.5 21,8.5 "
   id="polygon704" /><path
   i:isolated="yes"
   i:knockout="Off"
   opacity="0.5"
   fill="#FFFFFF"
   enable-background="new    "
   d="M5.9,27.7l0.7-1      c0.6,0.3,1.3,0.5,1.9,0.6l0,1.5C9,28.9,9.4,29,9.8,29l0.5-1.5c0.3,0,0.7,0,1,0s0.7,0,1,0l0.5,1.5c0.4,0,0.9-0.1,1.3-0.2l0-1.5      c0.7-0.2,1.3-0.4,1.9-0.6l0.9,1.2c0.4-0.2,0.8-0.4,1.1-0.6l-0.5-1.5c0.6-0.4,1.1-0.7,1.6-1.2l1.2,0.9c0.3-0.3,0.6-0.6,0.9-0.9      l-0.9-1.2c0.4-0.5,0.8-1.1,1.2-1.6l1.5,0.5c0.2-0.4,0.4-0.8,0.6-1.1l-1.2-0.9c0.3-0.6,0.5-1.3,0.6-1.9l1.5,0      c0.1-0.4,0.2-0.8,0.2-1.3l-1.5-0.5c0-0.3,0-0.7,0-1s0-0.7,0-1l1.5-0.5c0-0.4-0.1-0.9-0.2-1.3l-1.5,0c-0.2-0.7-0.4-1.3-0.6-1.9      l1.2-0.9c-0.2-0.4-0.4-0.8-0.6-1.1l-1.5,0.5c-0.4-0.6-0.8-1.1-1.2-1.6l0.9-1.2c-0.3-0.3-0.6-0.6-0.8-0.9L2.2,23.9l1,1l0.3-0.2      c0.5,0.4,1.1,0.8,1.6,1.2l-0.2,0.7L5.9,27.7L5.9,27.7z"
   id="path705" /><path
   i:isolated="yes"
   i:knockout="Off"
   opacity="0.5"
   fill="#FFFFFF"
   enable-background="new    "
   d="M24.9,32.6      c0-6.3,4.1-11.6,9.8-13.5L32.5,17c0,0,0,0,0,0l-0.2-0.2l-1.4-1.4c-0.4,0.2-0.9,0.4-1.3,0.7l0.7,2c-0.8,0.5-1.6,1.1-2.3,1.7      l-1.7-1.3c-0.4,0.4-0.9,0.8-1.3,1.3l1.3,1.7c-0.6,0.7-1.2,1.5-1.7,2.3l-2-0.7c-0.3,0.5-0.6,1.1-0.8,1.6l1.7,1.3      c-0.4,0.9-0.7,1.8-0.9,2.7l-2.2,0c-0.1,0.6-0.2,1.2-0.3,1.8l2.1,0.7c0,0.5-0.1,0.9-0.1,1.4c0,0.5,0,1,0.1,1.4l-2.1,0.7      c0.1,0.6,0.2,1.2,0.3,1.8l2.2,0c0.2,0.9,0.5,1.8,0.9,2.7l-1.7,1.3c0.1,0.3,0.3,0.6,0.4,0.9l3.7-3.7C25.2,36,24.9,34.3,24.9,32.6      L24.9,32.6z"
   id="path706" /><polygon
   i:isolated="yes"
   i:knockout="Off"
   opacity="0.35"
   enable-background="new    "
   points="2.3,24.1 20.8,42.6 39.5,23.9       38.5,23.2 20.6,39.3 "
   id="polygon707" /></g></g><g
   id="Layer_x5F_4"
   i:knockout="Off"
   i:layer="yes"
   i:dimmedPercent="3"
   i:rgbTrio="#4F00FFFF4F00"><rect
   id="path241"
   i:knockout="Off"
   fill="none"
   width="48"
   height="48" /></g></svg>
