<?xml version="1.0" encoding="UTF-8" standalone="no"?>
<!DOCTYPE svg PUBLIC "-//W3C//DTD SVG 20010904//EN"
"http://www.w3.org/TR/2001/REC-SVG-20010904/DTD/svg10.dtd">
<!-- Created with Sodipodi ("http://www.sodipodi.com/") -->
<svg
   xmlns:x="http://ns.adobe.com/Extensibility/1.0/"
   xmlns:i="http://ns.adobe.com/AdobeIllustrator/10.0/"
   xmlns:graph="http://ns.adobe.com/Graphs/1.0/"
   xmlns="http://www.w3.org/2000/svg"
   xmlns:xlink="http://www.w3.org/1999/xlink"
   xmlns:a="http://ns.adobe.com/AdobeSVGViewerExtensions/3.0/"
   xml:space="preserve"
   i:viewOrigin="282.9219 419.0313"
   i:rulerOrigin="0 0"
   i:pageBounds="0 792 612 0"
   width="48"
   height="48"
   viewBox="0 0 48 48"
   overflow="visible"
   enable-background="new 0 0 48 48"
   xmlns:sodipodi="http://sodipodi.sourceforge.net/DTD/sodipodi-0.dtd"
   id="svg602"
   sodipodi:version="0.34"
   sodipodi:docname="C:\msys\home\su_blanc\mldonkey-2.5.12\src\gtk2\rsvg\mime_pdf.svg"><defs
   id="defs655" /><sodipodi:namedview
   id="namedview654" /><g
   id="Layer_x5F_1"
   i:knockout="Off"
   i:layer="yes"
   i:dimmedPercent="3"
   i:rgbTrio="#4F008000FFFF"><g
   id="g620"
   i:knockout="Off"><path
   id="path155"
   i:isolated="yes"
   i:knockout="Off"
   opacity="0.2"
   enable-background="new    "
   d="M10.1,1.6      c-1.8,0-3.3,1.5-3.3,3.3v39.4c0,1.8,1.5,3.3,3.3,3.3h34.6c1.8,0,3.3-1.5,3.3-3.3V4.9c0-1.8-1.5-3.3-3.3-3.3H10.1z" /><linearGradient
   id="path162_1_"
   gradientUnits="userSpaceOnUse"
   x1="-1385.9985"
   y1="291.7295"
   x2="-1165.4985"
   y2="291.7295"
   gradientTransform="matrix(0.1875 0 0 -0.1875 264.8174 78.0996)"><stop
   offset="0"
   style="stop-color:#A7ABAC"
   id="stop609" /><stop
   offset="1"
   style="stop-color:#85898A"
   id="stop610" /><a:midPointStop
   offset="0"
   style="stop-color:#A7ABAC"
   id="midPointStop611" /><a:midPointStop
   offset="0.5"
   style="stop-color:#A7ABAC"
   id="midPointStop612" /><a:midPointStop
   offset="1"
   style="stop-color:#85898A"
   id="midPointStop613" /></linearGradient><path
   id="path162"
   fill="url(#path162_1_)"
   d="M8.3,0.4C6.5,0.4,5,1.9,5,3.7v39.4c0,1.8,1.5,3.3,3.3,3.3H43      c1.8,0,3.3-1.5,3.3-3.3V3.7c0-1.8-1.5-3.3-3.3-3.3H8.3z" /><path
   id="path163"
   fill="#99CCFF"
   d="M5.9,43.1c0,1.3,1.1,2.4,2.4,2.4H43c1.3,0,2.4-1.1,2.4-2.4V3.7c0-1.3-1.1-2.4-2.4-2.4H8.3      C7,1.3,5.9,2.4,5.9,3.7V43.1z" /><linearGradient
   id="path170_1_"
   gradientUnits="userSpaceOnUse"
   x1="-1321.3008"
   y1="337.4727"
   x2="-1072.4517"
   y2="88.6235"
   gradientTransform="matrix(0.1875 0 0 -0.1875 264.8174 78.0996)"><stop
   offset="0"
   style="stop-color:#FFFFFF"
   id="stop617" /><stop
   offset="1"
   style="stop-color:#99CCFF"
   id="stop618" /><a:midPointStop
   offset="0"
   style="stop-color:#FFFFFF"
   id="midPointStop619" /><a:midPointStop
   offset="0.5"
   style="stop-color:#FFFFFF"
   id="midPointStop620" /><a:midPointStop
   offset="1"
   style="stop-color:#99CCFF"
   id="midPointStop621" /></linearGradient><path
   id="path170"
   fill="url(#path170_1_)"
   d="M8.3,2.3C7.5,2.3,6.9,3,6.9,3.7v39.4c0,0.8,0.6,1.4,1.4,1.4H43      c0.8,0,1.4-0.6,1.4-1.4V3.7c0-0.8-0.6-1.4-1.4-1.4H8.3z" /><path
   id="path171"
   i:isolated="yes"
   i:knockout="Off"
   opacity="0.4"
   fill="#FFFFFF"
   enable-background="new    "
   d="M32.5,19.1      c3.7-3.4,8.1-5.1,12.8-6V3.7c0-1.3-1.1-2.4-2.4-2.4H8.3C7,1.3,5.9,2.4,5.9,3.7v28.2C15.7,32.7,24.9,25.9,32.5,19.1z" /></g></g><g
   id="Layer_x5F_2"
   i:knockout="Off"
   i:layer="yes"
   i:dimmedPercent="3"
   i:rgbTrio="#4F004F00FFFF"><g
   id="g625"
   i:knockout="Off"><path
   id="path172"
   i:isolated="yes"
   i:knockout="Off"
   opacity="0.3"
   fill="#999999"
   enable-background="new    "
   d="M3.9,5.7      c-1.7,0-3.1,1.1-3.1,2.5v31.1c0,1.4,1.4,2.5,3.1,2.5h37.8c1.7,0,3.1-1.1,3.1-2.5v-31c0-1.4-1.4-2.5-3.1-2.5L3.9,5.7L3.9,5.7z" /><linearGradient
   id="path179_2_"
   gradientUnits="userSpaceOnUse"
   x1="-449.4609"
   y1="232.6357"
   x2="-449.4609"
   y2="25.1573"
   gradientTransform="matrix(0.1875 0 0 0.1875 105.6738 -0.4688)"><stop
   offset="0"
   style="stop-color:#6A5B97"
   id="stop628" /><stop
   offset="1"
   style="stop-color:#6D7BB0"
   id="stop629" /><a:midPointStop
   offset="0"
   style="stop-color:#6A5B97"
   id="midPointStop630" /><a:midPointStop
   offset="0.5"
   style="stop-color:#6A5B97"
   id="midPointStop631" /><a:midPointStop
   offset="1"
   style="stop-color:#6D7BB0"
   id="midPointStop632" /></linearGradient><path
   id="path179"
   fill="url(#path179_2_)"
   d="M42.8,38.2c0,1.1-1.1,2-2.5,2H2.5c-1.4,0-2.5-0.9-2.5-2v-31c0-1.1,1.1-2,2.5-2      h37.8c1.4,0,2.5,0.9,2.5,2V38.2L42.8,38.2z" /><linearGradient
   id="path186_1_"
   gradientUnits="userSpaceOnUse"
   x1="-558.2593"
   y1="123.834"
   x2="-341.0797"
   y2="123.834"
   gradientTransform="matrix(0.1875 0 0 0.1875 105.6738 -0.4688)"><stop
   offset="0"
   style="stop-color:#EFEDF5"
   id="stop635" /><stop
   offset="1"
   style="stop-color:#99ACD2"
   id="stop636" /><a:midPointStop
   offset="0"
   style="stop-color:#EFEDF5"
   id="midPointStop637" /><a:midPointStop
   offset="0.5"
   style="stop-color:#EFEDF5"
   id="midPointStop638" /><a:midPointStop
   offset="1"
   style="stop-color:#99ACD2"
   id="midPointStop639" /></linearGradient><path
   id="path186"
   fill="url(#path186_1_)"
   d="M2.5,6C1.7,6,1,6.5,1,7.2v31.1c0,0.7,0.7,1.2,1.5,1.2h37.8c0.8,0,1.5-0.5,1.5-1.2      V7.2c0-0.7-0.7-1.2-1.5-1.2H2.5L2.5,6z" /><path
   id="path187"
   i:isolated="yes"
   i:knockout="Off"
   opacity="0.64"
   fill="#FFFFFF"
   enable-background="new    "
   d="M3.1,25.4      c1.4,0.1,2.8,0.2,4.2,0.2c16.8,0,30.3-7.5,30.3-16.8c0-0.4,0-0.7-0.1-1.1c-7.7,0-33.4,0-34.5,0C3.1,8.2,3.1,17.4,3.1,25.4z" /></g></g><g
   id="Layer_x5F_3"
   i:knockout="Off"
   i:layer="yes"
   i:dimmedPercent="3"
   i:rgbTrio="#4F00FFFF4F00"><g
   id="g172"
   i:knockout="Off"><g
   id="g173"
   i:knockout="Off"
   opacity="0.36"><g
   id="g174"
   i:knockout="Off"><path
   id="path175"
   i:knockout="Off"
   fill="none"
   d="M5.4,33.8c6.6-1.3,16.3-3.8,25.5-1.2c7.3,2,6.3,7,0.1,3.5        c-2.2-1.3-3.4-2.9-4.9-4.5c-2.8-3.2-5.3-6-7.6-9.4c-1.6-2.6-3.8-5.2-3.7-7.7c0-1.1,1.6-6.8,5.4-4.6c3.5,2.1-2.5,6.9-3.5,8.4        c-1.5,2.7-3.5,5.1-5,7.9c-1.6,3.1-3.2,6.2-5,9.3C6.3,36,4.8,39.2,3,38.7c-2.5-0.7-0.3-3.4,0.3-3.8C4,34.3,5.1,34,5.9,33.8" /><path
   id="path176"
   fill="#999999"
   d="M5.4,35.6c6.7-1.3,13.3-2.7,20.1-2.1c3.2,0.2,6.7,1,9.2,3c0.4,0.3,0.7,0.6,0.9,1        c0.1,0.1,0.1,0.3,0.2,0.4c0-1.2,0-2.4,0-3.6c0,0.1-0.1,0.1-0.1,0.2c-0.5,0.5-1.5,0.3-2.1,0.2c-3.1-0.8-5.2-3.4-7.3-5.6        c-2.5-2.8-5-5.7-7.2-8.8c-1-1.4-2-2.9-2.9-4.4c-0.4-0.7-0.8-1.4-1-2.2c-0.6-1.7-0.4,3.6-0.2,2.4c0-0.2,0.1-0.4,0.1-0.5        c0.4-1.6,1.5-3.6,3.4-3.8c0.7,0,1.4,0.3,1.9,0.7c0.3,0.2,0.5,0.4,0.6,0.7c0.5,1.3,0.5,0.1,0.1-3.4c0,0.2-0.1,0.4-0.2,0.6        c-0.6,1.3-1.7,2.5-2.7,3.5c-1,1.1-1.7,2.1-2.5,3.3c-1.3,2.1-2.9,4.1-4.1,6.3c-1.3,2.4-2.5,4.8-3.8,7.2        c-0.8,1.5-1.6,3.1-2.7,4.4c-0.4,0.5-1,0.9-1.7,1c-0.4,0-0.7-0.1-1-0.3c-0.2-0.1-0.3-0.2-0.4-0.4c1.5,2.2-0.6,5,0.2,3.3        c0.7-1.6,2.3-2,3.7-2.5c0.4-0.2,0.2-2.2,0.2-2.5c0-0.1-0.1-2.5-0.2-2.5c-2.2,0.6-4,1.6-4.3,4.1c-0.2,1.5-0.4,3.6,0.2,5.1        c0.5,1.1,1.9,1,2.7,0.4c0.8-0.5,1.4-1.5,1.8-2.3c0.8-1.3,1.5-2.7,2.3-4.1c1.9-3.4,3.6-6.8,5.8-10.1c0.9-1.3,1.6-2.8,2.6-4        c0.6-0.7,1.3-1.4,2-2.1c1.7-1.8,2.6-3.5,2.6-6c0.1-2.4,0.1-5.5-3-5.6c-1.8,0-2.9,2.2-3.4,3.6c-0.8,2.4-0.8,5.4-0.2,7.9        c0.4,1.6,1.4,3.1,2.3,4.5c1,1.5,2,3.1,3.1,4.5c2.2,2.9,4.6,5.6,7,8.3c1.8,2,4.4,4,7.1,4.1c2.4,0.1,1.7-3.6,1.6-5        c-0.2-2.1-2.4-3.1-4.1-3.7c-6.8-2.3-14.4-1.4-21.3-0.1c-1.8,0.3-3.5,0.7-5.3,1.1C4.9,32,5.4,35.7,5.4,35.6z" /></g></g><g
   id="g177"
   i:knockout="Off"><g
   id="g178"
   i:knockout="Off"><path
   id="path179_1_"
   i:knockout="Off"
   fill="none"
   d="M3.9,31.5c6.6-1.3,16.3-3.8,25.5-1.2c7.3,2,6.3,7,0.1,3.5        c-2.2-1.3-3.4-2.9-4.9-4.5c-2.8-3.2-5.3-6-7.6-9.4c-1.6-2.6-3.8-5.2-3.7-7.7c0-1.1,1.6-6.8,5.4-4.6c3.5,2.1-2.5,6.9-3.5,8.4        c-1.5,2.7-3.5,5.1-5,7.9c-1.6,3.1-3.2,6.2-5,9.3c-0.4,0.6-1.9,3.8-3.7,3.3C-1,35.7,1.2,33,1.8,32.6c0.7-0.5,1.8-0.8,2.6-1.1" /><path
   id="path180"
   fill="#F70019"
   d="M3.9,33.4c6.7-1.3,13.3-2.7,20.1-2.1c3.2,0.2,6.7,1,9.2,3c0.4,0.3,0.7,0.6,0.9,1        c0.1,0.1,0.1,0.3,0.2,0.4c0-1.2,0-2.4,0-3.6c0,0.1-0.1,0.1-0.1,0.2c-0.5,0.6-1.5,0.3-2.1,0.2c-3.1-0.8-5.2-3.4-7.3-5.6        c-2.5-2.8-5-5.7-7.2-8.8c-1-1.4-2-2.9-2.9-4.4c-0.4-0.7-0.8-1.4-1-2.2c-0.6-1.7-0.4,3.6-0.2,2.4c0-0.2,0.1-0.4,0.1-0.5        c0.4-1.6,1.5-3.6,3.4-3.8c0.7,0,1.4,0.3,1.9,0.7c0.3,0.2,0.5,0.4,0.6,0.7c0.5,1.3,0.5,0.1,0.1-3.4c0,0.2-0.1,0.4-0.2,0.6        c-0.6,1.3-1.7,2.5-2.7,3.5c-1,1.1-1.7,2.1-2.5,3.3c-1.3,2.1-2.9,4.1-4.1,6.3c-1.3,2.4-2.5,4.8-3.8,7.2C5.5,30,4.7,31.7,3.6,33        c-0.4,0.5-1,0.9-1.7,1c-0.4,0-0.7-0.1-1-0.3c-0.2-0.1-0.3-0.2-0.4-0.4c1.5,2.2-0.6,5,0.2,3.3C1.4,35,3,34.6,4.4,34        c0.4-0.2,0.2-2.2,0.2-2.5c0-0.1-0.1-2.5-0.2-2.5c-2.2,0.6-4,1.6-4.3,4.1c-0.2,1.5-0.4,3.6,0.2,5.1c0.5,1.1,1.9,1,2.7,0.4        c0.8-0.5,1.4-1.5,1.8-2.3c0.8-1.3,1.5-2.7,2.3-4.1c1.9-3.4,3.6-6.8,5.8-10.1c0.9-1.3,1.6-2.8,2.6-4c0.6-0.7,1.3-1.4,2-2.1        c1.7-1.8,2.6-3.5,2.6-6c0.1-2.4,0.1-5.5-3-5.6c-1.8,0-2.9,2.2-3.4,3.6c-0.8,2.4-0.8,5.4-0.2,7.9c0.4,1.6,1.4,3.1,2.3,4.5        c1,1.5,2,3.1,3.1,4.5c2.2,2.9,4.6,5.6,7,8.3c1.8,2,4.4,4,7.1,4.1c2.4,0.1,1.7-3.6,1.6-5c-0.2-2.1-2.4-3.1-4.1-3.7        c-6.8-2.3-14.4-1.4-21.3-0.1c-1.8,0.3-3.5,0.7-5.3,1.1C3.4,29.7,3.9,33.4,3.9,33.4z" /></g></g></g></g><g
   id="Layer_x5F_4"
   i:knockout="Off"
   i:layer="yes"
   i:dimmedPercent="3"
   i:rgbTrio="#4F00FFFF4F00"><rect
   id="path241"
   i:knockout="Off"
   fill="none"
   width="48"
   height="48" /></g></svg>
