<?xml version="1.0" encoding="UTF-8" standalone="no"?>
<!DOCTYPE svg PUBLIC "-//W3C//DTD SVG 20010904//EN"
"http://www.w3.org/TR/2001/REC-SVG-20010904/DTD/svg10.dtd">
<!-- Created with Sodipodi ("http://www.sodipodi.com/") -->
<svg
   xmlns:x="http://ns.adobe.com/Extensibility/1.0/"
   xmlns:i="http://ns.adobe.com/AdobeIllustrator/10.0/"
   xmlns:graph="http://ns.adobe.com/Graphs/1.0/"
   xmlns="http://www.w3.org/2000/svg"
   xmlns:xlink="http://www.w3.org/1999/xlink"
   xmlns:a="http://ns.adobe.com/AdobeSVGViewerExtensions/3.0/"
   xml:space="preserve"
   i:viewOrigin="282.9219 419.0313"
   i:rulerOrigin="0 0"
   i:pageBounds="0 792 612 0"
   width="48"
   height="48"
   viewBox="0 0 48 48"
   overflow="visible"
   enable-background="new 0 0 48 48"
   xmlns:sodipodi="http://sodipodi.sourceforge.net/DTD/sodipodi-0.dtd"
   id="svg602"
   sodipodi:version="0.34"
   sodipodi:docname="C:\msys\home\su_blanc\mldonkey-2.5.12\src\gtk2\rsvg\mime_cdimage.svg"><defs
   id="defs690" /><sodipodi:namedview
   id="namedview689" /><g
   id="Layer_x5F_1"
   i:knockout="Off"
   i:layer="yes"
   i:dimmedPercent="3"
   i:rgbTrio="#4F008000FFFF"><g
   id="g620"
   i:knockout="Off"><path
   id="path155"
   i:isolated="yes"
   i:knockout="Off"
   opacity="0.2"
   enable-background="new    "
   d="M10.1,1.6      c-1.8,0-3.3,1.5-3.3,3.3v39.4c0,1.8,1.5,3.3,3.3,3.3h34.6c1.8,0,3.3-1.5,3.3-3.3V4.9c0-1.8-1.5-3.3-3.3-3.3H10.1z" /><linearGradient
   id="path162_1_"
   gradientUnits="userSpaceOnUse"
   x1="-1385.9985"
   y1="291.7295"
   x2="-1165.4985"
   y2="291.7295"
   gradientTransform="matrix(0.1875 0 0 -0.1875 264.8174 78.0996)"><stop
   offset="0"
   style="stop-color:#A7ABAC"
   id="stop609" /><stop
   offset="1"
   style="stop-color:#85898A"
   id="stop610" /><a:midPointStop
   offset="0"
   style="stop-color:#A7ABAC"
   id="midPointStop611" /><a:midPointStop
   offset="0.5"
   style="stop-color:#A7ABAC"
   id="midPointStop612" /><a:midPointStop
   offset="1"
   style="stop-color:#85898A"
   id="midPointStop613" /></linearGradient><path
   id="path162"
   fill="url(#path162_1_)"
   d="M8.3,0.4C6.5,0.4,5,1.9,5,3.7v39.4c0,1.8,1.5,3.3,3.3,3.3H43      c1.8,0,3.3-1.5,3.3-3.3V3.7c0-1.8-1.5-3.3-3.3-3.3H8.3z" /><path
   id="path163"
   fill="#99CCFF"
   d="M5.9,43.1c0,1.3,1.1,2.4,2.4,2.4H43c1.3,0,2.4-1.1,2.4-2.4V3.7c0-1.3-1.1-2.4-2.4-2.4H8.3      C7,1.3,5.9,2.4,5.9,3.7V43.1z" /><linearGradient
   id="path170_1_"
   gradientUnits="userSpaceOnUse"
   x1="-1321.3008"
   y1="337.4727"
   x2="-1072.4517"
   y2="88.6235"
   gradientTransform="matrix(0.1875 0 0 -0.1875 264.8174 78.0996)"><stop
   offset="0"
   style="stop-color:#FFFFFF"
   id="stop617" /><stop
   offset="1"
   style="stop-color:#99CCFF"
   id="stop618" /><a:midPointStop
   offset="0"
   style="stop-color:#FFFFFF"
   id="midPointStop619" /><a:midPointStop
   offset="0.5"
   style="stop-color:#FFFFFF"
   id="midPointStop620" /><a:midPointStop
   offset="1"
   style="stop-color:#99CCFF"
   id="midPointStop621" /></linearGradient><path
   id="path170"
   fill="url(#path170_1_)"
   d="M8.3,2.3C7.5,2.3,6.9,3,6.9,3.7v39.4c0,0.8,0.6,1.4,1.4,1.4H43      c0.8,0,1.4-0.6,1.4-1.4V3.7c0-0.8-0.6-1.4-1.4-1.4H8.3z" /><path
   id="path171"
   i:isolated="yes"
   i:knockout="Off"
   opacity="0.4"
   fill="#FFFFFF"
   enable-background="new    "
   d="M32.5,19.1      c3.7-3.4,8.1-5.1,12.8-6V3.7c0-1.3-1.1-2.4-2.4-2.4H8.3C7,1.3,5.9,2.4,5.9,3.7v28.2C15.7,32.7,24.9,25.9,32.5,19.1z" /></g></g><g
   id="Layer_x5F_2"
   i:knockout="Off"
   i:layer="yes"
   i:dimmedPercent="3"
   i:rgbTrio="#4F004F00FFFF"><g
   id="g625"
   i:knockout="Off"><path
   id="path172"
   i:isolated="yes"
   i:knockout="Off"
   opacity="0.3"
   fill="#999999"
   enable-background="new    "
   d="M3.9,5.7      c-1.7,0-3.1,1.1-3.1,2.5v31.1c0,1.4,1.4,2.5,3.1,2.5h37.8c1.7,0,3.1-1.1,3.1-2.5v-31c0-1.4-1.4-2.5-3.1-2.5L3.9,5.7L3.9,5.7z" /><linearGradient
   id="path179_1_"
   gradientUnits="userSpaceOnUse"
   x1="-449.4609"
   y1="232.6357"
   x2="-449.4609"
   y2="25.1573"
   gradientTransform="matrix(0.1875 0 0 0.1875 105.6738 -0.4688)"><stop
   offset="0"
   style="stop-color:#6A5B97"
   id="stop628" /><stop
   offset="1"
   style="stop-color:#6D7BB0"
   id="stop629" /><a:midPointStop
   offset="0"
   style="stop-color:#6A5B97"
   id="midPointStop630" /><a:midPointStop
   offset="0.5"
   style="stop-color:#6A5B97"
   id="midPointStop631" /><a:midPointStop
   offset="1"
   style="stop-color:#6D7BB0"
   id="midPointStop632" /></linearGradient><path
   id="path179"
   fill="url(#path179_1_)"
   d="M42.8,38.2c0,1.1-1.1,2-2.5,2H2.5c-1.4,0-2.5-0.9-2.5-2v-31c0-1.1,1.1-2,2.5-2      h37.8c1.4,0,2.5,0.9,2.5,2V38.2L42.8,38.2z" /><linearGradient
   id="path186_1_"
   gradientUnits="userSpaceOnUse"
   x1="-558.2593"
   y1="123.834"
   x2="-341.0797"
   y2="123.834"
   gradientTransform="matrix(0.1875 0 0 0.1875 105.6738 -0.4688)"><stop
   offset="0"
   style="stop-color:#EFEDF5"
   id="stop635" /><stop
   offset="1"
   style="stop-color:#99ACD2"
   id="stop636" /><a:midPointStop
   offset="0"
   style="stop-color:#EFEDF5"
   id="midPointStop637" /><a:midPointStop
   offset="0.5"
   style="stop-color:#EFEDF5"
   id="midPointStop638" /><a:midPointStop
   offset="1"
   style="stop-color:#99ACD2"
   id="midPointStop639" /></linearGradient><path
   id="path186"
   fill="url(#path186_1_)"
   d="M2.5,6C1.7,6,1,6.5,1,7.2v31.1c0,0.7,0.7,1.2,1.5,1.2h37.8c0.8,0,1.5-0.5,1.5-1.2      V7.2c0-0.7-0.7-1.2-1.5-1.2H2.5L2.5,6z" /><path
   id="path187"
   i:isolated="yes"
   i:knockout="Off"
   opacity="0.64"
   fill="#FFFFFF"
   enable-background="new    "
   d="M3.1,25.4      c1.4,0.1,2.8,0.2,4.2,0.2c16.8,0,30.3-7.5,30.3-16.8c0-0.4,0-0.7-0.1-1.1c-7.7,0-33.4,0-34.5,0C3.1,8.2,3.1,17.4,3.1,25.4z" /></g></g><g
   id="Layer_x5F_3"
   i:knockout="Off"
   i:layer="yes"
   i:dimmedPercent="3"
   i:rgbTrio="#4F00FFFF4F00"><linearGradient
   id="XMLID_1_"
   gradientUnits="userSpaceOnUse"
   x1="-508.5811"
   y1="100.0684"
   x2="-451.5804"
   y2="39.9792"
   gradientTransform="matrix(-0.3715 0 0 0.3611 -161.8467 -2.4675)"><stop
   offset="0"
   style="stop-color:#FFFF00"
   id="stop644" /><stop
   offset="1"
   style="stop-color:#FF6800"
   id="stop645" /><a:midPointStop
   offset="0"
   style="stop-color:#FFFF00"
   id="midPointStop646" /><a:midPointStop
   offset="0.5"
   style="stop-color:#FFFF00"
   id="midPointStop647" /><a:midPointStop
   offset="1"
   style="stop-color:#FF6800"
   id="midPointStop648" /></linearGradient><path
   fill="url(#XMLID_1_)"
   d="M4,15.2c-5.3,8.2-3.9,18.3,3,22.5c7,4.2,16.8,0.9,22.1-7.4c5.3-8.2,3.9-18.3-3-22.5S9.3,7,4,15.2z      M15.2,24.8c-0.9-0.6-1-1.8-0.4-3c0.7-1,2.1-1.5,3-1c1,0.6,1.1,1.8,0.4,3C17.5,24.8,16.1,25.3,15.2,24.8L15.2,24.8z"
   id="path649" /><g
   id="g47"
   i:knockout="Off"><path
   id="path48"
   i:isolated="yes"
   i:knockout="Off"
   opacity="0.8"
   fill="#FFFFFF"
   enable-background="new    "
   d="M16.7,25      l-0.5,14.3c4.1-0.7,8.2-3,11.2-6.7l-9-9.1c-0.1,0.1-0.1,0.2-0.2,0.3C17.8,24.4,17.2,24.8,16.7,25z" /><path
   id="path49"
   i:isolated="yes"
   i:knockout="Off"
   opacity="0.8"
   fill="#FFFFFF"
   enable-background="new    "
   d="M16.8,20.6      l0.4-14.3c-3.7,0.5-7.4,2.4-10.5,5.5l9,9.1C16.1,20.8,16.4,20.6,16.8,20.6z" /></g><g
   id="g50"
   i:knockout="Off"
   opacity="0.4"><path
   id="path51"
   i:isolated="yes"
   i:knockout="Off"
   opacity="0.8"
   fill="#FFFFFF"
   enable-background="new    "
   d="M17.8,24.2      c-0.5,0.5-1,0.8-1.7,0.9l-3.8,14.4c3.9,0.3,8.2-1,11.9-3.8L18,24C18,24,17.9,24.1,17.8,24.2L17.8,24.2z" /><path
   id="path52"
   i:isolated="yes"
   i:knockout="Off"
   opacity="0.8"
   fill="#FFFFFF"
   enable-background="new    "
   d="M16.3,20.6      c0.4-0.1,0.7-0.1,1-0.1l3.8-14.4c-3.6-0.4-7.5,0.6-11,2.8L16.3,20.6L16.3,20.6z" /></g><g
   id="g53"
   i:knockout="Off"
   opacity="0.68"><path
   id="path54"
   i:isolated="yes"
   i:knockout="Off"
   opacity="0.9"
   fill="#FFFFFF"
   enable-background="new    "
   d="M15.9,24.8      c-0.6-0.1-1-0.5-1.2-1L1.5,29.9c1.1,3.9,3.7,7,7.4,8.5l7.4-13.6C16.1,24.8,16,24.8,15.9,24.8L15.9,24.8z" /><path
   id="path55"
   i:isolated="yes"
   i:knockout="Off"
   opacity="0.9"
   fill="#FFFFFF"
   enable-background="new    "
   d="M18.3,20.9      c0.2,0.2,0.4,0.6,0.4,0.9l13.2-6.2C31,12,28.8,9,25.6,7.3L18.3,20.9L18.3,20.9z" /></g><linearGradient
   id="XMLID_2_"
   gradientUnits="userSpaceOnUse"
   x1="-472.478"
   y1="82.4951"
   x2="-398.666"
   y2="201.8385"
   gradientTransform="matrix(-0.3715 0 0 0.3611 -161.8467 -2.4675)"><stop
   offset="0"
   style="stop-color:#FFFFFF"
   id="stop660" /><stop
   offset="1"
   style="stop-color:#9195F2"
   id="stop661" /><a:midPointStop
   offset="0"
   style="stop-color:#FFFFFF"
   id="midPointStop662" /><a:midPointStop
   offset="0.5"
   style="stop-color:#FFFFFF"
   id="midPointStop663" /><a:midPointStop
   offset="1"
   style="stop-color:#9195F2"
   id="midPointStop664" /></linearGradient><path
   fill="url(#XMLID_2_)"
   d="M26,8C19.2,4,9.4,7.2,4.2,15.4c-5.2,8.1-3.9,18,2.9,22.2c6.8,4.1,16.6,0.9,21.8-7.3     C34,22.1,32.8,12.2,26,8z M4.9,15.8c5-7.8,14.2-10.9,20.5-7c6.4,3.9,7.6,13.4,2.6,21c-2.7,4.2-6.8,7.2-11.3,8.2     c-3.3,0.8-6.6,0.3-9.2-1.3C1.2,32.9,0,23.5,4.9,15.8L4.9,15.8z"
   id="path665" /><linearGradient
   id="XMLID_3_"
   gradientUnits="userSpaceOnUse"
   x1="0"
   y1="22.8247"
   x2="33.0879"
   y2="22.8247"><stop
   offset="0"
   style="stop-color:#FF6800"
   id="stop667" /><stop
   offset="1"
   style="stop-color:#860000"
   id="stop668" /><a:midPointStop
   offset="0"
   style="stop-color:#FF6800"
   id="midPointStop669" /><a:midPointStop
   offset="0.5"
   style="stop-color:#FF6800"
   id="midPointStop670" /><a:midPointStop
   offset="1"
   style="stop-color:#860000"
   id="midPointStop671" /></linearGradient><path
   fill="url(#XMLID_3_)"
   d="M26.4,7.3c3.1,1.8,5.3,5,6.2,8.6c0.3,1.3,0.5,2.6,0.5,3.9c0,3.8-1.2,7.5-3.4,11     c-5.4,8.6-15.8,11.9-23.1,7.5c-7.3-4.4-8.8-15-3.3-23.5c3-4.6,7.5-8,12.5-9.1C19.6,4.9,23.4,5.4,26.4,7.3z M28.8,30.2     c5.1-8,3.8-17.8-2.9-22c-6.7-4-16.4-0.8-21.5,7.2c-5.1,8-3.8,17.8,2.9,21.9C14,41.4,23.6,38.2,28.8,30.2z"
   id="path672" /><linearGradient
   id="XMLID_4_"
   gradientUnits="userSpaceOnUse"
   x1="-486.7256"
   y1="69.8711"
   x2="-473.5723"
   y2="69.8711"
   gradientTransform="matrix(-0.3715 0 0 0.3611 -161.8467 -2.4675)"><stop
   offset="0"
   style="stop-color:#FF4444"
   id="stop674" /><stop
   offset="1"
   style="stop-color:#743A3A"
   id="stop675" /><a:midPointStop
   offset="0"
   style="stop-color:#FF4444"
   id="midPointStop676" /><a:midPointStop
   offset="0.5"
   style="stop-color:#FF4444"
   id="midPointStop677" /><a:midPointStop
   offset="1"
   style="stop-color:#743A3A"
   id="midPointStop678" /></linearGradient><path
   fill="url(#XMLID_4_)"
   d="M18.5,24c0.8-1.3,0.6-2.8-0.5-3.5c-1-0.7-2.6-0.2-3.4,1.1c-0.8,1.3-0.6,2.9,0.5,3.5     C16.1,25.8,17.7,25.2,18.5,24L18.5,24z M15.6,22.2c0.5-0.7,1.4-1,1.8-0.8c0.2,0.2,0.4,0.5,0.4,0.9c0,0.3-0.1,0.7-0.3,1     c-0.5,0.7-1.4,1.1-1.8,0.8C15.2,23.8,15.1,22.9,15.6,22.2L15.6,22.2z"
   id="path679" /><linearGradient
   id="XMLID_5_"
   gradientUnits="userSpaceOnUse"
   x1="-492.79"
   y1="69.9805"
   x2="-467.5096"
   y2="69.9805"
   gradientTransform="matrix(-0.3715 0 0 0.3611 -161.8467 -2.4675)"><stop
   offset="0"
   style="stop-color:#FFFF00"
   id="stop681" /><stop
   offset="1"
   style="stop-color:#FF0000"
   id="stop682" /><a:midPointStop
   offset="0"
   style="stop-color:#FFFF00"
   id="midPointStop683" /><a:midPointStop
   offset="0.5"
   style="stop-color:#FFFF00"
   id="midPointStop684" /><a:midPointStop
   offset="1"
   style="stop-color:#FF0000"
   id="midPointStop685" /></linearGradient><path
   i:isolated="yes"
   i:knockout="Off"
   opacity="0.5"
   fill="url(#XMLID_5_)"
   enable-background="new    "
   d="M20.3,25.1     c1.6-2.5,1.2-5.5-0.9-6.8c-2.1-1.2-5-0.2-6.6,2.2s-1.2,5.5,0.9,6.8C15.7,28.5,18.7,27.6,20.3,25.1L20.3,25.1z M14.5,25.9     c-1.4-0.9-1.8-3-0.6-4.7c1.1-1.7,3.2-2.4,4.6-1.5c1.4,0.9,1.8,3,0.6,4.7C18,26.1,16,26.8,14.5,25.9z"
   id="path686" /></g><g
   id="Layer_x5F_4"
   i:knockout="Off"
   i:layer="yes"
   i:dimmedPercent="3"
   i:rgbTrio="#4F00FFFF4F00"><rect
   id="path241"
   i:knockout="Off"
   fill="none"
   width="48"
   height="48" /></g></svg>
