<?xml version="1.0" encoding="UTF-8" standalone="no"?>
<!DOCTYPE svg PUBLIC "-//W3C//DTD SVG 20010904//EN"
"http://www.w3.org/TR/2001/REC-SVG-20010904/DTD/svg10.dtd">
<!-- Created with Sodipodi ("http://www.sodipodi.com/") -->
<svg
   xmlns:x="http://ns.adobe.com/Extensibility/1.0/"
   xmlns:i="http://ns.adobe.com/AdobeIllustrator/10.0/"
   xmlns:graph="http://ns.adobe.com/Graphs/1.0/"
   xmlns="http://www.w3.org/2000/svg"
   xmlns:xlink="http://www.w3.org/1999/xlink"
   xmlns:a="http://ns.adobe.com/AdobeSVGViewerExtensions/3.0/"
   xml:space="preserve"
   i:viewOrigin="282.9219 419.0313"
   i:rulerOrigin="0 0"
   i:pageBounds="0 792 612 0"
   width="48"
   height="48"
   viewBox="0 0 48 48"
   overflow="visible"
   enable-background="new 0 0 48 48"
   xmlns:sodipodi="http://sodipodi.sourceforge.net/DTD/sodipodi-0.dtd"
   id="svg602"
   sodipodi:version="0.34"
   sodipodi:docname="C:\msys\home\su_blanc\mldonkey-2.5.12\src\gtk2\rsvg\mime_shellscript.svg"><defs
   id="defs685" /><sodipodi:namedview
   id="namedview684" /><g
   id="Layer_x5F_1"
   i:knockout="Off"
   i:layer="yes"
   i:dimmedPercent="3"
   i:rgbTrio="#4F008000FFFF"><g
   id="g620"
   i:knockout="Off"><path
   id="path155"
   i:isolated="yes"
   i:knockout="Off"
   opacity="0.2"
   enable-background="new    "
   d="M10.1,1.6      c-1.8,0-3.3,1.5-3.3,3.3v39.4c0,1.8,1.5,3.3,3.3,3.3h34.6c1.8,0,3.3-1.5,3.3-3.3V4.9c0-1.8-1.5-3.3-3.3-3.3H10.1z" /><linearGradient
   id="path162_1_"
   gradientUnits="userSpaceOnUse"
   x1="-1385.9985"
   y1="291.7295"
   x2="-1165.4985"
   y2="291.7295"
   gradientTransform="matrix(0.1875 0 0 -0.1875 264.8174 78.0996)"><stop
   offset="0"
   style="stop-color:#A7ABAC"
   id="stop609" /><stop
   offset="1"
   style="stop-color:#85898A"
   id="stop610" /><a:midPointStop
   offset="0"
   style="stop-color:#A7ABAC"
   id="midPointStop611" /><a:midPointStop
   offset="0.5"
   style="stop-color:#A7ABAC"
   id="midPointStop612" /><a:midPointStop
   offset="1"
   style="stop-color:#85898A"
   id="midPointStop613" /></linearGradient><path
   id="path162"
   fill="url(#path162_1_)"
   d="M8.3,0.4C6.5,0.4,5,1.9,5,3.7v39.4c0,1.8,1.5,3.3,3.3,3.3H43      c1.8,0,3.3-1.5,3.3-3.3V3.7c0-1.8-1.5-3.3-3.3-3.3H8.3z" /><path
   id="path163"
   fill="#99CCFF"
   d="M5.9,43.1c0,1.3,1.1,2.4,2.4,2.4H43c1.3,0,2.4-1.1,2.4-2.4V3.7c0-1.3-1.1-2.4-2.4-2.4H8.3      C7,1.3,5.9,2.4,5.9,3.7V43.1z" /><linearGradient
   id="path170_1_"
   gradientUnits="userSpaceOnUse"
   x1="-1321.3008"
   y1="337.4727"
   x2="-1072.4517"
   y2="88.6235"
   gradientTransform="matrix(0.1875 0 0 -0.1875 264.8174 78.0996)"><stop
   offset="0"
   style="stop-color:#FFFFFF"
   id="stop617" /><stop
   offset="1"
   style="stop-color:#99CCFF"
   id="stop618" /><a:midPointStop
   offset="0"
   style="stop-color:#FFFFFF"
   id="midPointStop619" /><a:midPointStop
   offset="0.5"
   style="stop-color:#FFFFFF"
   id="midPointStop620" /><a:midPointStop
   offset="1"
   style="stop-color:#99CCFF"
   id="midPointStop621" /></linearGradient><path
   id="path170"
   fill="url(#path170_1_)"
   d="M8.3,2.3C7.5,2.3,6.9,3,6.9,3.7v39.4c0,0.8,0.6,1.4,1.4,1.4H43      c0.8,0,1.4-0.6,1.4-1.4V3.7c0-0.8-0.6-1.4-1.4-1.4H8.3z" /><path
   id="path171"
   i:isolated="yes"
   i:knockout="Off"
   opacity="0.4"
   fill="#FFFFFF"
   enable-background="new    "
   d="M32.5,19.1      c3.7-3.4,8.1-5.1,12.8-6V3.7c0-1.3-1.1-2.4-2.4-2.4H8.3C7,1.3,5.9,2.4,5.9,3.7v28.2C15.7,32.7,24.9,25.9,32.5,19.1z" /></g></g><g
   id="Layer_x5F_2"
   i:knockout="Off"
   i:layer="yes"
   i:dimmedPercent="3"
   i:rgbTrio="#4F004F00FFFF"><g
   id="g625"
   i:knockout="Off"><path
   id="path172"
   i:isolated="yes"
   i:knockout="Off"
   opacity="0.3"
   fill="#999999"
   enable-background="new    "
   d="M3.9,5.7      c-1.7,0-3.1,1.1-3.1,2.5v31.1c0,1.4,1.4,2.5,3.1,2.5h37.8c1.7,0,3.1-1.1,3.1-2.5v-31c0-1.4-1.4-2.5-3.1-2.5L3.9,5.7L3.9,5.7z" /><linearGradient
   id="path179_2_"
   gradientUnits="userSpaceOnUse"
   x1="-449.4609"
   y1="232.6357"
   x2="-449.4609"
   y2="25.1573"
   gradientTransform="matrix(0.1875 0 0 0.1875 105.6738 -0.4688)"><stop
   offset="0"
   style="stop-color:#6A5B97"
   id="stop628" /><stop
   offset="1"
   style="stop-color:#6D7BB0"
   id="stop629" /><a:midPointStop
   offset="0"
   style="stop-color:#6A5B97"
   id="midPointStop630" /><a:midPointStop
   offset="0.5"
   style="stop-color:#6A5B97"
   id="midPointStop631" /><a:midPointStop
   offset="1"
   style="stop-color:#6D7BB0"
   id="midPointStop632" /></linearGradient><path
   id="path179"
   fill="url(#path179_2_)"
   d="M42.8,38.2c0,1.1-1.1,2-2.5,2H2.5c-1.4,0-2.5-0.9-2.5-2v-31c0-1.1,1.1-2,2.5-2      h37.8c1.4,0,2.5,0.9,2.5,2V38.2L42.8,38.2z" /><linearGradient
   id="path186_1_"
   gradientUnits="userSpaceOnUse"
   x1="-558.2593"
   y1="123.834"
   x2="-341.0797"
   y2="123.834"
   gradientTransform="matrix(0.1875 0 0 0.1875 105.6738 -0.4688)"><stop
   offset="0"
   style="stop-color:#EFEDF5"
   id="stop635" /><stop
   offset="1"
   style="stop-color:#99ACD2"
   id="stop636" /><a:midPointStop
   offset="0"
   style="stop-color:#EFEDF5"
   id="midPointStop637" /><a:midPointStop
   offset="0.5"
   style="stop-color:#EFEDF5"
   id="midPointStop638" /><a:midPointStop
   offset="1"
   style="stop-color:#99ACD2"
   id="midPointStop639" /></linearGradient><path
   id="path186"
   fill="url(#path186_1_)"
   d="M2.5,6C1.7,6,1,6.5,1,7.2v31.1c0,0.7,0.7,1.2,1.5,1.2h37.8c0.8,0,1.5-0.5,1.5-1.2      V7.2c0-0.7-0.7-1.2-1.5-1.2H2.5L2.5,6z" /><path
   id="path187"
   i:isolated="yes"
   i:knockout="Off"
   opacity="0.64"
   fill="#FFFFFF"
   enable-background="new    "
   d="M3.1,25.4      c1.4,0.1,2.8,0.2,4.2,0.2c16.8,0,30.3-7.5,30.3-16.8c0-0.4,0-0.7-0.1-1.1c-7.7,0-33.4,0-34.5,0C3.1,8.2,3.1,17.4,3.1,25.4z" /></g></g><g
   id="Layer_x5F_3"
   i:knockout="Off"
   i:layer="yes"
   i:dimmedPercent="3"
   i:rgbTrio="#4F00FFFF4F00"><g
   id="g643"><path
   id="path157"
   i:isolated="yes"
   i:knockout="Off"
   opacity="0.2"
   enable-background="new    "
   d="M34.6,39.9      c0,0.4-0.3,0.6-0.6,0.6H1.7c-0.3,0-0.6-0.3-0.6-0.6v-32c0-0.4,0.3-0.6,0.6-0.6H34c0.3,0,0.6,0.3,0.6,0.6V39.9z" /><linearGradient
   id="path164_1_"
   gradientUnits="userSpaceOnUse"
   x1="-847.4829"
   y1="295.8213"
   x2="-668.9204"
   y2="295.8213"
   gradientTransform="matrix(0.1875 0 0 -0.1875 158.9033 78.0996)"><stop
   offset="0"
   style="stop-color:#999999"
   id="stop646" /><stop
   offset="1"
   style="stop-color:#666666"
   id="stop647" /><a:midPointStop
   offset="0"
   style="stop-color:#999999"
   id="midPointStop648" /><a:midPointStop
   offset="0.5"
   style="stop-color:#999999"
   id="midPointStop649" /><a:midPointStop
   offset="1"
   style="stop-color:#666666"
   id="midPointStop650" /></linearGradient><path
   id="path164"
   fill="url(#path164_1_)"
   d="M33.5,38.6c0,0.4-0.3,0.6-0.6,0.6H0.6C0.3,39.3,0,39,0,38.6v-32      C0,6.3,0.3,6,0.6,6h32.3c0.3,0,0.6,0.3,0.6,0.6V38.6z" /><linearGradient
   id="path171_2_"
   gradientUnits="userSpaceOnUse"
   x1="-844.7432"
   y1="377.6865"
   x2="-671.2751"
   y2="213.976"
   gradientTransform="matrix(0.1875 0 0 -0.1875 158.9033 78.0996)"><stop
   offset="0"
   style="stop-color:#FFFFFF"
   id="stop653" /><stop
   offset="1"
   style="stop-color:#D4CCBF"
   id="stop654" /><a:midPointStop
   offset="0"
   style="stop-color:#FFFFFF"
   id="midPointStop655" /><a:midPointStop
   offset="0.5"
   style="stop-color:#FFFFFF"
   id="midPointStop656" /><a:midPointStop
   offset="1"
   style="stop-color:#D4CCBF"
   id="midPointStop657" /></linearGradient><path
   id="path171_1_"
   fill="url(#path171_2_)"
   d="M0.7,6.8c0,0.3,0,31.3,0,31.6c0.3,0,31.8,0,32,0c0-0.3,0-31.3,0-31.6      C32.5,6.8,1,6.8,0.7,6.8z" /><linearGradient
   id="path178_1_"
   gradientUnits="userSpaceOnUse"
   x1="-739.3037"
   y1="278.2012"
   x2="-852.397"
   y2="388.5881"
   gradientTransform="matrix(0.1875 0 0 -0.1875 158.9033 78.0996)"><stop
   offset="0"
   style="stop-color:#FFFFFF"
   id="stop660" /><stop
   offset="1"
   style="stop-color:#666666"
   id="stop661" /><a:midPointStop
   offset="0"
   style="stop-color:#FFFFFF"
   id="midPointStop662" /><a:midPointStop
   offset="0.5"
   style="stop-color:#FFFFFF"
   id="midPointStop663" /><a:midPointStop
   offset="1"
   style="stop-color:#666666"
   id="midPointStop664" /></linearGradient><path
   id="path178"
   fill="url(#path178_1_)"
   d="M29.2,33c0,0.4-0.3,0.6-0.6,0.6H4c-0.3,0-0.6-0.3-0.6-0.6V11      c0-0.4,0.3-0.6,0.6-0.6h24.6c0.3,0,0.6,0.3,0.6,0.6V33z" /><path
   id="path179_1_"
   fill="#FFFFFF"
   d="M30.2,34.2c0,0.4-0.3,0.6-0.6,0.6L4.3,34.4C4,34.4,4,34,4,33.6l0.4-21.5      c0-0.4,0.3-0.6,0.6-0.6L28.4,11c0.3,0,1.2,0.1,1.2,0.4L30.2,34.2z" /><path
   id="path180"
   fill="#003366"
   d="M29.6,33.5c0,0.4-0.3,0.6-0.6,0.6H4.4c-0.3,0-0.6-0.3-0.6-0.6v-22c0-0.4,0.3-0.6,0.6-0.6      H29c0.3,0,0.6,0.3,0.6,0.6V33.5z" /><path
   id="path181"
   fill="#3399FF"
   d="M4.5,11.7c0,0.3,0,21.3,0,21.6c0.3,0,24,0,24.3,0c0-0.3,0-21.3,0-21.6      C28.6,11.7,4.8,11.7,4.5,11.7z" /><linearGradient
   id="path188_1_"
   gradientUnits="userSpaceOnUse"
   x1="-810.123"
   y1="369.0195"
   x2="-730.3334"
   y2="283.9463"
   gradientTransform="matrix(0.1875 0 0 -0.1875 158.9033 78.0996)"><stop
   offset="0"
   style="stop-color:#FFFFFF"
   id="stop670" /><stop
   offset="1"
   style="stop-color:#3399FF"
   id="stop671" /><a:midPointStop
   offset="0"
   style="stop-color:#FFFFFF"
   id="midPointStop672" /><a:midPointStop
   offset="0.5"
   style="stop-color:#FFFFFF"
   id="midPointStop673" /><a:midPointStop
   offset="1"
   style="stop-color:#3399FF"
   id="midPointStop674" /></linearGradient><path
   id="path188"
   fill="url(#path188_1_)"
   d="M23.8,19.8c2.4-1.9,3.7-4.4,5.1-7c0-0.7,0-1.1,0-1.2c-0.3,0-24,0-24.3,0      c0,0.2,0,8.9,0,15.1c1.5-1.4,3.3-2.5,5.2-3.2C14.4,22,19.4,23.3,23.8,19.8z" /><g
   id="g189"
   i:knockout="Off"><path
   id="path190"
   d="M6.9,31.5c-0.6-0.1-1.1-0.2-1.5-0.6l0.4-1.2c0.5,0.4,1,0.6,1.4,0.6c0.7,0,1.1-0.3,1.1-0.9       c0-0.3-0.1-0.6-0.3-0.8c-0.2-0.2-0.6-0.5-1.1-0.8c-0.5-0.3-0.9-0.6-1.1-0.7c-0.2-0.2-0.4-0.4-0.4-0.7s-0.1-0.6-0.1-0.9       c0-0.5,0.1-0.9,0.4-1.3s0.6-0.6,1.1-0.7v-1h1.1v0.9c0.6,0.1,1,0.2,1.3,0.5l-0.4,1.2c-0.4-0.4-0.9-0.5-1.4-0.5       c-0.3,0-0.5,0.1-0.6,0.3c-0.1,0.1-0.2,0.4-0.2,0.6c0,0.4,0.4,0.9,1.3,1.4c0.4,0.3,0.8,0.5,1,0.7c0.2,0.2,0.4,0.5,0.5,0.8       c0.1,0.3,0.1,0.6,0.1,0.9c0,0.5-0.1,0.9-0.4,1.3c-0.3,0.4-0.7,0.6-1.2,0.8v1.2h-1V31.5L6.9,31.5z" /><polygon
   id="path191"
   points="11.7,30.5 11.7,29.3 14.2,28 11.7,26.7 11.7,25.4 15.5,27.5 15.5,28.4 " /></g><g
   id="g192"
   i:knockout="Off"><path
   id="path193"
   fill="#FFFFFF"
   d="M6.6,31.2C6,31.1,5.5,31,5.1,30.6l0.4-1.2C6,29.8,6.6,30,7,30c0.7,0,1.1-0.3,1.1-0.9       c0-0.3-0.1-0.6-0.3-0.8s-0.6-0.5-1.1-0.8c-0.5-0.3-0.9-0.6-1.1-0.7c-0.2-0.2-0.4-0.4-0.4-0.7S5,25.5,5,25.2       c0-0.5,0.1-0.9,0.4-1.3s0.6-0.6,1.1-0.7v-1h1.1v0.9c0.6,0.1,1,0.2,1.3,0.5l-0.3,1.2c-0.4-0.4-0.9-0.5-1.4-0.5       c-0.3,0-0.5,0.1-0.6,0.3c-0.1,0.2-0.2,0.4-0.2,0.6c0,0.4,0.4,0.9,1.3,1.4c0.4,0.3,0.8,0.5,1,0.7c0.2,0.2,0.4,0.5,0.5,0.8       c0.1,0.3,0.1,0.6,0.1,0.9c0,0.5-0.1,0.9-0.4,1.3S8.2,31,7.7,31.1v1.2H6.6V31.2L6.6,31.2z" /><polygon
   id="path194"
   fill="#FFFFFF"
   points="11.4,30.1 11.4,28.9 13.9,27.6 11.4,26.3 11.4,25.1 15.2,27.2 15.2,28 " /></g></g></g><g
   id="Layer_x5F_4"
   i:knockout="Off"
   i:layer="yes"
   i:dimmedPercent="3"
   i:rgbTrio="#4F00FFFF4F00"><rect
   id="path241"
   i:knockout="Off"
   fill="none"
   width="48"
   height="48" /></g></svg>
