<?xml version="1.0" encoding="UTF-8" standalone="no"?>
<!DOCTYPE svg PUBLIC "-//W3C//DTD SVG 20010904//EN"
"http://www.w3.org/TR/2001/REC-SVG-20010904/DTD/svg10.dtd">
<!-- Created with Sodipodi ("http://www.sodipodi.com/") -->
<svg
   xmlns:x="http://ns.adobe.com/Extensibility/1.0/"
   xmlns:i="http://ns.adobe.com/AdobeIllustrator/10.0/"
   xmlns:graph="http://ns.adobe.com/Graphs/1.0/"
   xmlns="http://www.w3.org/2000/svg"
   xmlns:xlink="http://www.w3.org/1999/xlink"
   xmlns:a="http://ns.adobe.com/AdobeSVGViewerExtensions/3.0/"
   xml:space="preserve"
   i:viewOrigin="282.9219 419.0313"
   i:rulerOrigin="0 0"
   i:pageBounds="0 792 612 0"
   width="48"
   height="48"
   viewBox="0 0 48 48"
   overflow="visible"
   enable-background="new 0 0 48 48"
   xmlns:sodipodi="http://sodipodi.sourceforge.net/DTD/sodipodi-0.dtd"
   id="svg602"
   sodipodi:version="0.34"
   sodipodi:docname="C:\msys\home\su_blanc\mldonkey-2.5.12\src\gtk2\rsvg\mime_java.svg"><defs
   id="defs680" /><sodipodi:namedview
   id="namedview679" /><g
   id="Layer_x5F_1"
   i:knockout="Off"
   i:layer="yes"
   i:dimmedPercent="3"
   i:rgbTrio="#4F008000FFFF"><g
   id="g620"
   i:knockout="Off"><path
   id="path155"
   i:isolated="yes"
   i:knockout="Off"
   opacity="0.2"
   enable-background="new    "
   d="M10.1,1.6      c-1.8,0-3.3,1.5-3.3,3.3v39.4c0,1.8,1.5,3.3,3.3,3.3h34.6c1.8,0,3.3-1.5,3.3-3.3V4.9c0-1.8-1.5-3.3-3.3-3.3H10.1z" /><linearGradient
   id="path162_1_"
   gradientUnits="userSpaceOnUse"
   x1="-1385.9985"
   y1="291.7295"
   x2="-1165.4985"
   y2="291.7295"
   gradientTransform="matrix(0.1875 0 0 -0.1875 264.8174 78.0996)"><stop
   offset="0"
   style="stop-color:#A7ABAC"
   id="stop609" /><stop
   offset="1"
   style="stop-color:#85898A"
   id="stop610" /><a:midPointStop
   offset="0"
   style="stop-color:#A7ABAC"
   id="midPointStop611" /><a:midPointStop
   offset="0.5"
   style="stop-color:#A7ABAC"
   id="midPointStop612" /><a:midPointStop
   offset="1"
   style="stop-color:#85898A"
   id="midPointStop613" /></linearGradient><path
   id="path162"
   fill="url(#path162_1_)"
   d="M8.3,0.4C6.5,0.4,5,1.9,5,3.7v39.4c0,1.8,1.5,3.3,3.3,3.3H43      c1.8,0,3.3-1.5,3.3-3.3V3.7c0-1.8-1.5-3.3-3.3-3.3H8.3z" /><path
   id="path163"
   fill="#99CCFF"
   d="M5.9,43.1c0,1.3,1.1,2.4,2.4,2.4H43c1.3,0,2.4-1.1,2.4-2.4V3.7c0-1.3-1.1-2.4-2.4-2.4H8.3      C7,1.3,5.9,2.4,5.9,3.7V43.1z" /><linearGradient
   id="path170_1_"
   gradientUnits="userSpaceOnUse"
   x1="-1321.3008"
   y1="337.4727"
   x2="-1072.4517"
   y2="88.6235"
   gradientTransform="matrix(0.1875 0 0 -0.1875 264.8174 78.0996)"><stop
   offset="0"
   style="stop-color:#FFFFFF"
   id="stop617" /><stop
   offset="1"
   style="stop-color:#99CCFF"
   id="stop618" /><a:midPointStop
   offset="0"
   style="stop-color:#FFFFFF"
   id="midPointStop619" /><a:midPointStop
   offset="0.5"
   style="stop-color:#FFFFFF"
   id="midPointStop620" /><a:midPointStop
   offset="1"
   style="stop-color:#99CCFF"
   id="midPointStop621" /></linearGradient><path
   id="path170"
   fill="url(#path170_1_)"
   d="M8.3,2.3C7.5,2.3,6.9,3,6.9,3.7v39.4c0,0.8,0.6,1.4,1.4,1.4H43      c0.8,0,1.4-0.6,1.4-1.4V3.7c0-0.8-0.6-1.4-1.4-1.4H8.3z" /><path
   id="path171"
   i:isolated="yes"
   i:knockout="Off"
   opacity="0.4"
   fill="#FFFFFF"
   enable-background="new    "
   d="M32.5,19.1      c3.7-3.4,8.1-5.1,12.8-6V3.7c0-1.3-1.1-2.4-2.4-2.4H8.3C7,1.3,5.9,2.4,5.9,3.7v28.2C15.7,32.7,24.9,25.9,32.5,19.1z" /></g></g><g
   id="Layer_x5F_2"
   i:knockout="Off"
   i:layer="yes"
   i:dimmedPercent="3"
   i:rgbTrio="#4F004F00FFFF"><g
   id="g625"
   i:knockout="Off"><path
   id="path172"
   i:isolated="yes"
   i:knockout="Off"
   opacity="0.3"
   fill="#999999"
   enable-background="new    "
   d="M3.9,5.7      c-1.7,0-3.1,1.1-3.1,2.5v31.1c0,1.4,1.4,2.5,3.1,2.5h37.8c1.7,0,3.1-1.1,3.1-2.5v-31c0-1.4-1.4-2.5-3.1-2.5L3.9,5.7L3.9,5.7z" /><linearGradient
   id="path179_1_"
   gradientUnits="userSpaceOnUse"
   x1="-449.4609"
   y1="232.6357"
   x2="-449.4609"
   y2="25.1573"
   gradientTransform="matrix(0.1875 0 0 0.1875 105.6738 -0.4688)"><stop
   offset="0"
   style="stop-color:#6A5B97"
   id="stop628" /><stop
   offset="1"
   style="stop-color:#6D7BB0"
   id="stop629" /><a:midPointStop
   offset="0"
   style="stop-color:#6A5B97"
   id="midPointStop630" /><a:midPointStop
   offset="0.5"
   style="stop-color:#6A5B97"
   id="midPointStop631" /><a:midPointStop
   offset="1"
   style="stop-color:#6D7BB0"
   id="midPointStop632" /></linearGradient><path
   id="path179"
   fill="url(#path179_1_)"
   d="M42.8,38.2c0,1.1-1.1,2-2.5,2H2.5c-1.4,0-2.5-0.9-2.5-2v-31c0-1.1,1.1-2,2.5-2      h37.8c1.4,0,2.5,0.9,2.5,2V38.2L42.8,38.2z" /><linearGradient
   id="path186_1_"
   gradientUnits="userSpaceOnUse"
   x1="-558.2593"
   y1="123.834"
   x2="-341.0797"
   y2="123.834"
   gradientTransform="matrix(0.1875 0 0 0.1875 105.6738 -0.4688)"><stop
   offset="0"
   style="stop-color:#EFEDF5"
   id="stop635" /><stop
   offset="1"
   style="stop-color:#99ACD2"
   id="stop636" /><a:midPointStop
   offset="0"
   style="stop-color:#EFEDF5"
   id="midPointStop637" /><a:midPointStop
   offset="0.5"
   style="stop-color:#EFEDF5"
   id="midPointStop638" /><a:midPointStop
   offset="1"
   style="stop-color:#99ACD2"
   id="midPointStop639" /></linearGradient><path
   id="path186"
   fill="url(#path186_1_)"
   d="M2.5,6C1.7,6,1,6.5,1,7.2v31.1c0,0.7,0.7,1.2,1.5,1.2h37.8c0.8,0,1.5-0.5,1.5-1.2      V7.2c0-0.7-0.7-1.2-1.5-1.2H2.5L2.5,6z" /><path
   id="path187"
   i:isolated="yes"
   i:knockout="Off"
   opacity="0.64"
   fill="#FFFFFF"
   enable-background="new    "
   d="M3.1,25.4      c1.4,0.1,2.8,0.2,4.2,0.2c16.8,0,30.3-7.5,30.3-16.8c0-0.4,0-0.7-0.1-1.1c-7.7,0-33.4,0-34.5,0C3.1,8.2,3.1,17.4,3.1,25.4z" /></g></g><g
   id="Layer_x5F_3"
   i:knockout="Off"
   i:layer="yes"
   i:dimmedPercent="3"
   i:rgbTrio="#4F00FFFF4F00"><g
   id="g643"><path
   d="M0,24.3l0,0.4c0,2.9,0,9,4,13.1c2.6,2.6,6.5,4,11.6,4c5.4,0,9.5-1.7,12.2-5.1c2.3-0.4,10.4-2.1,10.4-8.2      c0-0.8-0.2-1.7-0.4-2.5l-0.1-0.3l-0.2-0.2c-1-1-4.3-1.6-6.2-1.8c-0.6-4.7-7.2-8.3-15.5-8.3C6.9,15.2,0,19.2,0,24.3L0,24.3z       M30.6,30.2c0.2,0,0.4,0,0.7,0c-0.2,0.1-0.5,0.2-0.7,0.3C30.6,30.5,30.6,30.3,30.6,30.2L30.6,30.2z"
   id="path644" /><linearGradient
   id="XMLID_1_"
   gradientUnits="userSpaceOnUse"
   x1="-158.4038"
   y1="289.2725"
   x2="-175.8485"
   y2="300.5745"
   gradientTransform="matrix(1 0 0 -1 183.2031 323.2891)"><stop
   offset="0"
   style="stop-color:#959595"
   id="stop646" /><stop
   offset="1"
   style="stop-color:#FFFFFF"
   id="stop647" /><a:midPointStop
   offset="0"
   style="stop-color:#959595"
   id="midPointStop648" /><a:midPointStop
   offset="0.5"
   style="stop-color:#959595"
   id="midPointStop649" /><a:midPointStop
   offset="1"
   style="stop-color:#FFFFFF"
   id="midPointStop650" /></linearGradient><path
   fill="url(#XMLID_1_)"
   d="M29.4,24c0,4.2-0.2,16-14.1,16C0.7,40.1,1.2,28.3,1.2,24c0-4.2,6.3-7.6,14.1-7.6      S29.4,19.8,29.4,24z"
   id="path651" /><linearGradient
   id="XMLID_2_"
   gradientUnits="userSpaceOnUse"
   x1="-179.8413"
   y1="299.248"
   x2="-156.2266"
   y2="299.248"
   gradientTransform="matrix(1 0 0 -1 183.2031 323.2891)"><stop
   offset="0"
   style="stop-color:#959595"
   id="stop653" /><stop
   offset="1"
   style="stop-color:#FFFFFF"
   id="stop654" /><a:midPointStop
   offset="0"
   style="stop-color:#959595"
   id="midPointStop655" /><a:midPointStop
   offset="0.5"
   style="stop-color:#959595"
   id="midPointStop656" /><a:midPointStop
   offset="1"
   style="stop-color:#FFFFFF"
   id="midPointStop657" /></linearGradient><ellipse
   fill="url(#XMLID_2_)"
   cx="15.2"
   cy="24"
   rx="11.8"
   ry="6.4"
   id="ellipse658" /><radialGradient
   id="XMLID_3_"
   cx="-171.4624"
   cy="302.4443"
   r="7.3064"
   fx="-171.4624"
   fy="302.4443"
   gradientTransform="matrix(1 0 0 -1 183.2031 323.2891)"
   gradientUnits="userSpaceOnUse"><stop
   offset="0"
   style="stop-color:#787816"
   id="stop660" /><stop
   offset="1"
   style="stop-color:#000000"
   id="stop661" /><a:midPointStop
   offset="0"
   style="stop-color:#787816"
   id="midPointStop662" /><a:midPointStop
   offset="0.5"
   style="stop-color:#787816"
   id="midPointStop663" /><a:midPointStop
   offset="1"
   style="stop-color:#000000"
   id="midPointStop664" /></radialGradient><ellipse
   fill="url(#XMLID_3_)"
   cx="15.2"
   cy="25.3"
   rx="11.1"
   ry="4.9"
   id="ellipse665" /><linearGradient
   id="XMLID_4_"
   gradientUnits="userSpaceOnUse"
   x1="-155.7344"
   y1="289.5127"
   x2="-148.0658"
   y2="298.7152"
   gradientTransform="matrix(1 0 0 -1 183.2031 323.2891)"><stop
   offset="0"
   style="stop-color:#959595"
   id="stop667" /><stop
   offset="1"
   style="stop-color:#FFFFFF"
   id="stop668" /><a:midPointStop
   offset="0"
   style="stop-color:#959595"
   id="midPointStop669" /><a:midPointStop
   offset="0.5"
   style="stop-color:#959595"
   id="midPointStop670" /><a:midPointStop
   offset="1"
   style="stop-color:#FFFFFF"
   id="midPointStop671" /></linearGradient><path
   fill="url(#XMLID_4_)"
   d="M29.4,24.6c0,0,5.7,0.7,6.6,1.6c2.6,7.5-9.3,8.9-9.3,8.9l1.4-2.6c0,0,7.3-1.7,5.3-3.7      c-0.2-0.2-4.3-0.3-4.3-0.3C28.6,27.9,29,25,29.4,24.6L29.4,24.6z"
   id="path672" /><path
   i:isolated="yes"
   i:knockout="Off"
   opacity="0.48"
   fill="#FFFFFF"
   enable-background="new    "
   d="M29.6,27.5      c0,0,4.6,0.5,4.9,0.8c0.7,0.7-0.2,2-0.2,2s1.9-1.7,0.8-2.8C34.5,26.9,29.6,27.5,29.6,27.5L29.6,27.5z"
   id="path673" /><path
   i:isolated="yes"
   i:knockout="Off"
   opacity="0.58"
   fill="#FFFFFF"
   enable-background="new    "
   d="M16.1,4.3      c0,3.6-9.3,5.2-9.3,7.9c0,2.7,12.6,1.8,12.6,3.5c0,1.7-5.7,3.3-5.7,7.7c0-3.8,12.6-4.7,12.6-7.6s-13.1-1.7-13.1-4.1      C13.2,9.3,16.1,7.6,16.1,4.3z"
   id="path674" /><path
   i:isolated="yes"
   i:knockout="Off"
   opacity="0.74"
   fill="#FFFFFF"
   enable-background="new    "
   d="M28.3,34.2      c1.8-0.3,4.5-1.5,6-2.7C33.7,32.9,29.5,34.2,28.3,34.2z"
   id="path675" /><path
   i:isolated="yes"
   i:knockout="Off"
   opacity="0.74"
   fill="#FFFFFF"
   enable-background="new    "
   d="M1.9,26.3      c0.7,2,2.8,3.8,5.7,5c0.9,0.4,0,7.2,5.1,8.1c-1.3-3-0.5-6.9,0.4-6.8c4.2,0.4,8.9-0.5,12.8-3.4C17.2,34.2,4.7,31.4,1.9,26.3      L1.9,26.3z"
   id="path676" /></g></g><g
   id="Layer_x5F_4"
   i:knockout="Off"
   i:layer="yes"
   i:dimmedPercent="3"
   i:rgbTrio="#4F00FFFF4F00"><rect
   id="path241"
   i:knockout="Off"
   fill="none"
   width="48"
   height="48" /></g></svg>
