<?xml version="1.0" encoding="UTF-8" standalone="no"?>
<!DOCTYPE svg PUBLIC "-//W3C//DTD SVG 20010904//EN"
"http://www.w3.org/TR/2001/REC-SVG-20010904/DTD/svg10.dtd">
<!-- Created with Sodipodi ("http://www.sodipodi.com/") -->
<svg
   xmlns:x="http://ns.adobe.com/Extensibility/1.0/"
   xmlns:i="http://ns.adobe.com/AdobeIllustrator/10.0/"
   xmlns:graph="http://ns.adobe.com/Graphs/1.0/"
   xmlns="http://www.w3.org/2000/svg"
   xmlns:xlink="http://www.w3.org/1999/xlink"
   xmlns:a="http://ns.adobe.com/AdobeSVGViewerExtensions/3.0/"
   xml:space="preserve"
   i:viewOrigin="282.9219 419.0313"
   i:rulerOrigin="0 0"
   i:pageBounds="0 792 612 0"
   width="48"
   height="48"
   viewBox="0 0 48 48"
   overflow="visible"
   enable-background="new 0 0 48 48"
   xmlns:sodipodi="http://sodipodi.sourceforge.net/DTD/sodipodi-0.dtd"
   id="svg602"
   sodipodi:version="0.34"
   sodipodi:docname="C:\msys\home\su_blanc\mldonkey-2.5.12\src\gtk2\rsvg\mime_video.svg"><defs
   id="defs702" /><sodipodi:namedview
   id="base" /><g
   id="Layer_x5F_1"
   i:knockout="Off"
   i:layer="yes"
   i:dimmedPercent="3"
   i:rgbTrio="#4F008000FFFF"><g
   id="g620"
   i:knockout="Off"><path
   id="path155"
   i:isolated="yes"
   i:knockout="Off"
   opacity="0.2"
   enable-background="new    "
   d="M10.1,1.6      c-1.8,0-3.3,1.5-3.3,3.3v39.4c0,1.8,1.5,3.3,3.3,3.3h34.6c1.8,0,3.3-1.5,3.3-3.3V4.9c0-1.8-1.5-3.3-3.3-3.3H10.1z" /><linearGradient
   id="path162_1_"
   gradientUnits="userSpaceOnUse"
   x1="-1668.9204"
   y1="127.3018"
   x2="-1448.4204"
   y2="127.3018"
   gradientTransform="matrix(0.1875 0 0 0.1875 317.8652 -0.4688)"><stop
   offset="0"
   style="stop-color:#A7ABAC"
   id="stop609" /><stop
   offset="1"
   style="stop-color:#85898A"
   id="stop610" /><a:midPointStop
   offset="0"
   style="stop-color:#A7ABAC"
   id="midPointStop611" /><a:midPointStop
   offset="0.5"
   style="stop-color:#A7ABAC"
   id="midPointStop612" /><a:midPointStop
   offset="1"
   style="stop-color:#85898A"
   id="midPointStop613" /></linearGradient><path
   id="path162"
   fill="url(#path162_1_)"
   d="M8.3,0.4C6.5,0.4,5,1.9,5,3.7v39.4c0,1.8,1.5,3.3,3.3,3.3H43      c1.8,0,3.3-1.5,3.3-3.3V3.7c0-1.8-1.5-3.3-3.3-3.3H8.3z" /><path
   id="path163"
   fill="#99CCFF"
   d="M5.9,43.1c0,1.3,1.1,2.4,2.4,2.4H43c1.3,0,2.4-1.1,2.4-2.4V3.7c0-1.3-1.1-2.4-2.4-2.4H8.3      C7,1.3,5.9,2.4,5.9,3.7V43.1z" /><linearGradient
   id="path170_1_"
   gradientUnits="userSpaceOnUse"
   x1="-1604.2227"
   y1="81.5586"
   x2="-1355.3735"
   y2="330.4078"
   gradientTransform="matrix(0.1875 0 0 0.1875 317.8652 -0.4688)"><stop
   offset="0"
   style="stop-color:#FFFFFF"
   id="stop617" /><stop
   offset="1"
   style="stop-color:#99CCFF"
   id="stop618" /><a:midPointStop
   offset="0"
   style="stop-color:#FFFFFF"
   id="midPointStop619" /><a:midPointStop
   offset="0.5"
   style="stop-color:#FFFFFF"
   id="midPointStop620" /><a:midPointStop
   offset="1"
   style="stop-color:#99CCFF"
   id="midPointStop621" /></linearGradient><path
   id="path170"
   fill="url(#path170_1_)"
   d="M8.3,2.3C7.5,2.3,6.9,3,6.9,3.7v39.4c0,0.8,0.6,1.4,1.4,1.4H43      c0.8,0,1.4-0.6,1.4-1.4V3.7c0-0.8-0.6-1.4-1.4-1.4H8.3z" /><path
   id="path171"
   i:isolated="yes"
   i:knockout="Off"
   opacity="0.4"
   fill="#FFFFFF"
   enable-background="new    "
   d="M32.5,19.1      c3.7-3.4,8.1-5.1,12.8-6V3.7c0-1.3-1.1-2.4-2.4-2.4H8.3C7,1.3,5.9,2.4,5.9,3.7v28.2C15.7,32.7,24.9,25.9,32.5,19.1z" /></g></g><g
   id="Layer_x5F_2"
   i:knockout="Off"
   i:layer="yes"
   i:dimmedPercent="3"
   i:rgbTrio="#4F004F00FFFF"><g
   id="g625"
   i:knockout="Off"><path
   id="path172"
   i:isolated="yes"
   i:knockout="Off"
   opacity="0.3"
   fill="#999999"
   enable-background="new    "
   d="M3.9,5.7      c-1.7,0-3.1,1.1-3.1,2.5v31.1c0,1.4,1.4,2.5,3.1,2.5h37.8c1.7,0,3.1-1.1,3.1-2.5v-31c0-1.4-1.4-2.5-3.1-2.5L3.9,5.7L3.9,5.7z" /><linearGradient
   id="path179_1_"
   gradientUnits="userSpaceOnUse"
   x1="-732.3838"
   y1="186.3955"
   x2="-732.3838"
   y2="393.8739"
   gradientTransform="matrix(0.1875 0 0 -0.1875 158.7217 78.0996)"><stop
   offset="0"
   style="stop-color:#6A5B97"
   id="stop628" /><stop
   offset="1"
   style="stop-color:#6D7BB0"
   id="stop629" /><a:midPointStop
   offset="0"
   style="stop-color:#6A5B97"
   id="midPointStop630" /><a:midPointStop
   offset="0.5"
   style="stop-color:#6A5B97"
   id="midPointStop631" /><a:midPointStop
   offset="1"
   style="stop-color:#6D7BB0"
   id="midPointStop632" /></linearGradient><path
   id="path179"
   fill="url(#path179_1_)"
   d="M42.8,38.2c0,1.1-1.1,2-2.5,2H2.5c-1.4,0-2.5-0.9-2.5-2v-31c0-1.1,1.1-2,2.5-2      h37.8c1.4,0,2.5,0.9,2.5,2V38.2L42.8,38.2z" /><linearGradient
   id="path186_1_"
   gradientUnits="userSpaceOnUse"
   x1="-841.1812"
   y1="295.1973"
   x2="-624.0016"
   y2="295.1973"
   gradientTransform="matrix(0.1875 0 0 -0.1875 158.7217 78.0996)"><stop
   offset="0"
   style="stop-color:#EFEDF5"
   id="stop635" /><stop
   offset="1"
   style="stop-color:#99ACD2"
   id="stop636" /><a:midPointStop
   offset="0"
   style="stop-color:#EFEDF5"
   id="midPointStop637" /><a:midPointStop
   offset="0.5"
   style="stop-color:#EFEDF5"
   id="midPointStop638" /><a:midPointStop
   offset="1"
   style="stop-color:#99ACD2"
   id="midPointStop639" /></linearGradient><path
   id="path186"
   fill="url(#path186_1_)"
   d="M2.5,6C1.7,6,1,6.5,1,7.2v31.1c0,0.7,0.7,1.2,1.5,1.2h37.8c0.8,0,1.5-0.5,1.5-1.2      V7.2c0-0.7-0.7-1.2-1.5-1.2H2.5L2.5,6z" /><path
   id="path187"
   i:isolated="yes"
   i:knockout="Off"
   opacity="0.64"
   fill="#FFFFFF"
   enable-background="new    "
   d="M3.1,25.4      c1.4,0.1,2.8,0.2,4.2,0.2c16.8,0,30.3-7.5,30.3-16.8c0-0.4,0-0.7-0.1-1.1c-7.7,0-33.4,0-34.5,0C3.1,8.2,3.1,17.4,3.1,25.4z" /></g></g><g
   id="Layer_x5F_3"
   i:knockout="Off"
   i:layer="yes"
   i:dimmedPercent="3"
   i:rgbTrio="#4F00FFFF4F00"><g
   id="g607"
   i:knockout="Off"><path
   id="path608"
   fill="#5B0000"
   d="M10.7,29.2c1.3,4.6,7.2,5.3,12.1,5.8c2.2,0.2,5,0.5,5.8,1.3c1.9,1.9-0.2,5.9-0.2,5.9      l-1.9,3.3l3.5-1.2c3-1.1,11.6-3.3,15-0.8l2.4,1.8l-0.2-3c-0.4-5-1.7-8.5-4.1-10.5c-3.4-2.8-8.2-2.4-13.3-1.9      c-5.4,0.5-11.6,1.2-16.9-2.2l-3.2-2.1l0.9,3.5L10.7,29.2z" /><path
   id="path609"
   d="M15.2,4.4C11.9,5.2,8.6,7.2,6,9.9c-2.6,2.7-4.6,6-5.5,9.2C0.2,20.5,0,21.7,0,23s0.2,2.5,0.5,3.8      c0.7,2.3,2,4.3,3.9,5.7c2.1,2.9,5.5,4.5,9.5,4.5c4.7,0,9.7-2.1,13.3-5.9c3.8-3.8,5.9-8.6,5.9-13.3c0-3.9-1.6-7.1-4.3-9.2      c-1.4-1.9-3.4-3.4-5.8-4.1c-2.4-0.7-5.1-0.7-7.9,0L15.2,4.4L15.2,4.4z" /><linearGradient
   id="XMLID_1_"
   gradientUnits="userSpaceOnUse"
   x1="-491.186"
   y1="8.0352"
   x2="-485.1305"
   y2="14.9909"
   gradientTransform="matrix(1 0 0 1 510.8125 15.9443)"><stop
   offset="0"
   style="stop-color:#000095"
   id="stop647" /><stop
   offset="1"
   style="stop-color:#28284E"
   id="stop648" /><a:midPointStop
   offset="0"
   style="stop-color:#000095"
   id="midPointStop649" /><a:midPointStop
   offset="0.5"
   style="stop-color:#000095"
   id="midPointStop650" /><a:midPointStop
   offset="1"
   style="stop-color:#28284E"
   id="midPointStop651" /></linearGradient><path
   fill="url(#XMLID_1_)"
   d="M17.5,8.1C11.3,9.8,5.6,15.4,4,21.6C2.2,28.6,5.9,35,13.5,35c9,0,17.5-8.5,17.5-17.5      C31,9.9,24.5,6.2,17.5,8.1z M13.6,25.7c-0.4,2.5-2.6,4.6-4.8,4.7c-2.1,0.1-3.3-1.8-2.7-4.1c0.5-2.2,2.4-4.2,4.4-4.4      C12.6,21.6,14,23.3,13.6,25.7L13.6,25.7z M15.1,15c-0.3,2-2.3,4-4.3,4.3c-1.9,0.3-3-1-2.6-2.9c0.4-1.8,2.2-3.6,4-4      C14.1,12,15.5,13.1,15.1,15z M25.7,24.6c-0.1,2.7-2.6,5.3-5.4,5.4c-2.6,0.1-4.4-1.9-4-4.5c0.3-2.4,2.5-4.6,4.9-4.9      C23.7,20.3,25.8,22,25.7,24.6L25.7,24.6z M26.3,12.8c-0.1,2.2-2.3,4.4-4.8,4.8c-2.4,0.4-4-1-3.7-3c0.3-2,2.2-3.9,4.4-4.4      c2.3-0.5,4.2,0.6,4.1,2.7V12.8z"
   id="path652" /><radialGradient
   id="path623_1_"
   cx="-496.6597"
   cy="0.9312"
   r="11.4246"
   fx="-496.6597"
   fy="0.9312"
   gradientTransform="matrix(1 0 0 1 510.8125 15.9443)"
   gradientUnits="userSpaceOnUse"><stop
   offset="0"
   style="stop-color:#000045"
   id="stop654" /><stop
   offset="1"
   style="stop-color:#000033"
   id="stop655" /><a:midPointStop
   offset="0"
   style="stop-color:#000045"
   id="midPointStop656" /><a:midPointStop
   offset="0.5"
   style="stop-color:#000045"
   id="midPointStop657" /><a:midPointStop
   offset="1"
   style="stop-color:#000033"
   id="midPointStop658" /></radialGradient><path
   id="path623"
   fill="url(#path623_1_)"
   d="M25.2,18.3c0,5.6-5.4,10.9-11,10.9c-4.7,0-7-4-5.9-8.4c1-3.9,4.5-7.5,8.4-8.4      C21.1,11.2,25.2,13.5,25.2,18.3z" /><radialGradient
   id="path630_1_"
   cx="-486.5225"
   cy="18.4556"
   r="28.3192"
   fx="-486.5225"
   fy="18.4556"
   gradientTransform="matrix(1 0 0 1 510.8125 15.9443)"
   gradientUnits="userSpaceOnUse"><stop
   offset="0"
   style="stop-color:#000076"
   id="stop661" /><stop
   offset="1"
   style="stop-color:#000048"
   id="stop662" /><a:midPointStop
   offset="0"
   style="stop-color:#000076"
   id="midPointStop663" /><a:midPointStop
   offset="0.5"
   style="stop-color:#000076"
   id="midPointStop664" /><a:midPointStop
   offset="1"
   style="stop-color:#000048"
   id="midPointStop665" /></radialGradient><path
   id="path630"
   fill="url(#path630_1_)"
   d="M23.5,16.6c0,5.7-5.4,10.9-10.9,10.9c-4.7,0-7-4-5.9-8.4c1.1-3.9,4.5-7.5,8.4-8.4      C19.5,9.5,23.6,11.9,23.5,16.6L23.5,16.6z" /><path
   id="path631"
   fill="#00003B"
   d="M28.7,10.7c3.7,3.7,3.8,12-1.9,18.3c-5.7,6.4-14.2,7.8-19.2,4.3      C21.8,40.1,36.2,21.1,28.7,10.7z" /><radialGradient
   id="path638_1_"
   cx="-501.0293"
   cy="11.7129"
   r="14.8597"
   fx="-501.0293"
   fy="11.7129"
   gradientTransform="matrix(1 0 0 1 510.8125 15.9443)"
   gradientUnits="userSpaceOnUse"><stop
   offset="0"
   style="stop-color:#FF7600"
   id="stop669" /><stop
   offset="1"
   style="stop-color:#900000"
   id="stop670" /><a:midPointStop
   offset="0"
   style="stop-color:#FF7600"
   id="midPointStop671" /><a:midPointStop
   offset="0.5"
   style="stop-color:#FF7600"
   id="midPointStop672" /><a:midPointStop
   offset="1"
   style="stop-color:#900000"
   id="midPointStop673" /></radialGradient><path
   id="path638"
   fill="url(#path638_1_)"
   d="M45.8,42.2c-4.7-3.4-16.3,0.6-16.3,0.6s2.7-4.9,0-7.6c-2.7-2.7-15.8-0.4-17.4-6.4      C26.3,37.5,44.2,21.1,45.8,42.2L45.8,42.2z" /><radialGradient
   id="path645_1_"
   cx="-477.9585"
   cy="13.7915"
   r="15.1538"
   fx="-477.9585"
   fy="13.7915"
   gradientTransform="matrix(1 0 0 1 510.8125 15.9443)"
   gradientUnits="userSpaceOnUse"><stop
   offset="0"
   style="stop-color:#FFFF00"
   id="stop676" /><stop
   offset="1"
   style="stop-color:#B80000"
   id="stop677" /><a:midPointStop
   offset="0"
   style="stop-color:#FFFF00"
   id="midPointStop678" /><a:midPointStop
   offset="0.5"
   style="stop-color:#FFFF00"
   id="midPointStop679" /><a:midPointStop
   offset="1"
   style="stop-color:#B80000"
   id="midPointStop680" /></radialGradient><path
   id="path645"
   fill="url(#path645_1_)"
   d="M45.7,42.1c-4.7-3.4-16.3,0.6-16.3,0.6s6.1-9.7-5.8-11.3      C37.7,29.9,45.2,29.2,45.7,42.1z" /><path
   id="path646"
   fill="#FF0000"
   d="M30.6,34.4c1.5,5.4-1.2,8.3-1.2,8.3s2.4-4.3,0.5-8c-2.3-4.4-12.6-0.3-18-6      C17.6,34.3,29,28.6,30.6,34.4z" /><linearGradient
   id="XMLID_2_"
   gradientUnits="userSpaceOnUse"
   x1="-512.0771"
   y1="-15.4521"
   x2="-482.9174"
   y2="17.7211"
   gradientTransform="matrix(1 0 0 1 510.8125 15.9443)"><stop
   offset="0"
   style="stop-color:#FFFFFF"
   id="stop684" /><stop
   offset="1"
   style="stop-color:#6D6DFF"
   id="stop685" /><a:midPointStop
   offset="0"
   style="stop-color:#FFFFFF"
   id="midPointStop686" /><a:midPointStop
   offset="0.5"
   style="stop-color:#FFFFFF"
   id="midPointStop687" /><a:midPointStop
   offset="1"
   style="stop-color:#6D6DFF"
   id="midPointStop688" /></linearGradient><path
   fill="url(#XMLID_2_)"
   d="M15.2,5.9C9.1,7.6,3.4,13.2,1.8,19.4c-1.8,7,1.9,13.4,9.5,13.4c9,0,17.5-8.5,17.5-17.5      C28.8,7.7,22.3,4,15.2,5.9z M11.4,23.4C11,25.9,8.8,28,6.6,28.1c-2.1,0.1-3.3-1.8-2.7-4.1c0.5-2.2,2.4-4.2,4.4-4.4      c2.1-0.3,3.5,1.4,3.1,3.7V23.4z M12.9,12.8c-0.3,2-2.3,4-4.3,4.3c-1.9,0.3-3-1-2.6-2.9c0.4-1.8,2.2-3.6,4-4      C11.9,9.8,13.3,10.9,12.9,12.8z M23.5,22.3c-0.1,2.7-2.6,5.2-5.4,5.4c-2.6,0.1-4.4-1.9-4-4.5c0.3-2.4,2.5-4.6,4.9-4.9      C21.5,18,23.6,19.7,23.5,22.3L23.5,22.3z M24.1,10.5c-0.1,2.2-2.3,4.4-4.8,4.8c-2.4,0.4-4-1-3.7-3c0.3-2,2.2-3.9,4.4-4.4      c2.3-0.5,4.2,0.6,4.1,2.7V10.5z"
   id="path689" /><path
   id="path654"
   fill="#3B3B3B"
   d="M22.3,19.1c-1.6-1.4-4.4-1.3-6.3,0.6c-2,2-2.9,5.3-0.4,7.1C11.8,22.1,18.3,16.7,22.3,19.1z      " /><path
   id="path655"
   fill="#E6E6E6"
   d="M15.6,26.9c5.1,3.5,11-4.7,6.7-7.8C26.3,23.2,20.2,29.5,15.6,26.9z" /><path
   id="path656"
   fill="#545454"
   d="M12.4,10.6c-0.7-0.7-2.6-1-4.7,0.8c-1.4,1.3-2.6,3.9-0.8,5.3c-2.2-2.2,2.6-7.9,5.7-6.1      H12.4z" /><path
   id="path657"
   fill="#E6E6E6"
   d="M6.7,16.7c0.7,0.7,2.6,1.1,4.7-0.8c1.4-1.3,2.6-3.9,0.8-5.3c2.2,2.2-2.6,7.9-5.7,6.1H6.7z" /><path
   id="path658"
   fill="#454545"
   d="M10.2,20.3c-0.7-0.7-2.7-0.9-4.7,0.8c-2.2,2.1-2.5,5.4-0.7,6.6c-2.5-3.3,2.1-9,5.5-7.6v0.2      H10.2z" /><path
   id="path659"
   fill="#E6E6E6"
   d="M5.1,27.9c0.7,0.7,2.7,0.9,4.7-0.8c2.2-2.1,2.5-5.4,0.7-6.6c2.5,3.3-2.1,9-5.5,7.6v-0.2      H5.1z" /><path
   id="path660"
   fill="#545454"
   d="M22.9,8.2c-0.7-0.7-3.6-0.8-5.7,1c-1.9,1.8-2.4,4-0.8,5.5c-2.7-3.6,3.2-8.1,6.4-6.6      L22.9,8.2z" /><path
   id="path661"
   fill="#E6E6E6"
   d="M17,15.1c0.7,0.7,3.6,0.8,5.7-1.1c1.9-1.8,2.4-4,0.8-5.5c2.7,3.6-3.2,8.1-6.4,6.6H17z" /><path
   id="path662"
   fill="#00003B"
   d="M26.4,8.4c3.7,3.7,3.8,12-1.9,18.3c-5.7,6.4-14.2,7.8-19.2,4.3      c14.2,6.7,28.8-12.3,21.1-22.7V8.4z" /></g></g><g
   id="Layer_x5F_4"
   i:knockout="Off"
   i:layer="yes"
   i:dimmedPercent="3"
   i:rgbTrio="#4F00FFFF4F00"><rect
   id="path241"
   i:knockout="Off"
   fill="none"
   width="48"
   height="48" /></g></svg>
