<?xml version="1.0" encoding="UTF-8" standalone="no"?>
<!DOCTYPE svg PUBLIC "-//W3C//DTD SVG 20010904//EN"
"http://www.w3.org/TR/2001/REC-SVG-20010904/DTD/svg10.dtd">
<!-- Created with Sodipodi ("http://www.sodipodi.com/") -->
<svg
   xmlns:x="http://ns.adobe.com/Extensibility/1.0/"
   xmlns:i="http://ns.adobe.com/AdobeIllustrator/10.0/"
   xmlns:graph="http://ns.adobe.com/Graphs/1.0/"
   xmlns="http://www.w3.org/2000/svg"
   xmlns:xlink="http://www.w3.org/1999/xlink"
   xmlns:a="http://ns.adobe.com/AdobeSVGViewerExtensions/3.0/"
   xml:space="preserve"
   i:viewOrigin="282.9219 419.0313"
   i:rulerOrigin="0 0"
   i:pageBounds="0 792 612 0"
   width="48"
   height="48"
   viewBox="0 0 48 48"
   overflow="visible"
   enable-background="new 0 0 48 48"
   xmlns:sodipodi="http://sodipodi.sourceforge.net/DTD/sodipodi-0.dtd"
   id="svg602"
   sodipodi:version="0.34"
   sodipodi:docname="C:\msys\home\su_blanc\mldonkey-2.5.12\src\gtk2\rsvg\mime_soffice.svg"><defs
   id="defs716" /><sodipodi:namedview
   id="base" /><g
   id="Layer_x5F_1"
   i:knockout="Off"
   i:layer="yes"
   i:dimmedPercent="3"
   i:rgbTrio="#4F008000FFFF"><g
   id="g620"
   i:knockout="Off"><path
   id="path155"
   i:isolated="yes"
   i:knockout="Off"
   opacity="0.2"
   enable-background="new    "
   d="M10.1,1.6      c-1.8,0-3.3,1.5-3.3,3.3v39.4c0,1.8,1.5,3.3,3.3,3.3h34.6c1.8,0,3.3-1.5,3.3-3.3V4.9c0-1.8-1.5-3.3-3.3-3.3H10.1z" /><linearGradient
   id="path162_1_"
   gradientUnits="userSpaceOnUse"
   x1="-1668.9204"
   y1="127.3018"
   x2="-1448.4204"
   y2="127.3018"
   gradientTransform="matrix(0.1875 0 0 0.1875 317.8652 -0.4688)"><stop
   offset="0"
   style="stop-color:#A7ABAC"
   id="stop609" /><stop
   offset="1"
   style="stop-color:#85898A"
   id="stop610" /><a:midPointStop
   offset="0"
   style="stop-color:#A7ABAC"
   id="midPointStop611" /><a:midPointStop
   offset="0.5"
   style="stop-color:#A7ABAC"
   id="midPointStop612" /><a:midPointStop
   offset="1"
   style="stop-color:#85898A"
   id="midPointStop613" /></linearGradient><path
   id="path162"
   fill="url(#path162_1_)"
   d="M8.3,0.4C6.5,0.4,5,1.9,5,3.7v39.4c0,1.8,1.5,3.3,3.3,3.3H43      c1.8,0,3.3-1.5,3.3-3.3V3.7c0-1.8-1.5-3.3-3.3-3.3H8.3z" /><path
   id="path163"
   fill="#99CCFF"
   d="M5.9,43.1c0,1.3,1.1,2.4,2.4,2.4H43c1.3,0,2.4-1.1,2.4-2.4V3.7c0-1.3-1.1-2.4-2.4-2.4H8.3      C7,1.3,5.9,2.4,5.9,3.7V43.1z" /><linearGradient
   id="path170_1_"
   gradientUnits="userSpaceOnUse"
   x1="-1604.2227"
   y1="81.5586"
   x2="-1355.3735"
   y2="330.4078"
   gradientTransform="matrix(0.1875 0 0 0.1875 317.8652 -0.4688)"><stop
   offset="0"
   style="stop-color:#FFFFFF"
   id="stop617" /><stop
   offset="1"
   style="stop-color:#99CCFF"
   id="stop618" /><a:midPointStop
   offset="0"
   style="stop-color:#FFFFFF"
   id="midPointStop619" /><a:midPointStop
   offset="0.5"
   style="stop-color:#FFFFFF"
   id="midPointStop620" /><a:midPointStop
   offset="1"
   style="stop-color:#99CCFF"
   id="midPointStop621" /></linearGradient><path
   id="path170"
   fill="url(#path170_1_)"
   d="M8.3,2.3C7.5,2.3,6.9,3,6.9,3.7v39.4c0,0.8,0.6,1.4,1.4,1.4H43      c0.8,0,1.4-0.6,1.4-1.4V3.7c0-0.8-0.6-1.4-1.4-1.4H8.3z" /><path
   id="path171"
   i:isolated="yes"
   i:knockout="Off"
   opacity="0.4"
   fill="#FFFFFF"
   enable-background="new    "
   d="M32.5,19.1      c3.7-3.4,8.1-5.1,12.8-6V3.7c0-1.3-1.1-2.4-2.4-2.4H8.3C7,1.3,5.9,2.4,5.9,3.7v28.2C15.7,32.7,24.9,25.9,32.5,19.1z" /></g></g><g
   id="Layer_x5F_2"
   i:knockout="Off"
   i:layer="yes"
   i:dimmedPercent="3"
   i:rgbTrio="#4F004F00FFFF"><g
   id="g625"
   i:knockout="Off"><path
   id="path172"
   i:isolated="yes"
   i:knockout="Off"
   opacity="0.3"
   fill="#999999"
   enable-background="new    "
   d="M3.9,5.7      c-1.7,0-3.1,1.1-3.1,2.5v31.1c0,1.4,1.4,2.5,3.1,2.5h37.8c1.7,0,3.1-1.1,3.1-2.5v-31c0-1.4-1.4-2.5-3.1-2.5L3.9,5.7L3.9,5.7z" /><linearGradient
   id="path179_1_"
   gradientUnits="userSpaceOnUse"
   x1="-732.3838"
   y1="186.3955"
   x2="-732.3838"
   y2="393.8739"
   gradientTransform="matrix(0.1875 0 0 -0.1875 158.7217 78.0996)"><stop
   offset="0"
   style="stop-color:#6A5B97"
   id="stop628" /><stop
   offset="1"
   style="stop-color:#6D7BB0"
   id="stop629" /><a:midPointStop
   offset="0"
   style="stop-color:#6A5B97"
   id="midPointStop630" /><a:midPointStop
   offset="0.5"
   style="stop-color:#6A5B97"
   id="midPointStop631" /><a:midPointStop
   offset="1"
   style="stop-color:#6D7BB0"
   id="midPointStop632" /></linearGradient><path
   id="path179"
   fill="url(#path179_1_)"
   d="M42.8,38.2c0,1.1-1.1,2-2.5,2H2.5c-1.4,0-2.5-0.9-2.5-2v-31c0-1.1,1.1-2,2.5-2      h37.8c1.4,0,2.5,0.9,2.5,2V38.2L42.8,38.2z" /><linearGradient
   id="path186_1_"
   gradientUnits="userSpaceOnUse"
   x1="-841.1812"
   y1="295.1973"
   x2="-624.0016"
   y2="295.1973"
   gradientTransform="matrix(0.1875 0 0 -0.1875 158.7217 78.0996)"><stop
   offset="0"
   style="stop-color:#EFEDF5"
   id="stop635" /><stop
   offset="1"
   style="stop-color:#99ACD2"
   id="stop636" /><a:midPointStop
   offset="0"
   style="stop-color:#EFEDF5"
   id="midPointStop637" /><a:midPointStop
   offset="0.5"
   style="stop-color:#EFEDF5"
   id="midPointStop638" /><a:midPointStop
   offset="1"
   style="stop-color:#99ACD2"
   id="midPointStop639" /></linearGradient><path
   id="path186"
   fill="url(#path186_1_)"
   d="M2.5,6C1.7,6,1,6.5,1,7.2v31.1c0,0.7,0.7,1.2,1.5,1.2h37.8c0.8,0,1.5-0.5,1.5-1.2      V7.2c0-0.7-0.7-1.2-1.5-1.2H2.5L2.5,6z" /><path
   id="path187"
   i:isolated="yes"
   i:knockout="Off"
   opacity="0.64"
   fill="#FFFFFF"
   enable-background="new    "
   d="M3.1,25.4      c1.4,0.1,2.8,0.2,4.2,0.2c16.8,0,30.3-7.5,30.3-16.8c0-0.4,0-0.7-0.1-1.1c-7.7,0-33.4,0-34.5,0C3.1,8.2,3.1,17.4,3.1,25.4z" /></g></g><g
   id="Layer_x5F_3"
   i:knockout="Off"
   i:layer="yes"
   i:dimmedPercent="3"
   i:rgbTrio="#4F00FFFF4F00"><g
   id="g643"><path
   i:isolated="yes"
   i:knockout="Off"
   opacity="0.15"
   enable-background="new    "
   d="M41.1,19c-0.8-0.9-1.9-1.4-3.2-1.5      c-3.5-0.4-8,1.5-11.2,3.6l-1.3,0.8c-0.2,0.1-0.3,0.2-0.4,0.3c-0.1-0.2-0.4-0.4-0.8-0.7c-0.2-0.1-0.5-0.1-0.8-0.2      c0-0.1,0.2-1.6,0.2-1.6c0.3-3.1,0-6.3-1.3-8.5H11.5c-1.3,1.5-2.4,3.5-3,5.5v4.7c0.1,0.4,0.3,0.9,0.6,1.3      c-0.2,0.2-0.4,0.4-0.6,0.5v9.6c0.2,0.1,0.3,0.1,0.6,0c0.5,0.6,1.3,0.9,2.2,0.9c1.1,0.1,2.3-0.1,3.4-0.5c0,0.1,0,0.2-0.1,0.3      c-0.1,1,0.2,1.5,1,1.9c0.8,0.3,1.5,0.1,2.2-0.3c0.1,0.7,0.3,1.2,0.7,1.8c0.4,0.7,1.1,1.1,1.9,1.3c0.1,0.5,0.1,1.7,0,2.2      c0,1.5-0.1,2.4,0.7,3l1.2,0.4c1.8,0,2.2-1.4,2.3-2.6c0-0.2,0-0.5,0.1-0.8c0-0.3,0-0.7,0.1-0.9c0.1-0.8,0.3-1.7,0.8-1.9l0.5-0.2      c2.1-0.9,4.5-1.8,5.2-3.6c0.1-0.2,0.1-0.4,0.1-0.7v-0.1c1.8-0.2,3.3-0.8,4.6-1.7c3.2-2,5.6-5.4,6.2-8.5c0-0.1,0-0.2,0-0.3      c0.2-1.4-0.2-2.8-1-3.7V19z"
   id="path644" /><path
   d="M4.5,14c0,1.6,0.4,3.3,1.3,4.9c-0.9,1.1-1.1,2.5-1.1,4c0,0.8,0.1,1.5,0.1,2.2v0.5l0,0c0,0.8-1.4,1.6-2.3,2.2      c-1,0.7-2.5,1.6-2.5,3c0,0.3,0.1,0.7,0.3,1l1.1,0.9c0.9,0.2,1.8-0.2,3.3-1.2c0.7-0.3,1.6-1,2.2-1.2c0.7,0.5,1.3,0.8,2.2,0.9      c1.1,0,2.2-0.3,3.2-1c0,0.1,0,0.2,0,0.4c0,1.1,0.4,1.8,1.2,2.1c0.3,0.1,0.7,0.2,1,0.1c0.1,0.8,0.2,1.3,0.7,1.9      c0.2,0.2,0.4,0.4,0.8,0.7c0,0.5-0.1,1.4-0.2,2c-0.1,0.8-0.2,1.4-0.2,2c0,0.7,0.1,1.1,0.5,1.5c0.4,0.3,1,0.4,1.5,0.3      c1.4-0.4,1.6-2,2-3.6c0.2-1.2,0.4-2.9,1.1-3.4l0.4-0.3c1.5-1.2,3.2-2.6,3.8-4.5c0.1-0.3,0.2-0.8,0.2-1.1      c1.3-0.5,2.5-1.5,3.6-2.6c2.6-2.9,5.4-8.1,5.4-11.8c0-0.8-0.1-1.5-0.4-2.1c-0.4-0.8-1.2-1.3-2.1-1.4c-3.2-0.3-7.9,4.5-9.2,6.1      c0,0-0.8,0.8-1,1.1c-0.1-0.5-0.6-1-1-1.2c-0.2-0.1-0.6-0.1-0.8-0.1c0-0.1,0-1.9,0-1.9c0-6.2-2.4-12.8-6.8-12.8      c-4.5,0-8.1,7-8.1,12.8L4.5,14z M16.6,24.6c0.1,0,0.6,0.2,1.2,0.6c-0.7-0.1-1.2-0.2-1.2-0.2c0-0.1,0-0.1,0.1-0.3H16.6z"
   id="path645" /><linearGradient
   id="XMLID_1_"
   gradientUnits="userSpaceOnUse"
   x1="-439.5933"
   y1="400.6943"
   x2="-432.5064"
   y2="401.7902"
   gradientTransform="matrix(-0.9994 -3.400000e-002 3.400000e-002 -0.9994 -425.031 404.9959)"><stop
   offset="0"
   style="stop-color:#FFD6E2"
   id="stop647" /><stop
   offset="1"
   style="stop-color:#FF74CA"
   id="stop648" /><a:midPointStop
   offset="0"
   style="stop-color:#FFD6E2"
   id="midPointStop649" /><a:midPointStop
   offset="0.5"
   style="stop-color:#FFD6E2"
   id="midPointStop650" /><a:midPointStop
   offset="1"
   style="stop-color:#FF74CA"
   id="midPointStop651" /></linearGradient><path
   fill="url(#XMLID_1_)"
   d="M27.5,24c-3.4,3.9-8.2,3.5-9.3,1.5s1.8-4.8,5.3-8.7c3.5-3.9,7.7-6.9,8.9-5      c1.1,2-1.3,8.2-4.7,12.1H27.5z"
   id="path652" /><linearGradient
   id="XMLID_2_"
   gradientUnits="userSpaceOnUse"
   x1="-418.1133"
   y1="406.5781"
   x2="-426.0507"
   y2="395.4031"
   gradientTransform="matrix(-1 0 0 -1 -408.1113 415.9121)"><stop
   offset="0"
   style="stop-color:#FF00FF"
   id="stop654" /><stop
   offset="1"
   style="stop-color:#B300C7"
   id="stop655" /><a:midPointStop
   offset="0"
   style="stop-color:#FF00FF"
   id="midPointStop656" /><a:midPointStop
   offset="0.5"
   style="stop-color:#FF00FF"
   id="midPointStop657" /><a:midPointStop
   offset="1"
   style="stop-color:#B300C7"
   id="midPointStop658" /></linearGradient><path
   fill="url(#XMLID_2_)"
   d="M5.9,13.7c0,5.4,5.7,9.8,9,9.8c3.3,0,2.9-4.4,2.9-9.8c0-5.4-2-11.2-5.3-11.2      C9.2,2.5,5.9,8.4,5.9,13.7z"
   id="path659" /><radialGradient
   id="XMLID_3_"
   cx="-257.501"
   cy="407.4023"
   r="7.5966"
   fx="-257.501"
   fy="407.4023"
   gradientTransform="matrix(1 0 0 -1 282.3999 415.9121)"
   gradientUnits="userSpaceOnUse"><stop
   offset="0"
   style="stop-color:#787878"
   id="stop661" /><stop
   offset="1"
   style="stop-color:#313131"
   id="stop662" /><a:midPointStop
   offset="0"
   style="stop-color:#787878"
   id="midPointStop663" /><a:midPointStop
   offset="0.5"
   style="stop-color:#787878"
   id="midPointStop664" /><a:midPointStop
   offset="1"
   style="stop-color:#313131"
   id="midPointStop665" /></radialGradient><path
   fill="url(#XMLID_3_)"
   d="M20.6,16.2l0.2,0.1c2.1-2.9,7.8-10.1,9.9-8.8l0.1-0.2c-2.6-1.9-9.9,8.4-10.2,8.8V16.2z"
   id="path666" /><radialGradient
   id="XMLID_4_"
   cx="-261.6128"
   cy="411.5195"
   r="9.1583"
   fx="-261.6128"
   fy="411.5195"
   gradientTransform="matrix(1 0 0 -1 282.3999 415.9121)"
   gradientUnits="userSpaceOnUse"><stop
   offset="0"
   style="stop-color:#787878"
   id="stop668" /><stop
   offset="1"
   style="stop-color:#313131"
   id="stop669" /><a:midPointStop
   offset="0"
   style="stop-color:#787878"
   id="midPointStop670" /><a:midPointStop
   offset="0.5"
   style="stop-color:#787878"
   id="midPointStop671" /><a:midPointStop
   offset="1"
   style="stop-color:#313131"
   id="midPointStop672" /></radialGradient><path
   fill="url(#XMLID_4_)"
   d="M20.2,2.9c2.4,0.5,0.8,9.7,0,13.2l0.2,0.1c0.1-0.5,3-12.8-0.2-13.5l-0.1,0.2H20.2z"
   id="path673" /><linearGradient
   id="XMLID_5_"
   gradientUnits="userSpaceOnUse"
   x1="-432.9526"
   y1="388.1533"
   x2="-428.8835"
   y2="388.7826"
   gradientTransform="matrix(-0.9994 -3.400000e-002 3.400000e-002 -0.9994 -425.031 404.9959)"><stop
   offset="0"
   style="stop-color:#FF88FF"
   id="stop675" /><stop
   offset="1"
   style="stop-color:#FF00FF"
   id="stop676" /><a:midPointStop
   offset="0"
   style="stop-color:#FF88FF"
   id="midPointStop677" /><a:midPointStop
   offset="0.5"
   style="stop-color:#FF88FF"
   id="midPointStop678" /><a:midPointStop
   offset="1"
   style="stop-color:#FF00FF"
   id="midPointStop679" /></linearGradient><path
   fill="url(#XMLID_5_)"
   d="M17,39.2c1.1-0.3,0.6-5.1,2.5-6.7c1.5-1.2,3.3-2.5,3.7-4.2c0.9-2.6-1.9-4.7-3.5-4.8      c-1.6-0.1-2.4,2.2-3,3.6c-0.9,2.6-1.8,6.7,0.1,6.6c1-0.1-0.6,5.7,0,5.5H17z"
   id="path680" /><linearGradient
   id="XMLID_6_"
   gradientUnits="userSpaceOnUse"
   x1="-500.1362"
   y1="331.7559"
   x2="-494.0211"
   y2="332.7015"
   gradientTransform="matrix(0.5742 0.8187 0.8187 -0.5742 22.1562 623.6968)"><stop
   offset="0"
   style="stop-color:#FF00FF"
   id="stop682" /><stop
   offset="1"
   style="stop-color:#A700FF"
   id="stop683" /><a:midPointStop
   offset="0"
   style="stop-color:#FF00FF"
   id="midPointStop684" /><a:midPointStop
   offset="0.5"
   style="stop-color:#FF00FF"
   id="midPointStop685" /><a:midPointStop
   offset="1"
   style="stop-color:#A700FF"
   id="midPointStop686" /></linearGradient><path
   fill="url(#XMLID_6_)"
   d="M1.6,30.8c-0.8-1.4,5-2.6,4.7-5.6c-0.1-2.2-0.4-4.6,0.8-5.8c2-2.1,6.9,0,8.8,1.9      c1.9,1.9,0.1,3.5-1,4.7c-2,2.1-5.6,4.6-7.3,2.6c-0.9-1.1-5.6,2.9-5.9,2.2H1.6z"
   id="path687" /><radialGradient
   id="XMLID_7_"
   cx="-400.7686"
   cy="405.9668"
   r="6.9382"
   fx="-400.7686"
   fy="405.9668"
   gradientTransform="matrix(-1.3608 -0.5505 0.5505 -1.3608 -749.7171 350.6711)"
   gradientUnits="userSpaceOnUse"><stop
   offset="0"
   style="stop-color:#787878"
   id="stop689" /><stop
   offset="1"
   style="stop-color:#313131"
   id="stop690" /><a:midPointStop
   offset="0"
   style="stop-color:#787878"
   id="midPointStop691" /><a:midPointStop
   offset="0.5"
   style="stop-color:#787878"
   id="midPointStop692" /><a:midPointStop
   offset="1"
   style="stop-color:#313131"
   id="midPointStop693" /></radialGradient><path
   fill="url(#XMLID_7_)"
   d="M15.7,23.6c-1.5,3.9-2.3,7.2-1.8,7.4c0.5,0.2,2.3-2.6,3.9-6.5c1.5-3.9,2.3-7.1,1.8-7.4      C19,16.9,17.3,19.7,15.7,23.6z"
   id="path694" /><radialGradient
   id="XMLID_8_"
   cx="-262.2598"
   cy="413.4658"
   r="0.7871"
   fx="-262.2598"
   fy="413.4658"
   gradientTransform="matrix(1 0 0 -1 282.3999 415.9121)"
   gradientUnits="userSpaceOnUse"><stop
   offset="0"
   style="stop-color:#787878"
   id="stop696" /><stop
   offset="1"
   style="stop-color:#313131"
   id="stop697" /><a:midPointStop
   offset="0"
   style="stop-color:#787878"
   id="midPointStop698" /><a:midPointStop
   offset="0.5"
   style="stop-color:#787878"
   id="midPointStop699" /><a:midPointStop
   offset="1"
   style="stop-color:#313131"
   id="midPointStop700" /></radialGradient><path
   fill="url(#XMLID_8_)"
   d="M19.7,2.8c0,0.2,0.2,0.4,0.4,0.4s0.4-0.2,0.4-0.4c0-0.2-0.2-0.4-0.4-0.4S19.7,2.6,19.7,2.8z"
   id="path701" /><radialGradient
   id="XMLID_9_"
   cx="-251.7632"
   cy="408.793"
   r="0.7872"
   fx="-251.7632"
   fy="408.793"
   gradientTransform="matrix(1 0 0 -1 282.3999 415.9121)"
   gradientUnits="userSpaceOnUse"><stop
   offset="0"
   style="stop-color:#787878"
   id="stop703" /><stop
   offset="1"
   style="stop-color:#313131"
   id="stop704" /><a:midPointStop
   offset="0"
   style="stop-color:#787878"
   id="midPointStop705" /><a:midPointStop
   offset="0.5"
   style="stop-color:#787878"
   id="midPointStop706" /><a:midPointStop
   offset="1"
   style="stop-color:#313131"
   id="midPointStop707" /></radialGradient><path
   fill="url(#XMLID_9_)"
   d="M30.2,7.5c0,0.2,0.2,0.4,0.4,0.4s0.4-0.2,0.4-0.4s-0.2-0.4-0.4-0.4S30.2,7.3,30.2,7.5z"
   id="path708" /><path
   i:isolated="yes"
   i:knockout="Off"
   opacity="0.55"
   fill="#FFFFFF"
   enable-background="new    "
   d="M15.3,3.9      c0,0-2.2-3-5-0.7C6.6,6.4,5.7,12,6.2,15.4C6.6,5.8,11.9,0.4,15.3,3.9z"
   id="path709" /><path
   i:isolated="yes"
   i:knockout="Off"
   opacity="0.55"
   fill="#FFFFFF"
   enable-background="new    "
   d="M18.8,22.1      c4.6-5.9,11.4-13.1,13.4-10.2c-2.5-0.8-6.9,3-13.5,10.3L18.8,22.1z"
   id="path710" /><path
   i:isolated="yes"
   i:knockout="Off"
   opacity="0.55"
   fill="#FFFFFF"
   enable-background="new    "
   d="M19.9,17.7      c-0.5-0.9-5.5,8.4-6,12.2c0.9-5.9,4.6-12.1,5.4-12.8C19.9,16.5,19.9,17.7,19.9,17.7z"
   id="path711" /><path
   i:isolated="yes"
   i:knockout="Off"
   opacity="0.55"
   fill="#FFFFFF"
   enable-background="new    "
   d="M13.4,19.6      c-1.8-1.1-5.4-1.5-6.6,0c-1.2,1.5-0.4,4.6-0.4,6.2S2.1,29.3,1.9,30c1.5-1.1,4.4-2.1,4.8-3.4c0.4-1.3,0-4.8,0.9-6.4      C8.6,18.6,11.8,19.1,13.4,19.6z"
   id="path712" /></g></g><g
   id="Layer_x5F_4"
   i:knockout="Off"
   i:layer="yes"
   i:dimmedPercent="3"
   i:rgbTrio="#4F00FFFF4F00"><rect
   id="path241"
   i:knockout="Off"
   fill="none"
   width="48"
   height="48" /></g></svg>
