<?xml version="1.0" encoding="UTF-8" standalone="no"?>
<!DOCTYPE svg PUBLIC "-//W3C//DTD SVG 20010904//EN"
"http://www.w3.org/TR/2001/REC-SVG-20010904/DTD/svg10.dtd">
<!-- Created with Sodipodi ("http://www.sodipodi.com/") -->
<svg
   xmlns:x="http://ns.adobe.com/Extensibility/1.0/"
   xmlns:i="http://ns.adobe.com/AdobeIllustrator/10.0/"
   xmlns:graph="http://ns.adobe.com/Graphs/1.0/"
   xmlns="http://www.w3.org/2000/svg"
   xmlns:xlink="http://www.w3.org/1999/xlink"
   xmlns:a="http://ns.adobe.com/AdobeSVGViewerExtensions/3.0/"
   xml:space="preserve"
   i:viewOrigin="282.9219 419.0313"
   i:rulerOrigin="0 0"
   i:pageBounds="0 792 612 0"
   width="48"
   height="48"
   viewBox="0 0 48 48"
   overflow="visible"
   enable-background="new 0 0 48 48"
   xmlns:sodipodi="http://sodipodi.sourceforge.net/DTD/sodipodi-0.dtd"
   id="svg602"
   sodipodi:version="0.34"
   sodipodi:docname="C:\msys\home\su_blanc\mldonkey-2.5.12\src\gtk2\rsvg\mime_wordprocessing.svg"><defs
   id="defs746" /><sodipodi:namedview
   id="namedview745" /><g
   id="Layer_x5F_1"
   i:knockout="Off"
   i:layer="yes"
   i:dimmedPercent="3"
   i:rgbTrio="#4F008000FFFF"><g
   id="g620"
   i:knockout="Off"><path
   id="path155"
   i:isolated="yes"
   i:knockout="Off"
   opacity="0.2"
   enable-background="new    "
   d="M10.1,1.6      c-1.8,0-3.3,1.5-3.3,3.3v39.4c0,1.8,1.5,3.3,3.3,3.3h34.6c1.8,0,3.3-1.5,3.3-3.3V4.9c0-1.8-1.5-3.3-3.3-3.3H10.1z" /><linearGradient
   id="path162_1_"
   gradientUnits="userSpaceOnUse"
   x1="-1951.8423"
   y1="291.7295"
   x2="-1731.3423"
   y2="291.7295"
   gradientTransform="matrix(0.1875 0 0 -0.1875 370.9131 78.0996)"><stop
   offset="0"
   style="stop-color:#A7ABAC"
   id="stop609" /><stop
   offset="1"
   style="stop-color:#85898A"
   id="stop610" /><a:midPointStop
   offset="0"
   style="stop-color:#A7ABAC"
   id="midPointStop611" /><a:midPointStop
   offset="0.5"
   style="stop-color:#A7ABAC"
   id="midPointStop612" /><a:midPointStop
   offset="1"
   style="stop-color:#85898A"
   id="midPointStop613" /></linearGradient><path
   id="path162"
   fill="url(#path162_1_)"
   d="M8.3,0.4C6.5,0.4,5,1.9,5,3.7v39.4c0,1.8,1.5,3.3,3.3,3.3H43      c1.8,0,3.3-1.5,3.3-3.3V3.7c0-1.8-1.5-3.3-3.3-3.3H8.3z" /><path
   id="path163"
   fill="#99CCFF"
   d="M5.9,43.1c0,1.3,1.1,2.4,2.4,2.4H43c1.3,0,2.4-1.1,2.4-2.4V3.7c0-1.3-1.1-2.4-2.4-2.4H8.3      C7,1.3,5.9,2.4,5.9,3.7V43.1z" /><linearGradient
   id="path170_1_"
   gradientUnits="userSpaceOnUse"
   x1="-1887.144"
   y1="337.4727"
   x2="-1638.2949"
   y2="88.6234"
   gradientTransform="matrix(0.1875 0 0 -0.1875 370.9131 78.0996)"><stop
   offset="0"
   style="stop-color:#FFFFFF"
   id="stop617" /><stop
   offset="1"
   style="stop-color:#99CCFF"
   id="stop618" /><a:midPointStop
   offset="0"
   style="stop-color:#FFFFFF"
   id="midPointStop619" /><a:midPointStop
   offset="0.5"
   style="stop-color:#FFFFFF"
   id="midPointStop620" /><a:midPointStop
   offset="1"
   style="stop-color:#99CCFF"
   id="midPointStop621" /></linearGradient><path
   id="path170"
   fill="url(#path170_1_)"
   d="M8.3,2.3C7.5,2.3,6.9,3,6.9,3.7v39.4c0,0.8,0.6,1.4,1.4,1.4H43      c0.8,0,1.4-0.6,1.4-1.4V3.7c0-0.8-0.6-1.4-1.4-1.4H8.3z" /><path
   id="path171"
   i:isolated="yes"
   i:knockout="Off"
   opacity="0.4"
   fill="#FFFFFF"
   enable-background="new    "
   d="M32.5,19.1      c3.7-3.4,8.1-5.1,12.8-6V3.7c0-1.3-1.1-2.4-2.4-2.4H8.3C7,1.3,5.9,2.4,5.9,3.7v28.2C15.7,32.7,24.9,25.9,32.5,19.1z" /></g></g><g
   id="Layer_x5F_2"
   i:knockout="Off"
   i:layer="yes"
   i:dimmedPercent="3"
   i:rgbTrio="#4F004F00FFFF"><g
   id="g625"
   i:knockout="Off"><path
   id="path172"
   i:isolated="yes"
   i:knockout="Off"
   opacity="0.3"
   fill="#999999"
   enable-background="new    "
   d="M3.9,5.7      c-1.7,0-3.1,1.1-3.1,2.5v31.1c0,1.4,1.4,2.5,3.1,2.5h37.8c1.7,0,3.1-1.1,3.1-2.5v-31c0-1.4-1.4-2.5-3.1-2.5L3.9,5.7L3.9,5.7z" /><linearGradient
   id="path179_1_"
   gradientUnits="userSpaceOnUse"
   x1="-1015.3047"
   y1="232.6357"
   x2="-1015.3047"
   y2="25.1573"
   gradientTransform="matrix(0.1875 0 0 0.1875 211.7695 -0.4688)"><stop
   offset="0"
   style="stop-color:#6A5B97"
   id="stop628" /><stop
   offset="1"
   style="stop-color:#6D7BB0"
   id="stop629" /><a:midPointStop
   offset="0"
   style="stop-color:#6A5B97"
   id="midPointStop630" /><a:midPointStop
   offset="0.5"
   style="stop-color:#6A5B97"
   id="midPointStop631" /><a:midPointStop
   offset="1"
   style="stop-color:#6D7BB0"
   id="midPointStop632" /></linearGradient><path
   id="path179"
   fill="url(#path179_1_)"
   d="M42.8,38.2c0,1.1-1.1,2-2.5,2H2.5c-1.4,0-2.5-0.9-2.5-2v-31c0-1.1,1.1-2,2.5-2      h37.8c1.4,0,2.5,0.9,2.5,2V38.2L42.8,38.2z" /><linearGradient
   id="path186_1_"
   gradientUnits="userSpaceOnUse"
   x1="-1124.103"
   y1="123.834"
   x2="-906.9234"
   y2="123.834"
   gradientTransform="matrix(0.1875 0 0 0.1875 211.7695 -0.4688)"><stop
   offset="0"
   style="stop-color:#EFEDF5"
   id="stop635" /><stop
   offset="1"
   style="stop-color:#99ACD2"
   id="stop636" /><a:midPointStop
   offset="0"
   style="stop-color:#EFEDF5"
   id="midPointStop637" /><a:midPointStop
   offset="0.5"
   style="stop-color:#EFEDF5"
   id="midPointStop638" /><a:midPointStop
   offset="1"
   style="stop-color:#99ACD2"
   id="midPointStop639" /></linearGradient><path
   id="path186"
   fill="url(#path186_1_)"
   d="M2.5,6C1.7,6,1,6.5,1,7.2v31.1c0,0.7,0.7,1.2,1.5,1.2h37.8c0.8,0,1.5-0.5,1.5-1.2      V7.2c0-0.7-0.7-1.2-1.5-1.2H2.5L2.5,6z" /><path
   id="path187"
   i:isolated="yes"
   i:knockout="Off"
   opacity="0.64"
   fill="#FFFFFF"
   enable-background="new    "
   d="M3.1,25.4      c1.4,0.1,2.8,0.2,4.2,0.2c16.8,0,30.3-7.5,30.3-16.8c0-0.4,0-0.7-0.1-1.1c-7.7,0-33.4,0-34.5,0C3.1,8.2,3.1,17.4,3.1,25.4z" /></g></g><g
   id="Layer_x5F_3"
   i:knockout="Off"
   i:layer="yes"
   i:dimmedPercent="3"
   i:rgbTrio="#4F00FFFF4F00"><g
   id="g643"
   i:knockout="Off"><path
   id="path644"
   i:isolated="yes"
   i:knockout="Off"
   opacity="0.15"
   enable-background="new    "
   d="M41.1,19      c-0.8-0.9-1.9-1.4-3.2-1.5c-3.5-0.4-8,1.5-11.2,3.6l-1.3,0.8c-0.2,0.1-0.3,0.2-0.4,0.3c-0.1-0.2-0.4-0.4-0.8-0.7      c-0.2-0.1-0.5-0.1-0.8-0.2c0-0.1,0.2-1.6,0.2-1.6c0.3-3.1,0-6.3-1.3-8.5H11.5c-1.3,1.5-2.4,3.5-3,5.5v4.7      c0.1,0.4,0.3,0.9,0.6,1.3c-0.2,0.2-0.4,0.4-0.6,0.5v9.6c0.2,0.1,0.3,0.1,0.6,0c0.5,0.6,1.3,0.9,2.2,0.9c1.1,0.1,2.3-0.1,3.4-0.5      c0,0.1,0,0.2-0.1,0.3c-0.1,1,0.2,1.5,1,1.9c0.8,0.3,1.5,0.1,2.2-0.3c0.1,0.7,0.3,1.2,0.7,1.8c0.4,0.7,1.1,1.1,1.9,1.3      c0.1,0.5,0.1,1.7,0,2.2c0,1.5-0.1,2.4,0.7,3l1.2,0.4c1.8,0,2.2-1.4,2.3-2.6c0-0.2,0-0.5,0.1-0.8c0-0.3,0-0.7,0.1-0.9      c0.1-0.8,0.3-1.7,0.8-1.9l0.5-0.2c2.1-0.9,4.5-1.8,5.2-3.6c0.1-0.2,0.1-0.4,0.1-0.7V33c1.8-0.2,3.3-0.8,4.6-1.7      c3.2-2,5.6-5.4,6.2-8.5c0-0.1,0-0.2,0-0.3c0.2-1.4-0.2-2.8-1-3.7V19H41.1z" /><path
   d="M4.5,14c0,1.6,0.4,3.3,1.3,4.9c-0.9,1.1-1.1,2.5-1.1,4c0,0.8,0.1,1.5,0.1,2.2v0.5l0,0c0,0.8-1.4,1.6-2.3,2.2      c-1,0.7-2.5,1.6-2.5,3c0,0.3,0.1,0.7,0.3,1l1.1,0.9c0.9,0.2,1.8-0.2,3.3-1.2c0.7-0.3,1.6-1,2.2-1.2c0.7,0.5,1.3,0.8,2.2,0.9      c1.1,0,2.2-0.3,3.2-1c0,0.1,0,0.2,0,0.4c0,1.1,0.4,1.8,1.2,2.1c0.3,0.1,0.7,0.2,1,0.1c0.1,0.8,0.2,1.3,0.7,1.9      c0.2,0.2,0.4,0.4,0.8,0.7c0,0.5-0.1,1.4-0.2,2c-0.1,0.8-0.2,1.4-0.2,2c0,0.7,0.1,1.1,0.5,1.5c0.4,0.3,1,0.4,1.5,0.3      c1.4-0.4,1.6-2,2-3.6c0.2-1.2,0.4-2.9,1.1-3.4l0.4-0.3c1.5-1.2,3.2-2.6,3.8-4.5c0.1-0.3,0.2-0.8,0.2-1.1      c1.3-0.5,2.5-1.5,3.6-2.6c2.6-2.9,5.4-8.1,5.4-11.8c0-0.8-0.1-1.5-0.4-2.1c-0.4-0.8-1.2-1.3-2.1-1.4c-3.2-0.3-7.9,4.5-9.2,6.1      c0,0-0.8,0.8-1,1.1c-0.1-0.5-0.6-1-1-1.2c-0.2-0.1-0.6-0.1-0.8-0.1c0-0.1,0-1.9,0-1.9c0-6.2-2.4-12.8-6.8-12.8      c-4.5,0-8.1,7-8.1,12.8L4.5,14z M16.6,24.6c0.1,0,0.6,0.2,1.2,0.6c-0.7-0.1-1.2-0.2-1.2-0.2c0-0.1,0-0.1,0.1-0.3h-0.1V24.6z"
   id="path645" /><linearGradient
   id="path652_1_"
   gradientUnits="userSpaceOnUse"
   x1="-722.5244"
   y1="18.2769"
   x2="-715.4376"
   y2="17.181"
   gradientTransform="matrix(-0.9994 -3.400000e-002 -3.400000e-002 0.9994 -693.5359 -23.403)"><stop
   offset="0"
   style="stop-color:#FFD6E2"
   id="stop647" /><stop
   offset="1"
   style="stop-color:#FF74CA"
   id="stop648" /><a:midPointStop
   offset="0"
   style="stop-color:#FFD6E2"
   id="midPointStop649" /><a:midPointStop
   offset="0.5"
   style="stop-color:#FFD6E2"
   id="midPointStop650" /><a:midPointStop
   offset="1"
   style="stop-color:#FF74CA"
   id="midPointStop651" /></linearGradient><path
   id="path652"
   fill="url(#path652_1_)"
   d="M27.5,24c-3.4,3.9-8.2,3.5-9.3,1.5c-1.1-2,1.8-4.8,5.3-8.7c3.5-3.9,7.7-6.9,8.9-5      c1.1,2-1.3,8.2-4.7,12.1h-0.2V24z" /><linearGradient
   id="path659_1_"
   gradientUnits="userSpaceOnUse"
   x1="-700.9912"
   y1="12.4844"
   x2="-708.9286"
   y2="23.6594"
   gradientTransform="matrix(-1 0 0 1 -691.0332 -3.1191)"><stop
   offset="0"
   style="stop-color:#FF00FF"
   id="stop654" /><stop
   offset="1"
   style="stop-color:#B300C7"
   id="stop655" /><a:midPointStop
   offset="0"
   style="stop-color:#FF00FF"
   id="midPointStop656" /><a:midPointStop
   offset="0.5"
   style="stop-color:#FF00FF"
   id="midPointStop657" /><a:midPointStop
   offset="1"
   style="stop-color:#B300C7"
   id="midPointStop658" /></linearGradient><path
   id="path659"
   fill="url(#path659_1_)"
   d="M5.9,13.7c0,5.4,5.7,9.8,9,9.8c3.3,0,2.9-4.4,2.9-9.8c0-5.4-2-11.2-5.3-11.2      S5.9,8.4,5.9,13.7z" /><radialGradient
   id="path666_1_"
   cx="-540.4229"
   cy="11.6289"
   r="7.5966"
   fx="-540.4229"
   fy="11.6289"
   gradientTransform="matrix(1 0 0 1 565.3223 -3.1191)"
   gradientUnits="userSpaceOnUse"><stop
   offset="0"
   style="stop-color:#787878"
   id="stop661" /><stop
   offset="1"
   style="stop-color:#313131"
   id="stop662" /><a:midPointStop
   offset="0"
   style="stop-color:#787878"
   id="midPointStop663" /><a:midPointStop
   offset="0.5"
   style="stop-color:#787878"
   id="midPointStop664" /><a:midPointStop
   offset="1"
   style="stop-color:#313131"
   id="midPointStop665" /></radialGradient><path
   id="path666"
   fill="url(#path666_1_)"
   d="M20.6,16.2l0.2,0.1c2.1-2.9,7.8-10.1,9.9-8.8l0.1-0.2c-2.6-1.9-9.9,8.4-10.2,8.8      V16.2z" /><radialGradient
   id="path673_1_"
   cx="-544.5347"
   cy="7.5117"
   r="9.1583"
   fx="-544.5347"
   fy="7.5117"
   gradientTransform="matrix(1 0 0 1 565.3223 -3.1191)"
   gradientUnits="userSpaceOnUse"><stop
   offset="0"
   style="stop-color:#787878"
   id="stop668" /><stop
   offset="1"
   style="stop-color:#313131"
   id="stop669" /><a:midPointStop
   offset="0"
   style="stop-color:#787878"
   id="midPointStop670" /><a:midPointStop
   offset="0.5"
   style="stop-color:#787878"
   id="midPointStop671" /><a:midPointStop
   offset="1"
   style="stop-color:#313131"
   id="midPointStop672" /></radialGradient><path
   id="path673"
   fill="url(#path673_1_)"
   d="M20.2,2.9c2.4,0.5,0.8,9.7,0,13.2l0.2,0.1c0.1-0.5,3-12.8-0.2-13.5l-0.1,0.2H20.2      z" /><linearGradient
   id="path680_1_"
   gradientUnits="userSpaceOnUse"
   x1="-715.8677"
   y1="30.9219"
   x2="-711.7986"
   y2="30.2926"
   gradientTransform="matrix(-0.9994 -3.400000e-002 -3.400000e-002 0.9994 -693.5359 -23.403)"><stop
   offset="0"
   style="stop-color:#FF88FF"
   id="stop675" /><stop
   offset="1"
   style="stop-color:#FF00FF"
   id="stop676" /><a:midPointStop
   offset="0"
   style="stop-color:#FF88FF"
   id="midPointStop677" /><a:midPointStop
   offset="0.5"
   style="stop-color:#FF88FF"
   id="midPointStop678" /><a:midPointStop
   offset="1"
   style="stop-color:#FF00FF"
   id="midPointStop679" /></linearGradient><path
   id="path680"
   fill="url(#path680_1_)"
   d="M17,39.2c1.1-0.3,0.6-5.1,2.5-6.7c1.5-1.2,3.3-2.5,3.7-4.2      c0.9-2.6-1.9-4.7-3.5-4.8c-1.6-0.1-2.4,2.2-3,3.6c-0.9,2.6-1.8,6.7,0.1,6.6c1-0.1-0.6,5.7,0,5.5H17z" /><linearGradient
   id="path687_1_"
   gradientUnits="userSpaceOnUse"
   x1="-783.0518"
   y1="87.3135"
   x2="-776.9366"
   y2="86.3679"
   gradientTransform="matrix(0.5742 0.8187 -0.8187 0.5742 527.671 614.717)"><stop
   offset="0"
   style="stop-color:#FF00FF"
   id="stop682" /><stop
   offset="1"
   style="stop-color:#A700FF"
   id="stop683" /><a:midPointStop
   offset="0"
   style="stop-color:#FF00FF"
   id="midPointStop684" /><a:midPointStop
   offset="0.5"
   style="stop-color:#FF00FF"
   id="midPointStop685" /><a:midPointStop
   offset="1"
   style="stop-color:#A700FF"
   id="midPointStop686" /></linearGradient><path
   id="path687"
   fill="url(#path687_1_)"
   d="M1.6,30.8c-0.8-1.4,5-2.6,4.7-5.6c-0.1-2.2-0.4-4.6,0.8-5.8c2-2.1,6.9,0,8.8,1.9      c1.9,1.9,0.1,3.5-1,4.7c-2,2.1-5.6,4.6-7.3,2.6c-0.9-1.1-5.6,2.9-5.9,2.2H1.6z" /><radialGradient
   id="path694_1_"
   cx="-683.6904"
   cy="13.0645"
   r="6.9382"
   fx="-683.6904"
   fy="13.0645"
   gradientTransform="matrix(-1.3608 -0.5505 -0.5505 1.3608 -904.041 -375.2953)"
   gradientUnits="userSpaceOnUse"><stop
   offset="0"
   style="stop-color:#787878"
   id="stop689" /><stop
   offset="1"
   style="stop-color:#313131"
   id="stop690" /><a:midPointStop
   offset="0"
   style="stop-color:#787878"
   id="midPointStop691" /><a:midPointStop
   offset="0.5"
   style="stop-color:#787878"
   id="midPointStop692" /><a:midPointStop
   offset="1"
   style="stop-color:#313131"
   id="midPointStop693" /></radialGradient><path
   id="path694"
   fill="url(#path694_1_)"
   d="M15.7,23.6c-1.5,3.9-2.3,7.2-1.8,7.4s2.3-2.6,3.9-6.5c1.5-3.9,2.3-7.1,1.8-7.4      C19,16.9,17.3,19.7,15.7,23.6z" /><radialGradient
   id="path701_1_"
   cx="-545.1816"
   cy="5.5654"
   r="0.7871"
   fx="-545.1816"
   fy="5.5654"
   gradientTransform="matrix(1 0 0 1 565.3223 -3.1191)"
   gradientUnits="userSpaceOnUse"><stop
   offset="0"
   style="stop-color:#787878"
   id="stop696" /><stop
   offset="1"
   style="stop-color:#313131"
   id="stop697" /><a:midPointStop
   offset="0"
   style="stop-color:#787878"
   id="midPointStop698" /><a:midPointStop
   offset="0.5"
   style="stop-color:#787878"
   id="midPointStop699" /><a:midPointStop
   offset="1"
   style="stop-color:#313131"
   id="midPointStop700" /></radialGradient><path
   id="path701"
   fill="url(#path701_1_)"
   d="M19.7,2.8c0,0.2,0.2,0.4,0.4,0.4c0.2,0,0.4-0.2,0.4-0.4c0-0.2-0.2-0.4-0.4-0.4      C19.9,2.4,19.7,2.6,19.7,2.8z" /><radialGradient
   id="path708_1_"
   cx="-534.6851"
   cy="10.2383"
   r="0.7872"
   fx="-534.6851"
   fy="10.2383"
   gradientTransform="matrix(1 0 0 1 565.3223 -3.1191)"
   gradientUnits="userSpaceOnUse"><stop
   offset="0"
   style="stop-color:#787878"
   id="stop703" /><stop
   offset="1"
   style="stop-color:#313131"
   id="stop704" /><a:midPointStop
   offset="0"
   style="stop-color:#787878"
   id="midPointStop705" /><a:midPointStop
   offset="0.5"
   style="stop-color:#787878"
   id="midPointStop706" /><a:midPointStop
   offset="1"
   style="stop-color:#313131"
   id="midPointStop707" /></radialGradient><path
   id="path708"
   fill="url(#path708_1_)"
   d="M30.2,7.5c0,0.2,0.2,0.4,0.4,0.4c0.2,0,0.4-0.2,0.4-0.4s-0.2-0.4-0.4-0.4      C30.4,7.1,30.2,7.3,30.2,7.5z" /><path
   id="path709"
   i:isolated="yes"
   i:knockout="Off"
   opacity="0.55"
   fill="#FFFFFF"
   enable-background="new    "
   d="M15.3,3.9      c0,0-2.2-3-5-0.7C6.6,6.4,5.7,12,6.2,15.4C6.6,5.8,11.9,0.4,15.3,3.9z" /><path
   id="path710"
   i:isolated="yes"
   i:knockout="Off"
   opacity="0.55"
   fill="#FFFFFF"
   enable-background="new    "
   d="M18.8,22.1      C23.4,16.2,30.2,9,32.2,11.9c-2.5-0.8-6.9,3-13.5,10.3L18.8,22.1z" /><path
   id="path711"
   i:isolated="yes"
   i:knockout="Off"
   opacity="0.55"
   fill="#FFFFFF"
   enable-background="new    "
   d="M19.9,17.7      c-0.5-0.9-5.5,8.4-6,12.2c0.9-5.9,4.6-12.1,5.4-12.8C19.9,16.5,19.9,17.7,19.9,17.7z" /><path
   id="path712"
   i:isolated="yes"
   i:knockout="Off"
   opacity="0.55"
   fill="#FFFFFF"
   enable-background="new    "
   d="M13.4,19.6      c-1.8-1.1-5.4-1.5-6.6,0c-1.2,1.5-0.4,4.6-0.4,6.2c0,1.6-4.3,3.5-4.5,4.2c1.5-1.1,4.4-2.1,4.8-3.4c0.4-1.3,0-4.8,0.9-6.4      C8.6,18.6,11.8,19.1,13.4,19.6z" /></g><g
   id="g713"><path
   d="M45.1,18c-6,0.2-8.8,12.1-9.7,16.9c-0.7,0.2-1.2,0.7-1.3,1.3c0,0,0,0,0,0.1c-2.8,0.6-3.1,3.2-3.5,5.3      c-0.2,1.6-0.5,3.3-1.6,4.4l-1.8,1.9c0,0,3.3,0,3.4,0c0.1,0,1.4,0.1,1.4,0.1l0.4-0.5c1.9-2.5,3.2-3.4,5-3.1l0.6,0.1l0.4-0.4      c0.2-0.3,2.1-2.4,2.1-4.5c0-0.2,0-0.3,0-0.5c-0.1-0.4-0.2-0.8-0.4-1.1c0.1-0.1,0.1-0.2,0.1-0.3c0-0.1,0-0.3,0-0.4      c0-0.2-0.1-0.5-0.2-0.7c0.8-1.1,2.6-3.7,4.3-6.6c2.9-5,3.7-7.6,3.7-9.1c0-0.7-0.2-1.2-0.3-1.5C47.4,18.8,46.7,17.9,45.1,18      L45.1,18z"
   id="path714" /><path
   fill="#CD4E00"
   d="M38.5,36.4c0,0,12.8-17.5,6.4-17.3c-6.2,0.2-8.8,17.1-8.8,17.1L38.5,36.4L38.5,36.4z"
   id="path715" /><linearGradient
   id="XMLID_1_"
   gradientUnits="userSpaceOnUse"
   x1="-248.1714"
   y1="382.3477"
   x2="-247.0186"
   y2="381.5994"
   gradientTransform="matrix(1 0 0 -1 284.2139 418.5625)"><stop
   offset="0"
   style="stop-color:#FFFFFF"
   id="stop717" /><stop
   offset="1"
   style="stop-color:#ECF1C4"
   id="stop718" /><a:midPointStop
   offset="0"
   style="stop-color:#FFFFFF"
   id="midPointStop719" /><a:midPointStop
   offset="0.5"
   style="stop-color:#FFFFFF"
   id="midPointStop720" /><a:midPointStop
   offset="1"
   style="stop-color:#ECF1C4"
   id="midPointStop721" /></linearGradient><path
   fill="url(#XMLID_1_)"
   d="M38.9,37.3c-0.1,0.5-1.1,0.8-2.2,0.5c-1.1-0.3-1.9-0.9-1.7-1.4c0.1-0.5,1.1-0.8,2.2-0.5      C38.2,36.1,39,36.7,38.9,37.3L38.9,37.3z"
   id="path722" /><radialGradient
   id="XMLID_2_"
   cx="-246.2935"
   cy="415.6113"
   r="8.6639"
   fx="-246.2935"
   fy="415.6113"
   gradientTransform="matrix(0.9456 0 0 -0.6817 266.2195 322.43)"
   gradientUnits="userSpaceOnUse"><stop
   offset="0.236"
   style="stop-color:#FFFF00"
   id="stop724" /><stop
   offset="0.3098"
   style="stop-color:#FFF900"
   id="stop725" /><stop
   offset="0.4047"
   style="stop-color:#FFE900"
   id="stop726" /><stop
   offset="0.511"
   style="stop-color:#FFCF00"
   id="stop727" /><stop
   offset="0.6257"
   style="stop-color:#FFAA00"
   id="stop728" /><stop
   offset="0.7471"
   style="stop-color:#FF7B00"
   id="stop729" /><stop
   offset="0.8735"
   style="stop-color:#FF4100"
   id="stop730" /><stop
   offset="1"
   style="stop-color:#FF0000"
   id="stop731" /><a:midPointStop
   offset="0.236"
   style="stop-color:#FFFF00"
   id="midPointStop732" /><a:midPointStop
   offset="0.6544"
   style="stop-color:#FFFF00"
   id="midPointStop733" /><a:midPointStop
   offset="1"
   style="stop-color:#FF0000"
   id="midPointStop734" /></radialGradient><path
   fill="url(#XMLID_2_)"
   d="M29.7,46.6h0.9l0.8,0.1c1.9-2.5,3.6-3.9,6-3.6c0,0,4.7-5.1-1-5.9C29.6,36.3,33.1,43,29.7,46.6      L29.7,46.6z"
   id="path735" /><path
   fill="#FFD4A9"
   d="M38.3,38.3c0.2,1.8-2.7,4.5-2.7,4.5l1.5,0C37.8,42.1,39.5,39.5,38.3,38.3z"
   id="path736" /><path
   fill="#FFFFFF"
   d="M30.2,46.4c2-2.7,1.1-8.1,3.7-8.9l1,0.1C31.7,38.7,32.6,42.8,30.2,46.4z"
   id="path737" /><line
   stroke="#000000"
   stroke-width="0.22"
   x1="33.9"
   y1="41"
   x2="30.5"
   y2="46.6"
   id="line738" /><path
   fill="#FFFFFF"
   d="M34,41.6l-3,4.9l3.5-4.6c0.7-0.3,0.4-1.2,0.4-1.2S34.6,41.6,34,41.6z"
   id="path739" /><path
   d="M34.4,41.2c-0.1,0.2-0.4,0.4-0.7,0.3c-0.3-0.1-0.4-0.3-0.2-0.6c0.1-0.2,0.4-0.4,0.7-0.3C34.4,40.7,34.5,40.9,34.4,41.2z      "
   id="path740" /><path
   fill="#FFFFFF"
   d="M45,19.5c-5.6,1.2-8.1,15.8-8.1,15.8h0.3C37.1,35.3,40.1,22.2,45,19.5L45,19.5z"
   id="path741" /><path
   fill="#CDD4A9"
   d="M38.2,36.7c0.3,0.5-0.3,0.6-0.3,0.6s0.5,0,0.6-0.2C38.6,36.9,38.2,36.7,38.2,36.7L38.2,36.7z"
   id="path742" /></g></g><g
   id="Layer_x5F_4"
   i:knockout="Off"
   i:layer="yes"
   i:dimmedPercent="3"
   i:rgbTrio="#4F00FFFF4F00"><rect
   id="path241"
   i:knockout="Off"
   fill="none"
   width="48"
   height="48" /></g></svg>
