<?xml version="1.0" encoding="UTF-8" standalone="no"?>
<!DOCTYPE svg PUBLIC "-//W3C//DTD SVG 20010904//EN"
"http://www.w3.org/TR/2001/REC-SVG-20010904/DTD/svg10.dtd">
<!-- Created with Sodipodi ("http://www.sodipodi.com/") -->
<svg
   xmlns:x="http://ns.adobe.com/Extensibility/1.0/"
   xmlns:i="http://ns.adobe.com/AdobeIllustrator/10.0/"
   xmlns:graph="http://ns.adobe.com/Graphs/1.0/"
   xmlns="http://www.w3.org/2000/svg"
   xmlns:xlink="http://www.w3.org/1999/xlink"
   xmlns:a="http://ns.adobe.com/AdobeSVGViewerExtensions/3.0/"
   xml:space="preserve"
   i:viewOrigin="282.9219 419.0313"
   i:rulerOrigin="0 0"
   i:pageBounds="0 792 612 0"
   width="48"
   height="48"
   viewBox="0 0 48 48"
   overflow="visible"
   enable-background="new 0 0 48 48"
   xmlns:sodipodi="http://sodipodi.sourceforge.net/DTD/sodipodi-0.dtd"
   id="svg602"
   sodipodi:version="0.34"
   sodipodi:docname="C:\msys\home\su_blanc\mldonkey-2.5.12\src\gtk2\rsvg\mime_tex.svg"><defs
   id="defs700" /><sodipodi:namedview
   id="namedview699" /><g
   id="Layer_x5F_1"
   i:knockout="Off"
   i:layer="yes"
   i:dimmedPercent="3"
   i:rgbTrio="#4F008000FFFF"><g
   id="g620"
   i:knockout="Off"><path
   id="path155"
   i:isolated="yes"
   i:knockout="Off"
   opacity="0.2"
   enable-background="new    "
   d="M10.1,1.6      c-1.8,0-3.3,1.5-3.3,3.3v39.4c0,1.8,1.5,3.3,3.3,3.3h34.6c1.8,0,3.3-1.5,3.3-3.3V4.9c0-1.8-1.5-3.3-3.3-3.3H10.1z" /><linearGradient
   id="path162_1_"
   gradientUnits="userSpaceOnUse"
   x1="-2517.686"
   y1="291.7295"
   x2="-2297.186"
   y2="291.7295"
   gradientTransform="matrix(0.1875 0 0 -0.1875 477.0088 78.0996)"><stop
   offset="0"
   style="stop-color:#A7ABAC"
   id="stop609" /><stop
   offset="1"
   style="stop-color:#85898A"
   id="stop610" /><a:midPointStop
   offset="0"
   style="stop-color:#A7ABAC"
   id="midPointStop611" /><a:midPointStop
   offset="0.5"
   style="stop-color:#A7ABAC"
   id="midPointStop612" /><a:midPointStop
   offset="1"
   style="stop-color:#85898A"
   id="midPointStop613" /></linearGradient><path
   id="path162"
   fill="url(#path162_1_)"
   d="M8.3,0.4C6.5,0.4,5,1.9,5,3.7v39.4c0,1.8,1.5,3.3,3.3,3.3H43      c1.8,0,3.3-1.5,3.3-3.3V3.7c0-1.8-1.5-3.3-3.3-3.3H8.3z" /><path
   id="path163"
   fill="#99CCFF"
   d="M5.9,43.1c0,1.3,1.1,2.4,2.4,2.4H43c1.3,0,2.4-1.1,2.4-2.4V3.7c0-1.3-1.1-2.4-2.4-2.4H8.3      C7,1.3,5.9,2.4,5.9,3.7V43.1z" /><linearGradient
   id="path170_1_"
   gradientUnits="userSpaceOnUse"
   x1="-2452.9878"
   y1="337.4727"
   x2="-2204.1387"
   y2="88.6233"
   gradientTransform="matrix(0.1875 0 0 -0.1875 477.0088 78.0996)"><stop
   offset="0"
   style="stop-color:#FFFFFF"
   id="stop617" /><stop
   offset="1"
   style="stop-color:#99CCFF"
   id="stop618" /><a:midPointStop
   offset="0"
   style="stop-color:#FFFFFF"
   id="midPointStop619" /><a:midPointStop
   offset="0.5"
   style="stop-color:#FFFFFF"
   id="midPointStop620" /><a:midPointStop
   offset="1"
   style="stop-color:#99CCFF"
   id="midPointStop621" /></linearGradient><path
   id="path170"
   fill="url(#path170_1_)"
   d="M8.3,2.3C7.5,2.3,6.9,3,6.9,3.7v39.4c0,0.8,0.6,1.4,1.4,1.4H43      c0.8,0,1.4-0.6,1.4-1.4V3.7c0-0.8-0.6-1.4-1.4-1.4H8.3z" /><path
   id="path171"
   i:isolated="yes"
   i:knockout="Off"
   opacity="0.4"
   fill="#FFFFFF"
   enable-background="new    "
   d="M32.5,19.1      c3.7-3.4,8.1-5.1,12.8-6V3.7c0-1.3-1.1-2.4-2.4-2.4H8.3C7,1.3,5.9,2.4,5.9,3.7v28.2C15.7,32.7,24.9,25.9,32.5,19.1z" /></g></g><g
   id="Layer_x5F_2"
   i:knockout="Off"
   i:layer="yes"
   i:dimmedPercent="3"
   i:rgbTrio="#4F004F00FFFF"><g
   id="g625"
   i:knockout="Off"><path
   id="path172"
   i:isolated="yes"
   i:knockout="Off"
   opacity="0.3"
   fill="#999999"
   enable-background="new    "
   d="M3.9,5.7      c-1.7,0-3.1,1.1-3.1,2.5v31.1c0,1.4,1.4,2.5,3.1,2.5h37.8c1.7,0,3.1-1.1,3.1-2.5v-31c0-1.4-1.4-2.5-3.1-2.5L3.9,5.7L3.9,5.7z" /><linearGradient
   id="path179_1_"
   gradientUnits="userSpaceOnUse"
   x1="-1581.1484"
   y1="232.6357"
   x2="-1581.1484"
   y2="25.1573"
   gradientTransform="matrix(0.1875 0 0 0.1875 317.8652 -0.4688)"><stop
   offset="0"
   style="stop-color:#6A5B97"
   id="stop628" /><stop
   offset="1"
   style="stop-color:#6D7BB0"
   id="stop629" /><a:midPointStop
   offset="0"
   style="stop-color:#6A5B97"
   id="midPointStop630" /><a:midPointStop
   offset="0.5"
   style="stop-color:#6A5B97"
   id="midPointStop631" /><a:midPointStop
   offset="1"
   style="stop-color:#6D7BB0"
   id="midPointStop632" /></linearGradient><path
   id="path179"
   fill="url(#path179_1_)"
   d="M42.8,38.2c0,1.1-1.1,2-2.5,2H2.5c-1.4,0-2.5-0.9-2.5-2v-31c0-1.1,1.1-2,2.5-2      h37.8c1.4,0,2.5,0.9,2.5,2V38.2L42.8,38.2z" /><linearGradient
   id="path186_1_"
   gradientUnits="userSpaceOnUse"
   x1="-1689.9468"
   y1="123.834"
   x2="-1472.7671"
   y2="123.834"
   gradientTransform="matrix(0.1875 0 0 0.1875 317.8652 -0.4688)"><stop
   offset="0"
   style="stop-color:#EFEDF5"
   id="stop635" /><stop
   offset="1"
   style="stop-color:#99ACD2"
   id="stop636" /><a:midPointStop
   offset="0"
   style="stop-color:#EFEDF5"
   id="midPointStop637" /><a:midPointStop
   offset="0.5"
   style="stop-color:#EFEDF5"
   id="midPointStop638" /><a:midPointStop
   offset="1"
   style="stop-color:#99ACD2"
   id="midPointStop639" /></linearGradient><path
   id="path186"
   fill="url(#path186_1_)"
   d="M2.5,6C1.7,6,1,6.5,1,7.2v31.1c0,0.7,0.7,1.2,1.5,1.2h37.8c0.8,0,1.5-0.5,1.5-1.2      V7.2c0-0.7-0.7-1.2-1.5-1.2H2.5L2.5,6z" /><path
   id="path187"
   i:isolated="yes"
   i:knockout="Off"
   opacity="0.64"
   fill="#FFFFFF"
   enable-background="new    "
   d="M3.1,25.4      c1.4,0.1,2.8,0.2,4.2,0.2c16.8,0,30.3-7.5,30.3-16.8c0-0.4,0-0.7-0.1-1.1c-7.7,0-33.4,0-34.5,0C3.1,8.2,3.1,17.4,3.1,25.4z" /></g></g><g
   id="Layer_x5F_3"
   i:knockout="Off"
   i:layer="yes"
   i:dimmedPercent="3"
   i:rgbTrio="#4F00FFFF4F00"><g
   id="g640"
   i:knockout="Off"><rect
   id="rect641"
   x="18.4"
   y="19.2"
   fill="#7272FF"
   width="19.9"
   height="3.1" /><rect
   id="rect642"
   x="3.4"
   y="19.2"
   fill="#7272FF"
   width="12.2"
   height="3.1" /><rect
   id="rect643"
   x="27.7"
   y="24.2"
   fill="#7272FF"
   width="8.8"
   height="3.1" /><rect
   id="polygon644"
   x="27.2"
   y="34.2"
   fill="#7272FF"
   width="12.1"
   height="3.1" /><rect
   id="polygon645"
   x="3.4"
   y="34.2"
   fill="#7272FF"
   width="21.2"
   height="3.1" /><rect
   id="rect646"
   x="3.4"
   y="29.2"
   fill="#7272FF"
   width="13.3"
   height="3.1" /><rect
   id="rect647"
   x="3.4"
   y="24.2"
   fill="#7272FF"
   width="21.8"
   height="3.1" /><rect
   id="rect648"
   x="3.4"
   y="14.2"
   fill="#7272FF"
   width="21.8"
   height="3.1" /><rect
   id="rect649"
   x="3.4"
   y="9.2"
   fill="#7272FF"
   width="27.6"
   height="3.1" /></g><g
   id="g713"
   i:knockout="Off"><path
   id="path714"
   d="M45.1,18c-6,0.2-8.8,12.1-9.7,16.9c-0.7,0.2-1.2,0.7-1.3,1.3c0,0,0,0,0,0.1c-2.8,0.6-3.1,3.2-3.5,5.3      c-0.2,1.6-0.5,3.3-1.6,4.4l-1.8,1.9c0,0,3.3,0,3.4,0c0.1,0,1.4,0.1,1.4,0.1l0.4-0.5c1.9-2.5,3.2-3.4,5-3.1l0.6,0.1l0.4-0.4      c0.2-0.3,2.1-2.4,2.1-4.5c0-0.2,0-0.3,0-0.5c-0.1-0.4-0.2-0.8-0.4-1.1c0.1-0.1,0.1-0.2,0.1-0.3c0-0.1,0-0.3,0-0.4      c0-0.2-0.1-0.5-0.2-0.7c0.8-1.1,2.6-3.7,4.3-6.6c2.9-5,3.7-7.6,3.7-9.1c0-0.7-0.2-1.2-0.3-1.5C47.4,18.8,46.7,17.9,45.1,18      L45.1,18z" /><path
   id="path715"
   fill="#CD4E00"
   d="M38.5,36.4c0,0,12.8-17.5,6.4-17.3c-6.2,0.2-8.8,17.1-8.8,17.1L38.5,36.4L38.5,36.4z" /><linearGradient
   id="path722_1_"
   gradientUnits="userSpaceOnUse"
   x1="-814.0288"
   y1="382.3252"
   x2="-812.876"
   y2="381.5769"
   gradientTransform="matrix(1 0 0 -1 850.0576 418.5625)"><stop
   offset="0"
   style="stop-color:#FFFFFF"
   id="stop657" /><stop
   offset="1"
   style="stop-color:#ECF1C4"
   id="stop658" /><a:midPointStop
   offset="0"
   style="stop-color:#FFFFFF"
   id="midPointStop659" /><a:midPointStop
   offset="0.5"
   style="stop-color:#FFFFFF"
   id="midPointStop660" /><a:midPointStop
   offset="1"
   style="stop-color:#ECF1C4"
   id="midPointStop661" /></linearGradient><path
   id="path722"
   fill="url(#path722_1_)"
   d="M38.9,37.3c-0.1,0.5-1.1,0.8-2.2,0.5c-1.1-0.3-1.9-0.9-1.7-1.4      c0.1-0.5,1.1-0.8,2.2-0.5C38.2,36.1,39,36.7,38.9,37.3L38.9,37.3z" /><radialGradient
   id="path735_1_"
   cx="-812.1377"
   cy="415.6113"
   r="8.6641"
   fx="-812.1377"
   fy="415.6113"
   gradientTransform="matrix(0.9456 0 0 -0.6817 801.282 322.43)"
   gradientUnits="userSpaceOnUse"><stop
   offset="0.236"
   style="stop-color:#FFFF00"
   id="stop664" /><stop
   offset="0.3098"
   style="stop-color:#FFF900"
   id="stop665" /><stop
   offset="0.4047"
   style="stop-color:#FFE900"
   id="stop666" /><stop
   offset="0.511"
   style="stop-color:#FFCF00"
   id="stop667" /><stop
   offset="0.6257"
   style="stop-color:#FFAA00"
   id="stop668" /><stop
   offset="0.7471"
   style="stop-color:#FF7B00"
   id="stop669" /><stop
   offset="0.8735"
   style="stop-color:#FF4100"
   id="stop670" /><stop
   offset="1"
   style="stop-color:#FF0000"
   id="stop671" /><a:midPointStop
   offset="0.236"
   style="stop-color:#FFFF00"
   id="midPointStop672" /><a:midPointStop
   offset="0.5"
   style="stop-color:#FFFF00"
   id="midPointStop673" /><a:midPointStop
   offset="0.3098"
   style="stop-color:#FFF900"
   id="midPointStop674" /><a:midPointStop
   offset="0.5"
   style="stop-color:#FFF900"
   id="midPointStop675" /><a:midPointStop
   offset="0.4047"
   style="stop-color:#FFE900"
   id="midPointStop676" /><a:midPointStop
   offset="0.5"
   style="stop-color:#FFE900"
   id="midPointStop677" /><a:midPointStop
   offset="0.511"
   style="stop-color:#FFCF00"
   id="midPointStop678" /><a:midPointStop
   offset="0.5"
   style="stop-color:#FFCF00"
   id="midPointStop679" /><a:midPointStop
   offset="0.6257"
   style="stop-color:#FFAA00"
   id="midPointStop680" /><a:midPointStop
   offset="0.5"
   style="stop-color:#FFAA00"
   id="midPointStop681" /><a:midPointStop
   offset="0.7471"
   style="stop-color:#FF7B00"
   id="midPointStop682" /><a:midPointStop
   offset="0.5"
   style="stop-color:#FF7B00"
   id="midPointStop683" /><a:midPointStop
   offset="0.8735"
   style="stop-color:#FF4100"
   id="midPointStop684" /><a:midPointStop
   offset="0.5"
   style="stop-color:#FF4100"
   id="midPointStop685" /><a:midPointStop
   offset="1"
   style="stop-color:#FF0000"
   id="midPointStop686" /></radialGradient><path
   id="path735"
   fill="url(#path735_1_)"
   d="M29.7,46.6h0.9l0.8,0.1c1.9-2.5,3.6-3.9,6-3.6c0,0,4.7-5.1-1-5.9      C29.6,36.3,33.1,43,29.7,46.6L29.7,46.6z" /><path
   id="path736"
   fill="#FFD4A9"
   d="M38.3,38.3c0.2,1.8-2.7,4.5-2.7,4.5h1.5C37.8,42.1,39.5,39.5,38.3,38.3z" /><path
   id="path737"
   fill="#FFFFFF"
   d="M30.2,46.4c2-2.7,1.1-8.1,3.7-8.9l1,0.1C31.7,38.7,32.6,42.8,30.2,46.4z" /><line
   id="line738"
   stroke="#000000"
   stroke-width="0.22"
   x1="33.9"
   y1="41"
   x2="30.5"
   y2="46.6" /><path
   id="path739"
   fill="#FFFFFF"
   d="M34,41.6l-3,4.9l3.5-4.6c0.7-0.3,0.4-1.2,0.4-1.2S34.6,41.6,34,41.6z" /><path
   id="path740"
   d="M34.4,41.2c-0.1,0.2-0.4,0.4-0.7,0.3s-0.4-0.3-0.2-0.6c0.1-0.2,0.4-0.4,0.7-0.3      C34.4,40.7,34.5,40.9,34.4,41.2z" /><path
   id="path741"
   fill="#FFFFFF"
   d="M45,19.5c-5.6,1.2-8.1,15.8-8.1,15.8h0.3C37.1,35.3,40.1,22.2,45,19.5L45,19.5z" /><path
   id="path742"
   fill="#CDD4A9"
   d="M38.2,36.7c0.3,0.5-0.3,0.6-0.3,0.6s0.5,0,0.6-0.2C38.6,36.9,38.2,36.7,38.2,36.7      L38.2,36.7z" /></g><g
   i:knockout="Off"
   id="g695"><path
   i:knockout="Off"
   d="M3.9,10.1h5.2v2.1c-1.9,1.3-2.4,3.7-2.7,5.6c-0.1,0.8-0.3,1.7-1.3,1.7c-1.1,0-1.2-0.9-1.2-1V10.1z       M10.7,10.1h8.8V33c0,1.3,0,1.5,1.2,1.9c0.5,0.1,0.8,0.5,0.8,1c0,1-1.2,1.1-1.3,1.1H10c-0.1,0-1.3-0.1-1.3-1.1      c0-0.5,0.3-0.8,0.8-1c1.3-0.4,1.2-0.6,1.2-1.9V10.1z M26.3,18.5c0,0.1-0.1,1-1.2,1c-1,0-1.2-0.9-1.3-1.7      c-0.3-1.9-0.8-4.3-2.7-5.6v-2.1h5.2V18.5z"
   id="path696" /></g></g><g
   id="Layer_x5F_4"
   i:knockout="Off"
   i:layer="yes"
   i:dimmedPercent="3"
   i:rgbTrio="#4F00FFFF4F00"><rect
   id="path241"
   i:knockout="Off"
   fill="none"
   width="48"
   height="48" /></g></svg>
