<?xml version="1.0" encoding="UTF-8" standalone="no"?>
<!DOCTYPE svg PUBLIC "-//W3C//DTD SVG 20010904//EN"
"http://www.w3.org/TR/2001/REC-SVG-20010904/DTD/svg10.dtd">
<!-- Created with Sodipodi ("http://www.sodipodi.com/") -->
<svg
   xmlns:x="http://ns.adobe.com/Extensibility/1.0/"
   xmlns:i="http://ns.adobe.com/AdobeIllustrator/10.0/"
   xmlns:graph="http://ns.adobe.com/Graphs/1.0/"
   xmlns="http://www.w3.org/2000/svg"
   xmlns:xlink="http://www.w3.org/1999/xlink"
   xmlns:a="http://ns.adobe.com/AdobeSVGViewerExtensions/3.0/"
   xml:space="preserve"
   i:viewOrigin="284.9692 422.832"
   i:rulerOrigin="0 0"
   i:pageBounds="0 792 612 0"
   width="50.1"
   height="50.1"
   viewBox="0 0 50.1 50.1"
   overflow="visible"
   enable-background="new 0 0 50.1 50.1"
   xmlns:sodipodi="http://sodipodi.sourceforge.net/DTD/sodipodi-0.dtd"
   id="svg602"
   sodipodi:version="0.34"
   sodipodi:docname="C:\msys\home\su_blanc\mldonkey-2.5.12\src\gtk2\rsvg\net_bittorrent.svg"><defs
   id="defs664" /><sodipodi:namedview
   id="base" /><g
   id="g1038"
   i:knockout="Off"
   i:layer="yes"
   i:dimmedPercent="50"
   i:rgbTrio="#4F008000FFFF"><rect
   id="rect606"
   x="1.1"
   y="1.1"
   fill="#FFFFFF"
   width="48"
   height="48" /><radialGradient
   id="rect634_1_"
   cx="-968.8198"
   cy="366.6035"
   r="67.6865"
   fx="-968.8198"
   fy="366.6035"
   gradientTransform="matrix(-0.7869 0 0 1.0491 -738.2285 -383.5364)"
   gradientUnits="userSpaceOnUse"><stop
   offset="0"
   style="stop-color:#FFFFFF"
   id="stop608" /><stop
   offset="0.126"
   style="stop-color:#D5E6F3"
   id="stop609" /><stop
   offset="0.2513"
   style="stop-color:#B3D1EA"
   id="stop610" /><stop
   offset="0.3696"
   style="stop-color:#9AC2E3"
   id="stop611" /><stop
   offset="0.478"
   style="stop-color:#8BB9DF"
   id="stop612" /><stop
   offset="0.5674"
   style="stop-color:#86B6DE"
   id="stop613" /><stop
   offset="0.8539"
   style="stop-color:#0E5FA9"
   id="stop614" /><stop
   offset="0.9113"
   style="stop-color:#0F4378"
   id="stop615" /><stop
   offset="1"
   style="stop-color:#111426"
   id="stop616" /><a:midPointStop
   offset="0"
   style="stop-color:#FFFFFF"
   id="midPointStop617" /><a:midPointStop
   offset="0.5"
   style="stop-color:#FFFFFF"
   id="midPointStop618" /><a:midPointStop
   offset="0.126"
   style="stop-color:#D5E6F3"
   id="midPointStop619" /><a:midPointStop
   offset="0.5"
   style="stop-color:#D5E6F3"
   id="midPointStop620" /><a:midPointStop
   offset="0.2513"
   style="stop-color:#B3D1EA"
   id="midPointStop621" /><a:midPointStop
   offset="0.5"
   style="stop-color:#B3D1EA"
   id="midPointStop622" /><a:midPointStop
   offset="0.3696"
   style="stop-color:#9AC2E3"
   id="midPointStop623" /><a:midPointStop
   offset="0.5"
   style="stop-color:#9AC2E3"
   id="midPointStop624" /><a:midPointStop
   offset="0.478"
   style="stop-color:#8BB9DF"
   id="midPointStop625" /><a:midPointStop
   offset="0.5"
   style="stop-color:#8BB9DF"
   id="midPointStop626" /><a:midPointStop
   offset="0.5674"
   style="stop-color:#86B6DE"
   id="midPointStop627" /><a:midPointStop
   offset="0.5"
   style="stop-color:#86B6DE"
   id="midPointStop628" /><a:midPointStop
   offset="0.8539"
   style="stop-color:#0E5FA9"
   id="midPointStop629" /><a:midPointStop
   offset="0.5"
   style="stop-color:#0E5FA9"
   id="midPointStop630" /><a:midPointStop
   offset="0.9113"
   style="stop-color:#0F4378"
   id="midPointStop631" /><a:midPointStop
   offset="0.5"
   style="stop-color:#0F4378"
   id="midPointStop632" /><a:midPointStop
   offset="1"
   style="stop-color:#111426"
   id="midPointStop633" /></radialGradient><rect
   id="rect634"
   x="1.1"
   y="1.1"
   i:isolated="yes"
   i:knockout="Off"
   opacity="0.4"
   fill="url(#rect634_1_)"
   stroke="#3030B1"
   stroke-width="2.1414"
   enable-background="new    "
   width="48"
   height="48" /><radialGradient
   id="path651_1_"
   cx="-268.9092"
   cy="416.9707"
   r="46.2281"
   fx="-268.9092"
   fy="416.9707"
   gradientTransform="matrix(1 0 0 -1 284.9399 422.8027)"
   gradientUnits="userSpaceOnUse"><stop
   offset="0"
   style="stop-color:#00F6FF"
   id="stop636" /><stop
   offset="0.1708"
   style="stop-color:#00A3FF"
   id="stop637" /><stop
   offset="0.25"
   style="stop-color:#0081FF"
   id="stop638" /><stop
   offset="0.5"
   style="stop-color:#0019B5"
   id="stop639" /><stop
   offset="0.75"
   style="stop-color:#200061"
   id="stop640" /><stop
   offset="1"
   style="stop-color:#000000"
   id="stop641" /><a:midPointStop
   offset="0"
   style="stop-color:#00F6FF"
   id="midPointStop642" /><a:midPointStop
   offset="0.5"
   style="stop-color:#00F6FF"
   id="midPointStop643" /><a:midPointStop
   offset="0.1708"
   style="stop-color:#00A3FF"
   id="midPointStop644" /><a:midPointStop
   offset="0.5"
   style="stop-color:#00A3FF"
   id="midPointStop645" /><a:midPointStop
   offset="0.25"
   style="stop-color:#0081FF"
   id="midPointStop646" /><a:midPointStop
   offset="0.5"
   style="stop-color:#0081FF"
   id="midPointStop647" /><a:midPointStop
   offset="0.5"
   style="stop-color:#0019B5"
   id="midPointStop648" /><a:midPointStop
   offset="0.5"
   style="stop-color:#0019B5"
   id="midPointStop649" /><a:midPointStop
   offset="0.75"
   style="stop-color:#200061"
   id="midPointStop650" /><a:midPointStop
   offset="0.5"
   style="stop-color:#200061"
   id="midPointStop651" /><a:midPointStop
   offset="1"
   style="stop-color:#000000"
   id="midPointStop652" /></radialGradient><path
   id="path651"
   fill="url(#path651_1_)"
   stroke="#00006A"
   stroke-width="2"
   stroke-linejoin="round"
   stroke-miterlimit="2"
   d="     M40.8,32.8c1.3,4.1,4.5,7,7,9.5c-15,1-30.5,1-45.5,0c7.5-5.5,16-16.5,10-26c-1.5-3-5.5-2-8.5-1c4-7.5,14.5-10,22-7     C35.8,12.3,37.8,23.3,40.8,32.8z" /><g
   id="Layer_2_1_"
   i:knockout="Off"
   i:layer="yes"
   i:dimmedPercent="3"
   i:rgbTrio="#FFFF4F004F00"><g
   id="g653"
   i:knockout="Off"><path
   id="path654"
   fill="#FFFFFF"
   d="M29.8,20.5v8.7h-2.4v-5.7c-0.4,0.3-0.8,0.5-1.1,0.7c-0.4,0.2-0.8,0.4-1.4,0.5v-2       c0.8-0.3,1.4-0.6,1.9-0.9c0.5-0.3,0.8-0.8,1.1-1.4L29.8,20.5L29.8,20.5z" /></g><g
   id="g655"
   i:knockout="Off"><path
   fill="#FFFFFF"
   d="M30.8,36.2c0-1.6,0.3-2.8,0.9-3.4c0.6-0.6,1.5-1,2.7-1c0.6,0,1.1,0.1,1.4,0.2c0.4,0.1,0.7,0.3,0.9,0.6       s0.4,0.5,0.6,0.7c0.2,0.2,0.2,0.5,0.3,0.9c0.2,0.6,0.2,1.3,0.2,2c0,1.6-0.3,2.7-0.8,3.4s-1.4,1.1-2.7,1.1       c-0.7,0-1.3-0.1-1.8-0.3c-0.4-0.2-0.8-0.6-1.1-1c-0.2-0.3-0.4-0.7-0.5-1.3S30.8,36.8,30.8,36.2z M33.2,36.2       c0,1.1,0.1,1.8,0.3,2.2c0.2,0.4,0.5,0.6,0.8,0.6c0.2,0,0.4-0.1,0.6-0.3c0.2-0.2,0.3-0.4,0.4-0.8c0.1-0.4,0.1-0.9,0.1-1.7       c0-1.1-0.1-1.9-0.3-2.3c-0.2-0.4-0.5-0.6-0.9-0.6c-0.4,0-0.7,0.2-0.9,0.6C33.3,34.3,33.2,35.1,33.2,36.2z"
   id="path658" /></g><g
   id="g657"
   i:knockout="Off"><path
   id="path660"
   fill="#FFFFFF"
   d="M21.9,32v8.7h-2.4V35c-0.4,0.3-0.8,0.5-1.1,0.7c-0.4,0.2-0.8,0.4-1.4,0.5v-2       c0.8-0.3,1.4-0.6,1.9-0.9c0.4-0.4,0.8-0.8,1.1-1.4L21.9,32L21.9,32z" /></g><g
   id="g659"
   i:knockout="Off"><path
   fill="#FFFFFF"
   d="M17,15.9c0-1.6,0.3-2.8,0.9-3.4c0.6-0.6,1.5-1,2.7-1c0.6,0,1.1,0.1,1.4,0.2c0.4,0.1,0.7,0.3,0.9,0.6       c0.2,0.3,0.4,0.5,0.6,0.7c0.2,0.2,0.2,0.5,0.3,0.9c0.2,0.6,0.2,1.3,0.2,2c0,1.6-0.3,2.7-0.8,3.4c-0.5,0.7-1.4,1.1-2.7,1.1       c-0.7,0-1.3-0.1-1.8-0.3c-0.4-0.2-0.8-0.6-1.1-1c-0.2-0.3-0.4-0.7-0.5-1.3S17,16.6,17,15.9z M19.4,15.9c0,1.1,0.1,1.8,0.3,2.2       c0.2,0.4,0.5,0.6,0.8,0.6c0.2,0,0.4-0.1,0.6-0.3c0.2-0.2,0.3-0.4,0.4-0.8c0.1-0.4,0.1-0.9,0.1-1.7c0-1.1-0.1-1.9-0.3-2.3       S20.8,13,20.4,13c-0.4,0-0.7,0.2-0.9,0.6C19.5,14.1,19.4,14.8,19.4,15.9z"
   id="path662" /></g></g></g></svg>
