<?xml version="1.0" encoding="UTF-8" standalone="no"?>
<!DOCTYPE svg PUBLIC "-//W3C//DTD SVG 20010904//EN"
"http://www.w3.org/TR/2001/REC-SVG-20010904/DTD/svg10.dtd">
<!-- Created with Sodipodi ("http://www.sodipodi.com/") -->
<svg
   xmlns:x="http://ns.adobe.com/Extensibility/1.0/"
   xmlns:i="http://ns.adobe.com/AdobeIllustrator/10.0/"
   xmlns:graph="http://ns.adobe.com/Graphs/1.0/"
   xmlns="http://www.w3.org/2000/svg"
   xmlns:xlink="http://www.w3.org/1999/xlink"
   xmlns:a="http://ns.adobe.com/AdobeSVGViewerExtensions/3.0/"
   xml:space="preserve"
   i:viewOrigin="105.4312 419.7935"
   i:rulerOrigin="0 1"
   i:pageBounds="0 791 612 -1"
   width="50.1"
   height="50.1"
   viewBox="0 0 50.1 50.1"
   overflow="visible"
   enable-background="new 0 0 50.1 50.1"
   xmlns:sodipodi="http://sodipodi.sourceforge.net/DTD/sodipodi-0.dtd"
   id="svg602"
   sodipodi:version="0.34"
   sodipodi:docname="C:\msys\home\su_blanc\mldonkey-2.5.12\src\gtk2\rsvg\net_fasttrack.svg"><defs
   id="defs742" /><sodipodi:namedview
   id="namedview741" /><g
   id="Layer_1"
   i:knockout="Off"
   i:layer="yes"
   i:dimmedPercent="50"
   i:rgbTrio="#4F008000FFFF"><g
   id="g606"><rect
   id="rect606"
   x="1.1"
   y="1.1"
   fill="#FFFFFF"
   width="48"
   height="48" /><radialGradient
   id="rect634_1_"
   cx="-592.2261"
   cy="367.4624"
   r="67.6865"
   fx="-592.2261"
   fy="367.4624"
   gradientTransform="matrix(-0.7869 0 0 1.0491 -441.945 -384.4949)"
   gradientUnits="userSpaceOnUse"><stop
   offset="0"
   style="stop-color:#FFFFFF"
   id="stop609" /><stop
   offset="0.126"
   style="stop-color:#D5E6F3"
   id="stop610" /><stop
   offset="0.2513"
   style="stop-color:#B3D1EA"
   id="stop611" /><stop
   offset="0.3696"
   style="stop-color:#9AC2E3"
   id="stop612" /><stop
   offset="0.478"
   style="stop-color:#8BB9DF"
   id="stop613" /><stop
   offset="0.5674"
   style="stop-color:#86B6DE"
   id="stop614" /><stop
   offset="0.8539"
   style="stop-color:#0E5FA9"
   id="stop615" /><stop
   offset="0.9113"
   style="stop-color:#0F4378"
   id="stop616" /><stop
   offset="1"
   style="stop-color:#111426"
   id="stop617" /><a:midPointStop
   offset="0"
   style="stop-color:#FFFFFF"
   id="midPointStop618" /><a:midPointStop
   offset="0.5"
   style="stop-color:#FFFFFF"
   id="midPointStop619" /><a:midPointStop
   offset="0.126"
   style="stop-color:#D5E6F3"
   id="midPointStop620" /><a:midPointStop
   offset="0.5"
   style="stop-color:#D5E6F3"
   id="midPointStop621" /><a:midPointStop
   offset="0.2513"
   style="stop-color:#B3D1EA"
   id="midPointStop622" /><a:midPointStop
   offset="0.5"
   style="stop-color:#B3D1EA"
   id="midPointStop623" /><a:midPointStop
   offset="0.3696"
   style="stop-color:#9AC2E3"
   id="midPointStop624" /><a:midPointStop
   offset="0.5"
   style="stop-color:#9AC2E3"
   id="midPointStop625" /><a:midPointStop
   offset="0.478"
   style="stop-color:#8BB9DF"
   id="midPointStop626" /><a:midPointStop
   offset="0.5"
   style="stop-color:#8BB9DF"
   id="midPointStop627" /><a:midPointStop
   offset="0.5674"
   style="stop-color:#86B6DE"
   id="midPointStop628" /><a:midPointStop
   offset="0.5"
   style="stop-color:#86B6DE"
   id="midPointStop629" /><a:midPointStop
   offset="0.8539"
   style="stop-color:#0E5FA9"
   id="midPointStop630" /><a:midPointStop
   offset="0.5"
   style="stop-color:#0E5FA9"
   id="midPointStop631" /><a:midPointStop
   offset="0.9113"
   style="stop-color:#0F4378"
   id="midPointStop632" /><a:midPointStop
   offset="0.5"
   style="stop-color:#0F4378"
   id="midPointStop633" /><a:midPointStop
   offset="1"
   style="stop-color:#111426"
   id="midPointStop634" /></radialGradient><rect
   id="rect634"
   x="1.1"
   y="1.1"
   i:isolated="yes"
   i:knockout="Off"
   opacity="0.4"
   fill="url(#rect634_1_)"
   stroke="#3030B1"
   stroke-width="2.1414"
   enable-background="new    "
   width="48"
   height="48" /></g><g
   id="g636"><g
   id="g635"
   i:knockout="Off"
   opacity="0.1"><path
   id="path636"
   d="M28.4,43.8c-7.8,0.1-13.8-4.9-13.8-13.7c0-8.8,7.2-19.1,17.9-19.1c6.1,0,11,3.5,12.8,8.7       c0-0.5,0-0.9,0-1.4c0-5.2-6.4-12.6-16.1-12.6C15.8,5.8,6.8,18.7,6.8,29.6c0,10.9,7.6,17.7,17.3,17.1c3.8-0.2,7.5-2.2,10.8-5.1       C32.7,43,30.5,43.8,28.4,43.8z" /><path
   id="path637"
   fill="none"
   stroke="#000000"
   stroke-width="0.9402"
   d="M28.4,43.8c-7.8,0.1-13.8-4.9-13.8-13.7       c0-8.8,7.2-19.1,17.9-19.1c6.1,0,11,3.5,12.8,8.7c0-0.5,0-0.9,0-1.4c0-5.2-6.4-12.6-16.1-12.6C15.8,5.8,6.8,18.7,6.8,29.6       c0,10.9,7.6,17.7,17.3,17.1c3.8-0.2,7.5-2.2,10.8-5.1C32.7,43,30.5,43.8,28.4,43.8z" /></g><g
   id="g638"
   i:knockout="Off"
   opacity="0.25"><path
   id="path639"
   d="M27.9,43.2C20.1,43.3,14,38.3,14,29.5c0-8.8,7.2-19.1,17.9-19.1c6.1,0,11,3.5,12.8,8.7c0-0.5,0-0.9,0-1.4       c0-5.2-6.4-12.6-16.1-12.6C15.2,5.2,6.3,18,6.3,29c0,10.9,7.6,17.7,17.3,17.1c3.8-0.2,7.5-2.2,10.8-5.1       C32.2,42.3,29.9,43.2,27.9,43.2z" /><path
   id="path640"
   fill="none"
   stroke="#000000"
   stroke-width="0.9402"
   d="M27.9,43.2C20.1,43.3,14,38.3,14,29.5       c0-8.8,7.2-19.1,17.9-19.1c6.1,0,11,3.5,12.8,8.7c0-0.5,0-0.9,0-1.4c0-5.2-6.4-12.6-16.1-12.6C15.2,5.2,6.3,18,6.3,29       c0,10.9,7.6,17.7,17.3,17.1c3.8-0.2,7.5-2.2,10.8-5.1C32.2,42.3,29.9,43.2,27.9,43.2z" /></g><g
   id="g641"
   i:knockout="Off"
   opacity="0.4"><path
   id="path642"
   d="M27.3,42.7c-7.8,0.1-13.8-4.9-13.8-13.7c0-8.8,7.2-19.1,17.9-19.1c6.1,0,11,3.5,12.8,8.7       c0-0.5,0-0.9,0-1.4c0-5.2-6.4-12.6-16.1-12.6C14.7,4.7,5.7,17.6,5.7,28.5c0,10.9,7.6,17.7,17.3,17.1c3.8-0.2,7.5-2.2,10.8-5.1       C31.6,41.9,29.4,42.7,27.3,42.7z" /></g><g
   id="g643"
   i:knockout="Off"><path
   id="path644"
   fill="#66B22C"
   d="M26.9,42.4c-8,0.1-14.2-5-14.2-14S20.1,8.9,31.1,8.9c6.2,0,11.3,3.6,13.1,8.9       c0-0.5,0-1,0-1.4c0-5.3-6.6-12.9-16.6-12.9c-13.8,0-23,13.2-23,24.4C4.8,39,12.5,46,22.5,45.3c3.9-0.2,7.7-2.2,11-5.2       C31.3,41.5,29,42.4,26.9,42.4z" /></g><g
   id="g645"
   i:knockout="Off"
   opacity="0.5"><radialGradient
   id="path673_1_"
   cx="-287.3467"
   cy="393.4819"
   r="23.2775"
   fx="-287.3467"
   fy="393.4819"
   gradientTransform="matrix(0.9983 0 0 -0.9955 315.6215 417.9576)"
   gradientUnits="userSpaceOnUse"><stop
   offset="0"
   style="stop-color:#2A7405"
   id="stop649" /><stop
   offset="0.1734"
   style="stop-color:#307A09"
   id="stop650" /><stop
   offset="0.401"
   style="stop-color:#408A13"
   id="stop651" /><stop
   offset="0.6576"
   style="stop-color:#5AA524"
   id="stop652" /><stop
   offset="0.7584"
   style="stop-color:#66B22C"
   id="stop653" /><stop
   offset="0.7793"
   style="stop-color:#8BC745"
   id="stop654" /><stop
   offset="0.8048"
   style="stop-color:#B3DE5F"
   id="stop655" /><stop
   offset="0.8251"
   style="stop-color:#CBEC6F"
   id="stop656" /><stop
   offset="0.8376"
   style="stop-color:#D4F175"
   id="stop657" /><stop
   offset="0.8732"
   style="stop-color:#7BBC43"
   id="stop658" /><stop
   offset="0.9103"
   style="stop-color:#A1CD7E"
   id="stop659" /><stop
   offset="0.9487"
   style="stop-color:#7BBA54"
   id="stop660" /><stop
   offset="1"
   style="stop-color:#2A7405"
   id="stop661" /><a:midPointStop
   offset="0"
   style="stop-color:#2A7405"
   id="midPointStop662" /><a:midPointStop
   offset="0.5"
   style="stop-color:#2A7405"
   id="midPointStop663" /><a:midPointStop
   offset="0.1734"
   style="stop-color:#307A09"
   id="midPointStop664" /><a:midPointStop
   offset="0.5"
   style="stop-color:#307A09"
   id="midPointStop665" /><a:midPointStop
   offset="0.401"
   style="stop-color:#408A13"
   id="midPointStop666" /><a:midPointStop
   offset="0.5"
   style="stop-color:#408A13"
   id="midPointStop667" /><a:midPointStop
   offset="0.6576"
   style="stop-color:#5AA524"
   id="midPointStop668" /><a:midPointStop
   offset="0.5"
   style="stop-color:#5AA524"
   id="midPointStop669" /><a:midPointStop
   offset="0.7584"
   style="stop-color:#66B22C"
   id="midPointStop670" /><a:midPointStop
   offset="0.5"
   style="stop-color:#66B22C"
   id="midPointStop671" /><a:midPointStop
   offset="0.7793"
   style="stop-color:#8BC745"
   id="midPointStop672" /><a:midPointStop
   offset="0.5"
   style="stop-color:#8BC745"
   id="midPointStop673" /><a:midPointStop
   offset="0.8048"
   style="stop-color:#B3DE5F"
   id="midPointStop674" /><a:midPointStop
   offset="0.5"
   style="stop-color:#B3DE5F"
   id="midPointStop675" /><a:midPointStop
   offset="0.8251"
   style="stop-color:#CBEC6F"
   id="midPointStop676" /><a:midPointStop
   offset="0.5"
   style="stop-color:#CBEC6F"
   id="midPointStop677" /><a:midPointStop
   offset="0.8376"
   style="stop-color:#D4F175"
   id="midPointStop678" /><a:midPointStop
   offset="0.5"
   style="stop-color:#D4F175"
   id="midPointStop679" /><a:midPointStop
   offset="0.8732"
   style="stop-color:#7BBC43"
   id="midPointStop680" /><a:midPointStop
   offset="0.5"
   style="stop-color:#7BBC43"
   id="midPointStop681" /><a:midPointStop
   offset="0.9103"
   style="stop-color:#A1CD7E"
   id="midPointStop682" /><a:midPointStop
   offset="0.5"
   style="stop-color:#A1CD7E"
   id="midPointStop683" /><a:midPointStop
   offset="0.9487"
   style="stop-color:#7BBA54"
   id="midPointStop684" /><a:midPointStop
   offset="0.5"
   style="stop-color:#7BBA54"
   id="midPointStop685" /><a:midPointStop
   offset="1"
   style="stop-color:#2A7405"
   id="midPointStop686" /></radialGradient><path
   id="path673"
   fill="url(#path673_1_)"
   d="M26.9,42.4c-8,0.1-14.2-5-14.2-14S20.1,8.9,31.1,8.9c6.2,0,11.3,3.6,13.1,8.9       c0-0.5,0-1,0-1.4c0-5.3-6.6-12.9-16.6-12.9c-13.8,0-23,13.2-23,24.4C4.8,39,12.5,46,22.5,45.3c3.9-0.2,7.7-2.2,11-5.2       C31.3,41.5,29,42.4,26.9,42.4z" /><path
   id="path674"
   fill="none"
   stroke="#060019"
   stroke-width="0.9402"
   stroke-linejoin="bevel"
   d="M26.9,42.4       c-8,0.1-14.2-5-14.2-14S20.1,8.9,31.1,8.9c6.2,0,11.3,3.6,13.1,8.9c0-0.5,0-1,0-1.4c0-5.3-6.6-12.9-16.6-12.9       c-13.8,0-23,13.2-23,24.4C4.8,39,12.5,46,22.5,45.3c3.9-0.2,7.7-2.2,11-5.2C31.3,41.5,29,42.4,26.9,42.4z" /></g><path
   id="path690"
   fill="#FFFFBD"
   d="M29.3,6.1c4.2,0,7.7,1.3,10.4,3.2c-2.6-2.7-6.6-4.7-11.6-4.7C15.9,4.5,7.7,16,7.4,25.9      C8.5,16.4,17,6.1,29.3,6.1z" /></g><g
   id="g690"><g
   id="g678"
   i:knockout="Off"><path
   id="path679"
   fill="#63AC2C"
   d="M35.6,26.5c0.5-0.4,1-0.9,1.4-1.2c3.3-3,5-6.5,3.9-7.8c-1.1-1.2-4.8,0.3-8.1,3.2       c-1.3,1.2-2.8,2.4-3.4,3.6c-1.8,1-2.2,1.8-3.8,0c-0.2-4.2-0.3-6.6-1.8-7.1c-1.9-0.6-4.8,3.1-6.3,8.4c-1.5,5.2-1.2,10,0.7,10.4       c1.9,0.6,4.6-2.9,6.2-7.9c1.5-1,2.8-1.8,4.2,0.3c0.1,1.2,0.6,2.7,1.2,3.9c1.8,3.3,4.9,5.2,6.9,4.2c2-1,2.2-4.7,0.4-8.1       C36.7,27.8,36.2,27.2,35.6,26.5z" /><path
   id="path680"
   fill="none"
   stroke="#000000"
   stroke-width="0.8485"
   stroke-linejoin="round"
   d="M35.6,26.5       c0.5-0.4,1-0.9,1.4-1.2c3.3-3,5-6.5,3.9-7.8c-1.1-1.2-4.8,0.3-8.1,3.2c-1.3,1.2-2.8,2.4-3.4,3.6c-1.8,1-2.2,1.8-3.8,0       c-0.2-4.2-0.3-6.6-1.8-7.1c-1.9-0.6-4.8,3.1-6.3,8.4c-1.5,5.2-1.2,10,0.7,10.4c1.9,0.6,4.6-2.9,6.2-7.9c1.5-1,2.8-1.8,4.2,0.3       c0.1,1.2,0.6,2.7,1.2,3.9c1.8,3.3,4.9,5.2,6.9,4.2c2-1,2.2-4.7,0.4-8.1C36.7,27.8,36.2,27.2,35.6,26.5z" /></g><linearGradient
   id="XMLID_1_"
   gradientUnits="userSpaceOnUse"
   x1="18.2754"
   y1="29.1333"
   x2="23.9487"
   y2="29.1333"
   gradientTransform="matrix(0.8892 -0.1296 0.1207 0.828 -1.4343 8.5145)"><stop
   offset="0"
   style="stop-color:#FFFF00"
   id="stop695" /><stop
   offset="0.1051"
   style="stop-color:#FFFF07"
   id="stop696" /><stop
   offset="0.2574"
   style="stop-color:#FFFF1A"
   id="stop697" /><stop
   offset="0.4386"
   style="stop-color:#FFFF3A"
   id="stop698" /><stop
   offset="0.6419"
   style="stop-color:#FFFF66"
   id="stop699" /><stop
   offset="0.8608"
   style="stop-color:#FFFF9E"
   id="stop700" /><stop
   offset="1"
   style="stop-color:#FFFFC5"
   id="stop701" /><a:midPointStop
   offset="0"
   style="stop-color:#FFFF00"
   id="midPointStop702" /><a:midPointStop
   offset="0.5"
   style="stop-color:#FFFF00"
   id="midPointStop703" /><a:midPointStop
   offset="0.1051"
   style="stop-color:#FFFF07"
   id="midPointStop704" /><a:midPointStop
   offset="0.5"
   style="stop-color:#FFFF07"
   id="midPointStop705" /><a:midPointStop
   offset="0.2574"
   style="stop-color:#FFFF1A"
   id="midPointStop706" /><a:midPointStop
   offset="0.5"
   style="stop-color:#FFFF1A"
   id="midPointStop707" /><a:midPointStop
   offset="0.4386"
   style="stop-color:#FFFF3A"
   id="midPointStop708" /><a:midPointStop
   offset="0.5"
   style="stop-color:#FFFF3A"
   id="midPointStop709" /><a:midPointStop
   offset="0.6419"
   style="stop-color:#FFFF66"
   id="midPointStop710" /><a:midPointStop
   offset="0.5"
   style="stop-color:#FFFF66"
   id="midPointStop711" /><a:midPointStop
   offset="0.8608"
   style="stop-color:#FFFF9E"
   id="midPointStop712" /><a:midPointStop
   offset="0.5"
   style="stop-color:#FFFF9E"
   id="midPointStop713" /><a:midPointStop
   offset="1"
   style="stop-color:#FFFFC5"
   id="midPointStop714" /></linearGradient><path
   i:isolated="yes"
   i:knockout="Off"
   fill="url(#XMLID_1_)"
   enable-background="new    "
   d="M22.7,25.8      c-1.2-0.4-4.9,8-3.6,8.1C20.5,34.1,23.8,26.3,22.7,25.8z"
   id="path715" /><linearGradient
   id="XMLID_2_"
   gradientUnits="userSpaceOnUse"
   x1="30.1221"
   y1="30.5767"
   x2="36.3877"
   y2="30.5767"
   gradientTransform="matrix(0.9973 7.317906e-002 -7.317906e-002 0.9973 2.3646 -2.369)"><stop
   offset="0"
   style="stop-color:#FFFF00"
   id="stop717" /><stop
   offset="0.1051"
   style="stop-color:#FFFF07"
   id="stop718" /><stop
   offset="0.2574"
   style="stop-color:#FFFF1A"
   id="stop719" /><stop
   offset="0.4386"
   style="stop-color:#FFFF3A"
   id="stop720" /><stop
   offset="0.6419"
   style="stop-color:#FFFF66"
   id="stop721" /><stop
   offset="0.8608"
   style="stop-color:#FFFF9E"
   id="stop722" /><stop
   offset="1"
   style="stop-color:#FFFFC5"
   id="stop723" /><a:midPointStop
   offset="0"
   style="stop-color:#FFFF00"
   id="midPointStop724" /><a:midPointStop
   offset="0.5"
   style="stop-color:#FFFF00"
   id="midPointStop725" /><a:midPointStop
   offset="0.1051"
   style="stop-color:#FFFF07"
   id="midPointStop726" /><a:midPointStop
   offset="0.5"
   style="stop-color:#FFFF07"
   id="midPointStop727" /><a:midPointStop
   offset="0.2574"
   style="stop-color:#FFFF1A"
   id="midPointStop728" /><a:midPointStop
   offset="0.5"
   style="stop-color:#FFFF1A"
   id="midPointStop729" /><a:midPointStop
   offset="0.4386"
   style="stop-color:#FFFF3A"
   id="midPointStop730" /><a:midPointStop
   offset="0.5"
   style="stop-color:#FFFF3A"
   id="midPointStop731" /><a:midPointStop
   offset="0.6419"
   style="stop-color:#FFFF66"
   id="midPointStop732" /><a:midPointStop
   offset="0.5"
   style="stop-color:#FFFF66"
   id="midPointStop733" /><a:midPointStop
   offset="0.8608"
   style="stop-color:#FFFF9E"
   id="midPointStop734" /><a:midPointStop
   offset="0.5"
   style="stop-color:#FFFF9E"
   id="midPointStop735" /><a:midPointStop
   offset="1"
   style="stop-color:#FFFFC5"
   id="midPointStop736" /></linearGradient><path
   i:isolated="yes"
   i:knockout="Off"
   fill="url(#XMLID_2_)"
   enable-background="new    "
   d="M34.6,28.3      c-0.3-0.5-0.6-0.9-1-1.4c-1.1-1.1-3.6-0.4-3.3,2.4c0.2,0.6,0.4,1.1,0.5,1.5c1.2,2,3.2,4.4,4.7,3.9C37,34.2,35.8,30.3,34.6,28.3z      "
   id="path737" /><path
   id="path679_2_"
   i:isolated="yes"
   i:knockout="Off"
   opacity="0.5"
   fill="#96D94C"
   enable-background="new    "
   d="      M34.1,26.5c0.4-0.3,0.9-0.7,1.2-1c2.9-2.5,5.7-6.1,4.7-7.1c-1-1-4.7,1.6-7.6,4c-1.1,1-2.3,2.2-2.9,3.1c-1.6,0.9-3.5,0.7-4.9-0.8      c-0.2-3.4-0.4-6-1.4-6.1c-1.7-0.5-3.3,3-4.6,7.3c-1.3,4.3-1.7,8.5,0,8.8c1.7,0.5,3.6-3.5,5-7.6c1.3-0.8,4.3-1.4,5.6,0.2      c0.1,1,0.5,2.9,1.1,4c1.6,2.7,4.1,5,5.8,4.2c1.7-0.9,0.9-4.7-0.8-7.4C35,27.6,34.6,27.1,34.1,26.5z" /><path
   id="path714"
   i:isolated="yes"
   i:knockout="Off"
   opacity="0.7"
   fill="#FFFFBD"
   enable-background="new    "
   d="M19.9,24.9      c1.1-3.2,3-5.4,4.3-5.1c-0.2-0.6-0.4-0.9-0.8-1c-1.2-0.4-3,2-4,5.3c-0.8,2.6-0.9,4.9-0.3,6.1C18.9,28.9,19.2,27,19.9,24.9z" /><path
   id="path740"
   i:isolated="yes"
   i:knockout="Off"
   opacity="0.7"
   fill="#FFFFBD"
   enable-background="new    "
   d="M28.1,26.1      c1.1,1.5,4-2,4.8-3c1.7-1.9,4.6-3.5,5.3-2.8c0-0.3-0.1-0.5-0.2-0.7c-0.7-1-3.2,0.2-5.4,2.7c-0.9,1-3.7,4.4-4.5,3.4      C28.1,25.9,28.1,26.1,28.1,26.1z" /></g></g></svg>
