<?xml version="1.0" encoding="UTF-8" standalone="no"?>
<!DOCTYPE svg PUBLIC "-//W3C//DTD SVG 20010904//EN"
"http://www.w3.org/TR/2001/REC-SVG-20010904/DTD/svg10.dtd">
<!-- Created with Sodipodi ("http://www.sodipodi.com/") -->
<svg
   xmlns:x="http://ns.adobe.com/Extensibility/1.0/"
   xmlns:i="http://ns.adobe.com/AdobeIllustrator/10.0/"
   xmlns:graph="http://ns.adobe.com/Graphs/1.0/"
   xmlns="http://www.w3.org/2000/svg"
   xmlns:xlink="http://www.w3.org/1999/xlink"
   xmlns:a="http://ns.adobe.com/AdobeSVGViewerExtensions/3.0/"
   xml:space="preserve"
   i:viewOrigin="211.9536 503.8555"
   i:rulerOrigin="0 0"
   i:pageBounds="0 792 612 0"
   width="48"
   height="48"
   viewBox="0 0 48 48"
   overflow="visible"
   enable-background="new 0 0 48 48"
   xmlns:sodipodi="http://sodipodi.sourceforge.net/DTD/sodipodi-0.dtd"
   id="svg602"
   sodipodi:version="0.34"
   sodipodi:docname="C:\msys\home\su_blanc\mldonkey-2.5.12\src\gtk2\rsvg\stock_info.svg"><defs
   id="defs661" /><sodipodi:namedview
   id="base" /><g
   id="Layer_1_2_"
   i:knockout="Off"
   i:layer="yes"
   i:dimmedPercent="50"
   i:rgbTrio="#4F008000FFFF"><g
   id="g605"><g
   id="g606"><path
   i:isolated="yes"
   i:knockout="Off"
   opacity="0.16"
   enable-background="new    "
   d="M24.3,4.1c-12,0-21.8,9.8-21.8,21.8       c0,12,9.8,21.8,21.8,21.8S46.1,38,46.1,25.9C46.1,13.9,36.3,4.1,24.3,4.1z"
   id="path607" /><g
   i:knockout="Off"
   id="g608"><radialGradient
   id="XMLID_7_"
   cx="-219.4839"
   cy="507.6699"
   r="54.3908"
   fx="-219.4839"
   fy="507.6699"
   gradientTransform="matrix(1 0 0 -1 244.3091 553.8613)"
   gradientUnits="userSpaceOnUse"><stop
   offset="0"
   style="stop-color:#2D58A4"
   id="stop610" /><stop
   offset="1"
   style="stop-color:#0D2D60"
   id="stop611" /><a:midPointStop
   offset="0"
   style="stop-color:#2D58A4"
   id="midPointStop612" /><a:midPointStop
   offset="0.5"
   style="stop-color:#2D58A4"
   id="midPointStop613" /><a:midPointStop
   offset="1"
   style="stop-color:#0D2D60"
   id="midPointStop614" /></radialGradient><path
   fill="url(#XMLID_7_)"
   d="M24,0.2C11.6,0.2,1.6,10.3,1.6,22.6C1.6,35,11.6,45.1,24,45.1c12.4,0,22.4-10.1,22.4-22.4        C46.4,10.3,36.4,0.2,24,0.2z M24,44C12.2,44,2.6,34.5,2.6,22.6C2.6,10.8,12.2,1.2,24,1.2c11.8,0,21.4,9.6,21.4,21.4        C45.4,34.5,35.8,44,24,44z"
   id="path615" /><radialGradient
   id="XMLID_8_"
   cx="-220.5654"
   cy="498.0273"
   r="46.8885"
   fx="-220.5654"
   fy="498.0273"
   gradientTransform="matrix(1 0 0 -1 244.3091 553.8613)"
   gradientUnits="userSpaceOnUse"><stop
   offset="0"
   style="stop-color:#DEE1FF"
   id="stop617" /><stop
   offset="0.6292"
   style="stop-color:#2B72C2"
   id="stop618" /><stop
   offset="1"
   style="stop-color:#2353A4"
   id="stop619" /><a:midPointStop
   offset="0"
   style="stop-color:#DEE1FF"
   id="midPointStop620" /><a:midPointStop
   offset="0.5"
   style="stop-color:#DEE1FF"
   id="midPointStop621" /><a:midPointStop
   offset="0.6292"
   style="stop-color:#2B72C2"
   id="midPointStop622" /><a:midPointStop
   offset="0.5"
   style="stop-color:#2B72C2"
   id="midPointStop623" /><a:midPointStop
   offset="1"
   style="stop-color:#2353A4"
   id="midPointStop624" /></radialGradient><path
   fill="url(#XMLID_8_)"
   d="M24,2.3c-11.2,0-20.4,9.1-20.4,20.4C3.6,33.9,12.8,43,24,43c11.2,0,20.4-9.1,20.4-20.4        C44.4,11.4,35.2,2.3,24,2.3z"
   id="path625" /><radialGradient
   id="XMLID_9_"
   cx="-219.4829"
   cy="507.6689"
   r="54.3869"
   fx="-219.4829"
   fy="507.6689"
   gradientTransform="matrix(1 0 0 -1 244.3091 553.8613)"
   gradientUnits="userSpaceOnUse"><stop
   offset="0"
   style="stop-color:#2D58A4"
   id="stop627" /><stop
   offset="1"
   style="stop-color:#0D2D60"
   id="stop628" /><a:midPointStop
   offset="0"
   style="stop-color:#2D58A4"
   id="midPointStop629" /><a:midPointStop
   offset="0.5"
   style="stop-color:#2D58A4"
   id="midPointStop630" /><a:midPointStop
   offset="1"
   style="stop-color:#0D2D60"
   id="midPointStop631" /></radialGradient><path
   fill="url(#XMLID_9_)"
   d="M24,1.2c-11.8,0-21.4,9.6-21.4,21.4C2.6,34.5,12.2,44,24,44c11.8,0,21.4-9.6,21.4-21.4        C45.4,10.8,35.8,1.2,24,1.2z M24,43C12.8,43,3.6,33.9,3.6,22.6C3.6,11.4,12.8,2.3,24,2.3c11.2,0,20.4,9.1,20.4,20.4        C44.4,33.9,35.2,43,24,43z"
   id="path632" /><radialGradient
   id="XMLID_10_"
   cx="-220.5659"
   cy="498.0264"
   r="46.8894"
   fx="-220.5659"
   fy="498.0264"
   gradientTransform="matrix(1 0 0 -1 244.3091 553.8613)"
   gradientUnits="userSpaceOnUse"><stop
   offset="0.2247"
   style="stop-color:#DEE1FF"
   id="stop634" /><stop
   offset="0.7472"
   style="stop-color:#177CC2"
   id="stop635" /><stop
   offset="1"
   style="stop-color:#3A6DBD"
   id="stop636" /><a:midPointStop
   offset="0.2247"
   style="stop-color:#DEE1FF"
   id="midPointStop637" /><a:midPointStop
   offset="0.5"
   style="stop-color:#DEE1FF"
   id="midPointStop638" /><a:midPointStop
   offset="0.7472"
   style="stop-color:#177CC2"
   id="midPointStop639" /><a:midPointStop
   offset="0.5"
   style="stop-color:#177CC2"
   id="midPointStop640" /><a:midPointStop
   offset="1"
   style="stop-color:#3A6DBD"
   id="midPointStop641" /></radialGradient><path
   fill="url(#XMLID_10_)"
   d="M24,1.2c-11.8,0-21.4,9.6-21.4,21.4C2.6,34.5,12.2,44,24,44c11.8,0,21.4-9.6,21.4-21.4        C45.4,10.8,35.8,1.2,24,1.2z M24,43C12.8,43,3.6,33.9,3.6,22.6C3.6,11.4,12.8,2.3,24,2.3c11.2,0,20.4,9.1,20.4,20.4        C44.4,33.9,35.2,43,24,43z"
   id="path642" /></g><linearGradient
   id="XMLID_11_"
   gradientUnits="userSpaceOnUse"
   x1="-221.3257"
   y1="550.9834"
   x2="-221.3257"
   y2="529.3647"
   gradientTransform="matrix(1 0 0 -1 244.3091 553.8613)"><stop
   offset="5.617829e-003"
   style="stop-color:#2B72C2"
   id="stop644" /><stop
   offset="1"
   style="stop-color:#FFFFFF"
   id="stop645" /><a:midPointStop
   offset="5.617829e-003"
   style="stop-color:#2B72C2"
   id="midPointStop646" /><a:midPointStop
   offset="0.5"
   style="stop-color:#2B72C2"
   id="midPointStop647" /><a:midPointStop
   offset="1"
   style="stop-color:#FFFFFF"
   id="midPointStop648" /></linearGradient><path
   i:isolated="yes"
   i:knockout="Off"
   opacity="0.44"
   fill="url(#XMLID_11_)"
   enable-background="new    "
   d="M23.7,23.3       c8.1-6.1,15.7-8.2,19-8.8C39.6,7.2,32.3,2,23.9,2C12.5,2,3.2,11.4,3.2,23c0,1.8,0.2,3.6,0.7,5.3C7.2,29,15.4,29.6,23.7,23.3z"
   id="path649" /><g
   i:knockout="Off"
   id="g650"><linearGradient
   id="XMLID_12_"
   gradientUnits="userSpaceOnUse"
   x1="-230.2837"
   y1="548.4033"
   x2="-196.002"
   y2="480.011"
   gradientTransform="matrix(1 0 0 -1 244.3091 553.8613)"><stop
   offset="1"
   style="stop-color:#000000"
   id="stop652" /><stop
   offset="1"
   style="stop-color:#FFFFFF"
   id="stop653" /><a:midPointStop
   offset="1"
   style="stop-color:#000000"
   id="midPointStop654" /><a:midPointStop
   offset="0.5"
   style="stop-color:#000000"
   id="midPointStop655" /><a:midPointStop
   offset="1"
   style="stop-color:#FFFFFF"
   id="midPointStop656" /></linearGradient><path
   i:isolated="yes"
   i:knockout="Off"
   opacity="0.3"
   fill="url(#XMLID_12_)"
   a:adobe-blending-mode="multiply"
   enable-background="new    "
   d="        M31.2,38.3H18.8v-1.4c0.3,0,0.7-0.1,1-0.1c0.3,0,0.6-0.1,0.8-0.2c0.4-0.2,0.7-0.4,0.9-0.7c0.2-0.3,0.3-0.7,0.3-1.2V23.3        c0-0.5-0.1-0.9-0.3-1.2c-0.2-0.3-0.5-0.6-0.8-0.8c-0.2-0.2-0.6-0.3-1.1-0.5c-0.5-0.1-0.9-0.2-1.3-0.3v-1.4l9.7-0.5l0.3,0.3        v15.6c0,0.5,0.1,0.9,0.3,1.2c0.2,0.3,0.5,0.6,0.8,0.7c0.3,0.1,0.5,0.2,0.9,0.3c0.3,0.1,0.6,0.2,1,0.2L31.2,38.3 M28.4,11.5        c0,1-0.4,1.8-1.2,2.5c-0.8,0.7-1.7,1.1-2.7,1.1c-1.1,0-2-0.4-2.7-1.1c-0.8-0.7-1.2-1.6-1.2-2.5c0-1,0.4-1.8,1.2-2.6        c0.8-0.7,1.7-1.1,2.7-1.1c1.1,0,2,0.4,2.7,1.1C28,9.6,28.4,10.5,28.4,11.5z"
   id="path657" /><path
   fill="#FFFFFF"
   d="M29.7,37.4H17.3V36c0.3,0,0.7-0.1,1-0.1c0.3,0,0.6-0.1,0.8-0.2c0.4-0.2,0.7-0.4,0.9-0.7        c0.2-0.3,0.3-0.7,0.3-1.2V22.4c0-0.5-0.1-0.9-0.3-1.2c-0.2-0.3-0.5-0.6-0.8-0.8c-0.2-0.2-0.6-0.3-1.1-0.5        c-0.5-0.1-0.9-0.2-1.3-0.3v-1.4l9.7-0.5l0.3,0.3v15.6c0,0.5,0.1,0.8,0.3,1.2c0.2,0.3,0.5,0.6,0.8,0.7c0.3,0.1,0.5,0.2,0.9,0.3        c0.3,0.1,0.6,0.2,1,0.2L29.7,37.4 M26.9,10.6c0,1-0.4,1.8-1.2,2.5s-1.7,1.1-2.7,1.1c-1.1,0-2-0.4-2.7-1.1s-1.2-1.6-1.2-2.5        c0-1,0.4-1.8,1.2-2.6S22,7,23,7c1.1,0,2,0.4,2.7,1.1S26.9,9.6,26.9,10.6z"
   id="path658" /></g></g><rect
   i:knockout="Off"
   fill="none"
   width="48"
   height="48"
   id="rect659" /></g></g></svg>
