<?xml version="1.0" encoding="UTF-8" standalone="no"?>
<!DOCTYPE svg PUBLIC "-//W3C//DTD SVG 20010904//EN"
"http://www.w3.org/TR/2001/REC-SVG-20010904/DTD/svg10.dtd">
<!-- Created with Sodipodi ("http://www.sodipodi.com/") -->
<svg
   xmlns:x="http://ns.adobe.com/Extensibility/1.0/"
   xmlns:i="http://ns.adobe.com/AdobeIllustrator/10.0/"
   xmlns:graph="http://ns.adobe.com/Graphs/1.0/"
   xmlns="http://www.w3.org/2000/svg"
   xmlns:xlink="http://www.w3.org/1999/xlink"
   xmlns:a="http://ns.adobe.com/AdobeSVGViewerExtensions/3.0/"
   xml:space="preserve"
   i:viewOrigin="135.373 639.1523"
   i:rulerOrigin="0 0"
   i:pageBounds="0 792 612 0"
   width="76.5"
   height="48.6"
   viewBox="0 0 76.5 48.6"
   overflow="visible"
   enable-background="new 0 0 76.5 48.6"
   xmlns:sodipodi="http://sodipodi.sourceforge.net/DTD/sodipodi-0.dtd"
   id="svg602"
   sodipodi:version="0.34"
   sodipodi:docname="C:\msys\home\su_blanc\mldonkey-2.5.12\src\gtk2\rsvg\stock_pending_slots.svg"><defs
   id="defs764" /><sodipodi:namedview
   id="base" /><g
   id="g1038"
   i:knockout="Off"
   i:layer="yes"
   i:dimmedPercent="50"
   i:rgbTrio="#4F008000FFFF"><g
   id="g606"
   i:knockout="Off"><linearGradient
   id="path66_1_"
   gradientUnits="userSpaceOnUse"
   x1="-511.5249"
   y1="-419.647"
   x2="-437.9207"
   y2="-360.1143"
   gradientTransform="matrix(0.4642 0 0 0.4758 274.2719 210.3208)"><stop
   offset="0"
   style="stop-color:#FFFFFF"
   id="stop608" /><stop
   offset="0.178"
   style="stop-color:#FBFBFC"
   id="stop609" /><stop
   offset="0.367"
   style="stop-color:#EEEEF2"
   id="stop610" /><stop
   offset="0.5612"
   style="stop-color:#D9D9E1"
   id="stop611" /><stop
   offset="0.7589"
   style="stop-color:#BBBBC9"
   id="stop612" /><stop
   offset="0.9575"
   style="stop-color:#9595AB"
   id="stop613" /><stop
   offset="1"
   style="stop-color:#8C8CA4"
   id="stop614" /><a:midPointStop
   offset="0"
   style="stop-color:#FFFFFF"
   id="midPointStop615" /><a:midPointStop
   offset="0.5"
   style="stop-color:#FFFFFF"
   id="midPointStop616" /><a:midPointStop
   offset="0.178"
   style="stop-color:#FBFBFC"
   id="midPointStop617" /><a:midPointStop
   offset="0.5"
   style="stop-color:#FBFBFC"
   id="midPointStop618" /><a:midPointStop
   offset="0.367"
   style="stop-color:#EEEEF2"
   id="midPointStop619" /><a:midPointStop
   offset="0.5"
   style="stop-color:#EEEEF2"
   id="midPointStop620" /><a:midPointStop
   offset="0.5612"
   style="stop-color:#D9D9E1"
   id="midPointStop621" /><a:midPointStop
   offset="0.5"
   style="stop-color:#D9D9E1"
   id="midPointStop622" /><a:midPointStop
   offset="0.7589"
   style="stop-color:#BBBBC9"
   id="midPointStop623" /><a:midPointStop
   offset="0.5"
   style="stop-color:#BBBBC9"
   id="midPointStop624" /><a:midPointStop
   offset="0.9575"
   style="stop-color:#9595AB"
   id="midPointStop625" /><a:midPointStop
   offset="0.5"
   style="stop-color:#9595AB"
   id="midPointStop626" /><a:midPointStop
   offset="1"
   style="stop-color:#8C8CA4"
   id="midPointStop627" /></linearGradient><circle
   id="path66"
   fill="url(#path66_1_)"
   cx="53"
   cy="24.1"
   r="22.7" /><linearGradient
   id="XMLID_1_"
   gradientUnits="userSpaceOnUse"
   x1="-579.9189"
   y1="-471.3872"
   x2="-425.3719"
   y2="-351.7378"
   gradientTransform="matrix(0.4642 0 0 0.4758 274.2719 210.3208)"><stop
   offset="0"
   style="stop-color:#FFFFFF"
   id="stop630" /><stop
   offset="1"
   style="stop-color:#545477"
   id="stop631" /><a:midPointStop
   offset="0"
   style="stop-color:#FFFFFF"
   id="midPointStop632" /><a:midPointStop
   offset="0.5"
   style="stop-color:#FFFFFF"
   id="midPointStop633" /><a:midPointStop
   offset="1"
   style="stop-color:#545477"
   id="midPointStop634" /></linearGradient><path
   fill="url(#XMLID_1_)"
   d="M29.5,24.1C29.5,37.4,40,48.2,53,48.2s23.5-10.8,23.5-24.1C76.5,10.8,66,0,53,0      C40.1,0,29.5,10.8,29.5,24.1z M31,24.1c0-12.4,9.9-22.5,22-22.5s22,10.1,22,22.5s-9.9,22.5-22,22.5S31,36.5,31,24.1z"
   id="path635" /><radialGradient
   id="path75_1_"
   cx="-478.3335"
   cy="-358.7607"
   r="70.3888"
   fx="-478.3335"
   fy="-358.7607"
   gradientTransform="matrix(0.4642 0 0 0.4758 274.2719 210.3208)"
   gradientUnits="userSpaceOnUse"><stop
   offset="0"
   style="stop-color:#FFFFFF"
   id="stop637" /><stop
   offset="0.2697"
   style="stop-color:#CCF0FF"
   id="stop638" /><stop
   offset="0.8708"
   style="stop-color:#1D6CE9"
   id="stop639" /><a:midPointStop
   offset="0"
   style="stop-color:#FFFFFF"
   id="midPointStop640" /><a:midPointStop
   offset="0.5"
   style="stop-color:#FFFFFF"
   id="midPointStop641" /><a:midPointStop
   offset="0.2697"
   style="stop-color:#CCF0FF"
   id="midPointStop642" /><a:midPointStop
   offset="0.5"
   style="stop-color:#CCF0FF"
   id="midPointStop643" /><a:midPointStop
   offset="0.8708"
   style="stop-color:#1D6CE9"
   id="midPointStop644" /></radialGradient><circle
   id="path75"
   fill="url(#path75_1_)"
   cx="53"
   cy="24.1"
   r="18.7" /><linearGradient
   id="XMLID_2_"
   gradientUnits="userSpaceOnUse"
   x1="-560.6313"
   y1="-456.4546"
   x2="-434.9437"
   y2="-359.1481"
   gradientTransform="matrix(0.4642 0 0 0.4758 274.2719 210.3208)"><stop
   offset="0"
   style="stop-color:#FFFFFF"
   id="stop647" /><stop
   offset="1"
   style="stop-color:#545477"
   id="stop648" /><a:midPointStop
   offset="0"
   style="stop-color:#FFFFFF"
   id="midPointStop649" /><a:midPointStop
   offset="0.5"
   style="stop-color:#FFFFFF"
   id="midPointStop650" /><a:midPointStop
   offset="1"
   style="stop-color:#545477"
   id="midPointStop651" /></linearGradient><path
   fill="url(#XMLID_2_)"
   d="M33.8,24.1c0,10.9,8.6,19.7,19.2,19.7S72.2,35,72.2,24.1S63.6,4.4,53,4.4S33.8,13.2,33.8,24.1z       M34.8,24.1C34.8,13.8,43,5.4,53,5.4s18.2,8.4,18.2,18.7c0,10.3-8.1,18.6-18.2,18.6C43,42.7,34.8,34.4,34.8,24.1z"
   id="path652" /><radialGradient
   id="path85_1_"
   cx="-481.5811"
   cy="-429.6484"
   r="85.5054"
   fx="-481.5811"
   fy="-429.6484"
   gradientTransform="matrix(0.4642 0 0 0.4758 274.2719 210.3208)"
   gradientUnits="userSpaceOnUse"><stop
   offset="0"
   style="stop-color:#FFFFFF"
   id="stop654" /><stop
   offset="0.3034"
   style="stop-color:#CCF0FF"
   id="stop655" /><stop
   offset="1"
   style="stop-color:#1D6CE9"
   id="stop656" /><a:midPointStop
   offset="0"
   style="stop-color:#FFFFFF"
   id="midPointStop657" /><a:midPointStop
   offset="0.5"
   style="stop-color:#FFFFFF"
   id="midPointStop658" /><a:midPointStop
   offset="0.3034"
   style="stop-color:#CCF0FF"
   id="midPointStop659" /><a:midPointStop
   offset="0.5"
   style="stop-color:#CCF0FF"
   id="midPointStop660" /><a:midPointStop
   offset="1"
   style="stop-color:#1D6CE9"
   id="midPointStop661" /></radialGradient><path
   id="path85"
   fill="url(#path85_1_)"
   d="M53,6c-9.4,0-16.9,7.8-16.9,17.4c0,1.4,0.2,2.8,0.5,4.1c5.3-2.9,10.2-6.1,16.4-4.3      c6.5,1.8,12.3-0.8,16.5-3.9C67.6,11.7,61,6,53,6z" /><path
   id="path86"
   i:isolated="yes"
   i:knockout="Off"
   opacity="0.15"
   enable-background="new    "
   d="M63.9,36.8l1.9-1.9L57.2,26      c0.2-0.4,0.2-0.8,0.2-1.2c0-1.7-1.4-3.1-3-3.1c-1.7,0-3,1.4-3,3.1c0,1,0.5,1.9,1.2,2.4V35h2.7v-7.2L63.9,36.8L63.9,36.8z" /><path
   id="path88"
   d="M62.5,35.6l1.9-1.9l-8.6-8.8c0.1-0.4,0.2-0.8,0.2-1.2c0-1.7-1.4-3.1-3-3.1c-1.7,0-3,1.4-3,3.1      c0,1,0.5,1.9,1.2,2.4v7.8h2.7v-7.2L62.5,35.6z" /><circle
   id="path89"
   fill="#FFFFFF"
   cx="53"
   cy="23.7"
   r="1.2" /><path
   id="path90"
   i:isolated="yes"
   i:knockout="Off"
   opacity="0.15"
   fill="#00009F"
   enable-background="new    "
   d="M55.6,7.9      c4.4,0,8.4,1.6,11.5,4.2C63.8,7.9,58.7,5.3,53,5.3c-10,0-18.2,8.4-18.2,18.7c0,5.8,2.6,11,6.7,14.4c-2.6-3.2-4.1-7.3-4.1-11.8      C37.4,16.3,45.6,7.9,55.6,7.9z" /><rect
   id="path91"
   x="51.8"
   y="38.6"
   i:isolated="yes"
   i:knockout="Off"
   opacity="0.5"
   fill="#00009F"
   enable-background="new    "
   width="2.4"
   height="2.4" /><rect
   id="path92"
   x="51.8"
   y="7.3"
   i:isolated="yes"
   i:knockout="Off"
   opacity="0.5"
   fill="#00009F"
   enable-background="new    "
   width="2.4"
   height="2.4" /><rect
   id="path93"
   x="67.1"
   y="22.9"
   i:isolated="yes"
   i:knockout="Off"
   opacity="0.5"
   fill="#00009F"
   enable-background="new    "
   width="2.4"
   height="2.4" /><rect
   id="path94"
   x="36.8"
   y="22.9"
   i:isolated="yes"
   i:knockout="Off"
   opacity="0.5"
   fill="#00009F"
   enable-background="new    "
   width="2.4"
   height="2.4" /></g><g
   id="g620_1_"
   i:knockout="Off"><linearGradient
   id="path977_1_"
   gradientUnits="userSpaceOnUse"
   x1="-227.1104"
   y1="-5.7065"
   x2="-237.444"
   y2="-5.7065"
   gradientTransform="matrix(1 0 0 1 265.9204 43.752)"><stop
   offset="0"
   style="stop-color:#E18330"
   id="stop673" /><stop
   offset="1"
   style="stop-color:#7C0023"
   id="stop674" /><a:midPointStop
   offset="0"
   style="stop-color:#E18330"
   id="midPointStop675" /><a:midPointStop
   offset="0.5"
   style="stop-color:#E18330"
   id="midPointStop676" /><a:midPointStop
   offset="1"
   style="stop-color:#7C0023"
   id="midPointStop677" /></linearGradient><path
   id="path977_2_"
   fill="url(#path977_1_)"
   stroke="#000000"
   d="M40.1,41.5c0.9,2.3,1.5,5.1-3.9,6.3c-5.4,1-10-1.1-10.3-3.3      c0-4.8,4.6-10.4-4.2-14.7c-1.9-0.8,1.1-1.5,3.4-1.7c3.9-0.2,8.8,0,10.3,1.5C39.3,33,38.6,37.3,40.1,41.5z" /><path
   id="path836_1_"
   fill="#FFFFFF"
   stroke="#000000"
   d="M47.8,7.8c-1.6,1.4-3.6,2.8-5.7,4c-0.4,0.2-0.7,0.5-1,0.9      c-0.4-1.9-1.1-3.6-3-4.8c-3.4-2.2-7.6-1.5-11.5-1.1C25.6,7.2,24,7.9,24,9c0,2.6,0,2.6,0-0.1c0-0.3-0.8-0.7-0.8-0.7      c-4.6,1.5-9.5-0.7-13.4,1.5c-6.5,3.6-11.5,12-8.4,18.5C2.5,30,6,29.7,8.3,29.7c1.9,0,2.7-2.5,4.2-1.8c1.1,0.3,2.3,0.3,3.4,0.1      c-0.1,0.1-0.2,0.2-0.3,0.3c6.1,2.5,12.6,4.3,19.1,4c5-0.7,8.4-5.9,7.3-10.5c-0.2-0.9-0.3-1.8-0.4-2.8c1.4,1.2,3.7-1.4,4.8-3.1      C48,13.5,49.4,10.5,47.8,7.8z" /><radialGradient
   id="path861_2_"
   cx="-245.9927"
   cy="-35.624"
   r="25.0022"
   fx="-245.9927"
   fy="-35.624"
   gradientTransform="matrix(0.992 0 0 1.0132 263.228 45.4676)"
   gradientUnits="userSpaceOnUse"><stop
   offset="0"
   style="stop-color:#FFFFFF"
   id="stop681" /><stop
   offset="4.136020e-002"
   style="stop-color:#F2F2F2"
   id="stop682" /><stop
   offset="0.2133"
   style="stop-color:#C1C1C1"
   id="stop683" /><stop
   offset="0.3839"
   style="stop-color:#999999"
   id="stop684" /><stop
   offset="0.5503"
   style="stop-color:#7A7A7A"
   id="stop685" /><stop
   offset="0.711"
   style="stop-color:#636363"
   id="stop686" /><stop
   offset="0.8638"
   style="stop-color:#565656"
   id="stop687" /><stop
   offset="1"
   style="stop-color:#515151"
   id="stop688" /><a:midPointStop
   offset="0"
   style="stop-color:#FFFFFF"
   id="midPointStop689" /><a:midPointStop
   offset="0.5"
   style="stop-color:#FFFFFF"
   id="midPointStop690" /><a:midPointStop
   offset="4.136020e-002"
   style="stop-color:#F2F2F2"
   id="midPointStop691" /><a:midPointStop
   offset="0.5"
   style="stop-color:#F2F2F2"
   id="midPointStop692" /><a:midPointStop
   offset="0.2133"
   style="stop-color:#C1C1C1"
   id="midPointStop693" /><a:midPointStop
   offset="0.5"
   style="stop-color:#C1C1C1"
   id="midPointStop694" /><a:midPointStop
   offset="0.3839"
   style="stop-color:#999999"
   id="midPointStop695" /><a:midPointStop
   offset="0.5"
   style="stop-color:#999999"
   id="midPointStop696" /><a:midPointStop
   offset="0.5503"
   style="stop-color:#7A7A7A"
   id="midPointStop697" /><a:midPointStop
   offset="0.5"
   style="stop-color:#7A7A7A"
   id="midPointStop698" /><a:midPointStop
   offset="0.711"
   style="stop-color:#636363"
   id="midPointStop699" /><a:midPointStop
   offset="0.5"
   style="stop-color:#636363"
   id="midPointStop700" /><a:midPointStop
   offset="0.8638"
   style="stop-color:#565656"
   id="midPointStop701" /><a:midPointStop
   offset="0.5"
   style="stop-color:#565656"
   id="midPointStop702" /><a:midPointStop
   offset="1"
   style="stop-color:#515151"
   id="midPointStop703" /></radialGradient><path
   id="path861_1_"
   i:isolated="yes"
   i:knockout="Off"
   opacity="0.59"
   fill="url(#path861_2_)"
   enable-background="new    "
   d="      M21,23.5c-1.1,3.3-5,5.4-8.4,4.4c-1.5-0.7-2.3,1.8-4.2,1.8c-2.3,0-5.7,0.3-6.9-1.5c-3.1-6.5,1.9-14.9,8.4-18.5      c3.9-2.1,8.8,0,13.4-1.5c0,0,0.8,0.3,0.8,0.7C24.1,14.1,22.5,18.8,21,23.5z" /><radialGradient
   id="path987_2_"
   cx="-233.5923"
   cy="-38.4326"
   r="25.1278"
   fx="-233.5923"
   fy="-38.4326"
   gradientTransform="matrix(0.992 0 0 1.0132 263.228 45.4676)"
   gradientUnits="userSpaceOnUse"><stop
   offset="0"
   style="stop-color:#FF9D56"
   id="stop706" /><stop
   offset="1"
   style="stop-color:#9F0023"
   id="stop707" /><a:midPointStop
   offset="0"
   style="stop-color:#FF9D56"
   id="midPointStop708" /><a:midPointStop
   offset="0.5"
   style="stop-color:#FF9D56"
   id="midPointStop709" /><a:midPointStop
   offset="1"
   style="stop-color:#9F0023"
   id="midPointStop710" /></radialGradient><path
   id="path987_1_"
   fill="url(#path987_2_)"
   d="M42.1,21.7c1.1,4.6-2.3,9.8-7.3,10.5c-6.5,0.3-13-1.5-19.1-4      c5.7-4.7,8.4-12,8.4-19.2c0-1.1,1.5-1.8,2.7-2.1c3.9-0.3,8-1.1,11.5,1.1C42.8,10.8,40.9,17,42.1,21.7z" /><radialGradient
   id="path938_2_"
   cx="-217.5547"
   cy="-37.1113"
   r="11.6837"
   fx="-217.5547"
   fy="-37.1113"
   gradientTransform="matrix(0.992 0 0 1.0132 263.228 45.4676)"
   gradientUnits="userSpaceOnUse"><stop
   offset="0"
   style="stop-color:#E18330"
   id="stop713" /><stop
   offset="1"
   style="stop-color:#7C0023"
   id="stop714" /><a:midPointStop
   offset="0"
   style="stop-color:#E18330"
   id="midPointStop715" /><a:midPointStop
   offset="0.5"
   style="stop-color:#E18330"
   id="midPointStop716" /><a:midPointStop
   offset="1"
   style="stop-color:#7C0023"
   id="midPointStop717" /></radialGradient><path
   id="path938_1_"
   fill="url(#path938_2_)"
   stroke="#000000"
   d="M46.3,15.8c-1.2,1.9-3.9,4.9-5.2,2.7c-1-1.8-1-5.6,0.9-6.6      c2-1.3,4-2.7,5.7-4C49.2,10.5,47.9,13.5,46.3,15.8z" /><g
   id="g1011_1_"
   i:knockout="Off"><path
   id="path1012_1_"
   fill="#6D1E1E"
   d="M26.9,3.3c3.4,0,4.4,3.2,4.8,5" /><path
   id="path1013_1_"
   fill="#6D1E1E"
   d="M26.4,4.3c3,0.1,4.2,2.5,4.8,5c0-0.1,0.6-0.8,0.7-0.9c0.2-0.2,0.5-0.7,0.5-1       c-0.5-2.5-1.8-4.9-4.8-5C27,2.4,26.5,4.3,26.4,4.3L26.4,4.3z" /></g><g
   id="g1015_1_"
   i:knockout="Off"><path
   id="path1016_2_"
   fill="#6D1E1E"
   d="M31.6,1.9c2.1,2.3,1.1,4,0.2,6.4" /><path
   id="path1017_1_"
   fill="#6D1E1E"
   d="M31,2.8c1.8,2.1,1.1,3.9,0.2,6.2c-0.2,0.4,0.3-0.2,0.3-0.3c0.3-0.4,0.5-0.9,0.8-1.3       C33.2,5.1,34,3.2,32.2,1C32.3,1.1,30.8,2.5,31,2.8L31,2.8z" /></g><g
   id="g1019_1_"
   i:knockout="Off"><path
   id="path1020_1_"
   fill="#6D1E1E"
   d="M39.6,1.1c0.2,1.4-2,3.1-2.8,4.3c-1.2,1.8-3.3,2.1-5.8,3.2" /><path
   id="path1021_1_"
   fill="#6D1E1E"
   d="M39,2c0,1-1.8,2.9-2.6,3.5c-1.3,1.1-3.3,1.5-4.9,2.2c-0.5,0.3-0.9,1.7-1,1.9       c1.4-0.6,2.8-1,4.2-1.7c1.1-0.6,1.7-1.5,2.4-2.5c1.2-1.4,3.1-3.2,3.1-5.1C40.2,0.5,39.1,1.4,39,2L39,2z" /></g><g
   id="g1023_2_"
   i:knockout="Off"><path
   id="path1024_2_"
   fill="#6D1E1E"
   d="M34.4,1.6c1.7,2.3-1.7,4.7-2.8,6.9" /><path
   id="path1025_2_"
   fill="#6D1E1E"
   d="M33.9,2.6C34.8,4,34.1,5,33.1,6.1c-0.7,0.9-1.3,1.7-1.8,2.6c0,0.1-0.3,0.8-0.3,0.7       c0.3-0.3,0.6-0.8,0.8-1.1c1.2-2.1,5-4.9,3.2-7.7C35.1,0.8,33.6,2.2,33.9,2.6L33.9,2.6z" /></g><g
   id="g1027_1_"
   i:knockout="Off"><path
   id="path1028_1_"
   fill="#6D1E1E"
   d="M37.2,0.9c0.2,2.3-2,6.2-5.2,7.1" /><path
   id="path1029_1_"
   fill="#6D1E1E"
   d="M36.6,1.8c0.1,2.5-1.6,4.5-4,5.3c-0.3,0.1-0.5,0.7-0.7,0.9c-0.1,0.1-0.4,0.9-0.5,1       c3.4-1,6.4-5.6,6.3-8.9C37.7,0.2,36.5,1.1,36.6,1.8L36.6,1.8z" /></g><g
   id="g1031_2_"
   i:knockout="Off"><path
   id="path1032_2_"
   fill="#6D1E1E"
   d="M41.9,1.8c-0.4,4-6.3,5.9-11.1,7.1" /><path
   id="path1033_2_"
   fill="#6D1E1E"
   d="M41.3,2.6c-0.3,1.7-2.5,2.6-3.9,3.3c-1.9,0.9-4,1.5-6,2c-0.6,0.2-0.7,1.8-1.1,1.9       c4.9-1.3,11.4-3.4,12.3-8.9C42.5,1.2,41.4,2,41.3,2.6L41.3,2.6z" /></g><g
   id="g1035_1_"
   i:knockout="Off"><path
   id="path1036_1_"
   fill="#6D1E1E"
   d="M44.6,2c-0.4,5-7.8,5.3-13,6.4" /><path
   id="path1037_1_"
   fill="#6D1E1E"
   d="M44.1,2.8c-0.3,2-3.1,2.7-4.9,3.2c-2.2,0.6-4.7,0.9-7,1.4c-0.6,0.2-0.8,1.8-1.1,1.9       C36.5,8.1,44.4,7.7,45.3,1C45.1,1.4,44.1,2.2,44.1,2.8L44.1,2.8z" /></g><g
   id="g925_1_"
   i:knockout="Off"><path
   id="ellipse1004_3_"
   fill="#990000"
   d="M9.8,15.1c1.9-2.2,4.4-3.1,5.7-2s0.8,3.8-1,6c-1.9,2.2-4.4,3.1-5.7,2       C7.5,20,8,17.3,9.8,15.1z" /><path
   id="ellipse1004_1_"
   d="M10.5,15.8c1.3-1.5,3.1-2.1,4-1.4c0.9,0.8,0.5,2.7-0.8,4.2c-1.3,1.5-3.1,2.1-4,1.4       C8.9,19.1,9.2,17.3,10.5,15.8z" /></g><g
   id="g931_1_"
   i:knockout="Off"><g
   id="g932_1_"
   i:knockout="Off"><path
   id="path933_1_"
   fill="#6D1E1E"
   d="M32.6,13.8c1.7,0.5,2.8,1.8,3.3,3.2c0.9-2.6-0.1-5.2-2.1-6c-2.1-0.8-4.6,0.7-5.7,3.1        C29.3,13.5,31,13.3,32.6,13.8z" /></g></g><path
   id="path1000_3_"
   fill="#7E0000"
   d="M32.1,15.8c2.2,0.9,3,4.2,1.8,7.3c-1.3,3.1-4.1,4.8-6.3,3.9c-2.2-0.9-3-4.2-1.8-7.3      C27.1,16.5,29.9,14.8,32.1,15.8z" /><radialGradient
   id="path1000_2_"
   cx="-1937.5396"
   cy="-1503.4238"
   r="4.6182"
   fx="-1937.5396"
   fy="-1503.4238"
   gradientTransform="matrix(0.9485 1.057 -1.0514 1.3582 282.6016 4113.7637)"
   gradientUnits="userSpaceOnUse"><stop
   offset="5.600000e-003"
   style="stop-color:#CACACA"
   id="stop748" /><stop
   offset="0.2698"
   style="stop-color:#D3D3D3"
   id="stop749" /><stop
   offset="0.6909"
   style="stop-color:#EAEAEA"
   id="stop750" /><stop
   offset="1"
   style="stop-color:#FFFFFF"
   id="stop751" /><a:midPointStop
   offset="5.600000e-003"
   style="stop-color:#CACACA"
   id="midPointStop752" /><a:midPointStop
   offset="0.5"
   style="stop-color:#CACACA"
   id="midPointStop753" /><a:midPointStop
   offset="0.2698"
   style="stop-color:#D3D3D3"
   id="midPointStop754" /><a:midPointStop
   offset="0.5"
   style="stop-color:#D3D3D3"
   id="midPointStop755" /><a:midPointStop
   offset="0.6909"
   style="stop-color:#EAEAEA"
   id="midPointStop756" /><a:midPointStop
   offset="0.5"
   style="stop-color:#EAEAEA"
   id="midPointStop757" /><a:midPointStop
   offset="1"
   style="stop-color:#FFFFFF"
   id="midPointStop758" /></radialGradient><path
   id="path1000_1_"
   fill="url(#path1000_2_)"
   d="M31.7,16.9c1.8,0.8,2.4,3.3,1.4,5.9c-1,2.5-3.3,3.9-5,3.1      c-1.8-0.8-2.4-3.3-1.4-5.9C27.7,17.6,30,16.1,31.7,16.9z" /><circle
   id="circle1001_1_"
   cx="28.8"
   cy="22.5"
   r="1.9" /><path
   id="path910_1_"
   fill="#2B0000"
   d="M11.8,24.3c-1.4,0.8-2,1-4.5,1c-2.6,0-4.2-0.9-6.6-0.3c-0.1,6.1,3.1,5.2,8.8,4.4      c1.2-0.2,3.1-1.5,4.4-2.4C14.8,26.4,13.9,24.2,11.8,24.3z" /></g><rect
   id="rect711_1_"
   x="0.5"
   y="0.1"
   i:knockout="Off"
   fill="none"
   width="76"
   height="48" /></g></svg>
