<?xml version="1.0" encoding="UTF-8" standalone="no"?>
<!DOCTYPE svg PUBLIC "-//W3C//DTD SVG 20010904//EN"
"http://www.w3.org/TR/2001/REC-SVG-20010904/DTD/svg10.dtd">
<!-- Created with Sodipodi ("http://www.sodipodi.com/") -->
<svg
   xmlns:x="http://ns.adobe.com/Extensibility/1.0/"
   xmlns:i="http://ns.adobe.com/AdobeIllustrator/10.0/"
   xmlns:graph="http://ns.adobe.com/Graphs/1.0/"
   xmlns="http://www.w3.org/2000/svg"
   xmlns:xlink="http://www.w3.org/1999/xlink"
   xmlns:a="http://ns.adobe.com/AdobeSVGViewerExtensions/3.0/"
   xml:space="preserve"
   i:viewOrigin="233.9648 423.417"
   i:rulerOrigin="0 0"
   i:pageBounds="0 792 612 0"
   width="49.9"
   height="50"
   viewBox="0 0 49.9 50"
   overflow="visible"
   enable-background="new 0 0 49.9 50"
   xmlns:sodipodi="http://sodipodi.sourceforge.net/DTD/sodipodi-0.dtd"
   id="svg602"
   sodipodi:version="0.34"
   sodipodi:docname="C:\msys\home\su_blanc\mldonkey-2.5.12\src\gtk2\rsvg\stock_stop.svg"><defs
   id="defs643" /><sodipodi:namedview
   id="namedview642" /><g
   id="g157"
   i:knockout="Off"
   i:layer="yes"
   i:dimmedPercent="50"
   i:rgbTrio="#4F00FFFF4F00"><radialGradient
   id="polygon616_1_"
   cx="-218.5942"
   cy="421"
   r="51.5155"
   fx="-218.5942"
   fy="421"
   gradientTransform="matrix(1.0026 0 0 -0.9966 234.5084 422.065)"
   gradientUnits="userSpaceOnUse"><stop
   offset="5.600000e-003"
   style="stop-color:#FF9999"
   id="stop608" /><stop
   offset="0.5843"
   style="stop-color:#FF0000"
   id="stop609" /><stop
   offset="1"
   style="stop-color:#990000"
   id="stop610" /><a:midPointStop
   offset="5.600000e-003"
   style="stop-color:#FF9999"
   id="midPointStop611" /><a:midPointStop
   offset="0.5"
   style="stop-color:#FF9999"
   id="midPointStop612" /><a:midPointStop
   offset="0.5843"
   style="stop-color:#FF0000"
   id="midPointStop613" /><a:midPointStop
   offset="0.5"
   style="stop-color:#FF0000"
   id="midPointStop614" /><a:midPointStop
   offset="1"
   style="stop-color:#990000"
   id="midPointStop615" /></radialGradient><polygon
   id="polygon616"
   fill="url(#polygon616_1_)"
   stroke="#650000"
   stroke-width="2"
   stroke-linecap="round"
   stroke-linejoin="bevel"
   stroke-miterlimit="2"
   points="     34.9,1 15,1.2 1,15.1 1.1,35 15.1,49 35.1,49 48.9,35.4 49,15.4 " /><linearGradient
   id="path623_1_"
   gradientUnits="userSpaceOnUse"
   x1="-208.9648"
   y1="420.2744"
   x2="-208.9648"
   y2="389.4126"
   gradientTransform="matrix(1 0 0 -1 233.9648 423.416)"><stop
   offset="5.600000e-003"
   style="stop-color:#FFFFFF"
   id="stop618" /><stop
   offset="1"
   style="stop-color:#FF6666"
   id="stop619" /><a:midPointStop
   offset="5.600000e-003"
   style="stop-color:#FFFFFF"
   id="midPointStop620" /><a:midPointStop
   offset="0.5"
   style="stop-color:#FFFFFF"
   id="midPointStop621" /><a:midPointStop
   offset="1"
   style="stop-color:#FF6666"
   id="midPointStop622" /></linearGradient><path
   id="path623"
   fill="url(#path623_1_)"
   d="M46.9,20.3l0.1-4.7L34,2.9H15.8L3,15.3l0.1,19.2C29.6,34.5,15.1,20.3,46.9,20.3z" /></g><g
   id="Layer_3"
   i:knockout="Off"
   i:layer="yes"
   i:dimmedPercent="3"
   i:rgbTrio="#4F00FFFF4F00"><g
   id="g625"
   i:knockout="Off"><path
   id="path626"
   fill="#FFCD9A"
   d="M26.3,44.7c1.9-0.5,1.9-1.9,1.9-1.9l0.9-2.1c0,0,1.4,0.1,2.2-0.3l13.9-7.7      c1.9-1.1-0.9-6-3.7-4.4L36.7,31c-0.8,0.3-1.7,0.6-2.3-0.3l-0.9-2l0.2-18.6c0-3.4-5.1-3.8-5.1-1.5l0,0l0-0.9      c0-3.4-5.8-3.8-6.1,0.4l0,0.8c-1-3.2-6.7-2.1-6.3,1.6l0,0.6l0,0c0-3.8-5.5-3.6-5.3,0.9L11,24.8c0,0,0.1,9.2,0.6,11.1      c0.6,1.9,1.1,2.1,3.3,4l-0.2,1.9C15.3,43.4,16.4,47.3,26.3,44.7z" /><path
   id="path627"
   i:isolated="yes"
   i:knockout="Off"
   opacity="0.7"
   fill="#CD9966"
   a:adobe-blending-mode="multiply"
   enable-background="new    "
   d="      M28.8,40.4c-0.4,0.1-2.9,0.2-3.6-0.7l-0.4-0.5l-0.4,0.3c-1.9,1.4-6,2.4-7.9,0.3l1.8,1.6l-0.5,0.3c2.4,1.1,5-0.4,7.1-1.7      c1.6,1.2,4.4,1.4,4.7,1.2L28.8,40.4z" /><path
   id="path628"
   i:isolated="yes"
   i:knockout="Off"
   opacity="0.7"
   fill="#CD9966"
   a:adobe-blending-mode="multiply"
   enable-background="new    "
   d="      M42.7,29.4l-6.8,4.1c-3.4-1.6-4.7-1.8-6.6,0.8c-1.6,2.2-3,3.3-3,3.3s0.1-3,1.1-4.8c0.9-1.8,2.8-3.2,5.4-4.9      c1.2,1.5,1.2,4.1,2.5,3.8c3.9-1.3,6.1-3.2,6.1-3.2L42.7,29.4z" /><path
   id="path629"
   i:isolated="yes"
   i:knockout="Off"
   opacity="0.7"
   fill="#CD9966"
   a:adobe-blending-mode="multiply"
   enable-background="new    "
   d="      M19.7,45.3c-1.7-1-2.3-3.5-1.5-3.9c-0.7-0.9-3.5-2.6-3.8-6.5c-0.4-3.9-0.7-6.4,0-7.6c0.5-1.2-0.8-2.8-1.1-4.1      c-0.4-1.4-0.4-7.7-0.4-7.7s-0.5-4.6,0.3-4.9c0.8-0.4,0.7-2-0.2-1.5c-1,0.6-2.1,2.1-2,7.5c0,5.4-0.6,18.9,1.5,21.5      c2.1,2.7,2.2,2,2.2,2C14.4,41.9,15.6,45.6,19.7,45.3z" /><path
   id="path630"
   i:isolated="yes"
   i:knockout="Off"
   opacity="0.7"
   fill="#CD9966"
   a:adobe-blending-mode="multiply"
   enable-background="new    "
   d="      M19.8,23c0,0-1.9-0.2-2.1-1.1C17.6,21,18.6,17.8,18,17c0.3-1.5,0-3.8-0.4-4.9c-0.4-1.1,1.3-2.7,2-3c0.8-0.4-0.4-2-1.1-1.6      c-0.9,0.4-2.5,1.6-2.5,3.2l0,11.1c0,0,0,1.6-0.9,1.5C16.6,23.1,19.8,23,19.8,23z" /><path
   id="path631"
   i:isolated="yes"
   i:knockout="Off"
   opacity="0.7"
   fill="#CD9966"
   a:adobe-blending-mode="multiply"
   enable-background="new    "
   d="      M26.5,21.2c0,0-1.9-0.2-2.1-1.1c-0.2-0.9,0.9-4.1,0.3-4.9c0.3-1.5,0-3.8-0.4-4.9c-0.4-1.1,1.3-2.7,2-3c0.8-0.4-0.4-2-1.1-1.6      c-0.8,0.4-2.4,1.6-2.4,3.2l0,11.1c0,0,0,1.6-0.9,1.5C23.3,21.4,26.5,21.2,26.5,21.2z" /><path
   id="path632"
   i:isolated="yes"
   i:knockout="Off"
   opacity="0.7"
   fill="#CD9966"
   a:adobe-blending-mode="multiply"
   enable-background="new    "
   d="      M31.8,23c0,0-1.9-0.2-2.1-1.1C29.6,21,30.6,17.8,30,17c0.3-1.5,0-3.8-0.4-4.9s1.3-2.7,2-3c0.8-0.4-0.4-2-1.1-1.6      c-0.9,0.4-2.5,1.6-2.5,3.2l0,11.1c0,0,0,1.6-0.9,1.5C28.6,23.2,31.8,23,31.8,23z" /><path
   id="path633"
   i:isolated="yes"
   i:knockout="Off"
   opacity="0.7"
   fill="#CD9966"
   a:adobe-blending-mode="multiply"
   enable-background="new    "
   d="      M30.7,28.1c-1.5,0.5-5.5,0.8-6.8,0.6c-1.3-0.2-4.3,1.4-5.8,0.3c1.9,0.2,2.6-1.1,4.5-1.3c2.1-0.2,3.8-0.5,4.9-0.5      S30.7,28.1,30.7,28.1z" /><path
   id="path634"
   i:isolated="yes"
   i:knockout="Off"
   opacity="0.7"
   fill="#CD9966"
   a:adobe-blending-mode="multiply"
   enable-background="new    "
   d="      M30.4,29.6c-1.7,0.9-6.4,4.2-6.6,5.9C23.7,32.6,26.9,29.2,30.4,29.6z" /><path
   id="path635"
   i:isolated="yes"
   i:knockout="Off"
   opacity="0.7"
   fill="#CD9966"
   a:adobe-blending-mode="multiply"
   enable-background="new    "
   d="      M22,26.4c-2.1,0.5-3.2,1.5-4.1,1.3c-0.9-0.1-2.1-1.1-2.1-1.1C17.5,26.8,21.3,26.6,22,26.4z" /><path
   id="path636"
   i:isolated="yes"
   i:knockout="Off"
   opacity="0.95"
   fill="#FFFFFF"
   a:adobe-blending-mode="lighten"
   enable-background="new    "
   d="      M42.8,29c1.9,1.2,1.1,2.1,0.8,2.7c-0.4,0.5-7.9,4.4-7.9,4.4s-5,3.4-6,3.3c-0.9-0.1-1.6,1.3-2.6,1.2c2.3,0.1,4.6-0.2,6.1-1.3      c1.5-1.2,11.6-6.6,11.6-6.6S46,29.3,42.8,29z" /><path
   id="path637"
   i:isolated="yes"
   i:knockout="Off"
   opacity="0.95"
   fill="#FFFFFF"
   a:adobe-blending-mode="lighten"
   enable-background="new    "
   d="      M32.1,9.2c-0.3,0.7-0.5,2.5-0.1,3.4c0.4,0.9,0.5,1.6,0.1,2.5c-0.3,0.9-0.7,3.7-0.4,4.6c0.4,0.9,0.4,2.7,0.4,2.7l-0.4,1l1.4,3.3      l0.4-15.9C33.3,10.9,32.8,9.6,32.1,9.2z" /><path
   id="path638"
   i:isolated="yes"
   i:knockout="Off"
   opacity="0.95"
   fill="#FFFFFF"
   a:adobe-blending-mode="lighten"
   enable-background="new    "
   d="      M26.9,7.4c-0.3,0.7-0.5,2.5-0.1,3.4c0.4,0.9,0.5,1.6,0.1,2.5c-0.2,0.9-0.7,3.7-0.4,4.6c0.4,0.9,0.4,2.7,0.4,2.7l-1.1,1.1      l2.2,0.7l0.2-13.3C28.2,9.1,27.7,7.8,26.9,7.4z" /><path
   id="path639"
   i:isolated="yes"
   i:knockout="Off"
   opacity="0.95"
   fill="#FFFFFF"
   a:adobe-blending-mode="lighten"
   enable-background="new    "
   d="      M20.9,8.6c-0.3,0.7-0.5,2.5-0.1,3.4c0.4,0.9,0.5,1.6,0.1,2.5c-0.3,0.9-0.7,3.7-0.4,4.6c0.4,0.9,0.5,1,0.5,1l-0.7,2.4l3.4-0.7      L22,21.4l0.1-11.2C22,10.1,21.6,8.8,20.9,8.6z" /><path
   id="path640"
   i:isolated="yes"
   i:knockout="Off"
   opacity="0.95"
   fill="#FFFFFF"
   a:adobe-blending-mode="lighten"
   enable-background="new    "
   d="      M14.4,9.9c-0.3,0.7-0.5,2.5-0.1,3.4c0.4,0.9,0.5,1.6,0.1,2.5c-0.3,0.9-0.7,3.7-0.4,4.6c0.4,0.9,0.5,1,0.5,1l-0.7,2.4l3.4-0.7      l-1.6-0.4l0.1-11.2C15.6,11.6,15.1,10.3,14.4,9.9z" /><path
   stroke="#5D0000"
   stroke-width="2.0618"
   stroke-linejoin="round"
   stroke-miterlimit="2"
   d="M15.2,44      c0.4,0.5,0.9,0.8,1.6,1.2c2.2,1.1,5.4,1.1,9.8-0.1c1.9-0.5,2.1-1.8,2.1-2.1c0-0.1,0.6-1.4,0.8-1.7c0.5,0.1,1.5,0,2.2-0.3      l13.9-7.7c1.4-0.8,0.8-2.9-0.3-4.2c-0.5-0.6-1.2-1-1.9-1.3c-0.5-0.2-1.3-0.3-2.2,0.2l-4.9,2.7c-0.9,0.4-1.3,0.4-1.6,0      c-0.1-0.2-0.7-1.6-0.8-1.8c0-0.2,0.3-18.5,0.3-18.5c-0.1-0.9-0.4-1.7-0.8-2.3c-0.5-0.6-1.3-1-1.9-1.2C30.6,6.6,29.7,6.7,29,7      c-0.3-1-1.1-1.8-2.2-2.2c-2-0.7-4.2,0.3-4.7,2.7c-0.1-0.1-0.2-0.2-0.2-0.2c-0.9-0.6-2.4-0.9-3.5-0.5c-1,0.3-2,1-2.5,2.2      c-0.1-0.1-0.2-0.3-0.3-0.3c-0.7-0.6-1.6-0.8-2.6-0.6c-1.4,0.2-2.8,1.4-2.7,3.8l-0.1,12.6c0,0.4,0.1,9.3,0.6,11.2      c0.3,1,0.7,1.7,1.2,2.2c0.4,0.5,1,0.9,1.8,1.6l0.1,2.2C13.9,41.8,14.7,43.4,15.2,44z M15,42.2l0.1-2.3l-0.8-0.8      c-0.7-0.7-1.3-1-1.6-1.4c-0.4-0.5-0.7-1-0.9-1.8c-0.5-1.5-0.6-8.4-0.6-10.9l0.1-12.7c-0.1-2,1-3,2-3.2C13.9,9,14.4,9,14.8,9.4      c0.4,0.4,0.7,1,0.7,1.8l0,0c-0.1,2.4-0.1,11.4-0.1,11.4l1.7-0.5l-0.6-0.2l0.1-11.1c-0.2-1.7,1.1-2.7,2.1-3      c0.9-0.3,1.9-0.2,2.5,0.3c0.1,0.1,0.2,0.2,0.3,0.3c0.2,0.2,0.3,0.5,0.3,0.7c0,0.7,0.1,1.6,0.1,1.6l0.1,0c0,2.2-0.1,7.8-0.1,9.3      c0,0.2-0.3,0.9-0.3,0.9l2.1-0.1l-0.6-0.6l0.1-10.2c0-0.3,0-0.5-0.1-0.8l0-0.8c0.2-2.3,2.3-3,3.7-2.6c0.4,0.1,0.7,0.4,0.9,0.5      c0.3,0.3,0.4,0.8,0.5,1.3l-0.4,14l1.8,0.8l-0.9-1.4L29,8.9l0,0c-0.1-1,1.2-1.4,2.3-1c1,0.3,1.7,1.1,1.7,2.2l-0.2,18.7l1.1,2.2      c1.2,1.3,2.4,0.8,3.1,0.4l5-2.7c0.5-0.2,0.9-0.4,1.4-0.2c0.5,0.2,0.9,0.5,1.1,0.8c0.9,1,1.2,2.4,0.4,3l-13.9,7.7      c-0.5,0.3-1.6,0.3-1.9,0.2l-0.3-0.1l-1,2.3l0,0.1c0,0,0,1.2-1.6,1.6c-4.1,1-7.1,1.1-9,0.2c-0.5-0.3-0.8-0.6-1.1-0.8      C15.6,43.1,15.3,42.5,15,42.2z"
   id="path641" /></g></g></svg>
