<?xml version="1.0" encoding="UTF-8" standalone="no"?>
<!DOCTYPE svg PUBLIC "-//W3C//DTD SVG 20010904//EN"
"http://www.w3.org/TR/2001/REC-SVG-20010904/DTD/svg10.dtd">
<!-- Created with Sodipodi ("http://www.sodipodi.com/") -->
<svg
   xmlns:x="http://ns.adobe.com/Extensibility/1.0/"
   xmlns:i="http://ns.adobe.com/AdobeIllustrator/10.0/"
   xmlns:graph="http://ns.adobe.com/Graphs/1.0/"
   xmlns="http://www.w3.org/2000/svg"
   xmlns:xlink="http://www.w3.org/1999/xlink"
   xmlns:a="http://ns.adobe.com/AdobeSVGViewerExtensions/3.0/"
   xml:space="preserve"
   i:viewOrigin="274.3242 492.9082"
   i:rulerOrigin="0 0"
   i:pageBounds="0 792 612 0"
   width="49"
   height="48"
   viewBox="0 0 49 48"
   overflow="visible"
   enable-background="new 0 0 49 48"
   xmlns:sodipodi="http://sodipodi.sourceforge.net/DTD/sodipodi-0.dtd"
   id="svg602"
   sodipodi:version="0.34"
   sodipodi:docname="C:\msys\home\su_blanc\mldonkey-2.5.12\src\gtk2\rsvg\stock_download_directory.svg"><defs
   id="defs704" /><sodipodi:namedview
   id="base" /><g
   id="Layer_1_2_"
   i:knockout="Off"
   i:layer="yes"
   i:dimmedPercent="50"
   i:rgbTrio="#4F008000FFFF"><g
   id="g606"
   i:knockout="Off"><g
   id="g623"
   i:knockout="Off"><path
   id="path624"
   fill="#FFFFFF"
   stroke="#58587C"
   stroke-width="1.9316"
   stroke-miterlimit="2"
   d="M41.1,37.2       c0,2.6-0.5,4.5,3.9,4.5L5.6,41.9C3,41.9,1,39.8,1,37.2V10.8c0-2.6,2-4.7,4.6-4.7h15.5l3.4,4.5h14.9c1.5,0,1.6,1.2,1.5,2.9v23.6       h0.2V37.2z" /><linearGradient
   id="path631_1_"
   gradientUnits="userSpaceOnUse"
   x1="-605.2456"
   y1="478.333"
   x2="-638.7815"
   y2="507.6662"
   gradientTransform="matrix(1 0 0 -1 642.5186 518)"><stop
   offset="0"
   style="stop-color:#F7F7FF"
   id="stop610" /><stop
   offset="1"
   style="stop-color:#E6E6E6"
   id="stop611" /><a:midPointStop
   offset="0"
   style="stop-color:#F7F7FF"
   id="midPointStop612" /><a:midPointStop
   offset="0.5"
   style="stop-color:#F7F7FF"
   id="midPointStop613" /><a:midPointStop
   offset="1"
   style="stop-color:#E6E6E6"
   id="midPointStop614" /></linearGradient><path
   id="path631"
   fill="url(#path631_1_)"
   d="M39.4,35.8c0,2.2-1.8,4-4.2,4H7.1c-2.3,0-4.2-1.8-4.2-4V12.9c0-2.2,1.8-4,4.2-4       h14.1l3.2,3.9H38c1.3,0,1.5,1.1,1.3,2.6L39.4,35.8L39.4,35.8z" /><g
   id="g632"
   i:knockout="Off"><path
   id="path633"
   i:isolated="yes"
   i:knockout="Off"
   opacity="0.7"
   fill="#FFFFFF"
   stroke="#002B92"
   stroke-width="1.8378"
   enable-background="new    "
   d="        M10.4,38.6c0,1.7-2.3,3.3-4.5,3.3l37.9-0.1c2.4,0,4.3-1.5,4.3-3.2V20.3c0-1.7-2-3.2-4.3-3.2H29.1l-3.2,3.2h-14        c-1.3,0-1.6,0.9-1.5,2V38.6z" /><linearGradient
   id="path647_1_"
   gradientUnits="userSpaceOnUse"
   x1="-630.52"
   y1="478.1504"
   x2="-592.4917"
   y2="478.1504"
   gradientTransform="matrix(1.0755 0 0 -1 684.7908 518)"><stop
   offset="0"
   style="stop-color:#FFFFFF"
   id="stop619" /><stop
   offset="0.1208"
   style="stop-color:#FBFBFE"
   id="stop620" /><stop
   offset="0.2458"
   style="stop-color:#EEEEFA"
   id="stop621" /><stop
   offset="0.3727"
   style="stop-color:#DADAF3"
   id="stop622" /><stop
   offset="0.5009"
   style="stop-color:#BDBDEA"
   id="stop623" /><stop
   offset="0.6302"
   style="stop-color:#9797DE"
   id="stop624" /><stop
   offset="0.7604"
   style="stop-color:#6969CF"
   id="stop625" /><stop
   offset="0.8889"
   style="stop-color:#3434BF"
   id="stop626" /><stop
   offset="1"
   style="stop-color:#0000AE"
   id="stop627" /><a:midPointStop
   offset="0"
   style="stop-color:#FFFFFF"
   id="midPointStop628" /><a:midPointStop
   offset="0.5"
   style="stop-color:#FFFFFF"
   id="midPointStop629" /><a:midPointStop
   offset="0.1208"
   style="stop-color:#FBFBFE"
   id="midPointStop630" /><a:midPointStop
   offset="0.5"
   style="stop-color:#FBFBFE"
   id="midPointStop631" /><a:midPointStop
   offset="0.2458"
   style="stop-color:#EEEEFA"
   id="midPointStop632" /><a:midPointStop
   offset="0.5"
   style="stop-color:#EEEEFA"
   id="midPointStop633" /><a:midPointStop
   offset="0.3727"
   style="stop-color:#DADAF3"
   id="midPointStop634" /><a:midPointStop
   offset="0.5"
   style="stop-color:#DADAF3"
   id="midPointStop635" /><a:midPointStop
   offset="0.5009"
   style="stop-color:#BDBDEA"
   id="midPointStop636" /><a:midPointStop
   offset="0.5"
   style="stop-color:#BDBDEA"
   id="midPointStop637" /><a:midPointStop
   offset="0.6302"
   style="stop-color:#9797DE"
   id="midPointStop638" /><a:midPointStop
   offset="0.5"
   style="stop-color:#9797DE"
   id="midPointStop639" /><a:midPointStop
   offset="0.7604"
   style="stop-color:#6969CF"
   id="midPointStop640" /><a:midPointStop
   offset="0.5"
   style="stop-color:#6969CF"
   id="midPointStop641" /><a:midPointStop
   offset="0.8889"
   style="stop-color:#3434BF"
   id="midPointStop642" /><a:midPointStop
   offset="0.5"
   style="stop-color:#3434BF"
   id="midPointStop643" /><a:midPointStop
   offset="1"
   style="stop-color:#0000AE"
   id="midPointStop644" /></linearGradient><path
   id="path647"
   i:isolated="yes"
   i:knockout="Off"
   opacity="0.4"
   fill="url(#path647_1_)"
   enable-background="new    "
   d="        M11.1,38.2c0,1.7-2.2,3.3-4.4,3.3l36.7-0.1c2.3,0,4.2-1.5,4.2-3.2H11.1z" /><linearGradient
   id="path658_1_"
   gradientUnits="userSpaceOnUse"
   x1="-598.6323"
   y1="502.623"
   x2="-617.7971"
   y2="489.1708"
   gradientTransform="matrix(1 0 0 -1 642.5186 518)"><stop
   offset="0"
   style="stop-color:#FFFFFF"
   id="stop647" /><stop
   offset="0.1402"
   style="stop-color:#C3E7FF"
   id="stop648" /><stop
   offset="0.3652"
   style="stop-color:#5BBDFF"
   id="stop649" /><stop
   offset="1"
   style="stop-color:#446CF6"
   id="stop650" /><a:midPointStop
   offset="0"
   style="stop-color:#FFFFFF"
   id="midPointStop651" /><a:midPointStop
   offset="0.5"
   style="stop-color:#FFFFFF"
   id="midPointStop652" /><a:midPointStop
   offset="0.1402"
   style="stop-color:#C3E7FF"
   id="midPointStop653" /><a:midPointStop
   offset="0.5"
   style="stop-color:#C3E7FF"
   id="midPointStop654" /><a:midPointStop
   offset="0.3652"
   style="stop-color:#5BBDFF"
   id="midPointStop655" /><a:midPointStop
   offset="0.5"
   style="stop-color:#5BBDFF"
   id="midPointStop656" /><a:midPointStop
   offset="1"
   style="stop-color:#446CF6"
   id="midPointStop657" /></linearGradient><path
   id="path658"
   i:isolated="yes"
   i:knockout="Off"
   opacity="0.7"
   fill="url(#path658_1_)"
   enable-background="new    "
   d="        M10.4,30.7c2.4,0,35.6,0,36.7,0v-10c0-1.7-1.8-3.2-4.3-3.2h-14l-3.2,3.2H11.9c-1.3,0-1.5,0.9-1.3,2v8.1L10.4,30.7L10.4,30.7z" /><path
   id="path659"
   i:isolated="yes"
   i:knockout="Off"
   opacity="0.4"
   fill="#FFFFD7"
   enable-background="new    "
   d="        M42.9,17.5H28.6l-3.2,3.2h-5c0.6,4,6.4,7.1,13.3,7.1c7.2,0,13.2-3.4,13.3-7.7C46.7,18.6,45,17.5,42.9,17.5z" /><path
   id="path660"
   i:isolated="yes"
   i:knockout="Off"
   opacity="0.7"
   fill="none"
   stroke="#002B92"
   stroke-width="1.8378"
   enable-background="new    "
   d="        M10.4,38.6c0,1.7-2.3,3.3-4.5,3.3l37.9-0.1c2.4,0,4.3-1.5,4.3-3.2V20.3c0-1.7-2-3.2-4.3-3.2H29.1l-3.2,3.2h-14        c-1.3,0-1.6,0.9-1.5,2V38.6z" /></g></g><rect
   id="rect660"
   x="0.5"
   i:knockout="Off"
   fill="none"
   width="48"
   height="48" /></g><g
   id="g662"
   i:knockout="Off"><path
   id="path552"
   i:isolated="yes"
   i:knockout="Off"
   opacity="0.2"
   enable-background="new    "
   d="M47.6,18.7l-9.7,12.7      c-0.2,0.2-0.6,0.5-1,0.5c-0.4,0-0.7-0.1-1-0.5l-9.6-12.7c-0.2-0.4-0.4-0.8-0.1-1.2c0.2-0.4,0.6-0.7,1.1-0.7c0,0,3.4,0,3.8,0      c0-1.4-0.4-3.5-1.7-5.5c-2.4-4-7-6.7-13.6-8.2c-0.6-0.1-1-0.7-1-1.3c0.1-0.6,0.6-1.1,1.2-1.1c10,0,17.5,2.6,22.2,7.7      c3,3.2,4,6.6,4.3,8.4c0.4,0,4.1,0,4.1,0c0.5,0,0.8,0.2,1.1,0.7S47.8,18.4,47.6,18.7z" /><path
   id="path553"
   fill="#3A3333"
   d="M48.2,18l-9.7,12.7c-0.1,0.2-0.5,0.5-0.8,0.5c-0.4,0-0.7-0.1-1-0.5L26.9,18      c-0.2-0.4-0.4-0.8-0.1-1.2c0.2-0.4,0.6-0.7,1.1-0.7c0,0,3.4,0,3.8,0c0-1.4-0.4-3.4-1.7-5.5c-2.4-4-7-6.7-13.6-8.2      c-0.6-0.1-1-0.7-1-1.3C15.6,0.5,16.1,0,16.7,0c10,0,17.5,2.6,22.2,7.7c3,3.2,4,6.6,4.3,8.4c0.4,0,4.1,0,4.1,0      c0.5,0,0.8,0.2,1.1,0.7C48.5,17.2,48.5,17.6,48.2,18z" /><path
   id="path554"
   fill="#3A3333"
   d="M48,17.9l-9.7,12.8c-0.1,0.2-0.5,0.4-0.7,0.4c-0.2,0-0.6-0.1-0.7-0.4l-9.7-12.8      c-0.2-0.2-0.2-0.6-0.1-1s0.5-0.5,0.8-0.5c0,0,3.6,0,4.1,0c0-1.3-0.2-3.6-1.7-6c-2.4-4.1-7.1-6.8-13.7-8.3      c-0.5-0.1-0.7-0.5-0.7-1s0.5-0.8,1-0.8c10,0,17.3,2.5,22,7.6c3,3.2,4,6.6,4.3,8.5c0.4,0,4.2,0,4.2,0c0.4,0,0.7,0.2,0.8,0.5      C48.3,17.3,48.2,17.6,48,17.9z" /><path
   id="path555"
   fill="#583333"
   d="M47.8,17.8l-9.7,12.7c-0.1,0.1-0.4,0.2-0.5,0.2c-0.1,0-0.4-0.1-0.5-0.2l-9.7-12.7      c-0.1-0.2-0.1-0.5-0.1-0.7c0.1-0.2,0.4-0.4,0.6-0.4c0,0,3.4,0,4.3,0c0-1.2-0.2-3.7-1.8-6.4c-2.4-4.1-7.1-7-13.9-8.4      c-0.4-0.1-0.6-0.4-0.5-0.7c0-0.4,0.4-0.6,0.6-0.6c9.8,0,17.2,2.5,21.7,7.6c3.1,3.4,4,7,4.3,8.6c1,0,4.4,0,4.4,0      c0.2,0,0.5,0.1,0.6,0.4C47.9,17.3,47.9,17.5,47.8,17.8z" /><linearGradient
   id="path562_1_"
   gradientUnits="userSpaceOnUse"
   x1="-1808.0425"
   y1="-898.3833"
   x2="-1546.938"
   y2="-898.3833"
   gradientTransform="matrix(-4.952094e-012 -0.1103 -0.1103 4.952094e-012 -67.1758 -169.365)"><stop
   offset="0"
   style="stop-color:#FFCC66"
   id="stop668" /><stop
   offset="1"
   style="stop-color:#FF9900"
   id="stop669" /><a:midPointStop
   offset="0"
   style="stop-color:#FFCC66"
   id="midPointStop670" /><a:midPointStop
   offset="0.5"
   style="stop-color:#FFCC66"
   id="midPointStop671" /><a:midPointStop
   offset="1"
   style="stop-color:#FF9900"
   id="midPointStop672" /></linearGradient><path
   id="path562"
   fill="url(#path562_1_)"
   d="M42.2,17.3h5L37.6,30l-9.7-12.7h5C33,15.6,33.3,4.8,16.7,1.2      C39.8,1.2,42,15.2,42.2,17.3z" /><path
   fill="#FFFF99"
   d="M37.8,29.6L29,17.4h-1.1L37.6,30L37.8,29.6z M18.6,1.2c-0.6,0-1.3,0-1.9,0C33.3,4.8,33,15.6,32.9,17.3      h0.8C33.9,15.6,34.1,4.8,18.6,1.2z"
   id="path674" /><linearGradient
   id="path562_3_"
   gradientUnits="userSpaceOnUse"
   x1="-1695.4238"
   y1="-881.6104"
   x2="-1546.9176"
   y2="-881.6104"
   gradientTransform="matrix(-4.952094e-012 -0.1103 -0.1103 4.952094e-012 -67.1758 -169.365)"><stop
   offset="0"
   style="stop-color:#FFB600"
   id="stop676" /><stop
   offset="3.384435e-002"
   style="stop-color:#FFBA0E"
   id="stop677" /><stop
   offset="0.1877"
   style="stop-color:#FFCC4B"
   id="stop678" /><stop
   offset="0.3406"
   style="stop-color:#FFDC80"
   id="stop679" /><stop
   offset="0.4889"
   style="stop-color:#FFE8AA"
   id="stop680" /><stop
   offset="0.6318"
   style="stop-color:#FFF2CC"
   id="stop681" /><stop
   offset="0.7676"
   style="stop-color:#FFF9E4"
   id="stop682" /><stop
   offset="0.8935"
   style="stop-color:#FFFEF2"
   id="stop683" /><stop
   offset="1"
   style="stop-color:#FFFFF7"
   id="stop684" /><a:midPointStop
   offset="0"
   style="stop-color:#FFB600"
   id="midPointStop685" /><a:midPointStop
   offset="0.5"
   style="stop-color:#FFB600"
   id="midPointStop686" /><a:midPointStop
   offset="3.384435e-002"
   style="stop-color:#FFBA0E"
   id="midPointStop687" /><a:midPointStop
   offset="0.5"
   style="stop-color:#FFBA0E"
   id="midPointStop688" /><a:midPointStop
   offset="0.1877"
   style="stop-color:#FFCC4B"
   id="midPointStop689" /><a:midPointStop
   offset="0.5"
   style="stop-color:#FFCC4B"
   id="midPointStop690" /><a:midPointStop
   offset="0.3406"
   style="stop-color:#FFDC80"
   id="midPointStop691" /><a:midPointStop
   offset="0.5"
   style="stop-color:#FFDC80"
   id="midPointStop692" /><a:midPointStop
   offset="0.4889"
   style="stop-color:#FFE8AA"
   id="midPointStop693" /><a:midPointStop
   offset="0.5"
   style="stop-color:#FFE8AA"
   id="midPointStop694" /><a:midPointStop
   offset="0.6318"
   style="stop-color:#FFF2CC"
   id="midPointStop695" /><a:midPointStop
   offset="0.5"
   style="stop-color:#FFF2CC"
   id="midPointStop696" /><a:midPointStop
   offset="0.7676"
   style="stop-color:#FFF9E4"
   id="midPointStop697" /><a:midPointStop
   offset="0.5"
   style="stop-color:#FFF9E4"
   id="midPointStop698" /><a:midPointStop
   offset="0.8935"
   style="stop-color:#FFFEF2"
   id="midPointStop699" /><a:midPointStop
   offset="0.5"
   style="stop-color:#FFFEF2"
   id="midPointStop700" /><a:midPointStop
   offset="1"
   style="stop-color:#FFFFF7"
   id="midPointStop701" /></linearGradient><path
   id="path562_2_"
   fill="url(#path562_3_)"
   d="M42.5,17.6h-9.2c-0.6-5.2,1-12.8-15.6-16.4C40.7,1.2,41.1,13.9,42.5,17.6z" /></g></g></svg>
