<?xml version="1.0" encoding="UTF-8" standalone="no"?>
<!DOCTYPE svg PUBLIC "-//W3C//DTD SVG 20010904//EN"
"http://www.w3.org/TR/2001/REC-SVG-20010904/DTD/svg10.dtd">
<!-- Created with Sodipodi ("http://www.sodipodi.com/") -->
<svg
   xmlns:x="http://ns.adobe.com/Extensibility/1.0/"
   xmlns:i="http://ns.adobe.com/AdobeIllustrator/10.0/"
   xmlns:graph="http://ns.adobe.com/Graphs/1.0/"
   xmlns="http://www.w3.org/2000/svg"
   xmlns:xlink="http://www.w3.org/1999/xlink"
   xmlns:a="http://ns.adobe.com/AdobeSVGViewerExtensions/3.0/"
   xml:space="preserve"
   i:viewOrigin="33.9712 639.207"
   i:rulerOrigin="0 0"
   i:pageBounds="0 792 612 0"
   width="48"
   height="48"
   viewBox="0 0 48 48"
   overflow="visible"
   enable-background="new 0 0 48 48"
   xmlns:sodipodi="http://sodipodi.sourceforge.net/DTD/sodipodi-0.dtd"
   id="svg602"
   sodipodi:version="0.34"
   sodipodi:docname="C:\msys\home\su_blanc\mldonkey-2.5.12\src\gtk2\rsvg\stock_all_servers.svg"><defs
   id="defs790" /><sodipodi:namedview
   id="namedview789" /><g
   id="Layer_2_1_"
   i:knockout="Off"
   i:layer="yes"
   i:dimmedPercent="3"
   i:rgbTrio="#FFFF4F004F00"><g
   id="g606"><path
   id="path606_2_"
   d="M20.3,41.7c-1,2.4,0.2,5,2.5,6c2.4,1,5-0.1,6-2.5c1-2.3-0.2-5-2.5-6C24,38.2,21.3,39.2,20.3,41.7z" /><path
   id="path607_2_"
   d="M16.1,42.4l12,5l1.7-4.2c0,0-1.7-0.7-2.7-1.1c0.7-1.6,3.8-8.8,3.8-8.8l-3.2-1.3c0,0-3.1,7.2-3.8,8.8      c-1.1-0.4-6-2.5-6-2.5L16.1,42.4z" /><path
   id="path606"
   d="M4.3,35c-1,2.4,0.1,5,2.5,6c2.4,1,5-0.1,6-2.5c1-2.3-0.2-5-2.5-6C7.9,31.5,5.3,32.6,4.3,35z" /><path
   id="path607"
   d="M0,35.7l24.1,10l1.7-4.2c0,0-13.8-5.7-14.9-6.1c0.7-1.6,8.3-20.3,8.3-20.3l-3.2-1.3c0,0-7.7,18.7-8.3,20.3      c-1.1-0.4-6-2.5-6-2.5L0,35.7z" /><linearGradient
   id="rect620_1_"
   gradientUnits="userSpaceOnUse"
   x1="-216.7012"
   y1="635.7402"
   x2="-216.7012"
   y2="632.3013"
   gradientTransform="matrix(0.6272 0.2577 0.322 -0.7836 -53.2929 592.0135)"><stop
   offset="0"
   style="stop-color:#C2C4B5"
   id="stop612" /><stop
   offset="0.1851"
   style="stop-color:#E1E1D1"
   id="stop613" /><stop
   offset="0.3146"
   style="stop-color:#F1F2E1"
   id="stop614" /><stop
   offset="1"
   style="stop-color:#83867B"
   id="stop615" /><a:midPointStop
   offset="0"
   style="stop-color:#C2C4B5"
   id="midPointStop616" /><a:midPointStop
   offset="0.5"
   style="stop-color:#C2C4B5"
   id="midPointStop617" /><a:midPointStop
   offset="0.1851"
   style="stop-color:#E1E1D1"
   id="midPointStop618" /><a:midPointStop
   offset="0.5"
   style="stop-color:#E1E1D1"
   id="midPointStop619" /><a:midPointStop
   offset="0.3146"
   style="stop-color:#F1F2E1"
   id="midPointStop620" /><a:midPointStop
   offset="0.5"
   style="stop-color:#F1F2E1"
   id="midPointStop621" /><a:midPointStop
   offset="1"
   style="stop-color:#83867B"
   id="midPointStop622" /></linearGradient><polygon
   id="rect620"
   fill="url(#rect620_1_)"
   points="1.5,32.3 29.6,43.8 28.5,46.4 0.4,34.9 " /><linearGradient
   id="path633_1_"
   gradientUnits="userSpaceOnUse"
   x1="-227.4868"
   y1="704.0664"
   x2="-224.6958"
   y2="704.0664"
   gradientTransform="matrix(0.6997 0.2875 0.1379 -0.3355 72.7921 330.643)"><stop
   offset="0"
   style="stop-color:#C2C4B5"
   id="stop625" /><stop
   offset="0.1851"
   style="stop-color:#E1E1D1"
   id="stop626" /><stop
   offset="0.3146"
   style="stop-color:#F1F2E1"
   id="stop627" /><stop
   offset="1"
   style="stop-color:#83867B"
   id="stop628" /><a:midPointStop
   offset="0"
   style="stop-color:#C2C4B5"
   id="midPointStop629" /><a:midPointStop
   offset="0.5"
   style="stop-color:#C2C4B5"
   id="midPointStop630" /><a:midPointStop
   offset="0.1851"
   style="stop-color:#E1E1D1"
   id="midPointStop631" /><a:midPointStop
   offset="0.5"
   style="stop-color:#E1E1D1"
   id="midPointStop632" /><a:midPointStop
   offset="0.3146"
   style="stop-color:#F1F2E1"
   id="midPointStop633" /><a:midPointStop
   offset="0.5"
   style="stop-color:#F1F2E1"
   id="midPointStop634" /><a:midPointStop
   offset="1"
   style="stop-color:#83867B"
   id="midPointStop635" /></linearGradient><path
   id="path633"
   fill="url(#path633_1_)"
   d="M10.9,34.1c-0.1,0.3-2.1-0.6-2-0.8l3.6-8.7l2,0.8L10.9,34.1L10.9,34.1z" /><radialGradient
   id="circle640_1_"
   cx="-2271.7905"
   cy="1570.2051"
   r="44.2556"
   fx="-2271.7905"
   fy="1570.2051"
   gradientTransform="matrix(8.086006e-002 3.314809e-002 3.964165e-002 -9.622819e-002 129.4629 262.1814)"
   gradientUnits="userSpaceOnUse"><stop
   offset="0"
   style="stop-color:#F1F200"
   id="stop638" /><stop
   offset="1"
   style="stop-color:#FF0000"
   id="stop639" /><a:midPointStop
   offset="0"
   style="stop-color:#F1F200"
   id="midPointStop640" /><a:midPointStop
   offset="0.5"
   style="stop-color:#F1F200"
   id="midPointStop641" /><a:midPointStop
   offset="1"
   style="stop-color:#FF0000"
   id="midPointStop642" /></radialGradient><circle
   id="circle640"
   fill="url(#circle640_1_)"
   cx="8.5"
   cy="36.7"
   r="3.7" /><linearGradient
   id="path633_3_"
   gradientUnits="userSpaceOnUse"
   x1="-204.5649"
   y1="700.9453"
   x2="-201.7735"
   y2="700.9453"
   gradientTransform="matrix(0.6997 0.2875 0.1379 -0.3355 72.7921 330.643)"><stop
   offset="0"
   style="stop-color:#C2C4B5"
   id="stop645" /><stop
   offset="0.1851"
   style="stop-color:#E1E1D1"
   id="stop646" /><stop
   offset="0.3146"
   style="stop-color:#F1F2E1"
   id="stop647" /><stop
   offset="1"
   style="stop-color:#83867B"
   id="stop648" /><a:midPointStop
   offset="0"
   style="stop-color:#C2C4B5"
   id="midPointStop649" /><a:midPointStop
   offset="0.5"
   style="stop-color:#C2C4B5"
   id="midPointStop650" /><a:midPointStop
   offset="0.1851"
   style="stop-color:#E1E1D1"
   id="midPointStop651" /><a:midPointStop
   offset="0.5"
   style="stop-color:#E1E1D1"
   id="midPointStop652" /><a:midPointStop
   offset="0.3146"
   style="stop-color:#F1F2E1"
   id="midPointStop653" /><a:midPointStop
   offset="0.5"
   style="stop-color:#F1F2E1"
   id="midPointStop654" /><a:midPointStop
   offset="1"
   style="stop-color:#83867B"
   id="midPointStop655" /></linearGradient><path
   id="path633_2_"
   fill="url(#path633_3_)"
   d="M26.5,41.7c-0.1,0.3-2.1-0.6-2-0.8l3.6-8.7l2,0.8L26.5,41.7L26.5,41.7z" /><radialGradient
   id="circle640_3_"
   cx="-2071.0972"
   cy="1570.1689"
   r="44.255"
   fx="-2071.0972"
   fy="1570.1689"
   gradientTransform="matrix(8.086006e-002 3.314809e-002 3.964165e-002 -9.622819e-002 129.4629 262.1814)"
   gradientUnits="userSpaceOnUse"><stop
   offset="0"
   style="stop-color:#F1F200"
   id="stop658" /><stop
   offset="1"
   style="stop-color:#FF0000"
   id="stop659" /><a:midPointStop
   offset="0"
   style="stop-color:#F1F200"
   id="midPointStop660" /><a:midPointStop
   offset="0.5"
   style="stop-color:#F1F200"
   id="midPointStop661" /><a:midPointStop
   offset="1"
   style="stop-color:#FF0000"
   id="midPointStop662" /></radialGradient><circle
   id="circle640_2_"
   fill="url(#circle640_3_)"
   cx="24.8"
   cy="43.4"
   r="3.7" /><g
   id="g664"><polygon
   id="polygon649"
   points="5.2,11.5 5.2,29.5 18.5,34.9 32.1,23.3 32.1,5.3 18.8,0 " /><linearGradient
   id="polygon712_2_"
   gradientUnits="userSpaceOnUse"
   x1="-831.5908"
   y1="-261.2246"
   x2="-832.4375"
   y2="-269.692"
   gradientTransform="matrix(1 0 0 1 850.8975 276.5723)"><stop
   offset="0"
   style="stop-color:#F2F2F2"
   id="stop667" /><stop
   offset="0.3121"
   style="stop-color:#EEEEEE"
   id="stop668" /><stop
   offset="0.6646"
   style="stop-color:#E0E0E0"
   id="stop669" /><stop
   offset="1"
   style="stop-color:#CCCCCC"
   id="stop670" /><a:midPointStop
   offset="0"
   style="stop-color:#F2F2F2"
   id="midPointStop671" /><a:midPointStop
   offset="0.5"
   style="stop-color:#F2F2F2"
   id="midPointStop672" /><a:midPointStop
   offset="0.3121"
   style="stop-color:#EEEEEE"
   id="midPointStop673" /><a:midPointStop
   offset="0.5"
   style="stop-color:#EEEEEE"
   id="midPointStop674" /><a:midPointStop
   offset="0.6646"
   style="stop-color:#E0E0E0"
   id="midPointStop675" /><a:midPointStop
   offset="0.5"
   style="stop-color:#E0E0E0"
   id="midPointStop676" /><a:midPointStop
   offset="1"
   style="stop-color:#CCCCCC"
   id="midPointStop677" /></linearGradient><polygon
   id="polygon712"
   fill="url(#polygon712_2_)"
   points="18.2,16.7 6.8,12.2 9.2,10 9.6,10.3 9.5,9.7 19.1,1.7 30.6,6.4        " /><linearGradient
   id="polygon722_8_"
   gradientUnits="userSpaceOnUse"
   x1="-832.5576"
   y1="-243.29"
   x2="-838.4082"
   y2="-253.8021"
   gradientTransform="matrix(1 0 0 1 850.8975 276.5723)"><stop
   offset="0"
   style="stop-color:#E6E6E6"
   id="stop680" /><stop
   offset="0.621"
   style="stop-color:#C7C7C7"
   id="stop681" /><stop
   offset="1"
   style="stop-color:#B3B3B3"
   id="stop682" /><a:midPointStop
   offset="0"
   style="stop-color:#E6E6E6"
   id="midPointStop683" /><a:midPointStop
   offset="0.5"
   style="stop-color:#E6E6E6"
   id="midPointStop684" /><a:midPointStop
   offset="0.621"
   style="stop-color:#C7C7C7"
   id="midPointStop685" /><a:midPointStop
   offset="0.5"
   style="stop-color:#C7C7C7"
   id="midPointStop686" /><a:midPointStop
   offset="1"
   style="stop-color:#B3B3B3"
   id="midPointStop687" /></linearGradient><polygon
   id="polygon722"
   fill="url(#polygon722_8_)"
   points="18.2,33.4 11.5,30.7 11.4,30.4 10.9,30.5 6.8,28.7 6.8,12.2        10.9,13.8 11.5,13.9 11.5,14.1 18.2,16.7 " /><polygon
   id="polygon723"
   i:isolated="yes"
   i:knockout="Off"
   opacity="0.3"
   enable-background="new    "
   points="11.4,30.4        10.9,30.4 10.9,13.9 11.5,13.9 11.4,14.1 " /><rect
   id="polygon724"
   x="11.4"
   y="14.2"
   i:isolated="yes"
   i:knockout="Off"
   opacity="0.8"
   fill="#FFFFFF"
   enable-background="new    "
   width="0.6"
   height="16.5" /><linearGradient
   id="polygon734_2_"
   gradientUnits="userSpaceOnUse"
   x1="-823.7021"
   y1="-254.5122"
   x2="-830.5798"
   y2="-259.8994"
   gradientTransform="matrix(1 0 0 1 850.8975 276.5723)"><stop
   offset="0"
   style="stop-color:#999999"
   id="stop692" /><stop
   offset="0.6839"
   style="stop-color:#7B7B7B"
   id="stop693" /><stop
   offset="1"
   style="stop-color:#6B6B6B"
   id="stop694" /><a:midPointStop
   offset="0"
   style="stop-color:#999999"
   id="midPointStop695" /><a:midPointStop
   offset="0.5"
   style="stop-color:#999999"
   id="midPointStop696" /><a:midPointStop
   offset="0.6839"
   style="stop-color:#7B7B7B"
   id="midPointStop697" /><a:midPointStop
   offset="0.5"
   style="stop-color:#7B7B7B"
   id="midPointStop698" /><a:midPointStop
   offset="1"
   style="stop-color:#6B6B6B"
   id="midPointStop699" /></linearGradient><polygon
   id="polygon734"
   fill="url(#polygon734_2_)"
   points="30.6,22.9 21,31.1 20.5,30.9 20.5,31.4 18.2,33.4 18.2,16.7        30.6,6.4 " /><polygon
   id="polygon735"
   i:isolated="yes"
   i:knockout="Off"
   opacity="0.8"
   fill="#FFFFFF"
   enable-background="new    "
   points="       9.6,9.7 20.9,14.5 21.5,14 9.9,9.5 " /><rect
   id="polygon736"
   x="20.8"
   y="14.2"
   i:isolated="yes"
   i:knockout="Off"
   opacity="0.6"
   fill="#242424"
   enable-background="new    "
   width="0.8"
   height="16.5" /><polygon
   id="polygon737"
   i:isolated="yes"
   i:knockout="Off"
   opacity="0.84"
   fill="#FFFFFF"
   enable-background="new    "
   points="       6.8,12.2 6.8,12.6 10.9,14.3 10.9,13.9 11.5,13.9 11.4,14.5 18.2,17.3 18.3,16.9 18.6,16.4 7,11.9 " /><polygon
   id="polygon738"
   i:isolated="yes"
   i:knockout="Off"
   opacity="0.3"
   enable-background="new    "
   points="9.6,10.3        20.5,14.9 20.5,30.9 20.9,31.1 20.9,14.5 9.5,9.7 " /><linearGradient
   id="polygon722_9_"
   gradientUnits="userSpaceOnUse"
   x1="-139.7344"
   y1="637.9219"
   x2="-137.352"
   y2="637.9219"
   gradientTransform="matrix(1 0 0 -1 153.2148 657.457)"><stop
   offset="0"
   style="stop-color:#00A200"
   id="stop706" /><stop
   offset="1"
   style="stop-color:#00FF00"
   id="stop707" /><a:midPointStop
   offset="0"
   style="stop-color:#00A200"
   id="midPointStop708" /><a:midPointStop
   offset="0.5"
   style="stop-color:#00A200"
   id="midPointStop709" /><a:midPointStop
   offset="1"
   style="stop-color:#00FF00"
   id="midPointStop710" /></linearGradient><polygon
   id="polygon722_2_"
   fill="url(#polygon722_9_)"
   points="15.8,21.2 14.5,20.8 14.5,20.7 14.3,20.7 13.5,20.5 13.5,17.8        14.3,18.1 14.5,18.1 14.5,18.1 15.8,18.6 " /><linearGradient
   id="polygon722_10_"
   gradientUnits="userSpaceOnUse"
   x1="-139.7344"
   y1="633.4834"
   x2="-137.352"
   y2="633.4834"
   gradientTransform="matrix(1 0 0 -1 153.2148 657.457)"><stop
   offset="5.617829e-003"
   style="stop-color:#FF7700"
   id="stop713" /><stop
   offset="1"
   style="stop-color:#FFDC00"
   id="stop714" /><a:midPointStop
   offset="5.617829e-003"
   style="stop-color:#FF7700"
   id="midPointStop715" /><a:midPointStop
   offset="0.5"
   style="stop-color:#FF7700"
   id="midPointStop716" /><a:midPointStop
   offset="1"
   style="stop-color:#FFDC00"
   id="midPointStop717" /></linearGradient><polygon
   id="polygon722_3_"
   fill="url(#polygon722_10_)"
   points="15.8,25.7 14.5,25.3 14.5,25.2 14.3,25.2 13.5,25 13.5,22.3        14.3,22.6 14.5,22.6 14.5,22.6 15.8,23.1 " /><linearGradient
   id="polygon722_11_"
   gradientUnits="userSpaceOnUse"
   x1="-139.7344"
   y1="628.998"
   x2="-137.352"
   y2="628.998"
   gradientTransform="matrix(1 0 0 -1 153.2148 657.457)"><stop
   offset="0"
   style="stop-color:#A20000"
   id="stop720" /><stop
   offset="1"
   style="stop-color:#FF0000"
   id="stop721" /><a:midPointStop
   offset="0"
   style="stop-color:#A20000"
   id="midPointStop722" /><a:midPointStop
   offset="0.5"
   style="stop-color:#A20000"
   id="midPointStop723" /><a:midPointStop
   offset="1"
   style="stop-color:#FF0000"
   id="midPointStop724" /></linearGradient><polygon
   id="polygon722_4_"
   fill="url(#polygon722_11_)"
   points="15.8,30.1 14.5,29.7 14.5,29.6 14.3,29.7 13.5,29.4        13.5,26.8 14.3,27 14.5,27 14.5,27.1 15.8,27.5 " /></g><g
   id="g669"
   i:knockout="Off"><polygon
   id="polygon649_1_"
   points="21.1,17.7 21.1,35.7 34.4,41 48,29.5 48,11.5 34.8,6.1 " /><linearGradient
   id="polygon712_3_"
   gradientUnits="userSpaceOnUse"
   x1="-815.6831"
   y1="-255.103"
   x2="-816.5298"
   y2="-263.5702"
   gradientTransform="matrix(1 0 0 1 850.8975 276.5723)"><stop
   offset="0"
   style="stop-color:#F2F2F2"
   id="stop729" /><stop
   offset="0.3121"
   style="stop-color:#EEEEEE"
   id="stop730" /><stop
   offset="0.6646"
   style="stop-color:#E0E0E0"
   id="stop731" /><stop
   offset="1"
   style="stop-color:#CCCCCC"
   id="stop732" /><a:midPointStop
   offset="0"
   style="stop-color:#F2F2F2"
   id="midPointStop733" /><a:midPointStop
   offset="0.5"
   style="stop-color:#F2F2F2"
   id="midPointStop734" /><a:midPointStop
   offset="0.3121"
   style="stop-color:#EEEEEE"
   id="midPointStop735" /><a:midPointStop
   offset="0.5"
   style="stop-color:#EEEEEE"
   id="midPointStop736" /><a:midPointStop
   offset="0.6646"
   style="stop-color:#E0E0E0"
   id="midPointStop737" /><a:midPointStop
   offset="0.5"
   style="stop-color:#E0E0E0"
   id="midPointStop738" /><a:midPointStop
   offset="1"
   style="stop-color:#CCCCCC"
   id="midPointStop739" /></linearGradient><polygon
   id="polygon712_1_"
   fill="url(#polygon712_3_)"
   points="34.1,22.9 22.7,18.3 25.1,16.2 25.5,16.4 25.4,15.9 35,7.8        46.5,12.4 " /><linearGradient
   id="polygon722_12_"
   gradientUnits="userSpaceOnUse"
   x1="-816.6699"
   y1="-237.2002"
   x2="-822.5207"
   y2="-247.7126"
   gradientTransform="matrix(1 0 0 1 850.8975 276.5723)"><stop
   offset="0"
   style="stop-color:#E6E6E6"
   id="stop742" /><stop
   offset="0.621"
   style="stop-color:#C7C7C7"
   id="stop743" /><stop
   offset="1"
   style="stop-color:#B3B3B3"
   id="stop744" /><a:midPointStop
   offset="0"
   style="stop-color:#E6E6E6"
   id="midPointStop745" /><a:midPointStop
   offset="0.5"
   style="stop-color:#E6E6E6"
   id="midPointStop746" /><a:midPointStop
   offset="0.621"
   style="stop-color:#C7C7C7"
   id="midPointStop747" /><a:midPointStop
   offset="0.5"
   style="stop-color:#C7C7C7"
   id="midPointStop748" /><a:midPointStop
   offset="1"
   style="stop-color:#B3B3B3"
   id="midPointStop749" /></linearGradient><polygon
   id="polygon722_7_"
   fill="url(#polygon722_12_)"
   points="34.1,39.5 27.4,36.8 27.3,36.5 26.8,36.6 22.7,34.8        22.7,18.3 26.8,20 27.4,20.1 27.4,20.3 34.1,22.9 " /><polygon
   id="polygon723_1_"
   i:isolated="yes"
   i:knockout="Off"
   opacity="0.3"
   enable-background="new    "
   points="27.3,36.5        26.8,36.5 26.8,20.1 27.4,20.1 27.3,20.3 " /><rect
   id="polygon724_1_"
   x="27.3"
   y="20.4"
   i:isolated="yes"
   i:knockout="Off"
   opacity="0.8"
   fill="#FFFFFF"
   enable-background="new    "
   width="0.6"
   height="16.5" /><linearGradient
   id="polygon734_3_"
   gradientUnits="userSpaceOnUse"
   x1="-807.7715"
   y1="-248.4175"
   x2="-814.649"
   y2="-253.8048"
   gradientTransform="matrix(1 0 0 1 850.8975 276.5723)"><stop
   offset="0"
   style="stop-color:#999999"
   id="stop754" /><stop
   offset="0.6839"
   style="stop-color:#7B7B7B"
   id="stop755" /><stop
   offset="1"
   style="stop-color:#6B6B6B"
   id="stop756" /><a:midPointStop
   offset="0"
   style="stop-color:#999999"
   id="midPointStop757" /><a:midPointStop
   offset="0.5"
   style="stop-color:#999999"
   id="midPointStop758" /><a:midPointStop
   offset="0.6839"
   style="stop-color:#7B7B7B"
   id="midPointStop759" /><a:midPointStop
   offset="0.5"
   style="stop-color:#7B7B7B"
   id="midPointStop760" /><a:midPointStop
   offset="1"
   style="stop-color:#6B6B6B"
   id="midPointStop761" /></linearGradient><polygon
   id="polygon734_1_"
   fill="url(#polygon734_3_)"
   points="46.5,29 36.9,37.1 36.4,36.9 36.4,37.4 34.1,39.5 34.1,22.9        46.5,12.4 " /><polygon
   id="polygon735_1_"
   i:isolated="yes"
   i:knockout="Off"
   opacity="0.8"
   fill="#FFFFFF"
   enable-background="new    "
   points="       25.5,15.9 36.8,20.6 37.4,20.2 25.9,15.6 " /><rect
   id="polygon736_1_"
   x="36.7"
   y="20.4"
   i:isolated="yes"
   i:knockout="Off"
   opacity="0.6"
   fill="#242424"
   enable-background="new    "
   width="0.8"
   height="16.5" /><polygon
   id="polygon737_1_"
   i:isolated="yes"
   i:knockout="Off"
   opacity="0.84"
   fill="#FFFFFF"
   enable-background="new    "
   points="       22.7,18.3 22.7,18.7 26.8,20.5 26.8,20.1 27.4,20.1 27.3,20.6 34.1,23.3 34.2,23 34.5,22.6 23,18 " /><polygon
   id="polygon738_1_"
   i:isolated="yes"
   i:knockout="Off"
   opacity="0.3"
   enable-background="new    "
   points="25.5,16.4        36.4,20.9 36.4,36.9 36.8,37.1 36.8,20.6 25.4,15.9 " /><linearGradient
   id="polygon722_13_"
   gradientUnits="userSpaceOnUse"
   x1="-123.8223"
   y1="631.7949"
   x2="-121.4403"
   y2="631.7949"
   gradientTransform="matrix(1 0 0 -1 153.2148 657.457)"><stop
   offset="0"
   style="stop-color:#00A200"
   id="stop768" /><stop
   offset="1"
   style="stop-color:#00FF00"
   id="stop769" /><a:midPointStop
   offset="0"
   style="stop-color:#00A200"
   id="midPointStop770" /><a:midPointStop
   offset="0.5"
   style="stop-color:#00A200"
   id="midPointStop771" /><a:midPointStop
   offset="1"
   style="stop-color:#00FF00"
   id="midPointStop772" /></linearGradient><polygon
   id="polygon722_6_"
   fill="url(#polygon722_13_)"
   points="31.8,27.4 30.4,27 30.4,26.9 30.2,26.9 29.4,26.7 29.4,23.9        30.2,24.3 30.4,24.3 30.4,24.3 31.8,24.8 " /><linearGradient
   id="polygon722_14_"
   gradientUnits="userSpaceOnUse"
   x1="-123.8223"
   y1="627.3574"
   x2="-121.4403"
   y2="627.3574"
   gradientTransform="matrix(1 0 0 -1 153.2148 657.457)"><stop
   offset="5.617829e-003"
   style="stop-color:#FF7700"
   id="stop775" /><stop
   offset="1"
   style="stop-color:#FFDC00"
   id="stop776" /><a:midPointStop
   offset="5.617829e-003"
   style="stop-color:#FF7700"
   id="midPointStop777" /><a:midPointStop
   offset="0.5"
   style="stop-color:#FF7700"
   id="midPointStop778" /><a:midPointStop
   offset="1"
   style="stop-color:#FFDC00"
   id="midPointStop779" /></linearGradient><polygon
   id="polygon722_5_"
   fill="url(#polygon722_14_)"
   points="31.8,31.8 30.4,31.5 30.4,31.4 30.2,31.4 29.4,31.2        29.4,28.4 30.2,28.7 30.4,28.7 30.4,28.7 31.8,29.2 " /><linearGradient
   id="polygon722_15_"
   gradientUnits="userSpaceOnUse"
   x1="-123.8223"
   y1="622.8711"
   x2="-121.4403"
   y2="622.8711"
   gradientTransform="matrix(1 0 0 -1 153.2148 657.457)"><stop
   offset="0"
   style="stop-color:#A20000"
   id="stop782" /><stop
   offset="1"
   style="stop-color:#FF0000"
   id="stop783" /><a:midPointStop
   offset="0"
   style="stop-color:#A20000"
   id="midPointStop784" /><a:midPointStop
   offset="0.5"
   style="stop-color:#A20000"
   id="midPointStop785" /><a:midPointStop
   offset="1"
   style="stop-color:#FF0000"
   id="midPointStop786" /></linearGradient><polygon
   id="polygon722_1_"
   fill="url(#polygon722_15_)"
   points="31.8,36.3 30.4,35.9 30.4,35.8 30.2,35.9 29.4,35.6        29.4,32.9 30.2,33.1 30.4,33.1 30.4,33.3 31.8,33.7 " /></g></g><rect
   i:knockout="Off"
   fill="none"
   width="48"
   height="48"
   id="rect788" /></g></svg>
