<?xml version="1.0" encoding="UTF-8" standalone="no"?>
<!DOCTYPE svg PUBLIC "-//W3C//DTD SVG 20010904//EN"
"http://www.w3.org/TR/2001/REC-SVG-20010904/DTD/svg10.dtd">
<!-- Created with Sodipodi ("http://www.sodipodi.com/") -->
<svg
   xmlns:x="http://ns.adobe.com/Extensibility/1.0/"
   xmlns:i="http://ns.adobe.com/AdobeIllustrator/10.0/"
   xmlns:graph="http://ns.adobe.com/Graphs/1.0/"
   xmlns="http://www.w3.org/2000/svg"
   xmlns:xlink="http://www.w3.org/1999/xlink"
   xmlns:a="http://ns.adobe.com/AdobeSVGViewerExtensions/3.0/"
   xml:space="preserve"
   i:viewOrigin="200.7197 429.3774"
   i:rulerOrigin="0 0"
   i:pageBounds="0 792 612 0"
   width="48"
   height="48"
   viewBox="0 0 48 48"
   overflow="visible"
   enable-background="new 0 0 48 48"
   xmlns:sodipodi="http://sodipodi.sourceforge.net/DTD/sodipodi-0.dtd"
   id="svg602"
   sodipodi:version="0.34"
   sodipodi:docname="C:\msys\home\su_blanc\mldonkey-2.5.12\src\gtk2\rsvg\type_source_contact.svg"><defs
   id="defs715" /><sodipodi:namedview
   id="base" /><g
   id="Layer_3"
   i:knockout="Off"
   i:layer="yes"
   i:dimmedPercent="50"
   i:rgbTrio="#4F00FFFF4F00"><g
   id="g606"><linearGradient
   id="path977_1_"
   gradientUnits="userSpaceOnUse"
   x1="-1078.0669"
   y1="38.1626"
   x2="-1088.4565"
   y2="38.1626"
   gradientTransform="matrix(1 0 0 1 1115.168 1.953125e-003)"><stop
   offset="0"
   style="stop-color:#E18330"
   id="stop608" /><stop
   offset="1"
   style="stop-color:#7C0023"
   id="stop609" /><a:midPointStop
   offset="0"
   style="stop-color:#E18330"
   id="midPointStop610" /><a:midPointStop
   offset="0.5"
   style="stop-color:#E18330"
   id="midPointStop611" /><a:midPointStop
   offset="1"
   style="stop-color:#7C0023"
   id="midPointStop612" /></linearGradient><path
   id="path977_2_"
   fill="url(#path977_1_)"
   d="M38.6,41.5c0.9,2.3,1.6,5.1-3.8,6.2c-5.4,1-10-1.1-10.4-3.2      c0-4.8,4.6-10.3-4.2-14.5c-1.9-0.8,1.1-1.4,3.5-1.7c3.8-0.1,8.8,0,10.4,1.4C37.9,33.2,37.1,37.6,38.6,41.5z" /><path
   id="path655"
   fill="#FFFFFF"
   d="M47.2,8.9c-1.6,1.3-3.6,2.7-5.7,3.9c-0.3,0.2-0.7,0.6-0.9,0.9c-0.3-1.9-1.1-3.5-3.1-4.7      C34.1,6.9,30,7.5,26.1,7.9c-1.1,0.3-2.7,1-2.7,2.1c0,2.4,0,2.4,0,0c0-0.3-0.8-0.7-0.8-0.7c-4.6,1.4-9.5-0.7-13.3,1.4      C3,14.3-2,22.2,1,28.4c1.1,1.8,4.6,1.4,6.8,1.4c1.9,0,2.7-2.4,4.2-1.8c1.1,0.3,2.4,0.3,3.4,0.1c-0.1,0.1-0.2,0.2-0.3,0.2      c6,2.4,12.6,4.2,19,3.9c5-0.7,8.4-5.5,7.2-10c-0.2-0.9-0.3-1.8-0.5-2.7c1.4,1.2,3.7-1.4,4.9-3C47.4,14.4,48.8,11.5,47.2,8.9z" /><radialGradient
   id="path861_1_"
   cx="-1096.061"
   cy="11.5864"
   r="22.0481"
   fx="-1096.061"
   fy="11.5864"
   gradientTransform="matrix(1.131 0 0 1.1078 1258.1643 -2.4771)"
   gradientUnits="userSpaceOnUse"><stop
   offset="0"
   style="stop-color:#FFFFFF"
   id="stop616" /><stop
   offset="4.136020e-002"
   style="stop-color:#F2F2F2"
   id="stop617" /><stop
   offset="0.2133"
   style="stop-color:#C1C1C1"
   id="stop618" /><stop
   offset="0.3839"
   style="stop-color:#999999"
   id="stop619" /><stop
   offset="0.5503"
   style="stop-color:#7A7A7A"
   id="stop620" /><stop
   offset="0.711"
   style="stop-color:#636363"
   id="stop621" /><stop
   offset="0.8638"
   style="stop-color:#565656"
   id="stop622" /><stop
   offset="1"
   style="stop-color:#515151"
   id="stop623" /><a:midPointStop
   offset="0"
   style="stop-color:#FFFFFF"
   id="midPointStop624" /><a:midPointStop
   offset="0.5"
   style="stop-color:#FFFFFF"
   id="midPointStop625" /><a:midPointStop
   offset="4.136020e-002"
   style="stop-color:#F2F2F2"
   id="midPointStop626" /><a:midPointStop
   offset="0.5"
   style="stop-color:#F2F2F2"
   id="midPointStop627" /><a:midPointStop
   offset="0.2133"
   style="stop-color:#C1C1C1"
   id="midPointStop628" /><a:midPointStop
   offset="0.5"
   style="stop-color:#C1C1C1"
   id="midPointStop629" /><a:midPointStop
   offset="0.3839"
   style="stop-color:#999999"
   id="midPointStop630" /><a:midPointStop
   offset="0.5"
   style="stop-color:#999999"
   id="midPointStop631" /><a:midPointStop
   offset="0.5503"
   style="stop-color:#7A7A7A"
   id="midPointStop632" /><a:midPointStop
   offset="0.5"
   style="stop-color:#7A7A7A"
   id="midPointStop633" /><a:midPointStop
   offset="0.711"
   style="stop-color:#636363"
   id="midPointStop634" /><a:midPointStop
   offset="0.5"
   style="stop-color:#636363"
   id="midPointStop635" /><a:midPointStop
   offset="0.8638"
   style="stop-color:#565656"
   id="midPointStop636" /><a:midPointStop
   offset="0.5"
   style="stop-color:#565656"
   id="midPointStop637" /><a:midPointStop
   offset="1"
   style="stop-color:#515151"
   id="midPointStop638" /></radialGradient><path
   id="path861_3_"
   i:isolated="yes"
   i:knockout="Off"
   opacity="0.59"
   fill="url(#path861_1_)"
   enable-background="new    "
   d="      M20.5,23.9c-1.1,3.1-5,5.2-8.5,4.2c-1.6-0.7-2.4,1.8-4.2,1.8c-2.4,0-5.8,0.3-6.9-1.4c-3.1-6.3,1.9-14.3,8.5-17.8      c3.8-2.1,8.8,0,13.5-1.4c0,0,0.8,0.3,0.8,0.7C23.7,14.8,22.1,19.4,20.5,23.9z" /><radialGradient
   id="path987_1_"
   cx="-1085.1245"
   cy="9.1104"
   r="22.1617"
   fx="-1085.1245"
   fy="9.1104"
   gradientTransform="matrix(1.131 0 0 1.1078 1258.1643 -2.4771)"
   gradientUnits="userSpaceOnUse"><stop
   offset="0"
   style="stop-color:#FF9D56"
   id="stop641" /><stop
   offset="1"
   style="stop-color:#9F0023"
   id="stop642" /><a:midPointStop
   offset="0"
   style="stop-color:#FF9D56"
   id="midPointStop643" /><a:midPointStop
   offset="0.5"
   style="stop-color:#FF9D56"
   id="midPointStop644" /><a:midPointStop
   offset="1"
   style="stop-color:#9F0023"
   id="midPointStop645" /></radialGradient><path
   id="path987_3_"
   fill="url(#path987_1_)"
   d="M41.6,22.2c1.1,4.4-2.4,9.4-7.4,10.1c-6.6,0.3-13-1.4-19.2-3.9      c5.8-4.5,8.5-11.5,8.5-18.5c0-1.1,1.6-1.8,2.7-2.1c3.8-0.3,8-1.1,11.5,1.1C42.4,11.7,40.5,17.6,41.6,22.2z" /><radialGradient
   id="path938_1_"
   cx="-1070.9824"
   cy="10.2749"
   r="10.3037"
   fx="-1070.9824"
   fy="10.2749"
   gradientTransform="matrix(1.131 0 0 1.1078 1258.1643 -2.4771)"
   gradientUnits="userSpaceOnUse"><stop
   offset="0"
   style="stop-color:#E18330"
   id="stop648" /><stop
   offset="1"
   style="stop-color:#7C0023"
   id="stop649" /><a:midPointStop
   offset="0"
   style="stop-color:#E18330"
   id="midPointStop650" /><a:midPointStop
   offset="0.5"
   style="stop-color:#E18330"
   id="midPointStop651" /><a:midPointStop
   offset="1"
   style="stop-color:#7C0023"
   id="midPointStop652" /></radialGradient><path
   id="path938_3_"
   fill="url(#path938_1_)"
   d="M45.9,16.5c-1.2,1.8-4,4.8-5.2,2.5c-1-1.8-1-5.4,0.9-6.3      c2-1.2,4.1-2.5,5.7-3.9C48.9,11.4,47.5,14.3,45.9,16.5z" /><g
   id="g925_2_"
   i:knockout="Off"><ellipse
   id="ellipse1004_4_"
   transform="matrix(-0.7667 -0.642 0.642 -0.7667 9.1305 38.9505)"
   fill="#990000"
   cx="11.6"
   cy="17.8"
   rx="3"
   ry="5.1" /><ellipse
   id="ellipse1004_2_"
   transform="matrix(-0.7667 -0.642 0.642 -0.7667 9.1253 38.9553)"
   cx="11.6"
   cy="17.8"
   rx="2.1"
   ry="3.6" /></g><g
   id="g931_2_"
   i:knockout="Off"><g
   id="g932_2_"
   i:knockout="Off"><path
   id="path933_2_"
   fill="#6D1E1E"
   d="M32.1,14.6c1.7,0.6,2.8,1.8,3.3,3.1c0.9-2.4,0-5-2.1-5.8c-2.1-0.8-4.6,0.7-5.7,3        C28.9,14.3,30.6,14.1,32.1,14.6z" /></g></g><path
   id="path1000_4_"
   fill="#7E0000"
   d="M31.7,16.4c2.3,0.9,3.1,4,1.8,7c-1.2,3-4.1,4.7-6.3,3.8c-2.3-0.9-3.1-4-1.8-7      S29.4,15.5,31.7,16.4z" /><radialGradient
   id="path1000_1_"
   cx="-2722.4014"
   cy="-1612.5996"
   r="4.0715"
   fx="-2722.4014"
   fy="-1612.5996"
   gradientTransform="matrix(1.0814 1.1557 -1.1987 1.4851 1035.7679 5565.3428)"
   gradientUnits="userSpaceOnUse"><stop
   offset="5.600000e-003"
   style="stop-color:#CACACA"
   id="stop662" /><stop
   offset="0.2698"
   style="stop-color:#D3D3D3"
   id="stop663" /><stop
   offset="0.6909"
   style="stop-color:#EAEAEA"
   id="stop664" /><stop
   offset="1"
   style="stop-color:#FFFFFF"
   id="stop665" /><a:midPointStop
   offset="5.600000e-003"
   style="stop-color:#CACACA"
   id="midPointStop666" /><a:midPointStop
   offset="0.5"
   style="stop-color:#CACACA"
   id="midPointStop667" /><a:midPointStop
   offset="0.2698"
   style="stop-color:#D3D3D3"
   id="midPointStop668" /><a:midPointStop
   offset="0.5"
   style="stop-color:#D3D3D3"
   id="midPointStop669" /><a:midPointStop
   offset="0.6909"
   style="stop-color:#EAEAEA"
   id="midPointStop670" /><a:midPointStop
   offset="0.5"
   style="stop-color:#EAEAEA"
   id="midPointStop671" /><a:midPointStop
   offset="1"
   style="stop-color:#FFFFFF"
   id="midPointStop672" /></radialGradient><path
   id="path1000_2_"
   fill="url(#path1000_1_)"
   d="M31.2,17.5c1.8,0.8,2.4,3.2,1.4,5.7c-1,2.4-3.3,3.8-5,3      c-1.8-0.8-2.4-3.2-1.4-5.7C27.3,18.2,29.5,16.8,31.2,17.5z" /><circle
   id="circle1001_2_"
   cx="28.4"
   cy="22.9"
   r="1.9" /><path
   id="path719"
   fill="#2B0000"
   d="M11.2,24.7c-1.4,0.8-2,1-4.5,1c-2.6,0-4.2-0.9-6.7-0.3c-0.1,5.9,3.1,5,8.9,4.2      c1.2-0.2,3.2-1.4,4.4-2.3C14.3,26.7,13.4,24.7,11.2,24.7z" /><g
   id="g757"
   i:knockout="Off"><path
   id="path1012_2_"
   fill="#6D1E1E"
   d="M26.9,3.2c3.5,0,4.4,3.1,4.8,4.8" /><path
   id="path1013_2_"
   fill="#6D1E1E"
   d="M26.4,4.1c3.1,0.1,4.3,2.4,4.8,4.8c0,0,0.7-0.8,0.7-0.9c0.1-0.2,0.6-0.7,0.5-1       c-0.6-2.3-1.8-4.7-4.8-4.8C27,2.2,26.6,4.1,26.4,4.1L26.4,4.1z" /><path
   id="path1016_1_"
   fill="#6D1E1E"
   d="M31.7,1.8C33.8,4,32.8,5.7,31.9,8" /><path
   id="path1017_2_"
   fill="#6D1E1E"
   d="M31.1,2.7c1.8,2,1.1,3.8,0.2,6c-0.1,0.4,0.3-0.2,0.3-0.2C32,8,32.3,7.6,32.5,7.2       c0.9-2.3,1.7-4.2-0.1-6.3C32.4,1,30.9,2.3,31.1,2.7L31.1,2.7z" /><path
   id="path1020_2_"
   fill="#6D1E1E"
   d="M39.7,1c0.1,1.3-2,3-2.8,4.2c-1.1,1.8-3.3,2-5.9,3.1" /><path
   id="path1021_2_"
   fill="#6D1E1E"
   d="M39.2,1.9c0,0.9-1.9,2.8-2.6,3.4c-1.2,1.1-3.3,1.6-4.9,2.1c-0.6,0.2-0.8,1.7-1,1.8       c1.4-0.6,2.8-1,4.2-1.7C36,7,36.5,6,37.2,5.2c1.1-1.3,3.1-3.1,3.2-5C40.3,0.4,39.2,1.3,39.2,1.9L39.2,1.9z" /><path
   id="path1024_1_"
   fill="#6D1E1E"
   d="M34.5,1.4c1.7,2.2-1.7,4.5-2.8,6.6" /><path
   id="path1025_1_"
   fill="#6D1E1E"
   d="M33.9,2.4c0.9,1.3,0.2,2.3-0.8,3.4c-0.7,0.8-1.2,1.7-1.8,2.5c0,0.1-0.3,0.8-0.3,0.7       c0.3-0.2,0.6-0.8,0.8-1.1c1.2-2,5-4.8,3.2-7.3C35.2,0.7,33.7,2,33.9,2.4L33.9,2.4z" /><path
   id="path1028_2_"
   fill="#6D1E1E"
   d="M37.2,0.8c0.2,2.2-1.9,6-5.2,6.9" /><path
   id="path1029_2_"
   fill="#6D1E1E"
   d="M36.7,1.7c0.1,2.3-1.6,4.3-4,5.1c-0.3,0.1-0.6,0.7-0.7,0.9c0,0.1-0.5,0.9-0.5,1       C35,7.6,38,3.2,37.9,0C37.8,0.1,36.7,1,36.7,1.7L36.7,1.7z" /><path
   id="path1032_1_"
   fill="#6D1E1E"
   d="M42.1,1.7C41.6,5.5,35.8,7.3,31,8.5" /><path
   id="path1033_1_"
   fill="#6D1E1E"
   d="M41.4,2.4c-0.2,1.7-2.5,2.5-4,3.2c-1.9,0.8-4,1.4-6,1.9c-0.7,0.1-0.8,1.7-1.1,1.8       c5-1.2,11.4-3.2,12.3-8.6C42.5,1.1,41.5,1.9,41.4,2.4L41.4,2.4z" /><path
   id="path1036_2_"
   fill="#6D1E1E"
   d="M44.7,1.9c-0.5,4.8-7.9,5-13,6.2" /><path
   id="path1037_2_"
   fill="#6D1E1E"
   d="M44.1,2.7c-0.2,2-3.2,2.7-4.9,3.1c-2.3,0.6-4.8,0.8-7,1.3c-0.6,0.1-0.8,1.8-1.1,1.8       C36.5,7.8,44.6,7.4,45.4,1C45.3,1.3,44.2,2.1,44.1,2.7L44.1,2.7z" /></g></g><rect
   fill="none"
   width="48"
   height="48"
   id="rect691" /><g
   id="g692"><polygon
   id="polygon719"
   fill="#FF5300"
   points="21.1,47.9 13.1,43.6 5.1,48 6.6,38.6 0,32 9,30.6 12.9,22 17,30.6 26,31.8       19.6,38.5 " /><linearGradient
   id="polygon726_1_"
   gradientUnits="userSpaceOnUse"
   x1="-325.709"
   y1="25.2134"
   x2="-325.407"
   y2="60.742"
   gradientTransform="matrix(1 0 0 1 338.6455 0)"><stop
   offset="0"
   style="stop-color:#FFFF00"
   id="stop695" /><stop
   offset="0.1185"
   style="stop-color:#FFFA00"
   id="stop696" /><stop
   offset="0.2585"
   style="stop-color:#FFEC00"
   id="stop697" /><stop
   offset="0.4096"
   style="stop-color:#FFD400"
   id="stop698" /><stop
   offset="0.5684"
   style="stop-color:#FFB300"
   id="stop699" /><stop
   offset="0.7333"
   style="stop-color:#FF8800"
   id="stop700" /><stop
   offset="0.9007"
   style="stop-color:#FF5400"
   id="stop701" /><stop
   offset="1"
   style="stop-color:#FF3200"
   id="stop702" /><a:midPointStop
   offset="0"
   style="stop-color:#FFFF00"
   id="midPointStop703" /><a:midPointStop
   offset="0.6723"
   style="stop-color:#FFFF00"
   id="midPointStop704" /><a:midPointStop
   offset="1"
   style="stop-color:#FF3200"
   id="midPointStop705" /></linearGradient><polygon
   id="polygon726"
   fill="url(#polygon726_1_)"
   points="19.2,44.8 13.1,41.5 7,44.9 8.1,37.8 3.1,32.7 9.9,31.6 12.9,25.1       16.1,31.6 22.9,32.6 18,37.7 " /><radialGradient
   id="path733_1_"
   cx="-405.5361"
   cy="75.0327"
   r="31.6371"
   fx="-405.5361"
   fy="75.0327"
   gradientTransform="matrix(0.7291 0 0 0.7647 308.7777 -32.1652)"
   gradientUnits="userSpaceOnUse"><stop
   offset="5.617829e-003"
   style="stop-color:#F6FFFF"
   id="stop708" /><stop
   offset="1"
   style="stop-color:#FFD400"
   id="stop709" /><a:midPointStop
   offset="5.617829e-003"
   style="stop-color:#F6FFFF"
   id="midPointStop710" /><a:midPointStop
   offset="0.5"
   style="stop-color:#F6FFFF"
   id="midPointStop711" /><a:midPointStop
   offset="1"
   style="stop-color:#FFD400"
   id="midPointStop712" /></radialGradient><path
   id="path733"
   fill="url(#path733_1_)"
   d="M22.9,32.7l-6.9-1l-3.1-6.5l-3,6.5l-6.8,1.1c0,0,6.7,4.3,9.3,4.4      C16.7,37.5,22.9,32.7,22.9,32.7z" /></g></g></svg>
