/* XPM */
static char * binary_xpm[] = {
"16 16 75 1",
" 	c None",
".	c #585858",
"+	c #DEDEDE",
"@	c #BCB7B1",
"#	c #999999",
"$	c #FFFFFF",
"%	c #EAEAEA",
"&	c #6D6D6D",
"*	c #6F6F6F",
"=	c #FCFCFC",
"-	c #707070",
";	c #CECECE",
">	c #303030",
",	c #898989",
"'	c #6B6B6B",
")	c #424242",
"!	c #F6F5F5",
"~	c #E2E0DE",
"{	c #8F8984",
"]	c #FBF9F6",
"^	c #F4F0EC",
"/	c #E7E0D9",
"(	c #BEB6AF",
"_	c #DFDFDF",
":	c #FEFEFE",
"<	c #FBF8F5",
"[	c #F8F4ED",
"}	c #F3EDE3",
"|	c #EEE7DC",
"1	c #BCAE97",
"2	c #FEFEFD",
"3	c #FAF8F4",
"4	c #F8F4EC",
"5	c #F5EFE5",
"6	c #F3EBDC",
"7	c #ECE2D4",
"8	c #FDFDFC",
"9	c #F8F3EB",
"0	c #F5EEE4",
"a	c #F3EADC",
"b	c #ECDFCA",
"c	c #BCAB90",
"d	c #FCFCFB",
"e	c #F3EADB",
"f	c #ECDBC2",
"g	c #BCA88A",
"h	c #FAF6F2",
"i	c #F5EEE2",
"j	c #F0E4D2",
"k	c #EEE0C9",
"l	c #E9D6BA",
"m	c #BCA685",
"n	c #F7F1E9",
"o	c #F4EDE2",
"p	c #F0E4D1",
"q	c #EEDFC8",
"r	c #BCA37F",
"s	c #F4EDE1",
"t	c #F2E8D8",
"u	c #F0E4D0",
"v	c #EEDEC8",
"w	c #ECDABF",
"x	c #E9D6B8",
"y	c #E7D1B0",
"z	c #E5CCA7",
"A	c #BCA178",
"B	c #C6C1B6",
"C	c #C4BDAC",
"D	c #C3B8A3",
"E	c #C2B39A",
"F	c #C0AF91",
"G	c #BFAA88",
"H	c #BEA57F",
"I	c #BDA076",
"J	c #BC9E73",
"    .........   ",
"    .+++++@.#.  ",
"    .+$$$$%&$#. ",
"    .+$$*$=-;$#>",
"    .+$**$$,-')>",
"    .+$$*$$!~@{>",
"    .+$***$]^/(>",
"    ._$$$:<[}|1>",
"    .+$$2345671>",
"    .+$8*90a*bc>",
"    .+d*9*e**fg>",
"    .+h*i*jk*lm>",
"    .+no*pq***r>",
"    .+stuvwxyzA>",
"    .BBCDEFGHIJ>",
"    .>>>>>>>>>>>"};
