/* XPM */
static char * document2_xpm[] = {
"16 16 86 1",
" 	c None",
".	c #585858",
"+	c #DEDEDE",
"@	c #BCB7B1",
"#	c #999999",
"$	c #FFFFFF",
"%	c #EAEAEA",
"&	c #6D6D6D",
"*	c #FCFCFC",
"=	c #707070",
"-	c #CECECE",
";	c #303030",
">	c #9B9B9B",
",	c #898989",
"'	c #6B6B6B",
")	c #424242",
"!	c #F6F5F5",
"~	c #E2E0DE",
"{	c #8F8984",
"]	c #FBF9F6",
"^	c #F4F0EC",
"/	c #E7E0D9",
"(	c #BEB6AF",
"_	c #DFDFDF",
":	c #FEFEFE",
"<	c #FBF8F5",
"[	c #F8F4ED",
"}	c #F3EDE3",
"|	c #EEE7DC",
"1	c #BCAE97",
"2	c #9A9A9A",
"3	c #989794",
"4	c #97948F",
"5	c #95918B",
"6	c #948F86",
"7	c #ECE2D4",
"8	c #FDFDFC",
"9	c #FAF8F4",
"0	c #F8F3EB",
"a	c #F5EEE4",
"b	c #F3EADC",
"c	c #F1E6D4",
"d	c #ECDFCA",
"e	c #BCAB90",
"f	c #FCFCFB",
"g	c #95918A",
"h	c #948E85",
"i	c #928B80",
"j	c #91887B",
"k	c #ECDBC2",
"l	c #BCA88A",
"m	c #FAF6F2",
"n	c #F8F2EA",
"o	c #F5EEE2",
"p	c #F2E9DA",
"q	c #F0E4D2",
"r	c #EEE0C9",
"s	c #ECDCC1",
"t	c #E9D6BA",
"u	c #BCA685",
"v	c #F7F1E9",
"w	c #949089",
"x	c #938D84",
"y	c #928B7F",
"z	c #91887A",
"A	c #8F8575",
"B	c #8E8270",
"C	c #E7D1B0",
"D	c #BCA37F",
"E	c #F4EDE1",
"F	c #F2E8D8",
"G	c #F0E4D0",
"H	c #EEDEC8",
"I	c #ECDABF",
"J	c #E9D6B8",
"K	c #E5CCA7",
"L	c #BCA178",
"M	c #C6C1B6",
"N	c #C4BDAC",
"O	c #C3B8A3",
"P	c #C2B39A",
"Q	c #C0AF91",
"R	c #BFAA88",
"S	c #BEA57F",
"T	c #BDA076",
"U	c #BC9E73",
"    .........   ",
"    .+++++@.#.  ",
"    .+$$$$%&$#. ",
"    .+$$$$*=-$#;",
"    .+$>>>$,=');",
"    .+$$$$$!~@{;",
"    .+$>>>>]^/(;",
"    ._$$$:<[}|1;",
"    .+$>2345671;",
"    .+$890abcde;",
"    .+f34ghijkl;",
"    .+mnopqrstu;",
"    .+vwxyzABCD;",
"    .+EFGHIJCKL;",
"    .MMNOPQRSTU;",
"    .;;;;;;;;;;;"};
