/* XPM */
static char * html_xpm[] = {
"16 16 109 2",
"  	c None",
". 	c #585858",
"+ 	c #DEDEDE",
"@ 	c #BCB7B1",
"# 	c #999999",
"$ 	c #FFFFFF",
"% 	c #EAEAEA",
"& 	c #6D6D6D",
"* 	c #39629B",
"= 	c #1C3E65",
"- 	c #436471",
"; 	c #8C908F",
"> 	c #FCFCFC",
", 	c #707070",
"' 	c #CECECE",
") 	c #303030",
"! 	c #376EA9",
"~ 	c #837640",
"{ 	c #F2D271",
"] 	c #9EAE95",
"^ 	c #4F86C7",
"/ 	c #BBC0C5",
"( 	c #898989",
"_ 	c #6B6B6B",
": 	c #424242",
"< 	c #B8C9B8",
"[ 	c #FEE0BF",
"} 	c #F0E6C1",
"| 	c #D3C286",
"1 	c #B0B168",
"2 	c #6C8179",
"3 	c #26529B",
"4 	c #152C42",
"5 	c #BBBBBD",
"6 	c #F6F5F5",
"7 	c #E2E0DE",
"8 	c #8F8984",
"9 	c #255082",
"0 	c #E7E1C6",
"a 	c #FFF5EA",
"b 	c #EEDEAB",
"c 	c #E4D081",
"d 	c #B89A53",
"e 	c #4D789C",
"f 	c #2E5CAD",
"g 	c #1F3C6E",
"h 	c #657281",
"i 	c #DDDCDA",
"j 	c #F4F0EC",
"k 	c #E7E0D9",
"l 	c #BEB6AF",
"m 	c #4A84BE",
"n 	c #E6DDCB",
"o 	c #FFF0E5",
"p 	c #F7D186",
"q 	c #DCBC6F",
"r 	c #4D78A9",
"s 	c #417ACE",
"t 	c #3363B3",
"u 	c #21427D",
"v 	c #152C43",
"w 	c #C4C0BB",
"x 	c #F3EDE3",
"y 	c #EEE7DC",
"z 	c #BCAE97",
"A 	c #26395F",
"B 	c #80ABDA",
"C 	c #6F90AB",
"D 	c #F2D795",
"E 	c #7C9B9A",
"F 	c #89A2B5",
"G 	c #518EDF",
"H 	c #457DD0",
"I 	c #2F60B0",
"J 	c #1E407C",
"K 	c #B4B0A8",
"L 	c #F3EBDC",
"M 	c #ECE2D4",
"N 	c #223859",
"O 	c #5086C7",
"P 	c #76A9DD",
"Q 	c #6F97B8",
"R 	c #DABA6F",
"S 	c #5884BE",
"T 	c #4E7BA6",
"U 	c #3A6EB9",
"V 	c #2551A6",
"W 	c #1E3656",
"X 	c #B2ABA1",
"Y 	c #F1E6D4",
"Z 	c #ECDFCA",
"` 	c #BCAB90",
" .	c #2A588C",
"..	c #588FD4",
"+.	c #63A0DA",
"@.	c #498ED4",
"#.	c #D5B76E",
"$.	c #A9984A",
"%.	c #575854",
"&.	c #000000",
"*.	c #ECDBC2",
"=.	c #BCA88A",
"-.	c #172944",
";.	c #3D74A4",
">.	c #4276BC",
",.	c #3972CC",
"'.	c #AE9637",
").	c #1E3D64",
"!.	c #2E5C8A",
"        . . . . . . . . .       ",
"        . + + + + + @ . # .     ",
"        . + $ $ $ $ % & $ # .   ",
"        * = - ; $ $ > , ' $ # ) ",
"    ! ~ { ] ^ * = / $ ( , _ : ) ",
"  ! < [ } | 1 2 3 4 5 6 7 @ 8 ) ",
"  9 0 a b c d e f g h i j k l ) ",
"9 m n o p q r s t u v w x y z ) ",
"A B C D E F G H I J 4 K L M z ) ",
"N O P Q R S T U V W 4 X Y Z ` ) ",
"   ...+.@.#.$.%.&.&.&.&.&.*.=.) ",
"  -.;.>.,.'.&.&.&.&.&.&.&.&.&.) ",
"    4 ).!.&.&.&.&.&.&.&.&.&.&.&.",
"        4 &.&.&.&.&.&.&.&.&.&.&.",
"        &.&.&.&.&.&.&.&.&.&.&.&.",
"        &.&.&.&.&.&.&.&.&.&.&.&."};
