/* XPM */
static char * image_xpm[] = {
"16 16 152 2",
"  	c None",
". 	c #585858",
"+ 	c #DEDEDE",
"@ 	c #BCB7B1",
"# 	c #999999",
"$ 	c #FFFFFF",
"% 	c #EAEAEA",
"& 	c #6D6D6D",
"* 	c #FCFCFC",
"= 	c #707070",
"- 	c #CECECE",
"; 	c #303030",
"> 	c #940C12",
", 	c #394879",
"' 	c #A2D9F2",
") 	c #E0F0F8",
"! 	c #E2F6D9",
"~ 	c #C1DBC6",
"{ 	c #FEFDFD",
"] 	c #FEFEFE",
"^ 	c #898989",
"/ 	c #6B6B6B",
"( 	c #424242",
"_ 	c #951217",
": 	c #F8C4A5",
"< 	c #BD1E19",
"[ 	c #94CEDE",
"} 	c #44ADD9",
"| 	c #376090",
"1 	c #DEF8D0",
"2 	c #59A458",
"3 	c #2E4941",
"4 	c #C0C0C0",
"5 	c #F6F5F5",
"6 	c #E2E0DE",
"7 	c #8F8984",
"8 	c #3D0000",
"9 	c #DB6750",
"0 	c #E56143",
"a 	c #A71417",
"b 	c #49B4D9",
"c 	c #2D8BBC",
"d 	c #97D481",
"e 	c #318D38",
"f 	c #224E36",
"g 	c #777778",
"h 	c #DAD8D5",
"i 	c #F4F0EC",
"j 	c #E7E0D9",
"k 	c #BEB6AF",
"l 	c #351818",
"m 	c #D04C39",
"n 	c #D53623",
"o 	c #B66D6F",
"p 	c #70C1E0",
"q 	c #3078AB",
"r 	c #777F8B",
"s 	c #51AB40",
"t 	c #23702F",
"u 	c #606864",
"v 	c #6A6968",
"w 	c #C6C2BD",
"x 	c #F3EDE3",
"y 	c #EEE7DC",
"z 	c #BCAE97",
"A 	c #2C2C2D",
"B 	c #CB9891",
"C 	c #C73420",
"D 	c #CDABAA",
"E 	c #A1D4E3",
"F 	c #42638B",
"G 	c #959C9C",
"H 	c #57875C",
"I 	c #244F37",
"J 	c #737273",
"K 	c #686764",
"L 	c #C2BCB5",
"M 	c #F3EBDC",
"N 	c #ECE2D4",
"O 	c #2C2C2C",
"P 	c #C5C0BF",
"Q 	c #CB4030",
"R 	c #EAF1F0",
"S 	c #D7DCE0",
"T 	c #959CA8",
"U 	c #B1AEAD",
"V 	c #848886",
"W 	c #7A7879",
"X 	c #767676",
"Y 	c #676561",
"Z 	c #C0B8AD",
"` 	c #F1E6D4",
" .	c #ECDFCA",
"..	c #BCAB90",
"+.	c #2D2D2D",
"@.	c #CA9088",
"#.	c #E78B7A",
"$.	c #ECF3F5",
"%.	c #D9DADB",
"&.	c #C5C6C4",
"*.	c #B7B7B6",
"=.	c #A6A5A8",
"-.	c #888788",
";.	c #777777",
">.	c #676460",
",.	c #BEB4A6",
"'.	c #EEE0CA",
").	c #ECDBC2",
"!.	c #BCA88A",
"~.	c #876B65",
"{.	c #A7A7A6",
"].	c #C4C3C0",
"^.	c #ABAAAC",
"/.	c #8A8A8A",
"(.	c #787878",
"_.	c #5A5A5D",
":.	c #494A4A",
"<.	c #7D776E",
"[.	c #BEB2A0",
"}.	c #ECDCC1",
"|.	c #E9D6BA",
"1.	c #BCA685",
"2.	c #292929",
"3.	c #474747",
"4.	c #686765",
"5.	c #676662",
"6.	c #676461",
"7.	c #67645F",
"8.	c #A09686",
"9.	c #CCBCA6",
"0.	c #E9D6B9",
"a.	c #E7D1B0",
"b.	c #BCA37F",
"c.	c #727272",
"d.	c #C4BFB9",
"e.	c #C0BBB1",
"f.	c #BEB7AA",
"g.	c #BEB4A4",
"h.	c #BEB19F",
"i.	c #CCBCA5",
"j.	c #E9D6B8",
"k.	c #E5CCA7",
"l.	c #BCA178",
"m.	c #C6C1B6",
"n.	c #C4BDAC",
"o.	c #C3B8A3",
"p.	c #C2B39A",
"q.	c #C0AF91",
"r.	c #BFAA88",
"s.	c #BEA57F",
"t.	c #BDA076",
"u.	c #BC9E73",
"        . . . . . . . . .       ",
"        . + + + + + @ . # .     ",
"        . + $ $ $ $ % & $ # .   ",
"        . + $ $ $ $ * = - $ # ; ",
"    >   , ' ) ! ~ { ] ^ = / ( ; ",
"  _ : < [ } | 1 2 3 4 5 6 @ 7 ; ",
"8 9 0 a b c , d e f g h i j k ; ",
"l m n o p q r s t u v w x y z ; ",
"A B C D E F G H I J K L M N z ; ",
"O P Q R S T U V W X Y Z `  ...; ",
"+.@.#.$.%.&.*.=.-.;.>.,.'.).!.; ",
"  O ~.{.].^./.(._.:.<.[.}.|.1.; ",
"    +.2.3.4.5.6.7.<.8.9.0.a.b.; ",
"        c.d.e.f.g.h.i.j.a.k.l.; ",
"        . m.m.n.o.p.q.r.s.t.u.; ",
"        . ; ; ; ; ; ; ; ; ; ; ; "};
