/* XPM */
static char * local_xpm[] = {
"20 19 221 2",
"  	c None",
". 	c #72666A",
"+ 	c #453E40",
"@ 	c #494043",
"# 	c #564C50",
"$ 	c #685658",
"% 	c #292225",
"& 	c #4E433B",
"* 	c #998168",
"= 	c #BC986D",
"- 	c #C79C76",
"; 	c #B68D6F",
"> 	c #997A62",
", 	c #6D5D51",
"' 	c #675D5C",
") 	c #76706F",
"! 	c #665654",
"~ 	c #BC9674",
"{ 	c #FBCC98",
"] 	c #FCCE95",
"^ 	c #FACF96",
"/ 	c #FACD94",
"( 	c #FBC98B",
"_ 	c #FCC089",
": 	c #F3B47D",
"< 	c #986B55",
"[ 	c #343132",
"} 	c #292425",
"| 	c #71676A",
"1 	c #71625B",
"2 	c #DAAE7E",
"3 	c #FBCC94",
"4 	c #FBD199",
"5 	c #FCCF9A",
"6 	c #F8C690",
"7 	c #F9C38D",
"8 	c #F8CA93",
"9 	c #FEC18A",
"0 	c #FAB97E",
"a 	c #F7AC75",
"b 	c #845D4B",
"c 	c #484346",
"d 	c #939192",
"e 	c #C5C5C5",
"f 	c #AA8466",
"g 	c #FCC38A",
"h 	c #FDC992",
"i 	c #FCCE98",
"j 	c #EFBA86",
"k 	c #D2B49C",
"l 	c #C8B098",
"m 	c #EFBA88",
"n 	c #FDC08A",
"o 	c #FAB77D",
"p 	c #F7AA6F",
"q 	c #C58359",
"r 	c #594F51",
"s 	c #A6A3A4",
"t 	c #C3C3C3",
"u 	c #6F676A",
"v 	c #D39565",
"w 	c #F7B985",
"x 	c #F9C18B",
"y 	c #FAC492",
"z 	c #E6B692",
"A 	c #CFBEB4",
"B 	c #D9C2B0",
"C 	c #DBAD81",
"D 	c #F5B884",
"E 	c #FAAE75",
"F 	c #F19F6C",
"G 	c #D08155",
"H 	c #766F6F",
"I 	c #B3B2B2",
"J 	c #6F696A",
"K 	c #C6815D",
"L 	c #F4A674",
"M 	c #F8B07B",
"N 	c #F8B881",
"O 	c #CB9E78",
"P 	c #B89371",
"Q 	c #BE9B75",
"R 	c #CB9871",
"S 	c #F6AB76",
"T 	c #F49C65",
"U 	c #EA8D57",
"V 	c #AA7150",
"W 	c #9B9A9A",
"X 	c #BEBEBE",
"Y 	c #636166",
"Z 	c #353433",
"` 	c #794D3A",
" .	c #E78A5C",
"..	c #EE9562",
"+.	c #F29C69",
"@.	c #F2A26E",
"#.	c #EEAE83",
"$.	c #EAB094",
"%.	c #EB9D6F",
"&.	c #E9905B",
"*.	c #E1824F",
"=.	c #C6734B",
"-.	c #827371",
";.	c #ACACAC",
">.	c #4F4349",
",.	c #B9938C",
"'.	c #C19A8E",
").	c #8A5742",
"!.	c #CD774C",
"~.	c #E3A788",
"{.	c #D4B7A9",
"].	c #D7B6A5",
"^.	c #D3865E",
"/.	c #D77547",
"(.	c #CD6D40",
"_.	c #9C5841",
":.	c #7F6F71",
"<.	c #7C7A7F",
"[.	c #BDBCBC",
"}.	c #57535A",
"|.	c #5E4F4F",
"1.	c #D2AFA8",
"2.	c #C8AAA2",
"3.	c #B1A9AC",
"4.	c #E2CBCF",
"5.	c #C7B4AD",
"6.	c #AD8F84",
"7.	c #925034",
"8.	c #995537",
"9.	c #7A4835",
"0.	c #513A37",
"a.	c #302A2D",
"b.	c #54535A",
"c.	c #989799",
"d.	c #2E2C32",
"e.	c #908386",
"f.	c #D6BDB5",
"g.	c #B8A199",
"h.	c #857F83",
"i.	c #B1A39F",
"j.	c #72594C",
"k.	c #43342A",
"l.	c #292326",
"m.	c #272528",
"n.	c #0F0E12",
"o.	c #2E3235",
"p.	c #35393C",
"q.	c #77767B",
"r.	c #B4B3B8",
"s.	c #6A696B",
"t.	c #5A565C",
"u.	c #666262",
"v.	c #D8C8C1",
"w.	c #DDCAC4",
"x.	c #C4AFA9",
"y.	c #B4A3A1",
"z.	c #3F3635",
"A.	c #534B4D",
"B.	c #424448",
"C.	c #20232A",
"D.	c #43454C",
"E.	c #56595E",
"F.	c #474B4F",
"G.	c #88878C",
"H.	c #828189",
"I.	c #565359",
"J.	c #423F44",
"K.	c #928788",
"L.	c #CDBFBF",
"M.	c #DFD0CF",
"N.	c #B2A7A8",
"O.	c #6C676C",
"P.	c #68676C",
"Q.	c #1E1F23",
"R.	c #14181B",
"S.	c #23262B",
"T.	c #5A5B66",
"U.	c #777882",
"V.	c #A5A5A5",
"W.	c #8F8D95",
"X.	c #8D8F93",
"Y.	c #86898C",
"Z.	c #89888F",
"`.	c #69676E",
" +	c #68666E",
".+	c #A09BA0",
"++	c #8E888B",
"@+	c #616065",
"#+	c #4F5054",
"$+	c #24282B",
"%+	c #282A2E",
"&+	c #555158",
"*+	c #868389",
"=+	c #BFBFBF",
"-+	c #555555",
";+	c #5E5E5E",
">+	c #646464",
",+	c #69686F",
"'+	c #88878F",
")+	c #7E7D83",
"!+	c #828186",
"~+	c #838288",
"{+	c #8A8991",
"]+	c #727279",
"^+	c #5B5E64",
"/+	c #5D6066",
"(+	c #959499",
"_+	c #9E9DA2",
":+	c #515154",
"<+	c #5E5D61",
"[+	c #5E5D62",
"}+	c #76757B",
"|+	c #7F7E86",
"1+	c #95959D",
"2+	c #9699A0",
"3+	c #91939A",
"4+	c #86858A",
"5+	c #67676A",
"6+	c #626166",
"7+	c #67676B",
"8+	c #858586",
"                                        ",
"              . + @ #                   ",
"            $ % & * = - ; > , ' )       ",
"            ! ~ { ] ^ / ( _ : < [ } |   ",
"          1 2 3 4 5 6 7 8 9 0 a b c d e ",
"          f g h i j k l m n o p q r s t ",
"        u v w x y z A B C D E F G H I   ",
"        J K L M N O P Q R S T U V W X   ",
"      Y Z `  ...+.@.#.$.%.&.*.=.-.;.    ",
"      >.,.'.).!.~.{.].^./.(._.:.<.[.    ",
"    }.|.1.2.3.4.5.6.7.8.9.0.a.b.c.      ",
"    d.e.f.g.h.i.j.k.l.m.n.o.p.q.r.      ",
"  s.t.u.v.w.x.y.z.A.B.C.D.E.F.G.        ",
"  H.I.J.K.L.M.N.O.P.Q.R.S.T.U.V.        ",
"  W.X.Y.Z.`. +.+++@+#+$+%+&+*+=+        ",
"  -+;+>+,+'+)+!+~+{+]+^+/+(+_+          ",
"          :+<+[+}+|+1+2+3+4+            ",
"                    5+6+7+8+            ",
"                                        "};
