/* XPM */
static char * pdf_xpm[] = {
"16 16 138 2",
"  	c None",
". 	c #585858",
"+ 	c #DEDEDE",
"@ 	c #BCB7B1",
"# 	c #999999",
"$ 	c #FFFFFF",
"% 	c #FFF8F6",
"& 	c #FCF0F0",
"* 	c #FBFBFB",
"= 	c #EAEAEA",
"- 	c #6D6D6D",
"; 	c #D98582",
"> 	c #DB7A75",
", 	c #D9D9D9",
"' 	c #FCFCFC",
") 	c #707070",
"! 	c #CECECE",
"~ 	c #303030",
"{ 	c #F4F4F4",
"] 	c #CFBFBD",
"^ 	c #C65758",
"/ 	c #985C59",
"( 	c #ADA09D",
"_ 	c #D4C6C3",
": 	c #898989",
"< 	c #6B6B6B",
"[ 	c #424242",
"} 	c #D2D2D2",
"| 	c #D4D4D4",
"1 	c #E0E0E0",
"2 	c #EBC2C1",
"3 	c #B25051",
"4 	c #D9D5D2",
"5 	c #C2C2C2",
"6 	c #A49694",
"7 	c #D9CCC9",
"8 	c #E2E0DE",
"9 	c #8F8984",
"0 	c #C7C7C7",
"a 	c #E9E9E8",
"b 	c #F9E8E6",
"c 	c #BD6664",
"d 	c #9B5C5E",
"e 	c #E9E4E3",
"f 	c #E5E5E5",
"g 	c #C8C8C8",
"h 	c #B29690",
"i 	c #E3DFDB",
"j 	c #E7E0D9",
"k 	c #BEB6AF",
"l 	c #CFCFCF",
"m 	c #E4E4E4",
"n 	c #EED8D8",
"o 	c #B5615F",
"p 	c #C8BAB9",
"q 	c #DA8C8E",
"r 	c #CCB0B1",
"s 	c #DCDCDC",
"t 	c #ABABAB",
"u 	c #AF948F",
"v 	c #C8C2BB",
"w 	c #EEE7DC",
"x 	c #BCAE97",
"y 	c #F0998C",
"z 	c #C86160",
"A 	c #B95956",
"B 	c #BE5151",
"C 	c #BF5C5E",
"D 	c #E68480",
"E 	c #EE8584",
"F 	c #AC635F",
"G 	c #C9C9C9",
"H 	c #939393",
"I 	c #AF948E",
"J 	c #B8B2A7",
"K 	c #ECE2D4",
"L 	c #EA7258",
"M 	c #A44E43",
"N 	c #AF504A",
"O 	c #8F524F",
"P 	c #D6CAC9",
"Q 	c #C8BEBC",
"R 	c #B89C9C",
"S 	c #B16E6A",
"T 	c #BC2B2B",
"U 	c #D05B58",
"V 	c #D1AEA9",
"W 	c #907369",
"X 	c #BCB2A4",
"Y 	c #ECDFCA",
"Z 	c #BCAB90",
"` 	c #9F4140",
" .	c #6D514F",
"..	c #BCBDBB",
"+.	c #D3D2D2",
"@.	c #D2D1D0",
"#.	c #CCCCCC",
"$.	c #D0666A",
"%.	c #642121",
"&.	c #C93C2C",
"*.	c #937F74",
"=.	c #CDC0AD",
"-.	c #ECDBC2",
";.	c #BCA88A",
">.	c #A4A4A4",
",.	c #8C8C8C",
"'.	c #B9B9B9",
").	c #AFAFAF",
"!.	c #C0C0C0",
"~.	c #797270",
"{.	c #D03B31",
"].	c #DB563E",
"^.	c #90877A",
"/.	c #D2C3AC",
"(.	c #E9D6BA",
"_.	c #BCA685",
":.	c #989898",
"<.	c #9F9F9F",
"[.	c #8F8F8F",
"}.	c #A8A8A8",
"|.	c #847674",
"1.	c #A38882",
"2.	c #8C6E63",
"3.	c #867E71",
"4.	c #A19583",
"5.	c #D5C4A9",
"6.	c #E7D1B0",
"7.	c #BCA37F",
"8.	c #000000",
"9.	c #ACA190",
"0.	c #C1B29C",
"a.	c #D3C1A6",
"b.	c #E5CCA7",
"c.	c #BCA178",
"d.	c #BFAA88",
"e.	c #BEA57F",
"f.	c #BDA076",
"g.	c #BC9E73",
"        . . . . . . . . .       ",
"        . + + + + + @ . # .     ",
"        . + $ % & * = - $ # .   ",
"        . + $ ; > , ' ) ! $ # ~ ",
"        . { ] ^ / ( _ : ) < [ ~ ",
"      } | 1 2 3 4 5 6 7 8 @ 9 ~ ",
"      0 a b c d e f g h i j k ~ ",
"    l m n o p q r s t u v w x ~ ",
"  y z A B C D E F G H I J K x ~ ",
"L M N O P Q R S T U V W X Y Z ~ ",
"  `  ...+.@.#.#.$.%.&.*.=.-.;.~ ",
"    >.,.5 '.).!.~.{.].^./.(._.~ ",
"      :.<.[.}.|.1.2.3.4.5.6.7.~ ",
"        8.8.8.8.8.9.0.a.6.b.c.~ ",
"    8.8.8.8.8.8.8.8.8.d.e.f.g.~ ",
"  8.8.8.8.8.8.8.8.8.8.8.~ ~ ~ ~ "};
