/* XPM */
static char * sound_xpm[] = {
"16 16 133 2",
"  	c None",
". 	c #585858",
"+ 	c #DEDEDE",
"@ 	c #BCB7B1",
"# 	c #999999",
"$ 	c #FFFFFF",
"% 	c #6B7877",
"& 	c #D0D0D0",
"* 	c #FEFEFE",
"= 	c #EAEAEA",
"- 	c #6D6D6D",
"; 	c #575757",
"> 	c #626F6E",
", 	c #346668",
"' 	c #4E5252",
") 	c #E1E1E1",
"! 	c #FCFCFC",
"~ 	c #707070",
"{ 	c #CECECE",
"] 	c #303030",
"^ 	c #56605F",
"/ 	c #1BB7C1",
"( 	c #526466",
"_ 	c #6E6E6E",
": 	c #B8B8B8",
"< 	c #898989",
"[ 	c #6B6B6B",
"} 	c #424242",
"| 	c #003D40",
"1 	c #18A9B4",
"2 	c #5B5B5B",
"3 	c #747474",
"4 	c #737373",
"5 	c #8C8E8E",
"6 	c #F2F2F2",
"7 	c #F6F5F5",
"8 	c #E2E0DE",
"9 	c #8F8984",
"0 	c #1FBBC5",
"a 	c #01C2D2",
"b 	c #1C8692",
"c 	c #5E5E5E",
"d 	c #848484",
"e 	c #959595",
"f 	c #DFDFDF",
"g 	c #FBF9F6",
"h 	c #F4F0EC",
"i 	c #E7E0D9",
"j 	c #BEB6AF",
"k 	c #003638",
"l 	c #02B6C0",
"m 	c #02B7C3",
"n 	c #03B6C3",
"o 	c #75B4B8",
"p 	c #C0C0C0",
"q 	c #9F9F9F",
"r 	c #B6B6B6",
"s 	c #848888",
"t 	c #CFCECB",
"u 	c #F8F4ED",
"v 	c #F3EDE3",
"w 	c #EEE7DC",
"x 	c #BCAE97",
"y 	c #01191A",
"z 	c #02626A",
"A 	c #026E76",
"B 	c #027780",
"C 	c #4E929A",
"D 	c #E4E4E4",
"E 	c #8A8E8C",
"F 	c #CCC8C2",
"G 	c #F5EFE5",
"H 	c #F3EBDC",
"I 	c #ECE2D4",
"J 	c #03484C",
"K 	c #02575D",
"L 	c #026670",
"M 	c #398188",
"N 	c #F1F1F1",
"O 	c #F9F9F9",
"P 	c #898C88",
"Q 	c #CAC4BB",
"R 	c #F3EADC",
"S 	c #F1E6D4",
"T 	c #ECDFCA",
"U 	c #BCAB90",
"V 	c #022224",
"W 	c #025A61",
"X 	c #4D7E84",
"Y 	c #DBDBDB",
"Z 	c #ECECEC",
"` 	c #7C7873",
" .	c #C8C0B4",
"..	c #F1E4D2",
"+.	c #EEE0CA",
"@.	c #ECDBC2",
"#.	c #BCA88A",
"$.	c #152E30",
"%.	c #286870",
"&.	c #BFBFBF",
"*.	c #D1D1D1",
"=.	c #A49E94",
"-.	c #CAC0B1",
";.	c #EEE0C9",
">.	c #ECDCC1",
",.	c #E9D6BA",
"'.	c #BCA685",
").	c #384F50",
"!.	c #86A0A0",
"~.	c #DCDCDC",
"{.	c #B0A799",
"].	c #DACCB7",
"^.	c #ECDAC0",
"/.	c #E9D6B9",
"(.	c #E7D1B0",
"_.	c #BCA37F",
":.	c #E6E0D9",
"<.	c #55706C",
"[.	c #A69D8F",
"}.	c #C4B7A4",
"|.	c #ECDABF",
"1.	c #E9D6B8",
"2.	c #E5CCA7",
"3.	c #BCA178",
"4.	c #C6C1B6",
"5.	c #C4BDAC",
"6.	c #C3B8A3",
"7.	c #C2B39A",
"8.	c #C0AF91",
"9.	c #BFAA88",
"0.	c #BEA57F",
"a.	c #BDA076",
"b.	c #BC9E73",
"        . . . . . . . . .       ",
"        . + + + + + @ . # .     ",
"        . $ % % & * = - $ # .   ",
"        ; > , ' ' ) ! ~ { $ # ] ",
"        ^ / ( ~ _ : $ < ~ [ } ] ",
"      | / 1 2 3 4 5 6 7 8 @ 9 ] ",
"    | 0 a b c d e 5 f g h i j ] ",
"  k l m n o p q r s t u v w x ] ",
"  y z A B C _ = D E F G H I x ] ",
"    J K L M : N O P Q R S T U ] ",
"      V W X p Y Z `  ...+.@.#.] ",
"        $.%.&.*.r =.-.;.>.,.'.] ",
"        . ).!.~.` {.].^./.(._.] ",
"        . :.).<.[.}.|.1.(.2.3.] ",
"        . 4.4.5.6.7.8.9.0.a.b.] ",
"        . ] ] ] ] ] ] ] ] ] ] ] "};
