/* XPM */
static char * unknown_xpm[] = {
"16 16 93 2",
"  	c None",
". 	c #585858",
"+ 	c #898989",
"@ 	c #DEDEDE",
"# 	c #BCB7B1",
"$ 	c #999999",
"% 	c #407642",
"& 	c #61BE51",
"* 	c #FFFFFF",
"= 	c #EAEAEA",
"- 	c #6D6D6D",
"; 	c #123807",
"> 	c #2A5E29",
", 	c #52A941",
"' 	c #F8F8F8",
") 	c #707070",
"! 	c #CECECE",
"~ 	c #303030",
"{ 	c #406439",
"] 	c #B8B8B8",
"^ 	c #C9C9C9",
"/ 	c #A3B0A7",
"( 	c #205C13",
"_ 	c #D7D7D7",
": 	c #6B6B6B",
"< 	c #424242",
"[ 	c #3E853C",
"} 	c #20561C",
"| 	c #AAF599",
"1 	c #40A32C",
"2 	c #1A461A",
"3 	c #B5B5B5",
"4 	c #F6F5F5",
"5 	c #E2E0DE",
"6 	c #8F8984",
"7 	c #2E801B",
"8 	c #B2B2B2",
"9 	c #FBF9F6",
"0 	c #F4F0EC",
"a 	c #E7E0D9",
"b 	c #BEB6AF",
"c 	c #A5A4A4",
"d 	c #FBF8F5",
"e 	c #F8F4ED",
"f 	c #F3EDE3",
"g 	c #EEE7DC",
"h 	c #BCAE97",
"i 	c #A6A5A5",
"j 	c #FAF8F4",
"k 	c #A19582",
"l 	c #F5EFE5",
"m 	c #ECE2D4",
"n 	c #A3A3A2",
"o 	c #F8F3EB",
"p 	c #F6F2EA",
"q 	c #BCAB90",
"r 	c #40673E",
"s 	c #257115",
"t 	c #AEACA8",
"u 	c #F5EEE3",
"v 	c #F3EADB",
"w 	c #EEE0CA",
"x 	c #BCA88A",
"y 	c #DDD0C4",
"z 	c #DCCFBD",
"A 	c #D7CAB6",
"B 	c #F5EEE2",
"C 	c #F0E4D2",
"D 	c #EEE0C9",
"E 	c #ECDCC1",
"F 	c #E9D6BA",
"G 	c #BCA685",
"H 	c #D0CAC0",
"I 	c #F2E8D9",
"J 	c #ECDAC0",
"K 	c #E9D6B9",
"L 	c #E7D1B0",
"M 	c #BCA37F",
"N 	c #B6AFA3",
"O 	c #F0E4D0",
"P 	c #EEDEC8",
"Q 	c #E9D6B8",
"R 	c #E5CCA7",
"S 	c #BCA178",
"T 	c #C6C1B6",
"U 	c #C4BDAC",
"V 	c #C3B8A3",
"W 	c #C2B39A",
"X 	c #C0AF91",
"Y 	c #BFAA88",
"Z 	c #BEA57F",
"` 	c #BDA076",
" .	c #BC9E73",
"        . . . . . . . . .       ",
"        + @ @ @ @ @ # . $ .     ",
"      % & & & & % * = - * $ .   ",
"    % & ; > > ; , % ' ) ! * $ ~ ",
"    & ; { ] ^ / , ( _ + ) : < ~ ",
"    [ } + @ * | 1 2 3 4 5 # 6 ~ ",
"      7 ) @ | & 1 2 8 9 0 a b ~ ",
"        . | & 1 2 c d e f g h ~ ",
"        . & 1 2 i j k l k m h ~ ",
"        . 1 2 n j o k p k p q ~ ",
"        . r s t o u v p w p x ~ ",
"        . y z A B k C D E F G ~ ",
"        . & r H I p k J K L M ~ ",
"        . r ; N O P p Q L R S ~ ",
"        . T T U V W X Y Z `  .~ ",
"        . ~ ~ ~ ~ ~ ~ ~ ~ ~ ~ ~ "};
