/* XPM */
static char * video_xpm[] = {
"16 16 148 2",
"  	c None",
". 	c #585858",
"+ 	c #836C1C",
"@ 	c #A18427",
"# 	c #7D7861",
"$ 	c #BABABA",
"% 	c #909090",
"& 	c #DEDEDE",
"* 	c #BCB7B1",
"= 	c #999999",
"- 	c #CDB747",
"; 	c #D3C04E",
"> 	c #D3BF4E",
", 	c #AAAAAA",
"' 	c #D0D0D0",
") 	c #FFFFFF",
"! 	c #EAEAEA",
"~ 	c #6D6D6D",
"{ 	c #C6AE43",
"] 	c #BAA038",
"^ 	c #B59A33",
"/ 	c #A49047",
"( 	c #ACACAC",
"_ 	c #FCFCFC",
": 	c #707070",
"< 	c #CECECE",
"[ 	c #303030",
"} 	c #B89D34",
"| 	c #C3A93D",
"1 	c #B6A455",
"2 	c #D9CE66",
"3 	c #A4A4A4",
"4 	c #898989",
"5 	c #6B6B6B",
"6 	c #424242",
"7 	c #E4D65E",
"8 	c #CAC26B",
"9 	c #EEE169",
"0 	c #DACC68",
"a 	c #DFCE6D",
"b 	c #9D9D9D",
"c 	c #F6F5F5",
"d 	c #E2E0DE",
"e 	c #8F8984",
"f 	c #B2AF95",
"g 	c #CBB54A",
"h 	c #BAA23B",
"i 	c #A6903B",
"j 	c #A68E3E",
"k 	c #988138",
"l 	c #5F5A4B",
"m 	c #959595",
"n 	c #FBF9F6",
"o 	c #F4F0EC",
"p 	c #E7E0D9",
"q 	c #BEB6AF",
"r 	c #404040",
"s 	c #9C9680",
"t 	c #896E1A",
"u 	c #796114",
"v 	c #6D5D21",
"w 	c #6B602C",
"x 	c #5C5629",
"y 	c #504E2F",
"z 	c #464646",
"A 	c #8D8D8D",
"B 	c #CCCAC8",
"C 	c #F8F4ED",
"D 	c #F3EDE3",
"E 	c #EEE7DC",
"F 	c #BCAE97",
"G 	c #848174",
"H 	c #3A3707",
"I 	c #544C1D",
"J 	c #72662F",
"K 	c #786A3A",
"L 	c #5B563E",
"M 	c #BEA64D",
"N 	c #5C583F",
"O 	c #848382",
"P 	c #C8C2BA",
"Q 	c #F3EBDC",
"R 	c #ECE2D4",
"S 	c #8B8471",
"T 	c #B09840",
"U 	c #A7954F",
"V 	c #D8C865",
"W 	c #D8C663",
"X 	c #D5C260",
"Y 	c #4E4831",
"Z 	c #7B7A77",
"` 	c #C4BBAC",
" .	c #ECDFCA",
"..	c #BCAB90",
"+.	c #444444",
"@.	c #959178",
"#.	c #67614A",
"$.	c #CDB85B",
"%.	c #C2AB51",
"&.	c #BEA54B",
"*.	c #BAA146",
"=.	c #C0A74A",
"-.	c #443F26",
";.	c #73706C",
">.	c #C0B29E",
",.	c #BCA88A",
"'.	c #86806A",
").	c #C0A84D",
"!.	c #CAB353",
"~.	c #D3BE5C",
"{.	c #DCCC65",
"].	c #E4D76E",
"^.	c #BEB564",
"/.	c #141414",
"(.	c #6B6862",
"_.	c #BCAC91",
":.	c #8A866C",
"<.	c #ECE176",
"[.	c #EEE278",
"}.	c #EEE177",
"|.	c #BEB464",
"1.	c #3E3A2B",
"2.	c #CEB958",
"3.	c #2D2710",
"4.	c #6A665F",
"5.	c #848067",
"6.	c #D0BB5B",
"7.	c #A4944E",
"8.	c #A38935",
"9.	c #957B2D",
"0.	c #876E27",
"a.	c #1B1708",
"b.	c #4C4A46",
"c.	c #C6C1B6",
"d.	c #736C58",
"e.	c #786526",
"f.	c #685A22",
"g.	c #58501D",
"h.	c #504A1B",
"i.	c #5E531E",
"j.	c #28210C",
"k.	c #222012",
"l.	c #504615",
"m.	c #605218",
"n.	c #816A22",
"o.	c #9B802B",
"p.	c #AC9135",
"q.	c #B49C3B",
"        . . . . . . . . .       ",
"+ @ # $ % & & & & & * . = .     ",
"- ; > # , ' ) ) ) ) ! ~ ) = .   ",
"{ ] ^ / # ( ' ) ) ) _ : < ) = [ ",
"} | 1 # 2 # 3 ' ) ) ) 4 : 5 6 [ ",
"7 8 # 9 0 a # b ' ) ) c d * e [ ",
"f # g h i j k l m ' ) n o p q [ ",
"r s t u v w x y z A B C D E F [ ",
"  r G H I J K L M N O P Q R F [ ",
"    r S T U L V W X Y Z `  ...[ ",
"      +.@.#.$.%.&.*.=.-.;.>.,.[ ",
"        r '.).!.~.{.].^./.(._.[ ",
"        . r :.<.[.}.|.1.2.3.4.[ ",
"        . & r 5.6.7.1.8.9.0.a.b.",
"        . c.c.r d.1.e.f.g.h.i.j.",
"        . [ [ [ r k.l.m.n.o.p.q."};
