/* XPM */
static char * get_format_xpm[] = {
"48 48 405 2",
"  	c None",
". 	c #9C9C9C",
"+ 	c #A8A8A8",
"@ 	c #B8B8B9",
"# 	c #CDCCCD",
"$ 	c #DCDCDC",
"% 	c #E8E8E8",
"& 	c #EEEEEE",
"* 	c #F0F0F1",
"= 	c #F1F0F1",
"- 	c #EFEFEF",
"; 	c #E8E7E8",
"> 	c #DBDADD",
", 	c #C7C7C9",
"' 	c #B3B3B4",
") 	c #A2A2A3",
"! 	c #ADADAE",
"~ 	c #B7B7B8",
"{ 	c #C6C6C7",
"] 	c #D7D7D8",
"^ 	c #E5E4E5",
"/ 	c #EDEDEE",
"( 	c #F3F3F4",
"_ 	c #F6F6F7",
": 	c #F8F7F8",
"< 	c #F7F7F7",
"[ 	c #EDECEE",
"} 	c #E2E2E3",
"| 	c #D3D3D4",
"1 	c #C3C2C4",
"2 	c #B0B0B1",
"3 	c #A6A6A7",
"4 	c #B4B4B5",
"5 	c #BBBBBC",
"6 	c #D5D5D6",
"7 	c #E9E9EA",
"8 	c #F8F8F9",
"9 	c #FDFDFD",
"0 	c #FFFFFF",
"a 	c #F5F5F6",
"b 	c #E8E8E9",
"c 	c #CECED0",
"d 	c #B6B6B8",
"e 	c #A5A4A7",
"f 	c #B2B2B3",
"g 	c #CCCCCD",
"h 	c #E5E5E6",
"i 	c #F4F4F5",
"j 	c #FBFBFB",
"k 	c #FEFEFE",
"l 	c #FAFAFB",
"m 	c #E0E0E1",
"n 	c #C5C4C7",
"o 	c #A5A4A8",
"p 	c #B7B6B7",
"q 	c #CECECF",
"r 	c #E4E4E4",
"s 	c #F8F8F8",
"t 	c #F5F4F5",
"u 	c #E2E2E4",
"v 	c #C2C2C5",
"w 	c #AEADB1",
"x 	c #B2B1B2",
"y 	c #BFBEBF",
"z 	c #F9F9F9",
"A 	c #FAFAFA",
"B 	c #E4E4E7",
"C 	c #BDBCC0",
"D 	c #9B9A9E",
"E 	c #9F9FA0",
"F 	c #BEBEBF",
"G 	c #DEDDDF",
"H 	c #D7D6D8",
"I 	c #B0AFB3",
"J 	c #99989B",
"K 	c #ADADAF",
"L 	c #F2F2F2",
"M 	c #FCFCFC",
"N 	c #EAEAEB",
"O 	c #C9C9CC",
"P 	c #9D9CA0",
"Q 	c #949296",
"R 	c #C1C0C2",
"S 	c #E1E1E3",
"T 	c #A6A4AA",
"U 	c #969498",
"V 	c #959495",
"W 	c #AAAAAA",
"X 	c #D1D1D2",
"Y 	c #ECECED",
"Z 	c #EBEBEC",
"` 	c #B9B8BB",
" .	c #9C9A9E",
"..	c #8B8A8E",
"+.	c #A4A4A4",
"@.	c #B0AFB0",
"#.	c #DEDEDF",
"$.	c #F2F1F2",
"%.	c #CAC9CB",
"&.	c #A2A0A4",
"*.	c #858488",
"=.	c #919192",
"-.	c #ABAAAC",
";.	c #B7B7B9",
">.	c #EAE9EB",
",.	c #F6F6F6",
"'.	c #D8D8D9",
").	c #A8A6AA",
"!.	c #828085",
"~.	c #929193",
"{.	c #B2B1B4",
"].	c #BEBDC0",
"^.	c #EFEFF0",
"/.	c #E3E3E4",
"(.	c #8E8D8F",
"_.	c #B8B7BA",
":.	c #C3C3C5",
"<.	c #F2F2F3",
"[.	c #E9EAEA",
"}.	c #B2B2B5",
"|.	c #89888B",
"1.	c #B6B6B9",
"2.	c #C7C6C9",
"3.	c #F4F4F4",
"4.	c #FAFBFB",
"5.	c #ECEDED",
"6.	c #B5B4B7",
"7.	c #817F85",
"8.	c #848286",
"9.	c #999999",
"0.	c #ACACAE",
"a.	c #C8C6CA",
"b.	c #ECECEC",
"c.	c #B4B3B5",
"d.	c #807E83",
"e.	c #817F83",
"f.	c #ADACAF",
"g.	c #C3C2C5",
"h.	c #F3F2F3",
"i.	c #E9E9E9",
"j.	c #B0AEB2",
"k.	c #7B797F",
"l.	c #7F7D81",
"m.	c #B0AFB2",
"n.	c #BDBCBE",
"o.	c #E4E3E4",
"p.	c #A8A7AB",
"q.	c #757379",
"r.	c #7D7C80",
"s.	c #A6A5A9",
"t.	c #B4B4B7",
"u.	c #FCFDFD",
"v.	c #F4F3F4",
"w.	c #D8D7D8",
"x.	c #9C9B9E",
"y.	c #6C6B70",
"z.	c #7E7D80",
"A.	c #9E9EA1",
"B.	c #ACABAE",
"C.	c #E1E1E2",
"D.	c #F7F6F7",
"E.	c #EDEDED",
"F.	c #C5C4C6",
"G.	c #8F8E91",
"H.	c #69686C",
"I.	c #838284",
"J.	c #99999B",
"K.	c #A4A4A6",
"L.	c #D1CFD2",
"M.	c #EDECED",
"N.	c #AFAEB0",
"O.	c #69686D",
"P.	c #898889",
"Q.	c #989899",
"R.	c #9E9E9F",
"S.	c #D9D8DA",
"T.	c #D6D6D6",
"U.	c #939296",
"V.	c #757479",
"W.	c #706E73",
"X.	c #8E8E8F",
"Y.	c #9B9B9D",
"Z.	c #A2A2A5",
"`.	c #EEEEEF",
" +	c #E2E1E2",
".+	c #BBBABC",
"++	c #7B7A7F",
"@+	c #706F74",
"#+	c #79787B",
"$+	c #8E8D8E",
"%+	c #959498",
"&+	c #BBBABD",
"*+	c #E0DFE1",
"=+	c #F1F1F1",
"-+	c #9A989C",
";+	c #6A696E",
">+	c #717175",
",+	c #858487",
"'+	c #B7B6BA",
")+	c #F0EFF1",
"!+	c #FCFCFD",
"~+	c #F5F5F5",
"{+	c #E0DFE0",
"]+	c #A8A7AA",
"^+	c #737277",
"/+	c #67676B",
"(+	c #7B7B7D",
"_+	c #929292",
":+	c #CDCCCE",
"<+	c #E7E7E9",
"[+	c #DFDEDF",
"}+	c #B1B0B3",
"|+	c #848387",
"1+	c #66646A",
"2+	c #737376",
"3+	c #818183",
"4+	c #AFAEAF",
"5+	c #C6C5C6",
"6+	c #DDDDDE",
"7+	c #DEDDE0",
"8+	c #DDDDDF",
"9+	c #DEDEDE",
"0+	c #E3E3E3",
"a+	c #EBEBEB",
"b+	c #F3F3F3",
"c+	c #F0F0F0",
"d+	c #DBDBDC",
"e+	c #BAB9BB",
"f+	c #807F83",
"g+	c #69676D",
"h+	c #807F82",
"i+	c #B1B1B1",
"j+	c #D1D0D1",
"k+	c #D0CFD1",
"l+	c #AFADAF",
"m+	c #9A999B",
"n+	c #B0AFB1",
"o+	c #DBDBDB",
"p+	c #CFCED0",
"q+	c #A4A3A6",
"r+	c #7A797D",
"s+	c #646268",
"t+	c #6B6A6F",
"u+	c #79787C",
"v+	c #BCBBBC",
"w+	c #E9E8E9",
"x+	c #DDDCDC",
"y+	c #ACAAAC",
"z+	c #908E91",
"A+	c #838285",
"B+	c #9D9D9F",
"C+	c #C1C1C2",
"D+	c #D1D1D1",
"E+	c #DDDDDD",
"F+	c #E5E5E5",
"G+	c #EAEAEA",
"H+	c #D9D8D9",
"I+	c #7B7A7E",
"J+	c #68666B",
"K+	c #737276",
"L+	c #CCCBCC",
"M+	c #EBEAEB",
"N+	c #F6F5F6",
"O+	c #BAB7B9",
"P+	c #898789",
"Q+	c #7D7C7F",
"R+	c #858587",
"S+	c #989799",
"T+	c #A7A7A9",
"U+	c #B5B5B7",
"V+	c #C1C0C1",
"W+	c #C7C7C7",
"X+	c #CACACB",
"Y+	c #C5C4C5",
"Z+	c #AAA8AB",
"`+	c #918F92",
" @	c #777579",
".@	c #67656B",
"+@	c #656469",
"@@	c #6B6A6E",
"#@	c #D0CFD0",
"$@	c #F6F5F5",
"%@	c #E6E5E5",
"&@	c #B7B5B7",
"*@	c #8A878A",
"=@	c #807E81",
"-@	c #858586",
";@	c #7F7E81",
">@	c #818084",
",@	c #87878B",
"'@	c #89888C",
")@	c #868689",
"!@	c #79787D",
"~@	c #6B696E",
"{@	c #6F6E72",
"]@	c #7B7A7D",
"^@	c #868587",
"/@	c #BAB9B9",
"(@	c #CBCACA",
"_@	c #F1F0F0",
":@	c #E7E5E5",
"<@	c #B9B7B8",
"[@	c #949294",
"}@	c #7E7B7E",
"|@	c #878788",
"1@	c #8A898B",
"2@	c #79777B",
"3@	c #7E7C80",
"4@	c #818083",
"5@	c #7B7B7E",
"6@	c #79797C",
"7@	c #77767A",
"8@	c #757478",
"9@	c #767679",
"0@	c #767579",
"a@	c #818082",
"b@	c #AFAFAF",
"c@	c #E9E8E8",
"d@	c #F8F7F7",
"e@	c #E8E6E7",
"f@	c #C6C4C5",
"g@	c #8B8A8B",
"h@	c #7D7B7E",
"i@	c #817F82",
"j@	c #888889",
"k@	c #828284",
"l@	c #7F7F81",
"m@	c #808082",
"n@	c #868688",
"o@	c #8C8C8E",
"p@	c #CFCFCF",
"q@	c #E8E7E7",
"r@	c #C0BEC0",
"s@	c #8C8A8D",
"t@	c #7B797D",
"u@	c #909091",
"v@	c #B8B7B7",
"w@	c #C9C9C9",
"x@	c #E7E7E7",
"y@	c #F3F3F2",
"z@	c #EDECEC",
"A@	c #C2C0C1",
"B@	c #989699",
"C@	c #7B797C",
"D@	c #828184",
"E@	c #89898B",
"F@	c #ADACAD",
"G@	c #C8C7C8",
"H@	c #E7E7E6",
"I@	c #F8F8F7",
"J@	c #EEEDED",
"K@	c #CFCECE",
"L@	c #8F8D8F",
"M@	c #8D8D8E",
"N@	c #ABABAB",
"O@	c #CBCACB",
"P@	c #F5F4F4",
"Q@	c #918F90",
"R@	c #7A797B",
"S@	c #8B8A8C",
"T@	c #B3B3B3",
"U@	c #EFEEEF",
"V@	c #C8C6C8",
"W@	c #9D9B9D",
"X@	c #7C7A7C",
"Y@	c #848486",
"Z@	c #A7A7A7",
"`@	c #C3C2C3",
" #	c #E3E2E3",
".#	c #F0EFEF",
"+#	c #D4D2D4",
"@#	c #969496",
"##	c #7E7C7F",
"$#	c #78777B",
"%#	c #888789",
"&#	c #A5A5A5",
"*#	c #F7F6F6",
"=#	c #CCCACB",
"-#	c #9A9799",
";#	c #7D7A7E",
">#	c #B0B0B0",
",#	c #B9B9B9",
"'#	c #F0EFF0",
")#	c #CFCDCE",
"!#	c #A4A1A3",
"~#	c #D4D3D4",
"{#	c #D7D5D6",
"]#	c #9F9C9E",
"^#	c #838083",
"/#	c #787679",
"(#	c #EAE8EA",
"_#	c #EBE9EB",
":#	c #C9C6C7",
"<#	c #999597",
"[#	c #817D80",
"}#	c #828183",
"|#	c #D7D6D7",
"1#	c #D2D1D2",
"2#	c #A09D9F",
"3#	c #817D81",
"4#	c #B4B3B4",
"5#	c #929192",
"6#	c #807E80",
"7#	c #79767A",
"8#	c #838184",
"                                                                                                ",
"                                                                                                ",
"                                              . + @ # $ % & * = - ; > , ' ) .                   ",
"                                            ! ~ { ] ^ / ( _ : : < ( [ } | 1 2 3                 ",
"                                          4 5 6 7 8 9 0 0 0 0 0 0 0 0 9 a b c d e               ",
"                                        f g h i j k 0 0 0 0 0 0 0 0 0 0 9 l a m n o             ",
"                                      p q r s k 0 0 0 0 0 0 0 0 0 0 0 0 0 0 0 t u v w           ",
"                                    x y b z 0 0 0 0 0 0 0 0 0 0 0 0 0 0 0 0 0 0 A B C D         ",
"                                  E F G _ k 0 0 0 0 0 0 0 0 0 0 0 0 0 0 0 0 0 0 k A H I J       ",
"                                  K c L M 0 0 0 0 0 0 0 0 0 0 0 0 0 0 0 0 0 0 0 0 0 N O P Q     ",
"                                  R m k 0 0 0 0 0 0 0 0 0 0 0 0 0 0 0 0 0 0 0 0 0 0 s S T U V   ",
"                                W X Y 0 0 0 0 0 0 0 0 0 0 0 0 0 0 0 0 0 0 0 0 0 0 0 M Z `  ...  ",
"                              +.@.#.i 0 0 0 0 0 0 0 0 0 0 0 0 0 0 0 0 0 0 0 0 0 0 0 9 $.%.&.*.=.",
"                              -.;.>.j 0 0 0 0 0 0 0 0 0 0 0 0 0 0 0 0 0 0 0 0 0 0 0 k ,.'.).!.~.",
"                              {.].^.9 0 0 0 0 0 0 0 0 0 0 0 0 0 0 0 0 0 0 0 0 0 0 0 k 8 /.w !.(.",
"                              _.:.<.k 0 0 0 0 0 0 0 0 0 0 0 0 0 0 0 0 0 0 0 0 0 0 0 k A [.}.!.|.",
"                              1.2.3.0 0 0 0 0 0 0 0 0 0 0 0 0 0 0 0 0 0 0 0 0 0 0 0 k 4.5.6.7.8.",
"                            9.0.a.3.0 0 0 0 0 0 0 0 0 0 0 0 0 0 0 0 0 0 0 0 0 0 0 0 k A b.c.d.e.",
"                              f.g.h.0 0 0 0 0 0 0 0 0 0 0 0 0 0 0 0 0 0 0 0 0 0 0 0 k z i.j.k.l.",
"                              m.n.* k 0 k k 0 0 0 0 0 0 0 0 0 0 0 0 0 0 0 0 0 0 0 0 k : o.p.q.r.",
"                              s.t.Y u.0 k k 0 0 0 0 0 0 0 0 0 0 0 0 0 0 0 0 0 0 0 0 9 v.w.x.y.z.",
"                              A.B.C.D.0 k k 0 0 0 0 0 0 0 0 0 0 0 0 0 0 0 0 0 0 0 0 j E.F.G.H.I.",
"                              J.K.L.M.9 9 9 k 0 0 0 0 0 0 0 0 0 0 0 0 0 0 0 0 0 0 k s r N.!.O.P.",
"                              Q.R.6.S.< A M k 0 0 0 0 0 0 0 0 0 0 0 0 0 0 0 0 0 0 9 L T.U.V.W.X.",
"                                Y.Z., `.z 9 k 0 0 0 0 0 0 0 0 0 0 0 0 0 0 0 0 0 k A  +.+++@+#+$+",
"                                  %+&+*+< 9 k 0 0 0 0 0 0 0 0 0 0 0 0 0 0 0 0 k j =+%.-+;+>+,+  ",
"                                    '+2.)+!+0 0 0 0 0 0 0 0 0 0 0 0 0 0 0 0 k M ~+{+]+^+/+(+_+  ",
"                                    .+:+<+( < < A M k k 0 0 0 0 0 0 0 0 k 9 j <.[+}+|+1+2+3+    ",
"                                  4+5+6+7+8+9+0+a+b+s j 9 k 0 0 0 0 0 k M s c+d+e+f+g+1+h+      ",
"                                i+j+; ^.k+l+m+n+{ o+i.L s M 9 k k k 9 A 3.% p+q+r+s+t+u+        ",
"                              v+# w+b.x+y+z+A+G.B+! C+D+E+F+G+b.b.G+r H+5+N.U I+J+y.K+          ",
"                            @.L+M+N+[+O+P+Q+r.I+z.R+S+T+U+V+W+X+X+Y+.+Z+`+ @.@+@@@Q+            ",
"                          @.#@; $@%@&@*@=@Q+    -@-@;@l.>@*.,@'@)@>@!@W.~@O.{@]@^@              ",
"                        /@(@; _@:@<@[@}@|@1@      -@2@3@4@;@r.5@6@7@8@K+9@6@0@a@                ",
"                      b@(@c@d@e@f@g@h@i@_+              X.j@k@l@Q+z.m@n@o@=.                    ",
"                    4+p@q@d@_@r@s@t@A+u@                                                        ",
"                  v@w@x@y@z@A@B@C@D@E@                                                          ",
"                F@G@H@I@J@K@L@C@]@M@                                                            ",
"              N@O@^ d@P@f@Q@R@l@S@                                                              ",
"            T@Y+r L U@V@W@X@z.Y@                                                                ",
"          Z@`@ #< .#+#@###$#%#                                                                  ",
"        &#`@{+*#*#=#-#;###R+                                                                    ",
"      >#,#E+'#_@)#!#=@h@h+                                                                      ",
"      L+~#$.U@{#]#^#/#A+                                                                        ",
"      (#_#_@:#<#[###}#                                                                          ",
"      |#1#A@2#3#}@=@                                                                            ",
"        4#5#6#7#8#                                                                              ",
"                                                                                                "};
