/* XPM */
static char * preview_xpm[] = {
"48 48 354 2",
"  	c None",
". 	c #1D1C1D",
"+ 	c #161616",
"@ 	c #181818",
"# 	c #1A1A1A",
"$ 	c #000000",
"% 	c #020202",
"& 	c #0A0A0A",
"* 	c #1F1E1F",
"= 	c #202020",
"- 	c #060606",
"; 	c #111011",
"> 	c #1C1C1C",
", 	c #141414",
"' 	c #070607",
") 	c #030203",
"! 	c #050505",
"~ 	c #111111",
"{ 	c #1B1A1B",
"] 	c #080808",
"^ 	c #0E0D0E",
"/ 	c #1C1B1C",
"( 	c #0F0E0F",
"_ 	c #080708",
": 	c #040404",
"< 	c #030303",
"[ 	c #222122",
"} 	c #151415",
"| 	c #0D0C0D",
"1 	c #191819",
"2 	c #070707",
"3 	c #191919",
"4 	c #0C0C0C",
"5 	c #131213",
"6 	c #0D0D0D",
"7 	c #121212",
"8 	c #1B2C0C",
"9 	c #1A2012",
"0 	c #23211E",
"a 	c #1C1817",
"b 	c #181212",
"c 	c #24201E",
"d 	c #191616",
"e 	c #0C0B0B",
"f 	c #100F0F",
"g 	c #131313",
"h 	c #171717",
"i 	c #1A191A",
"j 	c #151515",
"k 	c #100D0D",
"l 	c #150E0D",
"m 	c #2A1F1B",
"n 	c #211B16",
"o 	c #151511",
"p 	c #211F1D",
"q 	c #191414",
"r 	c #120709",
"s 	c #240A11",
"t 	c #2B4A17",
"u 	c #294118",
"v 	c #2B371B",
"w 	c #383223",
"x 	c #392821",
"y 	c #38211F",
"z 	c #3B2B2A",
"A 	c #2A2122",
"B 	c #1A1618",
"C 	c #1F1D1D",
"D 	c #212021",
"E 	c #201F20",
"F 	c #211F1F",
"G 	c #201C18",
"H 	c #252014",
"I 	c #3E3721",
"J 	c #373820",
"K 	c #2D321D",
"L 	c #393025",
"M 	c #382420",
"N 	c #36181B",
"O 	c #3A1721",
"P 	c #3C1A27",
"Q 	c #3D692B",
"R 	c #508B3D",
"S 	c #629644",
"T 	c #749247",
"U 	c #887548",
"V 	c #965E49",
"W 	c #994D4D",
"X 	c #824E5C",
"Y 	c #5F404E",
"Z 	c #3B2D36",
"` 	c #221D1D",
" .	c #141312",
"..	c #1A1515",
"+.	c #2C331D",
"@.	c #415B29",
"#.	c #598B41",
"$.	c #6A9446",
"%.	c #798A47",
"&.	c #8C6F49",
"*.	c #965A4B",
"=.	c #954A4F",
"-.	c #79475B",
";.	c #5D3B51",
">.	c #442E41",
",.	c #407C33",
"'.	c #4E963F",
").	c #62AE4B",
"!.	c #77AF50",
"~.	c #8DA052",
"{.	c #A37C52",
"].	c #AE6457",
"^.	c #AD5564",
"/.	c #95537C",
"(.	c #774D7E",
"_.	c #57416C",
":.	c #352A35",
"<.	c #231D1E",
"[.	c #141212",
"}.	c #0B0A0B",
"|.	c #191917",
"1.	c #232B1D",
"2.	c #3B622E",
"3.	c #569A40",
"4.	c #68B14D",
"5.	c #7EAA51",
"6.	c #939651",
"7.	c #A77552",
"8.	c #AE605C",
"9.	c #A9546A",
"0.	c #8E5280",
"a.	c #6F497C",
"b.	c #533F6E",
"c.	c #3E2A51",
"d.	c #2A5422",
"e.	c #448C3A",
"f.	c #61C451",
"g.	c #6EC352",
"h.	c #81B051",
"i.	c #969451",
"j.	c #AA7053",
"k.	c #AE5C5E",
"l.	c #A85172",
"m.	c #955094",
"n.	c #8052A8",
"o.	c #684EA0",
"p.	c #463657",
"q.	c #332933",
"r.	c #211C1C",
"s.	c #070606",
"t.	c #121111",
"u.	c #252923",
"v.	c #2E4A29",
"w.	c #498F3E",
"x.	c #65CA51",
"y.	c #73C052",
"z.	c #87A751",
"A.	c #9C8951",
"B.	c #AE6953",
"C.	c #AC5964",
"D.	c #A2507D",
"E.	c #91509A",
"F.	c #7A52A6",
"G.	c #5F4C9A",
"H.	c #3A2957",
"I.	c #312046",
"J.	c #235224",
"K.	c #42923B",
"L.	c #66CD52",
"M.	c #75BC52",
"N.	c #8AA451",
"O.	c #9E8751",
"P.	c #AE6757",
"Q.	c #AB5868",
"R.	c #A05082",
"S.	c #8B50A3",
"T.	c #7851B9",
"U.	c #624CB7",
"V.	c #3E347C",
"W.	c #2B2546",
"X.	c #1B181A",
"Y.	c #232B20",
"Z.	c #31612A",
"`.	c #4D9F3F",
" +	c #6ACA52",
".+	c #7BB752",
"++	c #909B51",
"@+	c #A47D52",
"#+	c #AF6258",
"$+	c #A85570",
"%+	c #99508D",
"&+	c #8850A9",
"*+	c #7451BD",
"=+	c #5A49B5",
"-+	c #312663",
";+	c #271E4E",
">+	c #215022",
",+	c #43903A",
"'+	c #7EB252",
")+	c #929652",
"!+	c #A57954",
"~+	c #B05E5C",
"{+	c #A85472",
"]+	c #98508E",
"^+	c #8250AF",
"/+	c #7150C4",
"(+	c #5C4AC1",
"_+	c #3A3286",
":+	c #2B284E",
"<+	c #1E1D1E",
"[+	c #121112",
"}+	c #283125",
"|+	c #32672C",
"1+	c #509F40",
"2+	c #70C452",
"3+	c #83AC52",
"4+	c #988E52",
"5+	c #AA7055",
"6+	c #AF5A5F",
"7+	c #A3527A",
"8+	c #915099",
"9+	c #7E50B5",
"0+	c #6C50C8",
"a+	c #5548BE",
"b+	c #2C2565",
"c+	c #221C4F",
"d+	c #234E21",
"e+	c #478B3A",
"f+	c #70C153",
"g+	c #86A751",
"h+	c #9A8953",
"i+	c #AA6C57",
"j+	c #B05662",
"k+	c #A4507B",
"l+	c #7950BA",
"m+	c #6950CB",
"n+	c #574AC4",
"o+	c #3A3384",
"p+	c #2F2C53",
"q+	c #242324",
"r+	c #161516",
"s+	c #2D372C",
"t+	c #36662F",
"u+	c #549841",
"v+	c #76BA52",
"w+	c #8BA151",
"x+	c #A08053",
"y+	c #AF6359",
"z+	c #AD5467",
"A+	c #9E5084",
"B+	c #8A50A4",
"C+	c #7550BE",
"D+	c #6651CE",
"E+	c #5249C0",
"F+	c #2D2565",
"G+	c #231D4F",
"H+	c #2D5027",
"I+	c #50833F",
"J+	c #78B156",
"K+	c #8E9B52",
"L+	c #A27D52",
"M+	c #B06257",
"N+	c #AD5468",
"O+	c #9E5085",
"P+	c #7250C1",
"Q+	c #6351CF",
"R+	c #564CC3",
"S+	c #47367A",
"T+	c #40305F",
"U+	c #455C3A",
"V+	c #5F8947",
"W+	c #7EAE53",
"X+	c #939551",
"Y+	c #A67653",
"Z+	c #B25B5A",
"`+	c #AA526F",
" @	c #8250AE",
".@	c #6E50C6",
"+@	c #6252CE",
"@@	c #534BBB",
"#@	c #372867",
"$@	c #311F52",
"%@	c #527541",
"&@	c #6B874E",
"*@	c #8C844F",
"=@	c #A47153",
"-@	c #B05B5D",
";@	c #A55277",
">@	c #945094",
",@	c #8150AE",
"'@	c #6B50BE",
")@	c #5E4DB7",
"!@	c #5548A5",
"~@	c #4B3978",
"{@	c #637B49",
"]@	c #778A4F",
"^@	c #938151",
"/@	c #A76B56",
"(@	c #B05663",
"_@	c #A2517E",
":@	c #8F509C",
"<@	c #7A50B5",
"[@	c #664FBF",
"}@	c #594AB0",
"|@	c #4E4298",
"1@	c #3C2B69",
"2@	c #5C5F44",
"3@	c #7E6846",
"4@	c #945D4D",
"5@	c #9D4E5A",
"6@	c #8D4977",
"7@	c #7D4790",
"8@	c #6E47A2",
"9@	c #5E47A2",
"0@	c #584593",
"a@	c #544281",
"b@	c #6C6649",
"c@	c #87644A",
"d@	c #965752",
"e@	c #9A4A60",
"f@	c #89487D",
"g@	c #794896",
"h@	c #6848A7",
"i@	c #5645A2",
"j@	c #4E3E8A",
"k@	c #49376E",
"l@	c #503D28",
"m@	c #54352B",
"n@	c #552C32",
"o@	c #492640",
"p@	c #41254C",
"q@	c #3E2652",
"r@	c #432748",
"s@	c #472B4E",
"t@	c #552F2C",
"u@	c #52292E",
"v@	c #4E2635",
"w@	c #462542",
"x@	c #3F254F",
"y@	c #3A2558",
"z@	c #362252",
"A@	c #382555",
"B@	c #442B22",
"C@	c #422428",
"D@	c #381E32",
"E@	c #321C3B",
"F@	c #321D3E",
"G@	c #3C1F31",
"H@	c #421E26",
"I@	c #3B1D2A",
"J@	c #351C34",
"K@	c #311C3E",
"L@	c #2F1C44",
"M@	c #2E1A3E",
"                                                                                                ",
"                                                                                                ",
"                                                                                                ",
"                                                                                                ",
"                                                                                                ",
"                                                                                                ",
"                                                                                                ",
"                                                                                                ",
"                                                                                                ",
"                                                                                                ",
"                                                                                                ",
"                                                                                                ",
"                                                                                                ",
"                                                                                                ",
"                                                                                                ",
"                                                                                                ",
"                                                                                                ",
"                                        .           + @ #                                       ",
"                                $ $ % & @ * = - - ; > # , - $                                   ",
"                              ' ) ! ! - ~ { . & ] ^ / @ ( _ : <                                 ",
"                            [ } | 1 ~ - : 2 ^ 3 ~ - - ] 4 1 5 6 . 7 )                           ",
"                        8 9 0 a b c d e f g h i @ j ~ k l m n o p q r s                         ",
"                      t u v w x y z A B C D E g 3 [ F G H I J K L M N O P                       ",
"                    Q R S T U V W X Y Z `  .4 ! ] f ..+.@.#.$.%.&.*.=.-.;.>.                    ",
"                  ,.'.).!.~.{.].^./.(._.:.<.[.: }.|.1.2.3.4.5.6.7.8.9.0.a.b.c.                  ",
"                d.e.f.g.h.i.j.k.l.m.n.o.p.q.r.s.t.u.v.w.x.y.z.A.B.C.D.E.F.G.H.I.                ",
"                J.K.L.M.N.O.P.Q.R.S.T.U.V.W.X.! f Y.Z.`. +.+++@+#+$+%+&+*+=+-+;+                ",
"                >+,+ +'+)+!+~+{+]+^+/+(+_+:+<+- [+}+|+1+2+3+4+5+6+7+8+9+0+a+b+c+                ",
"                d+e+f+g+h+i+j+k+E.l+m+n+o+p+q+2 r+s+t+u+v+w+x+y+z+A+B+C+D+E+F+G+                ",
"                H+I+J+K+L+M+N+O+B+P+Q+R+S+T+        U+V+W+X+Y+Z+`+]+ @.@+@@@#@$@                ",
"                  %@&@*@=@-@;@>@,@'@)@!@~@            {@]@^@/@(@_@:@<@[@}@|@1@                  ",
"                    2@3@4@5@6@7@8@9@0@a@                b@c@d@e@f@g@h@i@j@k@                    ",
"                      l@m@n@o@p@q@r@s@                    t@u@v@w@x@y@z@A@                      ",
"                        B@C@D@E@F@G@                        H@I@J@K@L@M@                        ",
"                                                                                                ",
"                                                                                                ",
"                                                                                                ",
"                                                                                                ",
"                                                                                                ",
"                                                                                                ",
"                                                                                                ",
"                                                                                                ",
"                                                                                                ",
"                                                                                                ",
"                                                                                                ",
"                                                                                                ",
"                                                                                                ",
"                                                                                                "};
