/* XPM */
static char * save_as_xpm[] = {
"48 48 34 1",
" 	c None",
".	c #000000",
"+	c #040404",
"@	c #151515",
"#	c #191919",
"$	c #131313",
"%	c #262626",
"&	c #6A6A6A",
"*	c #7F7F7F",
"=	c #5F5F5F",
"-	c #BFBFBF",
";	c #1A1A1A",
">	c #808080",
",	c #999999",
"'	c #727272",
")	c #E5E5E5",
"!	c #8C8C8C",
"~	c #595959",
"{	c #4C4C4C",
"]	c #4D4D4D",
"^	c #080808",
"/	c #111111",
"(	c #0E0E0E",
"_	c #030303",
":	c #2A2A2A",
"<	c #555555",
"[	c #474747",
"}	c #333333",
"|	c #666666",
"1	c #161616",
"2	c #464646",
"3	c #737373",
"4	c #2B2B2B",
"5	c #090909",
"                                                ",
"                                                ",
"                                                ",
"                                                ",
"                                                ",
"                                     .          ",
"                                  ...   ..      ",
"                                 ...   ....     ",
"                                ...    ....     ",
"                                ...    ....     ",
"                                ...    .....    ",
"                                       .....    ",
"                                       ....     ",
"                                       ...      ",
"                                      ...       ",
"       ..........................    ...        ",
"      .+@#@+$%%%%%%%%%%%%%%$+@#@+.  ...         ",
"      .@&*&@=--------------=@&*&@. ...          ",
"      .;>,>;'))))))))))))))';>,>;....           ",
"      .;>,>;'))))))))))))))';>,>;....           ",
"      .;>,>;'))))))))))))))';>,>;....           ",
"      .;>,>;'))))))))))))))';>,>;......         ",
"      .;>,>;'))))))))))))))';>,>;.......        ",
"      .;>,>;'))))))))))))))';>,>;.  ....        ",
"      .;>,>;'))))))))))))))';>,>;.   ..         ",
"      .;>,>;'))))))))))))))';>,>;.              ",
"      .;>,>;'))))))))))))))';>,>;.              ",
"      .;>,>;'))))))))))))))';>,>;.  ...         ",
"      .;>,>;=--------------=;>,>;. .....        ",
"      .;>,>;$%%%%%%%%%%%%%%$;>,>;. .....        ",
"      .;>,!~{{{{{{{{{{{{{{{{~!,>;.  ...         ",
"      .;>,,,,,,,,,,,,,,,,,,,,,,>;.   .          ",
"      .;>,,,,,,,,,,,,,,,,,,,,,,>;.              ",
"      .;>,!~]]]]]]]]]]]]]]]]~!,>;.              ",
"      .;>,>;^/////////(_$%%$;>,>;.              ",
"      .;>,>;:<<<<<<<<<[(=--=;>,>;.              ",
"      .;>,>;}|||||||||</'))';>,>;.              ",
"      .;>,>;}|||||||||</'))';>,>;.              ",
"      .;>,>;}|||||||||</'))';>,>;.              ",
"       123>;}|||||||||</'))';>,>;.              ",
"        .2&@4<<<<<<<<<[(=--=@&>&@.              ",
"         1@+5/////////(_$%%$+@;@+.              ",
"          .......................               ",
"                                                ",
"                                                ",
"                                                ",
"                                                ",
"                                                "};
