/* XPM */
static char * save_xpm[] = {
"48 48 29 1",
" 	c None",
".	c #000000",
"+	c #0D0D0D",
"@	c #404040",
"#	c #4C4C4C",
"$	c #393939",
"%	c #727272",
"&	c #1A1A1A",
"*	c #808080",
"=	c #999999",
"-	c #E5E5E5",
";	c #737373",
">	c #848484",
",	c #2F2F2F",
"'	c #191919",
")	c #959595",
"!	c #7F7F7F",
"~	c #333333",
"{	c #2A2A2A",
"]	c #080808",
"^	c #666666",
"/	c #555555",
"(	c #111111",
"_	c #6D6D6D",
":	c #8C8C8C",
"<	c #595959",
"[	c #2B2B2B",
"}	c #090909",
"|	c #4D4D4D",
"                                                ",
"                                                ",
"                                                ",
"                                                ",
"                                                ",
"                                                ",
"                                                ",
"                                                ",
"                                                ",
"                                                ",
"                                                ",
"          ..........................            ",
"         .+@#@+$%%%%%%%%%%%%%%$+@#@+.           ",
"         .&*=*&%--------------%&*=*&.           ",
"         .&*=*&%--------------%&*=*&.           ",
"         .&*=*&%--------------%&*=*&.           ",
"         .&*=*&%--------------%&*=*&.           ",
"         .&*=*&%--------------%&*=*&.           ",
"         .&*=*&%--------------%&*=*&.           ",
"         .&*=*&%--------------%&*=*&.           ",
"         .&*=*&%--------------%&*=*&.           ",
"         .&*=*&%--------------%&*=*&.           ",
"         .&*=*&%--------------%&*=*&.           ",
"         .&*=*&%--------------%&*=*&.           ",
"         .&*=*&$;;;;;;;;;;;;;;$&*=*&.           ",
"         .&*=>,'''''''''''''''',>=*&.           ",
"         .&*=)>!!!!!!!!!!!!!!!!>)=*&.           ",
"         .&*======================*&.           ",
"         .&*=)>****************>)=*&.           ",
"         .&*=>,&&&&&&&&&&&&&&&&,>=*&.           ",
"         .&*=*&'~~~~~~~~~{]$%%$&*=*&.           ",
"         .&*=*&~^^^^^^^^^/(%--%&*=*&.           ",
"         .&*=*&~^^^^^^^^^/(%--%&*=*&.           ",
"         .&*=*&~^^^^^^^^^/(%--%&*=*&.           ",
"          '_:*&~^^^^^^^^^/(%--%&*=*&.           ",
"           '<*&~^^^^^^^^^/(%--%&*=*&.           ",
"            ~@+&~~~~~~~~~[}$;;$+@|@+.           ",
"             .......................            ",
"                                                ",
"                                                ",
"                                                ",
"                                                ",
"                                                ",
"                                                ",
"                                                ",
"                                                ",
"                                                ",
"                                                "};
