/* XPM */
static char * verify_chunks_xpm[] = {
"48 48 359 2",
"  	c None",
". 	c #919191",
"+ 	c #787878",
"@ 	c #747474",
"# 	c #797979",
"$ 	c #7C7C7C",
"% 	c #7E7E7E",
"& 	c #848484",
"* 	c #737373",
"= 	c #020202",
"- 	c #171717",
"; 	c #000000",
"> 	c #090909",
", 	c #060606",
"' 	c #7A7A7A",
") 	c #888888",
"! 	c #808080",
"~ 	c #000712",
"{ 	c #1C0005",
"] 	c #180001",
"^ 	c #937261",
"/ 	c #718C85",
"( 	c #76898D",
"_ 	c #788281",
": 	c #0A050B",
"< 	c #030102",
"[ 	c #160000",
"} 	c #000105",
"| 	c #9F767C",
"1 	c #6B7E8C",
"2 	c #001000",
"3 	c #170F00",
"4 	c #64786C",
"5 	c #886B81",
"6 	c #09FFEF",
"7 	c #EEEDFB",
"8 	c #FFE6FA",
"9 	c #04FFD4",
"0 	c #EAF3FF",
"a 	c #487F86",
"b 	c #160018",
"c 	c #0A1C0E",
"d 	c #000013",
"e 	c #B48983",
"f 	c #A1737D",
"g 	c #000300",
"h 	c #768171",
"i 	c #94848F",
"j 	c #DCFFFF",
"k 	c #15FEDE",
"l 	c #F8F9FF",
"m 	c #08FFD5",
"n 	c #F5FCFF",
"o 	c #07F3E5",
"p 	c #F0FFFF",
"q 	c #00E9B6",
"r 	c #458489",
"s 	c #0F0000",
"t 	c #7D8791",
"u 	c #828771",
"v 	c #000820",
"w 	c #001A0C",
"x 	c #936653",
"y 	c #EFFFF8",
"z 	c #00FFFF",
"A 	c #F7EDFF",
"B 	c #00E4E5",
"C 	c #E0FFFF",
"D 	c #1DEDE0",
"E 	c #FFF3FF",
"F 	c #00FDEE",
"G 	c #E4FFFF",
"H 	c #9386A2",
"I 	c #17031C",
"J 	c #001100",
"K 	c #807F7D",
"L 	c #B3B3B3",
"M 	c #070000",
"N 	c #847C89",
"O 	c #04FFF0",
"P 	c #00FCF5",
"Q 	c #FFE9F3",
"R 	c #1AFFFF",
"S 	c #FFFAF6",
"T 	c #00F7F6",
"U 	c #F9FFFF",
"V 	c #EAEAFF",
"W 	c #FFF7E4",
"X 	c #00FFEB",
"Y 	c #FFEBFA",
"Z 	c #736076",
"` 	c #081116",
" .	c #8D7D7E",
"..	c #818181",
"+.	c #000009",
"@.	c #697698",
"#.	c #F7FEFF",
"$.	c #FFF8FF",
"%.	c #04E6FF",
"&.	c #FCF7E1",
"*.	c #00FCFF",
"=.	c #0EFCCA",
"-.	c #E0FFE8",
";.	c #00F3EA",
">.	c #FBFBDF",
",.	c #11FFF6",
"'.	c #8D7D80",
").	c #00030B",
"!.	c #84777E",
"~.	c #858585",
"{.	c #050E09",
"].	c #956F7C",
"^.	c #00FFD5",
"/.	c #03FFF9",
"(.	c #F2FFFD",
"_.	c #06F8FF",
":.	c #EAFFF3",
"<.	c #1ADBDA",
"[.	c #DBFFFF",
"}.	c #00F8E8",
"|.	c #FFFFFB",
"1.	c #05FBF6",
"2.	c #FFEDF8",
"3.	c #867CA1",
"4.	c #000C00",
"5.	c #917C81",
"6.	c #7F7F7F",
"7.	c #000108",
"8.	c #7E807B",
"9.	c #B2C3B1",
"0.	c #FFEFFF",
"a.	c #06FFFF",
"b.	c #00F6E4",
"c.	c #00FBF4",
"d.	c #FCFFFF",
"e.	c #12FFF6",
"f.	c #EFE6FF",
"g.	c #0DFFFE",
"h.	c #FFF5FF",
"i.	c #00FAD3",
"j.	c #80808A",
"k.	c #001206",
"l.	c #8D7A73",
"m.	c #7D7D7D",
"n.	c #B8B8B8",
"o.	c #000B00",
"p.	c #000505",
"q.	c #C1CCD0",
"r.	c #04FFEA",
"s.	c #DFFFFF",
"t.	c #00F2F4",
"u.	c #FFEEFF",
"v.	c #00FCE0",
"w.	c #E2FCFF",
"x.	c #13FFE1",
"y.	c #FFE4FF",
"z.	c #03FFD9",
"A.	c #83799C",
"B.	c #000F04",
"C.	c #000A0D",
"D.	c #978078",
"E.	c #CBB7C0",
"F.	c #6D8746",
"G.	c #FF000E",
"H.	c #060000",
"I.	c #1B0007",
"J.	c #926795",
"K.	c #FFF8F0",
"L.	c #1EFFFF",
"M.	c #FAFFDA",
"N.	c #00F7FF",
"O.	c #FFF1FF",
"P.	c #FFFDFF",
"Q.	c #0BFFEA",
"R.	c #DCE8F4",
"S.	c #A399A4",
"T.	c #0A001B",
"U.	c #6F7C62",
"V.	c #8C868A",
"W.	c #F2BCBA",
"X.	c #F11018",
"Y.	c #E90611",
"Z.	c #C6C6C6",
"`.	c #000400",
" +	c #7E786A",
".+	c #001013",
"++	c #00FBD7",
"@+	c #FFE9DA",
"#+	c #10FFFF",
"$+	c #FFF3E0",
"%+	c #00FEE0",
"&+	c #D9EFFD",
"*+	c #00FFD6",
"=+	c #F0FFFB",
"-+	c #876D88",
";+	c #00020B",
">+	c #260000",
",+	c #7D98A3",
"'+	c #C6BCB3",
")+	c #F60016",
"!+	c #F60000",
"~+	c #FF001B",
"{+	c #C3C8C1",
"]+	c #C9C4B1",
"^+	c #000412",
"/+	c #7A9E9E",
"(+	c #6D8AAC",
"_+	c #E3F6DA",
":+	c #06FFEE",
"<+	c #FFF6FF",
"[+	c #10FFDF",
"}+	c #A67690",
"|+	c #718A91",
"1+	c #020300",
"2+	c #94838B",
"3+	c #A2CAC2",
"4+	c #7F9169",
"5+	c #FF0008",
"6+	c #EB0200",
"7+	c #847C57",
"8+	c #D6D6D6",
"9+	c #0C0203",
"0+	c #150000",
"a+	c #0F0C1F",
"b+	c #1F0000",
"c+	c #000007",
"d+	c #976E90",
"e+	c #55907C",
"f+	c #96748F",
"g+	c #857C97",
"h+	c #200004",
"i+	c #000D09",
"j+	c #220000",
"k+	c #90756E",
"l+	c #DFACB5",
"m+	c #F80A24",
"n+	c #FA0100",
"o+	c #EE0613",
"p+	c #D2D2D2",
"q+	c #040700",
"r+	c #6C7A7A",
"s+	c #51826F",
"t+	c #31000B",
"u+	c #0E1618",
"v+	c #001702",
"w+	c #300115",
"x+	c #180003",
"y+	c #0B0017",
"z+	c #7B8E72",
"A+	c #92818B",
"B+	c #A1BEAC",
"C+	c #A06D58",
"D+	c #F11419",
"E+	c #E60000",
"F+	c #A19676",
"G+	c #C3C3C3",
"H+	c #040404",
"I+	c #0E0E0E",
"J+	c #120000",
"K+	c #7B8B98",
"L+	c #729A77",
"M+	c #8B869A",
"N+	c #9D7776",
"O+	c #6D6B6C",
"P+	c #539E89",
"Q+	c #71886B",
"R+	c #6B8B98",
"S+	c #FF0314",
"T+	c #E80E05",
"U+	c #EF071F",
"V+	c #D0A6B4",
"W+	c #C2C2C2",
"X+	c #B9B9B9",
"Y+	c #0A0A0A",
"Z+	c #85888F",
"`+	c #876E71",
" @	c #797985",
".@	c #F90000",
"+@	c #FD0601",
"@@	c #8D7656",
"#@	c #CECECE",
"$@	c #CACACA",
"%@	c #030303",
"&@	c #868686",
"*@	c #6D8175",
"=@	c #86918B",
"-@	c #8D7C60",
";@	c #ED0900",
">@	c #E8021F",
",@	c #B6C6BC",
"'@	c #D4D4D4",
")@	c #8F8F8F",
"!@	c #7B7B7B",
"~@	c #8E8D89",
"{@	c #BBB9BE",
"]@	c #DD0A1B",
"^@	c #FA0005",
"/@	c #99775C",
"(@	c #BBBBBB",
"_@	c #BEBEBE",
":@	c #8E8E8E",
"<@	c #689165",
"[@	c #F80F0A",
"}@	c #F50B24",
"|@	c #90D4A5",
"1@	c #C4C4C4",
"2@	c #111111",
"3@	c #727272",
"4@	c #8A8A8A",
"5@	c #C92347",
"6@	c #FF041F",
"7@	c #D80000",
"8@	c #D7CBA5",
"9@	c #FF0D20",
"0@	c #EA0000",
"a@	c #AE6964",
"b@	c #101010",
"c@	c #0B0B0B",
"d@	c #070707",
"e@	c #8B8B8B",
"f@	c #FC0319",
"g@	c #FB0004",
"h@	c #FD0016",
"i@	c #B8D4AC",
"j@	c #FB0000",
"k@	c #FF0801",
"l@	c #0D0D0D",
"m@	c #010101",
"n@	c #898989",
"o@	c #FF0E25",
"p@	c #FD0006",
"q@	c #B8CBAB",
"r@	c #809C62",
"s@	c #E40000",
"t@	c #777777",
"u@	c #FF001D",
"v@	c #C2B8B6",
"w@	c #F30008",
"x@	c #FF0D05",
"y@	c #888773",
"z@	c #EB0E00",
"A@	c #EC0307",
"B@	c #DEBDB4",
"C@	c #FD030D",
"D@	c #DC0300",
"E@	c #EA0A08",
"F@	c #F80000",
"G@	c #FA0500",
"H@	c #FD0000",
"I@	c #FF0624",
"J@	c #FF0100",
"K@	c #E10500",
"L@	c #FF0821",
"M@	c #FF090F",
"N@	c #FF000A",
"O@	c #A7A78F",
"P@	c #EB000D",
"Q@	c #FF0329",
"R@	c #9FD3C7",
"                                                                                                ",
"                                                                                                ",
"                                                                                                ",
"                                                                                                ",
"                                                                                                ",
"                                                                                                ",
"                                                                                                ",
"                                                                                                ",
"                                                                                                ",
"                                                                                                ",
"                                              . + @ # $ % +                                     ",
"                                            & * = - ; > = , ' ) !                               ",
"                                            ~ { ] ^ / ( _ : < [ } |                             ",
"                                        1 2 3 4 5 6 7 8 9 0 a b c d e                           ",
"                                        f g h i j k l m n o p q r s t u                         ",
"                                        v w x y z A B C D E F G H I J K L                       ",
"                                        M N O P Q R S T U V W X Y Z `  .                        ",
"                                      ..+.@.#.$.%.&.*.U =.-.;.>.,.'.).!.                        ",
"                                      ~.{.].^./.(._.:.<.[.}.|.1.2.3.4.5.                        ",
"                                      6.7.8.9.0.a.b.c.d.e.f.g.h.i.j.k.l.m.    n.                ",
"                                        o.p.q.r.s.t.u.v.w.x.y.z.A.B.C.D.    E.F.G.              ",
"                                        H.I.J.K.L.M.N.$.O.P.Q.R.S.T.U.V.    W.X.Y.              ",
"                                      Z.`. +.+++@+#+$+%+&+*+=+-+;+>+,+    '+)+!+~+{+            ",
"                                      ; ]+^+o./+(+_+:+<+[+}+|+1+1+2+    3+4+5+6+7+              ",
"                                    ; 8+9+0+a+b+c+d+e+f+g+h+i+j+k+      l+m+n+o+                ",
"                                  ; p+; o.q+r+s+t+u+v+w+x+y+z+A+      B+C+D+E+F+                ",
"                                ; G+H+I+J+K+L+M+N+    O+P+Q+R+          S+T+U+V+                ",
"                            W+; X+Y+; ; Z+`+ @                          .@+@@@                  ",
"                          #@; $@%@; ; &@*@=@                          -@;@>@,@                  ",
"                        '@; W+; ; ; )@!@~@                          {@]@^@/@                    ",
"                      (@; _@Y+; ; :@' 6.                            <@[@}@|@                    ",
"                  Z.(@Y+1@> ; 2@3@m.4@                5@6@7@8@      9@0@a@                      ",
"                    b@; c@; d@3@e@                      f@g@h@    i@j@k@                        ",
"                    ; l@c@m@!@n@                          o@p@q@  r@s@h@                        ",
"                      ; ; t@)                               .@u@v@w@x@y@                        ",
"                          4@                                z@A@B@C@D@                          ",
"                                                              E@F@G@H@                          ",
"                                                              I@J@K@L@                          ",
"                                                                M@N@O@                          ",
"                                                                P@Q@R@                          ",
"                                                                                                ",
"                                                                                                ",
"                                                                                                ",
"                                                                                                ",
"                                                                                                ",
"                                                                                                ",
"                                                                                                ",
"                                                                                                "};
