/* XPM */
static char *view_users[] = {
/* width height num_colors chars_per_pixel */
"    32    32      157            2",
/* colors */
".. c #b2c0dc",
".# c #adadad",
".a c #505050",
".b c #0e0e0e",
".c c #000000",
".d c #080808",
".e c #363636",
".f c #8c8c8c",
".g c #a9a9a9",
".h c #292929",
".i c #111111",
".j c #6b6b6b",
".k c #555555",
".l c #141414",
".m c #9c9c9c",
".n c #272727",
".o c #636363",
".p c #4a4a4a",
".q c #646464",
".r c #303030",
".s c #040404",
".t c #424242",
".u c #5e5e5e",
".v c #474747",
".w c #595959",
".x c #222222",
".y c #cecece",
".z c #c9c9c9",
".A c #ffffff",
".B c #d7d7d7",
".C c #939393",
".D c #f6f6f6",
".E c #7b7b7b",
".F c #a4a4a4",
".G c #868686",
".H c #e6e6e6",
".I c #4d4d4d",
".J c #c3c3c3",
".K c #3d3d3d",
".L c #ebebeb",
".M c #f2f2f2",
".N c #bdbdbd",
".O c #1d1d1d",
".P c #9a9a9a",
".Q c #d2d2d2",
".R c #bbbbbb",
".S c #fbfbfb",
".T c #838383",
".U c #a0a0a0",
".V c #3b3b3b",
".W c #b2b2b2",
".X c #c7c9d0",
".Y c #0d0e12",
".Z c #83848c",
".0 c #e3e3e3",
".1 c #6e6e6e",
".2 c #858691",
".3 c #f5f7ff",
".4 c #cfd0d9",
".5 c #9597a0",
".6 c #797b85",
".7 c #524910",
".8 c #c4a800",
".9 c #e3c300",
"#. c #ddbe00",
"## c #988100",
"#a c #9b9575",
"#b c #d4d6e2",
"#c c #f8f9ff",
"#d c #a2a3ad",
"#e c #00000b",
"#f c #242000",
"#g c #161400",
"#h c #6d5e00",
"#i c #ccb100",
"#j c #c1a600",
"#k c #bea827",
"#l c #998d46",
"#m c #615825",
"#n c #796700",
"#o c #fbd700",
"#p c #b69d00",
"#q c #af9600",
"#r c #8a7700",
"#s c #f7d400",
"#t c #e0bf00",
"#u c #89780e",
"#v c #554e27",
"#w c #4d4621",
"#x c #574b00",
"#y c #ebba00",
"#z c #c18e00",
"#A c #f9d000",
"#B c #f4d100",
"#C c #fcd800",
"#D c #e5c500",
"#E c #edcb00",
"#F c #ebc800",
"#G c #f8d800",
"#H c #f8c600",
"#I c #d49600",
"#J c #937c00",
"#K c #ffbc00",
"#L c #f3d100",
"#M c #f1cf00",
"#N c #fab700",
"#O c #564600",
"#P c #1a1700",
"#Q c #e1ac00",
"#R c #f6c400",
"#S c #8d6e00",
"#T c #493c00",
"#U c #f4b100",
"#V c #ffc100",
"#W c #a57f00",
"#X c #040500",
"#Y c #664d00",
"#Z c #fab900",
"#0 c #a57b00",
"#1 c #6e4c00",
"#2 c #8a6400",
"#3 c #2d2d2d",
"#4 c #694200",
"#5 c #f3b600",
"#6 c #ecad00",
"#7 c #664900",
"#8 c #482d00",
"#9 c #dea200",
"a. c #fed400",
"a# c #ffcc00",
"aa c #bf8500",
"ab c #312200",
"ac c #190e00",
"ad c #895a00",
"ae c #f2ba00",
"af c #d29700",
"ag c #673e00",
"ah c #2d3036",
"ai c #80766b",
"aj c #c8b494",
"ak c #9d968e",
"al c #5d6068",
"am c #d8d8d8",
"an c #727272",
"ao c #dfdfdf",
"ap c #757575",
"aq c #efefef",
"ar c #959595",
"as c #323232",
"at c #fefefe",
"au c #c5c5c5",
"av c #8a8a8a",
"aw c #2b2b2b",
"ax c #fdfdfd",
"ay c #f7f7f7",
"az c #fafafa",
"aA c #f5f5f5",
/* pixels */
"................................................................",
"................................................................",
"................................................................",
"................................................................",
".........................a.b.c.c.d.e............................",
".....................g.h.c.c.c.c.c.c.i.j........................",
"...................n.c.c.c.c.c.c.c.c.c.c.c.o....................",
".................h.c.c.c.c.c.c.c.c.c.c.c.c.c....................",
"...............g.c.c.c.c.c.c.c.c.c.c.c.c.c.c.c.#................",
"...............r.c.c.s.t.v.b.c.e.w.h.c.c.c.c.c.x................",
".............G.c.c.h.A.A.A.A.A.A.A.A.f.c.c.c.c.c................",
".............k.c.s.J.A.A.A.A.A.A.A.A.A.K.c.c.c.c................",
".............h.c.N.A.A.M.A.A.L.A.t.O.A.Q.c.c.c.c.R..............",
".............n.c.P.A.I.n.A.S.F.A.c.c.A.Q.c.c.c.c.#..............",
".............n.c.v.A.c.c.X.Y.c.Z.0.N.A.1.c.c.c.c.y..............",
".............n.c.c.2.4.5.7.8#.###b.A#d#e#g.c.c.c................",
".............p.c#A#s#o#C#o#q#j#D#o#E#C#G#I.c.c.c................",
".............q.c#K#L#M#M#M#B#s#L#M#L#L#M#O.c.c.c................",
".............g.c#T#U#L#M#M#M#M#M#M#M#V#W.c.c.c.c................",
"...............c.c#Y#L#M#M#M#M#M#L#L#0#X.c.c.c.c................",
"..............#3.c.c#4#5#L#M#M#L#6#7.c.c.c.c.c.c.P..............",
"...............p.c.c.c#8a.#B#sa#ab.c.c.c.c.c.c.c.1..............",
"...............u.c.c.c.cahaiakal.c.c.c.c.c.c.c.c.s..............",
"...............v.c.c.c#3.A.A.A.Aaman.c.c.c.c.c.c.c.m............",
".............h.c.c.c.S.A.A.A.A.A.A.A.A.f.c.c.c.c.c.c.q..........",
".............c.c.c.l.A.A.A.A.A.A.A.A.A.A.c.c.c.c.c.c.c.a........",
".............h.s.s.Q.A.A.A.A.A.A.A.A.A.Aaq.l.c.c.c.c.i.w........",
"............ar.O.v.A.A.A.A.A.A.A.A.A.A.A.Aar.c.c.c.c.o..........",
"................as.A.Aat.A.A.A.A.A.A.A.A.A.A.s.c.c.q............",
".................A.A.A.A.A.A.A.A.A.A.A.A.A.A.c.cav..............",
"...........................A.A.AaxatazaA........................",
"................................................................"
};
